<svg width="19" height="15" viewBox="0 0 19 15" fill="none" xmlns="http://www.w3.org/2000/svg">
<path d="M0.959595 8.66993L15.5455 8.66993L10.8914 12.9443C10.5076 13.2922 10.4596 13.9383 10.7955 14.3359C11.1313 14.7335 11.7551 14.7832 12.1389 14.4353L18.6641 8.42142C18.8561 8.22261 19 7.9741 19 7.67589C19 7.37768 18.904 7.12918 18.6641 6.93037L12.1869 0.916477C11.9949 0.767372 11.7551 0.667969 11.5631 0.667969C11.2753 0.667969 11.0354 0.767372 10.8434 1.01588C10.5076 1.41349 10.5076 2.05961 10.9394 2.40752L15.5455 6.68186L0.959595 6.68186C0.431818 6.68186 0 7.12918 0 7.67589C0 8.22261 0.431818 8.66993 0.959595 8.66993Z" fill="#6754E2"/>
</svg>
