<svg width="33" height="33" viewBox="0 0 33 33" fill="none" xmlns="http://www.w3.org/2000/svg">
<circle cx="16.5" cy="16.5" r="16.5" fill="#5D2BFF"/>
<path fill-rule="evenodd" clip-rule="evenodd" d="M7.48352 15.4191C7.23256 17.5139 7.71893 19.6306 8.85907 21.4057C9.9992 23.1807 11.7219 24.5033 13.7312 25.146C15.7405 25.7887 17.9109 25.7116 19.8694 24.9277C21.828 24.1439 23.4524 22.7024 24.4636 20.8508C25.4748 18.9993 25.8097 16.8533 25.4106 14.7817C25.0115 12.71 23.9034 10.8421 22.2767 9.49878C21.0085 8.45152 19.4869 7.77412 17.8782 7.52641L17.8782 9.19692C17.8782 9.9599 17.2597 10.5784 16.4968 10.5784C15.7339 10.5784 15.1154 9.9599 15.1154 9.19692L15.1154 6.23656C15.1154 5.3713 15.8214 4.64285 16.7202 4.65981C19.3924 4.71021 21.9716 5.66357 24.0358 7.36824C26.1576 9.12037 27.6029 11.5568 28.1235 14.259C28.644 16.9611 28.2073 19.7602 26.8883 22.1752C25.5694 24.5903 23.4505 26.4706 20.8959 27.493C18.3412 28.5154 15.5103 28.616 12.8895 27.7777C10.2687 26.9393 8.02168 25.2143 6.53455 22.899C5.04741 20.5837 4.41301 17.8227 4.74036 15.0904C5.06771 12.3581 6.33636 9.82517 8.32833 7.92676C8.88063 7.4004 9.75503 7.42146 10.2813 7.97381C10.8077 8.52616 10.7866 9.40062 10.2343 9.92698C8.70713 11.3824 7.73449 13.3244 7.48352 15.4191Z" fill="white"/>
<path fill-rule="evenodd" clip-rule="evenodd" d="M11.5687 11.3775C12.1081 10.838 12.9828 10.838 13.5222 11.3775L17.8638 15.7194C18.4032 16.2589 18.4032 17.1336 17.8638 17.6731C17.3243 18.2126 16.4497 18.2126 15.9102 17.6731L11.5687 13.3313C11.0292 12.7918 11.0292 11.917 11.5687 11.3775Z" fill="white"/>
</svg>
