<svg width="400" height="72" viewBox="0 0 400 72" fill="none" xmlns="http://www.w3.org/2000/svg">
<path d="M218.472 45.935C216.157 45.935 214.186 45.6784 212.557 45.1653C210.928 44.6949 209.364 44.1177 207.864 43.4335V36.1214C208.85 36.7628 209.878 37.3828 210.95 37.9815C212.064 38.5374 213.243 38.9864 214.486 39.3284C215.772 39.6705 217.143 39.8416 218.6 39.8416C220.315 39.8416 221.579 39.5209 222.394 38.8795C223.251 38.1953 223.679 37.3828 223.679 36.4421C223.679 35.5441 223.358 34.8599 222.715 34.3896C222.072 33.8764 221.236 33.4488 220.208 33.1067C219.179 32.7646 218.086 32.4226 216.929 32.0805C215.857 31.8239 214.764 31.4818 213.65 31.0542C212.579 30.6266 211.593 30.0493 210.693 29.3224C209.793 28.5955 209.064 27.6761 208.507 26.5643C207.993 25.4098 207.735 24.02 207.735 22.3951C207.735 20.4709 208.121 18.846 208.893 17.5204C209.664 16.1948 210.671 15.1258 211.914 14.3133C213.157 13.5009 214.529 12.9236 216.029 12.5815C217.529 12.1966 218.986 12.0042 220.401 12.0042C222.844 12.0897 224.815 12.3891 226.315 12.9022C227.815 13.3726 229.23 13.9926 230.558 14.7623L230.623 21.3689C229.123 20.5564 227.665 19.8295 226.251 19.1881C224.837 18.5039 223.229 18.1618 221.429 18.1618C219.758 18.1618 218.45 18.4611 217.507 19.0598C216.607 19.6157 216.157 20.4067 216.157 21.433C216.157 22.331 216.436 23.0579 216.993 23.6138C217.55 24.1697 218.279 24.5973 219.179 24.8966C220.079 25.196 221.065 25.4953 222.136 25.7946C223.208 26.0939 224.322 26.436 225.479 26.8209C226.637 27.163 227.708 27.6761 228.694 28.3603C229.68 29.0444 230.473 29.9638 231.073 31.1183C231.716 32.2301 232.037 33.7268 232.037 35.6082C231.994 38.0884 231.33 40.0981 230.044 41.6375C228.758 43.1342 227.065 44.2246 224.965 44.9087C222.908 45.5929 220.743 45.935 218.472 45.935Z" fill="white"/>
<path d="M249.565 45.9991C246.222 45.9991 243.672 45.1867 241.914 43.5618C240.157 41.8941 239.278 39.4995 239.278 36.3779V19.0598H234.264V12.6456H239.278V3.72998H247.7V12.6456H255.222V19.0598H247.7V35.0951C247.7 36.4207 247.958 37.4042 248.472 38.0456C248.986 38.687 249.886 39.0077 251.172 39.0077C251.858 39.0077 252.565 38.9008 253.294 38.687C254.065 38.4305 254.708 38.1311 255.222 37.789V44.8446C254.365 45.2722 253.422 45.5715 252.394 45.7426C251.408 45.9136 250.465 45.9991 249.565 45.9991Z" fill="white"/>
<path d="M272.609 45.935C270.809 45.935 269.094 45.764 267.466 45.4219C265.837 45.0798 264.38 44.5239 263.094 43.7542C261.808 42.9417 260.779 41.8513 260.008 40.483C259.279 39.0719 258.915 37.3187 258.915 35.2234C258.915 33.0426 259.365 31.2039 260.265 29.7072C261.165 28.1678 262.472 27.0133 264.187 26.2436C265.944 25.4311 268.087 25.0249 270.616 25.0249C272.159 25.0249 273.595 25.1746 274.923 25.4739C276.252 25.7305 277.452 26.0939 278.524 26.5643C279.595 27.0347 280.474 27.5478 281.159 28.1037L281.738 32.6577C280.838 32.0591 279.681 31.5887 278.266 31.2466C276.895 30.8618 275.395 30.6694 273.766 30.6694C271.495 30.6694 269.802 31.0328 268.687 31.7598C267.573 32.4867 267.016 33.6199 267.016 35.1593C267.016 36.2283 267.316 37.1263 267.916 37.8532C268.516 38.5374 269.287 39.0719 270.23 39.4567C271.173 39.7988 272.159 39.9699 273.187 39.9699C275.545 39.9699 277.238 39.8202 278.266 39.5209C279.338 39.1788 279.874 38.4732 279.874 37.4042V24.6401C279.874 22.5448 279.209 21.0268 277.881 20.086C276.552 19.1025 274.688 18.6108 272.287 18.6108C270.444 18.6108 268.559 18.9315 266.63 19.5729C264.701 20.1716 263.137 20.9626 261.937 21.9461V14.5699C263.094 13.8429 264.83 13.2015 267.144 12.6456C269.459 12.0897 271.945 11.8118 274.602 11.8118C275.716 11.8118 276.895 11.9187 278.138 12.1325C279.381 12.3463 280.559 12.6884 281.674 13.1588C282.831 13.6291 283.881 14.2919 284.824 15.1471C285.767 15.9596 286.517 17.0072 287.074 18.2901C287.631 19.5301 287.91 21.0482 287.91 22.8441V38.1739C287.91 40.1837 287.267 41.7658 285.981 42.9204C284.695 44.0321 282.917 44.8018 280.645 45.2294C278.374 45.6998 275.695 45.935 272.609 45.935Z" fill="white"/>
<path d="M307.095 45.9991C303.752 45.9991 301.201 45.1867 299.444 43.5618C297.687 41.8941 296.808 39.4995 296.808 36.3779V19.0598H291.794V12.6456H296.808V3.72998H305.23V12.6456H312.752V19.0598H305.23V35.0951C305.23 36.4207 305.487 37.4042 306.002 38.0456C306.516 38.687 307.416 39.0077 308.702 39.0077C309.388 39.0077 310.095 38.9008 310.823 38.687C311.595 38.4305 312.238 38.1311 312.752 37.789V44.8446C311.895 45.2722 310.952 45.5715 309.923 45.7426C308.938 45.9136 307.995 45.9991 307.095 45.9991Z" fill="white"/>
<path d="M332.839 45.935C329.839 45.935 327.224 45.4646 324.995 44.5239C322.81 43.5404 321.095 42.0865 319.852 40.1623C318.652 38.238 318.052 35.7793 318.052 32.786V12.6456H326.217V31.9522C326.217 34.3468 326.753 36.1214 327.824 37.2759C328.896 38.4305 330.567 39.0077 332.839 39.0077C335.196 39.0077 336.889 38.4305 337.918 37.2759C338.989 36.1214 339.525 34.3468 339.525 31.9522V12.6456H347.24V32.786C347.24 37.2332 345.954 40.5471 343.383 42.7279C340.854 44.866 337.339 45.935 332.839 45.935Z" fill="white"/>
<path d="M363.489 45.935C361.175 45.935 359.203 45.6784 357.575 45.1653C355.946 44.6949 354.382 44.1177 352.881 43.4335V36.1214C353.867 36.7628 354.896 37.3828 355.967 37.9815C357.082 38.5374 358.26 38.9864 359.503 39.3284C360.789 39.6705 362.161 39.8416 363.618 39.8416C365.332 39.8416 366.597 39.5209 367.411 38.8795C368.268 38.1953 368.697 37.3828 368.697 36.4421C368.697 35.5441 368.375 34.8599 367.732 34.3896C367.09 33.8764 366.254 33.4488 365.225 33.1067C364.197 32.7646 363.104 32.4226 361.946 32.0805C360.875 31.8239 359.782 31.4818 358.668 31.0542C357.596 30.6266 356.61 30.0493 355.71 29.3224C354.81 28.5955 354.082 27.6761 353.524 26.5643C353.01 25.4098 352.753 24.02 352.753 22.3951C352.753 20.4709 353.139 18.846 353.91 17.5204C354.682 16.1948 355.689 15.1258 356.932 14.3133C358.175 13.5009 359.546 12.9236 361.046 12.5815C362.546 12.1966 364.004 12.0042 365.418 12.0042C367.861 12.0897 369.833 12.3891 371.333 12.9022C372.833 13.3726 374.247 13.9926 375.576 14.7623L375.64 21.3689C374.14 20.5564 372.683 19.8295 371.268 19.1881C369.854 18.5039 368.247 18.1618 366.447 18.1618C364.775 18.1618 363.468 18.4611 362.525 19.0598C361.625 19.6157 361.175 20.4067 361.175 21.433C361.175 22.331 361.453 23.0579 362.011 23.6138C362.568 24.1697 363.296 24.5973 364.197 24.8966C365.097 25.196 366.082 25.4953 367.154 25.7946C368.225 26.0939 369.34 26.436 370.497 26.8209C371.654 27.163 372.726 27.6761 373.712 28.3603C374.697 29.0444 375.49 29.9638 376.09 31.1183C376.733 32.2301 377.055 33.7268 377.055 35.6082C377.012 38.0884 376.347 40.0981 375.062 41.6375C373.776 43.1342 372.083 44.2246 369.983 44.9087C367.925 45.5929 365.761 45.935 363.489 45.935Z" fill="white"/>
<path d="M74.875 44.9731L64.0742 12.6458H72.8177L80.5326 39.5211L78.0252 39.7776L85.4186 12.6458H91.7191L98.9839 39.0079H96.9909L104.577 12.6458H113.064L102.263 44.9731H94.805L87.7331 21.8822L89.1475 22.267L82.397 44.9731H74.875Z" fill="white"/>
<path d="M129.399 45.9352C124.084 45.9352 120.098 44.46 117.441 41.5095C114.783 38.559 113.455 34.3042 113.455 28.7453C113.455 22.8016 114.805 18.4827 117.505 15.7888C120.248 13.0948 124.191 11.7479 129.334 11.7479C132.935 11.7479 135.935 12.3893 138.335 13.6721C140.735 14.9122 142.514 16.7937 143.671 19.3165C144.871 21.8394 145.471 24.9824 145.471 28.7453C145.471 34.3042 144.078 38.559 141.293 41.5095C138.549 44.46 134.585 45.9352 129.399 45.9352ZM129.399 39.2645C131.285 39.2645 132.806 38.8369 133.963 37.9817C135.163 37.1265 136.042 35.9292 136.599 34.3898C137.156 32.8076 137.435 30.9261 137.435 28.7453C137.435 26.308 137.135 24.3196 136.535 22.7802C135.978 21.2408 135.099 20.1076 133.899 19.3807C132.742 18.6538 131.242 18.2903 129.399 18.2903C127.513 18.2903 125.991 18.6751 124.834 19.4448C123.677 20.2145 122.82 21.3691 122.263 22.9085C121.748 24.4479 121.491 26.3935 121.491 28.7453C121.491 32.1662 122.113 34.7746 123.355 36.5706C124.598 38.3665 126.613 39.2645 129.399 39.2645Z" fill="white"/>
<path d="M150.485 44.9731V15.7888C151.085 15.4039 152.135 14.8908 153.635 14.2494C155.178 13.608 156.957 13.0521 158.971 12.5817C160.986 12.0686 163.022 11.812 165.079 11.812C166.622 11.812 167.843 11.9403 168.744 12.1969C169.686 12.4107 170.415 12.6886 170.929 13.0307V19.1883C170.072 19.06 169.086 18.9531 167.972 18.8676C166.901 18.782 165.786 18.7607 164.629 18.8034C163.515 18.8034 162.422 18.8462 161.35 18.9317C160.321 19.0172 159.421 19.1241 158.65 19.2524V44.9731H150.485Z" fill="white"/>
<path d="M181.157 26.6928L193.694 12.6458H203.659L185.336 30.9903L181.157 26.6928ZM182.893 44.9731H174.792V0.458984H182.957L182.893 44.9731ZM187.008 23.5499L204.88 44.9731H194.529L181.221 29.0019L187.008 23.5499Z" fill="white"/>
<path d="M207.778 67.9626V55.9916H215.699V57.6607H209.79V61.1246H214.937V62.8116H209.772V66.2934H215.699V67.9626H207.778Z" fill="#CCCCCC"/>
<path d="M219.25 67.9626V60.5144H217.8V58.9529H219.268V58.594C219.268 57.9598 219.335 57.4334 219.467 57.0146C219.612 56.5958 219.8 56.2608 220.029 56.0096C220.259 55.7583 220.513 55.5728 220.791 55.4532C221.069 55.3216 221.346 55.2378 221.624 55.2019C221.914 55.166 222.186 55.1481 222.44 55.1481C222.621 55.1481 222.803 55.16 222.984 55.184C223.165 55.2079 223.322 55.2378 223.455 55.2737V56.9428C223.346 56.883 223.231 56.8351 223.111 56.7992C223.002 56.7514 222.857 56.7274 222.676 56.7274C222.494 56.7274 222.313 56.7454 222.132 56.7813C221.951 56.8052 221.788 56.877 221.643 56.9967C221.498 57.1043 221.383 57.2719 221.298 57.4992C221.214 57.7265 221.171 58.0376 221.171 58.4325V58.9529H223.455V60.5144H221.153V67.9626H219.25Z" fill="#CCCCCC"/>
<path d="M226.37 67.9626V60.5144H224.92V58.9529H226.388V58.594C226.388 57.9598 226.454 57.4334 226.587 57.0146C226.732 56.5958 226.92 56.2608 227.149 56.0096C227.379 55.7583 227.633 55.5728 227.91 55.4532C228.188 55.3216 228.466 55.2378 228.744 55.2019C229.034 55.166 229.306 55.1481 229.56 55.1481C229.741 55.1481 229.922 55.16 230.104 55.184C230.285 55.2079 230.442 55.2378 230.575 55.2737V56.9428C230.466 56.883 230.351 56.8351 230.23 56.7992C230.122 56.7514 229.977 56.7274 229.795 56.7274C229.614 56.7274 229.433 56.7454 229.252 56.7813C229.07 56.8052 228.907 56.877 228.762 56.9967C228.617 57.1043 228.503 57.2719 228.418 57.4992C228.333 57.7265 228.291 58.0376 228.291 58.4325V58.9529H230.575V60.5144H228.273V67.9626H226.37Z" fill="#CCCCCC"/>
<path d="M236.13 68.2318C234.656 68.2318 233.556 67.819 232.831 66.9934C232.118 66.1678 231.762 64.9893 231.762 63.4577C231.762 61.8305 232.13 60.64 232.867 59.8862C233.616 59.1204 234.692 58.7376 236.093 58.7376C237.096 58.7376 237.924 58.923 238.577 59.2939C239.229 59.6529 239.712 60.1853 240.027 60.8913C240.341 61.5972 240.498 62.4527 240.498 63.4577C240.498 64.9773 240.117 66.1558 239.356 66.9934C238.607 67.819 237.531 68.2318 236.13 68.2318ZM236.112 66.6344C236.728 66.6344 237.217 66.5028 237.58 66.2396C237.942 65.9644 238.202 65.5875 238.359 65.1089C238.528 64.6303 238.613 64.0799 238.613 63.4577C238.613 62.7638 238.528 62.1835 238.359 61.7168C238.19 61.2502 237.924 60.9032 237.562 60.6759C237.199 60.4366 236.716 60.3169 236.112 60.3169C235.507 60.3169 235.024 60.4426 234.662 60.6938C234.299 60.9451 234.039 61.3041 233.882 61.7707C233.725 62.2373 233.647 62.7997 233.647 63.4577C233.647 64.4508 233.834 65.2286 234.208 65.7909C234.583 66.3533 235.217 66.6344 236.112 66.6344Z" fill="#CCCCCC"/>
<path d="M242.893 67.9626V59.7785C243.05 59.6828 243.34 59.5512 243.763 59.3837C244.186 59.2162 244.687 59.0726 245.267 58.9529C245.847 58.8213 246.433 58.7555 247.025 58.7555C247.327 58.7555 247.575 58.7794 247.768 58.8273C247.962 58.8752 248.125 58.929 248.258 58.9888V60.4964C247.98 60.4605 247.69 60.4366 247.388 60.4246C247.086 60.4007 246.784 60.4007 246.481 60.4246C246.179 60.4366 245.883 60.4605 245.593 60.4964C245.303 60.5323 245.037 60.5682 244.796 60.6041V67.9626H242.893Z" fill="#CCCCCC"/>
<path d="M253.558 68.1959C252.736 68.1959 252.084 67.9805 251.6 67.5498C251.129 67.119 250.893 66.4849 250.893 65.6473V60.5144H249.425V58.9529H250.893V56.4403H252.851V58.9529H255.062V60.5144H252.851V65.2704C252.851 65.6892 252.923 66.0063 253.068 66.2217C253.226 66.4251 253.509 66.5268 253.92 66.5268C254.126 66.5268 254.331 66.5028 254.537 66.455C254.742 66.3951 254.917 66.3234 255.062 66.2396V67.9087C254.845 68.0044 254.597 68.0762 254.319 68.1241C254.053 68.1719 253.8 68.1959 253.558 68.1959Z" fill="#CCCCCC"/>
<path d="M259.336 67.9626H257.451V55.5429H259.336V67.9626Z" fill="#CCCCCC"/>
<path d="M266.114 68.2318C265.22 68.2318 264.44 68.0523 263.776 67.6933C263.123 67.3344 262.616 66.802 262.253 66.096C261.903 65.3901 261.728 64.5286 261.728 63.5116C261.728 61.9442 262.096 60.7596 262.833 59.958C263.582 59.1444 264.622 58.7376 265.951 58.7376C266.93 58.7376 267.721 58.9529 268.325 59.3837C268.929 59.8144 269.364 60.4186 269.63 61.1964C269.908 61.9621 270.041 62.8595 270.029 63.8885H262.87L262.815 62.4886H268.579L268.126 62.9373C268.09 62.016 267.896 61.3459 267.546 60.9272C267.195 60.4964 266.646 60.281 265.896 60.281C265.413 60.281 265.002 60.3827 264.664 60.5862C264.326 60.7776 264.066 61.1126 263.885 61.5912C263.715 62.0578 263.631 62.704 263.631 63.5295C263.631 64.5346 263.866 65.3004 264.338 65.8268C264.809 66.3413 265.504 66.5986 266.422 66.5986C266.833 66.5986 267.214 66.5627 267.564 66.4909C267.926 66.4191 268.259 66.3293 268.561 66.2217C268.863 66.102 269.123 65.9883 269.34 65.8807V67.6216C268.917 67.801 268.44 67.9446 267.908 68.0523C267.377 68.1719 266.779 68.2318 266.114 68.2318Z" fill="#CCCCCC"/>
<path d="M275.027 68.2318C274.374 68.2318 273.818 68.16 273.359 68.0164C272.912 67.8848 272.471 67.7173 272.036 67.5139V65.7371C272.35 65.9285 272.658 66.102 272.96 66.2576C273.263 66.4011 273.577 66.5148 273.903 66.5986C274.241 66.6823 274.616 66.7242 275.027 66.7242C275.546 66.7242 275.951 66.6165 276.241 66.4011C276.543 66.1858 276.694 65.9165 276.694 65.5935C276.694 65.3183 276.598 65.1029 276.404 64.9474C276.223 64.7918 275.987 64.6602 275.697 64.5525C275.407 64.4449 275.105 64.3372 274.791 64.2295C274.465 64.1457 274.139 64.05 273.812 63.9423C273.486 63.8227 273.184 63.6671 272.906 63.4757C272.64 63.2723 272.423 63.015 272.254 62.704C272.097 62.3929 272.018 62.01 272.018 61.5553C272.018 61.0528 272.121 60.628 272.326 60.281C272.532 59.9221 272.797 59.6349 273.124 59.4196C273.462 59.1922 273.83 59.0307 274.229 58.935C274.64 58.8273 275.039 58.7735 275.426 58.7735C276.066 58.7854 276.586 58.8632 276.984 59.0068C277.395 59.1504 277.794 59.3238 278.181 59.5273L278.199 61.1425C277.764 60.9152 277.353 60.7178 276.966 60.5503C276.579 60.3827 276.132 60.299 275.625 60.299C275.154 60.299 274.761 60.3887 274.447 60.5682C274.133 60.7357 273.975 60.987 273.975 61.322C273.975 61.6092 274.06 61.8365 274.229 62.004C274.411 62.1715 274.64 62.3031 274.918 62.3988C275.208 62.4946 275.516 62.5903 275.842 62.686C276.144 62.7817 276.459 62.8834 276.785 62.9911C277.111 63.0868 277.413 63.2304 277.691 63.4219C277.969 63.6133 278.193 63.8646 278.362 64.1756C278.543 64.4867 278.634 64.8935 278.634 65.3961C278.622 66.0661 278.44 66.6105 278.09 67.0293C277.752 67.4481 277.305 67.7532 276.749 67.9446C276.193 68.1361 275.619 68.2318 275.027 68.2318Z" fill="#CCCCCC"/>
<path d="M283.669 68.2318C283.016 68.2318 282.46 68.16 282.001 68.0164C281.554 67.8848 281.113 67.7173 280.678 67.5139V65.7371C280.992 65.9285 281.3 66.102 281.603 66.2576C281.905 66.4011 282.219 66.5148 282.545 66.5986C282.883 66.6823 283.258 66.7242 283.669 66.7242C284.188 66.7242 284.593 66.6165 284.883 66.4011C285.185 66.1858 285.336 65.9165 285.336 65.5935C285.336 65.3183 285.24 65.1029 285.046 64.9474C284.865 64.7918 284.629 64.6602 284.339 64.5525C284.049 64.4449 283.747 64.3372 283.433 64.2295C283.107 64.1457 282.781 64.05 282.454 63.9423C282.128 63.8227 281.826 63.6671 281.548 63.4757C281.282 63.2723 281.065 63.015 280.896 62.704C280.739 62.3929 280.66 62.01 280.66 61.5553C280.66 61.0528 280.763 60.628 280.968 60.281C281.174 59.9221 281.439 59.6349 281.766 59.4196C282.104 59.1922 282.473 59.0307 282.871 58.935C283.282 58.8273 283.681 58.7735 284.068 58.7735C284.708 58.7854 285.228 58.8632 285.626 59.0068C286.037 59.1504 286.436 59.3238 286.823 59.5273L286.841 61.1425C286.406 60.9152 285.995 60.7178 285.608 60.5503C285.222 60.3827 284.774 60.299 284.267 60.299C283.796 60.299 283.403 60.3887 283.089 60.5682C282.775 60.7357 282.618 60.987 282.618 61.322C282.618 61.6092 282.702 61.8365 282.871 62.004C283.053 62.1715 283.282 62.3031 283.56 62.3988C283.85 62.4946 284.158 62.5903 284.484 62.686C284.787 62.7817 285.101 62.8834 285.427 62.9911C285.753 63.0868 286.055 63.2304 286.333 63.4219C286.611 63.6133 286.835 63.8646 287.004 64.1756C287.185 64.4867 287.276 64.8935 287.276 65.3961C287.264 66.0661 287.082 66.6105 286.732 67.0293C286.394 67.4481 285.947 67.7532 285.391 67.9446C284.835 68.1361 284.261 68.2318 283.669 68.2318Z" fill="#CCCCCC"/>
<path d="M295.105 67.9626V55.9916H303.026V57.6607H297.117V61.1246H302.265V62.8116H297.099V66.2934H303.026V67.9626H295.105Z" fill="#CCCCCC"/>
<path d="M306.578 67.9626V60.5144H305.128V58.9529H306.596V58.594C306.596 57.9598 306.662 57.4334 306.795 57.0146C306.94 56.5958 307.127 56.2608 307.357 56.0096C307.587 55.7583 307.84 55.5728 308.118 55.4532C308.396 55.3216 308.674 55.2378 308.952 55.2019C309.242 55.166 309.514 55.1481 309.768 55.1481C309.949 55.1481 310.13 55.16 310.311 55.184C310.493 55.2079 310.65 55.2378 310.783 55.2737V56.9428C310.674 56.883 310.559 56.8351 310.438 56.7992C310.33 56.7514 310.185 56.7274 310.003 56.7274C309.822 56.7274 309.641 56.7454 309.46 56.7813C309.278 56.8052 309.115 56.877 308.97 56.9967C308.825 57.1043 308.71 57.2719 308.626 57.4992C308.541 57.7265 308.499 58.0376 308.499 58.4325V58.9529H310.783V60.5144H308.481V67.9626H306.578Z" fill="#CCCCCC"/>
<path d="M313.697 67.9626V60.5144H312.247V58.9529H313.716V58.594C313.716 57.9598 313.782 57.4334 313.915 57.0146C314.06 56.5958 314.247 56.2608 314.477 56.0096C314.706 55.7583 314.96 55.5728 315.238 55.4532C315.516 55.3216 315.794 55.2378 316.072 55.2019C316.362 55.166 316.634 55.1481 316.887 55.1481C317.069 55.1481 317.25 55.16 317.431 55.184C317.612 55.2079 317.77 55.2378 317.902 55.2737V56.9428C317.794 56.883 317.679 56.8351 317.558 56.7992C317.449 56.7514 317.304 56.7274 317.123 56.7274C316.942 56.7274 316.761 56.7454 316.579 56.7813C316.398 56.8052 316.235 56.877 316.09 56.9967C315.945 57.1043 315.83 57.2719 315.746 57.4992C315.661 57.7265 315.619 58.0376 315.619 58.4325V58.9529H317.902V60.5144H315.601V67.9626H313.697ZM319.661 67.9626V59.0068H321.564L321.582 67.9626H319.661ZM319.606 57.5171V55.8121H321.636V57.5171H319.606Z" fill="#CCCCCC"/>
<path d="M328.504 68.142C327.949 68.142 327.405 68.0643 326.873 67.9087C326.342 67.7532 325.858 67.5019 325.423 67.1549C325 66.796 324.662 66.3234 324.408 65.7371C324.154 65.1388 324.028 64.397 324.028 63.5116C324.028 62.6023 324.148 61.8425 324.39 61.2323C324.632 60.622 324.964 60.1375 325.387 59.7785C325.81 59.4076 326.287 59.1444 326.819 58.9888C327.363 58.8333 327.918 58.7555 328.486 58.7555C328.97 58.7555 329.453 58.8034 329.936 58.8991C330.42 58.9828 330.867 59.1145 331.278 59.2939V60.981C330.867 60.8015 330.456 60.6639 330.045 60.5682C329.634 60.4605 329.205 60.4067 328.758 60.4067C327.816 60.4067 327.103 60.64 326.619 61.1066C326.148 61.5733 325.913 62.3271 325.913 63.368C325.913 64.4449 326.136 65.2345 326.583 65.7371C327.042 66.2276 327.786 66.4729 328.813 66.4729C329.26 66.4729 329.695 66.4191 330.118 66.3114C330.541 66.1917 330.933 66.0482 331.296 65.8807V67.5677C330.873 67.7592 330.432 67.9027 329.973 67.9985C329.513 68.0942 329.024 68.142 328.504 68.142Z" fill="#CCCCCC"/>
<path d="M333.726 67.9626V59.0068H335.629L335.648 67.9626H333.726ZM333.672 57.5171V55.8121H335.702V57.5171H333.672Z" fill="#CCCCCC"/>
<path d="M342.476 68.2318C341.582 68.2318 340.803 68.0523 340.138 67.6933C339.486 67.3344 338.978 66.802 338.616 66.096C338.265 65.3901 338.09 64.5286 338.09 63.5116C338.09 61.9442 338.459 60.7596 339.196 59.958C339.945 59.1444 340.984 58.7376 342.313 58.7376C343.292 58.7376 344.084 58.9529 344.688 59.3837C345.292 59.8144 345.727 60.4186 345.993 61.1964C346.271 61.9621 346.404 62.8595 346.392 63.8885H339.232L339.178 62.4886H344.942L344.488 62.9373C344.452 62.016 344.259 61.3459 343.908 60.9272C343.558 60.4964 343.008 60.281 342.259 60.281C341.776 60.281 341.365 60.3827 341.026 60.5862C340.688 60.7776 340.428 61.1126 340.247 61.5912C340.078 62.0578 339.993 62.704 339.993 63.5295C339.993 64.5346 340.229 65.3004 340.7 65.8268C341.171 66.3413 341.866 66.5986 342.785 66.5986C343.195 66.5986 343.576 66.5627 343.927 66.4909C344.289 66.4191 344.621 66.3293 344.923 66.2217C345.225 66.102 345.485 65.9883 345.703 65.8807V67.6216C345.28 67.801 344.803 67.9446 344.271 68.0523C343.739 68.1719 343.141 68.2318 342.476 68.2318Z" fill="#CCCCCC"/>
<path d="M348.761 59.6888C349.027 59.5572 349.323 59.4375 349.649 59.3298C349.988 59.2102 350.344 59.1085 350.719 59.0247C351.093 58.941 351.474 58.8752 351.861 58.8273C352.247 58.7794 352.622 58.7555 352.984 58.7555C353.842 58.7555 354.543 58.8752 355.087 59.1145C355.631 59.3418 356.035 59.7007 356.301 60.1913C356.567 60.6699 356.7 61.2741 356.7 62.004V67.9626H354.797V62.2553C354.797 62.0279 354.767 61.8066 354.706 61.5912C354.658 61.3639 354.555 61.1605 354.398 60.981C354.253 60.7896 354.036 60.64 353.746 60.5323C353.468 60.4246 353.099 60.3708 352.64 60.3708C352.314 60.3708 351.975 60.4007 351.625 60.4605C351.287 60.5203 350.966 60.6041 350.664 60.7118V67.9626H348.761V59.6888Z" fill="#CCCCCC"/>
<path d="M363.568 68.142C363.013 68.142 362.469 68.0643 361.937 67.9087C361.405 67.7532 360.922 67.5019 360.487 67.1549C360.064 66.796 359.726 66.3234 359.472 65.7371C359.218 65.1388 359.091 64.397 359.091 63.5116C359.091 62.6023 359.212 61.8425 359.454 61.2323C359.696 60.622 360.028 60.1375 360.451 59.7785C360.874 59.4076 361.351 59.1444 361.883 58.9888C362.426 58.8333 362.982 58.7555 363.55 58.7555C364.034 58.7555 364.517 58.8034 365 58.8991C365.484 58.9828 365.931 59.1145 366.342 59.2939V60.981C365.931 60.8015 365.52 60.6639 365.109 60.5682C364.698 60.4605 364.269 60.4067 363.822 60.4067C362.88 60.4067 362.167 60.64 361.683 61.1066C361.212 61.5733 360.976 62.3271 360.976 63.368C360.976 64.4449 361.2 65.2345 361.647 65.7371C362.106 66.2276 362.849 66.4729 363.876 66.4729C364.324 66.4729 364.759 66.4191 365.181 66.3114C365.604 66.1917 365.997 66.0482 366.36 65.8807V67.5677C365.937 67.7592 365.496 67.9027 365.036 67.9985C364.577 68.0942 364.088 68.142 363.568 68.142Z" fill="#CCCCCC"/>
<path d="M370.15 71.4444C369.92 71.4444 369.702 71.4204 369.497 71.3726C369.292 71.3367 369.11 71.2888 368.953 71.229V69.6137C369.098 69.6616 369.243 69.7035 369.388 69.7394C369.533 69.7753 369.69 69.7932 369.859 69.7932C370.222 69.7932 370.524 69.6975 370.766 69.506C371.007 69.3146 371.213 69.0394 371.382 68.6805C371.551 68.3215 371.69 67.8908 371.799 67.3882L371.835 68.3215L367.956 58.9529H370.113L372.741 66.0601H372.47L375.061 58.9529H377.037L373.285 68.5189C372.983 69.2847 372.657 69.877 372.306 70.2957C371.956 70.7265 371.593 71.0256 371.219 71.1931C370.856 71.3606 370.5 71.4444 370.15 71.4444Z" fill="#CCCCCC"/>
<path d="M382.897 23.3741V14.3956H379.695V12.6417H388.271V14.3956H385.053V23.3741H382.897Z" fill="white"/>
<path d="M389.253 23.3741V12.6417H391.472L395.181 18.0482L393.961 18.1447L397.844 12.6417H400V23.3741H397.86V14.3795L398.351 14.9588L394.531 20.2204L390.822 14.9427L391.329 14.4921V23.3741H389.253Z" fill="white"/>
<path fill-rule="evenodd" clip-rule="evenodd" d="M5.9565 26.608C5.42776 31.0212 6.45245 35.4808 8.85449 39.2205C11.2565 42.9602 14.8859 45.7465 19.1191 47.1006C23.3522 48.4547 27.9248 48.2922 32.0511 46.6408C36.1774 44.9894 39.5998 41.9524 41.7302 38.0515C43.8606 34.1507 44.566 29.6296 43.7252 25.265C42.8844 20.9005 40.5499 16.9651 37.1228 14.1351C34.451 11.9287 31.2452 10.5016 27.8559 9.97968L27.8559 13.4991C27.8559 15.1065 26.5529 16.4096 24.9456 16.4096C23.3383 16.4096 22.0353 15.1065 22.0353 13.4991L22.0353 7.26222C22.0353 5.43929 23.5228 3.9046 25.4163 3.94032C31.0461 4.0465 36.4799 6.05504 40.8289 9.64644C45.299 13.3378 48.344 18.471 49.4407 24.1638C50.5374 29.8566 49.6173 35.7537 46.8385 40.8418C44.0598 45.9299 39.5958 49.8912 34.2137 52.0452C28.8315 54.1992 22.8673 54.4112 17.3458 52.645C11.8243 50.8787 7.09029 47.2444 3.95719 42.3666C0.824092 37.4887 -0.512456 31.6719 0.177201 25.9155C0.866857 20.1591 3.53965 14.8227 7.73634 10.8231C8.89993 9.7142 10.7421 9.75858 11.851 10.9223C12.9598 12.0859 12.9154 13.9283 11.7518 15.0372C8.53438 18.1035 6.48523 22.1948 5.9565 26.608Z" fill="white"/>
<path fill-rule="evenodd" clip-rule="evenodd" d="M14.5731 18.0931C15.7097 16.9564 17.5524 16.9564 18.6889 18.0931L27.8356 27.2405C28.9722 28.3771 28.9722 30.22 27.8356 31.3566C26.6991 32.4933 24.8564 32.4933 23.7198 31.3566L14.5731 22.2092C13.4366 21.0726 13.4366 19.2297 14.5731 18.0931Z" fill="white"/>
</svg>
