<svg width="14" height="13" viewBox="0 0 14 13" fill="none" xmlns="http://www.w3.org/2000/svg">
<circle cx="6.85938" cy="6.5" r="6.5" fill="#E4E6EB"/>
<path d="M4.12214 7.91377C4.2901 8.0628 4.45537 8.20944 4.61567 8.36169C4.65441 8.40189 4.6944 8.44492 4.73549 8.48914C4.83347 8.59458 4.93771 8.70676 5.0462 8.80318C5.20298 8.94251 5.38362 9.06371 5.60003 9.1045L5.62604 9.10941L5.65131 9.10154C6.71246 8.77147 7.53679 8.00351 8.27106 7.13916C8.57873 6.77699 8.87286 6.39505 9.16232 6.01917C9.21851 5.94621 9.27452 5.87347 9.33042 5.80116C9.67529 5.35502 10.0164 4.92416 10.3735 4.54502L10.3737 4.54517L10.3781 4.53986C10.5238 4.3636 10.4691 4.14304 10.3529 4.01681C10.2936 3.95243 10.2112 3.90325 10.1169 3.8949C10.0191 3.88623 9.92168 3.92278 9.84133 4.0061L9.84123 4.00601L9.83774 4.01001C9.50896 4.38679 9.19141 4.78999 8.87399 5.19596C8.84908 5.22782 8.82417 5.25969 8.79926 5.29157C8.50615 5.66666 8.21229 6.04269 7.90674 6.40448C7.25048 7.18149 6.5465 7.88499 5.69897 8.35692C5.64784 8.34861 5.59471 8.31367 5.5308 8.25108C5.50295 8.22381 5.47674 8.19515 5.44905 8.16486C5.44082 8.15585 5.43246 8.14671 5.42389 8.13741C5.39023 8.10093 5.35277 8.06159 5.31305 8.02971C5.09578 7.80487 4.87172 7.60144 4.65295 7.40282C4.62791 7.38009 4.60294 7.35743 4.57806 7.3348C4.33359 7.11244 4.09697 6.89324 3.87783 6.64869C3.80635 6.56321 3.71314 6.52349 3.61734 6.52785C3.5248 6.53205 3.4408 6.57666 3.37866 6.63816C3.25448 6.76106 3.19312 6.97944 3.33292 7.1727L3.33732 7.17879L3.34254 7.18419C3.55175 7.40111 3.76911 7.59938 3.98442 7.79137C4.0305 7.83245 4.07642 7.8732 4.12214 7.91377Z" fill="#646464" stroke="#646464" stroke-width="0.212686"/>
</svg>
