<svg width="32" height="32" viewBox="0 0 32 32" fill="none" xmlns="http://www.w3.org/2000/svg">
<rect width="32" height="32" rx="5" fill="#E3DCFF"/>
<path d="M16.5 18.7C17.375 18.7 18.1641 18.4937 18.8672 18.0812C19.5703 17.6687 20.125 17.125 20.5312 16.45C19.9844 16.015 19.3672 15.6812 18.6797 15.4487C17.9922 15.2162 17.2656 15.1 16.5 15.1C15.7344 15.1 15.0078 15.2162 14.3203 15.4487C13.6328 15.6812 13.0156 16.015 12.4688 16.45C12.875 17.125 13.4297 17.6687 14.1328 18.0812C14.8359 18.4937 15.625 18.7 16.5 18.7ZM16.5 14.2C17.0156 14.2 17.457 14.0237 17.8242 13.6712C18.1914 13.3187 18.375 12.895 18.375 12.4C18.375 11.905 18.1914 11.4812 17.8242 11.1287C17.457 10.7762 17.0156 10.6 16.5 10.6C15.9844 10.6 15.543 10.7762 15.1758 11.1287C14.8086 11.4812 14.625 11.905 14.625 12.4C14.625 12.895 14.8086 13.3187 15.1758 13.6712C15.543 14.0237 15.9844 14.2 16.5 14.2ZM16.5 22.615C18.4062 20.935 19.8203 19.4087 20.7422 18.0362C21.6641 16.6637 22.125 15.445 22.125 14.38C22.125 12.745 21.582 11.4062 20.4961 10.3637C19.4102 9.32125 18.0781 8.8 16.5 8.8C14.9219 8.8 13.5898 9.32125 12.5039 10.3637C11.418 11.4062 10.875 12.745 10.875 14.38C10.875 15.445 11.3359 16.6637 12.2578 18.0362C13.1797 19.4087 14.5938 20.935 16.5 22.615ZM16.5 25C13.9844 22.945 12.1055 21.0362 10.8633 19.2737C9.62109 17.5112 9 15.88 9 14.38C9 12.13 9.75391 10.3375 11.2617 9.0025C12.7695 7.6675 14.5156 7 16.5 7C18.4844 7 20.2305 7.6675 21.7383 9.0025C23.2461 10.3375 24 12.13 24 14.38C24 15.88 23.3789 17.5112 22.1367 19.2737C20.8945 21.0362 19.0156 22.945 16.5 25Z" fill="#624DE3"/>
</svg>
