<svg width="42" height="42" viewBox="0 0 42 42" fill="none" xmlns="http://www.w3.org/2000/svg">
<rect width="42" height="42" rx="6.5625" fill="#E3DCFF"/>
<g clip-path="url(#clip0_860_92189)">
<g clip-path="url(#clip1_860_92189)">
<path d="M13.3044 29.6465H29.7987C31.0961 29.6465 32.1516 28.5911 32.1516 27.2938V26.7795C32.1516 26.4656 31.8972 26.2115 31.5836 26.2115H11.5196C11.2059 26.2115 10.9516 26.4656 10.9516 26.7795V27.2938C10.9516 28.5911 12.007 29.6465 13.3044 29.6465ZM31.0144 27.3475C30.9862 27.9934 30.4516 28.5105 29.7987 28.5105H13.3044C12.6515 28.5105 12.1169 27.9934 12.0887 27.3475H31.0144Z" fill="#624DE3" stroke="#624DE3" stroke-width="0.3"/>
<path d="M12.5196 27.3478H30.5981C30.9117 27.3478 31.1661 27.0937 31.1661 26.7798V13.167C31.1661 12.5511 30.6652 12.05 30.049 12.05H13.0686C12.4524 12.05 11.9516 12.5511 11.9516 13.167V26.7798C11.9516 27.0937 12.2059 27.3478 12.5196 27.3478ZM30.0301 13.186V26.2118H13.0876V13.186H30.0301Z" fill="#624DE3" stroke="#624DE3" stroke-width="0.3"/>
<path d="M23.8371 21.2509L23.8371 21.2509C23.6499 21.0618 23.6513 20.7566 23.8404 20.5694L25.982 18.4487L25.9822 18.4485C26.1707 18.2626 26.4757 18.2625 26.6632 18.452C26.6632 18.452 26.6632 18.4521 26.6633 18.4521L26.5566 18.5575C26.6855 18.6878 26.6845 18.898 26.5543 19.0269L23.8371 21.2509ZM23.8371 21.2509C23.9313 21.346 24.0558 21.3935 24.1794 21.3935C24.3017 21.3935 24.4244 21.3469 24.5181 21.2543L24.5183 21.2542M23.8371 21.2509L24.5183 21.2542M24.5183 21.2542L26.6599 19.1335L24.5183 21.2542Z" fill="#624DE3" stroke="#624DE3" stroke-width="0.3"/>
<path d="M16.4653 21.2033L16.4651 21.2031C16.2784 21.0135 16.2808 20.7087 16.4701 20.522L16.4701 20.522L18.9356 18.0921C18.9356 18.0921 18.9357 18.092 18.9357 18.092C19.1254 17.9046 19.4304 17.9079 19.6169 18.0965L19.6171 18.0967L19.6171 18.0967C19.8039 18.2863 19.8015 18.5911 19.6122 18.7778L19.6121 18.7779L17.1466 21.2078L16.4653 21.2033ZM16.4653 21.2033C16.5595 21.2986 16.6841 21.3466 16.8083 21.3466M16.4653 21.2033L16.8083 21.3466M16.8083 21.3466C16.93 21.3466 17.0526 21.3006 17.1465 21.2079L16.8083 21.3466Z" fill="#624DE3" stroke="#624DE3" stroke-width="0.3"/>
<path d="M22.6074 21.2562L22.6074 21.2562L20.076 18.7676C20.076 18.7676 20.076 18.7675 20.0759 18.7675C19.8863 18.5812 19.8838 18.2761 20.0701 18.0865C20.2565 17.8961 20.5618 17.8943 20.7514 18.0807L20.7514 18.0807L23.2828 20.5693C23.2828 20.5693 23.2828 20.5693 23.2828 20.5694C23.4725 20.7557 23.475 21.0609 23.2885 21.2505L22.6074 21.2562ZM22.6074 21.2562C22.7011 21.3483 22.8234 21.3945 22.9451 21.3945M22.6074 21.2562L22.9451 21.3945M22.9451 21.3945C23.0693 21.3945 23.1942 21.3466 23.2885 21.2506L22.9451 21.3945Z" fill="#624DE3" stroke="#624DE3" stroke-width="0.3"/>
<path d="M25.5844 18.2043C25.5844 18.9308 26.1752 19.5214 26.9015 19.5214C27.6277 19.5214 28.2185 18.9308 28.2185 18.2043C28.2185 17.4778 27.6277 16.8872 26.9015 16.8872C26.1752 16.8872 25.5844 17.4778 25.5844 18.2043ZM26.5478 18.2043C26.5478 18.0095 26.7066 17.8506 26.9015 17.8506C27.0963 17.8506 27.2551 18.0095 27.2551 18.2043C27.2551 18.3991 27.0963 18.558 26.9015 18.558C26.7066 18.558 26.5478 18.3991 26.5478 18.2043Z" fill="#624DE3" stroke="#624DE3" stroke-width="0.3"/>
<path d="M22.307 21.5128C22.307 22.1965 22.8631 22.7528 23.547 22.7528C24.2309 22.7528 24.787 22.1965 24.787 21.5128C24.787 20.8291 24.2309 20.2729 23.547 20.2729C22.8631 20.2729 22.307 20.8291 22.307 21.5128ZM23.2704 21.5128C23.2704 21.3605 23.3947 21.2362 23.547 21.2362C23.6993 21.2362 23.8236 21.3605 23.8236 21.5128C23.8236 21.6652 23.6993 21.7894 23.547 21.7894C23.3947 21.7894 23.2704 21.6652 23.2704 21.5128Z" fill="#624DE3" stroke="#624DE3" stroke-width="0.3"/>
<path d="M18.992 18.8188L18.992 18.8189C19.2193 19.0323 19.509 19.1494 19.814 19.1494C19.8384 19.1494 19.8628 19.1487 19.8873 19.1472L19.8874 19.1472C20.2502 19.1251 20.5938 18.9595 20.8307 18.6912L20.8308 18.6911C21.0419 18.4512 21.1509 18.1503 21.1309 17.8431L21.1309 17.843C21.085 17.1424 20.5426 16.6008 19.8581 16.6008C19.1556 16.6008 18.5844 17.172 18.5844 17.8745C18.5844 18.2309 18.7327 18.5749 18.992 18.8188ZM20.1081 18.0537L20.1079 18.0539C20.0422 18.1286 19.9418 18.1781 19.8311 18.1855C19.7647 18.1868 19.7029 18.1648 19.6518 18.1169L19.5492 18.2262L19.6521 18.1171C19.5861 18.0548 19.5478 17.9664 19.5478 17.8745C19.5478 17.7034 19.6871 17.5642 19.8581 17.5642C20.0337 17.5642 20.157 17.7144 20.1695 17.9059L20.1695 17.9059C20.172 17.9455 20.1565 17.999 20.1081 18.0537ZM20.7182 18.5919C20.5083 18.8297 20.2022 18.9777 19.8783 18.9975L19.0947 18.7095C18.8657 18.4941 18.7344 18.1896 18.7344 17.8745C18.7344 17.2548 19.2384 16.7508 19.8581 16.7508C20.4573 16.7508 20.9401 17.2247 20.9812 17.8528C20.9984 18.1174 20.905 18.3798 20.7182 18.5919Z" fill="#624DE3" stroke="#624DE3" stroke-width="0.3"/>
<path d="M14.9789 21.4487C14.9789 22.1344 15.5365 22.692 16.222 22.692C16.9075 22.692 17.465 22.1344 17.465 21.4487C17.465 20.7634 16.9075 20.2058 16.222 20.2058C15.5365 20.2058 14.9789 20.7634 14.9789 21.4487ZM15.9423 21.4487C15.9423 21.2948 16.0678 21.1692 16.222 21.1692C16.3761 21.1692 16.5016 21.2948 16.5016 21.4487C16.5016 21.603 16.376 21.7286 16.222 21.7286C16.0679 21.7286 15.9423 21.603 15.9423 21.4487Z" fill="#624DE3" stroke="#624DE3" stroke-width="0.3"/>
</g>
</g>
<defs>
<clipPath id="clip0_860_92189">
<rect width="26" height="26" fill="white" transform="translate(8 8)"/>
</clipPath>
<clipPath id="clip1_860_92189">
<rect width="22" height="22" fill="white" transform="translate(10 10)"/>
</clipPath>
</defs>
</svg>
