<svg width="42" height="42" viewBox="0 0 42 42" fill="none" xmlns="http://www.w3.org/2000/svg">
<rect width="42" height="42" rx="6.5625" fill="#E3DCFF"/>
<g clip-path="url(#clip0_837_24321)">
<mask id="path-2-outside-1_837_24321" maskUnits="userSpaceOnUse" x="11" y="11" width="20" height="20" fill="black">
<rect fill="white" x="11" y="11" width="20" height="20"/>
<path d="M28.8511 18.7021H27.7021C27.6064 18.4224 27.4934 18.1486 27.3648 17.8846L28.1764 17.073C28.6244 16.6249 28.6244 15.8956 28.1764 15.449L26.551 13.8236C26.1029 13.3756 25.3736 13.3756 24.927 13.8236L24.1154 14.6352C23.8514 14.5066 23.5791 14.3936 23.2979 14.2979V13.1489C23.2979 12.5154 22.7825 12 22.1489 12H19.8511C19.2175 12 18.7021 12.5154 18.7021 13.1489V14.2979C18.4224 14.3936 18.1486 14.5066 17.8846 14.6352L17.073 13.8236C16.6249 13.3756 15.8956 13.3756 15.449 13.8236L13.8236 15.449C13.3756 15.8971 13.3756 16.6264 13.8236 17.073L14.6352 17.8846C14.5066 18.1486 14.3936 18.4209 14.2979 18.7021H13.1489C12.5154 18.7021 12 19.2175 12 19.8511V22.1489C12 22.7825 12.5154 23.2979 13.1489 23.2979H14.2979C14.3936 23.5776 14.5066 23.8514 14.6352 24.1154L13.8236 24.927C13.3756 25.3751 13.3756 26.1044 13.8236 26.551L15.449 28.1764C15.8971 28.6244 16.6264 28.6244 17.073 28.1764L17.8846 27.3648C18.1486 27.4934 18.4209 27.6064 18.7021 27.7021V28.8511C18.7021 29.4846 19.2175 30 19.8511 30H22.1489C22.7825 30 23.2979 29.4846 23.2979 28.8511V27.7021C23.5776 27.6064 23.8514 27.4934 24.1154 27.3648L24.927 28.1764C25.3751 28.6244 26.1044 28.6244 26.551 28.1764L28.1764 26.551C28.6244 26.1029 28.6244 25.3736 28.1764 24.927L27.3648 24.1154C27.4934 23.8514 27.6064 23.5791 27.7021 23.2979H28.8511C29.4846 23.2979 30 22.7825 30 22.1489V19.8511C30 19.2175 29.4846 18.7021 28.8511 18.7021ZM29.234 22.1489C29.234 22.3599 29.062 22.5319 28.8511 22.5319H27.4224C27.2541 22.5319 27.1045 22.6426 27.0544 22.8057C26.9302 23.2253 26.7634 23.6292 26.5584 24.0062C26.4777 24.1558 26.5046 24.3391 26.6235 24.4603L27.6326 25.4693C27.7822 25.6189 27.7822 25.862 27.6326 26.0109L26.0071 27.6363C25.8575 27.7859 25.6144 27.7859 25.4656 27.6363L24.4565 26.6272C24.3361 26.5068 24.1521 26.4799 24.0025 26.5622C23.6255 26.7671 23.2216 26.9339 22.802 27.0581C22.6389 27.106 22.5282 27.2555 22.5282 27.4261V28.8548C22.5282 29.0657 22.3561 29.2378 22.1452 29.2378H19.8473C19.6364 29.2378 19.4644 29.0657 19.4644 28.8548V27.4261C19.4644 27.2578 19.3537 27.1082 19.1906 27.0581C18.771 26.9339 18.367 26.7671 17.99 26.5622C17.9324 26.5315 17.8696 26.5165 17.8083 26.5165C17.7088 26.5165 17.6108 26.5547 17.5382 26.6295L16.5292 27.6385C16.3796 27.7881 16.1365 27.7881 15.9876 27.6385L14.3622 26.0131C14.2126 25.8635 14.2126 25.6204 14.3622 25.4716L15.3713 24.4625C15.4917 24.3421 15.5186 24.1581 15.4363 24.0085C15.2314 23.6315 15.0646 23.2276 14.9404 22.8079C14.8926 22.6449 14.743 22.5342 14.5724 22.5342H13.1437C12.9328 22.5342 12.7607 22.3621 12.7607 22.1512V19.8533C12.7607 19.6424 12.9328 19.4703 13.1437 19.4703H14.5724C14.7407 19.4703 14.8903 19.3596 14.9404 19.1966C15.0646 18.7769 15.2314 18.373 15.4363 17.996C15.5171 17.8464 15.4902 17.6631 15.3713 17.542L14.3622 16.5329C14.2126 16.3833 14.2126 16.1402 14.3622 15.9914L15.9876 14.366C16.1372 14.2163 16.3803 14.2163 16.5292 14.366L17.5382 15.375C17.6587 15.4954 17.8427 15.5224 17.9923 15.4401C18.3693 15.2351 18.7732 15.0683 19.1928 14.9442C19.3559 14.8963 19.4666 14.7467 19.4666 14.5761V13.1475C19.4666 12.9365 19.6386 12.7645 19.8496 12.7645H22.1474C22.3584 12.7645 22.5304 12.9365 22.5304 13.1475V14.5761C22.5304 14.7444 22.6411 14.894 22.8042 14.9442C23.2238 15.0683 23.6278 15.2351 24.0047 15.4401C24.1543 15.5209 24.3376 15.4939 24.4588 15.375L25.4678 14.366C25.6174 14.2163 25.8605 14.2163 26.0094 14.366L27.6348 15.9914C27.7844 16.141 27.7844 16.3841 27.6348 16.5329L26.6258 17.542C26.5053 17.6624 26.4784 17.8464 26.5607 17.996C26.7656 18.373 26.9324 18.7769 27.0566 19.1966C27.1045 19.3596 27.2541 19.4703 27.4246 19.4703H28.8533C29.0642 19.4703 29.2363 19.6424 29.2363 19.8533V22.1512L29.234 22.1489Z"/>
</mask>
<path d="M28.8511 18.7021H27.7021C27.6064 18.4224 27.4934 18.1486 27.3648 17.8846L28.1764 17.073C28.6244 16.6249 28.6244 15.8956 28.1764 15.449L26.551 13.8236C26.1029 13.3756 25.3736 13.3756 24.927 13.8236L24.1154 14.6352C23.8514 14.5066 23.5791 14.3936 23.2979 14.2979V13.1489C23.2979 12.5154 22.7825 12 22.1489 12H19.8511C19.2175 12 18.7021 12.5154 18.7021 13.1489V14.2979C18.4224 14.3936 18.1486 14.5066 17.8846 14.6352L17.073 13.8236C16.6249 13.3756 15.8956 13.3756 15.449 13.8236L13.8236 15.449C13.3756 15.8971 13.3756 16.6264 13.8236 17.073L14.6352 17.8846C14.5066 18.1486 14.3936 18.4209 14.2979 18.7021H13.1489C12.5154 18.7021 12 19.2175 12 19.8511V22.1489C12 22.7825 12.5154 23.2979 13.1489 23.2979H14.2979C14.3936 23.5776 14.5066 23.8514 14.6352 24.1154L13.8236 24.927C13.3756 25.3751 13.3756 26.1044 13.8236 26.551L15.449 28.1764C15.8971 28.6244 16.6264 28.6244 17.073 28.1764L17.8846 27.3648C18.1486 27.4934 18.4209 27.6064 18.7021 27.7021V28.8511C18.7021 29.4846 19.2175 30 19.8511 30H22.1489C22.7825 30 23.2979 29.4846 23.2979 28.8511V27.7021C23.5776 27.6064 23.8514 27.4934 24.1154 27.3648L24.927 28.1764C25.3751 28.6244 26.1044 28.6244 26.551 28.1764L28.1764 26.551C28.6244 26.1029 28.6244 25.3736 28.1764 24.927L27.3648 24.1154C27.4934 23.8514 27.6064 23.5791 27.7021 23.2979H28.8511C29.4846 23.2979 30 22.7825 30 22.1489V19.8511C30 19.2175 29.4846 18.7021 28.8511 18.7021ZM29.234 22.1489C29.234 22.3599 29.062 22.5319 28.8511 22.5319H27.4224C27.2541 22.5319 27.1045 22.6426 27.0544 22.8057C26.9302 23.2253 26.7634 23.6292 26.5584 24.0062C26.4777 24.1558 26.5046 24.3391 26.6235 24.4603L27.6326 25.4693C27.7822 25.6189 27.7822 25.862 27.6326 26.0109L26.0071 27.6363C25.8575 27.7859 25.6144 27.7859 25.4656 27.6363L24.4565 26.6272C24.3361 26.5068 24.1521 26.4799 24.0025 26.5622C23.6255 26.7671 23.2216 26.9339 22.802 27.0581C22.6389 27.106 22.5282 27.2555 22.5282 27.4261V28.8548C22.5282 29.0657 22.3561 29.2378 22.1452 29.2378H19.8473C19.6364 29.2378 19.4644 29.0657 19.4644 28.8548V27.4261C19.4644 27.2578 19.3537 27.1082 19.1906 27.0581C18.771 26.9339 18.367 26.7671 17.99 26.5622C17.9324 26.5315 17.8696 26.5165 17.8083 26.5165C17.7088 26.5165 17.6108 26.5547 17.5382 26.6295L16.5292 27.6385C16.3796 27.7881 16.1365 27.7881 15.9876 27.6385L14.3622 26.0131C14.2126 25.8635 14.2126 25.6204 14.3622 25.4716L15.3713 24.4625C15.4917 24.3421 15.5186 24.1581 15.4363 24.0085C15.2314 23.6315 15.0646 23.2276 14.9404 22.8079C14.8926 22.6449 14.743 22.5342 14.5724 22.5342H13.1437C12.9328 22.5342 12.7607 22.3621 12.7607 22.1512V19.8533C12.7607 19.6424 12.9328 19.4703 13.1437 19.4703H14.5724C14.7407 19.4703 14.8903 19.3596 14.9404 19.1966C15.0646 18.7769 15.2314 18.373 15.4363 17.996C15.5171 17.8464 15.4902 17.6631 15.3713 17.542L14.3622 16.5329C14.2126 16.3833 14.2126 16.1402 14.3622 15.9914L15.9876 14.366C16.1372 14.2163 16.3803 14.2163 16.5292 14.366L17.5382 15.375C17.6587 15.4954 17.8427 15.5224 17.9923 15.4401C18.3693 15.2351 18.7732 15.0683 19.1928 14.9442C19.3559 14.8963 19.4666 14.7467 19.4666 14.5761V13.1475C19.4666 12.9365 19.6386 12.7645 19.8496 12.7645H22.1474C22.3584 12.7645 22.5304 12.9365 22.5304 13.1475V14.5761C22.5304 14.7444 22.6411 14.894 22.8042 14.9442C23.2238 15.0683 23.6278 15.2351 24.0047 15.4401C24.1543 15.5209 24.3376 15.4939 24.4588 15.375L25.4678 14.366C25.6174 14.2163 25.8605 14.2163 26.0094 14.366L27.6348 15.9914C27.7844 16.141 27.7844 16.3841 27.6348 16.5329L26.6258 17.542C26.5053 17.6624 26.4784 17.8464 26.5607 17.996C26.7656 18.373 26.9324 18.7769 27.0566 19.1966C27.1045 19.3596 27.2541 19.4703 27.4246 19.4703H28.8533C29.0642 19.4703 29.2363 19.6424 29.2363 19.8533V22.1512L29.234 22.1489Z" fill="#624DE3"/>
<path d="M28.8511 18.7021H27.7021C27.6064 18.4224 27.4934 18.1486 27.3648 17.8846L28.1764 17.073C28.6244 16.6249 28.6244 15.8956 28.1764 15.449L26.551 13.8236C26.1029 13.3756 25.3736 13.3756 24.927 13.8236L24.1154 14.6352C23.8514 14.5066 23.5791 14.3936 23.2979 14.2979V13.1489C23.2979 12.5154 22.7825 12 22.1489 12H19.8511C19.2175 12 18.7021 12.5154 18.7021 13.1489V14.2979C18.4224 14.3936 18.1486 14.5066 17.8846 14.6352L17.073 13.8236C16.6249 13.3756 15.8956 13.3756 15.449 13.8236L13.8236 15.449C13.3756 15.8971 13.3756 16.6264 13.8236 17.073L14.6352 17.8846C14.5066 18.1486 14.3936 18.4209 14.2979 18.7021H13.1489C12.5154 18.7021 12 19.2175 12 19.8511V22.1489C12 22.7825 12.5154 23.2979 13.1489 23.2979H14.2979C14.3936 23.5776 14.5066 23.8514 14.6352 24.1154L13.8236 24.927C13.3756 25.3751 13.3756 26.1044 13.8236 26.551L15.449 28.1764C15.8971 28.6244 16.6264 28.6244 17.073 28.1764L17.8846 27.3648C18.1486 27.4934 18.4209 27.6064 18.7021 27.7021V28.8511C18.7021 29.4846 19.2175 30 19.8511 30H22.1489C22.7825 30 23.2979 29.4846 23.2979 28.8511V27.7021C23.5776 27.6064 23.8514 27.4934 24.1154 27.3648L24.927 28.1764C25.3751 28.6244 26.1044 28.6244 26.551 28.1764L28.1764 26.551C28.6244 26.1029 28.6244 25.3736 28.1764 24.927L27.3648 24.1154C27.4934 23.8514 27.6064 23.5791 27.7021 23.2979H28.8511C29.4846 23.2979 30 22.7825 30 22.1489V19.8511C30 19.2175 29.4846 18.7021 28.8511 18.7021ZM29.234 22.1489C29.234 22.3599 29.062 22.5319 28.8511 22.5319H27.4224C27.2541 22.5319 27.1045 22.6426 27.0544 22.8057C26.9302 23.2253 26.7634 23.6292 26.5584 24.0062C26.4777 24.1558 26.5046 24.3391 26.6235 24.4603L27.6326 25.4693C27.7822 25.6189 27.7822 25.862 27.6326 26.0109L26.0071 27.6363C25.8575 27.7859 25.6144 27.7859 25.4656 27.6363L24.4565 26.6272C24.3361 26.5068 24.1521 26.4799 24.0025 26.5622C23.6255 26.7671 23.2216 26.9339 22.802 27.0581C22.6389 27.106 22.5282 27.2555 22.5282 27.4261V28.8548C22.5282 29.0657 22.3561 29.2378 22.1452 29.2378H19.8473C19.6364 29.2378 19.4644 29.0657 19.4644 28.8548V27.4261C19.4644 27.2578 19.3537 27.1082 19.1906 27.0581C18.771 26.9339 18.367 26.7671 17.99 26.5622C17.9324 26.5315 17.8696 26.5165 17.8083 26.5165C17.7088 26.5165 17.6108 26.5547 17.5382 26.6295L16.5292 27.6385C16.3796 27.7881 16.1365 27.7881 15.9876 27.6385L14.3622 26.0131C14.2126 25.8635 14.2126 25.6204 14.3622 25.4716L15.3713 24.4625C15.4917 24.3421 15.5186 24.1581 15.4363 24.0085C15.2314 23.6315 15.0646 23.2276 14.9404 22.8079C14.8926 22.6449 14.743 22.5342 14.5724 22.5342H13.1437C12.9328 22.5342 12.7607 22.3621 12.7607 22.1512V19.8533C12.7607 19.6424 12.9328 19.4703 13.1437 19.4703H14.5724C14.7407 19.4703 14.8903 19.3596 14.9404 19.1966C15.0646 18.7769 15.2314 18.373 15.4363 17.996C15.5171 17.8464 15.4902 17.6631 15.3713 17.542L14.3622 16.5329C14.2126 16.3833 14.2126 16.1402 14.3622 15.9914L15.9876 14.366C16.1372 14.2163 16.3803 14.2163 16.5292 14.366L17.5382 15.375C17.6587 15.4954 17.8427 15.5224 17.9923 15.4401C18.3693 15.2351 18.7732 15.0683 19.1928 14.9442C19.3559 14.8963 19.4666 14.7467 19.4666 14.5761V13.1475C19.4666 12.9365 19.6386 12.7645 19.8496 12.7645H22.1474C22.3584 12.7645 22.5304 12.9365 22.5304 13.1475V14.5761C22.5304 14.7444 22.6411 14.894 22.8042 14.9442C23.2238 15.0683 23.6278 15.2351 24.0047 15.4401C24.1543 15.5209 24.3376 15.4939 24.4588 15.375L25.4678 14.366C25.6174 14.2163 25.8605 14.2163 26.0094 14.366L27.6348 15.9914C27.7844 16.141 27.7844 16.3841 27.6348 16.5329L26.6258 17.542C26.5053 17.6624 26.4784 17.8464 26.5607 17.996C26.7656 18.373 26.9324 18.7769 27.0566 19.1966C27.1045 19.3596 27.2541 19.4703 27.4246 19.4703H28.8533C29.0642 19.4703 29.2363 19.6424 29.2363 19.8533V22.1512L29.234 22.1489Z" stroke="#624DE3" stroke-width="0.6" mask="url(#path-2-outside-1_837_24321)"/>
<path d="M21 16.85C18.7111 16.85 16.85 18.7111 16.85 21C16.85 23.2889 18.7111 25.15 21 25.15C23.2889 25.15 25.15 23.2889 25.15 21C25.15 18.7111 23.2889 16.85 21 16.85ZM21 24.2574C19.2043 24.2574 17.7426 22.7957 17.7426 21C17.7426 19.2043 19.2043 17.7426 21 17.7426C22.7957 17.7426 24.2574 19.2043 24.2574 21C24.2574 22.7957 22.7957 24.2574 21 24.2574Z" fill="#624DE3" stroke="#624DE3" stroke-width="0.3"/>
<path d="M22.7143 20.2786H21.7214V19.2857C21.7214 19.0455 21.5259 18.85 21.2857 18.85C21.0455 18.85 20.85 19.0455 20.85 19.2857V20.7143C20.85 20.9545 21.0455 21.15 21.2857 21.15H22.7143C22.9545 21.15 23.15 20.9545 23.15 20.7143C23.15 20.4741 22.9545 20.2786 22.7143 20.2786Z" fill="#624DE3" stroke="#624DE3" stroke-width="0.3"/>
</g>
<defs>
<clipPath id="clip0_837_24321">
<rect width="20" height="20" fill="white" transform="translate(11 11)"/>
</clipPath>
</defs>
</svg>
