<svg width="42" height="42" viewBox="0 0 42 42" fill="none" xmlns="http://www.w3.org/2000/svg">
<rect width="42" height="42" rx="6.5625" fill="#E3DCFF"/>
<g clip-path="url(#clip0_860_86039)">
<path d="M15.5833 19.9158H17.75V22.0825H15.5833V19.9158ZM30.75 14.4992V29.6658C30.75 30.8575 29.775 31.8325 28.5833 31.8325H13.4167C12.2142 31.8325 11.25 30.8575 11.25 29.6658L11.2608 14.4992C11.2608 13.3075 12.2142 12.3325 13.4167 12.3325H14.5V10.1658H16.6667V12.3325H25.3333V10.1658H27.5V12.3325H28.5833C29.775 12.3325 30.75 13.3075 30.75 14.4992ZM13.4167 16.6658H28.5833V14.4992H13.4167V16.6658ZM28.5833 29.6658V18.8325H13.4167V29.6658H28.5833ZM24.25 22.0825H26.4167V19.9158H24.25V22.0825ZM19.9167 22.0825H22.0833V19.9158H19.9167V22.0825Z" fill="#624DE3"/>
</g>
<defs>
<clipPath id="clip0_860_86039">
<rect width="26" height="26" fill="white" transform="translate(8 8)"/>
</clipPath>
</defs>
</svg>
