<svg width="42" height="42" viewBox="0 0 42 42" fill="none" xmlns="http://www.w3.org/2000/svg">
<rect width="42" height="42" rx="6.5625" fill="#E3DCFF"/>
<path d="M25.5455 19H27.3636V17.3333H25.5455V19ZM25.5455 22.3333H27.3636V20.6667H25.5455V22.3333ZM25.5455 25.6667H27.3636V24H25.5455V25.6667ZM25.5455 29V27.3333H29.1818V15.6667H21V16.8333L19.1818 15.625V14H31V29H25.5455ZM11 29V20.6667L17.3636 16.5L23.7273 20.6667V29H18.2727V24.8333H16.4545V29H11ZM12.8182 27.3333H14.6364V23.1667H20.0909V27.3333H21.9091V21.5L17.3636 18.5417L12.8182 21.5V27.3333Z" fill="#624DE3"/>
</svg>
