<svg width="42" height="42" viewBox="0 0 42 42" fill="none" xmlns="http://www.w3.org/2000/svg">
<rect width="42" height="42" rx="6.5625" fill="#E3DCFF"/>
<path fill-rule="evenodd" clip-rule="evenodd" d="M23.0362 10.8142C22.9881 10.5118 22.7658 10.2666 22.4705 10.1895C21.5094 9.93717 20.5002 9.93717 19.5391 10.1895C19.2437 10.2666 19.0215 10.5118 18.9734 10.8142L18.8152 11.8164C18.7662 11.8434 18.7181 11.8714 18.6701 11.9005L17.723 11.536C17.4376 11.4259 17.1143 11.496 16.899 11.7132C16.2002 12.4191 15.6956 13.2941 15.4333 14.2522C15.3532 14.5465 15.4543 14.8609 15.6916 15.0541L16.4815 15.6929C16.4805 15.7479 16.4805 15.804 16.4815 15.8601L15.6916 16.4978C15.4543 16.691 15.3532 17.0054 15.4333 17.2997C15.6956 18.2579 16.2002 19.1329 16.899 19.8387C17.1143 20.0559 17.4376 20.126 17.723 20.0159L18.6711 19.6515C18.7181 19.6805 18.7672 19.7085 18.8152 19.7356L18.9734 20.7377C19.0215 21.0401 19.2437 21.2854 19.5391 21.3625C20.5002 21.6148 21.5094 21.6148 22.4705 21.3625C22.7658 21.2854 22.9881 21.0401 23.0362 20.7377L23.1943 19.7356C23.2434 19.7085 23.2915 19.6805 23.3395 19.6515L24.2866 20.0159C24.5719 20.126 24.8953 20.0559 25.1106 19.8387C25.8094 19.1329 26.314 18.2579 26.5763 17.2997C26.6564 17.0054 26.5553 16.691 26.318 16.4978L25.5281 15.8591C25.5291 15.804 25.5291 15.7479 25.5281 15.6919L26.318 15.0541C26.5553 14.8609 26.6564 14.5465 26.5763 14.2522C26.314 13.2941 25.8094 12.4191 25.1106 11.7132C24.8953 11.496 24.5719 11.4259 24.2866 11.536L23.3385 11.9005C23.2915 11.8714 23.2424 11.8434 23.1943 11.8164L23.0362 10.8142ZM21.5975 11.5821L21.7356 12.4511C21.7767 12.7114 21.9479 12.9327 22.1902 13.0368C22.4004 13.1279 22.5997 13.243 22.7839 13.3802C22.9961 13.5374 23.2734 13.5754 23.5197 13.4803L24.3407 13.1649C24.585 13.4783 24.7852 13.8237 24.9334 14.1921L24.2496 14.7458C24.0443 14.912 23.9392 15.1713 23.9692 15.4326C23.9953 15.6608 23.9953 15.8911 23.9692 16.1194C23.9392 16.3807 24.0443 16.64 24.2496 16.8062L24.9334 17.3598C24.7852 17.7282 24.585 18.0736 24.3407 18.386L23.5197 18.0716C23.2734 17.9765 22.9961 18.0146 22.7839 18.1718C22.5997 18.3089 22.4004 18.424 22.1902 18.5151C21.9479 18.6193 21.7767 18.8405 21.7356 19.1008L21.5975 19.9698C21.204 20.0259 20.8056 20.0259 20.4121 19.9698L20.2739 19.1008C20.2329 18.8405 20.0617 18.6193 19.8194 18.5151C19.6092 18.424 19.4099 18.3089 19.2257 18.1718C19.0135 18.0146 18.7362 17.9765 18.4899 18.0716L17.6689 18.387C17.4246 18.0736 17.2244 17.7282 17.0762 17.3598L17.76 16.8062C17.9653 16.64 18.0704 16.3807 18.0403 16.1194C18.0143 15.8911 18.0143 15.6608 18.0403 15.4326C18.0704 15.1713 17.9653 14.912 17.76 14.7458L17.0762 14.1921C17.2244 13.8237 17.4246 13.4783 17.6689 13.1659L18.4899 13.4803C18.7362 13.5754 19.0135 13.5374 19.2257 13.3802C19.4099 13.243 19.6092 13.1279 19.8194 13.0368C20.0617 12.9327 20.2329 12.7114 20.2739 12.4511L20.4121 11.5821C20.8056 11.526 21.204 11.526 21.5975 11.5821ZM21.0048 13.6545C19.8334 13.6545 18.8833 14.6046 18.8833 15.776C18.8833 16.9473 19.8334 17.8974 21.0048 17.8974C22.1762 17.8974 23.1263 16.9473 23.1263 15.776C23.1263 14.6046 22.1762 13.6545 21.0048 13.6545ZM21.0048 15.1943C21.3262 15.1943 21.5865 15.4546 21.5865 15.776C21.5865 16.0973 21.3262 16.3576 21.0048 16.3576C20.6834 16.3576 20.4231 16.0973 20.4231 15.776C20.4231 15.4546 20.6834 15.1943 21.0048 15.1943Z" fill="#624DE3"/>
<path fill-rule="evenodd" clip-rule="evenodd" d="M14.1017 20.439C13.5896 21.4702 13.3008 22.6323 13.3008 23.8622V29.2531C13.3008 29.8661 13.5441 30.4537 13.9777 30.8866C14.4105 31.3201 14.9981 31.5635 15.6112 31.5635C18.2781 31.5635 23.726 31.5635 26.3929 31.5635C27.006 31.5635 27.5936 31.3201 28.0264 30.8866C28.46 30.4537 28.7033 29.8661 28.7033 29.2531C28.7033 27.9193 28.7033 25.8907 28.7033 23.8622C28.7033 22.6323 28.4145 21.4702 27.9024 20.439C27.7129 20.0586 27.2509 19.903 26.8696 20.0917C26.4892 20.2811 26.3336 20.744 26.5231 21.1244C26.9328 21.9492 27.1631 22.8788 27.1631 23.8622V29.2531C27.1631 29.4572 27.0822 29.6536 26.9374 29.7976C26.7934 29.9424 26.597 30.0232 26.3929 30.0232H15.6112C15.4071 30.0232 15.2107 29.9424 15.0667 29.7976C14.9219 29.6536 14.841 29.4572 14.841 29.2531V23.8622C14.841 22.8788 15.0713 21.9492 15.481 21.1244C15.6705 20.744 15.5149 20.2811 15.1345 20.0917C14.7532 19.903 14.2912 20.0586 14.1017 20.439Z" fill="#624DE3"/>
<path fill-rule="evenodd" clip-rule="evenodd" d="M18.6914 23.8627V26.173C18.6914 26.3771 18.7723 26.5735 18.9171 26.7175L20.4573 28.2578C20.7577 28.5589 21.2459 28.5589 21.5463 28.2578L23.0865 26.7175C23.2313 26.5735 23.3122 26.3771 23.3122 26.173V23.8627C23.3122 23.4375 22.9672 23.0925 22.542 23.0925C22.1169 23.0925 21.7719 23.4375 21.7719 23.8627V25.8542L21.0018 26.6243L20.2317 25.8542V23.8627C20.2317 23.4375 19.8866 23.0925 19.4615 23.0925C19.0364 23.0925 18.6914 23.4375 18.6914 23.8627Z" fill="#624DE3"/>
</svg>
