<svg width="42" height="42" viewBox="0 0 42 42" fill="none" xmlns="http://www.w3.org/2000/svg">
<rect width="42" height="42" rx="6.5625" fill="#E3DCFF"/>
<path d="M26.8346 17.4262L27.4503 16.8104C27.6089 16.6566 27.6999 16.4458 27.7015 16.2244C27.7039 16.0038 27.617 15.7913 27.4608 15.6344C27.3039 15.4782 27.0913 15.3913 26.8708 15.3937C26.6494 15.3953 26.4385 15.4862 26.2848 15.6448L25.6698 16.2614C24.8584 15.5973 23.9287 15.0934 22.929 14.7779V11.9244C22.929 11.7054 22.842 11.4961 22.6875 11.3416C22.5329 11.187 22.3237 11.1001 22.1047 11.1001H18.8077C18.3521 11.1001 17.9834 11.4688 17.9834 11.9244V14.7771C15.7209 15.4862 13.8727 17.1332 12.91 19.3C11.9472 21.4661 11.9633 23.942 12.9534 26.096C13.9435 28.2499 15.8125 29.8743 18.084 30.5537C20.3548 31.2331 22.809 30.9031 24.8198 29.6474C26.8305 28.3917 28.2038 26.331 28.5893 23.992C28.9749 21.6529 28.3358 19.2614 26.8346 17.4262ZM19.632 12.7487H21.2805V14.4383C21.0093 14.4109 20.7348 14.3972 20.4563 14.3972C20.1778 14.3972 19.9033 14.4117 19.632 14.4383V12.7487ZM20.4563 29.2338C18.7072 29.2338 17.0305 28.5391 15.7933 27.3028C14.5569 26.0656 13.8622 24.3888 13.8622 22.6398C13.8622 20.8907 14.5569 19.214 15.7933 17.9767C17.0305 16.7404 18.7072 16.0457 20.4563 16.0457C22.2054 16.0457 23.8821 16.7404 25.1193 17.9767C26.3557 19.2139 27.0503 20.8907 27.0503 22.6398C27.0487 24.3881 26.3533 26.0639 25.1169 27.3003C23.8805 28.5367 22.2045 29.2322 20.4563 29.2338Z" fill="#624DE3"/>
<path d="M20.4571 17.6948C20.0015 17.6948 19.6328 18.0635 19.6328 18.5191V22.6403C19.6328 23.0959 20.0015 23.4646 20.4571 23.4646C20.9127 23.4646 21.2813 23.0959 21.2813 22.6403V18.5191C21.2813 18.3001 21.1944 18.0909 21.0398 17.9363C20.8853 17.7818 20.676 17.6948 20.4571 17.6948Z" fill="#624DE3"/>
</svg>
