<svg width="42" height="42" viewBox="0 0 42 42" fill="none" xmlns="http://www.w3.org/2000/svg">
<rect width="42" height="42" rx="6.5625" fill="#E3DCFF"/>
<g clip-path="url(#clip0_866_24528)">
<path d="M11.7801 28.3764H17.4605C17.9324 28.3759 18.3849 28.1882 18.7187 27.8545C19.0524 27.5208 19.2401 27.0683 19.2406 26.5963V21.8886C19.2401 21.4167 19.0524 20.9642 18.7187 20.6304C18.3849 20.2967 17.9324 20.109 17.4605 20.1085H11.7801C11.3081 20.109 10.8556 20.2967 10.5219 20.6304C10.1882 20.9642 10.0005 21.4167 10 21.8886V26.5963C10.0005 27.0683 10.1882 27.5208 10.5219 27.8545C10.8556 28.1882 11.3081 28.3759 11.7801 28.3764ZM11.459 21.8886C11.4591 21.8035 11.4929 21.7219 11.5531 21.6617C11.6133 21.6015 11.695 21.5676 11.7801 21.5676H17.4605C17.5456 21.5676 17.6272 21.6015 17.6874 21.6617C17.7476 21.7219 17.7815 21.8035 17.7815 21.8886V26.5963C17.7815 26.6814 17.7476 26.7631 17.6874 26.8233C17.6272 26.8835 17.5456 26.9173 17.4605 26.9174H11.7801C11.695 26.9173 11.6133 26.8835 11.5531 26.8233C11.4929 26.7631 11.4591 26.6814 11.459 26.5963V21.8886Z" fill="#624DE3"/>
<path d="M29.1323 20.1085H23.452C22.98 20.1091 22.5276 20.2968 22.1939 20.6305C21.8602 20.9642 21.6724 21.4167 21.6719 21.8886V26.5963C21.6724 27.0682 21.8602 27.5207 22.1939 27.8544C22.5276 28.1881 22.98 28.3758 23.452 28.3764H29.1323C29.6043 28.3758 30.0567 28.1881 30.3905 27.8544C30.7242 27.5207 30.9119 27.0682 30.9125 26.5963V21.8886C30.9119 21.4167 30.7242 20.9642 30.3905 20.6305C30.0567 20.2968 29.6043 20.1091 29.1323 20.1085ZM29.4534 26.5963C29.4533 26.6814 29.4194 26.763 29.3592 26.8232C29.299 26.8834 29.2175 26.9172 29.1323 26.9174H23.452C23.3669 26.9172 23.2853 26.8834 23.2251 26.8232C23.1649 26.763 23.1311 26.6814 23.1309 26.5963V21.8886C23.1311 21.8035 23.1649 21.7219 23.2251 21.6617C23.2853 21.6016 23.3669 21.5677 23.452 21.5676H29.1323C29.2175 21.5677 29.299 21.6016 29.3592 21.6617C29.4194 21.7219 29.4533 21.8035 29.4534 21.8886V26.5963Z" fill="#624DE3"/>
<path d="M30.1834 15.2453H23.0174C22.8616 14.6858 22.5269 14.1927 22.0645 13.8414C21.602 13.4901 21.0372 13.2999 20.4564 13.2999C19.8757 13.2999 19.3109 13.4901 18.8484 13.8414C18.386 14.1927 18.0513 14.6858 17.8955 15.2453H10.7295C10.536 15.2453 10.3505 15.3222 10.2137 15.459C10.0769 15.5958 10 15.7814 10 15.9748C10 16.1683 10.0769 16.3539 10.2137 16.4907C10.3505 16.6275 10.536 16.7044 10.7295 16.7044H17.8955C18.0513 17.2638 18.386 17.7569 18.8484 18.1082C19.3109 18.4596 19.8757 18.6497 20.4564 18.6497C21.0372 18.6497 21.602 18.4596 22.0645 18.1082C22.5269 17.7569 22.8616 17.2638 23.0174 16.7044H30.1834C30.3769 16.7044 30.5624 16.6275 30.6992 16.4907C30.836 16.3539 30.9129 16.1683 30.9129 15.9748C30.9129 15.7814 30.836 15.5958 30.6992 15.459C30.5624 15.3222 30.3769 15.2453 30.1834 15.2453ZM20.4564 17.1907C20.216 17.1907 19.9809 17.1194 19.7809 16.9858C19.581 16.8522 19.4252 16.6623 19.3331 16.4401C19.2411 16.218 19.217 15.9735 19.2639 15.7376C19.3109 15.5018 19.4267 15.2851 19.5967 15.1151C19.7667 14.945 19.9834 14.8292 20.2192 14.7823C20.4551 14.7354 20.6996 14.7595 20.9217 14.8515C21.1439 14.9435 21.3338 15.0994 21.4674 15.2993C21.601 15.4993 21.6723 15.7344 21.6723 15.9748C21.672 16.2972 21.5438 16.6063 21.3159 16.8343C21.0879 17.0622 20.7788 17.1904 20.4564 17.1907Z" fill="#624DE3"/>
</g>
<defs>
<clipPath id="clip0_866_24528">
<rect width="22" height="22" fill="white" transform="translate(10 10)"/>
</clipPath>
</defs>
</svg>
