<svg width="42" height="42" viewBox="0 0 42 42" fill="none" xmlns="http://www.w3.org/2000/svg">
<rect width="42" height="42" rx="6.5625" fill="#E3DCFF"/>
<path d="M12.3635 30.709H30.0608C31.4468 30.709 32.5743 29.5815 32.5743 28.1956V27.6438C32.5743 27.313 32.3063 27.0453 31.9759 27.0453H10.4485C10.118 27.0453 9.85 27.313 9.85 27.6438V28.1956C9.85 29.5815 10.9775 30.709 12.3635 30.709ZM31.3766 28.2423C31.3519 28.9464 30.7711 29.512 30.0608 29.512H12.3635C11.6533 29.512 11.0724 28.9464 11.0478 28.2423H31.3766Z" fill="#624DE3" stroke="#624DE3" stroke-width="0.3"/>
<path d="M11.5244 28.2417H30.9215C31.2519 28.2417 31.52 27.974 31.52 27.6432V13.0376C31.52 12.3827 30.9875 11.85 30.3324 11.85H12.1135C11.4584 11.85 10.9259 12.3827 10.9259 13.0376V27.6432C10.9259 27.974 11.1939 28.2417 11.5244 28.2417ZM30.323 13.047V27.0447H12.1229V13.047H30.323Z" fill="#624DE3" stroke="#624DE3" stroke-width="0.3"/>
<path d="M23.67 21.7041L23.67 21.7041C23.4735 21.5055 23.4749 21.185 23.6735 20.9884L25.9713 18.713L25.9715 18.7128C26.1695 18.5176 26.4899 18.5175 26.6867 18.7165C26.6867 18.7165 26.6867 18.7165 26.6868 18.7166L26.5801 18.822C26.7184 18.9617 26.7174 19.1873 26.5777 19.3256L23.67 21.7041ZM23.67 21.7041C23.769 21.804 23.8997 21.8539 24.0295 21.8539C24.158 21.8539 24.2868 21.8049 24.3853 21.7077L24.3854 21.7076L26.6832 19.4322M23.67 21.7041L26.6832 19.4322M26.6832 19.4322C26.6832 19.4322 26.6832 19.4322 26.6832 19.4322L26.6832 19.4322Z" fill="#624DE3" stroke="#624DE3" stroke-width="0.3"/>
<path d="M15.7618 21.6524L15.7616 21.6523C15.5655 21.4532 15.568 21.1331 15.7668 20.937L15.7669 20.937L18.4122 18.3299C18.4122 18.3298 18.4123 18.3298 18.4123 18.3297L18.4124 18.3297L18.5177 18.4365C18.6575 18.2982 18.8829 18.3003 19.0211 18.44L15.7618 21.6524ZM15.7618 21.6524C15.8607 21.7526 15.9916 21.803 16.122 21.803C16.2499 21.803 16.3786 21.7546 16.4772 21.6574L15.7618 21.6524ZM15.8685 21.547C15.7305 21.407 15.7323 21.1818 15.8721 21.0438L15.8685 21.547ZM15.8685 21.547C15.9382 21.6176 16.0301 21.653 16.122 21.653C16.2122 21.653 16.3026 21.619 16.3719 21.5505L15.8685 21.547Z" fill="#624DE3" stroke="#624DE3" stroke-width="0.3"/>
<path d="M22.3456 21.7092L22.3456 21.7091L19.6296 19.039C19.6296 19.039 19.6296 19.039 19.6296 19.039C19.4304 18.8433 19.4277 18.5228 19.6235 18.3237C19.8191 18.1238 20.1398 18.1219 20.3389 18.3176L20.3389 18.3176L23.055 20.9878C23.055 20.9878 23.055 20.9878 23.055 20.9878C23.2542 21.1835 23.2568 21.5041 23.061 21.7032L22.3456 21.7092ZM22.3456 21.7092C22.4441 21.8059 22.5725 21.8544 22.7003 21.8544M22.3456 21.7092L22.7003 21.8544M22.7003 21.8544C22.8308 21.8544 22.962 21.8041 23.0609 21.7032L22.7003 21.8544Z" fill="#624DE3" stroke="#624DE3" stroke-width="0.3"/>
<path d="M25.5539 18.4417C25.5539 19.2151 26.1828 19.8439 26.9561 19.8439C27.7293 19.8439 28.3583 19.2151 28.3583 18.4417C28.3583 17.6682 27.7293 17.0395 26.9561 17.0395C26.1828 17.0395 25.5539 17.6682 25.5539 18.4417ZM26.5656 18.4417C26.5656 18.2266 26.7409 18.0512 26.9561 18.0512C27.1712 18.0512 27.3465 18.2266 27.3465 18.4417C27.3465 18.6567 27.1712 18.8321 26.9561 18.8321C26.7409 18.8321 26.5656 18.6567 26.5656 18.4417Z" fill="#624DE3" stroke="#624DE3" stroke-width="0.3"/>
<path d="M22.0404 21.9918C22.0404 22.7193 22.6322 23.3112 23.3599 23.3112C24.0876 23.3112 24.6794 22.7193 24.6794 21.9918C24.6794 21.2642 24.0876 20.6723 23.3599 20.6723C22.6322 20.6723 22.0404 21.2642 22.0404 21.9918ZM23.0522 21.9918C23.0522 21.8223 23.1904 21.684 23.3599 21.684C23.5294 21.684 23.6676 21.8223 23.6676 21.9918C23.6676 22.1612 23.5294 22.2995 23.3599 22.2995C23.1904 22.2995 23.0522 22.1612 23.0522 21.9918Z" fill="#624DE3" stroke="#624DE3" stroke-width="0.3"/>
<path d="M18.465 19.0937L18.4651 19.0937C18.707 19.3209 19.0151 19.4455 19.3395 19.4455C19.3655 19.4455 19.3914 19.4447 19.4175 19.4431L19.4176 19.4431C19.804 19.4195 20.17 19.2432 20.4221 18.9575L20.4223 18.9574C20.647 18.702 20.7628 18.382 20.7416 18.0554L20.7416 18.0554C20.6927 17.309 20.1151 16.7328 19.3868 16.7328C18.6391 16.7328 18.0312 17.3407 18.0312 18.0884C18.0312 18.4678 18.1891 18.8341 18.465 19.0937ZM19.6633 18.288L19.6631 18.2882C19.5905 18.3707 19.4799 18.4251 19.3583 18.4331C19.2843 18.4346 19.2152 18.41 19.1582 18.3566C19.0852 18.2878 19.0429 18.1901 19.0429 18.0884C19.0429 17.8988 19.1973 17.7446 19.3868 17.7446C19.583 17.7446 19.7183 17.9125 19.7318 18.1214L19.7318 18.1215C19.7348 18.1675 19.7167 18.2276 19.6633 18.288Z" fill="#624DE3" stroke="#624DE3" stroke-width="0.3"/>
<path d="M14.1688 21.9226C14.1688 22.6522 14.7622 23.2456 15.4916 23.2456C16.2211 23.2456 16.8144 22.6522 16.8144 21.9226C16.8144 21.1933 16.2211 20.6 15.4916 20.6C14.7622 20.6 14.1688 21.1933 14.1688 21.9226ZM15.1806 21.9226C15.1806 21.7514 15.3202 21.6118 15.4916 21.6118C15.6631 21.6118 15.8027 21.7514 15.8027 21.9226C15.8027 22.0942 15.663 22.2338 15.4916 22.2338C15.3203 22.2338 15.1806 22.0942 15.1806 21.9226Z" fill="#624DE3" stroke="#624DE3" stroke-width="0.3"/>
</svg>
