<svg width="22" height="22" viewBox="0 0 22 22" fill="none" xmlns="http://www.w3.org/2000/svg">
<rect x="1" y="1" width="20" height="20" rx="10" fill="#F4F2FF"/>
<rect x="1" y="1" width="20" height="20" rx="10" stroke="#5D2BFF" stroke-width="1.8"/>
<path d="M8.06031 15L6.9375 13.8772L9.82472 10.99L6.9375 8.12281L8.06031 7L10.9475 9.88722L13.8147 7L14.9375 8.12281L12.0503 10.99L14.9375 13.8772L13.8147 15L10.9475 12.1128L8.06031 15Z" fill="#5D2BFF"/>
<path d="M8.06031 15L6.9375 13.8772L9.82472 10.99L6.9375 8.12281L8.06031 7L10.9475 9.88722L13.8147 7L14.9375 8.12281L12.0503 10.99L14.9375 13.8772L13.8147 15L10.9475 12.1128L8.06031 15Z" stroke="#5D2BFF"/>
</svg>
