<svg width="10" height="5" viewBox="0 0 10 5" fill="none" xmlns="http://www.w3.org/2000/svg">
<path fill-rule="evenodd" clip-rule="evenodd" d="M1.41053 0.867872C1.201 0.665036 0.915668 0.745196 0.760424 0.900994C0.550989 1.11117 0.630345 1.40058 0.787085 1.55787L0.792508 1.56332L4.54921 4.79482L4.57125 4.80588C4.63589 4.8383 4.74876 4.88061 4.84755 4.88061C4.90228 4.88061 4.95778 4.86801 5.00096 4.85357C5.03556 4.84199 5.09491 4.81869 5.14156 4.77561L8.86598 1.57187C8.9674 1.49252 9.02122 1.3728 9.03208 1.25836C9.04336 1.13952 9.01032 1.00367 8.90801 0.900994C8.75269 0.745122 8.46716 0.66496 8.2576 0.868162L4.84706 3.8019L1.41053 0.867872Z" fill="black"/>
</svg>
