<svg width="18" height="18" viewBox="0 0 18 18" fill="none" xmlns="http://www.w3.org/2000/svg">
<path d="M11.1209 9.00019L17.5601 2.56082C18.1466 1.97433 18.1466 1.02635 17.5601 0.439866C16.9737 -0.146622 16.0257 -0.146622 15.4392 0.439866L9 6.87923L2.56077 0.439866C1.97429 -0.146622 1.02633 -0.146622 0.439857 0.439866C-0.146619 1.02635 -0.146619 1.97433 0.439857 2.56082L6.87909 9.00019L0.439857 15.4396C-0.146619 16.026 -0.146619 16.974 0.439857 17.5605C0.732344 17.853 1.11633 18 1.50031 18C1.8843 18 2.26828 17.853 2.56077 17.5605L9 11.1211L15.4392 17.5605C15.7317 17.853 16.1157 18 16.4997 18C16.8837 18 17.2677 17.853 17.5601 17.5605C18.1466 16.974 18.1466 16.026 17.5601 15.4396L11.1209 9.00019Z" fill="black"/>
</svg>
