<svg width="12" height="24" viewBox="0 0 12 24" fill="none" xmlns="http://www.w3.org/2000/svg">
<path d="M11.5481 0.941116L8.66986 0.936523C5.43624 0.936523 3.34653 3.06857 3.34653 6.36849V8.87299H0.452578C0.202506 8.87299 0 9.07459 0 9.32328V12.952C0 13.2007 0.202736 13.4021 0.452578 13.4021H3.34653V22.5585C3.34653 22.8072 3.54904 23.0086 3.79911 23.0086H7.5749C7.82497 23.0086 8.02748 22.807 8.02748 22.5585V13.4021H11.4112C11.6613 13.4021 11.8638 13.2007 11.8638 12.952L11.8652 9.32328C11.8652 9.20387 11.8174 9.08952 11.7326 9.00502C11.6479 8.92052 11.5324 8.87299 11.4123 8.87299H8.02748V6.74989C8.02748 5.72945 8.27201 5.21142 9.60873 5.21142L11.5477 5.21073C11.7975 5.21073 12 5.00912 12 4.76067V1.39118C12 1.14295 11.7977 0.941575 11.5481 0.941116Z" fill="#1D1C35"/>
</svg>
