<svg width="22" height="22" viewBox="0 0 22 22" fill="none" xmlns="http://www.w3.org/2000/svg">
<path d="M17.6636 0.00018847H7.66848L2.11548 5.49993V19.7999C2.11548 21.0149 3.10999 22 4.33668 22H17.6635C18.8902 22 19.8847 21.0149 19.8847 19.7999V2.1999C19.8847 0.984871 18.8902 0 17.6635 0L17.6636 0.00018847ZM3.78133 6.60025L8.77889 1.65021V6.60025H3.78133ZM11.5556 18.7001C8.79993 18.7001 6.55807 16.4795 6.55807 13.75C6.55807 11.0205 8.79993 8.79996 11.5556 8.79996C14.3113 8.79996 16.5532 11.0205 16.5532 13.75C16.5532 16.4795 14.3112 18.7001 11.5556 18.7001ZM14.332 14.3001H11.0003V9.9001H12.1108V13.2001H14.332V14.3001Z" fill="white"/>
</svg>
