<svg width="13" height="16" viewBox="0 0 13 16" fill="none" xmlns="http://www.w3.org/2000/svg">
<path d="M12.6521 15.0225C12.1362 14.8374 11.6888 14.5022 11.3685 14.0607C11.0482 13.6193 10.87 13.0923 10.8572 12.5488V8.56368H11.1607C11.2949 8.56368 11.4236 8.51086 11.5185 8.41686C11.6133 8.32285 11.6666 8.19535 11.6666 8.06241V5.27385C11.6666 5.1409 11.6133 5.0134 11.5185 4.9194C11.4236 4.82539 11.2949 4.77258 11.1607 4.77258H8.18161V2.14292C8.18161 1.57459 7.95376 1.02952 7.54819 0.627648C7.14261 0.225772 6.59254 0 6.01897 0C5.4454 0 4.89533 0.225772 4.48975 0.627648C4.08418 1.02952 3.85633 1.57459 3.85633 2.14292V4.77258H0.505881C0.371713 4.77258 0.24304 4.82539 0.148169 4.9194C0.053298 5.0134 0 5.1409 0 5.27385V8.06241C0 8.19535 0.053298 8.32285 0.148169 8.41686C0.24304 8.51086 0.371713 8.56368 0.505881 8.56368H0.823574V12.5488C0.832577 13.3041 1.07639 14.0383 1.52178 14.6513C1.96717 15.2643 2.59249 15.7263 3.31251 15.9744C3.36395 15.9912 3.41772 15.9998 3.47186 16H12.4932C12.6136 16.0002 12.7301 15.9579 12.8218 15.8806C12.9135 15.8033 12.9744 15.6962 12.9936 15.5784C13.0127 15.4607 12.9888 15.34 12.9262 15.2381C12.8636 15.1362 12.7664 15.0598 12.6521 15.0225ZM4.86809 2.14292C4.86809 1.84047 4.98934 1.55041 5.20517 1.33655C5.42101 1.12269 5.71374 1.00254 6.01897 1.00254C6.3242 1.00254 6.61693 1.12269 6.83276 1.33655C7.0486 1.55041 7.16985 1.84047 7.16985 2.14292V4.77258H4.86809V2.14292ZM1.01176 5.77512H10.6528V7.56114H1.01176V5.77512ZM9.94966 14.9985C9.70684 14.7889 9.08967 14.1057 9.08967 12.5498C9.08967 12.4168 9.03637 12.2893 8.9415 12.1953C8.84662 12.1013 8.71795 12.0485 8.58379 12.0485C8.44962 12.0485 8.32094 12.1013 8.22607 12.1953C8.1312 12.2893 8.0779 12.4168 8.0779 12.5498C8.05115 13.404 8.25737 14.2496 8.67484 14.9975H3.56545C3.06367 14.8066 2.63089 14.4715 2.32263 14.0352C2.01437 13.5989 1.84468 13.0813 1.83534 12.5488V8.56368H9.84545V12.5488C9.83653 13.4614 10.1901 14.3409 10.8299 14.9975L9.94966 14.9985Z" fill="#4461D7"/>
</svg>
