<svg width="34" height="32" viewBox="0 0 34 32" fill="none" xmlns="http://www.w3.org/2000/svg">
<path d="M16.3092 15.6699L16.3092 15.6699L16.3141 15.6747C17.4408 16.7715 18.3441 17.9506 18.8776 18.9292L18.8776 18.9292L18.8789 18.9316C19.1911 19.4969 19.3474 19.9424 19.3906 20.2703C19.4237 20.5207 19.3881 20.6672 19.339 20.7545C19.329 20.7594 19.318 20.7652 19.3063 20.7718L18.86 20.9393L18.8528 20.9419L18.8458 20.9448C12.0863 23.7179 10.611 24.3189 9.43455 24.7982C8.608 25.1349 7.92901 25.4115 5.66862 26.3391C5.67648 26.3191 5.68465 26.2984 5.69314 26.277C5.85246 25.8748 6.11063 25.2516 6.51612 24.2728C6.98207 23.148 7.64254 21.5536 8.57108 19.2855C8.57109 19.2854 8.57111 19.2854 8.57112 19.2854L10.1321 15.4747L10.1694 15.3836V15.3741C10.174 15.3624 10.179 15.3494 10.1847 15.3351C10.2156 15.2561 10.2603 15.1438 10.3145 15.0085C10.4228 14.7383 10.5678 14.38 10.714 14.0214C10.8601 13.6627 11.0069 13.3046 11.119 13.0347C11.1752 12.8995 11.222 12.7877 11.2555 12.7095C11.2593 12.7007 11.2628 12.6924 11.2662 12.6847C11.357 12.6219 11.5099 12.5798 11.7809 12.6181C12.1137 12.6652 12.5447 12.8264 13.0507 13.1037C14.0569 13.6552 15.2369 14.5971 16.3092 15.6699Z" stroke="white"/>
<path d="M11.5 13C12 14.8333 14.2 18.9 19 20.5" stroke="white"/>
<path d="M8 22L12.5 23.5" stroke="white"/>
<path d="M9 19.0376L16 22" stroke="white"/>
<path d="M14.0334 4.20911L13.906 6.28758C13.8905 6.32793 13.9527 6.39792 13.9915 6.41273L15.853 7.12387C15.9694 7.16832 15.9465 7.34454 15.8381 7.39562L13.894 7.9477C13.8398 7.97324 13.7856 7.99878 13.7935 8.0943L13.6661 10.1728C13.6587 10.3086 13.4961 10.3853 13.4106 10.2601L12.3297 8.55242C12.3063 8.49725 12.2288 8.46762 12.1746 8.49316L10.2304 9.04524C10.0833 9.0815 10.0132 8.916 10.0982 8.80976L11.389 7.17575C11.4044 7.1354 11.4353 7.05469 11.4119 6.99952L10.3311 5.29184C10.2455 5.16669 10.3848 5.03491 10.5011 5.07935L12.3626 5.79049C12.4014 5.8053 12.4944 5.79458 12.5098 5.75423L13.8007 4.12022C13.8857 4.01398 14.0408 4.07324 14.0334 4.20911Z" fill="white"/>
<path d="M22.6029 17.452L24.1693 18.8241C24.1918 18.861 24.2851 18.8546 24.3206 18.833L26.0218 17.7953C26.1281 17.7304 26.2536 17.8563 26.2277 17.9733L25.4753 19.8491C25.4623 19.9076 25.4494 19.9661 25.5298 20.0182L27.0962 21.3903C27.1992 21.4793 27.1603 21.6548 27.009 21.6459L24.9969 21.4565C24.939 21.4412 24.8681 21.4844 24.8551 21.5429L24.1028 23.4187C24.0414 23.5573 23.8676 23.5115 23.8356 23.3793L23.3324 21.3586C23.3099 21.3217 23.2649 21.248 23.207 21.2327L21.1949 21.0433C21.0436 21.0344 21.0245 20.8436 21.1308 20.7788L22.832 19.741C22.8675 19.7194 22.9159 19.6393 22.8934 19.6024L22.3902 17.5818C22.3582 17.4495 22.4999 17.363 22.6029 17.452Z" fill="white"/>
<path d="M18.1266 13.882C17.9578 13.7247 17.9578 13.4888 18.1266 13.3315C18.6751 12.8202 19.3924 12.9382 19.9409 13.0562C22.3038 13.5281 20.1097 11.4831 21.2911 10.382C21.8397 9.87078 22.557 9.98876 23.1055 10.1067C25.4683 10.5786 23.2743 8.57303 24.4557 7.43258C25.4261 6.52809 26.7342 7.58989 27.2827 7.11798C27.4515 6.96067 27.7046 6.96067 27.8734 7.11798C28.0422 7.27528 28.0422 7.51124 27.8734 7.66854C27.3249 8.17977 26.6076 8.0618 26.0591 7.94382C23.6962 7.47191 25.8903 9.47752 24.7089 10.618C23.5274 11.7191 21.3333 9.67415 21.8397 11.8764C21.9662 12.3876 22.0928 13.0168 21.5443 13.5674C20.5738 14.4719 19.2658 13.4101 18.7173 13.882C18.5485 14.0393 18.2954 14.0393 18.1266 13.882Z" fill="white"/>
<path d="M18.4082 9.99999C18.1633 9.99999 18 9.77098 18 9.54198C18 8.07633 20 8.25953 18.7755 7.38931C18.449 7.1603 18 6.83969 18 6.15267C18 5.05343 19.1837 4.91603 19.1837 4.45801C19.1837 4.18321 19.3878 4 19.5918 4C19.8367 4 20 4.22901 20 4.45801C20 5.14504 19.551 5.46565 19.2245 5.69465C18 6.56488 20 6.42748 20 7.84732C20 8.53434 19.551 8.85495 19.2245 9.08396C18.9388 9.31297 18.8163 9.40457 18.8163 9.54198C18.8163 9.77098 18.6531 9.99999 18.4082 9.99999Z" fill="white"/>
<path d="M28.542 16C27.4427 16 27.3053 14.8163 26.8473 14.8163C26.3893 14.8163 26.2519 16 25.1527 16C24.4656 16 24.145 15.551 23.916 15.2245C23.687 14.9388 23.5954 14.8163 23.458 14.8163C23.1832 14.8163 23 14.6122 23 14.4082C23 14.2041 23.229 14 23.458 14C24.8779 14 24.7405 16 25.6107 14.7755C25.8397 14.449 26.1603 14 26.8473 14C27.9466 14 28.084 15.1837 28.542 15.1837C28.8168 15.1837 29 15.3878 29 15.5918C29 15.7959 28.771 16 28.542 16Z" fill="white"/>
</svg>
