<svg width="80" height="80" viewBox="0 0 80 80" fill="none" xmlns="http://www.w3.org/2000/svg">
<path d="M8.58111 5.93018H0.475586V0.460938L8.58111 5.93018Z" fill="#0F9B74"/>
<path d="M74.5723 79.9995L79.4757 79.4547L74.5723 74.5513V79.9995Z" fill="#0F9B74"/>
<path d="M79.4756 79.4537L0.475586 0.460938H40.248L79.4756 39.6849V79.4537Z" fill="#0CDFA3"/>
<path d="M37.6367 9.79547C38.5566 10.7186 39.0258 11.5909 39.0443 12.4123C39.0763 13.2337 38.7443 13.9911 38.0486 14.6843C37.7342 14.9976 37.3865 15.2507 37.0055 15.4437C36.6312 15.63 36.2204 15.7261 35.773 15.7319C35.3389 15.7378 34.8817 15.6268 34.4013 15.3989C33.9209 15.171 33.4208 14.7962 32.9008 14.2744L32.2509 13.6221L29.7022 16.1617L28.1924 14.6465L35.357 7.5076L37.6367 9.79547ZM36.3124 10.955L35.6225 10.2626L33.4952 12.3823L33.9951 12.884C34.2818 13.1717 34.5652 13.3826 34.8454 13.5166C35.1256 13.6507 35.4027 13.6946 35.6766 13.6483C35.9504 13.6021 36.2145 13.4523 36.4687 13.199C36.8232 12.8457 36.9875 12.4888 36.9614 12.1281C36.942 11.7608 36.7257 11.3698 36.3124 10.955ZM42.0595 23.0646C41.6046 23.5179 41.1366 23.8576 40.6554 24.0838C40.1808 24.3167 39.7031 24.4393 39.2223 24.4518C38.7549 24.4643 38.2943 24.37 37.8405 24.1689C37.3935 23.9611 36.9634 23.6498 36.5501 23.235C36.1701 22.8537 35.8771 22.4392 35.6709 21.9914C35.478 21.5436 35.3854 21.0827 35.3929 20.6086C35.4071 20.1278 35.5248 19.6439 35.7461 19.1568C35.974 18.6765 36.3154 18.2096 36.7703 17.7564C37.379 17.1498 37.9975 16.7469 38.6255 16.5477C39.2603 16.3418 39.888 16.3296 40.5087 16.511C41.1294 16.6924 41.713 17.0574 42.2596 17.606C42.7729 18.1211 43.1158 18.686 43.2883 19.3006C43.4608 19.9153 43.4497 20.5463 43.2548 21.1937C43.0667 21.8344 42.6683 22.4581 42.0595 23.0646ZM38.2901 19.2816C37.9288 19.6416 37.6611 19.9816 37.4869 20.3019C37.3261 20.6221 37.2654 20.9292 37.305 21.2231C37.3512 21.5103 37.5076 21.7877 37.7742 22.0553C38.0409 22.3229 38.3144 22.4769 38.5948 22.5175C38.8885 22.5581 39.1925 22.4952 39.5066 22.3288C39.8341 22.1625 40.1785 21.8993 40.5397 21.5394C40.901 21.1794 41.162 20.8393 41.3229 20.5191C41.4904 20.2055 41.551 19.9052 41.5048 19.6179C41.4585 19.3307 41.3021 19.0533 41.0355 18.7857C40.6422 18.391 40.2185 18.24 39.7642 18.3327C39.3233 18.4254 38.8319 18.7417 38.2901 19.2816ZM49.16 24.5312C49.7732 25.1466 50.029 25.885 49.9273 26.7462C49.8323 27.6008 49.3198 28.4914 48.39 29.4179C47.7678 30.0378 47.1527 30.4707 46.5446 30.7167C45.9432 30.956 45.3788 31.0251 44.8514 30.924C44.3241 30.8229 43.8537 30.565 43.4405 30.1502C43.1805 29.8893 42.9873 29.6285 42.8609 29.3679C42.7412 29.1139 42.6682 28.8667 42.6419 28.6263C42.6156 28.3858 42.6127 28.1554 42.6331 27.9351L42.5531 27.8548C42.4527 28.0082 42.3389 28.1616 42.2117 28.315C42.0913 28.4617 41.9641 28.6017 41.8304 28.735L39.6228 30.9347L38.133 29.4395L46.0201 21.5807L47.2299 22.7949L46.7275 23.7155L46.7974 23.7857C47.0446 23.7394 47.2984 23.7265 47.5588 23.747C47.8259 23.7609 48.0928 23.8281 48.3597 23.9488C48.6333 24.0762 48.9 24.2703 49.16 24.5312ZM47.486 25.2394C47.226 24.9785 46.9659 24.8244 46.7055 24.7772C46.4452 24.73 46.168 24.7796 45.8739 24.926C45.5931 25.0724 45.2855 25.3055 44.9511 25.6255L44.7905 25.7854C44.436 26.1387 44.1683 26.4721 43.9874 26.7856C43.8132 27.0925 43.7426 27.3895 43.7755 27.6767C43.8083 27.9639 43.9614 28.2447 44.2347 28.5189C44.4613 28.7464 44.7115 28.8704 44.9853 28.8909C45.259 28.9114 45.5563 28.8352 45.8772 28.6621C46.198 28.4891 46.5357 28.2259 46.8903 27.8726C47.4254 27.3394 47.7435 26.8558 47.8444 26.422C47.9587 25.9881 47.8393 25.5939 47.486 25.2394ZM57.3566 32.958L51.8777 38.4171L50.7379 37.2732L51.2403 36.3726L51.1603 36.2923C50.8597 36.3653 50.5592 36.3714 50.2588 36.3108C49.9718 36.2501 49.6949 36.1395 49.428 35.9787C49.1545 35.8246 48.9045 35.6339 48.6778 35.4064C48.2912 35.0184 48.0215 34.6073 47.8687 34.1729C47.7159 33.7386 47.7067 33.2945 47.841 32.8407C47.9754 32.3868 48.2767 31.9266 48.745 31.46L52.3173 27.9006L53.8071 29.3957L50.6061 32.5852C50.2181 32.9718 49.9937 33.3354 49.933 33.6758C49.8723 34.0163 49.9952 34.3404 50.3019 34.6481C50.6085 34.9558 50.9154 35.1233 51.2225 35.1506C51.5363 35.1845 51.8603 35.1016 52.1945 34.9019C52.5354 34.7089 52.8999 34.419 53.2879 34.0324L55.8668 31.4628L57.3566 32.958ZM54.9295 41.4799L53.4397 39.9848L61.066 32.3859L62.5558 33.8811L54.9295 41.4799ZM64.3151 39.7208C65.0483 40.4566 65.4476 41.1785 65.5131 41.8865C65.592 42.5945 65.3036 43.2751 64.6481 43.9283L60.9955 47.5678L59.9556 46.5242L60.4082 45.4933L60.3682 45.4531C60.0209 45.4926 59.7004 45.492 59.4067 45.4514C59.1196 45.4175 58.8426 45.3202 58.5758 45.1594C58.309 45.0121 58.0222 44.7845 57.7156 44.4768C57.3957 44.1557 57.1659 43.8047 57.0264 43.4238C56.9002 43.0429 56.8909 42.6523 56.9984 42.2518C57.1127 41.8447 57.3671 41.4445 57.7618 41.0512C58.3438 40.4713 58.9753 40.2487 59.6562 40.3835C60.3437 40.5116 61.1075 40.9704 61.9475 41.7599L62.9274 42.6832L63.1683 42.4432C63.4559 42.1566 63.59 41.8697 63.5705 41.5825C63.5576 41.302 63.4179 41.028 63.1513 40.7604C62.8846 40.4928 62.5845 40.2719 62.251 40.0977C61.9241 39.9168 61.5771 39.7559 61.2101 39.615L61.7337 38.1135C62.1808 38.2545 62.6245 38.459 63.0648 38.7269C63.5117 39.0015 63.9284 39.3328 64.3151 39.7208ZM61.4545 42.991C60.9612 42.5227 60.5409 42.2749 60.1937 42.2475C59.8465 42.2202 59.5425 42.3365 59.2816 42.5965C59.0541 42.8231 58.9569 43.0533 58.9899 43.2871C59.0295 43.5142 59.156 43.7348 59.3693 43.9489C59.6892 44.27 60.0529 44.4476 60.4601 44.4817C60.8741 44.5092 61.255 44.3496 61.6029 44.003L62.0544 43.553L61.4545 42.991ZM71.1492 46.5995C71.2225 46.6731 71.3058 46.7634 71.3991 46.8704C71.4924 46.9774 71.5623 47.0677 71.6089 47.1413L70.0941 48.4307C70.0608 48.3705 70.0009 48.2903 69.9143 48.19C69.841 48.0897 69.771 48.0061 69.7044 47.9392C69.5111 47.7452 69.2977 47.5845 69.0642 47.4572C68.8374 47.3233 68.5971 47.236 68.3435 47.1955C68.0964 47.1617 67.8393 47.1912 67.572 47.2843C67.3181 47.3773 67.0607 47.5538 66.7998 47.8137L64.0102 50.5933L62.5204 49.0982L67.9993 43.639L69.1291 44.7729L68.4259 45.9135L68.4959 45.9838C68.7898 45.9042 69.0937 45.868 69.4076 45.8752C69.7214 45.8825 70.0285 45.9431 70.3288 46.0572C70.6357 46.1779 70.9092 46.3587 71.1492 46.5995Z" fill="white"/>
</svg>
