<svg width="126" height="43" viewBox="0 0 126 43" fill="none" xmlns="http://www.w3.org/2000/svg">
<path d="M44.5811 19.6922C44.5811 18.9292 44.744 18.2206 45.0154 17.5121C45.2868 16.8581 45.6669 16.2585 46.2097 15.768C46.7524 15.2775 47.404 14.896 48.1097 14.678C48.9242 14.4055 49.7925 14.2965 50.6612 14.2965C51.6383 14.2419 52.6154 14.4055 53.5383 14.7325C54.1899 15.005 54.7868 15.332 55.3299 15.8225C55.7097 16.204 56.0357 16.64 56.2524 17.1306C56.4154 17.5121 56.5242 17.8936 56.5784 18.2751C56.5784 18.4386 56.5242 18.5477 56.4154 18.6566C56.307 18.7657 56.144 18.8201 56.0357 18.8201H54.407C54.2982 18.8201 54.1357 18.7657 54.0269 18.7112C53.9727 18.6566 53.8639 18.5477 53.8639 18.4931C53.8639 18.4386 53.7555 18.3296 53.6467 18.1661C53.4841 17.9481 53.3211 17.7846 53.104 17.6211C52.8326 17.4031 52.507 17.1851 52.1811 17.0761C51.6925 16.9126 51.204 16.8581 50.6612 16.8581C49.7925 16.7491 48.9242 17.0216 48.2727 17.6211C47.6753 18.1661 47.2956 18.9837 47.2956 19.8012C47.2956 20.2917 47.241 20.8367 47.241 21.4363C47.241 22.0358 47.241 22.5808 47.2956 23.0713C47.241 23.9979 47.6211 24.8699 48.2727 25.4694C48.9784 26.0145 49.7925 26.287 50.6612 26.2325C51.0956 26.2325 51.5841 26.178 52.0185 26.069C52.3982 25.96 52.7784 25.7965 53.104 25.5239C53.4299 25.3059 53.6467 24.9789 53.8097 24.5974C53.9727 24.1614 54.0811 23.6164 54.0811 23.1258V23.0168H51.3669C51.204 23.0168 51.0956 22.9623 50.9868 22.8533C50.8784 22.7443 50.8242 22.6353 50.8242 22.4718V21.0003C50.8242 20.8367 50.8784 20.7277 50.9868 20.6187C51.0956 20.5097 51.204 20.4552 51.3669 20.4552H56.2524C56.4154 20.4552 56.5242 20.5097 56.6326 20.6187C56.7414 20.7277 56.7956 20.8367 56.7956 21.0003V23.2348C56.7956 23.9979 56.6868 24.7609 56.4154 25.4694C56.144 26.1234 55.7639 26.723 55.2753 27.2135C54.7326 27.704 54.0811 28.14 53.3753 28.3581C51.6383 28.9031 49.7925 28.9031 48.0555 28.3581C47.3498 28.14 46.7524 27.7585 46.2097 27.2135C45.7211 26.723 45.341 26.1234 45.0696 25.4694C44.7982 24.7609 44.6352 23.9979 44.5811 23.2348C44.5811 22.9623 44.5811 22.6898 44.5811 22.4173C44.5811 22.0903 44.5811 21.8178 44.5811 21.4908C44.5811 21.1638 44.5811 20.8367 44.5811 20.5642C44.5811 20.2917 44.5811 19.9647 44.5811 19.6922Z" fill="white"/>
<path d="M57.6631 23.3453C57.6631 22.6367 57.7719 21.9282 57.9891 21.2197C58.2058 20.5657 58.5318 20.0206 58.9662 19.4756C59.4001 18.9851 59.9433 18.6036 60.5402 18.3311C61.1917 18.0585 61.8974 17.895 62.549 17.895C63.2547 17.895 63.9604 18.004 64.5574 18.3311C65.1547 18.6036 65.6974 18.9306 66.1318 19.4211C66.5662 19.9116 66.8917 20.4566 67.1089 21.0562C67.3261 21.7102 67.4891 22.3642 67.4891 23.0183V23.9448C67.4891 24.2718 67.2719 24.4898 66.9459 24.4898H60.2688C60.2688 24.7623 60.323 25.0348 60.4318 25.3073C60.5402 25.5254 60.7574 25.7434 60.9204 25.9069C61.1375 26.0704 61.4089 26.1794 61.6803 26.2884C61.9516 26.3429 62.223 26.3974 62.549 26.3974C62.8745 26.3974 63.2547 26.3429 63.5803 26.2884C63.7974 26.2339 64.0146 26.1249 64.2318 25.9614C64.3402 25.8524 64.449 25.7979 64.612 25.7434C64.7203 25.6889 64.8833 25.6889 64.9917 25.6889H66.6203C66.7833 25.6889 66.8917 25.7434 67.0005 25.8524C67.1089 25.9614 67.1631 26.0704 67.1631 26.2339C67.1089 26.5064 67.0005 26.7244 66.8375 26.9424C66.6203 27.2694 66.2948 27.5965 65.9688 27.8145C65.5345 28.1415 65.0459 28.3595 64.5574 28.5775C63.9062 28.7955 63.2547 28.9045 62.6032 28.85C61.8974 28.85 61.1917 28.741 60.5948 28.4685C59.9974 28.2505 59.4547 27.869 59.0745 27.3785C58.6402 26.8879 58.3146 26.2884 58.0974 25.6889C57.7719 24.8713 57.6631 24.1083 57.6631 23.3453ZM62.549 20.3477C62.223 20.3477 61.8974 20.4021 61.5719 20.5112C61.3005 20.6201 61.0833 20.7837 60.8662 20.9472C60.7032 21.1107 60.5402 21.3287 60.4318 21.5467C60.323 21.7647 60.2688 21.9827 60.2688 22.2007H64.7745C64.7745 21.9827 64.7203 21.7647 64.6662 21.5467C64.612 21.3287 64.449 21.1107 64.286 20.9472C64.123 20.7292 63.8516 20.6201 63.6345 20.5112C63.3089 20.3477 62.9287 20.2931 62.549 20.3477Z" fill="white"/>
<path d="M71.6148 24.7606C71.6148 25.1421 71.7232 25.4691 71.9404 25.7416C72.2664 26.0141 72.7549 26.1776 73.1893 26.1231H74.3836C74.7091 26.1231 74.9263 26.3411 74.9263 26.6681V27.9762C74.9263 28.1397 74.8721 28.2487 74.7633 28.3577C74.6549 28.4667 74.5461 28.5212 74.3836 28.5212H72.9179C71.8862 28.5757 70.8549 28.2487 70.0404 27.5947C69.3347 26.8316 68.9549 25.8506 69.0091 24.815V20.5094H68.2492C68.0862 20.5094 67.9778 20.4548 67.869 20.3459C67.7607 20.2368 67.7061 20.1279 67.7061 19.9643V18.6563C67.7061 18.3293 67.9232 18.1113 68.2492 18.1113H69.0091V15.3316C69.0091 15.1681 69.0633 15.0591 69.1721 14.9501C69.2805 14.8411 69.3893 14.7866 69.5519 14.7866H71.0721C71.3977 14.7866 71.6148 15.0046 71.6148 15.3316V18.1113H74.2206C74.3836 18.1113 74.4919 18.1658 74.6007 18.2748C74.7091 18.3838 74.7633 18.4928 74.7633 18.6563V19.9643C74.7633 20.1279 74.7091 20.2368 74.6007 20.3459C74.4919 20.4548 74.3836 20.5094 74.2206 20.5094H71.6148V24.7606Z" fill="white"/>
<path d="M83.286 15.0591C83.449 15.0591 83.612 15.1136 83.775 15.2226C83.8834 15.3861 83.9918 15.5496 84.0464 15.7131L88.8235 27.9217C88.8235 27.9762 88.8235 28.0306 88.8235 28.0306C88.8235 28.3577 88.6063 28.5757 88.2807 28.5757H86.8693C86.6521 28.5757 86.4891 28.5212 86.3261 28.4122C86.2177 28.3032 86.1635 28.1942 86.1089 28.0852L85.2948 25.9051H79.1605L78.3464 28.0852C78.2918 28.1942 78.2376 28.3032 78.1292 28.4122C77.9662 28.5212 77.8032 28.5757 77.586 28.5757H76.1746C76.012 28.5757 75.9032 28.5212 75.7948 28.4122C75.686 28.3032 75.6318 28.1942 75.6318 28.0306C75.6318 27.9761 75.6318 27.9217 75.6318 27.9217L80.4089 15.7131C80.4635 15.5496 80.5719 15.3316 80.6803 15.2226C80.7891 15.1136 80.9521 15.0591 81.1693 15.0591H83.286ZM84.3719 23.4525L82.2005 17.8932L80.0834 23.4525H84.3719Z" fill="white"/>
<path d="M95.3372 28.741C94.9575 28.741 94.6315 28.6865 94.2517 28.632C93.9804 28.5775 93.6544 28.4685 93.383 28.3595C93.1658 28.2505 92.9487 28.1415 92.7315 27.978C92.5689 27.869 92.4601 27.7054 92.2971 27.5965V31.1936C92.2971 31.5206 92.0804 31.7386 91.7544 31.7386H90.2346C90.0716 31.7386 89.9632 31.6841 89.8544 31.5751C89.746 31.4661 89.6914 31.3571 89.6914 31.1936V18.6581C89.6914 18.4946 89.746 18.3856 89.8544 18.2765C89.9632 18.1676 90.0716 18.1131 90.2346 18.1131H91.7544C91.9174 18.1131 92.0258 18.1676 92.1346 18.2765C92.2429 18.3856 92.2971 18.4946 92.2971 18.6581V19.0941C92.4059 18.9306 92.5689 18.8216 92.7315 18.7126C92.9487 18.5491 93.1117 18.44 93.383 18.3311C93.6544 18.222 93.9258 18.1131 94.2517 18.004C94.6315 17.9496 94.9575 17.895 95.3372 17.895C95.9887 17.895 96.5861 18.004 97.1288 18.2765C97.6716 18.5491 98.1059 18.8761 98.4861 19.3121C98.8658 19.7481 99.1918 20.2386 99.4086 20.7837C99.6258 21.3287 99.7346 21.9282 99.7887 22.5823C99.7887 22.8003 99.7887 23.0183 99.7887 23.2908C99.7887 23.5633 99.7887 23.7813 99.7887 23.9993C99.7887 24.5988 99.6258 25.1984 99.4086 25.7979C99.1918 26.3429 98.92 26.8879 98.4861 27.3239C98.1059 27.76 97.6174 28.1415 97.1288 28.3595C96.5861 28.632 95.9346 28.741 95.3372 28.741ZM97.183 23.8903C97.2372 23.5088 97.2372 23.1273 97.183 22.7458C97.183 22.0372 96.9117 21.3832 96.3689 20.8927C95.9346 20.5112 95.3372 20.3477 94.7403 20.3477C94.1429 20.3477 93.546 20.5112 93.0575 20.9472C92.5689 21.3832 92.2971 21.9827 92.2971 22.6367C92.2429 22.9092 92.2429 23.1273 92.2429 23.3998C92.2429 23.6723 92.2429 23.8903 92.2971 24.1628C92.3517 25.4708 93.4372 26.4519 94.7403 26.3974C95.3372 26.3974 95.9346 26.1794 96.3689 25.8524C96.9117 25.3073 97.183 24.5988 97.183 23.8903Z" fill="white"/>
<path d="M106.52 28.741C106.141 28.741 105.76 28.6865 105.381 28.632C105.109 28.5775 104.783 28.4685 104.512 28.3595C104.295 28.2505 104.078 28.1415 103.86 27.978C103.697 27.869 103.589 27.7054 103.426 27.5965V31.1936C103.426 31.3571 103.372 31.4661 103.263 31.5751C103.155 31.6841 103.046 31.7386 102.883 31.7386H101.363C101.037 31.7386 100.82 31.5206 100.82 31.1936V18.6581C100.82 18.3311 101.037 18.1131 101.363 18.1131H102.883C103.046 18.1131 103.155 18.1676 103.263 18.2765C103.372 18.3856 103.426 18.4946 103.426 18.6581V19.0941C103.535 18.9306 103.697 18.8216 103.86 18.7126C104.078 18.5491 104.241 18.44 104.512 18.3311C104.783 18.222 105.055 18.1131 105.381 18.004C105.76 17.895 106.141 17.895 106.52 17.895C107.172 17.895 107.769 18.004 108.312 18.2765C108.855 18.5491 109.289 18.8761 109.669 19.3121C110.049 19.7481 110.375 20.2386 110.592 20.7837C110.809 21.3287 110.918 21.9282 110.972 22.5823C110.972 22.8003 110.972 23.0183 110.972 23.2908C110.972 23.5633 110.972 23.7813 110.972 23.9993C110.972 24.5988 110.809 25.1984 110.592 25.7979C110.375 26.3429 110.103 26.8879 109.669 27.3239C109.289 27.76 108.8 28.1415 108.312 28.3595C107.769 28.632 107.118 28.741 106.52 28.741ZM108.366 23.8903C108.42 23.5088 108.42 23.1273 108.366 22.7458C108.366 22.0372 108.095 21.3832 107.552 20.8927C107.063 20.5112 106.466 20.3477 105.869 20.3477C105.272 20.3477 104.675 20.5657 104.241 20.9472C103.752 21.3832 103.481 21.9827 103.481 22.6367C103.426 22.9092 103.426 23.1273 103.426 23.3998C103.426 23.6723 103.426 23.8903 103.481 24.1628C103.535 24.7623 103.806 25.3619 104.241 25.7979C104.675 26.1794 105.272 26.3974 105.869 26.3974C106.466 26.3974 107.063 26.1794 107.552 25.7979C108.041 25.3073 108.366 24.5988 108.366 23.8903Z" fill="white"/>
<path d="M39.858 21.4923L33.1808 14.7885C32.9637 14.5705 32.6379 14.5705 32.4208 14.7885L31.1179 16.0966L36.4923 21.4923C36.7094 21.7103 36.7094 22.0373 36.5465 22.2553C36.5465 22.2553 36.5465 22.2553 36.4923 22.3098L30.9551 27.8146L32.2579 29.1226C32.4751 29.3406 32.8008 29.3406 33.0179 29.1771C33.0179 29.1771 33.0179 29.1771 33.0722 29.1226L39.9123 22.2553C40.0751 22.0918 40.0751 21.7103 39.858 21.4923Z" fill="#2CB5B4"/>
<path d="M28.512 15.2778L28.0234 14.7873C27.8062 14.5693 27.4805 14.5693 27.2634 14.7328C27.2634 14.7328 27.2634 14.7328 27.2091 14.7873L25.9062 16.0953L26.7748 16.9674L28.4577 18.6569L30.1406 16.9674L28.512 15.2778Z" fill="#8CBF44"/>
<path d="M28.3493 25.1973L26.6664 26.8868L25.7979 27.7589L27.1007 29.0669C27.3179 29.2849 27.6436 29.2849 27.8607 29.0669L28.3493 28.5764L30.0322 26.8868L28.3493 25.1973Z" fill="#8CBF44"/>
<path d="M31.2801 21.4905C31.4972 21.7085 31.4972 22.09 31.2801 22.308L28.3486 25.1966L30.0315 26.8862L34.6458 22.2535C34.863 22.0355 34.863 21.654 34.6458 21.436L30.1944 16.9668L28.5115 18.6564L31.2801 21.4905Z" fill="#B8CE2C"/>
<path d="M20.3679 21.6558L25.0365 16.9686L23.2993 15.2245L22.865 14.7885C22.6479 14.5705 22.2679 14.5705 22.0507 14.7885L15.2107 21.6558C14.9936 21.8738 14.9936 22.2009 15.2107 22.4189L21.8879 29.1226C22.105 29.3406 22.4307 29.3406 22.6479 29.1226L23.1365 28.6321L24.8193 26.9425L20.3679 22.4733C20.0964 22.3098 19.9879 22.0373 20.205 21.7648C20.2593 21.6558 20.3136 21.6558 20.3679 21.6558Z" fill="#87EFEF"/>
<path d="M25.5808 21.654L27.6436 19.5829L25.9065 17.8933L25.0379 16.9668L20.4236 21.5995C20.2065 21.8175 20.2065 22.1445 20.4236 22.3625L24.875 26.8317L25.7436 25.9597L27.4265 24.2701L25.5808 22.417C25.3636 22.2535 25.3636 21.872 25.5808 21.654Z" fill="#8CBF44"/>
<path d="M25.5808 22.4189L27.4808 24.3265L29.5437 22.2554C29.7608 22.0374 29.7608 21.6559 29.5437 21.4379L27.6437 19.5303L25.5808 21.6559C25.3637 21.8739 25.3637 22.2009 25.5808 22.4189Z" fill="#B8CE2C"/>
<path d="M28.512 15.2778L28.0234 14.7873C27.8062 14.5693 27.4805 14.5693 27.2634 14.7328C27.2634 14.7328 27.2634 14.7328 27.2091 14.7873L25.9062 16.0953L26.7748 16.9674L28.4577 18.6569L30.1406 16.9674L28.512 15.2778Z" fill="#41E3E2"/>
<path d="M28.3493 25.1973L26.6664 26.8868L25.7979 27.7589L27.1007 29.0669C27.3179 29.2849 27.6436 29.2849 27.8607 29.0669L28.3493 28.5764L30.0322 26.8868L28.3493 25.1973Z" fill="#41E3E2"/>
<path d="M31.2801 21.4905C31.4972 21.7085 31.4972 22.09 31.2801 22.308L28.3486 25.1966L30.0315 26.8862L34.6458 22.2535C34.863 22.0355 34.863 21.654 34.6458 21.436L30.1944 16.9668L28.5115 18.6564L31.2801 21.4905Z" fill="#4FBCC1"/>
<path d="M20.3679 21.6558L25.0365 16.9686L23.2993 15.2245L22.865 14.7885C22.6479 14.5705 22.2679 14.5705 22.0507 14.7885L15.2107 21.6558C14.9936 21.8738 14.9936 22.2009 15.2107 22.4189L21.8879 29.1226C22.105 29.3406 22.4307 29.3406 22.6479 29.1226L23.1365 28.6321L24.8193 26.9425L20.3679 22.4733C20.0964 22.3098 19.9879 22.0373 20.205 21.7648C20.2593 21.6558 20.3136 21.6558 20.3679 21.6558Z" fill="#87EFEF"/>
<path d="M25.5808 21.654L27.6436 19.5829L25.9065 17.8933L25.0379 16.9668L20.4236 21.5995C20.2065 21.8175 20.2065 22.1445 20.4236 22.3625L24.875 26.8317L25.7436 25.9597L27.4265 24.2701L25.5808 22.417C25.3636 22.2535 25.3636 21.872 25.5808 21.654Z" fill="#41E3E2"/>
<path d="M25.5808 22.4189L27.4808 24.3265L29.5437 22.2554C29.7608 22.0374 29.7608 21.6559 29.5437 21.4379L27.6437 19.5303L25.5808 21.6559C25.3637 21.8739 25.3637 22.2009 25.5808 22.4189Z" fill="#4FBCC1"/>
</svg>
