<svg width="125" height="43" viewBox="0 0 125 43" fill="none" xmlns="http://www.w3.org/2000/svg">
<path d="M10.7559 18.7714L20.1505 18.7732L25.8631 18.7741V13.186L10.7559 18.7714Z" fill="#FF9D28"/>
<path d="M25.8633 13.1875V32.9165L32.9982 10.5488L25.8633 13.1875Z" fill="#68C5ED"/>
<path d="M25.863 18.7749L20.1504 18.7739L25.863 32.9157V18.7749Z" fill="#044D80"/>
<path d="M10.7559 18.772L21.6155 22.4024L20.1505 18.7738L10.7559 18.772Z" fill="#E54747"/>
<path d="M45.3636 27.7217C45.2809 27.8035 45.1427 27.9055 44.9495 28.0281C44.7563 28.1508 44.5048 28.2733 44.1946 28.396C43.8839 28.5184 43.5046 28.6239 43.0561 28.7127C42.6077 28.801 42.0939 28.8454 41.5148 28.8454C40.3972 28.8454 39.4315 28.6682 38.6177 28.3143C37.8035 27.9603 37.1311 27.4662 36.6001 26.8329C36.0689 26.1995 35.6794 25.4505 35.431 24.5854C35.1827 23.7204 35.0586 22.7704 35.0586 21.735C35.0586 20.7001 35.1931 19.743 35.4621 18.8644C35.7311 17.9858 36.1346 17.2267 36.6725 16.5862C37.2106 15.9461 37.8831 15.4455 38.6901 15.0844C39.4972 14.7237 40.4454 14.543 41.5355 14.543C42.0732 14.543 42.5597 14.5908 42.9941 14.686C43.4289 14.7814 43.8082 14.8938 44.1325 15.0231C44.4564 15.1527 44.7253 15.2887 44.9396 15.4318C45.153 15.5748 45.3152 15.6942 45.4257 15.7893C45.5498 15.8985 45.6565 16.0278 45.7467 16.1775C45.836 16.3275 45.8811 16.491 45.8811 16.6679C45.8811 16.9405 45.7773 17.2128 45.5704 17.4852C45.3636 17.7578 45.1361 18.0098 44.8875 18.2412C44.722 18.0777 44.5358 17.9111 44.329 17.7407C44.1222 17.5704 43.8909 17.4208 43.6357 17.2911C43.3805 17.1619 43.0905 17.0529 42.7666 16.9642C42.4422 16.8757 42.0803 16.8313 41.6803 16.8313C40.9768 16.8313 40.3871 16.9712 39.9111 17.2502C39.4352 17.5296 39.0523 17.8938 38.7627 18.3434C38.473 18.7929 38.266 19.3072 38.1418 19.886C38.0177 20.4651 37.9556 21.0541 37.9556 21.6534C37.9556 22.2938 38.0177 22.9067 38.1418 23.4922C38.266 24.078 38.4797 24.5957 38.7833 25.045C39.0866 25.4945 39.4833 25.8556 39.9732 26.1279C40.4626 26.4006 41.0731 26.5366 41.8044 26.5366C42.1903 26.5366 42.5457 26.489 42.87 26.3937C43.1939 26.2984 43.4806 26.1825 43.7288 26.0461C43.977 25.9102 44.1946 25.7673 44.3807 25.6173C44.5669 25.4674 44.722 25.3382 44.8461 25.2289C44.9292 25.3245 45.0252 25.4404 45.1361 25.5763C45.2469 25.7138 45.3508 25.8571 45.4463 26.0055C45.5427 26.1555 45.6255 26.3052 45.6945 26.4548C45.7636 26.6049 45.798 26.7409 45.798 26.8633C45.798 27.0407 45.7636 27.1904 45.6945 27.313C45.6255 27.4356 45.515 27.572 45.3636 27.7217ZM56.0273 26.1546C56.0273 27.2373 56.1869 28.0252 56.5063 28.5186C56.2564 28.6143 56.024 28.683 55.8088 28.724C55.5933 28.7652 55.3679 28.7857 55.1321 28.7857C54.6328 28.7857 54.2543 28.6897 53.9978 28.4979C53.7409 28.3063 53.5779 28.0322 53.5084 27.6757C53.2031 27.9912 52.8006 28.2583 52.3009 28.4776C51.8016 28.6964 51.1906 28.8064 50.4692 28.8064C50.0944 28.8064 49.7196 28.755 49.3452 28.653C48.9704 28.55 48.63 28.383 48.3251 28.151C48.0194 27.9186 47.7699 27.6079 47.5755 27.2185C47.3811 26.8291 47.2839 26.3545 47.2839 25.7946C47.2839 25.0979 47.4539 24.5309 47.7939 24.0939C48.134 23.6566 48.5609 23.3118 49.0742 23.059C49.5876 22.8064 50.1428 22.6326 50.7397 22.5368C51.3362 22.441 51.8847 22.3797 52.3845 22.3521C52.5512 22.3386 52.7137 22.3315 52.8734 22.3315H53.321V21.9574C53.321 21.4307 53.1787 21.0565 52.8945 20.8349C52.6099 20.6132 52.1483 20.5021 51.51 20.5021C50.913 20.5021 50.3823 20.5981 49.9173 20.7899C49.4523 20.9819 48.9977 21.201 48.5539 21.4477C48.3594 21.2148 48.2031 20.9579 48.0856 20.6768C47.9677 20.3962 47.9085 20.1871 47.9085 20.0499C47.9085 19.8582 48.0161 19.6732 48.2312 19.4949C48.4463 19.317 48.7412 19.1558 49.116 19.0119C49.4908 18.868 49.9206 18.7517 50.4067 18.6625C50.8923 18.5735 51.4061 18.5288 51.9472 18.5288C52.6968 18.5288 53.3318 18.6044 53.8522 18.7549C54.3726 18.9059 54.7958 19.1387 55.1217 19.4538C55.4477 19.7692 55.6802 20.163 55.8192 20.6357C55.9578 21.1085 56.0273 21.6603 56.0273 22.2904V26.1546ZM53.3628 23.7703H53.0712C52.9739 23.7703 52.8767 23.7775 52.7799 23.791C52.4329 23.8185 52.0891 23.8596 51.7495 23.9142C51.409 23.9691 51.1075 24.065 50.8439 24.202C50.58 24.3391 50.3649 24.5174 50.1986 24.7364C50.0319 24.9557 49.9488 25.2368 49.9488 25.5793C49.9488 25.963 50.0596 26.2882 50.2818 26.5555C50.5035 26.8228 50.8783 26.9564 51.4057 26.9564C51.6692 26.9564 51.9191 26.9224 52.1553 26.8535C52.3911 26.7853 52.5992 26.6961 52.7799 26.5865C52.9599 26.4768 53.1026 26.357 53.2068 26.2266C53.3107 26.0966 53.3628 25.9768 53.3628 25.867V23.7703ZM61.2106 19.7209C61.4319 19.4608 61.7777 19.1968 62.2481 18.9295C62.7184 18.6623 63.3133 18.5287 64.0331 18.5287C64.5452 18.5287 65.0325 18.6144 65.4962 18.7856C65.9596 18.9571 66.3712 19.2347 66.7306 19.6182C67.0905 20.002 67.3776 20.5091 67.5923 21.1392C67.8066 21.7697 67.9142 22.5441 67.9142 23.4619C67.9142 24.5308 67.7892 25.4115 67.5402 26.1033C67.2912 26.7956 66.9697 27.3437 66.5755 27.7478C66.1813 28.1521 65.742 28.4365 65.258 28.6008C64.7736 28.7652 64.2891 28.8475 63.8051 28.8475C63.4039 28.8475 63.0543 28.8029 62.7573 28.7139C62.4595 28.6247 62.2071 28.5257 61.9995 28.4159C61.7922 28.3063 61.633 28.1969 61.5225 28.087C61.4116 27.9774 61.3425 27.9019 61.3148 27.8607V32.9137H58.4837V18.8165C58.5532 18.803 58.6371 18.7892 58.7356 18.7754C58.8196 18.762 58.9172 18.7516 59.0293 18.7445C59.141 18.7378 59.2738 18.7343 59.4277 18.7343C59.8889 18.7343 60.2807 18.8098 60.6021 18.9604C60.9235 19.1114 61.1266 19.3647 61.2106 19.7209ZM64.9576 23.5235C64.9576 23.1125 64.9233 22.729 64.8542 22.3726C64.7855 22.0164 64.6714 21.708 64.5129 21.4476C64.3541 21.1874 64.1398 20.9851 63.8709 20.8411C63.6016 20.6973 63.274 20.6254 62.888 20.6254C62.3085 20.6254 61.9047 20.7352 61.6772 20.9542C61.4493 21.1736 61.3355 21.4136 61.3355 21.6737V26.0315C61.446 26.1413 61.642 26.2712 61.925 26.422C62.2084 26.5729 62.5356 26.648 62.9083 26.648C63.6124 26.648 64.1299 26.3742 64.4612 25.8259C64.7922 25.2779 64.9576 24.5103 64.9576 23.5235ZM70.0992 27.0592C70.002 26.7853 69.9395 26.4973 69.9118 26.1958C69.8837 25.8945 69.87 25.5931 69.87 25.2912V15.7537C69.9672 15.7403 70.0711 15.7265 70.1823 15.7126C70.2791 15.6992 70.3834 15.689 70.4947 15.6818C70.6055 15.6751 70.7164 15.6716 70.8277 15.6716C71.0494 15.6716 71.2715 15.6922 71.4937 15.7332C71.7154 15.7744 71.9169 15.8566 72.0976 15.9798C72.278 16.1032 72.4236 16.2712 72.5345 16.4834C72.6458 16.696 72.7012 16.9736 72.7012 17.3159V18.7753H75.6159V20.8515H72.7012V25.2348C72.7012 26.1907 73.0967 26.6686 73.888 26.6686C74.082 26.6686 74.2657 26.6379 74.4394 26.576C74.6128 26.5144 74.7691 26.446 74.9081 26.3706C75.0467 26.2952 75.1683 26.2165 75.2722 26.1342C75.3764 26.0519 75.4492 25.9903 75.4906 25.9493C75.6991 26.2509 75.8583 26.512 75.9696 26.7324C76.0805 26.953 76.1359 27.16 76.1359 27.3535C76.1359 27.5335 76.0635 27.7099 75.9175 27.8827C75.7715 28.0555 75.5667 28.2149 75.3032 28.36C75.0397 28.5052 74.7207 28.6227 74.346 28.7126C73.9712 28.8026 73.5616 28.8476 73.1178 28.8476C72.2569 28.8476 71.5872 28.6831 71.1085 28.3543C70.6299 28.0252 70.2932 27.5936 70.0992 27.0592ZM82.7861 26.7919C83.1344 26.7919 83.4406 26.7544 83.7053 26.6789C83.9701 26.6038 84.2067 26.5112 84.4156 26.4015C84.6245 26.292 84.8057 26.1721 84.9587 26.0418C85.1118 25.9117 85.2512 25.7919 85.377 25.682C85.5437 25.8874 85.7178 26.1515 85.899 26.4732C86.0798 26.7956 86.1704 27.0592 86.1704 27.2647C86.1704 27.5663 85.9966 27.8403 85.65 28.087C85.3588 28.3063 84.9455 28.4948 84.4114 28.6521C83.877 28.8096 83.249 28.8885 82.5276 28.8885C81.8748 28.8885 81.2332 28.8064 80.6019 28.6419C79.9702 28.4775 79.4081 28.1897 78.9158 27.7785C78.4227 27.3676 78.0239 26.8161 77.7186 26.1239C77.4133 25.432 77.2607 24.5586 77.2607 23.5031C77.2607 22.6397 77.396 21.8966 77.6665 21.2729C77.937 20.6495 78.2978 20.1321 78.7491 19.721C79.2 19.3099 79.71 19.0087 80.2793 18.8165C80.8481 18.6249 81.4309 18.5288 82.0279 18.5288C82.8052 18.5288 83.4641 18.649 84.0056 18.8885C84.5467 19.1284 84.9873 19.4505 85.3273 19.8546C85.6674 20.2589 85.9135 20.7214 86.0665 21.2421C86.2188 21.763 86.2953 22.3109 86.2953 22.8865V23.1742C86.2953 23.2841 86.292 23.4003 86.285 23.5236C86.2779 23.6471 86.2709 23.7672 86.2643 23.8833C86.2568 24 86.2465 24.0924 86.2333 24.1609H80.0919C80.1473 24.9147 80.3843 25.5415 80.8017 26.0418C81.2195 26.5421 81.881 26.7919 82.7861 26.7919ZM83.7347 22.6192C83.7347 21.9614 83.6056 21.427 83.3475 21.0159C83.0889 20.6049 82.6248 20.3992 81.9551 20.3992C81.3825 20.3992 80.9254 20.5946 80.5837 20.9851C80.2416 21.3757 80.0708 21.9204 80.0708 22.6191H83.7347V22.6192ZM91.2222 19.7729C91.3053 19.6506 91.4166 19.5147 91.5552 19.365C91.6937 19.2154 91.8642 19.0795 92.0652 18.9572C92.2663 18.8349 92.4884 18.7326 92.7317 18.6511C92.9741 18.5695 93.2343 18.5288 93.5122 18.5288C93.679 18.5288 93.8556 18.5426 94.043 18.5695C94.2304 18.5969 94.4037 18.6479 94.5634 18.7224C94.7231 18.7973 94.8513 18.8991 94.9485 19.0282C95.0457 19.1574 95.0941 19.317 95.0941 19.5071C95.0941 19.8061 95.018 20.1495 94.8654 20.5371C94.7123 20.9251 94.5601 21.2559 94.4074 21.5299C94.1712 21.3381 93.9354 21.1908 93.6996 21.088C93.4634 20.9852 93.1859 20.9338 92.8669 20.9338C92.4367 20.9338 92.076 21.0575 91.7843 21.3047C91.4927 21.5521 91.3471 21.8476 91.3471 22.1911V28.8453H88.5159V18.8165C88.5854 18.803 88.6686 18.7892 88.7658 18.7754C88.8489 18.762 88.9461 18.7516 89.0574 18.7445C89.1683 18.7378 89.2998 18.7343 89.4529 18.7343C89.8967 18.7343 90.2819 18.8193 90.6083 18.989C90.9342 19.1585 91.139 19.42 91.2222 19.7729ZM99.2718 19.7729C99.355 19.6506 99.4658 19.5147 99.6048 19.365C99.7434 19.2154 99.9134 19.0795 100.115 18.9572C100.316 18.8349 100.538 18.7326 100.781 18.6511C101.024 18.5695 101.284 18.5288 101.562 18.5288C101.728 18.5288 101.905 18.5426 102.092 18.5695C102.28 18.5969 102.453 18.6479 102.613 18.7224C102.772 18.7973 102.901 18.8991 102.998 19.0282C103.095 19.1574 103.144 19.317 103.144 19.5071C103.144 19.8061 103.067 20.1495 102.915 20.5371C102.762 20.9251 102.609 21.2559 102.457 21.5299C102.221 21.3381 101.985 21.1908 101.749 21.088C101.513 20.9852 101.235 20.9338 100.916 20.9338C100.486 20.9338 100.125 21.0575 99.8336 21.3047C99.5424 21.5521 99.3968 21.8476 99.3968 22.1911V28.8453H96.5656V18.8165C96.6347 18.803 96.7178 18.7892 96.8154 18.7754C96.8986 18.762 96.9958 18.7516 97.1067 18.7445C97.2175 18.7378 97.3495 18.7343 97.5021 18.7343C97.9464 18.7343 98.3315 18.8193 98.6575 18.989C98.9835 19.1585 99.1883 19.42 99.2718 19.7729ZM112.782 26.1546C112.782 27.2373 112.942 28.0252 113.261 28.5186C113.011 28.6143 112.779 28.683 112.564 28.724C112.348 28.7652 112.123 28.7857 111.887 28.7857C111.387 28.7857 111.009 28.6897 110.753 28.4979C110.496 28.3063 110.333 28.0322 110.264 27.6757C109.958 27.9912 109.556 28.2583 109.056 28.4776C108.556 28.6964 107.946 28.8064 107.224 28.8064C106.849 28.8064 106.475 28.755 106.1 28.653C105.725 28.55 105.385 28.383 105.08 28.151C104.774 27.9186 104.525 27.6079 104.331 27.2185C104.136 26.8291 104.039 26.3545 104.039 25.7946C104.039 25.0979 104.209 24.5309 104.549 24.0939C104.889 23.6566 105.316 23.3118 105.829 23.059C106.343 22.8064 106.898 22.6326 107.495 22.5368C108.091 22.441 108.64 22.3797 109.139 22.3521C109.306 22.3386 109.469 22.3315 109.629 22.3315H110.076V21.9574C110.076 21.4307 109.934 21.0565 109.649 20.8349C109.365 20.6132 108.903 20.5021 108.265 20.5021C107.668 20.5021 107.137 20.5981 106.672 20.7899C106.207 20.9819 105.753 21.201 105.309 21.4477C105.115 21.2148 104.958 20.9579 104.84 20.6768C104.722 20.3962 104.664 20.1871 104.664 20.0499C104.664 19.8582 104.771 19.6732 104.986 19.4949C105.201 19.317 105.496 19.1558 105.871 19.0119C106.246 18.868 106.676 18.7517 107.162 18.6625C107.647 18.5735 108.161 18.5288 108.702 18.5288C109.451 18.5288 110.086 18.6044 110.607 18.7549C111.127 18.9059 111.55 19.1387 111.877 19.4538C112.203 19.7692 112.435 20.163 112.574 20.6357C112.713 21.1085 112.782 21.6603 112.782 22.2904V26.1546ZM110.118 23.7703H109.826C109.729 23.7703 109.632 23.7775 109.535 23.791C109.188 23.8185 108.844 23.8596 108.504 23.9142C108.164 23.9691 107.862 24.065 107.599 24.202C107.335 24.3391 107.12 24.5174 106.953 24.7364C106.787 24.9557 106.703 25.2368 106.703 25.5793C106.703 25.963 106.815 26.2882 107.037 26.5555C107.259 26.8228 107.633 26.9564 108.161 26.9564C108.424 26.9564 108.674 26.9224 108.91 26.8535C109.146 26.7853 109.354 26.6961 109.535 26.5865C109.715 26.4768 109.858 26.357 109.962 26.2266C110.066 26.0966 110.118 25.9768 110.118 25.867V23.7703H110.118Z" fill="#0F9CFF"/>
</svg>
