<svg width="92" height="24" viewBox="0 0 92 24" fill="none" xmlns="http://www.w3.org/2000/svg">
<g clip-path="url(#clip0_4825_11381)">
<path d="M24.4416 8.45166H33.6031V10.2012H30.0008V20.0361H28.0199V10.2012H24.4336V8.45166H24.4416ZM33.2117 11.6482H34.905V13.2669H34.937C34.9929 13.038 35.0967 12.8173 35.2485 12.6047C35.4002 12.3922 35.5839 12.1878 35.7996 12.0161C36.0152 11.8362 36.2549 11.6973 36.5184 11.5828C36.782 11.4765 37.0536 11.4193 37.3252 11.4193C37.5328 11.4193 37.6846 11.4275 37.7645 11.4357C37.8443 11.4438 37.9242 11.4602 38.0121 11.4684V13.2506C37.8843 13.2261 37.7565 13.2097 37.6207 13.1934C37.4849 13.177 37.3571 13.1688 37.2293 13.1688C36.9258 13.1688 36.6383 13.2342 36.3667 13.3569C36.0951 13.4795 35.8635 13.6675 35.6638 13.9046C35.4641 14.1499 35.3044 14.4442 35.1846 14.8039C35.0648 15.1636 35.0088 15.5724 35.0088 16.0384V20.0279H33.2037V11.6482H33.2117ZM46.3109 20.0361H44.5377V18.867H44.5058C44.2822 19.2922 43.9547 19.6273 43.5154 19.8808C43.0761 20.1342 42.6288 20.265 42.1735 20.265C41.0952 20.265 40.3124 19.9952 39.8332 19.4475C39.354 18.8997 39.1143 18.074 39.1143 16.9704V11.6482H40.9195V16.7905C40.9195 17.5263 41.0553 18.0495 41.3348 18.352C41.6064 18.6545 41.9978 18.8098 42.493 18.8098C42.8764 18.8098 43.1879 18.7526 43.4435 18.63C43.6991 18.5073 43.9067 18.352 44.0585 18.1476C44.2183 17.9514 44.3301 17.7061 44.402 17.4282C44.4738 17.1502 44.5058 16.8477 44.5058 16.5207V11.6564H46.3109V20.0361ZM49.3861 17.3464C49.442 17.886 49.6417 18.2621 49.9851 18.4828C50.3366 18.6954 50.7519 18.8098 51.2391 18.8098C51.4069 18.8098 51.5986 18.7935 51.8142 18.7689C52.0299 18.7444 52.2375 18.6872 52.4213 18.6136C52.613 18.54 52.7647 18.4256 52.8925 18.2784C53.0123 18.1313 53.0682 17.9432 53.0602 17.7061C53.0523 17.4691 52.9644 17.2728 52.8046 17.1257C52.6449 16.9704 52.4452 16.8559 52.1976 16.7578C51.95 16.6679 51.6704 16.5861 51.351 16.5207C51.0315 16.4553 50.712 16.3817 50.3845 16.3082C50.049 16.2346 49.7215 16.1365 49.41 16.0302C49.0985 15.9239 48.819 15.7768 48.5714 15.5887C48.3237 15.4089 48.1241 15.1718 47.9803 14.8856C47.8285 14.5995 47.7566 14.248 47.7566 13.8229C47.7566 13.365 47.8685 12.989 48.0841 12.6783C48.2998 12.3676 48.5793 12.1224 48.9068 11.9344C49.2423 11.7463 49.6097 11.6155 50.0171 11.5338C50.4244 11.4602 50.8158 11.4193 51.1832 11.4193C51.6065 11.4193 52.0139 11.4684 52.3973 11.5583C52.7807 11.6482 53.1321 11.7954 53.4436 12.0079C53.7551 12.2123 54.0107 12.4821 54.2184 12.8091C54.4261 13.1361 54.5539 13.5367 54.6098 14.0027H52.7248C52.6369 13.5612 52.4452 13.2588 52.1337 13.1116C51.8222 12.9563 51.4628 12.8827 51.0634 12.8827C50.9356 12.8827 50.7839 12.8909 50.6081 12.9154C50.4324 12.9399 50.2727 12.9808 50.1129 13.038C49.9612 13.0952 49.8334 13.1852 49.7215 13.2996C49.6177 13.4141 49.5618 13.5612 49.5618 13.7493C49.5618 13.9782 49.6417 14.158 49.7934 14.297C49.9452 14.436 50.1449 14.5505 50.3925 14.6486C50.6401 14.7385 50.9196 14.8202 51.2391 14.8856C51.5586 14.9511 51.8861 15.0246 52.2216 15.0982C52.5491 15.1718 52.8685 15.2699 53.188 15.3762C53.5075 15.4824 53.7871 15.6296 54.0347 15.8176C54.2823 16.0057 54.482 16.2346 54.6338 16.5125C54.7855 16.7905 54.8654 17.142 54.8654 17.5508C54.8654 18.0495 54.7536 18.4664 54.5299 18.818C54.3063 19.1613 54.0187 19.4475 53.6673 19.66C53.3158 19.8726 52.9165 20.0361 52.4852 20.1342C52.0538 20.2323 51.6225 20.2814 51.1992 20.2814C50.68 20.2814 50.2008 20.2241 49.7615 20.1015C49.3222 19.9789 48.9388 19.799 48.6193 19.5619C48.2998 19.3167 48.0442 19.0142 47.8605 18.6545C47.6768 18.2948 47.5809 17.8615 47.565 17.3628H49.3861V17.3464ZM55.3446 11.6482H56.7105V9.13021H58.5156V11.6482H60.145V13.0298H58.5156V17.5099C58.5156 17.7061 58.5236 17.8696 58.5396 18.0168C58.5555 18.1558 58.5955 18.2784 58.6514 18.3765C58.7073 18.4746 58.7952 18.5482 58.915 18.5972C59.0348 18.6463 59.1865 18.6708 59.3942 18.6708C59.522 18.6708 59.6498 18.6708 59.7776 18.6627C59.9054 18.6545 60.0332 18.6381 60.161 18.6054V20.0361C59.9613 20.0606 59.7616 20.077 59.5779 20.1015C59.3862 20.126 59.1945 20.1342 58.9948 20.1342C58.5156 20.1342 58.1322 20.0852 57.8447 19.9952C57.5571 19.9053 57.3255 19.7663 57.1657 19.5865C56.998 19.4066 56.8942 19.1859 56.8303 18.9161C56.7744 18.6463 56.7344 18.3356 56.7264 17.9923V13.0462H55.3606V11.6482H55.3446ZM61.423 11.6482H63.1323V12.7846H63.1642C63.4198 12.2941 63.7713 11.9507 64.2266 11.7381C64.6818 11.5256 65.1691 11.4193 65.7042 11.4193C66.3512 11.4193 66.9103 11.5338 67.3895 11.7708C67.8688 11.9998 68.2682 12.3186 68.5877 12.7274C68.9071 13.1361 69.1388 13.6103 69.2985 14.1499C69.4583 14.6894 69.5381 15.2699 69.5381 15.883C69.5381 16.4471 69.4663 16.9949 69.3225 17.5181C69.1787 18.0495 68.9631 18.5155 68.6755 18.9243C68.388 19.333 68.0205 19.6519 67.5733 19.8971C67.126 20.1424 66.6068 20.265 65.9998 20.265C65.7362 20.265 65.4726 20.2405 65.209 20.1914C64.9454 20.1424 64.6898 20.0606 64.4502 19.9544C64.2106 19.8481 63.979 19.7091 63.7793 19.5374C63.5716 19.3657 63.4039 19.1695 63.2601 18.9488H63.2281V23.1346H61.423V11.6482ZM67.733 15.8503C67.733 15.4743 67.6851 15.1064 67.5892 14.7467C67.4934 14.387 67.3496 14.0763 67.1579 13.7983C66.9662 13.5204 66.7266 13.2996 66.447 13.1361C66.1595 12.9726 65.832 12.8827 65.4646 12.8827C64.7058 12.8827 64.1307 13.1525 63.7473 13.692C63.3639 14.2316 63.1722 14.9511 63.1722 15.8503C63.1722 16.2755 63.2201 16.6679 63.324 17.0276C63.4278 17.3873 63.5716 17.698 63.7793 17.9596C63.979 18.2212 64.2186 18.4256 64.4981 18.5727C64.7777 18.7281 65.1052 18.8016 65.4726 18.8016C65.8879 18.8016 66.2314 18.7117 66.5189 18.54C66.8065 18.3683 67.0381 18.1394 67.2218 17.8696C67.4055 17.5917 67.5413 17.281 67.6212 16.9295C67.6931 16.5779 67.733 16.2182 67.733 15.8503ZM70.92 8.45166H72.7251V10.2012H70.92V8.45166ZM70.92 11.6482H72.7251V20.0361H70.92V11.6482ZM74.3385 8.45166H76.1437V20.0361H74.3385V8.45166ZM81.6789 20.265C81.0239 20.265 80.4409 20.1506 79.9297 19.9298C79.4185 19.7091 78.9872 19.3984 78.6277 19.0142C78.2763 18.6218 78.0047 18.1558 77.821 17.6162C77.6373 17.0766 77.5415 16.4798 77.5415 15.834C77.5415 15.1963 77.6373 14.6077 77.821 14.0681C78.0047 13.5285 78.2763 13.0625 78.6277 12.6701C78.9792 12.2777 79.4185 11.9752 79.9297 11.7545C80.4409 11.5338 81.0239 11.4193 81.6789 11.4193C82.3339 11.4193 82.917 11.5338 83.4281 11.7545C83.9393 11.9752 84.3707 12.2859 84.7301 12.6701C85.0815 13.0625 85.3531 13.5285 85.5368 14.0681C85.7205 14.6077 85.8164 15.1963 85.8164 15.834C85.8164 16.4798 85.7205 17.0766 85.5368 17.6162C85.3531 18.1558 85.0815 18.6218 84.7301 19.0142C84.3786 19.4066 83.9393 19.7091 83.4281 19.9298C82.917 20.1506 82.3339 20.265 81.6789 20.265ZM81.6789 18.8016C82.0783 18.8016 82.4297 18.7117 82.7253 18.54C83.0208 18.3683 83.2604 18.1394 83.4521 17.8615C83.6438 17.5835 83.7796 17.2647 83.8754 16.9131C83.9633 16.5616 84.0112 16.2019 84.0112 15.834C84.0112 15.4743 83.9633 15.1227 83.8754 14.763C83.7876 14.4033 83.6438 14.0926 83.4521 13.8147C83.2604 13.5367 83.0208 13.316 82.7253 13.1443C82.4297 12.9726 82.0783 12.8827 81.6789 12.8827C81.2795 12.8827 80.9281 12.9726 80.6326 13.1443C80.337 13.316 80.0974 13.5449 79.9057 13.8147C79.714 14.0926 79.5782 14.4033 79.4824 14.763C79.3945 15.1227 79.3466 15.4743 79.3466 15.834C79.3466 16.2019 79.3945 16.5616 79.4824 16.9131C79.5702 17.2647 79.714 17.5835 79.9057 17.8615C80.0974 18.1394 80.337 18.3683 80.6326 18.54C80.9281 18.7199 81.2795 18.8016 81.6789 18.8016ZM86.3435 11.6482H87.7094V9.13021H89.5145V11.6482H91.1439V13.0298H89.5145V17.5099C89.5145 17.7061 89.5225 17.8696 89.5385 18.0168C89.5544 18.1558 89.5944 18.2784 89.6503 18.3765C89.7062 18.4746 89.7941 18.5482 89.9139 18.5972C90.0337 18.6463 90.1854 18.6708 90.3931 18.6708C90.5209 18.6708 90.6487 18.6708 90.7765 18.6627C90.9043 18.6545 91.0321 18.6381 91.1599 18.6054V20.0361C90.9602 20.0606 90.7605 20.077 90.5768 20.1015C90.3851 20.126 90.1934 20.1342 89.9937 20.1342C89.5145 20.1342 89.1311 20.0852 88.8436 19.9952C88.556 19.9053 88.3244 19.7663 88.1646 19.5865C87.9969 19.4066 87.8931 19.1859 87.8292 18.9161C87.7733 18.6463 87.7333 18.3356 87.7253 17.9923V13.0462H86.3595V11.6482H86.3435Z" fill="white"/>
<path d="M22.3337 8.4515H14.0588L11.5029 0.390625L8.93895 8.4515L0.664062 8.44333L7.36545 13.4303L4.80151 21.483L11.5029 16.5042L18.1963 21.483L15.6403 13.4303L22.3337 8.4515Z" fill="#00B67A"/>
<path d="M16.2164 15.2533L15.6414 13.4302L11.5039 16.5041L16.2164 15.2533Z" fill="#005128"/>
</g>
<defs>
<clipPath id="clip0_4825_11381">
<rect width="90.4807" height="22.7438" fill="white" transform="translate(0.664062 0.390625)"/>
</clipPath>
</defs>
</svg>
