<svg width="16" height="16" viewBox="0 0 16 16" fill="none" xmlns="http://www.w3.org/2000/svg">
<path d="M16 8C16 3.58172 12.4183 0 8 0C3.58172 0 0 3.58172 0 8C0 12.4183 3.58172 16 8 16C12.4183 16 16 12.4183 16 8Z" fill="white"/>
<path d="M4.89821 8.01418C4.63829 7.77871 4.23038 7.79154 3.9869 8.04266C3.74338 8.29378 3.75643 8.68842 4.01635 8.92385L6.59494 11.2615C6.87195 11.5124 7.31198 11.4789 7.54493 11.1893L12.0576 5.57892C12.2762 5.30737 12.2256 4.91558 11.9445 4.70424C11.6635 4.49291 11.2585 4.54183 11.04 4.8136L6.96121 9.88441L4.89821 8.01418Z" fill="#6754E2" stroke="#6754E2" stroke-width="0.5"/>
</svg>
