<svg width="16" height="16" viewBox="0 0 16 16" fill="none" xmlns="http://www.w3.org/2000/svg">
<path d="M16 8C16 3.58172 12.4183 0 8 0C3.58172 0 0 3.58172 0 8C0 12.4183 3.58172 16 8 16C12.4183 16 16 12.4183 16 8Z" fill="white"/>
<path fill-rule="evenodd" clip-rule="evenodd" d="M4.25251 10.5426L6.80398 8.00885L4.25251 5.45738C3.91583 5.1207 3.91583 4.58914 4.25251 4.25251C4.5892 3.91583 5.12075 3.91583 5.45738 4.25251L8.00885 6.80398L10.5426 4.25251C10.8793 3.91583 11.4109 3.91583 11.7475 4.25251C12.0842 4.5892 12.0842 5.12075 11.7475 5.45738L9.19602 8.00885L11.7475 10.5426C12.0842 10.8793 12.0842 11.4109 11.7475 11.7475C11.4285 12.0842 10.8792 12.0842 10.5426 11.7475L8.00885 9.19602L5.45738 11.7475C5.1207 12.0842 4.58914 12.0842 4.25251 11.7475C3.91583 11.4285 3.91583 10.8792 4.25251 10.5426Z" fill="#F03737"/>
</svg>
