<svg width="19" height="19" viewBox="0 0 19 19" fill="none" xmlns="http://www.w3.org/2000/svg">
<path d="M18.7832 9.5C18.7832 4.52944 14.7538 0.5 9.7832 0.5C4.81264 0.5 0.783203 4.52944 0.783203 9.5C0.783203 14.4706 4.81264 18.5 9.7832 18.5C14.7538 18.5 18.7832 14.4706 18.7832 9.5Z" fill="#239721"/>
<path d="M6.29381 9.51449C6.0014 9.24959 5.54251 9.26402 5.26859 9.54653C4.99463 9.82903 5.00931 10.273 5.30172 10.5379L8.20263 13.1678C8.51427 13.45 9.0093 13.4124 9.27137 13.0866L14.3482 6.77482C14.594 6.46932 14.5371 6.02856 14.2209 5.79081C13.9047 5.55306 13.4492 5.60809 13.2033 5.91384L8.61469 11.6185L6.29381 9.51449Z" fill="white" stroke="white" stroke-width="0.5"/>
</svg>
