<svg width="112" height="17" viewBox="0 0 112 17" fill="none" xmlns="http://www.w3.org/2000/svg">
<path d="M9.3997 0.982472L11.339 5.00058C11.4809 5.2935 11.7552 5.49366 12.0702 5.5345L15.9394 6.02418H15.9392C16.1828 6.05748 16.4043 6.18695 16.5573 6.38525C16.7103 6.58355 16.7828 6.83531 16.7597 7.08756C16.7365 7.33983 16.6194 7.57299 16.433 7.73814L13.4137 10.39C13.2827 10.5037 13.1842 10.6518 13.128 10.8187C13.0721 10.9854 13.0608 11.1647 13.0956 11.3376L13.9952 15.8036C14.0455 16.0528 13.9998 16.3123 13.8679 16.5273C13.7359 16.7424 13.5279 16.8959 13.288 16.9555C13.0482 17.0151 12.7952 16.9762 12.5828 16.8467L8.9652 14.6601C8.82082 14.5742 8.65723 14.529 8.4905 14.529C8.32377 14.529 8.16017 14.5742 8.01579 14.6601L4.40305 16.8638H4.40289C4.19045 16.9932 3.93759 17.0324 3.69768 16.9727C3.45792 16.9131 3.24997 16.7596 3.11798 16.5445C2.98584 16.3295 2.94031 16.0699 2.99048 15.8207L3.88542 11.3371C3.92019 11.1643 3.90894 10.9849 3.85297 10.8182C3.79684 10.6514 3.69832 10.5033 3.56735 10.3895L0.552659 7.76944C0.366054 7.60377 0.249152 7.36977 0.226635 7.11681C0.204116 6.86385 0.277798 6.61174 0.43212 6.41362C0.586438 6.21567 0.809307 6.08722 1.05353 6.05545L5.26933 5.54374C5.60512 5.50275 5.89438 5.28088 6.02901 4.96097L7.69058 1.04313V1.0433C7.78711 0.817332 7.96263 0.637308 8.18237 0.539285C8.40192 0.441245 8.64948 0.432365 8.87516 0.514519C9.10084 0.596503 9.28811 0.763546 9.39971 0.981982L9.3997 0.982472Z" fill="#FFAB00"/>
<path d="M33.0596 0.982472L34.9989 5.00058C35.1408 5.2935 35.4151 5.49366 35.7301 5.5345L39.5993 6.02418H39.5991C39.8427 6.05748 40.0643 6.18695 40.2172 6.38525C40.3702 6.58355 40.4427 6.83531 40.4196 7.08756C40.3964 7.33983 40.2793 7.57299 40.0929 7.73814L37.0736 10.39C36.9426 10.5037 36.8441 10.6518 36.788 10.8187C36.732 10.9854 36.7207 11.1647 36.7555 11.3376L37.6551 15.8036C37.7054 16.0528 37.6597 16.3123 37.5278 16.5273C37.3958 16.7424 37.1878 16.8959 36.9479 16.9555C36.7081 17.0151 36.4551 16.9762 36.2427 16.8467L32.6251 14.6601C32.4807 14.5742 32.3171 14.529 32.1504 14.529C31.9837 14.529 31.8201 14.5742 31.6757 14.6601L28.063 16.8638H28.0628C27.8504 16.9932 27.5975 17.0324 27.3576 16.9727C27.1178 16.9131 26.9099 16.7596 26.7779 16.5445C26.6458 16.3295 26.6002 16.0699 26.6504 15.8207L27.5453 11.3371C27.5801 11.1643 27.5688 10.9849 27.5129 10.8182C27.4568 10.6514 27.3582 10.5033 27.2273 10.3895L24.2126 7.76944C24.026 7.60377 23.9091 7.36977 23.8865 7.11681C23.864 6.86385 23.9377 6.61174 24.092 6.41362C24.2464 6.21567 24.4692 6.08722 24.7134 6.05545L28.9292 5.54374C29.265 5.50275 29.5543 5.28088 29.6889 4.96097L31.3505 1.04313V1.0433C31.447 0.817332 31.6225 0.637308 31.8423 0.539285C32.0618 0.441245 32.3094 0.432365 32.5351 0.514519C32.7608 0.596503 32.948 0.763546 33.0596 0.981982L33.0596 0.982472Z" fill="#FFAB00"/>
<path d="M56.7195 0.982472L58.6588 5.00058C58.8007 5.2935 59.075 5.49366 59.39 5.5345L63.2592 6.02418H63.259C63.5026 6.05748 63.7242 6.18695 63.8771 6.38525C64.0301 6.58355 64.1027 6.83531 64.0795 7.08756C64.0563 7.33983 63.9392 7.57299 63.7528 7.73814L60.7335 10.39C60.6025 10.5037 60.504 10.6518 60.4479 10.8187C60.3919 10.9854 60.3806 11.1647 60.4154 11.3376L61.315 15.8036C61.3653 16.0528 61.3196 16.3123 61.1877 16.5273C61.0557 16.7424 60.8478 16.8959 60.6078 16.9555C60.3681 17.0151 60.1151 16.9762 59.9026 16.8467L56.285 14.6601C56.1406 14.5742 55.9771 14.529 55.8103 14.529C55.6436 14.529 55.48 14.5742 55.3356 14.6601L51.7229 16.8638H51.7227C51.5103 16.9932 51.2574 17.0324 51.0175 16.9727C50.7777 16.9131 50.5698 16.7596 50.4378 16.5445C50.3057 16.3295 50.2601 16.0699 50.3103 15.8207L51.2052 11.3371C51.24 11.1643 51.2288 10.9849 51.1728 10.8182C51.1167 10.6514 51.0181 10.5033 50.8872 10.3895L47.8725 7.76944C47.6859 7.60377 47.569 7.36977 47.5465 7.11681C47.5239 6.86385 47.5976 6.61174 47.7519 6.41362C47.9063 6.21567 48.1291 6.08722 48.3734 6.05545L52.5892 5.54374C52.9249 5.50275 53.2142 5.28088 53.3488 4.96097L55.0104 1.04313V1.0433C55.1069 0.817332 55.2825 0.637308 55.5022 0.539285C55.7217 0.441245 55.9693 0.432365 56.195 0.514519C56.4207 0.596503 56.6079 0.763546 56.7195 0.981982L56.7195 0.982472Z" fill="#FFAB00"/>
<path d="M80.3794 0.982472L82.3187 5.00058C82.4606 5.2935 82.735 5.49366 83.0499 5.5345L86.9191 6.02418H86.919C87.1625 6.05748 87.3841 6.18695 87.5371 6.38525C87.69 6.58355 87.7626 6.83531 87.7394 7.08756C87.7162 7.33983 87.5991 7.57299 87.4127 7.73814L84.3934 10.39C84.2624 10.5037 84.1639 10.6518 84.1078 10.8187C84.0518 10.9854 84.0406 11.1647 84.0753 11.3376L84.9749 15.8036C85.0253 16.0528 84.9796 16.3123 84.8476 16.5273C84.7156 16.7424 84.5077 16.8959 84.2677 16.9555C84.028 17.0151 83.775 16.9762 83.5625 16.8467L79.9449 14.6601C79.8006 14.5742 79.637 14.529 79.4702 14.529C79.3035 14.529 79.1399 14.5742 78.9955 14.6601L75.3828 16.8638H75.3826C75.1702 16.9932 74.9173 17.0324 74.6774 16.9727C74.4377 16.9131 74.2297 16.7596 74.0977 16.5445C73.9656 16.3295 73.92 16.0699 73.9702 15.8207L74.8652 11.3371C74.8999 11.1643 74.8887 10.9849 74.8327 10.8182C74.7766 10.6514 74.6781 10.5033 74.5471 10.3895L71.5324 7.76944C71.3458 7.60377 71.2289 7.36977 71.2064 7.11681C71.1839 6.86385 71.2575 6.61174 71.4119 6.41362C71.5662 6.21567 71.789 6.08722 72.0333 6.05545L76.2491 5.54374C76.5849 5.50275 76.8741 5.28088 77.0087 4.96097L78.6703 1.04313V1.0433C78.7668 0.817332 78.9424 0.637308 79.1621 0.539285C79.3817 0.441245 79.6292 0.432365 79.8549 0.514519C80.0806 0.596503 80.2678 0.763546 80.3794 0.981982L80.3794 0.982472Z" fill="#FFAB00"/>
<path d="M104.039 0.982472L105.979 5.00058C106.121 5.2935 106.395 5.49366 106.71 5.5345L110.579 6.02418H110.579C110.822 6.05748 111.044 6.18695 111.197 6.38525C111.35 6.58355 111.422 6.83531 111.399 7.08756C111.376 7.33983 111.259 7.57299 111.073 7.73814L108.053 10.39C107.922 10.5037 107.824 10.6518 107.768 10.8187C107.712 10.9854 107.7 11.1647 107.735 11.3376L108.635 15.8036C108.685 16.0528 108.639 16.3123 108.508 16.5273C108.376 16.7424 108.168 16.8959 107.928 16.9555C107.688 17.0151 107.435 16.9762 107.222 16.8467L103.605 14.6601C103.46 14.5742 103.297 14.529 103.13 14.529C102.963 14.529 102.8 14.5742 102.655 14.6601L99.0427 16.8638H99.0425C98.8301 16.9932 98.5772 17.0324 98.3373 16.9727C98.0976 16.9131 97.8896 16.7596 97.7576 16.5445C97.6255 16.3295 97.58 16.0699 97.6301 15.8207L98.5251 11.3371C98.5598 11.1643 98.5486 10.9849 98.4926 10.8182C98.4365 10.6514 98.338 10.5033 98.207 10.3895L95.1923 7.76944C95.0057 7.60377 94.8888 7.36977 94.8663 7.11681C94.8438 6.86385 94.9174 6.61174 95.0718 6.41362C95.2261 6.21567 95.449 6.08722 95.6932 6.05545L99.909 5.54374C100.245 5.50275 100.534 5.28088 100.669 4.96097L102.33 1.04313V1.0433C102.427 0.817332 102.602 0.637308 102.822 0.539285C103.042 0.441245 103.289 0.432365 103.515 0.514519C103.74 0.596503 103.928 0.763546 104.039 0.981982L104.039 0.982472Z" fill="#FFAB00"/>
<mask id="mask0_161_4498" style="mask-type:alpha" maskUnits="userSpaceOnUse" x="94" y="0" width="18" height="17">
<path d="M104.039 0.982472L105.979 5.00058C106.121 5.2935 106.395 5.49366 106.71 5.5345L110.579 6.02418H110.579C110.822 6.05748 111.044 6.18695 111.197 6.38525C111.35 6.58355 111.422 6.83531 111.399 7.08756C111.376 7.33983 111.259 7.57299 111.073 7.73814L108.053 10.39C107.922 10.5037 107.824 10.6518 107.768 10.8187C107.712 10.9854 107.7 11.1647 107.735 11.3376L108.635 15.8036C108.685 16.0528 108.639 16.3123 108.508 16.5273C108.376 16.7424 108.168 16.8959 107.928 16.9555C107.688 17.0151 107.435 16.9762 107.222 16.8467L103.605 14.6601C103.46 14.5742 103.297 14.529 103.13 14.529C102.963 14.529 102.8 14.5742 102.655 14.6601L99.0427 16.8638H99.0425C98.8301 16.9932 98.5772 17.0324 98.3373 16.9727C98.0976 16.9131 97.8896 16.7596 97.7576 16.5445C97.6255 16.3295 97.58 16.0699 97.6301 15.8207L98.5251 11.3371C98.5598 11.1643 98.5486 10.9849 98.4926 10.8182C98.4365 10.6514 98.338 10.5033 98.207 10.3895L95.1923 7.76944C95.0057 7.60377 94.8888 7.36977 94.8663 7.11681C94.8438 6.86385 94.9174 6.61174 95.0718 6.41362C95.2261 6.21567 95.449 6.08722 95.6932 6.05545L99.909 5.54374C100.245 5.50275 100.534 5.28088 100.669 4.96097L102.33 1.04313V1.0433C102.427 0.817332 102.602 0.637308 102.822 0.539285C103.042 0.441245 103.289 0.432365 103.515 0.514519C103.74 0.596503 103.928 0.763546 104.039 0.981982L104.039 0.982472Z" fill="#FFCC00"/>
</mask>
<g mask="url(#mask0_161_4498)">
<rect x="105.98" y="-1.37915" width="14.2438" height="24.8119" fill="#E5E5E5"/>
</g>
</svg>
