<svg width="112" height="17" viewBox="0 0 112 17" fill="none" xmlns="http://www.w3.org/2000/svg">
<path d="M9.40012 0.982472L11.3394 5.00058C11.4813 5.2935 11.7556 5.49366 12.0706 5.5345L15.9398 6.02418H15.9396C16.1832 6.05748 16.4048 6.18695 16.5577 6.38525C16.7107 6.58355 16.7833 6.83531 16.7601 7.08756C16.7369 7.33983 16.6198 7.57299 16.4334 7.73814L13.4141 10.39C13.2831 10.5037 13.1846 10.6518 13.1285 10.8187C13.0725 10.9854 13.0612 11.1647 13.096 11.3376L13.9956 15.8036C14.046 16.0528 14.0003 16.3123 13.8683 16.5273C13.7363 16.7424 13.5284 16.8959 13.2884 16.9555C13.0487 17.0151 12.7957 16.9762 12.5832 16.8467L8.96563 14.6601C8.82125 14.5742 8.65766 14.529 8.49093 14.529C8.3242 14.529 8.1606 14.5742 8.01622 14.6601L4.40348 16.8638H4.40332C4.19088 16.9932 3.93802 17.0324 3.6981 16.9727C3.45835 16.9131 3.2504 16.7596 3.1184 16.5445C2.98627 16.3295 2.94074 16.0699 2.99091 15.8207L3.88585 11.3371C3.92062 11.1643 3.90936 10.9849 3.8534 10.8182C3.79727 10.6514 3.69875 10.5033 3.56777 10.3895L0.553087 7.76944C0.366481 7.60377 0.249579 7.36977 0.227062 7.11681C0.204544 6.86385 0.278225 6.61174 0.432547 6.41362C0.586865 6.21567 0.809734 6.08722 1.05396 6.05545L5.26975 5.54374C5.60555 5.50275 5.89481 5.28088 6.02943 4.96097L7.69101 1.04313V1.0433C7.78754 0.817332 7.96305 0.637308 8.18279 0.539285C8.40235 0.441245 8.64991 0.432365 8.87559 0.514519C9.10127 0.596503 9.28854 0.763546 9.40014 0.981982L9.40012 0.982472Z" fill="#FFAB00"/>
<path d="M33.06 0.982472L34.9992 5.00058C35.1411 5.2935 35.4155 5.49366 35.7304 5.5345L39.5997 6.02418H39.5995C39.8431 6.05748 40.0646 6.18695 40.2176 6.38525C40.3706 6.58355 40.4431 6.83531 40.4199 7.08756C40.3968 7.33983 40.2797 7.57299 40.0932 7.73814L37.0739 10.39C36.943 10.5037 36.8444 10.6518 36.7883 10.8187C36.7324 10.9854 36.7211 11.1647 36.7559 11.3376L37.6555 15.8036C37.7058 16.0528 37.6601 16.3123 37.5281 16.5273C37.3962 16.7424 37.1882 16.8959 36.9483 16.9555C36.7085 17.0151 36.4555 16.9762 36.2431 16.8467L32.6255 14.6601C32.4811 14.5742 32.3175 14.529 32.1508 14.529C31.984 14.529 31.8204 14.5742 31.6761 14.6601L28.0633 16.8638H28.0632C27.8507 16.9932 27.5979 17.0324 27.358 16.9727C27.1182 16.9131 26.9103 16.7596 26.7783 16.5445C26.6461 16.3295 26.6006 16.0699 26.6508 15.8207L27.5457 11.3371C27.5805 11.1643 27.5692 10.9849 27.5132 10.8182C27.4571 10.6514 27.3586 10.5033 27.2276 10.3895L24.2129 7.76944C24.0263 7.60377 23.9094 7.36977 23.8869 7.11681C23.8644 6.86385 23.9381 6.61174 24.0924 6.41362C24.2467 6.21567 24.4696 6.08722 24.7138 6.05545L28.9296 5.54374C29.2654 5.50275 29.5547 5.28088 29.6893 4.96097L31.3509 1.04313V1.0433C31.4474 0.817332 31.6229 0.637308 31.8426 0.539285C32.0622 0.441245 32.3098 0.432365 32.5354 0.514519C32.7611 0.596503 32.9484 0.763546 33.06 0.981982L33.06 0.982472Z" fill="#FFAB00"/>
<path d="M56.7199 0.982472L58.6591 5.00058C58.801 5.2935 59.0754 5.49366 59.3903 5.5345L63.2596 6.02418H63.2594C63.503 6.05748 63.7245 6.18695 63.8775 6.38525C64.0305 6.58355 64.103 6.83531 64.0798 7.08756C64.0567 7.33983 63.9396 7.57299 63.7532 7.73814L60.7339 10.39C60.6029 10.5037 60.5044 10.6518 60.4482 10.8187C60.3923 10.9854 60.381 11.1647 60.4158 11.3376L61.3154 15.8036C61.3657 16.0528 61.32 16.3123 61.188 16.5273C61.0561 16.7424 60.8481 16.8959 60.6082 16.9555C60.3684 17.0151 60.1154 16.9762 59.903 16.8467L56.2854 14.6601C56.141 14.5742 55.9774 14.529 55.8107 14.529C55.644 14.529 55.4804 14.5742 55.336 14.6601L51.7232 16.8638H51.7231C51.5106 16.9932 51.2578 17.0324 51.0179 16.9727C50.7781 16.9131 50.5702 16.7596 50.4382 16.5445C50.306 16.3295 50.2605 16.0699 50.3107 15.8207L51.2056 11.3371C51.2404 11.1643 51.2291 10.9849 51.1732 10.8182C51.117 10.6514 51.0185 10.5033 50.8875 10.3895L47.8728 7.76944C47.6862 7.60377 47.5693 7.36977 47.5468 7.11681C47.5243 6.86385 47.598 6.61174 47.7523 6.41362C47.9066 6.21567 48.1295 6.08722 48.3737 6.05545L52.5895 5.54374C52.9253 5.50275 53.2146 5.28088 53.3492 4.96097L55.0108 1.04313V1.0433C55.1073 0.817332 55.2828 0.637308 55.5026 0.539285C55.7221 0.441245 55.9697 0.432365 56.1953 0.514519C56.421 0.596503 56.6083 0.763546 56.7199 0.981982L56.7199 0.982472Z" fill="#FFAB00"/>
<path d="M80.3797 0.982472L82.319 5.00058C82.4609 5.2935 82.7353 5.49366 83.0502 5.5345L86.9194 6.02418H86.9193C87.1628 6.05748 87.3844 6.18695 87.5374 6.38525C87.6903 6.58355 87.7629 6.83531 87.7397 7.08756C87.7165 7.33983 87.5995 7.57299 87.413 7.73814L84.3937 10.39C84.2627 10.5037 84.1642 10.6518 84.1081 10.8187C84.0521 10.9854 84.0409 11.1647 84.0756 11.3376L84.9752 15.8036C85.0256 16.0528 84.9799 16.3123 84.8479 16.5273C84.7159 16.7424 84.508 16.8959 84.268 16.9555C84.0283 17.0151 83.7753 16.9762 83.5628 16.8467L79.9452 14.6601C79.8009 14.5742 79.6373 14.529 79.4705 14.529C79.3038 14.529 79.1402 14.5742 78.9958 14.6601L75.3831 16.8638H75.3829C75.1705 16.9932 74.9176 17.0324 74.6777 16.9727C74.438 16.9131 74.23 16.7596 74.098 16.5445C73.9659 16.3295 73.9204 16.0699 73.9705 15.8207L74.8655 11.3371C74.9002 11.1643 74.889 10.9849 74.833 10.8182C74.7769 10.6514 74.6784 10.5033 74.5474 10.3895L71.5327 7.76944C71.3461 7.60377 71.2292 7.36977 71.2067 7.11681C71.1842 6.86385 71.2578 6.61174 71.4122 6.41362C71.5665 6.21567 71.7893 6.08722 72.0336 6.05545L76.2494 5.54374C76.5852 5.50275 76.8744 5.28088 77.009 4.96097L78.6706 1.04313V1.0433C78.7672 0.817332 78.9427 0.637308 79.1624 0.539285C79.382 0.441245 79.6295 0.432365 79.8552 0.514519C80.0809 0.596503 80.2682 0.763546 80.3798 0.981982L80.3797 0.982472Z" fill="#FFAB00"/>
<path d="M104.04 0.982472L105.979 5.00058C106.121 5.2935 106.395 5.49366 106.71 5.5345L110.579 6.02418H110.579C110.823 6.05748 111.044 6.18695 111.197 6.38525C111.35 6.58355 111.423 6.83531 111.4 7.08756C111.376 7.33983 111.259 7.57299 111.073 7.73814L108.054 10.39C107.923 10.5037 107.824 10.6518 107.768 10.8187C107.712 10.9854 107.701 11.1647 107.736 11.3376L108.635 15.8036C108.685 16.0528 108.64 16.3123 108.508 16.5273C108.376 16.7424 108.168 16.8959 107.928 16.9555C107.688 17.0151 107.435 16.9762 107.223 16.8467L103.605 14.6601C103.461 14.5742 103.297 14.529 103.13 14.529C102.964 14.529 102.8 14.5742 102.656 14.6601L99.043 16.8638H99.0428C98.8304 16.9932 98.5775 17.0324 98.3376 16.9727C98.0979 16.9131 97.8899 16.7596 97.7579 16.5445C97.6258 16.3295 97.5803 16.0699 97.6304 15.8207L98.5254 11.3371C98.5601 11.1643 98.5489 10.9849 98.4929 10.8182C98.4368 10.6514 98.3383 10.5033 98.2073 10.3895L95.1926 7.76944C95.006 7.60377 94.8891 7.36977 94.8666 7.11681C94.8441 6.86385 94.9178 6.61174 95.0721 6.41362C95.2264 6.21567 95.4493 6.08722 95.6935 6.05545L99.9093 5.54374C100.245 5.50275 100.534 5.28088 100.669 4.96097L102.331 1.04313V1.0433C102.427 0.817332 102.603 0.637308 102.822 0.539285C103.042 0.441245 103.289 0.432365 103.515 0.514519C103.741 0.596503 103.928 0.763546 104.04 0.981982L104.04 0.982472Z" fill="#FFAB00"/>
<mask id="mask0_161_4483" style="mask-type:alpha" maskUnits="userSpaceOnUse" x="94" y="0" width="18" height="17">
<path d="M104.04 0.982472L105.979 5.00058C106.121 5.2935 106.395 5.49366 106.71 5.5345L110.579 6.02418H110.579C110.823 6.05748 111.044 6.18695 111.197 6.38525C111.35 6.58355 111.423 6.83531 111.4 7.08756C111.376 7.33983 111.259 7.57299 111.073 7.73814L108.054 10.39C107.923 10.5037 107.824 10.6518 107.768 10.8187C107.712 10.9854 107.701 11.1647 107.736 11.3376L108.635 15.8036C108.685 16.0528 108.64 16.3123 108.508 16.5273C108.376 16.7424 108.168 16.8959 107.928 16.9555C107.688 17.0151 107.435 16.9762 107.223 16.8467L103.605 14.6601C103.461 14.5742 103.297 14.529 103.13 14.529C102.964 14.529 102.8 14.5742 102.656 14.6601L99.043 16.8638H99.0428C98.8304 16.9932 98.5775 17.0324 98.3376 16.9727C98.0979 16.9131 97.8899 16.7596 97.7579 16.5445C97.6258 16.3295 97.5803 16.0699 97.6304 15.8207L98.5254 11.3371C98.5601 11.1643 98.5489 10.9849 98.4929 10.8182C98.4368 10.6514 98.3383 10.5033 98.2073 10.3895L95.1926 7.76944C95.006 7.60377 94.8891 7.36977 94.8666 7.11681C94.8441 6.86385 94.9178 6.61174 95.0721 6.41362C95.2264 6.21567 95.4493 6.08722 95.6935 6.05545L99.9093 5.54374C100.245 5.50275 100.534 5.28088 100.669 4.96097L102.331 1.04313V1.0433C102.427 0.817332 102.603 0.637308 102.822 0.539285C103.042 0.441245 103.289 0.432365 103.515 0.514519C103.741 0.596503 103.928 0.763546 104.04 0.981982L104.04 0.982472Z" fill="#FFCC00"/>
</mask>
<g mask="url(#mask0_161_4483)">
<rect x="103.133" y="-1.37915" width="14.2438" height="24.8119" fill="#FFAB00"/>
</g>
</svg>
