<svg width="19" height="23" viewBox="0 0 19 23" fill="none" xmlns="http://www.w3.org/2000/svg">
<path d="M17.3218 6.49558L17.3218 6.49557L11.4909 1.49752C11.0035 1.07964 10.3827 0.85 9.74056 0.85H3.38109C1.8957 0.85 0.691483 2.05422 0.691483 3.53961L0.691309 19.7938C0.691309 21.2792 1.89553 22.4834 3.38092 22.4834H15.5713C17.0567 22.4834 18.2609 21.2792 18.2609 19.7938V8.53767C18.2609 7.75258 17.9178 7.00655 17.3218 6.49558ZM2.00729 3.53961C2.00729 2.78097 2.62245 2.16581 3.38109 2.16581L9.74056 2.16582C10.0685 2.16582 10.3856 2.28311 10.6346 2.49654L16.4655 7.49459C16.4655 7.49459 16.4655 7.4946 16.4655 7.4946C16.7701 7.75573 16.9453 8.13675 16.9453 8.53767V19.7938C16.9453 20.5524 16.3301 21.1676 15.5715 21.1676H3.38109C2.62245 21.1676 2.00729 20.5524 2.00729 19.7938V3.53961Z" fill="black" stroke="black" stroke-width="0.3"/>
<path d="M9.98438 1.86581H9.83437V2.01581V5.5714C9.83437 7.05679 11.0386 8.26101 12.524 8.26101H17.0954H17.2454V8.11101V7.0952V6.9452H17.0954H12.524C11.7653 6.9452 11.1502 6.33004 11.1502 5.5714V2.01581V1.86581H11.0002H9.98438Z" fill="black" stroke="black" stroke-width="0.3"/>
<path d="M14.0053 12.1319L14.1114 12.0258L14.0053 11.9197L13.2869 11.2014L13.1809 11.0953L13.0748 11.2014L7.95251 16.3237L5.87814 14.2491L5.77208 14.1431L5.66601 14.2491L4.94764 14.9675L4.84158 15.0736L4.94764 15.1796L7.48725 17.7194L7.4873 17.7195C7.74418 17.9761 8.16083 17.9761 8.4177 17.7195L8.41775 17.7194L14.0053 12.1319Z" fill="#695EEE" stroke="#695EEE" stroke-width="0.3"/>
</svg>
