<svg width="17" height="16" viewBox="0 0 17 16" fill="none" xmlns="http://www.w3.org/2000/svg">
<path d="M16.013 8C16.013 3.58172 12.4284 0 8.0065 0C3.58463 0 0 3.58172 0 8C0 12.4183 3.58463 16 8.0065 16C12.4284 16 16.013 12.4183 16.013 8Z" fill="white"/>
<path d="M4.90215 8.0145C4.64201 7.77904 4.23377 7.79187 3.99009 8.04299C3.74638 8.2941 3.75943 8.68874 4.01957 8.92418L6.60025 11.2619C6.87749 11.5128 7.31787 11.4793 7.55102 11.1897L12.0674 5.57925C12.2861 5.30769 12.2355 4.9159 11.9542 4.70457C11.6729 4.49324 11.2676 4.54215 11.0489 4.81393L6.96682 9.88474L4.90215 8.0145Z" fill="#1A1936" stroke="#1A1936" stroke-width="0.5"/>
</svg>
