<svg width="25" height="24" viewBox="0 0 25 24" fill="none" xmlns="http://www.w3.org/2000/svg">
<path d="M23.7302 24.0002H14.5603C14.1354 24.0002 13.791 23.6557 13.791 23.2309V0.769212C13.791 0.519056 13.9127 0.28449 14.1172 0.140387C14.3216 -0.003717 14.5835 -0.0392557 14.819 0.0447962L23.9889 3.32046C24.2951 3.42985 24.4994 3.7198 24.4994 4.04488V23.2309C24.4994 23.6557 24.155 24.0002 23.7302 24.0002ZM15.3295 22.4617H22.9609V4.58693L15.3295 1.86086V22.4617Z" fill="#6754E2"/>
<path d="M18.2562 4.68359H16.7178V6.75253H18.2562V4.68359Z" fill="#6754E2"/>
<path d="M18.2562 9.41406H16.7178V11.483H18.2562V9.41406Z" fill="#6754E2"/>
<path d="M18.2562 14.0938H16.7178V16.1627H18.2562V14.0938Z" fill="#6754E2"/>
<path d="M21.5473 9.41406H20.0088V11.483H21.5473V9.41406Z" fill="#6754E2"/>
<path d="M21.5473 14.0938H20.0088V16.1627H21.5473V14.0938Z" fill="#6754E2"/>
<path d="M18.2562 18.8242H16.7178V20.8932H18.2562V18.8242Z" fill="#6754E2"/>
<path d="M21.5473 18.8242H20.0088V20.8932H21.5473V18.8242Z" fill="#6754E2"/>
<path d="M10.4391 24.0002H1.26924C0.844413 24.0002 0.5 23.6558 0.5 23.231V4.04492C0.5 3.71984 0.704309 3.42989 1.01047 3.32051L10.1804 0.0448416C10.4159 -0.0393129 10.6777 -0.00367159 10.8822 0.140432C11.0867 0.284536 11.2084 0.51905 11.2084 0.769257V23.231C11.2084 23.6558 10.864 24.0002 10.4391 24.0002ZM2.03847 22.4617H9.66991V1.86091L2.03847 4.58698V22.4617Z" fill="#6754E2"/>
<path d="M14.5614 4.4624H10.4395V6.00088H14.5614V4.4624Z" fill="#6754E2"/>
<path d="M14.5614 22.4619H10.4395V24.0004H14.5614V22.4619Z" fill="#6754E2"/>
<path d="M8.28261 4.68359H6.74414V6.75253H8.28261V4.68359Z" fill="#6754E2"/>
<path d="M8.28261 9.41406H6.74414V11.483H8.28261V9.41406Z" fill="#6754E2"/>
<path d="M8.28261 14.0938H6.74414V16.1627H8.28261V14.0938Z" fill="#6754E2"/>
<path d="M4.9916 9.41406H3.45312V11.483H4.9916V9.41406Z" fill="#6754E2"/>
<path d="M4.9916 14.0938H3.45312V16.1627H4.9916V14.0938Z" fill="#6754E2"/>
<path d="M8.28261 18.8242H6.74414V20.8932H8.28261V18.8242Z" fill="#6754E2"/>
<path d="M4.9916 18.8242H3.45312V20.8932H4.9916V18.8242Z" fill="#6754E2"/>
</svg>
