<svg width="153" height="30" viewBox="0 0 153 30" fill="none" xmlns="http://www.w3.org/2000/svg">
<path fill-rule="evenodd" clip-rule="evenodd" d="M3.00875 15.1723C2.81362 16.7763 3.19178 18.3971 4.07823 19.7563C4.96469 21.1155 6.30409 22.1281 7.86631 22.6203C9.42852 23.1124 11.116 23.0534 12.6388 22.4532C14.1616 21.853 15.4246 20.7492 16.2108 19.3314C16.997 17.9137 17.2573 16.2705 16.947 14.6842C16.6367 13.098 15.7752 11.6676 14.5104 10.6391C13.5244 9.83717 12.3413 9.31848 11.0906 9.12881L11.0906 10.4079C11.0906 10.9921 10.6097 11.4658 10.0165 11.4658C9.42337 11.4658 8.94251 10.9921 8.94251 10.4079L8.94251 8.14115C8.94251 7.47861 9.49146 6.92084 10.1902 6.93382C12.2679 6.97241 14.2732 7.70241 15.8782 9.00769C17.5278 10.3493 18.6516 12.2149 19.0563 14.284C19.461 16.353 19.1215 18.4963 18.096 20.3456C17.0705 22.1948 15.4231 23.6345 13.4368 24.4174C11.4506 25.2002 9.24956 25.2773 7.21189 24.6354C5.17422 23.9934 3.42717 22.6726 2.27092 20.8997C1.11467 19.1269 0.621429 17.0128 0.875941 14.9206C1.13045 12.8285 2.11683 10.889 3.66559 9.43536C4.095 9.03232 4.77484 9.04845 5.18405 9.47138C5.59327 9.89432 5.57689 10.5639 5.14748 10.9669C3.9601 12.0814 3.20388 13.5683 3.00875 15.1723Z" fill="white"/>
<path fill-rule="evenodd" clip-rule="evenodd" d="M6.18958 12.0779C6.60901 11.6648 7.28905 11.6648 7.70849 12.0779L11.084 15.4025C11.5034 15.8156 11.5034 16.4854 11.084 16.8985C10.6646 17.3116 9.98454 17.3116 9.5651 16.8985L6.18958 13.5739C5.77014 13.1608 5.77014 12.491 6.18958 12.0779Z" fill="white"/>
<path d="M44.303 8.292L40.365 24H36.009L34.183 16.41C34.139 16.2487 34.0877 16.014 34.029 15.706C33.9704 15.3833 33.897 15.0313 33.809 14.65C33.7357 14.254 33.6697 13.88 33.611 13.528C33.5524 13.1613 33.5084 12.868 33.479 12.648C33.4497 12.868 33.3984 13.1613 33.325 13.528C33.2664 13.88 33.2004 14.254 33.127 14.65C33.0537 15.0313 32.9804 15.3833 32.907 15.706C32.8484 16.014 32.797 16.2487 32.753 16.41L30.905 24H26.571L22.611 8.292H26.263L28.133 16.542C28.1917 16.762 28.2577 17.0553 28.331 17.422C28.4044 17.774 28.4777 18.1553 28.551 18.566C28.6244 18.962 28.6904 19.3507 28.749 19.732C28.8224 20.0987 28.8737 20.414 28.903 20.678C28.947 20.326 29.0057 19.9227 29.079 19.468C29.167 19.0133 29.255 18.5513 29.343 18.082C29.431 17.6127 29.519 17.1727 29.607 16.762C29.695 16.3513 29.7757 16.0213 29.849 15.772L31.719 8.292H35.217L37.087 15.772C37.131 16.0213 37.197 16.3513 37.285 16.762C37.3877 17.1727 37.483 17.62 37.571 18.104C37.6737 18.5733 37.7617 19.0353 37.835 19.49C37.9084 19.9447 37.967 20.3407 38.011 20.678C38.055 20.3113 38.121 19.8713 38.209 19.358C38.3117 18.83 38.4144 18.3093 38.517 17.796C38.6197 17.268 38.7077 16.8573 38.781 16.564L40.651 8.292H44.303ZM56.8533 17.928C56.8533 18.94 56.714 19.8347 56.4353 20.612C56.1713 21.3893 55.7753 22.0493 55.2473 22.592C54.734 23.1347 54.1107 23.5453 53.3773 23.824C52.6587 24.088 51.83 24.22 50.8913 24.22C50.0407 24.22 49.2487 24.088 48.5153 23.824C47.7967 23.5453 47.1733 23.142 46.6453 22.614C46.132 22.0713 45.7287 21.4113 45.4353 20.634C45.142 19.842 44.9953 18.94 44.9953 17.928C44.9953 16.5933 45.23 15.464 45.6993 14.54C46.1833 13.616 46.8727 12.912 47.7673 12.428C48.662 11.944 49.7253 11.702 50.9573 11.702C52.116 11.702 53.1353 11.944 54.0153 12.428C54.8953 12.912 55.5847 13.616 56.0833 14.54C56.5967 15.464 56.8533 16.5933 56.8533 17.928ZM48.7573 17.928C48.7573 18.676 48.8307 19.3067 48.9773 19.82C49.124 20.3333 49.3587 20.722 49.6813 20.986C50.004 21.2353 50.422 21.36 50.9353 21.36C51.4633 21.36 51.8813 21.2353 52.1893 20.986C52.4973 20.722 52.7247 20.3333 52.8713 19.82C53.018 19.3067 53.0913 18.676 53.0913 17.928C53.0913 17.18 53.018 16.5567 52.8713 16.058C52.7247 15.5593 52.49 15.1853 52.1673 14.936C51.8593 14.6867 51.4413 14.562 50.9133 14.562C50.1653 14.562 49.6153 14.848 49.2633 15.42C48.926 15.9773 48.7573 16.8133 48.7573 17.928ZM66.4223 11.702C66.613 11.702 66.8256 11.7167 67.0603 11.746C67.295 11.7607 67.4783 11.7827 67.6103 11.812L67.3023 15.288C67.1703 15.2587 67.0016 15.2367 66.7963 15.222C66.591 15.1927 66.3636 15.178 66.1143 15.178C65.7623 15.178 65.4103 15.222 65.0583 15.31C64.7063 15.3833 64.3836 15.5227 64.0903 15.728C63.797 15.9187 63.5623 16.1973 63.3863 16.564C63.2103 16.916 63.1223 17.378 63.1223 17.95V24H59.4043V11.922H62.1983L62.7703 13.902H62.9243C63.159 13.4913 63.4523 13.1247 63.8043 12.802C64.1563 12.4647 64.5523 12.2007 64.9923 12.01C65.447 11.8047 65.9236 11.702 66.4223 11.702ZM73.2629 14.342C73.2629 14.8113 73.2409 15.31 73.1969 15.838C73.1676 16.3513 73.1236 16.85 73.0649 17.334H73.1309C73.2629 17.1287 73.4023 16.9233 73.5489 16.718C73.6956 16.498 73.8496 16.278 74.0109 16.058C74.1723 15.838 74.3336 15.64 74.4949 15.464L77.5749 11.922H81.7109L77.2009 17.114L81.9969 24H77.7509L74.6489 19.38L73.2629 20.458V24H69.5449V7.28H73.2629V14.342ZM92.2642 20.348C92.2642 21.14 92.0809 21.8293 91.7142 22.416C91.3622 22.988 90.8049 23.4353 90.0422 23.758C89.2796 24.066 88.3116 24.22 87.1382 24.22C86.2876 24.22 85.5396 24.1687 84.8942 24.066C84.2636 23.9633 83.6256 23.78 82.9802 23.516V20.524C83.6842 20.832 84.4176 21.074 85.1802 21.25C85.9576 21.426 86.6029 21.514 87.1162 21.514C87.6736 21.514 88.0769 21.4407 88.3262 21.294C88.5756 21.1473 88.7002 20.942 88.7002 20.678C88.7002 20.4873 88.6342 20.3187 88.5022 20.172C88.3849 20.0253 88.1356 19.8567 87.7542 19.666C87.3876 19.4753 86.8376 19.2333 86.1042 18.94C85.3856 18.632 84.7916 18.3167 84.3222 17.994C83.8676 17.6713 83.5229 17.2827 83.2882 16.828C83.0682 16.3733 82.9582 15.816 82.9582 15.156C82.9582 14.012 83.3982 13.154 84.2782 12.582C85.1729 11.9953 86.3536 11.702 87.8202 11.702C88.5976 11.702 89.3309 11.7827 90.0202 11.944C90.7096 12.1053 91.4209 12.3547 92.1542 12.692L91.0982 15.2C90.5116 14.936 89.9322 14.7233 89.3602 14.562C88.7882 14.4007 88.2749 14.32 87.8202 14.32C87.4096 14.32 87.0942 14.3787 86.8742 14.496C86.6542 14.5987 86.5442 14.76 86.5442 14.98C86.5442 15.1413 86.6029 15.2953 86.7202 15.442C86.8522 15.574 87.0942 15.7207 87.4462 15.882C87.8129 16.0433 88.3409 16.2707 89.0302 16.564C89.7196 16.8427 90.3062 17.136 90.7902 17.444C91.2742 17.752 91.6409 18.1333 91.8902 18.588C92.1396 19.0427 92.2642 19.6293 92.2642 20.348ZM100.181 21.272C100.562 21.272 100.914 21.2353 101.237 21.162C101.56 21.0887 101.89 20.9933 102.227 20.876V23.604C101.831 23.78 101.376 23.9267 100.863 24.044C100.35 24.1613 99.7411 24.22 99.0371 24.22C98.2891 24.22 97.6218 24.1027 97.0351 23.868C96.4631 23.6187 96.0085 23.2007 95.6711 22.614C95.3485 22.0127 95.1871 21.184 95.1871 20.128V14.694H93.6471V13.154L95.4951 11.966L96.5071 9.414H98.8831V11.922H102.095V14.694H98.8831V19.996C98.8831 20.4213 99.0005 20.744 99.2351 20.964C99.4698 21.1693 99.7851 21.272 100.181 21.272ZM109.934 11.68C111.503 11.68 112.72 12.0467 113.586 12.78C114.451 13.4987 114.884 14.5693 114.884 15.992V24H112.31L111.584 22.372H111.496C111.158 22.7973 110.806 23.1493 110.44 23.428C110.088 23.7067 109.677 23.9047 109.208 24.022C108.753 24.154 108.188 24.22 107.514 24.22C106.81 24.22 106.172 24.0807 105.6 23.802C105.042 23.5233 104.602 23.098 104.28 22.526C103.957 21.954 103.796 21.228 103.796 20.348C103.796 19.0573 104.243 18.104 105.138 17.488C106.047 16.872 107.374 16.5273 109.12 16.454L111.188 16.388V16.036C111.188 15.4493 111.034 15.024 110.726 14.76C110.432 14.496 110.022 14.364 109.494 14.364C108.966 14.364 108.416 14.452 107.844 14.628C107.272 14.7893 106.692 14.9947 106.106 15.244L104.984 12.78C105.644 12.428 106.392 12.1567 107.228 11.966C108.064 11.7753 108.966 11.68 109.934 11.68ZM110.066 18.544C109.142 18.5733 108.496 18.742 108.13 19.05C107.763 19.3433 107.58 19.7467 107.58 20.26C107.58 20.7147 107.712 21.0447 107.976 21.25C108.24 21.4553 108.577 21.558 108.988 21.558C109.604 21.558 110.124 21.3747 110.55 21.008C110.975 20.6267 111.188 20.1133 111.188 19.468V18.5L110.066 18.544ZM123.492 21.272C123.873 21.272 124.225 21.2353 124.548 21.162C124.87 21.0887 125.2 20.9933 125.538 20.876V23.604C125.142 23.78 124.687 23.9267 124.174 24.044C123.66 24.1613 123.052 24.22 122.348 24.22C121.6 24.22 120.932 24.1027 120.346 23.868C119.774 23.6187 119.319 23.2007 118.982 22.614C118.659 22.0127 118.498 21.184 118.498 20.128V14.694H116.958V13.154L118.806 11.966L119.818 9.414H122.194V11.922H125.406V14.694H122.194V19.996C122.194 20.4213 122.311 20.744 122.546 20.964C122.78 21.1693 123.096 21.272 123.492 21.272ZM139.25 11.922V24H136.434L135.95 22.46H135.73C135.481 22.8707 135.158 23.208 134.762 23.472C134.381 23.7213 133.955 23.9047 133.486 24.022C133.031 24.154 132.555 24.22 132.056 24.22C131.235 24.22 130.501 24.066 129.856 23.758C129.211 23.45 128.705 22.9733 128.338 22.328C127.971 21.668 127.788 20.8247 127.788 19.798V11.922H131.506V18.764C131.506 19.5853 131.638 20.2087 131.902 20.634C132.181 21.0593 132.621 21.272 133.222 21.272C133.823 21.272 134.293 21.1253 134.63 20.832C134.967 20.5387 135.202 20.106 135.334 19.534C135.466 18.9473 135.532 18.2433 135.532 17.422V11.922H139.25ZM151.11 20.348C151.11 21.14 150.927 21.8293 150.56 22.416C150.208 22.988 149.651 23.4353 148.888 23.758C148.125 24.066 147.157 24.22 145.984 24.22C145.133 24.22 144.385 24.1687 143.74 24.066C143.109 23.9633 142.471 23.78 141.826 23.516V20.524C142.53 20.832 143.263 21.074 144.026 21.25C144.803 21.426 145.449 21.514 145.962 21.514C146.519 21.514 146.923 21.4407 147.172 21.294C147.421 21.1473 147.546 20.942 147.546 20.678C147.546 20.4873 147.48 20.3187 147.348 20.172C147.231 20.0253 146.981 19.8567 146.6 19.666C146.233 19.4753 145.683 19.2333 144.95 18.94C144.231 18.632 143.637 18.3167 143.168 17.994C142.713 17.6713 142.369 17.2827 142.134 16.828C141.914 16.3733 141.804 15.816 141.804 15.156C141.804 14.012 142.244 13.154 143.124 12.582C144.019 11.9953 145.199 11.702 146.666 11.702C147.443 11.702 148.177 11.7827 148.866 11.944C149.555 12.1053 150.267 12.3547 151 12.692L149.944 15.2C149.357 14.936 148.778 14.7233 148.206 14.562C147.634 14.4007 147.121 14.32 146.666 14.32C146.255 14.32 145.94 14.3787 145.72 14.496C145.5 14.5987 145.39 14.76 145.39 14.98C145.39 15.1413 145.449 15.2953 145.566 15.442C145.698 15.574 145.94 15.7207 146.292 15.882C146.659 16.0433 147.187 16.2707 147.876 16.564C148.565 16.8427 149.152 17.136 149.636 17.444C150.12 17.752 150.487 18.1333 150.736 18.588C150.985 19.0427 151.11 19.6293 151.11 20.348Z" fill="white"/>
</svg>
