<svg width="400" height="75" viewBox="0 0 400 75" fill="none" xmlns="http://www.w3.org/2000/svg">
<path fill-rule="evenodd" clip-rule="evenodd" d="M6.31847 28.2382C5.7576 32.9196 6.84456 37.6502 9.39257 41.6171C11.9406 45.5841 15.7905 48.5397 20.2809 49.9761C24.7713 51.4125 29.6218 51.2401 33.9988 49.4883C38.3759 47.7366 42.0062 44.515 44.2661 40.3771C46.526 36.2392 47.2742 31.4433 46.3823 26.8136C45.4904 22.1839 43.0141 18.0093 39.3787 15.0073C36.5446 12.6668 33.1439 11.1529 29.5487 10.5994L29.5487 14.3326C29.5487 16.0378 28.1665 17.4201 26.4615 17.4201C24.7565 17.4201 23.3744 16.0378 23.3744 14.3326L23.3744 7.71675C23.3744 5.78305 24.9523 4.1551 26.9608 4.19298C32.9328 4.30562 38.6967 6.43622 43.31 10.2459C48.0518 14.1616 51.2818 19.6066 52.4452 25.6454C53.6085 31.6842 52.6325 37.9397 49.6849 43.337C46.7372 48.7342 42.002 52.9363 36.2928 55.2212C30.5836 57.506 24.2569 57.731 18.3999 55.8574C12.5429 53.9838 7.52116 50.1287 4.19766 44.9544C0.874171 39.7801 -0.543597 33.6097 0.187969 27.5036C0.919535 21.3974 3.75476 15.7367 8.20647 11.4941C9.44077 10.3177 11.3949 10.3648 12.5711 11.5992C13.7474 12.8336 13.7003 14.7879 12.466 15.9642C9.05301 19.2169 6.87934 23.5568 6.31847 28.2382Z" fill="#05164D"/>
<path fill-rule="evenodd" clip-rule="evenodd" d="M15.4589 19.2059C16.6645 18.0001 18.6192 18.0001 19.8248 19.2059L29.5274 28.9092C30.733 30.1149 30.733 32.0697 29.5274 33.2754C28.3218 34.4811 26.3671 34.4811 25.1614 33.2754L15.4589 23.5721C14.2533 22.3664 14.2533 20.4116 15.4589 19.2059Z" fill="#5D2BFF"/>
<path d="M231.78 48.7396C229.325 48.7396 227.234 48.4674 225.506 47.9231C223.778 47.4242 222.119 46.8118 220.527 46.086V38.3296C221.573 39.01 222.664 39.6677 223.801 40.3027C224.983 40.8924 226.233 41.3687 227.552 41.7315C228.916 42.0944 230.371 42.2759 231.916 42.2759C233.735 42.2759 235.076 41.9357 235.94 41.2553C236.849 40.5295 237.304 39.6677 237.304 38.6698C237.304 37.7172 236.963 36.9915 236.281 36.4925C235.599 35.9482 234.713 35.4946 233.621 35.1317C232.53 34.7689 231.371 34.406 230.143 34.0431C229.007 33.771 227.847 33.4081 226.665 32.9545C225.529 32.5009 224.483 31.8885 223.528 31.1174C222.573 30.3463 221.801 29.3711 221.209 28.1917C220.664 26.967 220.391 25.4929 220.391 23.7692C220.391 21.728 220.8 20.0044 221.619 18.5982C222.437 17.1921 223.505 16.0581 224.824 15.1963C226.142 14.3344 227.597 13.7221 229.189 13.3592C230.78 12.951 232.326 12.7468 233.826 12.7468C236.417 12.8376 238.509 13.1551 240.1 13.6994C241.691 14.1983 243.192 14.8561 244.601 15.6725L244.669 22.6806C243.078 21.8187 241.532 21.0476 240.032 20.3672C238.532 19.6415 236.827 19.2786 234.917 19.2786C233.144 19.2786 231.757 19.5961 230.757 20.2312C229.802 20.8208 229.325 21.66 229.325 22.7486C229.325 23.7012 229.62 24.4723 230.212 25.0619C230.803 25.6516 231.575 26.1052 232.53 26.4227C233.485 26.7402 234.531 27.0578 235.667 27.3753C236.804 27.6928 237.986 28.0557 239.214 28.4639C240.441 28.8268 241.578 29.3711 242.623 30.0968C243.669 30.8226 244.51 31.7978 245.147 33.0225C245.829 34.2019 246.17 35.7895 246.17 37.7853C246.124 40.4161 245.42 42.548 244.056 44.181C242.692 45.7685 240.896 46.9252 238.668 47.651C236.486 48.3767 234.19 48.7396 231.78 48.7396Z" fill="#05164D"/>
<path d="M264.763 48.8076C261.216 48.8076 258.511 47.9458 256.647 46.2221C254.783 44.4531 253.851 41.913 253.851 38.6017V20.2312H248.532V13.4272H253.851V3.96979H262.785V13.4272H270.764V20.2312H262.785V37.241C262.785 38.6471 263.058 39.6904 263.603 40.3708C264.149 41.0511 265.103 41.3913 266.467 41.3913C267.195 41.3913 267.945 41.2779 268.718 41.0512C269.536 40.779 270.218 40.4615 270.764 40.0986V47.5829C269.855 48.0365 268.854 48.354 267.763 48.5355C266.717 48.7169 265.717 48.8076 264.763 48.8076Z" fill="#05164D"/>
<path d="M289.207 48.7396C287.297 48.7396 285.479 48.5581 283.751 48.1953C282.024 47.8324 280.478 47.2427 279.114 46.4262C277.75 45.5644 276.659 44.4078 275.84 42.9562C275.067 41.4594 274.681 39.5996 274.681 37.377C274.681 35.0637 275.158 33.1132 276.113 31.5257C277.068 29.8927 278.455 28.668 280.273 27.8515C282.137 26.9897 284.41 26.5588 287.093 26.5588C288.73 26.5588 290.253 26.7176 291.662 27.0351C293.071 27.3072 294.344 27.6928 295.481 28.1917C296.618 28.6907 297.55 29.235 298.277 29.8247L298.891 34.6555C297.936 34.0204 296.709 33.5215 295.208 33.1586C293.753 32.7504 292.162 32.5463 290.435 32.5463C288.025 32.5463 286.229 32.9318 285.047 33.7029C283.865 34.474 283.274 35.6761 283.274 37.309C283.274 38.443 283.592 39.3955 284.229 40.1666C284.865 40.8924 285.683 41.4594 286.684 41.8676C287.684 42.2305 288.73 42.4119 289.821 42.4119C292.321 42.4119 294.117 42.2532 295.208 41.9357C296.345 41.5728 296.913 40.8244 296.913 39.6904V26.1506C296.913 23.928 296.209 22.3177 294.799 21.3198C293.39 20.2765 291.412 19.7549 288.866 19.7549C286.911 19.7549 284.911 20.0951 282.865 20.7755C280.819 21.4105 279.159 22.2497 277.886 23.2929V15.4684C279.114 14.6973 280.955 14.0169 283.41 13.4272C285.865 12.8376 288.502 12.5427 291.321 12.5427C292.503 12.5427 293.753 12.6561 295.072 12.8829C296.39 13.1097 297.641 13.4726 298.823 13.9715C300.05 14.4705 301.164 15.1736 302.164 16.0808C303.165 16.9426 303.96 18.0539 304.551 19.4147C305.142 20.7301 305.438 22.3404 305.438 24.2455V40.5068C305.438 42.6387 304.756 44.317 303.392 45.5417C302.028 46.7211 300.141 47.5376 297.732 47.9911C295.322 48.4901 292.48 48.7396 289.207 48.7396Z" fill="#05164D"/>
<path d="M325.788 48.8076C322.242 48.8076 319.537 47.9458 317.673 46.2221C315.809 44.4531 314.877 41.913 314.877 38.6017V20.2312H309.557V13.4272H314.877V3.96979H323.811V13.4272H331.79V20.2312H323.811V37.241C323.811 38.6471 324.083 39.6904 324.629 40.3708C325.175 41.0511 326.129 41.3913 327.493 41.3913C328.221 41.3913 328.971 41.2779 329.744 41.0512C330.562 40.779 331.244 40.4615 331.79 40.0986V47.5829C330.88 48.0365 329.88 48.354 328.789 48.5355C327.743 48.7169 326.743 48.8076 325.788 48.8076Z" fill="#05164D"/>
<path d="M353.097 48.7396C349.915 48.7396 347.141 48.2406 344.777 47.2427C342.458 46.1995 340.64 44.6572 339.321 42.6161C338.048 40.5749 337.412 37.9667 337.412 34.7915V13.4272H346.073V33.907C346.073 36.4472 346.641 38.3296 347.778 39.5543C348.914 40.779 350.688 41.3913 353.097 41.3913C355.598 41.3913 357.394 40.779 358.485 39.5543C359.621 38.3296 360.19 36.4472 360.19 33.907V13.4272H368.373V34.7915C368.373 39.5089 367.009 43.0243 364.281 45.3376C361.599 47.6056 357.871 48.7396 353.097 48.7396Z" fill="#05164D"/>
<path d="M385.61 48.7396C383.155 48.7396 381.064 48.4674 379.336 47.9231C377.608 47.4242 375.949 46.8118 374.358 46.086V38.3296C375.403 39.01 376.494 39.6677 377.631 40.3027C378.813 40.8924 380.063 41.3687 381.382 41.7315C382.746 42.0944 384.201 42.2759 385.747 42.2759C387.565 42.2759 388.906 41.9357 389.77 41.2553C390.679 40.5295 391.134 39.6677 391.134 38.6698C391.134 37.7172 390.793 36.9915 390.111 36.4925C389.429 35.9482 388.543 35.4946 387.451 35.1317C386.36 34.7689 385.201 34.406 383.973 34.0431C382.837 33.771 381.677 33.4081 380.495 32.9545C379.359 32.5009 378.313 31.8885 377.358 31.1174C376.404 30.3463 375.631 29.3711 375.04 28.1917C374.494 26.967 374.221 25.4929 374.221 23.7692C374.221 21.728 374.63 20.0044 375.449 18.5982C376.267 17.1921 377.336 16.0581 378.654 15.1963C379.973 14.3344 381.427 13.7221 383.019 13.3592C384.61 12.951 386.156 12.7468 387.656 12.7468C390.248 12.8376 392.339 13.1551 393.93 13.6994C395.522 14.1983 397.022 14.8561 398.431 15.6725L398.499 22.6806C396.908 21.8187 395.362 21.0476 393.862 20.3672C392.362 19.6415 390.657 19.2786 388.747 19.2786C386.974 19.2786 385.587 19.5961 384.587 20.2312C383.632 20.8208 383.155 21.66 383.155 22.7486C383.155 23.7012 383.451 24.4723 384.042 25.0619C384.633 25.6516 385.406 26.1052 386.36 26.4227C387.315 26.7402 388.361 27.0578 389.497 27.3753C390.634 27.6928 391.816 28.0557 393.044 28.4639C394.271 28.8268 395.408 29.3711 396.454 30.0968C397.499 30.8226 398.34 31.7978 398.977 33.0225C399.659 34.2019 400 35.7895 400 37.7853C399.954 40.4161 399.25 42.548 397.886 44.181C396.522 45.7685 394.726 46.9252 392.498 47.651C390.316 48.3767 388.02 48.7396 385.61 48.7396Z" fill="#05164D"/>
<path d="M79.4571 47.7192L68 13.4274H77.2748L85.4585 41.9359L82.7988 42.208L90.6415 13.4274H97.3248L105.031 41.3916H102.917L110.964 13.4274H119.966L108.509 47.7192H100.598L93.0966 23.2251L94.5969 23.6333L87.4362 47.7192H79.4571Z" fill="#5D2BFF"/>
<path d="M137.294 48.7398C131.657 48.7398 127.428 47.1749 124.61 44.0451C121.791 40.9153 120.381 36.402 120.381 30.5053C120.381 24.2003 121.814 19.619 124.678 16.7614C127.588 13.9037 131.77 12.4749 137.226 12.4749C141.045 12.4749 144.228 13.1553 146.774 14.5161C149.32 15.8315 151.207 17.8273 152.434 20.5035C153.707 23.1797 154.344 26.5137 154.344 30.5053C154.344 36.402 152.866 40.9153 149.911 44.0451C147.001 47.1749 142.796 48.7398 137.294 48.7398ZM137.294 41.6637C139.295 41.6637 140.909 41.2101 142.136 40.3029C143.409 39.3957 144.341 38.1257 144.932 36.4927C145.523 34.8144 145.819 32.8186 145.819 30.5053C145.819 27.9198 145.501 25.8106 144.864 24.1776C144.273 22.5447 143.341 21.3427 142.068 20.5716C140.841 19.8005 139.249 19.4149 137.294 19.4149C135.294 19.4149 133.68 19.8231 132.452 20.6396C131.225 21.4561 130.315 22.6808 129.724 24.3137C129.179 25.9467 128.906 28.0105 128.906 30.5053C128.906 34.134 129.565 36.901 130.884 38.8061C132.202 40.7112 134.339 41.6637 137.294 41.6637Z" fill="#5D2BFF"/>
<path d="M159.662 47.7192V16.7614C160.298 16.3531 161.412 15.8088 163.004 15.1284C164.64 14.448 166.527 13.8584 168.664 13.3594C170.801 12.8151 172.96 12.5429 175.143 12.5429C176.779 12.5429 178.075 12.679 179.03 12.9512C180.03 13.178 180.803 13.4728 181.349 13.8357V20.3674C180.439 20.2314 179.394 20.118 178.212 20.0272C177.075 19.9365 175.893 19.9138 174.665 19.9592C173.483 19.9592 172.324 20.0046 171.187 20.0953C170.096 20.186 169.141 20.2994 168.323 20.4355V47.7192H159.662Z" fill="#5D2BFF"/>
<path d="M192.198 28.328L205.496 13.4274H216.067L196.631 32.8867L192.198 28.328ZM194.039 47.7192H185.446V0.5H194.107L194.039 47.7192ZM198.404 24.9941L217.363 47.7192H206.383L192.266 30.7774L198.404 24.9941Z" fill="#5D2BFF"/>
<path d="M221.974 71.3077V58.6347H230.277V60.4017H224.083V64.0687H229.479V65.8547H224.064V69.5407H230.277V71.3077H221.974Z" fill="#3F3F3F"/>
<path d="M234 71.3077V63.4227H232.48V61.7697H234.019V61.3897C234.019 60.7184 234.089 60.161 234.228 59.7177C234.38 59.2744 234.576 58.9197 234.817 58.6537C235.058 58.3877 235.324 58.1914 235.615 58.0647C235.906 57.9254 236.198 57.8367 236.489 57.7987C236.793 57.7607 237.078 57.7417 237.344 57.7417C237.534 57.7417 237.724 57.7544 237.914 57.7797C238.104 57.805 238.269 57.8367 238.408 57.8747V59.6417C238.294 59.5784 238.174 59.5277 238.047 59.4897C237.933 59.439 237.781 59.4137 237.591 59.4137C237.401 59.4137 237.211 59.4327 237.021 59.4707C236.831 59.496 236.66 59.572 236.508 59.6987C236.356 59.8127 236.236 59.99 236.147 60.2307C236.058 60.4714 236.014 60.8007 236.014 61.2187V61.7697H238.408V63.4227H235.995V71.3077H234Z" fill="#3F3F3F"/>
<path d="M241.463 71.3077V63.4227H239.943V61.7697H241.482V61.3897C241.482 60.7184 241.552 60.161 241.691 59.7177C241.843 59.2744 242.04 58.9197 242.28 58.6537C242.521 58.3877 242.787 58.1914 243.078 58.0647C243.37 57.9254 243.661 57.8367 243.952 57.7987C244.256 57.7607 244.541 57.7417 244.807 57.7417C244.997 57.7417 245.187 57.7544 245.377 57.7797C245.567 57.805 245.732 57.8367 245.871 57.8747V59.6417C245.757 59.5784 245.637 59.5277 245.51 59.4897C245.396 59.439 245.244 59.4137 245.054 59.4137C244.864 59.4137 244.674 59.4327 244.484 59.4707C244.294 59.496 244.123 59.572 243.971 59.6987C243.819 59.8127 243.699 59.99 243.61 60.2307C243.522 60.4714 243.477 60.8007 243.477 61.2187V61.7697H245.871V63.4227H243.458V71.3077H241.463Z" fill="#3F3F3F"/>
<path d="M251.694 71.5927C250.149 71.5927 248.996 71.1557 248.236 70.2817C247.489 69.4077 247.115 68.16 247.115 66.5387C247.115 64.816 247.502 63.5557 248.274 62.7577C249.06 61.947 250.187 61.5417 251.656 61.5417C252.708 61.5417 253.575 61.738 254.259 62.1307C254.943 62.5107 255.45 63.0744 255.779 63.8217C256.109 64.569 256.273 65.4747 256.273 66.5387C256.273 68.1474 255.874 69.395 255.076 70.2817C254.291 71.1557 253.164 71.5927 251.694 71.5927ZM251.675 69.9017C252.321 69.9017 252.834 69.7624 253.214 69.4837C253.594 69.1924 253.867 68.7934 254.031 68.2867C254.209 67.78 254.297 67.1974 254.297 66.5387C254.297 65.804 254.209 65.1897 254.031 64.6957C253.854 64.2017 253.575 63.8344 253.195 63.5937C252.815 63.3404 252.309 63.2137 251.675 63.2137C251.042 63.2137 250.535 63.3467 250.155 63.6127C249.775 63.8787 249.503 64.2587 249.338 64.7527C249.174 65.2467 249.091 65.842 249.091 66.5387C249.091 67.59 249.288 68.4134 249.68 69.0087C250.073 69.604 250.738 69.9017 251.675 69.9017Z" fill="#3F3F3F"/>
<path d="M258.784 71.3077V62.6437C258.948 62.5424 259.252 62.403 259.696 62.2257C260.139 62.0484 260.665 61.8964 261.273 61.7697C261.881 61.6304 262.495 61.5607 263.116 61.5607C263.432 61.5607 263.692 61.586 263.895 61.6367C264.097 61.6874 264.268 61.7444 264.408 61.8077V63.4037C264.116 63.3657 263.812 63.3404 263.496 63.3277C263.179 63.3024 262.862 63.3024 262.546 63.3277C262.229 63.3404 261.919 63.3657 261.615 63.4037C261.311 63.4417 261.032 63.4797 260.779 63.5177V71.3077H258.784Z" fill="#3F3F3F"/>
<path d="M269.964 71.5547C269.102 71.5547 268.418 71.3267 267.912 70.8707C267.418 70.4147 267.171 69.7434 267.171 68.8567V63.4227H265.632V61.7697H267.171V59.1097H269.223V61.7697H271.541V63.4227H269.223V68.4577C269.223 68.901 269.299 69.2367 269.451 69.4647C269.615 69.68 269.913 69.7877 270.344 69.7877C270.559 69.7877 270.774 69.7624 270.99 69.7117C271.205 69.6484 271.389 69.5724 271.541 69.4837V71.2507C271.313 71.352 271.053 71.428 270.762 71.4787C270.483 71.5294 270.217 71.5547 269.964 71.5547Z" fill="#3F3F3F"/>
<path d="M276.021 71.3077H274.045V58.1597H276.021V71.3077Z" fill="#3F3F3F"/>
<path d="M283.126 71.5927C282.188 71.5927 281.371 71.4027 280.675 71.0227C279.991 70.6427 279.459 70.079 279.079 69.3317C278.711 68.5844 278.528 67.6724 278.528 66.5957C278.528 64.9364 278.914 63.6824 279.687 62.8337C280.472 61.9724 281.561 61.5417 282.955 61.5417C283.981 61.5417 284.81 61.7697 285.444 62.2257C286.077 62.6817 286.533 63.3214 286.812 64.1447C287.103 64.9554 287.242 65.9054 287.23 66.9947H279.725L279.668 65.5127H285.71L285.235 65.9877C285.197 65.0124 284.994 64.303 284.627 63.8597C284.259 63.4037 283.683 63.1757 282.898 63.1757C282.391 63.1757 281.96 63.2834 281.606 63.4987C281.251 63.7014 280.979 64.056 280.789 64.5627C280.611 65.0567 280.523 65.7407 280.523 66.6147C280.523 67.6787 280.77 68.4894 281.264 69.0467C281.758 69.5914 282.486 69.8637 283.449 69.8637C283.879 69.8637 284.278 69.8257 284.646 69.7497C285.026 69.6737 285.374 69.5787 285.691 69.4647C286.007 69.338 286.28 69.2177 286.508 69.1037V70.9467C286.064 71.1367 285.564 71.2887 285.007 71.4027C284.449 71.5294 283.822 71.5927 283.126 71.5927Z" fill="#3F3F3F"/>
<path d="M292.469 71.5927C291.785 71.5927 291.202 71.5167 290.721 71.3647C290.252 71.2254 289.79 71.048 289.334 70.8327V68.9517C289.663 69.1544 289.986 69.338 290.303 69.5027C290.619 69.6547 290.949 69.775 291.291 69.8637C291.645 69.9524 292.038 69.9967 292.469 69.9967C293.013 69.9967 293.438 69.8827 293.742 69.6547C294.058 69.4267 294.217 69.1417 294.217 68.7997C294.217 68.5084 294.115 68.2804 293.913 68.1157C293.723 67.951 293.476 67.8117 293.172 67.6977C292.868 67.5837 292.551 67.4697 292.222 67.3557C291.88 67.267 291.538 67.1657 291.196 67.0517C290.854 66.925 290.537 66.7604 290.246 66.5577C289.967 66.3424 289.739 66.07 289.562 65.7407C289.397 65.4114 289.315 65.006 289.315 64.5247C289.315 63.9927 289.422 63.543 289.638 63.1757C289.853 62.7957 290.132 62.4917 290.474 62.2637C290.828 62.023 291.215 61.852 291.633 61.7507C292.063 61.6367 292.481 61.5797 292.887 61.5797C293.558 61.5924 294.103 61.6747 294.521 61.8267C294.951 61.9787 295.369 62.1624 295.775 62.3777L295.794 64.0877C295.338 63.847 294.907 63.638 294.502 63.4607C294.096 63.2834 293.628 63.1947 293.096 63.1947C292.602 63.1947 292.19 63.2897 291.861 63.4797C291.531 63.657 291.367 63.923 291.367 64.2777C291.367 64.5817 291.455 64.8224 291.633 64.9997C291.823 65.177 292.063 65.3164 292.355 65.4177C292.659 65.519 292.982 65.6204 293.324 65.7217C293.64 65.823 293.97 65.9307 294.312 66.0447C294.654 66.146 294.97 66.298 295.262 66.5007C295.553 66.7034 295.787 66.9694 295.965 67.2987C296.155 67.628 296.25 68.0587 296.25 68.5907C296.237 69.3 296.047 69.8764 295.68 70.3197C295.325 70.763 294.856 71.086 294.274 71.2887C293.691 71.4914 293.089 71.5927 292.469 71.5927Z" fill="#3F3F3F"/>
<path d="M301.528 71.5927C300.844 71.5927 300.261 71.5167 299.78 71.3647C299.311 71.2254 298.849 71.048 298.393 70.8327V68.9517C298.722 69.1544 299.045 69.338 299.362 69.5027C299.678 69.6547 300.008 69.775 300.35 69.8637C300.704 69.9524 301.097 69.9967 301.528 69.9967C302.072 69.9967 302.497 69.8827 302.801 69.6547C303.117 69.4267 303.276 69.1417 303.276 68.7997C303.276 68.5084 303.174 68.2804 302.972 68.1157C302.782 67.951 302.535 67.8117 302.231 67.6977C301.927 67.5837 301.61 67.4697 301.281 67.3557C300.939 67.267 300.597 67.1657 300.255 67.0517C299.913 66.925 299.596 66.7604 299.305 66.5577C299.026 66.3424 298.798 66.07 298.621 65.7407C298.456 65.4114 298.374 65.006 298.374 64.5247C298.374 63.9927 298.481 63.543 298.697 63.1757C298.912 62.7957 299.191 62.4917 299.533 62.2637C299.887 62.023 300.274 61.852 300.692 61.7507C301.122 61.6367 301.54 61.5797 301.946 61.5797C302.617 61.5924 303.162 61.6747 303.58 61.8267C304.01 61.9787 304.428 62.1624 304.834 62.3777L304.853 64.0877C304.397 63.847 303.966 63.638 303.561 63.4607C303.155 63.2834 302.687 63.1947 302.155 63.1947C301.661 63.1947 301.249 63.2897 300.92 63.4797C300.59 63.657 300.426 63.923 300.426 64.2777C300.426 64.5817 300.514 64.8224 300.692 64.9997C300.882 65.177 301.122 65.3164 301.414 65.4177C301.718 65.519 302.041 65.6204 302.383 65.7217C302.699 65.823 303.029 65.9307 303.371 66.0447C303.713 66.146 304.029 66.298 304.321 66.5007C304.612 66.7034 304.846 66.9694 305.024 67.2987C305.214 67.628 305.309 68.0587 305.309 68.5907C305.296 69.3 305.106 69.8764 304.739 70.3197C304.384 70.763 303.915 71.086 303.333 71.2887C302.75 71.4914 302.148 71.5927 301.528 71.5927Z" fill="#3F3F3F"/>
<path d="M313.516 71.3077V58.6347H321.819V60.4017H315.625V64.0687H321.021V65.8547H315.606V69.5407H321.819V71.3077H313.516Z" fill="#3F3F3F"/>
<path d="M325.542 71.3077V63.4227H324.022V61.7697H325.561V61.3897C325.561 60.7184 325.631 60.161 325.77 59.7177C325.922 59.2744 326.118 58.9197 326.359 58.6537C326.6 58.3877 326.866 58.1914 327.157 58.0647C327.448 57.9254 327.74 57.8367 328.031 57.7987C328.335 57.7607 328.62 57.7417 328.886 57.7417C329.076 57.7417 329.266 57.7544 329.456 57.7797C329.646 57.805 329.811 57.8367 329.95 57.8747V59.6417C329.836 59.5784 329.716 59.5277 329.589 59.4897C329.475 59.439 329.323 59.4137 329.133 59.4137C328.943 59.4137 328.753 59.4327 328.563 59.4707C328.373 59.496 328.202 59.572 328.05 59.6987C327.898 59.8127 327.778 59.99 327.689 60.2307C327.6 60.4714 327.556 60.8007 327.556 61.2187V61.7697H329.95V63.4227H327.537V71.3077H325.542Z" fill="#3F3F3F"/>
<path d="M333.006 71.3077V63.4227H331.486V61.7697H333.025V61.3897C333.025 60.7184 333.094 60.161 333.234 59.7177C333.386 59.2744 333.582 58.9197 333.823 58.6537C334.063 58.3877 334.329 58.1914 334.621 58.0647C334.912 57.9254 335.203 57.8367 335.495 57.7987C335.799 57.7607 336.084 57.7417 336.35 57.7417C336.54 57.7417 336.73 57.7544 336.92 57.7797C337.11 57.805 337.274 57.8367 337.414 57.8747V59.6417C337.3 59.5784 337.179 59.5277 337.053 59.4897C336.939 59.439 336.787 59.4137 336.597 59.4137C336.407 59.4137 336.217 59.4327 336.027 59.4707C335.837 59.496 335.666 59.572 335.514 59.6987C335.362 59.8127 335.241 59.99 335.153 60.2307C335.064 60.4714 335.02 60.8007 335.02 61.2187V61.7697H337.414V63.4227H335.001V71.3077H333.006ZM339.257 71.3077V61.8267H341.252L341.271 71.3077H339.257ZM339.2 60.2497V58.4447H341.328V60.2497H339.2Z" fill="#3F3F3F"/>
<path d="M348.527 71.4977C347.945 71.4977 347.375 71.4154 346.817 71.2507C346.26 71.086 345.753 70.82 345.297 70.4527C344.854 70.0727 344.499 69.5724 344.233 68.9517C343.967 68.3184 343.834 67.533 343.834 66.5957C343.834 65.633 343.961 64.8287 344.214 64.1827C344.468 63.5367 344.816 63.0237 345.259 62.6437C345.703 62.251 346.203 61.9724 346.76 61.8077C347.33 61.643 347.913 61.5607 348.508 61.5607C349.015 61.5607 349.522 61.6114 350.028 61.7127C350.535 61.8014 351.004 61.9407 351.434 62.1307V63.9167C351.004 63.7267 350.573 63.581 350.142 63.4797C349.712 63.3657 349.262 63.3087 348.793 63.3087C347.805 63.3087 347.058 63.5557 346.551 64.0497C346.057 64.5437 345.81 65.3417 345.81 66.4437C345.81 67.5837 346.045 68.4197 346.513 68.9517C346.995 69.471 347.774 69.7307 348.85 69.7307C349.319 69.7307 349.775 69.6737 350.218 69.5597C350.662 69.433 351.073 69.281 351.453 69.1037V70.8897C351.01 71.0924 350.548 71.2444 350.066 71.3457C349.585 71.447 349.072 71.4977 348.527 71.4977Z" fill="#3F3F3F"/>
<path d="M354.001 71.3077V61.8267H355.996L356.015 71.3077H354.001ZM353.944 60.2497V58.4447H356.072V60.2497H353.944Z" fill="#3F3F3F"/>
<path d="M363.173 71.5927C362.236 71.5927 361.419 71.4027 360.722 71.0227C360.038 70.6427 359.507 70.079 359.127 69.3317C358.759 68.5844 358.575 67.6724 358.575 66.5957C358.575 64.9364 358.962 63.6824 359.735 62.8337C360.52 61.9724 361.609 61.5417 363.002 61.5417C364.028 61.5417 364.858 61.7697 365.491 62.2257C366.125 62.6817 366.581 63.3214 366.86 64.1447C367.151 64.9554 367.29 65.9054 367.278 66.9947H359.772L359.715 65.5127H365.757L365.282 65.9877C365.244 65.0124 365.042 64.303 364.674 63.8597C364.307 63.4037 363.731 63.1757 362.946 63.1757C362.439 63.1757 362.008 63.2834 361.653 63.4987C361.299 63.7014 361.026 64.056 360.836 64.5627C360.659 65.0567 360.571 65.7407 360.571 66.6147C360.571 67.6787 360.818 68.4894 361.311 69.0467C361.805 69.5914 362.534 69.8637 363.496 69.8637C363.927 69.8637 364.326 69.8257 364.694 69.7497C365.074 69.6737 365.422 69.5787 365.739 69.4647C366.055 69.338 366.328 69.2177 366.556 69.1037V70.9467C366.112 71.1367 365.612 71.2887 365.054 71.4027C364.497 71.5294 363.87 71.5927 363.173 71.5927Z" fill="#3F3F3F"/>
<path d="M369.761 62.5487C370.04 62.4094 370.35 62.2827 370.692 62.1687C371.047 62.042 371.421 61.9344 371.813 61.8457C372.206 61.757 372.605 61.6874 373.01 61.6367C373.416 61.586 373.808 61.5607 374.188 61.5607C375.088 61.5607 375.822 61.6874 376.392 61.9407C376.962 62.1814 377.387 62.5614 377.665 63.0807C377.944 63.5874 378.083 64.227 378.083 64.9997V71.3077H376.088V65.2657C376.088 65.025 376.057 64.7907 375.993 64.5627C375.943 64.322 375.835 64.1067 375.67 63.9167C375.518 63.714 375.29 63.5557 374.986 63.4417C374.695 63.3277 374.309 63.2707 373.827 63.2707C373.485 63.2707 373.131 63.3024 372.763 63.3657C372.409 63.429 372.073 63.5177 371.756 63.6317V71.3077H369.761V62.5487Z" fill="#3F3F3F"/>
<path d="M385.283 71.4977C384.701 71.4977 384.131 71.4154 383.573 71.2507C383.016 71.086 382.509 70.82 382.053 70.4527C381.61 70.0727 381.255 69.5724 380.989 68.9517C380.723 68.3184 380.59 67.533 380.59 66.5957C380.59 65.633 380.717 64.8287 380.97 64.1827C381.224 63.5367 381.572 63.0237 382.015 62.6437C382.459 62.251 382.959 61.9724 383.516 61.8077C384.086 61.643 384.669 61.5607 385.264 61.5607C385.771 61.5607 386.278 61.6114 386.784 61.7127C387.291 61.8014 387.76 61.9407 388.19 62.1307V63.9167C387.76 63.7267 387.329 63.581 386.898 63.4797C386.468 63.3657 386.018 63.3087 385.549 63.3087C384.561 63.3087 383.814 63.5557 383.307 64.0497C382.813 64.5437 382.566 65.3417 382.566 66.4437C382.566 67.5837 382.801 68.4197 383.269 68.9517C383.751 69.471 384.53 69.7307 385.606 69.7307C386.075 69.7307 386.531 69.6737 386.974 69.5597C387.418 69.433 387.829 69.281 388.209 69.1037V70.8897C387.766 71.0924 387.304 71.2444 386.822 71.3457C386.341 71.447 385.828 71.4977 385.283 71.4977Z" fill="#3F3F3F"/>
<path d="M392.182 74.9937C391.941 74.9937 391.713 74.9684 391.498 74.9177C391.283 74.8797 391.093 74.829 390.928 74.7657V73.0557C391.08 73.1064 391.232 73.1507 391.384 73.1887C391.536 73.2267 391.701 73.2457 391.878 73.2457C392.258 73.2457 392.575 73.1444 392.828 72.9417C393.081 72.739 393.297 72.4477 393.474 72.0677C393.651 71.6877 393.797 71.2317 393.911 70.6997L393.949 71.6877L389.883 61.7697H392.144L394.899 69.2937H394.614L397.331 61.7697H399.402L395.469 71.8967C395.152 72.7074 394.81 73.3344 394.443 73.7777C394.076 74.2337 393.696 74.5504 393.303 74.7277C392.923 74.905 392.549 74.9937 392.182 74.9937Z" fill="#3F3F3F"/>
</svg>
