<svg width="400" height="54" viewBox="0 0 400 54" fill="none" xmlns="http://www.w3.org/2000/svg">
<mask id="mask0_5235_41026" style="mask-type:luminance" maskUnits="userSpaceOnUse" x="1" y="0" width="398" height="54">
<path d="M398.863 0H1.22656V54H398.863V0Z" fill="white"/>
</mask>
<g mask="url(#mask0_5235_41026)">
<path d="M230.705 48.6435C228.251 48.6435 226.161 48.3712 224.434 47.8268C222.707 47.3276 221.048 46.7149 219.457 45.9891V38.2295C220.502 38.9102 221.593 39.568 222.729 40.2035C223.911 40.7933 225.161 41.2698 226.479 41.6328C227.842 41.9958 229.296 42.1772 230.842 42.1772C232.66 42.1772 234.001 41.837 234.865 41.1564C235.773 40.4303 236.228 39.568 236.228 38.57C236.228 37.6169 235.887 36.8908 235.205 36.3918C234.523 35.8472 233.637 35.3933 232.546 35.0305C231.456 34.6675 230.297 34.3045 229.069 33.9415C227.933 33.6693 226.774 33.3062 225.592 32.8524C224.456 32.3985 223.411 31.7861 222.457 31.0147C221.502 30.2432 220.729 29.2675 220.139 28.0879C219.594 26.8628 219.32 25.3881 219.32 23.6637C219.32 21.6217 219.729 19.8973 220.548 18.4906C221.366 17.0839 222.434 15.9496 223.751 15.0874C225.07 14.2253 226.524 13.6127 228.114 13.2497C229.705 12.8413 231.251 12.6371 232.751 12.6371C235.342 12.7278 237.432 13.0455 239.022 13.59C240.613 14.0891 242.113 14.7471 243.522 15.5639L243.59 22.5746C242 21.7123 240.454 20.9409 238.954 20.2604C237.454 19.5344 235.751 19.1713 233.842 19.1713C232.068 19.1713 230.683 19.489 229.683 20.1243C228.728 20.7141 228.251 21.5535 228.251 22.6426C228.251 23.5955 228.547 24.3669 229.137 24.9568C229.729 25.5467 230.5 26.0005 231.456 26.3181C232.41 26.6358 233.455 26.9534 234.591 27.271C235.728 27.5886 236.908 27.9516 238.136 28.3601C239.363 28.7231 240.5 29.2675 241.545 29.9938C242.59 30.7196 243.431 31.6953 244.068 32.9206C244.75 34.1003 245.09 35.6886 245.09 37.6851C245.044 40.3169 244.34 42.4497 242.976 44.0832C241.613 45.6712 239.817 46.8283 237.591 47.5544C235.409 48.2804 233.113 48.6435 230.705 48.6435Z" fill="black"/>
<path d="M263.672 48.7092C260.125 48.7092 257.423 47.8469 255.56 46.1228C253.695 44.3531 252.764 41.8119 252.764 38.4995V20.122H247.445V13.3154H252.764V3.85437H261.694V13.3154H269.671V20.122H261.694V37.1382C261.694 38.5449 261.969 39.5886 262.514 40.2692C263.059 40.9496 264.013 41.2901 265.376 41.2901C266.102 41.2901 266.853 41.1767 267.624 40.9496C268.444 40.6774 269.124 40.3598 269.671 39.9968V47.4841C268.763 47.9377 267.762 48.2556 266.672 48.437C265.626 48.6184 264.625 48.7092 263.672 48.7092Z" fill="black"/>
<path d="M288.107 48.6366C286.197 48.6366 284.379 48.4552 282.653 48.0922C280.925 47.7291 279.381 47.1393 278.016 46.3224C276.654 45.4604 275.562 44.3031 274.744 42.8512C273.971 41.3539 273.586 39.4934 273.586 37.2698C273.586 34.9557 274.062 33.0046 275.017 31.4162C275.972 29.7827 277.359 28.5577 279.177 27.7408C281.038 26.8788 283.311 26.4475 285.994 26.4475C287.628 26.4475 289.153 26.6065 290.559 26.9239C291.968 27.1964 293.242 27.582 294.378 28.081C295.515 28.5802 296.448 29.1247 297.174 29.7145L297.788 34.5472C296.833 33.912 295.606 33.4128 294.106 33.05C292.65 32.6413 291.06 32.4373 289.334 32.4373C286.926 32.4373 285.13 32.8229 283.949 33.5944C282.766 34.3659 282.174 35.5681 282.174 37.2018C282.174 38.3361 282.493 39.2892 283.132 40.0606C283.767 40.7865 284.585 41.3539 285.584 41.7621C286.583 42.1252 287.628 42.3066 288.721 42.3066C291.219 42.3066 293.014 42.1477 294.106 41.8304C295.242 41.4673 295.809 40.7185 295.809 39.584V26.0391C295.809 23.8158 295.105 22.2048 293.696 21.2066C292.287 20.1628 290.311 19.6411 287.766 19.6411C285.81 19.6411 283.812 19.9814 281.767 20.662C279.72 21.2973 278.063 22.1368 276.789 23.1804V15.3529C278.016 14.5815 279.857 13.9009 282.312 13.311C284.766 12.7211 287.403 12.4261 290.22 12.4261C291.401 12.4261 292.65 12.5396 293.971 12.7665C295.287 12.9933 296.538 13.3564 297.719 13.8555C298.946 14.3547 300.058 15.058 301.06 15.9656C302.059 16.8277 302.854 17.9394 303.445 19.3007C304.037 20.6166 304.332 22.2275 304.332 24.1334V40.4008C304.332 42.5336 303.649 44.2125 302.287 45.4376C300.922 46.6175 299.037 47.4343 296.627 47.8879C294.219 48.3872 291.379 48.6366 288.107 48.6366Z" fill="black"/>
<path d="M324.67 48.7092C321.125 48.7092 318.421 47.8469 316.558 46.1228C314.695 44.3531 313.762 41.8119 313.762 38.4995V20.122H308.445V13.3154H313.762V3.85437H322.694V13.3154H330.669V20.122H322.694V37.1382C322.694 38.5449 322.966 39.5886 323.511 40.2692C324.056 40.9496 325.011 41.2901 326.373 41.2901C327.1 41.2901 327.851 41.1767 328.624 40.9496C329.441 40.6774 330.124 40.3598 330.669 39.9968V47.4841C329.761 47.9377 328.759 48.2556 327.669 48.437C326.624 48.6184 325.625 48.7092 324.67 48.7092Z" fill="black"/>
<path d="M351.969 48.6338C348.788 48.6338 346.014 48.1348 343.65 47.1366C341.333 46.0929 339.517 44.55 338.196 42.508C336.925 40.4661 336.289 37.8569 336.289 34.6807V13.3082H344.946V33.7959C344.946 36.3368 345.513 38.2199 346.65 39.4453C347.786 40.6703 349.561 41.283 351.969 41.283C354.467 41.283 356.262 40.6703 357.354 39.4453C358.49 38.2199 359.06 36.3368 359.06 33.7959V13.3082H367.238V34.6807C367.238 39.3998 365.876 42.9165 363.149 45.2306C360.466 47.4996 356.74 48.6338 351.969 48.6338Z" fill="black"/>
<path d="M384.478 48.6435C382.023 48.6435 379.935 48.3712 378.207 47.8268C376.481 47.3276 374.822 46.7149 373.231 45.9891V38.2295C374.274 38.9102 375.367 39.568 376.503 40.2035C377.684 40.7933 378.933 41.2698 380.254 41.6328C381.616 41.9958 383.069 42.1772 384.615 42.1772C386.434 42.1772 387.774 41.837 388.638 41.1564C389.547 40.4303 390.001 39.568 390.001 38.57C390.001 37.6169 389.662 36.8908 388.98 36.3918C388.297 35.8472 387.411 35.3933 386.319 35.0305C385.229 34.6675 384.07 34.3045 382.843 33.9415C381.707 33.6693 380.548 33.3062 379.368 32.8524C378.229 32.3985 377.185 31.7861 376.231 31.0147C375.276 30.2432 374.503 29.2675 373.914 28.0879C373.366 26.8628 373.094 25.3881 373.094 23.6637C373.094 21.6217 373.504 19.8973 374.321 18.4906C375.138 17.0839 376.209 15.9496 377.524 15.0874C378.842 14.2253 380.298 13.6127 381.888 13.2497C383.479 12.8413 385.025 12.6371 386.525 12.6371C389.115 12.7278 391.206 13.0455 392.796 13.59C394.387 14.0891 395.887 14.7471 397.296 15.5639L397.364 22.5746C395.774 21.7123 394.227 20.9409 392.728 20.2604C391.228 19.5344 389.524 19.1713 387.615 19.1713C385.843 19.1713 384.456 19.489 383.457 20.1243C382.502 20.7141 382.023 21.5535 382.023 22.6426C382.023 23.5955 382.32 24.3669 382.909 24.9568C383.501 25.5467 384.274 26.0005 385.229 26.3181C386.184 26.6358 387.229 26.9534 388.363 27.271C389.502 27.5886 390.683 27.9516 391.91 28.3601C393.138 28.7231 394.274 29.2675 395.317 29.9938C396.363 30.7196 397.205 31.6953 397.84 32.9206C398.523 34.1003 398.864 35.6886 398.864 37.6851C398.817 40.3169 398.113 42.4497 396.751 44.0832C395.386 45.6712 393.592 46.8283 391.365 47.5544C389.183 48.2804 386.888 48.6435 384.478 48.6435Z" fill="black"/>
<path d="M78.4373 47.613L66.9844 13.3082H76.2557L84.4364 41.8274L81.7777 42.0999L89.6177 13.3082H96.2988L104.002 41.283H101.889L109.933 13.3082H118.932L107.479 47.613H99.5712L92.072 23.1096L93.5718 23.5179L86.4136 47.613H78.4373Z" fill="#5D2BFF"/>
<path d="M136.258 48.6375C130.623 48.6375 126.396 47.072 123.578 43.9413C120.76 40.8102 119.352 36.2951 119.352 30.3963C119.352 24.0889 120.783 19.5058 123.647 16.6471C126.555 13.7884 130.736 12.359 136.19 12.359C140.008 12.359 143.189 13.0397 145.734 14.4009C148.28 15.7169 150.166 17.7134 151.393 20.3907C152.665 23.0678 153.302 26.403 153.302 30.3963C153.302 36.2951 151.824 40.8102 148.87 43.9413C145.962 47.072 141.758 48.6375 136.258 48.6375ZM136.258 41.5589C138.258 41.5589 139.872 41.105 141.099 40.1976C142.371 39.2901 143.303 38.0194 143.894 36.3859C144.485 34.707 144.78 32.7105 144.78 30.3963C144.78 27.8097 144.462 25.6998 143.826 24.0662C143.235 22.4326 142.303 21.2301 141.03 20.4587C139.803 19.6873 138.213 19.3017 136.258 19.3017C134.259 19.3017 132.645 19.71 131.418 20.5268C130.191 21.3437 129.282 22.5688 128.691 24.2023C128.146 25.8358 127.873 27.9006 127.873 30.3963C127.873 34.0264 128.532 36.7944 129.85 38.7003C131.168 40.606 133.304 41.5589 136.258 41.5589Z" fill="#5D2BFF"/>
<path d="M158.602 47.6157V16.6462C159.238 16.2378 160.352 15.6933 161.943 15.0126C163.578 14.332 165.464 13.7421 167.6 13.2429C169.736 12.6984 171.895 12.4261 174.077 12.4261C175.714 12.4261 177.008 12.5623 177.963 12.8345C178.963 13.0614 179.735 13.3564 180.28 13.7194V20.2537C179.372 20.1174 178.327 20.004 177.145 19.9133C176.008 19.8225 174.826 19.7999 173.6 19.8452C172.418 19.8452 171.259 19.8906 170.123 19.9813C169.032 20.0722 168.078 20.1856 167.26 20.3217V47.6157H158.602Z" fill="#5D2BFF"/>
<path d="M191.124 28.2221L204.418 13.3159H214.985L195.555 32.7824L191.124 28.2221ZM192.964 47.6207H184.375V0.383545H193.032L192.964 47.6207ZM197.327 24.8869L216.28 47.6207H205.303L191.192 30.6725L197.327 24.8869Z" fill="#5D2BFF"/>
<path fill-rule="evenodd" clip-rule="evenodd" d="M7.42785 25.6142C6.87737 30.2015 7.94416 34.8372 10.4449 38.7242C12.9457 42.6114 16.7242 45.5076 21.1313 46.915C25.5386 48.3227 30.2989 48.1538 34.5949 46.4371C38.8906 44.7206 42.4536 41.5638 44.6718 37.5092C46.8897 33.4545 47.6241 28.755 46.7486 24.2182C45.8733 19.6816 43.4428 15.5911 39.8749 12.6494C37.0934 10.356 33.7557 8.87255 30.2273 8.3301V11.9883C30.2273 13.6592 28.8706 15.0137 27.1974 15.0137C25.5239 15.0137 24.1675 13.6592 24.1675 11.9883V5.50546C24.1675 3.61062 25.7161 2.0154 27.6873 2.05251C33.5485 2.1629 39.2055 4.25064 43.7334 7.98369C48.3872 11.8207 51.5573 17.1563 52.6991 23.0736C53.841 28.9912 52.883 35.1207 49.99 40.4095C47.0969 45.6983 42.4494 49.8158 36.8462 52.0548C31.243 54.2936 25.0334 54.5143 19.2851 52.6783C13.5368 50.8423 8.60822 47.0647 5.34637 41.9944C2.08452 36.9243 0.693049 30.878 1.41105 24.8943C2.12904 18.911 4.91169 13.3641 9.28083 9.20681C10.4923 8.05413 12.4101 8.10026 13.5645 9.30986C14.719 10.5194 14.6728 12.4344 13.4613 13.5871C10.1117 16.7743 7.97833 21.027 7.42785 25.6142Z" fill="black"/>
<path fill-rule="evenodd" clip-rule="evenodd" d="M16.4031 16.7639C17.5863 15.5824 19.5048 15.5824 20.688 16.7639L30.2107 26.2722C31.3937 27.4536 31.3937 29.3691 30.2107 30.5507C29.0273 31.7321 27.1088 31.7321 25.9258 30.5507L16.4031 21.0425C15.2198 19.861 15.2198 17.9454 16.4031 16.7639Z" fill="#5D2BFF"/>
</g>
</svg>
