<svg width="350" height="48" viewBox="0 0 350 48" fill="none" xmlns="http://www.w3.org/2000/svg">
<path d="M191.189 40.5682C189.164 40.5682 187.439 40.3437 186.014 39.8947C184.589 39.4831 183.22 38.978 181.907 38.3794V31.9813C182.77 32.5425 183.67 33.085 184.607 33.6089C185.583 34.0953 186.614 34.4881 187.701 34.7875C188.827 35.0868 190.027 35.2364 191.302 35.2364C192.802 35.2364 193.908 34.9558 194.621 34.3946C195.371 33.7959 195.746 33.085 195.746 32.2619C195.746 31.4761 195.465 30.8775 194.902 30.4659C194.339 30.0169 193.608 29.6428 192.708 29.3435C191.808 29.0441 190.852 28.7448 189.839 28.4455C188.902 28.221 187.945 27.9216 186.97 27.5475C186.033 27.1733 185.17 26.6682 184.382 26.0322C183.595 25.3961 182.957 24.5916 182.47 23.6188C182.02 22.6086 181.795 21.3926 181.795 19.9708C181.795 18.2871 182.132 16.8653 182.807 15.7054C183.482 14.5455 184.364 13.6101 185.451 12.8992C186.539 12.1883 187.739 11.6832 189.052 11.3839C190.364 11.0471 191.639 10.8788 192.877 10.8788C195.015 10.9536 196.74 11.2155 198.052 11.6645C199.365 12.0761 200.602 12.6186 201.765 13.2921L201.821 19.0728C200.509 18.3619 199.234 17.7258 197.996 17.1646C196.758 16.566 195.352 16.2666 193.777 16.2666C192.314 16.2666 191.17 16.5285 190.345 17.0524C189.558 17.5388 189.164 18.231 189.164 19.1289C189.164 19.9147 189.408 20.5507 189.895 21.0371C190.383 21.5235 191.02 21.8977 191.808 22.1596C192.596 22.4215 193.458 22.6834 194.396 22.9453C195.333 23.2073 196.308 23.5066 197.321 23.8433C198.333 24.1427 199.271 24.5916 200.134 25.1903C200.996 25.7889 201.69 26.5934 202.215 27.6036C202.778 28.5764 203.059 29.886 203.059 31.5323C203.021 33.7024 202.44 35.4609 201.315 36.8079C200.19 38.1175 198.709 39.0716 196.871 39.6702C195.071 40.2689 193.177 40.5682 191.189 40.5682Z" fill="#05164D"/>
<path d="M218.396 40.6243C215.47 40.6243 213.239 39.9134 211.701 38.4916C210.164 37.0324 209.395 34.9371 209.395 32.2058V17.0524H205.007V11.44H209.395V3.63879H216.764V11.44H223.346V17.0524H216.764V31.0833C216.764 32.2432 216.989 33.1037 217.439 33.665C217.889 34.2262 218.677 34.5068 219.802 34.5068C220.402 34.5068 221.021 34.4133 221.658 34.2262C222.333 34.0017 222.896 33.7398 223.346 33.4405V39.6141C222.596 39.9882 221.771 40.2502 220.871 40.3998C220.008 40.5495 219.183 40.6243 218.396 40.6243Z" fill="#05164D"/>
<path d="M238.559 40.5682C236.984 40.5682 235.484 40.4185 234.059 40.1192C232.634 39.8199 231.359 39.3335 230.234 38.66C229.108 37.9491 228.208 36.995 227.533 35.7977C226.896 34.563 226.577 33.0289 226.577 31.1955C226.577 29.2873 226.971 27.6784 227.758 26.3689C228.546 25.0219 229.69 24.0117 231.19 23.3382C232.727 22.6273 234.603 22.2719 236.815 22.2719C238.165 22.2719 239.422 22.4028 240.584 22.6647C241.747 22.8892 242.797 23.2073 243.735 23.6188C244.672 24.0304 245.441 24.4794 246.041 24.9658L246.547 28.9506C245.76 28.4268 244.747 28.0152 243.509 27.7159C242.309 27.3791 240.997 27.2108 239.572 27.2108C237.584 27.2108 236.103 27.5288 235.128 28.1649C234.153 28.8009 233.665 29.7924 233.665 31.1394C233.665 32.0748 233.928 32.8605 234.453 33.4966C234.978 34.0953 235.653 34.563 236.478 34.8997C237.303 35.199 238.165 35.3487 239.065 35.3487C241.128 35.3487 242.609 35.2177 243.509 34.9558C244.447 34.6565 244.916 34.0391 244.916 33.1037V21.9351C244.916 20.1017 244.335 18.7735 243.172 17.9503C242.009 17.0898 240.378 16.6595 238.278 16.6595C236.665 16.6595 235.015 16.9401 233.327 17.5013C231.64 18.0252 230.271 18.7174 229.221 19.5779V13.1237C230.234 12.4876 231.752 11.9264 233.778 11.44C235.803 10.9536 237.978 10.7104 240.303 10.7104C241.278 10.7104 242.309 10.8039 243.397 10.991C244.485 11.1781 245.516 11.4774 246.491 11.889C247.504 12.3006 248.422 12.8805 249.247 13.6288C250.072 14.3397 250.729 15.2564 251.216 16.3789C251.704 17.4639 251.948 18.7922 251.948 20.3637V33.7772C251.948 35.5358 251.385 36.9202 250.26 37.9304C249.135 38.9032 247.579 39.5767 245.591 39.9508C243.603 40.3624 241.259 40.5682 238.559 40.5682Z" fill="#05164D"/>
<path d="M268.734 40.6243C265.809 40.6243 263.578 39.9134 262.04 38.4916C260.502 37.0324 259.734 34.9371 259.734 32.2058V17.0524H255.346V11.44H259.734V3.63879H267.103V11.44H273.685V17.0524H267.103V31.0833C267.103 32.2432 267.328 33.1037 267.778 33.665C268.228 34.2262 269.015 34.5068 270.141 34.5068C270.741 34.5068 271.359 34.4133 271.997 34.2262C272.672 34.0017 273.234 33.7398 273.685 33.4405V39.6141C272.934 39.9882 272.109 40.2502 271.209 40.3998C270.347 40.5495 269.522 40.6243 268.734 40.6243Z" fill="#05164D"/>
<path d="M291.26 40.5682C288.635 40.5682 286.348 40.1566 284.397 39.3335C282.485 38.4729 280.985 37.2008 279.897 35.5171C278.847 33.8333 278.322 31.6819 278.322 29.0628V11.44H285.466V28.3332C285.466 30.4285 285.935 31.9813 286.873 32.9915C287.81 34.0017 289.273 34.5068 291.26 34.5068C293.323 34.5068 294.804 34.0017 295.704 32.9915C296.642 31.9813 297.111 30.4285 297.111 28.3332V11.44H303.861V29.0628C303.861 32.9541 302.736 35.8538 300.486 37.762C298.273 39.6328 295.198 40.5682 291.26 40.5682Z" fill="#05164D"/>
<path d="M318.08 40.5682C316.054 40.5682 314.329 40.3437 312.904 39.8947C311.479 39.4831 310.11 38.978 308.798 38.3794V31.9813C309.66 32.5425 310.56 33.085 311.498 33.6089C312.473 34.0953 313.504 34.4881 314.592 34.7875C315.717 35.0868 316.917 35.2364 318.192 35.2364C319.692 35.2364 320.798 34.9558 321.511 34.3946C322.261 33.7959 322.636 33.085 322.636 32.2619C322.636 31.4761 322.355 30.8775 321.792 30.4659C321.23 30.0169 320.498 29.6428 319.598 29.3435C318.698 29.0441 317.742 28.7448 316.729 28.4455C315.792 28.221 314.836 27.9216 313.86 27.5475C312.923 27.1733 312.06 26.6682 311.273 26.0322C310.485 25.3961 309.848 24.5916 309.36 23.6188C308.91 22.6086 308.685 21.3926 308.685 19.9708C308.685 18.2871 309.023 16.8653 309.698 15.7054C310.373 14.5455 311.254 13.6101 312.342 12.8992C313.429 12.1883 314.629 11.6832 315.942 11.3839C317.254 11.0471 318.53 10.8788 319.767 10.8788C321.905 10.9536 323.63 11.2155 324.943 11.6645C326.255 12.0761 327.493 12.6186 328.655 13.2921L328.712 19.0728C327.399 18.3619 326.124 17.7258 324.886 17.1646C323.649 16.566 322.242 16.2666 320.667 16.2666C319.205 16.2666 318.061 16.5285 317.236 17.0524C316.448 17.5388 316.054 18.231 316.054 19.1289C316.054 19.9147 316.298 20.5507 316.786 21.0371C317.273 21.5235 317.911 21.8977 318.698 22.1596C319.486 22.4215 320.348 22.6834 321.286 22.9453C322.224 23.2073 323.199 23.5066 324.211 23.8433C325.224 24.1427 326.161 24.5916 327.024 25.1903C327.887 25.7889 328.58 26.5934 329.105 27.6036C329.668 28.5764 329.949 29.886 329.949 31.5323C329.912 33.7024 329.33 35.4609 328.205 36.8079C327.08 38.1175 325.599 39.0716 323.761 39.6702C321.961 40.2689 320.067 40.5682 318.08 40.5682Z" fill="#05164D"/>
<path d="M65.542 39.7265L56.0913 11.4401H63.7419L70.4924 34.9559L68.2984 35.1804L74.7677 11.4401H80.2806L86.6373 34.507H84.8934L91.5314 11.4401H98.9569L89.5062 39.7265H82.9808L76.7928 19.5219L78.0304 19.8587L72.1237 39.7265H65.542Z" fill="#5D2BFF"/>
<path d="M113.25 40.5683C108.6 40.5683 105.112 39.2775 102.787 36.6958C100.462 34.1141 99.2993 30.3912 99.2993 25.5272C99.2993 20.3264 100.481 16.5474 102.843 14.1902C105.243 11.833 108.694 10.6544 113.194 10.6544C116.344 10.6544 118.969 11.2156 121.07 12.3381C123.17 13.4232 124.726 15.0694 125.739 17.277C126.789 19.4845 127.314 22.2346 127.314 25.5272C127.314 30.3912 126.095 34.1141 123.657 36.6958C121.257 39.2775 117.788 40.5683 113.25 40.5683ZM113.25 34.7314C114.9 34.7314 116.232 34.3573 117.244 33.609C118.294 32.8607 119.063 31.813 119.551 30.466C120.038 29.0817 120.282 27.4354 120.282 25.5272C120.282 23.3945 120.02 21.6546 119.495 20.3077C119.007 18.9607 118.238 17.9692 117.188 17.3331C116.176 16.697 114.863 16.379 113.25 16.379C111.6 16.379 110.269 16.7157 109.256 17.3892C108.244 18.0627 107.494 19.0729 107.006 20.4199C106.556 21.7669 106.331 23.4693 106.331 25.5272C106.331 28.5204 106.875 30.8028 107.962 32.3743C109.05 33.9457 110.813 34.7314 113.25 34.7314Z" fill="#5D2BFF"/>
<path d="M131.701 39.7265V14.1902C132.226 13.8534 133.145 13.4044 134.457 12.8432C135.807 12.282 137.364 11.7956 139.126 11.384C140.889 10.935 142.67 10.7105 144.47 10.7105C145.821 10.7105 146.889 10.8228 147.677 11.0472C148.502 11.2343 149.14 11.4775 149.59 11.7769V17.1647C148.84 17.0525 147.977 16.9589 147.002 16.8841C146.064 16.8093 145.089 16.7906 144.077 16.828C143.102 16.828 142.145 16.8654 141.208 16.9402C140.308 17.0151 139.52 17.1086 138.845 17.2209V39.7265H131.701Z" fill="#5D2BFF"/>
<path d="M158.539 23.7312L169.508 11.4401H178.228L162.195 27.4915L158.539 23.7312ZM160.058 39.7265H152.97V0.776611H160.114L160.058 39.7265ZM163.658 20.9811L179.297 39.7265H170.24L158.595 25.7517L163.658 20.9811Z" fill="#5D2BFF"/>
<path d="M335.035 20.8274V12.9712H332.234V11.4365H339.737V12.9712H336.921V20.8274H335.035Z" fill="#05164D"/>
<path d="M340.596 20.8274V11.4365H342.538L345.784 16.1672L344.716 16.2516L348.114 11.4365H350V20.8274H348.128V12.9571L348.558 13.4639L345.215 18.0679L341.969 13.4499L342.413 13.0556V20.8274H340.596Z" fill="#05164D"/>
<path fill-rule="evenodd" clip-rule="evenodd" d="M5.21193 23.657C4.74929 27.5185 5.64589 31.4207 7.74768 34.6929C9.84946 37.9652 13.0252 40.4032 16.7292 41.588C20.4332 42.7729 24.4342 42.6306 28.0447 41.1857C31.6552 39.7407 34.6498 37.0833 36.5139 33.6701C38.378 30.2568 38.9952 26.3008 38.2595 22.4819C37.5238 18.6629 35.4811 15.2195 32.4824 12.7432C30.1446 10.8126 27.3395 9.56385 24.3739 9.1072L24.3739 12.1867C24.3739 13.5932 23.2338 14.7334 21.8274 14.7334C20.421 14.7334 19.2809 13.5932 19.2809 12.1867L19.2809 6.72942C19.2809 5.13436 20.5824 3.79151 22.2392 3.82276C27.1654 3.91567 31.9199 5.67314 35.7253 8.81562C39.6366 12.0456 42.301 16.5371 43.2606 21.5183C44.2202 26.4995 43.4152 31.6595 40.9837 36.1116C38.5523 40.5636 34.6463 44.0298 29.9369 45.9145C25.2276 47.7993 20.0089 47.9848 15.1776 46.4393C10.3463 44.8939 6.204 41.7139 3.46254 37.4457C0.72108 33.1776 -0.448399 28.0879 0.155051 23.051C0.7585 18.0142 3.0972 13.3448 6.76929 9.84523C7.78743 8.87491 9.39934 8.91374 10.3696 9.93196C11.3398 10.9502 11.301 12.5622 10.2829 13.5325C7.46758 16.2156 5.67458 19.7954 5.21193 23.657Z" fill="#05164D"/>
<path fill-rule="evenodd" clip-rule="evenodd" d="M12.7516 16.2065C13.7461 15.2119 15.3584 15.2119 16.3529 16.2065L24.3563 24.2105C25.3508 25.205 25.3508 26.8175 24.3563 27.8121C23.3618 28.8067 21.7494 28.8067 20.755 27.8121L12.7516 19.8081C11.7571 18.8135 11.7571 17.201 12.7516 16.2065Z" fill="#5D2BFF"/>
</svg>
