<?xml version="1.0" encoding="UTF-8"?>
<svg xmlns="http://www.w3.org/2000/svg" width="35" height="35" viewBox="0 0 35 35" fill="none">
  <path d="M0 16.601C0 13.8841 2.83701 11.6816 6.33664 11.6816H28.6634C32.163 11.6816 35 13.8841 35 16.601V23.7069C35 26.4238 32.163 28.6262 28.6634 28.6262H6.33664C2.83701 28.6262 0 26.4238 0 23.7069V16.601Z" fill="#E8FED6"></path>
  <path d="M17.5221 6.37109C14.9604 6.37109 12.873 8.36818 12.873 10.8191C12.873 13.2701 14.9604 15.2672 17.5221 15.2672C20.0838 15.2672 22.1712 13.2701 22.1712 10.8191C22.1712 8.36818 20.0838 6.37109 17.5221 6.37109Z" fill="#90D05D"></path>
  <path d="M21.8159 16.8779H13.2294C11.0235 16.8779 9.17334 18.58 9.17334 20.7586V24.3443H13.5615C13.3954 23.9131 13.2769 23.4365 13.2769 22.96C13.2769 20.804 15.1744 19.0339 17.499 19.0339C19.8235 19.0339 21.7211 20.7813 21.7211 22.96C21.7211 23.4592 21.6262 23.9131 21.4364 24.3443H25.8246V20.7359C25.872 18.58 24.0693 16.8779 21.8159 16.8779Z" fill="#90D05D"></path>
  <path d="M17.5466 21.7578C17.0722 21.7578 16.6689 22.1438 16.6689 22.5978C16.6689 23.0519 17.0722 23.4379 17.5466 23.4379C18.021 23.4379 18.4242 23.0519 18.4242 22.5978C18.4242 22.1211 18.021 21.7578 17.5466 21.7578Z" fill="#90D05D"></path>
  <path d="M17.5232 19.7373C15.6731 19.7373 14.155 21.167 14.155 22.9599C14.155 24.73 15.6494 26.1824 17.5232 26.1824C19.3971 26.1824 20.8914 24.7527 20.8914 22.9599C20.8677 21.167 19.3734 19.7373 17.5232 19.7373ZM17.6893 24.957C17.6655 24.9796 17.6181 25.0023 17.5707 25.0023C17.5232 25.0023 17.4995 24.9796 17.4521 24.957C15.8628 23.7769 15.9103 22.6875 15.934 22.5514C15.934 21.689 16.6693 20.9855 17.5707 20.9855C18.472 20.9855 19.2073 21.689 19.2073 22.5514C19.231 22.6875 19.2785 23.7769 17.6893 24.957Z" fill="#90D05D"></path>
</svg>
