<?xml version="1.0" encoding="UTF-8"?>
<svg xmlns="http://www.w3.org/2000/svg" width="36" height="36" viewBox="0 0 36 36" fill="none">
  <path d="M2.88721 18.7284C2.88721 16.258 5.34595 14.2554 8.37894 14.2554H27.7288C30.7618 14.2554 33.2205 16.258 33.2205 18.7284V25.1898C33.2205 27.6601 30.7618 29.6628 27.7288 29.6628H8.37894C5.34595 29.6628 2.88721 27.6601 2.88721 25.1898V18.7284Z" fill="#FFF6DC"></path>
  <path d="M28.8894 9.79762H11.0435V7.08239C11.0435 6.83549 10.7474 6.63818 10.4759 6.63818H8.87157C7.81029 6.63818 6.94629 7.50218 6.94629 8.58806V25.101C6.94629 25.3479 7.19319 25.6195 7.43991 25.6195H28.8895C29.0376 25.6195 29.161 25.496 29.161 25.3726V10.0691C29.1609 9.8962 29.0374 9.79754 28.8893 9.79754L28.8894 9.79762ZM7.9088 8.63751C7.9088 7.9958 8.37782 7.502 8.97008 7.502H10.0808V9.79744H8.97008C8.37778 9.79761 7.9088 9.27919 7.9088 8.63751ZM13.2403 19.5228C13.1417 19.7202 12.9934 19.8683 12.7961 19.967C12.6233 20.0904 12.4012 20.1644 12.1544 20.2139H12.1298V20.7569C12.1298 20.8555 12.0558 20.9298 11.9569 20.9298H11.3893C11.2906 20.9298 11.2164 20.8557 11.2164 20.7569L11.2162 20.3125C11.0434 20.3125 10.8461 20.2879 10.6486 20.2385C10.4511 20.1891 10.2784 20.1398 10.1301 20.0656C10.0561 20.041 10.0561 19.9916 10.0561 19.9175V19.251C10.0561 19.1276 10.1795 19.0289 10.303 19.103C10.4264 19.177 10.5499 19.251 10.6732 19.3005C10.9201 19.3745 11.1422 19.4239 11.3889 19.4239C11.537 19.4239 11.6604 19.4239 11.7591 19.3993C11.8577 19.3747 11.9566 19.3499 12.0306 19.3006C12.1046 19.2512 12.154 19.202 12.1787 19.1526C12.2033 19.1031 12.2281 19.0291 12.2281 18.9551C12.2281 18.8564 12.2035 18.7822 12.154 18.7082C12.1046 18.6341 12.0306 18.5601 11.9319 18.4861C11.8333 18.412 11.7098 18.3626 11.5864 18.2886C11.4629 18.2392 11.3149 18.1651 11.1668 18.1157C10.7718 17.9676 10.5003 17.7455 10.3028 17.5233C10.1053 17.3012 10.0066 17.0048 10.0066 16.6841C10.0066 16.4372 10.0561 16.2151 10.1547 16.0176C10.2534 15.8201 10.4016 15.6721 10.5743 15.5734C10.7472 15.45 10.9445 15.3759 11.1914 15.3019H11.216V14.7834C11.216 14.6848 11.29 14.6106 11.3889 14.6106H11.9565C12.0552 14.6106 12.1294 14.6846 12.1294 14.7834V15.2277C12.2775 15.2277 12.475 15.2523 12.5984 15.2771C12.7465 15.3017 12.944 15.3265 13.092 15.3757C13.1661 15.4003 13.2401 15.4744 13.2401 15.5238L13.2403 16.1164C13.2403 16.2399 13.0922 16.3139 12.9688 16.2645H12.9194C12.8207 16.2151 12.7219 16.1904 12.6232 16.1658C12.5246 16.1412 12.4257 16.1164 12.3023 16.0918C12.2036 16.0672 12.1048 16.0672 12.0061 16.0672C11.8827 16.0672 11.7592 16.0672 11.6606 16.0918C11.5619 16.1164 11.4631 16.1412 11.3891 16.1904C11.315 16.2399 11.2656 16.2891 11.2162 16.3385C11.1668 16.4126 11.1668 16.462 11.1668 16.536C11.1668 16.61 11.1914 16.6841 11.2408 16.7581C11.2902 16.8321 11.3395 16.8816 11.4383 16.9556C11.5123 17.005 11.6112 17.0791 11.7344 17.1285C11.8579 17.1779 11.9813 17.2519 12.1294 17.3013C12.3269 17.3754 12.4996 17.4742 12.6724 17.5729C12.8205 17.6715 12.9686 17.7703 13.0674 17.8938C13.1909 18.0172 13.2649 18.1407 13.3143 18.2888C13.3883 18.4368 13.413 18.6097 13.413 18.8072C13.413 19.1032 13.3637 19.3499 13.2403 19.5227L13.2403 19.5228ZM15.9554 21.1271C15.9554 21.1517 15.9554 21.1517 15.9308 21.1517H15.3137C15.2891 21.1517 15.2891 21.1517 15.2891 21.1271V20.584C15.2891 20.5594 15.2891 20.5594 15.3137 20.5594H15.9308C15.9308 20.5594 15.9554 20.5594 15.9554 20.584V21.1271ZM15.9554 19.0289C15.9554 19.0535 15.9554 19.0535 15.9308 19.0535H15.3137C15.2891 19.0535 15.2891 19.0535 15.2891 19.0289V18.5105C15.2891 18.4859 15.2891 18.4859 15.3137 18.4859H15.9308C15.9308 18.4859 15.9554 18.4859 15.9554 18.5105V19.0289ZM15.9554 16.9804C15.9554 17.005 15.9554 17.005 15.9308 17.005H15.3137C15.2891 17.005 15.2891 17.005 15.2891 16.9804V16.4619C15.2891 16.4373 15.2891 16.4373 15.3137 16.4373H15.9308C15.9308 16.4373 15.9554 16.4373 15.9554 16.4619V16.9804ZM15.9554 14.8576C15.9554 14.8822 15.9554 14.8822 15.9308 14.8822H15.3137C15.2891 14.8822 15.2891 14.8822 15.2891 14.8576V14.3392C15.2891 14.3146 15.2891 14.3146 15.3137 14.3146H15.9308L15.9554 14.3392V14.8576ZM25.6559 21.0531C25.6559 21.1025 25.6064 21.1517 25.5572 21.1517H16.77C16.7206 21.1517 16.6714 21.1023 16.6714 21.0531V20.6581C16.6714 20.6087 16.7208 20.5594 16.77 20.5594H25.5572C25.6066 20.5594 25.6559 20.6089 25.6559 20.6581V21.0531ZM25.6559 18.9549C25.6559 19.0043 25.6064 19.0536 25.5572 19.0536L16.77 19.0537C16.7206 19.0537 16.6714 19.0043 16.6714 18.9551V18.5847C16.6714 18.5353 16.7208 18.4861 16.77 18.4861H25.5572C25.6066 18.4861 25.6559 18.5355 25.6559 18.5847V18.9549ZM25.6559 16.931C25.6559 16.9804 25.6064 17.0296 25.5572 17.0296H16.77C16.7206 17.0296 16.6714 16.9802 16.6714 16.931V16.536C16.6714 16.4866 16.7208 16.4374 16.77 16.4374H25.5572C25.6066 16.4374 25.6559 16.4868 25.6559 16.536V16.931ZM25.6559 14.7836C25.6559 14.833 25.6064 14.8823 25.5572 14.8823H16.77C16.7206 14.8823 16.6714 14.8328 16.6714 14.7836V14.3886C16.6714 14.3392 16.7208 14.29 16.77 14.29H25.5572C25.6066 14.29 25.6559 14.3394 25.6559 14.3886V14.7836Z" fill="#FCCF76"></path>
</svg>
