<?xml version="1.0" encoding="UTF-8"?>
<svg xmlns="http://www.w3.org/2000/svg" width="31" height="27" viewBox="0 0 31 27" fill="none">
  <path d="M0.369141 15.6175C0.369141 13.1515 2.82789 11.1523 5.86087 11.1523H25.2107C28.2437 11.1523 30.7025 13.1515 30.7025 15.6175V22.0675C30.7025 24.5336 28.2437 26.5327 25.2107 26.5327H5.86087C2.82788 26.5327 0.369141 24.5336 0.369141 22.0675V15.6175Z" fill="#E4ECFF"></path>
  <path d="M23.2771 12.277H21.3294C20.8962 12.277 20.5457 12.628 20.5457 13.0607C20.5457 13.4935 20.8962 13.8445 21.3294 13.8445H23.2771C23.7881 13.8445 24.2037 14.2602 24.2037 14.7709V21.5294C24.2037 22.0399 23.7879 22.4557 23.2771 22.4557H7.92984C7.41887 22.4557 7.00322 22.0399 7.00322 21.5294V14.7709C7.00322 14.2602 7.41911 13.8443 7.92984 13.8443H9.87753C10.3105 13.8443 10.6613 13.4938 10.6613 13.0607C10.6613 12.6277 10.3105 12.277 9.87753 12.277H7.92984C6.55452 12.277 5.43613 13.3951 5.43613 14.7704V21.5284C5.43613 22.904 6.55449 24.0226 7.92984 24.0226H23.2771C24.6525 24.0226 25.7711 22.904 25.7711 21.5287V14.7704C25.7711 13.3953 24.6524 12.277 23.2771 12.277Z" fill="#7DA1F5" stroke="#7DA1F5" stroke-width="0.2"></path>
  <path d="M13.5021 14.954C14.0907 15.8644 15.2644 17.1075 15.2644 17.1075C15.4505 17.3054 15.7563 17.3059 15.9433 17.1099C15.9433 17.1099 17.074 15.9239 17.6511 15.0342C18.106 14.3342 18.4973 13.6867 18.8333 13.0814C20.1019 10.7906 20.5644 9.10145 20.5644 7.45173C20.5647 4.81176 18.2428 2.67188 15.603 2.67188C12.9633 2.67188 10.6414 4.81176 10.6414 7.45149C10.6414 9.00204 11.0496 10.5875 12.1525 12.6743C12.521 13.3725 12.9673 14.1266 13.5021 14.954ZM15.603 5.57133C16.6913 5.57133 17.5755 6.45486 17.5755 7.54405C17.5755 8.63324 16.6915 9.51653 15.603 9.51653C14.5138 9.51653 13.6305 8.63324 13.6305 7.54405C13.6305 6.45486 14.5138 5.57133 15.603 5.57133Z" fill="#7DA1F5"></path>
</svg>
