<?xml version="1.0" encoding="UTF-8"?>
<svg xmlns="http://www.w3.org/2000/svg" width="36" height="36" viewBox="0 0 36 36" fill="none">
  <path d="M27.5324 12.6982H8.08569C4.2197 12.6982 1.08569 15.8322 1.08569 19.6982V23.1394C1.08569 27.0054 4.2197 30.1394 8.08569 30.1394H27.5324C31.3984 30.1394 34.5324 27.0054 34.5324 23.1394V19.6982C34.5324 15.8322 31.3984 12.6982 27.5324 12.6982Z" fill="#E4ECFF"></path>
  <path d="M17.8089 18.1861C19.1583 18.1861 20.2707 17.0735 20.2707 15.7243C20.2707 15.1799 20.0813 14.6353 19.7499 14.2093L23.5136 10.4456C23.9634 10.848 24.5552 11.0848 25.147 11.0848C26.4963 11.0848 27.6087 9.97224 27.6087 8.62305C27.6089 7.27352 26.4963 6.16113 25.1472 6.16113C23.7978 6.16113 22.6852 7.27352 22.6852 8.62288C22.6852 8.93066 22.7326 9.19104 22.851 9.49868L18.8505 13.4992C18.5191 13.3334 18.1641 13.2624 17.8089 13.2624C16.4596 13.2624 15.3472 14.375 15.3472 15.7242C15.3472 17.0737 16.4596 18.1861 17.8089 18.1861L17.8089 18.1861Z" fill="#7DA1F5"></path>
  <path d="M17.8089 11.0846C19.1583 11.0846 20.2707 9.97207 20.2707 8.62288C20.2707 7.27352 19.1583 6.16113 17.8089 6.16113C16.4596 6.16113 15.3472 7.27352 15.3472 8.62288C15.3472 9.97224 16.4596 11.0846 17.8089 11.0846Z" fill="#7DA1F5"></path>
  <path d="M25.1468 13.2627C23.7974 13.2627 22.6851 14.3753 22.6851 15.7244C22.6849 17.0738 23.7974 18.1862 25.1468 18.1862C26.496 18.1862 27.6086 17.0738 27.6086 15.7244C27.6086 14.3751 26.496 13.2627 25.1468 13.2627Z" fill="#7DA1F5"></path>
  <path d="M10.471 20.3643C9.12167 20.3643 8.00928 21.4768 8.00928 22.826C8.00928 24.1754 9.12183 25.2877 10.471 25.2877C11.8204 25.2877 12.9329 24.1754 12.9329 22.826C12.9329 21.4766 11.8204 20.3643 10.471 20.3643Z" fill="#7DA1F5"></path>
  <path d="M25.1475 20.3638C24.0113 20.3638 23.0171 21.145 22.7567 22.2576L20.2 22.2574C19.9396 21.1449 18.9454 20.3637 17.8093 20.3637C17.0991 20.3637 16.4363 20.6714 15.9865 21.1923L12.1992 17.4522C12.649 16.9788 12.9094 16.3632 12.9094 15.7242C12.9094 14.588 12.1282 13.5938 11.0156 13.3334V11.0137C12.1282 10.7533 12.9094 9.75907 12.9094 8.62288C12.9094 7.27352 11.7968 6.16113 10.4476 6.16113C9.09825 6.16097 8.00928 7.27335 8.00928 8.62271C8.00928 9.7589 8.79044 10.7531 9.90304 11.0135V13.3332C8.79048 13.5936 8.00928 14.5878 8.00928 15.724C8.00928 17.0734 9.12184 18.1858 10.471 18.1858C10.7314 18.1858 10.9918 18.1384 11.2286 18.0674L15.4185 22.2573C15.3711 22.4703 15.3475 22.636 15.3475 22.849C15.3475 24.1984 16.46 25.3108 17.8092 25.3108C18.9454 25.3108 19.9396 24.5296 20.2 23.417H22.7565C23.0169 24.5296 24.0111 25.3108 25.1473 25.3108C26.4966 25.3108 27.609 24.1982 27.609 22.849C27.6092 21.5 26.4966 20.3638 25.1475 20.3638L25.1475 20.3638Z" fill="#7DA1F5"></path>
</svg>
