<?xml version="1.0" encoding="UTF-8"?>
<svg xmlns="http://www.w3.org/2000/svg" width="36" height="36" viewBox="0 0 36 36" fill="none">
  <path d="M29.1306 16.8589H6.97679C4.25785 16.8589 2.05371 19.1512 2.05371 21.9789V27.5065C2.05371 30.3342 4.25785 32.6265 6.97679 32.6265H29.1306C31.8496 32.6265 34.0537 30.3342 34.0537 27.5065V21.9789C34.0537 19.1512 31.8496 16.8589 29.1306 16.8589Z" fill="#E4ECFF"></path>
  <path fill-rule="evenodd" clip-rule="evenodd" d="M11.501 21.9268C10.7212 21.9268 10.1247 22.6498 10.2427 23.4521L11.0464 28.9174C11.1415 29.5642 11.676 30.0418 12.3047 30.0418H24.0075C24.6506 30.0418 25.1927 29.5424 25.271 28.8779L25.9139 23.4127C26.0068 22.623 25.4148 21.9268 24.6505 21.9268H11.501ZM19.1843 23.2537C19.216 23.5544 19.101 23.856 18.9305 24.073C18.76 24.2896 18.4802 24.4584 18.2063 24.4361C18.1688 24.1415 18.3073 23.8344 18.4652 23.6427C18.6415 23.4257 18.9388 23.264 19.1843 23.2537ZM20.0727 25.0032L20.0703 25.0048C20.026 25.0332 19.5396 25.3453 19.545 25.9793C19.5518 26.7556 20.193 27.0139 20.2005 27.0171L20.1996 27.0203C20.1878 27.0605 20.0893 27.3982 19.8626 27.7468C19.6588 28.0591 19.4478 28.3705 19.1151 28.3773C18.9553 28.3803 18.8485 28.3316 18.7374 28.2811C18.6211 28.2283 18.5002 28.1732 18.3091 28.1732C18.109 28.1732 17.9826 28.2299 17.8607 28.2844C17.755 28.3317 17.6528 28.3774 17.509 28.3834C17.1878 28.3963 16.9434 28.0455 16.7382 27.7342C16.319 27.0973 15.9984 25.9343 16.4289 25.1497C16.6425 24.7598 17.0244 24.5131 17.4392 24.5066C17.6178 24.5029 17.7911 24.5751 17.9426 24.6382C18.0583 24.6864 18.1614 24.7294 18.2449 24.7294C18.3196 24.7294 18.42 24.6878 18.537 24.6393C18.7213 24.563 18.947 24.4696 19.1794 24.4943C19.3388 24.5014 19.7857 24.5619 20.0727 25.0032Z" fill="#7DA1F5"></path>
  <path d="M18.0539 3.6748C15.0869 3.6748 12.6838 6.17606 12.6838 9.26431C12.6838 12.3524 15.0869 14.8537 18.0539 14.8537C21.0208 14.8537 23.4238 12.3524 23.4238 9.26431C23.4238 6.17606 21.0208 3.6748 18.0539 3.6748Z" fill="#7DA1F5"></path>
  <path d="M18.0538 16.251C14.4693 16.251 7.31372 18.1234 7.31372 21.8405V26.0325H9.54128L8.98436 22.0578C8.98436 21.1469 9.55427 20.6501 10.2573 20.6501L25.9298 20.5673C26.6327 20.5673 27.2026 21.1605 27.2026 21.8922L26.7253 26.0325H28.7938V21.8405C28.7938 18.1234 21.6383 16.251 18.0538 16.251Z" fill="#7DA1F5"></path>
</svg>
