<?xml version="1.0" encoding="UTF-8"?>
<svg xmlns="http://www.w3.org/2000/svg" width="36" height="36" viewBox="0 0 36 36" fill="none">
  <path d="M27.8754 10.1206H8.42871C4.56272 10.1206 1.42871 13.2546 1.42871 17.1206V20.4827C1.42871 24.3487 4.56272 27.4827 8.42871 27.4827H27.8754C31.7414 27.4827 34.8754 24.3487 34.8754 20.4827V17.1206C34.8754 13.2546 31.7414 10.1206 27.8754 10.1206Z" fill="#FFECEC"></path>
  <path fill-rule="evenodd" clip-rule="evenodd" d="M17.9536 23.3185C19.9209 23.318 21.8074 22.5363 23.1985 21.1453C24.5896 19.7542 25.3713 17.8677 25.3717 15.9004C25.3713 13.9331 24.5896 12.0466 23.1985 10.6555C21.8074 9.26443 19.9209 8.48274 17.9536 8.48229C15.9863 8.48274 14.0998 9.26443 12.7087 10.6555C11.3177 12.0466 10.536 13.9331 10.5355 15.9004C10.536 17.8677 11.3177 19.7542 12.7087 21.1453C14.0998 22.5363 15.9863 23.318 17.9536 23.3185ZM17.9536 25.5005C23.2554 25.5005 27.5537 21.2022 27.5537 15.9004C27.5537 10.5986 23.2554 6.30029 17.9536 6.30029C12.6518 6.30029 8.35352 10.5986 8.35352 15.9004C8.35352 21.2022 12.6518 25.5005 17.9536 25.5005Z" fill="#FF9696"></path>
  <path d="M17.1628 21.1366H18.5875V19.7823C19.923 19.4632 20.5719 18.4921 20.5719 17.253C20.5719 14.9281 17.2904 14.8769 17.2904 13.9062C17.2904 13.3955 17.5575 13.2419 18.1045 13.2419C18.5751 13.2419 18.9694 13.4463 19.4272 13.855L20.5084 12.6032C19.9998 12.0669 19.3892 11.6581 18.5879 11.5301V10.2271H17.1633V11.5557C15.9293 11.8241 15.2044 12.718 15.2044 14.0082C15.2044 16.2435 18.4859 16.3843 18.4859 17.4062C18.4859 17.9046 18.2317 18.1217 17.5955 18.1217C17.0613 18.1217 16.5271 17.9174 15.8402 17.4062L14.8989 18.888C15.5347 19.4628 16.4379 19.7695 17.1628 19.8587V21.1362V21.1366Z" fill="#FF9696"></path>
</svg>
