<?xml version="1.0" encoding="UTF-8"?>
<svg xmlns="http://www.w3.org/2000/svg" width="36" height="36" viewBox="0 0 36 36" fill="none">
  <path d="M2.64233 16.6244C2.64233 14.154 5.10108 12.1514 8.13407 12.1514H27.4839C30.5169 12.1514 32.9757 14.154 32.9757 16.6244V23.0858C32.9757 25.5561 30.5169 27.5588 27.4839 27.5588H8.13407C5.10107 27.5588 2.64233 25.5561 2.64233 23.0858V16.6244Z" fill="#E8FED6"></path>
  <path d="M26.6864 12.3098V9.80653C26.6864 9.22071 26.207 8.74134 25.6212 8.74134L10.7074 8.74121C10.1215 8.74121 9.64209 9.22058 9.64209 9.80654V12.3098L26.6864 12.3098ZM18.191 10.3924H25.3548C25.5146 10.3924 25.6211 10.4988 25.6211 10.6587C25.6211 10.8185 25.5146 10.925 25.3548 10.925L18.191 10.9251C18.0312 10.9251 17.9247 10.8186 17.9247 10.6588C17.9247 10.499 18.0312 10.3924 18.191 10.3924V10.3924ZM16.3268 9.93959C16.7263 9.93959 17.0458 10.2591 17.0458 10.6586C17.0458 11.0582 16.7263 11.3777 16.3268 11.3777C15.9272 11.3777 15.6077 11.0582 15.6077 10.6586C15.6077 10.2593 15.9274 9.93959 16.3268 9.93959ZM14.0099 9.93959C14.4094 9.93959 14.729 10.2591 14.729 10.6586C14.729 11.0582 14.4094 11.3777 14.0099 11.3777C13.6104 11.3777 13.2909 11.0582 13.2909 10.6586C13.2909 10.2593 13.6104 9.93959 14.0099 9.93959ZM11.6929 9.93959C12.0924 9.93959 12.412 10.2591 12.412 10.6586C12.412 11.0582 12.0924 11.3777 11.6929 11.3777C11.2934 11.3777 10.9739 11.0582 10.9739 10.6586C10.9739 10.2593 11.2934 9.93959 11.6929 9.93959Z" fill="#90D05D"></path>
  <path d="M9.64209 12.8408V24.7185C9.64209 25.3043 10.1215 25.7837 10.7073 25.7837H25.6207C26.2065 25.7837 26.6859 25.3043 26.6859 24.7185L26.6862 12.8408H9.64209ZM22.9579 15.0512L23.5171 13.906L24.0763 15.0512L25.328 15.2377L24.4225 16.1166L24.6355 17.3682L23.517 16.7824L22.3984 17.3682L22.6115 16.1166L21.706 15.2377L22.9579 15.0512ZM17.6051 15.0512L18.1643 13.906L18.7235 15.0512L19.9752 15.2377L19.0697 16.1166L19.2827 17.3682L18.1643 16.8089L17.0457 17.3947L17.2588 16.143L16.3533 15.2641L17.6051 15.0512ZM12.2255 15.0512L12.7848 13.906L13.344 15.0512L14.5956 15.2377L13.6901 16.1166L13.9032 17.3682L12.7846 16.7824L11.6661 17.3682L11.8791 16.1166L10.9739 15.2377L12.2255 15.0512ZM25.3551 24.4519H10.974V18.7262H25.3551V24.4519Z" fill="#90D05D"></path>
  <path d="M19.8679 22.0536L19.2287 22.3997C19.0688 22.5062 18.9358 22.3997 18.9091 22.2932L18.5896 21.654C18.5364 21.5476 18.563 21.3877 18.6961 21.3345C18.8293 21.2813 18.9624 21.3345 19.0156 21.441L19.0688 21.5474C19.0955 21.0947 18.8824 20.6153 18.4562 20.3756C18.3498 20.2958 18.2964 20.1626 18.3764 20.0295C18.4562 19.923 18.5895 19.8697 18.7225 19.9496C19.3617 20.3226 19.6547 21.0148 19.5748 21.6807L19.6813 21.6274C19.8145 21.5742 19.9476 21.6008 20.0008 21.7339C20.0277 21.8405 20.0011 22.0003 19.8679 22.0536H19.8679Z" fill="#90D05D"></path>
  <path d="M16.3505 21.6824C16.2173 21.6824 16.1108 21.5759 16.1108 21.4427C16.1108 20.7236 16.5636 20.0844 17.2028 19.8448L17.123 19.7915C17.0165 19.7117 16.9631 19.5785 17.0431 19.4454C17.123 19.3389 17.2562 19.3122 17.3892 19.3655L17.9751 19.7385C18.0815 19.8183 18.1349 19.9515 18.0283 20.0846L17.6554 20.6704C17.5755 20.7769 17.4157 20.8036 17.3092 20.7503C17.2028 20.6704 17.1494 20.5106 17.2294 20.4041L17.2826 20.2977C16.8565 20.4841 16.5636 20.9103 16.5636 21.4162C16.5902 21.5759 16.4837 21.6824 16.3505 21.6824L16.3505 21.6824Z" fill="#90D05D"></path>
  <path d="M18.8036 22.5898C18.8834 22.6963 18.8302 22.8561 18.7237 22.9359C18.0845 23.3088 17.3389 23.2288 16.7797 22.8027V22.9092C16.7797 23.0424 16.6732 23.1489 16.5134 23.1489C16.3801 23.1489 16.2737 23.0156 16.2737 22.8826L16.3003 22.1635C16.3269 22.0303 16.4068 21.9238 16.5666 21.9238L17.2856 21.9504C17.4189 21.9504 17.5253 22.0837 17.5253 22.2167C17.5253 22.35 17.3921 22.4564 17.259 22.4564H17.1258C17.4987 22.7227 18.0313 22.776 18.4575 22.5097C18.5905 22.4301 18.7236 22.4833 18.8036 22.5898L18.8036 22.5898Z" fill="#90D05D"></path>
</svg>
