<?xml version="1.0" encoding="UTF-8"?>
<svg xmlns="http://www.w3.org/2000/svg" width="33" height="27" viewBox="0 0 33 27" fill="none">
  <path d="M27.1131 7.39844H4.95921C2.24027 7.39844 0.0361328 9.69074 0.0361328 12.5184V18.0461C0.0361328 20.8738 2.24027 23.1661 4.95921 23.1661H27.1131C29.832 23.1661 32.0361 20.8738 32.0361 18.0461V12.5184C32.0361 9.69074 29.832 7.39844 27.1131 7.39844Z" fill="#E8FED6"></path>
  <path d="M15.7284 0.448242C12.7615 0.448242 10.3584 2.9495 10.3584 6.03775C10.3584 9.12587 12.7615 11.6271 15.7284 11.6271C18.6953 11.6271 21.0984 9.12587 21.0984 6.03775C21.0984 2.9495 18.6953 0.448242 15.7284 0.448242Z" fill="#90D05D"></path>
  <path d="M15.7283 13.0244C12.1438 13.0244 4.98828 14.8969 4.98828 18.6139V22.806H7.21584L6.65892 18.8313C6.65892 17.9204 7.22883 17.4235 7.93184 17.4235L23.6043 17.3407C24.3073 17.3407 24.8772 17.9339 24.8772 18.6656L24.3998 22.806H26.4683V18.6139C26.4683 14.8969 19.3128 13.0244 15.7283 13.0244Z" fill="#90D05D"></path>
  <path fill-rule="evenodd" clip-rule="evenodd" d="M9.17554 18.7002C8.39579 18.7002 7.7993 19.4233 7.91727 20.2256L8.72096 25.6909C8.8161 26.3376 9.35056 26.8153 9.97923 26.8153H21.6821C22.3252 26.8153 22.8673 26.3159 22.9455 25.6514L23.5885 20.1861C23.6813 19.3965 23.0893 18.7002 22.325 18.7002H9.17554ZM16.8589 20.0272C16.8906 20.3278 16.7755 20.6295 16.605 20.8464C16.4346 21.063 16.1548 21.2318 15.8809 21.2095C15.8434 20.915 15.9819 20.6078 16.1397 20.4161C16.316 20.1991 16.6133 20.0375 16.8589 20.0272ZM17.7473 21.7767L17.7449 21.7782C17.7005 21.8066 17.2141 22.1188 17.2195 22.7527C17.2263 23.529 17.8676 23.7873 17.875 23.7905L17.8741 23.7938C17.8624 23.834 17.7639 24.1717 17.5371 24.5202C17.3334 24.8325 17.1223 25.1439 16.7896 25.1507C16.6299 25.1537 16.5231 25.1051 16.412 25.0546C16.2957 25.0017 16.1748 24.9467 15.9837 24.9467C15.7835 24.9467 15.6571 25.0033 15.5352 25.0578C15.4296 25.1051 15.3274 25.1508 15.1836 25.1568C14.8623 25.1698 14.618 24.819 14.4127 24.5076C13.9936 23.8707 13.673 22.7077 14.1034 21.9231C14.317 21.5332 14.6989 21.2865 15.1138 21.28C15.2924 21.2764 15.4656 21.3485 15.6172 21.4116C15.7328 21.4598 15.836 21.5028 15.9194 21.5028C15.9942 21.5028 16.0946 21.4613 16.2116 21.4128C16.3959 21.3365 16.6215 21.243 16.854 21.2677C17.0134 21.2749 17.4602 21.3353 17.7473 21.7767Z" fill="#90D05D"></path>
  <path d="M15.7284 0.448242C12.7615 0.448242 10.3584 2.9495 10.3584 6.03775C10.3584 9.12587 12.7615 11.6271 15.7284 11.6271C18.6953 11.6271 21.0984 9.12587 21.0984 6.03775C21.0984 2.9495 18.6953 0.448242 15.7284 0.448242Z" fill="#90D05D"></path>
  <path d="M15.7283 13.0244C12.1438 13.0244 4.98828 14.8969 4.98828 18.6139V22.806H7.21584L6.65892 18.8313C6.65892 17.9204 7.22883 17.4235 7.93184 17.4235L23.6043 17.3407C24.3073 17.3407 24.8772 17.9339 24.8772 18.6656L24.3998 22.806H26.4683V18.6139C26.4683 14.8969 19.3128 13.0244 15.7283 13.0244Z" fill="#90D05D"></path>
</svg>
