<?xml version="1.0" encoding="UTF-8"?>
<svg xmlns="http://www.w3.org/2000/svg" width="36" height="36" viewBox="0 0 36 36" fill="none">
  <path d="M1.43616 14.9739C1.43616 12.3299 4.00472 10.1865 7.17322 10.1865H27.3873C30.5558 10.1865 33.1244 12.3299 33.1244 14.9739V21.8894C33.1244 24.5334 30.5558 26.6768 27.3873 26.6768H7.17322C4.00472 26.6768 1.43616 24.5334 1.43616 21.8894V14.9739Z" fill="#FFECEC"></path>
  <path d="M17.3743 27.4238C22.2068 27.4238 26.1243 23.5529 26.1243 18.7778C26.1243 14.0028 22.2068 10.1318 17.3743 10.1318C12.5418 10.1318 8.62427 14.0028 8.62427 18.7778C8.62427 23.5529 12.5418 27.4238 17.3743 27.4238Z" fill="#FF9696"></path>
  <path d="M17.3743 25.3489C21.047 25.3489 24.0243 22.407 24.0243 18.778C24.0243 15.1489 21.047 12.207 17.3743 12.207C13.7016 12.207 10.7243 15.1489 10.7243 18.778C10.7243 22.407 13.7016 25.3489 17.3743 25.3489Z" fill="#FFECEC"></path>
  <path d="M17.3743 23.965C20.2738 23.965 22.6243 21.6425 22.6243 18.7774C22.6243 15.9124 20.2738 13.5898 17.3743 13.5898C14.4748 13.5898 12.1243 15.9124 12.1243 18.7774C12.1243 21.6425 14.4748 23.965 17.3743 23.965Z" fill="#FF9696"></path>
  <path d="M17.3743 13.5898C18.3083 13.5898 19.2255 13.8361 20.0311 14.3032C20.8367 14.7703 21.5017 15.4413 21.9573 16.247L17.3743 18.7774V13.5898Z" fill="#F6B8B8"></path>
  <path d="M18.4243 8.74805H15.6243V11.5148H18.4243V8.74805Z" fill="#FF9696"></path>
  <path d="M20.5243 7.36523H13.5243V9.44027H20.5243V7.36523Z" fill="#FF9696"></path>
</svg>
