<?xml version="1.0" encoding="UTF-8"?>
<svg xmlns="http://www.w3.org/2000/svg" width="31" height="25" viewBox="0 0 31 25" fill="none">
  <path d="M0.369141 13.6195C0.369141 11.1534 2.82789 9.1543 5.86087 9.1543H25.2107C28.2437 9.1543 30.7025 11.1534 30.7025 13.6195V20.0695C30.7025 22.5355 28.2437 24.5346 25.2107 24.5346H5.86087C2.82788 24.5346 0.369141 22.5355 0.369141 20.0695V13.6195Z" fill="#FFF6DC"></path>
  <path d="M16.8547 11.2246H14.1807C13.8682 11.2246 13.5557 11.5719 13.5557 11.9886V14.6625C13.5557 14.732 13.6251 14.8014 13.6946 14.8014H14.0766V13.3777C14.0766 13.204 14.2155 13.0304 14.4238 13.0304C14.6322 13.0304 14.7711 13.204 14.7711 13.3777V16.3294H16.2296V13.3429C16.2296 13.1693 16.3685 12.9957 16.5769 12.9957C16.7505 12.9957 16.9241 13.1693 16.9241 13.3429V14.7667H17.3061C17.3756 14.7667 17.445 14.6973 17.445 14.6278V11.9539C17.4798 11.5719 17.2019 11.2246 16.8547 11.2246Z" fill="#FCCF76"></path>
  <path d="M15.5358 9.66359C15.9525 9.66359 16.265 9.31633 16.265 8.93434C16.265 8.51762 15.9525 8.20508 15.5358 8.20508C15.1191 8.20508 14.8065 8.55234 14.8065 8.93434C14.8065 9.31633 15.1191 9.66359 15.5358 9.66359Z" fill="#FCCF76"></path>
  <path d="M15.5351 5.94727C12.0624 5.94727 9.21484 8.79484 9.21484 12.2675C9.21484 15.7401 12.0624 18.5877 15.5351 18.5877C19.0077 18.5877 21.8553 15.7401 21.8553 12.2675C21.8553 8.79484 19.0077 5.94727 15.5351 5.94727ZM15.5351 7.47523C16.3338 7.47523 16.9589 8.13504 16.9589 8.89902C16.9589 9.69773 16.3338 10.3228 15.5351 10.3228C14.7364 10.3228 14.1113 9.663 14.1113 8.89902C14.1113 8.13504 14.7364 7.47523 15.5351 7.47523ZM18.1743 14.6636C18.1743 15.1151 17.7923 15.4971 17.3408 15.4971H16.9589V16.3652C16.9589 16.7472 16.6463 17.0598 16.2643 17.0598H14.8405C14.4585 17.0598 14.146 16.7472 14.146 16.3652V15.4971H13.764C13.3126 15.4971 12.9306 15.1151 12.9306 14.6636V11.9897C12.9306 11.191 13.5209 10.5312 14.2502 10.5312H16.9241C17.6534 10.5312 18.2437 11.191 18.2437 11.9897V14.6636H18.1743Z" fill="#FCCF76"></path>
  <path d="M15.5348 4.34863C15.3265 4.34863 15.1876 4.48754 15.1876 4.6959V5.3557C15.1876 5.56406 15.3265 5.70297 15.5348 5.70297C15.7085 5.70297 15.8821 5.56406 15.8821 5.3557V4.6959C15.8821 4.48754 15.7085 4.34863 15.5348 4.34863Z" fill="#FCCF76"></path>
  <path d="M14.7708 2.57887L15.1875 2.16215C15.1875 2.19687 15.1875 3.75957 15.1875 3.65539C15.1875 3.86375 15.3264 4.00265 15.5348 4.00265C15.7084 4.00265 15.882 3.86375 15.882 3.65539C15.882 3.51648 15.882 2.12742 15.882 2.16215L16.2987 2.57887C16.4376 2.71777 16.646 2.71777 16.7849 2.57887C16.9238 2.43996 16.9238 2.2316 16.7849 2.09269L15.7778 1.08562C15.6389 0.946719 15.4306 0.946719 15.2917 1.08562L14.2846 2.09269C14.1457 2.2316 14.1457 2.43996 14.2846 2.57887C14.4235 2.71777 14.6319 2.71777 14.7708 2.57887Z" fill="#FCCF76"></path>
  <path d="M15.5348 20.1854C15.7431 20.1854 15.882 20.0465 15.882 19.8381V19.1783C15.882 18.97 15.7431 18.8311 15.5348 18.8311C15.3611 18.8311 15.1875 18.97 15.1875 19.1783V19.8381C15.1875 20.0465 15.3611 20.1854 15.5348 20.1854Z" fill="#FCCF76"></path>
  <path d="M16.2987 21.957L15.882 22.3737C15.882 22.339 15.882 20.7763 15.882 20.8805C15.882 20.6721 15.7431 20.5332 15.5348 20.5332C15.3611 20.5332 15.1875 20.6721 15.1875 20.8805C15.1875 21.0194 15.1875 22.4084 15.1875 22.3737L14.7708 21.957C14.6319 21.8181 14.4235 21.8181 14.2846 21.957C14.1457 22.0959 14.1457 22.3043 14.2846 22.4432L15.2917 23.4502C15.3611 23.5197 15.4653 23.5544 15.5348 23.5544C15.6389 23.5544 15.7084 23.5197 15.7778 23.4502L16.7849 22.4432C16.9238 22.3043 16.9238 22.0959 16.7849 21.957C16.646 21.8181 16.4376 21.8181 16.2987 21.957Z" fill="#FCCF76"></path>
  <path d="M10.3955 7.61406C10.5344 7.75297 10.7427 7.75297 10.8816 7.61406C11.0205 7.47516 11.0205 7.2668 10.8816 7.12789L10.4302 6.67645C10.2913 6.53754 10.0829 6.53754 9.94402 6.67645C9.80512 6.81535 9.80512 7.02371 9.94402 7.16262L10.3955 7.61406Z" fill="#FCCF76"></path>
  <path d="M7.79148 6.32925C7.99984 6.32925 8.13874 6.19035 8.13874 5.98199V5.39164C8.17347 5.42637 9.24999 6.50289 9.18054 6.43343C9.31945 6.57234 9.52781 6.57234 9.66671 6.43343C9.80562 6.29453 9.80562 6.08617 9.66671 5.94726C9.52781 5.80836 8.59019 4.87074 8.62492 4.90547H9.21527C9.42363 4.90547 9.56253 4.76656 9.56253 4.5582C9.56253 4.34984 9.42363 4.21094 9.21527 4.21094H7.79148C7.58312 4.21094 7.44421 4.34984 7.44421 4.5582V5.98199C7.44421 6.15562 7.61785 6.32925 7.79148 6.32925Z" fill="#FCCF76"></path>
  <path d="M20.6735 16.9196C20.5346 16.7807 20.3262 16.7807 20.1873 16.9196C20.0484 17.0585 20.0484 17.2669 20.1873 17.4058L20.6388 17.8572C20.7777 17.9961 20.986 17.9961 21.1249 17.8572C21.2638 17.7183 21.2638 17.51 21.1249 17.3711L20.6735 16.9196Z" fill="#FCCF76"></path>
  <path d="M23.2782 18.2054C23.0699 18.2054 22.931 18.3443 22.931 18.5527V19.143C22.8962 19.1083 21.8197 18.0318 21.8892 18.1012C21.7503 17.9623 21.5419 17.9623 21.403 18.1012C21.2641 18.2402 21.2641 18.4485 21.403 18.5874C21.5419 18.7263 22.4795 19.6639 22.4448 19.6292H21.8545C21.6461 19.6292 21.5072 19.7681 21.5072 19.9765C21.5072 20.1848 21.6461 20.3237 21.8545 20.3237H23.2782C23.4866 20.3237 23.6255 20.1848 23.6255 19.9765V18.5527C23.6255 18.3791 23.4519 18.2054 23.2782 18.2054Z" fill="#FCCF76"></path>
  <path d="M6.92297 11.9202C6.92297 11.9202 5.395 11.9202 5.42973 11.9202L5.84644 11.5034C5.98535 11.3645 5.98535 11.1562 5.84644 11.0173C5.70754 10.8784 5.49918 10.8784 5.36027 11.0173L4.3532 12.0243C4.2143 12.1632 4.2143 12.3716 4.3532 12.5105L5.36027 13.5176C5.49918 13.6565 5.70754 13.6565 5.84644 13.5176C5.98535 13.3787 5.98535 13.1703 5.84644 13.0314L5.42973 12.6147H6.92297C7.0966 12.6147 7.27023 12.4758 7.27023 12.2674C7.27023 12.0938 7.0966 11.9202 6.92297 11.9202Z" fill="#FCCF76"></path>
  <path d="M7.96372 11.9199C7.75536 11.9199 7.61646 12.0588 7.61646 12.2672C7.61646 12.4755 7.75536 12.6145 7.96372 12.6145H8.62352C8.79716 12.6145 8.97079 12.4755 8.97079 12.2672C8.97079 12.0588 8.83188 11.9199 8.62352 11.9199H7.96372Z" fill="#FCCF76"></path>
  <path d="M23.1042 12.6145C23.3125 12.6145 23.4514 12.4755 23.4514 12.2672C23.4514 12.0588 23.3125 11.9199 23.1042 11.9199H22.4791C22.3055 11.9199 22.1318 12.0588 22.1318 12.2672C22.1318 12.4755 22.2707 12.6145 22.4791 12.6145H23.1042Z" fill="#FCCF76"></path>
  <path d="M26.7176 12.0243L25.7106 11.0173C25.5717 10.8784 25.3633 10.8784 25.2244 11.0173C25.0855 11.1562 25.0855 11.3645 25.2244 11.5034L25.6411 11.9202C25.6064 11.9202 24.0437 11.9202 24.1479 11.9202C23.9742 11.9202 23.8006 12.0591 23.8006 12.2674C23.8006 12.4758 23.9395 12.6147 24.1479 12.6147C24.2868 12.6147 25.6758 12.6147 25.6411 12.6147L25.2244 13.0314C25.0855 13.1703 25.0855 13.3787 25.2244 13.5176C25.3633 13.6565 25.5717 13.6565 25.7106 13.5176L26.7176 12.5105C26.8565 12.3716 26.8565 12.1632 26.7176 12.0243Z" fill="#FCCF76"></path>
  <path d="M10.3955 16.9196L9.94402 17.3711C9.80512 17.51 9.80512 17.7183 9.94402 17.8572C10.0829 17.9961 10.2913 17.9961 10.4302 17.8572L10.8816 17.4058C11.0205 17.2669 11.0205 17.0585 10.8816 16.9196C10.7427 16.7807 10.5344 16.7807 10.3955 16.9196Z" fill="#FCCF76"></path>
  <path d="M9.21502 18.1006C9.1803 18.1353 9.1803 18.1353 9.21502 18.1006C9.14557 18.17 8.17323 19.1424 8.17323 19.1424V18.552C8.17323 18.3437 8.03432 18.2048 7.82596 18.2048C7.6176 18.2048 7.4787 18.3437 7.4787 18.552V19.9758C7.4787 20.1842 7.6176 20.3231 7.82596 20.3231H9.24975C9.45811 20.3231 9.59702 20.1842 9.59702 19.9758C9.59702 19.7675 9.45811 19.6286 9.24975 19.6286H8.6594C8.69413 19.5938 9.77065 18.5173 9.7012 18.5868C9.8401 18.4479 9.8401 18.2395 9.7012 18.1006C9.56229 17.9964 9.35393 17.9964 9.21502 18.1006Z" fill="#FCCF76"></path>
  <path d="M20.6735 7.61406L21.1249 7.16262C21.2638 7.02371 21.2638 6.81535 21.1249 6.67645C20.986 6.53754 20.7777 6.53754 20.6388 6.67645L20.1873 7.12789C20.0484 7.2668 20.0484 7.47516 20.1873 7.61406C20.3262 7.75297 20.5346 7.75297 20.6735 7.61406Z" fill="#FCCF76"></path>
  <path d="M23.2782 4.17676H21.8545C21.6461 4.17676 21.5072 4.31566 21.5072 4.52402C21.5072 4.73238 21.6461 4.87129 21.8545 4.87129H22.4448C22.4101 4.90601 21.4377 5.84363 21.403 5.91308C21.2641 6.05199 21.2641 6.26035 21.403 6.39926C21.5419 6.53816 21.7503 6.53816 21.8892 6.39926C21.9239 6.36453 22.931 5.35746 22.931 5.35746V5.94781C22.931 6.15617 23.0699 6.29508 23.2782 6.29508C23.4866 6.29508 23.6255 6.15617 23.6255 5.94781V4.52402C23.6255 4.35039 23.4519 4.17676 23.2782 4.17676Z" fill="#FCCF76"></path>
</svg>
