<?xml version="1.0" encoding="UTF-8"?>
<svg xmlns="http://www.w3.org/2000/svg" width="36" height="36" viewBox="0 0 36 36" fill="none">
  <g opacity="0.85" clip-path="url(#clip0_682_19330)">
    <path d="M28.1254 10.165H8.67871C4.81272 10.165 1.67871 13.299 1.67871 17.165V20.6062C1.67871 24.4722 4.81272 27.6062 8.67871 27.6062H28.1254C31.9914 27.6062 35.1254 24.4722 35.1254 20.6062V17.165C35.1254 13.299 31.9914 10.165 28.1254 10.165Z" fill="#E4ECFF"></path>
  </g>
  <path d="M18.6545 4.84961C18.5858 4.84961 18.5187 4.8706 18.4622 4.90972L8.64902 11.6751C8.4948 11.7816 8.45659 11.9932 8.56368 12.1469L9.40286 13.3455C9.5092 13.4983 9.71929 13.5366 9.87274 13.4308L18.6543 7.37454L27.4359 13.4308C27.5892 13.5363 27.7987 13.498 27.9051 13.3455L28.7417 12.1469C28.8489 11.9933 28.811 11.7819 28.6571 11.6751L18.847 4.90972C18.7905 4.8706 18.7234 4.84961 18.6547 4.84961H18.6545ZM23.0521 5.86453C22.8652 5.86453 22.7137 6.01602 22.7137 6.20284V6.75457L26.7737 9.55422V6.20284C26.7737 6.01602 26.6222 5.86453 26.4354 5.86453H23.0521ZM17.3004 11.2782C16.7439 11.2782 16.2868 11.7354 16.2868 12.2918V12.6321H16.9607V12.2918C16.9607 12.0985 17.1071 11.9549 17.3004 11.9549H20.0077C20.201 11.9549 20.3447 12.0986 20.3447 12.2918V12.6321H21.022V12.2918C21.022 11.7354 20.5641 11.2782 20.0076 11.2782H17.3004ZM19.331 16.3529C19.5168 16.3536 19.6672 16.504 19.668 16.6898V17.7999L24.1491 16.6798C24.2995 16.6427 24.4055 16.5078 24.4061 16.3527V14.3222C24.4061 13.7658 23.9462 13.3087 23.3898 13.3087L13.9165 13.3088C13.36 13.3088 12.9028 13.766 12.9028 14.3224V16.3529C12.9031 16.5071 13.0078 16.6416 13.1572 16.68L17.6375 17.8V16.69C17.6373 16.5158 17.7695 16.3699 17.9602 16.353L19.331 16.3529ZM11.2118 13.3298L10.5351 13.7963V22.4412H11.2118V13.3298ZM26.0969 13.3298V22.4409H26.7736V13.7961L26.0969 13.3298ZM18.3145 17.0295V18.0431C18.3145 18.2364 18.4608 18.3833 18.6542 18.3833C18.8475 18.3833 18.9911 18.2364 18.9911 18.0431V17.0295H18.3145ZM23.7294 17.4821L19.5371 18.5307C19.3634 18.8433 19.0338 19.0599 18.6543 19.0599C18.2749 19.0599 17.9439 18.8432 17.7695 18.5307L13.5792 17.4835V21.088C13.5792 21.6444 14.0364 22.1043 14.5928 22.1043H22.712C23.2685 22.1043 23.729 21.6444 23.729 21.088L23.7294 17.4821ZM9.85769 23.1178C9.66949 23.117 9.51694 23.27 9.51799 23.458V24.8085C9.51724 24.9964 9.66979 25.149 9.85769 25.1482L27.4502 25.1484C27.6371 25.1476 27.788 24.9955 27.7872 24.8087V23.4582C27.7883 23.2711 27.6374 23.1187 27.4502 23.1179L9.85769 23.1178Z" fill="#7DA1F5"></path>
  <path d="M18.4622 4.91097L8.64902 11.6764C8.4948 11.7828 8.45659 11.9944 8.56368 12.1482L9.40286 13.3468C9.5092 13.4996 9.7193 13.5378 9.87274 13.4321L18.6543 7.37579L27.4359 13.4321C27.5892 13.5375 27.7987 13.4993 27.9051 13.3468L28.7417 12.1482C28.8489 11.9946 28.811 11.7831 28.6571 11.6764L18.847 4.91097C18.7239 4.82609 18.5765 4.83228 18.4624 4.91097H18.4622ZM23.0523 5.86577C22.8655 5.86577 22.714 6.01726 22.714 6.20408V6.75581L26.774 9.55546V6.20408C26.774 6.01726 26.6225 5.86577 26.4357 5.86577H23.0523ZM17.3007 11.2795C16.7442 11.2795 16.287 11.7366 16.287 12.293V12.6333H16.961V12.293C16.961 12.0997 17.1074 11.9561 17.3007 11.9561H20.008C20.2013 11.9561 20.3449 12.0999 20.3449 12.293V12.6333H21.0222V12.293C21.0222 11.7366 20.5644 11.2795 20.0079 11.2795H17.3007ZM19.3313 16.3541C19.5171 16.3549 19.6675 16.5053 19.6683 16.691V17.8011L24.1494 16.6811C24.2998 16.6439 24.4058 16.509 24.4064 16.3539V14.3235C24.4064 13.7671 23.9465 13.3099 23.3901 13.3099L13.9167 13.3101C13.3603 13.3101 12.9031 13.7672 12.9031 14.3236V16.3541C12.9034 16.5083 13.0081 16.6429 13.1574 16.6812L17.6378 17.8013V16.6912C17.6376 16.5171 17.7698 16.3712 17.9605 16.3543L19.3313 16.3541ZM11.2121 13.3311L10.5354 13.7976V22.4424H11.2121V13.3311ZM26.0972 13.3311V22.4422H26.7739V13.7973L26.0972 13.3311ZM18.3148 17.0307V18.0443C18.3148 18.2376 18.4611 18.3846 18.6544 18.3846C18.8478 18.3846 18.9914 18.2376 18.9914 18.0443V17.0307H18.3148ZM23.7296 17.4834L19.5374 18.532C19.3637 18.8446 19.0341 19.0612 18.6546 19.0612C18.2751 19.0612 17.9442 18.8445 17.7697 18.532L13.5794 17.4847V21.0892C13.5794 21.6456 14.0366 22.1055 14.5931 22.1055H22.7123C23.2688 22.1055 23.7293 21.6456 23.7293 21.0892L23.7296 17.4834ZM9.85797 23.119C9.66977 23.1182 9.51722 23.2712 9.51827 23.4593V24.8098C9.51752 24.9977 9.67007 25.1502 9.85797 25.1495L27.4505 25.1496C27.6374 25.1489 27.7883 24.9968 27.7875 24.8099V23.4594C27.7886 23.2723 27.6377 23.1199 27.4505 23.1191L9.85797 23.119Z" fill="#7DA1F5"></path>
  <defs>
    <clipPath id="clip0_682_19330">
      <rect width="35" height="35" fill="white" transform="translate(0.803711 0.650391)"></rect>
    </clipPath>
  </defs>
</svg>
