<?xml version="1.0" encoding="UTF-8"?>
<svg xmlns="http://www.w3.org/2000/svg" width="36" height="36" viewBox="0 0 36 36" fill="none">
  <path d="M2.88696 18.1878C2.88696 15.7175 5.34571 13.7148 8.3787 13.7148H27.7286C30.7615 13.7148 33.2203 15.7175 33.2203 18.1878V24.6493C33.2203 27.1196 30.7615 29.1223 27.7286 29.1223H8.3787C5.3457 29.1223 2.88696 27.1196 2.88696 24.6493V18.1878Z" fill="#E8FED6"></path>
  <path d="M28.6488 9.66636C28.6488 8.29845 27.5296 7.1792 26.1616 7.1792H10.108C8.7401 7.1792 7.62085 8.29845 7.62085 9.66636V21.2972H28.6486L28.6488 9.66636ZM21.8762 12.5396L19.1155 13.8516L17.0216 16.727L17.6374 14.1211L17.6194 14.0983L16.1723 12.2615L24.4296 11.3257L21.8762 12.5396ZM15.0724 15.3609C14.0853 15.6477 13.5619 15.7225 12.5375 15.7225H12.5273V15.4738H12.5373C13.534 15.4738 14.0426 15.4009 15.0028 15.1219L15.0724 15.3609ZM10.4185 13.8599C12.074 14.3414 12.9808 14.3414 14.6363 13.8599L14.7058 14.0989C13.8507 14.3471 13.1892 14.4715 12.5274 14.4715C11.8658 14.4715 11.204 14.3471 10.3489 14.0989L10.4185 13.8599ZM12.5274 17.1204C11.6432 17.1204 10.7588 16.9545 9.61588 16.6224L9.68533 16.3834C11.9163 17.0318 13.138 17.0318 15.369 16.3834L15.4384 16.6224C14.2959 16.9545 13.4115 17.1204 12.5272 17.1204H12.5274ZM22.5081 16.6082L19.4005 14.1294L19.2383 13.9998L25.5185 11.0146L25.3691 11.2923L22.5081 16.6082Z" fill="#90D05D"></path>
  <path d="M27.4199 21.5532H20.582V22.3952H15.5247V21.5532H6.48975V22.3952C6.48975 22.9266 7.60899 23.3615 8.97691 23.3615H27.1305C28.4984 23.3615 29.6176 22.9268 29.6176 22.3952V21.5532H27.4199Z" fill="#90D05D"></path>
</svg>
