<?xml version="1.0" encoding="UTF-8"?>
<svg xmlns="http://www.w3.org/2000/svg" width="36" height="36" viewBox="0 0 36 36" fill="none">
  <path d="M3.13696 15.1664C3.13696 12.696 5.59571 10.6934 8.6287 10.6934H27.9786C31.0115 10.6934 33.4703 12.696 33.4703 15.1664V21.6278C33.4703 24.0981 31.0115 26.1008 27.9786 26.1008H8.6287C5.5957 26.1008 3.13696 24.0981 3.13696 21.6278V15.1664Z" fill="#FFF6DC"></path>
  <path d="M17.6676 6.89767C17.3476 7.0578 17.2273 7.29781 17.1395 7.49684C17.0518 7.69601 16.9937 7.85641 16.8381 8.03462C16.6826 8.21282 16.4194 8.4167 15.8969 8.62711C15.3744 8.83739 15.0427 8.87239 14.8062 8.85197C14.5697 8.83142 14.4149 8.75503 14.2131 8.67267C13.9683 8.5728 13.7288 8.5117 13.4165 8.60878C13.1041 8.706 12.7861 8.93363 12.344 9.36653C11.9019 9.79945 11.6663 10.1124 11.5632 10.4226C11.4519 10.7571 11.5368 11.0172 11.6161 11.2199C11.6954 11.4225 11.7691 11.5747 11.7857 11.8099C11.8022 12.045 11.7601 12.375 11.5402 12.8915C11.3201 13.4079 11.1123 13.6673 10.9294 13.8218C10.7466 13.9761 10.578 14.0343 10.3734 14.1273C10.169 14.2205 9.92883 14.3554 9.7694 14.6809C9.62177 14.9826 9.55899 15.3862 9.55371 16.0311C9.55371 16.0319 9.55427 16.0323 9.55427 16.0334C9.55427 16.0343 9.55371 16.0347 9.55371 16.0358C9.55954 16.6807 9.62177 17.0843 9.7694 17.3859C9.92871 17.7115 10.1688 17.8464 10.3734 17.9395C10.578 18.0327 10.7466 18.0908 10.9294 18.2452C11.1123 18.3997 11.3201 18.6591 11.5401 19.1755C11.7601 19.692 11.802 20.0219 11.7855 20.2572C11.769 20.4923 11.6954 20.6445 11.6159 20.8472C11.5366 21.0498 11.4519 21.31 11.563 21.6444C11.6661 21.9545 11.9018 22.2676 12.3438 22.7005C12.7859 23.1334 13.104 23.361 13.4163 23.4583C13.7287 23.5555 13.9682 23.4944 14.213 23.3944C14.4149 23.312 14.5695 23.2356 14.8061 23.2151C15.0426 23.1946 15.3742 23.2295 15.8967 23.4399C16.4192 23.6503 16.6824 23.8542 16.838 24.0324C16.9936 24.2106 17.0516 24.371 17.1394 24.5702C17.2272 24.7694 17.3474 25.0092 17.6675 25.1694C17.9461 25.3088 18.3172 25.3663 18.887 25.3669C19.4569 25.3663 19.8279 25.3088 20.1066 25.1694C20.4266 25.0092 20.5469 24.7694 20.6347 24.5702C20.7225 24.371 20.7805 24.2106 20.9361 24.0324C21.0916 23.8542 21.3548 23.6503 21.8773 23.4399C22.3998 23.2295 22.7315 23.1946 22.968 23.2151C23.2046 23.2355 23.3591 23.312 23.5611 23.3944C23.806 23.4942 24.0454 23.5553 24.3578 23.4583C24.6701 23.361 24.9881 23.1334 25.4302 22.7005C25.8723 22.2676 26.1079 21.9545 26.2111 21.6444C26.3223 21.31 26.2375 21.0498 26.1582 20.8472C26.0789 20.6445 26.0051 20.4923 25.9886 20.2572C25.9721 20.022 26.0141 19.692 26.234 19.1755C26.454 18.659 26.6618 18.3997 26.8447 18.2452C27.0275 18.0908 27.1962 18.0327 27.4007 17.9395C27.6053 17.8463 27.8453 17.7116 28.0047 17.3859C28.1523 17.0843 28.2151 16.6807 28.2204 16.0333C28.2145 15.3861 28.1523 14.9825 28.0047 14.6807C27.8452 14.3551 27.6053 14.2203 27.4007 14.1272C27.1962 14.0342 27.0275 13.976 26.8447 13.8215C26.6618 13.6671 26.454 13.4078 26.234 12.8913C26.014 12.3749 25.972 12.0449 25.9886 11.8097C26.0051 11.5746 26.0787 11.4224 26.1582 11.2197C26.2375 11.0171 26.3222 10.757 26.2111 10.4225C26.108 10.1124 25.8723 9.79934 25.4302 9.36642C24.9882 8.9335 24.6701 8.70587 24.3578 8.60867C24.0454 8.51144 23.8059 8.57256 23.5611 8.67256C23.3592 8.75492 23.2046 8.8313 22.968 8.85186C22.7315 8.87228 22.3999 8.83742 21.8773 8.627C21.3549 8.41659 21.0916 8.21271 20.9361 8.03451C20.7805 7.85632 20.7225 7.6959 20.6347 7.49673C20.5469 7.29757 20.4266 7.0577 20.1066 6.89756C19.8279 6.75825 19.4569 6.70075 18.887 6.7002C18.3172 6.70089 17.9462 6.75839 17.6676 6.89769V6.89767ZM18.8865 9.18849L18.887 9.18905C19.9229 9.18905 20.7543 10.0285 20.7543 11.0557C20.7543 11.0663 20.7554 11.0754 20.7554 11.086C22.9823 11.9254 24.3792 14.1569 24.1532 16.5341C23.9244 18.9434 22.0852 20.8918 19.6932 21.2605C17.3235 21.6256 15.0027 20.3474 14.042 18.1566C13.9927 18.1233 13.9465 18.0647 13.9241 17.9987L12.6818 14.2654C12.6182 14.0758 12.7475 13.8593 12.9759 13.8558H14.0666C14.644 12.5786 15.708 11.5821 17.0185 11.0868C17.0183 11.0743 17.0191 11.0683 17.0191 11.0557C17.0191 10.0284 17.8505 9.18845 18.8863 9.18845L18.8865 9.18849ZM18.8865 9.81071C18.2041 9.81071 17.6415 10.3649 17.6415 11.0557C17.6415 11.7467 18.2041 12.3007 18.8865 12.3007C19.5689 12.3007 20.1315 11.7466 20.1315 11.0557C20.1315 10.3647 19.5689 9.81071 18.8865 9.81071ZM17.1377 11.7072C16.1149 12.1208 15.274 12.8829 14.7607 13.8558L16.8036 13.8564C17.6636 13.5131 18.6234 13.4463 19.5416 13.6911C20.9244 14.0599 22.0383 15.0861 22.5202 16.4358C22.6239 16.7425 22.6626 17.145 22.5614 17.5009C22.5533 17.5304 22.5423 17.5594 22.5317 17.5884H23.2865C23.4113 17.2346 23.4962 16.8619 23.533 16.4747C23.7291 14.4105 22.5449 12.4783 20.6365 11.7085C20.3706 12.4145 19.687 12.9232 18.8865 12.9232C18.0859 12.9232 17.4069 12.4223 17.1377 11.7074L17.1377 11.7072ZM17.6847 14.2435L18.3926 16.3616C18.4517 16.3493 18.5124 16.3434 18.5749 16.3434H19.9492C19.8308 16.238 19.7145 16.135 19.5074 16.0154C19.1476 15.8071 19.4599 15.2675 19.8198 15.4758C20.2431 15.7202 20.6049 16.0709 20.8624 16.4954C20.991 16.7105 20.837 16.9658 20.5956 16.9664H18.5746C18.3968 16.9664 18.2648 17.1107 18.2648 17.2787C18.2648 17.4468 18.397 17.5886 18.5746 17.5886H21.6863C21.7773 17.5886 21.822 17.5608 21.8539 17.5315C21.8942 17.4945 21.9346 17.4286 21.9621 17.3316C22.017 17.1382 22.0078 16.8636 21.9324 16.6401C21.5185 15.4859 20.5659 14.6086 19.381 14.2927C19.0807 14.2125 18.7752 14.1722 18.4714 14.1675C18.2062 14.164 17.9428 14.1914 17.6845 14.2434L17.6847 14.2435ZM13.4098 14.4793L14.4458 17.5886H17.6991C17.6648 17.4914 17.6426 17.3884 17.6426 17.2787C17.6426 17.0583 17.7207 16.8593 17.8468 16.7002L17.1072 14.4793L13.4098 14.4793ZM15.4648 15.1003C15.6366 15.1003 15.776 15.2396 15.776 15.4114C15.776 15.5832 15.6366 15.7225 15.4648 15.7225C15.293 15.7225 15.1537 15.5832 15.1537 15.4114C15.1537 15.2396 15.293 15.1003 15.4648 15.1003ZM14.76 18.2108C15.6807 19.9591 17.615 20.951 19.5969 20.6456C21.0921 20.4152 22.3378 19.4867 23.0119 18.2108H14.76Z" fill="#FCCF76"></path>
</svg>
