<?xml version="1.0" encoding="UTF-8"?>
<svg xmlns="http://www.w3.org/2000/svg" width="36" height="36" viewBox="0 0 36 36" fill="none">
  <path d="M1.96484 18.3665C1.96484 15.6906 4.53341 13.5215 7.7019 13.5215H27.916C31.0845 13.5215 33.6531 15.6906 33.6531 18.3665V25.3651C33.6531 28.041 31.0845 30.2101 27.916 30.2101H7.7019C4.5334 30.2101 1.96484 28.041 1.96484 25.3651V18.3665Z" fill="#FFECEC"></path>
  <path d="M26.3352 13.4083L27.4416 12.2755H27.4414C27.1457 11.616 26.7828 10.9885 26.3585 10.4032L24.825 10.7958C24.4572 10.351 24.0483 9.94189 23.6035 9.57409L23.9961 8.04049V8.04065C23.4108 7.61645 22.7833 7.25345 22.1238 6.95753L20.9908 8.06393C20.4499 7.86236 19.8908 7.71315 19.3214 7.61829L18.8921 6.08984H16.7263L16.2969 7.61829C15.7276 7.71313 15.1685 7.86235 14.6276 8.06377L13.4948 6.95737V6.95752C12.8352 7.2533 12.2077 7.61628 11.6224 8.04048L12.0151 9.57393C11.5702 9.94174 11.1611 10.3508 10.7933 10.7955L9.25989 10.4028C8.83568 10.9882 8.47268 11.6156 8.17676 12.2753L9.28317 13.4081C9.0816 13.949 8.93238 14.5081 8.83736 15.0776L7.30908 15.5068V17.6726L8.83736 18.102C8.93221 18.6714 9.08143 19.2304 9.28301 19.7714L8.17676 20.9042C8.47254 21.5639 8.83552 22.1912 9.25973 22.7765L10.7932 22.3839C11.161 22.8287 11.57 23.2378 12.0147 23.6056L11.6221 25.139C12.2074 25.5634 12.8349 25.9262 13.4944 26.2222L14.6272 25.1159H14.6274C15.1683 25.3175 15.7274 25.4667 16.2969 25.5616L16.7263 27.0898H18.8921L19.3214 25.5616H19.3213C19.8906 25.4667 20.4497 25.3175 20.9907 25.1159L22.1235 26.2223C22.7831 25.9264 23.4105 25.5636 23.9958 25.1392L23.6032 23.6058C24.048 23.2381 24.4571 22.829 24.8249 22.3842L26.3583 22.7769C26.7827 22.1915 27.1455 21.5641 27.4414 20.9045L26.3352 19.7715C26.5368 19.2306 26.686 18.6715 26.7808 18.102L28.3091 17.6728V15.507L26.7808 15.0776C26.686 14.5083 26.5368 13.9492 26.3352 13.4083L26.3352 13.4083ZM23.1249 21.1367L21.8927 19.9044L21.3977 20.3994L22.643 21.6447C21.4297 22.8069 19.8372 23.4913 18.159 23.5721V21.9883H17.459V23.5721C15.8413 23.4938 14.3015 22.8539 13.1046 21.7625L14.2204 20.6467L13.7254 20.1517L12.6109 21.2661V21.2663C11.4871 20.0222 10.8499 18.4144 10.8163 16.7382H12.5588V16.0382H10.8366C10.9613 14.432 11.6388 12.9187 12.7538 11.7558L13.9727 12.9748L14.4677 12.4798L13.2619 11.274H13.2618C14.4368 10.2676 15.9135 9.68115 17.459 9.60739V11.1383H18.159V9.60739C19.7638 9.68505 21.2926 10.3155 22.4854 11.3918L21.3974 12.4797L21.8924 12.9747L22.9818 11.8854L22.9816 11.8855C24.0273 13.0307 24.6606 14.4922 24.781 16.0383H23.0588V16.7383H24.8013C24.7699 18.3546 24.1771 19.9096 23.1246 21.1367L23.1249 21.1367Z" fill="#FF9696"></path>
  <path d="M17.9614 15.3539C17.6572 15.3014 17.3452 15.3811 17.1035 15.5732C16.8618 15.7652 16.7135 16.0511 16.6958 16.3593C16.6783 16.6675 16.793 16.9685 17.0113 17.1868C17.2296 17.4051 17.5305 17.5197 17.8388 17.5022C18.147 17.4846 18.4329 17.3363 18.6249 17.0946C18.8169 16.8529 18.8966 16.5408 18.8441 16.2366L20.9595 12.8887L17.9614 15.3539Z" fill="#FF9696"></path>
</svg>
