<?xml version="1.0" encoding="UTF-8"?>
<svg xmlns="http://www.w3.org/2000/svg" width="33" height="33" viewBox="0 0 33 33" fill="none">
  <g opacity="0.85" clip-path="url(#clip0_744_25812)">
    <path d="M25.016 9.52441H7.23612C3.7015 9.52441 0.836121 12.3656 0.836121 15.8704V18.9902C0.836121 22.495 3.7015 25.3362 7.23612 25.3362H25.016C28.5506 25.3362 31.416 22.495 31.416 18.9902V15.8704C31.416 12.3656 28.5506 9.52441 25.016 9.52441Z" fill="#E4ECFF"></path>
    <path d="M4.55551 21.3646H7.55615V24.3079H4.55231L4.55551 21.3646ZM9.46559 17.4859H12.4694V22.9828H9.46559V17.4859ZM14.3721 10.3041H17.376V22.5186H14.3721V10.3041ZM19.2816 12.9107H22.2854V22.9828H19.2816V12.9107ZM24.1917 7.80371H27.1955V22.5183H24.1917V7.80371Z" fill="#D6E1FD"></path>
    <path d="M4.55551 22.3248H7.55615V25.2681H4.55231L4.55551 22.3248ZM9.46559 18.5381H12.4694V24.0383H9.46559V18.5381ZM14.3721 11.5823H17.376V23.7968H14.3721V11.5823ZM19.2822 13.9665H22.2861V24.0376H19.2822V13.9665ZM24.1949 8.625H27.1987V23.3396H24.1949V8.625Z" fill="#A6C1FF"></path>
    <path d="M4.55551 23.34H7.55615V25.2686H4.55231L4.55551 23.34ZM9.46559 19.7688H12.4694V25.2689H9.46559V19.7688ZM14.3721 13.054H17.376V25.2686H14.3721V13.054ZM19.2822 15.1965H22.2861V25.2676H19.2822V15.1965ZM24.1917 10.5537H27.1955V25.2676H24.1917V10.5537Z" fill="#7DA1F5"></path>
  </g>
  <defs>
    <clipPath id="clip0_744_25812">
      <rect width="32" height="31.7302" fill="white" transform="translate(0.0361328 0.898438)"></rect>
    </clipPath>
  </defs>
</svg>
