<?xml version="1.0" encoding="UTF-8"?>
<svg xmlns="http://www.w3.org/2000/svg" width="36" height="36" viewBox="0 0 36 36" fill="none">
  <g clip-path="url(#clip0_682_19319)">
    <path d="M0.803711 15.3618C0.803711 12.3973 3.64072 9.99414 7.14035 9.99414H29.4671C32.9667 9.99414 35.8037 12.3973 35.8037 15.3618V23.1154C35.8037 26.0799 32.9667 28.483 29.4671 28.483H7.14035C3.64072 28.483 0.803711 26.0799 0.803711 23.1154V15.3618Z" fill="#FFECEC"></path>
    <path d="M18.3037 7.65039C15.4388 7.65039 13.1184 10.0636 13.1184 13.0431C13.1184 16.0225 15.4388 18.4356 18.3037 18.4356C21.1685 18.4356 23.4888 16.0225 23.4888 13.0431C23.4888 10.0636 21.1685 7.65039 18.3037 7.65039Z" fill="#FF9696"></path>
    <path d="M14.5572 20.2666C11.3327 21.0216 7.93335 22.6614 7.93335 25.1768V29.2214H28.6742V25.1768C28.6742 22.6614 25.2748 21.0216 22.0505 20.2666L18.3038 28.7472L14.5572 20.2666Z" fill="#FF9696"></path>
    <path d="M19.3293 24.2436L18.8735 20.2139H17.7339L17.2781 24.2436L18.3037 26.3769L19.3293 24.2436Z" fill="#FF9696"></path>
    <path d="M17.3921 20.0953L17.8479 20.4509H18.7596L19.2155 20.0953L19.1015 19.3841L18.3038 19.2656L17.506 19.3841L17.3921 20.0953Z" fill="#FF9696"></path>
  </g>
  <defs>
    <clipPath id="clip0_682_19319">
      <rect width="35" height="35" fill="white" transform="translate(0.803711 0.650391)"></rect>
    </clipPath>
  </defs>
</svg>
