<?xml version="1.0" encoding="UTF-8"?>
<svg xmlns="http://www.w3.org/2000/svg" width="36" height="36" viewBox="0 0 36 36" fill="none">
  <g clip-path="url(#clip0_682_19072)">
    <path d="M0.205078 17.2456C0.205078 14.2811 3.04209 11.8779 6.54171 11.8779H28.8685C32.3681 11.8779 35.2051 14.2811 35.2051 17.2456V24.9992C35.2051 27.9637 32.3681 30.3668 28.8685 30.3668H6.54171C3.04208 30.3668 0.205078 27.9637 0.205078 24.9992V17.2456Z" fill="#FFF6DC"></path>
    <path d="M20.1356 11.9175V7.41387L12.8441 11.9175V4.84009H7.98291V25.4283H27.4274V7.41375L20.1356 11.9175ZM14.0592 20.281H11.6286V17.7077H14.0592V20.281ZM18.9201 20.281H16.4897V17.7077H18.9203L18.9201 20.281ZM23.7811 20.281H21.3507V17.7077H23.7813L23.7811 20.281Z" fill="#FFD076"></path>
  </g>
  <defs>
    <clipPath id="clip0_682_19072">
      <rect width="35" height="35" fill="white" transform="translate(0.205078 0.103516)"></rect>
    </clipPath>
  </defs>
</svg>
