<?xml version="1.0" encoding="UTF-8"?>
<svg xmlns="http://www.w3.org/2000/svg" width="36" height="36" viewBox="0 0 36 36" fill="none">
  <g clip-path="url(#clip0_997_21344)">
    <path d="M0.216309 19.3825C0.216309 16.5027 3.13438 14.1682 6.73399 14.1682H29.6987C33.2982 14.1682 36.2163 16.5027 36.2163 19.3825V26.9146C36.2163 29.7944 33.2982 32.1289 29.6987 32.1289H6.73399C3.13437 32.1289 0.216309 29.7944 0.216309 26.9146V19.3825Z" fill="#FFF1CF"></path>
    <path d="M30.736 11.5963L30.7367 14.5917C30.7367 14.822 30.5497 15.009 30.3193 15.009L27.7406 15.125C27.624 15.5857 27.4741 16.0356 27.294 16.4707C27.112 16.9117 26.8987 17.336 26.6572 17.7405L28.4117 19.6616C28.5618 19.8269 28.5546 20.0803 28.3979 20.2364L25.7413 22.8942C25.5786 23.0569 25.3138 23.0569 25.1511 22.8942L23.2448 21.1529C22.8409 21.3938 22.4166 21.607 21.9747 21.7901C21.5392 21.9702 21.0894 22.1203 20.6286 22.2367L20.511 24.8338C20.5015 25.0572 20.3168 25.2317 20.0953 25.2317L16.3375 25.233C16.1071 25.233 15.9202 25.0461 15.9202 24.8157L15.8042 22.2367C15.3431 22.12 14.8932 21.9698 14.4578 21.7898C14.0168 21.6077 13.5929 21.3944 13.1883 21.1529L11.2672 22.9077C11.1019 23.0579 10.8486 23.0507 10.6925 22.8939L8.03492 20.2374C7.87225 20.0747 7.87225 19.8098 8.03492 19.6472L9.77628 17.7408C9.53474 17.3363 9.32147 16.9124 9.13514 16.4618C8.9544 16.0218 8.8075 15.5788 8.69249 15.125L6.09507 15.0074C5.87161 14.9978 5.69712 14.8132 5.69712 14.5917L5.6958 11.5963C5.6958 11.3659 5.88279 11.1789 6.11315 11.1789L13.1105 10.875C13.3398 10.8651 13.5344 11.0432 13.5442 11.2726C13.5462 11.3216 13.54 11.3686 13.5262 11.4129C13.4693 11.6193 13.4253 11.8322 13.3957 12.0495C13.3671 12.2601 13.352 12.4822 13.352 12.7126C13.352 14.0567 13.8962 15.2735 14.7752 16.1523C15.6569 17.0323 16.8735 17.5772 18.2166 17.5772C19.5596 17.5772 20.7762 17.0323 21.6667 16.1424C22.5448 15.2555 23.0811 14.0468 23.0811 12.7126C23.0811 12.4822 23.066 12.2601 23.0374 12.0495C23.0072 11.8283 22.9622 11.6114 22.9037 11.4014C22.8425 11.1803 22.9727 10.9509 23.1938 10.8898C23.2369 10.8779 23.2803 10.8733 23.3227 10.875L30.3374 11.1806C30.5608 11.1901 30.7353 11.3748 30.736 11.5963ZM15.0165 11.2085V8.53947L12.6014 7.42676C12.5735 7.45962 12.5442 7.49117 12.5137 7.52173C12.2298 7.80533 11.8394 7.98048 11.4098 7.98048C10.98 7.98048 10.5899 7.80533 10.3077 7.52337C10.0241 7.23944 9.8489 6.84904 9.8489 6.41987C9.8489 5.99003 10.0241 5.59996 10.306 5.31767C10.5899 5.03407 10.98 4.85892 11.4098 4.85892C11.8394 4.85892 12.2298 5.03407 12.512 5.31603C12.7956 5.59996 12.9708 5.99003 12.9708 6.41987C12.9708 6.50498 12.9639 6.58878 12.9507 6.67027L15.584 7.88387C15.7401 7.94433 15.8511 8.09583 15.8511 8.27328V11.2085C16.1137 11.2815 16.3487 11.4215 16.536 11.6088C16.8196 11.8927 16.9947 12.2828 16.9947 12.7126C16.9947 13.1421 16.8196 13.5325 16.5376 13.8148C16.2537 14.0984 15.8633 14.2736 15.4338 14.2736C15.004 14.2736 14.6139 14.0984 14.3316 13.8164C14.048 13.5325 13.8729 13.1421 13.8729 12.7126C13.8729 12.2834 14.048 11.8937 14.3316 11.6094C14.5202 11.4215 14.7549 11.2815 15.0165 11.2085ZM20.582 11.2085V8.27328C20.582 8.09583 20.693 7.94433 20.8491 7.88387L23.4824 6.67027C23.4692 6.58845 23.4623 6.50498 23.4623 6.41987C23.4623 5.99003 23.6375 5.59996 23.9194 5.31767C24.2034 5.03407 24.5938 4.85892 25.0233 4.85892C25.4531 4.85892 25.8432 5.03407 26.1255 5.31603C26.4091 5.59996 26.5842 5.99003 26.5842 6.41987C26.5842 6.84904 26.4091 7.23944 26.1271 7.52173C25.8432 7.80533 25.4531 7.98048 25.0233 7.98048C24.5938 7.98048 24.2034 7.80533 23.9211 7.52337C23.8902 7.49215 23.8603 7.45995 23.832 7.42643L21.4167 8.53947V11.2088C21.6786 11.2821 21.9135 11.4218 22.1025 11.6104C22.3854 11.8943 22.5603 12.2838 22.5603 12.7126C22.5603 13.1421 22.3851 13.5325 22.1031 13.8148C21.8192 14.0984 21.4291 14.2736 20.9993 14.2736C20.5698 14.2736 20.1794 14.0984 19.8971 13.8164C19.6135 13.5325 19.4384 13.1421 19.4384 12.7126C19.4384 12.2828 19.6135 11.8927 19.8955 11.6104C20.0841 11.4221 20.3194 11.2818 20.582 11.2085ZM18.6339 6.1688V13.9913C18.8965 14.0642 19.1314 14.2042 19.3187 14.3915C19.6027 14.6738 19.7775 15.0645 19.7775 15.4954C19.7775 15.9262 19.6027 16.3169 19.3204 16.5992C19.0381 16.8815 18.6474 17.0563 18.2166 17.0563C17.7857 17.0563 17.395 16.8815 17.1127 16.5992C16.8304 16.3169 16.6556 15.9262 16.6556 15.4954C16.6556 15.0645 16.8304 14.6738 17.1127 14.3915L17.1393 14.3672C17.3224 14.1921 17.5481 14.0606 17.7992 13.9909V6.1688C17.536 6.09585 17.3004 5.95585 17.1127 5.76821L17.0884 5.74159C16.8206 5.46161 16.6556 5.08205 16.6556 4.66471C16.6556 4.23388 16.8304 3.84315 17.1127 3.56087C17.395 3.27859 17.7857 3.10376 18.2166 3.10376C18.6474 3.10376 19.0381 3.27859 19.3204 3.56087C19.6027 3.84315 19.7775 4.23388 19.7775 4.66471C19.7775 5.09454 19.6023 5.48428 19.3204 5.76657C19.1327 5.9552 18.8971 6.09585 18.6339 6.1688Z" fill="#FFD076"></path>
  </g>
  <defs>
    <clipPath id="clip0_997_21344">
      <rect width="35" height="35" fill="white" transform="translate(0.716309 0.116211)"></rect>
    </clipPath>
  </defs>
</svg>
