<?xml version="1.0" encoding="UTF-8"?>
<svg xmlns="http://www.w3.org/2000/svg" width="36" height="36" viewBox="0 0 36 36" fill="none">
  <g clip-path="url(#clip0_682_19119)">
    <path d="M0.705078 17.0237C0.705078 14.0592 3.54209 11.656 7.04171 11.656H29.3685C32.8681 11.656 35.7051 14.0592 35.7051 17.0237V24.7773C35.7051 27.7418 32.8681 30.1449 29.3685 30.1449H7.04171C3.54208 30.1449 0.705078 27.7418 0.705078 24.7773V17.0237Z" fill="#E8FED6"></path>
    <path d="M18.205 10.8022C15.8425 10.8022 13.9343 12.8226 13.9343 15.3242C13.9343 17.8258 15.8424 19.8461 18.205 19.8461C20.5677 19.8461 22.4757 17.8258 22.4757 15.3242C22.4757 12.8226 20.5677 10.8022 18.205 10.8022ZM16.842 15.9013C16.9934 15.9976 17.0237 16.1899 16.9632 16.3503C16.8723 16.5106 16.6906 16.5427 16.5391 16.4786L15.1156 15.6127C15.0247 15.5486 14.9642 15.4523 14.9642 15.324C14.9642 15.1957 15.0247 15.0996 15.1156 15.0354L16.5391 14.2015C16.6906 14.1053 16.8723 14.1695 16.9632 14.3298C17.0541 14.4902 16.9934 14.6826 16.842 14.7788L15.8729 15.3241L16.842 15.9013ZM18.9319 13.3037L18.0536 17.5047C18.0233 17.6651 17.8417 17.7934 17.6901 17.7613C17.5386 17.7293 17.4175 17.5369 17.4477 17.3764L18.326 13.1754C18.3563 13.015 18.538 12.8867 18.6896 12.9188C18.8714 12.9508 18.9622 13.1112 18.9319 13.3037ZM21.4458 15.324C21.4458 15.4523 21.3853 15.5484 21.2944 15.6126L19.8709 16.4786C19.7195 16.5748 19.5378 16.5106 19.4469 16.3503C19.3559 16.1899 19.4166 15.9975 19.568 15.9013L20.5372 15.324L19.568 14.7468C19.4166 14.6505 19.3561 14.4581 19.4469 14.2978C19.5378 14.1374 19.7195 14.0734 19.8709 14.1695L21.2944 15.0033C21.3852 15.0996 21.4458 15.1957 21.4458 15.324V15.324Z" fill="#90D05D"></path>
    <path d="M27.6853 14.2659L25.6863 13.5283C25.5046 12.6304 25.1713 11.7645 24.6868 10.9628L25.5954 8.94246C25.6559 8.81416 25.6256 8.68586 25.5348 8.58974L24.5658 7.5313C24.4748 7.43504 24.3234 7.40301 24.2326 7.46723L22.3246 8.42925C21.5674 7.91621 20.7496 7.56334 19.9015 7.37096L19.2049 5.25439C19.1442 5.15827 19.0533 5.06201 18.9019 5.06201H17.4784C17.3572 5.06201 17.236 5.15827 17.1755 5.28643L16.4789 7.403C15.6308 7.59538 14.813 7.94825 14.0558 8.46129L12.1478 7.49927C12.0266 7.43519 11.9054 7.46723 11.8146 7.56334L10.8453 8.58958C10.7544 8.68584 10.7241 8.84618 10.7848 8.94229L11.6933 10.9626C11.2088 11.7643 10.8755 12.6302 10.6938 13.5282L8.69486 14.2658C8.57369 14.2978 8.48291 14.4261 8.48291 14.5865V16.0937C8.48291 16.222 8.57382 16.3503 8.69486 16.3824L10.6938 17.12C10.8755 18.018 11.2088 18.8839 11.6933 19.6856L10.7848 21.7059C10.7242 21.8342 10.7545 21.9625 10.8453 22.0586L11.8448 23.1169C11.9357 23.2131 12.0871 23.2452 12.1779 23.1809L14.086 22.2189C14.8431 22.732 15.6609 23.0848 16.509 23.2772L17.2056 25.3938C17.2359 25.5221 17.3571 25.6182 17.5085 25.6182H18.932C19.0532 25.6182 19.1744 25.5219 19.2046 25.3938L19.9013 23.2772C20.7493 23.0848 21.5671 22.732 22.3243 22.2189L24.2324 23.1809C24.3535 23.245 24.4747 23.213 24.5655 23.1169L25.565 22.0586C25.6559 21.9623 25.6862 21.802 25.6255 21.7059L24.7169 19.6856C25.2015 18.8839 25.5347 18.018 25.7164 17.12L27.7154 16.3824C27.8366 16.3503 27.9274 16.222 27.9274 16.0937V14.5865C27.8974 14.4263 27.8065 14.33 27.6853 14.2659L27.6853 14.2659ZM18.2054 20.4876C15.5098 20.4876 13.329 18.1786 13.329 15.3242C13.329 12.4699 15.5096 10.1609 18.2054 10.1609C20.9012 10.1609 23.0819 12.4699 23.0819 15.3242C23.0819 18.1786 20.9012 20.4876 18.2054 20.4876Z" fill="#90D05D"></path>
  </g>
  <defs>
    <clipPath id="clip0_682_19119">
      <rect width="35" height="35" fill="white" transform="translate(0.705078 0.103516)"></rect>
    </clipPath>
  </defs>
</svg>
