<?xml version="1.0" encoding="UTF-8"?>
<svg xmlns="http://www.w3.org/2000/svg" width="36" height="36" viewBox="0 0 36 36" fill="none">
  <g clip-path="url(#clip0_682_19156)">
    <path d="M0.705078 17.9587C0.705078 14.9942 3.54209 12.5911 7.04171 12.5911H29.3685C32.8681 12.5911 35.7051 14.9942 35.7051 17.9587V25.7124C35.7051 28.6769 32.8681 31.08 29.3685 31.08H7.04171C3.54208 31.08 0.705078 28.6769 0.705078 25.7124V17.9587Z" fill="#E8FED6"></path>
    <path d="M23.0671 20.0268L20.5227 20.8446C20.5227 20.9168 20.5227 20.989 20.5227 21.0611C20.4772 21.8309 19.932 22.4803 19.2277 22.6247L19.1142 22.6487C18.16 22.8652 17.1831 22.9855 16.2063 23.0095L15.4111 23.0336C15.2976 23.0336 15.1612 22.9855 15.0704 22.8893C14.9795 22.793 14.9341 22.6728 14.9341 22.5525C14.9341 22.4082 14.9795 22.2879 15.0704 22.1917C15.1612 22.0955 15.2748 22.0474 15.3884 22.0474L16.2063 22.0233C17.0923 21.9992 17.9783 21.879 18.8643 21.6865L19.0233 21.6625C19.3413 21.5903 19.5685 21.3257 19.5912 20.989C19.5912 20.7965 19.5458 20.6041 19.4095 20.4598C19.2732 20.3154 19.1142 20.2192 18.9324 20.2192L14.7978 20.0027C14.3434 19.9787 13.889 20.123 13.5256 20.3876L9.39091 23.7552C9.2546 23.8514 9.2546 24.0679 9.36819 24.1882L11.9353 26.9063C12.0262 27.0025 12.1852 27.0266 12.2988 26.9304L13.4347 26.0163C13.5937 25.896 13.7755 25.8479 13.9572 25.8479L17.0696 26.1847C17.6602 26.2568 18.2509 26.0644 18.728 25.6795L23.8168 21.5422C23.9985 21.3979 24.1121 21.1814 24.1348 20.9168C24.1575 20.6763 24.0667 20.4357 23.9076 20.2433C23.7032 20.0268 23.3624 19.9306 23.0671 20.0268Z" fill="#90D05D"></path>
    <path d="M27.0651 17.5732H9.34517C9.09527 17.5732 8.98168 17.8859 9.16343 18.0784L9.91312 18.8481C9.95855 18.8962 10.0267 18.9203 10.0949 18.9203H26.3154C26.3836 18.9203 26.4517 18.8962 26.4972 18.8481L27.2469 18.0784C27.4286 17.8859 27.315 17.5732 27.0651 17.5732Z" fill="#90D05D"></path>
    <path d="M14.2065 12.8827C15.2515 12.8827 16.1602 12.0889 16.4783 10.8862C16.501 10.7659 16.501 10.6216 16.4328 10.5254L14.9789 7.47049L16.7282 7.49454C16.8645 7.85536 17.0917 8.16806 17.4324 8.38455V12.9549C17.4324 13.9411 16.7282 14.7589 15.8195 14.8551L14.3882 15.0235C14.2292 15.0476 14.1156 15.1919 14.1156 15.3603V16.106C14.1156 16.2984 14.2519 16.4427 14.4337 16.4427H22.0442C22.2259 16.4427 22.3622 16.2984 22.3622 16.106V15.3122C22.3622 15.1438 22.2486 14.9995 22.0896 14.9754L20.5902 14.8311C19.6588 14.7349 18.9772 13.917 18.9772 12.9308V8.3605C19.2953 8.16806 19.5452 7.85536 19.6815 7.47049L21.4308 7.44644L19.9768 10.5013C19.9314 10.6216 19.9087 10.7419 19.9314 10.8621C20.2494 12.0889 21.1354 12.8586 22.2032 12.8586C23.2482 12.8586 24.1569 12.0648 24.475 10.8621C24.4977 10.7419 24.4977 10.5975 24.4295 10.5013L22.5667 6.58048C22.4985 6.43616 22.3849 6.33994 22.2486 6.33994L19.7042 6.364C19.5679 5.97913 19.318 5.66642 18.9772 5.44994V4.9448C18.9772 4.48777 18.6365 4.12695 18.2048 4.12695C17.7732 4.12695 17.4324 4.48777 17.4324 4.9448V5.44994C17.0917 5.64237 16.8418 5.97913 16.7282 6.33994L14.1838 6.31589C14.0475 6.31589 13.9111 6.4121 13.843 6.55643L11.9801 10.5013C11.9347 10.6216 11.912 10.7419 11.9347 10.8621C12.2755 12.0889 13.1615 12.8827 14.2065 12.8827ZM23.4072 10.357H20.9991L22.2032 7.80725L23.4072 10.357ZM14.2065 7.80725L15.4105 10.357H13.0024L14.2065 7.80725Z" fill="#90D05D"></path>
  </g>
  <defs>
    <clipPath id="clip0_682_19156">
      <rect width="35" height="35" fill="white" transform="translate(0.705078 0.103516)"></rect>
    </clipPath>
  </defs>
</svg>
