<?xml version="1.0" encoding="UTF-8"?>
<svg xmlns="http://www.w3.org/2000/svg" width="36" height="36" viewBox="0 0 36 36" fill="none">
  <g clip-path="url(#clip0_997_21345)">
    <path d="M0.074707 20.8133C0.074707 18.0695 2.91172 15.8452 6.41134 15.8452H28.7381C32.2377 15.8452 35.0747 18.0695 35.0747 20.8133V27.9897C35.0747 30.7335 32.2377 32.9577 28.7381 32.9577H6.41134C2.91171 32.9577 0.074707 30.7335 0.074707 27.9897V20.8133Z" fill="#E8FED6"></path>
    <path d="M24.1577 15.3901C23.7724 15.1594 23.3279 15.0442 22.8769 15.0348C22.2193 15.0212 21.5861 15.2899 21.1 15.7242C20.1303 16.5906 19.354 17.1919 17.5764 17.1919C15.7981 17.1919 14.9913 16.5736 14.0671 15.7314C13.6423 15.3443 13.1038 15.0778 12.525 15.0403C11.9903 15.0057 11.4513 15.117 10.9952 15.3901C9.6225 16.2116 6.8501 18.7398 6.8501 25.7593C6.8501 26.0361 6.8545 26.3031 6.86236 26.5625C6.87995 27.144 7.37027 27.6044 7.96396 27.6044H12.3311H15.4542H19.5411H22.5569H27.1889C27.7826 27.6044 28.2729 27.1441 28.2905 26.5625C28.2984 26.3032 28.3028 26.0361 28.3028 25.7593C28.3028 18.7398 25.5303 16.2116 24.1577 15.3901Z" fill="#90D05D"></path>
    <path d="M12.3311 11.5601C12.6225 11.5601 12.8988 11.4985 13.149 11.3897C13.8726 13.0872 15.582 14.2804 17.5765 14.2804C19.5568 14.2804 21.2561 13.104 21.9884 11.4258C22.2143 11.5113 22.4589 11.5601 22.7156 11.5601C22.8273 11.5601 22.9362 11.5489 23.0431 11.5318C22.2819 13.5711 20.3711 15.069 18.0801 15.2626C17.9778 15.0934 17.7917 14.9788 17.5765 14.9788C17.2521 14.9788 16.9892 15.2365 16.9892 15.5543C16.9892 15.8722 17.2521 16.1299 17.5765 16.1299C17.8118 16.1299 18.0133 15.9934 18.107 15.7976C20.7706 15.5811 22.9731 13.7526 23.6942 11.312C24.3158 10.9741 24.7369 10.3251 24.7369 9.57918C24.7369 8.83325 24.3158 8.1843 23.6942 7.8464C22.9257 5.24529 20.4749 3.3374 17.5764 3.3374C14.7003 3.3374 12.2646 5.21572 11.4764 7.78603C10.7879 8.10183 10.3098 8.78496 10.3098 9.57918C10.3098 10.6732 11.2148 11.5601 12.3311 11.5601ZM17.5764 3.87079C20.0877 3.87079 22.2267 5.43914 23.0431 7.62657C22.9362 7.60947 22.8273 7.59828 22.7156 7.59828C22.4589 7.59828 22.2143 7.64703 21.9884 7.73254C21.2561 6.0543 19.5568 4.87792 17.5765 4.87792C15.582 4.87792 13.8726 6.07119 13.149 7.76863C12.8988 7.65988 12.6225 7.59828 12.3311 7.59828C12.2585 7.59828 12.1869 7.6024 12.1163 7.60973C12.9373 5.43112 15.0715 3.87079 17.5764 3.87079Z" fill="#90D05D"></path>
  </g>
  <defs>
    <clipPath id="clip0_997_21345">
      <rect width="35" height="35" fill="white" transform="translate(0.074707 0.647461)"></rect>
    </clipPath>
  </defs>
</svg>
