<?xml version="1.0" encoding="UTF-8"?>
<svg xmlns="http://www.w3.org/2000/svg" width="36" height="36" viewBox="0 0 36 36" fill="none">
  <g clip-path="url(#clip0_682_19137)">
    <path d="M0.705078 16.917C0.705078 13.9525 3.54209 11.5493 7.04171 11.5493H29.3685C32.8681 11.5493 35.7051 13.9525 35.7051 16.917V24.6706C35.7051 27.6351 32.8681 30.0382 29.3685 30.0382H7.04171C3.54208 30.0382 0.705078 27.6351 0.705078 24.6706V16.917Z" fill="#FFECEC"></path>
    <path d="M23.054 9.58088L22.9551 12.522H27.5277L27.9054 10.9044C27.9677 10.5919 27.8929 10.2663 27.7019 10.0191C27.486 9.73829 27.1609 9.57697 26.819 9.58088H23.054Z" fill="#FF9696"></path>
    <path d="M18.2055 24.2865C18.2055 25.0986 17.5836 25.7571 16.8166 25.7571C16.0496 25.7571 15.4277 25.0986 15.4277 24.2865C15.4277 23.4744 16.0496 22.8159 16.8166 22.8159C17.5836 22.8159 18.2055 23.4744 18.2055 24.2865Z" fill="#FF9696"></path>
    <path d="M24.4555 24.2865C24.4555 25.0986 23.8336 25.7571 23.0666 25.7571C22.2996 25.7571 21.6777 25.0986 21.6777 24.2865C21.6777 23.4744 22.2996 22.8159 23.0666 22.8159C23.8336 22.8159 24.4555 23.4744 24.4555 24.2865Z" fill="#FF9696"></path>
    <path d="M13.7075 13.2573L13.8024 15.4632H17.3749L17.3001 13.2573H13.7075Z" fill="#FF9696"></path>
    <path d="M24.8027 21.3454H13.6917C13.5058 21.3456 13.3528 21.1908 13.3445 20.9944L13.123 15.8369V15.8306V15.8265L12.741 6.92364V6.92381C12.7215 6.45079 12.5301 6.00419 12.2069 5.67726C11.8837 5.35033 11.4537 5.16815 11.0066 5.16895H8.83062C8.63887 5.16895 8.4834 5.33357 8.4834 5.53659C8.4834 5.73962 8.63887 5.90424 8.83062 5.90424H10.9448C11.2131 5.90391 11.471 6.01322 11.6651 6.20935C11.8592 6.40532 11.9742 6.67317 11.9864 6.95678L12.5902 21.0273H12.5903C12.6024 21.311 12.7176 21.5789 12.9117 21.775C13.1056 21.9713 13.3637 22.0806 13.632 22.0803H24.8025C24.9943 22.0803 25.1498 21.9157 25.1498 21.7127C25.1498 21.5096 24.9943 21.345 24.8025 21.345L24.8027 21.3454Z" fill="#FF9696"></path>
    <path d="M17.492 18.9144L17.3999 16.1982H13.834L13.9594 19.1195L17.492 18.9144Z" fill="#FF9696"></path>
    <path d="M17.2759 12.522L17.1763 9.58081H13.5503L13.6766 12.522H17.2759Z" fill="#FF9696"></path>
    <path d="M22.8313 16.1985L22.7498 18.6087L25.2449 18.4638V18.464C25.4947 18.4717 25.7396 18.3893 25.9394 18.2304C26.1392 18.0715 26.2823 17.8455 26.3449 17.5893L26.6695 16.1985L22.8313 16.1985Z" fill="#FF9696"></path>
    <path d="M22.9301 13.2573L22.8557 15.4632H26.841L27.3562 13.2573H22.9301Z" fill="#FF9696"></path>
    <path d="M17.9704 12.522H22.2597L22.3591 9.58081H17.8706L17.9704 12.522Z" fill="#FF9696"></path>
    <path d="M22.2353 13.2573H17.9956L18.0702 15.4632H22.161L22.2353 13.2573Z" fill="#FF9696"></path>
    <path d="M22.0537 18.6492L22.1363 16.1985H18.0955L18.186 18.8743L22.0537 18.6492Z" fill="#FF9696"></path>
  </g>
  <defs>
    <clipPath id="clip0_682_19137">
      <rect width="35" height="35" fill="white" transform="translate(0.705078 0.103516)"></rect>
    </clipPath>
  </defs>
</svg>
