<?xml version="1.0" encoding="UTF-8"?>
<svg xmlns="http://www.w3.org/2000/svg" width="36" height="36" viewBox="0 0 36 36" fill="none">
  <g clip-path="url(#clip0_682_19021)">
    <path d="M0.205078 14.8152C0.205078 11.8507 3.04209 9.44751 6.54171 9.44751H28.8685C32.3681 9.44751 35.2051 11.8507 35.2051 14.8152V22.5688C35.2051 25.5333 32.3681 27.9364 28.8685 27.9364H6.54171C3.04208 27.9364 0.205078 25.5333 0.205078 22.5688V14.8152Z" fill="#E4ECFF"></path>
    <path d="M24.7052 9.22053C22.9411 9.22053 21.335 7.71504 21.335 6.06251V5.25049H14.0759V6.06251C14.0759 7.715 12.4698 9.22053 10.7057 9.22053H9.92725V16.9788C9.92725 21.2305 16.6357 24.3348 17.4002 24.6745L17.705 24.8093L18.0099 24.6745C18.7745 24.335 25.4828 21.2315 25.4828 16.9788V9.22053H24.7052ZM20.8163 15.8067H18.4829V18.2428H16.9274V15.8067H14.594V14.1827H16.9274V11.7466H18.4829V14.1827H20.8163V15.8067Z" fill="#7DA1F5"></path>
  </g>
  <defs>
    <clipPath id="clip0_682_19021">
      <rect width="35" height="35" fill="white" transform="translate(0.205078 0.103516)"></rect>
    </clipPath>
  </defs>
</svg>
