<?xml version="1.0" encoding="UTF-8"?>
<svg xmlns="http://www.w3.org/2000/svg" width="36" height="36" viewBox="0 0 36 36" fill="none">
  <g clip-path="url(#clip0_682_19079)">
    <path d="M0.705078 17.4141C0.705078 14.4496 3.54209 12.0464 7.04171 12.0464H29.3685C32.8681 12.0464 35.7051 14.4496 35.7051 17.4141V25.1677C35.7051 28.1322 32.8681 30.5353 29.3685 30.5353H7.04171C3.54208 30.5353 0.705078 28.1322 0.705078 25.1677V17.4141Z" fill="#FFECEC"></path>
    <path d="M13.6792 9.74979H13.4783C13.3382 9.74821 13.2038 9.80327 13.1061 9.90217C13.0003 9.99727 12.9385 10.1307 12.9348 10.2715C12.9348 10.5603 13.1718 10.7948 13.4652 10.7965H22.9296C23.0735 10.8 23.2126 10.7463 23.3155 10.6475C23.4186 10.5486 23.4766 10.4131 23.4766 10.2715C23.4766 9.98335 23.2391 9.74979 22.9462 9.74979H13.6792Z" fill="#FF9696"></path>
    <path d="M20.6562 16.8013C20.2869 17.0861 19.87 17.3054 19.4243 17.4494L19.3551 17.4689C19.2629 17.498 19.1674 17.5208 19.0718 17.5434L18.9665 17.5628L18.6964 17.6049H18.5877C18.4625 17.6049 18.3374 17.6244 18.2089 17.6244C18.0803 17.6244 17.9552 17.6244 17.83 17.6049H17.7279C17.6324 17.6049 17.5368 17.579 17.4446 17.5628L17.3525 17.5434C17.2471 17.5208 17.145 17.4948 17.0428 17.4655H17.0029C16.5503 17.3257 16.1272 17.106 15.7544 16.8174V17.5595L18.2053 18.6516L20.6563 17.5434L20.6562 16.8013Z" fill="#FF9696"></path>
    <path d="M19.4809 19.5591L19.9684 19.9123L19.9717 19.9156L20.5218 17.9614L18.5288 18.8656L19.0328 19.2319L19.4809 19.5591Z" fill="#FF9696"></path>
    <path d="M13.8501 9.4257H15.4511L15.6752 8.77757L16.8545 5.50781C16.0056 5.77855 15.2619 6.29994 14.7244 7.00073C14.187 7.70172 13.8817 8.54825 13.8502 9.42566L13.8501 9.4257Z" fill="#FF9696"></path>
    <path d="M16.4466 19.9091L16.9275 19.5559L17.8762 18.8624L15.8997 17.9614L16.4498 19.9058L16.4466 19.9091Z" fill="#FF9696"></path>
    <path d="M19.1446 5.32942C19.0777 5.13701 18.9511 4.96991 18.7827 4.85204C18.6143 4.73399 18.4126 4.67086 18.2057 4.67165C18.0014 4.67038 17.802 4.73289 17.6358 4.84982C17.4679 4.9666 17.3413 5.13211 17.2734 5.32295L15.9557 8.96218L15.7942 9.41583L20.6104 9.41599L19.1446 5.33279L19.1446 5.32942Z" fill="#FF9696"></path>
    <path d="M22.5603 9.42584C22.5285 8.54812 22.2232 7.70126 21.6858 6.99979C21.1484 6.29851 20.4049 5.77649 19.5559 5.50464L20.9626 9.42584H22.5603Z" fill="#FF9696"></path>
    <path d="M18.8412 21.9635L18.6468 20.2686H18.6467C18.6402 20.2454 18.6402 20.2207 18.6467 20.1974C18.6542 20.1738 18.6679 20.1526 18.6863 20.1359L19.1211 19.7048L18.2053 19.0339L17.2796 19.708L17.7146 20.1359H17.7144C17.7496 20.171 17.7676 20.2194 17.7639 20.2686L17.5037 22.5371L17.217 25.0875H19.1936L18.8412 21.9635Z" fill="#FF9696"></path>
    <path d="M26.7272 25.0877V22.6346C26.7272 20.2721 24.5497 18.4898 20.893 17.8481L20.2341 20.23V20.2299C20.2196 20.2816 20.1801 20.3228 20.1286 20.3402H20.0792C20.0475 20.3384 20.0168 20.3283 19.9903 20.3109L19.842 20.2008L19.4204 19.8962L19.0054 20.3044L19.1405 21.4905L19.5225 25.0877L26.7272 25.0877Z" fill="#FF9696"></path>
    <path d="M9.68311 22.6345V25.0877H16.8877L17.1941 22.4173L17.4346 20.3109L17.1052 19.9868L17.026 19.9123L16.6439 20.1909L16.4594 20.327L16.4595 20.3272C16.433 20.3446 16.4023 20.3546 16.3706 20.3563H16.321C16.2708 20.3381 16.2327 20.297 16.219 20.2462L15.5602 17.8643C11.8607 18.4897 9.68317 20.2753 9.68317 22.6345L9.68311 22.6345Z" fill="#FF9696"></path>
    <path d="M14.1335 13.7357H14.1929V13.6741L14.1927 11.8301H14.1334H14.1335C13.8767 11.8301 13.6302 11.9306 13.4486 12.1092C13.267 12.2878 13.165 12.5303 13.165 12.7828C13.165 13.0355 13.267 13.2779 13.4486 13.4566C13.6302 13.6352 13.8767 13.7357 14.1335 13.7357V13.7357Z" fill="#FF9696"></path>
    <path d="M22.2808 11.8301H22.2214V13.674C22.223 13.6946 22.223 13.7151 22.2214 13.7357H22.284C22.5404 13.7348 22.7859 13.634 22.9668 13.4555C23.1476 13.2768 23.2493 13.035 23.2493 12.7828C23.2493 12.5303 23.1473 12.2879 22.9655 12.1092C22.7839 11.9306 22.5377 11.8301 22.2808 11.8301L22.2808 11.8301Z" fill="#FF9696"></path>
    <path d="M21.8882 13.674V11.1238H14.5222V13.6742V13.674C14.5229 14.7562 15.016 15.7811 15.8663 16.4675C16.2284 16.7594 16.6447 16.9796 17.0919 17.1156H17.1215C17.217 17.1447 17.3158 17.1675 17.4147 17.1902H17.4807H17.4805C17.573 17.2091 17.6666 17.2232 17.7606 17.2323H17.8429C17.9644 17.2454 18.0864 17.2519 18.2085 17.2517C18.3297 17.2519 18.4506 17.2454 18.5709 17.2323H18.6697C18.7587 17.2323 18.8442 17.2096 18.9332 17.1933L19.0188 17.1707C19.1077 17.1512 19.1967 17.1318 19.2856 17.1058L19.3516 17.0832H19.3517C19.4447 17.0546 19.5359 17.021 19.6252 16.9829L19.6713 16.9634C19.7669 16.9245 19.8591 16.8792 19.9514 16.8305H19.981C20.0732 16.7786 20.1655 16.7269 20.2511 16.6685L20.2873 16.6458L20.5277 16.4677L20.5805 16.4223V16.4221C21.4049 15.739 21.8829 14.7344 21.8884 13.674H21.8882Z" fill="#FF9696"></path>
  </g>
  <defs>
    <clipPath id="clip0_682_19079">
      <rect width="35" height="35" fill="white" transform="translate(0.705078 0.103516)"></rect>
    </clipPath>
  </defs>
</svg>
