<?xml version="1.0" encoding="UTF-8"?>
<svg xmlns="http://www.w3.org/2000/svg" width="36" height="36" viewBox="0 0 36 36" fill="none">
  <g clip-path="url(#clip0_682_18986)">
    <path d="M0.330078 14.8152C0.330078 11.8507 3.16709 9.44751 6.66671 9.44751H28.9935C32.4931 9.44751 35.3301 11.8507 35.3301 14.8152V22.5688C35.3301 25.5333 32.4931 27.9364 28.9935 27.9364H6.66671C3.16708 27.9364 0.330078 25.5333 0.330078 22.5688V14.8152Z" fill="#FFECEC"></path>
    <path d="M10.5583 3.19165H24.7539C25.1462 3.19165 25.5226 3.35647 25.8002 3.64979C26.078 3.9431 26.2344 4.34114 26.2354 4.75649V25.2995C26.2354 25.7155 26.0792 26.1145 25.8014 26.4087C25.5236 26.7028 25.1468 26.8681 24.7539 26.8681H10.5583C10.166 26.8671 9.79008 26.7015 9.51304 26.4074C9.23602 26.1134 9.08036 25.7149 9.08036 25.2995V4.75649C9.08129 4.34179 9.23727 3.94426 9.51428 3.6511C9.79114 3.35779 10.1666 3.19262 10.5583 3.19165V3.19165ZM9.95383 25.2994C9.95383 25.4695 10.0175 25.6327 10.1307 25.7534C10.244 25.874 10.3976 25.9422 10.5582 25.9432H24.7539C24.9122 25.9384 25.0623 25.8684 25.1725 25.7483C25.2828 25.6281 25.3444 25.4671 25.3444 25.2994V4.7564C25.3444 4.58926 25.2826 4.42857 25.1724 4.309C25.0619 4.18943 24.9119 4.12023 24.7539 4.11643H10.5583C10.3979 4.11643 10.2443 4.18382 10.1309 4.30388C10.0175 4.42394 9.95384 4.58662 9.95384 4.75639L9.95383 25.2994Z" fill="#FF9696"></path>
    <path d="M11.3934 5.1968H23.9192C24.1603 5.1968 24.356 5.40373 24.356 5.65925V10.2761C24.356 10.3988 24.3099 10.5164 24.2281 10.6031C24.1462 10.6898 24.035 10.7386 23.9192 10.7386H11.3935C11.1536 10.7366 10.9601 10.5301 10.9601 10.2761V5.65923C10.9601 5.40522 11.1536 5.19876 11.3935 5.19678L11.3934 5.1968ZM11.8302 9.81369H23.4823V6.11426H11.8302V9.81369Z" fill="#FF9696"></path>
    <path d="M23.5729 11.5486H22.3116C21.9354 11.5486 21.6303 11.9469 21.6303 12.27V13.6054C21.6303 14.0037 21.9354 14.3267 22.3116 14.3267H23.5729C23.9491 14.3267 24.2542 13.9284 24.2542 13.6054V12.27C24.2542 11.8716 23.9491 11.5486 23.5729 11.5486Z" fill="#FF9696"></path>
    <path d="M22.3154 21.9771H23.5732C23.7585 21.9771 23.9363 22.055 24.0673 22.1937C24.1983 22.3326 24.272 22.5207 24.272 22.7169V24.0451C24.272 24.2413 24.1983 24.4294 24.0673 24.5683C23.9363 24.707 23.7585 24.785 23.5732 24.785H22.3154C22.1301 24.785 21.9524 24.707 21.8212 24.5683C21.6902 24.4294 21.6166 24.2413 21.6166 24.0451V22.7022C21.6203 22.5085 21.6955 22.324 21.8262 22.1886C21.9568 22.053 22.1324 21.9771 22.3154 21.9771V21.9771Z" fill="#FF9696"></path>
    <path d="M18.7897 15.0298H20.0475C20.2299 15.0298 20.4049 15.1051 20.5355 15.2399C20.6662 15.3746 20.7417 15.5581 20.7463 15.7512V17.083C20.7463 17.2792 20.6727 17.4675 20.5415 17.6062C20.4105 17.7449 20.2329 17.8229 20.0476 17.8229H18.7898C18.6074 17.8181 18.4341 17.738 18.3068 17.5997C18.1796 17.4615 18.1083 17.276 18.1084 17.083V15.7512C18.1128 15.5612 18.186 15.3806 18.3128 15.2463C18.4396 15.112 18.6104 15.0344 18.7897 15.0298L18.7897 15.0298Z" fill="#FF9696"></path>
    <path d="M18.7898 18.5034H20.0476C20.2329 18.5034 20.4105 18.5814 20.5415 18.7201C20.6727 18.8588 20.7463 19.047 20.7463 19.2433V20.5715V20.5713C20.7463 20.7675 20.6727 20.9558 20.5415 21.0945C20.4105 21.2332 20.2329 21.3112 20.0476 21.3112H18.7898C18.6074 21.3064 18.4341 21.2263 18.3068 21.0881C18.1795 20.9498 18.1083 20.7644 18.1084 20.5713V19.2248C18.1128 19.0349 18.186 18.854 18.3128 18.7198C18.4396 18.5855 18.6104 18.508 18.7897 18.5034L18.7898 18.5034Z" fill="#FF9696"></path>
    <path d="M20.0511 11.5486H18.7899C18.4137 11.5486 18.1086 11.9469 18.1086 12.27V13.6054C18.1086 14.0037 18.4137 14.3267 18.7899 14.3267H20.0511C20.4273 14.3267 20.7324 13.9284 20.7324 13.6054V12.27C20.7324 11.8716 20.4273 11.5486 20.0511 11.5486Z" fill="#FF9696"></path>
    <path d="M22.3154 15.0298H23.5732C23.7555 15.0298 23.9307 15.1051 24.0612 15.2399C24.1918 15.3746 24.2675 15.5581 24.272 15.7512V17.083C24.272 17.2792 24.1983 17.4675 24.0673 17.6062C23.9363 17.7449 23.7585 17.8229 23.5732 17.8229H22.3154C22.1301 17.8229 21.9524 17.7449 21.8212 17.6062C21.6902 17.4675 21.6166 17.2792 21.6166 17.083V15.7512C21.6211 15.5581 21.6968 15.3746 21.8273 15.2399C21.9579 15.1051 22.133 15.0298 22.3154 15.0298H22.3154Z" fill="#FF9696"></path>
    <path d="M22.3154 18.5034H23.5732C23.7585 18.5034 23.9363 18.5814 24.0673 18.7201C24.1983 18.8589 24.272 19.047 24.272 19.2433V20.5715V20.5713C24.272 20.7675 24.1983 20.9558 24.0673 21.0945C23.9363 21.2333 23.7585 21.3112 23.5732 21.3112H22.3154C22.1301 21.3112 21.9524 21.2333 21.8212 21.0945C21.6902 20.9558 21.6166 20.7675 21.6166 20.5713V19.2248C21.6211 19.0318 21.6968 18.8483 21.8273 18.7135C21.9579 18.5787 22.133 18.5033 22.3154 18.5034L22.3154 18.5034Z" fill="#FF9696"></path>
    <path d="M15.2646 21.9771H16.5224C16.7077 21.9771 16.8855 22.055 17.0165 22.1938C17.1476 22.3327 17.2212 22.5208 17.2212 22.717V24.0451C17.2212 24.2413 17.1476 24.4294 17.0165 24.5683C16.8855 24.7071 16.7077 24.785 16.5224 24.785H15.2646C15.0823 24.7802 14.909 24.7001 14.7817 24.5619C14.6544 24.4237 14.5833 24.2382 14.5833 24.0451V22.7022C14.5869 22.5117 14.6597 22.33 14.7865 22.1949C14.9135 22.0598 15.0848 21.9818 15.2646 21.9771V21.9771Z" fill="#FF9696"></path>
    <path d="M13.0003 11.5486H11.7391C11.3629 11.5486 11.0578 11.9469 11.0578 12.27V13.6054C11.0578 14.0037 11.3629 14.3267 11.7391 14.3267H13.0003C13.3766 14.3267 13.6816 13.9284 13.6816 13.6054V12.27C13.6816 11.8716 13.3765 11.5486 13.0003 11.5486Z" fill="#FF9696"></path>
    <path d="M11.7425 15.0298H13.0003C13.1796 15.0344 13.3504 15.112 13.4772 15.2463C13.604 15.3806 13.6771 15.5613 13.6816 15.7512V17.083C13.6816 17.276 13.6105 17.4615 13.4831 17.5997C13.3558 17.738 13.1825 17.8181 13.0003 17.8229H11.7425C11.5572 17.8229 11.3794 17.7449 11.2484 17.6062C11.1174 17.4675 11.0437 17.2792 11.0437 17.083V15.7512C11.0483 15.5581 11.1239 15.3746 11.2545 15.2399C11.385 15.1051 11.5602 15.0298 11.7425 15.0298L11.7425 15.0298Z" fill="#FF9696"></path>
    <path d="M11.7425 18.5034H13.0003C13.1825 18.5082 13.3558 18.5883 13.4831 18.7265C13.6105 18.8648 13.6816 19.0502 13.6816 19.2433V24.0526C13.6816 24.2456 13.6105 24.4309 13.4831 24.5692C13.3558 24.7076 13.1825 24.7875 13.0003 24.7925H11.7425C11.5572 24.7925 11.3794 24.7145 11.2484 24.5756C11.1174 24.4369 11.0437 24.2488 11.0437 24.0526V19.2433C11.0437 19.047 11.1174 18.8589 11.2484 18.7201C11.3794 18.5814 11.5572 18.5034 11.7425 18.5034V18.5034Z" fill="#FF9696"></path>
    <path d="M16.526 11.5486H15.2647C14.8885 11.5486 14.5835 11.9469 14.5835 12.27V13.6054C14.5835 14.0037 14.8885 14.3267 15.2647 14.3267H16.526C16.9022 14.3267 17.2073 13.9284 17.2073 13.6054V12.27C17.2073 11.8716 16.9022 11.5486 16.526 11.5486Z" fill="#FF9696"></path>
    <path d="M18.7898 21.9771H20.0476C20.2329 21.9771 20.4105 22.055 20.5415 22.1938C20.6727 22.3327 20.7463 22.5208 20.7463 22.717V24.0451C20.7463 24.2413 20.6727 24.4294 20.5415 24.5683C20.4105 24.7071 20.2329 24.785 20.0476 24.785H18.7898C18.6074 24.7802 18.4341 24.7001 18.3068 24.5619C18.1796 24.4237 18.1083 24.2382 18.1084 24.0451V22.7022C18.1119 22.5117 18.1847 22.33 18.3117 22.1949C18.4385 22.0598 18.6097 21.9818 18.7898 21.9771V21.9771Z" fill="#FF9696"></path>
    <path d="M15.2646 18.5034H16.5224C16.7077 18.5034 16.8855 18.5814 17.0165 18.7201C17.1476 18.8588 17.2212 19.047 17.2212 19.2433V20.5715V20.5713C17.2212 20.7675 17.1476 20.9558 17.0165 21.0945C16.8855 21.2332 16.7077 21.3112 16.5224 21.3112H15.2646C15.0823 21.3064 14.909 21.2263 14.7817 21.0881C14.6544 20.9498 14.5833 20.7644 14.5833 20.5713V19.2248C14.5876 19.0349 14.661 18.854 14.7878 18.7198C14.9146 18.5855 15.0852 18.508 15.2646 18.5034L15.2646 18.5034Z" fill="#FF9696"></path>
    <path d="M15.2646 15.0298H16.5224C16.7047 15.0298 16.8799 15.1051 17.0105 15.2399C17.141 15.3746 17.2167 15.5581 17.2212 15.7512V17.083C17.2212 17.2792 17.1476 17.4675 17.0165 17.6062C16.8855 17.7449 16.7077 17.8229 16.5224 17.8229H15.2646C15.0823 17.8181 14.909 17.738 14.7817 17.5997C14.6544 17.4615 14.5833 17.276 14.5833 17.083V15.7512C14.5876 15.5612 14.661 15.3806 14.7878 15.2463C14.9146 15.112 15.0852 15.0344 15.2646 15.0298L15.2646 15.0298Z" fill="#FF9696"></path>
  </g>
  <defs>
    <clipPath id="clip0_682_18986">
      <rect width="35" height="35" fill="white" transform="translate(0.330078 0.103516)"></rect>
    </clipPath>
  </defs>
</svg>
