<?xml version="1.0" encoding="UTF-8"?>
<svg xmlns="http://www.w3.org/2000/svg" width="36" height="36" viewBox="0 0 36 36" fill="none">
  <g clip-path="url(#clip0_682_19175)">
    <path d="M0.705078 17.573C0.705078 14.6085 3.54209 12.2053 7.04171 12.2053H29.3685C32.8681 12.2053 35.7051 14.6085 35.7051 17.573V25.3266C35.7051 28.2911 32.8681 30.6942 29.3685 30.6942H7.04171C3.54208 30.6942 0.705078 28.2911 0.705078 25.3266V17.573Z" fill="#EBFBFB"></path>
    <path d="M11.2394 17.0334C12.7599 17.0334 13.9925 15.7283 13.9925 14.1184C13.9925 12.5085 12.7599 11.2034 11.2394 11.2034C9.71893 11.2034 8.48633 12.5085 8.48633 14.1184C8.48633 15.7283 9.71893 17.0334 11.2394 17.0334Z" fill="#17CFCF"></path>
    <path d="M14.2986 18.7028C13.7574 18.1547 13.0515 17.8059 12.2514 17.8059H10.2042C8.72182 17.8059 7.47469 18.9769 7.30998 20.5465L7.02761 23.0629C7.00408 23.3868 7.19233 23.6858 7.49822 23.7605C8.67476 24.0346 9.94541 24.1592 11.2396 24.1592C11.6396 24.1592 12.0396 24.1592 12.4397 24.1094L12.6985 21.7923C12.8397 20.5715 13.4515 19.4752 14.2986 18.7028Z" fill="#17CFCF"></path>
    <path d="M25.1696 17.0334C26.6901 17.0334 27.9227 15.7283 27.9227 14.1184C27.9227 12.5085 26.6901 11.2034 25.1696 11.2034C23.6491 11.2034 22.4165 12.5085 22.4165 14.1184C22.4165 15.7283 23.6491 17.0334 25.1696 17.0334Z" fill="#17CFCF"></path>
    <path d="M29.0992 20.5465C28.9345 18.9769 27.6638 17.8059 26.2049 17.8059H24.1578C23.3577 17.8059 22.6518 18.1298 22.1106 18.7028C22.9812 19.4503 23.5695 20.5465 23.7107 21.8172L23.9695 24.1343C24.346 24.1592 24.7696 24.1841 25.1696 24.1841C26.4638 24.1841 27.7344 24.0595 28.911 23.7855C29.2168 23.7107 29.4051 23.4117 29.3816 23.0878L29.0992 20.5465Z" fill="#17CFCF"></path>
    <path d="M19.2164 19.3008H17.1693C15.6868 19.3008 14.4397 20.4718 14.275 22.0165L13.9926 24.5329C13.9456 24.8568 14.1573 25.1807 14.4632 25.2305C15.6398 25.5046 16.9104 25.6291 18.2046 25.6291C19.5223 25.6291 20.7695 25.4796 21.946 25.2305C22.2519 25.1558 22.4401 24.8568 22.4166 24.5329L22.1342 22.0165C21.946 20.4718 20.6989 19.3008 19.2164 19.3008Z" fill="#17CFCF"></path>
    <path d="M18.2047 18.5036C19.7252 18.5036 20.9578 17.1985 20.9578 15.5886C20.9578 13.9787 19.7252 12.6736 18.2047 12.6736C16.6843 12.6736 15.4517 13.9787 15.4517 15.5886C15.4517 17.1985 16.6843 18.5036 18.2047 18.5036Z" fill="#17CFCF"></path>
    <path d="M21.7341 10.207V8.33838L19.0987 9.16057C18.7928 9.26023 18.4869 9.31006 18.181 9.31006C17.8751 9.31006 17.5692 9.26023 17.2633 9.16057L14.6985 8.38821V10.2319C14.6985 10.5807 14.9103 10.8548 15.2162 10.9544L16.3456 11.3032C17.5692 11.677 18.8869 11.677 20.1105 11.3032L21.2165 10.9544C21.5224 10.8548 21.7341 10.5558 21.7341 10.207Z" fill="#17CFCF"></path>
    <path d="M13.0044 6.74376L17.4988 8.16391C17.9459 8.3134 18.4165 8.3134 18.8871 8.16391L22.7461 6.94308V8.01442C22.6755 8.06425 22.6049 8.13899 22.6049 8.23865V8.53763C22.6049 8.63729 22.6755 8.73695 22.7461 8.78678L22.5108 9.38473C22.4873 9.45948 22.5343 9.55914 22.6049 9.55914L22.8402 9.58405C22.8873 9.58405 22.9344 9.58405 22.9814 9.58405L23.2167 9.55914C23.2873 9.55914 23.3344 9.45948 23.3108 9.38473L23.0755 8.78678C23.1697 8.73695 23.2167 8.6622 23.2167 8.53763V8.23865C23.2167 8.13899 23.1697 8.06425 23.0755 8.01442V6.81851L23.3344 6.74376C23.6403 6.64411 23.6403 6.17072 23.3344 6.07107L18.8636 4.67584C18.4165 4.52635 17.9459 4.52635 17.4752 4.67584L12.9809 6.09598C12.6985 6.19564 12.6985 6.64411 13.0044 6.74376Z" fill="#17CFCF"></path>
  </g>
  <defs>
    <clipPath id="clip0_682_19175">
      <rect width="35" height="35" fill="white" transform="translate(0.705078 0.128906)"></rect>
    </clipPath>
  </defs>
</svg>
