<?xml version="1.0" encoding="UTF-8"?>
<svg xmlns="http://www.w3.org/2000/svg" width="37" height="35" viewBox="0 0 37 35" fill="none">
  <g clip-path="url(#clip0_1006_20317)">
    <path d="M0.705078 14.3947C0.705078 11.5149 3.62315 9.18042 7.22276 9.18042H30.1874C33.787 9.18042 36.7051 11.5149 36.7051 14.3947V21.9268C36.7051 24.8066 33.787 27.1411 30.1874 27.1411H7.22276C3.62314 27.1411 0.705078 24.8066 0.705078 21.9268V14.3947Z" fill="#EBFBFB"></path>
    <path d="M14.8616 9.72705L9.14904 13.4992L9.13745 24.8633H14.8617L14.8616 9.72705Z" fill="#17CFCF"></path>
    <path d="M22.3398 24.8637V11.0542L18.2911 7.66138L16.6169 8.77887V24.8635L22.3398 24.8637Z" fill="#17CFCF"></path>
    <path d="M29.4539 6.25854L23.7307 11.0541V24.8636H29.4539V6.25854Z" fill="#17CFCF"></path>
    <path d="M8.93346 11.9477C8.76909 12.0525 8.61051 11.8026 8.77344 11.6987L18.5318 5.45083C18.5879 5.41523 18.6591 5.42144 18.7075 5.46243L23.1287 9.21446L29.4634 4.13792C29.6154 4.01619 29.8 4.24723 29.6487 4.36855L23.2254 9.51631C23.1712 9.56475 23.0874 9.56744 23.0304 9.519L18.5998 5.75912L8.93364 11.9476L8.93346 11.9477Z" fill="#17CFCF"></path>
  </g>
  <defs>
    <clipPath id="clip0_1006_20317">
      <rect width="36" height="34" fill="white" transform="translate(0.705078 0.103516)"></rect>
    </clipPath>
  </defs>
</svg>
