<?xml version="1.0" encoding="UTF-8"?>
<svg xmlns="http://www.w3.org/2000/svg" width="36" height="36" viewBox="0 0 36 36" fill="none">
  <g clip-path="url(#clip0_682_19052)">
    <path d="M0.205078 17.6846C0.205078 14.7201 3.04209 12.3169 6.54171 12.3169H28.8685C32.3681 12.3169 35.2051 14.7201 35.2051 17.6846V25.4382C35.2051 28.4027 32.3681 30.8058 28.8685 30.8058H6.54171C3.04208 30.8058 0.205078 28.4027 0.205078 25.4382V17.6846Z" fill="#EBFBFB"></path>
    <path d="M21.7698 8.80334C21.7328 7.01797 20.5064 5.49733 18.7426 5.04377C18.609 5.00853 18.5182 4.95233 18.4421 4.82459C18.0948 4.25679 17.3105 4.2606 16.9613 4.83036C16.891 4.94474 16.8131 5.00564 16.6862 5.03906C14.8716 5.52116 13.6775 7.00171 13.6366 8.82916C13.6327 9.00353 13.5898 9.13978 13.4786 9.28271C13.063 9.81524 13.1254 10.4593 13.62 10.9214C13.7682 11.0605 13.9321 11.1738 14.1068 11.2701C14.1731 11.9369 14.2844 12.8383 14.4893 13.3108C14.774 13.97 15.1517 14.5703 15.6862 15.0676C16.9106 16.2052 18.5026 16.2034 19.7233 15.0638C20.1213 14.6923 20.4384 14.2626 20.6901 13.7872C21.013 13.1755 21.2178 12.0846 21.2979 11.2719C21.4687 11.1738 21.6315 11.0585 21.7838 10.9214C22.2862 10.4688 22.3476 9.81235 21.9292 9.28546C21.809 9.13295 21.7738 8.98622 21.7699 8.80336L21.7698 8.80334ZM17.3868 8.95007C17.3916 8.75944 17.4843 8.62319 17.693 8.61848C17.9174 8.61378 18.0179 8.75276 18.0198 8.95767C18.0246 9.36534 18.0257 9.7741 18.0218 10.1839C18.0188 10.3773 17.9164 10.5135 17.7145 10.5173C17.4959 10.5231 17.3906 10.383 17.3857 10.1763C17.3808 9.97247 17.3847 9.76756 17.3847 9.56372C17.3847 9.35881 17.3799 9.15391 17.3868 8.95007L17.3868 8.95007ZM14.8072 9.61613C14.7974 9.18929 14.7985 8.76144 14.8072 8.3346C14.8111 8.15262 14.9253 8.03263 15.1116 8.02777C15.3126 8.02215 15.4287 8.14503 15.4365 8.34037C15.4463 8.56229 15.4395 8.78619 15.4395 9.00915H15.4385C15.4385 9.213 15.4454 9.41792 15.4356 9.62175C15.4278 9.80372 15.3253 9.92083 15.1332 9.9266C14.9243 9.93237 14.8122 9.80843 14.8072 9.61613L14.8072 9.61613ZM19.2209 14.3255C18.8697 14.6885 18.4589 14.9639 17.9381 15.0333C17.2172 15.1295 16.662 14.8085 16.1889 14.3273C15.6103 13.7386 15.2582 12.4962 15.0739 11.6464C15.9217 11.8864 16.7821 11.9484 17.5587 11.9599C18.3186 11.957 18.9479 11.9265 19.5684 11.8141C19.8239 11.7684 20.0785 11.7179 20.3264 11.6531C20.1515 12.4963 19.7925 13.7357 19.2209 14.3255L19.2209 14.3255ZM20.8433 9.65424C20.8374 9.82376 20.7136 9.92583 20.5389 9.92674C20.3506 9.92765 20.2277 9.82573 20.219 9.63905C20.2073 9.40756 20.216 9.1741 20.216 8.94169H20.217C20.217 8.73784 20.2131 8.53292 20.2179 8.32819C20.2238 8.13954 20.3419 8.03276 20.5262 8.02896C20.7086 8.02425 20.8413 8.13286 20.8452 8.31574C20.8559 8.76245 20.8568 9.20843 20.8433 9.65424L20.8433 9.65424ZM11.2116 21.3322V25.0248C11.2116 25.0464 11.2124 25.0673 11.2138 25.0881H10.6244C9.70244 25.0881 8.95508 24.3583 8.95508 23.4578V18.7854C8.95508 17.5444 9.6029 16.452 10.5859 15.812L11.8189 20.1007C11.4485 20.3897 11.2116 20.8343 11.2116 21.3323L11.2116 21.3322ZM22.8011 15.2156C23.1501 15.2156 23.4873 15.2631 23.8068 15.3524L22.5406 19.7554L12.8698 19.7556L11.6036 15.3526C11.9231 15.2633 12.2603 15.2157 12.6093 15.2157H13.8814C14.1175 15.5443 14.3788 15.842 14.6695 16.1122C15.5491 16.9294 16.5983 17.3611 17.7037 17.3611H17.7045C18.8128 17.3611 19.8636 16.9273 20.7431 16.1064C21.0301 15.8384 21.2922 15.5408 21.5261 15.2157L22.8011 15.2156ZM24.7857 25.0881H24.1964C24.198 25.0672 24.1986 25.0464 24.1986 25.0248V21.3322C24.1986 20.8343 23.9617 20.3896 23.5912 20.1007L24.8243 15.812C25.8071 16.4519 26.4551 17.5444 26.4551 18.7854V23.4578C26.4551 24.3582 25.7077 25.0881 24.7857 25.0881L24.7857 25.0881ZM23.2357 25.0881H12.1745C12.1716 25.0672 12.1708 25.0464 12.1708 25.0254V21.3315C12.1708 20.9783 12.4637 20.6923 12.8261 20.6923H22.5848C22.9464 20.6923 23.2393 20.9783 23.2393 21.3315V25.0254C23.2394 25.0464 23.2387 25.0672 23.2357 25.0881H23.2357Z" fill="#17CFCF"></path>
  </g>
  <defs>
    <clipPath id="clip0_682_19052">
      <rect width="35" height="35" fill="white" transform="translate(0.205078 0.103516)"></rect>
    </clipPath>
  </defs>
</svg>
