<?xml version="1.0" encoding="UTF-8"?>
<svg xmlns="http://www.w3.org/2000/svg" width="36" height="36" viewBox="0 0 36 36" fill="none">
  <g clip-path="url(#clip0_682_19010)">
    <path d="M0.205078 16.0825C0.205078 13.118 3.04209 10.7148 6.54171 10.7148H28.8685C32.3681 10.7148 35.2051 13.118 35.2051 16.0825V23.8361C35.2051 26.8006 32.3681 29.2037 28.8685 29.2037H6.54171C3.04208 29.2037 0.205078 26.8006 0.205078 23.8361V16.0825Z" fill="#FFF6DC"></path>
    <path d="M17.8982 6.00317C15.8724 6.00317 14.2451 7.55821 14.2451 9.49407V10.224C14.2451 11.0491 14.378 11.8425 14.6436 12.6359L14.7433 12.9215C14.8761 13.3023 15.1086 13.6514 15.3743 13.9053L16.2709 14.7621C16.5698 15.0478 17.0015 15.2382 17.4333 15.2382H18.3299C18.7617 15.2382 19.1934 15.0795 19.4923 14.7621L20.389 13.9053C20.6878 13.6197 20.8871 13.2706 21.0199 12.9215L21.1196 12.6359C21.3853 11.8425 21.5181 11.0491 21.5181 10.224V9.49407C21.5513 7.55821 19.924 6.00317 17.8982 6.00317Z" fill="#FFD076"></path>
    <path d="M13.248 22.5055C13.6134 22.5055 13.9122 22.2199 13.9122 21.8708C13.9122 21.5217 13.6134 21.2361 13.248 21.2361V22.5055Z" fill="#FFD076"></path>
    <path d="M11.9192 19.9667C11.9192 20.3158 12.2181 20.6014 12.5834 20.6014V19.332C12.2181 19.332 11.9192 19.6176 11.9192 19.9667Z" fill="#FFD076"></path>
    <path d="M23.643 16.6342L20.2223 15.8408L17.8976 19.2048L15.5729 15.8408L12.1855 16.6342C10.8571 16.9516 9.92725 18.094 9.92725 19.3952V25.0441H25.868V19.3636C25.868 18.0942 24.9714 16.9517 23.643 16.6344V16.6342ZM14.5764 21.8707C14.5764 22.5689 13.9787 23.1401 13.2481 23.1401V23.7748H12.5839V23.1401C11.8532 23.1401 11.2555 22.5689 11.2555 21.8707H11.9197C11.9197 22.2198 12.2185 22.5054 12.5839 22.5054V21.236C11.8532 21.236 11.2555 20.6648 11.2555 19.9666C11.2555 19.2684 11.8532 18.6972 12.5839 18.6972V18.0625H13.2481V18.6972C13.9787 18.6972 14.5764 19.2684 14.5764 19.9666H13.9123C13.9123 19.6175 13.6134 19.3319 13.2481 19.3319V20.6013C13.9787 20.6013 14.5764 21.1725 14.5764 21.8707Z" fill="#FFD076"></path>
  </g>
  <defs>
    <clipPath id="clip0_682_19010">
      <rect width="35" height="35" fill="white" transform="translate(0.205078 0.103516)"></rect>
    </clipPath>
  </defs>
</svg>
