<?xml version="1.0" encoding="UTF-8"?>
<svg xmlns="http://www.w3.org/2000/svg" width="36" height="36" viewBox="0 0 36 36" fill="none">
  <g clip-path="url(#clip0_682_19168)">
    <path d="M0.705078 17.2434C0.705078 14.2789 3.54209 11.8757 7.04171 11.8757H29.3685C32.8681 11.8757 35.7051 14.2789 35.7051 17.2434V24.997C35.7051 27.9615 32.8681 30.3646 29.3685 30.3646H7.04171C3.54208 30.3646 0.705078 27.9615 0.705078 24.997V17.2434Z" fill="#FFF1CF"></path>
    <path d="M28.3994 18.3327C28.4014 18.6269 28.324 18.9164 28.1751 19.1712C28.0262 19.4261 27.8113 19.6371 27.5524 19.7826C27.1262 20.0447 26.6391 20.1946 26.1377 20.218H26.0154C25.7256 20.2212 25.4416 20.138 25.2004 19.9794C24.9592 19.8208 24.7719 19.5942 24.663 19.3289C24.5368 19.04 24.4634 18.7312 24.446 18.417V18.4034L24.4945 15.4397C24.525 15.1357 24.6445 14.847 24.8383 14.609C25.0322 14.3709 25.292 14.1938 25.5861 14.0992C25.5741 13.0515 25.3191 12.0205 24.8407 11.0854C23.6521 8.78517 21.7643 7.43784 19.228 7.06169C17.328 6.78292 15.3932 7.25178 13.8395 8.36745C12.2859 9.48311 11.2374 11.1565 10.9197 13.0277C10.872 13.3396 10.8435 13.654 10.8343 13.9693V14.1038C11.08 14.18 11.3024 14.3159 11.4811 14.4992C11.6597 14.6824 11.7889 14.907 11.8567 15.1525C11.9308 15.3903 11.9689 15.6377 11.9698 15.8865C11.9698 16.7688 11.9698 17.5735 11.9698 18.3418C11.9643 18.6046 11.9192 18.865 11.8359 19.1146C11.7377 19.4306 11.5425 19.7086 11.2774 19.9103C11.3653 20.9454 11.8433 21.9103 12.6168 22.614C13.3903 23.3177 14.403 23.7091 15.4546 23.7106H16.0016C16.0965 23.5454 16.2341 23.4081 16.4004 23.3128C16.5666 23.2175 16.7556 23.1675 16.9478 23.168H19.0364C19.3253 23.168 19.6024 23.2814 19.8067 23.4832C20.011 23.685 20.1257 23.9587 20.1257 24.244V25.3839C20.1257 25.6693 20.011 25.943 19.8067 26.1448C19.6024 26.3466 19.3253 26.4599 19.0364 26.4599H16.9478C16.7546 26.4587 16.5652 26.4064 16.3993 26.3086C16.2333 26.2109 16.0968 26.071 16.0039 25.9037H15.4569C13.8211 25.901 12.2482 25.2808 11.0602 24.17C9.8722 23.0592 9.15896 21.5418 9.06651 19.9285C8.95195 19.8714 8.84234 19.805 8.7388 19.7302C8.52029 19.5869 8.3398 19.3938 8.21249 19.1673C8.08519 18.9408 8.01479 18.6874 8.00721 18.4284C7.99336 17.6009 7.99336 16.7278 8.00721 15.8318C8.0103 15.5889 8.06949 15.3499 8.18027 15.133C8.29106 14.9161 8.45052 14.727 8.64649 14.5802C8.55773 12.1223 9.45327 9.72892 11.139 7.91887C12.4586 6.42834 14.2465 5.41844 16.2162 5.05096C19.9088 4.35337 23.0359 5.4066 25.4961 8.18332C27.0723 9.95923 27.8362 12.1159 27.7693 14.5939C27.974 14.7512 28.1387 14.9534 28.2505 15.1845C28.3623 15.4156 28.418 15.6692 28.4132 15.9253V16.4542C28.4063 17.0788 28.4086 17.6966 28.3994 18.3327ZM22.6713 13.4153V17.8995C22.671 18.0896 22.6327 18.2778 22.5585 18.4532C22.4844 18.6286 22.3759 18.7878 22.2393 18.9217C22.1027 19.0556 21.9407 19.1615 21.7625 19.2333C21.5844 19.3052 21.3936 19.3415 21.2012 19.3403H19.3549L18.0117 20.6603C17.9317 20.739 17.8299 20.7926 17.7191 20.8143C17.6083 20.836 17.4934 20.8248 17.3891 20.7821C17.2847 20.7395 17.1954 20.6673 17.1325 20.5746C17.0696 20.4819 17.0358 20.3729 17.0355 20.2613V19.3403H15.2008C14.8141 19.3397 14.4435 19.1877 14.1701 18.9177C13.8967 18.6476 13.7428 18.2815 13.7422 17.8995V13.4153C13.7428 13.0334 13.8967 12.6672 14.1701 12.3972C14.4435 12.1271 14.8141 11.9751 15.2008 11.9745H21.2012C21.3936 11.9733 21.5844 12.0097 21.7625 12.0815C21.9407 12.1534 22.1027 12.2593 22.2393 12.3931C22.3759 12.527 22.4844 12.6862 22.5585 12.8616C22.6327 13.0371 22.671 13.2252 22.6713 13.4153ZM19.6988 16.9101C19.6991 16.6175 19.6115 16.3314 19.4472 16.0879C19.2829 15.8444 19.0492 15.6546 18.7756 15.5423C18.9559 15.4205 19.092 15.2449 19.164 15.0412C19.2359 14.8375 19.2399 14.6164 19.1754 14.4103C19.1109 14.2042 18.9813 14.0239 18.8055 13.8958C18.6298 13.7677 18.4171 13.6986 18.1987 13.6986C17.9803 13.6986 17.7676 13.7677 17.5918 13.8958C17.416 14.0239 17.2864 14.2042 17.2219 14.4103C17.1574 14.6164 17.1614 14.8375 17.2334 15.0412C17.3053 15.2449 17.4414 15.4205 17.6217 15.5423C17.3482 15.6546 17.1144 15.8444 16.9501 16.0879C16.7858 16.3314 16.6983 16.6175 16.6986 16.9101V17.4003C16.6986 17.4553 16.7207 17.5081 16.7601 17.547C16.7995 17.5859 16.8529 17.6077 16.9086 17.6077H19.4888C19.5445 17.6077 19.5979 17.5859 19.6373 17.547C19.6766 17.5081 19.6988 17.4553 19.6988 17.4003V16.9101Z" fill="#FFD076"></path>
  </g>
  <defs>
    <clipPath id="clip0_682_19168">
      <rect width="35" height="35" fill="white" transform="translate(0.705078 0.103516)"></rect>
    </clipPath>
  </defs>
</svg>
