<?xml version="1.0" encoding="UTF-8"?>
<svg xmlns="http://www.w3.org/2000/svg" width="36" height="36" viewBox="0 0 36 36" fill="none">
  <g clip-path="url(#clip0_682_19059)">
    <path d="M0.205078 14.8152C0.205078 11.8507 3.04209 9.44751 6.54171 9.44751H28.8685C32.3681 9.44751 35.2051 11.8507 35.2051 14.8152V22.5688C35.2051 25.5333 32.3681 27.9364 28.8685 27.9364H6.54171C3.04208 27.9364 0.205078 25.5333 0.205078 22.5688V14.8152Z" fill="#FFECEC"></path>
    <path d="M19.967 3.71912C19.7867 3.8724 19.6709 4.10203 19.6469 4.35399L18.8356 12.375L17.2547 12.1012C17.1159 12.0753 16.975 12.0661 16.8343 12.0739C16.5055 12.0974 16.1936 12.2459 15.9502 12.4947C15.7068 12.7434 15.5462 13.0776 15.4953 13.4422L15.3657 14.3371L23.9304 15.8859L24.1015 14.6956C24.2701 13.5325 22.8798 13.1549 22.8798 13.1549L21.1887 12.8293L22.8259 4.94514C22.8769 4.69508 22.8332 4.43262 22.7056 4.21956C22.5779 4.00673 22.3775 3.86223 22.1515 3.82042L20.6096 3.54669C20.3834 3.50279 20.1509 3.56521 19.967 3.71906L19.967 3.71912ZM20.7465 4.5756L21.6945 4.74797L21.6947 4.74816C21.7463 4.75675 21.7927 4.78844 21.8234 4.83559C21.8542 4.88293 21.8667 4.9421 21.8583 4.99975L21.807 5.35823C21.7987 5.41645 21.77 5.46837 21.7273 5.50273C21.6846 5.53709 21.6316 5.55121 21.5798 5.54167L20.6318 5.3693H20.6316C20.5805 5.35995 20.5346 5.32807 20.5044 5.28092C20.4741 5.23358 20.462 5.17479 20.4703 5.11752L20.5193 4.76171C20.5274 4.70388 20.5554 4.65176 20.5975 4.61664C20.6401 4.58323 20.6923 4.56854 20.7441 4.5756L20.7465 4.5756Z" fill="#FF9696"></path>
    <path d="M23.1215 17.4093L15.123 15.886C14.8654 19.1261 11.4768 19.8167 11.4768 19.8167C12.0192 20.5744 13.0538 21.1601 14.3025 21.5658C15.0934 21.2703 16.0412 20.0962 16.3807 19.4863V19.4861C16.2215 20.3484 15.8752 21.1473 15.3758 21.8048C16.2877 22.0107 17.2167 22.0937 18.1445 22.052C19.2133 21.5388 20.1316 19.9993 20.1316 19.9993C20.0792 20.6065 19.7989 21.6839 19.5255 21.9633C20.2274 21.9156 20.9168 21.7238 21.5627 21.3964C23.1192 20.6845 23.2058 18.5808 23.1214 17.4093L23.1215 17.4093Z" fill="#FF9696"></path>
    <path d="M23.5274 23.8602C23.5274 24.2846 23.2239 24.6286 22.8494 24.6286C22.4751 24.6286 22.1714 24.2846 22.1714 23.8602C22.1714 23.436 22.4751 23.0918 22.8494 23.0918C23.2239 23.0918 23.5274 23.436 23.5274 23.8602Z" fill="#FF9696"></path>
    <path d="M27.4273 15.886C27.0647 15.886 26.717 16.0492 26.4605 16.3399C26.2041 16.6305 26.0601 17.0246 26.0601 17.4355C26.0601 17.8463 26.2041 18.2404 26.4605 18.531C26.717 18.8216 27.0647 18.9848 27.4273 18.9848C27.7898 18.9848 28.1375 18.8216 28.394 18.531C28.6504 18.2404 28.7944 17.8463 28.7944 17.4355C28.7937 17.0248 28.6494 16.6311 28.3932 16.3407C28.1369 16.0503 27.7896 15.8869 27.4273 15.886L27.4273 15.886Z" fill="#FF9696"></path>
    <path d="M9.02217 18.279C9.02217 19.032 8.48333 19.6425 7.81885 19.6425C7.15436 19.6425 6.61572 19.032 6.61572 18.279C6.61572 17.5257 7.15436 16.9153 7.81885 16.9153C8.48333 16.9153 9.02217 17.5257 9.02217 18.279Z" fill="#FF9696"></path>
    <path d="M13.7494 22.7992C13.7494 23.2063 13.4583 23.5362 13.0991 23.5362C12.7399 23.5362 12.449 23.2062 12.449 22.7992C12.449 22.3922 12.7399 22.0623 13.0991 22.0623C13.4583 22.0623 13.7494 22.3922 13.7494 22.7992Z" fill="#FF9696"></path>
  </g>
  <defs>
    <clipPath id="clip0_682_19059">
      <rect width="35" height="35" fill="white" transform="translate(0.205078 0.103516)"></rect>
    </clipPath>
  </defs>
</svg>
