<?xml version="1.0" encoding="UTF-8"?>
<svg xmlns="http://www.w3.org/2000/svg" width="36" height="36" viewBox="0 0 36 36" fill="none">
  <g clip-path="url(#clip0_682_19040)">
    <path d="M0.205078 14.8149C0.205078 11.8504 3.04209 9.44727 6.54171 9.44727H28.8685C32.3681 9.44727 35.2051 11.8504 35.2051 14.8149V22.5686C35.2051 25.5331 32.3681 27.9362 28.8685 27.9362H6.54171C3.04208 27.9362 0.205078 25.5331 0.205078 22.5686V14.8149Z" fill="#E4ECFF"></path>
    <path d="M14.8573 12.5498C14.935 12.551 15.0124 12.5408 15.0876 12.5194L16.2997 14.2142H16.2996C16.5329 14.5323 16.9075 14.696 17.2847 14.6445C17.6619 14.593 17.9851 14.3342 18.1346 13.9639C18.2841 13.5936 18.2374 13.1673 18.0118 12.8431L17.386 11.9672L19.5154 11.8339H19.5153C19.8867 11.8068 20.2191 11.5799 20.3957 11.233C20.5723 10.886 20.5686 10.4672 20.3857 10.1238L18.6737 6.98179C18.4837 6.64226 18.143 6.42906 17.7705 6.41683C17.3979 6.40442 17.0453 6.59467 16.8356 6.92094L15.5083 9.05369H15.5084C15.3711 9.2725 15.3101 9.53503 15.3357 9.79632L14.3178 10.4171C14.0446 10.5881 13.856 10.8773 13.802 11.2085C13.7479 11.5397 13.8338 11.8793 14.0369 12.1374C14.24 12.3956 14.54 12.5464 14.8573 12.5498L14.8573 12.5498ZM17.4363 13.3001C17.5519 13.4654 17.5204 13.6983 17.3656 13.8224C17.2108 13.9467 16.9905 13.9158 16.8715 13.7534L15.7492 12.1805L16.3679 11.8034L17.4363 13.3001ZM14.6774 11.0798L15.6091 10.5085L15.9723 11.1674L15.0371 11.7386C14.8656 11.8401 14.6489 11.7771 14.5506 11.597C14.4523 11.4168 14.5088 11.1864 14.6774 11.0798L14.6774 11.0798Z" fill="#7DA1F5"></path>
    <path d="M20.1506 8.17113C20.25 8.35305 20.4698 8.41545 20.6419 8.31054L21.2649 7.9297C21.4367 7.82445 21.4957 7.5917 21.3964 7.40944C21.2972 7.22735 21.0772 7.16495 20.9053 7.27002L20.2822 7.65087C20.1103 7.75594 20.0512 7.98887 20.1506 8.17113H20.1506Z" fill="#7DA1F5"></path>
    <path d="M19.3607 7.33452C19.5327 7.43943 19.7525 7.37703 19.8519 7.19511L20.2116 6.53578C20.2595 6.44822 20.2725 6.34434 20.2478 6.24675C20.223 6.14916 20.1628 6.06585 20.0803 6.01535C19.9976 5.96485 19.8995 5.95125 19.8073 5.97727C19.7151 6.00345 19.6366 6.06738 19.5889 6.15494L19.2292 6.81426C19.1814 6.90165 19.1685 7.0057 19.1931 7.10329C19.2178 7.20089 19.278 7.28402 19.3607 7.33452H19.3607Z" fill="#7DA1F5"></path>
    <path d="M20.4404 9.31371C20.4404 9.4147 20.4783 9.51161 20.5458 9.58302C20.6132 9.65443 20.7047 9.69455 20.8001 9.69455H21.5195C21.7181 9.69455 21.8792 9.52402 21.8792 9.31371C21.8792 9.10339 21.7181 8.93286 21.5195 8.93286H20.8001C20.7047 8.93286 20.6132 8.97299 20.5458 9.04439C20.4783 9.1158 20.4404 9.21272 20.4404 9.31371Z" fill="#7DA1F5"></path>
    <path d="M26.1006 26.31H25.3812V12.5995C25.3812 12.1955 25.2296 11.8078 24.9598 11.5222C24.6899 11.2366 24.324 11.0761 23.9424 11.0761H23.5359C23.7428 9.34121 23.2356 7.59576 22.1434 6.28438C21.0511 4.97266 19.4792 4.22119 17.8279 4.22119C16.1762 4.22119 14.6044 4.9727 13.5121 6.28438C12.4198 7.59593 11.9126 9.34134 12.1195 11.0761H11.7131C11.3314 11.0761 10.9655 11.2366 10.6956 11.5222C10.4258 11.8079 10.2742 12.1955 10.2744 12.5995V26.31H9.555C9.35845 26.3134 9.20093 26.4829 9.20093 26.6908C9.20093 26.8989 9.35861 27.0684 9.555 27.0717H26.1007C26.2971 27.0684 26.4546 26.8989 26.4546 26.6908C26.4546 26.4829 26.2971 26.3134 26.1007 26.31H26.1006ZM17.8277 4.98254C19.3392 4.99087 20.7682 5.71429 21.7231 6.95476C22.6782 8.19523 23.0596 9.82299 22.7625 11.3922C21.5561 17.0383 14.0975 17.0361 12.8927 11.392C12.5958 9.82269 12.977 8.19511 13.9321 6.95459C14.8872 5.71407 16.316 4.99068 17.8276 4.98237L17.8277 4.98254ZM18.5471 17.5505H17.1084C16.9176 17.55 16.735 17.4696 16.6003 17.3267C16.4654 17.1841 16.3895 16.9906 16.389 16.7888V16.2138C17.3325 16.4721 18.3228 16.4721 19.2665 16.2138V16.7888C19.2659 16.9908 19.1899 17.1841 19.0552 17.3267C18.9203 17.4696 18.7377 17.55 18.5471 17.5505H18.5471ZM19.2665 19.0739V20.2164C19.2658 20.4184 19.1899 20.6117 19.0552 20.7543C18.9203 20.8972 18.7377 20.9776 18.5471 20.9781H17.1084C16.9176 20.9776 16.735 20.8972 16.6003 20.7543C16.4654 20.6117 16.3895 20.4182 16.389 20.2164V19.0739C16.3895 18.8721 16.4654 18.6787 16.6003 18.5359C16.735 18.3933 16.9176 18.3129 17.1084 18.3122H18.5471C18.7377 18.3129 18.9203 18.3933 19.0552 18.5359C19.1899 18.6788 19.2658 18.8721 19.2665 19.0739ZM14.9502 20.2164C14.9496 20.4184 14.8736 20.6117 14.7389 20.7543C14.604 20.8972 14.4214 20.9776 14.2309 20.9781H12.7921C12.6013 20.9776 12.4188 20.8972 12.2841 20.7543C12.1492 20.6117 12.0732 20.4182 12.0727 20.2164V19.0739C12.0732 18.8721 12.1492 18.6787 12.2841 18.5359C12.4188 18.3933 12.6014 18.3129 12.7921 18.3122H14.2309C14.4215 18.3129 14.604 18.3933 14.7389 18.5359C14.8736 18.6788 14.9496 18.8721 14.9502 19.0739V20.2164ZM14.9502 16.7888C14.9496 16.9908 14.8736 17.1841 14.7389 17.3267C14.604 17.4695 14.4214 17.55 14.2309 17.5505H12.7921C12.6013 17.55 12.4188 17.4695 12.2841 17.3267C12.1492 17.1841 12.0732 16.9906 12.0727 16.7888V15.6463C12.0732 15.4444 12.1492 15.2511 12.2841 15.1083C12.4188 14.9657 12.6014 14.8853 12.7921 14.8846H14.0295H14.0294C14.3115 15.151 14.6188 15.3858 14.9465 15.5854C14.9496 15.6055 14.9509 15.6259 14.9502 15.6463L14.9502 16.7888ZM20.3455 26.31H15.3099V22.8823C15.3107 22.5797 15.4246 22.2897 15.6269 22.0754C15.829 21.8614 16.103 21.7408 16.389 21.7398H19.2665C19.5523 21.7408 19.8262 21.8614 20.0286 22.0754C20.2307 22.2897 20.3446 22.5797 20.3455 22.8823L20.3455 26.31ZM23.5827 20.2164C23.5821 20.4184 23.5062 20.6117 23.3714 20.7543C23.2366 20.8972 23.054 20.9776 22.8634 20.9781H21.4246C21.2339 20.9776 21.0513 20.8972 20.9166 20.7543C20.7817 20.6117 20.7058 20.4182 20.7053 20.2164V19.0739C20.7058 18.8721 20.7817 18.6787 20.9166 18.5359C21.0513 18.3933 21.2339 18.3129 21.4246 18.3122H22.8634C23.054 18.3129 23.2366 18.3933 23.3714 18.5359C23.5062 18.6788 23.5821 18.8721 23.5827 19.0739V20.2164ZM23.5827 16.7888C23.5821 16.9908 23.5062 17.1841 23.3714 17.3267C23.2366 17.4695 23.054 17.55 22.8634 17.5505H21.4246C21.2339 17.55 21.0513 17.4695 20.9166 17.3267C20.7817 17.1841 20.7058 16.9906 20.7053 16.7888V15.6463C20.7045 15.6259 20.7058 15.6054 20.7088 15.5854C21.0365 15.3858 21.3439 15.151 21.626 14.8845H22.8634C23.054 14.8852 23.2366 14.9656 23.3714 15.1083C23.5062 15.2511 23.5821 15.4444 23.5828 15.6462L23.5827 16.7888Z" fill="#7DA1F5"></path>
  </g>
  <defs>
    <clipPath id="clip0_682_19040">
      <rect width="35" height="35" fill="white" transform="translate(0.205078 0.103516)"></rect>
    </clipPath>
  </defs>
</svg>
