<?xml version="1.0" encoding="UTF-8"?>
<svg xmlns="http://www.w3.org/2000/svg" width="36" height="36" viewBox="0 0 36 36" fill="none">
  <g clip-path="url(#clip0_682_19099)">
    <path d="M0.705078 18.3984C0.705078 15.4339 3.54209 13.0308 7.04171 13.0308H29.3685C32.8681 13.0308 35.7051 15.4339 35.7051 18.3984V26.1521C35.7051 29.1166 32.8681 31.5197 29.3685 31.5197H7.04171C3.54208 31.5197 0.705078 29.1166 0.705078 26.1521V18.3984Z" fill="#E4ECFF"></path>
    <path d="M13.9183 5.17273C14.0329 5.24304 14.1797 5.20153 14.2461 5.08059L14.8 4.06843C14.8665 3.94713 14.8274 3.792 14.713 3.72169C14.5976 3.65048 14.4513 3.69271 14.3852 3.81383L13.8313 4.82599C13.7647 4.94729 13.8039 5.10242 13.9183 5.17273Z" fill="#7DA1F5"></path>
    <path d="M9.49447 13.2883C9.37991 13.2176 9.23323 13.2593 9.167 13.3813L8.61614 14.3914C8.54991 14.5128 8.58928 14.668 8.70401 14.7381C8.81824 14.808 8.96525 14.7667 9.03149 14.6451L9.58234 13.6351C9.64841 13.5136 9.60921 13.3584 9.49447 13.2883Z" fill="#7DA1F5"></path>
    <path d="M14.0602 7.82477C14.0558 6.21914 12.9262 5.53031 11.6032 6.33562C10.3769 7.08958 9.37915 8.91849 9.38356 10.4171C9.38795 12.0227 10.5176 12.7115 11.8405 11.9015C13.067 11.1523 14.0648 9.32316 14.0602 7.82472V7.82477Z" fill="#7DA1F5"></path>
    <path d="M11.719 13.0029H11.7184C11.586 13.0035 11.4789 13.1173 11.4792 13.2575L11.4818 14.2105C11.4823 14.3506 11.5894 14.4636 11.7216 14.4636H11.7222C11.8546 14.4631 11.9617 14.3493 11.9613 14.209L11.9588 13.2561C11.9583 13.116 11.8512 13.0029 11.719 13.0029Z" fill="#7DA1F5"></path>
    <path d="M11.6968 5.45618H11.6975C11.8298 5.45564 11.937 5.34185 11.9366 5.20158L11.9339 4.24902C11.9334 4.10892 11.8263 3.99585 11.6941 3.99585H11.6934C11.5611 3.99639 11.454 4.11018 11.4543 4.25045L11.4569 5.2032C11.4576 5.34311 11.5647 5.45618 11.6968 5.45618L11.6968 5.45618Z" fill="#7DA1F5"></path>
    <path d="M14.8227 7.2241C14.8891 7.34594 15.0361 7.38692 15.1502 7.31713L15.9334 6.83817C16.0481 6.76804 16.0875 6.61291 16.0213 6.49143C15.9549 6.36995 15.8082 6.32862 15.6938 6.3984L14.9106 6.87736C14.7957 6.94749 14.7565 7.10262 14.8227 7.2241Z" fill="#7DA1F5"></path>
    <path d="M8.61829 11.0169C8.55188 10.8948 8.40454 10.8537 8.29082 10.9238L7.51065 11.4008C7.39592 11.4709 7.35655 11.6261 7.42279 11.7476C7.4892 11.8694 7.63621 11.9104 7.75027 11.8406L8.53043 11.3636C8.64516 11.2935 8.68454 11.1383 8.61829 11.0169Z" fill="#7DA1F5"></path>
    <path d="M14.7432 10.6504L14.1857 10.318C14.0696 10.2484 13.9238 10.2924 13.8591 10.4144C13.794 10.5366 13.8349 10.6916 13.9501 10.7603L14.5076 11.0927C14.6215 11.1611 14.7687 11.1194 14.8343 10.9963C14.8993 10.8741 14.8582 10.7191 14.7432 10.6504Z" fill="#7DA1F5"></path>
    <path d="M8.69921 7.58805L9.2536 7.92244C9.36834 7.99151 9.51485 7.94946 9.58075 7.82744C9.64631 7.70542 9.60609 7.55047 9.49102 7.48106L8.93662 7.14684C8.82121 7.07688 8.67487 7.12 8.60948 7.24184C8.54409 7.36368 8.5843 7.51863 8.69921 7.58805Z" fill="#7DA1F5"></path>
    <path d="M17.845 12.9373C17.7942 13.0191 17.7053 13.064 17.6113 13.0492C17.5196 13.0352 17.4435 12.9669 17.4158 12.8731L16.9792 11.3865L11.1631 22.0343L19.8814 27.3634L19.8993 14.1296L18.743 11.4942L17.845 12.9373Z" fill="#7DA1F5"></path>
    <path d="M21.3551 12.1705C21.4181 12.1616 21.4818 12.1816 21.5319 12.2233L22.1708 12.7577L22.9496 10.7759L20.3908 6.0293V6.06419V6.04468V6.07242V6.06419V6.11088V6.08762V6.11786C20.3906 6.45852 20.3896 7.94585 20.3862 13.3529L21.1951 12.2653C21.2343 12.2125 21.2919 12.1783 21.3551 12.1704L21.3551 12.1705Z" fill="#7DA1F5"></path>
    <path d="M23.2501 11.3325L22.4921 13.262C22.4634 13.3353 22.4039 13.3904 22.3311 13.4103C22.2589 13.4303 22.1816 13.4135 22.1222 13.364L21.4234 12.7792L20.385 14.1753L20.3613 27.361C21.4456 26.6939 28.3438 22.4496 29.0195 22.0337L23.2501 11.3325Z" fill="#7DA1F5"></path>
    <path d="M17.7233 12.21L18.579 10.8346C18.627 10.7577 18.7089 10.7151 18.797 10.721C18.8837 10.7276 18.9599 10.7838 18.9967 10.8672L19.9009 12.9276L19.9102 6.02051L17.3059 10.7881L17.7233 12.21Z" fill="#7DA1F5"></path>
  </g>
  <defs>
    <clipPath id="clip0_682_19099">
      <rect width="35" height="35" fill="white" transform="translate(0.705078 0.103516)"></rect>
    </clipPath>
  </defs>
</svg>
