<?xml version="1.0" encoding="UTF-8"?>
<svg xmlns="http://www.w3.org/2000/svg" width="36" height="36" viewBox="0 0 36 36" fill="none">
  <g clip-path="url(#clip0_682_19128)">
    <path d="M0.705078 17.2334C0.705078 14.2689 3.54209 11.8657 7.04171 11.8657H29.3685C32.8681 11.8657 35.7051 14.2689 35.7051 17.2334V24.987C35.7051 27.9515 32.8681 30.3546 29.3685 30.3546H7.04171C3.54208 30.3546 0.705078 27.9515 0.705078 24.987V17.2334Z" fill="#E4ECFF"></path>
    <path d="M18.2051 15.4467C17.7696 15.4348 17.3471 15.5958 17.0303 15.8944C16.7134 16.1929 16.528 16.6047 16.5147 17.0395C16.4947 17.5692 16.6066 18.0956 16.8405 18.5715C17.0744 19.0474 17.423 19.4578 17.8549 19.7661C17.9606 19.8315 18.0825 19.8661 18.2068 19.8661C18.3311 19.8661 18.453 19.8315 18.5587 19.7661C18.9886 19.4565 19.3354 19.046 19.5685 18.5708C19.8017 18.0956 19.914 17.5704 19.8955 17.0415C19.8828 16.6064 19.6976 16.1941 19.3807 15.8951C19.0638 15.5961 18.641 15.4348 18.2051 15.4467Z" fill="#7DA1F5"></path>
    <path d="M27.5626 20.2019H26.8942V9.83863C26.8939 9.4016 26.7198 8.98257 26.4103 8.67354C26.1008 8.36451 25.681 8.19074 25.2433 8.19039H20.8519C20.6979 7.06245 20.1456 6.02646 19.2945 5.26892C18.9951 5.00082 18.6072 4.85254 18.205 4.85254C17.8028 4.85254 17.4149 5.00082 17.1155 5.26892C16.2644 6.02646 15.7121 7.06245 15.5581 8.19039H11.1667C10.729 8.19074 10.3092 8.36451 9.99971 8.67354C9.69017 8.98257 9.51611 9.4016 9.51576 9.83863V20.2019H8.84736C8.67009 20.2019 8.50008 20.2722 8.37473 20.3973C8.24938 20.5225 8.17896 20.6922 8.17896 20.8692V22.3293C8.17949 23.0036 8.44801 23.6502 8.92558 24.1272C9.40316 24.6041 10.0508 24.8723 10.7262 24.873H25.6838C26.3592 24.8723 27.0068 24.6041 27.4844 24.1272C27.962 23.6502 28.2305 23.0036 28.231 22.3293V20.8692C28.231 20.6922 28.1606 20.5225 28.0353 20.3973C27.9099 20.2722 27.7399 20.2019 27.5626 20.2019ZM20.5825 11.4862L21.1453 11.8319C21.2777 11.9154 21.3866 12.0312 21.4618 12.1684C21.537 12.3056 21.576 12.4596 21.5751 12.616V13.3954C21.2461 13.0976 20.8465 12.8884 20.4141 12.7875L20.5825 11.4862ZM18.205 7.52308C18.4033 7.52308 18.5971 7.58179 18.762 7.69177C18.9269 7.80176 19.0554 7.95809 19.1313 8.14099C19.2072 8.32389 19.227 8.52515 19.1883 8.71932C19.1497 8.91348 19.0542 9.09184 18.9139 9.23183C18.7737 9.37181 18.5951 9.46714 18.4006 9.50577C18.2061 9.54439 18.0045 9.52457 17.8213 9.44881C17.6381 9.37305 17.4815 9.24475 17.3714 9.08014C17.2612 8.91554 17.2024 8.72201 17.2024 8.52404C17.2024 8.25857 17.308 8.00397 17.496 7.81626C17.6841 7.62854 17.9391 7.52308 18.205 7.52308ZM15.9993 12.7888C15.5668 12.8897 15.1673 13.0989 14.8383 13.3967V12.616C14.8374 12.4596 14.8764 12.3056 14.9516 12.1684C15.0267 12.0312 15.1357 11.9154 15.268 11.8319L15.8308 11.4862L15.9993 12.7888ZM20.4709 20.6583L20.3967 20.8692H16.0133L15.9425 20.6583C15.8981 20.5255 15.8131 20.41 15.6994 20.3281C15.5857 20.2461 15.449 20.202 15.3088 20.2019H10.8526V9.83863C10.8527 9.75551 10.8859 9.67583 10.9448 9.61706C11.0036 9.55828 11.0835 9.52518 11.1667 9.525H15.5742L15.641 10.0348L14.5655 10.6955C14.2386 10.8986 13.9688 11.1814 13.7817 11.5175C13.5946 11.8535 13.4963 12.2315 13.4961 12.616V15.0309C13.4958 15.1637 13.5353 15.2936 13.6094 15.4039C13.6835 15.5142 13.7889 15.5999 13.912 15.6501C14.0352 15.7002 14.1706 15.7126 14.3008 15.6855C14.431 15.6584 14.5502 15.5931 14.6431 15.4981L15.6871 14.4304C15.8217 14.2939 15.9856 14.1896 16.1664 14.1254L16.1878 14.2922C16.2086 14.4531 16.2873 14.6009 16.4094 14.708C16.5314 14.8151 16.6883 14.8742 16.8508 14.8741H19.5552C19.7177 14.8742 19.8746 14.8151 19.9966 14.708C20.1186 14.6009 20.1974 14.4531 20.2182 14.2922L20.2396 14.1254C20.4204 14.1896 20.5842 14.2939 20.7189 14.4304L21.7629 15.4981C21.8253 15.5616 21.8998 15.612 21.9819 15.6464C22.0641 15.6808 22.1524 15.6984 22.2415 15.6982C22.4188 15.6982 22.5888 15.6279 22.7141 15.5028C22.8395 15.3777 22.9099 15.2079 22.9099 15.0309V12.616C22.9097 12.2315 22.8114 11.8535 22.6242 11.5175C22.4371 11.1814 22.1674 10.8986 21.8404 10.6955L20.765 10.0348L20.8318 9.525H25.2433C25.3265 9.52518 25.4063 9.55828 25.4652 9.61706C25.5241 9.67583 25.5573 9.75551 25.5574 9.83863V20.2019H21.1012C20.961 20.202 20.8243 20.2461 20.7106 20.3281C20.5969 20.41 20.5119 20.5255 20.4675 20.6583H20.4709Z" fill="#7DA1F5"></path>
  </g>
  <defs>
    <clipPath id="clip0_682_19128">
      <rect width="35" height="35" fill="white" transform="translate(0.705078 0.103516)"></rect>
    </clipPath>
  </defs>
</svg>
