<?xml version="1.0" encoding="UTF-8"?>
<svg xmlns="http://www.w3.org/2000/svg" width="36" height="26" viewBox="0 0 36 26" fill="none">
  <path d="M0.074707 13.3645C0.074707 10.6068 2.91172 8.37134 6.41134 8.37134H28.7381C32.2377 8.37134 35.0747 10.6068 35.0747 13.3645V20.5771C35.0747 23.3347 32.2377 25.5701 28.7381 25.5701H6.41134C2.91171 25.5701 0.074707 23.3347 0.074707 20.5771V13.3645Z" fill="#E4ECFF"></path>
  <path d="M24.0273 8.62239C24.0273 4.23027 20.3788 0.636719 15.9195 0.636719C11.5008 0.636719 7.85229 4.23027 7.85229 8.62239C7.85229 13.0145 11.5008 16.6081 15.9601 16.6081C20.4193 16.5681 24.0273 13.0145 24.0273 8.62239ZM15.9601 15.3703C12.1494 15.3703 9.06846 12.3357 9.06846 8.58247C9.06846 4.86913 12.1494 1.79464 15.9601 1.79464C19.7707 1.79464 22.8516 4.8292 22.8516 8.58247C22.8111 12.3357 19.7302 15.3703 15.9601 15.3703Z" fill="#7DA1F5"></path>
  <path d="M26.7426 15.4499L23.8644 12.615C23.0131 14.2521 21.6753 15.5697 20.0132 16.4082L22.8914 19.2431C23.6617 20.0017 24.9184 20.0017 25.6481 19.2431L26.7426 18.165C27.5129 17.4064 27.5129 16.1686 26.7426 15.4499Z" fill="#7DA1F5"></path>
  <path d="M19.9751 10.2993C17.3401 9.02164 14.624 9.02164 11.9485 10.2993C11.462 10.499 11.1377 10.9781 11.1377 11.4972V12.695C11.1377 13.1343 11.5025 13.4936 11.9485 13.4936H19.9346C20.3805 13.4936 20.7454 13.1343 20.7454 12.695V11.4972C20.7454 10.9781 20.4616 10.499 19.9751 10.2993Z" fill="#7DA1F5"></path>
  <path d="M15.9611 8.78233C17.1772 8.78233 18.1907 7.54455 18.1907 6.02727C18.1907 4.62978 17.2989 3.71143 15.9611 3.71143C14.6233 3.71143 13.7314 4.62978 13.7314 6.02727C13.7314 7.54455 14.7044 8.78233 15.9611 8.78233Z" fill="#7DA1F5"></path>
</svg>
