<?xml version="1.0" encoding="UTF-8"?>
<svg xmlns="http://www.w3.org/2000/svg" width="271" height="100" viewBox="0 0 271 100" fill="none">
  <circle cx="50" cy="50" r="50" fill="white"></circle>
  <path fill-rule="evenodd" clip-rule="evenodd" d="M32.3733 47.446C31.8963 51.4265 32.8207 55.4488 34.9875 58.8219C37.1544 62.195 40.4284 64.7082 44.247 65.9295C48.0657 67.1509 52.1905 67.0042 55.9128 65.5147C59.6351 64.0253 62.7223 61.286 64.6442 57.7675C66.566 54.2491 67.2023 50.1712 66.4438 46.2347C65.6853 42.298 63.5794 38.7484 60.4879 36.1958C58.0777 34.2057 55.1858 32.9185 52.1284 32.4478V35.6222C52.1284 37.0721 50.953 38.2474 49.503 38.2474C48.0531 38.2474 46.8777 37.0721 46.8777 35.6222V29.9968C46.8777 28.3526 48.2195 26.9683 49.9277 27.0006C55.0062 27.0963 59.9079 28.9079 63.8311 32.1473C67.8635 35.4767 70.6104 40.1066 71.5997 45.2413C72.589 50.3761 71.759 55.695 69.2523 60.2843C66.7457 64.8735 62.7187 68.4465 57.8636 70.3893C53.0085 72.3321 47.6283 72.5234 42.6474 70.9303C37.6665 69.3373 33.396 66.0592 30.5697 61.6596C27.7434 57.2599 26.5377 52.0133 27.1599 46.8213C27.782 41.6293 30.1931 36.8161 33.9788 33.2086C35.0285 32.2084 36.6903 32.2484 37.6906 33.298C38.6908 34.3476 38.6508 36.0093 37.6011 37.0095C34.6987 39.7753 32.8502 43.4654 32.3733 47.446Z" fill="#05164D"></path>
  <path fill-rule="evenodd" clip-rule="evenodd" d="M40.1458 39.766C41.1711 38.7408 42.8334 38.7408 43.8587 39.766L52.1098 48.0166C53.1351 49.0418 53.1351 50.704 52.1098 51.7293C51.0846 52.7544 49.4222 52.7544 48.3969 51.7293L40.1458 43.4786C39.1207 42.4534 39.1207 40.7912 40.1458 39.766Z" fill="#624DE3"></path>
  <path d="M137.204 48.384H144.008V52.236H137.204V59.004H133.352V52.236H126.548V48.384H133.352V41.544H137.204V48.384Z" fill="white"></path>
  <circle cx="221" cy="50" r="50" fill="white"></circle>
  <path d="M239.605 27H203.395C200.967 27 199 28.9675 199 31.3945V67.6055C199 70.0325 200.967 72 203.395 72H239.605C242.033 72 244 70.0325 244 67.6055V31.3945C244 28.9675 242.033 27 239.605 27Z" fill="url(#paint0_linear_1_14)"></path>
  <path d="M236.04 32.8503H226.534C225.369 32.8503 224.425 33.7947 224.425 34.9597V50.4285C224.425 51.5934 225.369 52.5378 226.534 52.5378H236.04C237.205 52.5378 238.15 51.5934 238.15 50.4285V34.9597C238.15 33.7947 237.205 32.8503 236.04 32.8503Z" fill="white"></path>
  <path d="M216.467 32.8503H206.961C205.796 32.8503 204.851 33.7947 204.851 34.9597V61.6785C204.851 62.8434 205.796 63.7878 206.961 63.7878H216.467C217.632 63.7878 218.576 62.8434 218.576 61.6785V34.9597C218.576 33.7947 217.632 32.8503 216.467 32.8503Z" fill="white"></path>
  <defs>
    <linearGradient id="paint0_linear_1_14" x1="2449" y1="27" x2="2449" y2="4527" gradientUnits="userSpaceOnUse">
      <stop stop-color="#0091E6"></stop>
      <stop offset="1" stop-color="#0079BF"></stop>
    </linearGradient>
  </defs>
</svg>
