<?xml version="1.0" encoding="UTF-8"?>
<svg xmlns="http://www.w3.org/2000/svg" width="36" height="36" viewBox="0 0 36 36" fill="none">
  <g clip-path="url(#clip0_857_21703)">
    <path d="M0.803711 18.0845C0.803711 15.12 3.64072 12.7168 7.14035 12.7168H29.4671C32.9667 12.7168 35.8037 15.12 35.8037 18.0845V25.8381C35.8037 28.8026 32.9667 31.2057 29.4671 31.2057H7.14035C3.64072 31.2057 0.803711 28.8026 0.803711 25.8381V18.0845Z" fill="#E4ECFF"></path>
    <path d="M5.7987 21.0982H9.11389V23.6216H5.79517L5.7987 21.0982ZM11.2235 16.4255H14.5422V23.622H11.2235V16.4255ZM16.6444 7.63969H19.9631V23.6216H16.6444V7.63969ZM22.0692 10.4429H25.3879V23.6204H22.0692V10.4429ZM27.4933 4.36816H30.812V23.6204H27.4933V4.36816Z" fill="#7DA1F5"></path>
  </g>
  <defs>
    <clipPath id="clip0_857_21703">
      <rect width="35" height="35" fill="white" transform="translate(0.803711 0.287109)"></rect>
    </clipPath>
  </defs>
</svg>
