<?xml version="1.0" encoding="UTF-8"?>
<svg xmlns="http://www.w3.org/2000/svg" width="36" height="36" viewBox="0 0 36 36" fill="none">
  <g clip-path="url(#clip0_995_21117)">
    <path d="M0.349365 17.7171C0.349365 14.8385 3.26005 12.5049 6.85056 12.5049H29.7571C33.3476 12.5049 36.2583 14.8385 36.2583 17.7171V25.2462C36.2583 28.1248 33.3476 30.4583 29.7571 30.4583H6.85056C3.26005 30.4583 0.349365 28.1248 0.349365 25.2462V17.7171Z" fill="#FFECEC"></path>
    <path d="M8.99371 17.2556C9.21194 17.438 9.48918 17.5381 9.77565 17.5381C10.0551 17.5381 10.3258 17.4429 10.5417 17.2688L10.9786 16.9164C11.2615 17.6265 11.9634 18.1304 12.7866 18.1304C13.8596 18.1304 14.7293 17.2758 14.7293 16.2217C14.7293 15.1675 13.8596 14.313 12.7866 14.313C12.7719 14.313 12.7576 14.3148 12.7431 14.3152C12.6641 13.9671 12.4102 13.3389 11.6008 13.3389C10.4822 13.3389 9.94394 14.2721 9.84899 14.8734C9.7627 15.4196 9.51097 16.1455 8.81109 16.274C8.67025 16.2999 8.55053 16.3901 8.5026 16.5228C8.44869 16.672 8.49426 16.8383 8.61698 16.9409L8.99371 17.2556ZM14.3409 16.2217C14.3409 17.0636 13.6437 17.7486 12.7867 17.7486C12.6765 17.7486 12.569 17.7368 12.4651 17.7153C12.5121 16.4677 12.9517 16.2517 12.9517 16.2517C13.6079 15.838 13.9081 15.5314 14.0447 15.3286C14.2301 15.5801 14.3409 15.8881 14.3409 16.2217L14.3409 16.2217Z" fill="#FF9696"></path>
    <path d="M19.4298 17.8959C19.1837 17.6892 18.8214 17.6882 18.5743 17.8937L17.5806 18.7194C17.1014 19.1177 16.4558 19.2639 15.8474 19.1121L13.8913 18.6238L13.8918 18.6278C13.7987 18.6042 13.7027 18.5883 13.603 18.5883H12.0412C11.3275 18.5883 10.6712 18.9728 10.332 19.5896L7.20808 25.27C7.0211 25.61 7.11872 26.0334 7.43651 26.2611C7.79809 26.5201 8.30668 26.4308 8.55454 26.0647L10.4935 23.2005C10.537 23.1363 10.6172 23.1061 10.6933 23.1254C10.7738 23.1458 10.8307 23.2152 10.8318 23.297C10.8422 24.0261 10.8197 25.75 10.4275 26.985C10.3493 27.2311 10.5426 27.4801 10.8051 27.4801H14.6402C14.8547 27.4801 15.0287 27.3092 15.0287 27.0984V26.4646C15.0287 26.0175 15.0767 25.5716 15.1718 25.1344L15.4027 24.0739C15.5937 23.1965 15.5617 22.2865 15.3098 21.424L15.2221 21.1241L16.2569 21.2338C16.8898 21.3009 17.5159 21.0593 17.933 20.587L19.4992 18.8134C19.7394 18.5415 19.7082 18.1296 19.4298 17.8956L19.4298 17.8959Z" fill="#FF9696"></path>
    <path d="M28.9102 6.48828H18.4223C18.1002 6.48828 17.8381 6.74568 17.8381 7.06198V13.9295C17.8381 14.2458 18.1002 14.5032 18.4223 14.5032H28.9102C29.2324 14.5032 29.4944 14.2458 29.4944 13.9295V7.06198C29.4944 6.74568 29.2324 6.48828 28.9103 6.48828H28.9102ZM29.1058 13.9296C29.1058 14.0354 29.0181 14.1216 28.9102 14.1216H27.0419C27.0167 13.3585 26.5767 12.6762 25.9052 12.3789L25.4249 12.1662C24.9713 11.9652 24.4841 11.8617 23.992 11.8617C23.2983 11.8617 22.6185 12.0673 22.0304 12.4551L19.5027 14.1216H18.4222C18.3142 14.1216 18.2265 14.0354 18.2265 13.9296V7.0621C18.2265 6.95627 18.3142 6.87008 18.4221 6.87008H28.9101C29.018 6.87008 29.1057 6.95627 29.1057 7.0621L29.1058 13.9296Z" fill="#FF9696"></path>
    <path d="M25.7854 9.78443C25.7957 9.7048 25.8028 9.62422 25.8028 9.5419C25.8028 8.48753 24.9331 7.63281 23.8601 7.63281C23.1888 7.63281 22.597 7.96747 22.2481 8.47623C21.9028 8.94038 21.5149 9.17957 21.2703 9.29411C21.121 9.36403 21.0247 9.50976 21.0247 9.67234C21.0247 9.91838 21.241 10.1098 21.4904 10.0885C21.6673 10.0735 21.8293 10.0491 21.9808 10.0183C22.1966 10.8418 22.9549 11.451 23.8601 11.451C24.2492 11.451 24.6107 11.3375 24.9145 11.1439C24.9582 11.3751 25.1636 11.5505 25.4115 11.5505C25.6912 11.5505 25.9179 11.3277 25.9179 11.0529C25.9179 10.9466 25.8833 10.8486 25.8255 10.7677C26.0667 10.7297 26.2516 10.5259 26.2516 10.2781C26.2516 10.0168 26.046 9.80487 25.7854 9.78443ZM22.3563 9.92037C23.408 9.57793 23.7246 8.8469 23.8193 8.42674C24.0438 8.71668 24.437 9.05618 25.0739 9.15633C24.9753 9.39259 24.795 9.96879 25.2435 10.2341C25.2435 10.2343 25.2434 10.2346 25.2434 10.2349C24.986 10.7293 24.4633 11.0692 23.8602 11.0692C23.1364 11.0692 22.5283 10.5796 22.3563 9.92037Z" fill="#FF9696"></path>
    <path d="M23.1788 20.4189C21.1939 20.4189 19.5847 21.9996 19.5847 23.9494C19.5847 25.8992 21.1938 27.4798 23.1788 27.4798C25.1637 27.4798 26.7729 25.8992 26.7729 23.9494C26.7729 21.9996 25.1637 20.4189 23.1788 20.4189ZM24.3741 26.8688C24.2436 26.7465 23.9632 26.5952 23.3691 26.5952C22.6709 26.5952 22.3073 26.804 22.1517 26.9293C21.9886 26.8749 21.8309 26.8093 21.6808 26.731V26.3987C21.6808 26.3081 21.6568 26.219 21.6109 26.1402L21.2349 25.4937C21.1891 25.415 21.165 25.3259 21.165 25.2352V24.9618C21.165 24.8202 21.1063 24.6847 21.0026 24.5865C20.9037 24.493 20.7719 24.4407 20.6347 24.4407H20.0165C20.0135 24.4218 20.0104 24.4029 20.0076 24.3838L20.3837 24.0382C20.5784 23.8592 20.7062 23.6211 20.7465 23.362C20.8033 22.9973 21.0323 22.6804 21.364 22.5073L21.6401 22.3632C21.7878 22.2861 21.8801 22.1353 21.8801 21.971C21.8801 21.7258 21.6777 21.527 21.4281 21.527H21.1338C21.4429 21.2748 21.801 21.0797 22.1915 20.9551C22.3326 21.0723 22.6145 21.2045 23.1698 21.2045C23.6913 21.2045 24.0252 21.0879 24.2264 20.9767C24.5932 21.1019 24.9311 21.288 25.224 21.527L24.6049 21.5271C24.5307 21.5271 24.4635 21.57 24.4334 21.6366C24.3859 21.7415 24.2533 21.7788 24.1565 21.7143L24.0862 21.6674C24.0404 21.6369 23.9832 21.6278 23.9299 21.6426L23.1389 21.8617C23.0873 21.876 23.0443 21.9113 23.0209 21.9588L22.8514 22.3027C22.8342 22.3376 22.8063 22.3662 22.7717 22.3846L22.4242 22.569C22.3635 22.6012 22.3256 22.6634 22.3256 22.7312V22.7363C22.3256 22.838 22.4097 22.9206 22.5134 22.9206H23.0868C23.1613 22.9206 23.2216 22.9799 23.2216 23.053C23.2216 23.1262 23.282 23.1855 23.3565 23.1855H23.5041C23.5785 23.1855 23.6388 23.1262 23.6388 23.053V22.8976L24.1665 23.1855L24.1898 23.485L24.0258 23.3237H23.2892C22.882 23.3237 22.4911 23.4804 22.2001 23.76C22.1081 23.8485 22.0561 23.9697 22.0561 24.0963C22.0561 24.221 22.1065 24.3407 22.1964 24.4289L22.2266 24.4585C22.3163 24.5467 22.4382 24.5963 22.5652 24.5963H22.8179C22.9504 24.5963 23.0578 24.7019 23.0578 24.832V24.9475L22.8489 25.5942C22.8012 25.7417 22.8413 25.903 22.9526 26.0124C23.0317 26.0901 23.139 26.1337 23.2509 26.1337C23.6173 26.1337 23.9478 25.9175 24.0891 25.5854L24.18 25.372C24.3801 24.9017 24.4831 24.3971 24.4831 23.8874H24.5945C24.6754 23.8874 24.741 23.8229 24.741 23.7434V23.6288C24.741 23.5493 24.8067 23.4848 24.8876 23.4848C24.9685 23.4848 25.0342 23.4203 25.0342 23.3408V22.9665L25.9498 23.8659C26.0684 23.9825 26.217 24.0609 26.3768 24.101C26.3152 25.3563 25.5052 26.4203 24.3741 26.8687L24.3741 26.8688Z" fill="#FF9696"></path>
    <path d="M13.0217 11.6213C13.0714 11.6213 13.1211 11.6027 13.1591 11.5654L13.2964 11.4304C13.3724 11.3558 13.3724 11.2351 13.2964 11.1605C13.2205 11.0858 13.0976 11.0858 13.0217 11.1605L12.8843 11.2954C12.8084 11.3701 12.8084 11.4908 12.8843 11.5654C12.9223 11.6026 12.972 11.6213 13.0217 11.6213Z" fill="#FF9696"></path>
    <path d="M11.6472 12.97C11.6969 12.97 11.7466 12.9514 11.7846 12.9141L11.9219 12.7791C11.9979 12.7045 11.9979 12.5837 11.9219 12.5091C11.846 12.4345 11.7231 12.4345 11.6472 12.5091L11.5098 12.6441C11.4339 12.7187 11.4339 12.8394 11.5098 12.9141C11.5478 12.9513 11.5975 12.97 11.6472 12.97Z" fill="#FF9696"></path>
    <path d="M12.3352 12.2961C12.3849 12.2961 12.4346 12.2775 12.4726 12.2402L12.6099 12.1052C12.6858 12.0305 12.6858 11.9097 12.6099 11.8351C12.534 11.7607 12.4111 11.7606 12.3352 11.8352L12.1978 11.9702C12.1219 12.0449 12.1219 12.1657 12.1978 12.2403C12.2357 12.2775 12.2854 12.2961 12.3352 12.2961Z" fill="#FF9696"></path>
    <path d="M13.7087 10.9465C13.7584 10.9465 13.8081 10.9279 13.8461 10.8906L13.9835 10.7556C14.0594 10.681 14.0594 10.5603 13.9835 10.4856C13.9075 10.411 13.7846 10.411 13.7087 10.4856L13.5714 10.6206C13.4954 10.6953 13.4954 10.816 13.5714 10.8906C13.6092 10.9279 13.659 10.9465 13.7087 10.9465Z" fill="#FF9696"></path>
    <path d="M17.1433 7.57349C17.193 7.57349 17.2427 7.55488 17.2807 7.51757L17.418 7.38258C17.494 7.30797 17.494 7.18722 17.418 7.1126C17.3421 7.03799 17.2192 7.03799 17.1433 7.1126L17.0059 7.24759C16.93 7.3222 16.93 7.44295 17.0059 7.51757C17.0439 7.5548 17.0936 7.57349 17.1433 7.57349Z" fill="#FF9696"></path>
    <path d="M16.4563 8.24732C16.506 8.24732 16.5557 8.2287 16.5936 8.1914L16.731 8.05641C16.8069 7.9818 16.8069 7.86105 16.731 7.78643C16.6551 7.71182 16.5322 7.71182 16.4563 7.78643L16.3189 7.92142C16.243 7.99603 16.243 8.11678 16.3189 8.1914C16.3569 8.2287 16.4066 8.24732 16.4563 8.24732Z" fill="#FF9696"></path>
    <path d="M15.0818 9.59693C15.1315 9.59693 15.1812 9.57831 15.2191 9.54101L15.3565 9.40602C15.4324 9.3314 15.4324 9.21065 15.3565 9.13604C15.2806 9.06142 15.1577 9.06142 15.0818 9.13604L14.9444 9.27103C14.8685 9.34564 14.8685 9.46639 14.9444 9.54101C14.9824 9.57831 15.0321 9.59693 15.0818 9.59693Z" fill="#FF9696"></path>
    <path d="M15.7698 8.9231C15.8195 8.9231 15.8692 8.90449 15.9071 8.86718L16.0445 8.73219C16.1204 8.65758 16.1204 8.53683 16.0445 8.46221C15.9686 8.3876 15.8457 8.3876 15.7698 8.46221L15.6324 8.5972C15.5565 8.67181 15.5565 8.79256 15.6324 8.86718C15.6703 8.90441 15.7201 8.9231 15.7698 8.9231Z" fill="#FF9696"></path>
    <path d="M14.3962 10.2717C14.4459 10.2717 14.4956 10.2531 14.5336 10.2158L14.671 10.0808C14.7469 10.0062 14.7469 9.88546 14.671 9.81084C14.595 9.73623 14.4721 9.73623 14.3962 9.81084L14.2589 9.94583C14.1829 10.0204 14.1829 10.1412 14.2589 10.2158C14.2968 10.253 14.3465 10.2717 14.3962 10.2717Z" fill="#FF9696"></path>
    <path d="M24.4926 19.2578L24.6299 19.1228C24.7059 19.0482 24.7059 18.9275 24.6299 18.8528C24.554 18.7782 24.4311 18.7782 24.3552 18.8528L24.2178 18.9878C24.1419 19.0624 24.1419 19.1832 24.2178 19.2578C24.2558 19.2951 24.3055 19.3137 24.3552 19.3137C24.405 19.3137 24.4547 19.2951 24.4926 19.2578Z" fill="#FF9696"></path>
    <path d="M28.4748 14.8049L28.3375 14.9399C28.2615 15.0145 28.2615 15.1353 28.3375 15.2099C28.3754 15.2472 28.4251 15.2658 28.4748 15.2658C28.5245 15.2658 28.5742 15.2472 28.6122 15.2099L28.7496 15.0749C28.8255 15.0003 28.8255 14.8795 28.7496 14.8049C28.6737 14.7304 28.5508 14.7304 28.4748 14.8049Z" fill="#FF9696"></path>
    <path d="M25.8642 17.9082L26.0015 17.7732C26.0774 17.6986 26.0774 17.5778 26.0015 17.5032C25.9256 17.4286 25.8027 17.4286 25.7268 17.5032L25.5894 17.6382C25.5135 17.7128 25.5135 17.8336 25.5894 17.9082C25.6274 17.9455 25.6771 17.9641 25.7268 17.9641C25.7765 17.9641 25.8262 17.9455 25.8642 17.9082Z" fill="#FF9696"></path>
    <path d="M23.8051 19.9326L23.9424 19.7975C24.0184 19.7229 24.0184 19.6021 23.9424 19.5275C23.8665 19.4531 23.7436 19.453 23.6677 19.5276L23.5303 19.6626C23.4544 19.7372 23.4544 19.8581 23.5303 19.9327C23.5683 19.9699 23.618 19.9885 23.6677 19.9885C23.7174 19.9886 23.7671 19.9699 23.8051 19.9326Z" fill="#FF9696"></path>
    <path d="M25.1796 18.583L25.3169 18.448C25.3929 18.3734 25.3929 18.2526 25.3169 18.178C25.241 18.1034 25.1181 18.1034 25.0422 18.178L24.9048 18.3131C24.8289 18.3877 24.8289 18.5085 24.9048 18.5831C24.9428 18.6204 24.9925 18.639 25.0422 18.639C25.0919 18.6389 25.1416 18.6203 25.1796 18.583Z" fill="#FF9696"></path>
    <path d="M27.7888 15.4788L27.6514 15.6138C27.5755 15.6884 27.5755 15.8092 27.6514 15.8838C27.6894 15.9211 27.7391 15.9397 27.7888 15.9397C27.8385 15.9397 27.8882 15.9211 27.9262 15.8838L28.0635 15.7488C28.1395 15.6742 28.1395 15.5534 28.0635 15.4788C27.9876 15.4042 27.8647 15.4042 27.7888 15.4788Z" fill="#FF9696"></path>
    <path d="M26.4157 16.8284L26.2784 16.9634C26.2025 17.038 26.2025 17.1588 26.2784 17.2334C26.3163 17.2707 26.366 17.2893 26.4157 17.2893C26.4654 17.2893 26.5152 17.2707 26.5531 17.2334L26.6905 17.0984C26.7664 17.0238 26.7664 16.903 26.6905 16.8284C26.6146 16.7538 26.4916 16.7538 26.4157 16.8284Z" fill="#FF9696"></path>
    <path d="M27.1003 16.1545L26.963 16.2895C26.887 16.3641 26.887 16.4849 26.963 16.5595C27.0009 16.5968 27.0506 16.6154 27.1003 16.6154C27.15 16.6154 27.1997 16.5968 27.2377 16.5595L27.3751 16.4245C27.451 16.3499 27.451 16.2291 27.3751 16.1545C27.2992 16.08 27.1762 16.08 27.1003 16.1545Z" fill="#FF9696"></path>
  </g>
  <defs>
    <clipPath id="clip0_995_21117">
      <rect width="35" height="35" fill="white" transform="translate(0.803711 0.972656)"></rect>
    </clipPath>
  </defs>
</svg>
