<?xml version="1.0" encoding="UTF-8"?>
<svg xmlns="http://www.w3.org/2000/svg" width="36" height="36" viewBox="0 0 36 36" fill="none">
  <g clip-path="url(#clip0_857_20380)">
    <path d="M0.981201 17.4126C0.981201 14.4481 3.81821 12.0449 7.31784 12.0449H29.6446C33.1442 12.0449 35.9812 14.4481 35.9812 17.4126V25.1662C35.9812 28.1307 33.1442 30.5338 29.6446 30.5338H7.31784C3.81821 30.5338 0.981201 28.1307 0.981201 25.1662V17.4126Z" fill="#EBFBFB"></path>
    <path d="M22.2784 4.76272C21.0413 4.75895 19.8352 5.12427 18.8356 5.80552C17.836 6.48677 17.0952 7.44839 16.7209 8.5504C16.9717 8.65874 17.2071 8.79583 17.4216 8.95851C17.7198 7.9499 18.3686 7.06268 19.2657 6.43666C20.1629 5.81063 21.2575 5.48141 22.377 5.50086C23.4964 5.52032 24.5772 5.88735 25.4488 6.5441C26.3205 7.20086 26.9335 8.11002 27.1914 9.12829C27.4492 10.1466 27.3371 11.2161 26.8728 12.1683C26.4085 13.1204 25.6184 13.9012 24.627 14.3874C23.6355 14.8737 22.4992 15.0378 21.3969 14.8539C20.2947 14.67 19.2892 14.1486 18.539 13.3718C18.4672 13.6361 18.3583 13.8903 18.215 14.1279C18.9008 14.7502 19.7398 15.2055 20.6581 15.4537C21.5763 15.7019 22.5458 15.7355 23.4812 15.5515C24.4166 15.3675 25.2894 14.9715 26.0226 14.3984C26.7559 13.8252 27.3272 13.0925 27.6865 12.2646C28.0457 11.4367 28.1817 10.5391 28.0827 9.65052C27.9836 8.76197 27.6525 7.90977 27.1184 7.16887C26.5842 6.42797 25.8635 5.82105 25.0196 5.40149C24.1757 4.98193 23.2343 4.76258 22.2784 4.76272Z" fill="#17CFCF"></path>
    <path d="M13.5042 22.5867L14.2481 18.9064C14.179 18.8823 14.1194 18.8391 14.0773 18.7825C14.0352 18.7259 14.0125 18.6587 14.0122 18.5898V17.3248L13.3809 16.9492H10.935C10.3819 16.9498 9.85161 17.1555 9.46047 17.521C9.06934 17.8866 8.8493 18.3821 8.84863 18.8991V24.0924H14.7869L13.5937 22.8792C13.5554 22.8403 13.5274 22.7936 13.5119 22.7429C13.4964 22.6921 13.4938 22.6386 13.5042 22.5867Z" fill="#17CFCF"></path>
    <path d="M15.9092 17.5928H14.738V18.2502H15.9092V17.5928Z" fill="#17CFCF"></path>
    <path d="M17.921 12.6044V11.3645C17.921 10.7208 17.6473 10.1035 17.1603 9.64835C16.6733 9.1932 16.0128 8.9375 15.324 8.9375C14.6352 8.9375 13.9747 9.1932 13.4877 9.64835C13.0007 10.1035 12.7271 10.7208 12.7271 11.3645V12.6044C12.7271 13.2481 13.0007 13.8654 13.4877 14.3206C13.9747 14.7757 14.6352 15.0314 15.324 15.0314C16.0128 15.0314 16.6733 14.7757 17.1603 14.3206C17.6473 13.8654 17.921 13.2481 17.921 12.6044Z" fill="#17CFCF"></path>
    <path d="M16.7982 16.4233V15.3818C16.3407 15.5967 15.8358 15.7086 15.3239 15.7086C14.8119 15.7086 14.3071 15.5967 13.8496 15.3818V16.4235L14.6756 16.9154H15.9674L16.7982 16.4233Z" fill="#17CFCF"></path>
    <path d="M18.6617 12.4149C19.21 13.2049 20.0366 13.7909 20.9985 14.0713C21.9603 14.3517 22.9968 14.3089 23.9285 13.9504C24.8601 13.5919 25.6283 12.9402 26.1 12.1081C26.5717 11.276 26.7171 10.316 26.5112 9.39425C26.3053 8.47251 25.761 7.64708 24.9724 7.06089C24.1839 6.47471 23.2009 6.16468 22.1935 6.18449C21.1862 6.2043 20.218 6.5527 19.4566 7.16936C18.6951 7.78602 18.1884 8.63212 18.0242 9.56115C18.4287 10.0861 18.6464 10.7166 18.6465 11.3635V12.4241L18.6617 12.4149ZM21.6565 8.02923C21.6565 7.93929 21.6948 7.85304 21.7628 7.78944C21.8309 7.72584 21.9231 7.69012 22.0194 7.69012C22.1156 7.69012 22.2079 7.72584 22.276 7.78944C22.344 7.85304 22.3822 7.93929 22.3822 8.02923V10.2417H24.0998C24.196 10.2417 24.2883 10.2775 24.3564 10.3411C24.4244 10.4047 24.4627 10.4909 24.4627 10.5808C24.4627 10.6708 24.4244 10.757 24.3564 10.8206C24.2883 10.8842 24.196 10.92 24.0998 10.92H22.0194C21.9231 10.92 21.8309 10.8842 21.7628 10.8206C21.6948 10.757 21.6565 10.6708 21.6565 10.5808V8.02923Z" fill="#17CFCF"></path>
    <path d="M19.7125 16.9492H17.2659L16.6347 17.3222V18.5891C16.6345 18.6581 16.6118 18.7253 16.5697 18.7818C16.5275 18.8384 16.468 18.8816 16.3989 18.9057L17.1427 22.586C17.1533 22.6379 17.1507 22.6914 17.1352 22.7422C17.1197 22.7929 17.0917 22.8396 17.0535 22.8785L15.8606 24.0924H21.7991V18.8993C21.7985 18.3823 21.5784 17.8866 21.1872 17.521C20.7961 17.1554 20.2657 16.9498 19.7125 16.9492Z" fill="#17CFCF"></path>
    <path d="M15.6654 18.9277H14.9822L14.2512 22.5448L15.3238 23.6356L16.3962 22.5448L15.6654 18.9277Z" fill="#17CFCF"></path>
  </g>
  <defs>
    <clipPath id="clip0_857_20380">
      <rect width="35" height="35" fill="white" transform="translate(0.981201 0.148438)"></rect>
    </clipPath>
  </defs>
</svg>
