<?xml version="1.0" encoding="UTF-8"?>
<svg xmlns="http://www.w3.org/2000/svg" width="36" height="36" viewBox="0 0 36 36" fill="none">
  <g clip-path="url(#clip0_857_20360)">
    <path d="M0.803711 17.1548C0.803711 14.1903 3.64072 11.7871 7.14035 11.7871H29.4671C32.9667 11.7871 35.8037 14.1903 35.8037 17.1548V24.9084C35.8037 27.8729 32.9667 30.276 29.4671 30.276H7.14035C3.64072 30.276 0.803711 27.8729 0.803711 24.9084V17.1548Z" fill="#E4ECFF"></path>
    <path d="M18.2889 5.04818C18.2295 5.05049 18.1716 5.06892 18.1211 5.10166L8.15848 11.5883C8.05758 11.654 7.99611 11.7697 7.99609 11.8944V14.7774C7.99635 15.0601 8.29278 15.2324 8.52153 15.0828L18.3036 8.7158L28.0864 15.0828C28.315 15.2315 28.6106 15.0595 28.6112 14.7774V11.8944C28.6112 11.7697 28.5498 11.654 28.4488 11.5883L18.4842 5.10166C18.4256 5.06373 18.3577 5.0451 18.2889 5.04818ZM18.3037 9.37164L9.37047 15.1363V24.1435H12.1889C12.1466 24.0246 12.1205 23.8976 12.1205 23.7642V21.2802C12.1205 20.9954 12.2283 20.7366 12.4003 20.5406C12.2283 20.3439 12.1205 20.0844 12.1205 19.7996V17.3156C12.1205 16.713 12.5934 16.2171 13.168 16.2171H23.44C24.0146 16.2171 24.4875 16.713 24.4875 17.3156V19.7996C24.4875 20.0844 24.3798 20.3439 24.2077 20.5406C24.3797 20.7366 24.4875 20.9954 24.4875 21.2802V23.7642C24.4875 23.8976 24.4608 24.0245 24.4185 24.1435H27.2369V15.1363L18.3037 9.37164ZM16.9293 11.8923H19.6787C20.0534 11.8923 20.3659 12.2206 20.3659 12.6135V13.3341V14.0547V14.7753C20.3659 15.1682 20.0534 15.4965 19.6787 15.4965H16.9293C16.5546 15.4965 16.2415 15.1682 16.2415 14.7753V12.6135C16.2415 12.2206 16.5546 11.8923 16.9293 11.8923ZM16.9293 12.6135V13.3341H17.9587V12.6135H16.9293ZM18.6459 12.6135V13.3341H19.6787V12.6135H18.6459ZM16.9293 14.0547V14.7753H17.9587V14.0547H16.9293ZM18.6459 14.0547V14.7753H19.6787V14.0547H18.6459ZM13.168 16.9349C12.9622 16.9349 12.805 17.0998 12.805 17.3156V19.7996C12.805 20.0154 12.9622 20.1796 13.168 20.1796H15.555V16.9349H13.168ZM16.2422 16.9349V20.1796H23.44C23.6458 20.1796 23.7997 20.0154 23.7997 19.7996V17.3156C23.7997 17.0998 23.6458 16.9349 23.44 16.9349H16.2422ZM14.1807 18.0186C14.3704 18.0186 14.5242 18.1799 14.5242 18.3789C14.5242 18.5778 14.3704 18.7391 14.1807 18.7391C13.9909 18.7391 13.8371 18.5778 13.8371 18.3789C13.8371 18.1799 13.9909 18.0186 14.1807 18.0186ZM17.2729 18.0186H22.7703C23.2285 18.0186 23.2285 18.7391 22.7703 18.7391H17.2729C16.8147 18.7391 16.8147 18.0186 17.2729 18.0186ZM13.1633 20.9002C12.96 20.9028 12.805 21.0661 12.805 21.2802V23.7642C12.805 23.9787 12.9606 24.1416 13.1647 24.1435H15.555V20.9009H13.168C13.1667 20.9009 13.1659 20.9002 13.1633 20.9002ZM16.2422 20.9009V24.1435H23.4434C23.6474 24.1416 23.7997 23.9787 23.7997 23.7642V21.2802C23.7997 21.0661 23.648 20.9028 23.4424 20.9005L16.2422 20.9009ZM14.1807 21.9817C14.3704 21.9817 14.5242 22.143 14.5242 22.342C14.5242 22.541 14.3704 22.7023 14.1807 22.7023C13.9909 22.7023 13.8371 22.541 13.8371 22.342C13.8371 22.143 13.9909 21.9817 14.1807 21.9817ZM17.2729 21.9817H22.7703C23.2285 21.9817 23.2285 22.7023 22.7703 22.7023H17.2729C16.8147 22.7023 16.8147 21.9817 17.2729 21.9817ZM8.68329 24.8641C8.3026 24.8641 7.99613 25.1854 7.99613 25.5846V25.9449C7.99613 26.3441 8.3026 26.6655 8.68329 26.6655H27.9241C28.3048 26.6655 28.6112 26.3441 28.6112 25.9449V25.5846C28.6112 25.1854 28.3048 24.8641 27.9241 24.8641H8.68329Z" fill="#6790F0"></path>
  </g>
  <defs>
    <clipPath id="clip0_857_20360">
      <rect width="35" height="35" fill="white" transform="translate(0.803711 0.162109)"></rect>
    </clipPath>
  </defs>
</svg>
