<?xml version="1.0" encoding="UTF-8"?>
<svg xmlns="http://www.w3.org/2000/svg" width="36" height="36" viewBox="0 0 36 36" fill="none">
  <g clip-path="url(#clip0_857_20348)">
    <path d="M0.803711 17.1567C0.803711 14.1922 3.64072 11.7891 7.14035 11.7891H29.4671C32.9667 11.7891 35.8037 14.1922 35.8037 17.1567V24.9104C35.8037 27.8749 32.9667 30.278 29.4671 30.278H7.14035C3.64072 30.278 0.803711 27.8749 0.803711 24.9104V17.1567Z" fill="#FFF6DC"></path>
    <path d="M17.9809 15.7363C17.3215 15.7363 16.7844 16.2587 16.7844 16.9016C16.7844 17.5438 17.3208 18.067 17.9809 18.067C18.6402 18.067 19.1773 17.5446 19.1773 16.9016C19.1766 16.2587 18.6402 15.7363 17.9809 15.7363Z" fill="#FDCB68"></path>
    <path d="M24.3603 17.2889C24.14 17.2889 23.9617 17.1153 23.9617 16.9009C23.9617 16.6864 24.14 16.5128 24.3603 16.5128H27.1424C26.9385 11.8981 23.1195 8.18001 18.3796 7.98145V10.1073C18.3796 10.3218 18.2013 10.4953 17.981 10.4953C17.7607 10.4953 17.5825 10.3218 17.5825 10.1073V7.98145C12.8426 8.18001 9.02358 11.8981 8.81963 16.5128H11.601C11.8213 16.5128 11.9995 16.6864 11.9995 16.9009C11.9995 17.1153 11.8213 17.2889 11.601 17.2889H8.81885C9.0228 21.9036 12.8418 25.6217 17.5817 25.8203V23.1116C17.5817 22.8972 17.7599 22.7236 17.9802 22.7236C18.2005 22.7236 18.3788 22.8972 18.3788 23.1116V25.8203C23.1187 25.6217 26.9377 21.9036 27.1416 17.2889H24.3603ZM17.981 18.8418C17.5755 18.8418 17.1979 18.7228 16.8827 18.5197L13.4786 21.8339C13.4007 21.9097 13.2987 21.9476 13.1968 21.9476C13.0948 21.9476 12.9928 21.9097 12.915 21.8339C12.7593 21.6823 12.7593 21.4367 12.915 21.2852L16.3191 17.971C16.1097 17.664 15.9882 17.2965 15.9882 16.9016C15.9882 15.8315 16.8827 14.9607 17.9818 14.9607C19.0809 14.9607 19.9754 15.8315 19.9754 16.9016C19.9746 17.971 19.0802 18.8418 17.981 18.8418Z" fill="#FDCB68"></path>
    <path d="M18.379 7.57239V5.83692H21.1705C21.3907 5.83692 21.569 5.6633 21.569 5.44873C21.569 5.23417 21.3907 5.06055 21.1705 5.06055H14.7904C14.5701 5.06055 14.3918 5.23417 14.3918 5.44873C14.3918 5.6633 14.5701 5.83692 14.7904 5.83692H17.5819V7.57163C17.7134 7.56708 18.3284 7.55874 18.379 7.57239Z" fill="#FDCB68"></path>
    <path d="M25.0451 10.3789L26.1933 9.26063L27.1072 10.1507C27.185 10.2265 27.287 10.2645 27.389 10.2645C27.4909 10.2645 27.5929 10.2265 27.6708 10.1507C27.8264 9.9991 27.8264 9.75345 27.6708 9.60181L25.2786 7.27193C25.1229 7.12029 24.8707 7.12029 24.715 7.27193C24.5594 7.42357 24.5594 7.66922 24.715 7.82085L25.6289 8.71095L24.4722 9.8376C24.6707 10.0105 24.8614 10.1909 25.0451 10.3789Z" fill="#FDCB68"></path>
  </g>
  <defs>
    <clipPath id="clip0_857_20348">
      <rect width="35" height="35" fill="white" transform="translate(0.803711 0.168945)"></rect>
    </clipPath>
  </defs>
</svg>
