<?xml version="1.0" encoding="UTF-8"?>
<svg xmlns="http://www.w3.org/2000/svg" width="36" height="36" viewBox="0 0 36 36" fill="none">
  <g clip-path="url(#clip0_857_20396)">
    <path d="M0.803711 17.3188C0.803711 14.3543 3.64072 11.9512 7.14035 11.9512H29.4671C32.9667 11.9512 35.8037 14.3543 35.8037 17.3188V25.0725C35.8037 28.037 32.9667 30.4401 29.4671 30.4401H7.14035C3.64072 30.4401 0.803711 28.037 0.803711 25.0725V17.3188Z" fill="#FFECEC"></path>
    <path fill-rule="evenodd" clip-rule="evenodd" d="M17.8089 8.00705H20.1567C20.2839 8.00705 20.3877 8.12993 20.3877 8.28057V14.8351C20.3877 14.9858 20.2839 15.1086 20.1567 15.1086H17.8089V8.00705ZM21.3522 9.68757C21.1822 9.68757 21.0441 9.52437 21.0441 9.32278C21.0441 9.12144 21.182 8.958 21.3522 8.958H25.4213C25.5913 8.958 25.7293 9.1212 25.7293 9.32278V10.3976C25.8304 10.2667 25.9998 10.2402 26.1273 10.3425C26.2675 10.455 26.304 10.6808 26.209 10.8469L25.6788 11.7725C25.5609 11.9883 25.2916 11.996 25.1674 11.7787L24.6335 10.8469C24.5385 10.6808 24.5752 10.455 24.7153 10.3425C24.8429 10.2402 25.0123 10.267 25.1132 10.3976V9.68757H21.3522ZM27.6987 20.5398L23.375 17.2375L19.0515 20.5398C21.4731 20.5398 26.2914 20.5398 27.6987 20.5398ZM26.6298 21.2694V26.726H24.3766V23.8306H22.3734V26.7257H20.1202V21.2694H26.6298ZM26.1882 12.6206C26.3026 12.4726 26.4965 12.4624 26.6215 12.5979C26.7464 12.7333 26.755 12.9629 26.6406 13.1109C26.3248 13.5201 25.8918 13.7637 25.4213 13.7637C24.9507 13.7637 24.5177 13.5201 24.2019 13.1109C24.0875 12.9629 24.0963 12.7333 24.2211 12.5979C24.346 12.4624 24.5399 12.4728 24.6543 12.6206C24.8531 12.8782 25.1246 13.0341 25.4213 13.0341C25.7179 13.0341 25.9895 12.8782 26.1882 12.6206ZM27.4724 14.2849C27.5868 14.1369 27.7807 14.1268 27.9056 14.2622C28.0306 14.3977 28.0392 14.6272 27.9248 14.7752C27.2765 15.6156 26.3878 16.1175 25.4213 16.1175C24.4547 16.1175 23.5662 15.6156 22.9177 14.7752C22.8034 14.6272 22.8121 14.3977 22.9369 14.2622C23.0619 14.1268 23.2557 14.1372 23.3701 14.2849C23.9016 14.9737 24.6288 15.3877 25.4213 15.3877C26.2137 15.3877 26.9411 14.9737 27.4724 14.2849ZM23.5599 13.9428C24.0419 14.5676 24.7028 14.9404 25.4213 14.9404C26.1397 14.9404 26.8007 14.5676 27.2826 13.9428C27.397 13.7948 27.3882 13.5652 27.2634 13.4298C27.1385 13.2944 26.9446 13.3048 26.8302 13.4525C26.4651 13.9257 25.9656 14.2106 25.4213 14.2106C24.8767 14.2106 24.3772 13.9254 24.0123 13.4525C23.8979 13.3045 23.7041 13.2944 23.5791 13.4298C23.4543 13.5652 23.4457 13.7948 23.5599 13.9428ZM19.2943 23.4535C19.4643 23.4535 19.6024 23.6167 19.6024 23.8183C19.6024 24.0197 19.4646 24.1831 19.2943 24.1831H14.5337C14.3637 24.1831 14.2257 24.0199 14.2257 23.8183V22.7435C14.1246 22.8744 13.9551 22.9009 13.8277 22.7986C13.6875 22.6861 13.651 22.4603 13.746 22.2942L14.2762 21.3686C14.3941 21.1528 14.6634 21.1451 14.7875 21.3624L15.3215 22.2942C15.4165 22.4603 15.3798 22.6861 15.2397 22.7986C15.1121 22.9009 14.9427 22.8741 14.8418 22.7435V23.4535H19.2943ZM13.7668 20.5205C13.6524 20.6685 13.4585 20.6787 13.3335 20.5432C13.2086 20.4078 13.2 20.1782 13.3144 20.0302C13.6302 19.621 14.0632 19.3774 14.5337 19.3774C15.0043 19.3774 15.4373 19.621 15.7531 20.0302C15.8674 20.1782 15.8587 20.4078 15.7339 20.5432C15.6089 20.6787 15.4151 20.6683 15.3007 20.5205C15.1019 20.2629 14.8304 20.107 14.5337 20.107C14.2373 20.107 13.9655 20.2629 13.7668 20.5205ZM12.4828 18.8559C12.3684 19.0039 12.1745 19.0141 12.0496 18.8786C11.9246 18.7432 11.916 18.5136 12.0304 18.3656C12.6787 17.5252 13.5674 17.0233 14.5339 17.0233C15.5005 17.0233 16.389 17.5252 17.0375 18.3656C17.1518 18.5136 17.1431 18.7432 17.0183 18.8786C16.8933 19.0141 16.6994 19.0037 16.5851 18.8559C16.0536 18.1672 15.3264 17.7531 14.5339 17.7531C13.7413 17.7531 13.0141 18.1674 12.4828 18.8559ZM16.3951 19.198C15.9131 18.5732 15.2522 18.2005 14.5337 18.2005C13.8153 18.2005 13.1543 18.5732 12.6724 19.198C12.558 19.346 12.5668 19.5756 12.6915 19.7111C12.8165 19.8465 13.0104 19.8361 13.1248 19.6884C13.4899 19.2152 13.9894 18.9303 14.5337 18.9303C15.0783 18.9303 15.5777 19.2154 15.9427 19.6884C16.057 19.8364 16.2509 19.8465 16.3759 19.7111C16.5009 19.5756 16.5094 19.346 16.3951 19.198ZM12.0281 4.8418H16.9618C17.089 4.8418 17.1928 4.96468 17.1928 5.11532V15.1086H15.7292V12.1822C15.7292 12.0315 15.6255 11.9086 15.4982 11.9086H13.569C13.4418 11.9086 13.338 12.0315 13.338 12.1822V15.1089H11.797V5.11532C11.7972 4.96468 11.9009 4.8418 12.0281 4.8418ZM12.7492 10.273V11.0026H13.4375V10.273H12.7492ZM15.5525 10.273V11.0026H16.2407V10.273H15.5525ZM14.1509 10.273V11.0026H14.8391V10.273H14.1509ZM12.7492 8.79214V9.52171H13.4375V8.79214H12.7492ZM15.5525 8.79214V9.52171H16.2407V8.79214H15.5525ZM14.1509 8.79214V9.52171H14.8391V8.79214H14.1509ZM12.7492 7.31152V8.04109H13.4375V7.31152H12.7492ZM15.5525 7.31152V8.04109H16.2407V7.31152H15.5525ZM14.1509 7.31152V8.04109H14.8391V7.31152H14.1509ZM12.7492 5.83065V6.56022H13.4375V5.83065H12.7492ZM15.5525 5.83065V6.56022H16.2407V5.83065H15.5525ZM14.1509 5.83065V6.56022H14.8391V5.83065H14.1509ZM8.83328 8.00705H11.1811V15.1089H8.83328C8.70607 15.1089 8.60229 14.986 8.60229 14.8354V8.28057C8.60229 8.12993 8.70607 8.00705 8.83328 8.00705ZM10.1996 9.49081H9.58373V10.3058H10.1998V9.49081H10.1996ZM10.1996 12.8101H9.58373V13.6251H10.1998V12.8101H10.1996ZM10.1996 11.1503H9.58373V11.9654H10.1998V11.1503H10.1996ZM19.4062 9.49081H18.7901V10.3058H19.4062V9.49081ZM19.4062 12.8101H18.7901V13.6251H19.4062V12.8101ZM19.4062 11.1503H18.7901V11.9654H19.4062V11.1503Z" fill="#FF9696"></path>
  </g>
  <defs>
    <clipPath id="clip0_857_20396">
      <rect width="35" height="35" fill="white" transform="translate(0.803711 0.141602)"></rect>
    </clipPath>
  </defs>
</svg>
