<?xml version="1.0" encoding="UTF-8"?>
<svg xmlns="http://www.w3.org/2000/svg" width="36" height="36" viewBox="0 0 36 36" fill="none">
  <g clip-path="url(#clip0_995_21118)">
    <path d="M-0.0187988 16.7317C-0.0187988 13.9372 2.89927 11.6719 6.49888 11.6719H29.4635C33.0631 11.6719 35.9812 13.9372 35.9812 16.7317V24.0407C35.9812 26.8352 33.0631 29.1005 29.4635 29.1005H6.49888C2.89926 29.1005 -0.0187988 26.8352 -0.0187988 24.0407V16.7317Z" fill="#E8FED6"></path>
    <path d="M18.0043 6.20898C15.3694 6.20898 13.2224 8.26313 13.2224 10.7841C13.2224 13.3051 15.3694 15.3593 18.0043 15.3593C20.6392 15.3593 22.7862 13.3051 22.7862 10.7841C22.7862 8.26313 20.6392 6.20898 18.0043 6.20898Z" fill="#90D05D"></path>
    <path d="M22.4206 17.0166H13.5887C11.3197 17.0166 9.41675 18.7673 9.41675 21.0082V24.6963H13.9303C13.7595 24.2528 13.6375 23.7626 13.6375 23.2724C13.6375 21.0549 15.5893 19.2341 17.9802 19.2341C20.3712 19.2341 22.323 21.0315 22.323 23.2724C22.323 23.7859 22.2254 24.2528 22.0302 24.6963H26.5437V20.9848C26.5925 18.7673 24.7383 17.0166 22.4206 17.0166Z" fill="#90D05D"></path>
    <path d="M18.0294 22.0352C17.5415 22.0352 17.1267 22.4321 17.1267 22.8992C17.1267 23.3662 17.5415 23.7632 18.0294 23.7632C18.5174 23.7632 18.9321 23.3662 18.9321 22.8992C18.9321 22.4088 18.5174 22.0352 18.0294 22.0352Z" fill="#90D05D"></path>
    <path d="M18.0052 19.958C16.1022 19.958 14.5408 21.4286 14.5408 23.2726C14.5408 25.0934 16.0778 26.5873 18.0052 26.5873C19.9326 26.5873 21.4696 25.1167 21.4696 23.2726C21.4452 21.4286 19.9082 19.958 18.0052 19.958ZM18.176 25.3268C18.1516 25.3501 18.1028 25.3735 18.054 25.3735C18.0052 25.3735 17.9808 25.3501 17.932 25.3268C16.2974 24.113 16.3462 22.9925 16.3706 22.8525C16.3706 21.9655 17.1269 21.2418 18.054 21.2418C18.9811 21.2418 19.7374 21.9655 19.7374 22.8525C19.7618 22.9925 19.8106 24.113 18.176 25.3268Z" fill="#90D05D"></path>
  </g>
  <defs>
    <clipPath id="clip0_995_21118">
      <rect width="35" height="35" fill="white" transform="translate(0.481201 0.155273)"></rect>
    </clipPath>
  </defs>
</svg>
