<svg width="400" height="75" viewBox="0 0 400 75" fill="none" xmlns="http://www.w3.org/2000/svg">
<g clip-path="url(#clip0_5311_116909)">
<path fill-rule="evenodd" clip-rule="evenodd" d="M6.31847 28.2373C5.7576 32.9187 6.84456 37.6493 9.39257 41.6162C11.9406 45.5832 15.7905 48.5388 20.2809 49.9752C24.7713 51.4116 29.6218 51.2392 33.9988 49.4874C38.3759 47.7357 42.0062 44.5141 44.2661 40.3762C46.526 36.2383 47.2742 31.4424 46.3823 26.8127C45.4904 22.183 43.0141 18.0084 39.3787 15.0064C36.5446 12.6659 33.1439 11.152 29.5487 10.5985V14.3317C29.5487 16.0369 28.1665 17.4192 26.4615 17.4192C24.7565 17.4192 23.3744 16.0369 23.3744 14.3317V7.71582C23.3744 5.78212 24.9523 4.15417 26.9608 4.19205C32.9328 4.30469 38.6967 6.43529 43.31 10.245C48.0518 14.1607 51.2818 19.6057 52.4452 25.6445C53.6085 31.6833 52.6325 37.9388 49.6849 43.3361C46.7372 48.7333 42.002 52.9354 36.2928 55.2203C30.5836 57.5051 24.2569 57.7301 18.3999 55.8565C12.5429 53.9829 7.52116 50.1278 4.19766 44.9535C0.874172 39.7792 -0.543596 33.6088 0.18797 27.5027C0.919536 21.3965 3.75476 15.7358 8.20647 11.4932C9.44077 10.3168 11.3949 10.3639 12.5711 11.5983C13.7474 12.8327 13.7003 14.787 12.466 15.9633C9.05301 19.216 6.87934 23.5559 6.31847 28.2373Z" fill="black"/>
<path fill-rule="evenodd" clip-rule="evenodd" d="M15.4589 19.2051C16.6645 17.9993 18.6192 17.9993 19.8248 19.2051L29.5274 28.9084C30.733 30.1141 30.733 32.0689 29.5274 33.2746C28.3218 34.4803 26.3671 34.4803 25.1614 33.2746L15.4589 23.5713C14.2533 22.3656 14.2533 20.4108 15.4589 19.2051Z" fill="#5D2BFF"/>
<path d="M231.78 48.7389C229.325 48.7389 227.234 48.4667 225.506 47.9224C223.778 47.4235 222.119 46.8111 220.527 46.0853V38.3289C221.573 39.0093 222.664 39.667 223.801 40.302C224.983 40.8917 226.233 41.368 227.552 41.7308C228.916 42.0937 230.371 42.2752 231.916 42.2752C233.735 42.2752 235.076 41.935 235.94 41.2546C236.849 40.5288 237.304 39.667 237.304 38.6691C237.304 37.7165 236.963 36.9908 236.281 36.4918C235.599 35.9475 234.713 35.4939 233.621 35.131C232.53 34.7682 231.371 34.4053 230.143 34.0424C229.007 33.7703 227.847 33.4074 226.665 32.9538C225.529 32.5002 224.483 31.8878 223.528 31.1167C222.573 30.3456 221.801 29.3704 221.209 28.191C220.664 26.9663 220.391 25.4922 220.391 23.7685C220.391 21.7273 220.8 20.0037 221.619 18.5975C222.437 17.1914 223.505 16.0574 224.824 15.1956C226.142 14.3337 227.597 13.7214 229.189 13.3585C230.78 12.9503 232.326 12.7461 233.826 12.7461C236.417 12.8369 238.509 13.1544 240.1 13.6987C241.691 14.1976 243.192 14.8554 244.601 15.6718L244.669 22.6799C243.078 21.818 241.532 21.0469 240.032 20.3665C238.532 19.6408 236.827 19.2779 234.917 19.2779C233.144 19.2779 231.757 19.5954 230.757 20.2305C229.802 20.8201 229.325 21.6593 229.325 22.7479C229.325 23.7005 229.62 24.4716 230.212 25.0612C230.803 25.6509 231.575 26.1045 232.53 26.422C233.485 26.7395 234.531 27.0571 235.667 27.3746C236.804 27.6921 237.986 28.055 239.214 28.4632C240.441 28.8261 241.578 29.3704 242.623 30.0961C243.669 30.8219 244.51 31.7971 245.147 33.0218C245.829 34.2012 246.17 35.7888 246.17 37.7846C246.124 40.4154 245.42 42.5473 244.056 44.1803C242.692 45.7678 240.896 46.9245 238.668 47.6503C236.486 48.376 234.19 48.7389 231.78 48.7389Z" fill="black"/>
<path d="M264.762 48.8066C261.215 48.8066 258.51 47.9448 256.646 46.2211C254.782 44.4521 253.85 41.912 253.85 38.6007V20.2302H248.531V13.4262H253.85V3.96875H262.784V13.4262H270.763V20.2302H262.784V37.24C262.784 38.6461 263.057 39.6894 263.602 40.3698C264.148 41.0501 265.102 41.3903 266.466 41.3903C267.194 41.3903 267.944 41.2769 268.717 41.0502C269.535 40.778 270.217 40.4605 270.763 40.0976V47.5819C269.854 48.0355 268.853 48.353 267.762 48.5345C266.716 48.7159 265.716 48.8066 264.762 48.8066Z" fill="black"/>
<path d="M289.208 48.7399C287.298 48.7399 285.48 48.5584 283.752 48.1956C282.025 47.8327 280.479 47.243 279.115 46.4265C277.751 45.5647 276.66 44.4081 275.841 42.9565C275.068 41.4597 274.682 39.5999 274.682 37.3773C274.682 35.064 275.159 33.1135 276.114 31.526C277.069 29.893 278.456 28.6683 280.274 27.8518C282.138 26.99 284.411 26.5591 287.094 26.5591C288.731 26.5591 290.254 26.7179 291.663 27.0354C293.072 27.3075 294.345 27.6931 295.482 28.192C296.619 28.691 297.551 29.2353 298.278 29.825L298.892 34.6558C297.937 34.0207 296.71 33.5218 295.209 33.1589C293.754 32.7507 292.163 32.5466 290.436 32.5466C288.026 32.5466 286.23 32.9321 285.048 33.7032C283.866 34.4743 283.275 35.6764 283.275 37.3093C283.275 38.4433 283.593 39.3958 284.23 40.1669C284.866 40.8927 285.684 41.4597 286.685 41.8679C287.685 42.2308 288.731 42.4122 289.822 42.4122C292.322 42.4122 294.118 42.2535 295.209 41.936C296.346 41.5731 296.914 40.8247 296.914 39.6907V26.1509C296.914 23.9283 296.21 22.318 294.8 21.3201C293.391 20.2768 291.413 19.7552 288.867 19.7552C286.912 19.7552 284.912 20.0954 282.866 20.7758C280.82 21.4108 279.16 22.25 277.887 23.2932V15.4687C279.115 14.6976 280.956 14.0172 283.411 13.4275C285.866 12.8379 288.503 12.543 291.322 12.543C292.504 12.543 293.754 12.6564 295.073 12.8832C296.391 13.11 297.642 13.4729 298.824 13.9718C300.051 14.4708 301.165 15.1739 302.165 16.0811C303.166 16.9429 303.961 18.0542 304.552 19.415C305.143 20.7304 305.439 22.3407 305.439 24.2458V40.5071C305.439 42.639 304.757 44.3173 303.393 45.542C302.029 46.7214 300.142 47.5379 297.733 47.9914C295.323 48.4904 292.481 48.7399 289.208 48.7399Z" fill="black"/>
<path d="M325.788 48.8066C322.242 48.8066 319.537 47.9448 317.673 46.2211C315.809 44.4521 314.877 41.912 314.877 38.6007V20.2302H309.557V13.4262H314.877V3.96875H323.811V13.4262H331.79V20.2302H323.811V37.24C323.811 38.6461 324.083 39.6894 324.629 40.3698C325.175 41.0501 326.129 41.3903 327.493 41.3903C328.221 41.3903 328.971 41.2769 329.744 41.0502C330.562 40.778 331.244 40.4605 331.79 40.0976V47.5819C330.88 48.0355 329.88 48.353 328.789 48.5345C327.743 48.7159 326.743 48.8066 325.788 48.8066Z" fill="black"/>
<path d="M353.097 48.7382C349.915 48.7382 347.141 48.2392 344.777 47.2413C342.458 46.1981 340.64 44.6558 339.321 42.6147C338.048 40.5735 337.412 37.9653 337.412 34.7901V13.4258H346.073V33.9056C346.073 36.4458 346.641 38.3282 347.778 39.5529C348.914 40.7776 350.688 41.3899 353.097 41.3899C355.598 41.3899 357.394 40.7776 358.485 39.5529C359.621 38.3282 360.19 36.4458 360.19 33.9056V13.4258H368.373V34.7901C368.373 39.5075 367.009 43.0229 364.281 45.3362C361.599 47.6042 357.871 48.7382 353.097 48.7382Z" fill="black"/>
<path d="M385.61 48.7389C383.155 48.7389 381.064 48.4667 379.336 47.9224C377.608 47.4235 375.949 46.8111 374.358 46.0853V38.3289C375.403 39.0093 376.494 39.667 377.631 40.302C378.813 40.8917 380.063 41.368 381.382 41.7308C382.746 42.0937 384.201 42.2752 385.747 42.2752C387.565 42.2752 388.906 41.935 389.77 41.2546C390.679 40.5288 391.134 39.667 391.134 38.6691C391.134 37.7165 390.793 36.9908 390.111 36.4918C389.429 35.9475 388.543 35.4939 387.451 35.131C386.36 34.7682 385.201 34.4053 383.973 34.0424C382.837 33.7703 381.677 33.4074 380.495 32.9538C379.359 32.5002 378.313 31.8878 377.358 31.1167C376.404 30.3456 375.631 29.3704 375.04 28.191C374.494 26.9663 374.221 25.4922 374.221 23.7685C374.221 21.7273 374.63 20.0037 375.449 18.5975C376.267 17.1914 377.336 16.0574 378.654 15.1956C379.973 14.3337 381.427 13.7214 383.019 13.3585C384.61 12.9503 386.156 12.7461 387.656 12.7461C390.248 12.8369 392.339 13.1544 393.93 13.6987C395.522 14.1976 397.022 14.8554 398.431 15.6718L398.499 22.6799C396.908 21.818 395.362 21.0469 393.862 20.3665C392.362 19.6408 390.657 19.2779 388.747 19.2779C386.974 19.2779 385.587 19.5954 384.587 20.2305C383.632 20.8201 383.155 21.6593 383.155 22.7479C383.155 23.7005 383.451 24.4716 384.042 25.0612C384.633 25.6509 385.406 26.1045 386.36 26.422C387.315 26.7395 388.361 27.0571 389.497 27.3746C390.634 27.6921 391.816 28.055 393.044 28.4632C394.271 28.8261 395.408 29.3704 396.454 30.0961C397.499 30.8219 398.34 31.7971 398.977 33.0218C399.659 34.2012 400 35.7888 400 37.7846C399.954 40.4154 399.25 42.5473 397.886 44.1803C396.522 45.7678 394.726 46.9245 392.498 47.6503C390.316 48.376 388.02 48.7389 385.61 48.7389Z" fill="black"/>
<path d="M79.4571 47.7176L68 13.4258H77.2748L85.4585 41.9343L82.7988 42.2064L90.6415 13.4258H97.3248L105.031 41.39H102.917L110.964 13.4258H119.966L108.509 47.7176H100.598L93.0966 23.2235L94.5969 23.6317L87.4362 47.7176H79.4571Z" fill="#5D2BFF"/>
<path d="M137.294 48.7415C131.657 48.7415 127.428 47.1766 124.61 44.0468C121.791 40.917 120.381 36.4037 120.381 30.507C120.381 24.202 121.814 19.6207 124.678 16.7631C127.588 13.9054 131.77 12.4766 137.226 12.4766C141.045 12.4766 144.228 13.157 146.774 14.5178C149.32 15.8332 151.207 17.829 152.434 20.5052C153.707 23.1814 154.344 26.5154 154.344 30.507C154.344 36.4037 152.866 40.917 149.911 44.0468C147.001 47.1766 142.796 48.7415 137.294 48.7415ZM137.294 41.6654C139.295 41.6654 140.909 41.2118 142.136 40.3046C143.409 39.3974 144.341 38.1274 144.932 36.4944C145.523 34.8161 145.819 32.8203 145.819 30.507C145.819 27.9215 145.501 25.8123 144.864 24.1793C144.273 22.5464 143.341 21.3444 142.068 20.5733C140.841 19.8022 139.249 19.4166 137.294 19.4166C135.294 19.4166 133.68 19.8248 132.452 20.6413C131.225 21.4578 130.315 22.6825 129.724 24.3154C129.179 25.9484 128.906 28.0122 128.906 30.507C128.906 34.1357 129.565 36.9027 130.884 38.8078C132.202 40.7129 134.339 41.6654 137.294 41.6654Z" fill="#5D2BFF"/>
<path d="M159.662 47.7193V16.7615C160.298 16.3532 161.412 15.8089 163.004 15.1285C164.64 14.4481 166.527 13.8585 168.664 13.3595C170.801 12.8152 172.96 12.543 175.143 12.543C176.779 12.543 178.075 12.6791 179.03 12.9513C180.03 13.1781 180.803 13.4729 181.349 13.8358V20.3675C180.439 20.2315 179.394 20.1181 178.212 20.0273C177.075 19.9366 175.893 19.9139 174.665 19.9593C173.483 19.9593 172.324 20.0047 171.187 20.0954C170.096 20.1861 169.141 20.2995 168.323 20.4356V47.7193H159.662Z" fill="#5D2BFF"/>
<path d="M192.197 28.328L205.495 13.4274H216.066L196.63 32.8867L192.197 28.328ZM194.038 47.7192H185.445V0.5H194.106L194.038 47.7192ZM198.403 24.9941L217.362 47.7192H206.382L192.265 30.7774L198.403 24.9941Z" fill="#5D2BFF"/>
<path d="M221.975 71.3058V58.6328H230.278V60.3998H224.084V64.0668H229.48V65.8528H224.065V69.5388H230.278V71.3058H221.975Z" fill="black"/>
<path d="M234 71.3082V63.4232H232.48V61.7702H234.019V61.3902C234.019 60.7189 234.089 60.1615 234.228 59.7182C234.38 59.2749 234.576 58.9202 234.817 58.6542C235.058 58.3882 235.324 58.1919 235.615 58.0652C235.906 57.9259 236.198 57.8372 236.489 57.7992C236.793 57.7612 237.078 57.7422 237.344 57.7422C237.534 57.7422 237.724 57.7549 237.914 57.7802C238.104 57.8055 238.269 57.8372 238.408 57.8752V59.6422C238.294 59.5789 238.174 59.5282 238.047 59.4902C237.933 59.4395 237.781 59.4142 237.591 59.4142C237.401 59.4142 237.211 59.4332 237.021 59.4712C236.831 59.4965 236.66 59.5725 236.508 59.6992C236.356 59.8132 236.236 59.9905 236.147 60.2312C236.058 60.4719 236.014 60.8012 236.014 61.2192V61.7702H238.408V63.4232H235.995V71.3082H234Z" fill="black"/>
<path d="M241.463 71.3082V63.4232H239.943V61.7702H241.482V61.3902C241.482 60.7189 241.552 60.1615 241.691 59.7182C241.843 59.2749 242.04 58.9202 242.28 58.6542C242.521 58.3882 242.787 58.1919 243.078 58.0652C243.37 57.9259 243.661 57.8372 243.952 57.7992C244.256 57.7612 244.541 57.7422 244.807 57.7422C244.997 57.7422 245.187 57.7549 245.377 57.7802C245.567 57.8055 245.732 57.8372 245.871 57.8752V59.6422C245.757 59.5789 245.637 59.5282 245.51 59.4902C245.396 59.4395 245.244 59.4142 245.054 59.4142C244.864 59.4142 244.674 59.4332 244.484 59.4712C244.294 59.4965 244.123 59.5725 243.971 59.6992C243.819 59.8132 243.699 59.9905 243.61 60.2312C243.522 60.4719 243.477 60.8012 243.477 61.2192V61.7702H245.871V63.4232H243.458V71.3082H241.463Z" fill="black"/>
<path d="M251.694 71.594C250.149 71.594 248.996 71.157 248.236 70.283C247.489 69.409 247.115 68.1613 247.115 66.54C247.115 64.8173 247.502 63.557 248.274 62.759C249.06 61.9483 250.187 61.543 251.656 61.543C252.708 61.543 253.575 61.7393 254.259 62.132C254.943 62.512 255.45 63.0757 255.779 63.823C256.109 64.5703 256.273 65.476 256.273 66.54C256.273 68.1487 255.874 69.3963 255.076 70.283C254.291 71.157 253.164 71.594 251.694 71.594ZM251.675 69.903C252.321 69.903 252.834 69.7637 253.214 69.485C253.594 69.1937 253.867 68.7947 254.031 68.288C254.209 67.7813 254.297 67.1987 254.297 66.54C254.297 65.8053 254.209 65.191 254.031 64.697C253.854 64.203 253.575 63.8357 253.195 63.595C252.815 63.3417 252.309 63.215 251.675 63.215C251.042 63.215 250.535 63.348 250.155 63.614C249.775 63.88 249.503 64.26 249.338 64.754C249.174 65.248 249.091 65.8433 249.091 66.54C249.091 67.5913 249.288 68.4147 249.68 69.01C250.073 69.6053 250.738 69.903 251.675 69.903Z" fill="black"/>
<path d="M258.783 71.3095V62.6455C258.947 62.5442 259.251 62.4048 259.695 62.2275C260.138 62.0502 260.664 61.8982 261.272 61.7715C261.88 61.6322 262.494 61.5625 263.115 61.5625C263.431 61.5625 263.691 61.5878 263.894 61.6385C264.096 61.6892 264.267 61.7462 264.407 61.8095V63.4055C264.115 63.3675 263.811 63.3422 263.495 63.3295C263.178 63.3042 262.861 63.3042 262.545 63.3295C262.228 63.3422 261.918 63.3675 261.614 63.4055C261.31 63.4435 261.031 63.4815 260.778 63.5195V71.3095H258.783Z" fill="black"/>
<path d="M269.965 71.5544C269.103 71.5544 268.419 71.3264 267.913 70.8704C267.419 70.4144 267.172 69.7431 267.172 68.8564V63.4224H265.633V61.7694H267.172V59.1094H269.224V61.7694H271.542V63.4224H269.224V68.4574C269.224 68.9007 269.3 69.2364 269.452 69.4644C269.616 69.6797 269.914 69.7874 270.345 69.7874C270.56 69.7874 270.775 69.7621 270.991 69.7114C271.206 69.6481 271.39 69.5721 271.542 69.4834V71.2504C271.314 71.3517 271.054 71.4277 270.763 71.4784C270.484 71.5291 270.218 71.5544 269.965 71.5544Z" fill="black"/>
<path d="M276.021 71.3082H274.045V58.1602H276.021V71.3082Z" fill="black"/>
<path d="M283.125 71.594C282.187 71.594 281.37 71.404 280.674 71.024C279.99 70.644 279.458 70.0803 279.078 69.333C278.71 68.5857 278.527 67.6737 278.527 66.597C278.527 64.9377 278.913 63.6837 279.686 62.835C280.471 61.9737 281.56 61.543 282.954 61.543C283.98 61.543 284.809 61.771 285.443 62.227C286.076 62.683 286.532 63.3227 286.811 64.146C287.102 64.9567 287.241 65.9067 287.229 66.996H279.724L279.667 65.514H285.709L285.234 65.989C285.196 65.0137 284.993 64.3043 284.626 63.861C284.258 63.405 283.682 63.177 282.897 63.177C282.39 63.177 281.959 63.2847 281.605 63.5C281.25 63.7027 280.978 64.0573 280.788 64.564C280.61 65.058 280.522 65.742 280.522 66.616C280.522 67.68 280.769 68.4907 281.263 69.048C281.757 69.5927 282.485 69.865 283.448 69.865C283.878 69.865 284.277 69.827 284.645 69.751C285.025 69.675 285.373 69.58 285.69 69.466C286.006 69.3393 286.279 69.219 286.507 69.105V70.948C286.063 71.138 285.563 71.29 285.006 71.404C284.448 71.5307 283.821 71.594 283.125 71.594Z" fill="black"/>
<path d="M292.468 71.5911C291.784 71.5911 291.201 71.5151 290.72 71.3631C290.251 71.2238 289.789 71.0464 289.333 70.8311V68.9501C289.662 69.1528 289.985 69.3364 290.302 69.5011C290.618 69.6531 290.948 69.7734 291.29 69.8621C291.644 69.9508 292.037 69.9951 292.468 69.9951C293.012 69.9951 293.437 69.8811 293.741 69.6531C294.057 69.4251 294.216 69.1401 294.216 68.7981C294.216 68.5068 294.114 68.2788 293.912 68.1141C293.722 67.9494 293.475 67.8101 293.171 67.6961C292.867 67.5821 292.55 67.4681 292.221 67.3541C291.879 67.2654 291.537 67.1641 291.195 67.0501C290.853 66.9234 290.536 66.7588 290.245 66.5561C289.966 66.3408 289.738 66.0684 289.561 65.7391C289.396 65.4098 289.314 65.0044 289.314 64.5231C289.314 63.9911 289.421 63.5414 289.637 63.1741C289.852 62.7941 290.131 62.4901 290.473 62.2621C290.827 62.0214 291.214 61.8504 291.632 61.7491C292.062 61.6351 292.48 61.5781 292.886 61.5781C293.557 61.5908 294.102 61.6731 294.52 61.8251C294.95 61.9771 295.368 62.1608 295.774 62.3761L295.793 64.0861C295.337 63.8454 294.906 63.6364 294.501 63.4591C294.095 63.2818 293.627 63.1931 293.095 63.1931C292.601 63.1931 292.189 63.2881 291.86 63.4781C291.53 63.6554 291.366 63.9214 291.366 64.2761C291.366 64.5801 291.454 64.8208 291.632 64.9981C291.822 65.1754 292.062 65.3148 292.354 65.4161C292.658 65.5174 292.981 65.6188 293.323 65.7201C293.639 65.8214 293.969 65.9291 294.311 66.0431C294.653 66.1444 294.969 66.2964 295.261 66.4991C295.552 66.7018 295.786 66.9678 295.964 67.2971C296.154 67.6264 296.249 68.0571 296.249 68.5891C296.236 69.2984 296.046 69.8748 295.679 70.3181C295.324 70.7614 294.855 71.0844 294.273 71.2871C293.69 71.4898 293.088 71.5911 292.468 71.5911Z" fill="black"/>
<path d="M301.527 71.5911C300.843 71.5911 300.26 71.5151 299.779 71.3631C299.31 71.2238 298.848 71.0464 298.392 70.8311V68.9501C298.721 69.1528 299.044 69.3364 299.361 69.5011C299.677 69.6531 300.007 69.7734 300.349 69.8621C300.703 69.9508 301.096 69.9951 301.527 69.9951C302.071 69.9951 302.496 69.8811 302.8 69.6531C303.116 69.4251 303.275 69.1401 303.275 68.7981C303.275 68.5068 303.173 68.2788 302.971 68.1141C302.781 67.9494 302.534 67.8101 302.23 67.6961C301.926 67.5821 301.609 67.4681 301.28 67.3541C300.938 67.2654 300.596 67.1641 300.254 67.0501C299.912 66.9234 299.595 66.7588 299.304 66.5561C299.025 66.3408 298.797 66.0684 298.62 65.7391C298.455 65.4098 298.373 65.0044 298.373 64.5231C298.373 63.9911 298.48 63.5414 298.696 63.1741C298.911 62.7941 299.19 62.4901 299.532 62.2621C299.886 62.0214 300.273 61.8504 300.691 61.7491C301.121 61.6351 301.539 61.5781 301.945 61.5781C302.616 61.5908 303.161 61.6731 303.579 61.8251C304.009 61.9771 304.427 62.1608 304.833 62.3761L304.852 64.0861C304.396 63.8454 303.965 63.6364 303.56 63.4591C303.154 63.2818 302.686 63.1931 302.154 63.1931C301.66 63.1931 301.248 63.2881 300.919 63.4781C300.589 63.6554 300.425 63.9214 300.425 64.2761C300.425 64.5801 300.513 64.8208 300.691 64.9981C300.881 65.1754 301.121 65.3148 301.413 65.4161C301.717 65.5174 302.04 65.6188 302.382 65.7201C302.698 65.8214 303.028 65.9291 303.37 66.0431C303.712 66.1444 304.028 66.2964 304.32 66.4991C304.611 66.7018 304.845 66.9678 305.023 67.2971C305.213 67.6264 305.308 68.0571 305.308 68.5891C305.295 69.2984 305.105 69.8748 304.738 70.3181C304.383 70.7614 303.914 71.0844 303.332 71.2871C302.749 71.4898 302.147 71.5911 301.527 71.5911Z" fill="black"/>
<path d="M313.516 71.3058V58.6328H321.819V60.3998H315.625V64.0668H321.021V65.8528H315.606V69.5388H321.819V71.3058H313.516Z" fill="black"/>
<path d="M325.541 71.3082V63.4232H324.021V61.7702H325.56V61.3902C325.56 60.7189 325.63 60.1615 325.769 59.7182C325.921 59.2749 326.117 58.9202 326.358 58.6542C326.599 58.3882 326.865 58.1919 327.156 58.0652C327.447 57.9259 327.739 57.8372 328.03 57.7992C328.334 57.7612 328.619 57.7422 328.885 57.7422C329.075 57.7422 329.265 57.7549 329.455 57.7802C329.645 57.8055 329.81 57.8372 329.949 57.8752V59.6422C329.835 59.5789 329.715 59.5282 329.588 59.4902C329.474 59.4395 329.322 59.4142 329.132 59.4142C328.942 59.4142 328.752 59.4332 328.562 59.4712C328.372 59.4965 328.201 59.5725 328.049 59.6992C327.897 59.8132 327.777 59.9905 327.688 60.2312C327.599 60.4719 327.555 60.8012 327.555 61.2192V61.7702H329.949V63.4232H327.536V71.3082H325.541Z" fill="black"/>
<path d="M333.006 71.3082V63.4232H331.486V61.7702H333.025V61.3902C333.025 60.7189 333.094 60.1615 333.234 59.7182C333.386 59.2749 333.582 58.9202 333.823 58.6542C334.063 58.3882 334.329 58.1919 334.621 58.0652C334.912 57.9259 335.203 57.8372 335.495 57.7992C335.799 57.7612 336.084 57.7422 336.35 57.7422C336.54 57.7422 336.73 57.7549 336.92 57.7802C337.11 57.8055 337.274 57.8372 337.414 57.8752V59.6422C337.3 59.5789 337.179 59.5282 337.053 59.4902C336.939 59.4395 336.787 59.4142 336.597 59.4142C336.407 59.4142 336.217 59.4332 336.027 59.4712C335.837 59.4965 335.666 59.5725 335.514 59.6992C335.362 59.8132 335.241 59.9905 335.153 60.2312C335.064 60.4719 335.02 60.8012 335.02 61.2192V61.7702H337.414V63.4232H335.001V71.3082H333.006ZM339.257 71.3082V61.8272H341.252L341.271 71.3082H339.257ZM339.2 60.2502V58.4452H341.328V60.2502H339.2Z" fill="black"/>
<path d="M348.527 71.4995C347.945 71.4995 347.375 71.4172 346.817 71.2525C346.26 71.0878 345.753 70.8218 345.297 70.4545C344.854 70.0745 344.499 69.5742 344.233 68.9535C343.967 68.3202 343.834 67.5348 343.834 66.5975C343.834 65.6348 343.961 64.8305 344.214 64.1845C344.468 63.5385 344.816 63.0255 345.259 62.6455C345.703 62.2528 346.203 61.9742 346.76 61.8095C347.33 61.6448 347.913 61.5625 348.508 61.5625C349.015 61.5625 349.522 61.6132 350.028 61.7145C350.535 61.8032 351.004 61.9425 351.434 62.1325V63.9185C351.004 63.7285 350.573 63.5828 350.142 63.4815C349.712 63.3675 349.262 63.3105 348.793 63.3105C347.805 63.3105 347.058 63.5575 346.551 64.0515C346.057 64.5455 345.81 65.3435 345.81 66.4455C345.81 67.5855 346.045 68.4215 346.513 68.9535C346.995 69.4728 347.774 69.7325 348.85 69.7325C349.319 69.7325 349.775 69.6755 350.218 69.5615C350.662 69.4348 351.073 69.2828 351.453 69.1055V70.8915C351.01 71.0942 350.548 71.2462 350.066 71.3475C349.585 71.4488 349.072 71.4995 348.527 71.4995Z" fill="black"/>
<path d="M354 71.3083V61.8273H355.995L356.014 71.3083H354ZM353.943 60.2503V58.4453H356.071V60.2503H353.943Z" fill="black"/>
<path d="M363.172 71.594C362.235 71.594 361.418 71.404 360.721 71.024C360.037 70.644 359.506 70.0803 359.126 69.333C358.758 68.5857 358.574 67.6737 358.574 66.597C358.574 64.9377 358.961 63.6837 359.734 62.835C360.519 61.9737 361.608 61.543 363.001 61.543C364.027 61.543 364.857 61.771 365.49 62.227C366.124 62.683 366.58 63.3227 366.859 64.146C367.15 64.9567 367.289 65.9067 367.277 66.996H359.771L359.714 65.514H365.756L365.281 65.989C365.243 65.0137 365.041 64.3043 364.673 63.861C364.306 63.405 363.73 63.177 362.945 63.177C362.438 63.177 362.007 63.2847 361.652 63.5C361.298 63.7027 361.025 64.0573 360.835 64.564C360.658 65.058 360.57 65.742 360.57 66.616C360.57 67.68 360.817 68.4907 361.31 69.048C361.804 69.5927 362.533 69.865 363.495 69.865C363.926 69.865 364.325 69.827 364.693 69.751C365.073 69.675 365.421 69.58 365.738 69.466C366.054 69.3393 366.327 69.219 366.555 69.105V70.948C366.111 71.138 365.611 71.29 365.053 71.404C364.496 71.5307 363.869 71.594 363.172 71.594Z" fill="black"/>
<path d="M369.762 62.5505C370.041 62.4112 370.351 62.2845 370.693 62.1705C371.048 62.0438 371.422 61.9362 371.814 61.8475C372.207 61.7588 372.606 61.6892 373.011 61.6385C373.417 61.5878 373.809 61.5625 374.189 61.5625C375.089 61.5625 375.823 61.6892 376.393 61.9425C376.963 62.1832 377.388 62.5632 377.666 63.0825C377.945 63.5892 378.084 64.2288 378.084 65.0015V71.3095H376.089V65.2675C376.089 65.0268 376.058 64.7925 375.994 64.5645C375.944 64.3238 375.836 64.1085 375.671 63.9185C375.519 63.7158 375.291 63.5575 374.987 63.4435C374.696 63.3295 374.31 63.2725 373.828 63.2725C373.486 63.2725 373.132 63.3042 372.764 63.3675C372.41 63.4308 372.074 63.5195 371.757 63.6335V71.3095H369.762V62.5505Z" fill="black"/>
<path d="M385.283 71.4995C384.701 71.4995 384.131 71.4172 383.573 71.2525C383.016 71.0878 382.509 70.8218 382.053 70.4545C381.61 70.0745 381.255 69.5742 380.989 68.9535C380.723 68.3202 380.59 67.5348 380.59 66.5975C380.59 65.6348 380.717 64.8305 380.97 64.1845C381.224 63.5385 381.572 63.0255 382.015 62.6455C382.459 62.2528 382.959 61.9742 383.516 61.8095C384.086 61.6448 384.669 61.5625 385.264 61.5625C385.771 61.5625 386.278 61.6132 386.784 61.7145C387.291 61.8032 387.76 61.9425 388.19 62.1325V63.9185C387.76 63.7285 387.329 63.5828 386.898 63.4815C386.468 63.3675 386.018 63.3105 385.549 63.3105C384.561 63.3105 383.814 63.5575 383.307 64.0515C382.813 64.5455 382.566 65.3435 382.566 66.4455C382.566 67.5855 382.801 68.4215 383.269 68.9535C383.751 69.4728 384.53 69.7325 385.606 69.7325C386.075 69.7325 386.531 69.6755 386.974 69.5615C387.418 69.4348 387.829 69.2828 388.209 69.1055V70.8915C387.766 71.0942 387.304 71.2462 386.822 71.3475C386.341 71.4488 385.828 71.4995 385.283 71.4995Z" fill="black"/>
<path d="M392.182 74.9935C391.941 74.9935 391.713 74.9682 391.498 74.9175C391.283 74.8795 391.093 74.8288 390.928 74.7655V73.0555C391.08 73.1062 391.232 73.1505 391.384 73.1885C391.536 73.2265 391.701 73.2455 391.878 73.2455C392.258 73.2455 392.575 73.1442 392.828 72.9415C393.081 72.7388 393.297 72.4475 393.474 72.0675C393.651 71.6875 393.797 71.2315 393.911 70.6995L393.949 71.6875L389.883 61.7695H392.144L394.899 69.2935H394.614L397.331 61.7695H399.402L395.469 71.8965C395.152 72.7072 394.81 73.3342 394.443 73.7775C394.076 74.2335 393.696 74.5502 393.303 74.7275C392.923 74.9048 392.549 74.9935 392.182 74.9935Z" fill="black"/>
</g>
<defs>
<clipPath id="clip0_5311_116909">
<rect width="400" height="75" fill="white"/>
</clipPath>
</defs>
</svg>
