<svg width="30" height="30" viewBox="0 0 30 30" fill="none" xmlns="http://www.w3.org/2000/svg">
<path fill-rule="evenodd" clip-rule="evenodd" d="M18.6327 8.3579C18.0643 8.3579 17.3935 8.49046 16.6204 8.75557C15.8474 9.02081 15.2903 9.1535 14.9492 9.15364C14.6839 9.15364 14.1477 9.03612 13.3405 8.80108C12.5333 8.56605 11.8455 8.44853 11.2771 8.44853C9.94314 8.44853 8.83847 9.0095 7.96306 10.1315C7.08767 11.2528 6.64998 12.7042 6.64998 14.4855C6.65341 15.4714 6.79891 16.4517 7.08198 17.3961C7.3935 18.4281 7.82466 19.4201 8.36667 20.3519C8.94268 21.3599 9.52249 22.1159 10.1061 22.6199C10.6897 23.1239 11.2771 23.3759 11.8683 23.3759C12.2624 23.3759 12.7759 23.2452 13.4087 22.9836C14.0416 22.7221 14.5968 22.5914 15.0743 22.5914C15.5518 22.5914 16.1372 22.7165 16.8307 22.9667C17.5242 23.217 18.068 23.3421 18.4622 23.342C18.9624 23.342 19.4626 23.1525 19.9628 22.7734C20.463 22.3944 20.9633 21.8221 21.4635 21.0566C21.7801 20.5784 22.0668 20.081 22.3219 19.5673C22.5512 19.1059 22.7432 18.6269 22.896 18.1348C22.2063 17.9303 21.5924 17.4415 21.0543 16.6683C20.5195 15.9063 20.2372 14.9959 20.247 14.065C20.2493 13.4336 20.391 12.8105 20.662 12.2402C20.9387 11.6451 21.4976 10.9915 22.3389 10.2792C21.8008 9.61216 21.2324 9.12512 20.6336 8.81808C20.0133 8.50613 19.327 8.34827 18.6327 8.3579ZM18.4395 3.96957C17.0828 4.27992 16.1107 4.85593 15.5233 5.69759C14.9359 6.53884 14.6347 7.53542 14.6196 8.68731C15.2107 8.65711 15.6844 8.56235 16.0407 8.40303C16.4322 8.21896 16.7867 7.96469 17.0866 7.65282C17.5534 7.19879 17.9212 6.65297 18.1666 6.04976C18.394 5.47375 18.5077 4.94326 18.5077 4.45829C18.5077 4.38257 18.5039 4.30684 18.4963 4.23069C18.486 4.142 18.4669 4.05453 18.4395 3.96957ZM15 0C23.2843 0 30 6.71551 30 15.0002C30 23.2845 23.2843 30 15 30C6.71573 30 0 23.2845 0 15.0002C0 6.71554 6.71572 0 15 0Z" fill="white"/>
</svg>
