<svg width="149" height="34" viewBox="0 0 149 34" fill="none" xmlns="http://www.w3.org/2000/svg">
<mask id="mask0_4164_22622" style="mask-type:luminance" maskUnits="userSpaceOnUse" x="0" y="0" width="149" height="34">
<path d="M148.165 0.557617H0V33.0818H148.165V0.557617Z" fill="white"/>
</mask>
<g mask="url(#mask0_4164_22622)">
<path d="M23.9163 24.8185L16.0723 28.8087V20.8281L23.9163 24.8185Z" fill="white"/>
<path d="M8.03625 16.7124L15.9677 12.6868L8.03625 8.64355H8.01862L0.0698464 12.6868L0 12.7221V20.738L0.052581 20.7733H0.0698464L8.01862 24.8165H8.03625V24.8342L15.9677 28.8775L16.0725 28.8069V28.9304L24.1088 33.0091V24.9225L23.9165 24.8165L16.0725 20.8263L15.9677 20.7733L8.03625 16.7477L8.01862 16.7301L8.03625 16.7124Z" fill="#FFAD00"/>
<path d="M16.0733 4.65461V12.6352L15.9686 12.6882L8.03711 8.64489V8.62722L15.9686 4.58398L16.0733 4.65461Z" fill="#FFAD00"/>
<path d="M15.9686 4.58323L8.03711 0.557617V8.64412L15.9686 12.6874L16.0733 12.6344V12.7404L23.9174 16.7307L16.0733 20.721V20.8269L23.9174 24.8172L24.1096 24.7289L31.8665 20.774L32.1459 20.6327V12.8286L31.8665 12.6874L24.1096 8.73246L23.9174 8.64417L16.0733 4.65385L15.9686 4.58323Z" fill="white"/>
<path d="M32.1441 20.6319V12.8278L31.8646 12.6865L24.1174 16.6191V16.6177L23.9141 16.7308L24.1174 16.8412L31.8646 20.773L32.1441 20.6319Z" fill="white"/>
<path d="M24.1085 8.73181V16.6242L23.9163 16.7301L16.0723 12.7398V12.6338L23.9163 8.64355L24.1085 8.73181Z" fill="white"/>
<path d="M15.9686 12.6868L8.03711 16.7125V8.64355L15.9686 12.6868Z" fill="#D99913"/>
<path d="M8.01881 16.7298L0.0698805 20.773H0.0524103L0 20.7378V12.7219L0.0698805 12.6865L8.01881 16.7298Z" fill="#D99913"/>
<path d="M8.03279 16.7491V24.8179H8.0153L0.0664062 20.7747L8.0153 16.7314L8.03279 16.7491Z" fill="#FFAD00"/>
<path d="M16.0733 20.8274V28.808L15.9686 28.8786L8.03711 24.8353V24.8177L15.9686 20.7744L16.0733 20.8274Z" fill="#FFAD00"/>
<path d="M24.1085 24.9223V33.0089L16.0723 28.9303V28.8067L23.9163 24.8164L24.1085 24.9223Z" fill="#FFAD00"/>
<path d="M15.9686 20.7746L8.03711 24.8178V16.749L15.9686 20.7746Z" fill="#D99913"/>
<path d="M23.9163 24.8185L16.0723 28.8087V20.8281L23.9163 24.8185Z" fill="#D99913"/>
<path d="M24.1085 16.8374V24.7297L23.9163 24.8179L16.0723 20.8276V20.7217L23.9163 16.7314L24.1085 16.8374Z" fill="white"/>
<path d="M31.8661 20.7733L24.1094 24.7282V16.8359L31.8661 20.7733Z" fill="white"/>
<path d="M8.03279 8.64355V16.7125L8.0153 16.7301L0.0664062 12.6868L8.0153 8.64355H8.03279Z" fill="#FFAD00"/>
<path d="M16.0733 4.65461V12.6352L15.9686 12.6882L8.03711 8.64492V8.62726L15.9686 4.58398L16.0733 4.65461Z" fill="#FFAD00"/>
<path d="M16.0733 4.65461V12.6352L15.9686 12.6882L8.03711 8.64492V8.62726L15.9686 4.58398L16.0733 4.65461Z" fill="white"/>
<path d="M31.8661 12.6874L24.1094 16.6248V8.73242L31.8661 12.6874Z" fill="white"/>
<path d="M23.9163 8.64359L16.0723 12.6339V4.65332L23.9163 8.64359Z" fill="white"/>
<path d="M15.9686 4.58323L8.03711 8.6265V0.557617L15.9686 4.58323Z" fill="white"/>
<path d="M47.3413 5.44434H49.7649L46.2549 19.7152H41.6999L38.1895 5.44434H40.6135L43.4549 17.6735H44.4995L47.3413 5.44434Z" fill="white"/>
<path d="M58.7569 12.5069V17.2569C58.771 17.5624 58.8474 17.7917 58.9866 17.9444C59.14 18.0833 59.37 18.1736 59.6763 18.2152L59.6137 19.9443C58.4158 19.9443 57.4894 19.6874 56.8345 19.1735C55.7203 19.6874 54.5991 19.9443 53.4708 19.9443C51.3953 19.9443 50.3574 18.8403 50.3574 16.6319C50.3574 15.5763 50.636 14.8124 51.1931 14.3402C51.7642 13.868 52.6348 13.5833 53.8049 13.486L56.5004 13.2569V12.5069C56.5004 11.9513 56.3748 11.5624 56.1244 11.3402C55.8873 11.118 55.5321 11.0069 55.0587 11.0069C54.1671 11.0069 53.0529 11.0624 51.7154 11.1735L51.0468 11.2152L50.9634 9.61099C52.4817 9.24996 53.8745 9.06934 55.1421 9.06934C56.4237 9.06934 57.3431 9.34711 57.9002 9.90272C58.4714 10.4444 58.7569 11.3124 58.7569 12.5069ZM54.0768 15.0902C53.1155 15.1736 52.6347 15.6943 52.6347 16.6527C52.6347 17.611 53.0596 18.0902 53.9093 18.0902C54.606 18.0902 55.3443 17.9791 56.1244 17.7568L56.5004 17.6319V14.861L54.0768 15.0902Z" fill="white"/>
<path d="M61.7402 19.7149V4.96484H64.0175V19.7149H61.7402Z" fill="white"/>
<path d="M73.2302 9.29785H75.4867V19.7146H73.2302V19.0687C72.2134 19.6521 71.2733 19.9437 70.4094 19.9437C68.9749 19.9437 68.0136 19.5618 67.5262 18.798C67.0387 18.0201 66.7949 16.666 66.7949 14.7354V9.29785H69.0723V14.7562C69.0723 16.0063 69.1767 16.8465 69.3857 17.2771C69.5945 17.7077 70.0824 17.923 70.8484 17.923C71.6007 17.923 72.2901 17.784 72.9168 17.5062L73.2302 17.3813V9.29785Z" fill="white"/>
<path d="M85.682 17.8402L86.2672 17.7777L86.3085 19.4653C84.7208 19.7847 83.314 19.9443 82.0883 19.9443C80.5418 19.9443 79.4276 19.5208 78.7449 18.6736C78.0763 17.8263 77.7422 16.4722 77.7422 14.6111C77.7422 10.9166 79.2535 9.06934 82.2761 9.06934C85.2012 9.06934 86.6636 10.6596 86.6636 13.8402L86.5174 15.4652H80.0406C80.0544 16.3263 80.2425 16.9583 80.6047 17.3611C80.9667 17.7638 81.6423 17.9653 82.6313 17.9653C83.6203 17.9653 84.6371 17.9236 85.682 17.8402ZM84.4282 13.7152C84.4282 12.6874 84.2611 11.9722 83.9267 11.5694C83.6066 11.1527 83.0562 10.9444 82.2761 10.9444C81.496 10.9444 80.9252 11.1597 80.5629 11.5902C80.2147 12.0208 80.0336 12.7291 80.0195 13.7152H84.4282Z" fill="white"/>
<path d="M93.932 19.9431C91.8426 19.9431 90.4223 19.3667 89.6699 18.2139C88.9314 17.0612 88.5625 15.1653 88.5625 12.5264C88.5625 9.88749 88.9391 8.01246 89.6906 6.90136C90.4429 5.77636 91.8573 5.21387 93.932 5.21387C95.1718 5.21387 96.5372 5.38747 98.0272 5.7347L97.9447 7.60968C96.6902 7.38748 95.4366 7.27635 94.183 7.27635C92.9294 7.27635 92.0799 7.65137 91.6337 8.40135C91.1883 9.13747 90.9657 10.5333 90.9657 12.5889C90.9657 14.6306 91.1815 16.0264 91.6131 16.7764C92.0447 17.5126 92.8882 17.8806 94.1409 17.8806C95.3953 17.8806 96.6627 17.7764 97.9447 17.5681L98.0066 19.4848C96.5716 19.7903 95.2139 19.9431 93.932 19.9431Z" fill="#FFAD00"/>
<path d="M100.602 10.4235C101.327 9.52079 102.525 9.06934 104.196 9.06934C105.868 9.06934 107.059 9.52079 107.769 10.4235C108.494 11.3263 108.856 12.6805 108.856 14.4861C108.856 16.2916 108.507 17.6527 107.811 18.5693C107.115 19.4861 105.91 19.9443 104.196 19.9443C102.483 19.9443 101.278 19.4861 100.582 18.5693C99.8853 17.6527 99.5371 16.2916 99.5371 14.4861C99.5371 12.6805 99.8922 11.3263 100.602 10.4235ZM102.316 17.1944C102.637 17.75 103.263 18.0277 104.196 18.0277C105.129 18.0277 105.756 17.75 106.077 17.1944C106.397 16.6388 106.557 15.7291 106.557 14.4652C106.557 13.2013 106.383 12.3055 106.035 11.7777C105.701 11.2499 105.088 10.986 104.196 10.986C103.305 10.986 102.685 11.2499 102.337 11.7777C102.002 12.3055 101.835 13.2013 101.835 14.4652C101.835 15.7291 101.995 16.6388 102.316 17.1944Z" fill="#FFAD00"/>
<path d="M119.64 4.96484V19.7149H117.383V19.1733C116.367 19.6872 115.433 19.9441 114.584 19.9441C113.218 19.9441 112.216 19.5344 111.575 18.7149C110.948 17.8955 110.635 16.5205 110.635 14.5899C110.635 12.6593 110.983 11.2565 111.679 10.3815C112.39 9.50658 113.49 9.06902 114.981 9.06902C115.482 9.06902 116.276 9.15931 117.363 9.33987V4.96484H119.64ZM117.008 17.5482L117.363 17.4024V11.2357C116.527 11.0969 115.754 11.0274 115.043 11.0274C113.636 11.0274 112.933 12.1941 112.933 14.5274C112.933 15.8051 113.094 16.6941 113.414 17.1941C113.748 17.6802 114.27 17.9233 114.981 17.9233C115.691 17.9233 116.367 17.7983 117.008 17.5482Z" fill="#FFAD00"/>
<path d="M129.839 17.8402L130.424 17.7777L130.466 19.4653C128.877 19.7847 127.471 19.9443 126.245 19.9443C124.699 19.9443 123.585 19.5208 122.902 18.6736C122.233 17.8263 121.898 16.4722 121.898 14.6111C121.898 10.9166 123.411 9.06934 126.433 9.06934C129.358 9.06934 130.821 10.6596 130.821 13.8402L130.674 15.4652H124.198C124.211 16.3263 124.4 16.9583 124.762 17.3611C125.124 17.7638 125.799 17.9653 126.788 17.9653C127.777 17.9653 128.794 17.9236 129.839 17.8402ZM128.585 13.7152C128.585 12.6874 128.418 11.9722 128.084 11.5694C127.763 11.1527 127.213 10.9444 126.433 10.9444C125.653 10.9444 125.081 11.1597 124.719 11.5902C124.371 12.0208 124.19 12.7291 124.176 13.7152H128.585Z" fill="#FFAD00"/>
<path d="M133.012 19.7152V9.29853H135.269V10.5485C136.453 9.78467 137.637 9.29157 138.821 9.06934V11.3402C137.623 11.5763 136.599 11.8819 135.749 12.2569L135.289 12.4444V19.7152H133.012Z" fill="#FFAD00"/>
<path d="M147.809 11.444C146.165 11.2218 144.974 11.1107 144.236 11.1107C143.498 11.1107 142.982 11.201 142.69 11.3815C142.411 11.5482 142.272 11.819 142.272 12.194C142.272 12.5691 142.426 12.833 142.732 12.9857C143.052 13.1384 143.79 13.319 144.947 13.5273C146.117 13.7218 146.946 14.0343 147.433 14.4649C147.921 14.8955 148.164 15.6593 148.164 16.7565C148.164 17.8538 147.809 18.6593 147.099 19.1732C146.402 19.6871 145.378 19.944 144.027 19.944C143.177 19.944 142.105 19.826 140.809 19.5899L140.162 19.4858L140.245 17.5899C141.917 17.8121 143.121 17.9232 143.86 17.9232C144.598 17.9232 145.12 17.833 145.427 17.6524C145.747 17.4718 145.908 17.1732 145.908 16.7565C145.908 16.3399 145.754 16.0552 145.448 15.9024C145.156 15.7357 144.438 15.5621 143.296 15.3815C142.168 15.1871 141.339 14.8885 140.809 14.4858C140.28 14.0829 140.016 13.3468 140.016 12.2774C140.016 11.2079 140.378 10.4093 141.102 9.88152C141.84 9.35377 142.781 9.08984 143.923 9.08984C144.814 9.08984 145.908 9.20098 147.203 9.42315L147.851 9.54817L147.809 11.444Z" fill="#FFAD00"/>
<path d="M40.9857 28.918C40.3372 28.918 39.8171 28.7083 39.4255 28.2889C39.0363 27.8695 38.8418 27.3238 38.8418 26.6519C38.8418 25.9299 39.0407 25.354 39.4382 24.9241C39.836 24.4942 40.3757 24.2793 41.0579 24.2793C41.6899 24.2793 42.1985 24.488 42.5837 24.9053C42.9708 25.3227 43.1645 25.8683 43.1645 26.5423C43.1645 27.2748 42.9667 27.8538 42.5711 28.2795C42.1755 28.7051 41.6473 28.918 40.9857 28.918ZM41.0202 24.9335C40.6079 24.9335 40.2723 25.0869 40.0127 25.3936C39.7553 25.7004 39.6267 26.1041 39.6267 26.6049C39.6267 27.1037 39.7522 27.5053 40.0034 27.81C40.2545 28.1146 40.5831 28.267 40.9891 28.267C41.4198 28.267 41.7603 28.1219 42.0092 27.8319C42.2581 27.5419 42.3825 27.136 42.3825 26.6143C42.3825 26.0781 42.2615 25.6638 42.0184 25.3717C41.778 25.0795 41.445 24.9335 41.0202 24.9335Z" fill="white"/>
<path d="M46.7692 28.8438H46.041V27.0377C46.041 26.4388 45.8287 26.1395 45.4039 26.1395C45.1819 26.1395 44.9986 26.2229 44.8545 26.3898C44.7101 26.5547 44.6379 26.7633 44.6379 27.0159V28.8438H43.9062V25.6386H44.6379V26.1708H44.6504C44.8908 25.7659 45.2383 25.5635 45.6924 25.5635C46.0421 25.5635 46.3088 25.6772 46.4929 25.9046C46.6773 26.13 46.7692 26.4566 46.7692 26.8844V28.8438Z" fill="white"/>
<path d="M49.3526 27.3614H47.6387V26.8262H49.3526V27.3614Z" fill="white"/>
<path d="M50.3301 28.843V24.3545H51.6298C53.2893 24.3545 54.1191 25.0838 54.1191 26.5424C54.1191 27.2352 53.8891 27.7923 53.4286 28.2138C52.9682 28.6333 52.3507 28.843 51.5765 28.843H50.3301ZM51.0742 24.9868V28.2138H51.6706C52.1958 28.2138 52.6041 28.0699 52.8949 27.7818C53.1878 27.4939 53.3345 27.087 53.3345 26.5612C53.3345 25.5115 52.7893 24.9868 51.6988 24.9868H51.0742Z" fill="white"/>
<path d="M57.5851 27.4384H55.3937C55.4022 27.7347 55.4934 27.9632 55.6671 28.1239C55.8427 28.2846 56.0834 28.3649 56.389 28.3649C56.732 28.3649 57.0473 28.2627 57.3339 28.0581V28.6435C57.0409 28.827 56.6535 28.9189 56.1723 28.9189C55.6993 28.9189 55.3278 28.7738 55.0578 28.4838C54.7899 28.1916 54.6562 27.7816 54.6562 27.2537C54.6562 26.755 54.8036 26.3492 55.0989 26.0361C55.3959 25.7211 55.7641 25.5635 56.2038 25.5635C56.6431 25.5635 56.9831 25.7043 57.224 25.9861C57.4647 26.2677 57.5851 26.659 57.5851 27.1598V27.4384ZM56.8817 26.9251C56.8798 26.6642 56.818 26.4618 56.6965 26.3178C56.5753 26.1718 56.4079 26.0987 56.1942 26.0987C55.9849 26.0987 55.8071 26.1749 55.6608 26.3272C55.5163 26.4796 55.4274 26.6788 55.3937 26.9251H56.8817Z" fill="white"/>
<path d="M63.087 28.8438H62.3588V27.0972C62.3588 26.7613 62.3106 26.5181 62.2143 26.3679C62.1203 26.2177 61.9602 26.1426 61.7342 26.1426C61.5439 26.1426 61.3816 26.2375 61.2476 26.4274C61.1157 26.6172 61.0497 26.8448 61.0497 27.1097V28.8438H60.3186V27.0377C60.3186 26.4409 60.107 26.1426 59.6844 26.1426C59.4877 26.1426 59.3255 26.2322 59.1976 26.4118C59.0721 26.5912 59.0095 26.8239 59.0095 27.1097V28.8438H58.2812V25.6386H59.0095V26.1456H59.0221C59.2544 25.7575 59.5922 25.5635 60.0359 25.5635C60.2578 25.5635 60.4511 25.625 60.6167 25.7482C60.7841 25.8691 60.8982 26.0288 60.9586 26.2271C61.1975 25.7847 61.5531 25.5635 62.0261 25.5635C62.7336 25.5635 63.087 25.9985 63.087 26.8687V28.8438Z" fill="white"/>
<path d="M66.4402 28.8438H65.7338V28.343H65.7212C65.4994 28.7269 65.1741 28.9189 64.7448 28.9189C64.4288 28.9189 64.181 28.8333 64.001 28.6622C63.8232 28.4911 63.7344 28.2647 63.7344 27.983C63.7344 27.3778 64.0836 27.0252 64.7826 26.9251L65.7368 26.7905C65.7368 26.3335 65.5193 26.105 65.0841 26.105C64.7011 26.105 64.3559 26.2364 64.0481 26.4994V25.864C64.387 25.6636 64.7785 25.5635 65.2223 25.5635C66.0343 25.5635 66.4402 25.9621 66.4402 26.7591V28.8438ZM65.7368 27.2693L65.0619 27.3632C64.8526 27.3904 64.6948 27.4415 64.5882 27.5166C64.4834 27.5897 64.4311 27.719 64.4311 27.9047C64.4311 28.0404 64.4792 28.152 64.5755 28.2397C64.6737 28.3252 64.8045 28.368 64.9678 28.368C65.1897 28.368 65.3726 28.2908 65.5172 28.1363C65.6639 27.9799 65.7368 27.7837 65.7368 27.5479V27.2693Z" fill="white"/>
<path d="M70.195 28.8438H69.4664V27.0377C69.4664 26.4388 69.2541 26.1395 68.8293 26.1395C68.6074 26.1395 68.4244 26.2229 68.28 26.3898C68.1355 26.5547 68.0633 26.7633 68.0633 27.0159V28.8438H67.332V25.6386H68.0633V26.1708H68.0758C68.3167 25.7659 68.6641 25.5635 69.1182 25.5635C69.4675 25.5635 69.7346 25.6772 69.9187 25.9046C70.1027 26.13 70.195 26.4566 70.195 26.8844V28.8438Z" fill="white"/>
<path d="M74.0105 28.8448H73.2823V28.3001H73.2696C73.0355 28.7133 72.6744 28.9198 72.1869 28.9198C71.7913 28.9198 71.4743 28.7769 71.2357 28.491C70.999 28.2031 70.8809 27.8118 70.8809 27.3172C70.8809 26.7873 71.0116 26.3626 71.2731 26.0434C71.5369 25.7241 71.8876 25.5645 72.3247 25.5645C72.7581 25.5645 73.073 25.7376 73.2696 26.084H73.2823V24.0996H74.0105V28.8448ZM73.2919 27.3798V26.9604C73.2919 26.733 73.2175 26.54 73.0689 26.3814C72.9204 26.2228 72.7311 26.1435 72.5006 26.1435C72.2288 26.1435 72.014 26.2447 71.8572 26.4471C71.7024 26.6495 71.625 26.9302 71.625 27.2891C71.625 27.6147 71.6991 27.8723 71.8476 28.0623C71.9984 28.25 72.2003 28.3439 72.4536 28.3439C72.7025 28.3439 72.9044 28.2531 73.0596 28.0716C73.2144 27.888 73.2919 27.6574 73.2919 27.3798Z" fill="white"/>
<path d="M76.6025 28.6645V27.8976C76.6715 27.9603 76.7533 28.0166 76.8474 28.0666C76.9437 28.1168 77.0452 28.1595 77.1519 28.195C77.2586 28.2284 77.3653 28.2544 77.4723 28.2733C77.579 28.292 77.6771 28.3015 77.7671 28.3015C78.0813 28.3015 78.3147 28.2493 78.4673 28.1449C78.622 28.0406 78.6995 27.8893 78.6995 27.691C78.6995 27.5846 78.6735 27.4928 78.6209 27.4156C78.571 27.3363 78.4999 27.2643 78.4076 27.1996C78.3153 27.135 78.2068 27.0734 78.0813 27.0149C77.9576 26.9544 77.8249 26.8919 77.6824 26.8271C77.5297 26.7457 77.3874 26.6634 77.2556 26.5799C77.1237 26.4965 77.0085 26.4046 76.9104 26.3044C76.814 26.2022 76.7374 26.0875 76.6811 25.9601C76.6266 25.8329 76.5996 25.6837 76.5996 25.5125C76.5996 25.3018 76.6466 25.1192 76.7407 24.9648C76.8371 24.8082 76.9626 24.68 77.1175 24.5798C77.2745 24.4776 77.4523 24.4024 77.6512 24.3544C77.8498 24.3044 78.0528 24.2793 78.2601 24.2793C78.731 24.2793 79.0739 24.3325 79.2896 24.439V25.1745C79.0343 24.9909 78.7058 24.899 78.3039 24.899C78.1932 24.899 78.082 24.9095 77.9713 24.9303C77.8623 24.9512 77.7642 24.9856 77.676 25.0337C77.5904 25.0817 77.5201 25.1432 77.466 25.2184C77.4115 25.2934 77.3842 25.3842 77.3842 25.4906C77.3842 25.5908 77.4052 25.6773 77.4471 25.7504C77.489 25.8235 77.5497 25.8902 77.629 25.9508C77.7108 26.0113 77.809 26.0707 77.9242 26.1292C78.0412 26.1855 78.1765 26.247 78.3291 26.3138C78.4861 26.3952 78.6336 26.4807 78.7717 26.5705C78.9121 26.6603 79.0343 26.7593 79.1392 26.8678C79.2458 26.9763 79.3296 27.0974 79.3904 27.2309C79.453 27.3624 79.4844 27.5126 79.4844 27.6816C79.4844 27.9091 79.4385 28.1011 79.3463 28.2576C79.254 28.4141 79.1296 28.5413 78.9725 28.6394C78.8176 28.7375 78.6387 28.8085 78.4357 28.8523C78.2328 28.8961 78.0183 28.918 77.7923 28.918C77.7172 28.918 77.6238 28.9117 77.5131 28.8992C77.4041 28.8888 77.2923 28.8721 77.1771 28.8491C77.0619 28.8283 76.953 28.8022 76.8508 28.7709C76.7482 28.7396 76.6656 28.7041 76.6025 28.6645Z" fill="white"/>
<path d="M81.6574 28.9189C81.1614 28.9189 80.7651 28.7697 80.4677 28.4713C80.1728 28.1708 80.0254 27.7733 80.0254 27.2787C80.0254 26.7404 80.1791 26.3199 80.4865 26.0174C80.7962 25.7148 81.2129 25.5635 81.736 25.5635C82.2383 25.5635 82.6297 25.7106 82.9102 26.0048C83.1906 26.299 83.3306 26.707 83.3306 27.2287C83.3306 27.7399 83.1791 28.1499 82.8757 28.4588C82.5742 28.7655 82.1682 28.9189 81.6574 28.9189ZM81.6922 26.1426C81.4073 26.1426 81.1825 26.2417 81.0173 26.4399C80.8517 26.6381 80.7691 26.9115 80.7691 27.26C80.7691 27.5959 80.8529 27.8609 81.0203 28.055C81.1878 28.2469 81.4118 28.343 81.6922 28.343C81.9789 28.343 82.1986 28.248 82.3512 28.0581C82.506 27.8683 82.5835 27.598 82.5835 27.2475C82.5835 26.8948 82.506 26.6225 82.3512 26.4305C82.1986 26.2385 81.9789 26.1426 81.6922 26.1426Z" fill="white"/>
<path d="M85.7875 24.69C85.6889 24.6336 85.5771 24.6054 85.4515 24.6054C85.0977 24.6054 84.9211 24.8047 84.9211 25.2033V25.6383H85.6681V26.208H84.924V28.8435H84.1958V26.208H83.6465V25.6383H84.1958V25.1187C84.1958 24.7808 84.3066 24.5146 84.5284 24.3206C84.7503 24.1245 85.0278 24.0264 85.3603 24.0264C85.5404 24.0264 85.6826 24.0462 85.7875 24.0859V24.69Z" fill="white"/>
<path d="M88.0007 28.8095C87.8589 28.8805 87.6714 28.9159 87.4384 28.9159C86.8151 28.9159 86.5038 28.6176 86.5038 28.0208V26.2085H85.9668V25.6388H86.5038V24.897L87.2321 24.6904V25.6388H88.0007V26.2085H87.2321V27.811C87.2321 28.0009 87.2665 28.1366 87.3353 28.2179C87.404 28.2994 87.5193 28.34 87.6809 28.34C87.8038 28.34 87.9105 28.3045 88.0007 28.2336V28.8095Z" fill="white"/>
<path d="M92.9481 25.6377L92.0006 28.8429H91.237L90.6532 26.6706C90.6309 26.5872 90.6163 26.4932 90.6094 26.3889H90.5974C90.5931 26.4598 90.5741 26.5517 90.5406 26.6644L89.9069 28.8429H89.1598L88.2148 25.6377H88.968L89.5518 27.9476C89.5708 28.0165 89.5828 28.1083 89.5897 28.2231H89.6112C89.6172 28.1354 89.6344 28.0415 89.6619 27.9414L90.311 25.6377H90.9963L91.5732 27.957C91.5922 28.0301 91.6059 28.1219 91.6145 28.2325H91.636C91.6403 28.1553 91.6558 28.0635 91.6833 27.957L92.2542 25.6377H92.9481Z" fill="white"/>
<path d="M95.9617 28.8438H95.2549V28.343H95.2429C95.021 28.7269 94.696 28.9189 94.267 28.9189C93.9506 28.9189 93.7021 28.8333 93.5224 28.6622C93.3444 28.4911 93.2559 28.2647 93.2559 27.983C93.2559 27.3778 93.6058 27.0252 94.3048 26.9251L95.2583 26.7905C95.2583 26.3335 95.0408 26.105 94.6057 26.105C94.2223 26.105 93.8775 26.2364 93.5697 26.4994V25.864C93.9084 25.6636 94.2997 25.5635 94.7442 25.5635C95.5558 25.5635 95.9617 25.9621 95.9617 26.7591V28.8438ZM95.2583 27.2693L94.5834 27.3632C94.3745 27.3904 94.2163 27.4415 94.1096 27.5166C94.0048 27.5897 93.9523 27.719 93.9523 27.9047C93.9523 28.0404 94.0005 28.152 94.0967 28.2397C94.1956 28.3252 94.3263 28.368 94.4897 28.368C94.7115 28.368 94.8946 28.2908 95.0391 28.1363C95.1853 27.9799 95.2583 27.7837 95.2583 27.5479V27.2693Z" fill="white"/>
<path d="M98.7184 26.3301C98.6307 26.2613 98.5043 26.2268 98.3393 26.2268C98.1234 26.2268 97.9437 26.3239 97.7984 26.5179C97.654 26.712 97.5818 26.9759 97.5818 27.3098V28.8435H96.8535V25.6383H97.5818V26.2988H97.5947C97.666 26.0734 97.7744 25.8982 97.9214 25.7729C98.0701 25.6457 98.2352 25.582 98.4175 25.582C98.549 25.582 98.6496 25.6019 98.7184 25.6414V26.3301Z" fill="white"/>
<path d="M101.9 27.4384H99.7093C99.717 27.7347 99.8081 27.9632 99.9818 28.1239C100.158 28.2846 100.398 28.3649 100.704 28.3649C101.047 28.3649 101.362 28.2627 101.649 28.0581V28.6435C101.356 28.827 100.969 28.9189 100.487 28.9189C100.015 28.9189 99.6431 28.7738 99.3731 28.4838C99.1048 28.1916 98.9707 27.7816 98.9707 27.2537C98.9707 26.755 99.1186 26.3492 99.4135 26.0361C99.711 25.7211 100.079 25.5635 100.518 25.5635C100.959 25.5635 101.298 25.7043 101.539 25.9861C101.78 26.2677 101.9 26.659 101.9 27.1598V27.4384ZM101.197 26.9251C101.195 26.6642 101.133 26.4618 101.012 26.3178C100.89 26.1718 100.723 26.0987 100.51 26.0987C100.3 26.0987 100.122 26.1749 99.9758 26.3272C99.8314 26.4796 99.7419 26.6788 99.7093 26.9251H101.197Z" fill="white"/>
<path d="M107.333 24.9868H106.039V28.843H105.293V24.9868H104.002V24.3545H107.333V24.9868Z" fill="white"/>
<path d="M110.004 27.4384H107.812C107.821 27.7347 107.912 27.9632 108.085 28.1239C108.261 28.2846 108.501 28.3649 108.808 28.3649C109.15 28.3649 109.465 28.2627 109.753 28.0581V28.6435C109.459 28.827 109.072 28.9189 108.591 28.9189C108.117 28.9189 107.746 28.7738 107.477 28.4838C107.208 28.1916 107.074 27.7816 107.074 27.2537C107.074 26.755 107.222 26.3492 107.517 26.0361C107.815 25.7211 108.183 25.5635 108.622 25.5635C109.061 25.5635 109.402 25.7043 109.642 25.9861C109.883 26.2677 110.004 26.659 110.004 27.1598V27.4384ZM109.3 26.9251C109.298 26.6642 109.236 26.4618 109.115 26.3178C108.993 26.1718 108.826 26.0987 108.612 26.0987C108.403 26.0987 108.225 26.1749 108.079 26.3272C107.935 26.4796 107.845 26.6788 107.812 26.9251H109.3Z" fill="white"/>
<path d="M113.165 28.8438H112.458V28.343H112.446C112.224 28.7269 111.898 28.9189 111.469 28.9189C111.154 28.9189 110.905 28.8333 110.726 28.6622C110.548 28.4911 110.459 28.2647 110.459 27.983C110.459 27.3778 110.808 27.0252 111.507 26.9251L112.461 26.7905C112.461 26.3335 112.244 26.105 111.809 26.105C111.425 26.105 111.081 26.2364 110.773 26.4994V25.864C111.112 25.6636 111.503 25.5635 111.946 25.5635C112.759 25.5635 113.165 25.9621 113.165 26.7591V28.8438ZM112.461 27.2693L111.787 27.3632C111.577 27.3904 111.419 27.4415 111.313 27.5166C111.208 27.5897 111.155 27.719 111.155 27.9047C111.155 28.0404 111.204 28.152 111.3 28.2397C111.398 28.3252 111.529 28.368 111.692 28.368C111.914 28.368 112.097 28.2908 112.241 28.1363C112.388 27.9799 112.461 27.7837 112.461 27.5479V27.2693Z" fill="white"/>
<path d="M118.861 28.8438H118.133V27.0972C118.133 26.7613 118.085 26.5181 117.988 26.3679C117.894 26.2177 117.734 26.1426 117.508 26.1426C117.318 26.1426 117.155 26.2375 117.021 26.4274C116.889 26.6172 116.823 26.8448 116.823 27.1097V28.8438H116.092V27.0377C116.092 26.4409 115.881 26.1426 115.458 26.1426C115.261 26.1426 115.099 26.2322 114.971 26.4118C114.846 26.5912 114.783 26.8239 114.783 27.1097V28.8438H114.055V25.6386H114.783V26.1456H114.796C115.028 25.7575 115.366 25.5635 115.81 25.5635C116.031 25.5635 116.225 25.625 116.391 25.7482C116.558 25.8691 116.672 26.0288 116.733 26.2271C116.971 25.7847 117.327 25.5635 117.8 25.5635C118.508 25.5635 118.861 25.9985 118.861 26.8687V28.8438Z" fill="white"/>
<path d="M119.547 28.7436V28.0707C119.819 28.2772 120.12 28.3805 120.448 28.3805C120.887 28.3805 121.107 28.2511 121.107 27.9924C121.107 27.9193 121.088 27.8578 121.051 27.8077C121.013 27.7555 120.962 27.7096 120.897 27.67C120.834 27.6304 120.759 27.5948 120.671 27.5635C120.586 27.5323 120.489 27.4968 120.382 27.4572C120.25 27.405 120.131 27.3497 120.024 27.2912C119.919 27.2328 119.831 27.1671 119.761 27.0941C119.691 27.0189 119.639 26.9344 119.604 26.8405C119.568 26.7467 119.55 26.6371 119.55 26.5119C119.55 26.3575 119.587 26.2218 119.66 26.105C119.733 25.9861 119.831 25.8869 119.955 25.8077C120.079 25.7262 120.219 25.6657 120.376 25.6261C120.533 25.5844 120.695 25.5635 120.862 25.5635C121.16 25.5635 121.426 25.6084 121.659 25.6981V26.3335C121.434 26.1791 121.174 26.1019 120.881 26.1019C120.789 26.1019 120.706 26.1113 120.63 26.13C120.557 26.1488 120.494 26.1749 120.442 26.2082C120.389 26.2417 120.348 26.2824 120.319 26.3303C120.29 26.3762 120.275 26.4274 120.275 26.4837C120.275 26.5526 120.29 26.6111 120.319 26.6589C120.348 26.707 120.391 26.7497 120.448 26.7873C120.506 26.8228 120.575 26.8562 120.655 26.8875C120.737 26.9167 120.83 26.949 120.935 26.9846C121.073 27.0409 121.196 27.0982 121.305 27.1567C121.416 27.2151 121.51 27.2819 121.587 27.357C121.665 27.43 121.725 27.5156 121.766 27.6137C121.808 27.7096 121.83 27.8244 121.83 27.9579C121.83 28.1207 121.792 28.2627 121.716 28.3836C121.64 28.5047 121.541 28.6049 121.415 28.6841C121.29 28.7634 121.144 28.8219 120.978 28.8594C120.815 28.8991 120.642 28.9189 120.461 28.9189C120.109 28.9189 119.804 28.8605 119.547 28.7436Z" fill="white"/>
</g>
</svg>
