<svg width="13" height="16" viewBox="0 0 13 16" fill="none" xmlns="http://www.w3.org/2000/svg">
<path fill-rule="evenodd" clip-rule="evenodd" d="M2 0H11C12.1046 0 13 0.895431 13 2V14C13 15.1046 12.1046 16 11 16H2C0.89543 16 0 15.1046 0 14V2C0 0.895431 0.89543 0 2 0ZM2 1C1.44772 1 1 1.44772 1 2V14C1 14.5523 1.44772 15 2 15H11C11.5523 15 12 14.5523 12 14V2C12 1.44772 11.5523 1 11 1H2Z" fill="#4461D7"/>
<path d="M10 3.5H3C2.72386 3.5 2.5 3.72386 2.5 4V6C2.5 6.27614 2.72386 6.5 3 6.5H10C10.2761 6.5 10.5 6.27614 10.5 6V4C10.5 3.72386 10.2761 3.5 10 3.5Z" stroke="#4461D7"/>
<path d="M3 11C3.55228 11 4 10.5523 4 10C4 9.44772 3.55228 9 3 9C2.44772 9 2 9.44772 2 10C2 10.5523 2.44772 11 3 11Z" fill="#4461D7"/>
<path d="M3 14C3.55228 14 4 13.5523 4 13C4 12.4477 3.55228 12 3 12C2.44772 12 2 12.4477 2 13C2 13.5523 2.44772 14 3 14Z" fill="#4461D7"/>
<path d="M6 11C6.55228 11 7 10.5523 7 10C7 9.44772 6.55228 9 6 9C5.44772 9 5 9.44772 5 10C5 10.5523 5.44772 11 6 11Z" fill="#4461D7"/>
<path d="M6 14C6.55228 14 7 13.5523 7 13C7 12.4477 6.55228 12 6 12C5.44772 12 5 12.4477 5 13C5 13.5523 5.44772 14 6 14Z" fill="#4461D7"/>
<path d="M10 11C10.5523 11 11 10.5523 11 10C11 9.44772 10.5523 9 10 9C9.44772 9 9 9.44772 9 10C9 10.5523 9.44772 11 10 11Z" fill="#4461D7"/>
<path d="M10 14C10.5523 14 11 13.5523 11 13C11 12.4477 10.5523 12 10 12C9.44772 12 9 12.4477 9 13C9 13.5523 9.44772 14 10 14Z" fill="#4461D7"/>
</svg>
