<svg width="15" height="18" viewBox="0 0 15 18" fill="none" xmlns="http://www.w3.org/2000/svg">
<path d="M4.82011 16.8954C4.82 16.8973 4.81994 16.8993 4.81994 16.9012C4.81994 16.9558 4.86403 17 4.91843 17H4.91859H8.05889C8.11328 17 8.15738 16.9558 8.15738 16.9012V15.5216H12.0424H12.2992C13.2423 15.5216 14 14.71 14 13.7239V13.6896V2.79771C14 1.81177 13.2423 1 12.2992 1H11.7884C11.734 1 11.6899 1.04422 11.6899 1.09877V2.42958H8.15754V1.09877C8.15754 1.04422 8.11345 1 8.05906 1H4.91843C4.86403 1 4.81994 1.04422 4.81994 1.09877V2.42958H1.09848C1.04409 2.42958 1 2.47381 1 2.52835V15.4228C1 15.4773 1.04409 15.5216 1.09848 15.5216H4.82011V16.8954ZM6.6532 3.22132H5.52499V3.06707V2.52835V1.73625H7.45232V2.52835V3.06707V14.884V15.4228V16.2637H5.52499V15.423V14.8842V12.8249H6.29686C6.35125 12.8249 6.39534 12.7807 6.39534 12.7261V12.4568V12.1875C6.39534 12.1328 6.35125 12.0887 6.29686 12.0887H5.52499V11.0515H6.6532C6.70759 11.0515 6.75168 11.0072 6.75168 10.9527V10.6834V10.4139C6.75168 10.3594 6.70759 10.3152 6.6532 10.3152H5.52499V9.27816H6.29686C6.35125 9.27816 6.39534 9.23394 6.39534 9.1794V8.91003V8.64067C6.39534 8.58612 6.35125 8.54191 6.29686 8.54191H5.52499V7.50469H6.6532C6.70759 7.50469 6.75168 7.46047 6.75168 7.40593V7.13656V6.86721C6.75168 6.81266 6.70759 6.76844 6.6532 6.76844H5.52499V5.73122H6.29686C6.35125 5.73122 6.39534 5.687 6.39534 5.63245V5.3631V5.09374C6.39534 5.03919 6.35125 4.99497 6.29686 4.99497H5.52499V3.95758H6.6532C6.70759 3.95758 6.75168 3.91335 6.75168 3.85881V3.58945V3.32009C6.75168 3.26554 6.70759 3.22132 6.6532 3.22132ZM12.0424 14.7853H8.15754V3.16584H11.6899V12.26V12.5294C11.6899 12.5839 11.734 12.6281 11.7884 12.6281H12.2992C12.8431 12.6281 13.2949 13.0991 13.2949 13.6896V13.7239C13.2949 14.3144 12.8431 14.7853 12.2992 14.7853H12.0424ZM4.82011 3.16584V14.7853H1.70505V3.16584H4.82011ZM12.395 1.74116C12.8952 1.79257 13.2949 2.24223 13.2949 2.79771V12.2349C13.0404 12.0391 12.7324 11.9153 12.3977 11.8948L12.395 1.74116Z" fill="#4461D7" stroke="#4461D7" stroke-width="0.2" stroke-linejoin="round"/>
</svg>
