<svg width="16" height="16" viewBox="0 0 16 16" fill="none" xmlns="http://www.w3.org/2000/svg">
<path fill-rule="evenodd" clip-rule="evenodd" d="M5.36606 1.06666C5.36606 0.772107 5.60485 0.533325 5.89939 0.533325H13.0935C13.3882 0.533325 13.6269 0.772107 13.6269 1.06666V14.4H14.9333C15.2278 14.4 15.4667 14.6388 15.4667 14.9333C15.4667 15.2278 15.2278 15.4667 14.9333 15.4667H1.06666C0.772107 15.4667 0.533325 15.2278 0.533325 14.9333C0.533325 14.6388 0.772107 14.4 1.06666 14.4H2.29068V8.89554C2.29068 8.65842 2.44723 8.44978 2.6749 8.38348L5.36606 7.59981V1.06666ZM5.36606 8.71079L3.35735 9.29572V14.4H5.36606V8.71079ZM6.43273 14.4H12.5602V1.59999H6.43273V14.4Z" fill="#4461D7"/>
<path d="M9.06668 3.19995H8.00001C7.70546 3.19995 7.46667 3.43873 7.46667 3.73328V4.79995C7.46667 5.0945 7.70546 5.33328 8.00001 5.33328H9.06668C9.36123 5.33328 9.60001 5.0945 9.60001 4.79995V3.73328C9.60001 3.43873 9.36123 3.19995 9.06668 3.19995Z" fill="#4461D7"/>
<path d="M9.06668 6.40002H8.00001C7.70546 6.40002 7.46667 6.63881 7.46667 6.93336V8.00002C7.46667 8.29458 7.70546 8.53336 8.00001 8.53336H9.06668C9.36123 8.53336 9.60001 8.29458 9.60001 8.00002V6.93336C9.60001 6.63881 9.36123 6.40002 9.06668 6.40002Z" fill="#4461D7"/>
<path d="M9.06668 9.59998H8.00001C7.70546 9.59998 7.46667 9.83876 7.46667 10.1333V11.2C7.46667 11.4945 7.70546 11.7333 8.00001 11.7333H9.06668C9.36123 11.7333 9.60001 11.4945 9.60001 11.2V10.1333C9.60001 9.83876 9.36123 9.59998 9.06668 9.59998Z" fill="#4461D7"/>
</svg>
