<svg width="16" height="16" viewBox="0 0 16 16" fill="none" xmlns="http://www.w3.org/2000/svg">
<path fill-rule="evenodd" clip-rule="evenodd" d="M12.9019 1.23108C13.1151 1.22373 13.3168 1.32729 13.4351 1.50474C13.8579 2.13888 14.9377 3.88401 15.935 5.87857C15.9777 5.96403 16 6.05825 16 6.15379C16 7.2202 15.6409 8.07557 15.0506 8.66585C14.4661 9.25034 13.6907 9.5384 12.9231 9.5384C12.1555 9.5384 11.3801 9.25034 10.7956 8.66585C10.2053 8.07557 9.84616 7.2202 9.84616 6.15379C9.84616 6.0467 9.87411 5.94145 9.92724 5.84847L12.3888 1.54078C12.4947 1.3556 12.6887 1.23841 12.9019 1.23108ZM12.9503 3.03877L11.0805 6.31097C11.1125 7.00532 11.356 7.48564 11.6659 7.79557C12.0045 8.13416 12.4599 8.30763 12.9231 8.30763C13.3862 8.30763 13.8416 8.13416 14.1802 7.79557C14.4927 7.48312 14.7376 6.99753 14.7664 6.29405C14.1171 5.00771 13.4391 3.83787 12.9503 3.03877Z" fill="#4461D7"/>
<path fill-rule="evenodd" clip-rule="evenodd" d="M3.05574 1.23108C3.2689 1.22373 3.47065 1.32729 3.58896 1.50474C4.01172 2.13888 5.09159 3.88401 6.08887 5.87857C6.13161 5.96403 6.15385 6.05825 6.15385 6.15379C6.15385 7.2202 5.79466 8.07557 5.20437 8.66585C4.61989 9.25034 3.84453 9.5384 3.07692 9.5384C2.30932 9.5384 1.53396 9.25034 0.949473 8.66585C0.359194 8.07557 0 7.2202 0 6.15379C0 6.0467 0.0279479 5.94145 0.0810811 5.84847L2.54262 1.54078C2.64843 1.3556 2.84258 1.23841 3.05574 1.23108ZM3.10416 3.03877L1.23434 6.31097C1.26633 7.00532 1.50982 7.48564 1.81975 7.79557C2.15835 8.13416 2.61376 8.30763 3.07692 8.30763C3.54009 8.30763 3.9955 8.13416 4.33409 7.79557C4.64654 7.48312 4.89146 6.99753 4.92025 6.29405C4.27092 5.00771 3.59305 3.83787 3.10416 3.03877Z" fill="#4461D7"/>
<path fill-rule="evenodd" clip-rule="evenodd" d="M7.99999 0C8.33985 0 8.61537 0.275518 8.61537 0.615385V14.7692H10.4615C10.8014 14.7692 11.0769 15.0448 11.0769 15.3846C11.0769 15.7244 10.8014 16 10.4615 16H5.53845C5.19859 16 4.92307 15.7244 4.92307 15.3846C4.92307 15.0448 5.19859 14.7692 5.53845 14.7692H7.3846V0.615385C7.3846 0.275518 7.66012 0 7.99999 0Z" fill="#4461D7"/>
<path fill-rule="evenodd" clip-rule="evenodd" d="M0 0.615385C0 0.275518 0.275518 0 0.615385 0H15.3846C15.7244 0 16 0.275518 16 0.615385C16 0.955252 15.7244 1.23077 15.3846 1.23077H0.615385C0.275518 1.23077 0 0.955252 0 0.615385Z" fill="#4461D7"/>
</svg>
