<svg width="18" height="15" viewBox="0 0 18 15" fill="none" xmlns="http://www.w3.org/2000/svg">
<path d="M15.9429 12.8606L15.943 12.9005H15.8469H15.4022L13.8153 12.9004L8.99962 12.9001L4.18399 12.8997L2.59703 12.8995L2.15243 12.8992H2.05617L2.05618 12.8592L2.05634 12.5842L2.05675 11.7499L2.05704 10.9155L2.05705 10.6406L2.05701 10.6006H6.81414C7.29493 11.348 8.10751 11.8149 9 11.8149C9.89256 11.8149 10.7051 11.348 11.1859 10.6006H11.2077L11.3617 10.6007L11.9113 10.6007L13.5791 10.601L15.2468 10.6014L15.7965 10.6017L15.9439 10.6019L15.9438 10.642L15.9436 10.9169L15.9433 11.7512L15.9429 12.5856V12.8606ZM6.83745 2.03819V2.07984C3.95097 3.0427 1.934 5.85124 1.934 9.07917V9.50249C1.41464 9.53584 1 9.98631 1 10.5377V12.9634C1 13.537 1.44639 14.0006 1.99584 14.0006H16.0042C16.552 14.0006 17 13.5365 17 12.9634V10.5377C17 9.98576 16.5867 9.53572 16.066 9.50248V9.07917C16.066 5.85124 14.049 3.0427 11.1626 2.07984V2.03819C11.1626 1.46479 10.7157 1.00061 10.1661 1.00061H7.83388C7.28402 1.00061 6.83745 1.46443 6.83745 2.03819ZM11.1626 3.24567C13.4438 4.15911 15.0099 6.45721 15.0099 9.07917V9.50051H11.5985C11.6191 9.36213 11.6295 9.22135 11.6295 9.07917C11.6295 8.50823 11.4599 7.96896 11.1626 7.52211V3.24567ZM6.40151 9.50051H2.99012V9.07917C2.99012 6.45721 4.55615 4.15911 6.83745 3.24567V7.52213C6.54013 7.96898 6.37046 8.50825 6.37046 9.07917C6.37046 9.22135 6.38092 9.36213 6.40151 9.50051ZM7.89466 2.23678L7.89479 2.10077L7.93413 2.10078L8.19847 2.1009L9.00065 2.10131L9.80281 2.10189L10.0671 2.10221L10.1064 2.1023V6.59671C9.76585 6.43234 9.38976 6.3434 9 6.3434C8.61022 6.3434 8.23415 6.43233 7.89359 6.5967L7.89361 6.4987L7.89368 5.9705L7.89397 4.36773L7.8944 2.76495L7.89466 2.23678ZM7.89493 2.03806V2.03797V2.03806ZM9 10.7148C8.13017 10.7148 7.42658 9.98186 7.42658 9.07917C7.42658 8.17653 8.13011 7.44354 9 7.44354C9.86984 7.44354 10.5734 8.17647 10.5734 9.07917C10.5734 9.98181 9.86989 10.7148 9 10.7148Z" fill="#4461D7" stroke="#4461D7" stroke-width="0.1"/>
</svg>
