<svg width="16" height="16" viewBox="0 0 16 16" fill="none" xmlns="http://www.w3.org/2000/svg">
<path d="M12.1231 7.9751C12.7385 8.59093 13.3539 9.20677 13.9693 9.82261C14.5846 10.4384 15.2 11.0543 15.8154 11.6702C16.0616 11.9164 16.0616 12.0396 15.8154 12.2859C14.5846 13.5177 13.4769 14.6261 12.2462 15.8577C12 16.1041 11.8769 15.9809 11.6308 15.8577C10.7692 14.9956 10.0308 14.2566 9.16924 13.3945C8.80001 13.025 8.43077 12.6554 8.06153 12.2859C8.06153 12.2859 8.06155 12.2859 7.93847 12.1627L7.81539 12.2859C7.07693 13.025 6.46154 13.6408 5.72308 14.3798C5.72308 14.3798 5.72307 14.3798 5.59999 14.5029C5.35384 14.8725 4.86154 14.9956 4.49231 15.1188C3.38462 15.242 2.39999 15.3652 1.2923 15.6115C0.923064 15.6115 0.553833 15.3652 0.67691 14.9956C0.799987 13.8872 0.923077 12.9018 1.04615 11.7932C1.04615 11.547 1.16923 11.3006 1.16923 10.9311C1.16923 10.6848 1.29231 10.5616 1.41539 10.4384C2.15385 9.69943 2.89231 8.96043 3.63077 8.22142L3.75384 8.09825C3.75384 8.09825 3.75384 8.09826 3.75384 7.9751C3.75384 7.9751 3.63077 7.97509 3.63077 7.85192C2.52308 6.74342 1.29231 5.63491 0.184616 4.5264C-0.0615385 4.28007 -0.0615385 4.03373 0.184616 3.78739C1.29231 2.67888 2.52308 1.44721 3.63077 0.338702C3.87693 0.0923669 4 0.0923669 4.24616 0.338702C5.35385 1.44721 6.58461 2.67888 7.6923 3.78739L7.81539 3.91056C7.81539 3.91056 7.81539 3.91056 7.93847 3.91056C8.3077 3.54106 8.67693 3.17155 9.04616 2.80205C9.78463 2.06304 10.5231 1.32405 11.2615 0.461882C11.8769 -0.153961 12.8616 -0.153961 13.4769 0.461882C14.0923 1.07771 14.8308 1.81673 15.4462 2.43256C16.0616 3.0484 16.0616 4.03373 15.4462 4.64956C15.2 4.89589 15.077 5.01906 14.8308 5.2654C13.9693 6.12756 13.1077 6.98976 12.1231 7.9751ZM5.23076 13.6408C7.93846 10.9311 10.7692 8.22142 13.4769 5.51175C13.1077 5.14225 12.6154 4.64958 12.2462 4.28008C9.53847 6.98976 6.83076 9.69942 3.99999 12.4091C4.36922 12.9018 4.86153 13.2713 5.23076 13.6408ZM3.38461 11.9164C6.0923 9.20677 8.92309 6.49708 11.6308 3.78739C11.2615 3.29472 10.7692 2.92522 10.4 2.55572C7.69232 5.2654 4.86153 7.97508 2.15383 10.6848C2.64614 11.0543 3.01537 11.4238 3.38461 11.9164ZM11.8769 14.9956C12.8616 14.0102 13.8462 12.9018 14.9539 11.9164C14.8308 11.7932 14.7077 11.67 14.5846 11.4238L14.4616 11.547C14.2154 11.7932 13.9693 12.0396 13.7231 12.2859C13.6 12.4091 13.3539 12.4091 13.2308 12.2859C13.1077 12.1628 13.1077 11.9164 13.2308 11.7932C13.3539 11.67 13.4769 11.547 13.6 11.4238C13.7231 11.3006 13.8462 11.1774 13.9693 11.0543C13.8462 10.9311 13.7231 10.8079 13.6 10.5616C13.3539 10.8079 13.1077 11.0543 12.8616 11.4238C12.7385 11.547 12.4923 11.547 12.3693 11.4238C12.2462 11.3006 12.2462 11.0543 12.3693 10.9311C12.4923 10.8079 12.4923 10.8079 12.6154 10.6848C12.8616 10.4384 12.9846 10.3153 13.2308 10.0689C12.7385 9.57627 12.2462 9.0836 11.7539 8.59093C10.7692 9.57627 9.78462 10.6848 8.80001 11.547C9.66155 12.7786 10.7692 13.8872 11.8769 14.9956ZM3.99999 1.07771C3.01537 2.06305 2.03077 3.17156 1.04615 4.1569C2.15385 5.26541 3.26153 6.3739 4.36922 7.48241C5.35384 6.49708 6.33847 5.38857 7.32308 4.40323C6.83078 3.91056 6.46154 3.54107 5.96924 3.0484L5.84615 3.17156C5.59999 3.41789 5.35384 3.66422 5.23076 3.78739C5.10768 3.91056 4.86154 3.91056 4.73847 3.78739C4.61539 3.66422 4.4923 3.54106 4.61538 3.29474C4.61538 3.17156 4.73847 3.17156 4.73847 3.17156C4.98462 2.92522 5.23077 2.67889 5.35385 2.43256C5.23077 2.30939 5.10768 2.18622 4.98461 1.93988C4.73845 2.18622 4.49231 2.43256 4.24616 2.67889C4.12308 2.80206 3.87693 2.80206 3.63077 2.67889C3.50769 2.55573 3.50769 2.30939 3.63077 2.06305C3.87693 1.81673 4 1.69355 4.24616 1.44722L4.36922 1.32405C4.24614 1.32405 4.12307 1.20089 3.99999 1.07771ZM11.0154 1.81673C12 2.80207 12.9846 3.91058 14.0923 4.89591C14.4616 4.5264 14.7077 4.28007 14.9539 3.91056C15.3231 3.54106 15.3231 3.17155 14.9539 2.80205C14.5846 2.43254 14.0923 1.93988 13.7231 1.57038C13.4769 1.32404 13.2308 1.07771 12.8616 0.831384C12.6154 0.585046 12.1231 0.585046 11.8769 0.831384C11.6308 1.20089 11.3846 1.57039 11.0154 1.81673ZM4.36922 14.0102C3.63076 13.1481 2.76922 12.4091 1.90768 11.547C1.7846 12.5323 1.66153 13.3945 1.53845 14.3798C2.52307 14.2566 3.38461 14.1334 4.36922 14.0102Z" fill="#4461D7"/>
</svg>
