<svg width="15" height="17" viewBox="0 0 15 17" fill="none" xmlns="http://www.w3.org/2000/svg">
<path d="M12.375 4.81006H2.625C1.72754 4.81006 1 5.50331 1 6.35847V14.4516C1 15.3068 1.72754 16 2.625 16H12.375C13.2725 16 14 15.3068 14 14.4516V6.35847C14 5.50331 13.2725 4.81006 12.375 4.81006Z" stroke="#4461D7"/>
<path fill-rule="evenodd" clip-rule="evenodd" d="M6.0017 1.51275C5.61409 1.83801 5.33333 2.3391 5.33333 3.05851V9.6039C5.33333 9.88099 5.09082 10.1056 4.79167 10.1056C4.49251 10.1056 4.25 9.88099 4.25 9.6039V3.05851C4.25 2.0734 4.64634 1.29609 5.27435 0.769096C5.89317 0.249812 6.70468 0 7.5 0C8.29532 0 9.10683 0.249812 9.72565 0.769096C10.3537 1.29609 10.75 2.0734 10.75 3.05851V9.6039C10.75 9.88099 10.5075 10.1056 10.2083 10.1056C9.90918 10.1056 9.66667 9.88099 9.66667 9.6039V3.05851C9.66667 2.3391 9.38592 1.83801 8.9983 1.51275C8.6015 1.17977 8.05885 1.00345 7.5 1.00345C6.94115 1.00345 6.3985 1.17977 6.0017 1.51275Z" fill="#4461D7"/>
</svg>
