<svg width="60" height="60" viewBox="0 0 60 60" fill="none" xmlns="http://www.w3.org/2000/svg">
<path d="M58.2068 8.66968H35.1034C34.1378 8.66968 33.3103 9.42656 33.3103 10.4587V17.2018C33.3103 18.3027 34.3447 18.9908 35.2413 18.922C37.3103 18.7844 38.5516 19.6789 38.9654 20.9862C39.862 23.5321 37.4482 25.6651 35.3792 25.1146C34.2758 24.8394 33.2413 25.5963 33.2413 26.6972V33.2339H26.6896C25.5861 33.2339 24.7585 34.266 25.1034 35.3669C25.6551 37.4312 23.5172 39.7706 20.9654 38.9449C19.793 38.5321 18.8965 37.4312 18.8965 35.9174C18.8965 35.2293 19.0344 34.7477 18.6206 34.1972C18.2758 33.6467 17.793 33.3027 17.1723 33.3027H10.4137C9.44819 33.3027 8.62061 34.0596 8.62061 35.0917V58.211C8.62061 59.1743 9.37923 60 10.4137 60C11.7241 60 58.8965 60 58.2068 60C59.1723 60 59.9999 59.2431 59.9999 58.211V10.5275C59.9999 9.42656 59.2413 8.66968 58.2068 8.66968ZM41.2413 22.0183C41.2413 19.3348 39.1723 16.7201 35.3792 16.7889V10.6651H57.931V33.1651H52.0689C51.5861 30.688 49.3792 28.8302 46.6896 28.8302C43.9999 28.8302 41.793 30.688 41.3103 33.1651H35.3792V27.1789C38.1378 27.6605 41.2413 25.3211 41.2413 22.0183ZM33.793 49.9541C32.2068 49.6789 31.0344 48.3027 31.0344 46.5825C31.0344 44.8623 32.2068 43.4862 33.793 43.211C34.6896 43.0734 35.3792 42.2477 35.3792 41.3532V35.2981H41.4482C42.4137 35.2981 43.1723 34.6101 43.3103 33.7156C43.5861 32.133 44.9654 30.9633 46.6896 30.9633C48.4137 30.9633 49.793 32.133 50.0689 33.7156C50.2068 34.6101 50.9654 35.2981 51.931 35.2981H57.931V57.7981H35.3792V51.8119C35.3792 50.9174 34.6896 50.0917 33.793 49.9541ZM22.0689 41.1468C25.3792 41.1468 27.7241 38.0504 27.2413 35.2981H33.3103V41.2156C30.8275 41.6972 28.9654 43.899 28.9654 46.5825C28.9654 49.266 30.8275 51.4679 33.3103 51.9495V57.7981H10.7585V35.2981H16.8965C16.7585 39.0137 19.3103 41.1468 22.0689 41.1468Z" fill="white"/>
<path d="M7.93103 26.6284C8.41379 29.1055 10.6207 30.9633 13.3103 30.9633C16 30.9633 18.2069 29.1055 18.6897 26.6284H24.9655C25.931 26.6284 26.7586 25.8716 26.7586 24.8395V18.578C29.2414 18.0963 31.1034 15.8945 31.1034 13.211C31.1034 10.5275 29.2414 8.32569 26.7586 7.84404V1.78899C26.7586 0.825689 26 0 24.9655 0H1.7931C0.827586 0 0 0.756881 0 1.78899V24.9083C0 25.8716 0.758621 26.6973 1.7931 26.6973L7.93103 26.6284ZM28.9655 13.2798C28.9655 15 27.7931 16.3762 26.2069 16.6514C25.3103 16.789 24.6207 17.6147 24.6207 18.5092V24.5642H18.5517C17.5862 24.5642 16.8276 25.2523 16.6897 26.1468C16.4138 27.7294 15.0345 28.8991 13.3103 28.8991C11.5862 28.8991 10.2069 27.7294 9.93103 26.1468C9.7931 25.2523 9.03448 24.5642 8.06897 24.5642H2.06897V2.06422H24.6207V8.05046C24.6207 9.01376 25.3103 9.77064 26.2069 9.90826C27.7931 10.1147 28.9655 11.5596 28.9655 13.2798Z" fill="white"/>
</svg>
