<svg width="16" height="16" viewBox="0 0 16 16" fill="none" xmlns="http://www.w3.org/2000/svg">
<path d="M15.9995 15.4539L15.3447 0.500709C15.339 0.365866 15.2821 0.238495 15.1861 0.145194C15.09 0.0518921 14.9621 -0.000126548 14.8292 2.31194e-07H11.8029C11.6699 -0.000126548 11.5421 0.0518921 11.446 0.145194C11.3499 0.238495 11.2931 0.365866 11.2873 0.500709L10.9762 7.62752L6.19702 5.79217C6.11894 5.76224 6.03488 5.75199 5.95204 5.76231C5.86921 5.77263 5.79007 5.80321 5.72145 5.85143C5.65282 5.89966 5.59675 5.96406 5.55806 6.03914C5.51936 6.1142 5.4992 6.19769 5.4993 6.28241V7.63625L0.697723 5.79217C0.619648 5.76224 0.535582 5.75199 0.452745 5.76231C0.369908 5.77263 0.290777 5.80321 0.222151 5.85143C0.153527 5.89966 0.0974582 5.96406 0.058763 6.03914C0.0200677 6.1142 -9.72468e-05 6.19769 3.52607e-07 6.28241V15.4766C3.52607e-07 15.6154 0.054318 15.7486 0.151004 15.8466C0.24769 15.9449 0.378825 16 0.515559 16H15.4839C15.5536 16.0001 15.6225 15.9858 15.6865 15.9582C15.7506 15.9303 15.8085 15.8898 15.8566 15.8388C15.9049 15.7877 15.9423 15.7274 15.9669 15.6612C15.9914 15.5951 16.0026 15.5246 15.9995 15.4539ZM1.03112 7.03958L5.4993 8.7563V14.9532H4.62284V13.6534C4.62284 13.2537 4.46641 12.8703 4.18795 12.5876C3.9095 12.3049 3.53183 12.1461 3.13803 12.1461C2.74423 12.1461 2.36657 12.3049 2.08812 12.5876C1.80966 12.8703 1.65323 13.2537 1.65323 13.6534V14.9532H1.03112V7.03958ZM3.59173 14.9532H2.68434V13.6534C2.68434 13.5313 2.73215 13.4142 2.81723 13.3278C2.90231 13.2415 3.01771 13.1929 3.13803 13.1929C3.25836 13.1929 3.37376 13.2415 3.45884 13.3278C3.54393 13.4142 3.59173 13.5313 3.59173 13.6534V14.9532ZM14.336 1.05201L14.4426 3.4945H12.1895L12.2961 1.05201H14.336ZM6.53041 7.03958L10.9213 8.72838L10.6549 14.9532H10.1221V13.6534C10.1221 13.2537 9.96571 12.8703 9.68725 12.5876C9.4088 12.3049 9.03113 12.1461 8.63733 12.1461C8.24353 12.1461 7.86587 12.3049 7.58741 12.5876C7.30896 12.8703 7.15252 13.2537 7.15252 13.6534V14.9532H6.53041V7.03958ZM9.09103 14.9532H8.18364V13.6534C8.18364 13.5313 8.23145 13.4142 8.31653 13.3278C8.40161 13.2415 8.51701 13.1929 8.63733 13.1929C8.75766 13.1929 8.87306 13.2415 8.95814 13.3278C9.04323 13.4142 9.09103 13.5313 9.09103 13.6534V14.9532ZM11.6877 14.9532L12.1431 4.53604H14.489L14.9444 14.9532H11.6877Z" fill="#4461D7"/>
</svg>
