<svg width="51" height="51" viewBox="0 0 51 51" fill="none" xmlns="http://www.w3.org/2000/svg">
<path d="M50 2.5C50 1.12109 48.8789 0 47.5 0H2.5C1.12109 0 0 1.12109 0 2.5V47.5C0 48.8789 1.12109 50 2.5 50H47.5C48.8789 50 50 48.8789 50 47.5V11.9833C50.0001 11.9799 50.002 11.9771 50.002 11.9736C50.002 11.9702 50.0001 11.9673 50 11.9639V2.5ZM2.5 2H47.5C47.7754 2 48 2.22461 48 2.5V10.9736H2V2.5C2 2.22461 2.22461 2 2.5 2ZM47.5 48H2.5C2.22461 48 2 47.7754 2 47.5V12.9736H48V47.5C48 47.7754 47.7754 48 47.5 48Z" fill="white"/>
<path d="M6.03125 7.95508H20.6777C21.2305 7.95508 21.6777 7.50781 21.6777 6.95508C21.6777 6.40234 21.2305 5.95508 20.6777 5.95508H6.03125C5.47852 5.95508 5.03125 6.40234 5.03125 6.95508C5.03125 7.50781 5.47852 7.95508 6.03125 7.95508Z" fill="white"/>
<path d="M43.5312 9.95508C45.1855 9.95508 46.5312 8.60938 46.5312 6.95508C46.5312 5.30078 45.1855 3.95508 43.5312 3.95508C41.8779 3.95508 40.5322 5.30078 40.5322 6.95508C40.5322 8.60938 41.8779 9.95508 43.5312 9.95508ZM43.5312 5.95508C44.083 5.95508 44.5312 6.40332 44.5312 6.95508C44.5312 7.50684 44.083 7.95508 43.5312 7.95508C42.9805 7.95508 42.5322 7.50684 42.5322 6.95508C42.5322 6.40332 42.9805 5.95508 43.5312 5.95508Z" fill="white"/>
<path d="M35.5137 9.95508C37.168 9.95508 38.5137 8.60938 38.5137 6.95508C38.5137 5.30078 37.168 3.95508 35.5137 3.95508C33.8594 3.95508 32.5137 5.30078 32.5137 6.95508C32.5137 8.60938 33.8594 9.95508 35.5137 9.95508ZM35.5137 5.95508C36.0654 5.95508 36.5137 6.40332 36.5137 6.95508C36.5137 7.50684 36.0654 7.95508 35.5137 7.95508C34.9619 7.95508 34.5137 7.50684 34.5137 6.95508C34.5137 6.40332 34.9619 5.95508 35.5137 5.95508Z" fill="white"/>
<path d="M27.4951 9.95508C29.1494 9.95508 30.4951 8.60938 30.4951 6.95508C30.4951 5.30078 29.1494 3.95508 27.4951 3.95508C25.8408 3.95508 24.4951 5.30078 24.4951 6.95508C24.4951 8.60938 25.8408 9.95508 27.4951 9.95508ZM27.4951 5.95508C28.0469 5.95508 28.4951 6.40332 28.4951 6.95508C28.4951 7.50684 28.0469 7.95508 27.4951 7.95508C26.9434 7.95508 26.4951 7.50684 26.4951 6.95508C26.4951 6.40332 26.9434 5.95508 27.4951 5.95508Z" fill="white"/>
<path d="M35.3652 26.3369C34.9023 22.7881 32.0098 20.0449 28.5225 20.0449C25.7617 20.0449 23.2803 21.8184 22.1982 24.417C21.4512 24.0615 20.6396 23.877 19.7969 23.877C17.0254 23.877 14.708 25.8945 14.1143 28.6436C13.9492 28.6289 13.7812 28.6221 13.6123 28.6221C10.3955 28.6221 7.7793 31.3809 7.7793 34.7715C7.7793 38.167 10.3955 40.9287 13.6123 40.9287H35.3154C39.124 40.9287 42.2227 37.6543 42.2227 33.6299C42.2227 29.626 39.1514 26.3652 35.3652 26.3369ZM35.3154 38.9287H13.6123C11.499 38.9287 9.7793 37.0635 9.7793 34.7715C9.7793 32.4834 11.499 30.6221 13.6123 30.6221C13.9873 30.6221 14.3428 30.6748 14.6689 30.7773C14.9658 30.8711 15.29 30.8213 15.5469 30.6416C15.8018 30.4619 15.959 30.1729 15.9697 29.8613C16.0527 27.627 17.7334 25.877 19.7969 25.877C20.6465 25.877 21.4521 26.1719 22.127 26.7285C22.3965 26.9512 22.7637 27.0186 23.0947 26.9014C23.4248 26.7861 23.6709 26.5059 23.7422 26.1631C24.2412 23.7764 26.252 22.0449 28.5225 22.0449C31.2285 22.0449 33.4297 24.4189 33.4346 27.2529C33.4287 27.2949 33.4229 27.376 33.4229 27.418C33.4229 27.7109 33.5518 27.9893 33.7744 28.1797C33.998 28.3682 34.291 28.4521 34.582 28.4053C34.8711 28.3584 35.1045 28.3369 35.3154 28.3369C38.0215 28.3369 40.2227 30.7109 40.2227 33.6299C40.2227 36.5518 38.0215 38.9287 35.3154 38.9287Z" fill="white"/>
<g filter="url(#filter0_dd)">
<path d="M43 21.5L6 42" stroke="white" stroke-width="2" stroke-linecap="round" stroke-linejoin="round"/>
</g>
<defs>
<filter id="filter0_dd" x="1" y="20.4998" width="47.0004" height="30.5004" filterUnits="userSpaceOnUse" color-interpolation-filters="sRGB">
<feFlood flood-opacity="0" result="BackgroundImageFix"/>
<feColorMatrix in="SourceAlpha" type="matrix" values="0 0 0 0 0 0 0 0 0 0 0 0 0 0 0 0 0 0 127 0" result="hardAlpha"/>
<feOffset dy="4"/>
<feGaussianBlur stdDeviation="2"/>
<feComposite in2="hardAlpha" operator="out"/>
<feColorMatrix type="matrix" values="0 0 0 0 0 0 0 0 0 0 0 0 0 0 0 0 0 0 0.25 0"/>
<feBlend mode="normal" in2="BackgroundImageFix" result="effect1_dropShadow"/>
<feColorMatrix in="SourceAlpha" type="matrix" values="0 0 0 0 0 0 0 0 0 0 0 0 0 0 0 0 0 0 127 0" result="hardAlpha"/>
<feOffset dy="4"/>
<feGaussianBlur stdDeviation="2"/>
<feComposite in2="hardAlpha" operator="out"/>
<feColorMatrix type="matrix" values="0 0 0 0 0 0 0 0 0 0 0 0 0 0 0 0 0 0 0.25 0"/>
<feBlend mode="normal" in2="effect1_dropShadow" result="effect2_dropShadow"/>
<feBlend mode="normal" in="SourceGraphic" in2="effect2_dropShadow" result="shape"/>
</filter>
</defs>
</svg>
