<svg width="60" height="60" viewBox="0 0 60 60" fill="none" xmlns="http://www.w3.org/2000/svg">
<path d="M60 20V1C60 0.447 59.553 0 59 0H1C0.447 0 0 0.447 0 1V59C0 59.553 0.447 60 1 60H39H41H49H51H59C59.553 60 60 59.553 60 59V42H58V58H51V56H55C55.553 56 56 55.553 56 55V47H54V54H51V51C51 50.447 50.553 50 50 50H49V45.781C55.42 43.993 60 37.906 60 31C60 22.729 53.271 16 45 16C36.729 16 30 22.729 30 31C30 31.336 30.02 31.668 30.041 32H20.414L13.707 25.293C13.52 25.105 13.266 25 13 25H6V14H54V16H56V13C56 12.447 55.553 12 55 12H5C4.447 12 4 12.447 4 13V55C4 55.553 4.447 56 5 56H39V58H2V10H58V20H60ZM42 52H48H49V54H41V52H42ZM45 18C52.168 18 58 23.832 58 31C58 37.151 53.609 42.75 47.786 44.023C47.327 44.123 47 44.53 47 45V50H43V45C43 44.53 42.673 44.123 42.214 44.023C36.391 42.75 32 37.151 32 31C32 23.832 37.832 18 45 18ZM33 40.175V54H28V34H30.304C30.749 36.263 31.68 38.368 33 40.175ZM14 28.414L19 33.414V54H14V28.414ZM21 34H26V54H21V34ZM6 27H12V54H6V27ZM35 54V42.41C36.69 43.967 38.726 45.148 41 45.781V50H40C39.447 50 39 50.447 39 51V54H35ZM41 56H49V58H41V56ZM2 8V2H58V8H2Z" fill="white"/>
<path d="M8 4H4V6H8V4Z" fill="white"/>
<path d="M14 4H10V6H14V4Z" fill="white"/>
<path d="M56 4H52V6H56V4Z" fill="white"/>
<path d="M45 42C51.065 42 56 37.065 56 31C56 24.935 51.065 20 45 20C38.935 20 34 24.935 34 31C34 37.065 38.935 42 45 42ZM45 40C43.134 40 41.4 39.429 39.961 38.453L45.414 33H53.768C52.855 37.002 49.275 40 45 40ZM54 31H46V22.059C50.493 22.558 54 26.375 54 31ZM44 22.059V31.586L38.442 37.144C36.932 35.534 36 33.376 36 31C36 26.375 39.507 22.558 44 22.059Z" fill="white"/>
<path d="M10 16H8V18H10V16Z" fill="white"/>
<path d="M14 16H12V18H14V16Z" fill="white"/>
<path d="M20 20H8V22H20V20Z" fill="white"/>
</svg>
