<svg width="58" height="56" viewBox="0 0 58 56" fill="none" xmlns="http://www.w3.org/2000/svg">
<path d="M54.3125 0.8125H3.6875C2.94185 0.813368 2.22698 1.10996 1.69972 1.63722C1.17246 2.16448 0.875868 2.87935 0.875 3.625V52.375C0.875868 53.1207 1.17246 53.8355 1.69972 54.3628C2.22698 54.89 2.94185 55.1866 3.6875 55.1875H54.3125C55.0582 55.1866 55.773 54.89 56.3003 54.3628C56.8275 53.8355 57.1241 53.1207 57.125 52.375V3.625C57.1241 2.87935 56.8275 2.16448 56.3003 1.63722C55.773 1.10996 55.0582 0.813368 54.3125 0.8125ZM3.6875 2.6875H54.3125C54.5611 2.68778 54.7994 2.78664 54.9751 2.9624C55.1509 3.13815 55.2497 3.37645 55.25 3.625V8.3125H2.75V3.625C2.75028 3.37645 2.84914 3.13815 3.0249 2.9624C3.20065 2.78664 3.43895 2.68778 3.6875 2.6875ZM54.3125 53.3125H3.6875C3.43895 53.3122 3.20065 53.2134 3.0249 53.0376C2.84914 52.8619 2.75028 52.6236 2.75 52.375V10.1875H55.25V52.375C55.2497 52.6236 55.1509 52.8619 54.9751 53.0376C54.7994 53.2134 54.5611 53.3122 54.3125 53.3125Z" fill="white"/>
<path d="M45.9271 47.0818C46.0373 46.8282 46.0217 46.5298 45.8862 46.2914C45.7507 46.053 45.5144 45.9082 45.2601 45.9082H40.5064V14.8192C40.5064 14.3664 40.1751 14 39.7664 14H12.8612C10.7327 14 9.00095 15.9167 9.00014 18.2726C9.00014 18.273 9 18.273 9 18.2734L9.00005 18.2736C9.00005 18.2738 9 18.274 9 18.2742C9 18.727 9.33134 19.0934 9.74 19.0934C9.74127 19.0934 9.7423 19.0926 9.74357 19.0926H15.2387V46.7274C15.2387 49.0833 16.9702 51 19.0984 51C19.1009 51 19.1031 50.9992 19.1055 50.9992H39.7661C39.7674 50.9992 39.7684 51 39.7697 51C44.1775 51 45.8577 47.2418 45.9271 47.0818ZM12.8612 15.6383C13.5003 15.6383 14.0991 15.9119 14.5471 16.4079C14.8151 16.7043 15.0009 17.0647 15.1152 17.4543H10.6098C10.9233 16.4037 11.8083 15.6383 12.8612 15.6383ZM16.7187 46.7274V18.294C16.7189 18.287 16.7223 18.2812 16.7223 18.2742C16.7223 18.2602 16.7188 18.247 16.7187 18.233V15.6399H22.2178C22.2203 15.6399 22.2224 15.6383 22.2249 15.6383H39.0264V45.9082H22.2178C21.8091 45.9082 21.4778 46.2746 21.4778 46.7274C21.4778 48.1773 20.4142 49.3565 19.1055 49.3609H19.0966C19.096 49.3609 19.0955 49.3613 19.0948 49.3613C17.7842 49.3591 16.7187 48.1787 16.7187 46.7274ZM39.7699 49.3617C39.7687 49.3617 39.7677 49.3609 39.7664 49.3609H22.1142C22.488 48.8373 22.7632 48.2259 22.883 47.5466H43.8006C43.0639 48.3833 41.7744 49.3617 39.7699 49.3617Z" fill="white"/>
<path d="M19.2839 35.3825H36.4615C36.8702 35.3825 37.2015 35.0161 37.2015 34.5633C37.2015 34.1105 36.8702 33.7441 36.4615 33.7441H19.2839C18.8753 33.7441 18.5439 34.1105 18.5439 34.5633C18.5439 35.0161 18.8753 35.3825 19.2839 35.3825Z" fill="white"/>
<path d="M19.2839 39.8805H36.4615C36.8702 39.8805 37.2015 39.5141 37.2015 39.0614C37.2015 38.6086 36.8702 38.2422 36.4615 38.2422H19.2839C18.8753 38.2422 18.5439 38.6086 18.5439 39.0614C18.5439 39.5141 18.8753 39.8805 19.2839 39.8805Z" fill="white"/>
<path d="M27.654 25.2478C27.984 25.1938 28.149 25.0128 28.149 24.7048C28.149 24.5888 28.112 24.4978 28.038 24.4318C27.966 24.3638 27.87 24.3068 27.75 24.2608L27.654 25.2478ZM27.375 22.3258C27.283 22.3398 27.205 22.3608 27.141 22.3888C27.079 22.4168 27.028 22.4498 26.988 22.4878C26.95 22.5258 26.922 22.5688 26.904 22.6168C26.886 22.6628 26.877 22.7118 26.877 22.7638C26.877 22.8818 26.915 22.9778 26.991 23.0518C27.067 23.1238 27.165 23.1848 27.285 23.2348L27.375 22.3258ZM27.834 23.4148C27.93 23.4428 28.026 23.4738 28.122 23.5078C28.218 23.5398 28.31 23.5778 28.398 23.6218C28.488 23.6638 28.571 23.7128 28.647 23.7688C28.725 23.8248 28.792 23.8908 28.848 23.9668C28.906 24.0428 28.951 24.1298 28.983 24.2278C29.015 24.3258 29.031 24.4388 29.031 24.5668C29.031 24.7568 28.999 24.9358 28.935 25.1038C28.871 25.2698 28.777 25.4178 28.653 25.5478C28.529 25.6758 28.377 25.7808 28.197 25.8628C28.017 25.9428 27.811 25.9918 27.579 26.0098L27.543 26.3818C27.539 26.4378 27.514 26.4878 27.468 26.5318C27.424 26.5778 27.367 26.6008 27.297 26.6008H26.955L27.015 25.9828C26.785 25.9448 26.565 25.8788 26.355 25.7848C26.147 25.6888 25.971 25.5738 25.827 25.4398L26.115 25.0228C26.139 24.9888 26.171 24.9608 26.211 24.9388C26.253 24.9148 26.297 24.9028 26.343 24.9028C26.391 24.9028 26.44 24.9158 26.49 24.9418C26.54 24.9658 26.594 24.9958 26.652 25.0318C26.712 25.0658 26.777 25.1018 26.847 25.1398C26.919 25.1758 27 25.2058 27.09 25.2298L27.201 24.0988C27.057 24.0588 26.913 24.0118 26.769 23.9578C26.627 23.9038 26.499 23.8308 26.385 23.7388C26.271 23.6468 26.178 23.5298 26.106 23.3878C26.036 23.2458 26.001 23.0678 26.001 22.8538C26.001 22.6958 26.033 22.5418 26.097 22.3918C26.161 22.2418 26.254 22.1068 26.376 21.9868C26.5 21.8668 26.652 21.7688 26.832 21.6928C27.012 21.6148 27.218 21.5698 27.45 21.5578L27.483 21.2248C27.487 21.1688 27.511 21.1188 27.555 21.0748C27.601 21.0288 27.659 21.0058 27.729 21.0058H28.071L28.014 21.5938C28.23 21.6338 28.415 21.6988 28.569 21.7888C28.725 21.8788 28.857 21.9748 28.965 22.0768L28.737 22.4098C28.703 22.4598 28.668 22.4968 28.632 22.5208C28.598 22.5428 28.557 22.5538 28.509 22.5538C28.479 22.5538 28.443 22.5468 28.401 22.5328C28.361 22.5168 28.317 22.4988 28.269 22.4788C28.221 22.4568 28.169 22.4348 28.113 22.4128C28.059 22.3888 28.001 22.3678 27.939 22.3498L27.834 23.4148Z" fill="white"/>
<circle cx="28.0331" cy="24.3041" r="4.87097" stroke="white"/>
<path d="M13.0625 6.4375C13.5803 6.4375 14 6.01777 14 5.5C14 4.98223 13.5803 4.5625 13.0625 4.5625C12.5447 4.5625 12.125 4.98223 12.125 5.5C12.125 6.01777 12.5447 6.4375 13.0625 6.4375Z" fill="white"/>
<path d="M9.3125 6.4375C9.83027 6.4375 10.25 6.01777 10.25 5.5C10.25 4.98223 9.83027 4.5625 9.3125 4.5625C8.79473 4.5625 8.375 4.98223 8.375 5.5C8.375 6.01777 8.79473 6.4375 9.3125 6.4375Z" fill="white"/>
<path d="M5.5625 6.4375C6.08027 6.4375 6.5 6.01777 6.5 5.5C6.5 4.98223 6.08027 4.5625 5.5625 4.5625C5.04473 4.5625 4.625 4.98223 4.625 5.5C4.625 6.01777 5.04473 6.4375 5.5625 6.4375Z" fill="white"/>
</svg>
