<svg width="16" height="16" viewBox="0 0 16 16" fill="none" xmlns="http://www.w3.org/2000/svg">
<path d="M8 0C5.87833 0 3.84331 0.842901 2.34315 2.34315C0.842901 3.84353 0 5.87833 0 8C0 10.1217 0.842901 12.1567 2.34315 13.6568C3.84353 15.1571 5.87833 16 8 16C10.1217 16 12.1567 15.1571 13.6568 13.6568C15.1571 12.1565 16 10.1217 16 8C15.9974 5.87905 15.1538 3.8455 13.654 2.34596C12.1543 0.846205 10.1207 0.00255585 8 0ZM8.72723 12.3638C8.72723 12.6236 8.58868 12.8637 8.36368 12.9936C8.13868 13.1235 7.86133 13.1235 7.63632 12.9936C7.41131 12.8637 7.27277 12.6236 7.27277 12.3638V7.27295H6.54541C6.28559 7.27295 6.04549 7.13428 5.91558 6.90927C5.78567 6.68427 5.78567 6.40705 5.91558 6.18204C6.04549 5.95703 6.28558 5.81836 6.54541 5.81836H8C8.19286 5.81836 8.37792 5.89494 8.51429 6.03143C8.65065 6.16779 8.72723 6.35275 8.72723 6.54559V12.3638ZM8 5.09113C7.80714 5.09113 7.62208 5.01443 7.48571 4.87806C7.34935 4.7417 7.27277 4.55674 7.27277 4.36378C7.27277 4.17092 7.34935 3.98598 7.48571 3.84961C7.62208 3.71313 7.80713 3.63655 8 3.63655C8.19287 3.63655 8.37792 3.71313 8.51429 3.84961C8.65065 3.98598 8.72723 4.17093 8.72723 4.36378C8.72723 4.55675 8.65065 4.7417 8.51429 4.87806C8.37792 5.01443 8.19287 5.09113 8 5.09113Z" fill="#4461D7"/>
</svg>
