<svg width="60" height="60" viewBox="0 0 60 60" fill="none" xmlns="http://www.w3.org/2000/svg">
<path d="M60 35.3571V24.6429H54.5999C54.1825 22.7158 53.5398 20.8492 52.6854 19.0746L57.7831 15.092L51.1858 6.64852L46.0858 10.6341C42.975 8.04872 39.2985 6.25454 35.3565 5.40015L35.3571 0H24.6429V5.40077C20.7015 6.25515 17.0245 8.04888 13.9136 10.6347L8.81357 6.64913L2.21633 15.0926L7.31403 19.0753C6.46024 20.8492 5.8175 22.7158 5.40015 24.6429H0V35.3571H5.40015C5.81749 37.2848 6.46022 39.1508 7.31464 40.9254L2.21694 44.908L8.81418 53.3515L13.9142 49.3659C17.025 51.9513 20.7015 53.7455 24.6435 54.5998L24.6429 60H35.3572V54.5992C39.2985 53.7448 42.9755 51.9511 46.0864 49.3653L51.1864 53.3509L57.7837 44.9074L52.686 40.9247C53.5398 39.1508 54.1825 37.2848 54.5999 35.3571H60ZM52.6656 34.0962C52.2489 36.4166 51.4812 38.6473 50.3847 40.728L49.9674 41.5208L54.7762 45.2774L50.8182 50.3434L46.0075 46.585L45.3403 47.1817C42.1624 50.0193 38.2756 51.9153 34.0975 52.665L33.2144 52.8234V57.8571H26.7858V52.8234L25.9039 52.665C21.7258 51.9152 17.839 50.0193 14.6611 47.1817L13.9939 46.585L9.18314 50.3434L5.22513 45.2774L10.034 41.5208L9.61667 40.728C8.52012 38.6473 7.75238 36.416 7.33575 34.0962L7.17611 33.2143H2.14299V26.7857H7.17611L7.33515 25.9038C7.75189 23.584 8.51839 21.3527 9.61607 19.272L10.0334 18.4792L5.22453 14.7226L9.18254 9.65657L13.9933 13.415L14.6605 12.8183C17.8384 9.98069 21.7252 8.08472 25.9033 7.33503L26.7858 7.17658V2.14286H33.2144V7.17658L34.0963 7.33503C38.2744 8.08479 42.1612 9.98069 45.3391 12.8183L46.0063 13.415L50.817 9.65657L54.7751 14.7226L49.9662 18.4792L50.3835 19.272C51.4813 21.3533 52.2478 23.5846 52.6644 25.9038L52.8241 26.7857H57.8572V33.2143H52.8241L52.6656 34.0962Z" fill="white"/>
<path d="M29.9997 9.64282C18.7748 9.64282 9.64258 18.7751 9.64258 30C9.64258 41.2249 18.7748 50.3571 29.9997 50.3571C41.2246 50.3571 50.3569 41.2249 50.3569 30C50.3569 18.7751 41.2246 9.64282 29.9997 9.64282ZM29.9997 48.2143C19.9563 48.2143 11.7854 40.0434 11.7854 30C11.7854 19.9565 19.9563 11.7857 29.9997 11.7857C40.0431 11.7857 48.214 19.9565 48.214 30C48.214 40.0434 40.0431 48.2143 29.9997 48.2143Z" fill="white"/>
<path d="M26.25 40.7143H33.75V22.5H26.25V40.7143ZM28.3929 24.6429H31.6071V38.5714H28.3929V24.6429Z" fill="white"/>
<path d="M35.3574 40.7142H42.8574V19.2856H35.3574V40.7142ZM37.5003 21.4285H40.7146V38.5714H37.5003V21.4285Z" fill="white"/>
<path d="M17.1426 40.7144H24.6426V25.7144H17.1426V40.7144ZM19.2854 27.8572H22.4997V38.5715H19.2854V27.8572Z" fill="white"/>
</svg>
