<svg width="60" height="58" viewBox="0 0 60 58" fill="none" xmlns="http://www.w3.org/2000/svg">
<path d="M18.4908 28.2407H10.1203C9.52122 28.2407 9.03613 28.7273 9.03613 29.3271C9.03613 29.9268 9.52122 30.4134 10.1203 30.4134H18.4908C19.0898 30.4134 19.5749 29.9268 19.5749 29.3271C19.5749 28.7273 19.0898 28.2407 18.4908 28.2407Z" fill="white"/>
<path d="M16.322 35.4844H10.1203C9.52122 35.4844 9.03613 35.971 9.03613 36.5707C9.03613 37.1705 9.52122 37.657 10.1203 37.657H16.322C16.9211 37.657 17.4061 37.1705 17.4061 36.5707C17.4061 35.971 16.9211 35.4844 16.322 35.4844Z" fill="white"/>
<path d="M57.9034 47.4378C58.5523 45.9205 58.9532 43.5067 58.9532 41.3286C58.9532 33.1177 52.0047 25.4093 44.9021 22.8365L46.4572 16.9075C46.6569 16.0289 46.2908 15.4821 45.609 15.4821C45.4184 15.4821 45.2026 15.525 44.9676 15.6155L44.0958 15.951V3.31957C44.0958 1.72597 42.7948 0.422363 41.2045 0.422363H2.8913C1.30094 0.422363 0 1.72597 0 3.31957V49.6791C0 51.2727 1.30094 52.5763 2.8913 52.5763H20.291C20.6445 55.3963 23.0452 57.5775 25.9598 57.5775C27.7665 57.5775 29.3745 56.7378 30.4228 55.4306C33.2537 56.7922 36.5717 57.5775 40.1205 57.5775C43.6694 57.5775 46.9873 56.7923 49.8182 55.4306C50.8666 56.7382 52.4746 57.5775 54.2813 57.5775C57.4394 57.5775 60 55.0183 60 51.8588C60 50.0781 59.1841 48.4871 57.9044 47.4381L57.9034 47.4378ZM37.4353 22.2842L36.4122 18.3834L37.3874 18.7594C38.3641 19.1368 39.4129 19.2166 40.1204 19.2166C40.8279 19.2166 41.8763 19.1378 42.8524 18.7604L43.8276 18.3845L42.8045 22.2847C42.7591 22.46 42.743 22.6343 42.741 22.8091H37.4989C37.4968 22.6343 37.4807 22.4595 37.4353 22.2842H37.4353ZM20.4344 50.4038H2.89017C2.49836 50.4038 2.16707 50.0719 2.16707 49.6793V3.31976C2.16707 2.92715 2.49836 2.59518 2.89017 2.59518H41.2033C41.5951 2.59518 41.9264 2.92715 41.9264 3.31976V16.7775C41.4096 16.9513 40.7677 17.0427 40.1192 17.0427C39.4107 17.0427 38.7032 16.9387 38.1657 16.7315L35.2703 15.6153C35.0353 15.5249 34.82 15.4819 34.6289 15.4819C33.9471 15.4819 33.5816 16.0287 33.7807 16.9074L35.3348 22.8363C28.2329 25.4102 21.2862 33.1182 21.2836 41.3271C21.2831 43.5054 21.685 45.9201 22.3335 47.4364C21.4173 48.1882 20.7442 49.223 20.4335 50.4029L20.4344 50.4038ZM54.2799 55.4051C53.1983 55.4051 52.1873 54.9185 51.5071 54.0702C51.085 53.5427 50.4573 53.2582 49.8163 53.2582C49.4996 53.2582 49.1789 53.3279 48.8789 53.4724C46.2493 54.7361 43.2213 55.4051 40.1192 55.4051C37.0171 55.4051 33.9891 54.7366 31.3599 53.4724C31.0594 53.3274 30.7392 53.2582 30.4225 53.2582C29.7811 53.2582 29.1539 53.5437 28.7318 54.0702C28.0515 54.9185 27.041 55.4051 25.959 55.4051C24.0015 55.4051 22.409 53.815 22.409 51.8596C22.409 50.7954 22.883 49.7965 23.71 49.1185C24.4573 48.5051 24.7104 47.4713 24.3297 46.581C23.8063 45.3577 23.4549 43.2462 23.4559 41.3287C23.4574 34.093 29.8301 27.276 35.8276 24.9813H44.4124C50.411 27.2762 56.7847 34.0925 56.7847 41.3287C56.7847 43.2477 56.4343 45.3593 55.9108 46.5815C55.5306 47.4718 55.7828 48.5061 56.5306 49.1195C57.3575 49.7966 57.831 50.795 57.831 51.8581C57.8305 53.8146 56.2375 55.4047 54.2801 55.4047L54.2799 55.4051Z" fill="white"/>
<path d="M43.8961 36.743C43.8961 37.3028 44.3484 37.757 44.9081 37.757C45.4678 37.757 45.9201 37.3028 45.9201 36.743C45.9201 35.0675 44.8461 33.1463 41.9285 32.7033V32.2016C41.9285 31.6018 41.4434 31.1152 40.8443 31.1152C40.2453 31.1152 39.7602 31.6018 39.7602 32.2016V32.6639C37.0277 32.9969 35.7686 34.931 35.7686 36.744C35.7686 39.3785 37.898 40.2016 39.7602 40.6938V45.4554C38.546 45.2235 37.7916 44.4853 37.7916 43.4328C37.7916 42.8729 37.3393 42.4187 36.7796 42.4187C36.2199 42.4187 35.7676 42.8729 35.7676 43.4328C35.7676 45.6191 37.3727 47.2087 39.7592 47.5129V48.0086C39.7592 48.6083 40.2443 49.0949 40.8434 49.0949C41.4424 49.0949 41.9275 48.6083 41.9275 48.0086V47.4785C45.4915 46.9925 45.9191 44.5504 45.9191 43.4337C45.9191 40.6238 43.8406 39.6916 41.9275 39.1571V34.7682C42.8936 34.9739 43.8961 35.4882 43.8961 36.7429V36.743ZM37.7906 36.743C37.7906 36.4322 37.8985 35.0336 39.7592 34.7052V38.5827C38.3861 38.1719 37.7906 37.747 37.7906 36.743V36.743ZM43.8961 43.4329C43.8961 43.9184 43.888 45.0755 41.9275 45.4323V41.2779C43.2794 41.722 43.8961 42.2465 43.8961 43.4329Z" fill="white"/>
<path d="M11.2051 23.5323C12.2025 23.5323 13.0124 22.7223 13.0124 21.7214C13.0124 21.636 12.9987 21.5546 12.9871 21.4723L17.4618 16.9879C17.544 17 17.6252 17.0132 17.7104 17.0132C18.0533 17.0132 18.3705 16.9116 18.6438 16.7459L23.2032 18.5735C23.4119 19.3425 24.1063 19.9105 24.9403 19.9105C25.9377 19.9105 26.7475 19.1005 26.7475 18.0995C26.7475 17.9444 26.7223 17.7969 26.6855 17.6534L30.6706 12.6612C30.6887 12.6617 30.7054 12.6668 30.7235 12.6668C31.7209 12.6668 32.5307 11.8568 32.5307 10.8558C32.5307 9.85639 31.7209 9.04492 30.7235 9.04492C29.7246 9.04492 28.9163 9.85639 28.9163 10.8558C28.9163 11.011 28.9415 11.1585 28.9778 11.302L24.9933 16.2942C24.9751 16.2937 24.9585 16.2886 24.9403 16.2886C24.5969 16.2886 24.2803 16.3902 24.0069 16.5559L19.4476 14.7283C19.2388 13.9598 18.544 13.3913 17.711 13.3913C16.712 13.3913 15.9037 14.2028 15.9037 15.2023C15.9037 15.2876 15.9174 15.369 15.929 15.4514L11.4543 19.9357C11.3721 19.9236 11.2909 19.9104 11.2057 19.9104C10.2067 19.9104 9.39844 20.7219 9.39844 21.7214C9.39793 22.7223 10.2062 23.5323 11.2051 23.5323H11.2051Z" fill="white"/>
</svg>
