<svg width="18" height="18" viewBox="0 0 18 18" fill="none" xmlns="http://www.w3.org/2000/svg">
<path d="M16.8497 11.8795C16.7092 11.6323 16.494 11.4357 16.2352 11.3179C15.9764 11.2 15.6869 11.1669 15.4081 11.2233V6.47783L15.5905 6.62732C15.6604 6.68226 15.7473 6.71095 15.8363 6.70839H15.8667H15.8869C15.967 6.71176 16.046 6.68975 16.1129 6.64549C16.1796 6.60124 16.2306 6.53701 16.2588 6.46198C16.2869 6.38696 16.2906 6.30497 16.2693 6.22774C16.248 6.1505 16.2028 6.08197 16.1403 6.03192L15.2864 5.33771L10.0216 1.08122C9.94295 1.02828 9.85032 1 9.75554 1C9.66076 1 9.56813 1.02828 9.48951 1.08122L3.39613 6.03698C3.31842 6.10087 3.26901 6.19279 3.25857 6.29285C3.24815 6.39291 3.27754 6.49304 3.3404 6.57158C3.38011 6.62071 3.43158 6.65901 3.49005 6.68293C3.54851 6.70685 3.61208 6.7156 3.67484 6.70839C3.76666 6.71229 3.85674 6.68257 3.92819 6.62479L4.11315 6.47531V10.7039C3.59437 10.9332 3.11138 11.2361 2.67912 11.6034L1.20709 12.3634C1.11652 12.4107 1.04823 12.4917 1.01707 12.5889C1.00215 12.6374 0.996936 12.6882 1.00172 12.7387C1.0065 12.7892 1.02119 12.8382 1.04493 12.8828L3.03637 16.6073C3.06003 16.6535 3.0933 16.6941 3.13393 16.7265C3.17457 16.7588 3.22163 16.782 3.27199 16.7948C3.30399 16.8048 3.33729 16.8098 3.3708 16.81C3.44168 16.8098 3.51109 16.7897 3.57096 16.7517L5.0582 15.8294H5.07086H5.0886C5.15014 15.7964 5.2189 15.7791 5.28876 15.7791C5.35861 15.7791 5.42737 15.7964 5.48892 15.8294C7.29032 16.7872 8.39752 17 9.036 17C9.15982 17.0002 9.2835 16.991 9.4059 16.9721C9.75554 16.9291 13.0188 16.6757 16.3809 13.5492L16.6546 13.2756C16.8362 13.0967 16.9538 12.863 16.989 12.6107C17.0244 12.3583 16.9754 12.1013 16.8497 11.8795ZM4.8707 5.85963L9.75554 1.89451L14.6404 5.85963V11.5831L13.8549 12.029C13.2976 12.3407 12.7959 12.6497 12.3348 12.969C12.2587 13.0197 12.1878 13.0729 12.1143 13.1236C12.1393 13.0743 12.1589 13.0225 12.1727 12.969C12.2169 12.8262 12.2169 12.6735 12.1727 12.5307C12.1394 12.4218 12.0839 12.3211 12.0098 12.2347C11.9357 12.1484 11.8445 12.0783 11.7419 12.029V8.68716C11.7414 8.16029 11.5329 7.65494 11.1617 7.281C10.9639 7.08225 10.726 6.92792 10.4639 6.82832C10.2018 6.72871 9.92141 6.6861 9.64152 6.70333C9.12949 6.74566 8.65264 6.98087 8.30741 7.36138C7.96216 7.74189 7.77432 8.23931 7.78184 8.75303V10.6811C6.88284 10.2319 5.84668 10.1414 4.88338 10.4278L4.8707 5.85963ZM10.9818 11.8365H10.8678C8.97518 11.7098 8.62048 11.3576 8.58754 11.3297L8.5318 11.2689V8.75303C8.52587 8.43407 8.6405 8.12459 8.8528 7.88646C9.0651 7.64832 9.35944 7.49906 9.67699 7.46849C9.85049 7.45666 10.0245 7.48197 10.1875 7.54269C10.3504 7.60342 10.4986 7.69818 10.622 7.82066C10.8522 8.0524 10.9814 8.36565 10.9818 8.69223V11.8365ZM3.51522 15.8902L1.9013 12.8575L2.75007 12.4218L4.35891 15.3708L3.51522 15.8902ZM16.1099 12.7435L15.8565 12.9969C15.6454 13.1962 15.4359 13.3803 15.2282 13.5492L15.1217 13.6353C12.127 16.0601 9.37549 16.1893 9.34509 16.1893H9.28681C8.96758 16.2501 7.98961 16.2678 5.84869 15.1302C5.67739 15.0378 5.48593 14.989 5.2913 14.9883C5.21045 14.9892 5.12986 14.9977 5.05059 15.0137L4.2145 13.4555C4.19346 13.4231 4.17483 13.3892 4.15875 13.3541L3.42147 11.9859C3.64189 11.8254 3.87394 11.6814 4.11569 11.5552C4.35911 11.4259 4.61346 11.3182 4.87578 11.2334C5.31389 11.0735 5.78099 11.0084 6.24616 11.0424C6.71133 11.0765 7.16396 11.209 7.57409 11.4311C7.64483 11.4715 7.71182 11.5181 7.77425 11.5704C7.86566 11.6421 7.95045 11.7218 8.0276 11.8086C8.16845 11.9613 8.34155 12.0807 8.53434 12.1583C9.02586 12.3761 9.78341 12.5154 10.8146 12.5865L10.9793 12.6016C11.1433 12.6069 11.3032 12.6549 11.4429 12.7409C11.4143 12.8294 11.3595 12.9072 11.2859 12.9639C11.2554 12.9945 11.2233 13.0231 11.1896 13.0501C11.1239 13.1042 11.0535 13.1526 10.9793 13.1945C10.207 13.6187 9.30915 13.7552 8.44566 13.5796C8.25477 13.5425 8.06679 13.4917 7.8832 13.4276C7.84902 13.4155 7.81301 13.4095 7.77678 13.4098C7.70587 13.4053 7.63511 13.4209 7.57276 13.455C7.51041 13.4891 7.45902 13.5402 7.4246 13.6023C7.40318 13.6401 7.3886 13.6812 7.38154 13.7241C7.37104 13.7906 7.37814 13.859 7.40214 13.9221C7.42613 13.9852 7.46619 14.041 7.51835 14.0838C7.57798 14.1221 7.64172 14.1535 7.70837 14.1775C7.95282 14.2699 8.20839 14.3295 8.46846 14.3548C11.2048 14.5931 12.4868 13.7671 12.4868 13.7671L12.5552 13.7241L13.7739 12.9639L14.2198 12.6852L14.6327 12.4522L15.2839 12.0873L15.3194 12.067C15.3423 12.0495 15.3669 12.0342 15.3929 12.0214C15.5263 11.9533 15.6806 11.9384 15.8245 11.9798C15.9685 12.0212 16.0913 12.1158 16.1681 12.2444C16.2108 12.3234 16.2281 12.4138 16.2176 12.5031C16.2073 12.5924 16.1696 12.6763 16.1099 12.7435Z" fill="#4461D7"/>
<path d="M16.8497 11.8795C16.7092 11.6323 16.494 11.4357 16.2352 11.3179C15.9764 11.2 15.6869 11.1669 15.4081 11.2233V6.47783L15.5905 6.62732C15.6604 6.68226 15.7473 6.71095 15.8363 6.70839H15.8667H15.8869C15.967 6.71176 16.046 6.68975 16.1129 6.64549C16.1796 6.60124 16.2306 6.53701 16.2588 6.46198C16.2869 6.38696 16.2906 6.30497 16.2693 6.22774C16.248 6.1505 16.2028 6.08197 16.1403 6.03192L15.2864 5.33771L10.0216 1.08122C9.94295 1.02828 9.85032 1 9.75554 1C9.66076 1 9.56813 1.02828 9.48951 1.08122L3.39613 6.03698C3.31842 6.10087 3.26901 6.19279 3.25857 6.29285C3.24815 6.39291 3.27754 6.49304 3.3404 6.57158C3.38011 6.62071 3.43158 6.65901 3.49005 6.68293C3.54851 6.70685 3.61208 6.7156 3.67484 6.70839C3.76666 6.71229 3.85674 6.68257 3.92819 6.62479L4.11315 6.47531V10.7039C3.59437 10.9332 3.11138 11.2361 2.67912 11.6034L1.20709 12.3634C1.11652 12.4107 1.04823 12.4917 1.01707 12.5889C1.00215 12.6374 0.996936 12.6882 1.00172 12.7387C1.0065 12.7892 1.02119 12.8382 1.04493 12.8828L3.03637 16.6073C3.06003 16.6535 3.0933 16.6941 3.13393 16.7265C3.17457 16.7588 3.22163 16.782 3.27199 16.7948C3.30399 16.8048 3.33729 16.8098 3.3708 16.81C3.44168 16.8098 3.51109 16.7897 3.57096 16.7517L5.0582 15.8294H5.07086H5.0886C5.15014 15.7964 5.2189 15.7791 5.28876 15.7791C5.35861 15.7791 5.42737 15.7964 5.48892 15.8294C7.29032 16.7872 8.39752 17 9.036 17C9.15982 17.0002 9.2835 16.991 9.4059 16.9721C9.75554 16.9291 13.0188 16.6757 16.3809 13.5492L16.6546 13.2756C16.8362 13.0967 16.9538 12.863 16.989 12.6107C17.0244 12.3583 16.9754 12.1013 16.8497 11.8795ZM4.8707 5.85963L9.75554 1.89451L14.6404 5.85963V11.5831L13.8549 12.029C13.2976 12.3407 12.7959 12.6497 12.3348 12.969C12.2587 13.0197 12.1878 13.0729 12.1143 13.1236C12.1393 13.0743 12.1589 13.0225 12.1727 12.969C12.2169 12.8262 12.2169 12.6735 12.1727 12.5307C12.1394 12.4218 12.0839 12.3211 12.0098 12.2347C11.9357 12.1484 11.8445 12.0783 11.7419 12.029V8.68716C11.7414 8.16029 11.5329 7.65494 11.1617 7.281C10.9639 7.08225 10.726 6.92792 10.4639 6.82832C10.2018 6.72871 9.92141 6.6861 9.64152 6.70333C9.12949 6.74566 8.65264 6.98087 8.30741 7.36138C7.96216 7.74189 7.77432 8.23931 7.78184 8.75303V10.6811C6.88284 10.2319 5.84668 10.1414 4.88338 10.4278L4.8707 5.85963ZM10.9818 11.8365H10.8678C8.97518 11.7098 8.62048 11.3576 8.58754 11.3297L8.5318 11.2689V8.75303C8.52587 8.43407 8.6405 8.12459 8.8528 7.88646C9.0651 7.64832 9.35944 7.49906 9.67699 7.46849C9.85049 7.45666 10.0245 7.48197 10.1875 7.54269C10.3504 7.60342 10.4986 7.69818 10.622 7.82066C10.8522 8.0524 10.9814 8.36565 10.9818 8.69223V11.8365ZM3.51522 15.8902L1.9013 12.8575L2.75007 12.4218L4.35891 15.3708L3.51522 15.8902ZM16.1099 12.7435L15.8565 12.9969C15.6454 13.1962 15.4359 13.3803 15.2282 13.5492L15.1217 13.6353C12.127 16.0601 9.37549 16.1893 9.34509 16.1893H9.28681C8.96758 16.2501 7.98961 16.2678 5.84869 15.1302C5.67739 15.0378 5.48593 14.989 5.2913 14.9883C5.21045 14.9892 5.12986 14.9977 5.05059 15.0137L4.2145 13.4555C4.19346 13.4231 4.17483 13.3892 4.15875 13.3541L3.42147 11.9859C3.64189 11.8254 3.87394 11.6814 4.11569 11.5552C4.35911 11.4259 4.61346 11.3182 4.87578 11.2334C5.31389 11.0735 5.78099 11.0084 6.24616 11.0424C6.71133 11.0765 7.16396 11.209 7.57409 11.4311C7.64483 11.4715 7.71182 11.5181 7.77425 11.5704C7.86566 11.6421 7.95045 11.7218 8.0276 11.8086C8.16845 11.9613 8.34155 12.0807 8.53434 12.1583C9.02585 12.3761 9.78341 12.5154 10.8146 12.5865L10.9793 12.6016C11.1433 12.6069 11.3032 12.6549 11.4429 12.7409C11.4143 12.8294 11.3595 12.9072 11.2859 12.9639C11.2554 12.9945 11.2233 13.0231 11.1896 13.0501C11.1239 13.1042 11.0535 13.1526 10.9793 13.1945C10.207 13.6187 9.30915 13.7552 8.44566 13.5796C8.25477 13.5425 8.06679 13.4917 7.8832 13.4276C7.84902 13.4155 7.81301 13.4095 7.77678 13.4098C7.70587 13.4053 7.63511 13.4209 7.57276 13.455C7.51041 13.4891 7.45902 13.5402 7.4246 13.6023C7.40318 13.6401 7.3886 13.6812 7.38154 13.7241C7.37104 13.7906 7.37814 13.859 7.40214 13.9221C7.42613 13.9852 7.46619 14.041 7.51835 14.0838C7.57798 14.1221 7.64172 14.1535 7.70837 14.1775C7.95282 14.2699 8.20839 14.3295 8.46846 14.3548C11.2048 14.5931 12.4868 13.7671 12.4868 13.7671L12.5552 13.7241L13.7739 12.9639L14.2198 12.6852L14.6327 12.4522L15.2839 12.0873L15.3194 12.067C15.3423 12.0495 15.3669 12.0342 15.3929 12.0214C15.5263 11.9533 15.6806 11.9384 15.8245 11.9798C15.9685 12.0212 16.0913 12.1158 16.1681 12.2444C16.2108 12.3234 16.2281 12.4138 16.2176 12.5031C16.2073 12.5924 16.1696 12.6763 16.1099 12.7435Z" stroke="#4461D7" stroke-width="0.2"/>
</svg>
