<svg width="16" height="16" viewBox="0 0 16 16" fill="none" xmlns="http://www.w3.org/2000/svg">
<path d="M4.73029 10.936C4.84565 11.0513 5.0187 11.109 5.16289 11.109C5.33594 11.109 5.48014 11.0513 5.5955 10.936C5.85505 10.6764 5.85505 10.3015 5.5955 10.0419L3.77856 8.22499L5.5955 6.40806C5.85505 6.14849 5.85505 5.77357 5.5955 5.514C5.33594 5.25445 4.96101 5.25445 4.70145 5.514L2.48074 7.79239C2.22118 8.05196 2.22118 8.42688 2.48074 8.68645L4.73029 10.936Z" fill="#4461D7"/>
<path d="M10.1802 10.9363C10.2956 11.0516 10.4686 11.1093 10.6128 11.1093C10.7859 11.1093 10.9301 11.0516 11.0454 10.9363L13.3238 8.65788C13.5834 8.39832 13.5834 8.02339 13.3238 7.76384L11.0454 5.48545C10.7859 5.22588 10.411 5.22588 10.1514 5.48545C9.89184 5.74501 9.89184 6.11993 10.1514 6.37949L11.9683 8.19644L10.1514 10.0134C9.92067 10.3018 9.92067 10.7055 10.1802 10.9363Z" fill="#4461D7"/>
<path d="M7.00785 12.1765C7.06554 12.1765 7.09438 12.2054 7.15206 12.2054C7.44047 12.2054 7.70002 12.0035 7.75771 11.7151L9.2574 5.34136C9.34392 4.99528 9.14204 4.67804 8.79596 4.59152C8.44987 4.50499 8.13263 4.70688 8.04612 5.05297L6.54641 11.4267C6.45989 11.7439 6.66177 12.09 7.00785 12.1765Z" fill="#4461D7"/>
<path fill-rule="evenodd" clip-rule="evenodd" d="M0 1.14286C0 0.511675 0.511675 0 1.14286 0H14.8571C15.4884 0 16 0.511675 16 1.14286V14.8571C16 15.4884 15.4884 16 14.8571 16H1.14286C0.511675 16 0 15.4884 0 14.8571V1.14286ZM1.14286 1.14286V14.8571H14.8571V1.14286H1.14286Z" fill="#4461D7"/>
</svg>
