<svg width="86" height="86" viewBox="0 0 86 86" fill="none" xmlns="http://www.w3.org/2000/svg">
<g opacity="0.85">
<path d="M67.1337 23.3784H19.3504C9.85109 23.3784 2.15039 31.0791 2.15039 40.5784V49.0339C2.15039 58.5332 9.85109 66.2339 19.3504 66.2339H67.1337C76.633 66.2339 84.3337 58.5332 84.3337 49.0339V40.5784C84.3337 31.0791 76.633 23.3784 67.1337 23.3784Z" fill="#FFECEC"/>
<path d="M28.6715 47.8522C28.6715 48.712 27.9725 49.4089 27.1106 49.4089C26.2484 49.4089 25.5498 48.712 25.5498 47.8522C25.5498 46.9928 26.2484 46.2959 27.1106 46.2959C27.9725 46.2959 28.6715 46.9928 28.6715 47.8522Z" fill="#FD8B8B"/>
<path d="M51.4078 43.1739C51.4078 44.0337 50.7092 44.7306 49.847 44.7306C48.9851 44.7306 48.2861 44.0337 48.2861 43.1739C48.2861 42.3141 48.9851 41.6172 49.847 41.6172C50.7092 41.6172 51.4078 42.3141 51.4078 43.1739Z" fill="#FD8B8B"/>
<path d="M40.483 32.3258C40.483 33.1852 39.784 33.8821 38.9222 33.8821C38.0603 33.8821 37.3613 33.1851 37.3613 32.3258C37.3613 31.466 38.0603 30.769 38.9222 30.769C39.784 30.769 40.483 31.466 40.483 32.3258Z" fill="#FD8B8B"/>
<path d="M61.2223 26.4615C61.2223 27.3213 60.5237 28.0182 59.6614 28.0182C58.7995 28.0182 58.1006 27.3213 58.1006 26.4615C58.1006 25.6017 58.7996 24.9048 59.6614 24.9048C60.5237 24.9048 61.2223 25.6017 61.2223 26.4615Z" fill="#FD8B8B"/>
<path d="M71.9255 16H14.8456C14.2835 16 13.8262 16.4553 13.8262 17.0153V57.4755C13.8262 58.0347 14.2835 58.4904 14.8456 58.4904H71.9255C72.4876 58.4904 72.9449 58.0351 72.9449 57.4755V17.0153C72.9449 16.4553 72.4876 16 71.9255 16V16ZM69.0488 53.8221C69.0488 54.3829 68.5927 54.837 68.0294 54.837L18.7415 54.8374C18.1786 54.8374 17.7221 54.3829 17.7221 53.8225V20.1176C17.7221 19.5568 18.1781 19.1027 18.7415 19.1027H68.0294C68.5922 19.1027 69.0488 19.5572 69.0488 20.1176V53.8221Z" fill="#FD8B8B"/>
<path d="M19.7598 52.8067H67.0091L67.0096 21.1318H19.7602L19.7598 52.8067ZM27.1079 44.2664C27.4559 44.2664 27.7912 44.3183 28.1095 44.4107L35.8453 34.1816C35.5137 33.6389 35.3199 33.0051 35.3199 32.3251C35.3199 30.3481 36.9348 28.739 38.9196 28.739C40.9044 28.739 42.5193 30.3481 42.5193 32.3251C42.5193 32.9552 42.3539 33.5478 42.0661 34.0633L48.0117 40.0935C48.7866 39.6337 49.7169 39.4803 50.5977 39.6679L56.9533 28.8186C56.3994 28.1877 56.0605 27.3646 56.0605 26.4623C56.0605 24.4846 57.6754 22.8754 59.6602 22.8754C61.645 22.8754 63.2598 24.4845 63.2598 26.4623C63.2598 28.4393 61.645 30.0484 59.6602 30.0484C59.3183 30.0484 58.9884 29.9972 58.675 29.9082L52.3895 40.6392C53.0419 41.2887 53.4456 42.1853 53.4456 43.1741C53.4456 45.1519 51.8308 46.761 49.846 46.761C47.8612 46.761 46.2463 45.152 46.2463 43.1741C46.2463 42.6026 46.3844 42.0636 46.6244 41.5841L40.614 35.4887C39.609 36.0252 38.386 36.0475 37.3608 35.5535L29.8287 45.5124C30.3747 46.1413 30.7074 46.959 30.7074 47.8539C30.7074 49.8309 29.0926 51.44 27.1078 51.44C25.123 51.44 23.5081 49.8309 23.5081 47.8539C23.5081 45.8762 25.123 44.267 27.1078 44.267L27.1079 44.2664Z" fill="#FD8B8B"/>
</g>
</svg>
