<svg width="53" height="60" viewBox="0 0 53 60" fill="none" xmlns="http://www.w3.org/2000/svg">
<path d="M27.7487 44.6702H8.2642C7.7784 44.6702 7.38477 44.2765 7.38477 43.7908C7.38477 43.3051 7.7784 42.9114 8.2642 42.9114H27.7487C28.2345 42.9114 28.6281 43.3051 28.6281 43.7908C28.6281 44.2765 28.2345 44.6702 27.7487 44.6702Z" fill="white"/>
<path d="M36.7457 30.7113H8.2642C7.7784 30.7113 7.38477 30.3175 7.38477 29.8318C7.38477 29.3461 7.7784 28.9524 8.2642 28.9524H36.7457C37.2315 28.9524 37.6252 29.3461 37.6252 29.8318C37.6252 30.3175 37.2314 30.7113 36.7457 30.7113Z" fill="white"/>
<path d="M36.7457 37.6908H8.2642C7.7784 37.6908 7.38477 37.297 7.38477 36.8113C7.38477 36.3256 7.7784 35.9319 8.2642 35.9319H36.7457C37.2315 35.9319 37.6252 36.3256 37.6252 36.8113C37.6252 37.297 37.2314 37.6908 36.7457 37.6908Z" fill="white"/>
<path d="M22.5049 14.2813H8.2642C7.7784 14.2813 7.38477 13.8876 7.38477 13.4019C7.38477 12.9162 7.7784 12.5225 8.2642 12.5225H22.5049C22.9907 12.5225 23.3843 12.9162 23.3843 13.4019C23.3843 13.8876 22.9907 14.2813 22.5049 14.2813Z" fill="white"/>
<path d="M36.7457 23.7318H8.2642C7.7784 23.7318 7.38477 23.338 7.38477 22.8523C7.38477 22.3667 7.7784 21.9729 8.2642 21.9729H36.7457C37.2315 21.9729 37.6252 22.3667 37.6252 22.8523C37.6252 23.338 37.2314 23.7318 36.7457 23.7318Z" fill="white"/>
<path d="M40.6639 53.4562C40.6552 53.4562 40.6465 53.456 40.6377 53.4558C40.3631 53.4477 40.1082 53.3117 39.9485 53.0883L37.171 49.2044C36.8885 48.8092 36.9797 48.26 37.3748 47.9775C37.7695 47.6953 38.3192 47.7861 38.6016 48.1813L40.7069 51.1253L46.1942 44.3439C46.4996 43.9663 47.0533 43.9078 47.4311 44.2134C47.8087 44.5188 47.867 45.0727 47.5615 45.4502L41.3474 53.1299C41.1803 53.3367 40.9287 53.4562 40.6639 53.4562V53.4562Z" fill="white"/>
<path d="M30.1041 8.28044H14.9049C13.4599 8.28044 12.2842 7.10493 12.2842 5.65983V2.62049C12.2842 1.17552 13.4599 0 14.9049 0H30.1041C31.5491 0 32.7247 1.17552 32.7247 2.62061V5.65995C32.7247 7.10493 31.5491 8.28044 30.1041 8.28044ZM14.9049 1.75888C14.4297 1.75888 14.0431 2.14536 14.0431 2.62061V5.65995C14.0431 6.13508 14.4297 6.52168 14.9049 6.52168H30.1041C30.5792 6.52168 30.9658 6.1352 30.9658 5.65995V2.62061C30.9658 2.14548 30.5792 1.75888 30.1041 1.75888H14.9049Z" fill="white"/>
<path d="M44.1301 35.3784C43.6443 35.3784 43.2507 34.9847 43.2507 34.499V7.06858C43.2507 5.93868 42.3314 5.01937 41.2015 5.01937H35.9371C35.4513 5.01937 35.0576 4.62562 35.0576 4.13994C35.0576 3.65425 35.4513 3.2605 35.9371 3.2605H41.2015C43.3012 3.2605 45.0096 4.96872 45.0096 7.06858V34.499C45.0096 34.9847 44.6159 35.3784 44.1301 35.3784Z" fill="white"/>
<path d="M33.6309 59.9998H3.80809C1.70834 59.9998 0 58.2915 0 56.1917V7.06858C0 4.96884 1.70822 3.2605 3.80809 3.2605H9.07252C9.55833 3.2605 9.95196 3.65425 9.95196 4.13994C9.95196 4.62562 9.55833 5.01938 9.07252 5.01938H3.80809C2.67818 5.01938 1.75888 5.93856 1.75888 7.06858V56.1918C1.75888 57.3217 2.67818 58.241 3.80809 58.241H33.6309C34.1167 58.241 34.5104 58.6348 34.5104 59.1204C34.5104 59.6061 34.1167 59.9998 33.6309 59.9998Z" fill="white"/>
<path d="M41.5312 59.9999C35.2962 59.9999 30.2236 54.9275 30.2236 48.6925C30.2236 42.4575 35.2962 37.385 41.5312 37.385C47.7662 37.385 52.8387 42.4575 52.8387 48.6925C52.8387 54.9275 47.7662 59.9999 41.5312 59.9999ZM41.5312 39.1439C36.2661 39.1439 31.9825 43.4273 31.9825 48.6925C31.9825 53.9576 36.266 58.2411 41.5312 58.2411C46.7963 58.2411 51.0798 53.9576 51.0798 48.6925C51.0798 43.4273 46.7964 39.1439 41.5312 39.1439Z" fill="white"/>
</svg>
