<svg width="56" height="60" viewBox="0 0 56 60" fill="none" xmlns="http://www.w3.org/2000/svg">
<path d="M51 6H47V8H51C52.6567 8 54 9.34326 54 11V38H2V11C2 9.34326 3.34326 8 5 8H9V6H5C2.23975 6.00342 0.00341798 8.23975 0 11V43C0.00341798 45.7603 2.23975 47.9966 5 48H19.8672L19.1172 54H18C17.4478 54 17 54.4478 17 55V58H13V60H43V58H39V55C39 54.4478 38.5522 54 38 54H36.8828L36.1328 48H51C53.7603 47.9966 55.9966 45.7603 56 43V11C55.9966 8.23975 53.7603 6.00342 51 6ZM37 58H19V56H37V58ZM34.8672 54H21.1328L21.8828 48H34.1172L34.8672 54ZM51 46H5C3.34326 46 2 44.6567 2 43V40H54V43C54 44.6567 52.6567 46 51 46Z" fill="white"/>
<path d="M50 42H52V44H50V42Z" fill="white"/>
<path d="M14 33H42C43.6567 33 45 31.6567 45 30V6C45 4.34326 43.6567 3 42 3H38C38 1.34326 36.6567 0 35 0C33.3433 0 32 1.34326 32 3H24C24 1.34326 22.6567 0 21 0C19.3433 0 18 1.34326 18 3H14C12.3433 3 11 4.34326 11 6V30C11 31.6567 12.3433 33 14 33ZM42 31H14C13.4478 31 13 30.5522 13 30V11H43V30C43 30.5522 42.5522 31 42 31ZM34 3C34 2.44775 34.4478 2 35 2C35.5522 2 36 2.44775 36 3V5C36 5.55225 35.5522 6 35 6C34.4478 6 34 5.55225 34 5V3ZM20 3C20 2.44775 20.4478 2 21 2C21.5522 2 22 2.44775 22 3V5C22 5.55225 21.5522 6 21 6C20.4478 6 20 5.55225 20 5V3ZM14 5H18C18 6.65674 19.3433 8 21 8C22.6567 8 24 6.65674 24 5H32C32 6.65674 33.3433 8 35 8C36.6567 8 38 6.65674 38 5H42C42.5522 5 43 5.44775 43 6V9H13V6C13 5.44775 13.4478 5 14 5Z" fill="white"/>
<path d="M21 14H19C17.8955 14 17 14.8955 17 16V18C17 19.1045 17.8955 20 19 20H21C22.1045 20 23 19.1045 23 18V16C23 14.8955 22.1045 14 21 14ZM19 18V16H21V18H19Z" fill="white"/>
<path d="M29 14H27C25.8955 14 25 14.8955 25 16V18C25 19.1045 25.8955 20 27 20H29C30.1045 20 31 19.1045 31 18V16C31 14.8955 30.1045 14 29 14ZM27 18V16H29V18H27Z" fill="white"/>
<path d="M37 14H35C33.8955 14 33 14.8955 33 16V18C33 19.1045 33.8955 20 35 20H37C38.1045 20 39 19.1045 39 18V16C39 14.8955 38.1045 14 37 14ZM35 18V16H37V18H35Z" fill="white"/>
<path d="M29 22H27C25.8955 22 25 22.8955 25 24V26C25 27.1045 25.8955 28 27 28H29C30.1045 28 31 27.1045 31 26V24C31 22.8955 30.1045 22 29 22ZM27 26V24H29V26H27Z" fill="white"/>
<path d="M21 22H19C17.8955 22 17 22.8955 17 24V26C17 27.1045 17.8955 28 19 28H21C22.1045 28 23 27.1045 23 26V24C23 22.8955 22.1045 22 21 22ZM19 26V24H21V26H19Z" fill="white"/>
<path d="M37 22H35C33.8955 22 33 22.8955 33 24V26C33 27.1045 33.8955 28 35 28H37C38.1045 28 39 27.1045 39 26V24C39 22.8955 38.1045 22 37 22ZM35 26V24H37V26H35Z" fill="white"/>
</svg>
