<svg width="60" height="60" viewBox="0 0 60 60" fill="none" xmlns="http://www.w3.org/2000/svg">
<path d="M24.3761 37.0742C35.1761 37.0742 41.7109 29.7696 42.9108 28.2996C43.1901 27.956 43.1901 27.4636 42.9108 27.1196C41.711 25.6495 35.1765 18.3455 24.3761 18.3455C13.5756 18.3455 7.0423 25.6495 5.84127 27.1196C5.56203 27.4637 5.56203 27.956 5.84127 28.2996C7.04153 29.7696 13.5756 37.0742 24.3761 37.0742ZM16.8761 27.7098C16.8761 25.7227 17.6663 23.8171 19.0729 22.4121C20.4795 21.0075 22.3872 20.2182 24.3761 20.2182C26.3653 20.2182 28.2731 21.0075 29.6796 22.4121C31.0858 23.8171 31.876 25.7227 31.876 27.7098C31.876 29.6964 31.0858 31.602 29.6796 33.0069C28.2731 34.4119 26.3653 35.2013 24.3761 35.2013C22.3872 35.2013 20.4795 34.412 19.0729 33.0069C17.6664 31.602 16.8761 29.6964 16.8761 27.7098ZM40.9508 27.7098C38.2909 30.6004 34.9533 32.7853 31.2385 34.0679C32.8531 32.3438 33.7517 30.0709 33.7517 27.7098C33.7517 25.3486 32.8531 23.0757 31.2385 21.3512C34.9533 22.6342 38.2909 24.8191 40.9508 27.7098ZM17.5136 21.3512C15.899 23.0757 15.0008 25.3486 15.0008 27.7098C15.0008 30.0709 15.899 32.3438 17.5136 34.0679C13.7988 32.7853 10.4612 30.6004 7.80126 27.7098C10.4612 24.8191 13.7988 22.6342 17.5136 21.3512Z" fill="white"/>
<path d="M24.3757 23.0278C23.1327 23.0278 21.9402 23.521 21.0614 24.3992C20.1823 25.2774 19.6885 26.4682 19.6885 27.7103C19.6885 28.9519 20.1822 30.1431 21.0614 31.0208C21.9402 31.899 23.1327 32.3922 24.3757 32.3922C25.6192 32.3922 26.8112 31.899 27.6904 31.0208C28.5696 30.1431 29.0634 28.9519 29.0634 27.7103C29.0634 26.4682 28.5696 25.2774 27.6904 24.3992C26.8112 23.5211 25.6192 23.0278 24.3757 23.0278ZM24.3757 30.5194C23.6299 30.5194 22.9147 30.2237 22.3873 29.6968C21.8595 29.1696 21.5634 28.4552 21.5634 27.7102C21.5634 26.9653 21.8595 26.2504 22.3873 25.7236C22.9147 25.1968 23.6299 24.9006 24.3757 24.9006C25.1219 24.9006 25.8372 25.1968 26.3645 25.7236C26.8919 26.2505 27.1885 26.9653 27.1885 27.7102C27.1885 28.4552 26.8919 29.1696 26.3645 29.6968C25.8371 30.2237 25.122 30.5194 24.3757 30.5194Z" fill="white"/>
<path d="M45.9378 8.98048H36.5629V7.10766C36.5629 6.85934 36.464 6.62136 36.2884 6.44546C36.1123 6.27 35.874 6.17127 35.6254 6.17127H32.8127V3.3621C32.8127 2.61669 32.5166 1.90228 31.9892 1.3755C31.4617 0.848671 30.7461 0.55249 30.0003 0.55249H18.7502C18.0039 0.55249 17.2887 0.848671 16.7614 1.3755C16.2339 1.90232 15.9374 2.61668 15.9374 3.3621V6.17127H13.1251C12.6072 6.17127 12.1877 6.59032 12.1877 7.10766V8.98048H2.81232C2.0665 8.98048 1.3513 9.27666 0.823927 9.80348C0.296512 10.3303 0 11.0447 0 11.7901V56.7392C0 57.4842 0.296512 58.1986 0.823927 58.7253C1.35134 59.2522 2.0665 59.5484 2.81232 59.5484H45.9368C46.6826 59.5484 47.3982 59.2522 47.9256 58.7253C48.453 58.1985 48.7491 57.4842 48.7491 56.7392V11.7901C48.7491 11.0447 48.453 10.3303 47.9256 9.80348C47.3982 9.27666 46.6826 8.98048 45.9368 8.98048H45.9378ZM17.8124 3.36214C17.8124 2.8448 18.2323 2.42532 18.7503 2.42532H30.0004C30.249 2.42532 30.4877 2.52404 30.6634 2.69994C30.839 2.8754 30.9379 3.11382 30.9379 3.36214V6.17131H17.8127L17.8124 3.36214ZM14.0626 8.04457L34.6878 8.04414V11.7898L14.0626 11.7902V8.04457ZM46.875 56.7395C46.875 56.9878 46.7761 57.2258 46.6004 57.4013C46.4248 57.5772 46.1861 57.6759 45.9375 57.6759H2.81303C2.29554 57.6759 1.87559 57.2564 1.87559 56.7395V11.7904C1.87559 11.2731 2.29554 10.854 2.81303 10.854H12.1884V12.7268C12.1884 12.9752 12.2872 13.2131 12.4629 13.389C12.6385 13.5645 12.8772 13.6632 13.1258 13.6632H35.6261C35.8747 13.6632 36.113 13.5645 36.2891 13.389C36.4647 13.2131 36.5636 12.9752 36.5636 12.7268V10.854H45.9385C46.1871 10.854 46.4258 10.9523 46.6014 11.1282C46.7771 11.3037 46.8759 11.5421 46.8759 11.7904L46.875 56.7395Z" fill="white"/>
<path d="M56.25 16.4719C55.2556 16.4719 54.3017 16.8668 53.5987 17.5691C52.8952 18.2719 52.5003 19.2242 52.5003 20.2179V49.2477C52.4869 49.3374 52.4869 49.4292 52.5003 49.5189L55.3126 58.8833V58.8837C55.4295 59.2829 55.796 59.558 56.2129 59.558C56.6294 59.558 56.9958 59.2829 57.1128 58.8837L59.9251 49.5193V49.5189C59.9635 49.4327 59.989 49.3413 60.0002 49.2477V20.2179C60.0002 19.2242 59.6049 18.2718 58.9018 17.5691C58.1987 16.8668 57.2449 16.4719 56.25 16.4719H56.25ZM56.25 18.3447V18.3452C56.7477 18.3452 57.2246 18.5422 57.5759 18.8936C57.9277 19.2449 58.1254 19.7213 58.1254 20.218V23.0271H54.3752V20.218C54.3752 19.7213 54.5729 19.2449 54.9246 18.8936C55.276 18.5422 55.7529 18.3452 56.2501 18.3452L56.25 18.3447ZM54.3751 48.3115V24.9005H58.1249L58.1254 48.3115H54.3751ZM56.25 55.3535L54.6941 50.1848H57.8064L56.25 55.3535Z" fill="white"/>
<path d="M15.0008 42.6929H5.62592C5.108 42.6929 4.68848 43.112 4.68848 43.6293V52.9938C4.68848 53.2421 4.78731 53.4805 4.96298 53.656C5.13864 53.8314 5.37732 53.9302 5.62592 53.9302H15.0008C15.2494 53.9302 15.4881 53.8314 15.6638 53.656C15.8394 53.4805 15.9383 53.2421 15.9383 52.9938V49.2481C15.9383 48.7308 15.5187 48.3113 15.0008 48.3113C14.4829 48.3113 14.0634 48.7308 14.0634 49.2481V52.0573H6.56339V44.5657H15.0008C15.5187 44.5657 15.9382 44.1462 15.9382 43.6293C15.9382 43.1119 15.5187 42.6929 15.0008 42.6929L15.0008 42.6929Z" fill="white"/>
<path d="M14.5043 45.5019L9.91986 48.3676L9.08557 47.1126C8.79553 46.6755 8.20597 46.556 7.7683 46.8457C7.33064 47.1354 7.2111 47.7244 7.50113 48.1615L8.86072 50.1843C9.03509 50.4486 9.33117 50.6072 9.64797 50.6055C9.82362 50.606 9.99584 50.5577 10.1447 50.465L15.4979 47.1221C15.9459 46.8479 16.0866 46.2629 15.8121 45.8158C15.5376 45.3683 14.9524 45.2278 14.5044 45.5019L14.5043 45.5019Z" fill="white"/>
<path d="M43.1257 42.6929H18.7504C18.2325 42.6929 17.8125 43.1119 17.8125 43.6293C17.8125 44.1462 18.2325 44.5657 18.7504 44.5657H43.1257C43.6432 44.5657 44.0631 44.1462 44.0631 43.6293C44.0631 43.1119 43.6432 42.6929 43.1257 42.6929Z" fill="white"/>
<path d="M43.1257 47.3745H18.7504C18.2325 47.3745 17.8125 47.794 17.8125 48.3109C17.8125 48.8282 18.2325 49.2477 18.7504 49.2477H43.1257C43.6432 49.2477 44.0631 48.8282 44.0631 48.3109C44.0631 47.794 43.6432 47.3745 43.1257 47.3745Z" fill="white"/>
<path d="M43.1257 52.0576H18.7504C18.2325 52.0576 17.8125 52.4767 17.8125 52.994C17.8125 53.5113 18.2325 53.9304 18.7504 53.9304H43.1257C43.6432 53.9304 44.0631 53.5113 44.0631 52.994C44.0631 52.4767 43.6432 52.0576 43.1257 52.0576Z" fill="white"/>
</svg>
