<svg width="18" height="16" viewBox="0 0 18 16" fill="none" xmlns="http://www.w3.org/2000/svg">
<g clip-path="url(#clip0)">
<path d="M17.3015 15.354L14.8917 9.44422C14.8188 9.27321 14.6544 9.15918 14.4719 9.15918H10.0176V10.0903H14.1799L16.2061 15.0499H1.12717L3.15352 10.0903H7.31576V9.15918H2.84319C2.66063 9.15918 2.49633 9.27321 2.42331 9.44422L0.0318436 15.354C-0.0229228 15.4869 -0.00466729 15.658 0.0683544 15.7911C0.141376 15.924 0.28742 16 0.451719 16H16.8816C17.0276 16 17.1737 15.924 17.2649 15.7911C17.338 15.658 17.3563 15.4869 17.3015 15.354Z" fill="#4461D7"/>
<path d="M4.59571 6.51781H8.21028V12.1805C8.21028 12.4466 8.41109 12.6556 8.66667 12.6556C8.92225 12.6556 9.12305 12.4466 9.12305 12.1805V6.51781H12.7376C12.9932 6.51781 13.194 6.30879 13.194 6.04276V0.475059C13.194 0.209027 12.9932 0 12.7376 0H4.59571C4.34013 0 4.13932 0.209027 4.13932 0.475059V6.04276C4.13932 6.30879 4.34013 6.51781 4.59571 6.51781ZM5.03384 0.950119H12.2813V5.58669H5.03384V0.950119Z" fill="#4461D7"/>
<path d="M6.45769 2.79363H10.8573C11.1128 2.79363 11.3136 2.5846 11.3136 2.31856C11.3136 2.05253 11.1128 1.84351 10.8573 1.84351H6.45769C6.20211 1.84351 6.00131 2.05253 6.00131 2.31856C6.01956 2.5846 6.22037 2.79363 6.45769 2.79363Z" fill="#4461D7"/>
<path d="M11.3136 4.18039C11.3136 3.91435 11.1128 3.70532 10.8573 3.70532H6.45769C6.20211 3.70532 6.00131 3.91435 6.00131 4.18039C6.00131 4.44642 6.20211 4.65544 6.45769 4.65544H10.8573C11.1128 4.65544 11.3136 4.44642 11.3136 4.18039Z" fill="#4461D7"/>
</g>
<defs>
<clipPath id="clip0">
<rect width="17.3333" height="16" fill="white"/>
</clipPath>
</defs>
</svg>
