<svg width="45" height="46" viewBox="0 0 45 46" fill="none" xmlns="http://www.w3.org/2000/svg">
<rect width="45" height="45.0619" rx="10" fill="#F9F9F9"/>
<path d="M23.4791 26.4555C24.7133 26.4555 25.8263 26.1645 26.818 25.5827C27.8098 25.0009 28.5922 24.2339 29.1652 23.2818C28.3938 22.6683 27.5233 22.1975 26.5536 21.8696C25.5839 21.5416 24.559 21.3777 23.4791 21.3777C22.3992 21.3777 21.3744 21.5416 20.4047 21.8696C19.435 22.1975 18.5644 22.6683 17.7931 23.2818C18.3661 24.2339 19.1485 25.0009 20.1402 25.5827C21.132 26.1645 22.2449 26.4555 23.4791 26.4555ZM23.4791 20.1082C24.2064 20.1082 24.829 19.8596 25.3469 19.3624C25.8649 18.8652 26.1238 18.2675 26.1238 17.5693C26.1238 16.8711 25.8649 16.2734 25.3469 15.7762C24.829 15.279 24.2064 15.0304 23.4791 15.0304C22.7518 15.0304 22.1292 15.279 21.6113 15.7762C21.0934 16.2734 20.8344 16.8711 20.8344 17.5693C20.8344 18.2675 21.0934 18.8652 21.6113 19.3624C22.1292 19.8596 22.7518 20.1082 23.4791 20.1082ZM23.4791 31.9776C26.1679 29.6079 28.1624 27.4552 29.4627 25.5192C30.763 23.5833 31.4132 21.8643 31.4132 20.3621C31.4132 18.0559 30.6473 16.1676 29.1156 14.6972C27.5839 13.2268 25.7051 12.4915 23.4791 12.4915C21.2532 12.4915 19.3744 13.2268 17.8426 14.6972C16.3109 16.1676 15.5451 18.0559 15.5451 20.3621C15.5451 21.8643 16.1952 23.5833 17.4955 25.5192C18.7958 27.4552 20.7904 29.6079 23.4791 31.9776ZM23.4791 35.3416C19.9308 32.443 17.2806 29.7507 15.5285 27.2647C13.7764 24.7787 12.9004 22.4779 12.9004 20.3621C12.9004 17.1885 13.9638 14.6602 16.0905 12.7772C18.2173 10.8941 20.6802 9.95264 23.4791 9.95264C26.2781 9.95264 28.7409 10.8941 30.8677 12.7772C32.9945 14.6602 34.0579 17.1885 34.0579 20.3621C34.0579 22.4779 33.1818 24.7787 31.4297 27.2647C29.6776 29.7507 27.0274 32.443 23.4791 35.3416Z" fill="#624DE3"/>
</svg>
