<svg width="45" height="46" viewBox="0 0 45 46" fill="none" xmlns="http://www.w3.org/2000/svg">
<rect y="0.601318" width="45" height="45.1449" rx="7.56665" fill="#F9F9F9"/>
<g clip-path="url(#clip0_5250_90459)">
<path d="M32.1989 13.0322H13.4715C12.327 13.0322 11.3906 13.9686 11.3906 15.1131V27.598C11.3906 28.7425 12.327 29.6789 13.4715 29.6789H20.7544V31.7597H18.6735V33.8405H26.9969V31.7597H24.916V29.6789H32.1989C33.3434 29.6789 34.2798 28.7425 34.2798 27.598V15.1131C34.2798 13.9686 33.3434 13.0322 32.1989 13.0322ZM32.1989 27.598H13.4715V15.1131H32.1989V27.598Z" fill="#624DE3"/>
<g clip-path="url(#clip1_5250_90459)">
<path d="M29.6494 18.8584C29.6494 19.6023 29.0408 20.2109 28.2969 20.2109C28.1752 20.2109 28.0602 20.1974 27.952 20.1636L25.5445 22.5644C25.5783 22.6726 25.5918 22.7943 25.5918 22.916C25.5918 23.6599 24.9832 24.2686 24.2393 24.2686C23.4954 24.2686 22.8867 23.6599 22.8867 22.916C22.8867 22.7943 22.9002 22.6726 22.9341 22.5644L21.2096 20.8399C21.1014 20.8737 20.9796 20.8872 20.8579 20.8872C20.7362 20.8872 20.6145 20.8737 20.5063 20.8399L17.4292 23.9237C17.463 24.0319 17.4766 24.1468 17.4766 24.2686C17.4766 25.0125 16.8679 25.6211 16.124 25.6211C15.3801 25.6211 14.7715 25.0125 14.7715 24.2686C14.7715 23.5247 15.3801 22.916 16.124 22.916C16.2458 22.916 16.3607 22.9295 16.4689 22.9634L19.5527 19.8863C19.5189 19.7781 19.5054 19.6564 19.5054 19.5347C19.5054 18.7908 20.114 18.1821 20.8579 18.1821C21.6018 18.1821 22.2105 18.7908 22.2105 19.5347C22.2105 19.6564 22.1969 19.7781 22.1631 19.8863L23.8876 21.6108C23.9958 21.577 24.1175 21.5635 24.2393 21.5635C24.361 21.5635 24.4827 21.577 24.5909 21.6108L26.9917 19.2033C26.9579 19.0951 26.9443 18.9801 26.9443 18.8584C26.9443 18.1145 27.553 17.5059 28.2969 17.5059C29.0408 17.5059 29.6494 18.1145 29.6494 18.8584Z" fill="#624DE3"/>
</g>
</g>
<defs>
<clipPath id="clip0_5250_90459">
<rect width="24.97" height="24.97" fill="white" transform="translate(10.3496 10.9514)"/>
</clipPath>
<clipPath id="clip1_5250_90459">
<rect width="16.2305" height="16.2305" fill="white" transform="translate(14.0957 13.4482)"/>
</clipPath>
</defs>
</svg>
