<svg width="46" height="46" viewBox="0 0 46 46" fill="none" xmlns="http://www.w3.org/2000/svg">
<rect x="0.5" y="0.452148" width="45" height="44.9551" rx="10" fill="#F9F9F9"/>
<path d="M13.5096 12.8169C13.165 12.853 12.8751 13.1763 12.877 13.5224V21.5186C12.877 21.888 13.2134 22.2241 13.5832 22.2242H21.5874C21.9571 22.2241 22.2936 21.888 22.2936 21.5186V13.5224C22.2936 13.153 21.9571 12.8169 21.5874 12.8169C18.8969 12.8169 16.1946 12.8169 13.5096 12.8169ZM24.4123 12.8169C24.0426 12.8169 23.7061 13.153 23.7061 13.5224V21.5186C23.7061 21.888 24.0426 22.2241 24.4123 22.2242H32.4165C32.7863 22.2241 33.1227 21.888 33.1227 21.5186V13.5224C33.1227 13.153 32.7863 12.8169 32.4165 12.8169H24.4123ZM14.2895 14.228H20.8811V20.8131H14.2895V14.228ZM25.1186 14.228H31.7102V20.8131H25.1186V14.228ZM13.5832 23.6352C13.2134 23.6353 12.877 23.9714 12.877 24.3408V32.337C12.877 32.7064 13.2134 33.0425 13.5832 33.0425H21.5874C21.9571 33.0425 22.2936 32.7064 22.2936 32.337V24.3408C22.2936 23.9714 21.9571 23.6353 21.5874 23.6352H13.5832ZM24.3388 23.6352C23.9942 23.6713 23.7043 23.9946 23.7061 24.3408V32.337C23.7061 32.7064 24.0426 33.0425 24.4123 33.0425H32.4165C32.7863 33.0425 33.1227 32.7064 33.1227 32.337V24.3408C33.1227 23.9714 32.7863 23.6353 32.4165 23.6352C29.7261 23.6352 27.0237 23.6352 24.3388 23.6352ZM14.2895 25.0463H20.8811V31.6314H14.2895V25.0463ZM25.1186 25.0463H31.7102V31.6314H25.1186V25.0463Z" fill="#6754E2"/>
</svg>
