<svg width="46" height="46" viewBox="0 0 46 46" fill="none" xmlns="http://www.w3.org/2000/svg">
<rect x="0.921875" y="0.452148" width="45" height="44.9551" rx="10" fill="#F9F9F9"/>
<path d="M22.7794 26.1394V26.0915C22.804 25.7585 23.0834 25.4952 23.4235 25.4952C23.7796 25.4952 24.0694 25.7856 24.0694 26.1394V27.1738H22.7794V26.1394ZM25.1454 27.1738H25.0134V26.1394C25.0134 25.2625 24.3004 24.5495 23.4235 24.5495C22.5466 24.5495 21.8337 25.2625 21.8337 26.1394V27.1738H21.7017C21.4411 27.1738 21.2297 27.3852 21.2297 27.6458V30.1482C21.2297 30.4088 21.4411 30.6202 21.7017 30.6202H25.1471C25.4077 30.6202 25.6191 30.4088 25.6191 30.1482V27.6475C25.6191 27.3852 25.4077 27.1738 25.1454 27.1738ZM22.1736 29.6762V28.1195H24.6734V29.6762H22.1736Z" fill="#6754E2" stroke="#6754E2" stroke-width="0.4"/>
<path d="M16.0363 20.3455C16.0342 20.2769 16.033 20.2085 16.033 20.141C16.033 16.4482 19.0375 13.4414 22.7325 13.4414C26.4277 13.4414 29.4321 16.4458 29.4321 20.141C29.4321 21.5699 28.9887 22.9303 28.1506 24.0812L28.1503 24.0816C28.046 24.2257 28.0182 24.4021 28.0601 24.5618C27.0261 23.1144 25.3322 22.1695 23.4225 22.1695C20.283 22.1695 17.7269 24.7231 17.7269 27.8651C17.7269 28.2646 17.7686 28.6524 17.8464 29.0282H16.1166C14.037 29.0282 12.3452 27.3363 12.3452 25.2567C12.3452 23.3983 13.7256 21.8003 15.559 21.5282C15.5726 21.5274 15.5847 21.5254 15.5951 21.523L16.0363 20.3455ZM16.0363 20.3455C16.0641 20.345 16.0916 20.3448 16.1191 20.3448C17.3919 20.3448 18.6028 20.8312 19.5224 21.7157L19.5228 21.7161C19.7482 21.9341 19.7563 22.2963 19.5371 22.523C19.3192 22.7483 18.9573 22.7565 18.7306 22.5376C18.0224 21.8593 17.096 21.4853 16.1166 21.4853C15.9395 21.4853 15.7644 21.4985 15.5958 21.5229L16.0363 20.3455ZM28.9988 29.0282H30.2067C32.5746 29.0282 34.4998 27.1009 34.5046 24.7399L28.9988 29.0282ZM28.9988 29.0282C29.0765 28.6532 29.1181 28.2642 29.1181 27.8651C29.1181 26.7664 28.8056 25.7397 28.2649 24.869C28.2685 24.8717 28.2721 24.8745 28.2758 24.8772C28.376 24.9511 28.4946 24.9879 28.6128 24.9879C28.7888 24.9879 28.9631 24.9072 29.0747 24.7546L29.0749 24.7544C29.9935 23.4956 30.5054 22.0172 30.567 20.4632C32.769 20.6435 34.5044 22.4926 34.5046 24.7395L28.9988 29.0282ZM30.524 19.3114C30.1086 15.3764 26.773 12.2985 22.7277 12.2985C18.4054 12.2985 14.8877 15.8162 14.8877 20.1385C14.8877 20.2601 14.8912 20.38 14.8964 20.4992C12.7554 21.0462 11.2023 23.0032 11.2023 25.2567C11.2023 27.9659 13.405 30.1686 16.1142 30.1686H18.2112C19.099 32.1654 21.0999 33.5607 23.4225 33.5607C25.7451 33.5607 27.7459 32.1631 28.6315 30.1686H30.2067C33.202 30.1686 35.6403 27.7303 35.6403 24.7351C35.6403 21.8445 33.374 19.4766 30.524 19.3114ZM23.4225 32.4203C20.9102 32.4203 18.8673 30.3774 18.8673 27.8651C18.8673 25.3528 20.9102 23.3099 23.4225 23.3099C25.9348 23.3099 27.9777 25.3528 27.9777 27.8651C27.9777 30.3774 25.9348 32.4203 23.4225 32.4203Z" fill="#6754E2" stroke="#6754E2" stroke-width="0.4"/>
</svg>
