<svg width="31" height="17" viewBox="0 0 31 17" fill="none" xmlns="http://www.w3.org/2000/svg">
<path d="M21.2403 15.4209C20.3998 14.7126 19.8674 13.7107 19.7409 12.4571L21.6423 12.4571C21.9759 14.0177 23.4748 14.9605 25.2861 14.9605C27.1828 14.9605 28.6731 13.9027 28.6731 12.2664C28.6731 11.5858 28.4478 11.0205 27.9412 10.5676C27.4542 10.132 26.7304 9.82166 25.7759 9.57241L25.7756 9.57232L23.8503 9.07163L23.8482 9.0711C22.519 8.73416 21.5825 8.22255 20.9782 7.54815C20.3798 6.88034 20.0766 6.01892 20.0766 4.91568C20.0766 3.55734 20.6091 2.43389 21.5092 1.64587C22.4131 0.854543 23.7088 0.38414 25.2553 0.38414C26.8229 0.38414 28.094 0.852047 28.9762 1.6357C29.7769 2.34707 30.2785 3.33704 30.3836 4.53159H28.5282C28.4033 3.8207 28.0609 3.23024 27.5392 2.80528C26.9449 2.32126 26.1458 2.07379 25.2346 2.07379C24.3351 2.07379 23.5489 2.31774 22.9801 2.77738C22.4049 3.24216 22.074 3.91121 22.074 4.69953C22.074 5.34262 22.3027 5.87415 22.8001 6.29965C23.2767 6.70737 23.9823 7.0025 24.9091 7.24557L24.912 7.24631L26.621 7.67871L26.6211 7.67874C28.0989 8.05219 29.098 8.5642 29.7289 9.23958C30.3502 9.9047 30.65 10.7669 30.65 11.925C30.65 13.3934 30.1199 14.5614 29.1893 15.367C28.253 16.1775 26.8774 16.6499 25.1419 16.6499C23.4946 16.6499 22.1654 16.2006 21.2403 15.4209ZM2.35765 5.01537V16.3768H0.494114V5.01537H2.35765ZM2.50179 1.54751C2.50179 2.23269 2.00631 2.73363 1.42074 2.73363C0.847066 2.73363 0.35 2.23442 0.35 1.54751C0.35 0.847478 0.848684 0.35 1.42074 0.35C2.00469 0.35 2.50179 0.84917 2.50179 1.54751ZM4.54049 8.52271C4.54049 5.96859 5.20512 3.93346 6.36047 2.54351C7.50979 1.1608 9.17083 0.384052 11.2428 0.384052C13.3095 0.384052 14.968 1.16061 16.1161 2.54336C17.2703 3.93337 17.9348 5.96859 17.9348 8.52271C17.9348 11.0768 17.2702 13.109 16.1162 14.4961C14.9683 15.876 13.3098 16.65 11.2428 16.65C9.17029 16.65 7.50927 15.8758 6.36016 14.496C5.20505 13.109 4.54049 11.0768 4.54049 8.52271ZM15.927 8.52265C15.927 6.64199 15.4944 5.0662 14.6855 3.95058C13.8688 2.8242 12.6812 2.18739 11.2428 2.18739C9.79955 2.18739 8.61175 2.82399 7.79613 3.95083C6.98851 5.06663 6.55857 6.64246 6.55857 8.52265C6.55857 10.3974 6.98859 11.9704 7.79624 13.0847C8.61185 14.21 9.79958 14.8465 11.2428 14.8465C12.6812 14.8465 13.8687 14.2098 14.6853 13.0849C15.4942 11.9708 15.927 10.3978 15.927 8.52265Z" fill="white" stroke="#6754E2" stroke-width="0.7"/>
</svg>
