<svg width="72" height="94" viewBox="0 0 72 94" fill="none" xmlns="http://www.w3.org/2000/svg">
<g clip-path="url(#clip0_682_20652)">
<path d="M4.20117 28.6395V69.9565L5.27037 70.4911L35.4371 85.8416L36.3536 86.2998L37.27 85.8416L66.3675 70.4911L67.4367 69.9565V6.64453H4.20117V28.6395ZM6.18683 68.8109V8.63019H65.4511V68.8109L36.3536 84.1614L6.18683 68.8109Z" fill="white" fill-opacity="0.4"/>
<path d="M19.3208 45.8229C19.2851 45.8229 19.2546 45.8101 19.2291 45.7847C19.2037 45.7593 19.191 45.7287 19.191 45.6931V38.4683C19.191 38.4327 19.2037 38.4021 19.2291 38.3767C19.2546 38.3512 19.2851 38.3385 19.3208 38.3385H20.5733C20.609 38.3385 20.6395 38.3512 20.6649 38.3767C20.6904 38.4021 20.7031 38.4327 20.7031 38.4683V44.4788C20.7031 44.5144 20.7209 44.5322 20.7566 44.5322H24.2544C24.2901 44.5322 24.318 44.5424 24.3384 44.5628C24.3638 44.5882 24.3766 44.6187 24.3766 44.6544V45.6931C24.3766 45.7287 24.3638 45.7593 24.3384 45.7847C24.318 45.8101 24.2901 45.8229 24.2544 45.8229H19.3208ZM30.0815 42.5084C30.1222 42.7782 30.135 43.0812 30.1197 43.4172C30.1146 43.5037 30.0688 43.547 29.9822 43.547H26.6754C26.6347 43.547 26.6219 43.5648 26.6372 43.6005C26.6576 43.7431 26.6958 43.8856 26.7517 44.0282C26.9401 44.4253 27.3194 44.6239 27.8897 44.6239C28.3428 44.6187 28.7017 44.4329 28.9665 44.0663C28.9971 44.0256 29.0301 44.0053 29.0658 44.0053C29.0862 44.0053 29.1091 44.0205 29.1345 44.0511L29.9059 44.8072C29.9415 44.8428 29.9593 44.8759 29.9593 44.9064C29.9593 44.9166 29.9466 44.9446 29.9212 44.9904C29.6819 45.2807 29.3789 45.5072 29.0123 45.6702C28.6406 45.828 28.2333 45.9069 27.7904 45.9069C27.1794 45.9069 26.6601 45.7694 26.2324 45.4945C25.8098 45.2144 25.5069 44.8249 25.3236 44.326C25.1708 43.9696 25.0945 43.5037 25.0945 42.9284C25.0945 42.5364 25.1479 42.1901 25.2549 41.8898C25.4178 41.3806 25.7054 40.9784 26.1179 40.6831C26.5251 40.3827 27.0114 40.2325 27.5765 40.2325C28.2893 40.2325 28.8621 40.4387 29.2949 40.8511C29.7226 41.2635 29.9848 41.8159 30.0815 42.5084ZM27.5842 41.5385C27.1361 41.5385 26.8409 41.7472 26.6983 42.1647C26.6728 42.2563 26.6473 42.3709 26.6219 42.5084C26.6219 42.544 26.6397 42.5618 26.6754 42.5618H28.5312C28.5719 42.5618 28.5847 42.544 28.5694 42.5084C28.5337 42.2996 28.5159 42.2004 28.5159 42.2105C28.4548 41.9967 28.3428 41.8312 28.1799 41.7141C28.022 41.597 27.8235 41.5385 27.5842 41.5385ZM33.1898 40.2401C33.6532 40.2401 34.0656 40.3216 34.4271 40.4845C34.7937 40.6424 35.0787 40.8613 35.2824 41.1413C35.4861 41.4163 35.5879 41.7269 35.5879 42.0731V45.6931C35.5879 45.7287 35.5752 45.7593 35.5497 45.7847C35.5243 45.8101 35.4937 45.8229 35.4581 45.8229H34.2056C34.1699 45.8229 34.1394 45.8101 34.1139 45.7847C34.0885 45.7593 34.0758 45.7287 34.0758 45.6931V45.3418C34.0758 45.3214 34.0681 45.3061 34.0528 45.2959C34.0427 45.2908 34.0299 45.2984 34.0147 45.3188C33.7143 45.7109 33.2332 45.9069 32.5712 45.9069C32.0163 45.9069 31.5657 45.772 31.2195 45.5021C30.8783 45.2323 30.7078 44.8326 30.7078 44.3031C30.7078 43.7532 30.9012 43.3281 31.2882 43.0277C31.6701 42.7222 32.2174 42.5695 32.9302 42.5695H34.0223C34.058 42.5695 34.0758 42.5517 34.0758 42.516V42.2869C34.0758 42.0476 34.0045 41.8617 33.8619 41.7294C33.7193 41.6021 33.5055 41.5385 33.2204 41.5385C33.0014 41.5385 32.8181 41.5766 32.6705 41.653C32.5229 41.7294 32.4287 41.8388 32.3879 41.9814C32.3676 42.0629 32.3217 42.0985 32.2505 42.0883L30.9522 41.9203C30.8707 41.905 30.8325 41.872 30.8376 41.821C30.8682 41.5257 30.9878 41.2559 31.1966 41.0115C31.4053 40.7671 31.6828 40.5787 32.029 40.4463C32.3752 40.3089 32.7622 40.2401 33.1898 40.2401ZM32.976 44.7842C33.2815 44.7842 33.5412 44.7028 33.755 44.5399C33.9688 44.377 34.0758 44.1656 34.0758 43.906V43.5241C34.0758 43.4884 34.058 43.4707 34.0223 43.4707H33.2509C32.9302 43.4707 32.6807 43.5317 32.5025 43.6539C32.3192 43.7761 32.2276 43.9467 32.2276 44.1656C32.2276 44.3591 32.2963 44.5118 32.4338 44.6239C32.5661 44.7308 32.7469 44.7842 32.976 44.7842ZM40.0556 38.4683C40.0556 38.4327 40.0684 38.4021 40.0938 38.3767C40.1193 38.3512 40.1498 38.3385 40.1855 38.3385H41.4303C41.466 38.3385 41.4965 38.3512 41.522 38.3767C41.5474 38.4021 41.5602 38.4327 41.5602 38.4683V45.6931C41.5602 45.7287 41.5474 45.7593 41.522 45.7847C41.4965 45.8101 41.466 45.8229 41.4303 45.8229H40.1855C40.1498 45.8229 40.1193 45.8101 40.0938 45.7847C40.0684 45.7593 40.0556 45.7287 40.0556 45.6931V45.3418C40.0556 45.3214 40.048 45.3087 40.0327 45.3036C40.0175 45.2985 40.0022 45.3036 39.9869 45.3188C39.6916 45.7109 39.2818 45.9069 38.7573 45.9069C38.2584 45.9069 37.8307 45.7694 37.4743 45.4945C37.1128 45.2144 36.8532 44.8326 36.6953 44.3489C36.5731 43.9772 36.512 43.5445 36.512 43.0506C36.512 42.5466 36.5782 42.1061 36.7106 41.7294C36.8735 41.2712 37.1306 40.9097 37.4819 40.6449C37.8332 40.3751 38.2711 40.2401 38.7955 40.2401C39.3047 40.2401 39.7018 40.4183 39.9869 40.7747C40.0022 40.7951 40.0175 40.8028 40.0327 40.7977C40.048 40.7925 40.0556 40.7773 40.0556 40.7518V38.4683ZM39.8265 44.158C39.9691 43.8932 40.0404 43.5317 40.0404 43.0735C40.0404 42.5949 39.964 42.2207 39.8113 41.9509C39.6432 41.6759 39.404 41.5385 39.0934 41.5385C38.7573 41.5385 38.5028 41.6759 38.3296 41.9509C38.1515 42.2309 38.0623 42.6102 38.0623 43.0888C38.0623 43.5165 38.1387 43.8729 38.2915 44.158C38.4696 44.4635 38.7319 44.6162 39.0781 44.6162C39.3988 44.6162 39.6484 44.4635 39.8265 44.158ZM47.563 42.5084C47.6037 42.7782 47.6164 43.0812 47.6011 43.4172C47.596 43.5037 47.5502 43.547 47.4637 43.547H44.1568C44.1161 43.547 44.1033 43.5648 44.1186 43.6005C44.139 43.7431 44.1772 43.8856 44.2332 44.0282C44.4216 44.4253 44.8008 44.6239 45.3711 44.6239C45.8242 44.6187 46.1832 44.4329 46.4479 44.0663C46.4785 44.0256 46.5116 44.0053 46.5472 44.0053C46.5676 44.0053 46.5905 44.0205 46.616 44.0511L47.3873 44.8072C47.423 44.8428 47.4408 44.8759 47.4408 44.9064C47.4408 44.9166 47.428 44.9446 47.4026 44.9904C47.1633 45.2807 46.8603 45.5072 46.4938 45.6702C46.1221 45.828 45.7148 45.9069 45.2718 45.9069C44.6608 45.9069 44.1415 45.7694 43.7138 45.4945C43.2913 45.2144 42.9883 44.8249 42.805 44.326C42.6523 43.9696 42.5759 43.5037 42.5759 42.9284C42.5759 42.5364 42.6294 42.1901 42.7363 41.8898C42.8992 41.3806 43.1869 40.9784 43.5993 40.6831C44.0066 40.3827 44.4928 40.2325 45.058 40.2325C45.7708 40.2325 46.3435 40.4387 46.7763 40.8511C47.204 41.2635 47.4662 41.8159 47.563 42.5084ZM45.0656 41.5385C44.6175 41.5385 44.3223 41.7472 44.1797 42.1647C44.1543 42.2563 44.1288 42.3709 44.1033 42.5084C44.1033 42.544 44.1211 42.5618 44.1568 42.5618H46.0126C46.0533 42.5618 46.0661 42.544 46.0508 42.5084C46.0151 42.2996 45.9973 42.2004 45.9973 42.2105C45.9362 41.9967 45.8242 41.8312 45.6613 41.7141C45.5034 41.597 45.3049 41.5385 45.0656 41.5385ZM51.267 40.2554C51.5266 40.2554 51.7303 40.3038 51.8779 40.4005C51.9339 40.4311 51.9568 40.4845 51.9467 40.5609L51.7176 41.7828C51.7125 41.8694 51.6641 41.8949 51.5725 41.8592C51.4655 41.8235 51.3408 41.8058 51.1982 41.8058C51.1371 41.8058 51.0583 41.8109 50.9615 41.821C50.7018 41.8465 50.4829 41.9407 50.3047 42.1036C50.1265 42.2716 50.0374 42.4956 50.0374 42.7757V45.6931C50.0374 45.7287 50.0272 45.7593 50.0068 45.7847C49.9814 45.8101 49.9509 45.8229 49.9152 45.8229H48.6627C48.627 45.8229 48.5965 45.8101 48.5711 45.7847C48.5456 45.7593 48.5329 45.7287 48.5329 45.6931V40.454C48.5329 40.4183 48.5456 40.3878 48.5711 40.3623C48.5965 40.3369 48.627 40.3241 48.6627 40.3241H49.9152C49.9509 40.3241 49.9814 40.3369 50.0068 40.3623C50.0272 40.3878 50.0374 40.4183 50.0374 40.454V40.8587C50.0374 40.8842 50.045 40.8995 50.0603 40.9046C50.0756 40.9097 50.0857 40.9071 50.0909 40.8969C50.3862 40.4693 50.7782 40.2554 51.267 40.2554ZM14.4559 27.7305C14.4916 27.6745 14.5425 27.6465 14.6087 27.6465H15.8612C15.8968 27.6465 15.9274 27.6592 15.9528 27.6847C15.9782 27.7101 15.991 27.7407 15.991 27.7763V35.0011C15.991 35.0367 15.9782 35.0673 15.9528 35.0927C15.9274 35.1181 15.8968 35.1309 15.8612 35.1309H14.6087C14.573 35.1309 14.5425 35.1181 14.517 35.0927C14.4916 35.0673 14.4788 35.0367 14.4788 35.0011V30.2889C14.4788 30.2584 14.4712 30.2431 14.4559 30.2431C14.4458 30.2431 14.433 30.2533 14.4177 30.2737L13.2798 32.0531C13.2441 32.1091 13.1958 32.1371 13.1347 32.1371H12.5008C12.4397 32.1371 12.3914 32.1091 12.3557 32.0531L11.2178 30.2737C11.2025 30.2533 11.1898 30.2456 11.1796 30.2508C11.1643 30.2559 11.1567 30.2711 11.1567 30.2966V35.0011C11.1567 35.0367 11.1439 35.0673 11.1185 35.0927C11.0931 35.1181 11.0625 35.1309 11.0269 35.1309H9.77436C9.7387 35.1309 9.70815 35.1181 9.68272 35.0927C9.65729 35.0673 9.64453 35.0367 9.64453 35.0011V27.7763C9.64453 27.7407 9.65729 27.7101 9.68272 27.6847C9.70815 27.6592 9.7387 27.6465 9.77436 27.6465H11.0269C11.0931 27.6465 11.1439 27.6745 11.1796 27.7305L12.7834 30.2202C12.8038 30.266 12.8241 30.266 12.8445 30.2202L14.4559 27.7305ZM19.6263 35.2149C19.0255 35.2149 18.5113 35.0596 18.0836 34.749C17.6559 34.4334 17.3632 34.0057 17.2053 33.466C17.1085 33.13 17.0602 32.7659 17.0602 32.3739C17.0602 31.9513 17.1085 31.572 17.2053 31.2359C17.3682 30.7115 17.6635 30.2991 18.0912 29.9987C18.5189 29.6984 19.0331 29.5481 19.6339 29.5481C20.2195 29.5481 20.7184 29.6958 21.1308 29.9911C21.5432 30.2864 21.8359 30.6988 22.0091 31.2283C22.1211 31.5847 22.1771 31.959 22.1771 32.351C22.1771 32.7379 22.1287 33.0969 22.032 33.4278C21.8741 33.9878 21.5839 34.4258 21.1613 34.7414C20.7337 35.057 20.222 35.2149 19.6263 35.2149ZM19.6263 33.9242C19.8605 33.9242 20.0591 33.853 20.222 33.7104C20.3849 33.5678 20.502 33.3718 20.5733 33.1223C20.6293 32.8932 20.6573 32.6437 20.6573 32.3739C20.6573 32.0735 20.6293 31.8189 20.5733 31.6102C20.4969 31.3709 20.3772 31.1825 20.2143 31.045C20.0463 30.9127 19.8452 30.8465 19.611 30.8465C19.3717 30.8465 19.1706 30.9127 19.0077 31.045C18.8498 31.1825 18.7353 31.3709 18.664 31.6102C18.6029 31.7833 18.5724 32.0378 18.5724 32.3739C18.5724 32.6946 18.5978 32.9441 18.6487 33.1223C18.72 33.3718 18.8397 33.5678 19.0077 33.7104C19.1757 33.853 19.3819 33.9242 19.6263 33.9242ZM29.2491 29.5481C29.8041 29.5481 30.2368 29.7162 30.5474 30.0522C30.863 30.3882 31.0209 30.8592 31.0209 31.4651V35.0011C31.0209 35.0367 31.0081 35.0673 30.9827 35.0927C30.9573 35.1181 30.9267 35.1309 30.8911 35.1309H29.6386C29.6029 35.1309 29.5724 35.1181 29.5469 35.0927C29.5265 35.0673 29.5164 35.0367 29.5164 35.0011V31.7935C29.5164 31.5032 29.44 31.2716 29.2873 31.0985C29.1396 30.9305 28.9411 30.8465 28.6916 30.8465C28.4421 30.8465 28.2385 30.9305 28.0806 31.0985C27.9227 31.2716 27.8438 31.5007 27.8438 31.7858V35.0011C27.8438 35.0367 27.8311 35.0673 27.8057 35.0927C27.7802 35.1181 27.7497 35.1309 27.714 35.1309H26.4768C26.4411 35.1309 26.4106 35.1181 26.3852 35.0927C26.3597 35.0673 26.347 35.0367 26.347 35.0011V31.7935C26.347 31.5084 26.2681 31.2792 26.1102 31.1061C25.9575 30.933 25.7564 30.8465 25.5069 30.8465C25.2778 30.8465 25.0868 30.9127 24.9341 31.045C24.7814 31.1825 24.6897 31.3709 24.6592 31.6102V35.0011C24.6592 35.0367 24.6464 35.0673 24.621 35.0927C24.5955 35.1181 24.565 35.1309 24.5293 35.1309H23.2768C23.2412 35.1309 23.2132 35.1181 23.1928 35.0927C23.1674 35.0673 23.1546 35.0367 23.1546 35.0011V29.762C23.1546 29.7263 23.1674 29.6958 23.1928 29.6703C23.2132 29.6449 23.2412 29.6321 23.2768 29.6321H24.5293C24.565 29.6321 24.5955 29.6449 24.621 29.6703C24.6464 29.6958 24.6592 29.7263 24.6592 29.762V30.182C24.6592 30.2024 24.6668 30.2151 24.6821 30.2202C24.6973 30.2304 24.7101 30.2253 24.7203 30.2049C25.0156 29.7671 25.4687 29.5481 26.0797 29.5481C26.4361 29.5481 26.7492 29.6245 27.019 29.7772C27.2838 29.9249 27.4874 30.1387 27.63 30.4188C27.6504 30.4595 27.6758 30.4595 27.7064 30.4188C27.8642 30.1234 28.0755 29.9046 28.3403 29.762C28.6101 29.6194 28.913 29.5481 29.2491 29.5481ZM36.9091 31.8164C36.955 32.0862 36.9702 32.3892 36.955 32.7252C36.9498 32.8117 36.904 32.855 36.8175 32.855H33.5106C33.4699 32.855 33.4572 32.8728 33.4724 32.9085C33.4928 33.0511 33.531 33.1936 33.587 33.3362C33.7703 33.7333 34.147 33.9319 34.7173 33.9319C35.1755 33.9267 35.537 33.7409 35.8018 33.3743C35.8272 33.3336 35.8577 33.3132 35.8934 33.3132C35.9188 33.3132 35.9443 33.3285 35.9698 33.3591L36.7411 34.1151C36.7768 34.1508 36.7946 34.1839 36.7946 34.2144C36.7946 34.2246 36.7793 34.2526 36.7488 34.2984C36.5145 34.5886 36.2116 34.8152 35.8399 34.9781C35.4734 35.136 35.0686 35.2149 34.6256 35.2149C34.0095 35.2149 33.4902 35.0774 33.0677 34.8025C32.6451 34.5224 32.3396 34.1329 32.1512 33.634C32.0036 33.2776 31.9297 32.8117 31.9297 32.2364C31.9297 31.8444 31.9832 31.4981 32.0901 31.1978C32.253 30.6886 32.5407 30.2864 32.9531 29.9911C33.3604 29.6907 33.8466 29.5405 34.4118 29.5405C35.1246 29.5405 35.6948 29.7467 36.1225 30.1591C36.5553 30.5715 36.8175 31.1239 36.9091 31.8164ZM34.4194 30.8465C33.9714 30.8465 33.6761 31.0552 33.5335 31.4727C33.503 31.5643 33.4775 31.6789 33.4572 31.8164C33.4572 31.852 33.4749 31.8698 33.5106 31.8698H35.3588C35.4046 31.8698 35.4199 31.852 35.4046 31.8164C35.369 31.6076 35.3512 31.5084 35.3512 31.5185C35.285 31.3047 35.173 31.1392 35.0151 31.0221C34.8522 30.905 34.6537 30.8465 34.4194 30.8465ZM40.7506 29.5481C41.3209 29.5481 41.7816 29.7238 42.1329 30.0751C42.4791 30.4213 42.6523 30.8948 42.6523 31.4956V35.0011C42.6523 35.0367 42.6395 35.0673 42.6141 35.0927C42.5887 35.1181 42.5581 35.1309 42.5224 35.1309H41.2776C41.2419 35.1309 41.2114 35.1181 41.1859 35.0927C41.1605 35.0673 41.1478 35.0367 41.1478 35.0011V31.8087C41.1478 31.5236 41.0663 31.2919 40.9034 31.1137C40.7455 30.9356 40.5343 30.8465 40.2695 30.8465C40.0047 30.8465 39.7935 30.9356 39.6356 31.1137C39.4727 31.2919 39.3912 31.5236 39.3912 31.8087V35.0011C39.3912 35.0367 39.3785 35.0673 39.353 35.0927C39.3276 35.1181 39.297 35.1309 39.2614 35.1309H38.0165C37.9809 35.1309 37.9503 35.1181 37.9249 35.0927C37.8994 35.0673 37.8867 35.0367 37.8867 35.0011V29.762C37.8867 29.7263 37.8994 29.6958 37.9249 29.6703C37.9503 29.6449 37.9809 29.6321 38.0165 29.6321H39.2614C39.297 29.6321 39.3276 29.6449 39.353 29.6703C39.3785 29.6958 39.3912 29.7263 39.3912 29.762V30.1362C39.3912 30.1566 39.3988 30.1719 39.4141 30.182C39.4294 30.1871 39.4396 30.182 39.4447 30.1667C39.74 29.7543 40.1753 29.5481 40.7506 29.5481ZM46.8909 30.7166C46.8909 30.7523 46.8781 30.7828 46.8527 30.8083C46.8273 30.8337 46.7967 30.8465 46.7611 30.8465H45.73C45.6944 30.8465 45.6766 30.8642 45.6766 30.8999V33.1605C45.6766 33.3998 45.7249 33.5754 45.8217 33.6875C45.9185 33.7995 46.0737 33.8555 46.2876 33.8555H46.6389C46.6745 33.8555 46.7051 33.8682 46.7305 33.8937C46.7559 33.9191 46.7687 33.9496 46.7687 33.9853V35.0011C46.7687 35.0825 46.7254 35.1284 46.6389 35.1385C46.3435 35.1538 46.1297 35.1614 45.9973 35.1614C45.4068 35.1614 44.9663 35.0647 44.6761 34.8712C44.3808 34.6727 44.2306 34.3036 44.2255 33.7638V30.8999C44.2255 30.8642 44.2077 30.8465 44.1721 30.8465H43.5611C43.5254 30.8465 43.4949 30.8337 43.4694 30.8083C43.444 30.7828 43.4313 30.7523 43.4313 30.7166V29.762C43.4313 29.7263 43.444 29.6958 43.4694 29.6703C43.4949 29.6449 43.5254 29.6321 43.5611 29.6321H44.1721C44.2077 29.6321 44.2255 29.6143 44.2255 29.5787V28.3109C44.2255 28.2753 44.2383 28.2447 44.2637 28.2193C44.2891 28.1938 44.3197 28.1811 44.3554 28.1811H45.5544C45.5901 28.1811 45.618 28.1938 45.6384 28.2193C45.6638 28.2447 45.6766 28.2753 45.6766 28.3109V29.5787C45.6766 29.6143 45.6944 29.6321 45.73 29.6321H46.7611C46.7967 29.6321 46.8273 29.6449 46.8527 29.6703C46.8781 29.6958 46.8909 29.7263 46.8909 29.762V30.7166ZM51.0073 29.762C51.0073 29.7263 51.0175 29.6958 51.0379 29.6703C51.0633 29.6449 51.0938 29.6321 51.1295 29.6321H52.382C52.4177 29.6321 52.4482 29.6449 52.4736 29.6703C52.4991 29.6958 52.5118 29.7263 52.5118 29.762V35.0011C52.5118 35.0367 52.4991 35.0673 52.4736 35.0927C52.4482 35.1181 52.4177 35.1309 52.382 35.1309H51.1295C51.0938 35.1309 51.0633 35.1181 51.0379 35.0927C51.0175 35.0673 51.0073 35.0367 51.0073 35.0011V34.6421C51.0073 34.6167 50.9997 34.6039 50.9844 34.6039C50.9691 34.5988 50.9538 34.6064 50.9386 34.6268C50.6535 35.0138 50.213 35.2073 49.6174 35.2073C49.0726 35.2073 48.627 35.0418 48.2808 34.7108C47.9295 34.385 47.7539 33.9267 47.7539 33.3362V29.762C47.7539 29.7263 47.7666 29.6958 47.7921 29.6703C47.8175 29.6449 47.8481 29.6321 47.8837 29.6321H49.1209C49.1566 29.6321 49.1871 29.6449 49.2126 29.6703C49.238 29.6958 49.2508 29.7263 49.2508 29.762V32.9619C49.2508 33.247 49.3271 33.4787 49.4799 33.6569C49.6326 33.8351 49.8439 33.9242 50.1138 33.9242C50.3582 33.9242 50.5592 33.8504 50.7171 33.7027C50.875 33.5551 50.9716 33.3642 51.0073 33.13V29.762ZM59.7213 29.5481C60.2763 29.5481 60.709 29.7162 61.0196 30.0522C61.3353 30.3882 61.4931 30.8592 61.4931 31.4651V35.0011C61.4931 35.0367 61.4804 35.0673 61.4549 35.0927C61.4295 35.1181 61.3989 35.1309 61.3633 35.1309H60.1108C60.0751 35.1309 60.0446 35.1181 60.0191 35.0927C59.9988 35.0673 59.9886 35.0367 59.9886 35.0011V31.7935C59.9886 31.5032 59.9122 31.2716 59.7595 31.0985C59.6119 30.9305 59.4133 30.8465 59.1638 30.8465C58.9143 30.8465 58.7107 30.9305 58.5528 31.0985C58.395 31.2716 58.3161 31.5007 58.3161 31.7858V35.0011C58.3161 35.0367 58.3033 35.0673 58.2779 35.0927C58.2524 35.1181 58.2219 35.1309 58.1862 35.1309H56.949C56.9133 35.1309 56.8828 35.1181 56.8574 35.0927C56.8319 35.0673 56.8192 35.0367 56.8192 35.0011V31.7935C56.8192 31.5084 56.7403 31.2792 56.5824 31.1061C56.4297 30.933 56.2286 30.8465 55.9791 30.8465C55.75 30.8465 55.5591 30.9127 55.4063 31.045C55.2536 31.1825 55.1619 31.3709 55.1314 31.6102V35.0011C55.1314 35.0367 55.1186 35.0673 55.0932 35.0927C55.0677 35.1181 55.0372 35.1309 55.0015 35.1309H53.749C53.7134 35.1309 53.6828 35.1181 53.6574 35.0927C53.637 35.0673 53.6269 35.0367 53.6269 35.0011V29.762C53.6269 29.7263 53.637 29.6958 53.6574 29.6703C53.6828 29.6449 53.7134 29.6321 53.749 29.6321H55.0015C55.0372 29.6321 55.0677 29.6449 55.0932 29.6703C55.1186 29.6958 55.1314 29.7263 55.1314 29.762V30.182C55.1314 30.2024 55.139 30.2151 55.1543 30.2202C55.1696 30.2304 55.1823 30.2253 55.1925 30.2049C55.4878 29.7671 55.9409 29.5481 56.5519 29.5481C56.9083 29.5481 57.2214 29.6245 57.4912 29.7772C57.756 29.9249 57.9596 30.1387 58.1022 30.4188C58.1226 30.4595 58.148 30.4595 58.1786 30.4188C58.3364 30.1234 58.5477 29.9046 58.8125 29.762C59.0823 29.6194 59.3853 29.5481 59.7213 29.5481Z" fill="white" fill-opacity="0.4"/>
<path fill-rule="evenodd" clip-rule="evenodd" d="M36.7339 9.69939C36.4284 9.62302 36.1229 9.62302 35.8174 9.62302H35.4355C32.9917 9.69939 31.1587 11.7614 31.2351 14.2053C31.3115 16.6492 33.3735 18.4821 35.8174 18.4057C36.8102 18.4057 37.7267 18.1003 38.4904 17.5657L37.4976 15.8855C37.0393 16.2673 36.4284 16.4965 35.8174 16.4965H35.5119C34.1372 16.4201 33.068 15.1981 33.1444 13.8234C33.2208 12.4488 34.4427 11.3796 35.8174 11.4559L36.7339 9.69939ZM40.0942 15.2745L38.9486 13.3652H36.8102L35.6647 15.2745H37.8794L38.9486 17.1074L40.0942 15.2745ZM37.3448 11.8378C37.1921 12.0669 37.1157 12.3724 37.1157 12.6779L39.1777 12.7542V12.2196H37.8031C37.8706 12.017 37.9979 11.9339 38.1849 11.8117C38.2094 11.7957 38.2349 11.7791 38.2613 11.7614L38.4904 11.6087C38.9486 11.4559 39.1777 11.1504 39.1777 10.7686C39.1777 10.5395 39.025 10.3104 38.8723 10.1576C38.7195 10.0049 38.414 9.9285 38.1849 9.9285C37.9558 9.9285 37.7267 9.9285 37.4976 10.0812C37.3448 10.234 37.1921 10.3867 37.1157 10.5395L37.4976 10.9213C37.6503 10.6158 37.8794 10.4631 38.1849 10.4631C38.3377 10.4631 38.5668 10.6158 38.5668 10.7686C38.5668 10.9213 38.4904 10.9977 38.1849 11.1504L38.0322 11.2268C37.8031 11.3796 37.4976 11.6087 37.3448 11.8378ZM43.0727 18.1003L35.8174 22.2243L28.4857 18.0239V6.64453H43.0727V18.1003ZM2.74857 49.2598H68.8862L71.2538 54.6058L68.8862 59.9518H2.74857L0.304688 54.6058L2.74857 49.2598ZM23.7202 57.5077C23.7354 57.5586 23.771 57.5841 23.8271 57.5841H24.4991C24.55 57.5841 24.5832 57.5586 24.5984 57.5077L25.4538 53.8648C25.4589 53.8444 25.4665 53.8342 25.4767 53.8342C25.4869 53.8393 25.4945 53.8495 25.4996 53.8648L26.3932 57.5077C26.4084 57.5586 26.444 57.5841 26.5001 57.5841H27.2103C27.2663 57.5841 27.302 57.5586 27.3173 57.5077L28.6385 52.3374C28.6538 52.2711 28.6257 52.2381 28.5545 52.2381H27.8442C27.7882 52.2381 27.7526 52.2635 27.7373 52.3144L26.8819 55.8046C26.8768 55.8199 26.8692 55.8275 26.859 55.8275C26.8488 55.8275 26.8412 55.8199 26.8361 55.8046L25.9502 52.3144C25.9349 52.2635 25.8993 52.2381 25.8433 52.2381H25.1101C25.0592 52.2381 25.0261 52.2635 25.0108 52.3144L24.1784 55.797C24.1733 55.8122 24.1656 55.8199 24.1555 55.8199C24.1452 55.8199 24.1376 55.8122 24.1326 55.797L23.2619 52.3144C23.2467 52.2635 23.211 52.2381 23.155 52.2381H22.4066C22.3505 52.2381 22.3226 52.261 22.3226 52.3068L22.3302 52.3374L23.7202 57.5077ZM29.4175 57.5535C29.4378 57.5739 29.4607 57.5841 29.4862 57.5841H30.1888C30.2143 57.5841 30.2346 57.5739 30.2499 57.5535C30.2703 57.5382 30.2805 57.5179 30.2805 57.4924V52.3297C30.2805 52.3043 30.2703 52.2839 30.2499 52.2686C30.2346 52.2482 30.2143 52.2381 30.1888 52.2381H29.4862C29.4607 52.2381 29.4378 52.2482 29.4175 52.2686C29.4022 52.2839 29.3946 52.3043 29.3946 52.3297V57.4924C29.3946 57.5179 29.4022 57.5382 29.4175 57.5535ZM34.5267 52.2686C34.5114 52.2839 34.5038 52.3043 34.5038 52.3297L34.5114 55.8886C34.5114 55.909 34.5063 55.9192 34.4962 55.9192C34.4859 55.9243 34.4758 55.9192 34.4656 55.9039L32.2738 52.2992C32.2534 52.2585 32.2177 52.2381 32.1668 52.2381H31.4871C31.4616 52.2381 31.4387 52.2482 31.4184 52.2686C31.4031 52.2839 31.3955 52.3043 31.3955 52.3297V57.4924C31.3955 57.5179 31.4031 57.5382 31.4184 57.5535C31.4387 57.5739 31.4616 57.5841 31.4871 57.5841H32.1898C32.2152 57.5841 32.2356 57.5739 32.2509 57.5535C32.2712 57.5382 32.2814 57.5179 32.2814 57.4924L32.2661 53.9335C32.2661 53.9131 32.2712 53.9004 32.2814 53.8953C32.2916 53.8953 32.3017 53.903 32.312 53.9182L34.5114 57.523C34.5318 57.5637 34.5674 57.5841 34.6184 57.5841H35.2981C35.3235 57.5841 35.3439 57.5739 35.3592 57.5535C35.3795 57.5382 35.3897 57.5179 35.3897 57.4924V52.3297C35.3897 52.3043 35.3795 52.2839 35.3592 52.2686C35.3439 52.2482 35.3235 52.2381 35.2981 52.2381H34.5955C34.5699 52.2381 34.547 52.2482 34.5267 52.2686ZM40.0789 52.2686C40.0637 52.2482 40.0433 52.2381 40.0178 52.2381H36.2985C36.273 52.2381 36.2501 52.2482 36.2298 52.2686C36.2145 52.2839 36.2069 52.3043 36.2069 52.3297V52.9178C36.2069 52.9432 36.2145 52.9636 36.2298 52.9789C36.2501 52.9993 36.273 53.0094 36.2985 53.0094H37.6503C37.6757 53.0094 37.6885 53.0222 37.6885 53.0476V57.4924C37.6885 57.5179 37.6987 57.5382 37.719 57.5535C37.7343 57.5739 37.7546 57.5841 37.7801 57.5841H38.4828C38.5082 57.5841 38.5311 57.5739 38.5515 57.5535C38.5668 57.5382 38.5744 57.5179 38.5744 57.4924V53.0476C38.5744 53.0222 38.5871 53.0094 38.6126 53.0094H40.0178C40.0433 53.0094 40.0637 52.9993 40.0789 52.9789C40.0992 52.9636 40.1095 52.9432 40.1095 52.9178V52.3297C40.1095 52.3043 40.0992 52.2839 40.0789 52.2686ZM44.5161 52.9712C44.5365 52.956 44.5467 52.9356 44.5467 52.9101V52.3297C44.5467 52.3043 44.5365 52.2839 44.5161 52.2686C44.5008 52.2482 44.4804 52.2381 44.455 52.2381H41.0183C40.9928 52.2381 40.9699 52.2482 40.9496 52.2686C40.9343 52.2839 40.9267 52.3043 40.9267 52.3297V57.4924C40.9267 57.5179 40.9343 57.5382 40.9496 57.5535C40.9699 57.5739 40.9928 57.5841 41.0183 57.5841H44.455C44.4804 57.5841 44.5008 57.5739 44.5161 57.5535C44.5365 57.5382 44.5467 57.5179 44.5467 57.4924V56.912C44.5467 56.8866 44.5365 56.8662 44.5161 56.8509C44.5008 56.8305 44.4804 56.8204 44.455 56.8204H41.8507C41.8252 56.8204 41.8126 56.8076 41.8126 56.7822V55.3082C41.8126 55.2828 41.8252 55.27 41.8507 55.27H43.5997C43.6251 55.27 43.648 55.2624 43.6684 55.2471C43.6837 55.2267 43.6913 55.2038 43.6913 55.1784V54.5979C43.6913 54.5725 43.6837 54.5496 43.6684 54.5292C43.648 54.5139 43.6251 54.5063 43.5997 54.5063H41.8507C41.8252 54.5063 41.8126 54.4935 41.8126 54.4681V53.04C41.8126 53.0145 41.8252 53.0018 41.8507 53.0018H44.455C44.4804 53.0018 44.5008 52.9916 44.5161 52.9712ZM48.3423 57.5153C48.3626 57.5612 48.3983 57.5841 48.4492 57.5841H49.1824C49.2384 57.5841 49.2664 57.5637 49.2664 57.523C49.2664 57.5128 49.2613 57.4975 49.2511 57.4771L48.1743 55.2547C48.1692 55.2446 48.1692 55.2344 48.1743 55.2242C48.1794 55.214 48.187 55.2089 48.1972 55.2089C48.518 55.1122 48.7674 54.9391 48.9456 54.6896C49.1289 54.4452 49.2206 54.1474 49.2206 53.796C49.2206 53.4906 49.1544 53.2181 49.022 52.9789C48.8896 52.7446 48.7038 52.5614 48.4645 52.429C48.2252 52.3017 47.9502 52.2381 47.6397 52.2381H45.5395C45.514 52.2381 45.4911 52.2482 45.4708 52.2686C45.4555 52.2839 45.4478 52.3043 45.4478 52.3297V57.4924C45.4478 57.5179 45.4555 57.5382 45.4708 57.5535C45.4911 57.5739 45.514 57.5841 45.5395 57.5841H46.2421C46.2675 57.5841 46.2879 57.5739 46.3032 57.5535C46.3236 57.5382 46.3337 57.5179 46.3337 57.4924V55.3235C46.3337 55.298 46.3464 55.2853 46.3719 55.2853H47.2884C47.3087 55.2853 47.324 55.2954 47.3342 55.3158L48.3423 57.5153ZM46.3337 53.04C46.3337 53.0145 46.3464 53.0018 46.3719 53.0018H47.5175C47.7619 53.0018 47.9605 53.0756 48.1132 53.2233C48.2608 53.3709 48.3347 53.5644 48.3347 53.8037C48.3347 54.043 48.2608 54.2339 48.1132 54.3765C47.9605 54.5241 47.7619 54.5979 47.5175 54.5979H46.3719C46.3464 54.5979 46.3337 54.5852 46.3337 54.5598V53.04Z" fill="white" fill-opacity="0.4"/>
<path d="M25.9887 71.3766C25.9734 71.3919 25.9683 71.4071 25.9734 71.4224C25.9836 71.4377 25.9988 71.4453 26.0192 71.4453H29.0206C29.0563 71.4453 29.0868 71.4581 29.1123 71.4835C29.1428 71.5089 29.1581 71.5395 29.1581 71.5752V72.652C29.1581 72.6877 29.1428 72.7182 29.1123 72.7436C29.0868 72.7691 29.0563 72.7818 29.0206 72.7818H24.0412C24.0005 72.7818 23.9674 72.7691 23.9419 72.7436C23.9165 72.7182 23.9037 72.6877 23.9037 72.652V71.6286C23.9037 71.5624 23.9266 71.5064 23.9725 71.4606C24.3339 71.1093 24.7031 70.7249 25.0799 70.3074C25.4566 69.8899 25.6933 69.6302 25.7901 69.5284C25.9938 69.284 26.2025 69.0498 26.4164 68.8258C27.0884 68.0825 27.4245 67.53 27.4245 67.1685C27.4245 66.9089 27.3328 66.695 27.1495 66.527C26.9662 66.3641 26.727 66.2826 26.4316 66.2826C26.1363 66.2826 25.897 66.3641 25.7137 66.527C25.5253 66.695 25.4312 66.9165 25.4312 67.1914V67.4664C25.4312 67.502 25.4184 67.5326 25.393 67.558C25.3675 67.5834 25.337 67.5962 25.3013 67.5962H23.9954C23.9597 67.5962 23.9292 67.5834 23.9037 67.558C23.8732 67.5326 23.8579 67.502 23.8579 67.4664V66.947C23.8833 66.5499 24.0107 66.196 24.2398 65.8855C24.4689 65.58 24.7718 65.3458 25.1486 65.1829C25.5304 65.02 25.9581 64.9385 26.4316 64.9385C26.9561 64.9385 27.4117 65.0378 27.7987 65.2363C28.1857 65.4298 28.4835 65.692 28.6922 66.0229C28.9061 66.359 29.013 66.7281 29.013 67.1303C29.013 67.4409 28.9341 67.7591 28.7762 68.085C28.6235 68.4109 28.3919 68.7622 28.0813 69.1389C27.8521 69.424 27.6052 69.7092 27.3404 69.9943C27.0757 70.2743 26.6811 70.6791 26.1567 71.2086L25.9887 71.3766ZM32.7552 72.904C31.9405 72.904 31.299 72.6774 30.8306 72.2243C30.3571 71.7712 30.1204 71.1526 30.1204 70.3685V67.4435C30.1204 66.6746 30.3571 66.0663 30.8306 65.6182C31.299 65.1651 31.9405 64.9385 32.7552 64.9385C33.5647 64.9385 34.2088 65.1651 34.6874 65.6182C35.1609 66.0663 35.3976 66.6746 35.3976 67.4435V70.3685C35.3976 71.1526 35.1609 71.7712 34.6874 72.2243C34.2088 72.6774 33.5647 72.904 32.7552 72.904ZM32.7552 71.5675C33.0861 71.5675 33.3484 71.4657 33.5418 71.262C33.7404 71.0584 33.8397 70.786 33.8397 70.4449V67.3976C33.8397 67.0616 33.7404 66.7918 33.5418 66.5881C33.3484 66.3844 33.0861 66.2826 32.7552 66.2826C32.4293 66.2826 32.1696 66.3844 31.9762 66.5881C31.7776 66.7918 31.6783 67.0616 31.6783 67.3976V70.4449C31.6783 70.786 31.7776 71.0584 31.9762 71.262C32.1696 71.4657 32.4293 71.5675 32.7552 71.5675ZM38.4983 71.3766C38.483 71.3919 38.4805 71.4071 38.4907 71.4224C38.4958 71.4377 38.5111 71.4453 38.5365 71.4453H41.5379C41.5736 71.4453 41.6041 71.4581 41.6295 71.4835C41.655 71.5089 41.6677 71.5395 41.6677 71.5752V72.652C41.6677 72.6877 41.655 72.7182 41.6295 72.7436C41.6041 72.7691 41.5736 72.7818 41.5379 72.7818H36.5508C36.5152 72.7818 36.4846 72.7691 36.4592 72.7436C36.4338 72.7182 36.421 72.6877 36.421 72.652V71.6286C36.421 71.5624 36.4414 71.5064 36.4821 71.4606C36.8487 71.1093 37.2178 70.7249 37.5895 70.3074C37.9662 69.8899 38.203 69.6302 38.2998 69.5284C38.5085 69.284 38.7198 69.0498 38.9336 68.8258C39.6057 68.0825 39.9417 67.53 39.9417 67.1685C39.9417 66.9089 39.8501 66.695 39.6668 66.527C39.4784 66.3641 39.2366 66.2826 38.9413 66.2826C38.6459 66.2826 38.4067 66.3641 38.2234 66.527C38.0401 66.695 37.9484 66.9165 37.9484 67.1914V67.4664C37.9484 67.502 37.9357 67.5326 37.9103 67.558C37.8848 67.5834 37.8517 67.5962 37.811 67.5962H36.505C36.4694 67.5962 36.4388 67.5834 36.4134 67.558C36.3879 67.5326 36.3752 67.502 36.3752 67.4664V66.947C36.3956 66.5499 36.5203 66.196 36.7494 65.8855C36.9785 65.58 37.284 65.3458 37.6659 65.1829C38.0477 65.02 38.4729 64.9385 38.9413 64.9385C39.4657 64.9385 39.9213 65.0378 40.3083 65.2363C40.7003 65.4298 41.0008 65.692 41.2095 66.0229C41.4182 66.359 41.5226 66.7281 41.5226 67.1303C41.5226 67.4409 41.4463 67.7591 41.2935 68.085C41.1357 68.4109 40.9015 68.7622 40.5909 69.1389C40.3618 69.424 40.1149 69.7092 39.8501 69.9943C39.5853 70.2743 39.1908 70.6791 38.6663 71.2086L38.4983 71.3766ZM47.2505 69.0854C47.3981 69.4215 47.472 69.811 47.472 70.2539C47.472 70.6562 47.4058 71.0253 47.2734 71.3613C47.0952 71.8348 46.7974 72.2039 46.3799 72.4687C45.9623 72.7385 45.4685 72.8735 44.8982 72.8735C44.3382 72.8735 43.8468 72.7335 43.4243 72.4534C43.0017 72.1683 42.6962 71.7865 42.5078 71.3079C42.406 71.0228 42.3474 70.7122 42.3322 70.3761C42.3322 70.2896 42.3755 70.2463 42.462 70.2463H43.7756C43.8621 70.2463 43.9054 70.2896 43.9054 70.3761C43.936 70.6205 43.9767 70.8013 44.0276 70.9184C44.0938 71.1118 44.2033 71.262 44.356 71.369C44.5036 71.4759 44.6819 71.5293 44.8906 71.5293C45.303 71.5293 45.5881 71.3486 45.746 70.9871C45.8478 70.7681 45.8987 70.5111 45.8987 70.2157C45.8987 69.8644 45.8427 69.5793 45.7307 69.3604C45.5627 69.0142 45.2801 68.8411 44.883 68.8411C44.8015 68.8411 44.715 68.864 44.6233 68.9098C44.5368 68.9607 44.4299 69.0295 44.3025 69.116C44.272 69.1364 44.244 69.1465 44.2185 69.1465C44.1727 69.1465 44.1397 69.1262 44.1193 69.0854L43.4625 68.1614C43.4472 68.141 43.4396 68.1155 43.4396 68.085C43.4396 68.0392 43.4548 68.0035 43.4854 67.9781L45.2419 66.4354C45.2572 66.4201 45.2648 66.4048 45.2648 66.3895C45.2597 66.3743 45.247 66.3666 45.2266 66.3666H42.6224C42.5867 66.3666 42.5536 66.3539 42.5231 66.3284C42.4977 66.303 42.4849 66.2725 42.4849 66.2368V65.16C42.4849 65.1243 42.4977 65.0937 42.5231 65.0683C42.5536 65.0428 42.5867 65.0301 42.6224 65.0301H47.2352C47.2759 65.0301 47.3091 65.0428 47.3345 65.0683C47.3599 65.0937 47.3727 65.1243 47.3727 65.16V66.3819C47.3727 66.4379 47.3473 66.4939 47.2963 66.5499L45.8453 67.8788C45.83 67.8941 45.8249 67.9068 45.83 67.917C45.83 67.9322 45.8453 67.9399 45.8758 67.9399C46.5173 68.0672 46.9756 68.449 47.2505 69.0854Z" fill="white" fill-opacity="0.4"/>
<rect x="18.9795" y="51" width="31" height="7" fill="#8073CF"/>
<path d="M26.2216 53.1273C26.1943 52.8845 26.0814 52.6964 25.8831 52.5631C25.6847 52.428 25.4351 52.3604 25.1342 52.3604C24.9188 52.3604 24.7324 52.3946 24.5751 52.463C24.4178 52.5297 24.2955 52.622 24.2083 52.74C24.1228 52.8563 24.0801 52.9888 24.0801 53.1375C24.0801 53.2624 24.1092 53.3701 24.1673 53.4607C24.2271 53.5513 24.3049 53.6274 24.4007 53.689C24.4981 53.7488 24.6024 53.7992 24.7136 53.8403C24.8247 53.8796 24.9316 53.9121 25.0342 53.9377L25.5471 54.0711C25.7147 54.1121 25.8865 54.1677 26.0626 54.2378C26.2387 54.3079 26.402 54.4002 26.5525 54.5148C26.7029 54.6294 26.8243 54.7713 26.9167 54.9405C27.0107 55.1098 27.0577 55.3124 27.0577 55.5484C27.0577 55.8459 26.9808 56.11 26.8269 56.3409C26.6747 56.5717 26.4533 56.7538 26.1626 56.8872C25.8737 57.0205 25.524 57.0872 25.1137 57.0872C24.7204 57.0872 24.3802 57.0248 24.0929 56.9C23.8057 56.7752 23.5808 56.5982 23.4184 56.3691C23.256 56.1383 23.1662 55.8647 23.1491 55.5484H23.9442C23.9596 55.7382 24.0211 55.8963 24.1288 56.0228C24.2383 56.1477 24.3776 56.2408 24.5469 56.3024C24.7179 56.3622 24.9051 56.3922 25.1085 56.3922C25.3325 56.3922 25.5317 56.3571 25.7061 56.287C25.8822 56.2152 26.0207 56.116 26.1216 55.9895C26.2225 55.8613 26.2729 55.7117 26.2729 55.5407C26.2729 55.3851 26.2285 55.2577 26.1396 55.1585C26.0524 55.0594 25.9335 54.9773 25.7831 54.9123C25.6343 54.8474 25.4659 54.7901 25.2778 54.7405L24.6572 54.5712C24.2365 54.4567 23.9031 54.2882 23.6569 54.066C23.4124 53.8437 23.2902 53.5496 23.2902 53.1837C23.2902 52.8811 23.3722 52.6169 23.5364 52.3912C23.7005 52.1655 23.9228 51.9903 24.2032 51.8655C24.4836 51.7389 24.7999 51.6757 25.1521 51.6757C25.5078 51.6757 25.8215 51.7381 26.0934 51.8629C26.367 51.9877 26.5824 52.1595 26.7397 52.3784C26.897 52.5955 26.9791 52.8452 26.9859 53.1273H26.2216ZM29.7821 53.0606V53.6761H27.6303V53.0606H29.7821ZM28.2074 52.1168H28.9742V55.8433C28.9742 55.9921 28.9964 56.1041 29.0409 56.1793C29.0853 56.2528 29.1426 56.3033 29.2127 56.3306C29.2845 56.3563 29.3623 56.3691 29.4461 56.3691C29.5077 56.3691 29.5615 56.3648 29.6077 56.3563C29.6538 56.3477 29.6898 56.3409 29.7154 56.3357L29.8539 56.9692C29.8094 56.9863 29.7462 57.0034 29.6641 57.0205C29.582 57.0393 29.4794 57.0496 29.3563 57.0513C29.1546 57.0547 28.9665 57.0188 28.7921 56.9436C28.6177 56.8683 28.4766 56.7521 28.3689 56.5948C28.2612 56.4375 28.2074 56.24 28.2074 56.0023V52.1168ZM31.7768 57.0872C31.5272 57.0872 31.3015 57.041 31.0997 56.9487C30.8979 56.8547 30.7381 56.7187 30.6201 56.5409C30.5038 56.3631 30.4457 56.1451 30.4457 55.8869C30.4457 55.6646 30.4884 55.4817 30.5739 55.3381C30.6594 55.1944 30.7748 55.0807 30.9202 54.997C31.0655 54.9132 31.2279 54.8499 31.4075 54.8072C31.587 54.7644 31.7699 54.7319 31.9563 54.7097C32.1923 54.6824 32.3838 54.6601 32.5308 54.643C32.6779 54.6242 32.7847 54.5943 32.8514 54.5533C32.9181 54.5122 32.9514 54.4455 32.9514 54.3532V54.3353C32.9514 54.1113 32.8882 53.9377 32.7616 53.8146C32.6368 53.6915 32.4505 53.63 32.2025 53.63C31.9443 53.63 31.7409 53.6872 31.5921 53.8018C31.4451 53.9147 31.3434 54.0403 31.2869 54.1788L30.5662 54.0147C30.6517 53.7753 30.7765 53.5821 30.9407 53.4351C31.1065 53.2863 31.2972 53.1786 31.5126 53.1119C31.7281 53.0435 31.9546 53.0093 32.1923 53.0093C32.3496 53.0093 32.5163 53.0281 32.6924 53.0657C32.8702 53.1016 33.0361 53.1683 33.1899 53.2658C33.3455 53.3632 33.4729 53.5026 33.5721 53.6838C33.6713 53.8634 33.7208 54.0967 33.7208 54.384V57H32.9719V56.4614H32.9412C32.8916 56.5606 32.8172 56.658 32.718 56.7538C32.6189 56.8495 32.4915 56.929 32.3359 56.9923C32.1803 57.0556 31.9939 57.0872 31.7768 57.0872ZM31.9435 56.4717C32.1555 56.4717 32.3367 56.4298 32.4872 56.346C32.6394 56.2622 32.7548 56.1528 32.8334 56.0177C32.9138 55.8809 32.954 55.7347 32.954 55.5792V55.0713C32.9266 55.0987 32.8736 55.1243 32.795 55.1483C32.718 55.1705 32.63 55.1902 32.5308 55.2073C32.4316 55.2227 32.335 55.2372 32.241 55.2509C32.147 55.2628 32.0683 55.2731 32.005 55.2816C31.8563 55.3005 31.7204 55.3321 31.5973 55.3765C31.4759 55.421 31.3784 55.4851 31.3049 55.5689C31.2331 55.651 31.1972 55.7604 31.1972 55.8972C31.1972 56.087 31.2673 56.2306 31.4075 56.328C31.5477 56.4238 31.7263 56.4717 31.9435 56.4717ZM34.7422 57V53.0606H35.4834V53.6864H35.5245C35.5963 53.4744 35.7228 53.3077 35.904 53.1863C36.087 53.0632 36.2939 53.0016 36.5247 53.0016C36.5726 53.0016 36.629 53.0033 36.694 53.0067C36.7607 53.0102 36.8128 53.0144 36.8504 53.0196V53.7531C36.8196 53.7445 36.7649 53.7351 36.6863 53.7249C36.6076 53.7129 36.529 53.7069 36.4503 53.7069C36.2691 53.7069 36.1075 53.7454 35.9656 53.8223C35.8254 53.8976 35.7143 54.0027 35.6322 54.1378C35.5501 54.2711 35.5091 54.4233 35.5091 54.5943V57H34.7422ZM39.5857 53.0606V53.6761H37.4339V53.0606H39.5857ZM38.011 52.1168H38.7778V55.8433C38.7778 55.9921 38.8 56.1041 38.8445 56.1793C38.8889 56.2528 38.9462 56.3033 39.0163 56.3306C39.0881 56.3563 39.1659 56.3691 39.2497 56.3691C39.3113 56.3691 39.3651 56.3648 39.4113 56.3563C39.4575 56.3477 39.4934 56.3409 39.519 56.3357L39.6575 56.9692C39.613 56.9863 39.5498 57.0034 39.4677 57.0205C39.3856 57.0393 39.2831 57.0496 39.1599 57.0513C38.9582 57.0547 38.7701 57.0188 38.5957 56.9436C38.4213 56.8683 38.2802 56.7521 38.1725 56.5948C38.0648 56.4375 38.011 56.24 38.011 56.0023V52.1168ZM42.9294 55.3663V53.0606H43.6988V57H42.9448V56.3178H42.9038C42.8132 56.5281 42.6678 56.7033 42.4678 56.8436C42.2694 56.982 42.0224 57.0513 41.7266 57.0513C41.4735 57.0513 41.2495 56.9957 41.0546 56.8846C40.8614 56.7717 40.7092 56.605 40.5981 56.3845C40.4887 56.1639 40.434 55.8912 40.434 55.5663V53.0606H41.2008V55.474C41.2008 55.7424 41.2752 55.9562 41.4239 56.1152C41.5727 56.2742 41.7659 56.3537 42.0036 56.3537C42.1472 56.3537 42.29 56.3178 42.4319 56.246C42.5755 56.1742 42.6943 56.0656 42.7884 55.9203C42.8841 55.7749 42.9311 55.5903 42.9294 55.3663ZM44.7292 58.4773V53.0606H45.4781V53.6992H45.5422C45.5867 53.6171 45.6508 53.5223 45.7346 53.4145C45.8184 53.3068 45.9346 53.2128 46.0834 53.1324C46.2321 53.0503 46.4288 53.0093 46.6733 53.0093C46.9913 53.0093 47.2751 53.0897 47.5247 53.2504C47.7744 53.4111 47.9701 53.6428 48.1121 53.9454C48.2557 54.2481 48.3275 54.6123 48.3275 55.038C48.3275 55.4637 48.2565 55.8288 48.1146 56.1331C47.9727 56.4358 47.7778 56.6692 47.5299 56.8333C47.282 56.9957 46.999 57.0769 46.681 57.0769C46.4416 57.0769 46.2458 57.0368 46.0936 56.9564C45.9432 56.876 45.8252 56.782 45.7397 56.6743C45.6542 56.5666 45.5884 56.4708 45.5422 56.387H45.4961V58.4773H44.7292ZM45.4807 55.0303C45.4807 55.3073 45.5209 55.5501 45.6012 55.7587C45.6816 55.9673 45.7978 56.1306 45.95 56.2485C46.1022 56.3648 46.2886 56.4229 46.5091 56.4229C46.7382 56.4229 46.9297 56.3622 47.0836 56.2408C47.2375 56.1177 47.3538 55.951 47.4324 55.7407C47.5128 55.5304 47.553 55.2936 47.553 55.0303C47.553 54.7704 47.5136 54.537 47.435 54.3301C47.358 54.1233 47.2418 53.96 47.0862 53.8403C46.9323 53.7206 46.7399 53.6607 46.5091 53.6607C46.2868 53.6607 46.0988 53.718 45.9449 53.8326C45.7927 53.9471 45.6773 54.107 45.5986 54.3122C45.52 54.5174 45.4807 54.7567 45.4807 55.0303Z" fill="#1802A9"/>
<rect x="30.1157" y="9" width="11" height="10" fill="#8073CF"/>
<path d="M36.9901 13.5864C36.9734 13.3774 36.8951 13.2144 36.755 13.0974C36.6171 12.9804 36.4071 12.9219 36.125 12.9219C35.9453 12.9219 35.7979 12.9438 35.683 12.9877C35.5701 13.0295 35.4866 13.087 35.4322 13.1601C35.3779 13.2332 35.3497 13.3168 35.3476 13.4109C35.3434 13.4882 35.357 13.5582 35.3883 13.6209C35.4218 13.6815 35.474 13.7369 35.5451 13.787C35.6161 13.8351 35.707 13.879 35.8178 13.9187C35.9285 13.9584 36.0602 13.9939 36.2128 14.0253L36.7394 14.1381C37.0946 14.2133 37.3987 14.3126 37.6516 14.4359C37.9044 14.5592 38.1113 14.7044 38.2722 14.8716C38.4331 15.0367 38.5512 15.2227 38.6264 15.4296C38.7038 15.6365 38.7435 15.8622 38.7455 16.1067C38.7435 16.5288 38.6379 16.8862 38.4289 17.1787C38.22 17.4713 37.9211 17.6938 37.5324 17.8464C37.1458 17.999 36.6809 18.0752 36.1375 18.0752C35.5796 18.0752 35.0926 17.9927 34.6768 17.8276C34.263 17.6625 33.9412 17.4086 33.7113 17.0659C33.4835 16.7211 33.3686 16.2801 33.3665 15.7431H35.0216C35.032 15.9395 35.0811 16.1046 35.1689 16.2383C35.2567 16.3721 35.38 16.4734 35.5388 16.5424C35.6997 16.6114 35.8909 16.6458 36.1124 16.6458C36.2984 16.6458 36.4541 16.6228 36.5795 16.5769C36.7049 16.5309 36.8 16.4672 36.8648 16.3857C36.9295 16.3042 36.963 16.2112 36.9651 16.1067C36.963 16.0085 36.9306 15.9228 36.8679 15.8496C36.8073 15.7744 36.707 15.7075 36.567 15.649C36.427 15.5884 36.2378 15.532 35.9996 15.4797L35.3601 15.3418C34.7917 15.2185 34.3435 15.0127 34.0154 14.7243C33.6894 14.4338 33.5274 14.0378 33.5295 13.5363C33.5274 13.1288 33.6361 12.7725 33.8555 12.4674C34.077 12.1602 34.3832 11.9209 34.774 11.7495C35.1668 11.5782 35.6172 11.4925 36.125 11.4925C36.6432 11.4925 37.0915 11.5792 37.4697 11.7527C37.848 11.9261 38.1395 12.1706 38.3443 12.4862C38.5512 12.7996 38.6557 13.1664 38.6578 13.5864H36.9901Z" fill="#1802A9"/>
</g>
<defs>
<clipPath id="clip0_682_20652">
<rect width="71.7892" height="93.1732" fill="white"/>
</clipPath>
</defs>
</svg>
