<svg width="179" height="237" viewBox="0 0 179 237" fill="none" xmlns="http://www.w3.org/2000/svg">
<g opacity="0.5">
<path d="M112.395 129.576C122.149 149.155 146.05 156.998 165.779 147.094C185.509 137.19 193.595 113.289 183.841 93.7096C174.087 74.1304 150.186 66.2873 130.456 76.1915C110.727 86.0958 102.641 109.997 112.395 129.576Z" stroke="#49CED9" stroke-width="3" stroke-miterlimit="10"/>
<path d="M85.2913 97.922C95.3111 117.368 119.319 124.887 138.914 114.718C158.509 104.549 166.271 80.5409 156.251 61.0954C146.231 41.6499 122.224 34.1301 102.629 44.2995C83.0336 54.4689 75.2714 78.4765 85.2913 97.922Z" fill="#49CED9"/>
<path d="M15.333 144.852C12.6248 155.399 18.9121 166.077 29.3761 168.702C39.8402 171.328 50.5184 164.906 53.2267 154.36C55.9349 143.813 49.6476 133.135 39.1835 130.509C28.7195 127.884 18.0413 134.305 15.333 144.852Z" fill="#FAD141"/>
</g>
</svg>
