<svg width="79" height="80" viewBox="0 0 79 80" fill="none" xmlns="http://www.w3.org/2000/svg">
<path d="M8.10552 5.46924H0V0L8.10552 5.46924Z" fill="#0F9B74"/>
<path d="M74.0957 79.5381L78.9992 78.9933L74.0957 74.0898V79.5381Z" fill="#0F9B74"/>
<path d="M79 78.9928L0 0H39.7724L79 39.224V78.9928Z" fill="#0CDFA3"/>
<path d="M37.1601 9.33453C38.08 10.2577 38.5492 11.13 38.5678 11.9514C38.5997 12.7728 38.2678 13.5301 37.5721 14.2233C37.2576 14.5366 36.9099 14.7898 36.529 14.9827C36.1547 15.169 35.7438 15.2651 35.2964 15.271C34.8624 15.2769 34.4051 15.1659 33.9247 14.938C33.4444 14.7101 32.9442 14.3352 32.4243 13.8134L31.7744 13.1612L29.2256 15.7008L27.7158 14.1856L34.8805 7.04666L37.1601 9.33453ZM35.8359 10.4941L35.146 9.80169L33.0187 11.9214L33.5186 12.4231C33.8052 12.7108 34.0886 12.9216 34.3689 13.0557C34.6491 13.1897 34.9261 13.2336 35.2 13.1874C35.4739 13.1411 35.7379 12.9914 35.9921 12.7381C36.3467 12.3848 36.5109 12.0278 36.4848 11.6672C36.4655 11.2999 36.2491 10.9088 35.8359 10.4941ZM41.5829 22.6037C41.128 23.057 40.66 23.3967 40.1788 23.6229C39.7043 23.8557 39.2266 23.9784 38.7458 23.9909C38.2783 24.0034 37.8177 23.9091 37.364 23.7079C36.917 23.5001 36.4868 23.1888 36.0735 22.7741C35.6936 22.3928 35.4005 21.9782 35.1943 21.5305C35.0015 21.0827 34.9088 20.6218 34.9163 20.1477C34.9306 19.6669 35.0483 19.183 35.2695 18.6959C35.4974 18.2155 35.8388 17.7487 36.2937 17.2954C36.9025 16.6889 37.5209 16.286 38.149 16.0868C38.7837 15.8809 39.4114 15.8687 40.0321 16.0501C40.6528 16.2315 41.2365 16.5965 41.7831 17.145C42.2963 17.6601 42.6392 18.225 42.8117 18.8397C42.9842 19.4543 42.9731 20.0854 42.7783 20.7327C42.5901 21.3735 42.1917 21.9971 41.5829 22.6037ZM37.8135 18.8207C37.4523 19.1806 37.1845 19.5207 37.0103 19.8409C36.8495 20.1612 36.7889 20.4682 36.8284 20.7621C36.8746 21.0493 37.031 21.3267 37.2977 21.5943C37.5643 21.8619 37.8378 22.016 38.1182 22.0566C38.4119 22.0972 38.7159 22.0343 39.03 21.8679C39.3575 21.7015 39.7019 21.4384 40.0632 21.0784C40.4244 20.7185 40.6854 20.3784 40.8463 20.0582C41.0138 19.7446 41.0744 19.4442 41.0282 19.157C40.982 18.8698 40.8256 18.5924 40.5589 18.3248C40.1657 17.9301 39.7419 17.7791 39.2876 17.8718C38.8467 17.9644 38.3554 18.2808 37.8135 18.8207ZM48.6834 24.0703C49.2967 24.6857 49.5525 25.4241 49.4507 26.2853C49.3557 27.1399 48.8433 28.0304 47.9134 28.957C47.2913 29.5769 46.6761 30.0098 46.068 30.2558C45.4666 30.4951 44.9022 30.5642 44.3749 30.4631C43.8475 30.362 43.3772 30.104 42.9639 29.6893C42.704 29.4284 42.5108 29.1676 42.3844 28.9069C42.2646 28.653 42.1916 28.4058 42.1653 28.1653C42.139 27.9249 42.1361 27.6945 42.1566 27.4742L42.0766 27.3939C41.9761 27.5473 41.8623 27.7007 41.7352 27.854C41.6147 28.0007 41.4876 28.1407 41.3538 28.2741L39.1462 30.4737L37.6564 28.9786L45.5436 21.1198L46.7534 22.3339L46.2509 23.2545L46.3209 23.3248C46.568 23.2785 46.8218 23.2656 47.0822 23.2861C47.3493 23.2999 47.6163 23.3672 47.8832 23.4879C48.1567 23.6152 48.4235 23.8094 48.6834 24.0703ZM47.0094 24.7784C46.7494 24.5175 46.4893 24.3635 46.2289 24.3163C45.9686 24.2691 45.6914 24.3186 45.3973 24.465C45.1166 24.6114 44.809 24.8446 44.4745 25.1645L44.314 25.3245C43.9594 25.6778 43.6917 26.0112 43.5109 26.3247C43.3367 26.6316 43.266 26.9286 43.2989 27.2158C43.3318 27.503 43.4849 27.7837 43.7582 28.058C43.9848 28.2855 44.235 28.4094 44.5087 28.43C44.7825 28.4505 45.0798 28.3742 45.4006 28.2012C45.7214 28.0282 46.0591 27.765 46.4137 27.4117C46.9489 26.8785 47.2669 26.3949 47.3679 25.961C47.4822 25.5272 47.3627 25.133 47.0094 24.7784ZM56.88 32.497L51.4011 37.9562L50.2613 36.8123L50.7638 35.9117L50.6838 35.8314C50.3831 35.9043 50.0826 35.9105 49.7822 35.8498C49.4952 35.7892 49.2183 35.6785 48.9515 35.5178C48.678 35.3637 48.4279 35.1729 48.2013 34.9455C47.8146 34.5575 47.5449 34.1463 47.3921 33.712C47.2393 33.2777 47.2301 32.8336 47.3645 32.3797C47.4988 31.9259 47.8002 31.4657 48.2685 30.9991L51.8407 27.4396L53.3305 28.9348L50.1295 32.1243C49.7415 32.5109 49.5171 32.8744 49.4564 33.2149C49.3957 33.5553 49.5187 33.8794 49.8253 34.1872C50.1319 34.4949 50.4388 34.6624 50.7459 34.6896C51.0597 34.7236 51.3837 34.6407 51.718 34.441C52.0589 34.2479 52.4233 33.9581 52.8113 33.5715L55.3902 31.0019L56.88 32.497ZM54.453 41.019L52.9632 39.5239L60.5894 31.925L62.0792 33.4201L54.453 41.019ZM63.8385 39.2598C64.5717 39.9957 64.9711 40.7176 65.0366 41.4255C65.1154 42.1335 64.8271 42.8141 64.1715 43.4674L60.5189 47.1068L59.4791 46.0632L59.9317 45.0323L59.8917 44.9922C59.5444 45.0316 59.2238 45.0311 58.9301 44.9905C58.643 44.9566 58.3661 44.8592 58.0992 44.6985C57.8324 44.5511 57.5457 44.3236 57.2391 44.0158C56.9191 43.6947 56.6894 43.3437 56.5498 42.9629C56.4236 42.582 56.4143 42.1913 56.5219 41.7909C56.6361 41.3837 56.8906 40.9835 57.2853 40.5903C57.8673 40.0103 58.4987 39.7878 59.1796 39.9226C59.8672 40.0507 60.6309 40.5095 61.4709 41.2989L62.4509 42.2222L62.6917 41.9823C62.9794 41.6956 63.1134 41.4087 63.0939 41.1216C63.0811 40.8411 62.9413 40.567 62.6747 40.2994C62.4081 40.0319 62.108 39.811 61.7744 39.6367C61.4475 39.4559 61.1006 39.295 60.7336 39.1541L61.2571 37.6525C61.7043 37.7936 62.148 37.998 62.5882 38.2659C63.0351 38.5405 63.4519 38.8718 63.8385 39.2598ZM60.9779 42.5301C60.4846 42.0618 60.0643 41.8139 59.7171 41.7866C59.37 41.7593 59.0659 41.8756 58.805 42.1355C58.5776 42.3622 58.4803 42.5924 58.5133 42.8262C58.553 43.0533 58.6794 43.2739 58.8927 43.4879C59.2127 43.809 59.5763 43.9866 59.9836 44.0208C60.3975 44.0482 60.7785 43.8886 61.1263 43.542L61.5779 43.0921L60.9779 42.5301ZM70.6726 46.1386C70.7459 46.2122 70.8292 46.3025 70.9225 46.4095C71.0158 46.5165 71.0858 46.6068 71.1324 46.6803L69.6176 47.9697C69.5843 47.9096 69.5243 47.8293 69.4377 47.729C69.3644 47.6287 69.2945 47.5451 69.2278 47.4782C69.0345 47.2842 68.8211 47.1236 68.5876 46.9963C68.3608 46.8623 68.1206 46.7751 67.8669 46.7346C67.6199 46.7007 67.3627 46.7303 67.0955 46.8233C66.8415 46.9163 66.5841 47.0928 66.3232 47.3528L63.5336 50.1324L62.0439 48.6372L67.5227 43.1781L68.6525 44.312L67.9493 45.4526L68.0193 45.5228C68.3133 45.4432 68.6172 45.407 68.931 45.4143C69.2449 45.4215 69.5519 45.4822 69.8522 45.5962C70.1592 45.717 70.4326 45.8978 70.6726 46.1386Z" fill="white"/>
</svg>
