<svg width="144" height="124" viewBox="0 0 144 124" fill="none" xmlns="http://www.w3.org/2000/svg">
<path d="M138.082 123.186H143.386L138.082 117.734V123.186Z" fill="#209A56"/>
<path d="M143.501 123.186L0.0351562 0.0761719H72.2629L143.501 61.2068V123.186Z" fill="#27C26C"/>
<path d="M68.2013 9.7172C69.0563 10.4773 69.5958 11.171 69.8198 11.7983C70.0438 12.4256 69.8876 13.0413 69.3512 13.6456C69.1387 13.8848 68.906 14.0687 68.653 14.197C68.4 14.3253 68.1429 14.3858 67.8819 14.3786C67.6269 14.3766 67.3788 14.3006 67.1377 14.1505L67.0978 14.1953C67.2759 14.4286 67.4038 14.6761 67.4816 14.9379C67.5594 15.1997 67.5588 15.4775 67.4799 15.7713C67.4009 16.065 67.2127 16.3794 66.9153 16.7144C66.57 17.1033 66.1769 17.3532 65.736 17.4643C65.3063 17.5747 64.8487 17.5479 64.3631 17.3839C63.8829 17.2139 63.4006 16.9136 62.9163 16.4831L60.5217 14.3543L66.2103 7.94724L68.2013 9.7172ZM66.0991 12.3922C66.4937 12.743 66.8215 12.9221 67.0825 12.9293C67.3495 12.9419 67.5892 12.8285 67.8017 12.5892C68.0195 12.344 68.0865 12.0878 68.0027 11.8206C67.9189 11.5535 67.6827 11.2472 67.2941 10.9017L66.5766 10.2639L65.3098 11.6906L66.0991 12.3922ZM64.3538 12.7675L62.8719 14.4365L63.7598 15.2258C64.1663 15.5873 64.5194 15.762 64.8189 15.7499C65.1238 15.7319 65.393 15.5913 65.6267 15.3281C65.7701 15.1666 65.8591 14.9941 65.8936 14.8107C65.934 14.6326 65.8998 14.4362 65.7908 14.2215C65.6818 14.0069 65.4838 13.772 65.1968 13.5169L64.3538 12.7675ZM72.8875 16.42C73.3419 16.8239 73.6535 17.2562 73.8224 17.7167C73.9972 18.1825 74.0282 18.6597 73.9154 19.1482C73.8027 19.6366 73.5338 20.1202 73.1089 20.5988L72.5353 21.2449L69.3784 18.4384C69.0557 18.8259 68.9034 19.2204 68.9215 19.6218C68.9455 20.0285 69.1458 20.3993 69.5225 20.7342C69.8394 21.0159 70.153 21.2411 70.4632 21.4098C70.7787 21.5726 71.1324 21.7104 71.5243 21.8233L70.6081 22.8552C70.2627 22.7623 69.9315 22.6231 69.6147 22.4378C69.2985 22.2637 68.9521 22.0093 68.5754 21.6744C68.0851 21.2386 67.7313 20.7635 67.514 20.2491C67.3019 19.7288 67.253 19.1875 67.367 18.6253C67.4811 18.063 67.7878 17.5007 68.287 16.9384C68.7969 16.3641 69.3149 15.9736 69.8408 15.7667C70.3781 15.5593 70.9051 15.514 71.4218 15.6308C71.9386 15.7477 72.4271 16.0107 72.8875 16.42ZM72.052 17.3792C71.7949 17.1506 71.5053 17.043 71.1831 17.0564C70.867 17.0751 70.5373 17.2476 70.194 17.574L72.0685 19.2403C72.2437 19.0429 72.3645 18.8345 72.4309 18.6152C72.5032 18.4012 72.5105 18.1882 72.4526 17.9762C72.3948 17.7642 72.2612 17.5652 72.052 17.3792ZM76.4463 25.9098C76.1542 26.2388 75.8268 26.4509 75.4642 26.546C75.1069 26.6352 74.7197 26.6014 74.3026 26.4446C73.8854 26.2879 73.4467 26.0049 72.9863 25.5956C72.6455 25.2926 72.3738 25.0083 72.1711 24.7425C71.9631 24.4827 71.7817 24.193 71.6269 23.8733L72.6069 22.7696C72.7637 23.1231 72.9601 23.4743 73.196 23.8231C73.4318 24.172 73.6664 24.4501 73.8996 24.6573C74.1626 24.8912 74.3825 25.0171 74.5592 25.035C74.7418 25.0582 74.8889 25.007 75.0005 24.8814C75.0748 24.7976 75.1173 24.7016 75.1279 24.5933C75.1445 24.4903 75.1152 24.3304 75.0401 24.1138C74.965 23.8972 74.8274 23.5822 74.6274 23.1689C74.4393 22.7662 74.3024 22.4143 74.2166 22.1133C74.1361 21.8063 74.1277 21.5205 74.1914 21.256C74.2604 20.9855 74.4171 20.7127 74.6614 20.4375C75.0651 19.9828 75.5442 19.7986 76.0988 19.8849C76.6534 19.9712 77.2237 20.2747 77.8096 20.7956C78.1145 21.0667 78.378 21.3544 78.5999 21.6587C78.8218 21.9631 79.0182 22.3142 79.189 22.7123L77.9329 23.3137C77.784 22.9994 77.6312 22.7136 77.4744 22.4565C77.3229 22.1933 77.1365 21.9634 76.9153 21.7668C76.718 21.5914 76.5446 21.4854 76.3952 21.4489C76.2517 21.4177 76.1322 21.4559 76.0365 21.5636C75.9675 21.6414 75.9277 21.7344 75.9171 21.8428C75.9178 21.9504 75.958 22.1039 76.0378 22.3033C76.1235 22.5079 76.2568 22.7977 76.4375 23.1724C76.6176 23.5359 76.7535 23.8708 76.8453 24.1772C76.9423 24.4775 76.9623 24.7683 76.9053 25.0494C76.8596 25.3299 76.7066 25.6167 76.4463 25.9098ZM79.1278 29.1446C79.2773 29.2774 79.434 29.39 79.5981 29.4824C79.7622 29.5747 79.9316 29.6611 80.1063 29.7415L79.2219 30.7375C79.0253 30.6698 78.8008 30.5612 78.5484 30.4117C78.2966 30.2735 78.0452 30.0928 77.794 29.8696C77.5011 29.6091 77.2805 29.3274 77.1323 29.0244C76.9901 28.7267 76.9538 28.4001 77.0234 28.0445C77.1043 27.6883 77.3307 27.3008 77.7025 26.882L79.7979 24.522L79.1611 23.9559L79.663 23.3906L80.7968 23.5957L82.0987 22.9066L82.9507 23.664L82.0265 24.7049L83.3987 25.9247L82.5064 26.9298L81.1342 25.7099L79.0388 28.07C78.8741 28.2554 78.8031 28.4438 78.8258 28.6352C78.8537 28.8206 78.9544 28.9904 79.1278 29.1446ZM83.5809 34.8534L86.0655 28.2955L87.4646 29.5393L85.9285 33.1672C85.8688 33.3068 85.7978 33.447 85.7155 33.5879C85.6391 33.7341 85.5565 33.8694 85.4675 33.9937C85.3845 34.1233 85.3036 34.2386 85.2246 34.3397L85.2604 34.3715C85.3567 34.2752 85.4643 34.1781 85.5831 34.0804C85.702 33.9827 85.8238 33.8876 85.9487 33.7952C86.0848 33.7021 86.2186 33.6177 86.3501 33.5419L89.7695 31.5883L91.1686 32.8321L84.9531 36.0733L83.5809 34.8534ZM93.9678 35.1438C94.6255 35.7285 95.0002 36.3185 95.0921 36.914C95.1952 37.5087 94.9865 38.0993 94.466 38.6855L91.5659 41.9519L90.6332 41.1227L90.9627 40.2275L90.9268 40.1956C90.6352 40.2468 90.3643 40.2628 90.1139 40.2436C89.8695 40.2297 89.6304 40.1616 89.3965 40.0394C89.1634 39.9285 88.9093 39.7508 88.6343 39.5063C88.3473 39.2511 88.135 38.9661 87.9974 38.6511C87.8711 38.3355 87.8431 38.0055 87.9134 37.6613C87.989 37.311 88.1835 36.9594 88.4969 36.6064C88.959 36.086 89.4813 35.8652 90.0638 35.9442C90.6516 36.0172 91.3208 36.3659 92.0715 36.9904L92.9474 37.7209L93.1386 37.5056C93.367 37.2483 93.4656 36.9987 93.4343 36.7568C93.409 36.5203 93.2767 36.2957 93.0376 36.0831C92.7984 35.8705 92.5334 35.6991 92.2424 35.5689C91.9568 35.4327 91.6552 35.3145 91.3377 35.2142L91.703 33.9172C92.0882 34.0135 92.4738 34.1636 92.8597 34.3675C93.2517 34.5768 93.621 34.8355 93.9678 35.1438ZM91.7182 38.0571C91.2771 37.6864 90.9091 37.4984 90.6142 37.4932C90.3193 37.4879 90.0683 37.602 89.8611 37.8353C89.6805 38.0387 89.6102 38.2384 89.6501 38.4344C89.6953 38.6245 89.8136 38.8045 90.0049 38.9746C90.2919 39.2298 90.6084 39.3613 90.9544 39.3692C91.3058 39.3711 91.6196 39.2165 91.8957 38.9054L92.2543 38.5016L91.7182 38.0571ZM94.2701 44.3558L92.9338 43.1679L98.9888 36.348L100.325 37.5359L94.2701 44.3558ZM104.51 44.6919L100.16 49.5915L99.1372 48.6826L99.5155 47.895L99.4438 47.8312C99.1934 47.9083 98.9397 47.929 98.6826 47.8932C98.4369 47.8567 98.1971 47.7773 97.9633 47.6551C97.7242 47.5388 97.503 47.3903 97.2997 47.2096C96.9529 46.9013 96.7037 46.5675 96.5522 46.208C96.4006 45.8485 96.37 45.4733 96.4602 45.0825C96.5504 44.6917 96.7814 44.287 97.1532 43.8682L99.9895 40.6736L101.326 41.8616L98.7843 44.7241C98.4762 45.0711 98.3053 45.3901 98.2715 45.6812C98.2377 45.9723 98.3584 46.2401 98.6334 46.4846C98.9084 46.7291 99.1765 46.855 99.4375 46.8622C99.7045 46.8748 99.9741 46.788 100.246 46.6019C100.525 46.421 100.818 46.1571 101.126 45.8102L103.173 43.504L104.51 44.6919ZM108.008 47.6416C108.463 48.0456 108.774 48.4778 108.943 48.9383C109.118 49.4042 109.149 49.8813 109.036 50.3698C108.924 50.8583 108.655 51.3418 108.23 51.8204L107.656 52.4665L104.499 49.6601C104.177 50.0476 104.024 50.442 104.042 50.8434C104.066 51.2501 104.267 51.6209 104.643 51.9558C104.96 52.2375 105.274 52.4627 105.584 52.6314C105.9 52.7942 106.253 52.932 106.645 53.0449L105.729 54.0769C105.384 53.9839 105.052 53.8447 104.736 53.6594C104.419 53.4853 104.073 53.2309 103.696 52.896C103.206 52.4602 102.852 51.9851 102.635 51.4708C102.423 50.9505 102.374 50.4092 102.488 49.8469C102.602 49.2847 102.909 48.7224 103.408 48.16C103.918 47.5857 104.436 47.1952 104.962 46.9884C105.499 46.7809 106.026 46.7356 106.543 46.8525C107.059 46.9693 107.548 47.2324 108.008 47.6416ZM107.173 48.6008C106.916 48.3722 106.626 48.2646 106.304 48.278C105.988 48.2967 105.658 48.4692 105.315 48.7956L107.189 50.4619C107.365 50.2645 107.485 50.0561 107.552 49.8368C107.624 49.6228 107.631 49.4098 107.573 49.1978C107.516 48.9858 107.382 48.7868 107.173 48.6008ZM115.355 56.1319L114.199 55.1034L110.741 58.9979L109.404 57.8099L112.862 53.9154L112.127 53.2617L112.7 52.6156L113.755 52.9104L114.073 52.5514C114.445 52.1327 114.801 51.8708 115.14 51.7657C115.491 51.6599 115.837 51.6735 116.179 51.8063C116.527 51.9445 116.878 52.1703 117.23 52.4839C117.493 52.7178 117.711 52.9487 117.883 53.1766C118.061 53.4098 118.192 53.6118 118.276 53.7826L117.066 54.4578C116.991 54.3375 116.905 54.2122 116.806 54.082C116.713 53.9458 116.589 53.8086 116.434 53.6704C116.248 53.5056 116.06 53.4402 115.87 53.4741C115.685 53.5134 115.516 53.6197 115.362 53.7932L115.091 54.0983L116.248 55.1268L115.355 56.1319ZM119.289 62.1976C118.928 62.6044 118.55 62.9158 118.154 63.1319C117.765 63.3533 117.368 63.4816 116.962 63.517C116.568 63.5516 116.173 63.4955 115.779 63.3488C115.391 63.196 115.011 62.9548 114.641 62.6253C114.3 62.3223 114.031 61.9868 113.833 61.6187C113.647 61.2499 113.545 60.8648 113.527 60.4634C113.514 60.056 113.589 59.6406 113.751 59.2172C113.919 58.7992 114.183 58.3868 114.545 57.98C115.028 57.4356 115.53 57.063 116.051 56.8622C116.576 56.6553 117.106 56.6127 117.64 56.7342C118.174 56.8557 118.687 57.1344 119.177 57.5702C119.637 57.9795 119.956 58.4396 120.134 58.9506C120.311 59.4616 120.334 59.996 120.203 60.5536C120.077 61.1052 119.772 61.6532 119.289 62.1976ZM115.908 59.1918C115.621 59.5149 115.412 59.8163 115.281 60.0961C115.162 60.3753 115.126 60.6381 115.175 60.8847C115.229 61.1252 115.375 61.3518 115.615 61.5644C115.854 61.777 116.093 61.8933 116.332 61.9132C116.582 61.9324 116.836 61.8635 117.093 61.7066C117.361 61.5491 117.639 61.3088 117.926 60.9857C118.212 60.6627 118.416 60.3616 118.535 60.0824C118.661 59.8086 118.696 59.5514 118.642 59.3108C118.589 59.0703 118.442 58.8437 118.203 58.6311C117.85 58.3175 117.484 58.2116 117.105 58.3133C116.737 58.4144 116.338 58.7073 115.908 59.1918ZM125.375 63.0805C125.441 63.139 125.516 63.2111 125.601 63.2968C125.685 63.3825 125.749 63.4553 125.792 63.5151L124.578 64.6837C124.547 64.6345 124.492 64.5697 124.413 64.4893C124.346 64.4082 124.283 64.3411 124.223 64.288C124.05 64.1338 123.861 64.009 123.657 63.9133C123.459 63.8117 123.251 63.7502 123.034 63.729C122.824 63.7131 122.608 63.7514 122.387 63.8438C122.177 63.9356 121.969 64.0981 121.761 64.3314L119.547 66.826L118.21 65.6381L122.56 60.7386L123.574 61.6395L123.038 62.6405L123.101 62.6963C123.345 62.6138 123.6 62.5676 123.866 62.5575C124.132 62.5475 124.394 62.583 124.654 62.664C124.92 62.7503 125.16 62.8892 125.375 63.0805ZM67.105 30.1508L59.7842 35.1069L58.2416 33.7355L60.3593 29.5971C60.3998 29.5153 60.4635 29.3954 60.5505 29.2372C60.6434 29.0843 60.741 28.9142 60.8432 28.7267C60.9514 28.5446 61.0547 28.3741 61.1529 28.2153C61.2565 28.0504 61.3368 27.9238 61.3939 27.8354C61.3188 27.9079 61.2027 28.0026 61.0453 28.1196C60.8992 28.2359 60.7422 28.3586 60.5742 28.4875C60.4115 28.6105 60.2541 28.7275 60.1021 28.8385C59.9553 28.9436 59.8411 29.024 59.7594 29.0799L55.9187 31.6706L54.3761 30.2992L58.4324 22.4411L59.7687 23.6291L57.4777 27.8543C57.4113 27.9772 57.3267 28.1268 57.2238 28.3029C57.1262 28.473 57.0206 28.6522 56.9071 28.8403C56.7989 29.0224 56.6904 29.1989 56.5815 29.3697C56.4786 29.5458 56.3854 29.693 56.3017 29.8113C56.4146 29.7083 56.5467 29.5956 56.6981 29.4733C56.8548 29.345 57.0145 29.2194 57.1772 29.0964C57.3452 28.9674 57.4996 28.8478 57.6403 28.7374C57.7924 28.6264 57.9149 28.5426 58.0079 28.4861L62.1275 25.7259L63.41 26.866L61.1558 31.2846C61.1047 31.3783 61.033 31.5073 60.9407 31.6714C60.8538 31.8296 60.7562 31.9998 60.648 32.1819C60.5398 32.364 60.4313 32.5405 60.3224 32.7113C60.2188 32.8761 60.1252 33.0177 60.0416 33.136C60.1923 33.0024 60.3759 32.8498 60.5924 32.6783C60.8141 32.5008 61.0389 32.326 61.2667 32.1538C61.5004 31.987 61.6933 31.848 61.8453 31.737L65.7687 28.9629L67.105 30.1508ZM68.2706 32.9371C68.0581 33.1764 67.8447 33.3988 67.6302 33.6042C67.4217 33.8149 67.2717 33.9598 67.1801 34.0389L67.2518 34.1027C67.5082 34.0309 67.7532 34.0079 67.987 34.0337C68.2261 34.0536 68.4536 34.1167 68.6695 34.223C68.8967 34.3286 69.1089 34.4691 69.3062 34.6445C69.659 34.9581 69.9111 35.2947 70.0627 35.6542C70.2142 36.0137 70.2449 36.3888 70.1546 36.7796C70.0704 37.1757 69.8424 37.5831 69.4706 38.0019L66.6343 41.1965L65.298 40.0085L67.8395 37.146C68.1529 36.793 68.3208 36.4713 68.3433 36.1809C68.3771 35.8898 68.2595 35.6247 67.9904 35.3855C67.7213 35.1463 67.4533 35.0204 67.1863 35.0079C66.9253 35.0006 66.6557 35.0874 66.3775 35.2682C66.0992 35.449 65.8061 35.7129 65.498 36.0599L63.4505 38.3661L62.1141 37.1782L68.1692 30.3583L69.5055 31.5462L68.2706 32.9371ZM74.6399 43.9139C74.2787 44.3207 73.9006 44.6321 73.5055 44.8482C73.1163 45.0696 72.7189 45.1979 72.3131 45.2332C71.9186 45.2679 71.5244 45.2118 71.1305 45.065C70.7419 44.9123 70.3623 44.6711 69.9916 44.3416C69.6508 44.0386 69.3817 43.7031 69.1843 43.3349C68.9983 42.9661 68.8962 42.5811 68.8781 42.1797C68.8654 41.7723 68.94 41.3569 69.1019 40.9335C69.2698 40.5155 69.5344 40.1031 69.8955 39.6963C70.3789 39.1519 70.8809 38.7793 71.4015 38.5784C71.9275 38.3716 72.4575 38.329 72.9915 38.4505C73.5255 38.572 74.0376 38.8506 74.5279 39.2865C74.9883 39.6958 75.3072 40.1559 75.4847 40.6669C75.6622 41.1779 75.6853 41.7122 75.5539 42.2698C75.4279 42.8215 75.1232 43.3695 74.6399 43.9139ZM71.2588 40.9081C70.9719 41.2312 70.7632 41.5326 70.6324 41.8124C70.5129 42.0916 70.4775 42.3544 70.526 42.601C70.5799 42.8415 70.7264 43.0681 70.9656 43.2807C71.2047 43.4933 71.4439 43.6096 71.683 43.6294C71.9334 43.6487 72.1871 43.5798 72.444 43.4229C72.7123 43.2654 72.9899 43.0251 73.2767 42.702C73.5635 42.379 73.7666 42.0779 73.8861 41.7987C74.0115 41.5249 74.0473 41.2677 73.9935 41.0271C73.9396 40.7866 73.7931 40.56 73.5539 40.3474C73.2012 40.0338 72.8352 39.9279 72.456 40.0296C72.0881 40.1307 71.689 40.4236 71.2588 40.9081ZM74.8976 48.5423L73.5613 47.3544L79.6163 40.5345L80.9526 41.7225L74.8976 48.5423ZM82.7415 46.5882C83.1959 46.9922 83.5076 47.4244 83.6764 47.8849C83.8512 48.3507 83.8822 48.8279 83.7695 49.3164C83.6567 49.8049 83.3879 50.2884 82.963 50.767L82.3893 51.4131L79.2324 48.6066C78.9097 48.9942 78.7574 49.3886 78.7755 49.79C78.7995 50.1967 78.9999 50.5675 79.3766 50.9024C79.6934 51.1841 80.007 51.4093 80.3172 51.578C80.6327 51.7408 80.9864 51.8786 81.3783 51.9915L80.4621 53.0234C80.1167 52.9305 79.7856 52.7913 79.4687 52.606C79.1525 52.4319 78.8061 52.1775 78.4294 51.8426C77.9391 51.4068 77.5853 50.9317 77.368 50.4174C77.156 49.897 77.107 49.3558 77.2211 48.7935C77.3351 48.2313 77.6418 47.669 78.1411 47.1066C78.651 46.5323 79.1689 46.1418 79.6949 45.935C80.2321 45.7275 80.7591 45.6822 81.2758 45.799C81.7926 45.9159 82.2812 46.1789 82.7415 46.5882ZM81.906 47.5474C81.6489 47.3188 81.3593 47.2112 81.0372 47.2246C80.721 47.2433 80.3913 47.4158 80.0481 47.7422L81.9225 49.4085C82.0978 49.2111 82.2186 49.0027 82.2849 48.7834C82.3573 48.5694 82.3645 48.3564 82.3067 48.1444C82.2488 47.9324 82.1153 47.7334 81.906 47.5474ZM86.4963 58.8534L85.1421 57.6495L89.8268 52.373L88.0869 50.8263L89.0908 49.6957L93.9248 53.993L92.9209 55.1237L91.181 53.5769L86.4963 58.8534ZM94.9331 57.4262C95.3875 57.8302 95.6991 58.2624 95.868 58.7229C96.0428 59.1888 96.0738 59.6659 95.9611 60.1544C95.8483 60.6429 95.5795 61.1264 95.1545 61.605L94.5809 62.2511L91.424 59.4447C91.1013 59.8322 90.949 60.2267 90.9671 60.6281C90.9911 61.0348 91.1915 61.4055 91.5681 61.7404C91.885 62.0221 92.1986 62.2473 92.5088 62.4161C92.8243 62.5788 93.178 62.7166 93.5699 62.8295L92.6537 63.8615C92.3083 63.7685 91.9772 63.6294 91.6603 63.444C91.3441 63.27 90.9977 63.0155 90.621 62.6807C90.1307 62.2448 89.7769 61.7697 89.5596 61.2554C89.3476 60.7351 89.2986 60.1938 89.4126 59.6316C89.5267 59.0693 89.8334 58.507 90.3327 57.9447C90.8426 57.3704 91.3605 56.9798 91.8864 56.773C92.4237 56.5655 92.9507 56.5202 93.4674 56.6371C93.9842 56.7539 94.4727 57.017 94.9331 57.4262ZM94.0976 58.3854C93.8405 58.1569 93.5509 58.0493 93.2288 58.0626C92.9126 58.0813 92.5829 58.2538 92.2396 58.5802L94.1141 60.2465C94.2893 60.0491 94.4102 59.8408 94.4765 59.6214C94.5488 59.4074 94.5561 59.1944 94.4982 58.9824C94.4404 58.7705 94.3068 58.5714 94.0976 58.3854ZM100.231 62.1198C100.889 62.7045 101.263 63.2945 101.355 63.89C101.458 64.4847 101.25 65.0752 100.729 65.6615L97.829 68.9279L96.8963 68.0987L97.2258 67.2034L97.1899 67.1716C96.8984 67.2228 96.6274 67.2388 96.377 67.2196C96.1326 67.2057 95.8935 67.1376 95.6597 67.0154C95.4265 66.9045 95.1724 66.7268 94.8974 66.4823C94.6104 66.2271 94.3981 65.9421 94.2605 65.6271C94.1342 65.3115 94.1062 64.9815 94.1765 64.6372C94.2522 64.287 94.4466 63.9354 94.76 63.5824C95.2221 63.062 95.7444 62.8412 96.3269 62.9202C96.9147 62.9931 97.5839 63.3419 98.3346 63.9664L99.2105 64.6969L99.4018 64.4815C99.6301 64.2243 99.7287 63.9747 99.6974 63.7328C99.6721 63.4963 99.5399 63.2717 99.3007 63.059C99.0615 62.8464 98.7965 62.675 98.5056 62.5449C98.2199 62.4087 97.9184 62.2905 97.6009 62.1902L97.9661 60.8932C98.3513 60.9895 98.7369 61.1396 99.1229 61.3435C99.5148 61.5527 99.8841 61.8115 100.231 62.1198ZM97.9813 65.0331C97.5402 64.6624 97.1722 64.4744 96.8773 64.4692C96.5824 64.4639 96.3314 64.5779 96.1242 64.8112C95.9436 65.0146 95.8733 65.2144 95.9132 65.4104C95.9584 65.6005 96.0767 65.7805 96.268 65.9506C96.555 66.2057 96.8715 66.3373 97.2176 66.3452C97.5689 66.3471 97.8827 66.1925 98.1589 65.8814L98.5174 65.4776L97.9813 65.0331ZM109.375 70.2651C109.932 70.7595 110.223 71.2751 110.249 71.8121C110.286 72.3484 110.026 72.9306 109.468 73.5587L106.632 76.7533L105.295 75.5654L107.837 72.7028C108.15 72.3498 108.324 72.0335 108.359 71.7537C108.399 71.4679 108.293 71.2134 108.042 70.9902C107.689 70.6766 107.326 70.579 106.954 70.6973C106.581 70.8157 106.185 71.1112 105.765 71.5838L103.582 74.0426L102.246 72.8546L104.788 69.9921C104.995 69.7587 105.141 69.5404 105.225 69.337C105.309 69.1336 105.332 68.9452 105.293 68.7718C105.26 68.5924 105.16 68.4282 104.992 68.2794C104.747 68.0615 104.497 67.9516 104.242 67.9496C103.987 67.9477 103.723 68.0398 103.451 68.2259C103.179 68.4121 102.889 68.6786 102.581 69.0256L100.533 71.3318L99.1969 70.1438L103.547 65.2443L104.569 66.1532L104.191 66.9408L104.263 67.0046C104.513 66.9274 104.758 66.9045 104.998 66.9356C105.243 66.9608 105.477 67.0292 105.698 67.1408C105.932 67.2518 106.141 67.3896 106.326 67.5544C106.685 67.8733 106.937 68.2042 107.082 68.5471C107.232 68.884 107.264 69.2335 107.178 69.5958L107.294 69.6994C107.667 69.581 108.035 69.5819 108.399 69.7021C108.769 69.8277 109.094 70.0153 109.375 70.2651Z" fill="white"/>
<path d="M8.13822 6.38551L0.0625 6.38531V0L8.13822 6.38551Z" fill="#209A56"/>
<path d="M117.918 89.5573L122.821 89.0121L117.918 84.1055V89.5573Z" fill="#27C26C"/>
</svg>
