<svg width="108" height="20" viewBox="0 0 108 20" fill="none" xmlns="http://www.w3.org/2000/svg">
<path d="M33.5156 6.04357C33.5156 5.19056 33.6978 4.39847 34.0012 3.60638C34.3046 2.87525 34.7296 2.20499 35.3363 1.65665C35.943 1.10827 36.6714 0.68177 37.4604 0.438061C38.3709 0.133389 39.3416 0.0115568 40.3128 0.0115568C41.4051 -0.0494054 42.4974 0.133389 43.5292 0.498976C44.2575 0.803648 44.9248 1.16919 45.532 1.71757C45.9566 2.14407 46.321 2.63149 46.5633 3.17987C46.7455 3.60638 46.8672 4.03288 46.9277 4.45938C46.9277 4.64218 46.8671 4.76406 46.7455 4.88589C46.6244 5.00776 46.4422 5.06868 46.321 5.06868H44.5003C44.3787 5.06868 44.1969 5.00776 44.0753 4.94685C44.0147 4.88589 43.8931 4.76406 43.8931 4.70309C43.8931 4.64218 43.7719 4.5203 43.6503 4.33755C43.4686 4.0938 43.2864 3.91105 43.0436 3.72825C42.7402 3.4845 42.3763 3.24079 42.0118 3.11896C41.4657 2.93616 40.9195 2.87525 40.3128 2.87525C39.3416 2.75337 38.3709 3.058 37.6426 3.72825C36.9748 4.33755 36.5503 5.25147 36.5503 6.1654C36.5503 6.71378 36.4892 7.32307 36.4892 7.99329C36.4892 8.6635 36.4892 9.2728 36.5503 9.82118C36.4892 10.857 36.9142 11.8319 37.6426 12.5021C38.4315 13.1114 39.3416 13.416 40.3128 13.3551C40.7984 13.3551 41.3445 13.2942 41.8301 13.1723C42.2546 13.0505 42.6796 12.8677 43.0436 12.563C43.408 12.3193 43.6503 11.9537 43.8325 11.5272C44.0147 11.0398 44.1359 10.4305 44.1359 9.88209V9.76026H41.1017C40.9195 9.76026 40.7984 9.6993 40.6767 9.57747C40.5556 9.45559 40.495 9.33376 40.495 9.15096V7.50587C40.495 7.32307 40.5556 7.2012 40.6767 7.07937C40.7984 6.95749 40.9195 6.89657 41.1017 6.89657H46.5633C46.7455 6.89657 46.8672 6.95749 46.9883 7.07937C47.1099 7.2012 47.1705 7.32307 47.1705 7.50587V10.004C47.1705 10.857 47.0489 11.71 46.7455 12.5021C46.4422 13.2332 46.0172 13.9035 45.471 14.4518C44.8643 15.0002 44.1359 15.4876 43.3469 15.7314C41.4051 16.3406 39.3416 16.3406 37.3998 15.7314C36.6108 15.4876 35.943 15.0611 35.3363 14.4518C34.7901 13.9035 34.3652 13.2332 34.0618 12.5021C33.7584 11.71 33.5762 10.857 33.5156 10.004C33.5156 9.6993 33.5156 9.39467 33.5156 9.09005C33.5156 8.72446 33.5156 8.41979 33.5156 8.05425C33.5156 7.68866 33.5156 7.32307 33.5156 7.01845C33.5156 6.71378 33.5156 6.34819 33.5156 6.04357Z" fill="white"/>
<path d="M48.1406 10.1271C48.1406 9.33506 48.2622 8.54297 48.505 7.75088C48.7474 7.01975 49.1118 6.41045 49.5974 5.80115C50.0825 5.25277 50.6897 4.82627 51.357 4.52165C52.0854 4.21697 52.8743 4.03418 53.6027 4.03418C54.3916 4.03418 55.1806 4.15606 55.8479 4.52165C56.5157 4.82627 57.1224 5.19186 57.608 5.74024C58.0936 6.28857 58.4575 6.89787 58.7003 7.56808C58.9431 8.29926 59.1253 9.03043 59.1253 9.76156V10.7974C59.1253 11.1629 58.8825 11.4067 58.5181 11.4067H51.0536C51.0536 11.7113 51.1142 12.016 51.2358 12.3206C51.357 12.5643 51.5998 12.808 51.782 12.9908C52.0248 13.1736 52.3282 13.2955 52.6315 13.4173C52.9349 13.4783 53.2383 13.5392 53.6027 13.5392C53.9666 13.5392 54.3916 13.4783 54.7556 13.4173C54.9984 13.3564 55.2412 13.2346 55.4839 13.0518C55.6051 12.9299 55.7267 12.869 55.9089 12.808C56.0301 12.7471 56.2123 12.7471 56.3335 12.7471H58.1542C58.3364 12.7471 58.4575 12.808 58.5792 12.9299C58.7003 13.0518 58.7609 13.1736 58.7609 13.3564C58.7003 13.6611 58.5791 13.9048 58.3969 14.1485C58.1542 14.5141 57.7902 14.8796 57.4258 15.1234C56.9402 15.4889 56.3941 15.7327 55.8479 15.9764C55.12 16.2201 54.3916 16.342 53.6633 16.281C52.8743 16.281 52.0854 16.1592 51.418 15.8545C50.7503 15.6108 50.1435 15.1843 49.7185 14.6359C49.2329 14.0876 48.869 13.4173 48.6262 12.7471C48.2623 11.8332 48.1406 10.9802 48.1406 10.1271ZM53.6027 6.77604C53.2383 6.77604 52.8743 6.83695 52.5104 6.95883C52.207 7.08066 51.9642 7.26346 51.7214 7.44625C51.5392 7.62905 51.357 7.87276 51.2358 8.11646C51.1142 8.36017 51.0536 8.60388 51.0536 8.84764H56.0907C56.0907 8.60388 56.0301 8.36017 55.9695 8.11646C55.9089 7.87276 55.7267 7.62905 55.5445 7.44625C55.3623 7.20254 55.0589 7.08066 54.8162 6.95883C54.4522 6.77604 54.0272 6.71508 53.6027 6.77604Z" fill="white"/>
<path d="M63.7369 11.7097C63.7369 12.1362 63.8581 12.5018 64.1009 12.8064C64.4653 13.111 65.0114 13.2938 65.497 13.2329H66.8321C67.1961 13.2329 67.4389 13.4766 67.4389 13.8422V15.3045C67.4389 15.4873 67.3783 15.6092 67.2567 15.731C67.1355 15.8529 67.0139 15.9138 66.8321 15.9138H65.1937C64.0403 15.9747 62.8874 15.6092 61.9768 14.878C61.1879 14.025 60.7633 12.9283 60.8239 11.7706V6.95716H59.9744C59.7922 6.95716 59.671 6.8962 59.5494 6.77437C59.4282 6.65249 59.3672 6.53066 59.3672 6.34787V4.88556C59.3672 4.51998 59.61 4.27627 59.9744 4.27627H60.8239V1.16887C60.8239 0.986072 60.8845 0.864195 61.0061 0.742364C61.1273 0.620486 61.2489 0.55957 61.4307 0.55957H63.1302C63.4941 0.55957 63.7369 0.803279 63.7369 1.16887V4.27627H66.6499C66.8321 4.27627 66.9533 4.33718 67.0749 4.45906C67.1961 4.58089 67.2567 4.70277 67.2567 4.88556V6.34787C67.2567 6.53066 67.1961 6.65249 67.0749 6.77437C66.9533 6.8962 66.8321 6.95716 66.6499 6.95716H63.7369V11.7097Z" fill="white"/>
<path d="M76.7834 0.864258C76.9656 0.864258 77.1478 0.92522 77.33 1.04705C77.4511 1.22985 77.5723 1.41264 77.6334 1.59543L82.9738 15.2436C82.9738 15.3045 82.9738 15.3655 82.9738 15.3655C82.9738 15.731 82.731 15.9748 82.367 15.9748H80.7891C80.5464 15.9748 80.3641 15.9138 80.1819 15.792C80.0608 15.6701 80.0002 15.5483 79.9392 15.4264L79.029 12.9892H72.1713L71.2612 15.4264C71.2002 15.5483 71.1396 15.6701 71.0184 15.792C70.8362 15.9138 70.654 15.9748 70.4112 15.9748H68.8333C68.6516 15.9748 68.5299 15.9138 68.4088 15.792C68.2871 15.6701 68.2266 15.5483 68.2266 15.3655C68.2266 15.3045 68.2266 15.2436 68.2266 15.2436L73.567 1.59543C73.628 1.41264 73.7492 1.16893 73.8704 1.04705C73.992 0.92522 74.1742 0.864258 74.417 0.864258H76.7834ZM77.9973 10.2474L75.5699 4.03262L73.203 10.2474H77.9973Z" fill="white"/>
<path d="M90.2569 16.1592C89.8324 16.1592 89.4679 16.0982 89.0434 16.0373C88.74 15.9764 88.3756 15.8545 88.0723 15.7327C87.8295 15.6108 87.5867 15.4889 87.3439 15.3061C87.1621 15.1843 87.0405 15.0015 86.8583 14.8796V18.901C86.8583 19.2666 86.616 19.5103 86.2516 19.5103H84.5525C84.3703 19.5103 84.2491 19.4494 84.1275 19.3275C84.0064 19.2056 83.9453 19.0838 83.9453 18.901V4.88723C83.9453 4.70444 84.0064 4.58256 84.1275 4.46068C84.2491 4.33885 84.3703 4.27793 84.5525 4.27793H86.2516C86.4338 4.27793 86.5549 4.33885 86.6766 4.46068C86.7977 4.58256 86.8583 4.70444 86.8583 4.88723V5.37465C86.9799 5.19186 87.1621 5.06998 87.3439 4.94815C87.5867 4.76535 87.7689 4.64348 88.0723 4.52165C88.3756 4.39977 88.679 4.27794 89.0434 4.15606C89.4679 4.09514 89.8324 4.03418 90.2569 4.03418C90.9853 4.03418 91.653 4.15606 92.2598 4.46068C92.8665 4.76535 93.3521 5.13094 93.7771 5.61836C94.2016 6.10578 94.566 6.65416 94.8084 7.26346C95.0512 7.87276 95.1728 8.54297 95.2334 9.27414C95.2334 9.51785 95.2334 9.76156 95.2334 10.0662C95.2334 10.3709 95.2334 10.6146 95.2334 10.8583C95.2334 11.5285 95.0512 12.1987 94.8084 12.869C94.566 13.4783 94.2622 14.0876 93.7771 14.575C93.3521 15.0624 92.8059 15.4889 92.2598 15.7327C91.653 16.0373 90.9247 16.1592 90.2569 16.1592ZM92.3204 10.7364C92.3809 10.3099 92.3809 9.88344 92.3204 9.45694C92.3204 8.66485 92.017 7.93367 91.4103 7.38534C90.9247 6.95883 90.2569 6.77604 89.5896 6.77604C88.9218 6.77604 88.2545 6.95883 87.7083 7.44625C87.1621 7.93367 86.8583 8.60388 86.8583 9.33506C86.7977 9.63968 86.7977 9.88344 86.7977 10.1881C86.7977 10.4927 86.7977 10.7364 86.8583 11.0411C86.9194 12.5034 88.1328 13.6001 89.5896 13.5392C90.2569 13.5392 90.9247 13.2955 91.4103 12.9299C92.017 12.3206 92.3204 11.5285 92.3204 10.7364Z" fill="white"/>
<path d="M102.755 16.1592C102.33 16.1592 101.905 16.0982 101.481 16.0373C101.177 15.9764 100.813 15.8545 100.51 15.7327C100.267 15.6108 100.024 15.4889 99.7814 15.3061C99.5992 15.1843 99.478 15.0015 99.2958 14.8796V18.901C99.2958 19.0838 99.2352 19.2056 99.1141 19.3275C98.9924 19.4494 98.8713 19.5103 98.6891 19.5103H96.99C96.6256 19.5103 96.3828 19.2666 96.3828 18.901V4.88723C96.3828 4.52164 96.6256 4.27793 96.99 4.27793H98.6891C98.8713 4.27793 98.9924 4.33885 99.1141 4.46068C99.2352 4.58256 99.2958 4.70444 99.2958 4.88723V5.37465C99.4174 5.19186 99.5992 5.06998 99.7814 4.94815C100.024 4.76535 100.206 4.64348 100.51 4.52165C100.813 4.39977 101.116 4.27794 101.481 4.15606C101.905 4.03418 102.33 4.03418 102.755 4.03418C103.483 4.03418 104.151 4.15606 104.758 4.46068C105.365 4.76535 105.85 5.13094 106.275 5.61836C106.7 6.10578 107.064 6.65416 107.307 7.26346C107.549 7.87276 107.671 8.54297 107.731 9.27414C107.731 9.51785 107.731 9.76156 107.731 10.0662C107.731 10.3709 107.731 10.6146 107.731 10.8583C107.731 11.5285 107.549 12.1987 107.307 12.869C107.064 13.4783 106.76 14.0876 106.275 14.575C105.85 15.0624 105.304 15.4889 104.758 15.7327C104.151 16.0373 103.423 16.1592 102.755 16.1592ZM104.818 10.7364C104.879 10.3099 104.879 9.88344 104.818 9.45694C104.818 8.66485 104.515 7.93367 103.908 7.38534C103.362 6.95883 102.694 6.77604 102.027 6.77604C101.359 6.77604 100.692 7.01975 100.206 7.44625C99.6602 7.93367 99.3569 8.60388 99.3569 9.33506C99.2958 9.63968 99.2958 9.88344 99.2958 10.1881C99.2958 10.4927 99.2958 10.7364 99.3569 11.0411C99.4174 11.7113 99.7208 12.3815 100.206 12.869C100.692 13.2955 101.359 13.5392 102.027 13.5392C102.694 13.5392 103.362 13.2955 103.908 12.869C104.454 12.3206 104.818 11.5285 104.818 10.7364Z" fill="white"/>
<path d="M28.234 8.05505L20.7694 0.560747C20.5267 0.316991 20.1626 0.316991 19.9198 0.560747L18.4633 2.02305L24.4714 8.05505C24.7141 8.29876 24.7141 8.66435 24.5321 8.90806C24.5321 8.90806 24.5321 8.90806 24.4714 8.96898L18.2812 15.1229L19.7377 16.5852C19.9805 16.8289 20.3446 16.8289 20.5874 16.6461C20.5874 16.6461 20.5874 16.6461 20.648 16.5852L28.2947 8.90806C28.4768 8.72527 28.4768 8.29876 28.234 8.05505Z" fill="#2CB5B4"/>
<path d="M15.5536 1.10776L15.0074 0.55938C14.7647 0.31567 14.4005 0.315669 14.1578 0.498463C14.1578 0.498463 14.1578 0.498464 14.0971 0.55938L12.6406 2.02168L13.6116 2.99657L15.493 4.88537L17.3743 2.99657L15.5536 1.10776Z" fill="#8CBF44"/>
<path d="M15.368 12.1973L13.4866 14.0861L12.5156 15.061L13.9721 16.5233C14.2149 16.767 14.579 16.767 14.8217 16.5233L15.368 15.9749L17.2493 14.0861L15.368 12.1973Z" fill="#8CBF44"/>
<path d="M18.6443 8.05419C18.8871 8.2979 18.8871 8.72441 18.6443 8.96812L15.3672 12.1974L17.2485 14.0862L22.4069 8.9072C22.6497 8.66349 22.6497 8.23699 22.4069 7.99328L17.4306 2.99707L15.5493 4.88588L18.6443 8.05419Z" fill="#B8CE2C"/>
<path d="M6.44739 8.23785L11.6665 2.99789L9.72452 1.04816L9.23899 0.560747C8.99625 0.316991 8.57144 0.316991 8.3287 0.560747L0.682057 8.23785C0.439314 8.48156 0.439314 8.84715 0.682057 9.09086L8.14663 16.5852C8.38937 16.8289 8.75351 16.8289 8.99625 16.5852L9.54245 16.0368L11.4238 14.148L6.44739 9.15177C6.14392 8.96898 6.02257 8.66435 6.26532 8.35968C6.32599 8.23785 6.38671 8.23785 6.44739 8.23785Z" fill="#87EFEF"/>
<path d="M12.2755 8.23699L14.5816 5.92168L12.6396 4.03287L11.6686 2.99707L6.51018 8.17607C6.26744 8.41978 6.26744 8.78537 6.51018 9.02908L11.4866 14.0253L12.4576 13.0504L14.3389 11.1616L12.2755 9.08999C12.0328 8.9072 12.0328 8.4807 12.2755 8.23699Z" fill="#8CBF44"/>
<path d="M12.2758 9.0906L14.3999 11.2231L16.706 8.90781C16.9487 8.6641 16.9487 8.2376 16.706 7.99389L14.5819 5.86133L12.2758 8.2376C12.0331 8.48131 12.0331 8.8469 12.2758 9.0906Z" fill="#B8CE2C"/>
<path d="M15.5536 1.10776L15.0074 0.55938C14.7647 0.31567 14.4005 0.315669 14.1578 0.498463C14.1578 0.498463 14.1578 0.498464 14.0971 0.55938L12.6406 2.02168L13.6116 2.99657L15.493 4.88537L17.3743 2.99657L15.5536 1.10776Z" fill="#41E3E2"/>
<path d="M15.368 12.1973L13.4866 14.0861L12.5156 15.061L13.9721 16.5233C14.2149 16.767 14.579 16.767 14.8217 16.5233L15.368 15.9749L17.2493 14.0861L15.368 12.1973Z" fill="#41E3E2"/>
<path d="M18.6443 8.05419C18.8871 8.2979 18.8871 8.72441 18.6443 8.96812L15.3672 12.1974L17.2485 14.0862L22.4069 8.9072C22.6497 8.66349 22.6497 8.23699 22.4069 7.99328L17.4306 2.99707L15.5493 4.88588L18.6443 8.05419Z" fill="#4FBCC1"/>
<path d="M6.44739 8.23785L11.6665 2.99789L9.72452 1.04816L9.23899 0.560747C8.99625 0.316991 8.57144 0.316991 8.3287 0.560747L0.682057 8.23785C0.439314 8.48156 0.439314 8.84715 0.682057 9.09086L8.14663 16.5852C8.38937 16.8289 8.75351 16.8289 8.99625 16.5852L9.54245 16.0368L11.4238 14.148L6.44739 9.15177C6.14392 8.96898 6.02257 8.66435 6.26532 8.35968C6.32599 8.23785 6.38671 8.23785 6.44739 8.23785Z" fill="#87EFEF"/>
<path d="M12.2755 8.23699L14.5816 5.92168L12.6396 4.03287L11.6686 2.99707L6.51018 8.17607C6.26744 8.41978 6.26744 8.78537 6.51018 9.02908L11.4866 14.0253L12.4576 13.0504L14.3389 11.1616L12.2755 9.08999C12.0328 8.9072 12.0328 8.4807 12.2755 8.23699Z" fill="#41E3E2"/>
<path d="M12.2758 9.0906L14.3999 11.2231L16.706 8.90781C16.9487 8.6641 16.9487 8.2376 16.706 7.99389L14.5819 5.86133L12.2758 8.2376C12.0331 8.48131 12.0331 8.8469 12.2758 9.0906Z" fill="#4FBCC1"/>
</svg>
