<svg width="131" height="29" viewBox="0 0 131 29" fill="none" xmlns="http://www.w3.org/2000/svg">
<path d="M0.5 10.683L12.4145 10.6854L19.6594 10.6866V3.59961L0.5 10.683Z" fill="#FF9D28"/>
<path d="M19.6562 3.60037V28.6211L28.705 0.253906L19.6562 3.60037Z" fill="#68C5ED"/>
<path d="M19.6589 10.6868L12.4141 10.6855L19.6589 28.6205V10.6868Z" fill="white"/>
<path d="M0.5 10.6826L14.2724 15.2868L12.4146 10.6849L0.5 10.6826Z" fill="#E54747"/>
<path d="M44.3894 22.0319C44.2844 22.1356 44.1092 22.265 43.8642 22.4205C43.6192 22.5761 43.3002 22.7315 42.9068 22.8872C42.5128 23.0424 42.0317 23.1761 41.463 23.2888C40.8943 23.4008 40.2427 23.4571 39.5082 23.4571C38.0909 23.4571 36.8661 23.2324 35.834 22.7835C34.8015 22.3346 33.9487 21.7079 33.2753 20.9048C32.6017 20.1015 32.1076 19.1516 31.7926 18.0543C31.4777 16.9574 31.3203 15.7526 31.3203 14.4395C31.3203 13.127 31.4909 11.9131 31.832 10.7989C32.1732 9.6846 32.6849 8.72192 33.3672 7.90961C34.0495 7.09788 34.9024 6.46292 35.9259 6.00499C36.9494 5.54759 38.152 5.31836 39.5344 5.31836C40.2165 5.31836 40.8334 5.37898 41.3843 5.49971C41.9357 5.6207 42.4168 5.76333 42.8281 5.9273C43.2388 6.09169 43.5799 6.26408 43.8516 6.44554C44.1223 6.62689 44.328 6.77843 44.4681 6.89894C44.6254 7.03752 44.7608 7.20144 44.8752 7.39127C44.9885 7.58157 45.0457 7.78889 45.0457 8.01327C45.0457 8.35901 44.914 8.70433 44.6517 9.04975C44.3894 9.39549 44.1008 9.71505 43.7855 10.0085C43.5757 9.80122 43.3396 9.58995 43.0773 9.37373C42.8149 9.15783 42.5217 8.96805 42.198 8.80361C41.8743 8.6397 41.5065 8.50154 41.0957 8.38903C40.6844 8.27684 40.2254 8.22053 39.7181 8.22053C38.8259 8.22053 38.078 8.39793 37.4744 8.75178C36.8708 9.10605 36.3852 9.56799 36.0179 10.1381C35.6505 10.7082 35.388 11.3604 35.2305 12.0945C35.0731 12.8289 34.9944 13.576 34.9944 14.336C34.9944 15.1481 35.0731 15.9254 35.2305 16.668C35.388 17.4108 35.659 18.0675 36.0441 18.6373C36.4287 19.2073 36.9319 19.6653 37.5531 20.0106C38.1738 20.3565 38.948 20.5289 39.8754 20.5289C40.3649 20.5289 40.8156 20.4686 41.2269 20.3477C41.6377 20.2268 42.0012 20.0799 42.316 19.9069C42.6308 19.7346 42.9068 19.5533 43.1428 19.363C43.3789 19.173 43.5757 19.0091 43.7331 18.8705C43.8385 18.9917 43.9602 19.1387 44.1008 19.3111C44.2414 19.4855 44.3731 19.6672 44.4943 19.8554C44.6165 20.0456 44.7215 20.2355 44.8091 20.4252C44.8967 20.6156 44.9402 20.7881 44.9402 20.9433C44.9402 21.1683 44.8967 21.3581 44.8091 21.5136C44.7215 21.6691 44.5814 21.842 44.3894 22.0319ZM57.9133 20.0445C57.9133 21.4176 58.1158 22.4169 58.5208 23.0425C58.2039 23.1639 57.9091 23.251 57.6363 23.3031C57.3629 23.3554 57.077 23.3813 56.778 23.3813C56.1447 23.3813 55.6647 23.2596 55.3394 23.0164C55.0136 22.7733 54.8069 22.4257 54.7188 21.9736C54.3316 22.3738 53.8212 22.7125 53.1874 22.9906C52.5542 23.2681 51.7793 23.4075 50.8643 23.4075C50.389 23.4075 49.9137 23.3424 49.4389 23.213C48.9636 23.0824 48.5318 22.8706 48.1452 22.5764C47.7575 22.2817 47.4411 21.8875 47.1946 21.3937C46.948 20.8999 46.8247 20.2981 46.8247 19.5879C46.8247 18.7044 47.0403 17.9852 47.4716 17.4311C47.9028 16.8765 48.4442 16.4392 49.0953 16.1185C49.7464 15.7983 50.4504 15.5779 51.2074 15.4563C51.964 15.3349 52.6596 15.2571 53.2934 15.2221C53.5048 15.2049 53.711 15.196 53.9135 15.196H54.4811V14.7215C54.4811 14.0535 54.3007 13.5789 53.9402 13.2979C53.5793 13.0168 52.9938 12.8759 52.1843 12.8759C51.4273 12.8759 50.7542 12.9977 50.1645 13.2408C49.5748 13.4844 48.9982 13.7622 48.4353 14.0751C48.1887 13.7797 47.9904 13.454 47.8414 13.0975C47.6919 12.7415 47.6169 12.4764 47.6169 12.3024C47.6169 12.0593 47.7533 11.8246 48.0261 11.5985C48.2989 11.373 48.673 11.1684 49.1483 10.9859C49.6236 10.8035 50.1687 10.656 50.7851 10.5428C51.401 10.4299 52.0526 10.3733 52.7388 10.3733C53.6895 10.3733 54.4948 10.4691 55.1548 10.6601C55.8147 10.8516 56.3514 11.1468 56.7649 11.5464C57.1783 11.9464 57.4731 12.4458 57.6494 13.0453C57.8251 13.645 57.9133 14.3448 57.9133 15.1438V20.0445ZM54.5341 17.0207H54.1643C54.041 17.0207 53.9177 17.0298 53.7949 17.0469C53.3548 17.0819 52.9188 17.1339 52.4881 17.2031C52.0563 17.2728 51.6738 17.3945 51.3397 17.5682C51.0049 17.742 50.7321 17.9682 50.5212 18.2459C50.3098 18.5241 50.2044 18.8806 50.2044 19.3148C50.2044 19.8015 50.345 20.214 50.6267 20.5529C50.9079 20.8919 51.3832 21.0614 52.0521 21.0614C52.3863 21.0614 52.7032 21.0182 53.0027 20.9309C53.3018 20.8443 53.5657 20.7313 53.7949 20.5922C54.0231 20.4531 54.2041 20.3012 54.3363 20.1358C54.468 19.9709 54.5341 19.819 54.5341 19.6798V17.0207ZM64.4869 11.8852C64.7676 11.5552 65.2061 11.2205 65.8027 10.8815C66.3992 10.5426 67.1536 10.3732 68.0664 10.3732C68.7159 10.3732 69.3339 10.4818 69.922 10.699C70.5096 10.9165 71.0316 11.2685 71.4875 11.7548C71.944 12.2416 72.3081 12.8847 72.5803 13.6839C72.8521 14.4835 72.9885 15.4656 72.9885 16.6296C72.9885 17.9851 72.8301 19.102 72.5142 19.9794C72.1984 20.8574 71.7908 21.5525 71.2908 22.065C70.7908 22.5778 70.2337 22.9384 69.6199 23.1468C69.0055 23.3554 68.3912 23.4597 67.7774 23.4597C67.2685 23.4597 66.8251 23.4032 66.4485 23.2903C66.0707 23.1771 65.7507 23.0515 65.4874 22.9123C65.2245 22.7734 65.0225 22.6346 64.8825 22.4952C64.7419 22.3563 64.6542 22.2605 64.6191 22.2082V28.6165H61.0285V10.7381C61.1167 10.721 61.2231 10.7035 61.348 10.6861C61.4545 10.669 61.5783 10.6558 61.7205 10.6469C61.8622 10.6383 62.0306 10.6339 62.2257 10.6339C62.8107 10.6339 63.3075 10.7296 63.7151 10.9207C64.1228 11.1121 64.3804 11.4334 64.4869 11.8852ZM69.239 16.7077C69.239 16.1864 69.1954 15.7001 69.1078 15.248C69.0207 14.7964 68.8759 14.4052 68.675 14.075C68.4735 13.745 68.2018 13.4884 67.8608 13.3059C67.5192 13.1234 67.1037 13.0323 66.6143 13.0323C65.8792 13.0323 65.3672 13.1715 65.0787 13.4492C64.7896 13.7275 64.6453 14.0318 64.6453 14.3617V19.8883C64.7854 20.0276 65.0341 20.1924 65.3929 20.3836C65.7523 20.575 66.1673 20.6702 66.64 20.6702C67.5329 20.6702 68.1892 20.323 68.6094 19.6276C69.0291 18.9326 69.239 17.9591 69.239 16.7077ZM75.7596 21.1917C75.6363 20.8443 75.5571 20.4791 75.5219 20.0967C75.4863 19.7146 75.4689 19.3324 75.4689 18.9496V6.85385C75.5922 6.83679 75.7239 6.8193 75.865 6.80176C75.9878 6.78469 76.12 6.77174 76.2611 6.76268C76.4017 6.75414 76.5423 6.74972 76.6835 6.74972C76.9647 6.74972 77.2464 6.77579 77.5281 6.82783C77.8093 6.88008 78.0648 6.98432 78.2941 7.1406C78.5228 7.29704 78.7075 7.51015 78.8481 7.7793C78.9892 8.04893 79.0595 8.40094 79.0595 8.83506V10.6858H82.7561V13.319H79.0595V18.878C79.0595 20.0903 79.5611 20.6963 80.5647 20.6963C80.8107 20.6963 81.0437 20.6574 81.264 20.579C81.4838 20.5008 81.6821 20.414 81.8584 20.3184C82.0342 20.2228 82.1884 20.123 82.3201 20.0186C82.4523 19.9143 82.5446 19.8362 82.5971 19.7841C82.8615 20.1666 83.0635 20.4978 83.2046 20.7772C83.3452 21.057 83.4155 21.3196 83.4155 21.5649C83.4155 21.7932 83.3237 22.017 83.1385 22.2362C82.9533 22.4553 82.6936 22.6574 82.3594 22.8414C82.0252 23.0255 81.6208 23.1746 81.1454 23.2887C80.6701 23.4028 80.1507 23.4599 79.5878 23.4599C78.4961 23.4599 77.6467 23.2512 77.0397 22.8342C76.4327 22.4169 76.0056 21.8694 75.7596 21.1917ZM91.8495 20.8528C92.2912 20.8528 92.6794 20.8052 93.0152 20.7094C93.351 20.6141 93.651 20.4967 93.916 20.3577C94.1809 20.2188 94.4107 20.0667 94.6048 19.9015C94.7989 19.7365 94.9757 19.5845 95.1352 19.4451C95.3466 19.7057 95.5675 20.0405 95.7973 20.4486C96.0266 20.8574 96.1414 21.1917 96.1414 21.4523C96.1414 21.8348 95.9211 22.1824 95.4815 22.4952C95.1121 22.7734 94.588 23.0124 93.9107 23.2119C93.2329 23.4117 92.4365 23.5117 91.5216 23.5117C90.6937 23.5117 89.88 23.4076 89.0794 23.199C88.2783 22.9905 87.5653 22.6254 86.941 22.104C86.3157 21.5828 85.8099 20.8834 85.4227 20.0056C85.0356 19.1281 84.842 18.0204 84.842 16.6818C84.842 15.5868 85.0135 14.6444 85.3566 13.8534C85.6997 13.0628 86.1572 12.4066 86.7296 11.8853C87.3014 11.3639 87.9483 10.9819 88.6702 10.7381C89.3916 10.4951 90.1308 10.3732 90.8878 10.3732C91.8736 10.3732 92.7093 10.5257 93.3961 10.8295C94.0823 11.1337 94.641 11.5422 95.0723 12.0547C95.5035 12.5674 95.8157 13.1539 96.0098 13.8144C96.2028 14.475 96.2999 15.1699 96.2999 15.8998V16.2647C96.2999 16.4041 96.2957 16.5515 96.2868 16.7078C96.2779 16.8644 96.2689 17.0167 96.2606 17.164C96.2511 17.312 96.238 17.4292 96.2212 17.516H88.4325C88.5028 18.472 88.8035 19.267 89.3328 19.9015C89.8627 20.536 90.7016 20.8528 91.8495 20.8528ZM93.0524 15.5608C93.0524 14.7266 92.8887 14.0488 92.5614 13.5275C92.2335 13.0062 91.6449 12.7454 90.7955 12.7454C90.0694 12.7454 89.4897 12.9931 89.0563 13.4884C88.6225 13.9838 88.4058 14.6745 88.4058 15.5607H93.0524V15.5608ZM102.548 11.9511C102.654 11.796 102.795 11.6237 102.971 11.4338C103.146 11.2441 103.362 11.0717 103.617 10.9166C103.872 10.7614 104.154 10.6318 104.463 10.5284C104.77 10.425 105.1 10.3732 105.453 10.3732C105.664 10.3732 105.888 10.3908 106.126 10.425C106.363 10.4596 106.583 10.5244 106.786 10.6188C106.988 10.7138 107.151 10.8429 107.274 11.0067C107.397 11.1704 107.459 11.3728 107.459 11.614C107.459 11.9932 107.362 12.4287 107.169 12.9203C106.975 13.4124 106.781 13.8319 106.588 14.1793C106.288 13.9361 105.989 13.7492 105.69 13.6189C105.391 13.4886 105.039 13.4233 104.634 13.4233C104.089 13.4233 103.631 13.5802 103.261 13.8938C102.891 14.2074 102.707 14.5822 102.707 15.0179V23.4569H99.1161V10.7381C99.2042 10.721 99.3097 10.7035 99.433 10.6861C99.5384 10.669 99.6617 10.6558 99.8028 10.6469C99.9435 10.6383 100.11 10.6339 100.304 10.6339C100.867 10.6339 101.356 10.7417 101.77 10.9569C102.183 11.1719 102.443 11.5035 102.548 11.9511ZM112.757 11.9511C112.862 11.796 113.003 11.6237 113.179 11.4338C113.355 11.2441 113.571 11.0717 113.826 10.9166C114.081 10.7614 114.363 10.6318 114.671 10.5284C114.979 10.425 115.309 10.3732 115.661 10.3732C115.872 10.3732 116.096 10.3908 116.334 10.425C116.572 10.4596 116.791 10.5244 116.994 10.6188C117.196 10.7138 117.359 10.8429 117.483 11.0067C117.606 11.1704 117.668 11.3728 117.668 11.614C117.668 11.9932 117.57 12.4287 117.377 12.9203C117.183 13.4124 116.99 13.8319 116.796 14.1793C116.497 13.9361 116.198 13.7492 115.898 13.6189C115.599 13.4886 115.247 13.4233 114.842 13.4233C114.297 13.4233 113.839 13.5802 113.469 13.8938C113.1 14.2074 112.915 14.5822 112.915 15.0179V23.4569H109.325V10.7381C109.412 10.721 109.518 10.7035 109.642 10.6861C109.747 10.669 109.87 10.6558 110.011 10.6469C110.152 10.6383 110.319 10.6339 110.513 10.6339C111.076 10.6339 111.565 10.7417 111.978 10.9569C112.391 11.1719 112.651 11.5035 112.757 11.9511ZM129.891 20.0445C129.891 21.4176 130.093 22.4169 130.498 23.0425C130.182 23.1639 129.887 23.251 129.614 23.3031C129.341 23.3554 129.055 23.3813 128.756 23.3813C128.122 23.3813 127.643 23.2596 127.318 23.0164C126.991 22.7733 126.785 22.4257 126.697 21.9736C126.31 22.3738 125.799 22.7125 125.166 22.9906C124.532 23.2681 123.757 23.4075 122.842 23.4075C122.367 23.4075 121.892 23.3424 121.417 23.213C120.941 23.0824 120.51 22.8706 120.123 22.5764C119.736 22.2817 119.419 21.8875 119.173 21.3937C118.926 20.8999 118.803 20.2981 118.803 19.5879C118.803 18.7044 119.018 17.9852 119.45 17.4311C119.881 16.8765 120.422 16.4392 121.073 16.1185C121.724 15.7983 122.429 15.5779 123.186 15.4563C123.942 15.3349 124.638 15.2571 125.271 15.2221C125.482 15.2049 125.689 15.196 125.892 15.196H126.459V14.7215C126.459 14.0535 126.279 13.5789 125.918 13.2979C125.557 13.0168 124.972 12.8759 124.162 12.8759C123.405 12.8759 122.732 12.9977 122.143 13.2408C121.553 13.4844 120.976 13.7622 120.413 14.0751C120.167 13.7797 119.969 13.454 119.819 13.0975C119.67 12.7415 119.595 12.4764 119.595 12.3024C119.595 12.0593 119.731 11.8246 120.004 11.5985C120.277 11.373 120.651 11.1684 121.126 10.9859C121.602 10.8035 122.147 10.656 122.763 10.5428C123.379 10.4299 124.03 10.3733 124.717 10.3733C125.667 10.3733 126.472 10.4691 127.132 10.6601C127.792 10.8516 128.329 11.1468 128.743 11.5464C129.156 11.9464 129.451 12.4458 129.628 13.0453C129.803 13.645 129.891 14.3448 129.891 15.1438V20.0445ZM126.512 17.0207H126.142C126.019 17.0207 125.896 17.0298 125.773 17.0469C125.333 17.0819 124.897 17.1339 124.466 17.2031C124.034 17.2728 123.651 17.3945 123.317 17.5682C122.983 17.742 122.71 17.9682 122.499 18.2459C122.288 18.5241 122.182 18.8806 122.182 19.3148C122.182 19.8015 122.323 20.214 122.605 20.5529C122.886 20.8919 123.361 21.0614 124.03 21.0614C124.364 21.0614 124.681 21.0182 124.981 20.9309C125.28 20.8443 125.544 20.7313 125.773 20.5922C126.001 20.4531 126.182 20.3012 126.314 20.1358C126.446 19.9709 126.512 19.819 126.512 19.6798V17.0207H126.512Z" fill="white"/>
</svg>
