<svg width="19" height="19" viewBox="0 0 19 19" fill="none" xmlns="http://www.w3.org/2000/svg">
<g clip-path="url(#clip0_682_19758)">
<path opacity="0.2" d="M18.9458 9.93044C18.9458 4.96081 14.9164 0.932129 9.9458 0.932129C4.97524 0.932129 0.945801 4.96081 0.945801 9.93044C0.945801 14.9001 4.97524 18.9288 9.9458 18.9288C14.9164 18.9288 18.9458 14.9001 18.9458 9.93044Z" fill="#6754E2"/>
<path d="M15.9458 9.93052C15.9458 6.61743 13.2595 3.93164 9.9458 3.93164C6.63209 3.93164 3.9458 6.61743 3.9458 9.93052C3.9458 13.2436 6.63209 15.9294 9.9458 15.9294C13.2595 15.9294 15.9458 13.2436 15.9458 9.93052Z" fill="#6754E2"/>
<path d="M6.9458 9.93071L8.9456 11.9305L12.9458 7.93091" stroke="white" stroke-width="2"/>
</g>
<defs>
<clipPath id="clip0_682_19758">
<rect width="18" height="17.9966" fill="white" transform="translate(0.945801 0.932129)"/>
</clipPath>
</defs>
</svg>
