<svg version="1.1" xmlns="http://www.w3.org/2000/svg" xmlns:xlink="http://www.w3.org/1999/xlink" width="20" height="20" viewBox="0,0,256,256"><defs><clipPath id="clip-1"><rect x="0" y="0" width="20" height="20" id="clip0_1_2" fill="none"></rect></clipPath></defs><g fill="none" fill-rule="nonzero" stroke="none" stroke-width="1" stroke-linecap="butt" stroke-linejoin="miter" stroke-miterlimit="10" stroke-dasharray="" stroke-dashoffset="0" font-family="none" font-weight="none" font-size="none" text-anchor="none" style="mix-blend-mode: normal"><g transform="scale(12.8,12.8)"><g clip-path="url(#clip-1)"><path d="M13.3,14.7l1.4,-1.4l-3.7,-3.7v-4.6h-2v5.4zM10,20c-1.38333,0 -2.68333,-0.2625 -3.9,-0.7875c-1.21667,-0.525 -2.275,-1.2375 -3.175,-2.1375c-0.9,-0.9 -1.6125,-1.9583 -2.1375,-3.175c-0.525,-1.2167 -0.7875,-2.5167 -0.7875,-3.9c0,-1.38333 0.2625,-2.68333 0.7875,-3.9c0.525,-1.21667 1.2375,-2.275 2.1375,-3.175c0.9,-0.9 1.95833,-1.6125 3.175,-2.1375c1.21667,-0.525 2.51667,-0.7875 3.9,-0.7875c1.3833,0 2.6833,0.2625 3.9,0.7875c1.2167,0.525 2.275,1.2375 3.175,2.1375c0.9,0.9 1.6125,1.95833 2.1375,3.175c0.525,1.21667 0.7875,2.51667 0.7875,3.9c0,1.3833 -0.2625,2.6833 -0.7875,3.9c-0.525,1.2167 -1.2375,2.275 -2.1375,3.175c-0.9,0.9 -1.9583,1.6125 -3.175,2.1375c-1.2167,0.525 -2.5167,0.7875 -3.9,0.7875zM10,18c2.2167,0 4.1042,-0.7792 5.6625,-2.3375c1.5583,-1.5583 2.3375,-3.4458 2.3375,-5.6625c0,-2.21667 -0.7792,-4.10417 -2.3375,-5.6625c-1.5583,-1.55833 -3.4458,-2.3375 -5.6625,-2.3375c-2.21667,0 -4.10417,0.77917 -5.6625,2.3375c-1.55833,1.55833 -2.3375,3.44583 -2.3375,5.6625c0,2.2167 0.77917,4.1042 2.3375,5.6625c1.55833,1.5583 3.44583,2.3375 5.6625,2.3375z" fill="#000000"></path></g></g></g></svg>