<svg xmlns="http://www.w3.org/2000/svg" width="40.396" height="40.396" viewBox="0 0 40.396 40.396"><g transform="translate(-992 -640)"><path d="M1012.2,680.4a20.2,20.2,0,1,1,20.2-20.2A20.221,20.221,0,0,1,1012.2,680.4Zm0-37.871a17.673,17.673,0,1,0,17.673,17.673A17.693,17.693,0,0,0,1012.2,642.525Z"/><path d="M1130.67,758.473l-1.785-1.785-9.206,9.206-9.206-9.206-1.785,1.785,9.206,9.206-9.206,9.206,1.785,1.785,9.206-9.206,9.206,9.206,1.785-1.785-9.206-9.206Z" transform="translate(-107.481 -107.481)"/></g></svg>