<svg width="170" height="39" viewBox="0 0 170 39" fill="none" xmlns="http://www.w3.org/2000/svg">
<g clip-path="url(#clip0_6389_119122)">
<path d="M31.4197 0.847656H6.59552C3.06186 0.847656 0.197266 3.71225 0.197266 7.24591V32.0701C0.197266 35.6037 3.06186 38.4683 6.59552 38.4683H31.4197C34.9534 38.4683 37.8179 35.6037 37.8179 32.0701V7.24591C37.8179 3.71225 34.9534 0.847656 31.4197 0.847656Z" fill="#F7931E"/>
<path d="M10.7773 8.78906V12.3174H16.951V30.5378H21.0656V12.3174H27.2354V8.78906H10.7773Z" fill="white"/>
<path d="M118.349 8.78906V30.5378H115.41V15.1112L108.327 30.5378H106.329L99.2454 15.1112V30.5378H96.307V8.78906H99.2454L107.33 26.37L115.414 8.78906H118.353H118.349ZM122.76 8.78906V30.5378H125.699V8.78906H122.76ZM54.8648 11.1413V8.78906H43.1074V30.5378H54.8648V28.1856H46.0458V20.8396H53.6887V18.4873H46.0458V11.1413H54.8648ZM93.7454 30.5378H90.9364L89.2655 25.8333H79.5368L77.8658 30.5378H75.0568L82.7911 8.78906H86.0111L93.7454 30.5378ZM88.4281 23.4849L84.4011 12.1614L80.3741 23.4849H88.4281ZM144.216 8.78906V25.9551L133.048 8.78906H130.11V30.5378H133.048V13.3908L144.216 30.5378H147.154V8.78906H144.216ZM169.196 19.6634C169.196 25.6696 164.32 30.5378 158.322 30.5378H150.976V8.78906H158.322C164.328 8.78906 169.196 13.661 169.196 19.6634ZM166.406 19.6634C166.406 14.9437 162.585 11.1413 157.884 11.1413H153.918V28.1894H157.884C162.592 28.1894 166.406 24.3755 166.406 19.6672V19.6634ZM73.1195 30.5378H70.0555L65.0693 22.0157H61.0385V30.5378H58.1001V8.78906H66.3292C69.9831 8.78906 72.9406 11.7503 72.9406 15.4005C72.9406 18.4721 70.8395 21.0603 68.0039 21.7987L73.1195 30.5378ZM66.1807 19.6634C68.5368 19.6634 70.4437 17.7565 70.4437 15.4005C70.4437 13.0444 68.5216 11.1375 66.1807 11.1375H61.0385V19.6596H66.1807V19.6634Z" fill="white"/>
</g>
<defs>
<clipPath id="clip0_6389_119122">
<rect width="169" height="37.6207" fill="white" transform="translate(0.197266 0.847656)"/>
</clipPath>
</defs>
</svg>
