<svg width="68" height="14" viewBox="0 0 68 14" fill="none" xmlns="http://www.w3.org/2000/svg">
<path d="M9.608 13H7.56V7.928H2.536V13H0.488V1.576H2.536V6.184H7.56V1.576H9.608V13ZM20.0858 4.328V13H18.5018L18.2298 11.88H18.1338C17.9524 12.1787 17.7178 12.424 17.4298 12.616C17.1418 12.7973 16.8271 12.9307 16.4858 13.016C16.1444 13.112 15.7924 13.16 15.4298 13.16C14.7898 13.16 14.2351 13.048 13.7658 12.824C13.2964 12.6 12.9391 12.2587 12.6938 11.8C12.4484 11.3307 12.3258 10.728 12.3258 9.992V4.328H14.3418V9.592C14.3418 10.232 14.4698 10.7173 14.7258 11.048C14.9818 11.368 15.3871 11.528 15.9418 11.528C16.4858 11.528 16.9124 11.416 17.2218 11.192C17.5311 10.9573 17.7498 10.6213 17.8778 10.184C18.0058 9.74667 18.0698 9.208 18.0698 8.568V4.328H20.0858ZM24.6714 3.72C24.6714 4.06133 24.6607 4.392 24.6394 4.712C24.618 5.032 24.5967 5.28267 24.5754 5.464H24.6714C24.906 5.10133 25.226 4.79733 25.6314 4.552C26.0367 4.296 26.5647 4.168 27.2154 4.168C28.2287 4.168 29.0447 4.54667 29.6634 5.304C30.282 6.06133 30.5914 7.176 30.5914 8.648C30.5914 9.64 30.4474 10.472 30.1594 11.144C29.882 11.816 29.482 12.3227 28.9594 12.664C28.4474 12.9947 27.85 13.16 27.1674 13.16C26.5167 13.16 25.994 13.0427 25.5994 12.808C25.2154 12.5733 24.906 12.3013 24.6714 11.992H24.5274L24.1594 13H22.6554V0.839999H24.6714V3.72ZM26.6394 5.8C26.1487 5.8 25.7594 5.896 25.4714 6.088C25.194 6.28 24.9914 6.57333 24.8634 6.968C24.7354 7.36267 24.6714 7.864 24.6714 8.472V8.648C24.6714 9.576 24.81 10.2853 25.0874 10.776C25.3754 11.2667 25.9034 11.512 26.6714 11.512C27.2687 11.512 27.7274 11.2667 28.0474 10.776C28.3674 10.2747 28.5274 9.56 28.5274 8.632C28.5274 7.69333 28.362 6.98933 28.0314 6.52C27.7114 6.04 27.2474 5.8 26.6394 5.8ZM38.575 10.488C38.575 11.064 38.4363 11.5547 38.159 11.96C37.8817 12.3547 37.471 12.6533 36.927 12.856C36.3937 13.0587 35.7377 13.16 34.959 13.16C34.351 13.16 33.8283 13.1173 33.391 13.032C32.9537 12.9467 32.5377 12.8133 32.143 12.632V10.92C32.5697 11.1227 33.0443 11.2933 33.567 11.432C34.0897 11.5707 34.575 11.64 35.023 11.64C35.5777 11.64 35.9777 11.5547 36.223 11.384C36.4683 11.2133 36.591 10.984 36.591 10.696C36.591 10.5253 36.543 10.3707 36.447 10.232C36.351 10.0933 36.1643 9.94933 35.887 9.8C35.6097 9.64 35.1883 9.44267 34.623 9.208C34.0683 8.984 33.6043 8.76 33.231 8.536C32.8683 8.312 32.591 8.04533 32.399 7.736C32.2177 7.416 32.127 7.016 32.127 6.536C32.127 5.75733 32.4363 5.17067 33.055 4.776C33.6737 4.37067 34.4897 4.168 35.503 4.168C36.0363 4.168 36.5377 4.22133 37.007 4.328C37.487 4.424 37.967 4.584 38.447 4.808L37.807 6.296C37.5403 6.17867 37.2737 6.07733 37.007 5.992C36.751 5.896 36.4897 5.82133 36.223 5.768C35.967 5.71467 35.7057 5.688 35.439 5.688C35.0017 5.688 34.671 5.75733 34.447 5.896C34.223 6.024 34.111 6.20533 34.111 6.44C34.111 6.62133 34.1643 6.78133 34.271 6.92C34.3883 7.048 34.5857 7.18133 34.863 7.32C35.151 7.448 35.5563 7.61867 36.079 7.832C36.6017 8.03467 37.0443 8.248 37.407 8.472C37.7803 8.68533 38.0683 8.952 38.271 9.272C38.4737 9.592 38.575 9.99733 38.575 10.488ZM43.8748 11.544C44.1308 11.544 44.3761 11.5227 44.6108 11.48C44.8454 11.4267 45.0641 11.368 45.2668 11.304V12.808C45.0534 12.904 44.7761 12.984 44.4348 13.048C44.0934 13.1227 43.7361 13.16 43.3628 13.16C42.8721 13.16 42.4241 13.08 42.0188 12.92C41.6241 12.7493 41.3041 12.4613 41.0588 12.056C40.8241 11.6507 40.7068 11.0853 40.7068 10.36V5.848H39.5388V4.968L40.8188 4.264L41.4588 2.424H42.7228V4.328H45.1868V5.848H42.7228V10.344C42.7228 10.7493 42.8294 11.0533 43.0428 11.256C43.2561 11.448 43.5334 11.544 43.8748 11.544ZM50.4708 4.168C51.5908 4.168 52.4388 4.41333 53.0148 4.904C53.6014 5.384 53.8948 6.14133 53.8948 7.176V13H52.4708L52.0708 11.8H52.0068C51.7614 12.1093 51.5054 12.3707 51.2388 12.584C50.9828 12.7867 50.6841 12.9307 50.3428 13.016C50.0121 13.112 49.6068 13.16 49.1268 13.16C48.6148 13.16 48.1508 13.064 47.7348 12.872C47.3294 12.68 47.0094 12.3867 46.7747 11.992C46.5401 11.5867 46.4228 11.08 46.4228 10.472C46.4228 9.576 46.7481 8.904 47.3988 8.456C48.0601 7.99733 49.0574 7.74667 50.3908 7.704L51.8948 7.656V7.224C51.8948 6.66933 51.7614 6.27467 51.4948 6.04C51.2281 5.80533 50.8548 5.688 50.3748 5.688C49.9374 5.688 49.5161 5.752 49.1108 5.88C48.7054 6.008 48.3108 6.15733 47.9268 6.328L47.2868 4.92C47.7134 4.696 48.1988 4.51467 48.7428 4.376C49.2974 4.23733 49.8734 4.168 50.4708 4.168ZM50.8388 8.936C49.9534 8.968 49.3401 9.12267 48.9988 9.4C48.6574 9.66667 48.4868 10.0293 48.4868 10.488C48.4868 10.8933 48.6094 11.1867 48.8548 11.368C49.1001 11.5493 49.4148 11.64 49.7988 11.64C50.3854 11.64 50.8814 11.4747 51.2868 11.144C51.6921 10.8027 51.8948 10.3013 51.8948 9.64V8.904L50.8388 8.936ZM60.917 5.848H58.821V13H56.805V5.848H55.413V4.888L56.805 4.312V3.72C56.805 2.97333 56.9223 2.38667 57.157 1.96C57.3917 1.53333 57.733 1.22933 58.181 1.048C58.629 0.855999 59.157 0.759999 59.765 0.759999C60.1917 0.759999 60.5757 0.797333 60.917 0.872C61.2583 0.936 61.541 1.01067 61.765 1.096L61.253 2.6C61.0717 2.54667 60.869 2.49867 60.645 2.456C60.4317 2.40267 60.197 2.376 59.941 2.376C59.557 2.376 59.2743 2.49867 59.093 2.744C58.9117 2.98933 58.821 3.33067 58.821 3.768V4.328H60.917V5.848ZM66.853 5.848H64.757V13H62.741V5.848H61.349V4.888L62.741 4.312V3.72C62.741 2.97333 62.8583 2.38667 63.093 1.96C63.3277 1.53333 63.669 1.22933 64.117 1.048C64.565 0.855999 65.093 0.759999 65.701 0.759999C66.1277 0.759999 66.5117 0.797333 66.853 0.872C67.1943 0.936 67.477 1.01067 67.701 1.096L67.189 2.6C67.0077 2.54667 66.805 2.49867 66.581 2.456C66.3677 2.40267 66.133 2.376 65.877 2.376C65.493 2.376 65.2103 2.49867 65.029 2.744C64.8477 2.98933 64.757 3.33067 64.757 3.768V4.328H66.853V5.848Z" fill="#00234B"/>
</svg>
