<svg width="72" height="14" viewBox="0 0 72 14" fill="none" xmlns="http://www.w3.org/2000/svg">
<path d="M5.54844 13L2.41244 3.64H2.34844C2.3591 3.85333 2.3751 4.15733 2.39644 4.552C2.41777 4.936 2.43377 5.35733 2.44444 5.816C2.46577 6.264 2.47644 6.68533 2.47644 7.08V13H0.636438V1.576H3.48444L6.49244 10.552H6.55644L9.69244 1.576H12.5404V13H10.5884V6.984C10.5884 6.62133 10.5938 6.22667 10.6044 5.8C10.6258 5.36267 10.6418 4.952 10.6524 4.568C10.6738 4.17333 10.6898 3.86933 10.7004 3.656H10.6364L7.37244 13H5.54844ZM23.0478 8.648C23.0478 9.37333 22.9518 10.0133 22.7598 10.568C22.5678 11.1227 22.2905 11.5973 21.9278 11.992C21.5758 12.376 21.1385 12.6693 20.6158 12.872C20.1038 13.064 19.5331 13.16 18.9038 13.16C18.3065 13.16 17.7571 13.064 17.2558 12.872C16.7545 12.6693 16.3171 12.376 15.9438 11.992C15.5811 11.5973 15.2985 11.1227 15.0958 10.568C14.8931 10.0133 14.7918 9.37333 14.7918 8.648C14.7918 7.688 14.9571 6.87733 15.2878 6.216C15.6185 5.544 16.0931 5.03733 16.7118 4.696C17.3411 4.344 18.0825 4.168 18.9358 4.168C19.7465 4.168 20.4558 4.344 21.0638 4.696C21.6825 5.03733 22.1678 5.544 22.5198 6.216C22.8718 6.87733 23.0478 7.688 23.0478 8.648ZM16.8558 8.648C16.8558 9.256 16.9251 9.77867 17.0638 10.216C17.2131 10.6427 17.4371 10.968 17.7358 11.192C18.0451 11.416 18.4398 11.528 18.9198 11.528C19.4105 11.528 19.8051 11.416 20.1038 11.192C20.4131 10.968 20.6371 10.6427 20.7758 10.216C20.9145 9.77867 20.9838 9.256 20.9838 8.648C20.9838 8.02933 20.9091 7.512 20.7598 7.096C20.6211 6.66933 20.3971 6.34933 20.0878 6.136C19.7891 5.912 19.3998 5.8 18.9198 5.8C18.1945 5.8 17.6665 6.04533 17.3358 6.536C17.0158 7.02667 16.8558 7.73067 16.8558 8.648ZM29.7719 4.168C30.7426 4.168 31.4999 4.41867 32.0439 4.92C32.5986 5.42133 32.8759 6.232 32.8759 7.352V13H30.8599V7.752C30.8599 7.10133 30.7319 6.616 30.4759 6.296C30.2199 5.96533 29.8146 5.8 29.2599 5.8C28.4493 5.8 27.8946 6.056 27.5959 6.568C27.2973 7.06933 27.1479 7.8 27.1479 8.76V13H25.1319V4.328H26.6839L26.9719 5.464H27.0839C27.2759 5.16533 27.5106 4.92 27.7879 4.728C28.0653 4.536 28.3746 4.39733 28.7159 4.312C29.0573 4.216 29.4093 4.168 29.7719 4.168ZM37.4136 4.328V13H35.3976V4.328H37.4136ZM36.4056 0.983999C36.7042 0.983999 36.9656 1.064 37.1896 1.224C37.4136 1.37333 37.5256 1.64533 37.5256 2.04C37.5256 2.424 37.4136 2.70133 37.1896 2.872C36.9656 3.032 36.7042 3.112 36.4056 3.112C36.0962 3.112 35.8296 3.032 35.6056 2.872C35.3922 2.70133 35.2856 2.424 35.2856 2.04C35.2856 1.64533 35.3922 1.37333 35.6056 1.224C35.8296 1.064 36.0962 0.983999 36.4056 0.983999ZM43.3513 11.544C43.6073 11.544 43.8526 11.5227 44.0873 11.48C44.322 11.4267 44.5406 11.368 44.7433 11.304V12.808C44.53 12.904 44.2526 12.984 43.9113 13.048C43.57 13.1227 43.2126 13.16 42.8393 13.16C42.3486 13.16 41.9006 13.08 41.4953 12.92C41.1006 12.7493 40.7806 12.4613 40.5353 12.056C40.3006 11.6507 40.1833 11.0853 40.1833 10.36V5.848H39.0153V4.968L40.2953 4.264L40.9353 2.424H42.1993V4.328H44.6633V5.848H42.1993V10.344C42.1993 10.7493 42.306 11.0533 42.5193 11.256C42.7326 11.448 43.01 11.544 43.3513 11.544ZM49.9473 4.168C51.0673 4.168 51.9153 4.41333 52.4913 4.904C53.078 5.384 53.3713 6.14133 53.3713 7.176V13H51.9473L51.5473 11.8H51.4833C51.238 12.1093 50.982 12.3707 50.7153 12.584C50.4593 12.7867 50.1606 12.9307 49.8193 13.016C49.4886 13.112 49.0833 13.16 48.6033 13.16C48.0913 13.16 47.6273 13.064 47.2113 12.872C46.806 12.68 46.486 12.3867 46.2513 11.992C46.0166 11.5867 45.8993 11.08 45.8993 10.472C45.8993 9.576 46.2246 8.904 46.8753 8.456C47.5366 7.99733 48.534 7.74667 49.8673 7.704L51.3713 7.656V7.224C51.3713 6.66933 51.238 6.27467 50.9713 6.04C50.7046 5.80533 50.3313 5.688 49.8513 5.688C49.414 5.688 48.9926 5.752 48.5873 5.88C48.182 6.008 47.7873 6.15733 47.4033 6.328L46.7633 4.92C47.19 4.696 47.6753 4.51467 48.2193 4.376C48.774 4.23733 49.35 4.168 49.9473 4.168ZM50.3153 8.936C49.43 8.968 48.8166 9.12267 48.4753 9.4C48.134 9.66667 47.9633 10.0293 47.9633 10.488C47.9633 10.8933 48.086 11.1867 48.3313 11.368C48.5766 11.5493 48.8913 11.64 49.2753 11.64C49.862 11.64 50.358 11.4747 50.7633 11.144C51.1686 10.8027 51.3713 10.3013 51.3713 9.64V8.904L50.3153 8.936ZM61.8016 10.488C61.8016 11.064 61.6629 11.5547 61.3856 11.96C61.1082 12.3547 60.6976 12.6533 60.1536 12.856C59.6202 13.0587 58.9642 13.16 58.1856 13.16C57.5776 13.16 57.0549 13.1173 56.6176 13.032C56.1802 12.9467 55.7642 12.8133 55.3696 12.632V10.92C55.7962 11.1227 56.2709 11.2933 56.7936 11.432C57.3162 11.5707 57.8016 11.64 58.2496 11.64C58.8042 11.64 59.2042 11.5547 59.4496 11.384C59.6949 11.2133 59.8176 10.984 59.8176 10.696C59.8176 10.5253 59.7696 10.3707 59.6736 10.232C59.5776 10.0933 59.3909 9.94933 59.1136 9.8C58.8362 9.64 58.4149 9.44267 57.8496 9.208C57.2949 8.984 56.8309 8.76 56.4576 8.536C56.0949 8.312 55.8176 8.04533 55.6256 7.736C55.4442 7.416 55.3536 7.016 55.3536 6.536C55.3536 5.75733 55.6629 5.17067 56.2816 4.776C56.9002 4.37067 57.7162 4.168 58.7296 4.168C59.2629 4.168 59.7642 4.22133 60.2336 4.328C60.7136 4.424 61.1936 4.584 61.6736 4.808L61.0336 6.296C60.7669 6.17867 60.5002 6.07733 60.2336 5.992C59.9776 5.896 59.7162 5.82133 59.4496 5.768C59.1936 5.71467 58.9322 5.688 58.6656 5.688C58.2282 5.688 57.8976 5.75733 57.6736 5.896C57.4496 6.024 57.3376 6.20533 57.3376 6.44C57.3376 6.62133 57.3909 6.78133 57.4976 6.92C57.6149 7.048 57.8122 7.18133 58.0896 7.32C58.3776 7.448 58.7829 7.61867 59.3056 7.832C59.8282 8.03467 60.2709 8.248 60.6336 8.472C61.0069 8.68533 61.2949 8.952 61.4976 9.272C61.7002 9.592 61.8016 9.99733 61.8016 10.488ZM65.7413 6.616C65.7413 6.89333 65.7306 7.18667 65.7093 7.496C65.688 7.79467 65.6666 8.088 65.6453 8.376H65.6933C65.7786 8.248 65.88 8.10933 65.9973 7.96C66.1146 7.8 66.232 7.64533 66.3493 7.496C66.4773 7.336 66.6 7.192 66.7173 7.064L69.2773 4.328H71.5653L68.0933 8.072L71.7893 13H69.4373L66.7493 9.288L65.7413 10.12V13H63.7413V0.839999H65.7413V6.616Z" fill="#00234B"/>
</svg>
