<svg width="45" height="45" viewBox="0 0 45 45" fill="none" xmlns="http://www.w3.org/2000/svg">
<g clip-path="url(#clip0_128_14418)">
<path d="M0.0527344 18.8248C0.0527344 15.0329 3.68155 11.959 8.1579 11.959H36.716C41.1923 11.959 44.8211 15.0329 44.8211 18.8248V28.7424C44.8211 32.5343 41.1923 35.6081 36.716 35.6081H8.1579C3.68154 35.6081 0.0527344 32.5343 0.0527344 28.7424V18.8248Z" fill="#E4ECFF"/>
<path d="M31.3907 11.6686C29.1343 11.6686 27.0799 9.74298 27.0799 7.62923V6.59058H17.7948V7.62923C17.7948 9.74292 15.7404 11.6686 13.484 11.6686H12.4883V21.5922C12.4883 27.0306 21.0691 31.0013 22.0469 31.4357L22.4368 31.6082L22.8268 31.4357C23.8047 31.0015 32.3853 27.0319 32.3853 21.5922V11.6686H31.3907ZM26.4164 20.093H23.4318V23.209H21.4421V20.093H18.4575V18.0157H21.4421V14.8998H23.4318V18.0157H26.4164V20.093Z" fill="#7DA1F5"/>
</g>
<defs>
<clipPath id="clip0_128_14418">
<rect width="44.7684" height="44.7684" fill="white" transform="translate(0.0527344 0.00708008)"/>
</clipPath>
</defs>
</svg>
