<svg width="46" height="46" viewBox="0 0 46 46" fill="none" xmlns="http://www.w3.org/2000/svg">
<g clip-path="url(#clip0_128_14393)">
<path d="M0.0527344 19.1261C0.0527344 15.2734 3.75002 12.1501 8.31083 12.1501H37.4077C41.9685 12.1501 45.6658 15.2734 45.6658 19.1261V29.2029C45.6658 33.0557 41.9685 36.1788 37.4077 36.1788H8.31083C3.75001 36.1788 0.0527344 33.0557 0.0527344 29.2029V19.1261Z" fill="#FFECEC"/>
<path d="M13.3826 4.02051H31.8828C32.394 4.02051 32.8845 4.23471 33.2464 4.61592C33.6084 4.99711 33.8123 5.51441 33.8135 6.05421V32.7525C33.8135 33.2931 33.61 33.8117 33.248 34.194C32.8859 34.5762 32.3948 34.7911 31.8828 34.7911H13.3826C12.8714 34.7898 12.3815 34.5745 12.0204 34.1923C11.6594 33.8102 11.4566 33.2923 11.4566 32.7525V6.05421C11.4578 5.51526 11.6611 4.99862 12.0221 4.61762C12.3829 4.23642 12.8722 4.02177 13.3826 4.02051V4.02051ZM12.5949 32.7524C12.5949 32.9734 12.6778 33.1855 12.8254 33.3424C12.973 33.4991 13.1732 33.5877 13.3826 33.589H31.8828C32.0891 33.5828 32.2847 33.4918 32.4284 33.3357C32.5721 33.1795 32.6524 32.9702 32.6524 32.7524V6.0541C32.6524 5.83688 32.5719 5.62804 32.4282 5.47265C32.2842 5.31725 32.0887 5.22732 31.8828 5.22238H13.3826C13.1736 5.22238 12.9734 5.30995 12.8256 5.46599C12.6779 5.62203 12.5949 5.83345 12.5949 6.05409L12.5949 32.7524Z" fill="#FF9696"/>
<path d="M14.4711 6.62649H30.7951C31.1093 6.62649 31.3643 6.89543 31.3643 7.2275V13.2277C31.3643 13.3872 31.3043 13.54 31.1976 13.6527C31.0909 13.7654 30.9459 13.8287 30.7951 13.8287H14.4711C14.1585 13.8261 13.9064 13.5578 13.9064 13.2277V7.22748C13.9064 6.89737 14.1585 6.62905 14.4711 6.62646L14.4711 6.62649ZM15.0403 12.6267H30.2257V7.81885H15.0403V12.6267Z" fill="#FF9696"/>
<path d="M30.343 14.8811H28.6992C28.2088 14.8811 27.8112 15.3988 27.8112 15.8186V17.5542C27.8112 18.0719 28.2089 18.4917 28.6992 18.4917H30.343C30.8333 18.4917 31.231 17.974 31.231 17.5542V15.8186C31.231 15.3009 30.8333 14.8811 30.343 14.8811Z" fill="#FF9696"/>
<path d="M28.7043 28.4351H30.3436C30.5852 28.4351 30.8169 28.5364 30.9877 28.7167C31.1584 28.8972 31.2544 29.1416 31.2544 29.3966V31.1227C31.2544 31.3777 31.1584 31.6222 30.9877 31.8027C30.8169 31.983 30.5852 32.0843 30.3436 32.0843H28.7043C28.4628 32.0843 28.2312 31.983 28.0603 31.8027C27.8895 31.6222 27.7935 31.3777 27.7935 31.1227V29.3775C27.7984 29.1257 27.8964 28.886 28.0668 28.71C28.2369 28.5338 28.4658 28.4351 28.7043 28.4351V28.4351Z" fill="#FF9696"/>
<path d="M24.11 19.4062H25.7494C25.987 19.4062 26.2151 19.5041 26.3853 19.6793C26.5557 19.8544 26.6541 20.0929 26.6602 20.3438V22.0746C26.6602 22.3296 26.5642 22.5743 26.3932 22.7546C26.2225 22.9349 25.9909 23.0362 25.7494 23.0362H24.1101C23.8724 23.03 23.6466 22.9259 23.4807 22.7462C23.3148 22.5666 23.2219 22.3256 23.2221 22.0746V20.3438C23.2278 20.097 23.3231 19.8621 23.4884 19.6877C23.6537 19.5132 23.8763 19.4123 24.11 19.4063L24.11 19.4062Z" fill="#FF9696"/>
<path d="M24.1101 23.9204H25.7494C25.9909 23.9204 26.2225 24.0217 26.3932 24.202C26.5642 24.3823 26.6602 24.6268 26.6602 24.882V26.6081V26.6079C26.6602 26.8629 26.5642 27.1076 26.3932 27.2879C26.2225 27.4682 25.9909 27.5695 25.7494 27.5695H24.1101C23.8724 27.5633 23.6466 27.4592 23.4807 27.2795C23.3147 27.0999 23.2219 26.8588 23.2221 26.6079V24.8579C23.2278 24.6111 23.3231 24.3761 23.4884 24.2016C23.6537 24.0271 23.8763 23.9264 24.11 23.9204L24.1101 23.9204Z" fill="#FF9696"/>
<path d="M25.7541 14.8811H24.1103C23.62 14.8811 23.2223 15.3988 23.2223 15.8186V17.5542C23.2223 18.0719 23.62 18.4917 24.1103 18.4917H25.7541C26.2445 18.4917 26.6421 17.974 26.6421 17.5542V15.8186C26.6421 15.3009 26.2445 14.8811 25.7541 14.8811Z" fill="#FF9696"/>
<path d="M28.7043 19.4062H30.3436C30.5813 19.4062 30.8096 19.5041 30.9797 19.6793C31.1499 19.8544 31.2485 20.0929 31.2544 20.3438V22.0746C31.2544 22.3296 31.1584 22.5743 30.9877 22.7546C30.8169 22.9349 30.5852 23.0362 30.3436 23.0362H28.7043C28.4628 23.0362 28.2312 22.9349 28.0603 22.7546C27.8895 22.5743 27.7935 22.3296 27.7935 22.0746V20.3438C27.7994 20.0929 27.898 19.8544 28.0682 19.6793C28.2383 19.5041 28.4666 19.4062 28.7043 19.4062H28.7043Z" fill="#FF9696"/>
<path d="M28.7043 23.9204H30.3436C30.5852 23.9204 30.8169 24.0218 30.9877 24.2021C31.1584 24.3823 31.2544 24.6268 31.2544 24.882V26.6081V26.6079C31.2544 26.8629 31.1584 27.1076 30.9877 27.2879C30.8169 27.4682 30.5852 27.5695 30.3436 27.5695H28.7043C28.4628 27.5695 28.2312 27.4682 28.0603 27.2879C27.8895 27.1076 27.7935 26.8629 27.7935 26.6079V24.858C27.7994 24.6071 27.898 24.3686 28.0682 24.1934C28.2383 24.0183 28.4666 23.9202 28.7043 23.9204L28.7043 23.9204Z" fill="#FF9696"/>
<path d="M19.5158 28.4351H21.1552C21.3967 28.4351 21.6284 28.5364 21.7992 28.7167C21.97 28.8972 22.0659 29.1417 22.0659 29.3967V31.1228C22.0659 31.3778 21.97 31.6222 21.7992 31.8027C21.6284 31.983 21.3967 32.0844 21.1552 32.0844H19.5158C19.2782 32.0781 19.0523 31.974 18.8864 31.7944C18.7205 31.6147 18.6278 31.3737 18.6278 31.1228V29.3775C18.6325 29.1298 18.7274 28.8937 18.8927 28.7182C19.0582 28.5426 19.2814 28.4413 19.5158 28.4351V28.4351Z" fill="#FF9696"/>
<path d="M16.5652 14.8811H14.9213C14.431 14.8811 14.0334 15.3988 14.0334 15.8186V17.5542C14.0334 18.0719 14.431 18.4917 14.9213 18.4917H16.5652C17.0555 18.4917 17.4531 17.974 17.4531 17.5542V15.8186C17.4531 15.3009 17.0555 14.8811 16.5652 14.8811Z" fill="#FF9696"/>
<path d="M14.9258 19.4063H16.5652C16.7987 19.4123 17.0214 19.5132 17.1866 19.6877C17.3519 19.8622 17.4472 20.097 17.4531 20.3438V22.0746C17.4531 22.3255 17.3604 22.5666 17.1943 22.7462C17.0284 22.9259 16.8026 23.03 16.5651 23.0362H14.9258C14.6843 23.0362 14.4525 22.9349 14.2818 22.7546C14.111 22.5743 14.015 22.3296 14.015 22.0746V20.3438C14.0209 20.0929 14.1195 19.8544 14.2897 19.6793C14.4598 19.5041 14.6881 19.4062 14.9258 19.4062L14.9258 19.4063Z" fill="#FF9696"/>
<path d="M14.9258 23.9204H16.5651C16.8026 23.9266 17.0284 24.0307 17.1943 24.2104C17.3604 24.39 17.4531 24.6311 17.4531 24.882V31.1322C17.4531 31.3831 17.3604 31.624 17.1943 31.8036C17.0284 31.9835 16.8026 32.0874 16.5651 32.0938H14.9258C14.6843 32.0938 14.4525 31.9925 14.2817 31.812C14.111 31.6317 14.015 31.3872 14.015 31.1323V24.882C14.015 24.6268 14.111 24.3823 14.2817 24.202C14.4525 24.0218 14.6843 23.9204 14.9258 23.9204V23.9204Z" fill="#FF9696"/>
<path d="M21.1599 14.8811H19.5161C19.0257 14.8811 18.6281 15.3988 18.6281 15.8186V17.5542C18.6281 18.0719 19.0257 18.4917 19.5161 18.4917H21.1599C21.6502 18.4917 22.0479 17.974 22.0479 17.5542V15.8186C22.0479 15.3009 21.6502 14.8811 21.1599 14.8811Z" fill="#FF9696"/>
<path d="M24.1101 28.4351H25.7494C25.9909 28.4351 26.2225 28.5364 26.3932 28.7167C26.5642 28.8972 26.6602 29.1417 26.6602 29.3967V31.1228C26.6602 31.3778 26.5642 31.6222 26.3932 31.8027C26.2225 31.983 25.9909 32.0844 25.7494 32.0844H24.1101C23.8724 32.0781 23.6466 31.974 23.4807 31.7944C23.3148 31.6147 23.2219 31.3737 23.2221 31.1228V29.3775C23.2265 29.1298 23.3215 28.8937 23.4869 28.7182C23.6522 28.5426 23.8754 28.4413 24.1101 28.4351V28.4351Z" fill="#FF9696"/>
<path d="M19.5158 23.9204H21.1552C21.3967 23.9204 21.6284 24.0217 21.7992 24.202C21.97 24.3823 22.0659 24.6268 22.0659 24.882V26.6081V26.6079C22.0659 26.8629 21.97 27.1076 21.7992 27.2879C21.6284 27.4682 21.3967 27.5695 21.1552 27.5695H19.5158C19.2782 27.5633 19.0523 27.4592 18.8864 27.2795C18.7205 27.0999 18.6278 26.8588 18.6278 26.6079V24.8579C18.6335 24.6111 18.7291 24.3761 18.8943 24.2016C19.0596 24.0271 19.282 23.9264 19.5158 23.9204L19.5158 23.9204Z" fill="#FF9696"/>
<path d="M19.5158 19.4062H21.1552C21.3928 19.4062 21.6211 19.5041 21.7913 19.6793C21.9614 19.8544 22.06 20.0929 22.0659 20.3438V22.0746C22.0659 22.3296 21.97 22.5743 21.7992 22.7546C21.6284 22.9349 21.3967 23.0362 21.1552 23.0362H19.5158C19.2782 23.03 19.0523 22.9259 18.8864 22.7462C18.7205 22.5666 18.6278 22.3256 18.6278 22.0746V20.3438C18.6335 20.097 18.7291 19.8621 18.8943 19.6877C19.0596 19.5132 19.282 19.4123 19.5158 19.4063L19.5158 19.4062Z" fill="#FF9696"/>
</g>
<defs>
<clipPath id="clip0_128_14393">
<rect width="45.6131" height="45.4869" fill="white" transform="translate(0.0527344 0.00708008)"/>
</clipPath>
</defs>
</svg>
