<svg width="26" height="26" viewBox="0 0 26 26" fill="none" xmlns="http://www.w3.org/2000/svg">
<g clip-path="url(#clip0_3894_108966)">
<path d="M6.80846 11.7514H9.30833V14.2512H6.80846V11.7514ZM24.3075 5.50169V23.0008C24.3075 24.3757 23.1826 25.5007 21.8077 25.5007H4.30859C2.92116 25.5007 1.80872 24.3757 1.80872 23.0008L1.82122 5.50169C1.82122 4.12676 2.92116 3.00182 4.30859 3.00182H5.55852V0.501953H8.05839V3.00182H18.0579V0.501953H20.5577V3.00182H21.8077C23.1826 3.00182 24.3075 4.12676 24.3075 5.50169ZM4.30859 8.00156H21.8077V5.50169H4.30859V8.00156ZM21.8077 23.0008V10.5014H4.30859V23.0008H21.8077ZM16.8079 14.2512H19.3078V11.7514H16.8079V14.2512ZM11.8082 14.2512H14.3081V11.7514H11.8082V14.2512Z" fill="#624DE3" fill-opacity="0.6"/>
</g>
<defs>
<clipPath id="clip0_3894_108966">
<rect width="25" height="25" fill="white" transform="translate(0.558105 0.500977)"/>
</clipPath>
</defs>
</svg>
