<svg width="26" height="26" viewBox="0 0 26 26" fill="none" xmlns="http://www.w3.org/2000/svg">
<g clip-path="url(#clip0_3894_107545)">
<path d="M20.9317 3.50168H19.7443V1.12695H17.3696V3.50168H7.87066V1.12695H5.49593V3.50168H4.30857C2.99059 3.50168 1.94571 4.57031 1.94571 5.87641L1.93384 22.4995C1.93384 23.8056 2.99059 24.8742 4.30857 24.8742H20.9317C22.2378 24.8742 23.3064 23.8056 23.3064 22.4995V5.87641C23.3064 4.57031 22.2378 3.50168 20.9317 3.50168ZM20.9317 22.4995H4.30857V10.6259H20.9317V22.4995ZM20.9317 8.25114H4.30857V5.87641H20.9317V8.25114ZM12.6201 14.188H18.5569V20.1248H12.6201V14.188Z" fill="#624DE3" fill-opacity="0.6"/>
</g>
<defs>
<clipPath id="clip0_3894_107545">
<rect width="25" height="25" fill="white" transform="translate(0.120117 0.500977)"/>
</clipPath>
</defs>
</svg>
