<svg width="205" height="60" viewBox="0 0 205 60" fill="none" xmlns="http://www.w3.org/2000/svg">
<rect width="205" height="60" rx="10" fill="black"/>
<path d="M76.028 15.632C76.028 16.592 75.848 17.396 75.488 18.044C75.136 18.692 74.628 19.18 73.964 19.508C73.3 19.836 72.496 20 71.552 20H69.164V11.432H71.804C72.668 11.432 73.416 11.592 74.048 11.912C74.68 12.232 75.168 12.704 75.512 13.328C75.856 13.944 76.028 14.712 76.028 15.632ZM74.888 15.668C74.888 14.908 74.76 14.284 74.504 13.796C74.256 13.308 73.888 12.948 73.4 12.716C72.92 12.476 72.336 12.356 71.648 12.356H70.244V19.076H71.408C72.568 19.076 73.436 18.792 74.012 18.224C74.596 17.648 74.888 16.796 74.888 15.668ZM83.3776 16.772C83.3776 17.308 83.3056 17.784 83.1616 18.2C83.0256 18.608 82.8256 18.956 82.5616 19.244C82.3056 19.532 81.9896 19.752 81.6136 19.904C81.2456 20.048 80.8336 20.12 80.3776 20.12C79.9536 20.12 79.5616 20.048 79.2016 19.904C78.8416 19.752 78.5296 19.532 78.2656 19.244C78.0016 18.956 77.7936 18.608 77.6416 18.2C77.4976 17.784 77.4256 17.308 77.4256 16.772C77.4256 16.06 77.5456 15.46 77.7856 14.972C78.0256 14.476 78.3696 14.1 78.8176 13.844C79.2656 13.58 79.7976 13.448 80.4136 13.448C80.9976 13.448 81.5096 13.58 81.9496 13.844C82.3976 14.1 82.7456 14.476 82.9936 14.972C83.2496 15.46 83.3776 16.06 83.3776 16.772ZM78.5176 16.772C78.5176 17.276 78.5816 17.716 78.7096 18.092C78.8456 18.46 79.0536 18.744 79.3336 18.944C79.6136 19.144 79.9696 19.244 80.4016 19.244C80.8336 19.244 81.1896 19.144 81.4696 18.944C81.7496 18.744 81.9536 18.46 82.0816 18.092C82.2176 17.716 82.2856 17.276 82.2856 16.772C82.2856 16.26 82.2176 15.824 82.0816 15.464C81.9456 15.104 81.7376 14.828 81.4576 14.636C81.1856 14.436 80.8296 14.336 80.3896 14.336C79.7336 14.336 79.2576 14.552 78.9616 14.984C78.6656 15.416 78.5176 16.012 78.5176 16.772ZM88.9689 16.364C88.9209 16.196 88.8729 16.032 88.8249 15.872C88.7769 15.704 88.7329 15.548 88.6929 15.404C88.6609 15.252 88.6289 15.112 88.5969 14.984C88.5649 14.856 88.5409 14.748 88.5249 14.66H88.4769C88.4609 14.748 88.4369 14.856 88.4049 14.984C88.3809 15.112 88.3489 15.252 88.3089 15.404C88.2769 15.556 88.2369 15.716 88.1889 15.884C88.1489 16.044 88.1009 16.208 88.0449 16.376L86.8929 19.988H85.6929L83.9289 13.556H85.0209L85.9089 16.988C85.9729 17.22 86.0329 17.456 86.0889 17.696C86.1449 17.928 86.1929 18.152 86.2329 18.368C86.2809 18.576 86.3129 18.756 86.3289 18.908H86.3769C86.4009 18.812 86.4289 18.692 86.4609 18.548C86.4929 18.404 86.5249 18.252 86.5569 18.092C86.5969 17.932 86.6369 17.772 86.6769 17.612C86.7249 17.452 86.7689 17.308 86.8089 17.18L87.9489 13.556H89.1009L90.2049 17.18C90.2609 17.364 90.3169 17.56 90.3729 17.768C90.4369 17.976 90.4929 18.18 90.5409 18.38C90.5889 18.572 90.6209 18.744 90.6369 18.896H90.6849C90.7009 18.76 90.7289 18.592 90.7689 18.392C90.8169 18.184 90.8689 17.96 90.9249 17.72C90.9889 17.472 91.0529 17.228 91.1169 16.988L92.0169 13.556H93.0969L91.3089 19.988H90.0729L88.9689 16.364ZM97.3465 13.448C98.1145 13.448 98.6945 13.636 99.0865 14.012C99.4785 14.38 99.6745 14.98 99.6745 15.812V20H98.6305V15.884C98.6305 15.364 98.5145 14.976 98.2825 14.72C98.0505 14.464 97.6865 14.336 97.1905 14.336C96.4785 14.336 95.9865 14.536 95.7145 14.936C95.4425 15.336 95.3065 15.912 95.3065 16.664V20H94.2505V13.568H95.1025L95.2585 14.444H95.3185C95.4625 14.22 95.6385 14.036 95.8465 13.892C96.0625 13.74 96.2985 13.628 96.5545 13.556C96.8105 13.484 97.0745 13.448 97.3465 13.448ZM102.724 20H101.668V10.88H102.724V20ZM110.354 16.772C110.354 17.308 110.282 17.784 110.138 18.2C110.002 18.608 109.802 18.956 109.538 19.244C109.282 19.532 108.966 19.752 108.59 19.904C108.222 20.048 107.81 20.12 107.354 20.12C106.93 20.12 106.538 20.048 106.178 19.904C105.818 19.752 105.506 19.532 105.242 19.244C104.978 18.956 104.77 18.608 104.618 18.2C104.474 17.784 104.402 17.308 104.402 16.772C104.402 16.06 104.522 15.46 104.762 14.972C105.002 14.476 105.346 14.1 105.794 13.844C106.242 13.58 106.774 13.448 107.39 13.448C107.974 13.448 108.486 13.58 108.926 13.844C109.374 14.1 109.722 14.476 109.97 14.972C110.226 15.46 110.354 16.06 110.354 16.772ZM105.494 16.772C105.494 17.276 105.558 17.716 105.686 18.092C105.822 18.46 106.03 18.744 106.31 18.944C106.59 19.144 106.946 19.244 107.378 19.244C107.81 19.244 108.166 19.144 108.446 18.944C108.726 18.744 108.93 18.46 109.058 18.092C109.194 17.716 109.262 17.276 109.262 16.772C109.262 16.26 109.194 15.824 109.058 15.464C108.922 15.104 108.714 14.828 108.434 14.636C108.162 14.436 107.806 14.336 107.366 14.336C106.71 14.336 106.234 14.552 105.938 14.984C105.642 15.416 105.494 16.012 105.494 16.772ZM114.464 13.46C115.248 13.46 115.828 13.632 116.204 13.976C116.58 14.32 116.768 14.868 116.768 15.62V20H116L115.796 19.088H115.748C115.564 19.32 115.372 19.516 115.172 19.676C114.98 19.828 114.756 19.94 114.5 20.012C114.252 20.084 113.948 20.12 113.588 20.12C113.204 20.12 112.856 20.052 112.544 19.916C112.24 19.78 112 19.572 111.824 19.292C111.648 19.004 111.56 18.644 111.56 18.212C111.56 17.572 111.812 17.08 112.316 16.736C112.82 16.384 113.596 16.192 114.644 16.16L115.736 16.124V15.74C115.736 15.204 115.62 14.832 115.388 14.624C115.156 14.416 114.828 14.312 114.404 14.312C114.068 14.312 113.748 14.364 113.444 14.468C113.14 14.564 112.856 14.676 112.592 14.804L112.268 14.012C112.548 13.86 112.88 13.732 113.264 13.628C113.648 13.516 114.048 13.46 114.464 13.46ZM114.776 16.892C113.976 16.924 113.42 17.052 113.108 17.276C112.804 17.5 112.652 17.816 112.652 18.224C112.652 18.584 112.76 18.848 112.976 19.016C113.2 19.184 113.484 19.268 113.828 19.268C114.372 19.268 114.824 19.12 115.184 18.824C115.544 18.52 115.724 18.056 115.724 17.432V16.856L114.776 16.892ZM121.034 20.12C120.234 20.12 119.594 19.844 119.114 19.292C118.634 18.732 118.394 17.9 118.394 16.796C118.394 15.692 118.634 14.86 119.114 14.3C119.602 13.732 120.246 13.448 121.046 13.448C121.382 13.448 121.674 13.492 121.922 13.58C122.17 13.66 122.386 13.772 122.57 13.916C122.754 14.06 122.91 14.22 123.038 14.396H123.11C123.102 14.292 123.086 14.14 123.062 13.94C123.046 13.732 123.038 13.568 123.038 13.448V10.88H124.094V20H123.242L123.086 19.136H123.038C122.91 19.32 122.754 19.488 122.57 19.64C122.386 19.784 122.166 19.9 121.91 19.988C121.662 20.076 121.37 20.12 121.034 20.12ZM121.202 19.244C121.882 19.244 122.358 19.06 122.63 18.692C122.91 18.316 123.05 17.752 123.05 17V16.808C123.05 16.008 122.918 15.396 122.654 14.972C122.39 14.54 121.902 14.324 121.19 14.324C120.622 14.324 120.194 14.552 119.906 15.008C119.626 15.456 119.486 16.06 119.486 16.82C119.486 17.588 119.626 18.184 119.906 18.608C120.194 19.032 120.626 19.244 121.202 19.244ZM132.218 14.384H130.598V20H129.542V14.384H128.414V13.892L129.542 13.532V13.16C129.542 12.608 129.622 12.16 129.782 11.816C129.95 11.472 130.19 11.22 130.502 11.06C130.814 10.9 131.19 10.82 131.63 10.82C131.886 10.82 132.118 10.844 132.326 10.892C132.542 10.932 132.726 10.98 132.878 11.036L132.602 11.864C132.474 11.824 132.326 11.784 132.158 11.744C131.99 11.704 131.818 11.684 131.642 11.684C131.29 11.684 131.026 11.804 130.85 12.044C130.682 12.276 130.598 12.644 130.598 13.148V13.568H132.218V14.384ZM138.971 16.772C138.971 17.308 138.899 17.784 138.755 18.2C138.619 18.608 138.419 18.956 138.155 19.244C137.899 19.532 137.583 19.752 137.207 19.904C136.839 20.048 136.427 20.12 135.971 20.12C135.547 20.12 135.155 20.048 134.795 19.904C134.435 19.752 134.123 19.532 133.859 19.244C133.595 18.956 133.387 18.608 133.235 18.2C133.091 17.784 133.019 17.308 133.019 16.772C133.019 16.06 133.139 15.46 133.379 14.972C133.619 14.476 133.963 14.1 134.411 13.844C134.859 13.58 135.391 13.448 136.007 13.448C136.591 13.448 137.103 13.58 137.543 13.844C137.991 14.1 138.339 14.476 138.587 14.972C138.843 15.46 138.971 16.06 138.971 16.772ZM134.111 16.772C134.111 17.276 134.175 17.716 134.303 18.092C134.439 18.46 134.647 18.744 134.927 18.944C135.207 19.144 135.563 19.244 135.995 19.244C136.427 19.244 136.783 19.144 137.063 18.944C137.343 18.744 137.547 18.46 137.675 18.092C137.811 17.716 137.879 17.276 137.879 16.772C137.879 16.26 137.811 15.824 137.675 15.464C137.539 15.104 137.331 14.828 137.051 14.636C136.779 14.436 136.423 14.336 135.983 14.336C135.327 14.336 134.851 14.552 134.555 14.984C134.259 15.416 134.111 16.012 134.111 16.772ZM143.645 13.448C143.765 13.448 143.893 13.456 144.029 13.472C144.173 13.48 144.297 13.496 144.401 13.52L144.269 14.492C144.165 14.468 144.049 14.448 143.921 14.432C143.801 14.416 143.685 14.408 143.573 14.408C143.325 14.408 143.089 14.46 142.865 14.564C142.641 14.668 142.441 14.816 142.265 15.008C142.089 15.192 141.949 15.416 141.845 15.68C141.749 15.944 141.701 16.24 141.701 16.568V20H140.645V13.568H141.509L141.629 14.744H141.677C141.813 14.504 141.977 14.288 142.169 14.096C142.361 13.896 142.581 13.74 142.829 13.628C143.077 13.508 143.349 13.448 143.645 13.448Z" fill="white"/>
<path d="M82.042 43.256V46H70.394V25.84H73.67V43.256H82.042ZM87.4348 31.72V46H84.4248V31.72H87.4348ZM87.9388 27.408C87.9388 27.6787 87.8828 27.9353 87.7708 28.178C87.6682 28.4207 87.5235 28.6353 87.3368 28.822C87.1502 28.9993 86.9308 29.144 86.6788 29.256C86.4362 29.3587 86.1748 29.41 85.8948 29.41C85.6242 29.41 85.3675 29.3587 85.1248 29.256C84.8915 29.144 84.6862 28.9993 84.5088 28.822C84.3315 28.6353 84.1868 28.4207 84.0748 28.178C83.9722 27.9353 83.9208 27.6787 83.9208 27.408C83.9208 27.128 83.9722 26.8667 84.0748 26.624C84.1868 26.3813 84.3315 26.1713 84.5088 25.994C84.6862 25.8073 84.8915 25.6627 85.1248 25.56C85.3675 25.448 85.6242 25.392 85.8948 25.392C86.1748 25.392 86.4362 25.448 86.6788 25.56C86.9308 25.6627 87.1502 25.8073 87.3368 25.994C87.5235 26.1713 87.6682 26.3813 87.7708 26.624C87.8828 26.8667 87.9388 27.128 87.9388 27.408ZM94.0308 33.61C94.3388 33.2927 94.6561 33.008 94.9828 32.756C95.3188 32.4947 95.6735 32.2707 96.0468 32.084C96.4201 31.8973 96.8168 31.7527 97.2368 31.65C97.6568 31.5473 98.1141 31.496 98.6088 31.496C99.3928 31.496 100.079 31.6267 100.667 31.888C101.264 32.1493 101.763 32.518 102.165 32.994C102.575 33.47 102.883 34.044 103.089 34.716C103.294 35.3787 103.397 36.1113 103.397 36.914V46H100.401V36.914C100.401 35.9527 100.177 35.206 99.7288 34.674C99.2901 34.142 98.6181 33.876 97.7128 33.876C97.0408 33.876 96.4155 34.03 95.8368 34.338C95.2675 34.646 94.7308 35.066 94.2268 35.598V46H91.2168V31.72H93.0368C93.4475 31.72 93.7088 31.9113 93.8208 32.294L94.0308 33.61ZM118.952 31.72V46H117.132C116.731 46 116.474 45.8087 116.362 45.426L116.138 44.096C115.839 44.4133 115.522 44.7027 115.186 44.964C114.859 45.2253 114.509 45.4493 114.136 45.636C113.763 45.8227 113.361 45.9673 112.932 46.07C112.512 46.1727 112.059 46.224 111.574 46.224C110.79 46.224 110.099 46.0933 109.502 45.832C108.905 45.5707 108.401 45.202 107.99 44.726C107.589 44.25 107.285 43.6807 107.08 43.018C106.875 42.346 106.772 41.6087 106.772 40.806V31.72H109.782V40.806C109.782 41.7673 110.001 42.514 110.44 43.046C110.888 43.578 111.565 43.844 112.47 43.844C113.133 43.844 113.749 43.6947 114.318 43.396C114.897 43.088 115.438 42.668 115.942 42.136V31.72H118.952ZM134.871 46H131.987C131.754 46 131.567 45.9393 131.427 45.818C131.297 45.6967 131.189 45.5613 131.105 45.412L127.815 40.134C127.731 40.4513 127.619 40.7267 127.479 40.96L124.497 45.412C124.395 45.5613 124.278 45.6967 124.147 45.818C124.026 45.9393 123.863 46 123.657 46H120.969L125.911 38.636L121.165 31.72H124.049C124.283 31.72 124.451 31.7573 124.553 31.832C124.665 31.8973 124.763 32 124.847 32.14L128.081 37.18C128.165 36.872 128.296 36.578 128.473 36.298L131.203 32.196C131.39 31.8787 131.628 31.72 131.917 31.72H134.675L129.929 38.51L134.871 46Z" fill="white"/>
<path d="M26.8549 36.1578C26.7552 35.6441 26.5558 35.0747 26.5518 34.5012C26.5319 32.6017 27.3094 30.9452 28.2784 29.3682C28.2983 29.3364 28.3502 29.3244 28.3861 29.3005C28.3382 29.5474 28.2266 29.7426 28.1229 29.9377C27.4091 31.3075 26.7672 32.7053 26.7353 34.2902C26.7153 35.1543 26.8868 35.9786 27.6205 36.6675C27.6125 36.4843 27.5926 36.3569 27.5965 36.2255C27.6165 35.6123 27.5926 34.991 27.6723 34.3858C27.8797 32.8606 28.4299 31.4549 29.1636 30.097C29.6381 29.2129 30.2163 28.5758 31.1852 28.309C31.3288 28.2692 31.4564 28.1656 31.6558 28.0581C31.3766 27.8829 31.1693 27.7634 30.9699 27.6241C30.5074 27.3095 30.3877 26.8595 30.631 26.3538C30.7546 26.0989 30.8583 25.8201 31.0417 25.621C31.7196 24.8724 32.0704 24.0162 31.9907 23.0008C31.9867 22.9769 31.9947 22.949 31.9987 22.9251C32.0465 22.6583 31.9827 22.4512 31.7913 22.2322C31.0417 21.3761 31.1055 20.4801 31.9588 19.7474C32.1701 19.5682 32.1622 19.4368 32.0665 19.1978C31.7036 18.2899 31.6199 17.3501 31.9588 16.4183C32.2419 15.6418 33.0553 15.4028 33.6574 15.9205C34.0602 16.267 34.3552 16.709 34.431 17.2585C34.4669 17.5213 34.4789 17.7881 34.5028 18.051C35.0132 18.051 35.5076 18.051 36.03 18.051C36.03 17.9196 36.0459 17.7921 36.026 17.6687C35.9542 17.1112 36.1616 16.6373 36.4526 16.1873C37.0428 15.2674 38.4025 15.0763 39.0764 15.8528C39.7104 16.5816 40.0692 17.4417 39.8938 18.4372C39.83 18.7956 39.7024 19.1421 39.5987 19.5124C39.9935 19.7553 40.2766 20.1097 40.2287 20.6035C40.1849 21.0296 40.0373 21.4438 39.9496 21.8699C39.9137 22.0411 39.8539 22.2482 39.9137 22.4035C40.0852 22.8813 40.3085 23.3432 40.5158 23.8092C40.7511 24.3348 41.0063 24.8525 41.2296 25.3781C41.8118 26.74 42.382 28.1099 42.9522 29.4797C43.1755 30.0213 43.4267 30.5629 43.5862 31.1284C44.0686 32.8646 44.1683 34.6366 44.0168 36.4246C43.9969 36.6357 44.0328 36.7352 44.2481 36.8228C44.6787 36.9941 44.902 37.3445 44.902 37.8184C44.902 38.0095 44.8582 38.2086 44.8861 38.3918C44.914 38.575 44.9738 38.794 45.0974 38.9095C45.5839 39.3475 46.3574 39.3555 46.9237 39.013C47.5975 38.6029 48.0042 37.9737 48.4548 37.2609C47.2466 36.2972 45.9707 36.1459 44.5631 36.8149C44.7186 36.6556 44.8741 36.4485 45.0575 36.4206C45.5998 36.3529 45.7434 35.9746 45.867 35.5485C45.9388 35.2937 46.0265 35.0348 46.0983 34.776C46.6047 32.8407 46.2617 31.0845 44.9419 29.5674C44.599 29.1691 44.1643 28.8585 43.7696 28.5081C44.6907 28.97 45.4403 29.639 45.9627 30.5191C47.0831 32.4066 46.6645 34.326 46.0225 36.2454C47.5337 36.349 48.0521 36.5321 48.6462 37.1693C48.8576 37.1454 49.0649 37.1374 49.2603 37.0936C49.352 37.0737 49.4716 36.998 49.4995 36.9224C49.6231 36.572 49.7428 36.2175 49.8106 35.8591C50.0139 34.78 49.7627 33.7367 49.4597 32.7172C48.8217 30.5589 47.757 28.6077 46.4531 26.7798C45.6357 25.633 44.7904 24.4941 44.1005 23.2676C43.1156 21.5154 42.5973 19.608 42.6332 17.5691C42.6491 16.8364 42.6053 16.0838 42.4697 15.359C42.2304 14.0847 41.8038 12.8582 40.8627 11.9264C39.0844 10.1703 36.9431 9.61677 34.5227 10.2579C33.3225 10.5725 32.2379 11.122 31.5561 12.237C31.0058 13.141 30.7905 14.1524 30.7985 15.1798C30.8144 17.0753 30.8144 18.9828 31.0098 20.8624C31.1852 22.5229 30.8942 23.9485 29.7577 25.1989C29.3032 25.6967 28.9084 26.2582 28.5097 26.8117C26.8429 29.1054 25.7663 31.6938 24.7814 34.33C24.5342 34.999 24.4305 35.68 24.6618 36.4007C25.4154 35.8751 26.173 35.7158 26.8549 36.1578ZM41.3253 21.5553C41.6961 21.7424 42.051 21.9614 42.3859 22.2083C42.5135 22.3039 42.5574 22.507 42.5973 22.5827C42.5973 23.0605 42.2743 23.2795 41.9433 23.0964C41.4409 22.8176 41.1778 22.3597 41.0701 21.8101C41.0342 21.615 41.1498 21.4677 41.3253 21.5553ZM38.554 14.9767C39.1481 14.9011 39.7742 15.4148 39.9536 16.1356C39.5987 15.6179 39.2159 15.136 38.554 14.9767ZM38.8012 11.8747C39.196 11.8826 39.3356 12.1853 39.4512 12.4839C39.5668 12.7866 39.2837 12.8344 39.1242 12.9618C39.0843 12.9897 39.0365 13.0096 38.9887 13.0255C38.4583 13.2525 38.3188 13.1609 38.3227 12.5835C38.3307 12.0419 38.4424 11.8707 38.8012 11.8747ZM34.5347 16.1196C34.1439 15.8011 33.7492 15.4825 33.3903 15.1918C33.809 15.152 34.3473 15.5581 34.5347 16.1196ZM32.7842 46.4118C32.9118 47.0291 32.6048 47.503 32.0585 47.8733C31.8791 47.9928 31.7116 48.1441 31.564 48.2994C30.9101 48.9843 30.1086 49.1197 29.2274 48.9087C28.7688 48.7972 28.3103 48.6578 27.8717 48.4786C26.2089 47.8136 24.4863 47.3795 22.7359 47.0251C22.1338 46.9056 21.5356 46.7424 20.9614 46.5353C20.14 46.2446 19.8809 45.7707 20.0483 44.9265C20.2955 43.708 20.3075 42.4894 20.1081 41.2589C19.9526 40.2992 20.1919 39.9568 21.1369 39.7059C21.4958 39.6103 21.8546 39.5028 22.2215 39.4391C22.8914 39.3196 23.3938 38.9652 23.7885 38.4237C24.1354 37.9498 24.4704 37.452 24.8771 37.0339C25.6028 36.2892 26.2488 36.2613 26.9267 37.0259C27.6803 37.8781 28.3661 38.794 29.0001 39.7378C30.0688 41.3187 30.9699 43.0071 32.206 44.4845C32.6526 45.0101 32.856 45.6433 32.7842 46.4118ZM52.534 43.9628C52.1791 44.2495 51.7803 44.4925 51.3776 44.7194C49.671 45.6951 48.0122 46.7384 46.5847 48.1043C45.8869 48.7733 45.0496 48.9923 44.1165 48.9803C43.8493 48.9604 43.5782 48.9644 43.311 48.9286C42.3301 48.8011 41.7519 48.2397 41.5406 47.276C41.3692 46.4795 41.425 45.6871 41.5924 44.9146C42.059 42.7921 42.0829 40.6417 42.1068 38.4913C42.1228 37.5157 42.354 37.221 43.4426 37.2609C44.2002 37.2848 44.2999 37.3923 44.2162 38.125C44.1205 39.0329 44.7944 39.7179 45.8271 39.8134C46.9715 39.9249 47.7012 39.2758 48.3711 38.4993C48.5107 38.336 48.6103 38.1369 48.7339 37.9577C49.033 37.5237 49.6271 37.5476 49.8345 38.0374C49.9581 38.3321 50.0219 38.6905 49.986 39.005C49.8943 39.7338 50.1934 40.2913 50.6838 40.7532C51.2341 41.2669 51.8123 41.7567 52.4263 42.1947C53.1281 42.6925 53.2118 43.4133 52.534 43.9628ZM34.5147 23.8569C35.4957 24.0282 36.3888 23.8092 37.2142 23.2397C37.6568 22.9371 38.1154 22.6304 38.6098 22.4393C39.3595 22.1486 39.7463 21.6628 39.8021 20.8664C39.8499 20.2133 39.7303 19.9704 39.1043 19.7195C38.7973 19.596 38.4783 19.4885 38.0995 19.3531C38.6178 19.1779 38.9209 18.8912 38.9647 18.3974C39.0046 17.9275 38.865 17.5054 38.55 17.159C38.259 16.8444 37.8682 16.8643 37.5053 16.9877C37.0986 17.1271 36.987 17.5054 36.9551 17.8837C36.9271 18.2182 36.9511 18.5527 36.9511 18.8912C35.9383 18.2541 34.8816 18.3138 33.805 18.7279C33.7611 18.3456 33.7611 17.9554 33.6614 17.593C33.5458 17.155 33.1311 16.8922 32.7722 16.9519C32.4253 17.0076 32.198 17.3541 32.1821 17.8359C32.1582 18.489 32.4612 18.9868 32.9277 19.4328C32.6885 19.6398 32.4612 19.823 32.2419 20.0182C31.5162 20.6513 31.4564 21.3323 32.1382 22.0371C32.6845 22.5946 33.2786 23.1083 33.8768 23.614C34.0482 23.7494 34.2994 23.8211 34.5147 23.8569ZM38.1194 17.2267C38.243 17.3103 38.3865 17.374 38.4743 17.4855C38.5301 17.5572 38.4982 17.6966 38.5102 17.8081C38.4703 17.816 38.4304 17.824 38.3905 17.832C38.2709 17.6687 38.1473 17.5014 38.0277 17.3382C38.0596 17.3023 38.0875 17.2625 38.1194 17.2267ZM35.5754 18.8633C35.7708 18.8912 35.9741 18.8952 36.1576 18.9629C36.2293 18.9868 36.2493 19.15 36.2931 19.2536C36.2573 19.2815 36.2174 19.3133 36.1815 19.3412C35.9622 19.2337 35.7469 19.1301 35.5315 19.0226C35.5435 18.9669 35.5595 18.9151 35.5754 18.8633ZM34.0761 18.9868C34.1758 18.935 34.3114 18.947 34.427 18.931C34.443 18.9669 34.4549 19.0027 34.4709 19.0385C34.3792 19.1142 34.2954 19.2138 34.1918 19.2536C34.1001 19.2894 33.9804 19.2576 33.8728 19.2496C33.9366 19.162 33.9844 19.0385 34.0761 18.9868ZM32.9198 17.366C32.9397 17.3382 32.9596 17.3103 32.9796 17.2864C33.0793 17.3262 33.2388 17.3421 33.2667 17.4098C33.3385 17.5731 33.3464 17.7643 33.3823 17.9435C33.3345 17.9435 33.2906 17.9435 33.2467 17.9395C33.1391 17.7483 33.0314 17.5572 32.9198 17.366ZM31.8352 21.3084C31.8751 21.2725 31.9109 21.2367 31.9508 21.2048C32.0704 21.2885 32.198 21.3601 32.3057 21.4597C33.49 22.5389 34.8178 22.5707 36.1974 21.9375C37.0308 21.5513 37.8203 21.0655 38.6378 20.6394C38.8092 20.5478 39.0086 20.5239 39.196 20.4642C39.2159 20.504 39.2279 20.5438 39.2478 20.5876C39.184 20.6593 39.1362 20.7548 39.0564 20.8026C37.912 21.5075 36.8075 22.2959 35.4677 22.5986C34.2316 22.8773 33.0992 22.6663 32.1622 21.7464C32.0306 21.623 31.9428 21.4517 31.8352 21.3084ZM41.2455 42.6288C41.0502 44.1818 40.8627 45.6473 40.6713 47.1724C38.3307 46.5831 35.9024 47.1087 33.5059 47.1047C33.4541 46.4397 33.3983 45.7628 33.3464 45.0818C36.2772 45.4402 38.9607 44.7792 41.2455 42.6288ZM31.0457 39.8015C31.4285 40.12 31.8113 40.4466 32.1701 40.7891C32.5091 41.1116 32.6008 41.5377 32.545 41.9877C32.4971 42.3739 32.1382 42.7164 31.7594 42.7005C31.6478 42.6965 31.5122 42.5492 31.4364 42.4377C30.5991 41.1236 29.7657 39.8015 28.9244 38.4874C28.729 38.1847 28.5097 37.902 28.2983 37.6153C28.3063 37.5993 28.3183 37.5834 28.3262 37.5675C29.2354 38.3122 30.1445 39.0528 31.0457 39.8015Z" fill="white"/>
</svg>
