<svg width="26" height="25" viewBox="0 0 26 25" fill="none" xmlns="http://www.w3.org/2000/svg">
<g clip-path="url(#clip0_3894_110356)">
<path d="M6.80846 11.2504H9.30833V13.7503H6.80846V11.2504ZM24.3075 5.00072V22.4998C24.3075 23.8747 23.1826 24.9997 21.8077 24.9997H4.30859C2.92116 24.9997 1.80872 23.8747 1.80872 22.4998L1.82122 5.00072C1.82122 3.62579 2.92116 2.50085 4.30859 2.50085H5.55852V0.000976562H8.05839V2.50085H18.0579V0.000976562H20.5577V2.50085H21.8077C23.1826 2.50085 24.3075 3.62579 24.3075 5.00072ZM4.30859 7.50059H21.8077V5.00072H4.30859V7.50059ZM21.8077 22.4998V10.0005H4.30859V22.4998H21.8077ZM16.8079 13.7503H19.3078V11.2504H16.8079V13.7503ZM11.8082 13.7503H14.3081V11.2504H11.8082V13.7503Z" fill="white"/>
</g>
<defs>
<clipPath id="clip0_3894_110356">
<rect width="25" height="25" fill="white" transform="translate(0.558105)"/>
</clipPath>
</defs>
</svg>
