<?xml version="1.0" encoding="UTF-8"?>
<svg xmlns="http://www.w3.org/2000/svg" width="138" height="40" viewBox="0 0 138 40" fill="none">
  <g clip-path="url(#clip0_1954_9122)">
    <mask id="mask0_1954_9122" style="mask-type:luminance" maskUnits="userSpaceOnUse" x="0" y="5" width="138" height="30">
      <path d="M137.5 5H0.5V34.3571H137.5V5Z" fill="white"></path>
    </mask>
    <g mask="url(#mask0_1954_9122)">
      <path d="M19.2659 14.5612C19.2659 19.7386 15.0706 23.9359 9.89466 23.9359C4.71871 23.9359 0.523438 19.7386 0.523438 14.5612C0.523438 9.38738 4.71941 5.19141 9.89466 5.19141C15.0699 5.19141 19.2659 9.38738 19.2659 14.5612Z" fill="#D9C594"></path>
      <path d="M13.6338 9.74023L8.29078 15.0811L6.13862 12.9262L3.98438 15.0811L8.29078 19.3862L15.7859 11.8924L13.6338 9.74023Z" fill="white"></path>
      <path d="M34.5031 16.4835C34.0662 16.8659 33.3742 17.0113 32.3369 17.0113H28.301V21.3379H25.3359V8.60742H32.3362C33.3735 8.60742 34.0655 8.73603 34.5024 9.11977C35.0846 9.64401 35.5921 10.4653 35.5921 12.8279C35.5928 15.1366 35.0678 15.9747 34.5031 16.4835ZM31.1745 14.683C31.8469 14.683 32.0475 14.6452 32.1755 14.5369C32.3747 14.353 32.5403 14.028 32.5403 12.7929C32.5403 11.5543 32.3579 11.2468 32.1755 11.0804C32.0482 10.9728 31.8476 10.9169 31.1745 10.9169H28.3024V14.6837L31.1745 14.683ZM36.593 21.3379V11.3362H39.3742V12.8628C40.4108 11.7913 40.9386 11.3167 41.7389 11.3167H42.8111V14.0658H41.5201C40.7554 14.0658 40.1746 14.1357 39.3742 14.4656V21.3379H36.593ZM44.3377 20.7214C43.6842 20.0686 43.4297 19.1578 43.4297 16.3374C43.4297 13.501 43.6835 12.6105 44.3377 11.9367C44.7564 11.4991 45.3037 11.3362 46.3207 11.3362H49.7212C50.7404 11.3362 51.2674 11.4991 51.7028 11.9367C52.3571 12.6105 52.6115 13.5003 52.6115 16.3374C52.6115 19.1767 52.3571 20.0686 51.7028 20.7214C51.2674 21.1779 50.7404 21.3379 49.7212 21.3379H46.3207C45.3037 21.3379 44.7753 21.1772 44.3377 20.7214ZM46.429 18.9551C46.5381 19.1012 46.6842 19.1375 47.1574 19.1375H48.8839C49.3564 19.1375 49.5018 19.0823 49.6115 18.9551C49.7569 18.8111 49.8478 18.4826 49.8478 16.3374C49.8478 14.1923 49.7569 13.8644 49.6115 13.7009C49.5025 13.5744 49.3564 13.5373 48.8839 13.5373H47.1574C46.6842 13.5373 46.5381 13.5751 46.429 13.7009C46.2837 13.8644 46.1921 14.1923 46.1921 16.3374C46.1921 18.4826 46.2837 18.8111 46.429 18.9551ZM59.8089 20.7214C59.6279 21.2478 59.4119 21.375 58.8646 21.375H57.0458C56.5188 21.375 56.2812 21.2478 56.1015 20.7214L52.9372 11.3362H55.9016L57.9384 18.447H58.1363L60.1388 11.3362H62.9753L59.8089 20.7214ZM66.0103 16.9756C66.0277 18.556 66.1368 18.9761 66.2458 19.1012C66.3744 19.2487 66.6645 19.285 67.137 19.285H68.8278C69.3919 19.285 69.5387 19.2291 69.647 19.1012C69.7372 18.9922 69.7743 18.721 69.7924 18.0122H72.3563C72.3374 19.5038 72.1753 20.2678 71.6846 20.7585C71.3749 21.0653 70.973 21.3372 69.9008 21.3372H66.1913C65.1722 21.3372 64.6452 21.1772 64.209 20.7207C63.5547 20.0679 63.301 19.2843 63.301 16.3367C63.301 13.3912 63.5547 12.6098 64.209 11.936C64.6284 11.4984 65.1722 11.3355 66.1913 11.3355H69.5744C70.5921 11.3355 71.1387 11.4984 71.556 11.936C72.2109 12.5937 72.3563 13.3724 72.3563 16.248V16.5744C72.3563 16.8659 72.2815 16.9756 71.9537 16.9756H66.0103ZM66.0103 15.4106H69.7023C69.7023 14.0651 69.61 13.7002 69.4821 13.5555C69.3744 13.4458 69.2095 13.3919 68.6461 13.3919H67.137C66.6645 13.3919 66.3744 13.4297 66.2458 13.5744C66.1186 13.7002 66.0277 14.0091 66.0103 15.4106ZM73.7731 21.3379V11.3362H76.5551V12.6636C77.8454 11.4984 78.2452 11.316 79.1727 11.316H80.3904C81.2466 11.316 81.7918 11.4984 82.1728 11.8807C82.5915 12.2806 82.7543 12.8097 82.7543 14.281V21.3372H79.9738V14.6103C79.9738 14.1916 79.9004 13.9553 79.755 13.7918C79.59 13.6268 79.4097 13.5744 78.9162 13.5744H78.1348C77.6623 13.5744 77.2261 13.682 76.5544 13.9931V21.3379H73.7731ZM96.699 21.3379H88.3V8.60742H96.7549V9.84462H89.7336V14.1189H95.7532V15.3365H89.7336V20.1021H96.6983L96.699 21.3379ZM97.298 21.3379L100.735 16.3913L97.3546 11.6102H98.9196L101.572 15.4106H101.735L104.335 11.6102H105.828L102.445 16.4297L105.9 21.3379H104.335L101.589 17.4306H101.443L98.7686 21.3379H97.298ZM108.408 11.6102V12.9006C109.697 11.8451 110.154 11.5907 111.171 11.5907H112.299C113.408 11.5907 113.953 11.7731 114.371 12.1897C114.935 12.7747 115.135 13.5373 115.135 16.466C115.135 19.4136 114.936 20.1755 114.371 20.7592C113.953 21.1779 113.408 21.3596 112.299 21.3596H111.171C110.172 21.3596 109.679 21.1045 108.408 20.0483V24.0675H107.062V11.6102H108.408ZM108.408 13.6652V19.2662C109.407 19.9015 109.991 20.1567 110.827 20.1567H112.025C112.809 20.1567 113.118 20.0287 113.337 19.8142C113.698 19.4493 113.792 18.8852 113.792 16.466C113.792 14.0658 113.698 13.4821 113.337 13.1368C113.118 12.9006 112.809 12.7929 112.025 12.7929H110.791C109.952 12.7929 109.372 13.0452 108.408 13.6652ZM118.028 16.9022C118.046 19.1215 118.192 19.6129 118.466 19.8848C118.685 20.1021 118.937 20.156 119.628 20.156H122.047C122.649 20.156 122.902 20.0847 123.102 19.8848C123.32 19.6639 123.411 19.3563 123.43 18.3568H124.738C124.703 19.8456 124.538 20.3573 124.065 20.827C123.704 21.1932 123.229 21.3372 122.303 21.3372H119.502C118.501 21.3372 117.937 21.2107 117.519 20.7934C116.903 20.1748 116.683 19.3941 116.683 16.4654C116.683 13.5548 116.904 12.7733 117.519 12.1533C117.937 11.7361 118.501 11.6095 119.502 11.6095H121.941C122.92 11.6095 123.522 11.7521 123.903 12.1345C124.521 12.7733 124.739 13.5548 124.739 16.3738V16.6813C124.739 16.8267 124.683 16.9015 124.521 16.9015L118.028 16.9022ZM118.028 15.8272H123.412C123.393 13.8281 123.248 13.3367 122.958 13.0641C122.757 12.8628 122.502 12.774 121.793 12.774H119.629C118.938 12.774 118.685 12.8467 118.446 13.0816C118.174 13.3542 118.046 13.7918 118.028 15.8272ZM126.596 21.3379V11.6102H127.941V13.1927C129.122 11.9541 129.559 11.59 130.376 11.59H131.492V12.9739H130.25C129.503 12.9739 128.996 13.0816 127.941 13.8092V21.3379H126.596ZM137.487 21.0486L136.632 21.2659C136.202 21.3583 135.763 21.4066 135.322 21.4099C134.686 21.4099 134.232 21.3009 133.887 20.957C133.559 20.6292 133.469 20.2105 133.469 19.4269V12.7733H131.853V11.6102H133.469V9.1715H134.832V11.6102H137.508V12.774H134.832V19.1215C134.832 19.6289 134.888 19.847 135.033 19.9756C135.143 20.1028 135.343 20.1755 135.887 20.1755H137.489V21.0486H137.487ZM80.9111 26.9976H81.4556V31.8925H80.9111V26.9976ZM83.4065 28.8156V30.5065C83.4065 31.2774 83.4561 31.4969 83.916 31.4969C84.1145 31.4969 84.5451 31.4543 84.5451 31.4543L84.5808 31.8932C84.5808 31.8932 84.1061 31.9708 83.8587 31.9708C83.1297 31.9708 82.8822 31.6947 82.8822 30.6763V28.8156H82.3804V28.3557H82.8822V27.2737H83.4058V28.3557H84.5304V28.8156H83.4065ZM85.4978 26.885H86.057L85.6041 28.434H85.1868L85.4978 26.885ZM89.2171 28.8722C89.2171 28.8722 88.4314 28.759 87.9792 28.759C87.5409 28.759 87.2082 28.8792 87.2082 29.2972C87.2082 29.6292 87.3781 29.7215 88.1274 29.8487C89.0116 29.9976 89.3443 30.1737 89.3443 30.8601C89.3443 31.6877 88.8208 31.9638 87.9715 31.9638C87.5186 31.9638 86.7266 31.8296 86.7266 31.8296L86.7546 31.3697C86.7546 31.3697 87.5612 31.4899 87.9219 31.4899C88.5013 31.4899 88.8131 31.3627 88.8131 30.8818C88.8131 30.5141 88.6285 30.4219 87.8583 30.3016C87.0586 30.1744 86.677 30.0256 86.677 29.3182C86.677 28.5402 87.3068 28.2851 87.9505 28.2851C88.4811 28.2851 89.2311 28.4193 89.2311 28.4193L89.2171 28.8722ZM92.9965 26.9976H94.1847L95.5289 31.8925H94.9914L94.6377 30.633H92.5435L92.1898 31.8925H91.6523L92.9965 26.9976ZM92.6645 30.1458H94.5174L93.7744 27.4645H93.4068L92.6645 30.1458ZM96.3872 26.8144H96.9177V31.8932H96.3872V26.8144ZM98.1612 26.8144H98.6918V31.8932H98.1612V26.8144ZM102.593 26.9976H103.781L105.125 31.8925H104.588L104.234 30.633H102.14L101.786 31.8925H101.249L102.593 26.9976ZM102.261 30.1458H104.114L103.371 27.4645H103.003L102.261 30.1458ZM108.793 30.0675C108.793 31.4745 108.41 31.9631 107.123 31.9631C106.699 31.9631 105.942 31.8855 105.942 31.8855V26.8137H106.466V28.5318C106.466 28.5318 107.003 28.2844 107.505 28.2844C108.467 28.2851 108.793 28.7947 108.793 30.0675ZM108.254 30.0675C108.254 29.1553 108.071 28.7583 107.449 28.7583C106.96 28.7583 106.465 28.9638 106.465 28.9638V31.4536C106.465 31.4536 106.925 31.4892 107.115 31.4892C108.085 31.4899 108.254 31.0579 108.254 30.0675ZM112.673 30.0822C112.673 31.3697 112.355 31.9638 111.159 31.9638C109.97 31.9638 109.645 31.3697 109.645 30.0822C109.645 28.8659 110.04 28.2851 111.159 28.2851C112.284 28.2851 112.673 28.8652 112.673 30.0822ZM112.128 30.0822C112.128 29.0987 111.916 28.745 111.159 28.745C110.409 28.745 110.189 29.0987 110.189 30.0822C110.189 31.0866 110.323 31.5039 111.159 31.5039C112.001 31.5039 112.128 31.0859 112.128 30.0822ZM116.411 28.3557V31.8925H115.88V31.6451C115.88 31.6451 115.35 31.9631 114.833 31.9631C113.843 31.9631 113.638 31.5032 113.638 30.2024V28.3557H114.169V30.1947C114.169 31.1712 114.253 31.4899 114.912 31.4899C115.435 31.4899 115.881 31.2278 115.881 31.2278V28.3564L116.411 28.3557ZM118.275 28.8156V30.5065C118.275 31.2774 118.325 31.4969 118.785 31.4969C118.982 31.4969 119.414 31.4543 119.414 31.4543L119.449 31.8932C119.449 31.8932 118.975 31.9708 118.727 31.9708C117.998 31.9708 117.751 31.6947 117.751 30.6763V28.8156H117.249V28.3557H117.751V27.2737H118.274V28.3557H119.399V28.8156H118.275ZM121.468 26.9976H125.005V27.4862H123.513V31.8925H122.975V27.4862H121.468V26.9976ZM125.137 28.3557H125.66V28.8366C125.66 28.8366 126.276 28.4123 126.955 28.2781V28.8156C126.29 28.9498 125.667 29.2972 125.667 29.2972V31.8932H125.137V28.3557ZM130.46 28.3557V31.8925H129.93V31.6451C129.93 31.6451 129.399 31.9631 128.883 31.9631C127.892 31.9631 127.688 31.5032 127.688 30.2024V28.3557H128.218V30.1947C128.218 31.1712 128.303 31.4899 128.961 31.4899C129.485 31.4899 129.931 31.2278 129.931 31.2278V28.3564L130.46 28.3557ZM133.965 28.8722C133.965 28.8722 133.179 28.759 132.727 28.759C132.289 28.759 131.956 28.8792 131.956 29.2972C131.956 29.6292 132.126 29.7215 132.875 29.8487C133.76 29.9976 134.092 30.1737 134.092 30.8601C134.092 31.6877 133.569 31.9638 132.719 31.9638C132.267 31.9638 131.475 31.8296 131.475 31.8296L131.503 31.3697C131.503 31.3697 132.309 31.4899 132.67 31.4899C133.249 31.4899 133.561 31.3627 133.561 30.8818C133.561 30.5141 133.377 30.4219 132.606 30.3016C131.807 30.1744 131.425 30.0256 131.425 29.3182C131.425 28.5402 132.055 28.2851 132.699 28.2851C133.229 28.2851 133.979 28.4193 133.979 28.4193L133.965 28.8722ZM135.752 28.8156V30.5065C135.752 31.2774 135.801 31.4969 136.261 31.4969C136.46 31.4969 136.89 31.4543 136.89 31.4543L136.926 31.8932C136.926 31.8932 136.451 31.9708 136.204 31.9708C135.475 31.9708 135.227 31.6947 135.227 30.6763V28.8156H134.726V28.3557H135.227V27.2737H135.751V28.3557H136.876V28.8156H135.752Z" fill="white"></path>
    </g>
  </g>
  <defs>
    <clipPath id="clip0_1954_9122">
      <rect width="137" height="40" fill="white" transform="translate(0.5)"></rect>
    </clipPath>
  </defs>
</svg>
