<svg width="108" height="20" viewBox="0 0 108 20" fill="none" xmlns="http://www.w3.org/2000/svg">
<path d="M33.0142 6.04357C33.0142 5.19056 33.1964 4.39847 33.4997 3.60638C33.8031 2.87525 34.2281 2.20499 34.8348 1.65665C35.4416 1.10827 36.1699 0.68177 36.9589 0.438061C37.8695 0.133389 38.8402 0.0115568 39.8113 0.0115568C40.9036 -0.0494054 41.996 0.133389 43.0277 0.498976C43.7561 0.803648 44.4234 1.16919 45.0306 1.71757C45.4551 2.14407 45.8195 2.63149 46.0619 3.17987C46.2441 3.60638 46.3657 4.03288 46.4263 4.45938C46.4263 4.64218 46.3657 4.76406 46.2441 4.88589C46.1229 5.00776 45.9407 5.06868 45.8195 5.06868H43.9988C43.8772 5.06868 43.6955 5.00776 43.5739 4.94685C43.5133 4.88589 43.3916 4.76406 43.3916 4.70309C43.3916 4.64218 43.2705 4.5203 43.1489 4.33755C42.9671 4.0938 42.7849 3.91105 42.5421 3.72825C42.2387 3.4845 41.8748 3.24079 41.5104 3.11896C40.9642 2.93616 40.4181 2.87525 39.8113 2.87525C38.8402 2.75337 37.8695 3.058 37.1411 3.72825C36.4733 4.33755 36.0488 5.25147 36.0488 6.1654C36.0488 6.71378 35.9877 7.32307 35.9877 7.99329C35.9877 8.6635 35.9877 9.2728 36.0488 9.82118C35.9877 10.857 36.4127 11.8319 37.1411 12.5021C37.9301 13.1114 38.8402 13.416 39.8113 13.3551C40.2969 13.3551 40.8431 13.2942 41.3286 13.1723C41.7532 13.0505 42.1782 12.8677 42.5421 12.563C42.9065 12.3193 43.1489 11.9537 43.3311 11.5272C43.5133 11.0398 43.6344 10.4305 43.6344 9.88209V9.76026H40.6003C40.4181 9.76026 40.2969 9.6993 40.1753 9.57747C40.0541 9.45559 39.9935 9.33376 39.9935 9.15096V7.50587C39.9935 7.32307 40.0541 7.2012 40.1753 7.07937C40.2969 6.95749 40.4181 6.89657 40.6003 6.89657H46.0619C46.2441 6.89657 46.3657 6.95749 46.4869 7.07937C46.6085 7.2012 46.6691 7.32307 46.6691 7.50587V10.004C46.6691 10.857 46.5474 11.71 46.2441 12.5021C45.9407 13.2332 45.5157 13.9035 44.9695 14.4518C44.3628 15.0002 43.6344 15.4876 42.8455 15.7314C40.9036 16.3406 38.8402 16.3406 36.8983 15.7314C36.1094 15.4876 35.4416 15.0611 34.8348 14.4518C34.2887 13.9035 33.8637 13.2332 33.5603 12.5021C33.2569 11.71 33.0747 10.857 33.0142 10.004C33.0142 9.6993 33.0142 9.39467 33.0142 9.09005C33.0142 8.72446 33.0142 8.41979 33.0142 8.05425C33.0142 7.68866 33.0142 7.32307 33.0142 7.01845C33.0142 6.71378 33.0142 6.34819 33.0142 6.04357Z" fill="#00234B"/>
<path d="M47.6398 10.1271C47.6398 9.33506 47.7614 8.54297 48.0042 7.75088C48.2465 7.01975 48.6109 6.41045 49.0965 5.80115C49.5816 5.25277 50.1888 4.82627 50.8561 4.52165C51.5845 4.21697 52.3735 4.03418 53.1018 4.03418C53.8908 4.03418 54.6797 4.15606 55.347 4.52165C56.0148 4.82627 56.6216 5.19186 57.1071 5.74024C57.5927 6.28857 57.9567 6.89787 58.1995 7.56808C58.4422 8.29926 58.6245 9.03043 58.6245 9.76156V10.7974C58.6245 11.1629 58.3817 11.4067 58.0173 11.4067H50.5528C50.5528 11.7113 50.6133 12.016 50.735 12.3206C50.8561 12.5643 51.0989 12.808 51.2811 12.9908C51.5239 13.1736 51.8273 13.2955 52.1307 13.4173C52.434 13.4783 52.7374 13.5392 53.1018 13.5392C53.4658 13.5392 53.8908 13.4783 54.2547 13.4173C54.4975 13.3564 54.7403 13.2346 54.9831 13.0518C55.1042 12.9299 55.2259 12.869 55.4081 12.808C55.5292 12.7471 55.7115 12.7471 55.8326 12.7471H57.6533C57.8355 12.7471 57.9567 12.808 58.0783 12.9299C58.1995 13.0518 58.26 13.1736 58.26 13.3564C58.1995 13.6611 58.0783 13.9048 57.8961 14.1485C57.6533 14.5141 57.2893 14.8796 56.9249 15.1234C56.4394 15.4889 55.8932 15.7327 55.347 15.9764C54.6191 16.2201 53.8908 16.342 53.1624 16.281C52.3735 16.281 51.5845 16.1592 50.9172 15.8545C50.2494 15.6108 49.6427 15.1843 49.2177 14.6359C48.7321 14.0876 48.3681 13.4173 48.1253 12.7471C47.7614 11.8332 47.6398 10.9802 47.6398 10.1271ZM53.1018 6.77604C52.7374 6.77604 52.3735 6.83695 52.0095 6.95883C51.7061 7.08066 51.4633 7.26346 51.2206 7.44625C51.0383 7.62905 50.8561 7.87276 50.735 8.11646C50.6133 8.36017 50.5528 8.60388 50.5528 8.84764H55.5898C55.5898 8.60388 55.5292 8.36017 55.4687 8.11646C55.4081 7.87276 55.2259 7.62905 55.0437 7.44625C54.8615 7.20254 54.5581 7.08066 54.3153 6.95883C53.9513 6.77604 53.5264 6.71508 53.1018 6.77604Z" fill="#00234B"/>
<path d="M63.2363 11.7097C63.2363 12.1362 63.3575 12.5018 63.6003 12.8064C63.9647 13.111 64.5108 13.2938 64.9964 13.2329H66.3315C66.6955 13.2329 66.9383 13.4766 66.9383 13.8422V15.3045C66.9383 15.4873 66.8777 15.6092 66.756 15.731C66.6349 15.8529 66.5133 15.9138 66.3315 15.9138H64.693C63.5397 15.9747 62.3868 15.6092 61.4762 14.878C60.6873 14.025 60.2627 12.9283 60.3233 11.7706V6.95716H59.4738C59.2916 6.95716 59.1704 6.8962 59.0488 6.77437C58.9276 6.65249 58.8666 6.53066 58.8666 6.34787V4.88556C58.8666 4.51998 59.1094 4.27627 59.4738 4.27627H60.3233V1.16887C60.3233 0.986072 60.3839 0.864195 60.5055 0.742364C60.6267 0.620486 60.7483 0.55957 60.93 0.55957H62.6296C62.9935 0.55957 63.2363 0.803279 63.2363 1.16887V4.27627H66.1493C66.3315 4.27627 66.4527 4.33718 66.5743 4.45906C66.6955 4.58089 66.756 4.70277 66.756 4.88556V6.34787C66.756 6.53066 66.6955 6.65249 66.5743 6.77437C66.4527 6.8962 66.3315 6.95716 66.1493 6.95716H63.2363V11.7097Z" fill="#00234B"/>
<path d="M76.2848 0.864258C76.467 0.864258 76.6492 0.92522 76.8314 1.04705C76.9526 1.22985 77.0737 1.41264 77.1348 1.59543L82.4752 15.2436C82.4752 15.3045 82.4752 15.3655 82.4752 15.3655C82.4752 15.731 82.2324 15.9748 81.8684 15.9748H80.2905C80.0478 15.9748 79.8656 15.9138 79.6833 15.792C79.5622 15.6701 79.5016 15.5483 79.4406 15.4264L78.5304 12.9892H71.6727L70.7626 15.4264C70.7016 15.5483 70.641 15.6701 70.5198 15.792C70.3376 15.9138 70.1554 15.9748 69.9126 15.9748H68.3347C68.153 15.9748 68.0313 15.9138 67.9102 15.792C67.7886 15.6701 67.728 15.5483 67.728 15.3655C67.728 15.3045 67.728 15.2436 67.728 15.2436L73.0684 1.59543C73.1294 1.41264 73.2506 1.16893 73.3718 1.04705C73.4934 0.92522 73.6756 0.864258 73.9184 0.864258H76.2848ZM77.4987 10.2474L75.0713 4.03262L72.7044 10.2474H77.4987Z" fill="#00234B"/>
<path d="M89.7567 16.1592C89.3322 16.1592 88.9678 16.0982 88.5432 16.0373C88.2399 15.9764 87.8754 15.8545 87.5721 15.7327C87.3293 15.6108 87.0865 15.4889 86.8437 15.3061C86.662 15.1843 86.5403 15.0015 86.3581 14.8796V18.901C86.3581 19.2666 86.1158 19.5103 85.7514 19.5103H84.0523C83.8701 19.5103 83.749 19.4494 83.6273 19.3275C83.5062 19.2056 83.4451 19.0838 83.4451 18.901V4.88723C83.4451 4.70444 83.5062 4.58256 83.6273 4.46068C83.749 4.33885 83.8701 4.27793 84.0523 4.27793H85.7514C85.9336 4.27793 86.0548 4.33885 86.1764 4.46068C86.2975 4.58256 86.3581 4.70444 86.3581 4.88723V5.37465C86.4798 5.19186 86.662 5.06998 86.8437 4.94815C87.0865 4.76535 87.2687 4.64348 87.5721 4.52165C87.8754 4.39977 88.1788 4.27794 88.5432 4.15606C88.9678 4.09514 89.3322 4.03418 89.7567 4.03418C90.4851 4.03418 91.1529 4.15606 91.7596 4.46068C92.3663 4.76535 92.8519 5.13094 93.2769 5.61836C93.7014 6.10578 94.0659 6.65416 94.3082 7.26346C94.551 7.87276 94.6726 8.54297 94.7332 9.27414C94.7332 9.51785 94.7332 9.76156 94.7332 10.0662C94.7332 10.3709 94.7332 10.6146 94.7332 10.8583C94.7332 11.5285 94.551 12.1987 94.3082 12.869C94.0659 13.4783 93.762 14.0876 93.2769 14.575C92.8519 15.0624 92.3058 15.4889 91.7596 15.7327C91.1529 16.0373 90.4245 16.1592 89.7567 16.1592ZM91.8202 10.7364C91.8808 10.3099 91.8808 9.88344 91.8202 9.45694C91.8202 8.66485 91.5168 7.93367 90.9101 7.38534C90.4245 6.95883 89.7567 6.77604 89.0894 6.77604C88.4216 6.77604 87.7543 6.95883 87.2081 7.44625C86.662 7.93367 86.3581 8.60388 86.3581 9.33506C86.2975 9.63968 86.2975 9.88344 86.2975 10.1881C86.2975 10.4927 86.2975 10.7364 86.3581 11.0411C86.4192 12.5034 87.6327 13.6001 89.0894 13.5392C89.7567 13.5392 90.4245 13.2955 90.9101 12.9299C91.5168 12.3206 91.8202 11.5285 91.8202 10.7364Z" fill="#00234B"/>
<path d="M102.258 16.1592C101.834 16.1592 101.409 16.0982 100.984 16.0373C100.68 15.9764 100.317 15.8545 100.013 15.7327C99.7704 15.6108 99.5276 15.4889 99.2848 15.3061C99.1026 15.1843 98.9814 15.0015 98.7992 14.8796V18.901C98.7992 19.0838 98.7387 19.2056 98.6175 19.3275C98.4959 19.4494 98.3747 19.5103 98.1925 19.5103H96.4934C96.129 19.5103 95.8862 19.2666 95.8862 18.901V4.88723C95.8862 4.52164 96.129 4.27793 96.4934 4.27793H98.1925C98.3747 4.27793 98.4959 4.33885 98.6175 4.46068C98.7387 4.58256 98.7992 4.70444 98.7992 4.88723V5.37465C98.9209 5.19186 99.1026 5.06998 99.2848 4.94815C99.5276 4.76535 99.7098 4.64348 100.013 4.52165C100.317 4.39977 100.62 4.27794 100.984 4.15606C101.409 4.03418 101.834 4.03418 102.258 4.03418C102.987 4.03418 103.655 4.15606 104.261 4.46068C104.868 4.76535 105.354 5.13094 105.779 5.61836C106.203 6.10578 106.568 6.65416 106.81 7.26346C107.053 7.87276 107.174 8.54297 107.235 9.27414C107.235 9.51785 107.235 9.76156 107.235 10.0662C107.235 10.3709 107.235 10.6146 107.235 10.8583C107.235 11.5285 107.053 12.1987 106.81 12.869C106.568 13.4783 106.264 14.0876 105.779 14.575C105.354 15.0624 104.807 15.4889 104.261 15.7327C103.655 16.0373 102.926 16.1592 102.258 16.1592ZM104.322 10.7364C104.382 10.3099 104.382 9.88344 104.322 9.45694C104.322 8.66485 104.018 7.93367 103.412 7.38534C102.866 6.95883 102.198 6.77604 101.53 6.77604C100.863 6.77604 100.195 7.01975 99.7098 7.44625C99.1636 7.93367 98.8603 8.60388 98.8603 9.33506C98.7992 9.63968 98.7992 9.88344 98.7992 10.1881C98.7992 10.4927 98.7992 10.7364 98.8603 11.0411C98.9209 11.7113 99.2242 12.3815 99.7098 12.869C100.195 13.2955 100.863 13.5392 101.53 13.5392C102.198 13.5392 102.866 13.2955 103.412 12.869C103.958 12.3206 104.322 11.5285 104.322 10.7364Z" fill="#00234B"/>
<path d="M27.7343 8.05505L20.2697 0.560747C20.0269 0.316991 19.6628 0.316991 19.4201 0.560747L17.9636 2.02305L23.9716 8.05505C24.2144 8.29876 24.2144 8.66435 24.0323 8.90806C24.0323 8.90806 24.0323 8.90806 23.9716 8.96898L17.7815 15.1229L19.238 16.5852C19.4807 16.8289 19.8449 16.8289 20.0876 16.6461C20.0876 16.6461 20.0876 16.6461 20.1483 16.5852L27.7949 8.90806C27.977 8.72527 27.977 8.29876 27.7343 8.05505Z" fill="#2CB5B4"/>
<path d="M15.0505 1.10776L14.5042 0.55938C14.2615 0.31567 13.8974 0.315669 13.6546 0.498463C13.6546 0.498463 13.6546 0.498464 13.594 0.55938L12.1375 2.02168L13.1085 2.99657L14.9898 4.88537L16.8711 2.99657L15.0505 1.10776Z" fill="#8CBF44"/>
<path d="M14.8688 12.1973L12.9874 14.0861L12.0165 15.061L13.473 16.5233C13.7157 16.767 14.0799 16.767 14.3226 16.5233L14.8688 15.9749L16.7501 14.0861L14.8688 12.1973Z" fill="#8CBF44"/>
<path d="M18.1454 8.05419C18.3882 8.2979 18.3882 8.72441 18.1454 8.96812L14.8683 12.1974L16.7496 14.0862L21.908 8.9072C22.1508 8.66349 22.1508 8.23699 21.908 7.99328L16.9317 2.99707L15.0504 4.88588L18.1454 8.05419Z" fill="#B8CE2C"/>
<path d="M5.94739 8.23785L11.1665 2.99789L9.22452 1.04816L8.73899 0.560747C8.49625 0.316991 8.07144 0.316991 7.8287 0.560747L0.182057 8.23785C-0.0606856 8.48156 -0.0606856 8.84715 0.182057 9.09086L7.64663 16.5852C7.88937 16.8289 8.25351 16.8289 8.49625 16.5852L9.04245 16.0368L10.9238 14.148L5.94739 9.15177C5.64392 8.96898 5.52257 8.66435 5.76532 8.35968C5.82599 8.23785 5.88671 8.23785 5.94739 8.23785Z" fill="#87EFEF"/>
<path d="M11.7742 8.23699L14.0804 5.92168L12.1384 4.03287L11.1673 2.99707L6.0089 8.17607C5.76616 8.41978 5.76616 8.78537 6.0089 9.02908L10.9853 14.0253L11.9563 13.0504L13.8376 11.1616L11.7742 9.08999C11.5315 8.9072 11.5315 8.4807 11.7742 8.23699Z" fill="#8CBF44"/>
<path d="M11.7743 9.0906L13.8983 11.2231L16.2045 8.90781C16.4472 8.6641 16.4472 8.2376 16.2045 7.99389L14.0804 5.86133L11.7743 8.2376C11.5315 8.48131 11.5315 8.8469 11.7743 9.0906Z" fill="#B8CE2C"/>
<path d="M15.0505 1.10776L14.5042 0.55938C14.2615 0.31567 13.8974 0.315669 13.6546 0.498463C13.6546 0.498463 13.6546 0.498464 13.594 0.55938L12.1375 2.02168L13.1085 2.99657L14.9898 4.88537L16.8711 2.99657L15.0505 1.10776Z" fill="#41E3E2"/>
<path d="M14.8688 12.1973L12.9874 14.0861L12.0165 15.061L13.473 16.5233C13.7157 16.767 14.0799 16.767 14.3226 16.5233L14.8688 15.9749L16.7501 14.0861L14.8688 12.1973Z" fill="#41E3E2"/>
<path d="M18.1454 8.05419C18.3882 8.2979 18.3882 8.72441 18.1454 8.96812L14.8683 12.1974L16.7496 14.0862L21.908 8.9072C22.1508 8.66349 22.1508 8.23699 21.908 7.99328L16.9317 2.99707L15.0504 4.88588L18.1454 8.05419Z" fill="#4FBCC1"/>
<path d="M5.94739 8.23785L11.1665 2.99789L9.22452 1.04816L8.73899 0.560747C8.49625 0.316991 8.07144 0.316991 7.8287 0.560747L0.182057 8.23785C-0.0606856 8.48156 -0.0606856 8.84715 0.182057 9.09086L7.64663 16.5852C7.88937 16.8289 8.25351 16.8289 8.49625 16.5852L9.04245 16.0368L10.9238 14.148L5.94739 9.15177C5.64392 8.96898 5.52257 8.66435 5.76532 8.35968C5.82599 8.23785 5.88671 8.23785 5.94739 8.23785Z" fill="#87EFEF"/>
<path d="M11.7742 8.23699L14.0804 5.92168L12.1384 4.03287L11.1673 2.99707L6.0089 8.17607C5.76616 8.41978 5.76616 8.78537 6.0089 9.02908L10.9853 14.0253L11.9563 13.0504L13.8376 11.1616L11.7742 9.08999C11.5315 8.9072 11.5315 8.4807 11.7742 8.23699Z" fill="#41E3E2"/>
<path d="M11.7743 9.0906L13.8983 11.2231L16.2045 8.90781C16.4472 8.6641 16.4472 8.2376 16.2045 7.99389L14.0804 5.86133L11.7743 8.2376C11.5315 8.48131 11.5315 8.8469 11.7743 9.0906Z" fill="#4FBCC1"/>
</svg>
