<svg width="119" height="18" viewBox="0 0 119 18" fill="none" xmlns="http://www.w3.org/2000/svg">
<path d="M7.28601 6.33C7.28601 6.33 6.30194 6.23057 6.30194 7.12114V11.0769H12.8005V12.264C12.8005 12.264 12.8199 12.8571 12.2097 12.8571H6.30194V18H13.3913C13.3913 18 17.6837 17.3271 17.7234 12.8571V6.33H7.28601ZM17.5259 0H4.72624C0.0979005 1.10743 0 4.96457 0 4.96457V18H4.92373V6.132C4.92373 5.12314 5.9078 4.94571 5.9078 4.94571H17.5268V0H17.5259ZM34.4239 14.2697C34.0863 14.4986 33.8365 14.6666 33.6601 14.7737C33.0288 15.1706 32.4271 15.4766 31.8692 15.7209C31.0615 16.0569 30.3416 16.2249 29.696 16.2249C27.4789 16.2249 25.6432 15.5374 24.1595 14.1471C22.6758 12.7569 21.9433 11.016 21.9433 8.90829C21.9433 6.87686 22.6041 5.11971 23.9401 3.62229C25.2761 2.12571 26.8915 1.392 28.8005 1.392C29.5939 1.392 30.4446 1.52914 31.3257 1.82057C32.471 2.18657 33.396 2.73686 34.1302 3.45429L32.8524 4.89C32.3098 4.356 31.6051 3.95829 30.7822 3.714C30.1661 3.53057 29.4909 3.43971 28.7415 3.43971C27.4055 3.43971 26.2745 3.98829 25.3791 5.07343C24.4836 6.17314 24.0287 7.47171 24.0287 8.99914C24.0287 10.512 24.5419 11.7489 25.5698 12.7423C26.5978 13.7349 27.9042 14.2389 29.4901 14.2389C30.1509 14.2389 30.8269 14.0246 31.5164 13.6131C32.0895 13.17 32.3832 12.9557 32.3975 12.9403V9.80914H28.1102L28.7263 7.854H34.4239V14.2697ZM47.3747 10.4503C47.3747 11.9623 46.8463 13.2763 45.7888 14.376C44.7313 15.4757 43.4249 16.0414 41.8686 16.0414C40.4296 16.0414 39.167 15.4911 38.08 14.4069C36.993 13.3226 36.4646 12.0086 36.4646 10.4657C36.4646 8.93829 36.9795 7.62429 38.0066 6.49371C39.0337 5.36314 40.2971 4.81371 41.78 4.81371C43.4249 4.81371 44.7609 5.34857 45.8032 6.43286C46.8463 7.48714 47.3747 8.83114 47.3747 10.4503ZM45.3626 10.4811C45.3626 9.45771 45.0251 8.58686 44.3499 7.884C43.6747 7.16571 42.8375 6.81429 41.8391 6.81429C40.8997 6.81429 40.1064 7.18114 39.4456 7.91486C38.7847 8.64771 38.4615 9.48771 38.4615 10.4349C38.4615 11.4283 38.7991 12.2683 39.4599 12.9711C40.1207 13.674 40.9436 14.04 41.9412 14.04C42.867 14.04 43.6595 13.6886 44.3355 12.9857C45.0251 12.2829 45.3635 11.4429 45.3635 10.4811H45.3626ZM60.149 10.4503C60.149 11.9623 59.6207 13.2763 58.5632 14.376C57.5057 15.4757 56.1992 16.0414 54.643 16.0414C53.204 16.0414 51.9414 15.4911 50.8544 14.4069C49.7682 13.3226 49.239 12.0086 49.239 10.4657C49.239 8.93829 49.7538 7.62429 50.7809 6.49371C51.8089 5.36314 53.0715 4.81371 54.5543 4.81371C56.1992 4.81371 57.5352 5.34857 58.5775 6.43286C59.6207 7.48714 60.149 8.83114 60.149 10.4503ZM58.137 10.4811C58.137 9.45771 57.7994 8.58686 57.1242 7.884C56.4491 7.16571 55.6118 6.81429 54.6134 6.81429C53.6741 6.81429 52.8807 7.18114 52.2199 7.91486C51.5591 8.64771 51.2358 9.48771 51.2358 10.4349C51.2358 11.4283 51.5734 12.2683 52.2351 12.9711C52.8951 13.674 53.718 14.04 54.7164 14.04C55.6414 14.04 56.4339 13.6886 57.1099 12.9857C57.7994 12.2829 58.1378 11.4429 58.1378 10.4811H58.137ZM71.9697 15.7354L70.1197 16.026V14.208L69.723 14.6657C69.3736 14.9982 68.9777 15.2763 68.5482 15.4911C67.9178 15.7865 67.2313 15.9377 66.537 15.9343C65.0981 15.9343 63.8642 15.3994 62.8658 14.3143C61.8674 13.2291 61.3686 11.9469 61.3686 10.4503C61.3686 8.90743 61.8674 7.57886 62.8514 6.47829C63.8355 5.37771 65.039 4.82829 66.478 4.82829C67.3008 4.82829 68.0199 4.96543 68.6217 5.24057C69.0479 5.43943 69.415 5.69914 69.723 6.02057C69.826 6.15771 69.929 6.31029 70.0319 6.44743V1.68171L71.9984 1.39114L71.9697 15.7354ZM70.237 10.5874C70.237 9.51857 69.8842 8.61686 69.1652 7.884C68.4461 7.13486 67.6376 6.76886 66.7134 6.76886C65.6855 6.76886 64.8635 7.12029 64.2322 7.82314C63.6439 8.49429 63.3359 9.31971 63.3359 10.2823C63.3359 11.3666 63.6439 12.2674 64.2609 12.9703C64.877 13.6731 65.6559 14.0246 66.6105 14.0246C67.5498 14.0246 68.3727 13.704 69.1069 13.0474C69.8555 12.3746 70.2379 11.55 70.2379 10.5874H70.237ZM82.3505 3.66857H76.8445V7.47171H81.1167V9.42686H76.8445V15.7209L74.7008 16.0414V1.69714H81.9243L82.3505 3.66857ZM86.7704 2.55257L85.4488 4.248L84.1862 2.55257L85.5222 0.872571L86.7704 2.55257ZM86.3738 15.7354L84.4065 16.0106V5.394L86.3738 5.08886V15.7363V15.7354ZM95.2574 4.98171L94.3324 7.15029C94.2109 7.13147 94.0882 7.12144 93.9653 7.12029C93.7746 7.12029 93.5838 7.13571 93.3922 7.16571C93.2006 7.19571 92.9956 7.27286 92.7761 7.38C92.3651 7.56343 92.0123 7.96029 91.7043 8.556C91.3634 9.2321 91.1869 9.98127 91.1895 10.7409V15.7209L89.223 16.0414V5.394L91.0435 5.058V7.27286C91.2781 6.89057 91.5279 6.50914 91.7625 6.11229C92.1001 5.71457 92.4968 5.42486 92.9373 5.256C93.172 5.16514 93.5982 5.088 94.2438 5.02714C94.8607 4.98171 95.2135 4.95086 95.2574 4.98171ZM109.91 15.7354L107.943 16.026V8.73943C107.943 8.06657 107.796 7.578 107.503 7.27286C107.209 6.96686 106.768 6.81429 106.195 6.81429C105.506 6.81429 104.977 7.10486 104.625 7.68514C104.389 8.082 104.258 8.50971 104.258 8.93743V15.72L102.29 16.0869V8.78486C102.29 8.14371 102.143 7.65429 101.864 7.31914C101.57 6.98229 101.189 6.81429 100.689 6.81429H100.498C99.8081 6.81429 99.3085 7.10486 99.0004 7.70057C98.7658 8.14371 98.6485 8.70857 98.6485 9.396V15.72L96.6078 16.0869V5.394L98.4426 5.07343V6.43286C98.6485 6.11143 98.8536 5.85171 99.0452 5.66914C99.5735 5.16514 100.19 4.92 100.88 4.92C101.658 4.92 102.23 5.04257 102.627 5.30229C102.965 5.51657 103.288 5.94343 103.611 6.55457C104.286 5.47029 105.241 4.92 106.504 4.92C107.708 4.92 108.604 5.30229 109.191 6.08143C109.676 6.72257 109.91 7.66971 109.91 8.90743V15.7354ZM118.899 12.5126C118.899 13.4897 118.561 14.2997 117.886 14.9263C117.211 15.5674 116.358 15.8734 115.33 15.8734C114.552 15.8734 113.862 15.69 113.231 15.3231C112.599 14.9571 112.13 14.544 111.821 14.0554L113.202 12.8031C113.304 12.9557 113.393 13.0774 113.48 13.1691C113.995 13.704 114.611 13.9791 115.33 13.9791C115.83 13.9791 116.227 13.842 116.505 13.5823C116.799 13.3226 116.931 12.9557 116.931 12.4817C116.931 11.9477 116.594 11.5809 115.919 11.382C114.582 10.9697 113.862 10.7409 113.76 10.6946C113.143 10.374 112.702 10.038 112.423 9.65571C112.115 9.21257 111.954 8.63229 111.954 7.884C111.954 6.96686 112.291 6.204 112.952 5.59286C113.613 4.98171 114.405 4.69114 115.315 4.69114C116.006 4.69114 116.652 4.84371 117.24 5.16514C117.827 5.48571 118.252 5.82171 118.502 6.21943L117.327 7.51714C117.151 7.33777 116.959 7.17429 116.755 7.02857C116.285 6.69257 115.83 6.52457 115.405 6.52457C114.993 6.52457 114.655 6.61629 114.391 6.79886C114.082 7.02857 113.921 7.36457 113.921 7.80771C113.921 8.23543 114.068 8.556 114.377 8.75486C114.641 8.92286 115.199 9.10629 116.08 9.30429C116.96 9.51857 117.636 9.88543 118.121 10.4049C118.664 10.9543 118.899 11.6417 118.899 12.5126Z" fill="#5C9FFF"/>
</svg>
