<svg width="130" height="29" viewBox="0 0 130 29" fill="none" xmlns="http://www.w3.org/2000/svg">
<path d="M0 10.4291L11.9145 10.4315L19.1594 10.4327V3.3457L0 10.4291Z" fill="#FF9D28"/>
<path d="M19.1593 3.34646V28.3672L28.208 0L19.1593 3.34646Z" fill="#68C5ED"/>
<path d="M19.16 10.4329L11.9151 10.4316L19.16 28.3666V10.4329Z" fill="#00234B"/>
<path d="M0 10.4287L13.7724 15.0329L11.9146 10.431L0 10.4287Z" fill="#E54747"/>
<path d="M43.891 21.778C43.786 21.8817 43.6108 22.0111 43.3658 22.1666C43.1208 22.3222 42.8018 22.4776 42.4083 22.6332C42.0143 22.7885 41.5333 22.9222 40.9646 23.0349C40.3959 23.1469 39.7443 23.2032 39.0098 23.2032C37.5925 23.2032 36.3677 22.9785 35.3356 22.5296C34.3031 22.0807 33.4502 21.454 32.7769 20.6509C32.1033 19.8476 31.6092 18.8976 31.2942 17.8004C30.9793 16.7035 30.8219 15.4987 30.8219 14.1856C30.8219 12.8731 30.9925 11.6592 31.3336 10.545C31.6747 9.4307 32.1865 8.46801 32.8687 7.6557C33.5511 6.84398 34.404 6.20902 35.4275 5.75109C36.451 5.29368 37.6536 5.06445 39.036 5.06445C39.718 5.06445 40.335 5.12508 40.8859 5.2458C41.4373 5.36679 41.9183 5.50943 42.3296 5.67339C42.7404 5.83778 43.0814 6.01018 43.3532 6.19163C43.6239 6.37298 43.8296 6.52452 43.9696 6.64503C44.127 6.78361 44.2624 6.94753 44.3768 7.13736C44.4901 7.32766 44.5473 7.53498 44.5473 7.75936C44.5473 8.1051 44.4156 8.45042 44.1533 8.79584C43.891 9.14158 43.6024 9.46114 43.2871 9.75463C43.0772 9.54731 42.8412 9.33605 42.5789 9.11983C42.3165 8.90393 42.0233 8.71415 41.6996 8.54971C41.3759 8.38579 41.0081 8.24763 40.5973 8.13512C40.186 8.02293 39.727 7.96663 39.2196 7.96663C38.3275 7.96663 37.5796 8.14403 36.976 8.49788C36.3724 8.85215 35.8868 9.31408 35.5195 9.8842C35.1521 10.4543 34.8896 11.1065 34.7321 11.8406C34.5747 12.575 34.496 13.3221 34.496 14.0821C34.496 14.8942 34.5747 15.6715 34.7321 16.4141C34.8896 17.1569 35.1606 17.8135 35.5457 18.3834C35.9303 18.9534 36.4334 19.4114 37.0547 19.7567C37.6754 20.1026 38.4496 20.275 39.377 20.275C39.8665 20.275 40.3172 20.2147 40.7285 20.0938C41.1393 19.9729 41.5028 19.826 41.8176 19.653C42.1324 19.4807 42.4083 19.2994 42.6444 19.1091C42.8805 18.9191 43.0773 18.7552 43.2346 18.6166C43.3401 18.7378 43.4618 18.8848 43.6024 19.0572C43.743 19.2316 43.8747 19.4132 43.9959 19.6014C44.1181 19.7917 44.223 19.9816 44.3107 20.1713C44.3983 20.3617 44.4418 20.5342 44.4418 20.6894C44.4418 20.9143 44.3983 21.1042 44.3107 21.2597C44.223 21.4152 44.083 21.5881 43.891 21.778ZM57.4149 19.7906C57.4149 21.1637 57.6174 22.163 58.0224 22.7886C57.7055 22.91 57.4107 22.9971 57.1378 23.0492C56.8645 23.1014 56.5786 23.1274 56.2796 23.1274C55.6463 23.1274 55.1663 23.0057 54.841 22.7624C54.5152 22.5194 54.3085 22.1718 54.2204 21.7197C53.8332 22.1199 53.3227 22.4586 52.689 22.7367C52.0558 23.0142 51.2809 23.1536 50.3659 23.1536C49.8906 23.1536 49.4153 23.0885 48.9405 22.9591C48.4652 22.8285 48.0334 22.6167 47.6468 22.3225C47.2591 22.0278 46.9427 21.6336 46.6961 21.1398C46.4496 20.646 46.3263 20.0442 46.3263 19.334C46.3263 18.4505 46.5419 17.7313 46.9732 17.1772C47.4044 16.6226 47.9458 16.1852 48.5969 15.8646C49.2479 15.5444 49.952 15.324 50.709 15.2024C51.4656 15.081 52.1612 15.0032 52.795 14.9682C53.0064 14.951 53.2126 14.9421 53.4151 14.9421H53.9827V14.4676C53.9827 13.7996 53.8023 13.325 53.4418 13.044C53.0809 12.7629 52.4954 12.622 51.6859 12.622C50.9289 12.622 50.2558 12.7438 49.6661 12.9869C49.0764 13.2305 48.4998 13.5083 47.9369 13.8212C47.6903 13.5258 47.492 13.2001 47.343 12.8436C47.1935 12.4876 47.1185 12.2225 47.1185 12.0485C47.1185 11.8054 47.2549 11.5707 47.5277 11.3446C47.8005 11.119 48.1746 10.9145 48.6499 10.732C49.1252 10.5496 49.6703 10.4021 50.2867 10.2889C50.9026 10.176 51.5542 10.1194 52.2404 10.1194C53.1911 10.1194 53.9964 10.2152 54.6563 10.4062C55.3163 10.5976 55.853 10.8929 56.2664 11.2925C56.6798 11.6925 56.9747 12.1919 57.151 12.7914C57.3267 13.3911 57.4149 14.0909 57.4149 14.8899V19.7906ZM54.0357 16.7668H53.6658C53.5426 16.7668 53.4193 16.7759 53.2965 16.793C52.8563 16.828 52.4204 16.88 51.9897 16.9492C51.5579 17.0189 51.1754 17.1406 50.8412 17.3143C50.5065 17.4881 50.2337 17.7143 50.0228 17.9919C49.8114 18.2702 49.7059 18.6266 49.7059 19.0609C49.7059 19.5476 49.8465 19.9601 50.1283 20.299C50.4095 20.638 50.8848 20.8075 51.5537 20.8075C51.8879 20.8075 52.2048 20.7643 52.5043 20.677C52.8034 20.5904 53.0672 20.4774 53.2965 20.3383C53.5247 20.1992 53.7057 20.0473 53.8379 19.8819C53.9696 19.717 54.0357 19.565 54.0357 19.4259V16.7668ZM63.9885 11.6313C64.2691 11.3013 64.7077 10.9666 65.3042 10.6276C65.9007 10.2887 66.6552 10.1193 67.568 10.1193C68.2175 10.1193 68.8355 10.2279 69.4236 10.4451C70.0112 10.6626 70.5332 11.0146 70.9891 11.5009C71.4455 11.9877 71.8096 12.6308 72.0819 13.43C72.3537 14.2296 72.4901 15.2117 72.4901 16.3757C72.4901 17.7312 72.3316 18.8481 72.0158 19.7255C71.7 20.6035 71.2924 21.2986 70.7924 21.8111C70.2924 22.3238 69.7353 22.6845 69.1214 22.8929C68.5071 23.1014 67.8928 23.2058 67.2789 23.2058C66.77 23.2058 66.3267 23.1493 65.9501 23.0364C65.5723 22.9232 65.2523 22.7976 64.9889 22.6584C64.7261 22.5195 64.5241 22.3807 64.384 22.2413C64.2434 22.1024 64.1558 22.0066 64.1207 21.9543V28.3626H60.5301V10.4842C60.6182 10.4671 60.7247 10.4496 60.8496 10.4321C60.9561 10.4151 61.0799 10.4019 61.2221 10.393C61.3637 10.3844 61.5321 10.38 61.7273 10.38C62.3123 10.38 62.8091 10.4757 63.2167 10.6668C63.6244 10.8582 63.882 11.1795 63.9885 11.6313ZM68.7406 16.4538C68.7406 15.9325 68.697 15.4462 68.6094 14.9941C68.5223 14.5425 68.3775 14.1513 68.1766 13.8211C67.9751 13.4911 67.7034 13.2345 67.3624 13.0519C67.0208 12.8695 66.6053 12.7784 66.1158 12.7784C65.3808 12.7784 64.8688 12.9176 64.5802 13.1953C64.2912 13.4736 64.1469 13.7779 64.1469 14.1078V19.6344C64.287 19.7737 64.5357 19.9385 64.8945 20.1297C65.2539 20.321 65.6688 20.4163 66.1415 20.4163C67.0345 20.4163 67.6908 20.0691 68.111 19.3737C68.5307 18.6787 68.7406 17.7052 68.7406 16.4538ZM75.2612 20.9378C75.1379 20.5904 75.0587 20.2252 75.0235 19.8428C74.9879 19.4607 74.9705 19.0785 74.9705 18.6956V6.59995C75.0938 6.58288 75.2255 6.56539 75.3666 6.54785C75.4894 6.53079 75.6216 6.51783 75.7627 6.50877C75.9033 6.50024 76.0439 6.49582 76.1851 6.49582C76.4663 6.49582 76.748 6.52189 77.0297 6.57393C77.3109 6.62618 77.5664 6.73042 77.7957 6.88669C78.0244 7.04313 78.2091 7.25624 78.3497 7.52539C78.4908 7.79502 78.5611 8.14703 78.5611 8.58115V10.4319H82.2576V13.0651H78.5611V18.6241C78.5611 19.8364 79.0626 20.4424 80.0663 20.4424C80.3123 20.4424 80.5452 20.4035 80.7656 20.3251C80.9854 20.2469 81.1837 20.1601 81.36 20.0645C81.5357 19.9689 81.69 19.8691 81.8217 19.7647C81.9539 19.6604 82.0462 19.5823 82.0987 19.5302C82.3631 19.9127 82.5651 20.2439 82.7062 20.5233C82.8468 20.8031 82.9171 21.0657 82.9171 21.311C82.9171 21.5393 82.8253 21.7631 82.6401 21.9823C82.4549 22.2014 82.1952 22.4035 81.861 22.5875C81.5268 22.7716 81.1223 22.9207 80.647 23.0348C80.1717 23.1488 79.6523 23.2059 79.0894 23.2059C77.9977 23.2059 77.1483 22.9973 76.5413 22.5803C75.9343 22.163 75.5072 21.6155 75.2612 20.9378ZM91.351 20.5988C91.7928 20.5988 92.181 20.5513 92.5168 20.4555C92.8525 20.3602 93.1526 20.2428 93.4176 20.1038C93.6825 19.9649 93.9123 19.8128 94.1064 19.6476C94.3005 19.4826 94.4773 19.3306 94.6368 19.1912C94.8482 19.4518 95.0691 19.7866 95.2989 20.1947C95.5281 20.6035 95.643 20.9378 95.643 21.1984C95.643 21.5809 95.4227 21.9285 94.9831 22.2413C94.6137 22.5195 94.0896 22.7584 93.4123 22.958C92.7345 23.1578 91.9381 23.2578 91.0232 23.2578C90.1953 23.2578 89.3816 23.1536 88.581 22.9451C87.7799 22.7366 87.0669 22.3715 86.4426 21.8501C85.8173 21.3289 85.3115 20.6295 84.9243 19.7517C84.5372 18.8742 84.3436 17.7665 84.3436 16.4279C84.3436 15.3329 84.5151 14.3905 84.8582 13.5995C85.2013 12.8089 85.6588 12.1527 86.2312 11.6314C86.803 11.11 87.4499 10.728 88.1718 10.4842C88.8932 10.2412 89.6324 10.1193 90.3894 10.1193C91.3752 10.1193 92.2109 10.2718 92.8977 10.5756C93.5839 10.8798 94.1426 11.2883 94.5738 11.8008C95.0051 12.3135 95.3172 12.9 95.5114 13.5604C95.7044 14.2211 95.8015 14.916 95.8015 15.6459V16.0108C95.8015 16.1502 95.7973 16.2975 95.7884 16.4539C95.7794 16.6105 95.7705 16.7628 95.7621 16.9101C95.7527 17.0581 95.7396 17.1753 95.7228 17.2621H87.9341C88.0044 18.2181 88.3051 19.013 88.8344 19.6476C89.3643 20.2821 90.2032 20.5988 91.351 20.5988ZM92.554 15.3069C92.554 14.4727 92.3903 13.7949 92.063 13.2736C91.7351 12.7523 91.1464 12.4915 90.2971 12.4915C89.571 12.4915 88.9913 12.7392 88.5579 13.2345C88.124 13.7299 87.9074 14.4206 87.9074 15.3068H92.554V15.3069ZM102.05 11.6972C102.155 11.5421 102.296 11.3698 102.472 11.1799C102.648 10.9902 102.864 10.8178 103.119 10.6627C103.374 10.5075 103.656 10.3779 103.964 10.2745C104.272 10.1711 104.602 10.1193 104.954 10.1193C105.166 10.1193 105.39 10.1369 105.627 10.1711C105.865 10.2057 106.085 10.2704 106.287 10.3649C106.49 10.4599 106.652 10.589 106.776 10.7528C106.899 10.9165 106.96 11.1189 106.96 11.3601C106.96 11.7393 106.864 12.1748 106.67 12.6664C106.476 13.1585 106.283 13.578 106.089 13.9254C105.79 13.6822 105.491 13.4953 105.192 13.365C104.892 13.2347 104.54 13.1694 104.136 13.1694C103.59 13.1694 103.133 13.3263 102.763 13.6399C102.393 13.9535 102.208 14.3283 102.208 14.764V23.203H98.6177V10.4842C98.7058 10.4671 98.8113 10.4496 98.9346 10.4321C99.04 10.4151 99.1633 10.4019 99.3044 10.393C99.445 10.3844 99.6119 10.38 99.806 10.38C100.369 10.38 100.857 10.4878 101.271 10.703C101.685 10.918 101.944 11.2496 102.05 11.6972ZM112.259 11.6972C112.364 11.5421 112.505 11.3698 112.681 11.1799C112.857 10.9902 113.072 10.8178 113.328 10.6627C113.583 10.5075 113.864 10.3779 114.172 10.2745C114.48 10.1711 114.81 10.1193 115.162 10.1193C115.374 10.1193 115.598 10.1369 115.836 10.1711C116.073 10.2057 116.293 10.2704 116.495 10.3649C116.698 10.4599 116.861 10.589 116.984 10.7528C117.107 10.9165 117.169 11.1189 117.169 11.3601C117.169 11.7393 117.072 12.1748 116.878 12.6664C116.684 13.1585 116.491 13.578 116.298 13.9254C115.999 13.6822 115.699 13.4953 115.4 13.365C115.101 13.2347 114.748 13.1694 114.344 13.1694C113.798 13.1694 113.341 13.3263 112.971 13.6399C112.602 13.9535 112.417 14.3283 112.417 14.764V23.203H108.826V10.4842C108.914 10.4671 109.02 10.4496 109.143 10.4321C109.249 10.4151 109.372 10.4019 109.513 10.393C109.653 10.3844 109.821 10.38 110.014 10.38C110.578 10.38 111.066 10.4878 111.48 10.703C111.893 10.918 112.153 11.2496 112.259 11.6972ZM129.393 19.7906C129.393 21.1637 129.595 22.163 130 22.7886C129.683 22.91 129.388 22.9971 129.116 23.0492C128.843 23.1014 128.557 23.1274 128.258 23.1274C127.624 23.1274 127.144 23.0057 126.819 22.7624C126.493 22.5194 126.286 22.1718 126.199 21.7197C125.811 22.1199 125.301 22.4586 124.667 22.7367C124.033 23.0142 123.259 23.1536 122.344 23.1536C121.869 23.1536 121.393 23.0885 120.918 22.9591C120.443 22.8285 120.012 22.6167 119.624 22.3225C119.237 22.0278 118.92 21.6336 118.674 21.1398C118.427 20.646 118.304 20.0442 118.304 19.334C118.304 18.4505 118.52 17.7313 118.951 17.1772C119.383 16.6226 119.924 16.1852 120.575 15.8646C121.226 15.5444 121.93 15.324 122.687 15.2024C123.444 15.081 124.139 15.0032 124.773 14.9682C124.984 14.951 125.191 14.9421 125.393 14.9421H125.961V14.4676C125.961 13.7996 125.78 13.325 125.419 13.044C125.058 12.7629 124.474 12.622 123.664 12.622C122.907 12.622 122.234 12.7438 121.644 12.9869C121.055 13.2305 120.478 13.5083 119.915 13.8212C119.668 13.5258 119.47 13.2001 119.321 12.8436C119.171 12.4876 119.097 12.2225 119.097 12.0485C119.097 11.8054 119.232 11.5707 119.506 11.3446C119.779 11.119 120.153 10.9145 120.628 10.732C121.103 10.5496 121.648 10.4021 122.265 10.2889C122.881 10.176 123.532 10.1194 124.219 10.1194C125.169 10.1194 125.974 10.2152 126.634 10.4062C127.294 10.5976 127.831 10.8929 128.245 11.2925C128.658 11.6925 128.953 12.1919 129.129 12.7914C129.305 13.3911 129.393 14.0909 129.393 14.8899V19.7906ZM126.013 16.7668H125.644C125.521 16.7668 125.397 16.7759 125.275 16.793C124.834 16.828 124.399 16.88 123.967 16.9492C123.536 17.0189 123.153 17.1406 122.819 17.3143C122.485 17.4881 122.212 17.7143 122 17.9919C121.79 18.2702 121.684 18.6266 121.684 19.0609C121.684 19.5476 121.825 19.9601 122.106 20.299C122.388 20.638 122.863 20.8075 123.532 20.8075C123.866 20.8075 124.183 20.7643 124.482 20.677C124.782 20.5904 125.045 20.4774 125.275 20.3383C125.503 20.1992 125.684 20.0473 125.816 19.8819C125.948 19.717 126.014 19.565 126.014 19.4259V16.7668H126.013Z" fill="#00234B"/>
</svg>
