<svg width="20" height="19" viewBox="0 0 20 19" fill="none" xmlns="http://www.w3.org/2000/svg">
<path d="M19.2861 9.5C19.2861 14.7478 15.0339 19 9.78613 19C4.53833 19 0.286133 14.7478 0.286133 9.5C0.286133 4.2522 4.53833 0 9.78613 0C15.0339 0 19.2861 4.256 19.2861 9.5Z" fill="#FF492C"/>
<path d="M13.8991 7.94935H11.4443V7.83535C11.4443 7.41735 11.5279 7.07155 11.6951 6.80175C11.8623 6.52815 12.1511 6.28875 12.5691 6.07595L12.7591 5.98095C13.0973 5.80995 13.1847 5.66175 13.1847 5.48695C13.1847 5.27795 13.0023 5.12595 12.7097 5.12595C12.3601 5.12595 12.0979 5.30835 11.9155 5.67695L11.4443 5.20575C11.5469 4.98535 11.7141 4.81055 11.9345 4.66995C12.1587 4.52935 12.4057 4.46095 12.6755 4.46095C13.0137 4.46095 13.3063 4.54835 13.5457 4.73075C13.7927 4.91315 13.9143 5.16395 13.9143 5.47935C13.9143 5.98475 13.6293 6.29255 13.0973 6.56615L12.7971 6.71815C12.4779 6.87775 12.3221 7.02215 12.2765 7.27675H13.8991V7.94935ZM13.6825 8.72455H10.9959L9.65446 11.0501H12.3411L13.6863 13.3757L15.0277 11.0501L13.6825 8.72455ZM9.88626 12.6043C8.17626 12.6043 6.78545 11.2135 6.78545 9.50355C6.78545 7.79355 8.17626 6.40275 9.88626 6.40275L10.9503 4.17975C10.6045 4.11135 10.2511 4.07715 9.88626 4.07715C6.88805 4.07715 4.45605 6.50915 4.45605 9.50355C4.45605 12.5017 6.88425 14.9337 9.88626 14.9337C11.0795 14.9337 12.1853 14.5461 13.0821 13.8925L11.9041 11.8557C11.3645 12.3193 10.6577 12.6043 9.88626 12.6043Z" fill="white"/>
</svg>
