<svg width="80" height="13" viewBox="0 0 80 13" fill="none" xmlns="http://www.w3.org/2000/svg">
<g clip-path="url(#clip0_1485_24171)">
<path d="M8.16611 6.64119C8.16611 4.31341 7.336 3.25311 6.89654 2.85093C6.81109 2.77781 6.6768 2.83874 6.68901 2.96062C6.77446 4.27685 5.11426 4.6059 5.11426 6.66556V6.67775C5.11426 7.93305 6.06643 8.95678 7.23834 8.95678C8.41025 8.95678 9.36243 7.93305 9.36243 6.67775V6.66556C9.36243 6.08057 9.1427 5.51995 8.92297 5.10559C8.87414 5.02027 8.75206 5.05684 8.76427 5.12996C9.16711 6.90931 8.16611 8.00617 8.16611 6.64119Z" fill="#FF6600"/>
<path d="M5.64055 11.5516C5.59172 11.5516 5.53068 11.5273 5.49406 11.4907L0.0617692 6.06734C-0.0114752 5.99421 -0.0114752 5.86015 0.0617692 5.77484L5.79924 0.0467962C5.83587 0.0224215 5.8847 -0.00195312 5.93353 -0.00195312H7.58152C7.67918 -0.00195312 7.74022 0.0589835 7.76463 0.11992C7.78905 0.180857 7.78905 0.266168 7.71581 0.339292L2.33234 5.72609C2.22248 5.83578 2.22248 6.0064 2.33234 6.11609L6.59272 10.3817C6.66597 10.4548 6.66597 10.5888 6.59272 10.6741L5.77483 11.5029C5.73821 11.5273 5.68938 11.5516 5.64055 11.5516Z" fill="#FF6600"/>
<path d="M6.72603 12.5043C6.62837 12.5043 6.56734 12.4433 6.54292 12.3824C6.51851 12.3214 6.51851 12.2361 6.59175 12.163L11.9874 6.77621C12.0362 6.72746 12.0729 6.65434 12.0729 6.58121C12.0729 6.50809 12.0485 6.43496 11.9874 6.38621L7.71483 2.12065C7.64159 2.04752 7.64159 1.91346 7.71483 1.82815L8.54494 0.999413C8.58156 0.962851 8.63039 0.938477 8.69142 0.938477C8.75246 0.938477 8.78908 0.975039 8.82571 1.0116L14.2458 6.43496C14.2824 6.47153 14.3068 6.52027 14.3068 6.58121C14.3068 6.64215 14.2824 6.6909 14.2458 6.72746L8.50831 12.4555C8.47169 12.4921 8.42286 12.5164 8.36182 12.5164H6.72603V12.5043Z" fill="#FF6600"/>
<path d="M20.4117 3.89999C20.3873 3.94874 20.3507 3.97311 20.2897 3.97311C20.253 3.97311 20.2042 3.94874 20.1432 3.8878C20.0821 3.82686 19.9967 3.76593 19.899 3.70499C19.7892 3.63187 19.6671 3.57093 19.5084 3.52218C19.3497 3.46124 19.1544 3.43687 18.9224 3.43687C18.6905 3.43687 18.4952 3.47343 18.3121 3.53437C18.1412 3.5953 17.9947 3.6928 17.8726 3.80249C17.7505 3.91218 17.6651 4.04624 17.604 4.19248C17.543 4.33873 17.5064 4.49717 17.5064 4.6556C17.5064 4.87497 17.5552 5.0456 17.6406 5.19185C17.7261 5.32591 17.8482 5.44778 18.0069 5.54528C18.1534 5.64278 18.3243 5.72809 18.5196 5.78902C18.7149 5.86215 18.9102 5.92309 19.1055 5.98402C19.3009 6.04496 19.4962 6.11808 19.6915 6.20339C19.8868 6.27652 20.0455 6.3862 20.2042 6.49589C20.3629 6.60558 20.4728 6.76401 20.5704 6.93463C20.6559 7.10526 20.7047 7.32463 20.7047 7.58056C20.7047 7.84868 20.6559 8.09243 20.5704 8.32399C20.485 8.55555 20.3507 8.76273 20.1798 8.93336C20.0089 9.10398 19.7892 9.23804 19.545 9.34773C19.2886 9.44522 19.0079 9.49397 18.6905 9.49397C18.2754 9.49397 17.9092 9.42085 17.6162 9.2746C17.311 9.12835 17.0547 8.92117 16.8228 8.66523L16.9448 8.47024C16.9815 8.42149 17.0181 8.4093 17.0669 8.4093C17.0913 8.4093 17.1279 8.42149 17.1646 8.45805C17.2012 8.49461 17.2622 8.54336 17.311 8.59211C17.3721 8.64086 17.4453 8.7018 17.5308 8.76273C17.6162 8.82367 17.7139 8.88461 17.8238 8.93336C17.9336 8.98211 18.0557 9.03086 18.2022 9.06742C18.3487 9.10398 18.5074 9.11617 18.6905 9.11617C18.9468 9.11617 19.1666 9.0796 19.3619 9.00648C19.5572 8.93336 19.7281 8.82367 19.8624 8.7018C19.9967 8.57992 20.1065 8.4093 20.1798 8.23868C20.253 8.05587 20.2897 7.86087 20.2897 7.66587C20.2897 7.4465 20.2408 7.26369 20.1554 7.11744C20.0699 6.9712 19.9478 6.84932 19.7892 6.75182C19.6427 6.65433 19.4718 6.56901 19.2764 6.50808C19.0811 6.44714 18.8858 6.37402 18.6905 6.31308C18.4952 6.25214 18.2998 6.17902 18.1045 6.1059C17.9092 6.03277 17.7505 5.93527 17.5918 5.8134C17.4453 5.69153 17.3233 5.54528 17.2256 5.36247C17.1401 5.17966 17.0913 4.96029 17.0913 4.67998C17.0913 4.47279 17.1279 4.26561 17.2134 4.07061C17.2988 3.87561 17.4087 3.70499 17.5674 3.54656C17.7261 3.40031 17.9092 3.27843 18.1412 3.18094C18.3731 3.09562 18.6294 3.04688 18.9224 3.04688C19.252 3.04688 19.545 3.09562 19.8136 3.20531C20.0699 3.315 20.3141 3.47343 20.5338 3.68062L20.4117 3.89999Z" fill="white"/>
<path d="M18.6661 9.60358C18.2388 9.60358 17.8604 9.53046 17.5552 9.37202C17.25 9.22577 16.9692 9.0064 16.7373 8.75047L16.7007 8.71391L16.8594 8.47016C16.9326 8.38485 16.9937 8.37266 17.0425 8.37266C17.0913 8.37266 17.1401 8.39704 17.189 8.44578C17.2256 8.48235 17.2866 8.5311 17.3477 8.57984C17.4087 8.62859 17.482 8.68953 17.5552 8.75047C17.6407 8.8114 17.7261 8.86015 17.836 8.9089C17.9458 8.95765 18.0679 9.0064 18.2022 9.03078C18.3365 9.06734 18.4952 9.07953 18.6783 9.07953C18.9224 9.07953 19.1422 9.04296 19.3253 8.96984C19.5084 8.89672 19.6671 8.79922 19.8014 8.67734C19.9234 8.55547 20.0333 8.40922 20.0943 8.2386C20.1676 8.06798 20.192 7.88517 20.192 7.69017C20.192 7.48298 20.1554 7.31236 20.0699 7.1783C19.9845 7.04424 19.8746 6.93455 19.7281 6.83706C19.5816 6.73956 19.4229 6.66643 19.2398 6.6055C19.0567 6.54456 18.8614 6.47144 18.6539 6.4105C18.4463 6.34956 18.251 6.27644 18.0679 6.20332C17.8726 6.118 17.6895 6.02051 17.543 5.89863C17.3843 5.77676 17.2622 5.60614 17.1646 5.42333C17.0669 5.22833 17.0181 4.99677 17.0181 4.71646C17.0181 4.49709 17.0547 4.27772 17.1401 4.07053C17.2256 3.86335 17.3477 3.68054 17.5064 3.5221C17.6651 3.36367 17.8726 3.24179 18.1045 3.14429C18.3365 3.0468 18.6172 2.99805 18.9102 2.99805C19.252 2.99805 19.5572 3.0468 19.8258 3.15648C20.0943 3.26617 20.3385 3.43679 20.5704 3.65616L20.6071 3.69272L20.4728 3.94866C20.3995 4.08272 20.2652 4.11928 20.0943 3.96085C20.0333 3.9121 19.9601 3.85116 19.8502 3.79022C19.7525 3.72929 19.6183 3.66835 19.4718 3.60741C19.3253 3.55866 19.1422 3.5221 18.9102 3.5221C18.6905 3.5221 18.4952 3.55866 18.3243 3.6196C18.1656 3.68054 18.0191 3.76585 17.9092 3.87553C17.7993 3.98522 17.7139 4.10709 17.6529 4.24115C17.5918 4.37522 17.5674 4.53365 17.5674 4.6799C17.5674 4.8749 17.604 5.04552 17.6895 5.16739C17.7749 5.30145 17.8848 5.41114 18.0313 5.50864C18.1778 5.60614 18.3365 5.67926 18.5196 5.75238C18.7027 5.81332 18.898 5.88644 19.1055 5.94738C19.3009 6.00832 19.5084 6.08144 19.6915 6.16675C19.8868 6.25206 20.0699 6.34956 20.2164 6.47144C20.3751 6.59331 20.4972 6.75175 20.5948 6.93456C20.6925 7.11737 20.7413 7.34892 20.7413 7.61705C20.7413 7.88517 20.6925 8.15329 20.5948 8.39703C20.4972 8.64078 20.3629 8.84797 20.1798 9.03078C19.9967 9.21359 19.7769 9.34765 19.5206 9.45733C19.3009 9.54264 18.9957 9.60358 18.6661 9.60358ZM16.896 8.68953C17.1035 8.92109 17.3477 9.1039 17.6284 9.23796C17.9214 9.38421 18.2754 9.45733 18.6783 9.45733C18.9835 9.45733 19.2642 9.40858 19.5084 9.31108C19.7525 9.21359 19.9479 9.07952 20.1188 8.92109C20.2775 8.76265 20.4117 8.55547 20.4972 8.3361C20.5826 8.11673 20.6315 7.87298 20.6315 7.61705C20.6315 7.3733 20.5826 7.16611 20.5094 6.99549C20.4239 6.83706 20.3141 6.69081 20.1676 6.58112C20.0211 6.47144 19.8624 6.37394 19.6793 6.28863C19.4962 6.2155 19.3009 6.14238 19.1055 6.06925C18.9102 6.00832 18.7149 5.93519 18.5196 5.87426C18.3243 5.80113 18.1534 5.71582 17.9947 5.61832C17.836 5.52082 17.7139 5.38676 17.6162 5.24052C17.5186 5.09427 17.4697 4.89927 17.4697 4.66771C17.4697 4.49709 17.5064 4.32647 17.5674 4.16803C17.6284 4.0096 17.7261 3.86335 17.8482 3.75366C17.9703 3.63179 18.1289 3.53429 18.3121 3.47335C18.4952 3.40023 18.7149 3.37585 18.9468 3.37585C19.1788 3.37585 19.3863 3.40023 19.5572 3.46117C19.7159 3.5221 19.8624 3.58304 19.9601 3.65616C20.0699 3.72929 20.1554 3.79022 20.2164 3.85116C20.2897 3.9121 20.3141 3.9121 20.3141 3.9121C20.3263 3.9121 20.3507 3.9121 20.3629 3.87553L20.4484 3.7171C20.253 3.53429 20.0333 3.38804 19.8014 3.29054C19.545 3.19304 19.2642 3.14429 18.9468 3.14429C18.6661 3.14429 18.4097 3.19304 18.19 3.27836C17.9703 3.36367 17.7871 3.48554 17.6407 3.6196C17.4942 3.76585 17.3843 3.92428 17.2988 4.11928C17.2256 4.30209 17.189 4.49709 17.189 4.70427C17.189 4.96021 17.2378 5.17958 17.3233 5.3502C17.4087 5.52082 17.5186 5.66707 17.6651 5.77676C17.8116 5.88644 17.9703 5.98394 18.1534 6.05707C18.3365 6.13019 18.5318 6.20332 18.7271 6.26425C18.9224 6.32519 19.1177 6.38612 19.3131 6.45925C19.5084 6.53237 19.6793 6.6055 19.838 6.71518C19.9967 6.81268 20.131 6.94674 20.2164 7.10518C20.3141 7.26361 20.3629 7.45861 20.3629 7.70236C20.3629 7.92173 20.3263 8.11673 20.253 8.31172C20.1798 8.50672 20.0699 8.66516 19.9234 8.79922C19.7769 8.93328 19.606 9.04296 19.3985 9.12827C19.191 9.2014 18.9591 9.25015 18.7027 9.25015C18.5196 9.25015 18.3487 9.22577 18.19 9.18921C18.0435 9.15265 17.9092 9.1039 17.7993 9.05515C17.6895 9.0064 17.5796 8.94547 17.4942 8.87234C17.4087 8.8114 17.3355 8.75047 17.2744 8.70172C17.2134 8.65297 17.1646 8.60422 17.1279 8.56766C17.0913 8.5311 17.0669 8.5311 17.0669 8.5311C17.0547 8.5311 17.0303 8.5311 17.0059 8.56766L16.896 8.68953Z" fill="white"/>
<path d="M27.676 6.2887C27.676 6.7762 27.6027 7.21494 27.4562 7.61712C27.3097 8.01931 27.1022 8.36055 26.8337 8.64086C26.5651 8.92117 26.2477 9.14054 25.8815 9.29898C25.5153 9.45741 25.1002 9.53053 24.6485 9.53053C24.2091 9.53053 23.794 9.45741 23.4278 9.29898C23.0616 9.14054 22.7442 8.93336 22.4756 8.64086C22.207 8.36055 21.9995 8.01931 21.853 7.61712C21.7065 7.21494 21.6333 6.7762 21.6333 6.2887C21.6333 5.80121 21.7065 5.36247 21.853 4.96029C21.9995 4.5581 22.207 4.21686 22.4756 3.93655C22.7442 3.65624 23.0616 3.43687 23.4278 3.27843C23.794 3.12 24.2091 3.04688 24.6485 3.04688C25.1002 3.04688 25.5153 3.12 25.8815 3.27843C26.2477 3.43687 26.5651 3.64405 26.8337 3.93655C27.1022 4.21686 27.3097 4.5581 27.4562 4.96029C27.6027 5.36247 27.676 5.80121 27.676 6.2887ZM27.1999 6.2887C27.1999 5.84996 27.1388 5.44778 27.0168 5.09435C26.8947 4.74091 26.7238 4.44842 26.5041 4.20467C26.2843 3.96092 26.0158 3.77811 25.6984 3.64405C25.381 3.50999 25.0392 3.44906 24.6607 3.44906C24.2823 3.44906 23.9405 3.50999 23.6231 3.64405C23.3057 3.77811 23.0372 3.96092 22.8174 4.20467C22.5977 4.44842 22.4146 4.74091 22.2925 5.09435C22.1704 5.44778 22.1094 5.83777 22.1094 6.2887C22.1094 6.72745 22.1704 7.12963 22.2925 7.48306C22.4146 7.8365 22.5855 8.12899 22.8174 8.37274C23.0372 8.61648 23.3057 8.7993 23.6231 8.93336C23.9405 9.06742 24.2823 9.12835 24.6607 9.12835C25.0392 9.12835 25.3932 9.06742 25.6984 8.93336C26.0158 8.81148 26.2843 8.61648 26.5041 8.37274C26.7238 8.12899 26.8947 7.8365 27.0168 7.48306C27.1388 7.12963 27.1999 6.73964 27.1999 6.2887Z" fill="white"/>
<path d="M24.6598 9.59135C24.2081 9.59135 23.7808 9.50604 23.4146 9.35979C23.0362 9.20136 22.7066 8.98199 22.438 8.68949C22.1695 8.397 21.9497 8.05575 21.8032 7.64138C21.6567 7.2392 21.5713 6.77608 21.5713 6.28859C21.5713 5.80109 21.6445 5.33798 21.8032 4.93579C21.9497 4.53361 22.1695 4.18018 22.438 3.88768C22.7066 3.59519 23.0362 3.37581 23.4146 3.21738C23.793 3.05894 24.2081 2.97363 24.6598 2.97363C25.1236 2.97363 25.5387 3.05894 25.9171 3.20519C26.2956 3.36363 26.6252 3.583 26.8937 3.8755C27.1623 4.16799 27.382 4.52142 27.5285 4.92361C27.675 5.32579 27.7482 5.77672 27.7482 6.2764C27.7482 6.77608 27.675 7.22701 27.5285 7.62919C27.382 8.03138 27.1623 8.38481 26.8937 8.6773C26.6252 8.9698 26.2956 9.18917 25.9171 9.34761C25.5387 9.51823 25.1114 9.59135 24.6598 9.59135ZM24.6598 3.13207C24.2325 3.13207 23.8297 3.20519 23.4634 3.36363C23.1094 3.50988 22.792 3.72925 22.5357 3.99737C22.2793 4.26549 22.0718 4.60674 21.9375 4.99673C21.791 5.38672 21.7178 5.82547 21.7178 6.30077C21.7178 6.77608 21.791 7.21482 21.9375 7.60482C22.084 7.99481 22.2793 8.32387 22.5357 8.60418C22.792 8.8723 23.1094 9.09167 23.4634 9.23792C23.8174 9.38417 24.2203 9.45729 24.6598 9.45729C25.0992 9.45729 25.5021 9.38417 25.8561 9.23792C26.2101 9.09167 26.5275 8.8723 26.7838 8.60418C27.0402 8.33606 27.2477 7.99481 27.382 7.61701C27.5285 7.22701 27.6017 6.78827 27.6017 6.31296C27.6017 5.83766 27.5285 5.39891 27.382 5.00892C27.2355 4.61892 27.0402 4.28986 26.7838 4.00956C26.5275 3.74143 26.2101 3.52206 25.8561 3.37581C25.5021 3.20519 25.0992 3.13207 24.6598 3.13207Z" fill="white"/>
<path d="M31.2999 9.12898C31.6051 9.12898 31.8736 9.08023 32.1178 8.97054C32.3619 8.86086 32.5572 8.71461 32.7281 8.5318C32.899 8.34899 33.0211 8.11743 33.1066 7.87368C33.192 7.61775 33.2409 7.34963 33.2409 7.04495V3.13281H33.6925V7.04495C33.6925 7.39838 33.6315 7.71525 33.5216 8.01993C33.4118 8.32462 33.2531 8.58055 33.0455 8.81211C32.838 9.03148 32.5817 9.21429 32.2887 9.33616C31.9957 9.45804 31.6539 9.53116 31.2877 9.53116C30.9214 9.53116 30.5796 9.47022 30.2867 9.33616C29.9937 9.2021 29.7373 9.03148 29.5298 8.81211C29.3223 8.59274 29.1636 8.32462 29.0537 8.01993C28.9438 7.71525 28.8828 7.38619 28.8828 7.04495V3.13281H29.3467V7.03276C29.3467 7.32525 29.3955 7.60556 29.481 7.8615C29.5664 8.11743 29.7007 8.3368 29.8594 8.51961C30.0303 8.70242 30.2256 8.84867 30.4698 8.95836C30.7139 9.08023 30.9947 9.12898 31.2999 9.12898Z" fill="white"/>
<path d="M31.2999 9.60417C30.9214 9.60417 30.5796 9.54323 30.2745 9.40917C29.9693 9.27511 29.7007 9.0923 29.4932 8.86074C29.2857 8.62918 29.1148 8.34887 29.0049 8.04419C28.895 7.73951 28.834 7.39826 28.834 7.04483V3.05957H29.4444V7.04483C29.4444 7.32514 29.4932 7.59326 29.5664 7.84919C29.6519 8.09294 29.774 8.31231 29.9326 8.48293C30.0913 8.66574 30.2867 8.7998 30.5186 8.90949C30.7505 9.00699 31.0069 9.06793 31.2999 9.06793C31.5929 9.06793 31.8614 9.01918 32.0811 8.92168C32.3131 8.82418 32.5084 8.67793 32.6671 8.49512C32.8258 8.31231 32.9479 8.10513 33.0333 7.86138C33.1188 7.61763 33.1554 7.34951 33.1554 7.05702V3.05957H33.7658V7.04483C33.7658 7.39826 33.7047 7.73951 33.5949 8.04419C33.485 8.34887 33.3141 8.62918 33.1066 8.86074C32.899 9.0923 32.6305 9.27511 32.3253 9.40917C32.0201 9.54323 31.6783 9.60417 31.2999 9.60417ZM28.9683 3.20582V7.04483C28.9683 7.38607 29.0171 7.70294 29.127 7.99544C29.2368 8.28794 29.3833 8.54387 29.5908 8.76324C29.7862 8.98261 30.0303 9.15324 30.3233 9.27511C30.6041 9.39698 30.9337 9.45792 31.2999 9.45792C31.6539 9.45792 31.9835 9.39698 32.2765 9.27511C32.5572 9.15324 32.8136 8.98261 33.0089 8.76324C33.2042 8.54387 33.3629 8.28794 33.4728 7.99544C33.5827 7.70294 33.6315 7.38607 33.6315 7.04483V3.20582H33.3263V7.04483C33.3263 7.34951 33.2775 7.62982 33.192 7.89794C33.1066 8.16606 32.9723 8.39762 32.7892 8.59262C32.6183 8.78762 32.3985 8.94605 32.1544 9.05574C31.9102 9.16542 31.6173 9.22636 31.3121 9.22636C30.9947 9.22636 30.7139 9.16542 30.4698 9.05574C30.2256 8.94605 30.0059 8.78762 29.835 8.59262C29.6641 8.39762 29.5298 8.16606 29.4444 7.89794C29.3589 7.64201 29.3101 7.34951 29.3101 7.04483V3.20582H28.9683Z" fill="white"/>
<path d="M36.3179 6.25277C36.44 6.25277 36.4278 6.25277 36.4278 6.25277H36.6963C36.9771 6.25277 37.2335 6.21621 37.4532 6.15527C37.6729 6.08215 37.8682 5.99683 38.0147 5.86277C38.1734 5.7409 38.2833 5.58247 38.3687 5.41184C38.4542 5.24122 38.4908 5.03404 38.4908 4.81466C38.4908 4.36373 38.3443 4.03467 38.0514 3.8153C37.7584 3.59593 37.3311 3.48625 36.7574 3.48625H35.5977V6.25277V6.59401V9.45804H35.146V3.13281H36.7574C37.4898 3.13281 38.0391 3.27906 38.3932 3.55937C38.7594 3.83968 38.9303 4.25405 38.9303 4.80248C38.9303 5.04622 38.8937 5.2656 38.8082 5.46059C38.7228 5.65559 38.6007 5.8384 38.442 5.98465C38.2833 6.1309 38.1002 6.26496 37.8805 6.35027C37.6607 6.44777 37.4044 6.5087 37.1358 6.54527C37.209 6.59401 37.2701 6.65495 37.3311 6.72807L39.5162 9.45804H39.1134C39.0646 9.45804 39.0279 9.44585 38.9913 9.43366C38.9547 9.42148 38.9181 9.38491 38.8937 9.34835L36.8672 6.78901C36.8184 6.72807 36.7574 6.67933 36.7085 6.65495C36.6475 6.63058 36.2935 6.61839 36.1714 6.61839C36.1714 6.28933 36.2202 6.25277 36.3179 6.25277Z" fill="white"/>
<path d="M39.6749 9.53104H39.1256C39.0646 9.53104 39.0157 9.51886 38.9669 9.49448C38.9181 9.47011 38.8815 9.43355 38.8448 9.3848L36.8184 6.82546C36.7696 6.76452 36.733 6.72796 36.6841 6.70358C36.6353 6.6914 36.3423 6.66702 36.1836 6.66702H36.1104V6.35015C36.1104 6.24046 36.1348 6.17953 36.3301 6.17953C36.44 6.17953 36.4522 6.17953 36.4522 6.17953H36.7208C36.9893 6.17953 37.2335 6.14297 37.4532 6.08203C37.6607 6.02109 37.8438 5.92359 37.9903 5.80172C38.1368 5.67985 38.2467 5.54579 38.3199 5.37516C38.3932 5.20454 38.4298 5.02173 38.4298 4.81455C38.4298 4.38799 38.2955 4.08331 38.0147 3.87612C37.734 3.66894 37.3189 3.55925 36.7696 3.55925H35.6831V9.51886H35.0728V3.05957H36.7696C37.5142 3.05957 38.0758 3.20582 38.4542 3.49831C38.8326 3.79081 39.028 4.22955 39.028 4.80236C39.028 5.05829 38.9791 5.28985 38.8937 5.49704C38.8082 5.70422 38.6739 5.88703 38.5152 6.04547C38.3565 6.2039 38.149 6.32578 37.9293 6.43546C37.7462 6.50859 37.5509 6.56952 37.3311 6.60608C37.3555 6.63046 37.38 6.65483 37.4044 6.6914L39.6749 9.53104ZM36.2447 6.52077C36.3789 6.52077 36.6597 6.53296 36.733 6.56952C36.8062 6.60608 36.8672 6.65483 36.9283 6.72796L38.9547 9.2873C38.9791 9.32386 39.0035 9.34823 39.028 9.36042C39.0524 9.37261 39.0768 9.3848 39.1134 9.3848H39.3576L37.2701 6.77671C37.2213 6.70358 37.1602 6.65483 37.0992 6.61827L36.9161 6.50859L37.1358 6.48421C37.4044 6.45984 37.6485 6.3989 37.856 6.3014C38.0636 6.2039 38.2467 6.09422 38.4054 5.94797C38.5519 5.80172 38.6739 5.64328 38.7472 5.44829C38.8204 5.25329 38.8693 5.04611 38.8693 4.81455C38.8693 4.29049 38.6984 3.9005 38.3565 3.63237C38.0147 3.36425 37.4776 3.23019 36.7696 3.23019H35.2315V9.3848H35.5366V3.413H36.7696C37.3433 3.413 37.795 3.52269 38.1002 3.75425C38.4176 3.98581 38.5763 4.33924 38.5763 4.81455C38.5763 5.04611 38.5274 5.25329 38.4542 5.4361C38.3688 5.61891 38.2467 5.77735 38.0758 5.91141C37.9171 6.04547 37.7218 6.14297 37.4898 6.21609C37.2579 6.28921 37.0015 6.32578 36.7085 6.32578H36.44C36.4278 6.32578 36.4156 6.32578 36.3301 6.32578C36.2935 6.32578 36.2569 6.32578 36.2447 6.52077Z" fill="white"/>
<path d="M44.8747 8.3859C44.8991 8.3859 44.9357 8.39809 44.9479 8.42246L45.131 8.61746C44.9967 8.75152 44.8625 8.88558 44.7038 8.99527C44.5451 9.10496 44.3742 9.20245 44.191 9.27558C44.0079 9.3487 43.8004 9.40964 43.5929 9.45839C43.3732 9.50714 43.129 9.51932 42.8727 9.51932C42.4332 9.51932 42.0303 9.4462 41.6641 9.28777C41.2979 9.12933 40.9805 8.92215 40.7241 8.62965C40.4678 8.34934 40.2603 8.0081 40.1138 7.60591C39.9673 7.20373 39.894 6.76499 39.894 6.27749C39.894 5.80219 39.9673 5.36344 40.126 4.96126C40.2725 4.55908 40.4922 4.23002 40.7608 3.93753C41.0293 3.65722 41.3589 3.43785 41.7374 3.27941C42.1158 3.12098 42.5431 3.04785 42.9947 3.04785C43.2267 3.04785 43.4342 3.06004 43.6295 3.0966C43.8248 3.13316 43.9957 3.18191 44.1666 3.24285C44.3375 3.30379 44.484 3.3891 44.6305 3.4866C44.777 3.58409 44.9235 3.69378 45.0578 3.81565L44.9235 4.01065C44.8991 4.04721 44.8625 4.0594 44.8136 4.0594C44.7892 4.0594 44.7526 4.04721 44.716 4.01065C44.6793 3.97409 44.6183 3.93753 44.5573 3.88878C44.4962 3.84003 44.4108 3.79128 44.3253 3.74253C44.2399 3.68159 44.13 3.63284 43.9957 3.59628C43.8737 3.54753 43.7272 3.51097 43.5563 3.47441C43.3976 3.43785 43.2022 3.42566 42.9947 3.42566C42.6041 3.42566 42.2501 3.4866 41.9327 3.62066C41.6153 3.75472 41.3345 3.93753 41.1026 4.19346C40.8706 4.43721 40.6875 4.74189 40.5532 5.08314C40.419 5.42438 40.3579 5.82656 40.3579 6.26531C40.3579 6.71624 40.419 7.10623 40.5532 7.45967C40.6875 7.8131 40.8584 8.10559 41.0904 8.34934C41.3223 8.59309 41.5909 8.7759 41.8961 8.90996C42.2012 9.04402 42.543 9.10496 42.8971 9.10496C43.129 9.10496 43.3243 9.09277 43.5074 9.05621C43.6905 9.03183 43.8492 8.98308 43.9957 8.92215C44.1422 8.86121 44.2887 8.78809 44.4108 8.70277C44.5451 8.61746 44.6671 8.51996 44.7892 8.39809C44.8014 8.3859 44.8136 8.37372 44.8258 8.37372C44.838 8.39809 44.8625 8.3859 44.8747 8.3859Z" fill="white"/>
<path d="M42.8604 9.60405C42.4088 9.60405 41.9937 9.51874 41.6275 9.37249C41.2491 9.21405 40.9317 8.99468 40.6631 8.70219C40.3945 8.40969 40.187 8.06845 40.0405 7.65408C39.894 7.25189 39.8208 6.78878 39.8208 6.30128C39.8208 5.81379 39.894 5.36286 40.0527 4.96068C40.2114 4.55849 40.4312 4.20506 40.6997 3.91257C40.9805 3.62007 41.3223 3.38851 41.7007 3.23007C42.0914 3.07164 42.5186 2.98633 42.9947 2.98633C43.2267 2.98633 43.4464 2.99852 43.6417 3.03508C43.837 3.07164 44.0201 3.12039 44.191 3.18133C44.362 3.24226 44.5206 3.32757 44.6671 3.42507C44.8136 3.52257 44.9601 3.63226 45.1066 3.76632L45.1554 3.81507L44.9845 4.071C44.9601 4.10756 44.9113 4.15631 44.8136 4.15631C44.7648 4.15631 44.7282 4.13194 44.6671 4.09538C44.6305 4.05881 44.5695 4.02225 44.5084 3.98569C44.4474 3.93694 44.3742 3.88819 44.2765 3.83944C44.191 3.79069 44.0812 3.74194 43.9591 3.69319C43.837 3.64444 43.6905 3.60788 43.5318 3.58351C43.3732 3.55913 43.19 3.53476 42.9825 3.53476C42.6041 3.53476 42.2623 3.59569 41.9449 3.72976C41.6397 3.86382 41.3589 4.04663 41.1392 4.27819C40.9195 4.50974 40.7364 4.80224 40.6143 5.14349C40.4922 5.48473 40.419 5.87473 40.419 6.28909C40.419 6.72784 40.48 7.11783 40.6021 7.45908C40.7241 7.80032 40.895 8.09282 41.1148 8.32438C41.3345 8.55594 41.5909 8.73875 41.8961 8.86062C42.189 8.9825 42.5186 9.04343 42.8726 9.04343C43.0924 9.04343 43.2999 9.03125 43.4708 8.99468C43.6417 8.97031 43.8004 8.92156 43.9469 8.86062C44.0934 8.79969 44.2277 8.72656 44.3497 8.65344C44.4718 8.56813 44.5939 8.47063 44.716 8.36094C44.7404 8.33657 44.7526 8.33657 44.777 8.32438C44.838 8.28782 44.9357 8.3 44.9845 8.36094L45.2165 8.60469L45.1676 8.65344C45.0334 8.79969 44.8869 8.92156 44.7282 9.04343C44.5695 9.15312 44.3986 9.2628 44.2033 9.33593C44.0201 9.42124 43.8126 9.48218 43.5807 9.51874C43.3732 9.57967 43.129 9.60405 42.8604 9.60405ZM42.9947 3.13258C42.543 3.13258 42.128 3.2057 41.7618 3.36414C41.3956 3.51038 41.066 3.72976 40.8096 4.01006C40.541 4.29037 40.3335 4.61943 40.187 5.00943C40.0405 5.39942 39.9673 5.82598 39.9673 6.30128C39.9673 6.77659 40.0405 7.21533 40.187 7.60533C40.3335 7.99532 40.5288 8.32438 40.7852 8.60469C41.0415 8.87281 41.3467 9.09218 41.7007 9.23843C42.0548 9.38468 42.4454 9.4578 42.8726 9.4578C43.129 9.4578 43.3609 9.43343 43.5807 9.39686C43.7882 9.3603 43.9957 9.29937 44.1666 9.21405C44.3497 9.14093 44.5084 9.04343 44.6549 8.93375C44.7892 8.83625 44.9113 8.72656 45.0211 8.61688L44.8869 8.47063C44.8747 8.45844 44.8625 8.45844 44.8502 8.47063C44.838 8.47063 44.8258 8.48281 44.8136 8.495C44.6916 8.60469 44.5573 8.71437 44.423 8.79969C44.2887 8.885 44.1422 8.97031 43.9957 9.03124C43.837 9.09218 43.6661 9.14093 43.4952 9.16531C43.3121 9.18968 43.1046 9.21405 42.8726 9.21405C42.5064 9.21405 42.1524 9.14093 41.835 9.01906C41.5176 8.885 41.2369 8.69 41.0049 8.44625C40.773 8.20251 40.5899 7.88564 40.4556 7.5322C40.3213 7.17877 40.2603 6.7644 40.2603 6.31347C40.2603 5.87473 40.3213 5.47254 40.4556 5.10692C40.5899 4.75349 40.773 4.43662 41.0171 4.19287C41.2613 3.93694 41.542 3.74194 41.8716 3.60788C42.2012 3.47382 42.5675 3.4007 42.9581 3.4007C43.1656 3.4007 43.3609 3.41288 43.5318 3.44945C43.7028 3.48601 43.8492 3.52257 43.9835 3.57132C44.1178 3.62007 44.2277 3.66882 44.3253 3.72976C44.423 3.79069 44.4962 3.83944 44.5573 3.88819C44.6183 3.93694 44.6793 3.9735 44.716 4.01006C44.7526 4.04663 44.777 4.04663 44.777 4.04663C44.8136 4.04663 44.8258 4.03444 44.8258 4.02225L44.9235 3.876C44.8014 3.76632 44.6793 3.68101 44.5573 3.59569C44.4108 3.4982 44.2643 3.42507 44.1056 3.36414C43.9469 3.3032 43.7638 3.25445 43.5807 3.21789C43.422 3.15695 43.2145 3.13258 42.9947 3.13258Z" fill="white"/>
<path d="M50.088 3.13281V3.51062H46.7554V6.06996H49.5265V6.43558H46.7554V9.06804H50.088V9.44585H46.2915V3.13281H50.088Z" fill="white"/>
<path d="M50.1612 9.53104H46.2183V3.05957H50.1612V3.58363H46.8286V5.98453H49.5997V6.50859H46.8286V8.9948H50.1612V9.53104ZM46.3647 9.3848H50.0148V9.15324H46.6821V6.36234H49.4532V6.14297H46.6821V3.43738H50.0148V3.20582H46.3647V9.3848Z" fill="white"/>
<path d="M55.7643 3.05957V4.02237H52.8955V5.93578H55.3126V6.89858H52.8955V9.53104H51.687V3.07176H55.7643V3.05957Z" fill="white"/>
<path d="M62.7834 6.28909C62.7834 6.7644 62.7102 7.20314 62.5515 7.60533C62.3928 8.00751 62.173 8.36094 61.8801 8.65344C61.5993 8.94593 61.2453 9.17749 60.8424 9.34811C60.4396 9.51874 59.9879 9.59186 59.4996 9.59186C59.0113 9.59186 58.5596 9.50655 58.1568 9.34811C57.754 9.17749 57.4121 8.95812 57.1192 8.65344C56.8262 8.36094 56.6065 8.00751 56.4478 7.60533C56.2891 7.20314 56.2158 6.7644 56.2158 6.28909C56.2158 5.81379 56.2891 5.37504 56.4478 4.97286C56.6065 4.57068 56.8262 4.21725 57.1192 3.92475C57.4121 3.63226 57.754 3.4007 58.1568 3.23007C58.5596 3.05945 59.0113 2.98633 59.4996 2.98633C59.9879 2.98633 60.4396 3.07164 60.8424 3.24226C61.2453 3.41288 61.5871 3.64444 61.8801 3.93694C62.1608 4.22944 62.3928 4.58287 62.5515 4.98505C62.6979 5.37504 62.7834 5.81379 62.7834 6.28909ZM61.5505 6.28909C61.5505 5.93566 61.5016 5.61879 61.404 5.33848C61.3063 5.05817 61.172 4.81443 61.0011 4.61943C60.8302 4.42443 60.6105 4.27819 60.3541 4.1685C60.0978 4.05881 59.817 4.01006 59.4996 4.01006C59.1822 4.01006 58.9014 4.05881 58.6451 4.1685C58.3887 4.27819 58.1812 4.42443 57.9981 4.61943C57.815 4.81443 57.6807 5.05817 57.5831 5.33848C57.4854 5.61879 57.4366 5.93566 57.4366 6.28909C57.4366 6.64253 57.4854 6.9594 57.5831 7.23971C57.6807 7.52001 57.815 7.76376 57.9981 7.95876C58.1812 8.15376 58.3887 8.3 58.6451 8.40969C58.9014 8.51938 59.1822 8.56813 59.4996 8.56813C59.817 8.56813 60.0978 8.51938 60.3541 8.40969C60.6105 8.3 60.818 8.15376 61.0011 7.95876C61.172 7.76376 61.3063 7.52001 61.404 7.23971C61.5016 6.9594 61.5505 6.64253 61.5505 6.28909Z" fill="white"/>
<path d="M65.2969 6.14347H65.5777C65.8096 6.14347 66.005 6.1191 66.1759 6.05816C66.3468 5.99722 66.481 5.9241 66.5909 5.8266C66.7008 5.7291 66.7862 5.60723 66.8351 5.47317C66.8839 5.33911 66.9205 5.18067 66.9205 5.02224C66.9205 4.69318 66.8106 4.43725 66.5909 4.26662C66.3712 4.096 66.0416 3.9985 65.6021 3.9985H64.8208V6.14347V7.00877V9.53155H63.6123V3.07227H65.5899C66.0294 3.07227 66.4078 3.12101 66.7252 3.20633C67.0426 3.29164 67.2989 3.4257 67.4943 3.58413C67.6896 3.74257 67.8483 3.94975 67.9337 4.16913C68.0314 4.40068 68.0802 4.64443 68.0802 4.92474C68.0802 5.14411 68.0436 5.3513 67.9826 5.54629C67.9215 5.74129 67.8239 5.91191 67.7018 6.07035C67.5797 6.22878 67.4332 6.36284 67.2501 6.48472C67.067 6.60659 66.8717 6.70409 66.6397 6.76503C66.7862 6.85034 66.9205 6.97221 67.0304 7.13065L68.654 9.51936H67.5675C67.4576 9.51936 67.3722 9.49499 67.2989 9.45843C67.2257 9.42186 67.1647 9.36093 67.1158 9.27562L65.7608 7.20377C65.7242 7.15502 65.6509 7.04534 65.5777 7.03315C65.4312 7.03315 65.2847 7.03315 65.1504 7.03315C65.1504 7.03315 65.1504 6.30191 65.1504 6.25316C65.1626 6.14347 65.2969 6.14347 65.2969 6.14347Z" fill="white"/>
<path d="M72.194 8.64121C72.4625 8.64121 72.7067 8.61684 72.902 8.56809C73.0973 8.51934 73.2926 8.44621 73.4757 8.3609V6.89842H72.67C72.5968 6.89842 72.5358 6.87405 72.4869 6.83749C72.4381 6.78874 72.4137 6.73999 72.4137 6.67905V5.99656H74.5622V8.89714C74.4035 9.01902 74.2326 9.11652 74.0495 9.20183C73.8664 9.28714 73.6833 9.36026 73.4757 9.4212C73.2682 9.48214 73.0607 9.5187 72.8287 9.54307C72.5968 9.56745 72.3526 9.57963 72.0841 9.57963C71.608 9.57963 71.1807 9.49432 70.7779 9.33589C70.375 9.17745 70.0332 8.94589 69.7525 8.6534C69.4595 8.3609 69.2398 8.00747 69.0689 7.60529C68.9102 7.20311 68.8247 6.75217 68.8247 6.27687C68.8247 5.78937 68.898 5.35063 69.0567 4.93626C69.2153 4.53408 69.4351 4.18065 69.7281 3.88815C70.021 3.59566 70.3751 3.3641 70.7901 3.20566C71.2052 3.04723 71.669 2.96191 72.1817 2.96191C72.7067 2.96191 73.1705 3.03504 73.549 3.19347C73.9396 3.35191 74.257 3.55909 74.5256 3.80284L74.1715 4.35127C74.0983 4.46096 74.0129 4.52189 73.903 4.52189C73.8297 4.52189 73.7565 4.49752 73.6832 4.44877C73.5856 4.38783 73.4879 4.33908 73.3903 4.27815C73.2926 4.21721 73.1827 4.16846 73.0607 4.1319C72.9386 4.09534 72.8043 4.05877 72.6578 4.0344C72.5113 4.01002 72.3282 3.99784 72.1329 3.99784C71.8155 3.99784 71.5225 4.04659 71.2662 4.15627C71.0098 4.26596 70.7901 4.41221 70.607 4.61939C70.4239 4.81439 70.2896 5.05814 70.1919 5.33844C70.0943 5.61875 70.0454 5.93562 70.0454 6.27687C70.0454 6.65468 70.0943 6.98373 70.2041 7.27623C70.314 7.56873 70.4605 7.81247 70.6436 8.00747C70.8267 8.20247 71.0587 8.3609 71.315 8.47059C71.5714 8.58027 71.8888 8.64121 72.194 8.64121Z" fill="white"/>
<path d="M78.8238 6.92295H76.8584V8.55606H79.715V9.51886H75.6377V3.05957H79.715V4.02237H76.8462V6.0089H79.1046V6.71577C79.1046 6.71577 79.0924 6.92295 78.8238 6.92295Z" fill="white"/>
</g>
<defs>
<clipPath id="clip0_1485_24171">
<rect width="79.7143" height="12.5042" fill="white"/>
</clipPath>
</defs>
</svg>
