<svg width="60" height="10" viewBox="0 0 60 10" fill="none" xmlns="http://www.w3.org/2000/svg">
<path d="M5.05958 0.720262L6.09573 2.86715C6.17155 3.02366 6.31814 3.13061 6.48641 3.15243L8.55376 3.41407H8.55367C8.68381 3.43186 8.80219 3.50104 8.88392 3.60699C8.96566 3.71294 9.00442 3.84746 8.99203 3.98223C8.97965 4.11702 8.9171 4.2416 8.81748 4.32984L7.20426 5.74673C7.13428 5.80751 7.08164 5.88663 7.05165 5.97579C7.02174 6.06486 7.01573 6.16068 7.03431 6.25303L7.51497 8.63927C7.54186 8.77242 7.51745 8.91104 7.44694 9.02594C7.37643 9.14084 7.26531 9.22288 7.13711 9.25473C7.00901 9.28658 6.87382 9.26577 6.76031 9.1966L4.82743 8.02829C4.75028 7.98239 4.66288 7.9582 4.57379 7.9582C4.48471 7.9582 4.39729 7.98239 4.32015 8.02829L2.38985 9.20571H2.38976C2.27626 9.27488 2.14116 9.29578 2.01297 9.26393C1.88487 9.23208 1.77376 9.15004 1.70323 9.03514C1.63263 8.92025 1.6083 8.78154 1.63511 8.64838L2.11328 6.2528C2.13186 6.16044 2.12584 6.06462 2.09594 5.97555C2.06595 5.88639 2.01331 5.80727 1.94333 5.74649L0.332572 4.34657C0.232868 4.25805 0.170407 4.13302 0.158376 3.99786C0.146344 3.8627 0.185712 3.728 0.268167 3.62215C0.35062 3.51638 0.4697 3.44775 0.600189 3.43078L2.85271 3.15737C3.03212 3.13546 3.18668 3.01692 3.25861 2.84599L4.14639 0.752672V0.752764C4.19797 0.632027 4.29175 0.535839 4.40915 0.483465C4.52647 0.431082 4.65874 0.426337 4.77932 0.470232C4.8999 0.514037 4.99996 0.603288 5.05959 0.72L5.05958 0.720262Z" fill="white"/>
<path d="M17.7022 0.720262L18.7383 2.86715C18.8141 3.02366 18.9607 3.13061 19.129 3.15243L21.1963 3.41407H21.1962C21.3264 3.43186 21.4448 3.50104 21.5265 3.60699C21.6082 3.71294 21.647 3.84746 21.6346 3.98223C21.6222 4.11702 21.5597 4.2416 21.4601 4.32984L19.8468 5.74673C19.7769 5.80751 19.7242 5.88663 19.6942 5.97579C19.6643 6.06486 19.6583 6.16068 19.6769 6.25303L20.1575 8.63927C20.1844 8.77242 20.16 8.91104 20.0895 9.02594C20.019 9.14084 19.9079 9.22288 19.7797 9.25473C19.6516 9.28658 19.5164 9.26577 19.4029 9.1966L17.47 8.02829C17.3929 7.98239 17.3055 7.9582 17.2164 7.9582C17.1273 7.9582 17.0399 7.98239 16.9627 8.02829L15.0324 9.20571H15.0323C14.9188 9.27488 14.7837 9.29578 14.6555 9.26393C14.5274 9.23208 14.4163 9.15004 14.3458 9.03514C14.2752 8.92025 14.2509 8.78154 14.2777 8.64838L14.7559 6.2528C14.7744 6.16044 14.7684 6.06462 14.7385 5.97555C14.7085 5.88639 14.6559 5.80727 14.5859 5.74649L12.9752 4.34657C12.8754 4.25805 12.813 4.13302 12.801 3.99786C12.7889 3.8627 12.8283 3.728 12.9107 3.62215C12.9932 3.51638 13.1123 3.44775 13.2428 3.43078L15.4953 3.15737C15.6747 3.13546 15.8293 3.01692 15.9012 2.84599L16.789 0.752672V0.752764C16.8405 0.632027 16.9343 0.535839 17.0517 0.483465C17.169 0.431082 17.3013 0.426337 17.4219 0.470232C17.5425 0.514037 17.6425 0.603288 17.7022 0.72L17.7022 0.720262Z" fill="white"/>
<path d="M30.3428 0.720262L31.3789 2.86715C31.4548 3.02366 31.6013 3.13061 31.7696 3.15243L33.837 3.41407H33.8369C33.967 3.43186 34.0854 3.50104 34.1671 3.60699C34.2489 3.71294 34.2876 3.84746 34.2752 3.98223C34.2629 4.11702 34.2003 4.2416 34.1007 4.32984L32.4875 5.74673C32.4175 5.80751 32.3648 5.88663 32.3349 5.97579C32.3049 6.06486 32.2989 6.16068 32.3175 6.25303L32.7982 8.63927C32.8251 8.77242 32.8006 8.91104 32.7301 9.02594C32.6596 9.14084 32.5485 9.22288 32.4203 9.25473C32.2922 9.28658 32.157 9.26577 32.0435 9.1966L30.1106 8.02829C30.0335 7.98239 29.9461 7.9582 29.857 7.9582C29.7679 7.9582 29.6805 7.98239 29.6034 8.02829L27.6731 9.20571H27.673C27.5595 9.27488 27.4244 9.29578 27.2962 9.26393C27.1681 9.23208 27.057 9.15004 26.9864 9.03514C26.9158 8.92025 26.8915 8.78154 26.9183 8.64838L27.3965 6.2528C27.4151 6.16044 27.409 6.06462 27.3791 5.97555C27.3492 5.88639 27.2965 5.80727 27.2265 5.74649L25.6158 4.34657C25.5161 4.25805 25.4536 4.13302 25.4416 3.99786C25.4295 3.8627 25.4689 3.728 25.5514 3.62215C25.6338 3.51638 25.7529 3.44775 25.8834 3.43078L28.1359 3.15737C28.3153 3.13546 28.4699 3.01692 28.5418 2.84599L29.4296 0.752672V0.752764C29.4812 0.632027 29.5749 0.535839 29.6924 0.483465C29.8097 0.431082 29.9419 0.426337 30.0625 0.470232C30.1831 0.514037 30.2832 0.603288 30.3428 0.72L30.3428 0.720262Z" fill="white"/>
<path d="M42.9844 0.720262L44.0205 2.86715C44.0964 3.02366 44.2429 3.13061 44.4112 3.15243L46.4786 3.41407H46.4785C46.6086 3.43186 46.727 3.50104 46.8087 3.60699C46.8905 3.71294 46.9292 3.84746 46.9168 3.98223C46.9045 4.11702 46.8419 4.2416 46.7423 4.32984L45.1291 5.74673C45.0591 5.80751 45.0064 5.88663 44.9765 5.97579C44.9465 6.06486 44.9405 6.16068 44.9591 6.25303L45.4398 8.63927C45.4667 8.77242 45.4423 8.91104 45.3717 9.02594C45.3012 9.14084 45.1901 9.22288 45.0619 9.25473C44.9338 9.28658 44.7986 9.26577 44.6851 9.1966L42.7522 8.02829C42.6751 7.98239 42.5877 7.9582 42.4986 7.9582C42.4095 7.9582 42.3221 7.98239 42.245 8.02829L40.3147 9.20571H40.3146C40.2011 9.27488 40.066 9.29578 39.9378 9.26393C39.8097 9.23208 39.6986 9.15004 39.628 9.03514C39.5574 8.92025 39.5331 8.78154 39.5599 8.64838L40.0381 6.2528C40.0567 6.16044 40.0506 6.06462 40.0207 5.97555C39.9908 5.88639 39.9381 5.80727 39.8681 5.74649L38.2574 4.34657C38.1577 4.25805 38.0952 4.13302 38.0832 3.99786C38.0711 3.8627 38.1105 3.728 38.193 3.62215C38.2754 3.51638 38.3945 3.44775 38.525 3.43078L40.7775 3.15737C40.9569 3.13546 41.1115 3.01692 41.1834 2.84599L42.0712 0.752672V0.752764C42.1228 0.632027 42.2166 0.535839 42.334 0.483465C42.4513 0.431082 42.5835 0.426337 42.7041 0.470232C42.8247 0.514037 42.9248 0.603288 42.9844 0.72L42.9844 0.720262Z" fill="white"/>
<path d="M55.624 0.719285L56.6602 2.86617C56.736 3.02268 56.8826 3.12963 57.0509 3.15145L59.1182 3.41309H59.1181C59.2483 3.43088 59.3666 3.50006 59.4484 3.60601C59.5301 3.71196 59.5689 3.84648 59.5565 3.98126C59.5441 4.11605 59.4816 4.24063 59.3819 4.32887L57.7687 5.74575C57.6987 5.80653 57.6461 5.88565 57.6161 5.97481C57.5862 6.06388 57.5802 6.15971 57.5988 6.25205L58.0794 8.63829C58.1063 8.77144 58.0819 8.91007 58.0114 9.02496C57.9409 9.13986 57.8298 9.2219 57.7016 9.25375C57.5735 9.2856 57.4383 9.26479 57.3248 9.19562L55.3919 8.02731C55.3147 7.98141 55.2273 7.95722 55.1382 7.95722C55.0492 7.95722 54.9617 7.98141 54.8846 8.02731L52.9543 9.20473H52.9542C52.8407 9.2739 52.7056 9.2948 52.5774 9.26295C52.4493 9.2311 52.3382 9.14906 52.2677 9.03417C52.1971 8.91927 52.1728 8.78057 52.1996 8.6474L52.6777 6.25182C52.6963 6.15946 52.6903 6.06364 52.6604 5.97458C52.6304 5.88542 52.5778 5.80629 52.5078 5.74551L50.897 4.34559C50.7973 4.25707 50.7349 4.13205 50.7228 3.99688C50.7108 3.86173 50.7502 3.72703 50.8326 3.62117C50.9151 3.5154 51.0342 3.44677 51.1646 3.4298L53.4172 3.15639C53.5966 3.13449 53.7511 3.01594 53.8231 2.84502L54.7108 0.751696V0.751787C54.7624 0.63105 54.8562 0.534862 54.9736 0.482489C55.0909 0.430105 55.2232 0.42536 55.3438 0.469256C55.4644 0.51306 55.5644 0.602312 55.624 0.719024L55.624 0.719285Z" fill="white"/>
<mask id="mask0_1311_70554" style="mask-type:alpha" maskUnits="userSpaceOnUse" x="50" y="0" width="10" height="10">
<path d="M55.624 0.719285L56.6602 2.86617C56.736 3.02268 56.8826 3.12963 57.0509 3.15145L59.1182 3.41309H59.1181C59.2483 3.43088 59.3666 3.50006 59.4484 3.60601C59.5301 3.71196 59.5689 3.84648 59.5565 3.98126C59.5441 4.11605 59.4816 4.24063 59.3819 4.32887L57.7687 5.74575C57.6987 5.80653 57.6461 5.88565 57.6161 5.97481C57.5862 6.06388 57.5802 6.15971 57.5988 6.25205L58.0794 8.63829C58.1063 8.77144 58.0819 8.91007 58.0114 9.02496C57.9409 9.13986 57.8298 9.2219 57.7016 9.25375C57.5735 9.2856 57.4383 9.26479 57.3248 9.19562L55.3919 8.02731C55.3147 7.98141 55.2273 7.95722 55.1382 7.95722C55.0492 7.95722 54.9617 7.98141 54.8846 8.02731L52.9543 9.20473H52.9542C52.8407 9.2739 52.7056 9.2948 52.5774 9.26295C52.4493 9.2311 52.3382 9.14906 52.2677 9.03417C52.1971 8.91927 52.1728 8.78057 52.1996 8.6474L52.6777 6.25182C52.6963 6.15946 52.6903 6.06364 52.6604 5.97458C52.6304 5.88542 52.5778 5.80629 52.5078 5.74551L50.897 4.34559C50.7973 4.25707 50.7349 4.13205 50.7228 3.99688C50.7108 3.86173 50.7502 3.72703 50.8326 3.62117C50.9151 3.5154 51.0342 3.44677 51.1646 3.4298L53.4172 3.15639C53.5966 3.13449 53.7511 3.01594 53.8231 2.84502L54.7108 0.751696V0.751787C54.7624 0.63105 54.8562 0.534862 54.9736 0.482489C55.0909 0.430105 55.2232 0.42536 55.3438 0.469256C55.4644 0.51306 55.5644 0.602312 55.624 0.719024L55.624 0.719285Z" fill="#FFCC00"/>
</mask>
<g mask="url(#mask0_1311_70554)">
<rect x="55.1387" y="-0.542969" width="7.61054" height="13.2571" fill="white"/>
</g>
</svg>
