<svg width="55" height="87" viewBox="0 0 55 87" fill="none" xmlns="http://www.w3.org/2000/svg">
<g filter="url(#filter0_d_1_2)">
<path d="M48.2402 67.8915V69.3026H47.9502V67.8915H48.2402ZM48.6747 67.8915V68.1193H47.5227V67.8915H48.6747ZM48.9735 67.8915H49.2198L49.5823 68.9275L49.9451 67.8915H50.1913L49.6814 69.3026H49.4836L48.9735 67.8915ZM48.8406 67.8915H49.0858L49.1304 68.9014V69.3026H48.8406V67.8915ZM50.0789 67.8915H50.3253V69.3026H50.0343V68.9014L50.0789 67.8915Z" fill="white"/>
<path d="M50.5403 0H4.59879V45.6975H50.5403V0Z" fill="#DD0401"/>
<path d="M13.9181 8.78923C13.7586 8.49709 13.5393 8.27466 13.2603 8.12194C12.9812 7.96924 12.6556 7.89289 12.2835 7.89289C11.8716 7.89289 11.5061 7.98583 11.1872 8.17174C10.8683 8.35766 10.6191 8.62322 10.4397 8.96851C10.2603 9.3137 10.1706 9.71211 10.1706 10.1636C10.1706 10.6284 10.2603 11.0334 10.4397 11.3786C10.6258 11.7239 10.8816 11.9895 11.2071 12.1755C11.5327 12.3613 11.9114 12.4543 12.3433 12.4543C12.8749 12.4543 13.3101 12.3149 13.649 12.0359C13.9878 11.7505 14.2104 11.3555 14.3167 10.8508H11.9247V9.78513H15.6922V11.0003C15.5991 11.4849 15.3998 11.9331 15.0941 12.3447C14.7885 12.7564 14.3931 13.0884 13.9081 13.3406C13.4297 13.5864 12.8915 13.7091 12.2935 13.7091C11.6224 13.7091 11.0145 13.5598 10.4696 13.261C9.93141 12.9556 9.50616 12.5339 9.19389 11.9961C8.88825 11.4583 8.73542 10.8475 8.73542 10.1636C8.73542 9.47977 8.88825 8.86889 9.19389 8.3311C9.50616 7.78666 9.93141 7.36504 10.4696 7.06624C11.0145 6.76084 11.6191 6.60813 12.2835 6.60813C13.0676 6.60813 13.7486 6.80067 14.3267 7.18577C14.9047 7.56423 15.3035 8.09871 15.5227 8.78923H13.9181ZM18.1198 8.98842C18.2992 8.69628 18.5317 8.4672 18.8174 8.30121C19.1098 8.13522 19.442 8.05223 19.8141 8.05223V9.51623H19.4453C19.0067 9.51623 18.6745 9.61917 18.4486 9.82496C18.2293 10.0309 18.1198 10.3893 18.1198 10.9006V13.6494H16.7245V8.13191H18.1198V8.98842ZM25.8867 10.7712C25.8867 10.9703 25.8735 11.1496 25.8468 11.309H21.8104C21.8436 11.7073 21.9831 12.0194 22.229 12.2451C22.4748 12.4709 22.7771 12.5838 23.1359 12.5838C23.6542 12.5838 24.023 12.3613 24.2422 11.9165H25.7471C25.5877 12.4476 25.282 12.8859 24.8302 13.2312C24.3784 13.5697 23.8236 13.739 23.1658 13.739C22.6343 13.739 22.1559 13.6228 21.7306 13.3905C21.312 13.1514 20.9831 12.8161 20.744 12.3845C20.5114 11.953 20.3951 11.455 20.3951 10.8907C20.3951 10.3197 20.5114 9.81832 20.744 9.38683C20.9765 8.95522 21.3021 8.62322 21.7207 8.39086C22.1392 8.15847 22.621 8.04226 23.1658 8.04226C23.6908 8.04226 24.1591 8.15515 24.5711 8.38089C24.9898 8.60664 25.312 8.92865 25.5379 9.347C25.7704 9.75858 25.8867 10.2334 25.8867 10.7712ZM24.4415 10.3728C24.4349 10.0142 24.3054 9.72876 24.0528 9.51623C23.8004 9.29716 23.4914 9.18758 23.126 9.18758C22.7804 9.18758 22.4881 9.29379 22.2489 9.50632C22.0164 9.71211 21.8735 10.0009 21.8203 10.3728H24.4415ZM26.5464 10.8708C26.5464 10.313 26.656 9.81832 26.8754 9.38683C27.1011 8.95522 27.4035 8.62322 27.7823 8.39086C28.1677 8.15847 28.5961 8.04226 29.0679 8.04226C29.4798 8.04226 29.8386 8.12526 30.1444 8.29125C30.4566 8.45723 30.7057 8.66639 30.8919 8.91871V8.13191H32.2972V13.6494H30.8919V12.8427C30.7124 13.1017 30.4632 13.3175 30.1444 13.4901C29.8321 13.656 29.4699 13.739 29.0579 13.739C28.5929 13.739 28.1677 13.6196 27.7823 13.3805C27.4035 13.1415 27.1011 12.8062 26.8754 12.3746C26.656 11.9364 26.5464 11.4351 26.5464 10.8708ZM30.8919 10.8907C30.8919 10.552 30.8254 10.2632 30.6925 10.0242C30.5596 9.77849 30.3802 9.59262 30.1542 9.46649C29.9283 9.33372 29.6858 9.26724 29.4267 9.26724C29.1675 9.26724 28.9284 9.33035 28.7091 9.45648C28.4899 9.58271 28.3105 9.76859 28.171 10.0142C28.0381 10.2533 27.9716 10.5387 27.9716 10.8708C27.9716 11.2027 28.0381 11.4949 28.171 11.7471C28.3105 11.9928 28.4899 12.1821 28.7091 12.3149C28.935 12.4476 29.1742 12.514 29.4267 12.514C29.6858 12.514 29.9283 12.451 30.1542 12.3248C30.3802 12.192 30.5596 12.0061 30.6925 11.767C30.8254 11.5214 30.8919 11.2292 30.8919 10.8907ZM35.2844 9.27724V11.9464C35.2844 12.1323 35.3276 12.2684 35.4139 12.3547C35.5071 12.4343 35.66 12.4742 35.8725 12.4742H36.5204V13.6494H35.6432C34.4673 13.6494 33.8791 13.0784 33.8791 11.9364V9.27724H33.2214V8.13191H33.8791V6.76747H35.2844V8.13191H36.5204V9.27724H35.2844Z" fill="white"/>
<path d="M14.1446 18.6688C14.1446 19.0406 14.0549 19.3892 13.8755 19.7145C13.7027 20.0399 13.427 20.3021 13.0482 20.5013C12.6761 20.7005 12.2044 20.8001 11.633 20.8001H10.4669V23.4691H9.07157V16.5175H11.633C12.1712 16.5175 12.6296 16.6105 13.0084 16.7965C13.3871 16.9823 13.6695 17.238 13.8555 17.5632C14.0482 17.8886 14.1446 18.2571 14.1446 18.6688ZM11.5732 19.6746C11.9586 19.6746 12.2443 19.5884 12.4303 19.4158C12.6164 19.2365 12.7094 18.9874 12.7094 18.6688C12.7094 17.9916 12.3306 17.6529 11.5732 17.6529H10.4669V19.6746H11.5732ZM16.5305 16.0992V23.4691H15.1352V16.0992H16.5305ZM17.5504 20.6905C17.5504 20.1328 17.66 19.6382 17.8792 19.2066C18.1051 18.775 18.4074 18.443 18.7862 18.2106C19.1716 17.9783 19.6001 17.8621 20.0719 17.8621C20.4838 17.8621 20.8427 17.9451 21.1483 18.1111C21.4606 18.277 21.7098 18.4862 21.8958 18.7384V17.9517H23.301V23.4691H21.8958V22.6624C21.7164 22.9214 21.4672 23.1371 21.1483 23.3098C20.836 23.4758 20.4739 23.5589 20.0619 23.5589C19.5968 23.5589 19.1716 23.4393 18.7862 23.2003C18.4074 22.9614 18.1051 22.6261 17.8792 22.1944C17.66 21.7561 17.5504 21.2549 17.5504 20.6905ZM21.8958 20.7104C21.8958 20.3719 21.8294 20.083 21.6965 19.844C21.5635 19.5984 21.3842 19.4124 21.1583 19.2863C20.9324 19.1535 20.6898 19.0871 20.4307 19.0871C20.1716 19.0871 19.9323 19.1501 19.7131 19.2763C19.4938 19.4025 19.3145 19.5884 19.1749 19.8341C19.042 20.0731 18.9756 20.3586 18.9756 20.6905C18.9756 21.0225 19.042 21.3146 19.1749 21.567C19.3145 21.8126 19.4938 22.002 19.7131 22.1347C19.939 22.2675 20.1782 22.3338 20.4307 22.3338C20.6898 22.3338 20.9324 22.2708 21.1583 22.1445C21.3842 22.0119 21.5635 21.8259 21.6965 21.5869C21.8294 21.3412 21.8958 21.0491 21.8958 20.7104ZM24.3051 20.7104C24.3051 20.1394 24.4214 19.6415 24.6538 19.2165C24.8865 18.785 25.2087 18.453 25.6207 18.2206C26.0326 17.9816 26.5043 17.8621 27.036 17.8621C27.7203 17.8621 28.2851 18.0347 28.7302 18.38C29.1819 18.7186 29.4843 19.1966 29.6372 19.8142H28.1322C28.0526 19.5751 27.9163 19.3892 27.7236 19.2563C27.5375 19.1169 27.305 19.0473 27.0259 19.0473C26.6273 19.0473 26.3117 19.1933 26.0792 19.4854C25.8466 19.771 25.7303 20.1793 25.7303 20.7104C25.7303 21.235 25.8466 21.6433 26.0792 21.9355C26.3117 22.2209 26.6273 22.3638 27.0259 22.3638C27.5908 22.3638 27.9594 22.1114 28.1322 21.6068H29.6372C29.4843 22.2043 29.1819 22.6792 28.7302 23.0309C28.2785 23.3829 27.7137 23.5589 27.036 23.5589C26.5043 23.5589 26.0326 23.4426 25.6207 23.2102C25.2087 22.9713 24.8865 22.6392 24.6538 22.2144C24.4214 21.7827 24.3051 21.2814 24.3051 20.7104ZM35.7923 20.5909C35.7923 20.7901 35.7789 20.9694 35.7523 21.1288H31.7157C31.7491 21.5272 31.8886 21.8392 32.1346 22.065C32.3803 22.2908 32.6827 22.4035 33.0415 22.4035C33.5598 22.4035 33.9285 22.1812 34.1476 21.7362H35.6526C35.4932 22.2675 35.1875 22.7057 34.7358 23.0509C34.2841 23.3895 33.7291 23.5589 33.0714 23.5589C32.5397 23.5589 32.0614 23.4426 31.6361 23.2102C31.2174 22.9713 30.8887 22.6359 30.6494 22.2043C30.4168 21.7728 30.3006 21.2748 30.3006 20.7104C30.3006 20.1394 30.4168 19.6382 30.6494 19.2066C30.882 18.775 31.2076 18.443 31.6262 18.2106C32.0447 17.9783 32.5265 17.8621 33.0714 17.8621C33.5962 17.8621 34.0647 17.9749 34.4766 18.2007C34.8952 18.4264 35.2175 18.7484 35.4433 19.1668C35.6759 19.5784 35.7923 20.0531 35.7923 20.5909ZM34.3471 20.1925C34.3404 19.8341 34.2109 19.5485 33.9584 19.3361C33.7058 19.1169 33.3969 19.0074 33.0315 19.0074C32.686 19.0074 32.3937 19.1137 32.1543 19.3261C31.9217 19.532 31.7791 19.8208 31.7258 20.1925H34.3471Z" fill="white"/>
<path d="M13.8052 26.3361V27.4613H11.9515V33.2876H10.5561V27.4613H8.70236V26.3361H13.8052ZM17.2751 33.3774C16.7436 33.3774 16.2651 33.261 15.84 33.0287C15.4147 32.7897 15.0791 32.4544 14.8333 32.0229C14.5941 31.5913 14.4745 31.0933 14.4745 30.529C14.4745 29.9645 14.5974 29.4666 14.8433 29.0349C15.0957 28.6036 15.4379 28.2715 15.8698 28.0392C16.3017 27.8002 16.7834 27.6806 17.315 27.6806C17.8466 27.6806 18.3282 27.8002 18.7601 28.0392C19.192 28.2715 19.5309 28.6036 19.7767 29.0349C20.0292 29.4666 20.1554 29.9645 20.1554 30.529C20.1554 31.0933 20.0259 31.5913 19.7667 32.0229C19.5142 32.4544 19.1687 32.7897 18.7302 33.0287C18.2984 33.261 17.8133 33.3774 17.2751 33.3774ZM17.2751 32.1623C17.5276 32.1623 17.7635 32.1026 17.9827 31.983C18.2086 31.8569 18.3881 31.671 18.5209 31.4252C18.6538 31.1796 18.7203 30.8807 18.7203 30.529C18.7203 30.0046 18.5808 29.6027 18.3017 29.3238C18.0293 29.0383 17.6937 28.8956 17.2951 28.8956C16.8964 28.8956 16.5609 29.0383 16.2884 29.3238C16.0227 29.6027 15.8898 30.0046 15.8898 30.529C15.8898 31.0534 16.0193 31.4586 16.2785 31.744C16.5442 32.0229 16.8765 32.1623 17.2751 32.1623Z" fill="white"/>
<path d="M18.3686 36.1572L16.4251 43.1088H14.7806L13.475 38.1591L12.1096 43.1088L10.4751 43.1189L8.60133 36.1572H10.0963L11.3222 41.5551L12.7375 36.1572H14.2923L15.6278 41.5253L16.8636 36.1572H18.3686ZM21.7315 43.1986C21.1999 43.1986 20.7215 43.0823 20.2963 42.8499C19.8711 42.6109 19.5355 42.2757 19.2897 41.844C19.0505 41.4126 18.9309 40.9146 18.9309 40.3502C18.9309 39.7858 19.0538 39.2879 19.2996 38.8562C19.5522 38.4246 19.8943 38.0928 20.3262 37.8604C20.7581 37.6212 21.2397 37.5019 21.7713 37.5019C22.3029 37.5019 22.7846 37.6212 23.2165 37.8604C23.6484 38.0928 23.9872 38.4246 24.2331 38.8562C24.4856 39.2879 24.6118 39.7858 24.6118 40.3502C24.6118 40.9146 24.4822 41.4126 24.2231 41.844C23.9707 42.2757 23.6252 42.6109 23.1866 42.8499C22.7547 43.0823 22.2697 43.1986 21.7315 43.1986ZM21.7315 41.9836C21.9839 41.9836 22.2199 41.9238 22.4391 41.8042C22.665 41.6781 22.8444 41.4922 22.9774 41.2464C23.1102 41.0009 23.1766 40.702 23.1766 40.3502C23.1766 39.8257 23.0371 39.4239 22.7581 39.145C22.4856 38.8596 22.1501 38.7169 21.7514 38.7169C21.3528 38.7169 21.0172 38.8596 20.7448 39.145C20.479 39.4239 20.3461 39.8257 20.3461 40.3502C20.3461 40.8747 20.4757 41.2798 20.7348 41.5653C21.0005 41.844 21.3328 41.9836 21.7315 41.9836ZM27.0306 38.4479C27.2101 38.1558 27.4426 37.9266 27.7284 37.7608C28.0207 37.5946 28.3529 37.5117 28.725 37.5117V38.9759H28.3562C27.9176 38.9759 27.5854 39.0787 27.3597 39.2846C27.1402 39.4904 27.0306 39.8488 27.0306 40.3601V43.1088H25.6354V37.5913H27.0306V38.4479ZM32.9339 43.1088L31.0602 40.7586V43.1088H29.6648V35.739H31.0602V39.9319L32.9139 37.5913H34.7278L32.2959 40.3601L34.7478 43.1088H32.9339Z" fill="white"/>
<path d="M50.5403 45.6976H4.59879V63.8133H50.5403V45.6976Z" fill="#001666"/>
<path d="M27.5618 63.8128H50.5374L39.0487 71.4065L27.5618 78.9999L16.0749 71.4065L4.58594 63.8128H27.5618Z" fill="#001666"/>
<path d="M13.8639 53.5531H15.227C15.1997 53.9995 15.0766 54.3958 14.8577 54.7421C14.642 55.0884 14.3395 55.3588 13.9505 55.553C13.5645 55.7474 13.0995 55.8446 12.5555 55.8446C12.13 55.8446 11.7485 55.7718 11.4112 55.626C11.0738 55.477 10.785 55.2646 10.5449 54.9881C10.3079 54.7119 10.127 54.3776 10.0024 53.986C9.87783 53.5942 9.8155 53.1553 9.8155 52.6692V52.2093C9.8155 51.7232 9.87934 51.2843 10.007 50.8926C10.1377 50.4979 10.3231 50.1621 10.5632 49.8858C10.8063 49.6095 11.0966 49.3969 11.434 49.2481C11.7713 49.0991 12.1482 49.0248 12.5646 49.0248C13.1177 49.0248 13.5843 49.125 13.9642 49.3253C14.3471 49.5259 14.6435 49.8022 14.8532 50.1546C15.066 50.5068 15.1936 50.9078 15.2361 51.3572H13.8684C13.8533 51.0901 13.8001 50.8637 13.7089 50.6784C13.6177 50.4902 13.4794 50.3491 13.294 50.2549C13.1117 50.1577 12.8685 50.109 12.5646 50.109C12.3366 50.109 12.1375 50.1515 11.9674 50.2367C11.7971 50.3216 11.6543 50.4507 11.5388 50.6238C11.4233 50.797 11.3367 51.0155 11.2789 51.28C11.2242 51.5411 11.1969 51.8479 11.1969 52.2V52.6692C11.1969 53.0125 11.2227 53.3147 11.2744 53.576C11.326 53.8341 11.4051 54.0529 11.5115 54.2319C11.6209 54.4082 11.7607 54.5417 11.9309 54.6328C12.1041 54.7209 12.3123 54.765 12.5555 54.765C12.8412 54.765 13.0767 54.7193 13.2621 54.6282C13.4475 54.5371 13.5888 54.402 13.6861 54.2229C13.7864 54.0437 13.8457 53.8204 13.8639 53.5531ZM18.3135 55.8446C17.9306 55.8446 17.5871 55.7838 17.2832 55.6625C16.9792 55.5378 16.7209 55.3662 16.5081 55.1477C16.2984 54.9289 16.1373 54.6754 16.0249 54.3868C15.9124 54.0952 15.8561 53.7856 15.8561 53.4575V53.2751C15.8561 52.9017 15.9093 52.5599 16.0158 52.2501C16.1221 51.9404 16.274 51.6716 16.4717 51.4439C16.6722 51.2161 16.9154 51.0414 17.2011 50.9201C17.4868 50.7955 17.8089 50.7331 18.1676 50.7331C18.5171 50.7331 18.8272 50.7908 19.0976 50.9063C19.3681 51.0217 19.5946 51.1858 19.777 51.3982C19.9623 51.6109 20.1021 51.8661 20.1963 52.1637C20.2906 52.4581 20.3376 52.7863 20.3376 53.1477V53.6943H16.4169V52.8195H19.0475V52.7195C19.0475 52.5372 19.0141 52.3748 18.9472 52.2319C18.8833 52.0862 18.7861 51.9708 18.6554 51.8858C18.5248 51.8007 18.3576 51.7581 18.1539 51.7581C17.9806 51.7581 17.8317 51.7961 17.7071 51.872C17.5825 51.948 17.4807 52.0544 17.4017 52.191C17.3257 52.3276 17.268 52.4887 17.2284 52.6738C17.192 52.8562 17.1737 53.0566 17.1737 53.2751V53.4575C17.1737 53.6548 17.2011 53.8372 17.2558 54.0041C17.3135 54.1711 17.3941 54.3155 17.4974 54.4369C17.6038 54.5585 17.7314 54.6526 17.8803 54.7193C18.0323 54.7862 18.2041 54.8196 18.3956 54.8196C18.6326 54.8196 18.853 54.7742 19.0565 54.6829C19.2633 54.5887 19.4411 54.4476 19.59 54.2594L20.2283 54.9517C20.1249 55.1005 19.9836 55.2434 19.8042 55.38C19.628 55.5166 19.4152 55.6289 19.166 55.7171C18.9167 55.802 18.6326 55.8446 18.3135 55.8446ZM22.3983 51.8995V55.7535H21.0853V50.8244H22.3209L22.3983 51.8995ZM23.8846 50.7923L23.8618 52.0087C23.798 51.9998 23.7205 51.992 23.6293 51.9859C23.5411 51.9769 23.4605 51.9723 23.3876 51.9723C23.2023 51.9723 23.0412 51.9967 22.9043 52.0451C22.7707 52.0908 22.6582 52.1591 22.567 52.2501C22.4789 52.3414 22.412 52.4522 22.3664 52.5828C22.3238 52.7133 22.2995 52.8621 22.2935 53.0291L22.029 52.9473C22.029 52.6285 22.061 52.3353 22.1248 52.068C22.1886 51.7976 22.2814 51.5623 22.4029 51.3618C22.5275 51.1615 22.6795 51.0066 22.8588 50.8973C23.0381 50.7877 23.2432 50.7331 23.4742 50.7331C23.5471 50.7331 23.6217 50.7392 23.6977 50.7513C23.7737 50.7605 23.836 50.7741 23.8846 50.7923ZM27.1488 50.8244V51.7537H24.2766V50.8244H27.1488ZM24.9879 49.608H26.3008V54.2683C26.3008 54.4112 26.3191 54.5205 26.3556 54.5964C26.3951 54.6724 26.4528 54.7255 26.5288 54.7557C26.6049 54.7832 26.7006 54.7968 26.8161 54.7968C26.898 54.7968 26.9709 54.7937 27.0348 54.7878C27.1016 54.7786 27.158 54.7696 27.2035 54.7603L27.2081 55.7261C27.0957 55.7626 26.974 55.7915 26.8433 55.8128C26.7127 55.8341 26.5684 55.8446 26.4102 55.8446C26.1215 55.8446 25.8692 55.7976 25.6534 55.7036C25.4407 55.6063 25.2766 55.4514 25.1611 55.2388C25.0456 55.026 24.9879 54.7467 24.9879 54.4005V49.608ZM29.2825 50.8244V55.7535H27.9648V50.8244H29.2825ZM27.8827 49.5395C27.8827 49.3482 27.9497 49.1904 28.0834 49.0657C28.2172 48.9413 28.3964 48.879 28.6213 48.879C28.8432 48.879 29.0209 48.9413 29.1546 49.0657C29.2915 49.1904 29.36 49.3482 29.36 49.5395C29.36 49.7309 29.2915 49.8889 29.1546 50.0134C29.0209 50.138 28.8432 50.2 28.6213 50.2C28.3964 50.2 28.2172 50.138 28.0834 50.0134C27.9497 49.8889 27.8827 49.7309 27.8827 49.5395ZM32.0086 55.7535H30.6912V50.601C30.6912 50.1819 30.7762 49.8281 30.9465 49.5395C31.1197 49.251 31.3659 49.0324 31.685 48.8836C32.0071 48.7348 32.3963 48.6605 32.8522 48.6605C33.1104 48.6605 33.3612 48.6861 33.6043 48.7377C33.8474 48.7864 34.0982 48.8502 34.3566 48.9291L34.1652 49.9815C33.9981 49.9299 33.8186 49.8812 33.6271 49.8358C33.4356 49.7901 33.2046 49.7673 32.9343 49.7673C32.6304 49.7673 32.3993 49.8386 32.2413 49.9815C32.0861 50.1213 32.0086 50.3278 32.0086 50.601V55.7535ZM32.9889 50.8244V51.7537H29.9571V50.8244H32.9889ZM34.9676 50.8244V55.7535H33.6499V50.8244H34.9676ZM38.3365 55.8446C37.9535 55.8446 37.6101 55.7838 37.3061 55.6625C37.0022 55.5378 36.744 55.3662 36.5312 55.1477C36.3214 54.9289 36.1604 54.6754 36.048 54.3868C35.9356 54.0952 35.8794 53.7856 35.8794 53.4575V53.2751C35.8794 52.9017 35.9325 52.5599 36.0388 52.2501C36.1453 51.9404 36.2973 51.6716 36.4947 51.4439C36.6954 51.2161 36.9386 51.0414 37.2242 50.9201C37.51 50.7955 37.8321 50.7331 38.1908 50.7331C38.5401 50.7331 38.8502 50.7908 39.1207 50.9063C39.3913 51.0217 39.6177 51.1858 39.8 51.3982C39.9854 51.6109 40.1252 51.8661 40.2194 52.1637C40.3136 52.4581 40.3609 52.7863 40.3609 53.1477V53.6943H36.4401V52.8195H39.0707V52.7195C39.0707 52.5372 39.0371 52.3748 38.9703 52.2319C38.9064 52.0862 38.8091 51.9708 38.6784 51.8858C38.5478 51.8007 38.3807 51.7581 38.1771 51.7581C38.0039 51.7581 37.855 51.7961 37.7302 51.872C37.6057 51.948 37.5038 52.0544 37.4247 52.191C37.3487 52.3276 37.291 52.4887 37.2515 52.6738C37.215 52.8562 37.1967 53.0566 37.1967 53.2751V53.4575C37.1967 53.6548 37.2242 53.8372 37.279 54.0041C37.3367 54.1711 37.4172 54.3155 37.5205 54.4369C37.627 54.5585 37.7546 54.6526 37.9035 54.7193C38.0554 54.7862 38.2272 54.8196 38.4187 54.8196C38.6557 54.8196 38.8761 54.7742 39.0797 54.6829C39.2863 54.5887 39.4642 54.4476 39.6131 54.2594L40.2513 54.9517C40.1481 55.1005 40.0066 55.2434 39.8275 55.38C39.6511 55.5166 39.4383 55.6289 39.1891 55.7171C38.9398 55.802 38.6557 55.8446 38.3365 55.8446ZM44.0216 54.6785V48.7558H45.3436V55.7535H44.1539L44.0216 54.6785ZM40.9033 53.3482V53.2526C40.9033 52.8759 40.9459 52.5341 41.0309 52.2275C41.116 51.9177 41.2406 51.6519 41.4049 51.4303C41.5689 51.2084 41.7709 51.0368 42.0112 50.9155C42.2512 50.7938 42.5248 50.7331 42.8318 50.7331C43.1204 50.7331 43.3727 50.7938 43.5886 50.9155C43.8073 51.0368 43.9929 51.2099 44.1449 51.4347C44.2997 51.6565 44.4244 51.9192 44.5187 52.2229C44.6128 52.5236 44.6811 52.8531 44.7237 53.2115V53.4211C44.6811 53.7642 44.6128 54.0831 44.5187 54.3776C44.4244 54.6724 44.2997 54.9304 44.1449 55.1523C43.9929 55.3708 43.8073 55.5409 43.5886 55.6625C43.3696 55.7838 43.1145 55.8446 42.8226 55.8446C42.5156 55.8446 42.2422 55.7823 42.002 55.6579C41.765 55.5334 41.5643 55.3588 41.4003 55.1341C41.239 54.9091 41.116 54.6449 41.0309 54.3412C40.9459 54.0375 40.9033 53.7065 40.9033 53.3482ZM42.2163 53.2526V53.3482C42.2163 53.5516 42.2315 53.7415 42.2619 53.9176C42.2953 54.0937 42.3485 54.2502 42.4214 54.3868C42.4974 54.5205 42.5947 54.6252 42.7132 54.7011C42.8347 54.7742 42.9822 54.8105 43.1555 54.8105C43.3804 54.8105 43.5658 54.7603 43.7115 54.6603C43.8576 54.557 43.9685 54.4156 44.0445 54.2365C44.1235 54.0572 44.169 53.8507 44.1813 53.6168V53.0201C44.172 52.8287 44.1449 52.6572 44.0992 52.5053C44.0565 52.3504 43.9929 52.2183 43.9077 52.109C43.8255 51.9998 43.7224 51.9146 43.5976 51.8538C43.4761 51.7933 43.3316 51.7627 43.1645 51.7627C42.9944 51.7627 42.8485 51.8022 42.7269 51.8812C42.6054 51.9572 42.5066 52.0619 42.4306 52.1954C42.3577 52.3291 42.3028 52.4871 42.2663 52.6692C42.233 52.8485 42.2163 53.043 42.2163 53.2526Z" fill="white"/>
<path d="M22.9219 65.6662V68.8499H22.2676V65.6662H22.9219ZM26.1297 65.6662V68.8499H25.4733L24.1933 66.7158V68.8499H23.5368V65.6662H24.1933L25.4755 67.8025V65.6662H26.1297ZM27.679 68.8499H26.9854L26.9897 68.3382H27.679C27.8512 68.3382 27.9963 68.2996 28.1145 68.2223C28.2327 68.1435 28.3216 68.0291 28.3814 67.8789C28.4426 67.7288 28.4734 67.5473 28.4734 67.3345V67.1793C28.4734 67.016 28.4558 66.8725 28.4209 66.7485C28.3873 66.6246 28.337 66.5203 28.2698 66.4358C28.2026 66.3513 28.1202 66.2878 28.0225 66.2456C27.9247 66.2018 27.8126 66.1799 27.6857 66.1799H26.9722V65.6662H27.6857C27.8984 65.6662 28.0932 65.7026 28.2698 65.7755C28.4476 65.8468 28.6016 65.9497 28.7313 66.0838C28.8614 66.2179 28.9613 66.3783 29.0314 66.5648C29.1028 66.7501 29.1385 66.9563 29.1385 67.1836V67.3345C29.1385 67.5605 29.1028 67.7668 29.0314 67.9533C28.9613 68.14 28.8614 68.3002 28.7313 68.4343C28.6032 68.567 28.4492 68.6698 28.2698 68.7426C28.0919 68.8141 27.8949 68.8499 27.679 68.8499ZM27.3573 65.6662V68.8499H26.7009V65.6662H27.3573ZM30.3136 65.6662V68.8499H29.6592V65.6662H30.3136ZM32.2633 66.2106L31.3967 68.8499H30.6987L31.8825 65.6662H32.3268L32.2633 66.2106ZM32.9832 68.8499L32.1144 66.2106L32.0443 65.6662H32.493L33.6833 68.8499H32.9832ZM32.9439 67.6646V68.1786H31.261V67.6646H32.9439Z" fill="white"/>
<path d="M36.4703 39.9363H37.047C37.1654 39.9363 37.2668 39.954 37.3518 39.9894C37.4374 40.0247 37.5033 40.0769 37.5492 40.1462C37.5953 40.2156 37.6184 40.301 37.6184 40.4022C37.6184 40.4849 37.6041 40.556 37.5758 40.6154C37.5484 40.674 37.509 40.7232 37.4581 40.7629C37.4078 40.8017 37.3485 40.8329 37.2807 40.8563L37.1799 40.9092H36.6785L36.6763 40.6611H37.0492C37.1049 40.6611 37.1515 40.6512 37.1882 40.6312C37.2251 40.6114 37.2528 40.5839 37.271 40.5485C37.2903 40.5132 37.2998 40.4721 37.2998 40.4254C37.2998 40.376 37.2905 40.3332 37.2721 40.297C37.2536 40.261 37.2257 40.2334 37.1882 40.2143C37.1507 40.1952 37.1037 40.1856 37.047 40.1856H36.7889V41.4814H36.4703V39.9363ZM37.3349 41.4814L36.9822 40.7925L37.3189 40.7906L37.6757 41.4665V41.4814H37.3349Z" fill="white"/>
<path d="M17.8619 61.7024V62.1224H16.0029V61.764L16.882 60.8216C16.9703 60.7232 17.04 60.6367 17.091 60.5621C17.1421 60.4862 17.1787 60.4184 17.2011 60.3586C17.2248 60.2976 17.2366 60.2398 17.2366 60.1851C17.2366 60.103 17.223 60.0326 17.1956 59.9742C17.1682 59.9145 17.1278 59.8684 17.0743 59.836C17.022 59.8038 16.9573 59.7875 16.8801 59.7875C16.798 59.7875 16.7271 59.8074 16.6674 59.8473C16.6089 59.8871 16.5641 59.9424 16.533 60.0134C16.5032 60.0843 16.4882 60.1646 16.4882 60.2541H15.9488C15.9488 60.0924 15.9874 59.9443 16.0645 59.81C16.1416 59.6744 16.2506 59.5667 16.3911 59.4871C16.5318 59.4062 16.6984 59.3657 16.8913 59.3657C17.0817 59.3657 17.2423 59.3969 17.3729 59.4591C17.5047 59.52 17.6043 59.6084 17.6715 59.7241C17.7399 59.8386 17.7741 59.9754 17.7741 60.1346C17.7741 60.2243 17.7598 60.3119 17.7311 60.3978C17.7026 60.4825 17.6615 60.5671 17.608 60.6516C17.5558 60.7351 17.4923 60.8196 17.4176 60.9055C17.343 60.9914 17.2602 61.0804 17.1694 61.1724L16.6972 61.7024H17.8619ZM20.1033 60.5248V60.9951C20.1033 61.1991 20.0815 61.3752 20.0379 61.5233C19.9944 61.6701 19.9316 61.7908 19.8495 61.8853C19.7686 61.9787 19.6722 62.0477 19.5602 62.0926C19.4482 62.1373 19.3237 62.1598 19.1869 62.1598C19.0774 62.1598 18.9754 62.146 18.8808 62.1186C18.7862 62.09 18.7011 62.0459 18.6251 61.9861C18.5504 61.9264 18.4858 61.8511 18.431 61.7603C18.3775 61.6682 18.3365 61.5587 18.3079 61.4318C18.2792 61.3049 18.2649 61.1593 18.2649 60.9951V60.5248C18.2649 60.3207 18.2867 60.1459 18.3302 60.0003C18.3751 59.8535 18.4379 59.7334 18.5188 59.6401C18.6009 59.5468 18.6979 59.4784 18.8099 59.4348C18.9219 59.39 19.0463 59.3676 19.1832 59.3676C19.2927 59.3676 19.3941 59.382 19.4874 59.4106C19.5819 59.4379 19.6672 59.4808 19.7431 59.5393C19.819 59.5978 19.8837 59.673 19.9372 59.7651C19.9906 59.8559 20.0317 59.9648 20.0604 60.0918C20.089 60.2175 20.1033 60.3618 20.1033 60.5248ZM19.564 61.066V60.452C19.564 60.3537 19.5583 60.2678 19.5471 60.1944C19.5372 60.121 19.5216 60.0588 19.5004 60.0078C19.4793 59.9555 19.4531 59.9132 19.4221 59.8809C19.3909 59.8485 19.3555 59.8249 19.3157 59.81C19.2758 59.795 19.2317 59.7875 19.1832 59.7875C19.1222 59.7875 19.0681 59.7994 19.0208 59.8231C18.9748 59.8466 18.9356 59.8846 18.9032 59.9368C18.8709 59.9879 18.846 60.0563 18.8285 60.1421C18.8124 60.2268 18.8043 60.33 18.8043 60.452V61.066C18.8043 61.1643 18.8092 61.2508 18.8192 61.3255C18.8305 61.4001 18.8466 61.4642 18.8677 61.5177C18.8901 61.57 18.9163 61.6129 18.9462 61.6465C18.9772 61.6788 19.0127 61.7024 19.0525 61.7173C19.0935 61.7324 19.1384 61.7398 19.1869 61.7398C19.2466 61.7398 19.2995 61.728 19.3455 61.7043C19.3928 61.6794 19.4326 61.6408 19.465 61.5886C19.4986 61.5351 19.5235 61.4654 19.5396 61.3796C19.5558 61.2937 19.564 61.1892 19.564 61.066ZM22.4045 61.7024V62.1224H20.5455V61.764L21.4246 60.8216C21.513 60.7232 21.5826 60.6367 21.6337 60.5621C21.6847 60.4862 21.7213 60.4184 21.7438 60.3586C21.7674 60.2976 21.7792 60.2398 21.7792 60.1851C21.7792 60.103 21.7655 60.0326 21.7382 59.9742C21.7108 59.9145 21.6704 59.8684 21.6168 59.836C21.5646 59.8038 21.4999 59.7875 21.4228 59.7875C21.3406 59.7875 21.2697 59.8074 21.21 59.8473C21.1515 59.8871 21.1067 59.9424 21.0756 60.0134C21.0457 60.0843 21.0308 60.1646 21.0308 60.2541H20.4914C20.4914 60.0924 20.53 59.9443 20.6071 59.81C20.6843 59.6744 20.7932 59.5667 20.9338 59.4871C21.0743 59.4062 21.2411 59.3657 21.4339 59.3657C21.6243 59.3657 21.7848 59.3969 21.9155 59.4591C22.0473 59.52 22.1469 59.6084 22.2141 59.7241C22.2825 59.8386 22.3167 59.9754 22.3167 60.1346C22.3167 60.2243 22.3024 60.3119 22.2738 60.3978C22.2452 60.4825 22.2042 60.5671 22.1507 60.6516C22.0984 60.7351 22.035 60.8196 21.9603 60.9055C21.8856 60.9914 21.8028 61.0804 21.712 61.1724L21.2399 61.7024H22.4045ZM24.6758 61.7024V62.1224H22.8169V61.764L23.6959 60.8216C23.7842 60.7232 23.854 60.6367 23.9049 60.5621C23.956 60.4862 23.9927 60.4184 24.015 60.3586C24.0387 60.2976 24.0506 60.2398 24.0506 60.1851C24.0506 60.103 24.0369 60.0326 24.0095 59.9742C23.9821 59.9145 23.9417 59.8684 23.8882 59.836C23.8359 59.8038 23.7712 59.7875 23.694 59.7875C23.6119 59.7875 23.541 59.8074 23.4813 59.8473C23.4228 59.8871 23.378 59.9424 23.3469 60.0134C23.3171 60.0843 23.3021 60.1646 23.3021 60.2541H22.7627C22.7627 60.0924 22.8013 59.9443 22.8784 59.81C22.9555 59.6744 23.0644 59.5667 23.205 59.4871C23.3457 59.4062 23.5123 59.3657 23.7053 59.3657C23.8956 59.3657 24.0561 59.3969 24.1868 59.4591C24.3187 59.52 24.4182 59.6084 24.4854 59.7241C24.5539 59.8386 24.5881 59.9754 24.5881 60.1346C24.5881 60.2243 24.5738 60.3119 24.5451 60.3978C24.5165 60.4825 24.4754 60.5671 24.4219 60.6516C24.3697 60.7351 24.3062 60.8196 24.2315 60.9055C24.1569 60.9914 24.0742 61.0804 23.9834 61.1724L23.5111 61.7024H24.6758ZM27.199 60.745V61.1668H26.1444V60.745H27.199ZM30.5881 61.7024V62.1224H28.7293V61.764L29.6083 60.8216C29.6967 60.7232 29.7663 60.6367 29.8174 60.5621C29.8683 60.4862 29.9051 60.4184 29.9275 60.3586C29.9511 60.2976 29.9629 60.2398 29.9629 60.1851C29.9629 60.103 29.9492 60.0326 29.9218 59.9742C29.8945 59.9145 29.854 59.8684 29.8005 59.836C29.7483 59.8038 29.6836 59.7875 29.6065 59.7875C29.5244 59.7875 29.4534 59.8074 29.3936 59.8473C29.3352 59.8871 29.2904 59.9424 29.2593 60.0134C29.2294 60.0843 29.2145 60.1646 29.2145 60.2541H28.6752C28.6752 60.0924 28.7137 59.9443 28.7909 59.81C28.868 59.6744 28.9768 59.5667 29.1175 59.4871C29.258 59.4062 29.4248 59.3657 29.6176 59.3657C29.808 59.3657 29.9685 59.3969 30.0991 59.4591C30.2311 59.52 30.3306 59.6084 30.3978 59.7241C30.4662 59.8386 30.5004 59.9754 30.5004 60.1346C30.5004 60.2243 30.4861 60.3119 30.4575 60.3978C30.4289 60.4825 30.3879 60.5671 30.3343 60.6516C30.2821 60.7351 30.2186 60.8196 30.144 60.9055C30.0693 60.9914 29.9866 61.0804 29.8957 61.1724L29.4236 61.7024H30.5881ZM32.8295 60.5248V60.9951C32.8295 61.1991 32.8078 61.3752 32.7643 61.5233C32.7207 61.6701 32.6579 61.7908 32.5758 61.8853C32.4949 61.9787 32.3985 62.0477 32.2865 62.0926C32.1745 62.1373 32.0501 62.1598 31.9133 62.1598C31.8037 62.1598 31.7016 62.146 31.6072 62.1186C31.5126 62.09 31.4273 62.0459 31.3514 61.9861C31.2768 61.9264 31.212 61.8511 31.1573 61.7603C31.1038 61.6682 31.0627 61.5587 31.0341 61.4318C31.0055 61.3049 30.9912 61.1593 30.9912 60.9951V60.5248C30.9912 60.3207 31.013 60.1459 31.0565 60.0003C31.1013 59.8535 31.1641 59.7334 31.245 59.6401C31.3271 59.5468 31.4243 59.4784 31.5362 59.4348C31.6482 59.39 31.7726 59.3676 31.9095 59.3676C32.019 59.3676 32.1204 59.382 32.2137 59.4106C32.3083 59.4379 32.3935 59.4808 32.4693 59.5393C32.5453 59.5978 32.61 59.673 32.6635 59.7651C32.717 59.8559 32.7581 59.9648 32.7867 60.0918C32.8153 60.2175 32.8295 60.3618 32.8295 60.5248ZM32.2902 61.066V60.452C32.2902 60.3537 32.2846 60.2678 32.2735 60.1944C32.2635 60.121 32.2479 60.0588 32.2268 60.0078C32.2056 59.9555 32.1795 59.9132 32.1484 59.8809C32.1173 59.8485 32.0818 59.8249 32.042 59.81C32.0022 59.795 31.958 59.7875 31.9095 59.7875C31.8485 59.7875 31.7944 59.7994 31.7471 59.8231C31.701 59.8466 31.6619 59.8846 31.6295 59.9368C31.5972 59.9879 31.5722 60.0563 31.5549 60.1421C31.5386 60.2268 31.5306 60.33 31.5306 60.452V61.066C31.5306 61.1643 31.5356 61.2508 31.5455 61.3255C31.5567 61.4001 31.5729 61.4642 31.5941 61.5177C31.6165 61.57 31.6426 61.6129 31.6724 61.6465C31.7036 61.6788 31.739 61.7024 31.7788 61.7173C31.8199 61.7324 31.8646 61.7398 31.9133 61.7398C31.9729 61.7398 32.0258 61.728 32.0719 61.7043C32.1191 61.6794 32.159 61.6408 32.1913 61.5886C32.2248 61.5351 32.2498 61.4654 32.2659 61.3796C32.2821 61.2937 32.2902 61.1892 32.2902 61.066ZM35.1308 61.7024V62.1224H33.2719V61.764L34.1509 60.8216C34.2392 60.7232 34.309 60.6367 34.36 60.5621C34.411 60.4862 34.4477 60.4184 34.47 60.3586C34.4937 60.2976 34.5055 60.2398 34.5055 60.1851C34.5055 60.103 34.4918 60.0326 34.4644 59.9742C34.4371 59.9145 34.3966 59.8684 34.3432 59.836C34.2909 59.8038 34.2262 59.7875 34.1491 59.7875C34.0669 59.7875 33.996 59.8074 33.9363 59.8473C33.8778 59.8871 33.833 59.9424 33.8019 60.0134C33.7721 60.0843 33.7571 60.1646 33.7571 60.2541H33.2177C33.2177 60.0924 33.2563 59.9443 33.3335 59.81C33.4106 59.6744 33.5194 59.5667 33.6601 59.4871C33.8007 59.4062 33.9674 59.3657 34.1603 59.3657C34.3507 59.3657 34.5111 59.3969 34.6418 59.4591C34.7737 59.52 34.8732 59.6084 34.9404 59.7241C35.0089 59.8386 35.0431 59.9754 35.0431 60.1346C35.0431 60.2243 35.0288 60.3119 35.0001 60.3978C34.9715 60.4825 34.9304 60.5671 34.8769 60.6516C34.8246 60.7351 34.7612 60.8196 34.6866 60.9055C34.6119 60.9914 34.5292 61.0804 34.4384 61.1724L33.9661 61.7024H35.1308ZM36.0938 60.5304H36.3812C36.4732 60.5304 36.5492 60.5148 36.6088 60.4837C36.6686 60.4514 36.7128 60.4065 36.7414 60.3493C36.7712 60.2908 36.7862 60.223 36.7862 60.1459C36.7862 60.0762 36.7725 60.0147 36.7451 59.9611C36.719 59.9064 36.6786 59.8641 36.6238 59.8342C36.5691 59.8031 36.5 59.7875 36.4166 59.7875C36.3506 59.7875 36.2897 59.8006 36.2337 59.8267C36.1777 59.8529 36.1329 59.8895 36.0993 59.9368C36.0657 59.9841 36.049 60.0414 36.049 60.1086H35.5096C35.5096 59.9593 35.5493 59.8292 35.629 59.7185C35.7099 59.6078 35.8181 59.5213 35.9538 59.4591C36.0894 59.3969 36.2387 59.3657 36.4017 59.3657C36.5858 59.3657 36.747 59.3956 36.8851 59.4553C37.0232 59.5138 37.1308 59.6003 37.208 59.7148C37.2851 59.8292 37.3237 59.971 37.3237 60.1403C37.3237 60.2262 37.3038 60.3095 37.264 60.3904C37.2241 60.47 37.167 60.5421 37.0923 60.6069C37.0189 60.6703 36.9293 60.7214 36.8235 60.7599C36.7177 60.7973 36.5989 60.816 36.4671 60.816H36.0938V60.5304ZM36.0938 60.9391V60.661H36.4671C36.6151 60.661 36.7451 60.6778 36.8571 60.7114C36.969 60.745 37.063 60.7935 37.1389 60.857C37.2149 60.9192 37.272 60.9932 37.3107 61.079C37.3492 61.1637 37.3685 61.2577 37.3685 61.3609C37.3685 61.4879 37.3443 61.601 37.2957 61.7006C37.2471 61.7988 37.1787 61.8823 37.0904 61.9507C37.0032 62.0191 36.9012 62.0714 36.7843 62.1075C36.6673 62.1423 36.5398 62.1598 36.4017 62.1598C36.2872 62.1598 36.1746 62.1441 36.0639 62.1131C35.9544 62.0807 35.8548 62.0328 35.7652 61.9693C35.6769 61.9046 35.606 61.8238 35.5525 61.7267C35.5002 61.6284 35.4741 61.5121 35.4741 61.3777H36.0135C36.0135 61.4474 36.0309 61.5096 36.0657 61.5644C36.1006 61.6191 36.1485 61.662 36.2095 61.6931C36.2717 61.7242 36.3407 61.7398 36.4166 61.7398C36.5025 61.7398 36.5759 61.7242 36.6369 61.6931C36.6991 61.6608 36.7464 61.6159 36.7787 61.5587C36.8123 61.5002 36.8291 61.4324 36.8291 61.3553C36.8291 61.2557 36.811 61.1762 36.775 61.1164C36.7389 61.0554 36.6873 61.0106 36.6201 60.982C36.5529 60.9534 36.4732 60.9391 36.3812 60.9391H36.0938Z" fill="white"/>
</g>
<defs>
<filter id="filter0_d_1_2" x="0.585938" y="0" width="53.9543" height="86.9999" filterUnits="userSpaceOnUse" color-interpolation-filters="sRGB">
<feFlood flood-opacity="0" result="BackgroundImageFix"/>
<feColorMatrix in="SourceAlpha" type="matrix" values="0 0 0 0 0 0 0 0 0 0 0 0 0 0 0 0 0 0 127 0" result="hardAlpha"/>
<feOffset dy="4"/>
<feGaussianBlur stdDeviation="2"/>
<feComposite in2="hardAlpha" operator="out"/>
<feColorMatrix type="matrix" values="0 0 0 0 0 0 0 0 0 0 0 0 0 0 0 0 0 0 0.25 0"/>
<feBlend mode="normal" in2="BackgroundImageFix" result="effect1_dropShadow_1_2"/>
<feBlend mode="normal" in="SourceGraphic" in2="effect1_dropShadow_1_2" result="shape"/>
</filter>
</defs>
</svg>
