<svg width="40" height="40" viewBox="0 0 40 40" fill="none" xmlns="http://www.w3.org/2000/svg">
<path d="M39.7676 19.8799C39.7676 30.8615 30.8693 39.7598 19.8877 39.7598C8.90605 39.7598 0.0078125 30.8615 0.0078125 19.8799C0.0078125 8.89824 8.90605 0 19.8877 0C30.8693 0 39.7676 8.90619 39.7676 19.8799Z" fill="#FF492C"/>
<path d="M28.495 16.6353H23.358V16.3967C23.358 15.522 23.533 14.7984 23.8829 14.2338C24.2327 13.6612 24.8371 13.1603 25.7118 12.715L26.1094 12.5162C26.8171 12.1583 27 11.8482 27 11.4824C27 11.045 26.6183 10.727 26.006 10.727C25.2744 10.727 24.7258 11.1087 24.3441 11.88L23.358 10.894C23.5727 10.4327 23.9226 10.067 24.3838 9.77273C24.853 9.47851 25.3699 9.33537 25.9345 9.33537C26.6422 9.33537 27.2545 9.51827 27.7555 9.89996C28.2723 10.2817 28.5268 10.8065 28.5268 11.4665C28.5268 12.5241 27.9304 13.1682 26.8171 13.7408L26.1889 14.0588C25.521 14.3928 25.1949 14.695 25.0995 15.2278H28.495V16.6353ZM28.0417 18.2575H22.4197L19.6126 23.1241H25.2347L28.0497 27.9907L30.8567 23.1241L28.0417 18.2575ZM20.0977 26.3764C16.5193 26.3764 13.6089 23.466 13.6089 19.8876C13.6089 16.3092 16.5193 13.3988 20.0977 13.3988L22.3243 8.74693C21.6006 8.60379 20.8611 8.53223 20.0977 8.53223C13.8236 8.53223 8.73438 13.6215 8.73438 19.8876C8.73438 26.1617 13.8157 31.251 20.0977 31.251C22.5946 31.251 24.9087 30.4399 26.7853 29.0721L24.3202 24.8099C23.191 25.78 21.712 26.3764 20.0977 26.3764Z" fill="white"/>
</svg>
