<svg width="189" height="172" viewBox="0 0 189 172" fill="none" xmlns="http://www.w3.org/2000/svg">
<path d="M46.0814 98.4297L45.8828 98.2215L47.1285 97.0305L47.3271 97.2388L46.0814 98.4297ZM48.5694 96.0398L48.3673 95.8349C48.7726 95.4357 49.1779 95.0237 49.5751 94.6095L49.7818 94.8085C49.3834 95.2251 48.9758 95.6393 48.5694 96.0398ZM50.9609 93.5462L50.7485 93.3529C51.1297 92.9341 51.5132 92.5003 51.8886 92.0641L52.1056 92.2529C51.7279 92.689 51.3432 93.1251 50.9609 93.5462ZM53.217 90.9284L52.9954 90.7455C53.3536 90.3082 53.7152 89.856 54.0689 89.4015L54.295 89.5787C53.9391 90.0343 53.5763 90.4889 53.217 90.9284ZM55.341 88.2024L55.1113 88.031C55.4477 87.5776 55.7887 87.1081 56.1217 86.6375L56.3559 86.8044C56.0207 87.2761 55.6797 87.7468 55.341 88.2024ZM57.3387 85.3833L57.101 85.2222C57.4225 84.7469 57.7394 84.2682 58.0505 83.7861L58.2916 83.9426C57.9793 84.4247 57.6613 84.9057 57.3387 85.3833ZM73.0644 83.388C72.5351 83.388 72.0001 83.2856 71.5179 83.0922L71.6247 82.8253C72.0736 83.0048 72.5707 83.1003 73.0644 83.1003C73.1356 83.0934 73.1884 83.0991 73.2504 83.0957L73.2642 83.3834C73.1976 83.3868 73.1184 83.3822 73.0644 83.388ZM74.9703 82.8966L74.8267 82.6481C75.2998 82.3742 75.6947 81.9738 75.9714 81.4893L76.2206 81.632C75.9186 82.1602 75.4869 82.5986 74.9703 82.8966ZM59.2147 82.4812L58.9713 82.3293C59.2733 81.8414 59.5706 81.3501 59.8634 80.8565L60.1102 81.0037C59.8163 81.4997 59.5178 81.9922 59.2147 82.4812ZM70.0632 82.0808C69.6775 81.6642 69.3594 81.1625 69.1183 80.5883L69.3824 80.4767C69.6097 81.0198 69.9094 81.4928 70.2733 81.8852L70.0632 82.0808ZM76.6959 79.9175L76.4088 79.9117L76.41 79.8346C76.41 79.4031 76.3227 78.9808 76.1563 78.6126C76.1126 78.5171 76.0656 78.4228 76.0139 78.3318L76.2642 78.1903C76.3204 78.2893 76.3721 78.3905 76.418 78.4941C76.6006 78.8991 76.697 79.3629 76.697 79.8346L76.6959 79.9175ZM61.0919 79.616L60.8714 79.4308C61.2434 78.9854 61.6556 78.5666 62.0942 78.1857L62.2825 78.4032C61.8554 78.7737 61.4547 79.1822 61.0919 79.616ZM68.674 78.8853C68.6419 78.6126 68.6246 78.333 68.6246 78.0534C68.6246 77.7484 68.6442 77.4378 68.6832 77.1294L68.9679 77.165C68.93 77.4619 68.9117 77.7611 68.9117 78.0534C68.9117 78.3215 68.9277 78.5896 68.9587 78.8508L68.674 78.8853ZM63.651 77.3963L63.4995 77.1512C63.9863 76.8486 64.5064 76.5782 65.0448 76.3458L65.1585 76.6104C64.6338 76.8371 64.1263 77.1018 63.651 77.3963ZM74.9094 77.1006C74.4915 76.7819 73.9978 76.5069 73.4433 76.2825L73.55 76.0155C74.1298 76.2491 74.6453 76.5379 75.0828 76.8716L74.9094 77.1006ZM66.7647 76.05L66.6889 75.7727C67.2492 75.6197 67.8244 75.5058 68.3973 75.4344L68.4329 75.7198C67.8738 75.7888 67.3123 75.9004 66.7647 76.05ZM71.8175 75.8107C71.2733 75.7071 70.7062 75.6473 70.1298 75.6335L70.1367 75.3458C70.728 75.3608 71.3112 75.4218 71.8704 75.5288L71.8175 75.8107ZM69.364 75.5207L69.0942 75.4241C69.2905 74.8786 69.5454 74.347 69.852 73.8442L70.0965 73.9949C69.8003 74.4793 69.5535 74.9926 69.364 75.5207ZM71.1195 72.644L70.9094 72.4484C70.9932 72.3586 71.0782 72.27 71.1666 72.1826C71.4869 71.8638 71.8405 71.5623 72.2171 71.2873L72.387 71.5198C72.0219 71.7879 71.6798 72.079 71.3686 72.3885C71.2825 72.4714 71.1999 72.5565 71.1195 72.644ZM73.8359 70.6383L73.7085 70.3806C74.2274 70.1228 74.7728 69.9054 75.3285 69.7351L75.4123 70.0101C74.8704 70.1758 74.3399 70.3875 73.8359 70.6383ZM77.0736 69.5809L77.0024 69.3024C77.5639 69.1586 78.1218 69.0078 78.6614 68.8536L78.7395 69.1298C78.1976 69.2851 77.6373 69.437 77.0736 69.5809ZM80.3939 68.635L80.3078 68.36C80.8612 68.1851 81.41 68.0033 81.9382 67.818L82.0335 68.0896C81.5019 68.2771 80.9508 68.4601 80.3939 68.635ZM83.6534 67.4924L83.5501 67.2243C84.0874 67.0148 84.6224 66.7962 85.1391 66.573L85.2528 66.8365C84.7315 67.062 84.1942 67.2829 83.6534 67.4924ZM86.8245 66.1196L86.7005 65.8607L88.2493 65.107L88.3745 65.3659L86.8245 66.1196ZM89.9233 64.6111L89.7981 64.3521L91.347 63.5973L91.4721 63.8562L89.9233 64.6111ZM93.0209 63.1013L92.8958 62.8424L94.4446 62.0876L94.5697 62.3465L93.0209 63.1013ZM96.1185 61.5928L95.9934 61.3339L97.5422 60.579L97.6673 60.8379L96.1185 61.5928ZM99.2161 60.0831L99.091 59.8242L100.64 59.0693L100.765 59.3282L99.2161 60.0831Z" fill="#8675EF"/>
<path d="M93.9219 11.5985C93.9219 11.6583 93.9219 11.7147 93.9288 11.7745H131.675C131.578 8.65616 128.868 6.15571 125.547 6.15571C124.481 6.15571 123.482 6.41232 122.61 6.86108C122.656 4.43428 121.492 2.1099 119.348 0.86255C116.131 -1.00617 111.923 0.261892 109.953 3.69669C109.361 4.73231 109.035 5.84618 108.961 6.95199C107.392 6.23166 105.447 5.8036 103.336 5.8036C98.1366 5.8036 93.9219 8.3984 93.9219 11.5985Z" fill="#EBEBFF"/>
<path d="M31.1263 94.992H0L0.00344444 94.8804C0.086111 92.2407 2.33877 90.1729 5.13107 90.1729C5.92788 90.1729 6.7178 90.3502 7.42851 90.685C7.44917 88.6644 8.48251 86.8244 10.1554 85.8521C11.4011 85.1283 12.8742 84.9419 14.3025 85.3263C15.8582 85.744 17.1705 86.7692 17.9983 88.2133C18.4576 89.0165 18.7309 89.8761 18.8124 90.7725C20.1385 90.1914 21.6942 89.8853 23.3246 89.8853C27.637 89.8853 31.1446 92.0635 31.1446 94.74C31.1446 94.793 31.1446 94.8436 31.1377 94.8965L31.1263 94.992ZM0.223889 94.7757H30.9288C30.9288 94.7642 30.9288 94.7515 30.9288 94.74C30.9288 92.182 27.5176 90.1016 23.3234 90.1016C21.6667 90.1016 20.0891 90.4238 18.7607 91.0325L18.6183 91.0981L18.608 90.9428C18.5472 90.0234 18.2785 89.1419 17.81 88.3226C17.0109 86.9292 15.7445 85.9396 14.2451 85.5368C12.8719 85.1675 11.4574 85.347 10.2621 86.0408C8.6088 87.0017 7.60532 88.8485 7.64321 90.8588L7.64666 91.0394L7.48591 90.9566C6.76603 90.586 5.95199 90.3904 5.12992 90.3904C2.49492 90.3893 0.361666 92.3075 0.223889 94.7757Z" fill="#8675EF"/>
<mask id="mask0_5397_12031" style="mask-type:luminance" maskUnits="userSpaceOnUse" x="91" y="46" width="89" height="53">
<path d="M91.9844 91.8847C91.9844 95.5612 94.958 98.5415 98.6262 98.5415H172.401C176.069 98.5415 179.042 95.5612 179.042 91.8847V46.8975H91.9844V91.8847Z" fill="white"/>
</mask>
<g mask="url(#mask0_5397_12031)">
<path d="M91.9844 91.8847C91.9844 95.5612 94.958 98.5415 98.6262 98.5415H172.401C176.069 98.5415 179.042 95.5612 179.042 91.8847V46.8975H91.9844V91.8847Z" fill="white"/>
</g>
<mask id="mask1_5397_12031" style="mask-type:luminance" maskUnits="userSpaceOnUse" x="91" y="46" width="89" height="53">
<path d="M91.9844 91.8847C91.9844 95.5612 94.958 98.5415 98.6262 98.5415H172.401C176.069 98.5415 179.042 95.5612 179.042 91.8847V46.8975H91.9844V91.8847Z" fill="white"/>
</mask>
<g mask="url(#mask1_5397_12031)">
<path d="M87.428 58.3682C88.4452 55.098 91.6657 52.5883 95.1824 52.3225C98.7002 52.0567 102.29 54.052 103.83 57.1289C105.701 57.1117 107.546 58.1519 108.456 59.7375C109.365 61.3232 109.301 63.3875 108.295 64.9145C110.525 65.3011 112.525 66.7717 113.511 68.7463C114.497 70.7209 114.443 73.1511 113.371 75.0797C115.824 73.83 118.961 73.9439 121.315 75.3673C123.668 76.7919 125.152 79.473 125.069 82.1587C126.597 79.7561 129.527 78.259 132.44 78.3925C135.353 78.526 138.13 80.2831 139.425 82.8146C140.792 78.7135 144.439 75.4041 148.752 74.3455C153.067 73.288 157.906 74.517 161.135 77.4903C165.99 78.2521 169.53 83.5361 168.264 88.1354C170.888 90.3113 172.228 93.8474 171.68 97.1464C171.131 100.444 168.713 103.39 165.519 104.65L81.9722 104.596L74.8516 72.6506L87.428 58.3682Z" fill="#D1D1FF"/>
</g>
<mask id="mask2_5397_12031" style="mask-type:luminance" maskUnits="userSpaceOnUse" x="91" y="46" width="89" height="53">
<path d="M91.9844 91.8847C91.9844 95.5612 94.958 98.5415 98.6262 98.5415H172.401C176.069 98.5415 179.042 95.5612 179.042 91.8847V46.8975H91.9844V91.8847Z" fill="white"/>
</mask>
<g mask="url(#mask2_5397_12031)">
<g opacity="0.8">
<path d="M86.1061 68.9792C87.0924 65.7078 90.2049 63.1959 93.6033 62.9266C97.0017 62.6574 100.469 64.6504 101.954 67.7262C103.762 67.7077 105.544 68.7457 106.421 70.3313C107.298 71.917 107.235 73.9813 106.261 75.5082C108.415 75.8937 110.346 77.362 111.298 79.3366C112.25 81.3112 112.196 83.7403 111.158 85.67C113.529 84.418 116.56 84.5296 118.833 85.9519C121.106 87.3741 122.537 90.0552 122.455 92.7398C123.933 90.336 126.765 88.8367 129.579 88.9678C132.393 89.099 135.074 90.8538 136.325 93.3842C137.648 89.2831 141.174 85.9691 145.343 84.9082C149.512 83.8473 154.187 85.0728 157.304 88.0438C161.994 88.801 165.41 94.0826 164.184 98.6831C166.716 100.857 168.009 104.392 167.476 107.691C166.944 110.99 164.605 113.937 161.519 115.199L80.8007 115.212L73.9453 83.2708L86.1061 68.9792Z" fill="white"/>
</g>
</g>
<mask id="mask3_5397_12031" style="mask-type:luminance" maskUnits="userSpaceOnUse" x="91" y="46" width="89" height="53">
<path d="M91.9844 91.8847C91.9844 95.5612 94.958 98.5415 98.6262 98.5415H172.401C176.069 98.5415 179.042 95.5612 179.042 91.8847V46.8975H91.9844V91.8847Z" fill="white"/>
</mask>
<g mask="url(#mask3_5397_12031)">
<path opacity="0.7" d="M150.286 48.3369C126.106 71.1274 108.959 77.2721 87.357 79.4699L85.9219 102.484L108.597 110.251C128.402 109.675 147.418 80.9405 159.165 56.2893L150.286 48.3369Z" fill="#FFF2E0"/>
<path d="M153.693 48.6318C149.762 53.2933 143.833 57.7522 136.84 63.7749L146.382 59.8775C145.212 61.821 143.508 64.5401 142.553 65.7069C144.751 64.6897 148.291 62.4516 149.463 61.2641C149.462 62.9199 147.472 65.6896 146.605 67.2028C151.694 62.8371 156.323 57.5082 157.819 52.8261L153.693 48.6318Z" fill="#FFA121"/>
<path opacity="0.4" d="M154.806 48.8682C152.481 51.9578 149 54.9357 144.887 58.947L150.455 56.2993C149.757 57.5823 148.742 59.3785 148.177 60.1518C149.462 59.4637 151.534 57.9632 152.227 57.175C152.209 58.2578 151.028 60.0908 150.509 61.0896C153.502 58.1818 156.239 54.6481 157.154 51.57L154.806 48.8682Z" fill="white"/>
</g>
<mask id="mask4_5397_12031" style="mask-type:luminance" maskUnits="userSpaceOnUse" x="91" y="46" width="89" height="53">
<path d="M91.9844 91.8847C91.9844 95.5612 94.958 98.5415 98.6262 98.5415H172.401C176.069 98.5415 179.042 95.5612 179.042 91.8847V46.8975H91.9844V91.8847Z" fill="white"/>
</mask>
<g mask="url(#mask4_5397_12031)">
<path d="M118.687 64.7026C118.718 65.4229 118.685 66.6392 117.968 67.0557C116.769 67.7519 115.826 66.0627 115.386 65.2135C114.861 64.1997 114.995 62.942 116.183 62.4898C117.751 61.8926 118.629 63.3574 118.687 64.7026Z" fill="#D1D1FF"/>
</g>
<mask id="mask5_5397_12031" style="mask-type:luminance" maskUnits="userSpaceOnUse" x="91" y="46" width="89" height="53">
<path d="M91.9844 91.8847C91.9844 95.5612 94.958 98.5415 98.6262 98.5415H172.401C176.069 98.5415 179.042 95.5612 179.042 91.8847V46.8975H91.9844V91.8847Z" fill="white"/>
</mask>
<g mask="url(#mask5_5397_12031)">
<path d="M175.538 86.5785C175.569 87.2989 175.537 88.5151 174.819 88.9317C173.621 89.6279 172.677 87.9386 172.237 87.0894C171.713 86.0757 171.847 84.818 173.034 84.3658C174.602 83.7686 175.481 85.2334 175.538 86.5785Z" fill="#D1D1FF"/>
</g>
<mask id="mask6_5397_12031" style="mask-type:luminance" maskUnits="userSpaceOnUse" x="91" y="46" width="89" height="53">
<path d="M91.9844 91.8847C91.9844 95.5612 94.958 98.5415 98.6262 98.5415H172.401C176.069 98.5415 179.042 95.5612 179.042 91.8847V46.8975H91.9844V91.8847Z" fill="white"/>
</mask>
<g mask="url(#mask6_5397_12031)">
<path d="M112.317 57.5596C112.872 57.5596 113.322 57.1088 113.322 56.5527C113.322 55.9967 112.872 55.5459 112.317 55.5459C111.762 55.5459 111.312 55.9967 111.312 56.5527C111.312 57.1088 111.762 57.5596 112.317 57.5596Z" fill="#D1D1FF"/>
</g>
<mask id="mask7_5397_12031" style="mask-type:luminance" maskUnits="userSpaceOnUse" x="87" y="42" width="99" height="84">
<path d="M107.078 121.956C108.71 125.247 112.696 126.589 115.981 124.952L182.053 92.0335C185.338 90.3968 186.678 86.4016 185.046 83.11L165.074 42.832L87.1055 81.6777L107.078 121.956Z" fill="white"/>
</mask>
<g mask="url(#mask7_5397_12031)">
<path d="M164.098 76.0897C164.854 75.7128 165.163 74.7929 164.787 74.035C164.411 73.277 163.493 72.9681 162.737 73.345C161.98 73.7218 161.672 74.6418 162.048 75.3997C162.424 76.1577 163.341 76.4666 164.098 76.0897Z" fill="#D1D1FF"/>
</g>
<path d="M172.402 98.6836H98.6291C94.8874 98.6836 91.8438 95.6332 91.8438 91.8831V46.752H179.189V91.8831C179.188 95.6332 176.144 98.6836 172.402 98.6836ZM92.1296 47.0396V91.8831C92.1296 95.4744 95.0447 98.396 98.628 98.396H172.402C175.986 98.396 178.901 95.4744 178.901 91.8831V47.0396H92.1296Z" fill="#8675EF"/>
<path d="M172.403 29.4668H98.6301C94.9619 29.4668 91.9883 32.4459 91.9883 36.1235V46.8963H179.046V36.1235C179.045 32.4459 176.072 29.4668 172.403 29.4668Z" fill="white"/>
<path d="M179.189 47.0394H91.8438V36.1228C91.8438 32.3727 94.8874 29.3223 98.6291 29.3223H172.403C176.145 29.3223 179.189 32.3727 179.189 36.1228V47.0394ZM92.1308 46.7517H178.902V36.1228C178.902 32.5315 175.987 29.6099 172.403 29.6099H98.6303C95.047 29.6099 92.1319 32.5315 92.1319 36.1228V46.7517H92.1308Z" fill="#8675EF"/>
<path d="M104.327 38.9082C104.727 36.9327 103.454 35.0062 101.483 34.6052C99.5114 34.2043 97.5893 35.4807 97.1892 37.4562C96.7891 39.4317 98.0627 41.3582 100.034 41.7592C102.005 42.1601 103.927 40.8837 104.327 38.9082Z" fill="#D1D1FF"/>
<path d="M114.057 40.7616C115.48 39.3362 115.48 37.0252 114.057 35.5998C112.635 34.1744 110.329 34.1744 108.907 35.5998C107.485 37.0252 107.485 39.3362 108.907 40.7616C110.329 42.187 112.635 42.1869 114.057 40.7616Z" fill="white"/>
<path d="M111.485 41.9734C109.397 41.9734 107.699 40.2715 107.699 38.1796C107.699 36.0876 109.397 34.3857 111.485 34.3857C113.572 34.3857 115.27 36.0876 115.27 38.1796C115.27 40.2715 113.572 41.9734 111.485 41.9734ZM111.485 34.6734C109.556 34.6734 107.986 36.2464 107.986 38.1796C107.986 40.1127 109.556 41.6857 111.485 41.6857C113.413 41.6857 114.983 40.1127 114.983 38.1796C114.983 36.2464 113.413 34.6734 111.485 34.6734Z" fill="#8675EF"/>
<path d="M139.208 41.6616H124.71C122.79 41.6616 121.234 40.1024 121.234 38.1784C121.234 36.2545 122.79 34.6953 124.71 34.6953H139.208C141.128 34.6953 142.683 36.2545 142.683 38.1784C142.683 40.1024 141.128 41.6616 139.208 41.6616Z" fill="white"/>
<path d="M139.207 41.8057H124.709C122.713 41.8057 121.09 40.1786 121.09 38.1787C121.09 36.1788 122.713 34.5518 124.709 34.5518H139.207C141.202 34.5518 142.826 36.1788 142.826 38.1787C142.826 40.1786 141.202 41.8057 139.207 41.8057ZM124.708 34.8394C122.871 34.8394 121.376 36.3376 121.376 38.1787C121.376 40.0198 122.871 41.518 124.708 41.518H139.206C141.043 41.518 142.538 40.0198 142.538 38.1787C142.538 36.3376 141.043 34.8394 139.206 34.8394H124.708Z" fill="#8675EF"/>
<path d="M168.797 21.5283C162.983 26.6293 152.956 23.1128 149.84 27.1863L158.743 34.2526L168.797 21.5283Z" fill="#3335CF"/>
<path d="M149.841 27.1865C149.396 28.3752 149.637 29.7123 150.47 30.6685L156.779 37.9109L158.745 34.2529L149.841 27.1865Z" fill="#D1D1FF"/>
<path d="M181.976 31.9863C178.355 38.8272 184.068 47.8037 180.825 51.777L171.922 44.7106L181.976 31.9863Z" fill="#3335CF"/>
<path d="M180.826 51.7763C179.774 52.4829 178.42 52.5542 177.3 51.9604L168.82 47.4659L171.923 44.71L180.826 51.7763Z" fill="#D1D1FF"/>
<path d="M186.498 12.7607L178.57 15.6777L185.482 21.1631L186.498 12.7607Z" fill="#1B1B43"/>
<path d="M185.482 21.1632C184.374 33.7345 175.106 45.4657 163.849 51.9809L153.59 43.8479C157.894 30.2755 165.911 20.5626 178.569 15.6768L185.482 21.1632Z" fill="#C5C5FF"/>
<path d="M153.591 43.8477L149.141 46.9361L161.867 57.0368L163.848 51.9807L153.591 43.8477Z" fill="#3335CF"/>
<path d="M176.161 31.2923C178.772 30.9811 180.637 28.6073 180.327 25.9903C180.016 23.3733 177.648 21.5041 175.036 21.8153C172.425 22.1266 170.56 24.5004 170.871 27.1174C171.181 29.7344 173.55 31.6036 176.161 31.2923Z" fill="white"/>
<path d="M175.959 29.9411L175.929 29.6546C176.203 29.6258 176.47 29.5602 176.727 29.4601L176.831 29.7282C176.551 29.8387 176.257 29.91 175.959 29.9411ZM175.063 29.9181C174.765 29.8709 174.476 29.7846 174.204 29.6603L174.322 29.398C174.572 29.5107 174.836 29.5901 175.107 29.6339L175.063 29.9181ZM177.615 29.2967L177.445 29.0654C177.664 28.902 177.863 28.7099 178.034 28.4935L178.259 28.6719C178.072 28.9078 177.856 29.1183 177.615 29.2967ZM173.443 29.1862C173.21 28.9941 173.004 28.7731 172.831 28.5292L173.065 28.3623C173.223 28.5856 173.412 28.7881 173.625 28.9642L173.443 29.1862ZM178.609 28.1299L178.354 27.9976C178.481 27.7536 178.575 27.4936 178.633 27.2243L178.913 27.2853C178.85 27.5799 178.748 27.8629 178.609 28.1299ZM172.414 27.7341C172.311 27.4522 172.245 27.1576 172.219 26.8572L172.505 26.8319C172.529 27.1069 172.588 27.3774 172.684 27.6351L172.414 27.7341ZM178.701 26.4039C178.687 26.1277 178.637 25.8561 178.552 25.5949L178.825 25.5063C178.918 25.7917 178.972 26.0886 178.988 26.3889L178.701 26.4039ZM172.54 26.0103L172.258 25.9597C172.311 25.6628 172.402 25.3752 172.531 25.1036L172.791 25.2267C172.673 25.4753 172.588 25.7388 172.54 26.0103ZM178.198 24.8539C178.048 24.6249 177.867 24.4155 177.661 24.2314L177.851 24.0162C178.076 24.2164 178.274 24.4454 178.438 24.6963L178.198 24.8539ZM173.237 24.5375L173.019 24.351C173.214 24.1221 173.438 23.9195 173.686 23.7504L173.848 23.9886C173.622 24.1416 173.416 24.3269 173.237 24.5375ZM176.981 23.7711C176.735 23.648 176.474 23.5594 176.205 23.5064L176.26 23.2245C176.554 23.2832 176.84 23.381 177.109 23.5145L176.981 23.7711ZM174.58 23.6181L174.486 23.3465C174.769 23.2487 175.065 23.1877 175.365 23.167L175.385 23.4547C175.111 23.4731 174.84 23.5283 174.58 23.6181Z" fill="#8675EF"/>
<path d="M152.132 56.4853L151.905 56.3046C151.572 56.04 151.516 55.5509 151.779 55.2172L160.707 43.9175C160.971 43.5838 161.459 43.5274 161.791 43.7909L162.019 43.9716C162.352 44.2362 162.408 44.7253 162.145 45.059L153.217 56.3587C152.953 56.6936 152.465 56.7499 152.132 56.4853Z" fill="#1B1B43"/>
<path d="M167.946 154.992H166.224V154.704H167.946V154.992ZM164.502 154.992H162.78V154.704H164.502V154.992ZM161.057 154.992H159.335V154.704H161.057V154.992ZM157.613 154.992H155.891V154.704H157.613V154.992ZM154.169 154.992H152.447V154.704H154.169V154.992ZM150.724 154.992H149.002V154.704H150.724V154.992ZM147.28 154.992H145.558V154.704H147.28V154.992ZM143.836 154.992H142.114V154.704H143.836V154.992ZM140.391 154.992H138.669V154.704H140.391V154.992ZM136.947 154.992H135.225V154.704H136.947V154.992ZM133.502 154.992C132.907 154.986 132.324 154.887 131.767 154.695L131.86 154.423C132.388 154.604 132.941 154.7 133.505 154.704L133.502 154.992ZM168.154 154.988L168.144 154.701C168.706 154.68 169.256 154.57 169.78 154.373L169.881 154.642C169.327 154.849 168.747 154.966 168.154 154.988ZM130.215 153.863C129.744 153.503 129.336 153.072 129.003 152.583L129.241 152.421C129.557 152.885 129.944 153.293 130.389 153.635L130.215 153.863ZM171.408 153.766L171.227 153.543C171.664 153.189 172.039 152.77 172.341 152.297L172.582 152.452C172.263 152.951 171.867 153.392 171.408 153.766ZM128.256 150.985C128.117 150.496 128.047 149.989 128.047 149.474V149.238H128.334V149.474C128.334 149.961 128.4 150.443 128.531 150.906L128.256 150.985ZM173.283 150.834L173.005 150.763C173.11 150.344 173.164 149.91 173.164 149.474V149.086H173.451V149.474C173.451 149.935 173.395 150.391 173.283 150.834ZM128.334 147.513H128.047V145.787H128.334V147.513ZM173.451 147.36H173.164V145.634H173.451V147.36ZM128.334 144.061H128.047V142.335H128.334V144.061ZM173.451 143.908H173.164V142.182H173.451V143.908ZM128.334 140.609H128.047V138.883H128.334V140.609ZM173.451 140.456H173.164V138.73H173.451V140.456ZM128.334 137.157H128.047V135.431H128.334V137.157ZM173.451 137.004H173.164V135.278H173.451V137.004ZM128.334 133.705H128.047V131.979H128.334V133.705ZM173.451 133.552H173.164V131.826H173.451V133.552ZM128.334 130.253H128.047V129.104C128.047 128.908 128.057 128.709 128.078 128.513L128.364 128.543C128.344 128.729 128.334 128.917 128.334 129.103V130.253ZM173.451 130.1H173.164V129.103C173.164 128.867 173.148 128.628 173.117 128.395L173.402 128.357C173.435 128.602 173.451 128.853 173.451 129.103V130.1ZM128.805 126.93L128.543 126.81C128.789 126.272 129.118 125.778 129.522 125.343L129.732 125.539C129.349 125.952 129.037 126.42 128.805 126.93ZM172.63 126.797C172.384 126.294 172.057 125.835 171.664 125.433L171.868 125.232C172.284 125.655 172.627 126.139 172.888 126.67L172.63 126.797ZM131.048 124.514L130.91 124.262C131.429 123.976 131.988 123.778 132.57 123.674L132.621 123.957C132.07 124.056 131.541 124.243 131.048 124.514ZM170.319 124.443C169.82 124.188 169.286 124.015 168.731 123.931L168.774 123.647C169.359 123.736 169.923 123.918 170.45 124.187L170.319 124.443ZM167.033 123.873H165.311V123.585H167.033V123.873ZM163.589 123.873H161.867V123.585H163.589V123.873ZM160.145 123.873H158.422V123.585H160.145V123.873ZM156.7 123.873H154.978V123.585H156.7V123.873ZM153.256 123.873H151.534V123.585H153.256V123.873ZM149.812 123.873H148.089V123.585H149.812V123.873ZM146.367 123.873H144.645V123.585H146.367V123.873ZM142.923 123.873H141.201V123.585H142.923V123.873ZM139.479 123.873H137.756V123.585H139.479V123.873ZM136.034 123.873H134.312V123.585H136.034V123.873Z" fill="#8675EF"/>
<path d="M164.802 150.006H128.16C125.819 150.006 123.922 148.103 123.922 145.758V122.277C123.922 119.931 125.82 118.03 128.16 118.03H164.802C167.143 118.03 169.039 119.932 169.039 122.277V145.758C169.039 148.103 167.143 150.006 164.802 150.006Z" fill="#8675EF"/>
<path d="M136.651 136.706H131.766V146.649H136.651V136.706Z" fill="white"/>
<path d="M144.831 137.026H139.945V146.651H144.831V137.026Z" fill="white"/>
<path d="M153.01 131.999H148.125V146.651H153.01V131.999Z" fill="white"/>
<path d="M161.194 127.7H156.309V146.65H161.194V127.7Z" fill="white"/>
<path d="M159.587 122.534H133.375V123.683H159.587V122.534Z" fill="white"/>
<path d="M53.5639 86.8168C52.7338 83.9309 50.9749 81.4005 48.5628 79.6181L47.5938 78.9023L48.4158 95.9601L54.7763 91.0283L53.5639 86.8168Z" fill="#FFA121"/>
<path d="M74.002 107.433L72.5886 104.66C72.2304 103.958 71.5955 103.438 70.8366 103.227L66.6793 102.073L55.9835 95.2285L54.7746 91.0273L48.4141 95.9592L48.4715 97.1571C48.5874 99.5608 50.0582 101.687 52.2625 102.641L62.6483 107.131L67.5852 107.242C69.1753 107.792 69.7241 109.166 70.7115 108.671C71.0789 108.487 69.6414 106.114 69.6414 106.114L72.0272 108.753L74.002 107.433Z" fill="#FFBC96"/>
<path d="M55.8667 95.1264L54.4688 96.7764L54.7199 96.9901L56.1178 95.3402L55.8667 95.1264Z" fill="#D28572"/>
<path d="M55.4102 114.346L63.192 113.658C68.2575 113.209 72.6639 117.309 72.9108 122.7L74.6697 161.111L63.9349 161.446L55.4102 114.346Z" fill="#26289C"/>
<path d="M64.793 161.062L65.1225 171.672H81.0284L73.1845 165.13L72.6908 160.018L64.793 161.062Z" fill="#1B1B43"/>
<path d="M72.9868 164.874L69.6406 167.458L70.0421 167.98L73.3883 165.397L72.9868 164.874Z" fill="white"/>
<path d="M61.168 161.061L61.4963 171.671H77.4034L69.5595 165.129L69.0658 160.017L61.168 161.061Z" fill="#D1D1FF"/>
<path d="M69.3579 164.873L66.0117 167.457L66.4132 167.979L69.7594 165.396L69.3579 164.873Z" fill="white"/>
<path d="M73.0189 162.105H59.8547L50.4723 133.171L49.1588 129.121L30.3998 129.038C29.2414 129.022 28.1323 128.483 27.1908 127.689C25.1965 126.004 24.2781 123.355 24.6397 120.766L26.285 109L54.1543 112.632C59.4402 113.321 63.7077 117.286 64.7938 122.514L73.0189 162.105Z" fill="#3335CF"/>
<path d="M53.027 129.121L50.4736 133.173L49.1602 129.121H53.027Z" fill="#1B1B43"/>
<path d="M49.5786 106.871C49.4431 107.415 49.3019 107.96 49.1572 108.507L48.1699 112.547L35.1698 112.007L25.8104 111.618C23.3294 111.515 21.5326 109.207 22.0389 106.769L26.4029 85.7215C26.962 82.1428 29.8621 79.3881 33.4591 79.0153L44.1388 77.9141L47.5947 78.9037C50.9678 80.7183 50.9712 84.0058 51.132 86.1599C51.8392 95.5875 50.9678 101.297 49.5786 106.871Z" fill="#FFA121"/>
<path opacity="0.3" d="M40.7633 106.197C40.6278 106.742 49.3006 107.959 49.1559 108.507L48.1686 112.547L35.1685 112.006C30.6266 108.572 28.9251 101.101 27.2695 91.7402L40.7633 106.197Z" fill="#1B1B43"/>
<path d="M38.1819 84.0029C38.7514 84.6151 39.4001 85.1479 40.1245 85.546C40.8467 85.9441 41.632 86.2353 42.446 86.3319C43.2508 86.4378 44.1016 86.3687 44.8077 85.9844C45.5298 85.6242 45.9902 84.8636 46.0763 84.0397L46.2049 84.0478C46.2003 84.4782 46.0924 84.9154 45.8777 85.3032C45.6618 85.691 45.3323 86.012 44.9489 86.2341C44.175 86.6829 43.2577 86.7634 42.4035 86.6553C41.5447 86.5356 40.7181 86.2353 39.9844 85.7865C39.2462 85.3458 38.601 84.7589 38.082 84.0846L38.1819 84.0029Z" fill="#1B1B43"/>
<path d="M51.4185 96.8611L51.1728 96.8439C51.4093 93.5253 51.1693 89.4473 50.4609 84.7214L50.7055 84.6846C51.4162 89.4277 51.6561 93.5242 51.4185 96.8611Z" fill="#1B1B43"/>
<path d="M73.5054 108.562H61.2734V110.98H73.5054V108.562Z" fill="#1B1B43"/>
<path d="M94.6793 110.981H70.1055L81.4055 89.3203H105.979L94.6793 110.981Z" fill="#8675EF"/>
<path d="M40.888 60.5976C38.0086 57.7531 32.578 58.9487 32.6607 63.731C26.7364 65.2982 26.4081 71.8122 28.7939 75.1515L30.8513 75.3161L31.3036 72.8835L32.4965 75.3575L38.2554 75.728L40.888 60.5976Z" fill="#1B1B43"/>
<path d="M45.701 71.2346V80.3215C45.701 80.4044 45.6976 80.4826 45.6907 80.562C45.5495 82.4319 43.7423 83.7552 41.8962 83.2765C39.174 82.5711 37.2819 80.1029 37.3049 77.286L37.3508 71.2334H45.701V71.2346Z" fill="#FFBC96"/>
<path d="M45.7016 75.1622V80.3207C45.7016 80.4035 45.6981 80.4818 45.6913 80.5612C43.2653 80.1619 40.4616 77.3485 39.7773 74.2842L45.7016 75.1622Z" fill="#1B1B43"/>
<path d="M50.6089 71.9083C50.4838 72.631 50.3162 73.3697 50.0923 74.0716C49.3678 76.3776 48.0682 78.29 45.7409 77.9575C40.2713 77.1727 37.2266 71.5252 37.2266 71.5252L40.9682 67.2377L43.4792 63.8535L51.0062 67.1123C51.0073 67.1123 51.0463 69.4182 50.6089 71.9083Z" fill="#FFBC96"/>
<path d="M38.8426 70.0805C41.2433 70.0034 43.0998 68.7779 43.8885 65.2982C43.8885 65.2982 49.4833 70.1357 52.2261 67.5524C54.5223 65.3891 50.6268 60.4112 44.1778 59.8175C41.8288 59.6011 39.4867 60.3364 37.6463 61.8151C34.5211 64.3247 34.2214 70.1633 37.1434 72.1839L38.8426 70.0805Z" fill="#1B1B43"/>
<path d="M36.0322 63.9789C35.8749 63.4105 35.992 62.7811 36.2458 62.2379C36.5029 61.6925 36.899 61.2161 37.3721 60.8479C37.8451 60.4785 38.4008 60.215 38.984 60.0919C39.5661 59.9722 40.1838 59.9906 40.7211 60.2254C40.1654 60.4049 39.6855 60.5948 39.2331 60.8283C38.7819 61.0596 38.3663 61.3277 37.976 61.6292C37.5868 61.9319 37.2251 62.2679 36.9002 62.6487C36.573 63.0331 36.2859 63.4531 36.0322 63.9789Z" fill="#FFA121"/>
<path d="M38.9653 72.5717C39.9248 72.1868 40.3264 70.9325 39.8622 69.7702C39.398 68.6079 38.2439 67.9777 37.2843 68.3626C36.3247 68.7475 35.9232 70.0018 36.3874 71.1641C36.8515 72.3264 38.0057 72.9566 38.9653 72.5717Z" fill="#FFBC96"/>
<path d="M38.1245 71.7112C38.1659 71.3096 38.1682 70.9287 38.0522 70.5801C37.9386 70.2291 37.717 69.923 37.4609 69.6089L37.5413 69.5088C37.9133 69.7033 38.229 70.0508 38.3634 70.48C38.4988 70.9092 38.4403 71.3764 38.2474 71.7492L38.1245 71.7112Z" fill="#1B1B43"/>
<path d="M47.1153 70.4937C47.1153 70.8343 46.8661 71.1105 46.5596 71.1105C46.253 71.1105 46.0039 70.8343 46.0039 70.4937C46.0039 70.1531 46.253 69.877 46.5596 69.877C46.8661 69.877 47.1153 70.1531 47.1153 70.4937Z" fill="#1B1B43"/>
<path d="M50.0342 70.9797C49.9975 71.2801 49.7472 71.4975 49.4762 71.4642C49.2053 71.4308 49.0147 71.1592 49.0514 70.8589C49.0881 70.5586 49.3384 70.3411 49.6094 70.3745C49.8815 70.4078 50.0709 70.6794 50.0342 70.9797Z" fill="#1B1B43"/>
<path d="M47.0856 68.9469C47.1074 69.2346 46.6481 69.2622 45.9708 69.2829C45.2934 69.3037 44.825 69.5131 44.8204 69.3313C44.8146 69.1495 45.3163 68.6811 45.9845 68.5684C46.6723 68.451 47.0592 68.604 47.0856 68.9469Z" fill="#1B1B43"/>
<path d="M49.2509 69.2244C49.2015 69.5086 49.5391 69.5811 50.0396 69.6697C50.5402 69.7571 50.864 70.0126 50.8892 69.8331C50.9145 69.6524 50.5965 69.1381 50.1131 68.9586C49.6148 68.7733 49.3106 68.8872 49.2509 69.2244Z" fill="#1B1B43"/>
<path d="M48.4468 71.4922C48.5754 71.6498 48.7178 71.7856 48.8648 71.926L49.0863 72.1331C49.1633 72.2033 49.2459 72.2793 49.3206 72.3955C49.3573 72.4542 49.386 72.5301 49.3906 72.6153C49.3975 72.7016 49.3699 72.7844 49.3355 72.8488C49.2597 72.9766 49.169 73.0514 49.0703 73.117C48.8739 73.247 48.6604 73.2999 48.4549 73.3402L48.4067 73.2205C48.5835 73.1055 48.7603 73.003 48.8969 72.8845C48.9623 72.8258 49.0266 72.7545 49.0496 72.7004C49.0749 72.6452 49.068 72.6268 49.037 72.5623C48.9635 72.4427 48.7775 72.2816 48.6558 72.1147C48.5226 71.949 48.4032 71.7603 48.332 71.5532L48.4468 71.4922Z" fill="#1B1B43"/>
<path d="M45.6615 73.5234C45.9979 73.9078 46.348 74.2633 46.7694 74.49C47.1873 74.7224 47.6649 74.788 48.1689 74.7328L48.2034 74.8571C47.96 74.9652 47.6856 75.0239 47.4077 75.0078C47.1299 74.9963 46.8555 74.9123 46.6144 74.7788C46.1287 74.5084 45.7705 74.0712 45.5547 73.5936L45.6615 73.5234Z" fill="#1B1B43"/>
<path opacity="0.2" d="M43.6863 73.1737C44.4365 73.1737 45.0445 72.5642 45.0445 71.8124C45.0445 71.0606 44.4365 70.4512 43.6863 70.4512C42.9362 70.4512 42.3281 71.0606 42.3281 71.8124C42.3281 72.5642 42.9362 73.1737 43.6863 73.1737Z" fill="#FE5B52"/>
<path opacity="0.2" d="M50.6092 71.9082C50.4841 72.6308 50.3165 73.3696 50.0926 74.0715C49.8825 73.831 49.7539 73.5169 49.7539 73.1705C49.7539 72.5975 50.1087 72.1096 50.6092 71.9082Z" fill="#FE5B52"/>
<path d="M35.1212 88L27.2773 91.7374L29.7366 97.5829L37.9616 93.7811L35.1212 88Z" fill="#FFA121"/>
<path d="M64.1739 108.268C63.9569 108.159 63.8203 108.087 63.8203 108.087L63.8984 107.932C63.8984 107.932 64.043 108.002 64.2532 108.114L64.1739 108.268Z" fill="#C5C5FF"/>
<path d="M67.4259 109.082C67.1721 109.584 65.2307 108.696 64.326 108.251C65.0275 108.64 66.2353 109.405 65.698 109.824C65.2663 110.158 64.3122 109.448 61.1859 108.149C61.66 108.373 64.4534 109.706 63.7496 110.211C62.9827 110.758 59.6922 109.551 59.6922 109.551L56.8391 111.089H53.5486L41.7069 111.165C40.9629 111.168 40.2259 111.073 39.5117 110.887C38.1064 110.528 36.7838 109.829 35.6609 108.889C34.9537 108.295 34.3441 107.599 33.8343 106.833C33.4531 106.259 33.1271 105.643 32.8572 104.999L29.7344 97.5843L37.9583 93.7812L42.25 102.513L56.4017 105.593L60.3512 104.603C61.2008 104.389 62.4017 104.748 63.1491 105.208C64.9712 106.325 67.6624 108.604 67.4259 109.082Z" fill="#FFBC96"/>
<path opacity="0.2" d="M39.7269 109.66C39.7269 110.092 39.6511 110.504 39.5133 110.886C38.1081 110.527 36.7854 109.828 35.6626 108.887C34.9553 108.294 34.3457 107.598 33.8359 106.832C34.4582 106.331 35.2481 106.03 36.1069 106.03C38.1069 106.031 39.7269 107.654 39.7269 109.66Z" fill="#FE5B52"/>
<path d="M56.3828 105.531C57.3644 105.204 58.3587 104.922 59.3736 104.709C59.8811 104.605 60.3943 104.519 60.9178 104.488C61.1796 104.473 61.4448 104.479 61.7123 104.509C61.8444 104.536 61.9764 104.57 62.1084 104.601C62.2336 104.646 62.3564 104.697 62.4804 104.744C63.4437 105.181 64.2818 105.807 65.0935 106.45C65.9041 107.098 66.6699 107.794 67.4138 108.519L67.4483 108.553L67.4552 108.595C67.4816 108.752 67.4632 108.896 67.3771 109.042C67.3243 109.103 67.2692 109.171 67.198 109.199C67.1291 109.243 67.0602 109.26 66.9925 109.271C66.7192 109.316 66.4816 109.259 66.2531 109.198C65.795 109.072 65.3874 108.862 64.9753 108.661C64.5723 108.444 64.175 108.22 63.7904 107.978C63.3989 107.746 63.0269 107.486 62.6457 107.239L62.8203 106.96C63.4931 107.361 64.1486 107.781 64.7743 108.257C65.0855 108.499 65.3932 108.746 65.6572 109.069C65.7204 109.156 65.7847 109.242 65.8283 109.359C65.8524 109.415 65.8662 109.485 65.8673 109.561C65.8616 109.64 65.8363 109.724 65.7824 109.786C65.679 109.906 65.5539 109.947 65.4483 109.973C65.3381 110.001 65.2359 110.007 65.1314 110.017L65.0993 110.021L65.0637 110.006L61.4907 108.505L61.5975 108.253C62.1601 108.514 62.7077 108.793 63.2301 109.137C63.485 109.32 63.7525 109.485 63.9408 109.8C63.9833 109.879 64.0143 110.001 63.9707 110.115C63.9259 110.226 63.8386 110.296 63.7583 110.334C63.5929 110.418 63.4265 110.435 63.2669 110.444C62.6262 110.459 62.0246 110.309 61.4288 110.161C60.834 110.004 60.2485 109.818 59.671 109.608L59.7146 109.487C60.2921 109.68 60.88 109.852 61.4712 109.993C62.0614 110.126 62.6687 110.257 63.2554 110.227C63.5355 110.215 63.8696 110.092 63.733 109.907C63.6044 109.691 63.3392 109.507 63.0958 109.344C62.5906 109.021 62.0407 108.749 61.4896 108.504L61.5964 108.252L65.1819 109.721L65.1142 109.709C65.2026 109.699 65.2933 109.694 65.3714 109.671C65.4517 109.654 65.5172 109.618 65.539 109.591C65.5895 109.571 65.5218 109.394 65.4092 109.26C65.1819 108.983 64.8811 108.738 64.5792 108.507C63.9695 108.046 63.3151 107.63 62.6538 107.242L62.8283 106.964C63.2072 107.206 63.5734 107.469 63.9592 107.699C64.3392 107.939 64.7273 108.161 65.1211 108.374C65.5183 108.571 65.9202 108.777 66.3358 108.893C66.5401 108.952 66.7571 108.993 66.9305 108.963L66.9936 108.952C67.0132 108.946 67.0246 108.935 67.0419 108.928C67.0797 108.916 67.0912 108.886 67.1176 108.868C67.1498 108.818 67.1636 108.726 67.1532 108.66L67.1946 108.736C66.4667 108.016 65.6997 107.326 64.9098 106.674C64.1176 106.027 63.291 105.4 62.3794 104.972L62.0315 104.834C61.9133 104.805 61.795 104.771 61.6756 104.745C61.431 104.714 61.1796 104.706 60.927 104.716C60.4207 104.737 59.9132 104.807 59.4092 104.9C58.4012 105.088 57.4035 105.347 56.4218 105.649L56.3828 105.531Z" fill="#D28572"/>
<path d="M29.783 97.696L29.6797 97.4716L37.7957 93.7192L34.4145 85.791L34.6418 85.6943L38.116 93.8435L29.783 97.696Z" fill="#1B1B43"/>
<path d="M30.9462 132.42H30.5156V169.583H30.9462V132.42Z" fill="#1B1B43"/>
<path d="M41.0973 134.069H20.3636C18.9549 134.069 17.8125 132.924 17.8125 131.512C17.8125 130.1 18.9549 128.955 20.3636 128.955H41.0973C42.506 128.955 43.6484 130.1 43.6484 131.512C43.6484 132.925 42.506 134.069 41.0973 134.069Z" fill="#D1D1FF"/>
<path d="M39.451 172.001H22.0078V171.579C22.0078 169.456 23.7254 167.735 25.8425 167.735H35.6152C37.7335 167.735 39.4499 169.457 39.4499 171.579V172.001H39.451Z" fill="#D1D1FF"/>
<path d="M55.829 113.254L55.4648 113.484L92.2167 171.87L92.5808 171.639L55.829 113.254Z" fill="#1B1B43"/>
<path d="M92.2148 113.26L55.4492 171.632L55.8133 171.862L92.5789 113.491L92.2148 113.26Z" fill="#1B1B43"/>
<path d="M106.204 110.98H41.8086V115.848H106.204V110.98Z" fill="#D1D1FF"/>
<path d="M53.1992 43.3953C45.7789 43.3953 39.7422 37.345 39.7422 29.9081C39.7422 22.4712 45.7789 16.4209 53.1992 16.4209C60.6194 16.4209 66.6562 22.4712 66.6562 29.9081C66.6562 37.345 60.6194 43.3953 53.1992 43.3953ZM53.1992 16.7086C45.9374 16.7086 40.0292 22.63 40.0292 29.9081C40.0292 37.1862 45.9374 43.1076 53.1992 43.1076C60.461 43.1076 66.3691 37.1862 66.3691 29.9081C66.3691 22.63 60.461 16.7086 53.1992 16.7086Z" fill="#8675EF"/>
<path d="M62.302 39.2987C70.3885 39.2987 76.9438 32.7286 76.9438 24.6239C76.9438 16.5193 70.3885 9.94922 62.302 9.94922C54.2155 9.94922 47.6602 16.5193 47.6602 24.6239C47.6602 32.7286 54.2155 39.2987 62.302 39.2987Z" fill="#EBEBFF"/>
<path d="M62.3058 24.9023L54.1875 18.524L54.4539 18.1846L62.2954 24.3454L66.6674 20.6344L66.9453 20.9646L62.3058 24.9023Z" fill="#1B1B43"/>
<path d="M18.3126 46.2539H10.8774C9.68109 46.2539 8.71094 47.2262 8.71094 48.4253V55.8771C8.71094 57.0761 9.68109 58.0485 10.8774 58.0485H16.184L18.4699 61.2128V58.0404C19.5927 57.9598 20.4791 57.0232 20.4791 55.8771V48.4253C20.4791 47.2262 19.5089 46.2539 18.3126 46.2539Z" fill="white"/>
<path d="M18.6124 61.6573L16.1095 58.1926H10.8764C9.60315 58.1926 8.56641 57.1535 8.56641 55.8774V48.4255C8.56641 47.1494 9.60315 46.1104 10.8764 46.1104H18.3116C19.5848 46.1104 20.6215 47.1494 20.6215 48.4255V55.8774C20.6215 57.0396 19.749 58.0211 18.6124 58.1707V61.6573ZM10.8764 46.398C9.76044 46.398 8.85343 47.3071 8.85343 48.4255V55.8774C8.85343 56.9959 9.76044 57.9049 10.8764 57.9049H16.2564L18.3253 60.769V57.906L18.4585 57.8968C19.5102 57.8209 20.3345 56.9337 20.3345 55.8774V48.4255C20.3345 47.3071 19.4275 46.398 18.3116 46.398H10.8764Z" fill="#8675EF"/>
<path d="M14.4407 55.9874L11.4648 51.6793L12.1721 51.1879L14.3627 54.3581L17.6612 48.4424L18.4132 48.8635L14.4407 55.9874Z" fill="#8675EF"/>
<path d="M182.194 171.568H5.79297V171.999H182.194V171.568Z" fill="#1B1B43"/>
</svg>
