<svg width="15" height="16" viewBox="0 0 15 16" fill="none" xmlns="http://www.w3.org/2000/svg">
<path d="M11.5188 10.3225C10.6508 10.3225 9.90003 10.6979 9.38392 11.3078L5.3958 9.24334C5.5835 8.86795 5.67727 8.44576 5.67727 7.99998C5.67727 7.5542 5.55994 7.13201 5.3958 6.75661L9.38392 4.69211C9.90003 5.30203 10.6742 5.67742 11.5188 5.67742C13.0672 5.67742 14.3575 4.41068 14.3575 2.83871C14.3575 1.29033 13.0908 0 11.5188 0C9.94687 0.000327305 8.68008 1.33746 8.68008 2.88584C8.68008 3.26123 8.75045 3.58967 8.86778 3.91811L4.80929 6.00603C4.29317 5.48991 3.58934 5.18485 2.81513 5.18485C1.29033 5.18485 0 6.47518 0 8.02357C0 9.57195 1.26674 10.8623 2.83871 10.8623C3.61288 10.8623 4.31672 10.5572 4.83287 10.0411L8.89137 12.129C8.77403 12.4574 8.70367 12.7859 8.70367 13.1613C8.70367 14.7097 9.97041 16 11.5424 16C13.1142 16 14.3811 14.7333 14.3811 13.1613C14.3808 11.5895 13.0671 10.3226 11.5188 10.3226L11.5188 10.3225ZM11.5188 1.00902C12.5511 1.00902 13.419 1.85357 13.419 2.90922C13.419 3.94149 12.5744 4.80941 11.5188 4.80941C10.463 4.80958 9.61843 3.94144 9.61843 2.8858C9.61843 1.85353 10.463 1.00898 11.5188 1.00898V1.00902ZM2.83869 9.92372C1.80642 9.92372 0.938495 9.07917 0.938495 8.02352C0.938495 6.99125 1.78304 6.12333 2.83869 6.12333C3.87096 6.12333 4.73889 6.96788 4.73889 8.02352C4.73905 9.05579 3.87092 9.92372 2.83869 9.92372ZM11.5188 15.0379C10.4865 15.0379 9.6186 14.1934 9.6186 13.1377C9.6186 12.0821 10.4631 11.2375 11.5188 11.2375C12.5744 11.2375 13.419 12.0821 13.419 13.1377C13.419 14.1934 12.5509 15.0379 11.5188 15.0379Z" fill="#4461D7"/>
</svg>
