<svg width="112" height="18" viewBox="0 0 112 18" fill="none" xmlns="http://www.w3.org/2000/svg">
<path d="M9.17704 1.20942L11.1163 5.2286C11.2582 5.5216 11.5326 5.72182 11.8475 5.76267L15.7167 6.25248H15.7166C15.9601 6.28579 16.1817 6.4153 16.3347 6.61365C16.4876 6.812 16.5602 7.06383 16.537 7.31615C16.5138 7.56849 16.3968 7.80171 16.2103 7.96691L13.191 10.6194C13.06 10.7332 12.9615 10.8814 12.9054 11.0483C12.8494 11.215 12.8382 11.3944 12.8729 11.5673L13.7725 16.0346C13.8229 16.2838 13.7772 16.5434 13.6452 16.7584C13.5132 16.9735 13.3053 17.1271 13.0653 17.1868C12.8256 17.2464 12.5726 17.2074 12.3601 17.0779L8.74255 14.8907C8.59817 14.8048 8.43457 14.7595 8.26784 14.7595C8.10111 14.7595 7.93751 14.8048 7.79314 14.8907L4.1804 17.095H4.18023C3.9678 17.2245 3.71494 17.2636 3.47502 17.204C3.23527 17.1444 3.02732 16.9908 2.89532 16.7757C2.76319 16.5606 2.71766 16.3009 2.76783 16.0516L3.66277 11.5669C3.69754 11.394 3.68628 11.2146 3.63031 11.0478C3.57418 10.8809 3.47566 10.7328 3.34469 10.619L0.330003 7.99822C0.143398 7.83249 0.0264953 7.59844 0.00397873 7.3454C-0.01854 7.09238 0.0551413 6.8402 0.209464 6.64203C0.363782 6.44402 0.58665 6.31554 0.830874 6.28376L5.04667 5.77191C5.38247 5.73091 5.67173 5.50898 5.80635 5.18899L7.46792 1.2701V1.27027C7.56445 1.04423 7.73997 0.864162 7.95971 0.766113C8.17927 0.668047 8.42683 0.659164 8.6525 0.741341C8.87818 0.823347 9.06546 0.990434 9.17705 1.20893L9.17704 1.20942Z" fill="#FFAB00"/>
<path d="M32.8372 1.20942L34.7765 5.2286C34.9184 5.5216 35.1927 5.72182 35.5077 5.76267L39.3769 6.25248H39.3767C39.6203 6.28579 39.8418 6.4153 39.9948 6.61365C40.1478 6.812 40.2203 7.06383 40.1972 7.31615C40.174 7.56849 40.0569 7.80171 39.8705 7.96691L36.8512 10.6194C36.7202 10.7332 36.6217 10.8814 36.5655 11.0483C36.5096 11.215 36.4983 11.3944 36.5331 11.5673L37.4327 16.0346C37.483 16.2838 37.4373 16.5434 37.3054 16.7584C37.1734 16.9735 36.9654 17.1271 36.7255 17.1868C36.4857 17.2464 36.2327 17.2074 36.0203 17.0779L32.4027 14.8907C32.2583 14.8048 32.0947 14.7595 31.928 14.7595C31.7613 14.7595 31.5977 14.8048 31.4533 14.8907L27.8406 17.095H27.8404C27.628 17.2245 27.3751 17.2636 27.1352 17.204C26.8954 17.1444 26.6875 16.9908 26.5555 16.7757C26.4233 16.5606 26.3778 16.3009 26.428 16.0516L27.3229 11.5669C27.3577 11.394 27.3464 11.2146 27.2905 11.0478C27.2343 10.8809 27.1358 10.7328 27.0048 10.619L23.9902 7.99822C23.8036 7.83249 23.6867 7.59844 23.6641 7.3454C23.6416 7.09238 23.7153 6.8402 23.8696 6.64203C24.0239 6.44402 24.2468 6.31554 24.491 6.28376L28.7068 5.77191C29.0426 5.73091 29.3319 5.50898 29.4665 5.18899L31.1281 1.2701V1.27027C31.2246 1.04423 31.4001 0.864162 31.6199 0.766113C31.8394 0.668047 32.087 0.659164 32.3127 0.741341C32.5383 0.823347 32.7256 0.990434 32.8372 1.20893L32.8372 1.20942Z" fill="#FFAB00"/>
<path d="M56.4974 1.20942L58.4366 5.2286C58.5785 5.5216 58.8529 5.72182 59.1678 5.76267L63.037 6.25248H63.0369C63.2804 6.28579 63.502 6.4153 63.655 6.61365C63.808 6.812 63.8805 7.06383 63.8573 7.31615C63.8341 7.56849 63.7171 7.80171 63.5306 7.96691L60.5113 10.6194C60.3803 10.7332 60.2818 10.8814 60.2257 11.0483C60.1697 11.215 60.1585 11.3944 60.1932 11.5673L61.0928 16.0346C61.1432 16.2838 61.0975 16.5434 60.9655 16.7584C60.8335 16.9735 60.6256 17.1271 60.3856 17.1868C60.1459 17.2464 59.8929 17.2074 59.6804 17.0779L56.0629 14.8907C55.9185 14.8048 55.7549 14.7595 55.5882 14.7595C55.4214 14.7595 55.2578 14.8048 55.1135 14.8907L51.5007 17.095H51.5005C51.2881 17.2245 51.0353 17.2636 50.7953 17.204C50.5556 17.1444 50.3476 16.9908 50.2156 16.7757C50.0835 16.5606 50.038 16.3009 50.0881 16.0516L50.9831 11.5669C51.0179 11.394 51.0066 11.2146 50.9506 11.0478C50.8945 10.8809 50.796 10.7328 50.665 10.619L47.6503 7.99822C47.4637 7.83249 47.3468 7.59844 47.3243 7.3454C47.3018 7.09238 47.3755 6.8402 47.5298 6.64203C47.6841 6.44402 47.907 6.31554 48.1512 6.28376L52.367 5.77191C52.7028 5.73091 52.992 5.50898 53.1267 5.18899L54.7882 1.2701V1.27027C54.8848 1.04423 55.0603 0.864162 55.28 0.766113C55.4996 0.668047 55.7471 0.659164 55.9728 0.741341C56.1985 0.823347 56.3858 0.990434 56.4974 1.20893L56.4974 1.20942Z" fill="#FFAB00"/>
<path d="M80.1575 1.20942L82.0968 5.2286C82.2387 5.5216 82.513 5.72182 82.828 5.76267L86.6972 6.25248H86.697C86.9406 6.28579 87.1622 6.4153 87.3151 6.61365C87.4681 6.812 87.5406 7.06383 87.5175 7.31615C87.4943 7.56849 87.3772 7.80171 87.1908 7.96691L84.1715 10.6194C84.0405 10.7332 83.942 10.8814 83.8859 11.0483C83.8299 11.215 83.8186 11.3944 83.8534 11.5673L84.753 16.0346C84.8033 16.2838 84.7576 16.5434 84.6257 16.7584C84.4937 16.9735 84.2857 17.1271 84.0458 17.1868C83.806 17.2464 83.553 17.2074 83.3406 17.0779L79.723 14.8907C79.5786 14.8048 79.415 14.7595 79.2483 14.7595C79.0816 14.7595 78.918 14.8048 78.7736 14.8907L75.1609 17.095H75.1607C74.9483 17.2245 74.6954 17.2636 74.4555 17.204C74.2157 17.1444 74.0078 16.9908 73.8758 16.7757C73.7437 16.5606 73.6981 16.3009 73.7483 16.0516L74.6432 11.5669C74.678 11.394 74.6667 11.2146 74.6108 11.0478C74.5547 10.8809 74.4561 10.7328 74.3252 10.619L71.3105 7.99822C71.1239 7.83249 71.007 7.59844 70.9844 7.3454C70.9619 7.09238 71.0356 6.8402 71.1899 6.64203C71.3443 6.44402 71.5671 6.31554 71.8113 6.28376L76.0271 5.77191C76.3629 5.73091 76.6522 5.50898 76.7868 5.18899L78.4484 1.2701V1.27027C78.5449 1.04423 78.7204 0.864162 78.9402 0.766113C79.1597 0.668047 79.4073 0.659164 79.633 0.741341C79.8587 0.823347 80.0459 0.990434 80.1575 1.20893L80.1575 1.20942Z" fill="#FFAB00"/>
<path d="M103.816 1.20942L105.755 5.2286C105.897 5.5216 106.171 5.72182 106.486 5.76267L110.355 6.25248H110.355C110.599 6.28579 110.82 6.4153 110.973 6.61365C111.126 6.812 111.199 7.06383 111.176 7.31615C111.152 7.56849 111.035 7.80171 110.849 7.96691L107.83 10.6194C107.699 10.7332 107.6 10.8814 107.544 11.0483C107.488 11.215 107.477 11.3944 107.512 11.5673L108.411 16.0346C108.462 16.2838 108.416 16.5434 108.284 16.7584C108.152 16.9735 107.944 17.1271 107.704 17.1868C107.464 17.2464 107.211 17.2074 106.999 17.0779L103.381 14.8907C103.237 14.8048 103.073 14.7595 102.907 14.7595C102.74 14.7595 102.576 14.8048 102.432 14.8907L98.8191 17.095H98.8189C98.6065 17.2245 98.3536 17.2636 98.1137 17.204C97.8739 17.1444 97.666 16.9908 97.534 16.7757C97.4019 16.5606 97.3563 16.3009 97.4065 16.0516L98.3014 11.5669C98.3362 11.394 98.325 11.2146 98.269 11.0478C98.2129 10.8809 98.1143 10.7328 97.9834 10.619L94.9687 7.99822C94.7821 7.83249 94.6652 7.59844 94.6427 7.3454C94.6201 7.09238 94.6938 6.8402 94.8481 6.64203C95.0025 6.44402 95.2253 6.31554 95.4695 6.28376L99.6853 5.77191C100.021 5.73091 100.31 5.50898 100.445 5.18899L102.107 1.2701V1.27027C102.203 1.04423 102.379 0.864162 102.598 0.766113C102.818 0.668047 103.065 0.659164 103.291 0.741341C103.517 0.823347 103.704 0.990434 103.816 1.20893L103.816 1.20942Z" fill="#FFAB00"/>
<mask id="mask0_4944_16681" style="mask-type:alpha" maskUnits="userSpaceOnUse" x="94" y="0" width="18" height="18">
<path d="M103.816 1.20942L105.755 5.2286C105.897 5.5216 106.171 5.72182 106.486 5.76267L110.355 6.25248H110.355C110.599 6.28579 110.82 6.4153 110.973 6.61365C111.126 6.812 111.199 7.06383 111.176 7.31615C111.152 7.56849 111.035 7.80171 110.849 7.96691L107.83 10.6194C107.699 10.7332 107.6 10.8814 107.544 11.0483C107.488 11.215 107.477 11.3944 107.512 11.5673L108.411 16.0346C108.462 16.2838 108.416 16.5434 108.284 16.7584C108.152 16.9735 107.944 17.1271 107.704 17.1868C107.464 17.2464 107.211 17.2074 106.999 17.0779L103.381 14.8907C103.237 14.8048 103.073 14.7595 102.907 14.7595C102.74 14.7595 102.576 14.8048 102.432 14.8907L98.8191 17.095H98.8189C98.6065 17.2245 98.3536 17.2636 98.1137 17.204C97.8739 17.1444 97.666 16.9908 97.534 16.7757C97.4019 16.5606 97.3563 16.3009 97.4065 16.0516L98.3014 11.5669C98.3362 11.394 98.325 11.2146 98.269 11.0478C98.2129 10.8809 98.1143 10.7328 97.9834 10.619L94.9687 7.99822C94.7821 7.83249 94.6652 7.59844 94.6427 7.3454C94.6201 7.09238 94.6938 6.8402 94.8481 6.64203C95.0025 6.44402 95.2253 6.31554 95.4695 6.28376L99.6853 5.77191C100.021 5.73091 100.31 5.50898 100.445 5.18899L102.107 1.2701V1.27027C102.203 1.04423 102.379 0.864162 102.598 0.766113C102.818 0.668047 103.065 0.659164 103.291 0.741341C103.517 0.823347 103.704 0.990434 103.816 1.20893L103.816 1.20942Z" fill="#FFCC00"/>
</mask>
<g mask="url(#mask0_4944_16681)">
<rect x="105.756" y="-1.37891" width="14.2438" height="24.8119" fill="#E5E5E5"/>
</g>
</svg>
