<svg width="102" height="16" viewBox="0 0 102 16" fill="none" xmlns="http://www.w3.org/2000/svg">
<path d="M8.36579 0.879778L10.1336 4.54268C10.263 4.80971 10.5131 4.99218 10.8002 5.02941L14.3274 5.4758H14.3272C14.5493 5.50616 14.7512 5.62418 14.8907 5.80495C15.0301 5.98572 15.0963 6.21523 15.0751 6.44518C15.054 6.67515 14.9473 6.8877 14.7773 7.03825L12.0249 9.45566C11.9055 9.55936 11.8157 9.69435 11.7645 9.84647C11.7135 9.99844 11.7033 10.1619 11.735 10.3195L12.555 14.3908C12.6009 14.6179 12.5593 14.8544 12.439 15.0505C12.3187 15.2465 12.1291 15.3865 11.9104 15.4408C11.6918 15.4952 11.4612 15.4597 11.2675 15.3416L7.96971 13.3483C7.83809 13.27 7.68896 13.2288 7.53697 13.2288C7.38498 13.2288 7.23584 13.27 7.10423 13.3483L3.81085 15.3572H3.8107C3.61704 15.4752 3.38654 15.5109 3.16783 15.4565C2.94927 15.4022 2.7597 15.2622 2.63938 15.0662C2.51892 14.8701 2.47742 14.6335 2.52315 14.4063L3.33898 10.3191C3.37068 10.1615 3.36041 9.99803 3.30939 9.84607C3.25823 9.69395 3.16842 9.55896 3.04902 9.45526L0.300831 7.06678C0.130721 6.91575 0.0241531 6.70244 0.00362701 6.47184C-0.016901 6.24124 0.0502668 6.01142 0.190947 5.83082C0.331624 5.65036 0.534791 5.53327 0.757425 5.50431L4.60055 5.03783C4.90666 5.00046 5.17035 4.79821 5.29307 4.50658L6.80776 0.935075V0.935231C6.89576 0.729236 7.05576 0.565126 7.25607 0.475768C7.45622 0.386395 7.6819 0.3783 7.88762 0.453192C8.09336 0.527929 8.26407 0.680205 8.36581 0.879332L8.36579 0.879778Z" fill="#FFAB00"/>
<path d="M29.9361 0.879778L31.7039 4.54268C31.8333 4.80971 32.0834 4.99218 32.3705 5.02941L35.8977 5.4758H35.8975C36.1196 5.50616 36.3215 5.62418 36.461 5.80495C36.6004 5.98572 36.6666 6.21523 36.6454 6.44518C36.6243 6.67515 36.5176 6.8877 36.3476 7.03825L33.5952 9.45566C33.4758 9.55936 33.386 9.69435 33.3349 9.84647C33.2838 9.99844 33.2736 10.1619 33.3053 10.3195L34.1254 14.3908C34.1712 14.6179 34.1296 14.8544 34.0093 15.0505C33.889 15.2465 33.6994 15.3865 33.4807 15.4408C33.2621 15.4952 33.0315 15.4597 32.8378 15.3416L29.54 13.3483C29.4084 13.27 29.2593 13.2288 29.1073 13.2288C28.9553 13.2288 28.8062 13.27 28.6745 13.3483L25.3812 15.3572H25.381C25.1874 15.4752 24.9569 15.5109 24.7381 15.4565C24.5196 15.4022 24.33 15.2622 24.2097 15.0662C24.0892 14.8701 24.0477 14.6335 24.0935 14.4063L24.9093 10.3191C24.941 10.1615 24.9307 9.99803 24.8797 9.84607C24.8285 9.69395 24.7387 9.55896 24.6193 9.45526L21.8711 7.06678C21.701 6.91575 21.5945 6.70244 21.5739 6.47184C21.5534 6.24124 21.6206 6.01142 21.7613 5.83082C21.9019 5.65036 22.1051 5.53327 22.3277 5.50431L26.1709 5.03783C26.477 5.00046 26.7407 4.79821 26.8634 4.50658L28.3781 0.935075V0.935231C28.4661 0.729236 28.6261 0.565126 28.8264 0.475768C29.0265 0.386395 29.2522 0.3783 29.4579 0.453192C29.6637 0.527929 29.8344 0.680205 29.9361 0.879332L29.9361 0.879778Z" fill="#FFAB00"/>
<path d="M51.5025 0.879778L53.2703 4.54268C53.3997 4.80971 53.6498 4.99218 53.9369 5.02941L57.4641 5.4758H57.4639C57.686 5.50616 57.8879 5.62418 58.0274 5.80495C58.1669 5.98572 58.233 6.21523 58.2119 6.44518C58.1907 6.67515 58.084 6.8877 57.914 7.03825L55.1616 9.45566C55.0423 9.55936 54.9524 9.69435 54.9013 9.84647C54.8503 9.99844 54.84 10.1619 54.8717 10.3195L55.6918 14.3908C55.7376 14.6179 55.696 14.8544 55.5757 15.0505C55.4554 15.2465 55.2658 15.3865 55.0471 15.4408C54.8285 15.4952 54.5979 15.4597 54.4042 15.3416L51.1064 13.3483C50.9748 13.27 50.8257 13.2288 50.6737 13.2288C50.5217 13.2288 50.3726 13.27 50.2409 13.3483L46.9476 15.3572H46.9474C46.7538 15.4752 46.5233 15.5109 46.3045 15.4565C46.086 15.4022 45.8964 15.2622 45.7761 15.0662C45.6556 14.8701 45.6141 14.6335 45.6599 14.4063L46.4757 10.3191C46.5074 10.1615 46.4971 9.99803 46.4461 9.84607C46.3949 9.69395 46.3051 9.55896 46.1857 9.45526L43.4375 7.06678C43.2674 6.91575 43.1609 6.70244 43.1403 6.47184C43.1198 6.24124 43.187 6.01142 43.3277 5.83082C43.4683 5.65036 43.6715 5.53327 43.8941 5.50431L47.7373 5.03783C48.0434 5.00046 48.3071 4.79821 48.4298 4.50658L49.9445 0.935075V0.935231C50.0325 0.729236 50.1925 0.565126 50.3928 0.475768C50.5929 0.386395 50.8186 0.3783 51.0243 0.453192C51.2301 0.527929 51.4008 0.680205 51.5025 0.879332L51.5025 0.879778Z" fill="#FFAB00"/>
<path d="M73.0689 0.879778L74.8367 4.54268C74.9661 4.80971 75.2162 4.99218 75.5033 5.02941L79.0305 5.4758H79.0303C79.2524 5.50616 79.4544 5.62418 79.5938 5.80495C79.7333 5.98572 79.7994 6.21523 79.7783 6.44518C79.7571 6.67515 79.6504 6.8877 79.4804 7.03825L76.728 9.45566C76.6087 9.55936 76.5188 9.69435 76.4677 9.84647C76.4167 9.99844 76.4064 10.1619 76.4381 10.3195L77.2582 14.3908C77.3041 14.6179 77.2624 14.8544 77.1421 15.0505C77.0218 15.2465 76.8322 15.3865 76.6135 15.4408C76.3949 15.4952 76.1643 15.4597 75.9706 15.3416L72.6728 13.3483C72.5412 13.27 72.3921 13.2288 72.2401 13.2288C72.0881 13.2288 71.939 13.27 71.8074 13.3483L68.514 15.3572H68.5138C68.3202 15.4752 68.0897 15.5109 67.871 15.4565C67.6524 15.4022 67.4628 15.2622 67.3425 15.0662C67.222 14.8701 67.1805 14.6335 67.2263 14.4063L68.0421 10.3191C68.0738 10.1615 68.0635 9.99803 68.0125 9.84607C67.9614 9.69395 67.8715 9.55896 67.7521 9.45526L65.004 7.06678C64.8338 6.91575 64.7273 6.70244 64.7068 6.47184C64.6862 6.24124 64.7534 6.01142 64.8941 5.83082C65.0347 5.65036 65.2379 5.53327 65.4605 5.50431L69.3037 5.03783C69.6098 5.00046 69.8735 4.79821 69.9962 4.50658L71.5109 0.935075V0.935231C71.5989 0.729236 71.7589 0.565126 71.9592 0.475768C72.1593 0.386395 72.385 0.3783 72.5907 0.453192C72.7965 0.527929 72.9672 0.680205 73.0689 0.879332L73.0689 0.879778Z" fill="#FFAB00"/>
<path d="M94.6392 0.879778L96.4071 4.54268C96.5364 4.80971 96.7865 4.99218 97.0736 5.02941L100.601 5.4758H100.601C100.823 5.50616 101.025 5.62418 101.164 5.80495C101.304 5.98572 101.37 6.21523 101.349 6.44518C101.327 6.67515 101.221 6.8877 101.051 7.03825L98.2984 9.45566C98.179 9.55936 98.0892 9.69435 98.038 9.84647C97.987 9.99844 97.9767 10.1619 98.0084 10.3195L98.8285 14.3908C98.8744 14.6179 98.8327 14.8544 98.7124 15.0505C98.5921 15.2465 98.4025 15.3865 98.1838 15.4408C97.9652 15.4952 97.7346 15.4597 97.5409 15.3416L94.2431 13.3483C94.1115 13.27 93.9624 13.2288 93.8104 13.2288C93.6584 13.2288 93.5093 13.27 93.3777 13.3483L90.0843 15.3572H90.0841C89.8905 15.4752 89.66 15.5109 89.4413 15.4565C89.2227 15.4022 89.0331 15.2622 88.9128 15.0662C88.7924 14.8701 88.7509 14.6335 88.7966 14.4063L89.6124 10.3191C89.6441 10.1615 89.6339 9.99803 89.5828 9.84607C89.5317 9.69395 89.4419 9.55896 89.3225 9.45526L86.5743 7.06678C86.4042 6.91575 86.2976 6.70244 86.2771 6.47184C86.2565 6.24124 86.3237 6.01142 86.4644 5.83082C86.6051 5.65036 86.8082 5.53327 87.0309 5.50431L90.874 5.03783C91.1801 5.00046 91.4438 4.79821 91.5665 4.50658L93.0812 0.935075V0.935231C93.1692 0.729236 93.3292 0.565126 93.5295 0.475768C93.7297 0.386395 93.9553 0.3783 94.1611 0.453192C94.3668 0.527929 94.5375 0.680205 94.6392 0.879332L94.6392 0.879778Z" fill="#FFAB00"/>
<mask id="mask0_4881_13238" style="mask-type:alpha" maskUnits="userSpaceOnUse" x="86" y="0" width="16" height="16">
<path d="M94.6392 0.879778L96.4071 4.54268C96.5364 4.80971 96.7865 4.99218 97.0736 5.02941L100.601 5.4758H100.601C100.823 5.50616 101.025 5.62418 101.164 5.80495C101.304 5.98572 101.37 6.21523 101.349 6.44518C101.327 6.67515 101.221 6.8877 101.051 7.03825L98.2984 9.45566C98.179 9.55936 98.0892 9.69435 98.038 9.84647C97.987 9.99844 97.9767 10.1619 98.0084 10.3195L98.8285 14.3908C98.8744 14.6179 98.8327 14.8544 98.7124 15.0505C98.5921 15.2465 98.4025 15.3865 98.1838 15.4408C97.9652 15.4952 97.7346 15.4597 97.5409 15.3416L94.2431 13.3483C94.1115 13.27 93.9624 13.2288 93.8104 13.2288C93.6584 13.2288 93.5093 13.27 93.3777 13.3483L90.0843 15.3572H90.0841C89.8905 15.4752 89.66 15.5109 89.4413 15.4565C89.2227 15.4022 89.0331 15.2622 88.9128 15.0662C88.7924 14.8701 88.7509 14.6335 88.7966 14.4063L89.6124 10.3191C89.6441 10.1615 89.6339 9.99803 89.5828 9.84607C89.5317 9.69395 89.4419 9.55896 89.3225 9.45526L86.5743 7.06678C86.4042 6.91575 86.2976 6.70244 86.2771 6.47184C86.2565 6.24124 86.3237 6.01142 86.4644 5.83082C86.6051 5.65036 86.8082 5.53327 87.0309 5.50431L90.874 5.03783C91.1801 5.00046 91.4438 4.79821 91.5665 4.50658L93.0812 0.935075V0.935231C93.1692 0.729236 93.3292 0.565126 93.5295 0.475768C93.7297 0.386395 93.9553 0.3783 94.1611 0.453192C94.3668 0.527929 94.5375 0.680205 94.6392 0.879332L94.6392 0.879778Z" fill="#FFCC00"/>
</mask>
<g mask="url(#mask0_4881_13238)">
<rect x="93.8125" y="-1.27344" width="12.9847" height="22.6185" fill="#FFAB00"/>
</g>
</svg>
