<?xml version="1.0" encoding="UTF-8"?>
<svg xmlns="http://www.w3.org/2000/svg" width="31" height="29" viewBox="0 0 31 29" fill="none">
  <path d="M8.79405 20.9594H11.4591V14.5H8.79405V20.9594ZM19.4544 20.9594H22.1195V8.04057H19.4544V20.9594ZM14.1242 20.9594H16.7893V17.0837H14.1242V20.9594ZM14.1242 14.5H16.7893V11.9162H14.1242V14.5ZM6.12896 26.1269C5.39606 26.1269 4.76843 25.8741 4.24607 25.3686C3.72461 24.8622 3.46387 24.2537 3.46387 23.5431V5.45681C3.46387 4.74627 3.72461 4.1378 4.24607 3.63138C4.76843 3.12583 5.39606 2.87305 6.12896 2.87305H24.7846C25.5175 2.87305 26.1451 3.12583 26.6675 3.63138C27.1889 4.1378 27.4497 4.74627 27.4497 5.45681V23.5431C27.4497 24.2537 27.1889 24.8622 26.6675 25.3686C26.1451 25.8741 25.5175 26.1269 24.7846 26.1269H6.12896ZM6.12896 23.5431H24.7846V5.45681H6.12896V23.5431Z" fill="#6754E2"></path>
</svg>
