<?xml version="1.0" encoding="UTF-8"?>
<svg xmlns="http://www.w3.org/2000/svg" width="31" height="31" viewBox="0 0 31 31" fill="none">
  <g clip-path="url(#clip0_1_2)">
    <path d="M9.66941 14.3335H12.0016V16.6657H9.66941V14.3335ZM25.9951 8.50286V24.8285C25.9951 26.1113 24.9456 27.1608 23.6629 27.1608H7.33717C6.04277 27.1608 5.00493 26.1113 5.00493 24.8285L5.01659 8.50286C5.01659 7.22012 6.04277 6.17062 7.33717 6.17062H8.50329V3.83838H10.8355V6.17062H20.1645V3.83838H22.4967V6.17062H23.6629C24.9456 6.17062 25.9951 7.22012 25.9951 8.50286ZM7.33717 10.8351H23.6629V8.50286H7.33717V10.8351ZM23.6629 24.8285V13.1673H7.33717V24.8285H23.6629ZM18.9984 16.6657H21.3306V14.3335H18.9984V16.6657ZM14.3339 16.6657H16.6661V14.3335H14.3339V16.6657Z" fill="#FF549C"></path>
  </g>
  <defs>
    <clipPath id="clip0_1_2">
      <rect width="30" height="30" fill="white" transform="translate(0.5 0.5)"></rect>
    </clipPath>
  </defs>
</svg>
