<svg width="129" height="29" viewBox="0 0 129 29" fill="none" xmlns="http://www.w3.org/2000/svg">
<g clip-path="url(#clip0_6487_92736)">
<path d="M23.8325 -1H4.88388C2.18659 -1 0 1.20818 0 3.93211V23.0679C0 25.7918 2.18659 28 4.88388 28H23.8325C26.5298 28 28.7164 25.7918 28.7164 23.0679V3.93211C28.7164 1.20818 26.5298 -1 23.8325 -1Z" fill="#F7931E"/>
<path d="M8.07617 5.12109V7.84094H12.7886V21.8862H15.9293V7.84094H20.6389V5.12109H8.07617Z" fill="white"/>
<path d="M90.1867 5.12109V21.8862H87.9438V9.99453L82.5369 21.8862H81.0116L75.6048 9.99453V21.8862H73.3618V5.12109H75.6048L81.7757 18.6734L87.9467 5.12109H90.1896H90.1867ZM93.554 5.12109V21.8862H95.7969V5.12109H93.554ZM41.7285 6.93433V5.12109H32.7539V21.8862H41.7285V20.0729H34.9968V14.4102H40.8308V12.597H34.9968V6.93433H41.7285ZM71.4066 21.8862H69.2624L67.987 18.2597H60.5609L59.2855 21.8862H57.1413L63.045 5.12109H65.5029L71.4066 21.8862ZM67.3478 16.4494L64.2739 7.72065L61.2001 16.4494H67.3478ZM109.931 5.12109V18.3536L101.407 5.12109H99.1642V21.8862H101.407V8.66834L109.931 21.8862H112.174V5.12109H109.931ZM128.999 13.5036C128.999 18.1335 125.277 21.8862 120.699 21.8862H115.091V5.12109H120.699C125.283 5.12109 128.999 8.87666 128.999 13.5036ZM126.869 13.5036C126.869 9.86543 123.953 6.93433 120.364 6.93433H117.337V20.0759H120.364C123.958 20.0759 126.869 17.136 126.869 13.5066V13.5036ZM55.6625 21.8862H53.3237L49.5177 15.3169H46.441V21.8862H44.198V5.12109H50.4794C53.2685 5.12109 55.526 7.40377 55.526 10.2175C55.526 12.5853 53.9222 14.5804 51.7577 15.1496L55.6625 21.8862ZM50.3661 13.5036C52.1645 13.5036 53.6201 12.0337 53.6201 10.2175C53.6201 8.40135 52.1529 6.93139 50.3661 6.93139H46.441V13.5007H50.3661V13.5036Z" fill="#05164D"/>
</g>
<defs>
<clipPath id="clip0_6487_92736">
<rect width="129" height="29" fill="white"/>
</clipPath>
</defs>
</svg>
