<svg width="26" height="26" viewBox="0 0 26 26" fill="none" xmlns="http://www.w3.org/2000/svg">
<path d="M12.9121 0.847656C5.99544 0.847656 0.412109 6.42761 0.412109 13.3401C0.412109 20.2526 5.99544 25.8325 12.9121 25.8325C19.8288 25.8325 25.4121 20.2526 25.4121 13.3401C25.4121 6.42761 19.8288 0.847656 12.9121 0.847656ZM16.5233 18.6147C15.3289 17.421 14.1067 16.1995 12.9121 15.0057C11.7178 16.1993 10.4955 17.4208 9.30095 18.6147C8.21762 19.6973 6.57878 18.0316 7.63418 16.9489C8.82853 15.7553 10.0508 14.5338 11.2453 13.3399C10.051 12.1463 8.82873 10.9248 7.63418 9.73096C6.55085 8.64829 8.21762 7.01044 9.30095 8.06521L12.9121 11.6742L16.5233 8.06521C17.6066 6.98253 19.2454 8.64829 18.19 9.73096C16.9957 10.9246 15.7734 12.1461 14.5789 13.3399C15.7732 14.5336 16.9955 15.7551 18.19 16.9489C19.2454 18.0039 17.5787 19.6696 16.5233 18.6147Z" fill="#E6475D"/>
</svg>
