<svg width="26" height="26" viewBox="0 0 26 26" fill="none" xmlns="http://www.w3.org/2000/svg">
<path d="M12.9121 0.925781C5.99967 0.925781 0.412109 6.50996 0.412109 13.4182C0.412109 20.3265 5.99967 25.9106 12.9121 25.9106C19.8246 25.9106 25.4121 20.3265 25.4121 13.4182C25.4121 6.50996 19.8246 0.925781 12.9121 0.925781ZM20.199 9.99287L11.1552 19.06C10.9248 19.2903 10.6369 19.4053 10.3487 19.4053C10.0606 19.4053 9.7438 19.2903 9.54229 19.06L5.04926 14.5694C4.58838 14.1088 4.58838 13.3892 5.04926 12.9286C5.51013 12.468 6.23018 12.468 6.69107 12.9286L10.32 16.6132L18.5574 8.38089C19.0182 7.92029 19.7383 7.92029 20.1992 8.38089C20.6599 8.81257 20.6599 9.53216 20.199 9.99277L20.199 9.99287Z" fill="#59C684"/>
</svg>
