<svg width="37" height="35" viewBox="0 0 37 35" fill="none" xmlns="http://www.w3.org/2000/svg">
<g clip-path="url(#clip0_682_19720)">
<path d="M0.945801 16.3584C0.945801 13.4791 3.86387 11.145 7.46348 11.145H30.4281C34.0277 11.145 36.9458 13.4791 36.9458 16.3584V23.889C36.9458 26.7683 34.0277 29.1023 30.4281 29.1023H7.46348C3.86386 29.1023 0.945801 26.7683 0.945801 23.889V16.3584Z" fill="#E8FED6"/>
<path d="M18.9689 5.5166C16.334 5.5166 14.187 7.63305 14.187 10.2305C14.187 12.828 16.334 14.9444 18.9689 14.9444C21.6038 14.9444 23.7508 12.828 23.7508 10.2305C23.7508 7.63305 21.6038 5.5166 18.9689 5.5166Z" fill="#90D05D"/>
<path d="M23.3852 16.6519H14.5533C12.2843 16.6519 10.3813 18.4556 10.3813 20.7645V24.5645H14.8949C14.7241 24.1075 14.6021 23.6025 14.6021 23.0974C14.6021 20.8126 16.5539 18.9367 18.9448 18.9367C21.3358 18.9367 23.2876 20.7885 23.2876 23.0974C23.2876 23.6265 23.19 24.1075 22.9948 24.5645H27.5083V20.7404C27.5571 18.4556 25.7029 16.6519 23.3852 16.6519Z" fill="#90D05D"/>
<path d="M18.994 21.8228C18.5061 21.8228 18.0913 22.2317 18.0913 22.7128C18.0913 23.1939 18.5061 23.6028 18.994 23.6028C19.482 23.6028 19.8967 23.1939 19.8967 22.7128C19.8967 22.2076 19.482 21.8228 18.994 21.8228Z" fill="#90D05D"/>
<path d="M18.9698 19.6821C17.0668 19.6821 15.5054 21.1973 15.5054 23.0973C15.5054 24.9732 17.0424 26.5125 18.9698 26.5125C20.8972 26.5125 22.4342 24.9973 22.4342 23.0973C22.4098 21.1973 20.8728 19.6821 18.9698 19.6821ZM19.1406 25.2137C19.1162 25.2378 19.0674 25.2618 19.0186 25.2618C18.9698 25.2618 18.9454 25.2378 18.8966 25.2137C17.262 23.9631 17.3108 22.8087 17.3352 22.6644C17.3352 21.7505 18.0915 21.0049 19.0186 21.0049C19.9457 21.0049 20.702 21.7505 20.702 22.6644C20.7264 22.8087 20.7752 23.9631 19.1406 25.2137Z" fill="#90D05D"/>
</g>
<defs>
<clipPath id="clip0_682_19720">
<rect width="36" height="33.9936" fill="white" transform="translate(0.945801 0.915039)"/>
</clipPath>
</defs>
</svg>
