<svg width="37" height="35" viewBox="0 0 37 35" fill="none" xmlns="http://www.w3.org/2000/svg">
<g clip-path="url(#clip0_1_6)">
<path d="M0.945801 15.2163C0.945801 12.337 3.86387 10.0029 7.46348 10.0029H30.4281C34.0277 10.0029 36.9458 12.337 36.9458 15.2163V22.747C36.9458 25.6262 34.0277 27.9602 30.4281 27.9602H7.46348C3.86386 27.9602 0.945801 25.6262 0.945801 22.747V15.2163Z" fill="#E4ECFF"/>
<path d="M18.9306 3.45761C18.8696 3.45986 18.81 3.47775 18.7581 3.50955L8.51078 9.80964C8.407 9.87347 8.34376 9.98591 8.34375 10.1069V12.9071C8.34402 13.1816 8.64892 13.349 8.8842 13.2037L18.9458 7.01977L29.0081 13.2037C29.2432 13.3481 29.5473 13.1811 29.5479 12.9071V10.1069C29.5478 9.98591 29.4847 9.87347 29.3808 9.80964L19.1315 3.50955C19.0712 3.47271 19.0014 3.45462 18.9306 3.45761ZM18.9458 7.65676L9.75739 13.2556V22.0039H12.6564C12.6128 21.8883 12.586 21.765 12.586 21.6355V19.2229C12.586 18.9463 12.6969 18.695 12.8738 18.5046C12.6968 18.3135 12.586 18.0615 12.586 17.7849V15.3723C12.586 14.7871 13.0724 14.3054 13.6635 14.3054H24.2289C24.82 14.3054 25.3064 14.7871 25.3064 15.3723V17.7849C25.3064 18.0615 25.1955 18.3135 25.0185 18.5046C25.1955 18.695 25.3064 18.9463 25.3064 19.2229V21.6355C25.3064 21.765 25.2789 21.8883 25.2353 22.0039H28.1343V13.2556L18.9458 7.65676ZM17.5322 10.1049H20.3601C20.7456 10.1049 21.0669 10.4238 21.0669 10.8054V11.5053V12.2052V12.905C21.0669 13.2867 20.7456 13.6056 20.3601 13.6056H17.5322C17.1468 13.6056 16.8247 13.2867 16.8247 12.905V10.8054C16.8247 10.4238 17.1468 10.1049 17.5322 10.1049ZM17.5322 10.8054V11.5053H18.591V10.8054H17.5322ZM19.2979 10.8054V11.5053H20.3601V10.8054H19.2979ZM17.5322 12.2052V12.905H18.591V12.2052H17.5322ZM19.2979 12.2052V12.905H20.3601V12.2052H19.2979ZM13.6634 15.0025C13.4518 15.0025 13.29 15.1627 13.29 15.3723V17.7849C13.29 17.9945 13.4518 18.1539 13.6634 18.1539H16.1186V15.0025H13.6634ZM16.8254 15.0025V18.1539H24.2289C24.4406 18.1539 24.5989 17.9945 24.5989 17.7849V15.3723C24.5989 15.1627 24.4406 15.0025 24.2289 15.0025H16.8254ZM14.705 16.0551C14.9002 16.0551 15.0584 16.2117 15.0584 16.405C15.0584 16.5982 14.9002 16.7549 14.705 16.7549C14.5098 16.7549 14.3516 16.5982 14.3516 16.405C14.3516 16.2117 14.5098 16.0551 14.705 16.0551ZM17.8856 16.0551H23.5401C24.0114 16.0551 24.0114 16.7549 23.5401 16.7549H17.8856C17.4143 16.7549 17.4143 16.0551 17.8856 16.0551ZM13.6586 18.8538C13.4494 18.8563 13.29 19.015 13.29 19.2229V21.6355C13.29 21.8438 13.4501 22.002 13.66 22.0039H16.1186V18.8545H13.6634C13.6621 18.8545 13.6613 18.8538 13.6586 18.8538ZM16.8254 18.8545V22.0039H24.2324C24.4422 22.002 24.5989 21.8439 24.5989 21.6355V19.2229C24.5989 19.015 24.4429 18.8564 24.2313 18.8542L16.8254 18.8545ZM14.705 19.9043C14.9002 19.9043 15.0584 20.0609 15.0584 20.2542C15.0584 20.4475 14.9002 20.6041 14.705 20.6041C14.5098 20.6041 14.3516 20.4475 14.3516 20.2542C14.3516 20.0609 14.5098 19.9043 14.705 19.9043ZM17.8856 19.9043H23.5401C24.0114 19.9043 24.0114 20.6041 23.5401 20.6041H17.8856C17.4143 20.6041 17.4143 19.9043 17.8856 19.9043ZM9.05058 22.7037C8.65901 22.7037 8.34379 23.0158 8.34379 23.4036V23.7535C8.34379 24.1412 8.65901 24.4534 9.05058 24.4534H28.8411C29.2327 24.4534 29.5479 24.1412 29.5479 23.7535V23.4036C29.5479 23.0158 29.2327 22.7037 28.8411 22.7037H9.05058Z" fill="#6790F0"/>
</g>
<defs>
<clipPath id="clip0_1_6">
<rect width="36" height="33.9936" fill="white" transform="translate(0.945801 0.927734)"/>
</clipPath>
</defs>
</svg>
