<svg width="162" height="27" viewBox="0 0 162 27" fill="none" xmlns="http://www.w3.org/2000/svg">
<path d="M5.208 8.93119C5.264 9.00119 5.292 9.09219 5.292 9.20419C5.306 9.30219 5.292 9.38619 5.25 9.45619C5.18 9.61019 5.061 9.66619 4.893 9.62419C4.599 9.55419 4.291 9.52619 3.969 9.54019C3.647 9.55419 3.325 9.68019 3.003 9.91819C2.681 10.1562 2.429 10.5062 2.247 10.9682C2.065 11.4162 1.974 11.8852 1.974 12.3752C1.974 12.8512 2.086 13.2642 2.31 13.6142C2.548 13.9502 2.849 14.1952 3.213 14.3492C3.437 14.4472 3.689 14.5032 3.969 14.5172C4.249 14.5312 4.529 14.5242 4.809 14.4962C5.103 14.4542 5.39 14.3982 5.67 14.3282C5.95 14.2442 6.216 14.1532 6.468 14.0552C6.552 14.0272 6.629 14.0342 6.699 14.0762C6.783 14.1182 6.839 14.1742 6.867 14.2442C6.937 14.4262 6.902 14.6082 6.762 14.7902C6.594 14.9722 6.37 15.1332 6.09 15.2732C5.81 15.4132 5.502 15.5252 5.166 15.6092C4.83 15.6932 4.487 15.7422 4.137 15.7562C3.787 15.7562 3.458 15.7142 3.15 15.6302C2.716 15.5182 2.345 15.3572 2.037 15.1472C1.743 14.9232 1.498 14.6712 1.302 14.3912C1.106 14.0972 0.959 13.7892 0.861 13.4672C0.763 13.1312 0.707 12.7882 0.693 12.4382C0.665 11.5982 0.826 10.8422 1.176 10.1702C1.54 9.49819 2.044 9.00119 2.688 8.67919C3.164 8.44119 3.64 8.35019 4.116 8.40619C4.606 8.44819 4.97 8.62319 5.208 8.93119ZM9.54975 7.31419C9.54975 7.65019 9.54275 8.02819 9.52875 8.44819C9.52875 8.86819 9.52875 9.30219 9.52875 9.75019C9.54275 10.1982 9.54975 10.6602 9.54975 11.1362C9.56375 11.6122 9.57775 12.0672 9.59175 12.5012C9.73175 12.2212 9.89975 11.9482 10.0958 11.6822C10.2918 11.4022 10.5088 11.1572 10.7468 10.9472C10.9988 10.7372 11.2578 10.5692 11.5238 10.4432C11.8038 10.3172 12.1048 10.2542 12.4268 10.2542C12.7768 10.2542 13.0848 10.3662 13.3508 10.5902C13.6308 10.8142 13.8688 11.1152 14.0648 11.4932C14.2748 11.8572 14.4498 12.2702 14.5898 12.7322C14.7298 13.1802 14.8418 13.6422 14.9258 14.1182C15.0238 14.5802 15.0938 15.0282 15.1358 15.4622C15.1778 15.8822 15.2128 16.2462 15.2408 16.5542C15.2408 16.7782 15.1848 16.9602 15.0728 17.1002C14.9608 17.2402 14.8278 17.3102 14.6738 17.3102C14.5618 17.3102 14.4218 17.2402 14.2538 17.1002C14.0998 16.9462 13.9878 16.7642 13.9178 16.5542C13.8758 16.3862 13.8338 16.1412 13.7918 15.8192C13.7498 15.4972 13.7008 15.1542 13.6448 14.7902C13.5888 14.4122 13.5188 14.0342 13.4348 13.6562C13.3508 13.2782 13.2458 12.9422 13.1198 12.6482C13.0078 12.3402 12.8678 12.1022 12.6998 11.9342C12.5318 11.7662 12.3358 11.7032 12.1118 11.7452C11.7618 11.8152 11.4538 12.0602 11.1878 12.4802C10.9358 12.9002 10.7118 13.3762 10.5158 13.9082C10.3338 14.4402 10.1798 14.9792 10.0538 15.5252C9.94175 16.0712 9.85775 16.5122 9.80175 16.8482C9.74575 17.1002 9.66875 17.2752 9.57075 17.3732C9.48675 17.4572 9.38875 17.4992 9.27675 17.4992C9.16475 17.4992 9.05975 17.4432 8.96175 17.3312C8.87775 17.2192 8.79375 17.0862 8.70975 16.9322C8.63975 16.7642 8.57675 16.5962 8.52075 16.4282C8.46475 16.2462 8.42975 16.0922 8.41575 15.9662C8.34575 15.2102 8.28975 14.4892 8.24775 13.8032C8.20575 13.1032 8.17075 12.4032 8.14275 11.7032C8.12875 11.0032 8.12175 10.2892 8.12175 9.56119C8.12175 8.81919 8.13575 8.02819 8.16375 7.18819C8.16375 6.48819 8.41575 6.17319 8.91975 6.24319C9.08775 6.27119 9.23475 6.39719 9.36075 6.62119C9.48675 6.83119 9.54975 7.06219 9.54975 7.31419ZM21.5846 9.28819C22.0046 9.44219 22.3546 9.67319 22.6346 9.98119C22.9286 10.2892 23.1526 10.6392 23.3066 11.0312C23.4606 11.4092 23.5446 11.8012 23.5586 12.2072C23.5866 12.6132 23.5446 12.9912 23.4326 13.3412C23.2786 13.7332 23.0826 14.1182 22.8446 14.4962C22.6066 14.8742 22.3336 15.2102 22.0256 15.5042C21.7176 15.7982 21.3676 16.0362 20.9756 16.2182C20.5836 16.4002 20.1496 16.4912 19.6736 16.4912C19.0996 16.4912 18.6166 16.3582 18.2246 16.0922C17.8326 15.8262 17.5246 15.4832 17.3006 15.0632C17.0766 14.6432 16.9296 14.1672 16.8596 13.6352C16.8036 13.1032 16.8176 12.5712 16.9016 12.0392C16.9576 11.6472 17.0486 11.2692 17.1746 10.9052C17.3146 10.5272 17.4896 10.1982 17.6996 9.91819C17.9096 9.62419 18.1476 9.38619 18.4136 9.20419C18.6936 9.02219 19.0086 8.93119 19.3586 8.93119C19.5546 8.93119 19.7996 8.97319 20.0936 9.05719C20.3876 9.12719 20.6606 9.23219 20.9126 9.37219C21.0946 9.20419 21.3186 9.17619 21.5846 9.28819ZM20.7866 10.8212C20.6326 10.7232 20.4506 10.5972 20.2406 10.4432C20.0446 10.2752 19.8696 10.1912 19.7156 10.1912C19.5476 10.1912 19.3796 10.2682 19.2116 10.4222C19.0576 10.5762 18.9176 10.7582 18.7916 10.9682C18.6796 11.1642 18.5816 11.3672 18.4976 11.5772C18.4136 11.7872 18.3576 11.9552 18.3296 12.0812C18.2876 12.2912 18.2596 12.5432 18.2456 12.8372C18.2316 13.1312 18.2526 13.4252 18.3086 13.7192C18.3646 13.9992 18.4696 14.2582 18.6236 14.4962C18.7916 14.7202 19.0366 14.8812 19.3586 14.9792C19.5546 15.0352 19.7856 15.0352 20.0516 14.9792C20.3176 14.9092 20.5766 14.7902 20.8286 14.6222C21.0946 14.4542 21.3396 14.2302 21.5636 13.9502C21.8016 13.6702 21.9836 13.3482 22.1096 12.9842C22.2496 12.5782 22.2496 12.1582 22.1096 11.7242C21.9836 11.2762 21.7176 10.9542 21.3116 10.7582C21.2136 10.8282 21.1156 10.8632 21.0176 10.8632C20.9196 10.8632 20.8426 10.8492 20.7866 10.8212ZM30.0748 9.28819C30.4948 9.44219 30.8448 9.67319 31.1248 9.98119C31.4188 10.2892 31.6428 10.6392 31.7968 11.0312C31.9508 11.4092 32.0348 11.8012 32.0488 12.2072C32.0768 12.6132 32.0348 12.9912 31.9228 13.3412C31.7688 13.7332 31.5728 14.1182 31.3348 14.4962C31.0968 14.8742 30.8238 15.2102 30.5158 15.5042C30.2078 15.7982 29.8578 16.0362 29.4658 16.2182C29.0738 16.4002 28.6398 16.4912 28.1638 16.4912C27.5898 16.4912 27.1068 16.3582 26.7148 16.0922C26.3228 15.8262 26.0148 15.4832 25.7908 15.0632C25.5668 14.6432 25.4198 14.1672 25.3498 13.6352C25.2938 13.1032 25.3078 12.5712 25.3918 12.0392C25.4478 11.6472 25.5388 11.2692 25.6648 10.9052C25.8048 10.5272 25.9798 10.1982 26.1898 9.91819C26.3998 9.62419 26.6378 9.38619 26.9038 9.20419C27.1838 9.02219 27.4988 8.93119 27.8488 8.93119C28.0448 8.93119 28.2898 8.97319 28.5838 9.05719C28.8778 9.12719 29.1508 9.23219 29.4028 9.37219C29.5848 9.20419 29.8088 9.17619 30.0748 9.28819ZM29.2768 10.8212C29.1228 10.7232 28.9408 10.5972 28.7308 10.4432C28.5348 10.2752 28.3598 10.1912 28.2058 10.1912C28.0378 10.1912 27.8698 10.2682 27.7018 10.4222C27.5478 10.5762 27.4078 10.7582 27.2818 10.9682C27.1698 11.1642 27.0718 11.3672 26.9878 11.5772C26.9038 11.7872 26.8478 11.9552 26.8198 12.0812C26.7778 12.2912 26.7498 12.5432 26.7358 12.8372C26.7218 13.1312 26.7428 13.4252 26.7988 13.7192C26.8548 13.9992 26.9598 14.2582 27.1138 14.4962C27.2818 14.7202 27.5268 14.8812 27.8488 14.9792C28.0448 15.0352 28.2758 15.0352 28.5418 14.9792C28.8078 14.9092 29.0668 14.7902 29.3188 14.6222C29.5848 14.4542 29.8298 14.2302 30.0538 13.9502C30.2918 13.6702 30.4738 13.3482 30.5998 12.9842C30.7398 12.5782 30.7398 12.1582 30.5998 11.7242C30.4738 11.2762 30.2078 10.9542 29.8018 10.7582C29.7038 10.8282 29.6058 10.8632 29.5078 10.8632C29.4098 10.8632 29.3328 10.8492 29.2768 10.8212ZM37.662 10.3382C37.634 10.1842 37.606 10.0372 37.578 9.89719C37.55 9.75719 37.48 9.66619 37.368 9.62419C37.13 9.55419 36.878 9.54719 36.612 9.60319C36.346 9.65919 36.101 9.75019 35.877 9.87619C35.653 9.98819 35.464 10.1212 35.31 10.2752C35.156 10.4152 35.072 10.5412 35.058 10.6532C35.016 10.8632 35.072 11.0662 35.226 11.2622C35.38 11.4582 35.604 11.6542 35.898 11.8502C36.388 12.1442 36.899 12.4452 37.431 12.7532C37.963 13.0612 38.411 13.3762 38.775 13.6982C39.139 14.0202 39.384 14.3772 39.51 14.7692C39.65 15.1472 39.622 15.5812 39.426 16.0712C39.272 16.4492 38.985 16.7572 38.565 16.9952C38.145 17.2332 37.683 17.4222 37.179 17.5622C36.675 17.6882 36.171 17.7792 35.667 17.8352C35.163 17.8772 34.736 17.8982 34.386 17.8982C34.302 17.8982 34.197 17.8702 34.071 17.8142C33.959 17.7442 33.847 17.6672 33.735 17.5832C33.637 17.4992 33.546 17.4152 33.462 17.3312C33.392 17.2332 33.357 17.1492 33.357 17.0792C33.357 16.8272 33.469 16.6522 33.693 16.5542C33.917 16.4562 34.148 16.4072 34.386 16.4072C34.722 16.4072 35.079 16.3932 35.457 16.3652C35.849 16.3232 36.22 16.2672 36.57 16.1972C36.92 16.1132 37.235 16.0082 37.515 15.8822C37.795 15.7562 37.991 15.5952 38.103 15.3992C38.201 15.2312 38.138 15.0352 37.914 14.8112C37.704 14.5732 37.417 14.3282 37.053 14.0762C36.703 13.8242 36.318 13.5792 35.898 13.3412C35.492 13.1032 35.142 12.8862 34.848 12.6902C34.554 12.4942 34.302 12.2632 34.092 11.9972C33.882 11.7172 33.749 11.3742 33.693 10.9682C33.679 10.6042 33.756 10.2542 33.924 9.91819C34.092 9.58219 34.309 9.28819 34.575 9.03619C34.855 8.77019 35.17 8.56019 35.52 8.40619C35.87 8.25219 36.22 8.17519 36.57 8.17519C37.172 8.20319 37.669 8.37119 38.061 8.67919C38.453 8.97319 38.684 9.41419 38.754 10.0022C38.754 10.1982 38.719 10.3592 38.649 10.4852C38.593 10.6112 38.488 10.6882 38.334 10.7162C38.138 10.7442 37.977 10.7232 37.851 10.6532C37.739 10.5692 37.676 10.4642 37.662 10.3382ZM45.9332 11.6822C45.3872 12.0042 44.7992 12.2562 44.1692 12.4382C43.5392 12.6062 42.8602 12.6902 42.1322 12.6902C42.1602 13.1802 42.3002 13.5722 42.5522 13.8662C42.8042 14.1462 43.1192 14.3142 43.4972 14.3702C43.7212 14.3982 43.9452 14.3912 44.1692 14.3492C44.4072 14.3072 44.6242 14.2442 44.8202 14.1602C45.0302 14.0622 45.2192 13.9572 45.3872 13.8452C45.5552 13.7332 45.7022 13.6212 45.8282 13.5092C45.9542 13.3972 46.0872 13.3272 46.2272 13.2992C46.3672 13.2572 46.4722 13.2502 46.5422 13.2782C46.7382 13.3482 46.8082 13.5582 46.7522 13.9082C46.5282 14.3562 46.2062 14.7412 45.7862 15.0632C45.3662 15.3712 44.8972 15.5672 44.3792 15.6512C43.9312 15.7352 43.4692 15.7142 42.9932 15.5882C42.5172 15.4622 42.0902 15.2172 41.7122 14.8532C41.3902 14.5312 41.1452 14.1532 40.9772 13.7192C40.8092 13.2852 40.7042 12.8372 40.6622 12.3752C40.6202 11.9412 40.6552 11.5282 40.7672 11.1362C40.8932 10.7442 41.0822 10.4012 41.3342 10.1072C41.5862 9.79919 41.9012 9.54719 42.2792 9.35119C42.6572 9.15519 43.0982 9.04319 43.6022 9.01519C44.2042 8.97319 44.7502 9.08519 45.2402 9.35119C45.7302 9.61719 46.0732 9.98819 46.2692 10.4642C46.3812 10.7302 46.4092 10.9612 46.3532 11.1572C46.3112 11.3532 46.1712 11.5282 45.9332 11.6822ZM43.5182 10.2542C43.3782 10.2822 43.2242 10.3312 43.0562 10.4012C42.9022 10.4712 42.7552 10.5622 42.6152 10.6742C42.4892 10.7722 42.3702 10.8912 42.2582 11.0312C42.1602 11.1572 42.1042 11.3042 42.0902 11.4722C42.3282 11.4722 42.5872 11.4512 42.8672 11.4092C43.1612 11.3672 43.4412 11.3182 43.7072 11.2622C43.9872 11.1922 44.2392 11.1152 44.4632 11.0312C44.7012 10.9472 44.8972 10.8562 45.0512 10.7582C44.9392 10.4922 44.7292 10.3312 44.4212 10.2752C44.1272 10.2052 43.8262 10.1982 43.5182 10.2542ZM61.2393 8.74219C61.2953 8.99419 61.3513 9.29519 61.4073 9.64519C61.4633 9.98119 61.4983 10.3382 61.5123 10.7162C61.5403 11.0802 61.5473 11.4582 61.5333 11.8502C61.5193 12.2422 61.4773 12.6202 61.4073 12.9842C61.3233 13.4042 61.1553 13.7892 60.9033 14.1392C60.6513 14.4892 60.3433 14.8042 59.9793 15.0842C59.6293 15.3642 59.2373 15.5952 58.8033 15.7772C58.3833 15.9452 57.9563 16.0712 57.5223 16.1552C57.1023 16.2252 56.6823 16.2392 56.2623 16.1972C55.8563 16.1412 55.4923 16.0222 55.1703 15.8402C54.8063 15.6302 54.5123 15.3572 54.2883 15.0212C54.0643 14.6852 53.9663 14.2722 53.9943 13.7822C54.0223 13.3062 54.0643 12.8722 54.1203 12.4802C54.1763 12.0742 54.2463 11.6892 54.3303 11.3252C54.4283 10.9612 54.5333 10.5972 54.6453 10.2332C54.7573 9.85519 54.8763 9.46319 55.0023 9.05719C55.0723 8.87519 55.1983 8.77019 55.3803 8.74219C55.4503 8.72819 55.5343 8.72819 55.6323 8.74219C55.6743 8.74219 55.7303 8.77019 55.8003 8.82619C55.8843 8.86819 55.9613 8.93119 56.0313 9.01519C56.1013 9.09919 56.1573 9.19719 56.1993 9.30919C56.2553 9.42119 56.2623 9.54719 56.2203 9.68719C56.0943 10.1352 55.9683 10.5902 55.8423 11.0522C55.7163 11.5142 55.6043 11.9552 55.5063 12.3752C55.4223 12.7952 55.3663 13.1732 55.3383 13.5092C55.3243 13.8312 55.3593 14.0832 55.4433 14.2652C55.6253 14.5312 55.8703 14.7062 56.1783 14.7902C56.5003 14.8602 56.8363 14.8672 57.1863 14.8112C57.5363 14.7552 57.8723 14.6642 58.1943 14.5382C58.5303 14.3982 58.8173 14.2512 59.0553 14.0972C59.4333 13.8452 59.7063 13.5302 59.8743 13.1522C60.0563 12.7742 60.1683 12.3612 60.2103 11.9132C60.2523 11.4652 60.2453 10.9962 60.1893 10.5062C60.1473 10.0162 60.0843 9.53319 60.0003 9.05719C59.9723 8.93119 59.9793 8.77019 60.0213 8.57419C60.0633 8.37819 60.1753 8.22419 60.3573 8.11219C60.5533 8.00019 60.7283 8.01419 60.8823 8.15419C61.0503 8.29419 61.1693 8.49019 61.2393 8.74219ZM67.1112 10.3382C67.0832 10.1842 67.0552 10.0372 67.0272 9.89719C66.9992 9.75719 66.9292 9.66619 66.8172 9.62419C66.5792 9.55419 66.3272 9.54719 66.0612 9.60319C65.7952 9.65919 65.5502 9.75019 65.3262 9.87619C65.1022 9.98819 64.9132 10.1212 64.7592 10.2752C64.6052 10.4152 64.5212 10.5412 64.5072 10.6532C64.4652 10.8632 64.5212 11.0662 64.6752 11.2622C64.8292 11.4582 65.0532 11.6542 65.3472 11.8502C65.8372 12.1442 66.3482 12.4452 66.8802 12.7532C67.4122 13.0612 67.8602 13.3762 68.2242 13.6982C68.5882 14.0202 68.8332 14.3772 68.9592 14.7692C69.0992 15.1472 69.0712 15.5812 68.8752 16.0712C68.7212 16.4492 68.4342 16.7572 68.0142 16.9952C67.5942 17.2332 67.1322 17.4222 66.6282 17.5622C66.1242 17.6882 65.6202 17.7792 65.1162 17.8352C64.6122 17.8772 64.1852 17.8982 63.8352 17.8982C63.7512 17.8982 63.6462 17.8702 63.5202 17.8142C63.4082 17.7442 63.2962 17.6672 63.1842 17.5832C63.0862 17.4992 62.9952 17.4152 62.9112 17.3312C62.8412 17.2332 62.8062 17.1492 62.8062 17.0792C62.8062 16.8272 62.9182 16.6522 63.1422 16.5542C63.3662 16.4562 63.5972 16.4072 63.8352 16.4072C64.1712 16.4072 64.5282 16.3932 64.9062 16.3652C65.2982 16.3232 65.6692 16.2672 66.0192 16.1972C66.3692 16.1132 66.6842 16.0082 66.9642 15.8822C67.2442 15.7562 67.4402 15.5952 67.5522 15.3992C67.6502 15.2312 67.5872 15.0352 67.3632 14.8112C67.1532 14.5732 66.8662 14.3282 66.5022 14.0762C66.1522 13.8242 65.7672 13.5792 65.3472 13.3412C64.9412 13.1032 64.5912 12.8862 64.2972 12.6902C64.0032 12.4942 63.7512 12.2632 63.5412 11.9972C63.3312 11.7172 63.1982 11.3742 63.1422 10.9682C63.1282 10.6042 63.2052 10.2542 63.3732 9.91819C63.5412 9.58219 63.7582 9.28819 64.0242 9.03619C64.3042 8.77019 64.6192 8.56019 64.9692 8.40619C65.3192 8.25219 65.6692 8.17519 66.0192 8.17519C66.6212 8.20319 67.1182 8.37119 67.5102 8.67919C67.9022 8.97319 68.1332 9.41419 68.2032 10.0022C68.2032 10.1982 68.1682 10.3592 68.0982 10.4852C68.0422 10.6112 67.9372 10.6882 67.7832 10.7162C67.5872 10.7442 67.4262 10.7232 67.3002 10.6532C67.1882 10.5692 67.1252 10.4642 67.1112 10.3382ZM75.3825 11.6822C74.8365 12.0042 74.2485 12.2562 73.6185 12.4382C72.9885 12.6062 72.3095 12.6902 71.5815 12.6902C71.6095 13.1802 71.7495 13.5722 72.0015 13.8662C72.2535 14.1462 72.5685 14.3142 72.9465 14.3702C73.1705 14.3982 73.3945 14.3912 73.6185 14.3492C73.8565 14.3072 74.0735 14.2442 74.2695 14.1602C74.4795 14.0622 74.6685 13.9572 74.8365 13.8452C75.0045 13.7332 75.1515 13.6212 75.2775 13.5092C75.4035 13.3972 75.5365 13.3272 75.6765 13.2992C75.8165 13.2572 75.9215 13.2502 75.9915 13.2782C76.1875 13.3482 76.2575 13.5582 76.2015 13.9082C75.9775 14.3562 75.6555 14.7412 75.2355 15.0632C74.8155 15.3712 74.3465 15.5672 73.8285 15.6512C73.3805 15.7352 72.9185 15.7142 72.4425 15.5882C71.9665 15.4622 71.5395 15.2172 71.1615 14.8532C70.8395 14.5312 70.5945 14.1532 70.4265 13.7192C70.2585 13.2852 70.1535 12.8372 70.1115 12.3752C70.0695 11.9412 70.1045 11.5282 70.2165 11.1362C70.3425 10.7442 70.5315 10.4012 70.7835 10.1072C71.0355 9.79919 71.3505 9.54719 71.7285 9.35119C72.1065 9.15519 72.5475 9.04319 73.0515 9.01519C73.6535 8.97319 74.1995 9.08519 74.6895 9.35119C75.1795 9.61719 75.5225 9.98819 75.7185 10.4642C75.8305 10.7302 75.8585 10.9612 75.8025 11.1572C75.7605 11.3532 75.6205 11.5282 75.3825 11.6822ZM72.9675 10.2542C72.8275 10.2822 72.6735 10.3312 72.5055 10.4012C72.3515 10.4712 72.2045 10.5622 72.0645 10.6742C71.9385 10.7722 71.8195 10.8912 71.7075 11.0312C71.6095 11.1572 71.5535 11.3042 71.5395 11.4722C71.7775 11.4722 72.0365 11.4512 72.3165 11.4092C72.6105 11.3672 72.8905 11.3182 73.1565 11.2622C73.4365 11.1922 73.6885 11.1152 73.9125 11.0312C74.1505 10.9472 74.3465 10.8562 74.5005 10.7582C74.3885 10.4922 74.1785 10.3312 73.8705 10.2752C73.5765 10.2052 73.2755 10.1982 72.9675 10.2542ZM87.8955 8.93119C87.9515 9.00119 87.9795 9.09219 87.9795 9.20419C87.9935 9.30219 87.9795 9.38619 87.9375 9.45619C87.8675 9.61019 87.7485 9.66619 87.5805 9.62419C87.2865 9.55419 86.9785 9.52619 86.6565 9.54019C86.3345 9.55419 86.0125 9.68019 85.6905 9.91819C85.3685 10.1562 85.1165 10.5062 84.9345 10.9682C84.7525 11.4162 84.6615 11.8852 84.6615 12.3752C84.6615 12.8512 84.7735 13.2642 84.9975 13.6142C85.2355 13.9502 85.5365 14.1952 85.9005 14.3492C86.1245 14.4472 86.3765 14.5032 86.6565 14.5172C86.9365 14.5312 87.2165 14.5242 87.4965 14.4962C87.7905 14.4542 88.0775 14.3982 88.3575 14.3282C88.6375 14.2442 88.9035 14.1532 89.1555 14.0552C89.2395 14.0272 89.3165 14.0342 89.3865 14.0762C89.4705 14.1182 89.5265 14.1742 89.5545 14.2442C89.6245 14.4262 89.5895 14.6082 89.4495 14.7902C89.2815 14.9722 89.0575 15.1332 88.7775 15.2732C88.4975 15.4132 88.1895 15.5252 87.8535 15.6092C87.5175 15.6932 87.1745 15.7422 86.8245 15.7562C86.4745 15.7562 86.1455 15.7142 85.8375 15.6302C85.4035 15.5182 85.0325 15.3572 84.7245 15.1472C84.4305 14.9232 84.1855 14.6712 83.9895 14.3912C83.7935 14.0972 83.6465 13.7892 83.5485 13.4672C83.4505 13.1312 83.3945 12.7882 83.3805 12.4382C83.3525 11.5982 83.5135 10.8422 83.8635 10.1702C84.2275 9.49819 84.7315 9.00119 85.3755 8.67919C85.8515 8.44119 86.3275 8.35019 86.8035 8.40619C87.2935 8.44819 87.6575 8.62319 87.8955 8.93119ZM96.0173 8.84719C96.0733 9.23919 96.1153 9.65919 96.1433 10.1072C96.1853 10.5412 96.2133 10.9822 96.2273 11.4302C96.2553 11.8782 96.2693 12.3122 96.2693 12.7322C96.2693 13.1522 96.2623 13.5302 96.2483 13.8662C96.6963 14.1742 96.9623 14.4472 97.0463 14.6852C97.1443 14.9232 97.1583 15.1332 97.0883 15.3152C97.0043 15.5672 96.8503 15.7002 96.6263 15.7142C96.4163 15.7142 96.1713 15.6372 95.8913 15.4832C95.6953 15.6232 95.4713 15.7772 95.2193 15.9452C94.9673 16.0992 94.7013 16.2532 94.4213 16.4072C94.1413 16.5472 93.8613 16.6732 93.5813 16.7852C93.3013 16.8972 93.0423 16.9742 92.8043 17.0162C92.3563 17.0862 91.9503 17.0022 91.5863 16.7642C91.2363 16.5262 90.9983 16.1692 90.8723 15.6932C90.7883 15.3712 90.7673 15.0422 90.8093 14.7062C90.8513 14.3562 90.9563 14.0272 91.1243 13.7192C91.2923 13.3972 91.5163 13.1102 91.7963 12.8582C92.0903 12.6062 92.4333 12.4102 92.8253 12.2702C92.9233 12.2282 93.0563 12.1932 93.2243 12.1652C93.4063 12.1372 93.5883 12.1302 93.7703 12.1442C93.9663 12.1442 94.1623 12.1792 94.3583 12.2492C94.5543 12.3192 94.7363 12.4382 94.9043 12.6062C94.9043 12.3682 94.8973 12.1092 94.8833 11.8292C94.8833 11.5352 94.8763 11.2412 94.8623 10.9472C94.8483 10.6532 94.8273 10.3802 94.7993 10.1282C94.7853 9.86219 94.7643 9.63819 94.7363 9.45619C94.7083 9.24619 94.6243 9.12019 94.4843 9.07819C94.3583 9.02219 94.1973 9.02919 94.0013 9.09919C93.6653 9.21119 93.2733 9.42819 92.8253 9.75019C92.3773 10.0722 91.9503 10.4152 91.5443 10.7792C91.4183 10.9052 91.2713 10.9612 91.1033 10.9472C90.9493 10.9332 90.8163 10.8702 90.7043 10.7582C90.5923 10.6462 90.5293 10.5202 90.5153 10.3802C90.5013 10.2262 90.5573 10.0652 90.6833 9.89719C90.9213 9.64519 91.1873 9.38619 91.4813 9.12019C91.7753 8.85419 92.0833 8.61619 92.4053 8.40619C92.7273 8.18219 93.0563 8.00019 93.3923 7.86019C93.7283 7.72019 94.0643 7.64319 94.4003 7.62919C94.8903 7.61519 95.2683 7.72719 95.5343 7.96519C95.8003 8.18919 95.9613 8.48319 96.0173 8.84719ZM93.5813 13.3622C93.3993 13.4042 93.2033 13.4952 92.9932 13.6352C92.7973 13.7612 92.6153 13.9222 92.4473 14.1182C92.2933 14.3002 92.1743 14.5102 92.0903 14.7482C92.0203 14.9722 92.0203 15.1962 92.0903 15.4202C92.1183 15.5042 92.1743 15.5672 92.2583 15.6092C92.3563 15.6512 92.4613 15.6582 92.5733 15.6302C92.9093 15.5602 93.2873 15.4272 93.7073 15.2312C94.1413 15.0212 94.4843 14.7972 94.7363 14.5592C94.7363 14.4752 94.6943 14.3702 94.6103 14.2442C94.5263 14.1042 94.4283 13.9712 94.3163 13.8452C94.2043 13.7052 94.0783 13.5862 93.9383 13.4882C93.8123 13.3902 93.6933 13.3482 93.5813 13.3622ZM102.241 10.3382C102.213 10.1842 102.185 10.0372 102.157 9.89719C102.129 9.75719 102.059 9.66619 101.947 9.62419C101.709 9.55419 101.457 9.54719 101.191 9.60319C100.925 9.65919 100.68 9.75019 100.456 9.87619C100.232 9.98819 100.043 10.1212 99.8891 10.2752C99.7351 10.4152 99.6511 10.5412 99.6371 10.6532C99.5951 10.8632 99.6511 11.0662 99.8051 11.2622C99.9591 11.4582 100.183 11.6542 100.477 11.8502C100.967 12.1442 101.478 12.4452 102.01 12.7532C102.542 13.0612 102.99 13.3762 103.354 13.6982C103.718 14.0202 103.963 14.3772 104.089 14.7692C104.229 15.1472 104.201 15.5812 104.005 16.0712C103.851 16.4492 103.564 16.7572 103.144 16.9952C102.724 17.2332 102.262 17.4222 101.758 17.5622C101.254 17.6882 100.75 17.7792 100.246 17.8352C99.7421 17.8772 99.3151 17.8982 98.9651 17.8982C98.8811 17.8982 98.7761 17.8702 98.6501 17.8142C98.5381 17.7442 98.4261 17.6672 98.3141 17.5832C98.2161 17.4992 98.1251 17.4152 98.0411 17.3312C97.9711 17.2332 97.9361 17.1492 97.9361 17.0792C97.9361 16.8272 98.0481 16.6522 98.2721 16.5542C98.4961 16.4562 98.7271 16.4072 98.9651 16.4072C99.3011 16.4072 99.6581 16.3932 100.036 16.3652C100.428 16.3232 100.799 16.2672 101.149 16.1972C101.499 16.1132 101.814 16.0082 102.094 15.8822C102.374 15.7562 102.57 15.5952 102.682 15.3992C102.78 15.2312 102.717 15.0352 102.493 14.8112C102.283 14.5732 101.996 14.3282 101.632 14.0762C101.282 13.8242 100.897 13.5792 100.477 13.3412C100.071 13.1032 99.7211 12.8862 99.4271 12.6902C99.1331 12.4942 98.8811 12.2632 98.6711 11.9972C98.4611 11.7172 98.3281 11.3742 98.2721 10.9682C98.2581 10.6042 98.3351 10.2542 98.5031 9.91819C98.6711 9.58219 98.8881 9.28819 99.1541 9.03619C99.4341 8.77019 99.7491 8.56019 100.099 8.40619C100.449 8.25219 100.799 8.17519 101.149 8.17519C101.751 8.20319 102.248 8.37119 102.64 8.67919C103.032 8.97319 103.263 9.41419 103.333 10.0022C103.333 10.1982 103.298 10.3592 103.228 10.4852C103.172 10.6112 103.067 10.6882 102.913 10.7162C102.717 10.7442 102.556 10.7232 102.43 10.6532C102.318 10.5692 102.255 10.4642 102.241 10.3382ZM110.512 11.6822C109.966 12.0042 109.378 12.2562 108.748 12.4382C108.118 12.6062 107.439 12.6902 106.711 12.6902C106.739 13.1802 106.879 13.5722 107.131 13.8662C107.383 14.1462 107.698 14.3142 108.076 14.3702C108.3 14.3982 108.524 14.3912 108.748 14.3492C108.986 14.3072 109.203 14.2442 109.399 14.1602C109.609 14.0622 109.798 13.9572 109.966 13.8452C110.134 13.7332 110.281 13.6212 110.407 13.5092C110.533 13.3972 110.666 13.3272 110.806 13.2992C110.946 13.2572 111.051 13.2502 111.121 13.2782C111.317 13.3482 111.387 13.5582 111.331 13.9082C111.107 14.3562 110.785 14.7412 110.365 15.0632C109.945 15.3712 109.476 15.5672 108.958 15.6512C108.51 15.7352 108.048 15.7142 107.572 15.5882C107.096 15.4622 106.669 15.2172 106.291 14.8532C105.969 14.5312 105.724 14.1532 105.556 13.7192C105.388 13.2852 105.283 12.8372 105.241 12.3752C105.199 11.9412 105.234 11.5282 105.346 11.1362C105.472 10.7442 105.661 10.4012 105.913 10.1072C106.165 9.79919 106.48 9.54719 106.858 9.35119C107.236 9.15519 107.677 9.04319 108.181 9.01519C108.783 8.97319 109.329 9.08519 109.819 9.35119C110.309 9.61719 110.652 9.98819 110.848 10.4642C110.96 10.7302 110.988 10.9612 110.932 11.1572C110.89 11.3532 110.75 11.5282 110.512 11.6822ZM108.097 10.2542C107.957 10.2822 107.803 10.3312 107.635 10.4012C107.481 10.4712 107.334 10.5622 107.194 10.6742C107.068 10.7722 106.949 10.8912 106.837 11.0312C106.739 11.1572 106.683 11.3042 106.669 11.4722C106.907 11.4722 107.166 11.4512 107.446 11.4092C107.74 11.3672 108.02 11.3182 108.286 11.2622C108.566 11.1922 108.818 11.1152 109.042 11.0312C109.28 10.9472 109.476 10.8562 109.63 10.7582C109.518 10.4922 109.308 10.3312 109 10.2752C108.706 10.2052 108.405 10.1982 108.097 10.2542Z" fill="#089446"/>
<path d="M160.951 23.7561L159.174 18.2628L155.305 22.548L160.951 23.7561ZM119.923 13.7788C124.723 13.7977 131.89 14.211 138.962 15.3417C146.053 16.4753 152.975 18.3191 157.338 21.1595L157.884 20.3214C153.333 17.3594 146.233 15.4913 139.12 14.3542C131.989 13.2142 124.77 12.7979 119.927 12.7788L119.923 13.7788Z" fill="#089446"/>
</svg>
