<svg width="24" height="24" viewBox="0 0 24 24" fill="none" xmlns="http://www.w3.org/2000/svg">
<path d="M23.2302 24.0002H14.0603C13.6354 24.0002 13.291 23.6557 13.291 23.2309V0.769212C13.291 0.519056 13.4127 0.28449 13.6172 0.140387C13.8216 -0.003717 14.0835 -0.0392557 14.319 0.0447962L23.4889 3.32046C23.7951 3.42985 23.9994 3.7198 23.9994 4.04488V23.2309C23.9994 23.6557 23.655 24.0002 23.2302 24.0002ZM14.8295 22.4617H22.4609V4.58693L14.8295 1.86086V22.4617Z" fill="#6754E2"/>
<path d="M17.7553 4.68359H16.2168V6.75253H17.7553V4.68359Z" fill="#6754E2"/>
<path d="M17.7553 9.41406H16.2168V11.483H17.7553V9.41406Z" fill="#6754E2"/>
<path d="M17.7553 14.0938H16.2168V16.1627H17.7553V14.0938Z" fill="#6754E2"/>
<path d="M21.0463 9.41406H19.5078V11.483H21.0463V9.41406Z" fill="#6754E2"/>
<path d="M21.0463 14.0938H19.5078V16.1627H21.0463V14.0938Z" fill="#6754E2"/>
<path d="M17.7553 18.8242H16.2168V20.8932H17.7553V18.8242Z" fill="#6754E2"/>
<path d="M21.0463 18.8242H19.5078V20.8932H21.0463V18.8242Z" fill="#6754E2"/>
<path d="M9.93915 24.0002H0.769236C0.344413 24.0002 0 23.6558 0 23.231V4.04492C0 3.71984 0.204309 3.42989 0.510465 3.32051L9.68038 0.0448416C9.91592 -0.0393129 10.1777 -0.00367159 10.3822 0.140432C10.5867 0.284536 10.7084 0.51905 10.7084 0.769257V23.231C10.7084 23.6558 10.364 24.0002 9.93915 24.0002ZM1.53847 22.4617H9.16991V1.86091L1.53847 4.58698V22.4617Z" fill="#6754E2"/>
<path d="M14.0614 4.46289H9.93945V6.00136H14.0614V4.46289Z" fill="#6754E2"/>
<path d="M14.0614 22.4619H9.93945V24.0004H14.0614V22.4619Z" fill="#6754E2"/>
<path d="M7.78261 4.68359H6.24414V6.75253H7.78261V4.68359Z" fill="#6754E2"/>
<path d="M7.78261 9.41406H6.24414V11.483H7.78261V9.41406Z" fill="#6754E2"/>
<path d="M7.78261 14.0938H6.24414V16.1627H7.78261V14.0938Z" fill="#6754E2"/>
<path d="M4.4916 9.41406H2.95312V11.483H4.4916V9.41406Z" fill="#6754E2"/>
<path d="M4.4916 14.0938H2.95312V16.1627H4.4916V14.0938Z" fill="#6754E2"/>
<path d="M7.78261 18.8242H6.24414V20.8932H7.78261V18.8242Z" fill="#6754E2"/>
<path d="M4.4916 18.8242H2.95312V20.8932H4.4916V18.8242Z" fill="#6754E2"/>
</svg>
