<svg width="22" height="22" viewBox="0 0 22 22" fill="none" xmlns="http://www.w3.org/2000/svg">
<path fill-rule="evenodd" clip-rule="evenodd" d="M10.6094 0H14.3142V1.12797H10.6094V0ZM18.8344 18.5583H15.6372V19.6862H18.8344C19.4206 19.6862 19.8958 19.1812 19.8958 18.5583V15.8893H18.8344V18.5583ZM1.06135 14.4831V10.5461H0V14.4831H1.06135ZM0 15.8893V18.5583C0 19.1812 0.47518 19.6862 1.06135 19.6862H4.25847V18.5583H1.06135V15.8893H0ZM18.8344 14.4831H19.8958V10.5461H18.8344V14.4831ZM19.8958 5.20273V9.13996H18.8344V5.20273H19.8958ZM1.06135 3.79658V1.12797H4.25847V0H1.06135C0.47518 0 0 0.505012 0 1.12797V3.79658H1.06135ZM0 5.20273V9.13996H1.06135V5.20273H0ZM18.8344 3.79658V1.12797H15.6372V0H18.8344C19.4206 0 19.8958 0.505011 19.8958 1.12797V3.79658H18.8344ZM10.6094 18.5583H14.3142V19.6862H10.6094V18.5583ZM9.28631 0H5.58161V1.12797H9.28631V0ZM9.28631 18.5583H5.58161V19.6862H9.28631V18.5583Z" fill="white"/>
<path d="M19.895 16.416H18.8682V22.0003H19.895V16.416Z" fill="white"/>
<path d="M18.0989 18.6145V19.6865H22V18.6145H18.0989Z" fill="white"/>
<path fill-rule="evenodd" clip-rule="evenodd" d="M13.8273 5.99251H15.1853C15.8302 5.99251 16.3529 6.5481 16.3529 7.23347V13.0077C16.3529 13.693 15.8302 14.2486 15.1853 14.2486H4.71063C4.06579 14.2486 3.54297 13.693 3.54297 13.0077V7.23347C3.54297 6.5481 4.06579 5.99251 4.71063 5.99251H6.06868C6.2478 5.55168 6.66057 5.24316 7.14112 5.24316H12.7549C13.2354 5.24316 13.6482 5.55168 13.8273 5.99251Z" fill="white"/>
<path d="M10.2175 12.4088C11.346 12.4088 12.2609 11.4365 12.2609 10.2371C12.2609 9.03772 11.346 8.06543 10.2175 8.06543C9.08894 8.06543 8.17407 9.03772 8.17407 10.2371C8.17407 11.4365 9.08894 12.4088 10.2175 12.4088Z" fill="white" stroke="#593CCA" stroke-width="2"/>
</svg>
