<svg width="17" height="18" viewBox="0 0 17 18" fill="none" xmlns="http://www.w3.org/2000/svg">
<g opacity="0.8">
<path fill-rule="evenodd" clip-rule="evenodd" d="M13.2222 0.9V1.8H14.1667C15.7288 1.8 17 3.0114 17 4.5V15.3C17 16.7886 15.7288 18 14.1667 18H2.83333C1.27122 18 0 16.7886 0 15.3V4.5C0 3.0114 1.27122 1.8 2.83333 1.8H3.77778V0.9C3.77778 0.405 4.20278 0 4.72222 0C5.24167 0 5.66667 0.405 5.66667 0.9V1.8H11.3333V0.9C11.3333 0.405 11.7583 0 12.2778 0C12.7972 0 13.2222 0.405 13.2222 0.9ZM1.88867 16.1929H15.1109V4.49996C15.1109 4.00406 14.6868 3.59996 14.1664 3.59996H13.222V4.49996C13.222 4.99496 12.797 5.39996 12.2776 5.39996C11.7581 5.39996 11.3331 4.99496 11.3331 4.49996V3.59996H5.66645V4.49996C5.66645 4.99496 5.24145 5.39996 4.722 5.39996C4.20256 5.39996 3.77756 4.99496 3.77756 4.49996V3.59996H2.83312C2.31273 3.59996 1.88867 4.00406 1.88867 4.49996V16.1929ZM8.50011 13.4999H12.2779C12.7973 13.4999 13.2223 13.0949 13.2223 12.5999C13.2223 12.1049 12.7973 11.6999 12.2779 11.6999H8.50011C7.98066 11.6999 7.55566 12.1049 7.55566 12.5999C7.55566 13.0949 7.98066 13.4999 8.50011 13.4999ZM4.72228 13.4999C4.20283 13.4999 3.77783 13.0949 3.77783 12.5999C3.77783 12.1049 4.20283 11.6999 4.72228 11.6999C5.24172 11.6999 5.66672 12.1049 5.66672 12.5999C5.66672 13.0949 5.24172 13.4999 4.72228 13.4999Z" fill="#4A4C55"/>
<mask id="mask0_6_4" style="mask-type:alpha" maskUnits="userSpaceOnUse" x="0" y="0" width="17" height="18">
<path fill-rule="evenodd" clip-rule="evenodd" d="M13.2222 0.9V1.8H14.1667C15.7288 1.8 17 3.0114 17 4.5V15.3C17 16.7886 15.7288 18 14.1667 18H2.83333C1.27122 18 0 16.7886 0 15.3V4.5C0 3.0114 1.27122 1.8 2.83333 1.8H3.77778V0.9C3.77778 0.405 4.20278 0 4.72222 0C5.24167 0 5.66667 0.405 5.66667 0.9V1.8H11.3333V0.9C11.3333 0.405 11.7583 0 12.2778 0C12.7972 0 13.2222 0.405 13.2222 0.9ZM1.88867 16.1929H15.1109V4.49996C15.1109 4.00406 14.6868 3.59996 14.1664 3.59996H13.222V4.49996C13.222 4.99496 12.797 5.39996 12.2776 5.39996C11.7581 5.39996 11.3331 4.99496 11.3331 4.49996V3.59996H5.66645V4.49996C5.66645 4.99496 5.24145 5.39996 4.722 5.39996C4.20256 5.39996 3.77756 4.99496 3.77756 4.49996V3.59996H2.83312C2.31273 3.59996 1.88867 4.00406 1.88867 4.49996V16.1929ZM8.50011 13.4999H12.2779C12.7973 13.4999 13.2223 13.0949 13.2223 12.5999C13.2223 12.1049 12.7973 11.6999 12.2779 11.6999H8.50011C7.98066 11.6999 7.55566 12.1049 7.55566 12.5999C7.55566 13.0949 7.98066 13.4999 8.50011 13.4999ZM4.72228 13.4999C4.20283 13.4999 3.77783 13.0949 3.77783 12.5999C3.77783 12.1049 4.20283 11.6999 4.72228 11.6999C5.24172 11.6999 5.66672 12.1049 5.66672 12.5999C5.66672 13.0949 5.24172 13.4999 4.72228 13.4999Z" fill="white"/>
</mask>
<g mask="url(#mask0_6_4)">
</g>
</g>
</svg>
