<?xml version="1.0" encoding="UTF-8"?>
<svg xmlns="http://www.w3.org/2000/svg" width="22" height="24" viewBox="0 0 22 24" fill="none">
  <g clip-path="url(#clip0_2_13)">
    <path d="M20.4192 8.2457C20.274 8.3519 17.7101 9.71354 17.7101 12.7412C17.7101 16.2433 20.9725 17.4822 21.0702 17.5129C21.0551 17.5884 20.5519 19.2096 19.3501 20.8615C18.2785 22.3152 17.1593 23.7665 15.4567 23.7665C13.7542 23.7665 13.316 22.8344 11.3506 22.8344C9.43518 22.8344 8.75416 23.7972 7.19682 23.7972C5.63948 23.7972 4.55284 22.4521 3.30347 20.8002C1.85629 18.8604 0.687036 15.8468 0.687036 12.9867C0.687036 8.3991 3.85179 5.96608 6.96647 5.96608C8.62146 5.96608 10.001 6.99026 11.0401 6.99026C12.0291 6.99026 13.5714 5.90472 15.4542 5.90472C16.1678 5.90472 18.7316 5.96608 20.4192 8.2457V8.2457ZM14.5604 3.96256C15.339 3.09177 15.8899 1.88352 15.8899 0.67527C15.8899 0.50772 15.8749 0.33781 15.8423 0.200938C14.5754 0.245776 13.0681 0.996211 12.1593 1.98971C11.4457 2.75431 10.7797 3.96256 10.7797 5.18732C10.7797 5.37139 10.8122 5.55546 10.8273 5.61446C10.9074 5.62862 11.0376 5.64514 11.1678 5.64514C12.3045 5.64514 13.7341 4.92774 14.5604 3.96256Z" fill="white"></path>
  </g>
  <defs>
    <clipPath id="clip0_2_13">
      <rect width="20.3806" height="23.5986" fill="white" transform="translate(0.6875 0.200928)"></rect>
    </clipPath>
  </defs>
</svg>
