<?xml version="1.0" encoding="UTF-8"?>
<svg xmlns="http://www.w3.org/2000/svg" width="30" height="17" viewBox="0 0 30 17" fill="none">
  <path d="M16.4203 14.6457C15.0567 16.0195 13.2143 16.6698 11.2978 16.6698C9.33756 16.6698 7.55537 15.9652 6.26386 14.5935C4.97255 13.2221 4.18445 11.1975 4.18445 8.57975C4.18445 5.8924 4.99984 3.80981 6.3387 2.39781C7.67767 0.985686 9.52737 0.25805 11.5683 0.258046L16.4203 14.6457ZM16.4203 14.6457C17.7848 13.2709 18.6548 11.1868 18.6548 8.3477M16.4203 14.6457L18.6548 8.3477M18.6548 8.3477C18.6548 5.75442 17.8944 3.73007 16.6202 2.35248M18.6548 8.3477L16.6202 2.35248M16.6202 2.35248C15.3453 0.974179 13.5693 0.257842 11.5684 0.258046L16.6202 2.35248ZM1.0944 16.2769V16.4378H1.2553H1.75845H1.91935V16.2769V5.14821V4.98731H1.75845H1.2553H1.0944V5.14821V16.2769ZM20.4237 14.9333L20.2737 14.8427L20.1962 14.9999L19.9676 15.4634L19.9064 15.5876L20.0201 15.6666C20.4254 15.9485 21.0273 16.1922 21.6919 16.3656C22.3588 16.5396 23.1014 16.646 23.7944 16.646C25.4621 16.646 26.7811 16.1615 27.6856 15.3626C28.5911 14.5629 29.0697 13.4577 29.0697 12.2427C29.0697 11.113 28.7158 10.2762 28.0259 9.5796C27.3446 8.89169 26.3421 8.34732 25.0619 7.77864L25.0604 7.778C24.9899 7.74753 24.92 7.71739 24.8508 7.68753C23.832 7.24814 22.9552 6.87001 22.3167 6.38294C21.6477 5.87262 21.252 5.25124 21.252 4.31234C21.252 2.95617 22.4282 1.06591 25.2039 1.06591C25.8287 1.06591 26.4293 1.1526 26.9262 1.27326C27.4268 1.39482 27.8095 1.54774 28.0051 1.67285L28.1548 1.76858L28.2353 1.61015L28.4385 1.20991L28.5047 1.07955L28.3813 1.00121C27.8383 0.656615 26.7069 0.28062 25.2263 0.28062C22.4566 0.28062 20.3602 1.94877 20.3602 4.35993C20.3602 5.51852 20.8708 6.33674 21.6503 6.96435C22.4212 7.58503 23.4603 8.02358 24.529 8.43618C25.7191 8.89561 26.6444 9.38566 27.2717 10.0038C27.8923 10.6153 28.2272 11.3579 28.2272 12.345C28.2272 14.4435 26.221 15.9128 23.8947 15.9128C22.6749 15.9128 21.2463 15.4304 20.4237 14.9333ZM1.4868 2.3734C1.68237 2.3734 1.85244 2.30986 1.97413 2.18896C2.0955 2.06836 2.15512 1.90414 2.15512 1.72847C2.15512 1.38092 1.90375 1.08334 1.51349 1.08334C1.1454 1.08334 0.858632 1.37202 0.858632 1.72847C0.858632 2.09054 1.12606 2.3734 1.4868 2.3734ZM11.3216 15.8617C9.27225 15.8617 7.70252 15.0561 6.64172 13.7376C5.57765 12.415 5.01614 10.5639 5.01614 8.46362C5.01614 6.41594 5.58714 4.58057 6.68972 3.26018C7.78925 1.94344 9.42827 1.1253 11.5973 1.1253C13.7618 1.1253 15.3053 1.99164 16.3123 3.32587C17.3238 4.66601 17.8031 6.49134 17.8031 8.41522C17.8031 10.4862 17.2063 12.3496 16.1016 13.692C14.9996 15.0312 13.3847 15.8617 11.3216 15.8617Z" fill="white" stroke="white" stroke-width="0.321799"></path>
</svg>
