<?xml version="1.0" encoding="UTF-8"?>
<svg xmlns="http://www.w3.org/2000/svg" width="21" height="25" viewBox="0 0 21 25" fill="none">
  <path d="M4.4857 16.7438C4.42274 16.4189 4.29682 16.0588 4.2943 15.6961C4.28171 14.4949 4.7728 13.4472 5.38478 12.4499C5.39737 12.4298 5.43011 12.4222 5.45277 12.4071C5.42255 12.5632 5.35204 12.6866 5.28656 12.81C4.83576 13.6764 4.4303 14.5603 4.41015 15.5627C4.39756 16.1092 4.50585 16.6305 4.96924 17.0662C4.9642 16.9503 4.95161 16.8697 4.95413 16.7866C4.96672 16.3988 4.95161 16.0059 5.00198 15.6231C5.13294 14.6585 5.48048 13.7695 5.94386 12.9108C6.24356 12.3517 6.60873 11.9487 7.2207 11.78C7.31136 11.7548 7.39195 11.6893 7.51787 11.6213C7.34158 11.5105 7.21063 11.435 7.08471 11.3468C6.79257 11.1479 6.71702 10.8633 6.87064 10.5435C6.94871 10.3823 7.01419 10.206 7.13004 10.0801C7.55817 9.60661 7.77979 9.06515 7.72942 8.42296C7.7269 8.40785 7.73194 8.39022 7.73446 8.37511C7.76468 8.20637 7.72438 8.07541 7.6035 7.9369C7.13004 7.39544 7.17033 6.8288 7.70927 6.36541C7.84275 6.25208 7.83771 6.16897 7.77727 6.01787C7.54809 5.44367 7.49521 4.84933 7.70927 4.26002C7.88808 3.76893 8.40184 3.61782 8.78212 3.94522C9.03648 4.16432 9.22284 4.44386 9.27069 4.7914C9.29336 4.95762 9.30091 5.12635 9.31602 5.29257C9.63838 5.29257 9.95066 5.29257 10.2806 5.29257C10.2806 5.20946 10.2906 5.12887 10.2781 5.0508C10.2327 4.69822 10.3637 4.39853 10.5475 4.11395C10.9203 3.5322 11.779 3.41131 12.2046 3.9024C12.6051 4.36327 12.8317 4.90725 12.7209 5.53685C12.6806 5.76351 12.6 5.98261 12.5346 6.21682C12.7839 6.37045 12.9627 6.59459 12.9325 6.90687C12.9048 7.17634 12.8116 7.43826 12.7562 7.70773C12.7335 7.81602 12.6957 7.94698 12.7335 8.04519C12.8418 8.3474 12.9828 8.63954 13.1138 8.93419C13.2624 9.26662 13.4236 9.59402 13.5646 9.92645C13.9323 10.7877 14.2924 11.6541 14.6525 12.5204C14.7936 12.8629 14.9522 13.2054 15.053 13.563C15.3577 14.6611 15.4207 15.7818 15.325 16.9125C15.3124 17.046 15.335 17.109 15.471 17.1644C15.743 17.2727 15.884 17.4943 15.884 17.794C15.884 17.9149 15.8563 18.0408 15.874 18.1566C15.8916 18.2725 15.9294 18.411 16.0074 18.484C16.3147 18.761 16.8033 18.7661 17.1609 18.5495C17.5865 18.2901 17.8434 17.8922 18.128 17.4414C17.3649 16.8319 16.559 16.7362 15.67 17.1593C15.7682 17.0586 15.8664 16.9276 15.9823 16.91C16.3248 16.8672 16.4154 16.6279 16.4935 16.3585C16.5388 16.1973 16.5942 16.0336 16.6396 15.8699C16.9594 14.646 16.7428 13.5353 15.9092 12.5758C15.6926 12.324 15.4181 12.1275 15.1688 11.9059C15.7506 12.1981 16.224 12.6212 16.5539 13.1777C17.2616 14.3715 16.9972 15.5853 16.5917 16.7992C17.5462 16.8647 17.8736 16.9805 18.2488 17.3835C18.3823 17.3684 18.5133 17.3633 18.6367 17.3356C18.6946 17.323 18.7701 17.2752 18.7878 17.2273C18.8658 17.0057 18.9414 16.7816 18.9842 16.5549C19.1127 15.8724 18.954 15.2126 18.7626 14.5679C18.3596 13.2029 17.6872 11.9689 16.8637 10.8129C16.3474 10.0876 15.8135 9.36736 15.3778 8.59169C14.7558 7.48359 14.4284 6.27727 14.4511 4.98784C14.4611 4.52445 14.4334 4.04847 14.3478 3.59012C14.1967 2.78423 13.9272 2.00855 13.3329 1.41925C12.2097 0.308625 10.8573 -0.0414346 9.32861 0.36403C8.57057 0.562985 7.88556 0.910526 7.45491 1.61568C7.10737 2.18736 6.97138 2.82704 6.97641 3.47679C6.98649 4.67555 6.98649 5.88188 7.10989 7.07057C7.2207 8.12075 7.03686 9.02234 6.31911 9.81312C6.03201 10.1279 5.78269 10.483 5.53084 10.8331C4.47815 12.2837 3.79818 13.9207 3.17613 15.5878C3.01999 16.0109 2.95451 16.4416 3.10058 16.8974C3.57656 16.565 4.05505 16.4643 4.4857 16.7438ZM13.625 7.50877C13.8592 7.62714 14.0834 7.76565 14.2949 7.92179C14.3755 7.98223 14.4032 8.11067 14.4284 8.15852C14.4284 8.46073 14.2244 8.59924 14.0154 8.4834C13.6981 8.30711 13.5318 8.01749 13.4638 7.66995C13.4412 7.54655 13.5142 7.45337 13.625 7.50877ZM11.8747 3.34835C12.25 3.3005 12.6454 3.62538 12.7587 4.08121C12.5346 3.75382 12.2928 3.44909 11.8747 3.34835ZM12.0309 1.38651C12.2802 1.39154 12.3683 1.58294 12.4414 1.77182C12.5144 1.96322 12.3356 1.99344 12.2349 2.07403C12.2097 2.09166 12.1795 2.10425 12.1492 2.11433C11.8143 2.25788 11.7261 2.19995 11.7287 1.83478C11.7337 1.49228 11.8042 1.38399 12.0309 1.38651ZM9.33617 4.07114C9.08936 3.86966 8.84004 3.66819 8.61338 3.48435C8.87782 3.45916 9.2178 3.71604 9.33617 4.07114ZM8.23058 23.2287C8.31117 23.6191 8.11726 23.9188 7.77223 24.153C7.65891 24.2285 7.55313 24.3242 7.45995 24.4224C7.04693 24.8556 6.54073 24.9412 5.98416 24.8078C5.69454 24.7372 5.40492 24.6491 5.1279 24.5358C4.07772 24.1152 2.98977 23.8407 1.88418 23.6165C1.5039 23.541 1.12614 23.4377 0.763487 23.3068C0.244694 23.1229 0.0809967 22.8232 0.18677 22.2893C0.342912 21.5187 0.350467 20.7481 0.224546 19.9699C0.126328 19.3629 0.277433 19.1464 0.874297 18.9877C1.10095 18.9273 1.32761 18.8593 1.55931 18.819C1.9824 18.7434 2.29972 18.5193 2.54904 18.1768C2.76814 17.8771 2.97969 17.5623 3.23657 17.2978C3.69492 16.8269 4.1029 16.8093 4.53103 17.2928C5.00701 17.8318 5.44018 18.411 5.84061 19.0079C6.51554 20.0077 7.08471 21.0755 7.86541 22.0098C8.14748 22.3422 8.27592 22.7427 8.23058 23.2287ZM20.7043 21.6799C20.4802 21.8612 20.2283 22.0148 19.9739 22.1584C18.8961 22.7754 17.8484 23.4352 16.9468 24.299C16.5061 24.7221 15.9772 24.8606 15.3879 24.8531C15.2192 24.8405 15.0479 24.843 14.8792 24.8204C14.2597 24.7398 13.8945 24.3847 13.761 23.7752C13.6527 23.2715 13.688 22.7704 13.7938 22.2818C14.0884 20.9395 14.1035 19.5795 14.1186 18.2196C14.1287 17.6026 14.2748 17.4162 14.9623 17.4414C15.4408 17.4565 15.5038 17.5245 15.4509 17.9879C15.3904 18.5621 15.816 18.9953 16.4683 19.0557C17.1911 19.1262 17.652 18.7157 18.0751 18.2246C18.1632 18.1214 18.2262 17.9954 18.3042 17.8821C18.4931 17.6076 18.8684 17.6227 18.9993 17.9325C19.0774 18.1189 19.1177 18.3455 19.095 18.5445C19.0371 19.0053 19.226 19.3579 19.5357 19.65C19.8833 19.9749 20.2485 20.2847 20.6363 20.5617C21.0795 20.8765 21.1324 21.3323 20.7043 21.6799ZM9.32358 8.96441C9.94311 9.07271 10.5072 8.93419 11.0285 8.57406C11.3081 8.38266 11.5977 8.18874 11.91 8.06786C12.3835 7.88402 12.6277 7.57677 12.663 7.07309C12.6932 6.66007 12.6177 6.50644 12.2223 6.34778C12.0284 6.26971 11.8269 6.20171 11.5876 6.11609C11.915 6.00528 12.1064 5.82395 12.1341 5.51167C12.1593 5.2145 12.0712 4.94754 11.8722 4.72844C11.6884 4.52949 11.4416 4.54208 11.2124 4.62015C10.9555 4.70829 10.885 4.94754 10.8648 5.18679C10.8472 5.39834 10.8623 5.60989 10.8623 5.82395C10.2227 5.42101 9.55527 5.45878 8.8753 5.7207C8.8476 5.47893 8.8476 5.23212 8.78464 5.00295C8.7116 4.72592 8.44969 4.55971 8.22303 4.59748C8.00393 4.63274 7.86038 4.85184 7.8503 5.15657C7.83519 5.56959 8.02659 5.88439 8.32125 6.16646C8.17014 6.29741 8.02659 6.41326 7.88808 6.53666C7.42973 6.93709 7.39195 7.36774 7.8226 7.8135C8.16762 8.16608 8.54287 8.49095 8.92063 8.81079C9.02892 8.89642 9.18758 8.94175 9.32358 8.96441ZM11.6002 4.77125C11.6783 4.82414 11.769 4.86444 11.8244 4.93495C11.8596 4.98028 11.8395 5.06843 11.847 5.13894C11.8218 5.14398 11.7967 5.14902 11.7715 5.15405C11.6959 5.0508 11.6179 4.94503 11.5423 4.84177C11.5624 4.8191 11.5801 4.79392 11.6002 4.77125ZM9.99347 5.80632C10.1169 5.82395 10.2453 5.82647 10.3612 5.86928C10.4065 5.88439 10.4191 5.98765 10.4468 6.05313C10.4241 6.07076 10.3989 6.0909 10.3763 6.10853C10.2378 6.04054 10.1018 5.97506 9.96577 5.90706C9.97333 5.8718 9.9834 5.83906 9.99347 5.80632ZM9.04655 5.88439C9.10951 5.85165 9.19514 5.85921 9.26817 5.84914C9.27825 5.8718 9.2858 5.89447 9.29587 5.91713C9.23795 5.96498 9.18506 6.02794 9.11959 6.05313C9.06166 6.07579 8.98611 6.05565 8.91811 6.05061C8.95841 5.9952 8.98863 5.91713 9.04655 5.88439ZM8.31621 4.8594C8.3288 4.84177 8.3414 4.82414 8.35399 4.80903C8.41695 4.83422 8.51768 4.84429 8.53531 4.8871C8.58064 4.99036 8.58568 5.11124 8.60835 5.22457C8.57813 5.22457 8.55042 5.22457 8.52272 5.22205C8.45472 5.10117 8.38673 4.98028 8.31621 4.8594ZM7.6312 7.35263C7.65639 7.32996 7.67905 7.3073 7.70424 7.28715C7.77979 7.34004 7.86038 7.38537 7.92838 7.44833C8.67634 8.13082 9.51498 8.15097 10.3863 7.75054C10.9127 7.50625 11.4113 7.19901 11.9276 6.92954C12.0359 6.87161 12.1618 6.8565 12.2802 6.81873C12.2928 6.84391 12.3003 6.86909 12.3129 6.8968C12.2726 6.94213 12.2424 7.00257 12.1921 7.03279C11.4693 7.47855 10.7717 7.9772 9.92548 8.1686C9.14477 8.34488 8.42954 8.21141 7.83771 7.62966C7.75461 7.55158 7.6992 7.44329 7.6312 7.35263ZM13.5747 20.8362C13.4513 21.8184 13.3329 22.7452 13.212 23.7097C11.7337 23.337 10.2 23.6694 8.68642 23.6669C8.65368 23.2463 8.61842 22.8182 8.58568 22.3876C10.4367 22.6142 12.1316 22.1962 13.5747 20.8362ZM7.13256 19.0481C7.37432 19.2496 7.61609 19.4561 7.84275 19.6727C8.05681 19.8767 8.11474 20.1462 8.07948 20.4308C8.04926 20.675 7.8226 20.8916 7.58335 20.8816C7.51284 20.879 7.42721 20.7859 7.37936 20.7153C6.85049 19.8843 6.32415 19.0481 5.79276 18.2171C5.66936 18.0257 5.53084 17.8469 5.39737 17.6655C5.40241 17.6555 5.40996 17.6454 5.415 17.6353C5.9892 18.1063 6.5634 18.5747 7.13256 19.0481Z" fill="white"></path>
</svg>
