<?xml version="1.0" encoding="UTF-8"?>
<svg xmlns="http://www.w3.org/2000/svg" width="23" height="28" viewBox="0 0 23 28" fill="none">
  <path d="M11.3946 15.7987C15.0968 15.7987 18.098 12.9463 18.098 9.42771C18.098 5.90913 15.0968 3.05676 11.3946 3.05676C7.69243 3.05676 4.69122 5.90913 4.69122 9.42771C4.69122 12.9463 7.69243 15.7987 11.3946 15.7987Z" fill="white" stroke="#6754E2" stroke-width="1.07266"></path>
  <path d="M16.4772 7.83492H6.31163C5.41659 7.83492 4.69103 8.58197 4.69103 9.50351V19.9701C4.69103 20.8916 5.41659 21.6386 6.31163 21.6386H16.4772C17.3722 21.6386 18.0978 20.8916 18.0978 19.9701V9.50351C18.0978 8.58197 17.3722 7.83492 16.4772 7.83492Z" fill="white" stroke="#6754E2" stroke-width="1.07266"></path>
  <path d="M6.81521 2.03731C6.68699 1.79923 6.77055 1.49926 7.00184 1.3673C7.23314 1.23535 7.52459 1.32138 7.65281 1.55945L10.2602 6.40082C10.3884 6.6389 10.3049 6.93887 10.0736 7.07083C9.84229 7.20279 9.55085 7.11676 9.42262 6.87868L6.81521 2.03731Z" fill="white" stroke="#6754E2" stroke-width="1.07266"></path>
  <path d="M18.393 11.2482C18.393 10.2429 19.1845 9.4279 20.1609 9.4279C21.1373 9.4279 21.9288 10.2429 21.9288 11.2482V17.695C21.9288 18.7003 21.1373 19.5152 20.1609 19.5152C19.1845 19.5152 18.393 18.7003 18.393 17.695V11.2482Z" fill="white" stroke="#6754E2" stroke-width="1.07266"></path>
  <path d="M12.1309 18.6052C12.1309 17.5999 12.9224 16.7849 13.8988 16.7849C14.8752 16.7849 15.6667 17.5999 15.6667 18.6052V25.052C15.6667 26.0573 14.8752 26.8723 13.8988 26.8723C12.9224 26.8723 12.1309 26.0573 12.1309 25.052V18.6052Z" fill="white" stroke="#6754E2" stroke-width="1.07266"></path>
  <path d="M15.973 2.03721C16.1012 1.79913 16.0177 1.49916 15.7864 1.3672C15.5551 1.23525 15.2636 1.32128 15.1354 1.55935L12.528 6.40072C12.3998 6.6388 12.4833 6.93877 12.7146 7.07073C12.9459 7.20269 13.2374 7.11666 13.3656 6.87858L15.973 2.03721Z" fill="white" stroke="#6754E2" stroke-width="1.07266"></path>
  <path d="M4.39523 11.2481C4.39523 10.2428 3.6037 9.4278 2.6273 9.4278C1.6509 9.4278 0.859375 10.2428 0.859375 11.2481V17.6949C0.859375 18.7002 1.6509 19.5151 2.6273 19.5151C3.6037 19.5151 4.39523 18.7002 4.39523 17.6949V11.2481Z" fill="white" stroke="#6754E2" stroke-width="1.07266"></path>
  <path d="M10.6552 18.6051C10.6552 17.5998 9.8637 16.7848 8.8873 16.7848C7.9109 16.7848 7.11938 17.5998 7.11938 18.6051V25.0519C7.11938 26.0572 7.9109 26.8722 8.8873 26.8722C9.8637 26.8722 10.6552 26.0572 10.6552 25.0519V18.6051Z" fill="white" stroke="#6754E2" stroke-width="1.07266"></path>
  <path d="M11.3946 15.7987C15.0968 15.7987 18.098 12.9463 18.098 9.42771C18.098 5.90913 15.0968 3.05676 11.3946 3.05676C7.69243 3.05676 4.69122 5.90913 4.69122 9.42771C4.69122 12.9463 7.69243 15.7987 11.3946 15.7987Z" fill="white"></path>
  <path d="M16.4772 7.83492H6.31163C5.41659 7.83492 4.69103 8.58197 4.69103 9.50351V19.9701C4.69103 20.8916 5.41659 21.6386 6.31163 21.6386H16.4772C17.3722 21.6386 18.0978 20.8916 18.0978 19.9701V9.50351C18.0978 8.58197 17.3722 7.83492 16.4772 7.83492Z" fill="white"></path>
  <path d="M4.39515 9.69369H18.3912H4.39515Z" fill="#F7FAFF"></path>
  <path d="M4.39515 9.69369H18.3912" stroke="#6754E2" stroke-width="1.07266"></path>
  <path d="M8.29957 6.62068C8.4623 6.62068 8.59422 6.48511 8.59422 6.31787C8.59422 6.15063 8.4623 6.01505 8.29957 6.01505C8.13683 6.01505 8.00491 6.15063 8.00491 6.31787C8.00491 6.48511 8.13683 6.62068 8.29957 6.62068Z" fill="#F7FAFF" stroke="#6754E2" stroke-width="1.07266"></path>
  <path d="M14.4862 6.62068C14.649 6.62068 14.7809 6.48511 14.7809 6.31787C14.7809 6.15063 14.649 6.01505 14.4862 6.01505C14.3235 6.01505 14.1916 6.15063 14.1916 6.31787C14.1916 6.48511 14.3235 6.62068 14.4862 6.62068Z" fill="#F7FAFF" stroke="#6754E2" stroke-width="1.07266"></path>
</svg>
