<svg width="114" height="19" viewBox="0 0 114 19" fill="none" xmlns="http://www.w3.org/2000/svg">
<path d="M7.72362 6.9648C7.72362 6.9648 6.78741 6.86864 6.78741 7.72988V11.5553H12.9699V12.7034C12.9699 12.7034 12.9884 13.277 12.4079 13.277H6.78741V18.2505H13.532C13.532 18.2505 17.6156 17.5998 17.6534 13.277V6.9648H7.72362ZM17.4655 0.843262H5.28836C0.885131 1.91422 0.791992 5.64434 0.791992 5.64434V18.2505H5.47624V6.77332C5.47624 5.79768 6.41245 5.6261 6.41245 5.6261H17.4663V0.843262H17.4655ZM33.5416 14.643C33.2204 14.8644 32.9827 15.0268 32.8149 15.1304C32.2144 15.5142 31.6419 15.8101 31.1111 16.0464C30.3427 16.3713 29.6579 16.5338 29.0436 16.5338C26.9343 16.5338 25.188 15.869 23.7764 14.5245C22.3649 13.18 21.668 11.4965 21.668 9.45817C21.668 7.49364 22.2967 5.79437 23.5677 4.34625C24.8387 2.89897 26.3755 2.18942 28.1917 2.18942C28.9465 2.18942 29.7558 2.32205 30.5941 2.60388C31.6836 2.95782 32.5636 3.48999 33.2622 4.18379L32.0465 5.57222C31.5303 5.05581 30.8598 4.67119 30.077 4.43495C29.4908 4.25756 28.8485 4.1697 28.1355 4.1697C26.8645 4.1697 25.7886 4.7002 24.9367 5.74961C24.0848 6.81311 23.652 8.06891 23.652 9.54604C23.652 11.0091 24.1402 12.2052 25.1181 13.1659C26.0961 14.1258 27.339 14.6132 28.8477 14.6132C29.4764 14.6132 30.1195 14.406 30.7755 14.0081C31.3207 13.5795 31.6001 13.3723 31.6138 13.3574V10.3294H27.5349L28.1211 8.43861H33.5416V14.643ZM45.8624 10.9494C45.8624 12.4116 45.3598 13.6823 44.3537 14.7458C43.3477 15.8093 42.1048 16.3564 40.6242 16.3564C39.2552 16.3564 38.054 15.8242 37.0198 14.7757C35.9857 13.7271 35.4831 12.4564 35.4831 10.9643C35.4831 9.48718 35.9728 8.21646 36.95 7.12312C37.9271 6.02978 39.1291 5.49845 40.5399 5.49845C42.1048 5.49845 43.3758 6.01569 44.3674 7.06427C45.3598 8.08383 45.8624 9.38357 45.8624 10.9494ZM43.9483 10.9792C43.9483 9.98951 43.6271 9.14733 42.9848 8.46762C42.3424 7.77299 41.5459 7.43313 40.5961 7.43313C39.7024 7.43313 38.9477 7.78791 38.319 8.49746C37.6903 9.20618 37.3828 10.0185 37.3828 10.9345C37.3828 11.8952 37.7039 12.7075 38.3326 13.3872C38.9613 14.0669 39.7442 14.4209 40.6932 14.4209C41.574 14.4209 42.328 14.081 42.9711 13.4013C43.6271 12.7216 43.9491 11.9093 43.9491 10.9792H43.9483ZM58.0155 10.9494C58.0155 12.4116 57.5128 13.6823 56.5068 14.7458C55.5007 15.8093 54.2578 16.3564 52.7772 16.3564C51.4082 16.3564 50.207 15.8242 49.1729 14.7757C48.1395 13.7271 47.6361 12.4564 47.6361 10.9643C47.6361 9.48718 48.1259 8.21646 49.103 7.12312C50.081 6.02978 51.2822 5.49845 52.6929 5.49845C54.2578 5.49845 55.5288 6.01569 56.5204 7.06427C57.5128 8.08383 58.0155 9.38357 58.0155 10.9494ZM56.1013 10.9792C56.1013 9.98951 55.7801 9.14733 55.1378 8.46762C54.4954 7.77299 53.6989 7.43313 52.7491 7.43313C51.8554 7.43313 51.1007 7.78791 50.472 8.49746C49.8433 9.20618 49.5358 10.0185 49.5358 10.9345C49.5358 11.8952 49.857 12.7075 50.4865 13.3872C51.1143 14.0669 51.8972 14.4209 52.847 14.4209C53.7271 14.4209 54.481 14.081 55.1241 13.4013C55.7801 12.7216 56.1021 11.9093 56.1021 10.9792H56.1013ZM69.2612 16.0605L67.5012 16.3415V14.5834L67.1238 15.026C66.7914 15.3475 66.4148 15.6165 66.0061 15.8242C65.4064 16.1098 64.7532 16.2561 64.0928 16.2528C62.7238 16.2528 61.5499 15.7355 60.6001 14.6861C59.6502 13.6367 59.1757 12.3967 59.1757 10.9494C59.1757 9.45734 59.6502 8.17252 60.5864 7.1082C61.5226 6.04387 62.6676 5.51254 64.0366 5.51254C64.8194 5.51254 65.5035 5.64516 66.076 5.91125C66.4815 6.10355 66.8307 6.35472 67.1238 6.66556C67.2218 6.79818 67.3197 6.94573 67.4177 7.07836V2.46959L69.2885 2.18859L69.2612 16.0605ZM67.6128 11.082C67.6128 10.0484 67.2772 9.17634 66.5931 8.46762C65.909 7.74315 65.1398 7.3892 64.2606 7.3892C63.2826 7.3892 62.5006 7.72906 61.9 8.40877C61.3404 9.05781 61.0473 9.85605 61.0473 10.7869C61.0473 11.8355 61.3404 12.7067 61.9273 13.3864C62.5134 14.0661 63.2545 14.406 64.1626 14.406C65.0563 14.406 65.8391 14.0959 66.5377 13.461C67.2499 12.8103 67.6136 12.0129 67.6136 11.082H67.6128ZM79.1371 4.39102H73.8989V8.06891H77.9633V9.95967H73.8989V16.0464L71.8594 16.3564V2.48451H78.7317L79.1371 4.39102ZM83.342 3.31177L82.0847 4.95136L80.8835 3.31177L82.1545 1.6871L83.342 3.31177ZM82.9647 16.0605L81.093 16.3266V6.05962L82.9647 5.76453V16.0613V16.0605ZM91.4162 5.66091L90.5362 7.75807C90.4206 7.73987 90.3039 7.73017 90.1869 7.72906C90.0055 7.72906 89.824 7.74398 89.6418 7.77299C89.4595 7.802 89.2644 7.8766 89.0556 7.98022C88.6646 8.1576 88.329 8.54139 88.0359 9.11749C87.7116 9.77132 87.5437 10.4958 87.5461 11.2304V16.0464L85.6753 16.3564V6.05962L87.4072 5.73469V7.8766C87.6304 7.50691 87.8681 7.13804 88.0913 6.75425C88.4125 6.36964 88.7899 6.08946 89.209 5.92617C89.4322 5.8383 89.8377 5.7637 90.4519 5.70485C91.0388 5.66091 91.3745 5.63107 91.4162 5.66091ZM105.357 16.0605L103.485 16.3415V9.29488C103.485 8.64418 103.345 8.1717 103.066 7.8766C102.786 7.58068 102.367 7.43313 101.822 7.43313C101.166 7.43313 100.663 7.71413 100.328 8.27531C100.104 8.6591 99.9786 9.07273 99.9786 9.48635V16.0456L98.107 16.4003V9.33881C98.107 8.71878 97.9673 8.24547 97.7015 7.92136C97.4221 7.5956 97.0592 7.43313 96.5838 7.43313H96.4024C95.7456 7.43313 95.2702 7.71414 94.9772 8.29023C94.754 8.71878 94.6424 9.26503 94.6424 9.92982V16.0456L92.7009 16.4003V6.05962L94.4464 5.74961V7.06427C94.6424 6.75342 94.8375 6.50226 95.0197 6.3257C95.5224 5.8383 96.1093 5.60123 96.7653 5.60123C97.5056 5.60123 98.05 5.71977 98.4273 5.97093C98.7485 6.17816 99.056 6.59096 99.3635 7.18197C100.006 6.13339 100.914 5.60123 102.116 5.60123C103.261 5.60123 104.114 5.97093 104.672 6.72441C105.133 7.34444 105.357 8.26039 105.357 9.45734V16.0605ZM113.908 12.9438C113.908 13.8887 113.587 14.672 112.944 15.278C112.302 15.898 111.491 16.1939 110.513 16.1939C109.773 16.1939 109.116 16.0165 108.515 15.6618C107.915 15.3078 107.468 14.9083 107.174 14.4358L108.488 13.2248C108.585 13.3723 108.669 13.49 108.753 13.5787C109.243 14.0959 109.829 14.362 110.513 14.362C110.988 14.362 111.366 14.2294 111.631 13.9782C111.91 13.7271 112.036 13.3723 112.036 12.9139C112.036 12.3975 111.715 12.0427 111.073 11.8504C109.801 11.4517 109.116 11.2304 109.019 11.1856C108.432 10.8756 108.013 10.5507 107.747 10.181C107.454 9.75244 107.3 9.19126 107.3 8.46762C107.3 7.58068 107.622 6.84295 108.25 6.25193C108.879 5.66091 109.633 5.37991 110.498 5.37991C111.156 5.37991 111.77 5.52746 112.329 5.8383C112.888 6.14832 113.293 6.47325 113.53 6.85787L112.413 8.11284C112.245 7.93937 112.063 7.78128 111.868 7.64036C111.421 7.31543 110.988 7.15296 110.584 7.15296C110.192 7.15296 109.871 7.24165 109.619 7.41821C109.325 7.64036 109.172 7.9653 109.172 8.39385C109.172 8.80747 109.312 9.11749 109.606 9.3098C109.857 9.47226 110.388 9.64965 111.226 9.84113C112.063 10.0484 112.706 10.4031 113.167 10.9055C113.684 11.4368 113.908 12.1016 113.908 12.9438Z" fill="white"/>
</svg>
