<svg width="18" height="18" viewBox="0 0 18 18" fill="none" xmlns="http://www.w3.org/2000/svg">
<path d="M18 9C18 4.02944 13.9706 0 9 0C4.02944 0 0 4.02944 0 9C0 13.9706 4.02944 18 9 18C13.9706 18 18 13.9706 18 9Z" fill="white"/>
<path d="M5.51049 9.01478C5.21807 8.74988 4.75918 8.76431 4.48526 9.04682C4.21131 9.32933 4.22598 9.7733 4.5184 10.0382L7.4193 12.668C7.73094 12.9503 8.22598 12.9126 8.48805 12.5868L13.5648 6.27512C13.8107 5.96962 13.7538 5.52885 13.4376 5.2911C13.1214 5.05335 12.6658 5.10839 12.42 5.41413L7.83136 11.1188L5.51049 9.01478Z" fill="#4F3DC5" stroke="#4F3DC4" stroke-width="0.5"/>
</svg>
