<svg width="55" height="9" viewBox="0 0 55 9" fill="none" xmlns="http://www.w3.org/2000/svg">
<path d="M5.01527 0.833972L5.98314 2.8418C6.05396 2.98817 6.1909 3.08819 6.34808 3.1086L8.27919 3.35329H8.2791C8.40067 3.36993 8.51124 3.43463 8.5876 3.53371C8.66395 3.6328 8.70015 3.75861 8.68858 3.88466C8.67701 4.01071 8.61858 4.12722 8.52553 4.20975L7.01862 5.53486C6.95325 5.5917 6.90408 5.6657 6.87606 5.74908C6.84813 5.83238 6.84251 5.922 6.85986 6.00837L7.30885 8.24004C7.33397 8.36456 7.31117 8.49421 7.2453 8.60166C7.17944 8.70912 7.07564 8.78584 6.95589 8.81563C6.83623 8.84542 6.70996 8.82596 6.60393 8.76126L4.79841 7.66863C4.72635 7.6257 4.64471 7.60309 4.56149 7.60309C4.47828 7.60309 4.39663 7.6257 4.32457 7.66863L2.52147 8.76979H2.52139C2.41536 8.83448 2.28916 8.85403 2.16942 8.82424C2.04976 8.79445 1.94598 8.71772 1.8801 8.61027C1.81415 8.50282 1.79142 8.3731 1.81646 8.24856L2.26312 6.00814C2.28048 5.92177 2.27486 5.83216 2.24693 5.74886C2.21891 5.66548 2.16974 5.59148 2.10437 5.53464L0.599761 4.22539C0.506628 4.1426 0.448282 4.02568 0.437044 3.89927C0.425805 3.77287 0.462579 3.64689 0.539601 3.54789C0.61662 3.44897 0.727853 3.38479 0.849743 3.36892L2.95382 3.11322C3.12142 3.09273 3.26578 2.98187 3.33298 2.82201L4.16226 0.864283V0.864369C4.21043 0.751452 4.29803 0.661495 4.40771 0.612513C4.51728 0.563523 4.64084 0.559086 4.75347 0.600138C4.86611 0.641105 4.95958 0.724576 5.01528 0.833727L5.01527 0.833972Z" fill="#BDB3F9"/>
<path d="M16.8239 0.833972L17.7917 2.8418C17.8626 2.98817 17.9995 3.08819 18.1567 3.1086L20.0878 3.35329H20.0877C20.2093 3.36993 20.3198 3.43463 20.3962 3.53371C20.4725 3.6328 20.5087 3.75861 20.4972 3.88466C20.4856 4.01071 20.4272 4.12722 20.3341 4.20975L18.8272 5.53486C18.7618 5.5917 18.7127 5.6657 18.6847 5.74908C18.6567 5.83238 18.6511 5.922 18.6685 6.00837L19.1174 8.24004C19.1426 8.36456 19.1198 8.49421 19.0539 8.60166C18.988 8.70912 18.8842 8.78584 18.7645 8.81563C18.6448 8.84542 18.5186 8.82596 18.4125 8.76126L16.607 7.66863C16.5349 7.6257 16.4533 7.60309 16.3701 7.60309C16.2869 7.60309 16.2052 7.6257 16.1332 7.66863L14.3301 8.76979H14.33C14.224 8.83448 14.0978 8.85403 13.978 8.82424C13.8584 8.79445 13.7546 8.71772 13.6887 8.61027C13.6227 8.50282 13.6 8.3731 13.6251 8.24856L14.0717 6.00814C14.0891 5.92177 14.0835 5.83216 14.0555 5.74886C14.0275 5.66548 13.9783 5.59148 13.913 5.53464L12.4084 4.22539C12.3152 4.1426 12.2569 4.02568 12.2456 3.89927C12.2344 3.77287 12.2712 3.64689 12.3482 3.54789C12.4252 3.44897 12.5364 3.38479 12.6583 3.36892L14.7624 3.11322C14.93 3.09273 15.0744 2.98187 15.1416 2.82201L15.9709 0.864283V0.864369C16.019 0.751452 16.1066 0.661495 16.2163 0.612513C16.3259 0.563523 16.4494 0.559086 16.5621 0.600138C16.6747 0.641105 16.7682 0.724576 16.8239 0.833727L16.8239 0.833972Z" fill="#BDB3F9"/>
<path d="M28.6325 0.833972L29.6003 2.8418C29.6712 2.98817 29.8081 3.08819 29.9653 3.1086L31.8964 3.35329H31.8963C32.0179 3.36993 32.1284 3.43463 32.2048 3.53371C32.2811 3.6328 32.3173 3.75861 32.3058 3.88466C32.2942 4.01071 32.2358 4.12722 32.1427 4.20975L30.6358 5.53486C30.5704 5.5917 30.5213 5.6657 30.4932 5.74908C30.4653 5.83238 30.4597 5.922 30.4771 6.00837L30.926 8.24004C30.9512 8.36456 30.9284 8.49421 30.8625 8.60166C30.7966 8.70912 30.6928 8.78584 30.5731 8.81563C30.4534 8.84542 30.3271 8.82596 30.2211 8.76126L28.4156 7.66863C28.3435 7.6257 28.2619 7.60309 28.1787 7.60309C28.0955 7.60309 28.0138 7.6257 27.9418 7.66863L26.1387 8.76979H26.1386C26.0326 8.83448 25.9064 8.85403 25.7866 8.82424C25.6669 8.79445 25.5632 8.71772 25.4973 8.61027C25.4313 8.50282 25.4086 8.3731 25.4337 8.24856L25.8803 6.00814C25.8977 5.92177 25.892 5.83216 25.8641 5.74886C25.8361 5.66548 25.7869 5.59148 25.7216 5.53464L24.2169 4.22539C24.1238 4.1426 24.0655 4.02568 24.0542 3.89927C24.043 3.77287 24.0798 3.64689 24.1568 3.54789C24.2338 3.44897 24.345 3.38479 24.4669 3.36892L26.571 3.11322C26.7386 3.09273 26.883 2.98187 26.9502 2.82201L27.7794 0.864283V0.864369C27.8276 0.751452 27.9152 0.661495 28.0249 0.612513C28.1345 0.563523 28.258 0.559086 28.3707 0.600138C28.4833 0.641105 28.5768 0.724576 28.6325 0.833727L28.6325 0.833972Z" fill="#BDB3F9"/>
<path d="M40.4415 0.833972L41.4094 2.8418C41.4802 2.98817 41.6172 3.08819 41.7743 3.1086L43.7055 3.35329H43.7054C43.8269 3.36993 43.9375 3.43463 44.0139 3.53371C44.0902 3.6328 44.1264 3.75861 44.1149 3.88466C44.1033 4.01071 44.0449 4.12722 43.9518 4.20975L42.4449 5.53486C42.3795 5.5917 42.3303 5.6657 42.3023 5.74908C42.2744 5.83238 42.2688 5.922 42.2861 6.00837L42.7351 8.24004C42.7602 8.36456 42.7374 8.49421 42.6716 8.60166C42.6057 8.70912 42.5019 8.78584 42.3822 8.81563C42.2625 8.84542 42.1362 8.82596 42.0302 8.76126L40.2247 7.66863C40.1526 7.6257 40.071 7.60309 39.9878 7.60309C39.9045 7.60309 39.8229 7.6257 39.7508 7.66863L37.9477 8.76979H37.9477C37.8416 8.83448 37.7154 8.85403 37.5957 8.82424C37.476 8.79445 37.3722 8.71772 37.3064 8.61027C37.2404 8.50282 37.2177 8.3731 37.2427 8.24856L37.6894 6.00814C37.7067 5.92177 37.7011 5.83216 37.6732 5.74886C37.6452 5.66548 37.596 5.59148 37.5306 5.53464L36.026 4.22539C35.9329 4.1426 35.8746 4.02568 35.8633 3.89927C35.8521 3.77287 35.8888 3.64689 35.9659 3.54789C36.0429 3.44897 36.1541 3.38479 36.276 3.36892L38.3801 3.11322C38.5477 3.09273 38.6921 2.98187 38.7592 2.82201L39.5885 0.864283V0.864369C39.6367 0.751452 39.7243 0.661495 39.834 0.612513C39.9436 0.563523 40.0671 0.559086 40.1797 0.600138C40.2924 0.641105 40.3858 0.724576 40.4415 0.833727L40.4415 0.833972Z" fill="#BDB3F9"/>
<path d="M50.7427 0.821747L51.6654 2.73579C51.7329 2.87532 51.8634 2.97067 52.0133 2.99012L53.8542 3.22338H53.8541C53.97 3.23925 54.0754 3.30092 54.1482 3.39538C54.221 3.48984 54.2555 3.60977 54.2445 3.72993C54.2334 3.8501 54.1777 3.96117 54.089 4.03984L52.6525 5.30305C52.5902 5.35723 52.5433 5.42777 52.5166 5.50726C52.49 5.58667 52.4846 5.6721 52.5012 5.75444L52.9292 7.88186C52.9531 8.00057 52.9314 8.12416 52.8686 8.2266C52.8058 8.32903 52.7069 8.40217 52.5927 8.43057C52.4786 8.45897 52.3583 8.44042 52.2572 8.37874L50.536 7.33715C50.4673 7.29623 50.3895 7.27466 50.3101 7.27466C50.2308 7.27466 50.153 7.29623 50.0843 7.33715L48.3654 8.38687H48.3653C48.2643 8.44854 48.144 8.46717 48.0298 8.43878C47.9157 8.41038 47.8168 8.33724 47.754 8.2348C47.6911 8.13237 47.6695 8.00871 47.6933 7.88998L48.1191 5.75423C48.1357 5.67189 48.1303 5.58646 48.1037 5.50705C48.077 5.42756 48.0301 5.35702 47.9678 5.30283L46.5335 4.05475C46.4447 3.97583 46.3891 3.86436 46.3784 3.74386C46.3676 3.62336 46.4027 3.50327 46.4761 3.4089C46.5495 3.3146 46.6556 3.25342 46.7718 3.23828L48.7776 2.99452C48.9373 2.975 49.075 2.86931 49.139 2.71692L49.9296 0.850643V0.850724C49.9755 0.743082 50.059 0.657327 50.1635 0.610633C50.268 0.563932 50.3858 0.559701 50.4932 0.598836C50.6005 0.63789 50.6896 0.717461 50.7427 0.821514L50.7427 0.821747Z" fill="#867CCA"/>
<mask id="mask0_1162_50412" style="mask-type:alpha" maskUnits="userSpaceOnUse" x="46" y="0" width="9" height="9">
<path d="M50.7427 0.821747L51.6654 2.73579C51.7329 2.87532 51.8634 2.97067 52.0133 2.99012L53.8542 3.22338H53.8541C53.97 3.23925 54.0754 3.30092 54.1482 3.39538C54.221 3.48984 54.2555 3.60977 54.2445 3.72993C54.2334 3.8501 54.1777 3.96117 54.089 4.03984L52.6525 5.30305C52.5902 5.35723 52.5433 5.42777 52.5166 5.50726C52.49 5.58667 52.4846 5.6721 52.5012 5.75444L52.9292 7.88186C52.9531 8.00057 52.9314 8.12416 52.8686 8.2266C52.8058 8.32903 52.7069 8.40217 52.5927 8.43057C52.4786 8.45897 52.3583 8.44042 52.2572 8.37874L50.536 7.33715C50.4673 7.29623 50.3895 7.27466 50.3101 7.27466C50.2308 7.27466 50.153 7.29623 50.0843 7.33715L48.3654 8.38687H48.3653C48.2643 8.44854 48.144 8.46717 48.0298 8.43878C47.9157 8.41038 47.8168 8.33724 47.754 8.2348C47.6911 8.13237 47.6695 8.00871 47.6933 7.88998L48.1191 5.75423C48.1357 5.67189 48.1303 5.58646 48.1037 5.50705C48.077 5.42756 48.0301 5.35702 47.9678 5.30283L46.5335 4.05475C46.4447 3.97583 46.3891 3.86436 46.3784 3.74386C46.3676 3.62336 46.4027 3.50327 46.4761 3.4089C46.5495 3.3146 46.6556 3.25342 46.7718 3.23828L48.7776 2.99452C48.9373 2.975 49.075 2.86931 49.139 2.71692L49.9296 0.850643V0.850724C49.9755 0.743082 50.059 0.657327 50.1635 0.610633C50.268 0.563932 50.3858 0.559701 50.4932 0.598836C50.6005 0.63789 50.6896 0.717461 50.7427 0.821514L50.7427 0.821747Z" fill="#FFCC00"/>
</mask>
<g mask="url(#mask0_1162_50412)">
<rect x="51.6665" y="-0.303711" width="6.77695" height="11.8192" fill="#E5E5E5"/>
</g>
</svg>
