<svg width="21" height="21" viewBox="0 0 21 21" fill="none" xmlns="http://www.w3.org/2000/svg">
<path d="M3.85006 4.93809L2.7927 5.29992C1.79032 5.64289 0.984375 6.77312 0.984375 7.82713V19.638C0.984375 20.695 1.77817 21.2316 2.75755 20.8433L6.77953 19.2489C7.26889 19.0549 8.06191 19.0556 8.54919 19.2509L12.5123 20.8394C13.001 21.0352 13.7982 21.0544 14.2959 20.8834L18.2688 19.5184C19.2711 19.1742 20.0771 18.0414 20.0771 16.9858V5.15697C20.0771 4.09834 19.2833 3.56328 18.3039 3.95498L17.2028 4.39545C17.2097 4.52043 17.2132 4.64637 17.2132 4.7731C17.2132 5.37575 17.1424 5.96135 17.008 6.52983L18.1679 6.06588V16.9856C18.1679 17.2274 17.8782 17.6337 17.6484 17.7126L13.6755 19.0776C13.6101 19.1 13.2852 19.0922 13.2226 19.0671L9.25961 17.4785C8.31828 17.1012 7.01912 17.0999 6.07591 17.4739L2.89364 18.7355V7.82719C2.89364 7.5881 3.18211 7.18473 3.41083 7.10642L4.13879 6.85743C3.96396 6.23845 3.86439 5.59853 3.85017 4.93819L3.85006 4.93809Z" fill="#243141"/>
<path d="M8.62109 12.7525V18.7275H6.71191V11.1053C7.11146 11.521 7.52556 11.8982 7.94058 12.2362C8.21594 12.4606 8.44831 12.6334 8.62109 12.7526V12.7525ZM14.0781 11.3798H14.3491V19.6062H12.44V12.7517C12.613 12.6324 12.8472 12.4587 13.1249 12.2324C13.4452 11.9714 13.765 11.6871 14.0781 11.3796V11.3798Z" fill="#243141"/>
<path d="M10.713 9.272C11.1066 8.95125 11.502 8.57918 11.867 8.16592C12.8396 7.06511 13.3944 5.90898 13.3944 4.77298C13.3944 3.19128 12.1122 1.90906 10.5305 1.90906C8.94876 1.90906 7.66654 3.19128 7.66654 4.77298C7.66654 5.90865 8.22222 7.06556 9.19633 8.16784C9.56199 8.58159 9.95801 8.95431 10.3525 9.27552C10.4169 9.3281 10.4765 9.37541 10.5303 9.41744C10.5856 9.37461 10.6467 9.32603 10.713 9.27201L10.713 9.272ZM9.77422 11.2274C9.77422 11.2274 5.7572 8.59166 5.7572 4.7729C5.7572 2.1367 7.89426 -3.05176e-05 10.5305 -3.05176e-05C13.1668 -3.05176e-05 15.3039 2.13687 15.3039 4.7729C15.3039 8.59158 11.2921 11.2229 11.2921 11.2229C10.8739 11.5487 10.1919 11.5414 9.77435 11.2272L9.77422 11.2274Z" fill="#695EEE"/>
<path d="M9.57605 3.81833H11.4854V5.72767H9.57605V3.81833Z" fill="#695EEE"/>
</svg>
