<svg width="20" height="21" viewBox="0 0 20 21" fill="none" xmlns="http://www.w3.org/2000/svg">
<path d="M1.18722 8.90682L2.49193 8.25453C1.71402 10.061 1.53848 12.0682 2.01518 14.0001C2.5922 16.3585 4.0474 18.3657 6.12989 19.6452C7.58509 20.5235 9.21588 21 10.8718 21C11.5994 21 12.302 20.9247 13.0296 20.749C17.897 19.545 20.9077 14.6021 19.7285 9.73466C19.1515 7.37619 17.6963 5.36901 15.6138 4.08948C14.4095 3.33675 13.0546 2.91027 11.6746 2.78478V1.65578H13.7821C14.2336 1.65578 14.6101 1.27951 14.6101 0.827825C14.6101 0.3763 14.2588 0 13.8073 0H7.96139C7.50987 0 7.13343 0.376274 7.13343 0.827959C7.13343 1.27948 7.50971 1.65592 7.96139 1.65592H10.0689V2.78491C9.64238 2.83514 9.19065 2.88519 8.76417 3.01068C8.31265 3.11096 8.03666 3.56265 8.16198 4.01417C8.26226 4.4657 8.71395 4.74169 9.16547 4.61637C13.1547 3.66292 17.1942 6.12184 18.1727 10.111C19.1261 14.1002 16.6672 18.1397 12.678 19.1182C10.6962 19.595 8.68899 19.2687 6.98312 18.24C5.27711 17.2113 4.0979 15.5553 3.62115 13.6235C3.21967 11.9927 3.39538 10.3368 4.07267 8.83135L4.69991 10.1109C4.85043 10.4119 5.12642 10.5624 5.45265 10.5624C5.57813 10.5624 5.70362 10.5374 5.82892 10.4871C6.2304 10.2864 6.40594 9.78464 6.2052 9.38316L4.67473 6.29717C4.57444 6.09643 4.39873 5.94592 4.19798 5.87067C3.99724 5.79541 3.77147 5.82044 3.57073 5.9209L0.459704 7.42637C0.0582285 7.62711 -0.117314 8.12888 0.0834306 8.53036C0.28417 8.95686 0.785941 9.10738 1.18742 8.90663L1.18722 8.90682Z" fill="#243141"/>
<path d="M16.5421 11.9176C16.5421 8.75634 13.9829 6.19714 10.8217 6.19714V11.9176L6.78223 15.9569C7.81095 16.9856 9.24097 17.6379 10.8217 17.6379C13.9829 17.638 16.5421 15.0788 16.5421 11.9174V11.9176Z" fill="#695EEE"/>
</svg>
