<svg width="22" height="23" viewBox="0 0 22 23" fill="none" xmlns="http://www.w3.org/2000/svg">
<path d="M18.8881 3.4151L18.8881 3.4151C17.6068 2.1415 15.9738 1.28024 14.1991 0.942618C13.5765 0.814835 12.9297 0.977823 12.4421 1.38551C11.9334 1.79852 11.6379 2.41892 11.6379 3.07424V8.46942C11.6379 9.04637 11.8671 9.59951 12.2751 10.0075C12.6829 10.4153 13.2362 10.6445 13.813 10.6445L19.2149 10.6445L19.2153 10.5445V10.6445H19.2152C19.8729 10.6467 20.4961 10.351 20.9107 9.84063C21.3219 9.358 21.4972 8.71745 21.3889 8.09259L21.3745 8.00966H21.372C21.0136 6.26795 20.1501 4.66968 18.8881 3.4151ZM13.4831 2.60419C13.5706 2.53054 13.6801 2.48772 13.7944 2.48238L13.9098 2.38241C15.3944 2.66791 16.7594 3.39185 17.8284 4.46069L17.7577 4.53139C17.7577 4.53139 17.7577 4.5314 17.7577 4.5314C18.8121 5.58603 19.5264 6.93255 19.8083 8.39717C19.8349 8.55588 19.7877 8.71828 19.6801 8.83814L19.5476 8.98555C19.4566 9.0394 19.3516 9.06859 19.2431 9.06804H19.2426H13.8474C13.6906 9.06804 13.5402 9.00574 13.4291 8.8948C13.3181 8.78368 13.2558 8.63322 13.2558 8.47635L13.2558 3.07406L13.2558 3.07355C13.2548 2.89141 13.3378 2.71906 13.4807 2.60612L13.4807 2.60616L13.4831 2.60419Z" fill="#695EEE" stroke="#695EEE" stroke-width="0.2"/>
<path d="M18.0376 12.739C17.6248 12.2306 17.0096 11.9305 16.3566 11.9169L10.373 5.98689L10.223 5.98637H10.373V5.9866C10.3753 5.31364 10.0727 4.676 9.55038 4.25191C9.04638 3.83378 8.38088 3.66465 7.73842 3.79179L7.73832 3.79181C5.54373 4.22773 3.58526 5.45319 2.23385 7.23622C0.882168 9.0194 0.231545 11.2361 0.404819 13.4668C0.578095 15.6975 1.56358 17.787 3.17424 19.3402C4.78493 20.8933 6.90921 21.8013 9.14485 21.893L9.14485 21.8931H9.151H9.5308C11.6457 21.9019 13.6978 21.1738 15.3343 19.834L15.3343 19.834C16.9706 18.494 18.0891 16.6261 18.4978 14.551C18.6249 13.9085 18.4558 13.243 18.0376 12.739ZM10.9368 11.3523L10.8307 11.4584L10.9368 11.3524C10.9368 11.3524 10.9368 11.3523 10.9368 11.3523ZM16.8467 14.2248L16.8443 14.238C16.4945 15.9728 15.5392 17.5269 14.1488 18.6221L14.1488 18.6221C12.7546 19.7206 11.0143 20.2858 9.24081 20.2164C7.37137 20.1182 5.60458 19.3315 4.28105 18.0079C2.95755 16.6843 2.1707 14.9176 2.07253 13.0482C2.00301 11.2748 2.56829 9.53445 3.66677 8.14011C4.76237 6.74944 6.31692 5.79401 8.05191 5.44445H8.15939C8.27949 5.44825 8.39503 5.49205 8.48764 5.5689L8.48763 5.56891L8.48898 5.57C8.61784 5.67444 8.69161 5.83208 8.68943 5.9979H8.68942V5.99986V9.99111C8.68942 10.9482 9.0696 11.8659 9.74634 12.5426C10.4231 13.2194 11.3408 13.5996 12.2979 13.5996L16.3025 13.5996L16.3033 13.5996C16.4701 13.5987 16.628 13.6747 16.7312 13.8053L16.7311 13.8054L16.7349 13.8098C16.8328 13.9243 16.8739 14.0768 16.8467 14.2248Z" fill="#243141" stroke="#243141" stroke-width="0.3"/>
</svg>
