<svg width="22" height="23" viewBox="0 0 22 23" fill="none" xmlns="http://www.w3.org/2000/svg">
<path d="M7.14978 18.3853H7.04978V18.4853V19.9664V20.0664H7.14978H13.0961H13.1961V19.9664V18.4853V18.3853H13.0961H7.14978Z" fill="#243141" stroke="#243141" stroke-width="0.2"/>
<path d="M2.23193 16.4295L2.23193 16.3295H2.13193H0.650879H0.550879V16.4295V19.9664V20.0664H0.650879H4.16558H4.26558V19.9664V18.4853V18.3853H4.16558H2.23189L2.23193 16.4295Z" fill="#243141" stroke="#243141" stroke-width="0.2"/>
<path d="M0.650879 7.39896H0.550879V7.49896V13.4453V13.5453H0.650879H2.13193H2.23193V13.4453V7.49896V7.39896H2.13193H0.650879Z" fill="#243141" stroke="#243141" stroke-width="0.2"/>
<path d="M0.550879 4.51474L0.550878 4.61474H0.650879H2.13193H2.23193V4.51474V2.58105H4.16562H4.26562V2.48105V1V0.9H4.16562H0.650918H0.550919L0.550918 1L0.550879 4.51474Z" fill="#243141" stroke="#243141" stroke-width="0.2"/>
<path d="M7.14978 0.900092H7.04978V1.00009V2.48114V2.58114H7.14978H13.0961H13.1961V2.48114V1.00009V0.900092H13.0961H7.14978Z" fill="#243141" stroke="#243141" stroke-width="0.2"/>
<path d="M18.0361 4.51473V4.61473H18.1361H19.6172H19.7172V4.51473V1.00003V0.900031H19.6172H16.0803H15.9803V1.00003V2.48108V2.58108H16.0803H18.0361V4.51473Z" fill="#243141" stroke="#243141" stroke-width="0.2"/>
<path d="M18.1361 7.39899H18.0361V7.49899V13.4453V13.5453H18.1361H19.6172H19.7172V13.4453V7.49899V7.39899H19.6172H18.1361Z" fill="#243141" stroke="#243141" stroke-width="0.2"/>
<path d="M16.0803 20.0663H18.0361V22V22.1H18.1361H19.6172H19.7172V22V20.0663H21.6509H21.7509V19.9663V18.4853V18.3853H21.6509H19.7172V16.4294V16.3294H19.6172H18.1361H18.0361V16.4294V18.3853H16.0803H15.9803V18.4853V19.9663V20.0663H16.0803Z" fill="#243141" stroke="#243141" stroke-width="0.2"/>
<path d="M15.5719 4.55905H4.69615C4.43094 4.55905 4.20984 4.78017 4.20984 5.04537V15.9212C4.20984 16.1864 4.43095 16.4075 4.69615 16.4075H15.5719C15.8372 16.4075 16.0583 16.1864 16.0583 15.9212V5.04537C16.0583 4.78015 15.8371 4.55905 15.5719 4.55905ZM14.7982 10.6822L13.2286 8.69281C13.0738 8.4939 12.8529 8.38335 12.6097 8.38335C12.3665 8.38335 12.1454 8.49391 11.9907 8.69281L9.40458 11.9644L8.27713 10.7485C7.96766 10.417 7.37077 10.417 7.0613 10.7485L5.44765 12.4948V5.81897H14.7761V10.6821L14.7982 10.6822Z" fill="#695EEE"/>
<path d="M7.96766 9.28948C8.60863 9.28948 9.13924 8.75891 9.13924 8.1179C9.13924 7.47693 8.60867 6.94632 7.96766 6.94632C7.32665 6.94632 6.79608 7.47689 6.79608 8.1179C6.79608 8.75887 7.32665 9.28948 7.96766 9.28948Z" fill="#695EEE"/>
</svg>
