<svg width="25" height="25" viewBox="0 0 25 25" fill="none" xmlns="http://www.w3.org/2000/svg">
<path d="M9.24792 12.8506L10.7786 11.3519C10.0042 11.062 9.43932 10.3131 9.43932 9.43857C9.43932 8.31305 10.3547 7.39769 11.4802 7.39769H14.7328L16.5823 5.54821V5.3568H13.5208V3.31592H11.4799V5.3568C9.22891 5.3568 7.39844 7.18753 7.39844 9.43831C7.39844 10.8701 8.13073 12.1219 9.24792 12.8506Z" fill="#624DE3"/>
<path d="M15.7533 12.1494L14.2226 13.6481C14.9971 13.938 15.5619 14.6869 15.5619 15.5614C15.5619 16.6869 14.6465 17.6023 13.521 17.6023H10.2684L8.41895 19.4518V19.6432H11.4801V21.684H13.521V19.6432C15.7721 19.6432 17.6025 17.8124 17.6025 15.5617C17.6028 14.1299 16.8705 12.8781 15.7533 12.1494Z" fill="#624DE3"/>
<path d="M12.5 0C5.59635 0 0 5.59635 0 12.5C0 19.4036 5.59635 25 12.5 25C19.4036 25 25 19.4036 25 12.5C25 5.59635 19.4036 0 12.5 0ZM12.5 22.7042C10.0451 22.7042 7.78464 21.8453 6.02682 20.4083L8.41849 18.0167L8.83307 17.6021L20.4083 6.02682C21.8456 7.78464 22.7042 10.0451 22.7042 12.5C22.7042 18.1477 18.1477 22.7042 12.5 22.7042ZM12.5 2.29583C14.9549 2.29583 17.2154 3.15469 18.9732 4.59167L16.5815 6.98333L16.1669 7.39792L4.59193 18.9732C3.15469 17.2154 2.29609 14.9547 2.29609 12.5C2.29583 6.85234 6.85234 2.29583 12.5 2.29583Z" fill="#624DE3"/>
</svg>
