<svg width="42" height="42" viewBox="0 0 42 42" fill="none" xmlns="http://www.w3.org/2000/svg">
<rect width="42" height="42" rx="6.5625" fill="#E3DCFF"/>
<path d="M9 27V25.425C9 24.6917 9.371 24.104 10.113 23.662C10.8543 23.2207 11.8167 23 13 23C13.2167 23 13.425 23.004 13.625 23.012C13.825 23.0207 14.0167 23.0417 14.2 23.075C13.9667 23.4083 13.7917 23.7667 13.675 24.15C13.5583 24.5333 13.5 24.9417 13.5 25.375V27H9ZM15 27V25.375C15 24.2917 15.5543 23.4167 16.663 22.75C17.771 22.0833 19.2167 21.75 21 21.75C22.8 21.75 24.25 22.0833 25.35 22.75C26.45 23.4167 27 24.2917 27 25.375V27H15ZM28.5 27V25.375C28.5 24.9417 28.4457 24.5333 28.337 24.15C28.229 23.7667 28.0667 23.4083 27.85 23.075C28.0333 23.0417 28.221 23.0207 28.413 23.012C28.6043 23.004 28.8 23 29 23C30.2 23 31.1667 23.2207 31.9 23.662C32.6333 24.104 33 24.6917 33 25.425V27H28.5ZM21 23.75C20.05 23.75 19.2 23.875 18.45 24.125C17.7 24.375 17.2583 24.6667 17.125 25H24.9C24.75 24.6667 24.304 24.375 23.562 24.125C22.8207 23.875 21.9667 23.75 21 23.75ZM13 22C12.45 22 11.9793 21.804 11.588 21.412C11.196 21.0207 11 20.55 11 20C11 19.4333 11.196 18.9583 11.588 18.575C11.9793 18.1917 12.45 18 13 18C13.5667 18 14.0417 18.1917 14.425 18.575C14.8083 18.9583 15 19.4333 15 20C15 20.55 14.8083 21.0207 14.425 21.412C14.0417 21.804 13.5667 22 13 22ZM29 22C28.45 22 27.979 21.804 27.587 21.412C27.1957 21.0207 27 20.55 27 20C27 19.4333 27.1957 18.9583 27.587 18.575C27.979 18.1917 28.45 18 29 18C29.5667 18 30.0417 18.1917 30.425 18.575C30.8083 18.9583 31 19.4333 31 20C31 20.55 30.8083 21.0207 30.425 21.412C30.0417 21.804 29.5667 22 29 22ZM21 21C20.1667 21 19.4583 20.7083 18.875 20.125C18.2917 19.5417 18 18.8333 18 18C18 17.15 18.2917 16.4373 18.875 15.862C19.4583 15.2873 20.1667 15 21 15C21.85 15 22.5623 15.2873 23.137 15.862C23.7123 16.4373 24 17.15 24 18C24 18.8333 23.7123 19.5417 23.137 20.125C22.5623 20.7083 21.85 21 21 21ZM21 17C20.7167 17 20.4793 17.0957 20.288 17.287C20.096 17.479 20 17.7167 20 18C20 18.2833 20.096 18.5207 20.288 18.712C20.4793 18.904 20.7167 19 21 19C21.2833 19 21.521 18.904 21.713 18.712C21.9043 18.5207 22 18.2833 22 18C22 17.7167 21.9043 17.479 21.713 17.287C21.521 17.0957 21.2833 17 21 17Z" fill="#5D2BFF"/>
</svg>
