<svg width="42" height="42" viewBox="0 0 42 42" fill="none" xmlns="http://www.w3.org/2000/svg">
<rect width="42" height="42" rx="6.5625" fill="#E3DCFF"/>
<path d="M31.2578 16.5506C31.1424 16.484 31.0115 16.4489 30.8782 16.4489C30.7449 16.4489 30.614 16.484 30.4986 16.5506L23.2778 20.4837V17.2036C23.278 17.0796 23.2477 16.9574 23.1897 16.8477C23.1316 16.7381 23.0476 16.6443 22.945 16.5747C22.8424 16.505 22.7242 16.4615 22.6009 16.4481C22.4776 16.4346 22.3529 16.4516 22.2376 16.4975L16.7177 18.7222L16.4443 12.6479C16.4443 12.4466 16.3643 12.2535 16.2219 12.1111C16.0796 11.9687 15.8864 11.8887 15.6851 11.8887H12.6479C12.4466 11.8887 12.2535 11.9687 12.1111 12.1111C11.9687 12.2535 11.8887 12.4466 11.8887 12.6479L11.5166 20.7874L10.8485 21.0531C10.7072 21.1094 10.5861 21.2068 10.5008 21.3327C10.4155 21.4586 10.37 21.6072 10.3701 21.7593V29.3521C10.3701 29.5534 10.4501 29.7465 10.5925 29.8889C10.7349 30.0313 10.928 30.1113 11.1294 30.1113H30.8706C31.072 30.1113 31.2651 30.0313 31.4075 29.8889C31.5499 29.7465 31.6299 29.5534 31.6299 29.3521V17.2036C31.6299 17.0718 31.5955 16.9424 31.5303 16.8279C31.4651 16.7134 31.3712 16.6178 31.2578 16.5506ZM13.4072 13.4072H14.9258L15.1991 19.2992L13.0656 20.1648L13.4072 13.4072ZM30.1113 28.5928H11.8887V22.2756L21.7593 18.3273V21.7593C21.7593 21.891 21.7936 22.0205 21.8588 22.135C21.9241 22.2495 22.018 22.3451 22.1313 22.4123C22.2467 22.4789 22.3777 22.514 22.511 22.514C22.6442 22.514 22.7752 22.4789 22.8906 22.4123L30.1113 18.4792V28.5928Z" fill="#5D2BFF"/>
<path d="M16.4443 21.7598H14.9258V23.2783H16.4443V21.7598Z" fill="#5D2BFF"/>
<path d="M18.7222 21.7598H17.2036V23.2783H18.7222V21.7598Z" fill="#5D2BFF"/>
<path d="M21 21.7598H19.4814V23.2783H21V21.7598Z" fill="#5D2BFF"/>
<path d="M16.4443 24.0371H14.9258V25.5557H16.4443V24.0371Z" fill="#5D2BFF"/>
<path d="M18.7222 24.0371H17.2036V25.5557H18.7222V24.0371Z" fill="#5D2BFF"/>
<path d="M21 24.0371H19.4814V25.5557H21V24.0371Z" fill="#5D2BFF"/>
<path d="M27.0742 21.7598H25.5557V23.2783H27.0742V21.7598Z" fill="#5D2BFF"/>
<path d="M29.3521 21.7598H27.8335V23.2783H29.3521V21.7598Z" fill="#5D2BFF"/>
<path d="M27.0742 24.0371H25.5557V25.5557H27.0742V24.0371Z" fill="#5D2BFF"/>
<path d="M29.3521 24.0371H27.8335V25.5557H29.3521V24.0371Z" fill="#5D2BFF"/>
</svg>
