<svg width="32" height="32" viewBox="0 0 32 32" fill="none" xmlns="http://www.w3.org/2000/svg">
<rect width="32" height="32" rx="5" fill="#E3DCFF"/>
<path d="M20.1668 13.5H21.8335V11.8333H20.1668V13.5ZM20.1668 16.8333H21.8335V15.1667H20.1668V16.8333ZM20.1668 20.1667H21.8335V18.5H20.1668V20.1667ZM20.1668 23.5V21.8333H23.5002V10.1667H16.0002V11.3333L14.3335 10.125V8.5H25.1668V23.5H20.1668ZM6.8335 23.5V15.1667L12.6668 11L18.5002 15.1667V23.5H13.5002V19.3333H11.8335V23.5H6.8335ZM8.50016 21.8333H10.1668V17.6667H15.1668V21.8333H16.8335V16L12.6668 13.0417L8.50016 16V21.8333Z" fill="#5D2BFF"/>
</svg>
