<svg width="32" height="32" viewBox="0 0 32 32" fill="none" xmlns="http://www.w3.org/2000/svg">
<path d="M31.7455 0H29.5555C24.7872 0.00713824 20.2237 1.90824 16.8544 5.29219L8.87155 13.3088C8.77394 13.4068 8.77394 13.5655 8.87155 13.6635L18.4083 23.2407C18.506 23.3387 18.664 23.3387 18.7616 23.2407L26.7371 15.2314C30.1068 11.8475 32.007 7.24345 31.9999 2.45518V0.255719C31.9999 0.114861 31.8862 0.000414181 31.7457 0.000414181L31.7455 0ZM22.7813 13.4712C21.6087 14.6488 19.7153 14.6488 18.5427 13.4712C17.3702 12.2937 17.3702 10.3926 18.5427 9.21478C19.7153 8.03724 21.6087 8.03724 22.7813 9.21478C23.9538 10.3926 23.9538 12.2937 22.7813 13.4712Z" fill="#5D2BFF"/>
<path d="M8.27362 15.7844C8.15871 15.669 7.96608 15.6928 7.88268 15.8329L6.03149 18.9399C5.97273 19.0387 5.98837 19.1648 6.06916 19.2459L12.8504 26.0558C12.9314 26.1372 13.057 26.1527 13.1553 26.0937L16.2492 24.2346C16.3888 24.1509 16.4125 23.9575 16.2975 23.8421L8.27362 15.7844Z" fill="#5D2BFF"/>
<path d="M28.336 16.4922L22.1729 22.6942C22.1231 22.7444 22.0942 22.8111 22.0928 22.8796L21.9219 29.4325C21.917 29.6587 22.1861 29.762 22.3506 29.5966L28.433 23.4884C28.4816 23.4396 28.5103 23.3752 28.5131 23.3083L28.765 16.661C28.7749 16.4319 28.5027 16.3241 28.3364 16.4916L28.336 16.4922Z" fill="#5D2BFF"/>
<path d="M8.69889 3.57689L2.57152 9.73019C2.40567 9.89674 2.51158 10.1711 2.73998 10.167L9.22339 10.0248C9.29234 10.0236 9.35939 9.99454 9.40962 9.94433L15.6189 3.7222C15.7866 3.55398 15.6769 3.27679 15.4459 3.28535L8.88061 3.49664C8.81332 3.49926 8.74816 3.52829 8.69912 3.5773L8.69889 3.57689Z" fill="#5D2BFF"/>
<path d="M7.65752 24.3095C7.26729 23.9177 6.63518 23.9177 6.24493 24.3095L0.292672 30.2875C-0.0975574 30.6794 -0.0975574 31.3141 0.292672 31.706C0.682902 32.0979 1.31501 32.0979 1.70527 31.706L7.65752 25.7281C8.04775 25.3365 8.04775 24.7016 7.65752 24.3095Z" fill="#5D2BFF"/>
<path d="M9.27087 26.3486L6.34687 29.2855C5.95664 29.6773 5.95664 30.3126 6.34687 30.704C6.7371 31.0959 7.36921 31.0959 7.75946 30.704L10.6835 27.7672C11.0737 27.3753 11.0737 26.74 10.6835 26.3486C10.2932 25.9567 9.66112 25.9567 9.27087 26.3486Z" fill="#5D2BFF"/>
<path d="M1.35322 25.7197C1.74345 26.1115 2.37556 26.1115 2.76581 25.7197L5.68981 22.7828C6.08004 22.3909 6.08004 21.7556 5.68981 21.3642C5.29958 20.9723 4.66747 20.9723 4.27721 21.3642L1.35322 24.3011C0.962989 24.6927 0.962989 25.3282 1.35322 25.7197Z" fill="#5D2BFF"/>
</svg>
