<svg width="42" height="42" viewBox="0 0 42 42" fill="none" xmlns="http://www.w3.org/2000/svg">
<rect width="42" height="42" rx="6.5625" fill="#E3DCFF"/>
<g clip-path="url(#clip0_7528_141062)">
<path d="M15.5833 19.916H17.75V22.0827H15.5833V19.916ZM30.75 14.4993V29.666C30.75 30.8577 29.775 31.8327 28.5833 31.8327H13.4167C12.2142 31.8327 11.25 30.8577 11.25 29.666L11.2608 14.4993C11.2608 13.3077 12.2142 12.3327 13.4167 12.3327H14.5V10.166H16.6667V12.3327H25.3333V10.166H27.5V12.3327H28.5833C29.775 12.3327 30.75 13.3077 30.75 14.4993ZM13.4167 16.666H28.5833V14.4993H13.4167V16.666ZM28.5833 29.666V18.8327H13.4167V29.666H28.5833ZM24.25 22.0827H26.4167V19.916H24.25V22.0827ZM19.9167 22.0827H22.0833V19.916H19.9167V22.0827Z" fill="#5D2BFF"/>
</g>
<defs>
<clipPath id="clip0_7528_141062">
<rect width="26" height="26" fill="white" transform="translate(8 8)"/>
</clipPath>
</defs>
</svg>
