<svg width="42" height="42" viewBox="0 0 42 42" fill="none" xmlns="http://www.w3.org/2000/svg">
<rect width="42" height="42" rx="6.5625" fill="#E3DCFF"/>
<path fill-rule="evenodd" clip-rule="evenodd" d="M17.8466 29.6711V27.8136C17.8466 27.5308 17.6948 27.2697 17.4504 27.1298C15.3288 25.9108 13.9049 23.6197 13.9049 20.9995C13.9049 17.0835 17.0839 13.9045 20.9998 13.9045C24.9157 13.9045 28.0948 17.0835 28.0948 20.9995C28.0948 23.6187 26.6738 25.9078 24.56 27.1366L24.5551 27.1385C24.3137 27.2775 24.1649 27.5347 24.1649 27.8126C24.1649 27.8185 24.1649 27.8244 24.1639 27.8303C24.1531 28.3693 24.1531 29.0562 24.1531 29.6711C24.1531 30.2988 23.9038 30.8999 23.4603 31.3433C23.0169 31.7867 22.4158 32.0361 21.7881 32.0361H20.2114C19.5837 32.0361 18.9826 31.7868 18.5392 31.3433C18.0957 30.8999 17.8466 30.2989 17.8466 29.6711ZM19.4232 28.8828V29.6711C19.4232 29.88 19.506 30.0811 19.6538 30.2289C19.8016 30.3767 20.0027 30.4595 20.2116 30.4595H21.7882C21.9971 30.4595 22.1982 30.3767 22.346 30.2289C22.4938 30.0811 22.5765 29.88 22.5765 29.6711C22.5765 29.4159 22.5765 29.1479 22.5775 28.8828H19.4232ZM22.6437 27.3062C22.7846 26.6656 23.1886 26.1059 23.767 25.7738C25.4117 24.817 26.5182 23.0373 26.5182 20.9995C26.5182 17.9546 24.0448 15.4812 20.9999 15.4812C17.955 15.4812 15.4816 17.9545 15.4816 20.9995C15.4816 23.0353 16.5872 24.815 18.2338 25.762C18.8192 26.097 19.2271 26.6617 19.368 27.3061L22.6437 27.3062ZM18.4714 22.3456C18.164 22.0381 18.164 21.5376 18.4714 21.2301C18.7789 20.9226 19.2795 20.9226 19.5869 21.2301L20.5408 22.184L23.1432 18.9303C23.4151 18.5903 23.9118 18.5351 24.2518 18.8071C24.5917 19.079 24.6469 19.5757 24.3749 19.9157L21.2216 23.8573C21.0807 24.0327 20.8728 24.1391 20.6491 24.151C20.4254 24.1638 20.2066 24.08 20.048 23.9224L18.4714 22.3456ZM20.2117 10.7512C20.2117 10.3157 20.5644 9.96289 21 9.96289C21.4356 9.96289 21.7883 10.3157 21.7883 10.7512V12.3279C21.7883 12.7634 21.4356 13.1162 21 13.1162C20.5644 13.1162 20.2117 12.7634 20.2117 12.3279V10.7512ZM27.6891 13.196C27.9975 12.8876 28.4961 12.8876 28.8036 13.196C29.112 13.5035 29.112 14.0021 28.8036 14.3105L27.8645 15.2506C27.557 15.5581 27.0564 15.5581 26.749 15.2506C26.4415 14.9432 26.4415 14.4426 26.749 14.1351L27.6891 13.196ZM10.7517 21.7879C10.3161 21.7879 9.96338 21.4352 9.96338 20.9996C9.96338 20.5641 10.3161 20.2113 10.7517 20.2113H11.9342C12.3698 20.2113 12.7225 20.5641 12.7225 20.9996C12.7225 21.4352 12.3698 21.7879 11.9342 21.7879H10.7517ZM29.6716 21.7879C29.2361 21.7879 28.8833 21.4352 28.8833 20.9996C28.8833 20.5641 29.2361 20.2113 29.6716 20.2113H31.2483C31.6839 20.2113 32.0366 20.5641 32.0366 20.9996C32.0366 21.4352 31.6839 21.7879 31.2483 21.7879H29.6716ZM13.1964 14.3105C12.888 14.0021 12.888 13.5035 13.1964 13.196C13.5039 12.8876 14.0025 12.8876 14.3109 13.196L15.251 14.1351C15.5585 14.4426 15.5585 14.9432 15.251 15.2506C14.9436 15.5581 14.443 15.5581 14.1355 15.2506L13.1964 14.3105Z" fill="#5D2BFF"/>
</svg>
