<svg width="9" height="5" viewBox="0 0 9 5" fill="none" xmlns="http://www.w3.org/2000/svg">
<path fill-rule="evenodd" clip-rule="evenodd" d="M0.776898 4.75948C0.567364 4.96231 0.282032 4.88215 0.126787 4.72636C-0.0826479 4.51618 -0.00329195 4.22677 0.153449 4.06948L0.158871 4.06403L3.91557 0.832531L3.93762 0.821472C4.00225 0.789046 4.11512 0.746737 4.21391 0.746737C4.26865 0.746737 4.32414 0.759339 4.36732 0.773784C4.40193 0.785358 4.46127 0.808659 4.50792 0.851743L8.23235 4.05548C8.33377 4.13483 8.38759 4.25455 8.39845 4.36899C8.40973 4.48783 8.37669 4.62368 8.27437 4.72636C8.11905 4.88223 7.83352 4.96239 7.62396 4.75919L4.21342 1.82545L0.776898 4.75948Z" fill="black"/>
</svg>
