<svg width="18" height="17" viewBox="0 0 18 17" fill="none" xmlns="http://www.w3.org/2000/svg">
<path d="M2.18289 0C0.862982 0 0 0.856376 0 1.98196C0 3.08269 0.837274 3.96349 2.13224 3.96349H2.15729C3.50302 3.96349 4.34051 3.08269 4.34051 1.98196C4.31535 0.856376 3.50302 0 2.18289 0Z" fill="#1D1C35"/>
<path d="M0.228516 5.5293H4.08716V16.9997H0.228516V5.5293Z" fill="#1D1C35"/>
<path d="M13.5569 5.25977C11.4753 5.25977 10.0795 7.19245 10.0795 7.19245V5.52898H6.2207V16.9994H10.0792V10.5939C10.0792 10.2509 10.1044 9.90856 10.2064 9.66333C10.4853 8.97858 11.1201 8.26919 12.1861 8.26919C13.5824 8.26919 14.1408 9.32107 14.1408 10.8631V16.9994H17.9991V10.4224C17.9991 6.89924 16.0954 5.25977 13.5569 5.25977Z" fill="#1D1C35"/>
</svg>
