<svg width="22" height="18" viewBox="0 0 22 18" fill="none" xmlns="http://www.w3.org/2000/svg">
<path fill-rule="evenodd" clip-rule="evenodd" d="M5.82352 7.33335C6.53821 7.33335 7.11764 6.73642 7.11764 6.00001C7.11764 5.26363 6.53821 4.66667 5.82352 4.66667C5.10876 4.66667 4.52939 5.26363 4.52939 6.00001C4.52939 6.73642 5.10876 7.33335 5.82352 7.33335ZM5.82352 8.00002C6.89559 8.00002 7.76471 7.10456 7.76471 6.00001C7.76471 4.89544 6.89559 4 5.82352 4C4.75144 4 3.88232 4.89544 3.88232 6.00001C3.88232 7.10456 4.75144 8.00002 5.82352 8.00002Z" fill="white"/>
<path fill-rule="evenodd" clip-rule="evenodd" d="M5.82355 9.33333C7.61038 9.33333 9.05887 7.84095 9.05887 5.99998C9.05887 4.15906 7.61038 2.66667 5.82355 2.66667C4.03672 2.66667 2.58823 4.15906 2.58823 5.99998C2.58823 7.84095 4.03672 9.33333 5.82355 9.33333ZM5.82355 10C7.96769 10 9.70593 8.20916 9.70593 5.99998C9.70593 3.79087 7.96769 2 5.82355 2C3.67934 2 1.94116 3.79087 1.94116 5.99998C1.94116 8.20916 3.67934 10 5.82355 10Z" fill="#F1ECFF"/>
<path fill-rule="evenodd" clip-rule="evenodd" d="M5.82358 11.3334C8.68248 11.3334 11.0001 8.94558 11.0001 6.00006C11.0001 3.05449 8.68248 0.666668 5.82358 0.666668C2.96467 0.666668 0.647064 3.05449 0.647064 6.00006C0.647064 8.94558 2.96467 11.3334 5.82358 11.3334ZM5.82358 12.0001C9.03986 12.0001 11.6472 9.31372 11.6472 6.00006C11.6472 2.6863 9.03986 0 5.82358 0C2.6073 0 0 2.6863 0 6.00006C0 9.31372 2.6073 12.0001 5.82358 12.0001Z" fill="#F1ECFF"/>
<path d="M8.85955 14.0376H11.5358L5.1599 7.21508C5.08119 6.82675 5.03397 5.9504 5.47478 5.55101C5.91559 5.15164 6.76045 5.38461 7.12778 5.55101L10.3871 8.79586C10.4501 7.13188 11.8827 7.32598 12.5911 7.63105C12.5911 5.63422 14.0605 5.8561 14.7952 6.21662C14.9841 4.55259 16.1333 4.58032 16.6844 4.80219L20.8243 8.79592L21.1391 9.21189C22.3198 11.5416 22.3986 14.3704 20.6668 16.2009C19.116 17.8401 16.6786 18.1422 15.4717 17.9481L8.85955 16.6169C8.64963 16.5336 8.2141 16.151 8.15114 15.2856C8.08817 14.4204 8.59718 14.0931 8.85955 14.0376Z" fill="white"/>
</svg>
