<svg width="19" height="19" viewBox="0 0 19 19" fill="none" xmlns="http://www.w3.org/2000/svg">
<path d="M0.657495 5.64258L3.98443 5.64258C4.34751 5.64258 4.64185 5.34502 4.64185 4.97797L4.64185 1.61465C4.64185 1.2476 4.34751 0.950044 3.98443 0.950044L0.657495 0.950044C0.294414 0.950044 7.77245e-05 1.2476 7.77245e-05 1.61465L7.77245e-05 4.97797C7.77245e-05 5.34502 0.294414 5.64258 0.657495 5.64258Z" fill="white"/>
<path d="M7.83645 5.64258L11.1634 5.64258C11.5265 5.64258 11.8208 5.34502 11.8208 4.97797V1.61465C11.8208 1.2476 11.5265 0.950044 11.1634 0.950044L7.83645 0.950044C7.47337 0.950044 7.17903 1.2476 7.17903 1.61465L7.17903 4.97797C7.17903 5.34502 7.47337 5.64258 7.83645 5.64258Z" fill="white"/>
<path d="M3.98435 7.62793H0.657417C0.294335 7.62793 0 7.92548 0 8.29254V11.6559C0 12.0229 0.294335 12.3205 0.657417 12.3205H3.98435C4.34743 12.3205 4.64177 12.0229 4.64177 11.6559V8.29254C4.64177 7.92548 4.34743 7.62793 3.98435 7.62793Z" fill="white"/>
<path d="M11.1631 7.62793H7.83613C7.47305 7.62793 7.17871 7.92548 7.17871 8.29254V11.6559C7.17871 12.0229 7.47305 12.3205 7.83613 12.3205H11.1631C11.5261 12.3205 11.8205 12.0229 11.8205 11.6559V8.29254C11.8205 7.92548 11.5261 7.62793 11.1631 7.62793Z" fill="white"/>
<path d="M15.0156 5.64258L18.3426 5.64258C18.7057 5.64258 19 5.34502 19 4.97797V1.61465C19 1.2476 18.7057 0.950044 18.3426 0.950044L15.0156 0.950044C14.6526 0.950044 14.3582 1.2476 14.3582 1.61465V4.97797C14.3582 5.34502 14.6526 5.64258 15.0156 5.64258Z" fill="white"/>
<path d="M18.3423 7.62793H15.0153C14.6522 7.62793 14.3579 7.92548 14.3579 8.29254V11.6559C14.3579 12.0229 14.6522 12.3205 15.0153 12.3205H18.3423C18.7053 12.3205 18.9997 12.0229 18.9997 11.6559V8.29254C18.9997 7.92548 18.7053 7.62793 18.3423 7.62793Z" fill="white"/>
<path d="M3.98435 14.3066H0.657417C0.294335 14.3066 0 14.6042 0 14.9712V18.3346C0 18.7016 0.294335 18.9992 0.657417 18.9992H3.98435C4.34743 18.9992 4.64177 18.7016 4.64177 18.3346V14.9712C4.64177 14.6042 4.34743 14.3066 3.98435 14.3066Z" fill="white"/>
<path d="M11.1631 14.3066H7.83613C7.47305 14.3066 7.17871 14.6042 7.17871 14.9712V18.3346C7.17871 18.7016 7.47305 18.9992 7.83613 18.9992H11.1631C11.5261 18.9992 11.8205 18.7016 11.8205 18.3346V14.9712C11.8205 14.6042 11.5261 14.3066 11.1631 14.3066Z" fill="white"/>
<path d="M18.3423 14.3066H15.0153C14.6522 14.3066 14.3579 14.6042 14.3579 14.9712V18.3346C14.3579 18.7016 14.6522 18.9992 15.0153 18.9992H18.3423C18.7053 18.9992 18.9997 18.7016 18.9997 18.3346V14.9712C18.9997 14.6042 18.7053 14.3066 18.3423 14.3066Z" fill="white"/>
</svg>
