<svg width="48" height="30" viewBox="0 0 48 30" fill="none" xmlns="http://www.w3.org/2000/svg">
<path d="M47.8894 18.86C47.196 14.2266 43.2489 10.9247 38.7684 10.7117C39.8886 6.55764 42.6089 4.90668 45.9159 3.94805C46.2359 3.84154 46.1826 3.522 46.1826 3.522L45.6492 0.22007C45.6492 0.22007 45.5958 -0.0462148 45.1691 0.00704218C33.7546 1.28521 26.0204 9.96609 27.4606 20.511C28.7941 27.8071 34.5013 30.6298 39.7819 29.8842C45.0624 29.0321 48.6895 24.1324 47.8894 18.86ZM11.4589 10.7117C12.5256 6.55764 15.3526 4.90668 18.6063 3.94806C18.9263 3.84154 18.873 3.522 18.873 3.522L18.3929 0.220072C18.3929 0.220072 18.3396 -0.0462124 17.9129 0.00704456C6.445 1.28521 -1.18248 9.96609 0.151 20.511C1.53782 27.8072 7.29843 30.6298 12.5257 29.8842C17.8062 29.0321 21.4333 24.1324 20.5798 18.86C19.8864 14.1734 15.9927 10.8715 11.4589 10.7117Z" fill="black"/>
</svg>
