<svg width="23" height="19" viewBox="0 0 23 19" fill="none" xmlns="http://www.w3.org/2000/svg">
<path d="M22.6414 2.24369C21.7994 2.6242 20.9023 2.87641 19.9669 2.99887C20.9292 2.40697 21.6636 1.47684 22.0089 0.355724C21.1117 0.906806 20.1212 1.29606 19.0655 1.51329C18.2136 0.578781 16.9995 0 15.6749 0C13.1051 0 11.0363 2.14893 11.0363 4.78333C11.0363 5.16238 11.0674 5.52685 11.1438 5.87383C7.28488 5.67993 3.87027 3.77447 1.57641 0.871816C1.17594 1.58764 0.941034 2.40697 0.941034 3.28899C0.941034 4.94515 1.76886 6.41324 3.00282 7.26319C2.25707 7.24861 1.52547 7.02556 0.905657 6.67421C0.905657 6.68879 0.905657 6.70774 0.905657 6.72669C0.905657 9.05056 2.51461 10.9808 4.62451 11.4255C4.24668 11.5319 3.83489 11.5829 3.40753 11.5829C3.11037 11.5829 2.81037 11.5654 2.52876 11.5013C3.13018 13.3951 4.83677 14.7873 6.86601 14.8325C5.28677 16.1053 3.28159 16.8721 1.11084 16.8721C0.730186 16.8721 0.365093 16.8546 0 16.8065C2.05612 18.1726 4.49291 18.9525 7.12073 18.9525C15.6622 18.9525 20.332 11.6631 20.332 5.34461C20.332 5.13322 20.3249 4.92912 20.315 4.72647C21.2362 4.05293 22.0103 3.21172 22.6414 2.24369Z" fill="#1D1C35"/>
</svg>
