<svg width="199" height="26" viewBox="0 0 199 26" fill="none" xmlns="http://www.w3.org/2000/svg">
<path fill-rule="evenodd" clip-rule="evenodd" d="M3.01657 11.8622C2.7488 14.0666 3.26774 16.2941 4.48421 18.1621C5.70069 20.0301 7.53875 21.4218 9.68256 22.0982C11.8264 22.7746 14.1421 22.6934 16.2318 21.8685C18.3215 21.0437 20.0547 19.5267 21.1336 17.5782C22.2125 15.6297 22.5697 13.3714 22.1439 11.1914C21.7181 9.01132 20.5358 7.04561 18.8002 5.632C17.4472 4.52993 15.8236 3.81708 14.1072 3.5564L14.1072 5.31434C14.1072 6.11725 13.4473 6.76814 12.6333 6.76814C11.8193 6.76814 11.1594 6.11725 11.1594 5.31434L11.1594 2.19904C11.1594 1.28849 11.9127 0.521919 12.8717 0.539756C15.7228 0.592798 18.4746 1.59605 20.6771 3.38995C22.941 5.23378 24.4831 7.79776 25.0385 10.6413C25.5939 13.4849 25.1279 16.4305 23.7206 18.9719C22.3134 21.5134 20.0526 23.4921 17.327 24.568C14.6013 25.6439 11.5808 25.7498 8.7845 24.8676C5.98823 23.9853 3.59076 22.17 2.00406 19.7336C0.417348 17.2971 -0.259525 14.3916 0.0897404 11.5163C0.439006 8.641 1.7926 5.97547 3.91794 3.9777C4.50723 3.42379 5.44017 3.44596 6.00172 4.02722C6.56328 4.60847 6.54081 5.5287 5.95153 6.08261C4.3221 7.61423 3.28434 9.65781 3.01657 11.8622Z" fill="white"/>
<path fill-rule="evenodd" clip-rule="evenodd" d="M7.38091 7.60843C7.9565 7.04068 8.88971 7.04068 9.46529 7.60843L14.0975 12.1775C14.6731 12.7453 14.6731 13.6658 14.0975 14.2335C13.5219 14.8013 12.5887 14.8013 12.0131 14.2335L7.38091 9.66442C6.80532 9.09668 6.80532 8.17617 7.38091 7.60843Z" fill="white"/>
<path d="M113.026 25.0802C111.78 25.0802 110.719 24.9437 109.843 24.6707C108.966 24.4205 108.125 24.1134 107.317 23.7494V19.8591C107.848 20.2004 108.401 20.5302 108.978 20.8487C109.578 21.1445 110.212 21.3834 110.881 21.5654C111.573 21.7474 112.311 21.8384 113.095 21.8384C114.018 21.8384 114.698 21.6677 115.137 21.3265C115.598 20.9625 115.829 20.5302 115.829 20.0297C115.829 19.552 115.656 19.188 115.31 18.9377C114.964 18.6647 114.514 18.4372 113.96 18.2552C113.407 18.0732 112.818 17.8912 112.196 17.7092C111.619 17.5727 111.031 17.3907 110.431 17.1632C109.854 16.9357 109.324 16.6286 108.84 16.2419C108.355 15.8551 107.963 15.366 107.663 14.7745C107.386 14.1602 107.248 13.4209 107.248 12.5564C107.248 11.5326 107.456 10.6681 107.871 9.96285C108.286 9.2576 108.828 8.68885 109.497 8.2566C110.166 7.82435 110.904 7.51723 111.711 7.33523C112.519 7.13048 113.303 7.0281 114.064 7.0281C115.379 7.0736 116.44 7.23285 117.247 7.50585C118.054 7.7561 118.816 8.08598 119.531 8.49548L119.565 12.0104C118.758 11.5781 117.974 11.1914 117.213 10.8501C116.451 10.4861 115.586 10.3041 114.618 10.3041C113.718 10.3041 113.015 10.4634 112.507 10.7819C112.023 11.0776 111.78 11.4985 111.78 12.0445C111.78 12.5222 111.93 12.909 112.23 13.2047C112.53 13.5005 112.922 13.728 113.407 13.8872C113.891 14.0465 114.422 14.2057 114.998 14.365C115.575 14.5242 116.175 14.7062 116.797 14.911C117.42 15.093 117.997 15.366 118.527 15.73C119.058 16.094 119.485 16.5831 119.807 17.1974C120.153 17.7889 120.326 18.5851 120.326 19.5861C120.303 20.9056 119.946 21.9749 119.254 22.7939C118.562 23.5901 117.651 24.1702 116.521 24.5342C115.413 24.8982 114.249 25.0802 113.026 25.0802Z" fill="white"/>
<path d="M129.759 25.1144C127.96 25.1144 126.588 24.6821 125.642 23.8176C124.696 22.9304 124.223 21.6564 124.223 19.9956V10.7819H121.525V7.36935H124.223V2.62598H128.756V7.36935H132.804V10.7819H128.756V19.3131C128.756 20.0184 128.894 20.5416 129.171 20.8829C129.448 21.2241 129.932 21.3947 130.624 21.3947C130.993 21.3947 131.374 21.3379 131.766 21.2241C132.181 21.0876 132.527 20.9284 132.804 20.7464V24.5001C132.343 24.7276 131.835 24.8869 131.282 24.9779C130.751 25.0689 130.244 25.1144 129.759 25.1144Z" fill="white"/>
<path d="M142.161 25.0802C141.192 25.0802 140.269 24.9892 139.393 24.8072C138.516 24.6252 137.732 24.3295 137.04 23.92C136.348 23.4877 135.795 22.9076 135.379 22.1796C134.987 21.4289 134.791 20.4961 134.791 19.3814C134.791 18.2211 135.033 17.2429 135.518 16.4466C136.002 15.6276 136.706 15.0134 137.628 14.6039C138.574 14.1716 139.727 13.9555 141.088 13.9555C141.919 13.9555 142.691 14.0351 143.406 14.1944C144.121 14.3309 144.767 14.5242 145.344 14.7745C145.92 15.0247 146.393 15.2977 146.762 15.5935L147.074 18.0164C146.589 17.6979 145.967 17.4476 145.205 17.2656C144.467 17.0609 143.66 16.9585 142.784 16.9585C141.561 16.9585 140.65 17.1519 140.05 17.5386C139.451 17.9254 139.151 18.5282 139.151 19.3472C139.151 19.916 139.312 20.3937 139.635 20.7805C139.958 21.1445 140.373 21.4289 140.881 21.6336C141.388 21.8156 141.919 21.9066 142.472 21.9066C143.741 21.9066 144.652 21.827 145.205 21.6677C145.782 21.4857 146.07 21.1104 146.07 20.5416V13.7507C146.07 12.636 145.713 11.8284 144.998 11.3279C144.283 10.8046 143.279 10.543 141.988 10.543C140.996 10.543 139.981 10.7136 138.943 11.0549C137.905 11.3734 137.063 11.7942 136.417 12.3175V8.3931C137.04 8.00635 137.974 7.6651 139.22 7.36935C140.465 7.0736 141.803 6.92573 143.233 6.92573C143.833 6.92573 144.467 6.9826 145.136 7.09635C145.805 7.2101 146.439 7.3921 147.039 7.64235C147.662 7.8926 148.227 8.24523 148.735 8.70023C149.242 9.13248 149.646 9.68985 149.945 10.3724C150.245 11.0321 150.395 11.8397 150.395 12.7952V20.9511C150.395 22.0204 150.049 22.8621 149.357 23.4764C148.665 24.0679 147.708 24.4774 146.486 24.7049C145.263 24.9551 143.822 25.0802 142.161 25.0802Z" fill="white"/>
<path d="M160.72 25.1144C158.921 25.1144 157.548 24.6821 156.603 23.8176C155.657 22.9304 155.184 21.6564 155.184 19.9956V10.7819H152.485V7.36935H155.184V2.62598H159.716V7.36935H163.765V10.7819H159.716V19.3131C159.716 20.0184 159.855 20.5416 160.132 20.8829C160.408 21.2241 160.893 21.3947 161.585 21.3947C161.954 21.3947 162.334 21.3379 162.727 21.2241C163.142 21.0876 163.488 20.9284 163.765 20.7464V24.5001C163.303 24.7276 162.796 24.8869 162.242 24.9779C161.712 25.0689 161.204 25.1144 160.72 25.1144Z" fill="white"/>
<path d="M174.575 25.0802C172.96 25.0802 171.553 24.83 170.353 24.3295C169.177 23.8062 168.254 23.0327 167.586 22.009C166.94 20.9852 166.617 19.6771 166.617 18.0846V7.36935H171.011V17.641C171.011 18.915 171.299 19.8591 171.876 20.4734C172.452 21.0876 173.352 21.3947 174.575 21.3947C175.843 21.3947 176.754 21.0876 177.308 20.4734C177.884 19.8591 178.173 18.915 178.173 17.641V7.36935H182.325V18.0846C182.325 20.4506 181.633 22.2137 180.249 23.374C178.888 24.5115 176.996 25.0802 174.575 25.0802Z" fill="white"/>
<path d="M191.07 25.0802C189.824 25.0802 188.763 24.9437 187.886 24.6707C187.01 24.4205 186.168 24.1134 185.361 23.7494V19.8591C185.891 20.2004 186.445 20.5302 187.021 20.8487C187.621 21.1445 188.255 21.3834 188.924 21.5654C189.616 21.7474 190.354 21.8384 191.139 21.8384C192.061 21.8384 192.742 21.6677 193.18 21.3265C193.641 20.9625 193.872 20.5302 193.872 20.0297C193.872 19.552 193.699 19.188 193.353 18.9377C193.007 18.6647 192.557 18.4372 192.004 18.2552C191.45 18.0732 190.862 17.8912 190.239 17.7092C189.662 17.5727 189.074 17.3907 188.475 17.1632C187.898 16.9357 187.367 16.6286 186.883 16.2419C186.399 15.8551 186.007 15.366 185.707 14.7745C185.43 14.1602 185.292 13.4209 185.292 12.5564C185.292 11.5326 185.499 10.6681 185.914 9.96285C186.329 9.2576 186.872 8.68885 187.54 8.2566C188.209 7.82435 188.947 7.51723 189.755 7.33523C190.562 7.13048 191.346 7.0281 192.107 7.0281C193.422 7.0736 194.483 7.23285 195.291 7.50585C196.098 7.7561 196.859 8.08598 197.574 8.49548L197.609 12.0104C196.801 11.5781 196.017 11.1914 195.256 10.8501C194.495 10.4861 193.63 10.3041 192.661 10.3041C191.761 10.3041 191.058 10.4634 190.551 10.7819C190.066 11.0776 189.824 11.4985 189.824 12.0445C189.824 12.5222 189.974 12.909 190.274 13.2047C190.574 13.5005 190.966 13.728 191.45 13.8872C191.934 14.0465 192.465 14.2057 193.042 14.365C193.618 14.5242 194.218 14.7062 194.841 14.911C195.464 15.093 196.04 15.366 196.571 15.73C197.101 16.094 197.528 16.5831 197.851 17.1974C198.197 17.7889 198.37 18.5851 198.37 19.5861C198.347 20.9056 197.989 21.9749 197.297 22.7939C196.605 23.5901 195.694 24.1702 194.564 24.5342C193.457 24.8982 192.292 25.0802 191.07 25.0802Z" fill="white"/>
<path d="M35.7482 24.5685L29.9355 7.36949H34.641L38.7929 21.6679L37.4435 21.8044L41.4224 7.36949H44.8131L48.7227 21.3949H47.6502L51.7328 7.36949H56.2999L50.4873 24.5685H46.4738L42.6679 12.2835L43.4291 12.4882L39.7962 24.5685H35.7482Z" fill="white"/>
<path d="M65.091 25.0804C62.2308 25.0804 60.0857 24.2955 58.6556 22.7257C57.2255 21.156 56.5105 18.8924 56.5105 15.9349C56.5105 12.7726 57.237 10.4749 58.6902 9.04162C60.1664 7.60837 62.2885 6.89174 65.0564 6.89174C66.9939 6.89174 68.6085 7.23299 69.9002 7.91549C71.1919 8.57524 72.1492 9.57624 72.7719 10.9185C73.4178 12.2607 73.7407 13.9329 73.7407 15.9349C73.7407 18.8924 72.9911 21.156 71.4918 22.7257C70.0156 24.2955 67.882 25.0804 65.091 25.0804ZM65.091 21.5314C66.1059 21.5314 66.9247 21.3039 67.5475 20.8489C68.1934 20.3939 68.6662 19.7569 68.9661 18.9379C69.2659 18.0961 69.4158 17.0951 69.4158 15.9349C69.4158 14.6381 69.2544 13.5802 68.9315 12.7612C68.6316 11.9422 68.1588 11.3394 67.5129 10.9526C66.8901 10.5659 66.0828 10.3725 65.091 10.3725C64.0761 10.3725 63.2572 10.5772 62.6345 10.9867C62.0117 11.3962 61.5504 12.0105 61.2505 12.8295C60.9737 13.6485 60.8353 14.6836 60.8353 15.9349C60.8353 17.7549 61.1698 19.1426 61.8387 20.0981C62.5076 21.0536 63.5917 21.5314 65.091 21.5314Z" fill="white"/>
<path d="M76.4389 24.5685V9.04162C76.7618 8.83687 77.3269 8.56387 78.1342 8.22262C78.9646 7.88137 79.9218 7.58562 81.0059 7.33537C82.09 7.06237 83.1857 6.92587 84.2928 6.92587C85.1232 6.92587 85.7806 6.99412 86.265 7.13062C86.7724 7.24437 87.1645 7.39224 87.4413 7.57424V10.8502C86.98 10.782 86.4495 10.7251 85.8498 10.6796C85.2731 10.6341 84.6734 10.6227 84.0506 10.6455C83.4509 10.6455 82.8627 10.6682 82.2861 10.7137C81.7325 10.7592 81.2481 10.8161 80.8329 10.8844V24.5685H76.4389Z" fill="white"/>
<path d="M92.9455 14.8429L99.6923 7.36949H105.055L95.1945 17.1292L92.9455 14.8429ZM93.8797 24.5685H89.5202V0.885742H93.9143L93.8797 24.5685ZM96.094 13.1707L105.713 24.5685H100.142L92.9801 16.0714L96.094 13.1707Z" fill="white"/>
</svg>
