<svg width="20" height="20" viewBox="0 0 20 20" fill="none" xmlns="http://www.w3.org/2000/svg">
<g clip-path="url(#clip0_7136_26450)">
<path d="M12.5547 0.841797H7.55469V2.50846H12.5547V0.841797ZM15.913 6.15846L17.0964 4.97513C16.738 4.55013 16.3464 4.15013 15.9214 3.80013L14.738 4.98346C13.4464 3.95013 11.8214 3.33346 10.0547 3.33346C5.91302 3.33346 2.55469 6.6918 2.55469 10.8335C2.55469 14.9751 5.90469 18.3335 10.0547 18.3335C14.2047 18.3335 17.5547 14.9751 17.5547 10.8335C17.5547 9.07513 16.938 7.45013 15.913 6.15846ZM10.0547 16.6751C6.82969 16.6751 4.22135 14.0668 4.22135 10.8418C4.22135 7.6168 6.82969 5.00846 10.0547 5.00846C13.2797 5.00846 15.888 7.6168 15.888 10.8418C15.888 14.0668 13.2797 16.6751 10.0547 16.6751Z" fill="#5D2BFF"/>
<path d="M14.0338 8.69209C14.0441 8.6826 14.05 8.66918 14.05 8.65513C14.05 8.64107 14.044 8.62768 14.0336 8.61823L13.3129 7.963C13.2937 7.94562 13.2645 7.94567 13.2455 7.96312L8.16741 12.6124L6.75453 11.3188C6.73542 11.3013 6.70611 11.3013 6.687 11.3188L5.96624 11.9787C5.95589 11.9882 5.95 12.0016 5.95 12.0156C5.95 12.0296 5.95589 12.043 5.96624 12.0525L8.13365 14.0369C8.15276 14.0544 8.18208 14.0544 8.20119 14.0369L14.0338 8.69209Z" fill="#5D2BFF" stroke="#5D2BFF" stroke-width="0.1" stroke-linejoin="round"/>
</g>
<defs>
<clipPath id="clip0_7136_26450">
<rect width="20" height="20" fill="white"/>
</clipPath>
</defs>
</svg>
