<svg width="20" height="19" viewBox="0 0 20 19" fill="none" xmlns="http://www.w3.org/2000/svg">
<path fill-rule="evenodd" clip-rule="evenodd" d="M2.77062 0C1.68584 0 0.814057 0.847188 0.814057 1.90171C0.814057 2.73662 1.3615 3.43972 2.1275 3.69713C2.12876 3.69749 2.12983 3.69819 2.13102 3.69854C2.17211 3.71225 2.21375 3.72447 2.25605 3.73557C2.27544 3.74075 2.29504 3.74537 2.31467 3.74996C2.34797 3.75764 2.38138 3.76489 2.41533 3.77088C2.44599 3.77641 2.47703 3.78048 2.50821 3.78459C2.53502 3.78805 2.56158 3.79248 2.58873 3.79488C2.64858 3.80029 2.7092 3.80345 2.77061 3.80345C2.83203 3.80345 2.89266 3.80029 2.9525 3.79488C2.97965 3.79248 3.0062 3.78807 3.03302 3.78459C3.0642 3.78049 3.09524 3.77641 3.1259 3.77088C3.15985 3.76488 3.19326 3.75763 3.22656 3.74996C3.24619 3.74537 3.26579 3.74075 3.28518 3.73557C3.32771 3.72442 3.36961 3.712 3.41091 3.69819H3.41129C4.17877 3.44152 4.72756 2.73762 4.72756 1.90175C4.72756 1.39721 4.52144 0.913588 4.15436 0.556904C3.78728 0.200212 3.28963 0 2.77062 0ZM17.2291 0C16.2121 0 15.3821 0.744627 15.2824 1.7066C15.2757 1.77073 15.2725 1.83581 15.2725 1.90171C15.2725 2.73662 15.8199 3.43972 16.5859 3.69713C16.5872 3.69749 16.5883 3.69819 16.5895 3.69854C16.6306 3.71225 16.6722 3.72447 16.7145 3.73557C16.7339 3.74075 16.7535 3.74537 16.7731 3.74996C16.8064 3.75764 16.8398 3.76489 16.8738 3.77088C16.9044 3.77641 16.9355 3.78048 16.9667 3.78459C16.9935 3.78805 17.02 3.79248 17.0472 3.79488C17.107 3.80029 17.1676 3.80345 17.2291 3.80345C17.2905 3.80345 17.3511 3.80029 17.4109 3.79488C17.4381 3.79248 17.4646 3.78807 17.4915 3.78459C17.5226 3.78049 17.5537 3.77641 17.5843 3.77088C17.6183 3.76488 17.6517 3.75763 17.685 3.74996C17.7046 3.74537 17.7242 3.74075 17.7436 3.73557C17.7862 3.72442 17.8281 3.712 17.8694 3.69819H17.8698C18.6372 3.44152 19.186 2.73762 19.186 1.90175C19.186 1.39721 18.9799 0.913588 18.6128 0.556904C18.2457 0.200212 17.7481 0 17.2291 0ZM9.64473 1.15385C8.16536 1.17885 6.70402 1.57512 5.41375 2.31353C5.39524 2.42553 5.37133 2.53555 5.33852 2.64237C5.55715 2.73098 5.75866 2.8593 5.92938 3.02505C6.06124 3.15307 6.17071 3.29872 6.25606 3.45607C8.49792 2.22083 11.33 2.22299 13.6246 3.64055C13.6786 3.67392 13.7307 3.70921 13.7835 3.74376C13.8978 3.2632 14.2128 2.85603 14.6375 2.60911C14.5594 2.55726 14.4816 2.50515 14.4012 2.45549C13.0231 1.60408 11.4782 1.17941 9.94069 1.15385C9.84195 1.15228 9.74335 1.15209 9.64473 1.15385ZM15.1231 3.50064C15.1224 3.50101 15.1217 3.50134 15.121 3.50171C15.1204 3.50188 15.1201 3.50224 15.1195 3.5024C15.0748 3.52172 15.032 3.54431 14.9906 3.56893C14.9781 3.57635 14.9664 3.58471 14.9543 3.59259C14.9256 3.61119 14.8979 3.63088 14.8713 3.65191C14.8579 3.66246 14.8449 3.67335 14.8321 3.68448C14.8078 3.70552 14.7844 3.72731 14.7621 3.75032C14.7504 3.76242 14.7387 3.77438 14.7275 3.78701C14.7051 3.81237 14.6846 3.83922 14.6647 3.86656C14.656 3.87848 14.6464 3.88961 14.6382 3.90188C14.6125 3.94038 14.5892 3.9805 14.5686 4.02224C14.5617 4.03614 14.5565 4.05086 14.5502 4.0651C14.537 4.0951 14.5246 4.1253 14.5142 4.15665C14.5078 4.17575 14.5029 4.19539 14.4976 4.21495C14.4931 4.23161 14.4872 4.2477 14.4835 4.26467C14.4842 4.2652 14.4849 4.26573 14.4856 4.26645C14.4695 4.3402 14.4584 4.41575 14.4584 4.49447V5.58043L20 5.5808V4.4945C20 4.20629 19.8822 3.9302 19.6723 3.72641C19.5744 3.63143 19.4599 3.5568 19.336 3.50318C18.8451 4.11214 18.0837 4.50582 17.229 4.50582C17.0192 4.50582 16.8151 4.48205 16.6191 4.43724C16.6184 4.43617 16.6178 4.43513 16.617 4.43415C16.5622 4.42161 16.509 4.40568 16.4556 4.38991C16.4298 4.38227 16.4037 4.37564 16.3782 4.36728C16.3254 4.34992 16.2735 4.33012 16.2221 4.30967C16.1944 4.29859 16.1668 4.287 16.1395 4.27504C16.0871 4.2521 16.035 4.22877 15.9845 4.20269C15.9673 4.19382 15.9509 4.18379 15.934 4.17457C15.8317 4.11904 15.7336 4.05707 15.6401 3.98941C15.6241 3.97782 15.6075 3.96704 15.5917 3.95512C15.5451 3.9198 15.5005 3.88219 15.4565 3.84402C15.4368 3.82701 15.4173 3.8098 15.3982 3.79224C15.357 3.75441 15.3165 3.71592 15.2778 3.67566C15.2605 3.65771 15.2443 3.63886 15.2276 3.62045C15.192 3.58123 15.1564 3.54189 15.1231 3.50064ZM0.662547 3.50134C0.270757 3.66956 0 4.04856 0 4.49438V5.58034L5.54124 5.58071V4.4944C5.54124 4.32151 5.4982 4.15318 5.41905 4.002C5.41887 4.00147 5.41833 4.00112 5.41795 4.00059C5.39339 3.95386 5.36535 3.90919 5.3339 3.86617C5.32883 3.85922 5.32359 3.85246 5.31836 3.8456C5.28632 3.80389 5.25219 3.76352 5.21382 3.72627C5.16503 3.6789 5.11214 3.63657 5.05595 3.5994L5.05557 3.59903C5.02754 3.5805 4.99859 3.56355 4.96905 3.5476L4.96867 3.54723C4.93898 3.5312 4.90853 3.5164 4.87755 3.50299C4.82143 3.5726 4.76107 3.63884 4.69814 3.70256C4.68151 3.71936 4.66402 3.73523 4.64693 3.75159C4.59944 3.79721 4.55015 3.84082 4.49931 3.88292C4.47791 3.90058 4.45664 3.91839 4.43468 3.93539C4.37894 3.97871 4.32083 4.01952 4.26162 4.05849C4.23398 4.07659 4.20628 4.09452 4.17792 4.11164C4.11952 4.14707 4.05979 4.18035 3.99851 4.21142C3.95878 4.23145 3.91788 4.24953 3.87702 4.26766C3.84077 4.28382 3.80427 4.29933 3.76718 4.31395C3.71864 4.33297 3.66981 4.35114 3.61991 4.36744C3.59283 4.37632 3.56508 4.38373 3.53762 4.39179C3.48519 4.4071 3.43278 4.42277 3.37905 4.43499L3.38117 4.43677C3.18502 4.48168 2.98058 4.50569 2.77054 4.50569C1.91517 4.50569 1.15333 4.1112 0.662547 3.50134ZM16.1254 6.28259C17.1421 8.17134 17.2428 10.4761 16.2261 12.5202C15.4102 14.1606 14.0105 15.3559 12.3758 15.9725C12.3444 16.0899 12.3072 16.2051 12.26 16.3154C12.4355 16.4005 12.5979 16.5119 12.7392 16.6491C12.9017 16.8069 13.0293 16.9918 13.1203 17.1922C14.9921 16.4271 16.5876 15.0229 17.5286 13.1309C18.6332 10.91 18.6325 8.42225 17.7136 6.28294L16.1254 6.28259ZM2.09147 7.85889L1.02207 15.26L3.15522 14.819C3.4785 15.1993 3.8371 15.5531 4.22886 15.8752C4.88239 16.4123 5.62852 16.8589 6.44854 17.1936C6.62222 16.8137 6.92884 16.5035 7.30957 16.3168C7.26199 16.2058 7.22456 16.0899 7.19302 15.9719C6.43651 15.6868 5.75535 15.2896 5.1637 14.8033C5.03762 14.6996 4.9167 14.5909 4.79888 14.4796L6.17201 14.1956L5.62424 13.3453L2.09147 7.85889ZM2.97193 11.8759L3.84991 13.2396L2.74166 13.4684L2.97193 11.8759ZM9.78423 13.4193C8.69945 13.4193 7.82767 14.2665 7.82767 15.321C7.82767 16.0966 8.30011 16.7587 8.98112 17.0554C8.98588 17.0575 8.99047 17.0599 8.99525 17.0619C9.02924 17.0764 9.0641 17.0891 9.09908 17.1017C9.11937 17.1091 9.13957 17.1166 9.16018 17.1233C9.19194 17.1336 9.22412 17.1427 9.25659 17.1514C9.28298 17.1586 9.30957 17.1652 9.33641 17.1713C9.36567 17.1779 9.39494 17.1845 9.4247 17.1898C9.43475 17.1917 9.44461 17.194 9.45472 17.1957C9.47809 17.1995 9.50206 17.2015 9.52571 17.2046C9.551 17.2078 9.57604 17.2119 9.60164 17.2142C9.60676 17.2147 9.61169 17.2154 9.61683 17.216H9.61721C9.67224 17.2205 9.72796 17.2228 9.78426 17.2228C9.84056 17.2228 9.89628 17.2205 9.95131 17.216H9.95169C9.95681 17.2156 9.96176 17.2147 9.96688 17.2142C9.99248 17.2119 10.0175 17.2078 10.0428 17.2046C10.0665 17.2015 10.0904 17.1996 10.1138 17.1957C10.1238 17.1941 10.1335 17.1916 10.1435 17.1898C10.1738 17.1844 10.2037 17.1777 10.2335 17.171C10.2593 17.1651 10.2848 17.159 10.3102 17.1521C10.3435 17.1432 10.3765 17.1336 10.409 17.123C10.4284 17.1166 10.4475 17.1097 10.4666 17.1027C10.503 17.0896 10.5393 17.0763 10.5747 17.0612H10.5751C11.2631 16.7673 11.7412 16.1014 11.7412 15.321C11.7412 14.8165 11.5351 14.3329 11.168 13.9762C10.801 13.6195 10.3032 13.4193 9.78423 13.4193ZM7.67616 16.921L7.67578 16.9214C7.61956 16.9455 7.56659 16.975 7.51579 17.0074C7.50321 17.0155 7.49163 17.0246 7.47942 17.0331C7.4416 17.0595 7.40574 17.0879 7.3717 17.1185C7.36013 17.129 7.3489 17.1395 7.3378 17.1504C7.30275 17.1847 7.27037 17.2211 7.24032 17.2598C7.23404 17.2679 7.2273 17.2755 7.22125 17.2838C7.0913 17.4611 7.01358 17.6774 7.01358 17.9137V19H12.5552V17.9137C12.5552 17.7467 12.5145 17.5842 12.4404 17.4371C12.4146 17.3858 12.385 17.3365 12.3511 17.2896C12.3474 17.2845 12.3432 17.2796 12.3394 17.2745C12.3068 17.2311 12.2714 17.1894 12.232 17.1508C12.2304 17.1492 12.2294 17.1472 12.2278 17.1456H12.2274C12.2052 17.124 12.182 17.1037 12.1582 17.0842C12.1558 17.0822 12.1536 17.08 12.1511 17.078C12.1248 17.0569 12.0976 17.037 12.0695 17.0184H12.0692C12.013 16.9812 11.9537 16.9491 11.8919 16.9224L11.8915 16.9227L11.8911 16.9224C11.8357 16.9911 11.7759 17.0565 11.7138 17.1195C11.6998 17.1338 11.6855 17.1478 11.6711 17.1617C11.6132 17.2179 11.5532 17.2716 11.4903 17.3225C11.4836 17.3279 11.4772 17.3337 11.4705 17.339C11.4025 17.393 11.3308 17.4431 11.2576 17.4905C11.2378 17.5033 11.2176 17.5153 11.1975 17.5276C11.1385 17.5636 11.078 17.5972 11.016 17.6287C10.9965 17.6386 10.9775 17.6494 10.9577 17.6589C10.8831 17.6946 10.8064 17.7263 10.7282 17.7553C10.6997 17.7658 10.6706 17.7752 10.6416 17.7847C10.3721 17.8742 10.0843 17.925 9.78413 17.925C9.48332 17.925 9.19521 17.8738 8.92521 17.7841C8.8972 17.7748 8.8691 17.7658 8.84151 17.7556C8.76328 17.7267 8.68616 17.6952 8.6116 17.6596C8.58998 17.6493 8.56932 17.6375 8.54803 17.6267C8.48728 17.5956 8.42794 17.5626 8.37003 17.5272C8.34967 17.5148 8.32928 17.5024 8.30929 17.4895C8.23673 17.4425 8.16583 17.3931 8.09844 17.3397C8.08924 17.3324 8.08069 17.3244 8.0716 17.317C8.011 17.2677 7.95305 17.2153 7.89714 17.161C7.88242 17.1467 7.86772 17.1324 7.85334 17.1178C7.79132 17.0548 7.73153 16.9898 7.67616 16.921Z" fill="#5D2BFF"/>
</svg>
