<svg width="18" height="18" viewBox="0 0 18 18" fill="none" xmlns="http://www.w3.org/2000/svg">
<path d="M8.2474 14.8337H9.70573V13.792C10.4001 13.667 10.9974 13.3962 11.4974 12.9795C11.9974 12.5628 12.2474 11.9447 12.2474 11.1253C12.2474 10.542 12.0807 10.0072 11.7474 9.52116C11.4141 9.03508 10.7474 8.61141 9.7474 8.25033C8.91406 7.97258 8.33765 7.72949 8.01823 7.52116C7.69881 7.31283 7.53906 7.0281 7.53906 6.66699C7.53906 6.30588 7.66765 6.02116 7.9249 5.81283C8.18156 5.60449 8.55298 5.50033 9.03906 5.50033C9.48348 5.50033 9.83073 5.6081 10.0807 5.82366C10.3307 6.03866 10.5113 6.30588 10.6224 6.62533L11.9557 6.08366C11.803 5.59755 11.5218 5.17393 11.1124 4.81283C10.7024 4.45172 10.2474 4.25033 9.7474 4.20866V3.16699H8.28906V4.20866C7.59465 4.36143 7.05295 4.66699 6.66406 5.12533C6.27517 5.58366 6.08073 6.09755 6.08073 6.66699C6.08073 7.31977 6.27184 7.84758 6.65406 8.25033C7.03573 8.65308 7.63631 9.00033 8.45573 9.29199C9.33073 9.61141 9.93848 9.89616 10.2791 10.1462C10.6191 10.3962 10.7891 10.7226 10.7891 11.1253C10.7891 11.5837 10.6257 11.9203 10.2991 12.1353C9.97298 12.3509 9.58073 12.4587 9.1224 12.4587C8.66406 12.4587 8.25798 12.3162 7.90406 12.0312C7.54965 11.7467 7.28906 11.3197 7.1224 10.7503L5.7474 11.292C5.94184 11.9587 6.24406 12.497 6.65406 12.907C7.0635 13.3164 7.59465 13.5976 8.2474 13.7503V14.8337ZM8.9974 17.3337C7.84465 17.3337 6.76129 17.1147 5.7474 16.677C4.7335 16.2397 3.85156 15.6462 3.10156 14.8962C2.35156 14.1462 1.75795 13.2642 1.32073 12.2503C0.882954 11.2364 0.664062 10.1531 0.664062 9.00033C0.664062 7.84758 0.882954 6.76422 1.32073 5.75033C1.75795 4.73643 2.35156 3.85449 3.10156 3.10449C3.85156 2.35449 4.7335 1.7606 5.7474 1.32283C6.76129 0.8856 7.84465 0.666992 8.9974 0.666992C10.1501 0.666992 11.2335 0.8856 12.2474 1.32283C13.2613 1.7606 14.1432 2.35449 14.8932 3.10449C15.6432 3.85449 16.2368 4.73643 16.6741 5.75033C17.1118 6.76422 17.3307 7.84758 17.3307 9.00033C17.3307 10.1531 17.1118 11.2364 16.6741 12.2503C16.2368 13.2642 15.6432 14.1462 14.8932 14.8962C14.1432 15.6462 13.2613 16.2397 12.2474 16.677C11.2335 17.1147 10.1501 17.3337 8.9974 17.3337ZM8.9974 15.667C10.8585 15.667 12.4349 15.0212 13.7266 13.7295C15.0182 12.4378 15.6641 10.8614 15.6641 9.00033C15.6641 7.13922 15.0182 5.56283 13.7266 4.27116C12.4349 2.97949 10.8585 2.33366 8.9974 2.33366C7.13629 2.33366 5.5599 2.97949 4.26823 4.27116C2.97656 5.56283 2.33073 7.13922 2.33073 9.00033C2.33073 10.8614 2.97656 12.4378 4.26823 13.7295C5.5599 15.0212 7.13629 15.667 8.9974 15.667Z" fill="#5D2BFF"/>
</svg>
