<svg width="21" height="21" viewBox="0 0 21 21" fill="none" xmlns="http://www.w3.org/2000/svg">
<path d="M18.0204 8.65408H17.312C17.2412 8.43797 17.1527 8.20384 17.0464 8.00574L17.5423 7.50147C17.7725 7.28535 17.8965 6.9972 17.8965 6.67303C17.8965 6.34885 17.7725 6.04269 17.56 5.82658L15.9484 4.1877C15.488 3.73746 14.7796 3.73746 14.3191 4.20571L13.8056 4.72799C13.5931 4.63794 13.3805 4.54789 13.168 4.45785V3.73746C13.168 3.08912 12.6545 2.54883 11.9992 2.54883H9.75011C9.11257 2.54883 8.58129 3.07111 8.58129 3.73746V4.45785C8.35106 4.52988 8.13855 4.61993 7.94375 4.72799L7.44788 4.22372C7.00515 3.77348 6.24364 3.77348 5.8009 4.22372L4.20705 5.84459C3.76432 6.31284 3.76432 7.05123 4.20705 7.51948L5.0394 8.36593C5.28733 8.61807 5.69465 8.61807 5.94258 8.36593C6.19051 8.1138 6.19051 7.69957 5.94258 7.44744L5.19878 6.69104L6.63325 5.25027L7.37704 6.00667C7.58956 6.22279 7.89062 6.25881 8.13855 6.11473C8.51045 5.89861 8.91777 5.71852 9.39592 5.57444C9.66156 5.48439 9.85637 5.23226 9.85637 4.94411V3.86353H11.8752V4.94411C11.8752 5.23226 12.07 5.5024 12.3534 5.57444C12.8138 5.70051 13.2389 5.8806 13.6108 6.09672C13.8587 6.2408 14.1775 6.20478 14.3723 5.98866L15.1161 5.23226L16.5505 6.69104L15.8067 7.46545C15.6119 7.68157 15.5588 7.98773 15.7005 8.23986C15.913 8.61806 16.0901 9.0503 16.2141 9.51855C16.2849 9.8067 16.5505 10.0048 16.8339 10.0048H17.8965V12.0579H16.8339C16.5505 12.0579 16.2849 12.256 16.2141 12.5442C16.0901 13.0124 15.913 13.4446 15.7005 13.8228C15.5588 14.075 15.5942 14.3991 15.8067 14.6153L16.5682 15.3717L15.1338 16.8304L14.39 16.056C14.1775 15.8399 13.8764 15.8039 13.6108 15.948C13.2212 16.1821 12.7961 16.3622 12.3534 16.4703C12.07 16.5423 11.8752 16.8124 11.8752 17.1006V18.1812H9.89178V17.1186C9.89178 16.8304 9.69698 16.5603 9.41363 16.4883C8.97089 16.3622 8.54587 16.1821 8.15626 15.966C7.90833 15.8219 7.58956 15.8579 7.39475 16.074L6.65096 16.8304L5.2342 15.3897L5.978 14.6333C6.22593 14.3811 6.22593 13.9669 5.978 13.7148C5.73006 13.4626 5.32275 13.4626 5.07481 13.7148L4.22476 14.5072C3.78203 14.9755 3.78203 15.6958 4.24247 16.1641L5.83632 17.785C6.04883 18.0011 6.33219 18.1271 6.66867 18.1271C6.98744 18.1271 7.27079 18.0011 7.46559 17.785L7.97916 17.2627C8.19168 17.3707 8.40419 17.4608 8.6167 17.5328V18.2532C8.6167 18.9015 9.13028 19.4238 9.78553 19.4238H12.0523C12.6899 19.4238 13.2035 18.9015 13.2035 18.2532V17.5148C13.416 17.4428 13.6285 17.3527 13.841 17.2447L14.3546 17.7669C14.7973 18.1992 15.5411 18.1992 16.0015 17.7489L17.6131 16.1101C18.0381 15.6598 18.0381 14.9034 17.5954 14.4352L17.0995 13.9309C17.1881 13.7148 17.2766 13.5167 17.3652 13.2826H18.0735C18.7111 13.2826 19.2424 12.7603 19.2424 12.0939V9.84272C19.1892 9.19437 18.6757 8.65408 18.0204 8.65408Z" fill="#5D2BFF"/>
<path d="M9.87404 13.0687C9.62611 13.3208 9.62611 13.7351 9.87404 13.9872C9.99801 14.1133 10.1574 14.1853 10.3345 14.1853C10.4939 14.1853 10.671 14.1133 10.7949 13.9872L13.2743 11.4658C13.5222 11.2137 13.5222 10.7995 13.2743 10.5474L10.7949 8.02601C10.547 7.77388 10.1397 7.77388 9.89175 8.02601C9.64382 8.27815 9.64382 8.69237 9.89175 8.9445L11.2908 10.3673H3.00277C2.64859 10.3673 2.36523 10.6554 2.36523 11.0156C2.36523 11.3758 2.64859 11.664 3.00277 11.664H11.2554L9.87404 13.0687Z" fill="#5D2BFF"/>
</svg>
