<svg width="21" height="21" viewBox="0 0 21 21" fill="none" xmlns="http://www.w3.org/2000/svg">
<path d="M8.2895 8.45656C8.2895 8.94973 8.43712 9.4067 8.68406 9.79342C7.75092 9.91946 7.02695 10.7145 7.02695 11.6823V14.1429C7.02695 14.4734 7.29529 14.7426 7.62717 14.7426H13.9799C14.3118 14.7426 14.5801 14.4734 14.5801 14.1429V11.6823C14.5801 10.7154 13.857 9.92039 12.9239 9.79357C13.1708 9.40682 13.3176 8.95014 13.3176 8.45656C13.3176 7.07099 12.1903 5.94492 10.8035 5.94492C9.41786 5.94492 8.2895 7.07096 8.2895 8.45656ZM13.3797 11.6823V13.5431H8.22739V11.6823C8.22739 11.2898 8.54772 10.9692 8.94124 10.9692H12.6654C13.059 10.9692 13.3797 11.2899 13.3797 11.6823ZM10.8035 7.14436C11.5282 7.14436 12.1172 7.7333 12.1172 8.45656C12.1172 9.17992 11.5281 9.76977 10.8035 9.76977C10.079 9.76977 9.48993 9.17992 9.48993 8.45656C9.48993 7.7333 10.0789 7.14436 10.8035 7.14436Z" fill="#5D2BFF" stroke="#5D2BFF" stroke-width="0.2"/>
<path d="M11.1956 1.79743L11.1955 1.79736C10.9694 1.60208 10.6324 1.60183 10.407 1.79873L10.407 1.79873L10.4066 1.79906C10.4068 1.7989 10.4047 1.80072 10.3999 1.8048L10.3796 1.82166C10.3618 1.83628 10.3356 1.85749 10.3009 1.88453C10.2317 1.93859 10.1289 2.01592 9.99353 2.11034C9.72271 2.2992 9.3213 2.5564 8.79565 2.83268C7.74434 3.38524 6.19649 4.01393 4.20268 4.3253L4.20267 4.3253C3.91116 4.37084 3.69492 4.62142 3.69492 4.91782V13.0148C3.69492 13.6029 3.90518 14.2701 4.27099 14.9492C4.63741 15.6295 5.16312 16.3278 5.80235 16.9798C7.07995 18.2829 8.81974 19.4099 10.6669 19.8359L10.6683 19.8362C10.7113 19.8455 10.7555 19.851 10.802 19.851C10.8476 19.851 10.8926 19.8448 10.9341 19.8365L10.9341 19.8366L10.937 19.8359C12.7837 19.4099 14.5235 18.2829 15.8012 16.9798C16.4405 16.3278 16.9663 15.6295 17.3328 14.9492C17.6987 14.2701 17.909 13.6029 17.909 13.0148V4.91782C17.909 4.62142 17.6928 4.37084 17.4012 4.3253L17.3858 4.4241L17.4012 4.3253C15.4175 4.01544 13.8696 3.38664 12.8156 2.83346C12.2886 2.55688 11.8852 2.29927 11.6126 2.11002C11.4763 2.0154 11.3728 1.93788 11.3029 1.88366C11.268 1.85654 11.2414 1.83526 11.2234 1.82057L11.2029 1.8036L11.1974 1.79903C11.1961 1.7979 11.1955 1.7974 11.1956 1.79743ZM16.7086 13.0148C16.7086 13.4042 16.5464 13.9005 16.2424 14.4443C15.9396 14.9861 15.5009 15.5666 14.9595 16.1225C13.8812 17.2294 12.4046 18.2295 10.802 18.634C9.1993 18.2295 7.72269 17.2293 6.64445 16.1223C6.10304 15.5664 5.66429 14.9859 5.36149 14.4441C5.05754 13.9003 4.89536 13.4041 4.89536 13.0148V5.42284C7.98225 4.8461 9.9961 3.59273 10.8019 3.00884C11.6074 3.59276 13.6217 4.84611 16.7086 5.42284V13.0148Z" fill="#5D2BFF" stroke="#5D2BFF" stroke-width="0.2"/>
</svg>
