<svg width="21" height="21" viewBox="0 0 21 21" fill="none" xmlns="http://www.w3.org/2000/svg">
<path d="M17.1344 2.42188H4.47146C3.89189 2.42413 3.33681 2.66229 2.92777 3.08421C2.51872 3.50613 2.28906 4.07742 2.28906 4.67297V16.2525C2.28906 16.848 2.51872 17.4193 2.92777 17.8413C3.33681 18.2632 3.89189 18.5013 4.47146 18.5036H17.1344C17.7139 18.5013 18.269 18.2632 18.6781 17.8413C19.0871 17.4193 19.3168 16.848 19.3168 16.2525V4.67297C19.3168 4.07742 19.0871 3.50613 18.6781 3.08421C18.269 2.66229 17.7139 2.42413 17.1344 2.42188ZM4.47146 3.70091H17.1344C17.3838 3.70316 17.6223 3.80656 17.7979 3.98862C17.9735 4.17067 18.0721 4.41664 18.072 4.67297V6.78764H3.53378V4.67297C3.53377 4.41664 3.63229 4.17067 3.80791 3.98862C3.98352 3.80656 4.22201 3.70316 4.47146 3.70091ZM17.1344 17.2246H4.47146C4.22201 17.2223 3.98352 17.1189 3.80791 16.9368C3.63229 16.7548 3.53377 16.5088 3.53378 16.2525V8.06668H18.072V16.2525C18.0721 16.5088 17.9735 16.7548 17.7979 16.9368C17.6223 17.1189 17.3838 17.2223 17.1344 17.2246Z" fill="#5D2BFF"/>
<path d="M13.5241 10.2827C13.4074 10.163 13.2492 10.0957 13.0843 10.0957C12.9194 10.0957 12.7612 10.163 12.6445 10.2827C12.5858 10.3415 12.5391 10.4118 12.5073 10.4894C12.4754 10.567 12.459 10.6504 12.459 10.7347C12.459 10.8189 12.4754 10.9023 12.5073 10.9799C12.5391 11.0575 12.5858 11.1278 12.6445 11.1866L14.0137 12.602L12.6445 14.009C12.5858 14.0678 12.5391 14.138 12.5073 14.2157C12.4754 14.2933 12.459 14.3767 12.459 14.4609C12.459 14.5451 12.4754 14.6285 12.5073 14.7062C12.5391 14.7838 12.5858 14.854 12.6445 14.9128C12.7011 14.9738 12.7694 15.022 12.8451 15.0543C12.9209 15.0866 13.0023 15.1023 13.0843 15.1004C13.1661 15.1008 13.2471 15.0844 13.3226 15.0522C13.3981 15.02 13.4666 14.9726 13.5241 14.9128L15.3331 13.0199C15.4496 12.9 15.5151 12.7374 15.5151 12.5679C15.5151 12.3985 15.4496 12.2359 15.3331 12.116L13.5241 10.2827Z" fill="#5D2BFF"/>
<path d="M8.95849 10.2827C8.84179 10.163 8.68361 10.0957 8.51869 10.0957C8.35376 10.0957 8.19558 10.163 8.07889 10.2827L6.2699 12.1672C6.15335 12.2871 6.08789 12.4496 6.08789 12.6191C6.08789 12.7886 6.15335 12.9511 6.2699 13.071L8.07889 14.9299C8.13635 14.9897 8.20485 15.0371 8.28037 15.0693C8.35589 15.1015 8.43692 15.1179 8.51869 15.1175C8.60066 15.1194 8.68212 15.1037 8.75785 15.0714C8.83358 15.0391 8.90192 14.9909 8.95849 14.9299C9.0172 14.8711 9.06387 14.8008 9.09573 14.7232C9.12759 14.6456 9.14401 14.5622 9.14401 14.478C9.14401 14.3937 9.12759 14.3103 9.09573 14.2327C9.06387 14.1551 9.0172 14.0848 8.95849 14.026L7.5893 12.6191L8.95849 11.2036C9.01978 11.1446 9.06865 11.0733 9.10205 10.9941C9.13546 10.9149 9.15269 10.8295 9.15269 10.7432C9.15269 10.6569 9.13546 10.5715 9.10205 10.4923C9.06865 10.4131 9.01978 10.3418 8.95849 10.2827Z" fill="#5D2BFF"/>
<path d="M11.579 9.85076C11.4205 9.80267 11.25 9.8204 11.1042 9.90012C10.9583 9.97985 10.8487 10.1152 10.799 10.2771L9.60404 14.2762C9.57974 14.3568 9.5712 14.4416 9.57893 14.5256C9.58666 14.6096 9.6105 14.6912 9.64907 14.7658C9.68764 14.8403 9.74018 14.9062 9.80366 14.9597C9.86714 15.0133 9.94031 15.0534 10.0189 15.0777C10.0795 15.0861 10.1409 15.0861 10.2015 15.0777C10.3351 15.0783 10.4653 15.0346 10.5729 14.9533C10.6805 14.8719 10.7598 14.7571 10.799 14.6258L11.9939 10.6267C12.0355 10.4674 12.0156 10.2976 11.9382 10.153C11.8609 10.0084 11.7322 9.90012 11.579 9.85076Z" fill="#5D2BFF"/>
<path d="M5.38798 5.95481H6.04353C6.20859 5.95481 6.36689 5.88744 6.48361 5.7675C6.60032 5.64757 6.66589 5.48491 6.66589 5.3153C6.66589 5.14569 6.60032 4.98302 6.48361 4.86309C6.36689 4.74316 6.20859 4.67578 6.04353 4.67578H5.38798C5.22292 4.67578 5.06462 4.74316 4.94791 4.86309C4.83119 4.98302 4.76562 5.14569 4.76562 5.3153C4.76562 5.48491 4.83119 5.64757 4.94791 5.7675C5.06462 5.88744 5.22292 5.95481 5.38798 5.95481Z" fill="#5D2BFF"/>
<path d="M8.19658 5.95481H8.85213C9.01719 5.95481 9.17549 5.88744 9.2922 5.7675C9.40891 5.64757 9.47448 5.48491 9.47448 5.3153C9.47448 5.14569 9.40891 4.98302 9.2922 4.86309C9.17549 4.74316 9.01719 4.67578 8.85213 4.67578H8.19658C8.03152 4.67578 7.87322 4.74316 7.7565 4.86309C7.63979 4.98302 7.57422 5.14569 7.57422 5.3153C7.57422 5.48491 7.63979 5.64757 7.7565 5.7675C7.87322 5.88744 8.03152 5.95481 8.19658 5.95481Z" fill="#5D2BFF"/>
<path d="M11.0071 5.95481H11.6378C11.8028 5.95481 11.9611 5.88744 12.0778 5.7675C12.1946 5.64757 12.2601 5.48491 12.2601 5.3153C12.2601 5.14569 12.1946 4.98302 12.0778 4.86309C11.9611 4.74316 11.8028 4.67578 11.6378 4.67578H10.9739C10.8089 4.67578 10.6506 4.74316 10.5338 4.86309C10.4171 4.98302 10.3516 5.14569 10.3516 5.3153C10.3516 5.48491 10.4171 5.64757 10.5338 5.7675C10.6506 5.88744 10.8089 5.95481 10.9739 5.95481H11.0071Z" fill="#5D2BFF"/>
</svg>
