<svg width="20" height="21" viewBox="0 0 20 21" fill="none" xmlns="http://www.w3.org/2000/svg">
<path d="M17.3253 14.5913H16.8601V14.3372C16.8601 13.4143 16.109 12.6632 15.1862 12.6632H10.4921V11.7072C11.0372 11.6249 11.4559 11.1534 11.4559 10.5862V10.251C11.5209 10.2258 11.5855 10.1994 11.6493 10.1706L11.8864 10.4078C12.1007 10.622 12.3854 10.7398 12.6883 10.7398C12.9912 10.7398 13.276 10.622 13.4902 10.4078L13.9463 9.95163C14.3882 9.50969 14.3882 8.79005 13.9463 8.34811L13.7092 8.11099C13.7376 8.04717 13.7644 7.98258 13.7896 7.91758H14.1247C14.7502 7.91758 15.2587 7.40868 15.2587 6.78358V6.13878C15.2587 5.51328 14.7498 5.00477 14.1247 5.00477H13.7896C13.7644 4.93977 13.7376 4.87518 13.7092 4.81137L13.9463 4.57424C14.3882 4.1319 14.3882 3.41266 13.9463 2.97032L13.4902 2.51459C13.276 2.30031 12.9912 2.18254 12.6883 2.18254C12.3854 2.18254 12.1007 2.30031 11.8864 2.51459L11.6493 2.75171C11.5855 2.72335 11.5209 2.69657 11.4559 2.67136V2.33616C11.4559 1.71066 10.947 1.20215 10.322 1.20215H9.67723C9.05177 1.20215 8.54329 1.71105 8.54329 2.33616V2.67136C8.4783 2.69657 8.41371 2.72296 8.34991 2.75171L8.1128 2.51459C7.67049 2.07265 6.95129 2.07265 6.50898 2.51459L6.05328 2.97032C5.61137 3.41266 5.61137 4.1319 6.05328 4.57385L6.29039 4.81097C6.26203 4.87478 6.23525 4.93938 6.21004 5.00437H5.87486C5.2494 5.00437 4.74092 5.51328 4.74092 6.13838V6.78318C4.74092 7.40868 5.2498 7.91719 5.87486 7.91719H6.21004C6.23525 7.98218 6.26164 8.04678 6.29039 8.11059L6.05328 8.34771C5.61137 8.79005 5.61137 9.5093 6.05328 9.95124L6.50898 10.4074C6.95129 10.8497 7.67049 10.8493 8.1128 10.4074L8.34991 10.1702C8.41371 10.1986 8.4783 10.2254 8.54329 10.2506V10.5858C8.54329 11.1534 8.96236 11.6249 9.50708 11.7068V12.6628H4.813C3.89018 12.6628 3.13908 13.4139 3.13908 14.3368V14.5909H2.67392C1.7511 14.5909 1 15.342 1 16.2649V17.5281C1 18.451 1.7511 19.2021 2.67392 19.2021H4.58929C5.51211 19.2021 6.26321 18.451 6.26321 17.5281V16.2649C6.26321 15.342 5.51211 14.5909 4.58929 14.5909H4.12413V14.3368C4.12413 13.9567 4.43332 13.6475 4.8134 13.6475H9.50747V14.5909H9.04232C8.11949 14.5909 7.36839 15.342 7.36839 16.2649V17.5281C7.36839 18.451 8.11949 19.2021 9.04232 19.2021H10.9577C11.8805 19.2021 12.6316 18.451 12.6316 17.5281V16.2649C12.6316 15.342 11.8805 14.5909 10.9577 14.5909H10.4925V13.6475H15.1866C15.5667 13.6475 15.8759 13.9567 15.8759 14.3368V14.5909H15.4107C14.4879 14.5909 13.7368 15.342 13.7368 16.2649V17.5281C13.7368 18.451 14.4879 19.2021 15.4107 19.2021H17.3261C18.2489 19.2021 19 18.451 19 17.5281V16.2649C19 15.342 18.2489 14.5909 17.3261 14.5909L17.3253 14.5913ZM9.16835 9.42185C8.93401 9.35607 8.70753 9.26233 8.49445 9.14219C8.41883 9.09965 8.33573 9.07877 8.25301 9.07877C8.1254 9.07877 7.99937 9.1284 7.90484 9.22294L7.41645 9.71136C7.35815 9.76966 7.26363 9.76966 7.20534 9.71136L6.74963 9.25563C6.69134 9.19733 6.69134 9.1028 6.74963 9.04451L7.23803 8.55608C7.394 8.4001 7.42708 8.15904 7.31877 7.96643C7.19903 7.75333 7.1049 7.52645 7.03912 7.29248C6.97965 7.07978 6.78587 6.93286 6.56491 6.93286H5.87486C5.79254 6.93286 5.72559 6.8659 5.72559 6.78358V6.13878C5.72559 6.05645 5.79254 5.98949 5.87486 5.98949H6.56491C6.78548 5.98949 6.97926 5.84257 7.03912 5.62987C7.1049 5.3955 7.19903 5.16862 7.31877 4.95553C7.42708 4.76292 7.394 4.52186 7.23803 4.36588L6.74963 3.87745C6.69134 3.81916 6.69134 3.72462 6.74963 3.66633L7.20534 3.2106C7.26363 3.1523 7.35815 3.1523 7.41645 3.2106L7.90484 3.69902C8.06081 3.855 8.30185 3.88809 8.49445 3.77977C8.70753 3.66002 8.93401 3.56588 9.16835 3.5001C9.38104 3.44063 9.52795 3.24683 9.52795 3.02586V2.33576C9.52795 2.25344 9.59491 2.18648 9.67723 2.18648H10.322C10.4043 2.18648 10.4713 2.25344 10.4713 2.33576V3.02586C10.4713 3.24644 10.6182 3.44023 10.8309 3.5001C11.0652 3.56588 11.2921 3.65963 11.5048 3.77977C11.6974 3.88809 11.9384 3.855 12.0944 3.69902L12.5828 3.2106C12.619 3.17436 12.66 3.16687 12.6883 3.16687C12.7167 3.16687 12.7576 3.17436 12.7939 3.2106L13.25 3.66633C13.3083 3.72462 13.3083 3.81916 13.25 3.87745L12.7616 4.36588C12.6056 4.52186 12.5725 4.76292 12.6808 4.95553C12.8006 5.16862 12.8947 5.3955 12.9605 5.62987C13.02 5.84257 13.2137 5.98949 13.4347 5.98949H14.1247C14.2071 5.98949 14.274 6.05645 14.274 6.13878V6.78358C14.274 6.8659 14.2071 6.93286 14.1247 6.93286H13.4347C13.2137 6.93286 13.02 7.07978 12.9605 7.29248C12.8947 7.52685 12.801 7.75373 12.6808 7.96643C12.5725 8.15904 12.6056 8.4001 12.7616 8.55608L13.25 9.04451C13.3083 9.1028 13.3083 9.19733 13.25 9.25563L12.7939 9.71176C12.7576 9.74799 12.7167 9.75548 12.6883 9.75548C12.66 9.75548 12.619 9.74799 12.5828 9.71176L12.0944 9.22333C11.9384 9.06735 11.6974 9.03426 11.5048 9.14258C11.2917 9.26233 11.0648 9.35647 10.8309 9.42225C10.6182 9.48172 10.4713 9.67552 10.4713 9.89649V10.5866C10.4713 10.6689 10.4043 10.7359 10.322 10.7359H9.67723C9.59491 10.7359 9.52795 10.6689 9.52795 10.5866V9.89649C9.52795 9.67591 9.38104 9.48212 9.16835 9.42225V9.42185ZM5.27816 16.2653V17.5285C5.27816 17.9086 4.96897 18.2178 4.58889 18.2178H2.67353C2.29345 18.2178 1.98427 17.9086 1.98427 17.5285V16.2653C1.98427 15.8852 2.29345 15.576 2.67353 15.576H4.58889C4.96897 15.576 5.27816 15.8852 5.27816 16.2653ZM11.6462 16.2653V17.5285C11.6462 17.9086 11.337 18.2178 10.9569 18.2178H9.04153C8.66145 18.2178 8.35227 17.9086 8.35227 17.5285V16.2653C8.35227 15.8852 8.66145 15.576 9.04153 15.576H10.9569C11.337 15.576 11.6462 15.8852 11.6462 16.2653ZM18.0142 17.5285C18.0142 17.9086 17.705 18.2178 17.3249 18.2178H15.4095C15.0295 18.2178 14.7203 17.9086 14.7203 17.5285V16.2653C14.7203 15.8852 15.0295 15.576 15.4095 15.576H17.3249C17.705 15.576 18.0142 15.8852 18.0142 16.2653V17.5285ZM11.8766 6.45901C11.8766 5.42347 11.0345 4.58133 9.99902 4.58133C8.96355 4.58133 8.12146 5.42387 8.12146 6.45901C8.12146 7.49415 8.96355 8.33668 9.99902 8.33668C11.0345 8.33668 11.8766 7.49415 11.8766 6.45901ZM9.10612 6.45901C9.10612 5.96665 9.50669 5.56606 9.99902 5.56606C10.4913 5.56606 10.8919 5.96665 10.8919 6.45901C10.8919 6.95137 10.4913 7.35196 9.99902 7.35196C9.50669 7.35196 9.10612 6.95137 9.10612 6.45901Z" fill="#5D2BFF"/>
</svg>
