<svg width="20" height="21" viewBox="0 0 20 21" fill="none" xmlns="http://www.w3.org/2000/svg">
<g clip-path="url(#clip0_488_32368)">
<path d="M18.3327 4.36484L8.82435 13.8815L5.29102 10.3482L6.46602 9.17318L8.82435 11.5315L17.1577 3.19818L18.3327 4.36484ZM9.99935 16.7148C6.32435 16.7148 3.33268 13.7232 3.33268 10.0482C3.33268 6.37318 6.32435 3.38151 9.99935 3.38151C11.3077 3.38151 12.5327 3.76484 13.566 4.42318L14.7743 3.21484C13.416 2.27318 11.7743 1.71484 9.99935 1.71484C5.39935 1.71484 1.66602 5.44818 1.66602 10.0482C1.66602 14.6482 5.39935 18.3815 9.99935 18.3815C11.441 18.3815 12.7993 18.0148 13.9827 17.3648L12.7327 16.1148C11.8993 16.4982 10.9743 16.7148 9.99935 16.7148ZM15.8327 12.5482H13.3327V14.2148H15.8327V16.7148H17.4993V14.2148H19.9993V12.5482H17.4993V10.0482H15.8327V12.5482Z" fill="#5D2BFF"/>
</g>
<defs>
<clipPath id="clip0_488_32368">
<rect width="20" height="20" fill="white" transform="translate(0 0.0478516)"/>
</clipPath>
</defs>
</svg>
