<svg width="20" height="21" viewBox="0 0 20 21" fill="none" xmlns="http://www.w3.org/2000/svg">
<path d="M16.1928 10.0221H14.6346C14.277 10.0221 13.9876 10.3119 13.9876 10.6691C13.9876 11.0263 14.277 11.3161 14.6346 11.3161H16.1928C16.5905 11.3161 16.9141 11.6397 16.9141 12.0372V17.444C16.9141 17.8413 16.5904 18.1651 16.1928 18.1651H3.91496C3.51724 18.1651 3.19367 17.8414 3.19367 17.444V12.0372C3.19367 11.6397 3.51742 11.3159 3.91496 11.3159H5.47312C5.83052 11.3159 6.12014 11.0266 6.12014 10.6691C6.12014 10.3116 5.83057 10.0221 5.47312 10.0221H3.91496C2.80367 10.0221 1.9 10.9255 1.9 12.0368V17.4432C1.9 18.5547 2.80363 19.4586 3.91496 19.4586H16.1928C17.3041 19.4586 18.208 18.5547 18.208 17.4434V12.0368C18.208 10.9257 17.3041 10.0221 16.1928 10.0221Z" fill="#5D2BFF" stroke="#5D2BFF" stroke-width="0.2"/>
<path d="M8.37257 12.1841C8.84348 12.9124 9.78245 13.9069 9.78245 13.9069C9.93129 14.0652 10.1759 14.0656 10.3255 13.9088C10.3255 13.9088 11.2301 12.96 11.6917 12.2483C12.0557 11.6882 12.3687 11.1703 12.6375 10.686C13.6524 8.85337 14.0225 7.50206 14.0225 6.18228C14.0226 4.07031 12.1651 2.3584 10.0533 2.3584C7.94153 2.3584 6.08398 4.07031 6.08398 6.18209C6.08398 7.42253 6.41058 8.69093 7.29288 10.3603C7.58774 10.9189 7.94474 11.5222 8.37257 12.1841ZM10.0533 4.67796C10.9239 4.67796 11.6313 5.38479 11.6313 6.25614C11.6313 7.12749 10.9241 7.83412 10.0533 7.83412C9.18197 7.83412 8.47533 7.12749 8.47533 6.25614C8.47533 5.38479 9.18197 4.67796 10.0533 4.67796Z" fill="#5D2BFF"/>
</svg>
