<svg width="20" height="20" viewBox="0 0 20 20" fill="none" xmlns="http://www.w3.org/2000/svg">
<path d="M4.16666 16.6667V10H1.66666L9.99999 2.5L13.3333 5.5V3.33333H15.8333V7.75L18.3333 10H15.8333V16.6667H10.8333V11.6667H9.16666V16.6667H4.16666ZM5.83332 15H7.49999V10H12.5V15H14.1667V8.5L9.99999 4.75L5.83332 8.5V15ZM8.33332 8.35417H11.6667C11.6667 7.90972 11.5 7.545 11.1667 7.26C10.8333 6.97556 10.4444 6.83333 9.99999 6.83333C9.55557 6.83333 9.16666 6.97556 8.83332 7.26C8.49999 7.545 8.33332 7.90972 8.33332 8.35417Z" fill="#5D2BFF"/>
</svg>
