<svg width="20" height="20" viewBox="0 0 20 20" fill="none" xmlns="http://www.w3.org/2000/svg">
<path d="M3.36765 18.7157V17.576H16.1324V18.7157H3.36765ZM3.36765 3.13971V2H16.1324V3.13971H3.36765ZM9.75 11.0417C10.3832 11.0417 10.915 10.8264 11.3456 10.3958C11.7761 9.96528 11.9914 9.43342 11.9914 8.80025C11.9914 8.16708 11.7761 7.63521 11.3456 7.20466C10.915 6.7741 10.3832 6.55882 9.75 6.55882C9.11683 6.55882 8.58497 6.7741 8.15441 7.20466C7.72386 7.63521 7.50858 8.16708 7.50858 8.80025C7.50858 9.43342 7.72386 9.96528 8.15441 10.3958C8.58497 10.8264 9.11683 11.0417 9.75 11.0417ZM3.13971 16.4363C2.83578 16.4363 2.56985 16.3223 2.34191 16.0944C2.11397 15.8664 2 15.6005 2 15.2966V5.41912C2 5.08987 2.11397 4.81761 2.34191 4.60233C2.56985 4.38705 2.83578 4.27941 3.13971 4.27941H16.3603C16.6642 4.27941 16.9301 4.39338 17.1581 4.62132C17.386 4.84926 17.5 5.1152 17.5 5.41912V15.2966C17.5 15.6005 17.386 15.8664 17.1581 16.0944C16.9301 16.3223 16.6642 16.4363 16.3603 16.4363H3.13971ZM4.81127 15.2966C5.45711 14.4988 6.22324 13.9004 7.10968 13.5015C7.99612 13.1026 8.87306 12.9032 9.7405 12.9032C10.6079 12.9032 11.4944 13.1026 12.3998 13.5015C13.3052 13.9004 14.0682 14.4988 14.6887 15.2966H16.3603V5.41912H3.13971V15.2966H4.81127ZM6.59681 15.2966H12.9412C12.5486 14.9167 12.0896 14.6127 11.564 14.3848C11.0385 14.1569 10.4338 14.0429 9.75 14.0429C9.06618 14.0429 8.46783 14.1569 7.95496 14.3848C7.4421 14.6127 6.98938 14.9167 6.59681 15.2966ZM9.753 9.90196C9.44708 9.90196 9.18964 9.79432 8.9807 9.57904C8.77175 9.36377 8.66728 9.10417 8.66728 8.80025C8.66728 8.49632 8.77075 8.23672 8.9777 8.02145C9.18464 7.80617 9.44108 7.69853 9.747 7.69853C10.0529 7.69853 10.3104 7.80617 10.5193 8.02145C10.7282 8.23672 10.8327 8.49632 10.8327 8.80025C10.8327 9.10417 10.7292 9.36377 10.5223 9.57904C10.3154 9.79432 10.0589 9.90196 9.753 9.90196Z" fill="#5D2BFF"/>
</svg>
