<svg width="42" height="42" viewBox="0 0 42 42" fill="none" xmlns="http://www.w3.org/2000/svg">
<rect width="42" height="42" rx="6.5625" fill="#E3DCFF"/>
<path d="M29.777 10.7597H22.0486L21.4419 10.154C20.8933 9.60354 20.1486 9.29498 19.3724 9.29688H16.6361C15.0209 9.29879 13.7124 10.6073 13.7104 12.2226V19.5492C12.8895 19.8721 12.1362 20.3473 11.4914 20.9511C11.2943 21.1359 11.2152 21.413 11.2847 21.674L11.5657 22.7225C11.6704 23.113 11.439 23.5139 11.0485 23.6187L10.0009 23.8997C9.73997 23.9692 9.53903 24.1777 9.47808 24.4406C9.23713 25.4806 9.23713 26.5606 9.47808 27.6006C9.53903 27.8635 9.73997 28.072 10.0009 28.1416L11.0504 28.4225C11.4409 28.5273 11.6723 28.9282 11.5676 29.3187L11.2866 30.3673C11.2171 30.6273 11.2962 30.9053 11.4933 31.0901C12.2723 31.8206 13.2095 32.3615 14.2313 32.6729C14.4894 32.751 14.7693 32.6806 14.9598 32.4901L15.7284 31.7215C16.0141 31.4358 16.4769 31.4358 16.7627 31.7215L17.5312 32.4901C17.7217 32.6806 18.0017 32.751 18.2598 32.6729C19.2817 32.3615 20.2179 31.8206 20.9977 31.0901C21.1949 30.9053 21.2739 30.6282 21.2044 30.3673L20.9235 29.3187C20.8187 28.9282 21.0501 28.5273 21.4406 28.4225L22.4901 28.1416C22.7511 28.072 22.952 27.8635 23.013 27.6006C23.0777 27.3206 23.1254 27.0377 23.1549 26.752L29.7767 26.7511C31.3919 26.7492 32.7004 25.4406 32.7024 23.8254V13.6854C32.7005 12.0702 31.3919 10.7617 29.7767 10.7598L29.777 10.7597ZM21.6694 26.8461L21.0618 27.009C19.8913 27.3223 19.1961 28.5261 19.5104 29.6965L19.6733 30.3032C19.2409 30.6498 18.758 30.9289 18.2428 31.1317L17.798 30.687C16.9409 29.8298 15.5514 29.8298 14.6951 30.687L14.2503 31.1317C13.7351 30.9288 13.2522 30.6488 12.8199 30.3032L12.9827 29.6965C13.2961 28.526 12.6018 27.3232 11.4313 27.009L10.8237 26.8461C10.7408 26.2985 10.7408 25.7414 10.8237 25.1938L11.4313 25.0309C12.6018 24.7176 13.297 23.5138 12.9827 22.3434L12.8199 21.7368C13.2522 21.3901 13.7351 21.1111 14.2503 20.9082L14.6951 21.353C15.5522 22.2101 16.9417 22.2101 17.798 21.353L18.2428 20.9082C18.758 21.1111 19.2409 21.3911 19.6733 21.7368L19.5104 22.3434C19.1971 23.5139 19.8913 24.7168 21.0618 25.0309L21.6694 25.1938C21.7523 25.7404 21.7523 26.2976 21.6694 26.8461ZM31.2398 23.8251C31.2389 24.6327 30.5846 25.287 29.777 25.288H23.1552C23.1257 25.0022 23.0781 24.7194 23.0133 24.4394C22.9523 24.1765 22.7514 23.968 22.4904 23.8984L21.4409 23.6175C21.0504 23.5127 20.819 23.1118 20.9238 22.7213L21.2047 21.6727C21.2743 21.4127 21.1952 21.1347 20.9981 20.9499C20.219 20.2194 19.2819 19.6785 18.2601 19.3671C18.002 19.289 17.722 19.3594 17.5315 19.5499L16.763 20.3185C16.4773 20.6042 16.0144 20.6042 15.7287 20.3185L15.1744 19.7642V12.2223C15.1754 11.4146 15.8297 10.7604 16.6373 10.7594H19.3726C19.7611 10.7585 20.1325 10.9127 20.4068 11.188L24.1524 14.9336C24.2896 15.0707 24.4762 15.1479 24.6705 15.1479H29.7771C30.5847 15.1488 31.239 15.8031 31.2399 16.6107L31.2398 23.8251ZM31.2398 14.0784C30.796 13.8203 30.2903 13.6851 29.777 13.6851H24.9742L23.5114 12.2223H29.777C30.5846 12.2232 31.2389 12.8775 31.2398 13.6851V14.0784ZM16.2457 23.4594C14.8314 23.4594 13.6857 24.6051 13.6857 26.0194C13.6857 27.4337 14.8314 28.5794 16.2457 28.5794C17.66 28.5794 18.8057 27.4337 18.8057 26.0194C18.8038 24.6061 17.659 23.4614 16.2457 23.4594ZM16.2457 27.1165C15.64 27.1165 15.1486 26.6251 15.1486 26.0194C15.1486 25.4137 15.64 24.9223 16.2457 24.9223C16.8514 24.9223 17.3428 25.4137 17.3428 26.0194C17.3428 26.6251 16.8514 27.1165 16.2457 27.1165Z" fill="#6754E2"/>
</svg>
