<?xml version="1.0" encoding="UTF-8"?>
<svg xmlns="http://www.w3.org/2000/svg" width="205" height="60" viewBox="0 0 205 60" fill="none">
  <rect width="205" height="60" rx="10" fill="black"></rect>
  <path d="M73.028 15.632C73.028 16.592 72.848 17.396 72.488 18.044C72.136 18.692 71.628 19.18 70.964 19.508C70.3 19.836 69.496 20 68.552 20H66.164V11.432H68.804C69.668 11.432 70.416 11.592 71.048 11.912C71.68 12.232 72.168 12.704 72.512 13.328C72.856 13.944 73.028 14.712 73.028 15.632ZM71.888 15.668C71.888 14.908 71.76 14.284 71.504 13.796C71.256 13.308 70.888 12.948 70.4 12.716C69.92 12.476 69.336 12.356 68.648 12.356H67.244V19.076H68.408C69.568 19.076 70.436 18.792 71.012 18.224C71.596 17.648 71.888 16.796 71.888 15.668ZM80.3776 16.772C80.3776 17.308 80.3056 17.784 80.1616 18.2C80.0256 18.608 79.8256 18.956 79.5616 19.244C79.3056 19.532 78.9896 19.752 78.6136 19.904C78.2456 20.048 77.8336 20.12 77.3776 20.12C76.9536 20.12 76.5616 20.048 76.2016 19.904C75.8416 19.752 75.5296 19.532 75.2656 19.244C75.0016 18.956 74.7936 18.608 74.6416 18.2C74.4976 17.784 74.4256 17.308 74.4256 16.772C74.4256 16.06 74.5456 15.46 74.7856 14.972C75.0256 14.476 75.3696 14.1 75.8176 13.844C76.2656 13.58 76.7976 13.448 77.4136 13.448C77.9976 13.448 78.5096 13.58 78.9496 13.844C79.3976 14.1 79.7456 14.476 79.9936 14.972C80.2496 15.46 80.3776 16.06 80.3776 16.772ZM75.5176 16.772C75.5176 17.276 75.5816 17.716 75.7096 18.092C75.8456 18.46 76.0536 18.744 76.3336 18.944C76.6136 19.144 76.9696 19.244 77.4016 19.244C77.8336 19.244 78.1896 19.144 78.4696 18.944C78.7496 18.744 78.9536 18.46 79.0816 18.092C79.2176 17.716 79.2856 17.276 79.2856 16.772C79.2856 16.26 79.2176 15.824 79.0816 15.464C78.9456 15.104 78.7376 14.828 78.4576 14.636C78.1856 14.436 77.8296 14.336 77.3896 14.336C76.7336 14.336 76.2576 14.552 75.9616 14.984C75.6656 15.416 75.5176 16.012 75.5176 16.772ZM85.9689 16.364C85.9209 16.196 85.8729 16.032 85.8249 15.872C85.7769 15.704 85.7329 15.548 85.6929 15.404C85.6609 15.252 85.6289 15.112 85.5969 14.984C85.5649 14.856 85.5409 14.748 85.5249 14.66H85.4769C85.4609 14.748 85.4369 14.856 85.4049 14.984C85.3809 15.112 85.3489 15.252 85.3089 15.404C85.2769 15.556 85.2369 15.716 85.1889 15.884C85.1489 16.044 85.1009 16.208 85.0449 16.376L83.8929 19.988H82.6929L80.9289 13.556H82.0209L82.9089 16.988C82.9729 17.22 83.0329 17.456 83.0889 17.696C83.1449 17.928 83.1929 18.152 83.2329 18.368C83.2809 18.576 83.3129 18.756 83.3289 18.908H83.3769C83.4009 18.812 83.4289 18.692 83.4609 18.548C83.4929 18.404 83.5249 18.252 83.5569 18.092C83.5969 17.932 83.6369 17.772 83.6769 17.612C83.7249 17.452 83.7689 17.308 83.8089 17.18L84.9489 13.556H86.1009L87.2049 17.18C87.2609 17.364 87.3169 17.56 87.3729 17.768C87.4369 17.976 87.4929 18.18 87.5409 18.38C87.5889 18.572 87.6209 18.744 87.6369 18.896H87.6849C87.7009 18.76 87.7289 18.592 87.7689 18.392C87.8169 18.184 87.8689 17.96 87.9249 17.72C87.9889 17.472 88.0529 17.228 88.1169 16.988L89.0169 13.556H90.0969L88.3089 19.988H87.0729L85.9689 16.364ZM94.3465 13.448C95.1145 13.448 95.6945 13.636 96.0865 14.012C96.4785 14.38 96.6745 14.98 96.6745 15.812V20H95.6305V15.884C95.6305 15.364 95.5145 14.976 95.2825 14.72C95.0505 14.464 94.6865 14.336 94.1905 14.336C93.4785 14.336 92.9865 14.536 92.7145 14.936C92.4425 15.336 92.3065 15.912 92.3065 16.664V20H91.2505V13.568H92.1025L92.2585 14.444H92.3185C92.4625 14.22 92.6385 14.036 92.8465 13.892C93.0625 13.74 93.2985 13.628 93.5545 13.556C93.8105 13.484 94.0745 13.448 94.3465 13.448ZM99.7244 20H98.6684V10.88H99.7244V20ZM107.354 16.772C107.354 17.308 107.282 17.784 107.138 18.2C107.002 18.608 106.802 18.956 106.538 19.244C106.282 19.532 105.966 19.752 105.59 19.904C105.222 20.048 104.81 20.12 104.354 20.12C103.93 20.12 103.538 20.048 103.178 19.904C102.818 19.752 102.506 19.532 102.242 19.244C101.978 18.956 101.77 18.608 101.618 18.2C101.474 17.784 101.402 17.308 101.402 16.772C101.402 16.06 101.522 15.46 101.762 14.972C102.002 14.476 102.346 14.1 102.794 13.844C103.242 13.58 103.774 13.448 104.39 13.448C104.974 13.448 105.486 13.58 105.926 13.844C106.374 14.1 106.722 14.476 106.97 14.972C107.226 15.46 107.354 16.06 107.354 16.772ZM102.494 16.772C102.494 17.276 102.558 17.716 102.686 18.092C102.822 18.46 103.03 18.744 103.31 18.944C103.59 19.144 103.946 19.244 104.378 19.244C104.81 19.244 105.166 19.144 105.446 18.944C105.726 18.744 105.93 18.46 106.058 18.092C106.194 17.716 106.262 17.276 106.262 16.772C106.262 16.26 106.194 15.824 106.058 15.464C105.922 15.104 105.714 14.828 105.434 14.636C105.162 14.436 104.806 14.336 104.366 14.336C103.71 14.336 103.234 14.552 102.938 14.984C102.642 15.416 102.494 16.012 102.494 16.772ZM111.464 13.46C112.248 13.46 112.828 13.632 113.204 13.976C113.58 14.32 113.768 14.868 113.768 15.62V20H113L112.796 19.088H112.748C112.564 19.32 112.372 19.516 112.172 19.676C111.98 19.828 111.756 19.94 111.5 20.012C111.252 20.084 110.948 20.12 110.588 20.12C110.204 20.12 109.856 20.052 109.544 19.916C109.24 19.78 109 19.572 108.824 19.292C108.648 19.004 108.56 18.644 108.56 18.212C108.56 17.572 108.812 17.08 109.316 16.736C109.82 16.384 110.596 16.192 111.644 16.16L112.736 16.124V15.74C112.736 15.204 112.62 14.832 112.388 14.624C112.156 14.416 111.828 14.312 111.404 14.312C111.068 14.312 110.748 14.364 110.444 14.468C110.14 14.564 109.856 14.676 109.592 14.804L109.268 14.012C109.548 13.86 109.88 13.732 110.264 13.628C110.648 13.516 111.048 13.46 111.464 13.46ZM111.776 16.892C110.976 16.924 110.42 17.052 110.108 17.276C109.804 17.5 109.652 17.816 109.652 18.224C109.652 18.584 109.76 18.848 109.976 19.016C110.2 19.184 110.484 19.268 110.828 19.268C111.372 19.268 111.824 19.12 112.184 18.824C112.544 18.52 112.724 18.056 112.724 17.432V16.856L111.776 16.892ZM118.034 20.12C117.234 20.12 116.594 19.844 116.114 19.292C115.634 18.732 115.394 17.9 115.394 16.796C115.394 15.692 115.634 14.86 116.114 14.3C116.602 13.732 117.246 13.448 118.046 13.448C118.382 13.448 118.674 13.492 118.922 13.58C119.17 13.66 119.386 13.772 119.57 13.916C119.754 14.06 119.91 14.22 120.038 14.396H120.11C120.102 14.292 120.086 14.14 120.062 13.94C120.046 13.732 120.038 13.568 120.038 13.448V10.88H121.094V20H120.242L120.086 19.136H120.038C119.91 19.32 119.754 19.488 119.57 19.64C119.386 19.784 119.166 19.9 118.91 19.988C118.662 20.076 118.37 20.12 118.034 20.12ZM118.202 19.244C118.882 19.244 119.358 19.06 119.63 18.692C119.91 18.316 120.05 17.752 120.05 17V16.808C120.05 16.008 119.918 15.396 119.654 14.972C119.39 14.54 118.902 14.324 118.19 14.324C117.622 14.324 117.194 14.552 116.906 15.008C116.626 15.456 116.486 16.06 116.486 16.82C116.486 17.588 116.626 18.184 116.906 18.608C117.194 19.032 117.626 19.244 118.202 19.244ZM129.218 14.384H127.598V20H126.542V14.384H125.414V13.892L126.542 13.532V13.16C126.542 12.608 126.622 12.16 126.782 11.816C126.95 11.472 127.19 11.22 127.502 11.06C127.814 10.9 128.19 10.82 128.63 10.82C128.886 10.82 129.118 10.844 129.326 10.892C129.542 10.932 129.726 10.98 129.878 11.036L129.602 11.864C129.474 11.824 129.326 11.784 129.158 11.744C128.99 11.704 128.818 11.684 128.642 11.684C128.29 11.684 128.026 11.804 127.85 12.044C127.682 12.276 127.598 12.644 127.598 13.148V13.568H129.218V14.384ZM135.971 16.772C135.971 17.308 135.899 17.784 135.755 18.2C135.619 18.608 135.419 18.956 135.155 19.244C134.899 19.532 134.583 19.752 134.207 19.904C133.839 20.048 133.427 20.12 132.971 20.12C132.547 20.12 132.155 20.048 131.795 19.904C131.435 19.752 131.123 19.532 130.859 19.244C130.595 18.956 130.387 18.608 130.235 18.2C130.091 17.784 130.019 17.308 130.019 16.772C130.019 16.06 130.139 15.46 130.379 14.972C130.619 14.476 130.963 14.1 131.411 13.844C131.859 13.58 132.391 13.448 133.007 13.448C133.591 13.448 134.103 13.58 134.543 13.844C134.991 14.1 135.339 14.476 135.587 14.972C135.843 15.46 135.971 16.06 135.971 16.772ZM131.111 16.772C131.111 17.276 131.175 17.716 131.303 18.092C131.439 18.46 131.647 18.744 131.927 18.944C132.207 19.144 132.563 19.244 132.995 19.244C133.427 19.244 133.783 19.144 134.063 18.944C134.343 18.744 134.547 18.46 134.675 18.092C134.811 17.716 134.879 17.276 134.879 16.772C134.879 16.26 134.811 15.824 134.675 15.464C134.539 15.104 134.331 14.828 134.051 14.636C133.779 14.436 133.423 14.336 132.983 14.336C132.327 14.336 131.851 14.552 131.555 14.984C131.259 15.416 131.111 16.012 131.111 16.772ZM140.645 13.448C140.765 13.448 140.893 13.456 141.029 13.472C141.173 13.48 141.297 13.496 141.401 13.52L141.269 14.492C141.165 14.468 141.049 14.448 140.921 14.432C140.801 14.416 140.685 14.408 140.573 14.408C140.325 14.408 140.089 14.46 139.865 14.564C139.641 14.668 139.441 14.816 139.265 15.008C139.089 15.192 138.949 15.416 138.845 15.68C138.749 15.944 138.701 16.24 138.701 16.568V20H137.645V13.568H138.509L138.629 14.744H138.677C138.813 14.504 138.977 14.288 139.169 14.096C139.361 13.896 139.581 13.74 139.829 13.628C140.077 13.508 140.349 13.448 140.645 13.448Z" fill="white"></path>
  <path d="M93.896 25.84L87.624 46H84.67L79.938 31.524C79.882 31.3653 79.826 31.1927 79.77 31.006C79.7233 30.8193 79.6767 30.6187 79.63 30.404C79.5833 30.6187 79.532 30.8193 79.476 31.006C79.4293 31.1927 79.378 31.3653 79.322 31.524L74.548 46H71.594L65.322 25.84H68.066C68.346 25.84 68.5793 25.91 68.766 26.05C68.962 26.1807 69.0927 26.3627 69.158 26.596L72.938 39.518C73.0127 39.798 73.0827 40.1013 73.148 40.428C73.2133 40.7547 73.2787 41.0953 73.344 41.45C73.4093 41.0953 73.4793 40.7547 73.554 40.428C73.638 40.092 73.7267 39.7887 73.82 39.518L78.146 26.596C78.2113 26.4093 78.342 26.2367 78.538 26.078C78.734 25.9193 78.9673 25.84 79.238 25.84H80.19C80.4793 25.84 80.7127 25.9147 80.89 26.064C81.0673 26.204 81.2027 26.3813 81.296 26.596L85.608 39.518C85.7013 39.7887 85.7853 40.0827 85.86 40.4C85.944 40.708 86.0187 41.0347 86.084 41.38C86.1493 41.0347 86.21 40.708 86.266 40.4C86.3313 40.0827 86.4013 39.7887 86.476 39.518L90.242 26.596C90.298 26.3907 90.424 26.2133 90.62 26.064C90.8253 25.9147 91.0633 25.84 91.334 25.84H93.896ZM99.0638 31.72V46H96.0538V31.72H99.0638ZM99.5678 27.408C99.5678 27.6787 99.5118 27.9353 99.3998 28.178C99.2971 28.4207 99.1524 28.6353 98.9658 28.822C98.7791 28.9993 98.5598 29.144 98.3078 29.256C98.0651 29.3587 97.8038 29.41 97.5238 29.41C97.2531 29.41 96.9964 29.3587 96.7538 29.256C96.5204 29.144 96.3151 28.9993 96.1378 28.822C95.9604 28.6353 95.8158 28.4207 95.7038 28.178C95.6011 27.9353 95.5498 27.6787 95.5498 27.408C95.5498 27.128 95.6011 26.8667 95.7038 26.624C95.8158 26.3813 95.9604 26.1713 96.1378 25.994C96.3151 25.8073 96.5204 25.6627 96.7538 25.56C96.9964 25.448 97.2531 25.392 97.5238 25.392C97.8038 25.392 98.0651 25.448 98.3078 25.56C98.5598 25.6627 98.7791 25.8073 98.9658 25.994C99.1524 26.1713 99.2971 26.3813 99.3998 26.624C99.5118 26.8667 99.5678 27.128 99.5678 27.408ZM105.66 33.61C105.968 33.2927 106.285 33.008 106.612 32.756C106.948 32.4947 107.302 32.2707 107.676 32.084C108.049 31.8973 108.446 31.7527 108.866 31.65C109.286 31.5473 109.743 31.496 110.238 31.496C111.022 31.496 111.708 31.6267 112.296 31.888C112.893 32.1493 113.392 32.518 113.794 32.994C114.204 33.47 114.512 34.044 114.718 34.716C114.923 35.3787 115.026 36.1113 115.026 36.914V46H112.03V36.914C112.03 35.9527 111.806 35.206 111.358 34.674C110.919 34.142 110.247 33.876 109.342 33.876C108.67 33.876 108.044 34.03 107.466 34.338C106.896 34.646 106.36 35.066 105.856 35.598V46H102.846V31.72H104.666C105.076 31.72 105.338 31.9113 105.45 32.294L105.66 33.61ZM127.655 35.234C127.235 34.6927 126.773 34.3147 126.269 34.1C125.765 33.8853 125.219 33.778 124.631 33.778C123.455 33.778 122.536 34.212 121.873 35.08C121.21 35.9387 120.879 37.2127 120.879 38.902C120.879 39.7793 120.954 40.5307 121.103 41.156C121.252 41.772 121.467 42.276 121.747 42.668C122.027 43.06 122.368 43.3447 122.769 43.522C123.17 43.6993 123.623 43.788 124.127 43.788C124.892 43.788 125.55 43.6247 126.101 43.298C126.661 42.962 127.179 42.4907 127.655 41.884V35.234ZM130.665 25.28V46H128.845C128.444 46 128.187 45.8087 128.075 45.426L127.809 43.872C127.212 44.572 126.53 45.1367 125.765 45.566C125.009 45.9953 124.127 46.21 123.119 46.21C122.316 46.21 121.588 46.0513 120.935 45.734C120.282 45.4073 119.722 44.936 119.255 44.32C118.788 43.704 118.424 42.9433 118.163 42.038C117.911 41.1233 117.785 40.078 117.785 38.902C117.785 37.838 117.925 36.8533 118.205 35.948C118.494 35.0427 118.905 34.2587 119.437 33.596C119.969 32.924 120.613 32.4013 121.369 32.028C122.134 31.6453 122.988 31.454 123.931 31.454C124.771 31.454 125.485 31.5893 126.073 31.86C126.661 32.1213 127.188 32.49 127.655 32.966V25.28H130.665ZM140.52 31.496C141.574 31.496 142.526 31.6687 143.376 32.014C144.234 32.3593 144.962 32.8493 145.56 33.484C146.166 34.1187 146.633 34.8887 146.96 35.794C147.286 36.6993 147.45 37.7167 147.45 38.846C147.45 39.9753 147.286 40.9927 146.96 41.898C146.633 42.8033 146.166 43.578 145.56 44.222C144.962 44.8567 144.234 45.3467 143.376 45.692C142.526 46.0373 141.574 46.21 140.52 46.21C139.456 46.21 138.494 46.0373 137.636 45.692C136.786 45.3467 136.058 44.8567 135.452 44.222C134.845 43.578 134.378 42.8033 134.052 41.898C133.725 40.9927 133.562 39.9753 133.562 38.846C133.562 37.7167 133.725 36.6993 134.052 35.794C134.378 34.8887 134.845 34.1187 135.452 33.484C136.058 32.8493 136.786 32.3593 137.636 32.014C138.494 31.6687 139.456 31.496 140.52 31.496ZM140.52 43.858C141.808 43.858 142.764 43.4287 143.39 42.57C144.024 41.702 144.342 40.4653 144.342 38.86C144.342 37.2547 144.024 36.018 143.39 35.15C142.764 34.2727 141.808 33.834 140.52 33.834C139.213 33.834 138.242 34.2727 137.608 35.15C136.973 36.018 136.656 37.2547 136.656 38.86C136.656 40.4653 136.973 41.702 137.608 42.57C138.242 43.4287 139.213 43.858 140.52 43.858ZM170.185 31.72L165.607 46H163.213C162.933 46 162.737 45.818 162.625 45.454L159.783 36.564C159.708 36.312 159.638 36.06 159.573 35.808C159.517 35.556 159.466 35.3087 159.419 35.066C159.316 35.57 159.19 36.074 159.041 36.578L156.157 45.454C156.054 45.818 155.835 46 155.499 46H153.217L148.639 31.72H151.019C151.252 31.72 151.444 31.7807 151.593 31.902C151.752 32.014 151.854 32.1493 151.901 32.308L154.281 40.624C154.374 41.0067 154.454 41.38 154.519 41.744C154.594 42.0987 154.659 42.4533 154.715 42.808C154.808 42.4533 154.906 42.0987 155.009 41.744C155.112 41.38 155.219 41.0067 155.331 40.624L158.005 32.266C158.052 32.098 158.145 31.9627 158.285 31.86C158.434 31.748 158.612 31.692 158.817 31.692H160.133C160.348 31.692 160.53 31.748 160.679 31.86C160.828 31.9627 160.926 32.098 160.973 32.266L163.577 40.624C163.689 41.0067 163.792 41.38 163.885 41.744C163.988 42.108 164.081 42.472 164.165 42.836C164.23 42.4813 164.3 42.122 164.375 41.758C164.45 41.394 164.538 41.016 164.641 40.624L167.063 32.308C167.119 32.14 167.222 32 167.371 31.888C167.52 31.776 167.702 31.72 167.917 31.72H170.185ZM180.77 34.31C180.695 34.4407 180.611 34.534 180.518 34.59C180.425 34.646 180.308 34.674 180.168 34.674C180.009 34.674 179.837 34.6273 179.65 34.534C179.463 34.4313 179.244 34.3193 178.992 34.198C178.74 34.0767 178.441 33.9693 178.096 33.876C177.76 33.7733 177.363 33.722 176.906 33.722C176.533 33.722 176.192 33.7687 175.884 33.862C175.585 33.946 175.329 34.072 175.114 34.24C174.909 34.3987 174.75 34.59 174.638 34.814C174.526 35.0287 174.47 35.262 174.47 35.514C174.47 35.85 174.573 36.13 174.778 36.354C174.983 36.578 175.254 36.774 175.59 36.942C175.926 37.1007 176.309 37.2453 176.738 37.376C177.167 37.5067 177.606 37.6467 178.054 37.796C178.502 37.9453 178.941 38.118 179.37 38.314C179.799 38.51 180.182 38.7527 180.518 39.042C180.854 39.322 181.125 39.6673 181.33 40.078C181.535 40.4793 181.638 40.9693 181.638 41.548C181.638 42.22 181.517 42.8407 181.274 43.41C181.031 43.9793 180.677 44.474 180.21 44.894C179.743 45.314 179.16 45.6407 178.46 45.874C177.769 46.1073 176.976 46.224 176.08 46.224C175.585 46.224 175.105 46.1773 174.638 46.084C174.181 46 173.742 45.8833 173.322 45.734C172.911 45.5753 172.524 45.3887 172.16 45.174C171.805 44.9593 171.488 44.726 171.208 44.474L171.908 43.326C171.992 43.186 172.095 43.0787 172.216 43.004C172.347 42.92 172.505 42.878 172.692 42.878C172.888 42.878 173.079 42.9433 173.266 43.074C173.462 43.1953 173.686 43.3307 173.938 43.48C174.199 43.6293 174.512 43.7693 174.876 43.9C175.24 44.0213 175.693 44.082 176.234 44.082C176.682 44.082 177.069 44.0307 177.396 43.928C177.723 43.816 177.993 43.6667 178.208 43.48C178.423 43.2933 178.581 43.0833 178.684 42.85C178.787 42.6073 178.838 42.3507 178.838 42.08C178.838 41.716 178.735 41.4173 178.53 41.184C178.325 40.9507 178.049 40.75 177.704 40.582C177.368 40.414 176.981 40.2647 176.542 40.134C176.113 40.0033 175.674 39.8633 175.226 39.714C174.778 39.5647 174.335 39.392 173.896 39.196C173.467 39 173.079 38.7527 172.734 38.454C172.398 38.146 172.127 37.7773 171.922 37.348C171.717 36.9093 171.614 36.3773 171.614 35.752C171.614 35.1827 171.726 34.6413 171.95 34.128C172.183 33.6147 172.519 33.162 172.958 32.77C173.406 32.378 173.952 32.07 174.596 31.846C175.249 31.6127 176.001 31.496 176.85 31.496C177.811 31.496 178.684 31.65 179.468 31.958C180.252 32.266 180.91 32.686 181.442 33.218L180.77 34.31Z" fill="white"></path>
  <path fill-rule="evenodd" clip-rule="evenodd" d="M32.2923 29.2693H20V19.0401L32.2923 17.3847V29.2693ZM33.6676 29.2693H50V15L33.6676 17.1995V29.2693ZM32.2923 30.7307H20V40.9599L32.2923 42.6153V30.7307ZM33.6676 30.7307H50V45L33.6676 42.8005V30.7307Z" fill="white"></path>
</svg>
