<?xml version="1.0" encoding="UTF-8"?>
<svg xmlns="http://www.w3.org/2000/svg" width="205" height="60" viewBox="0 0 205 60" fill="none">
  <rect width="205" height="60" rx="10" fill="black"></rect>
  <path d="M76.028 15.632C76.028 16.592 75.848 17.396 75.488 18.044C75.136 18.692 74.628 19.18 73.964 19.508C73.3 19.836 72.496 20 71.552 20H69.164V11.432H71.804C72.668 11.432 73.416 11.592 74.048 11.912C74.68 12.232 75.168 12.704 75.512 13.328C75.856 13.944 76.028 14.712 76.028 15.632ZM74.888 15.668C74.888 14.908 74.76 14.284 74.504 13.796C74.256 13.308 73.888 12.948 73.4 12.716C72.92 12.476 72.336 12.356 71.648 12.356H70.244V19.076H71.408C72.568 19.076 73.436 18.792 74.012 18.224C74.596 17.648 74.888 16.796 74.888 15.668ZM83.3776 16.772C83.3776 17.308 83.3056 17.784 83.1616 18.2C83.0256 18.608 82.8256 18.956 82.5616 19.244C82.3056 19.532 81.9896 19.752 81.6136 19.904C81.2456 20.048 80.8336 20.12 80.3776 20.12C79.9536 20.12 79.5616 20.048 79.2016 19.904C78.8416 19.752 78.5296 19.532 78.2656 19.244C78.0016 18.956 77.7936 18.608 77.6416 18.2C77.4976 17.784 77.4256 17.308 77.4256 16.772C77.4256 16.06 77.5456 15.46 77.7856 14.972C78.0256 14.476 78.3696 14.1 78.8176 13.844C79.2656 13.58 79.7976 13.448 80.4136 13.448C80.9976 13.448 81.5096 13.58 81.9496 13.844C82.3976 14.1 82.7456 14.476 82.9936 14.972C83.2496 15.46 83.3776 16.06 83.3776 16.772ZM78.5176 16.772C78.5176 17.276 78.5816 17.716 78.7096 18.092C78.8456 18.46 79.0536 18.744 79.3336 18.944C79.6136 19.144 79.9696 19.244 80.4016 19.244C80.8336 19.244 81.1896 19.144 81.4696 18.944C81.7496 18.744 81.9536 18.46 82.0816 18.092C82.2176 17.716 82.2856 17.276 82.2856 16.772C82.2856 16.26 82.2176 15.824 82.0816 15.464C81.9456 15.104 81.7376 14.828 81.4576 14.636C81.1856 14.436 80.8296 14.336 80.3896 14.336C79.7336 14.336 79.2576 14.552 78.9616 14.984C78.6656 15.416 78.5176 16.012 78.5176 16.772ZM88.9689 16.364C88.9209 16.196 88.8729 16.032 88.8249 15.872C88.7769 15.704 88.7329 15.548 88.6929 15.404C88.6609 15.252 88.6289 15.112 88.5969 14.984C88.5649 14.856 88.5409 14.748 88.5249 14.66H88.4769C88.4609 14.748 88.4369 14.856 88.4049 14.984C88.3809 15.112 88.3489 15.252 88.3089 15.404C88.2769 15.556 88.2369 15.716 88.1889 15.884C88.1489 16.044 88.1009 16.208 88.0449 16.376L86.8929 19.988H85.6929L83.9289 13.556H85.0209L85.9089 16.988C85.9729 17.22 86.0329 17.456 86.0889 17.696C86.1449 17.928 86.1929 18.152 86.2329 18.368C86.2809 18.576 86.3129 18.756 86.3289 18.908H86.3769C86.4009 18.812 86.4289 18.692 86.4609 18.548C86.4929 18.404 86.5249 18.252 86.5569 18.092C86.5969 17.932 86.6369 17.772 86.6769 17.612C86.7249 17.452 86.7689 17.308 86.8089 17.18L87.9489 13.556H89.1009L90.2049 17.18C90.2609 17.364 90.3169 17.56 90.3729 17.768C90.4369 17.976 90.4929 18.18 90.5409 18.38C90.5889 18.572 90.6209 18.744 90.6369 18.896H90.6849C90.7009 18.76 90.7289 18.592 90.7689 18.392C90.8169 18.184 90.8689 17.96 90.9249 17.72C90.9889 17.472 91.0529 17.228 91.1169 16.988L92.0169 13.556H93.0969L91.3089 19.988H90.0729L88.9689 16.364ZM97.3465 13.448C98.1145 13.448 98.6945 13.636 99.0865 14.012C99.4785 14.38 99.6745 14.98 99.6745 15.812V20H98.6305V15.884C98.6305 15.364 98.5145 14.976 98.2825 14.72C98.0505 14.464 97.6865 14.336 97.1905 14.336C96.4785 14.336 95.9865 14.536 95.7145 14.936C95.4425 15.336 95.3065 15.912 95.3065 16.664V20H94.2505V13.568H95.1025L95.2585 14.444H95.3185C95.4625 14.22 95.6385 14.036 95.8465 13.892C96.0625 13.74 96.2985 13.628 96.5545 13.556C96.8105 13.484 97.0745 13.448 97.3465 13.448ZM102.724 20H101.668V10.88H102.724V20ZM110.354 16.772C110.354 17.308 110.282 17.784 110.138 18.2C110.002 18.608 109.802 18.956 109.538 19.244C109.282 19.532 108.966 19.752 108.59 19.904C108.222 20.048 107.81 20.12 107.354 20.12C106.93 20.12 106.538 20.048 106.178 19.904C105.818 19.752 105.506 19.532 105.242 19.244C104.978 18.956 104.77 18.608 104.618 18.2C104.474 17.784 104.402 17.308 104.402 16.772C104.402 16.06 104.522 15.46 104.762 14.972C105.002 14.476 105.346 14.1 105.794 13.844C106.242 13.58 106.774 13.448 107.39 13.448C107.974 13.448 108.486 13.58 108.926 13.844C109.374 14.1 109.722 14.476 109.97 14.972C110.226 15.46 110.354 16.06 110.354 16.772ZM105.494 16.772C105.494 17.276 105.558 17.716 105.686 18.092C105.822 18.46 106.03 18.744 106.31 18.944C106.59 19.144 106.946 19.244 107.378 19.244C107.81 19.244 108.166 19.144 108.446 18.944C108.726 18.744 108.93 18.46 109.058 18.092C109.194 17.716 109.262 17.276 109.262 16.772C109.262 16.26 109.194 15.824 109.058 15.464C108.922 15.104 108.714 14.828 108.434 14.636C108.162 14.436 107.806 14.336 107.366 14.336C106.71 14.336 106.234 14.552 105.938 14.984C105.642 15.416 105.494 16.012 105.494 16.772ZM114.464 13.46C115.248 13.46 115.828 13.632 116.204 13.976C116.58 14.32 116.768 14.868 116.768 15.62V20H116L115.796 19.088H115.748C115.564 19.32 115.372 19.516 115.172 19.676C114.98 19.828 114.756 19.94 114.5 20.012C114.252 20.084 113.948 20.12 113.588 20.12C113.204 20.12 112.856 20.052 112.544 19.916C112.24 19.78 112 19.572 111.824 19.292C111.648 19.004 111.56 18.644 111.56 18.212C111.56 17.572 111.812 17.08 112.316 16.736C112.82 16.384 113.596 16.192 114.644 16.16L115.736 16.124V15.74C115.736 15.204 115.62 14.832 115.388 14.624C115.156 14.416 114.828 14.312 114.404 14.312C114.068 14.312 113.748 14.364 113.444 14.468C113.14 14.564 112.856 14.676 112.592 14.804L112.268 14.012C112.548 13.86 112.88 13.732 113.264 13.628C113.648 13.516 114.048 13.46 114.464 13.46ZM114.776 16.892C113.976 16.924 113.42 17.052 113.108 17.276C112.804 17.5 112.652 17.816 112.652 18.224C112.652 18.584 112.76 18.848 112.976 19.016C113.2 19.184 113.484 19.268 113.828 19.268C114.372 19.268 114.824 19.12 115.184 18.824C115.544 18.52 115.724 18.056 115.724 17.432V16.856L114.776 16.892ZM121.034 20.12C120.234 20.12 119.594 19.844 119.114 19.292C118.634 18.732 118.394 17.9 118.394 16.796C118.394 15.692 118.634 14.86 119.114 14.3C119.602 13.732 120.246 13.448 121.046 13.448C121.382 13.448 121.674 13.492 121.922 13.58C122.17 13.66 122.386 13.772 122.57 13.916C122.754 14.06 122.91 14.22 123.038 14.396H123.11C123.102 14.292 123.086 14.14 123.062 13.94C123.046 13.732 123.038 13.568 123.038 13.448V10.88H124.094V20H123.242L123.086 19.136H123.038C122.91 19.32 122.754 19.488 122.57 19.64C122.386 19.784 122.166 19.9 121.91 19.988C121.662 20.076 121.37 20.12 121.034 20.12ZM121.202 19.244C121.882 19.244 122.358 19.06 122.63 18.692C122.91 18.316 123.05 17.752 123.05 17V16.808C123.05 16.008 122.918 15.396 122.654 14.972C122.39 14.54 121.902 14.324 121.19 14.324C120.622 14.324 120.194 14.552 119.906 15.008C119.626 15.456 119.486 16.06 119.486 16.82C119.486 17.588 119.626 18.184 119.906 18.608C120.194 19.032 120.626 19.244 121.202 19.244ZM132.218 14.384H130.598V20H129.542V14.384H128.414V13.892L129.542 13.532V13.16C129.542 12.608 129.622 12.16 129.782 11.816C129.95 11.472 130.19 11.22 130.502 11.06C130.814 10.9 131.19 10.82 131.63 10.82C131.886 10.82 132.118 10.844 132.326 10.892C132.542 10.932 132.726 10.98 132.878 11.036L132.602 11.864C132.474 11.824 132.326 11.784 132.158 11.744C131.99 11.704 131.818 11.684 131.642 11.684C131.29 11.684 131.026 11.804 130.85 12.044C130.682 12.276 130.598 12.644 130.598 13.148V13.568H132.218V14.384ZM138.971 16.772C138.971 17.308 138.899 17.784 138.755 18.2C138.619 18.608 138.419 18.956 138.155 19.244C137.899 19.532 137.583 19.752 137.207 19.904C136.839 20.048 136.427 20.12 135.971 20.12C135.547 20.12 135.155 20.048 134.795 19.904C134.435 19.752 134.123 19.532 133.859 19.244C133.595 18.956 133.387 18.608 133.235 18.2C133.091 17.784 133.019 17.308 133.019 16.772C133.019 16.06 133.139 15.46 133.379 14.972C133.619 14.476 133.963 14.1 134.411 13.844C134.859 13.58 135.391 13.448 136.007 13.448C136.591 13.448 137.103 13.58 137.543 13.844C137.991 14.1 138.339 14.476 138.587 14.972C138.843 15.46 138.971 16.06 138.971 16.772ZM134.111 16.772C134.111 17.276 134.175 17.716 134.303 18.092C134.439 18.46 134.647 18.744 134.927 18.944C135.207 19.144 135.563 19.244 135.995 19.244C136.427 19.244 136.783 19.144 137.063 18.944C137.343 18.744 137.547 18.46 137.675 18.092C137.811 17.716 137.879 17.276 137.879 16.772C137.879 16.26 137.811 15.824 137.675 15.464C137.539 15.104 137.331 14.828 137.051 14.636C136.779 14.436 136.423 14.336 135.983 14.336C135.327 14.336 134.851 14.552 134.555 14.984C134.259 15.416 134.111 16.012 134.111 16.772ZM143.645 13.448C143.765 13.448 143.893 13.456 144.029 13.472C144.173 13.48 144.297 13.496 144.401 13.52L144.269 14.492C144.165 14.468 144.049 14.448 143.921 14.432C143.801 14.416 143.685 14.408 143.573 14.408C143.325 14.408 143.089 14.46 142.865 14.564C142.641 14.668 142.441 14.816 142.265 15.008C142.089 15.192 141.949 15.416 141.845 15.68C141.749 15.944 141.701 16.24 141.701 16.568V20H140.645V13.568H141.509L141.629 14.744H141.677C141.813 14.504 141.977 14.288 142.169 14.096C142.361 13.896 142.581 13.74 142.829 13.628C143.077 13.508 143.349 13.448 143.645 13.448Z" fill="white"></path>
  <path d="M91.842 25.84V46H88.958V32.182C88.958 31.958 88.9627 31.7153 88.972 31.454C88.9907 31.1833 89.014 30.9127 89.042 30.642L82.56 42.612C82.308 43.1067 81.9207 43.354 81.398 43.354H80.936C80.404 43.354 80.0167 43.1067 79.774 42.612L73.194 30.614C73.222 30.8847 73.2407 31.1553 73.25 31.426C73.2687 31.6967 73.278 31.9487 73.278 32.182V46H70.394V25.84H72.844C73.1333 25.84 73.3573 25.868 73.516 25.924C73.6747 25.9707 73.8193 26.1247 73.95 26.386L80.418 38.104C80.558 38.3747 80.6887 38.6547 80.81 38.944C80.9407 39.224 81.0573 39.5133 81.16 39.812C81.272 39.5133 81.3887 39.2193 81.51 38.93C81.6407 38.6313 81.776 38.3467 81.916 38.076L88.286 26.386C88.4167 26.1247 88.5613 25.9707 88.72 25.924C88.8787 25.868 89.1027 25.84 89.392 25.84H91.842ZM103.304 39.756C102.231 39.7933 101.325 39.882 100.588 40.022C99.8505 40.1527 99.2532 40.3253 98.7958 40.54C98.3385 40.7453 98.0072 40.9927 97.8018 41.282C97.6058 41.5713 97.5078 41.8887 97.5078 42.234C97.5078 42.57 97.5592 42.8593 97.6618 43.102C97.7738 43.3353 97.9232 43.5313 98.1098 43.69C98.3058 43.8393 98.5298 43.9513 98.7818 44.026C99.0432 44.0913 99.3278 44.124 99.6358 44.124C100.42 44.124 101.092 43.9793 101.652 43.69C102.221 43.3913 102.772 42.962 103.304 42.402V39.756ZM95.3238 33.708C96.9385 32.2053 98.8612 31.454 101.092 31.454C101.913 31.454 102.641 31.5893 103.276 31.86C103.92 32.1213 104.457 32.4947 104.886 32.98C105.325 33.4653 105.656 34.044 105.88 34.716C106.113 35.3787 106.23 36.116 106.23 36.928V46H104.886C104.597 46 104.377 45.958 104.228 45.874C104.079 45.7807 103.953 45.5987 103.85 45.328L103.556 44.166C103.192 44.4927 102.833 44.7867 102.478 45.048C102.123 45.3 101.755 45.5147 101.372 45.692C100.999 45.8693 100.593 46 100.154 46.084C99.7245 46.1773 99.2485 46.224 98.7258 46.224C98.1472 46.224 97.6058 46.1447 97.1018 45.986C96.6072 45.8273 96.1778 45.5893 95.8138 45.272C95.4498 44.9453 95.1605 44.544 94.9458 44.068C94.7405 43.592 94.6378 43.032 94.6378 42.388C94.6378 41.8373 94.7825 41.3007 95.0718 40.778C95.3705 40.2553 95.8558 39.7887 96.5278 39.378C97.2092 38.958 98.1005 38.6127 99.2018 38.342C100.313 38.0713 101.68 37.9173 103.304 37.88V36.928C103.304 35.9013 103.085 35.136 102.646 34.632C102.207 34.128 101.563 33.876 100.714 33.876C100.135 33.876 99.6498 33.9507 99.2578 34.1C98.8658 34.24 98.5252 34.394 98.2358 34.562C97.9465 34.73 97.6898 34.8887 97.4658 35.038C97.2418 35.178 97.0038 35.248 96.7518 35.248C96.5465 35.248 96.3692 35.1967 96.2198 35.094C96.0798 34.982 95.9632 34.8467 95.8698 34.688L95.3238 33.708ZM119.85 34.52C119.757 34.6413 119.668 34.7347 119.584 34.8C119.5 34.8653 119.379 34.898 119.22 34.898C119.061 34.898 118.893 34.842 118.716 34.73C118.548 34.618 118.343 34.4967 118.1 34.366C117.867 34.226 117.582 34.1 117.246 33.988C116.91 33.876 116.49 33.82 115.986 33.82C115.333 33.82 114.759 33.9367 114.264 34.17C113.779 34.4033 113.368 34.7393 113.032 35.178C112.705 35.6073 112.458 36.1347 112.29 36.76C112.131 37.376 112.052 38.0713 112.052 38.846C112.052 39.6487 112.141 40.3627 112.318 40.988C112.495 41.6133 112.747 42.1407 113.074 42.57C113.41 42.9993 113.811 43.326 114.278 43.55C114.754 43.774 115.286 43.886 115.874 43.886C116.453 43.886 116.924 43.816 117.288 43.676C117.652 43.536 117.955 43.382 118.198 43.214C118.441 43.046 118.646 42.892 118.814 42.752C118.991 42.612 119.178 42.542 119.374 42.542C119.617 42.542 119.803 42.6353 119.934 42.822L120.788 43.928C120.443 44.348 120.06 44.7027 119.64 44.992C119.22 45.2813 118.777 45.5193 118.31 45.706C117.843 45.8833 117.358 46.0093 116.854 46.084C116.35 46.168 115.841 46.21 115.328 46.21C114.441 46.21 113.611 46.0467 112.836 45.72C112.071 45.384 111.399 44.9033 110.82 44.278C110.251 43.6433 109.798 42.8733 109.462 41.968C109.135 41.0533 108.972 40.0127 108.972 38.846C108.972 37.7913 109.121 36.816 109.42 35.92C109.719 35.0147 110.153 34.2353 110.722 33.582C111.301 32.9287 112.015 32.42 112.864 32.056C113.713 31.6827 114.693 31.496 115.804 31.496C116.84 31.496 117.75 31.664 118.534 32C119.327 32.336 120.032 32.812 120.648 33.428L119.85 34.52Z" fill="white"></path>
  <path d="M38.644 19.1922C38.0603 19.3653 37.2353 19.4991 36.1803 19.5939C36.2278 17.2408 36.8414 15.2112 38.0303 13.5079C39.1973 11.8154 41.1687 10.6461 43.9479 10C43.9652 10.0452 43.9875 10.1358 44.0089 10.2616C44.0305 10.3873 44.052 10.4736 44.0695 10.5211C44.0695 10.5836 44.0737 10.6634 44.0823 10.7582C44.0867 10.8539 44.091 10.9315 44.091 10.9968C44.091 11.9599 43.8617 13.0322 43.404 14.2166C42.9326 15.401 42.1973 16.4905 41.2033 17.4852C40.3516 18.3362 39.4956 18.9068 38.644 19.1922ZM49.2562 35.7963C48.1674 34.2353 47.6226 32.4716 47.6226 30.5138C47.6226 28.7286 48.133 27.0942 49.1614 25.6117C49.7148 24.8031 50.6139 23.8737 51.8629 22.8152C51.0415 21.8033 50.2207 21.017 49.3993 20.4463C47.9122 19.4215 46.2306 18.9069 44.3505 18.9069C43.2306 18.9069 41.8644 19.1749 40.2566 19.7111C38.7094 20.2516 37.5765 20.5168 36.8674 20.5168C36.3312 20.5168 35.2423 20.2818 33.5993 19.8067C31.9399 19.3324 30.5434 19.0973 29.4064 19.0973C26.6875 19.0973 24.4481 20.2336 22.6758 22.5076C20.8905 24.8118 20 27.7685 20 31.3649C20 35.1913 21.1629 39.1592 23.4843 43.2831C25.836 47.3725 28.2134 49.4172 30.6124 49.4172C31.4166 49.4172 32.4624 49.1491 33.7381 48.613C35.0174 48.0905 36.1414 47.8303 37.1051 47.8303C38.1301 47.8303 39.3231 48.0832 40.6801 48.587C42.1153 49.0931 43.2221 49.3453 43.9962 49.3453C46.0193 49.3453 48.046 47.7987 50.0864 44.7032C51.4095 42.7296 52.3819 40.7568 53 38.7832C51.5906 38.355 50.3459 37.3609 49.2562 35.7963Z" fill="white"></path>
</svg>
