<svg width="20" height="20" viewBox="0 0 20 20" fill="none" xmlns="http://www.w3.org/2000/svg">
<g clip-path="url(#clip0_7125_16091)">
<path d="M9.98906 1.66699C5.38906 1.66699 1.66406 5.40033 1.66406 10.0003C1.66406 14.6003 5.38906 18.3337 9.98906 18.3337C14.5974 18.3337 18.3307 14.6003 18.3307 10.0003C18.3307 5.40033 14.5974 1.66699 9.98906 1.66699ZM9.9974 16.667C6.31406 16.667 3.33073 13.6837 3.33073 10.0003C3.33073 6.31699 6.31406 3.33366 9.9974 3.33366C13.6807 3.33366 16.6641 6.31699 16.6641 10.0003C16.6641 13.6837 13.6807 16.667 9.9974 16.667ZM10.4141 5.83366H9.16406V10.8337L13.5391 13.4587L14.1641 12.4337L10.4141 10.2087V5.83366Z" fill="#624DE3"/>
</g>
<defs>
<clipPath id="clip0_7125_16091">
<rect width="20" height="20" fill="white"/>
</clipPath>
</defs>
</svg>
