<svg width="20" height="20" viewBox="0 0 20 20" fill="none" xmlns="http://www.w3.org/2000/svg">
<path d="M10.5 12.7C11.375 12.7 12.1641 12.4937 12.8672 12.0812C13.5703 11.6687 14.125 11.125 14.5312 10.45C13.9844 10.015 13.3672 9.68125 12.6797 9.44875C11.9922 9.21625 11.2656 9.1 10.5 9.1C9.73438 9.1 9.00781 9.21625 8.32031 9.44875C7.63281 9.68125 7.01562 10.015 6.46875 10.45C6.875 11.125 7.42969 11.6687 8.13281 12.0812C8.83594 12.4937 9.625 12.7 10.5 12.7ZM10.5 8.2C11.0156 8.2 11.457 8.02375 11.8242 7.67125C12.1914 7.31875 12.375 6.895 12.375 6.4C12.375 5.905 12.1914 5.48125 11.8242 5.12875C11.457 4.77625 11.0156 4.6 10.5 4.6C9.98438 4.6 9.54297 4.77625 9.17578 5.12875C8.80859 5.48125 8.625 5.905 8.625 6.4C8.625 6.895 8.80859 7.31875 9.17578 7.67125C9.54297 8.02375 9.98438 8.2 10.5 8.2ZM10.5 16.615C12.4062 14.935 13.8203 13.4087 14.7422 12.0362C15.6641 10.6637 16.125 9.445 16.125 8.38C16.125 6.745 15.582 5.40625 14.4961 4.36375C13.4102 3.32125 12.0781 2.8 10.5 2.8C8.92188 2.8 7.58984 3.32125 6.50391 4.36375C5.41797 5.40625 4.875 6.745 4.875 8.38C4.875 9.445 5.33594 10.6637 6.25781 12.0362C7.17969 13.4087 8.59375 14.935 10.5 16.615ZM10.5 19C7.98438 16.945 6.10547 15.0362 4.86328 13.2737C3.62109 11.5112 3 9.88 3 8.38C3 6.13 3.75391 4.3375 5.26172 3.0025C6.76953 1.6675 8.51562 1 10.5 1C12.4844 1 14.2305 1.6675 15.7383 3.0025C17.2461 4.3375 18 6.13 18 8.38C18 9.88 17.3789 11.5112 16.1367 13.2737C14.8945 15.0362 13.0156 16.945 10.5 19Z" fill="#624DE3"/>
</svg>
