<svg width="20" height="20" viewBox="0 0 20 20" fill="none" xmlns="http://www.w3.org/2000/svg">
<mask id="mask0_1_8090" style="mask-type:alpha" maskUnits="userSpaceOnUse" x="2" y="2" width="16" height="16">
<rect x="2" y="2" width="16" height="16" fill="#D9D9D9"/>
</mask>
<g mask="url(#mask0_1_8090)">
<path d="M2 16.6667V6.88889L8.4 2L12.7 5.3C12.3667 5.34074 12.0533 5.41883 11.76 5.53426C11.4667 5.64969 11.1867 5.80247 10.92 5.99259L8.4 4.03704L3.6 7.7037V15.037H6.8V16.6667H2ZM8.4 16.6667V15.1185C8.4 14.8333 8.47 14.5651 8.61 14.3139C8.75 14.0627 8.94 13.8623 9.18 13.713C9.79333 13.3463 10.4367 13.0679 11.11 12.8778C11.7833 12.6877 12.48 12.5926 13.2 12.5926C13.92 12.5926 14.6167 12.6877 15.29 12.8778C15.9633 13.0679 16.6067 13.3463 17.22 13.713C17.46 13.8623 17.65 14.0627 17.79 14.3139C17.93 14.5651 18 14.8333 18 15.1185V16.6667H8.4ZM10.12 15.037H16.28C15.8133 14.7654 15.32 14.5617 14.8 14.4259C14.28 14.2901 13.7467 14.2222 13.2 14.2222C12.6533 14.2222 12.12 14.2901 11.6 14.4259C11.08 14.5617 10.5867 14.7654 10.12 15.037ZM13.2 11.7778C12.5333 11.7778 11.9667 11.5401 11.5 11.0648C11.0333 10.5895 10.8 10.0123 10.8 9.33333C10.8 8.65432 11.0333 8.07716 11.5 7.60185C11.9667 7.12654 12.5333 6.88889 13.2 6.88889C13.8667 6.88889 14.4333 7.12654 14.9 7.60185C15.3667 8.07716 15.6 8.65432 15.6 9.33333C15.6 10.0123 15.3667 10.5895 14.9 11.0648C14.4333 11.5401 13.8667 11.7778 13.2 11.7778ZM13.2 10.1481C13.4267 10.1481 13.6167 10.0701 13.77 9.91389C13.9233 9.75772 14 9.5642 14 9.33333C14 9.10247 13.9233 8.90895 13.77 8.75278C13.6167 8.59661 13.4267 8.51852 13.2 8.51852C12.9733 8.51852 12.7833 8.59661 12.63 8.75278C12.4767 8.90895 12.4 9.10247 12.4 9.33333C12.4 9.5642 12.4767 9.75772 12.63 9.91389C12.7833 10.0701 12.9733 10.1481 13.2 10.1481Z" fill="#624DE3"/>
</g>
</svg>
