<svg width="20" height="20" viewBox="0 0 20 20" fill="none" xmlns="http://www.w3.org/2000/svg">
<path d="M15.9196 1.66995C15.7977 1.66277 15.6738 1.66941 15.5485 1.69111H15.5469L3.88021 3.72561C3.08777 3.86409 2.5 4.56307 2.5 5.36624V14.6338C2.5 15.437 3.08777 16.136 3.88021 16.2744L15.5469 18.3089H15.5485C16.5508 18.4826 17.5 17.6852 17.5 16.6667V3.33336C17.5 2.44219 16.7728 1.72019 15.9196 1.66995ZM15.8317 3.33336H15.8333V9.1667H10V4.34899L15.8317 3.33336ZM8.33333 4.64033V9.1667H4.16667V5.36624L8.33333 4.64033ZM4.16667 10.8334H8.33333V15.3597L4.16667 14.6338V10.8334ZM10 10.8334H15.8333V16.6667H15.8317L10 15.6511V10.8334Z" fill="#5D2BFF"/>
</svg>
