<svg width="20" height="20" viewBox="0 0 20 20" fill="none" xmlns="http://www.w3.org/2000/svg">
<path d="M9.16669 0.833313C7.79588 0.833313 6.66669 1.9625 6.66669 3.33331H3.33335C2.42247 3.33331 1.66669 4.08909 1.66669 4.99998V9.99998H3.33335C3.80421 9.99998 4.16669 10.3625 4.16669 10.8333C4.16669 11.3042 3.80421 11.6666 3.33335 11.6666H1.66669V16.6666C1.66669 17.5775 2.42247 18.3333 3.33335 18.3333H8.33335V16.6666C8.33335 16.1958 8.69583 15.8333 9.16669 15.8333C9.63755 15.8333 10 16.1958 10 16.6666V18.3333H15C15.9109 18.3333 16.6667 17.5775 16.6667 16.6666V13.3333C18.0375 13.3333 19.1667 12.2041 19.1667 10.8333C19.1667 9.4625 18.0375 8.33331 16.6667 8.33331V4.99998C16.6667 4.08909 15.9109 3.33331 15 3.33331H11.6667C11.6667 1.9625 10.5375 0.833313 9.16669 0.833313ZM9.16669 2.49998C9.63755 2.49998 10 2.86245 10 3.33331V4.99998H15V9.99998H16.6667C17.1375 9.99998 17.5 10.3625 17.5 10.8333C17.5 11.3042 17.1375 11.6666 16.6667 11.6666H15V16.6666H11.6667C11.6667 15.2958 10.5375 14.1666 9.16669 14.1666C7.79588 14.1666 6.66669 15.2958 6.66669 16.6666H3.33335V13.3333C4.70416 13.3333 5.83335 12.2041 5.83335 10.8333C5.83335 9.4625 4.70416 8.33331 3.33335 8.33331V4.99998H8.33335V3.33331C8.33335 2.86245 8.69583 2.49998 9.16669 2.49998Z" fill="#5D2BFF"/>
</svg>
