<svg width="20" height="20" viewBox="0 0 20 20" fill="none" xmlns="http://www.w3.org/2000/svg">
<path d="M6.27767 2.48047C4.18744 2.48047 2.48047 4.18744 2.48047 6.27767V13.6849C2.48047 15.7751 4.18744 17.4821 6.27767 17.4821H13.6849C15.7751 17.4821 17.4821 15.7751 17.4821 13.6849V6.27767C17.4821 4.18744 15.7751 2.48047 13.6849 2.48047H6.27767ZM6.27767 4.14714H13.6849C14.8847 4.14714 15.8154 5.0779 15.8154 6.27767V13.6849C15.8154 14.8847 14.8847 15.8154 13.6849 15.8154H6.27767C5.0779 15.8154 4.14714 14.8847 4.14714 13.6849V6.27767C4.14714 5.0779 5.0779 4.14714 6.27767 4.14714ZM5.41667 7.5C5.30616 7.5 5.20018 7.5439 5.12204 7.62204C5.0439 7.70018 5 7.80616 5 7.91667C5 8.02717 5.0439 8.13315 5.12204 8.2113C5.20018 8.28944 5.30616 8.33333 5.41667 8.33333C5.52717 8.33333 5.63315 8.28944 5.71129 8.2113C5.78943 8.13315 5.83333 8.02717 5.83333 7.91667C5.83333 7.80616 5.78943 7.70018 5.71129 7.62204C5.63315 7.5439 5.52717 7.5 5.41667 7.5ZM8.75 7.5C7.4675 7.5 6.66667 8.46 6.66667 10C6.66667 11.5367 7.4525 12.5 8.75 12.5C10.0442 12.5 10.8333 11.5333 10.8333 10C10.8333 8.46333 10.0383 7.5 8.75 7.5ZM13.3333 7.5C12.8684 7.5 12.4419 7.65061 12.137 7.94108C11.8321 8.23156 11.6667 8.6522 11.6667 9.10645C11.6667 9.54841 11.9615 9.90618 12.2721 10.0765C12.5828 10.2468 12.9177 10.319 13.2243 10.402C13.5454 10.489 13.8368 10.5681 13.9941 10.6543C14.1515 10.7405 14.1667 10.7432 14.1667 10.8936C14.1667 11.1573 14.0859 11.3321 13.9551 11.4567C13.8242 11.5813 13.6252 11.6667 13.3333 11.6667C13.0634 11.6667 12.8618 11.5891 12.7279 11.4648C12.594 11.3406 12.5 11.159 12.5 10.8333H11.6667C11.6667 11.341 11.8464 11.7844 12.1615 12.0768C12.4765 12.3692 12.8991 12.5 13.3333 12.5C13.7981 12.5 14.2246 12.351 14.5296 12.0605C14.8346 11.7701 15 11.3481 15 10.8936C15 10.4514 14.7053 10.0937 14.3945 9.9235C14.0838 9.75327 13.7488 9.68099 13.4424 9.59798C13.1214 9.51103 12.83 9.43205 12.6725 9.3457C12.515 9.25936 12.5 9.25615 12.5 9.10645C12.5 8.84319 12.5807 8.66803 12.7116 8.54329C12.8425 8.41856 13.0416 8.33333 13.3333 8.33333C13.6032 8.33333 13.8049 8.41087 13.9388 8.53516C14.0727 8.65944 14.1667 8.84097 14.1667 9.16667H15C15 8.65903 14.8203 8.21556 14.5052 7.92318C14.1902 7.63079 13.7676 7.5 13.3333 7.5ZM8.75 8.33333C9.8375 8.33333 10 9.3775 10 10C10 10.6225 9.8375 11.6667 8.75 11.6667C7.71667 11.6667 7.5 10.76 7.5 10C7.5 9.3775 7.6625 8.33333 8.75 8.33333ZM5 9.16667V12.5H5.83333V9.16667H5Z" fill="#5D2BFF"/>
</svg>
