<svg width="22" height="22" viewBox="0 0 22 22" fill="none" xmlns="http://www.w3.org/2000/svg">
<path d="M8.56952 16.3262L8.56953 16.3262C8.47699 16.2683 8.39616 16.1725 8.33876 16.049C8.2666 15.9039 8.20766 15.7053 8.17435 15.4724C8.14972 15.308 8.13298 15.1333 8.13298 14.957C8.13298 14.7052 8.16648 14.4397 8.22378 14.1695L8.22384 14.1692C8.32265 13.7078 8.50291 13.2338 8.74591 12.7556C8.74599 12.7555 8.74606 12.7554 8.74613 12.7552L8.80138 12.6446L8.8029 12.6416L8.80294 12.6416C9.17091 11.9454 9.77136 11.1063 10.5762 10.1413V10.1346L10.6096 10.0933C10.6772 10.01 10.738 9.9346 10.7929 9.86652C10.9304 9.69605 11.0308 9.57158 11.1062 9.48446L11.1132 9.47636L11.1135 9.47663L11.1155 9.47467C11.5164 8.97059 11.7561 8.59064 11.8583 8.30588L11.8592 8.30336L11.8592 8.30337C11.94 8.09043 11.9768 7.87765 11.9768 7.64793C11.9768 7.58362 11.9767 7.52775 11.9698 7.46544L11.9693 7.46134L11.9694 7.46134L11.951 7.24046L8.53753 7.78808L8.53603 7.78832L8.53603 7.78831C8.37396 7.81263 8.2143 7.82978 8.07606 7.82978H8.06014C7.86946 7.82978 7.69592 7.79549 7.56814 7.73663C7.35483 7.64032 7.23391 7.4564 7.19577 7.20982C7.18592 7.15002 7.18593 7.09222 7.18594 7.05398V7.05079C7.18594 6.86725 7.25 6.71565 7.38459 6.591C7.5785 6.40724 7.90373 6.29845 8.29859 6.23395L8.29865 6.23394L12.1107 5.61291L12.1116 5.61276C12.3692 5.5725 12.6009 5.54727 12.7953 5.54727H12.8113C13.0516 5.54727 13.1889 5.58743 13.2722 5.64135C13.3649 5.69628 13.4357 5.79901 13.4866 5.90091L13.4884 5.90454L13.4884 5.90456C13.5513 6.03944 13.6022 6.21247 13.6357 6.4211C13.6771 6.66197 13.6934 6.9093 13.6934 7.15429C13.6934 7.20586 13.6913 7.2548 13.6893 7.29929L13.6892 7.3007C13.6872 7.34564 13.6855 7.38556 13.6855 7.425V7.43571L13.6851 7.43568C13.6604 7.78133 13.5947 8.13415 13.4964 8.47011C13.3209 9.08001 12.8444 9.87072 12.1109 10.82M8.56952 16.3262L11.9915 10.7292M8.56952 16.3262L8.57186 16.3276C8.64858 16.3737 8.77934 16.4048 9.03901 16.4048V16.2548M8.56952 16.3262L9.03901 16.2548M12.1109 10.82C12.1107 10.8203 12.1105 10.8206 12.1102 10.8209L11.9915 10.7292M12.1109 10.82C12.1111 10.8197 12.1113 10.8195 12.1116 10.8192L11.9915 10.7292M12.1109 10.82C12.0289 10.9294 11.9583 11.0171 11.9061 11.082C11.8826 11.1112 11.8628 11.1358 11.8473 11.1557L11.8416 11.163L11.835 11.1696L11.8334 11.1712M11.9915 10.7292C11.9106 10.8372 11.8443 10.9195 11.7926 10.9837L11.7926 10.9837C11.7681 11.0142 11.7468 11.0405 11.7289 11.0636L11.721 11.0716M11.8334 11.1712C11.8339 11.1706 11.8343 11.17 11.8348 11.1694C11.8362 11.1677 11.8376 11.1659 11.8389 11.1642L11.7952 11.1299L11.721 11.0716M11.8334 11.1712C11.7472 11.2812 11.6228 11.4447 11.4675 11.6545L11.4609 11.6634L11.453 11.6712L11.4521 11.6722C10.9631 12.3117 10.5809 12.867 10.3328 13.3246L10.3316 13.3268L10.3316 13.3267C10.0892 13.757 9.95612 14.1119 9.9199 14.3873L9.91959 14.3897L9.91957 14.3897L9.87785 14.6726L13.4557 14.0923L13.4566 14.0922C13.715 14.0518 13.9543 14.0267 14.1642 14.0267H14.188C14.3978 14.0267 14.5764 14.0517 14.7262 14.1079L14.7274 14.1084C14.8417 14.1523 14.9488 14.212 15.028 14.3122C15.1053 14.4021 15.1529 14.5247 15.1718 14.6466C15.1796 14.6935 15.1896 14.7602 15.1896 14.8136C15.1896 15.0139 15.1163 15.1802 14.9555 15.2992C14.7313 15.4755 14.324 15.6065 13.766 15.6943C13.7659 15.6943 13.7658 15.6943 13.7657 15.6943L10.3047 16.2595L10.3037 16.2596C9.81894 16.3354 9.41906 16.3839 9.11689 16.3885C9.10736 16.3926 9.09911 16.3953 9.09318 16.397C9.07924 16.401 9.06708 16.4028 9.05859 16.4037C9.05416 16.4041 9.05026 16.4044 9.04703 16.4046L9.04259 16.4047L9.04069 16.4047L9.03983 16.4048L9.03942 16.4048H9.03922H9.03912L9.03901 16.2548M11.8334 11.1712L11.827 11.1776L11.721 11.0716M11.721 11.0716C11.6334 11.183 11.5061 11.3502 11.3469 11.5652L11.339 11.5732C10.8455 12.2181 10.4556 12.7834 10.2009 13.2531C9.95422 13.691 9.81097 14.0652 9.77118 14.3678L9.03901 16.2548M7.53439 21.1014L7.53441 21.1017L7.54312 21.1003L17.491 19.476C19.865 19.0884 21.48 16.8376 21.0926 14.463L19.4692 4.51063C19.0818 2.13572 16.8319 0.519841 14.4583 0.907383L14.4825 1.05542L14.4583 0.907383L4.51112 2.5315C4.511 2.53152 4.51088 2.53154 4.51076 2.53155C3.36452 2.71316 2.35881 3.34043 1.67546 4.28753C0.99125 5.22785 0.719316 6.38302 0.908786 7.53684L2.53223 17.4889C2.87846 19.625 4.7329 21.15 6.83453 21.15C7.06577 21.15 7.28853 21.1269 7.5094 21.104L7.53439 21.1014ZM3.76746 17.2818L3.76742 17.2815L2.14406 7.32998C2.14404 7.32984 2.14402 7.3297 2.144 7.32956C2.01501 6.50906 2.21223 5.68868 2.69133 5.01155C3.16873 4.33683 3.88886 3.89622 4.71019 3.7592C4.71028 3.75918 4.71037 3.75917 4.71046 3.75915L14.6576 2.13505C16.3512 1.86152 17.9528 3.00894 18.226 4.70199L18.226 4.70224L19.8495 14.6544C20.1229 16.3489 18.9759 17.9512 17.2837 18.2245L17.2835 18.2245L7.33586 19.8487C5.64229 20.1222 4.04065 18.9748 3.76746 17.2818Z" fill="#5D2BFF" stroke="#5D2BFF" stroke-width="0.3"/>
</svg>
