<svg width="20" height="20" viewBox="0 0 20 20" fill="none" xmlns="http://www.w3.org/2000/svg">
<path d="M13.1092 3.24051L12.2792 4.07047V2.89715C12.2792 2.32184 11.8179 1.9 11.2821 1.9H8.48711C7.9118 1.9 7.48996 2.36137 7.48996 2.89715V4.07048L6.66 3.24051L6.66008 3.24043L6.65656 3.23723C6.24089 2.85935 5.62806 2.85465 5.24217 3.2402L3.24113 5.20674L3.24113 5.20674L3.24051 5.20735C2.8564 5.59146 2.8564 6.24138 3.24051 6.62549L4.07048 7.45545H2.89715C2.32184 7.45545 1.9 7.91683 1.9 8.45261V11.2476C1.9 11.8229 2.36137 12.2447 2.89715 12.2447H4.07048L3.24051 13.0747L3.24043 13.0746L3.23723 13.0781C2.85925 13.4939 2.85465 14.107 3.24051 14.4928L5.20735 16.4597C5.59146 16.8438 6.24138 16.8438 6.62549 16.4597L7.45545 15.6297V16.803C7.45545 17.3784 7.91683 17.8002 8.45261 17.8002H11.2476C11.8229 17.8002 12.2447 17.3388 12.2447 16.803V15.6297L13.0747 16.4597L13.0746 16.4598L13.0781 16.463C13.4939 16.8409 14.107 16.8455 14.4928 16.4597L16.4597 14.4928C16.8438 14.1087 16.8438 13.4588 16.4597 13.0747L15.6297 12.2447H16.803C17.3784 12.2447 17.8002 11.7834 17.8002 11.2476V8.4595C17.8743 7.90814 17.4015 7.45545 16.8375 7.45545H15.6642L16.4942 6.62549L16.4943 6.62557L16.4975 6.62205C16.8755 6.20627 16.8801 5.59322 16.4942 5.20735L14.5273 3.24051C14.1432 2.8564 13.4933 2.8564 13.1092 3.24051ZM14.1931 11.6893L14.193 11.6892L14.1913 11.6935C14.0387 12.075 14.1155 12.4972 14.4204 12.8021L15.4539 13.8355L13.801 15.4884L12.7675 14.4549C12.4626 14.15 12.0405 14.0732 11.659 14.2258C11.2769 14.3786 11.0096 14.7599 11.0096 15.1813V16.6685H8.65613V15.1813C8.65613 14.7606 8.42474 14.4172 8.04875 14.2292L8.04891 14.2289L8.04117 14.2258C7.65972 14.0732 7.23755 14.15 6.93265 14.4549L5.89917 15.4884L4.24628 13.8355L5.27976 12.8021C5.58466 12.4972 5.66151 12.075 5.50893 11.6935C5.35608 11.3114 4.97484 11.0441 4.55344 11.0441H3.06617V8.69063H4.55344C4.97575 8.69063 5.31988 8.45735 5.50712 8.04541L5.50722 8.04546L5.50893 8.04117C5.66151 7.65972 5.58466 7.23755 5.27976 6.93265L4.24628 5.89917L5.89917 4.24628L6.93265 5.27976C7.23755 5.58466 7.65972 5.66151 8.04117 5.50893C8.42331 5.35608 8.69063 4.97484 8.69063 4.55344V3.06617H11.0441V4.55344C11.0441 4.97575 11.2774 5.31988 11.6893 5.50712L11.6892 5.50722L11.6935 5.50893C12.075 5.66151 12.4972 5.58466 12.8021 5.27976L13.8355 4.24628L15.4884 5.89917L14.4549 6.93265C14.15 7.23755 14.0732 7.65972 14.2258 8.04117C14.381 8.42915 14.7664 8.65613 15.1813 8.65613H16.6685V11.0441H15.1468C14.7244 11.0441 14.3803 11.2774 14.1931 11.6893Z" fill="#6754E2" stroke="#6754E2" stroke-width="0.2"/>
<path d="M12.5941 8.79937L12.5941 8.79942L12.5966 8.79671C12.728 8.65523 12.7766 8.49118 12.7615 8.33409C12.7465 8.17944 12.6705 8.03747 12.563 7.9325C12.4555 7.82751 12.3117 7.75485 12.1556 7.7457C11.9969 7.7364 11.8335 7.79333 11.6935 7.93333L9.14177 10.4851L8.64314 9.98643L8.07379 9.41708C7.93318 9.27648 7.7689 9.22178 7.61016 9.23445C7.45428 9.2469 7.31179 9.32349 7.20692 9.43086C7.10209 9.53818 7.0293 9.68193 7.02012 9.83607C7.01079 9.9927 7.06782 10.1526 7.209 10.2844L8.726 11.8014C8.97209 12.0475 9.34596 12.0475 9.59205 11.8014L12.2145 9.17894L12.5941 8.79937Z" fill="#6754E2" stroke="#6754E2" stroke-width="0.2"/>
</svg>
