<svg width="20" height="20" viewBox="0 0 20 20" fill="none" xmlns="http://www.w3.org/2000/svg">
<g clip-path="url(#clip0_7125_13055)">
<path d="M12.5 0.833008H7.5V2.49967H12.5V0.833008ZM9.16667 11.6663H10.8333V6.66634H9.16667V11.6663ZM15.8583 6.15801L17.0417 4.97467C16.6833 4.54967 16.2917 4.14967 15.8667 3.79967L14.6833 4.98301C13.3917 3.94967 11.7667 3.33301 10 3.33301C5.85833 3.33301 2.5 6.69134 2.5 10.833C2.5 14.9747 5.85 18.333 10 18.333C14.15 18.333 17.5 14.9747 17.5 10.833C17.5 9.06634 16.8833 7.44134 15.8583 6.15801ZM10 16.6663C6.775 16.6663 4.16667 14.058 4.16667 10.833C4.16667 7.60801 6.775 4.99967 10 4.99967C13.225 4.99967 15.8333 7.60801 15.8333 10.833C15.8333 14.058 13.225 16.6663 10 16.6663Z" fill="#5D2BFF"/>
</g>
<defs>
<clipPath id="clip0_7125_13055">
<rect width="20" height="20" fill="white"/>
</clipPath>
</defs>
</svg>
