<svg width="22" height="22" viewBox="0 0 22 22" fill="none" xmlns="http://www.w3.org/2000/svg">
<path d="M7.72089 15.4712L7.72091 15.4712L7.72279 15.4695L8.12114 15.1088C8.39546 15.2662 8.70303 15.3824 9.02486 15.451V15.9474C9.02486 16.3009 9.34054 16.5732 9.70557 16.5732C10.0706 16.5732 10.3863 16.3009 10.3863 15.9474V15.4513C10.7124 15.3826 11.0163 15.2663 11.29 15.1089L11.6883 15.4695C11.8253 15.5935 11.9955 15.6478 12.1678 15.6478C12.3423 15.6478 12.5107 15.5869 12.6453 15.4712L12.6453 15.4712L12.6472 15.4695C12.9175 15.2247 12.9175 14.8247 12.6472 14.5799L12.2603 14.2296C12.429 13.9848 12.5545 13.7109 12.6295 13.4239H13.1898C13.5548 13.4239 13.8705 13.1516 13.8705 12.7981C13.8705 12.4446 13.5548 12.1723 13.1898 12.1723H12.6298C12.5547 11.8815 12.4291 11.6107 12.2604 11.3665L12.6472 11.0163C12.9175 10.7716 12.9175 10.3715 12.6472 10.1267C12.5102 10.0027 12.3401 9.94838 12.1678 9.94838C11.9932 9.94838 11.8248 10.0093 11.6903 10.125L11.6902 10.125L11.6883 10.1267L11.29 10.4874C11.0157 10.33 10.7081 10.2138 10.3863 10.1452V9.64881C10.3863 9.29529 10.0706 9.02305 9.70557 9.02305C9.34054 9.02305 9.02486 9.29529 9.02486 9.64881V10.1449C8.69873 10.2136 8.39487 10.3299 8.12111 10.4874L7.72279 10.1267C7.58582 10.0027 7.41566 9.94838 7.24338 9.94838C7.06885 9.94838 6.90044 10.0093 6.76586 10.125L6.76584 10.125L6.76396 10.1267C6.49364 10.3715 6.49364 10.7716 6.76396 11.0163L7.15082 11.3666C6.9821 11.6114 6.85668 11.8853 6.78164 12.1723H6.22133C5.8563 12.1723 5.54062 12.4446 5.54062 12.7981C5.54062 13.1516 5.8563 13.4239 6.22133 13.4239H6.78137C6.85646 13.7147 6.98206 13.9855 7.15078 14.2297L6.76396 14.5799C6.49364 14.8247 6.49364 15.2247 6.76396 15.4695C6.90093 15.5935 7.07109 15.6478 7.24338 15.6478C7.4179 15.6478 7.58631 15.5869 7.72089 15.4712ZM9.69976 11.3103C10.6123 11.3103 11.3419 11.9844 11.3419 12.7876C11.3419 13.5907 10.6123 14.2649 9.69976 14.2649C8.78724 14.2649 8.05764 13.5907 8.05764 12.7876C8.05764 11.9844 8.78724 11.3103 9.69976 11.3103Z" fill="#5D2BFF" stroke="#5D2BFF" stroke-width="0.2"/>
<path d="M1.58071 19.7336C1.94707 19.7336 2.26141 19.4625 2.26141 19.1078C2.26141 18.7531 1.94707 18.482 1.58071 18.482C1.21435 18.482 0.9 18.7531 0.9 19.1078C0.9 19.4625 1.21435 19.7336 1.58071 19.7336Z" fill="#5D2BFF" stroke="#5D2BFF" stroke-width="0.2"/>
<path d="M4.20315 9.86433L4.19956 9.87063L4.18436 9.89746C4.17116 9.92084 4.15211 9.95479 4.12875 9.99696C4.08202 10.0813 4.01818 10.1984 3.94967 10.3293C3.81162 10.5931 3.6583 10.9062 3.58561 11.1213L3.49087 11.0893L3.5858 11.1208C3.50695 11.3587 3.3463 11.5084 3.17774 11.572L3.17462 11.5731L3.1746 11.5731L2.85014 11.6832C2.85002 11.6833 2.8499 11.6833 2.84978 11.6834C2.58459 11.7755 2.28857 11.6862 2.16387 11.4271L2.15397 11.4066V11.3971C2.15363 11.3963 2.15326 11.3954 2.15287 11.3944L2.14814 11.3835L2.14658 11.3801L2.1462 11.3793L2.14616 11.3792L2.14616 11.3792L2.14615 11.3792L2.14615 11.3792L2.14613 11.3792L2.14425 11.3752L2.14434 11.3751L1.372 9.53498L1.37085 9.53225L1.37089 9.53223C1.26012 9.24474 1.43366 8.94752 1.72499 8.85921C1.86307 8.81562 2.00936 8.82167 2.14202 8.87845C2.14215 8.8785 2.14227 8.87856 2.1424 8.87861L3.01697 9.24555C3.62635 8.31924 4.45356 7.55205 5.44046 6.97787C5.27195 6.86406 5.11213 6.73427 4.97366 6.58302C4.46187 6.03228 4.21877 5.33667 4.29146 4.62307C4.41017 3.41987 5.38576 2.4737 6.64864 2.24551V1.42587C6.64864 1.28182 6.70714 1.14978 6.81508 1.05205C7.03891 0.849406 7.39289 0.849316 7.61683 1.05178C7.61693 1.05187 7.61703 1.05196 7.61713 1.05205L9.18448 2.45008L9.18504 2.45057C9.40958 2.65387 9.40783 2.99526 9.1862 3.20239L9.18423 3.20423L9.1842 3.2042L7.61713 4.59146C7.61698 4.5916 7.61683 4.59174 7.61667 4.59187C7.50851 4.68957 7.36164 4.73826 7.2132 4.73826C6.91037 4.73826 6.64864 4.50654 6.64864 4.21239V3.53349C6.09278 3.73091 5.70114 4.18917 5.64607 4.73763C5.60848 5.11206 5.73682 5.47824 6.00865 5.76865L6.00934 5.76939L6.00934 5.76939C6.27184 6.05556 6.63553 6.23318 7.04522 6.27188C8.90267 5.68261 10.9052 5.75373 12.7094 6.48564L12.7096 6.48571C16.5489 8.05071 18.2838 12.1692 16.5476 15.6606C15.9701 16.8236 15.0721 17.7795 13.9772 18.4761H18.3266V17.6718C18.3266 17.5241 18.3938 17.3942 18.4965 17.295L18.5 17.2917L18.5 17.2918C18.7281 17.0915 19.0932 17.0836 19.3242 17.2928L20.7598 18.5926V18.5873L20.9269 18.7386C21.1624 18.9518 21.1624 19.2993 20.9269 19.5125L20.9265 19.5129L19.3242 20.9478L4.20315 9.86433ZM4.20315 9.86433C4.92202 8.78616 6.01207 7.95389 7.33859 7.49833C8.91275 6.95936 10.6183 7.00605 12.1579 7.63306C15.3219 8.92291 16.7228 12.2912 15.3058 15.1405L15.3057 15.1408C14.3596 17.0602 12.3452 18.3248 10.0496 18.4761H3.96705C3.60202 18.4761 3.28634 18.7484 3.28634 19.1019C3.28634 19.4554 3.60202 19.7277 3.96705 19.7277H18.3266V20.5635C18.3266 20.87 18.6021 21.1056 18.9212 21.0999C18.9215 21.0999 18.9219 21.0999 18.9222 21.0999L18.9202 20.9999M4.20315 9.86433L19.3238 20.9482L19.2571 20.8737C19.1699 20.9526 19.048 20.9999 18.9202 20.9999M18.9202 20.9999C18.6473 21.0052 18.4266 20.8054 18.4266 20.5635V19.7277L18.9202 20.9999ZM3.96705 19.6277H18.3266L15.3954 15.185C14.4314 17.1408 12.3815 18.4237 10.0529 18.5761H3.96705C3.64766 18.5761 3.38634 18.8127 3.38634 19.1019C3.38634 19.3911 3.64766 19.6277 3.96705 19.6277Z" fill="#5D2BFF" stroke="#5D2BFF" stroke-width="0.2"/>
</svg>
