<svg width="20" height="20" viewBox="0 0 20 20" fill="none" xmlns="http://www.w3.org/2000/svg">
<g clip-path="url(#clip0_7136_10002)">
<path d="M17.5026 2.5H2.5026C1.58594 2.5 0.835938 3.25 0.835938 4.16667V14.1667C0.835938 15.0833 1.58594 15.8333 2.5026 15.8333H6.66927V17.5H13.3359V15.8333H17.5026C18.4193 15.8333 19.1693 15.0833 19.1693 14.1667V4.16667C19.1693 3.25 18.4193 2.5 17.5026 2.5ZM17.5026 14.1667H2.5026V4.16667H17.5026V14.1667ZM15.8359 6.66667H6.66927V8.33333H15.8359V6.66667ZM15.8359 10H6.66927V11.6667H15.8359V10ZM5.83594 6.66667H4.16927V8.33333H5.83594V6.66667ZM5.83594 10H4.16927V11.6667H5.83594V10Z" fill="#5D2BFF"/>
</g>
<defs>
<clipPath id="clip0_7136_10002">
<rect width="20" height="20" fill="white"/>
</clipPath>
</defs>
</svg>
