<svg width="22" height="22" viewBox="0 0 22 22" fill="none" xmlns="http://www.w3.org/2000/svg">
<mask id="path-1-outside-1_7125_16055" maskUnits="userSpaceOnUse" x="0" y="0" width="22" height="22" fill="black">
<rect fill="white" width="22" height="22"/>
<path d="M15.6557 10.3117C12.7089 10.3117 10.3115 12.7091 10.3115 15.6559C10.3115 18.6026 12.7089 21 15.6557 21C18.6026 21 21 18.6026 21 15.6559C21 12.7091 18.6026 10.3117 15.6557 10.3117ZM15.6557 20.433C13.0216 20.433 10.8784 18.29 10.8784 15.6559C10.8784 13.0217 13.0216 10.8787 15.6557 10.8787C18.2899 10.8787 20.433 13.0217 20.433 15.6559C20.4333 18.29 18.2901 20.433 15.6557 20.433ZM15.656 14.9609C16.4718 14.9609 17.1353 14.2973 17.1353 13.4815C17.1353 12.666 16.4718 12.0025 15.656 12.0025C14.8402 12.0025 14.1766 12.666 14.1766 13.4815C14.1766 14.2971 14.8402 14.9609 15.656 14.9609ZM15.656 12.5692C16.1591 12.5692 16.5686 12.9784 16.5686 13.4815C16.5686 13.9847 16.1591 14.3939 15.656 14.3939C15.1528 14.3939 14.7436 13.9845 14.7436 13.4815C14.7434 12.9784 15.1528 12.5692 15.656 12.5692ZM15.656 15.0832C14.073 15.0832 12.785 16.3711 12.785 17.9538C12.785 18.2748 12.9575 18.721 13.7791 19.0235C14.2789 19.2076 14.9453 19.3088 15.656 19.3088C16.3664 19.3088 17.033 19.2074 17.5329 19.0235C18.3544 18.721 18.5269 18.2748 18.5269 17.9538C18.5266 16.3709 17.2389 15.0832 15.656 15.0832ZM15.6557 18.7421C14.3852 18.7421 13.3516 18.3885 13.3516 17.9538C13.3516 16.6835 14.3852 15.6499 15.6557 15.6499C16.9261 15.6499 17.9597 16.6835 17.9597 17.9538C17.9599 18.3885 16.9263 18.7421 15.6557 18.7421ZM9.53088 17.1504C9.53088 17.3068 9.40394 17.4337 9.24751 17.4337H6.46835C5.43012 17.4337 4.5855 16.5891 4.5855 15.5509V13.5482L3.93361 14.3418C3.83439 14.4628 3.65574 14.4801 3.53473 14.3809C3.41373 14.2817 3.39635 14.1031 3.49557 13.9821L4.64974 12.5769C4.70365 12.5113 4.78395 12.4735 4.86865 12.4735C4.95336 12.4735 5.03388 12.5115 5.08756 12.5769L6.24196 13.9821C6.3414 14.1031 6.3238 14.2815 6.20279 14.3809C6.14999 14.4243 6.08641 14.4454 6.02305 14.4454C5.9412 14.4454 5.86002 14.4102 5.80392 14.342L5.15181 13.5482V15.5511C5.15181 16.2767 5.74209 16.867 6.46791 16.867H9.24707C9.40394 16.8668 9.53088 16.9937 9.53088 17.1504ZM12.4729 4.86637C12.4729 4.70995 12.5998 4.583 12.7562 4.583H15.5317C16.5699 4.583 17.4145 5.4276 17.4145 6.46581V8.45157L18.0664 7.65801C18.1656 7.53701 18.3443 7.51963 18.4653 7.61885C18.5863 7.71829 18.6037 7.89672 18.5044 8.01772L17.3503 9.42289C17.2964 9.48845 17.216 9.52629 17.1313 9.52629C17.0466 9.52629 16.9661 9.48824 16.9124 9.42289L15.758 8.01772C15.6586 7.89672 15.6762 7.71829 15.7972 7.61885C15.9182 7.51941 16.0966 7.53701 16.1961 7.65801L16.8482 8.45157V6.46559C16.8482 5.74001 16.2579 5.14973 15.5323 5.14973H12.7562C12.5996 5.14973 12.4729 5.02279 12.4729 4.86637ZM6.34404 1C3.39723 1 1 3.3974 1 6.34414C1 9.29089 3.39745 11.6883 6.34404 11.6883C9.29085 11.6883 11.6883 9.29089 11.6883 6.34414C11.6881 3.3974 9.29063 1 6.34404 1ZM6.34404 11.1213C3.70986 11.1213 1.56675 8.97826 1.56675 6.34414C1.56675 3.71002 3.70986 1.56695 6.34404 1.56695C8.97822 1.56695 11.1213 3.71002 11.1213 6.34414C11.1213 8.97826 8.97822 11.1213 6.34404 11.1213ZM7.66674 7.10778C7.61416 7.19864 7.51889 7.24946 7.42099 7.24946C7.37281 7.24946 7.32418 7.23714 7.27952 7.2114L6.55767 6.79471C6.49277 6.82573 6.42038 6.84355 6.34382 6.84355C6.06859 6.84355 5.84418 6.61915 5.84418 6.34392C5.84418 6.17386 5.92998 6.02338 6.06045 5.93317V4.61336C6.06045 4.45694 6.18739 4.33 6.34382 4.33C6.50025 4.33 6.62719 4.45694 6.62719 4.61336V5.93317C6.7471 6.01634 6.82894 6.15054 6.84126 6.30388L7.56267 6.72035C7.69864 6.79889 7.74506 6.97226 7.66674 7.10778ZM6.06067 3.4744V3.27573C6.06067 3.11931 6.18761 2.99237 6.34404 2.99237C6.50047 2.99237 6.62741 3.11931 6.62741 3.27573V3.4744C6.62741 3.63082 6.50047 3.75776 6.34404 3.75776C6.18739 3.75776 6.06067 3.63082 6.06067 3.4744ZM8.71399 3.97403C8.82465 4.08469 8.82465 4.26421 8.71399 4.37488L8.5734 4.51546C8.51818 4.5709 8.44557 4.5984 8.37297 4.5984C8.30037 4.5984 8.22798 4.57068 8.17254 4.51546C8.06188 4.4048 8.06188 4.22527 8.17254 4.11461L8.31313 3.97403C8.42401 3.86337 8.60332 3.86337 8.71399 3.97403ZM9.69589 6.34414C9.69589 6.50057 9.56894 6.62751 9.41252 6.62751H9.21385C9.05742 6.62751 8.93048 6.50057 8.93048 6.34414C8.93048 6.18772 9.05742 6.06078 9.21385 6.06078H9.41252C9.56894 6.06078 9.69589 6.1875 9.69589 6.34414ZM8.71421 8.31341C8.82487 8.42407 8.82487 8.60359 8.71421 8.71426C8.65898 8.7697 8.58638 8.7972 8.51378 8.7972C8.44117 8.7972 8.36879 8.76948 8.31335 8.71426L8.17276 8.57367C8.0621 8.46301 8.0621 8.28349 8.17276 8.17282C8.28343 8.06216 8.46295 8.06216 8.57362 8.17282L8.71421 8.31341ZM6.62741 9.21367V9.41233C6.62741 9.56876 6.50047 9.6957 6.34404 9.6957C6.18761 9.6957 6.06067 9.56876 6.06067 9.41233V9.21367C6.06067 9.05725 6.18761 8.9303 6.34404 8.9303C6.50047 8.9303 6.62741 9.05725 6.62741 9.21367ZM4.5151 8.17282C4.62576 8.28349 4.62576 8.46301 4.5151 8.57367L4.37451 8.71426C4.31929 8.7697 4.24669 8.7972 4.17408 8.7972C4.10148 8.7972 4.0291 8.76948 3.97365 8.71426C3.86299 8.60359 3.86299 8.42407 3.97365 8.31341L4.11424 8.17282C4.22512 8.06216 4.40443 8.06216 4.5151 8.17282ZM3.7576 6.34414C3.7576 6.50057 3.63066 6.62751 3.47423 6.62751H3.27556C3.11913 6.62751 2.99219 6.50057 2.99219 6.34414C2.99219 6.18772 3.11913 6.06078 3.27556 6.06078H3.47423C3.63066 6.06078 3.7576 6.1875 3.7576 6.34414ZM4.5151 4.11461C4.62576 4.22527 4.62576 4.4048 4.5151 4.51546C4.45966 4.57068 4.38727 4.5984 4.31467 4.5984C4.24207 4.5984 4.16968 4.57068 4.11424 4.51546L3.97365 4.37488C3.86299 4.26421 3.86299 4.08469 3.97365 3.97403C4.08432 3.86337 4.26385 3.86337 4.37451 3.97403L4.5151 4.11461Z"/>
</mask>
<path d="M15.6557 10.3117C12.7089 10.3117 10.3115 12.7091 10.3115 15.6559C10.3115 18.6026 12.7089 21 15.6557 21C18.6026 21 21 18.6026 21 15.6559C21 12.7091 18.6026 10.3117 15.6557 10.3117ZM15.6557 20.433C13.0216 20.433 10.8784 18.29 10.8784 15.6559C10.8784 13.0217 13.0216 10.8787 15.6557 10.8787C18.2899 10.8787 20.433 13.0217 20.433 15.6559C20.4333 18.29 18.2901 20.433 15.6557 20.433ZM15.656 14.9609C16.4718 14.9609 17.1353 14.2973 17.1353 13.4815C17.1353 12.666 16.4718 12.0025 15.656 12.0025C14.8402 12.0025 14.1766 12.666 14.1766 13.4815C14.1766 14.2971 14.8402 14.9609 15.656 14.9609ZM15.656 12.5692C16.1591 12.5692 16.5686 12.9784 16.5686 13.4815C16.5686 13.9847 16.1591 14.3939 15.656 14.3939C15.1528 14.3939 14.7436 13.9845 14.7436 13.4815C14.7434 12.9784 15.1528 12.5692 15.656 12.5692ZM15.656 15.0832C14.073 15.0832 12.785 16.3711 12.785 17.9538C12.785 18.2748 12.9575 18.721 13.7791 19.0235C14.2789 19.2076 14.9453 19.3088 15.656 19.3088C16.3664 19.3088 17.033 19.2074 17.5329 19.0235C18.3544 18.721 18.5269 18.2748 18.5269 17.9538C18.5266 16.3709 17.2389 15.0832 15.656 15.0832ZM15.6557 18.7421C14.3852 18.7421 13.3516 18.3885 13.3516 17.9538C13.3516 16.6835 14.3852 15.6499 15.6557 15.6499C16.9261 15.6499 17.9597 16.6835 17.9597 17.9538C17.9599 18.3885 16.9263 18.7421 15.6557 18.7421ZM9.53088 17.1504C9.53088 17.3068 9.40394 17.4337 9.24751 17.4337H6.46835C5.43012 17.4337 4.5855 16.5891 4.5855 15.5509V13.5482L3.93361 14.3418C3.83439 14.4628 3.65574 14.4801 3.53473 14.3809C3.41373 14.2817 3.39635 14.1031 3.49557 13.9821L4.64974 12.5769C4.70365 12.5113 4.78395 12.4735 4.86865 12.4735C4.95336 12.4735 5.03388 12.5115 5.08756 12.5769L6.24196 13.9821C6.3414 14.1031 6.3238 14.2815 6.20279 14.3809C6.14999 14.4243 6.08641 14.4454 6.02305 14.4454C5.9412 14.4454 5.86002 14.4102 5.80392 14.342L5.15181 13.5482V15.5511C5.15181 16.2767 5.74209 16.867 6.46791 16.867H9.24707C9.40394 16.8668 9.53088 16.9937 9.53088 17.1504ZM12.4729 4.86637C12.4729 4.70995 12.5998 4.583 12.7562 4.583H15.5317C16.5699 4.583 17.4145 5.4276 17.4145 6.46581V8.45157L18.0664 7.65801C18.1656 7.53701 18.3443 7.51963 18.4653 7.61885C18.5863 7.71829 18.6037 7.89672 18.5044 8.01772L17.3503 9.42289C17.2964 9.48845 17.216 9.52629 17.1313 9.52629C17.0466 9.52629 16.9661 9.48824 16.9124 9.42289L15.758 8.01772C15.6586 7.89672 15.6762 7.71829 15.7972 7.61885C15.9182 7.51941 16.0966 7.53701 16.1961 7.65801L16.8482 8.45157V6.46559C16.8482 5.74001 16.2579 5.14973 15.5323 5.14973H12.7562C12.5996 5.14973 12.4729 5.02279 12.4729 4.86637ZM6.34404 1C3.39723 1 1 3.3974 1 6.34414C1 9.29089 3.39745 11.6883 6.34404 11.6883C9.29085 11.6883 11.6883 9.29089 11.6883 6.34414C11.6881 3.3974 9.29063 1 6.34404 1ZM6.34404 11.1213C3.70986 11.1213 1.56675 8.97826 1.56675 6.34414C1.56675 3.71002 3.70986 1.56695 6.34404 1.56695C8.97822 1.56695 11.1213 3.71002 11.1213 6.34414C11.1213 8.97826 8.97822 11.1213 6.34404 11.1213ZM7.66674 7.10778C7.61416 7.19864 7.51889 7.24946 7.42099 7.24946C7.37281 7.24946 7.32418 7.23714 7.27952 7.2114L6.55767 6.79471C6.49277 6.82573 6.42038 6.84355 6.34382 6.84355C6.06859 6.84355 5.84418 6.61915 5.84418 6.34392C5.84418 6.17386 5.92998 6.02338 6.06045 5.93317V4.61336C6.06045 4.45694 6.18739 4.33 6.34382 4.33C6.50025 4.33 6.62719 4.45694 6.62719 4.61336V5.93317C6.7471 6.01634 6.82894 6.15054 6.84126 6.30388L7.56267 6.72035C7.69864 6.79889 7.74506 6.97226 7.66674 7.10778ZM6.06067 3.4744V3.27573C6.06067 3.11931 6.18761 2.99237 6.34404 2.99237C6.50047 2.99237 6.62741 3.11931 6.62741 3.27573V3.4744C6.62741 3.63082 6.50047 3.75776 6.34404 3.75776C6.18739 3.75776 6.06067 3.63082 6.06067 3.4744ZM8.71399 3.97403C8.82465 4.08469 8.82465 4.26421 8.71399 4.37488L8.5734 4.51546C8.51818 4.5709 8.44557 4.5984 8.37297 4.5984C8.30037 4.5984 8.22798 4.57068 8.17254 4.51546C8.06188 4.4048 8.06188 4.22527 8.17254 4.11461L8.31313 3.97403C8.42401 3.86337 8.60332 3.86337 8.71399 3.97403ZM9.69589 6.34414C9.69589 6.50057 9.56894 6.62751 9.41252 6.62751H9.21385C9.05742 6.62751 8.93048 6.50057 8.93048 6.34414C8.93048 6.18772 9.05742 6.06078 9.21385 6.06078H9.41252C9.56894 6.06078 9.69589 6.1875 9.69589 6.34414ZM8.71421 8.31341C8.82487 8.42407 8.82487 8.60359 8.71421 8.71426C8.65898 8.7697 8.58638 8.7972 8.51378 8.7972C8.44117 8.7972 8.36879 8.76948 8.31335 8.71426L8.17276 8.57367C8.0621 8.46301 8.0621 8.28349 8.17276 8.17282C8.28343 8.06216 8.46295 8.06216 8.57362 8.17282L8.71421 8.31341ZM6.62741 9.21367V9.41233C6.62741 9.56876 6.50047 9.6957 6.34404 9.6957C6.18761 9.6957 6.06067 9.56876 6.06067 9.41233V9.21367C6.06067 9.05725 6.18761 8.9303 6.34404 8.9303C6.50047 8.9303 6.62741 9.05725 6.62741 9.21367ZM4.5151 8.17282C4.62576 8.28349 4.62576 8.46301 4.5151 8.57367L4.37451 8.71426C4.31929 8.7697 4.24669 8.7972 4.17408 8.7972C4.10148 8.7972 4.0291 8.76948 3.97365 8.71426C3.86299 8.60359 3.86299 8.42407 3.97365 8.31341L4.11424 8.17282C4.22512 8.06216 4.40443 8.06216 4.5151 8.17282ZM3.7576 6.34414C3.7576 6.50057 3.63066 6.62751 3.47423 6.62751H3.27556C3.11913 6.62751 2.99219 6.50057 2.99219 6.34414C2.99219 6.18772 3.11913 6.06078 3.27556 6.06078H3.47423C3.63066 6.06078 3.7576 6.1875 3.7576 6.34414ZM4.5151 4.11461C4.62576 4.22527 4.62576 4.4048 4.5151 4.51546C4.45966 4.57068 4.38727 4.5984 4.31467 4.5984C4.24207 4.5984 4.16968 4.57068 4.11424 4.51546L3.97365 4.37488C3.86299 4.26421 3.86299 4.08469 3.97365 3.97403C4.08432 3.86337 4.26385 3.86337 4.37451 3.97403L4.5151 4.11461Z" fill="#5D2BFF"/>
<path d="M15.6557 10.3117C12.7089 10.3117 10.3115 12.7091 10.3115 15.6559C10.3115 18.6026 12.7089 21 15.6557 21C18.6026 21 21 18.6026 21 15.6559C21 12.7091 18.6026 10.3117 15.6557 10.3117ZM15.6557 20.433C13.0216 20.433 10.8784 18.29 10.8784 15.6559C10.8784 13.0217 13.0216 10.8787 15.6557 10.8787C18.2899 10.8787 20.433 13.0217 20.433 15.6559C20.4333 18.29 18.2901 20.433 15.6557 20.433ZM15.656 14.9609C16.4718 14.9609 17.1353 14.2973 17.1353 13.4815C17.1353 12.666 16.4718 12.0025 15.656 12.0025C14.8402 12.0025 14.1766 12.666 14.1766 13.4815C14.1766 14.2971 14.8402 14.9609 15.656 14.9609ZM15.656 12.5692C16.1591 12.5692 16.5686 12.9784 16.5686 13.4815C16.5686 13.9847 16.1591 14.3939 15.656 14.3939C15.1528 14.3939 14.7436 13.9845 14.7436 13.4815C14.7434 12.9784 15.1528 12.5692 15.656 12.5692ZM15.656 15.0832C14.073 15.0832 12.785 16.3711 12.785 17.9538C12.785 18.2748 12.9575 18.721 13.7791 19.0235C14.2789 19.2076 14.9453 19.3088 15.656 19.3088C16.3664 19.3088 17.033 19.2074 17.5329 19.0235C18.3544 18.721 18.5269 18.2748 18.5269 17.9538C18.5266 16.3709 17.2389 15.0832 15.656 15.0832ZM15.6557 18.7421C14.3852 18.7421 13.3516 18.3885 13.3516 17.9538C13.3516 16.6835 14.3852 15.6499 15.6557 15.6499C16.9261 15.6499 17.9597 16.6835 17.9597 17.9538C17.9599 18.3885 16.9263 18.7421 15.6557 18.7421ZM9.53088 17.1504C9.53088 17.3068 9.40394 17.4337 9.24751 17.4337H6.46835C5.43012 17.4337 4.5855 16.5891 4.5855 15.5509V13.5482L3.93361 14.3418C3.83439 14.4628 3.65574 14.4801 3.53473 14.3809C3.41373 14.2817 3.39635 14.1031 3.49557 13.9821L4.64974 12.5769C4.70365 12.5113 4.78395 12.4735 4.86865 12.4735C4.95336 12.4735 5.03388 12.5115 5.08756 12.5769L6.24196 13.9821C6.3414 14.1031 6.3238 14.2815 6.20279 14.3809C6.14999 14.4243 6.08641 14.4454 6.02305 14.4454C5.9412 14.4454 5.86002 14.4102 5.80392 14.342L5.15181 13.5482V15.5511C5.15181 16.2767 5.74209 16.867 6.46791 16.867H9.24707C9.40394 16.8668 9.53088 16.9937 9.53088 17.1504ZM12.4729 4.86637C12.4729 4.70995 12.5998 4.583 12.7562 4.583H15.5317C16.5699 4.583 17.4145 5.4276 17.4145 6.46581V8.45157L18.0664 7.65801C18.1656 7.53701 18.3443 7.51963 18.4653 7.61885C18.5863 7.71829 18.6037 7.89672 18.5044 8.01772L17.3503 9.42289C17.2964 9.48845 17.216 9.52629 17.1313 9.52629C17.0466 9.52629 16.9661 9.48824 16.9124 9.42289L15.758 8.01772C15.6586 7.89672 15.6762 7.71829 15.7972 7.61885C15.9182 7.51941 16.0966 7.53701 16.1961 7.65801L16.8482 8.45157V6.46559C16.8482 5.74001 16.2579 5.14973 15.5323 5.14973H12.7562C12.5996 5.14973 12.4729 5.02279 12.4729 4.86637ZM6.34404 1C3.39723 1 1 3.3974 1 6.34414C1 9.29089 3.39745 11.6883 6.34404 11.6883C9.29085 11.6883 11.6883 9.29089 11.6883 6.34414C11.6881 3.3974 9.29063 1 6.34404 1ZM6.34404 11.1213C3.70986 11.1213 1.56675 8.97826 1.56675 6.34414C1.56675 3.71002 3.70986 1.56695 6.34404 1.56695C8.97822 1.56695 11.1213 3.71002 11.1213 6.34414C11.1213 8.97826 8.97822 11.1213 6.34404 11.1213ZM7.66674 7.10778C7.61416 7.19864 7.51889 7.24946 7.42099 7.24946C7.37281 7.24946 7.32418 7.23714 7.27952 7.2114L6.55767 6.79471C6.49277 6.82573 6.42038 6.84355 6.34382 6.84355C6.06859 6.84355 5.84418 6.61915 5.84418 6.34392C5.84418 6.17386 5.92998 6.02338 6.06045 5.93317V4.61336C6.06045 4.45694 6.18739 4.33 6.34382 4.33C6.50025 4.33 6.62719 4.45694 6.62719 4.61336V5.93317C6.7471 6.01634 6.82894 6.15054 6.84126 6.30388L7.56267 6.72035C7.69864 6.79889 7.74506 6.97226 7.66674 7.10778ZM6.06067 3.4744V3.27573C6.06067 3.11931 6.18761 2.99237 6.34404 2.99237C6.50047 2.99237 6.62741 3.11931 6.62741 3.27573V3.4744C6.62741 3.63082 6.50047 3.75776 6.34404 3.75776C6.18739 3.75776 6.06067 3.63082 6.06067 3.4744ZM8.71399 3.97403C8.82465 4.08469 8.82465 4.26421 8.71399 4.37488L8.5734 4.51546C8.51818 4.5709 8.44557 4.5984 8.37297 4.5984C8.30037 4.5984 8.22798 4.57068 8.17254 4.51546C8.06188 4.4048 8.06188 4.22527 8.17254 4.11461L8.31313 3.97403C8.42401 3.86337 8.60332 3.86337 8.71399 3.97403ZM9.69589 6.34414C9.69589 6.50057 9.56894 6.62751 9.41252 6.62751H9.21385C9.05742 6.62751 8.93048 6.50057 8.93048 6.34414C8.93048 6.18772 9.05742 6.06078 9.21385 6.06078H9.41252C9.56894 6.06078 9.69589 6.1875 9.69589 6.34414ZM8.71421 8.31341C8.82487 8.42407 8.82487 8.60359 8.71421 8.71426C8.65898 8.7697 8.58638 8.7972 8.51378 8.7972C8.44117 8.7972 8.36879 8.76948 8.31335 8.71426L8.17276 8.57367C8.0621 8.46301 8.0621 8.28349 8.17276 8.17282C8.28343 8.06216 8.46295 8.06216 8.57362 8.17282L8.71421 8.31341ZM6.62741 9.21367V9.41233C6.62741 9.56876 6.50047 9.6957 6.34404 9.6957C6.18761 9.6957 6.06067 9.56876 6.06067 9.41233V9.21367C6.06067 9.05725 6.18761 8.9303 6.34404 8.9303C6.50047 8.9303 6.62741 9.05725 6.62741 9.21367ZM4.5151 8.17282C4.62576 8.28349 4.62576 8.46301 4.5151 8.57367L4.37451 8.71426C4.31929 8.7697 4.24669 8.7972 4.17408 8.7972C4.10148 8.7972 4.0291 8.76948 3.97365 8.71426C3.86299 8.60359 3.86299 8.42407 3.97365 8.31341L4.11424 8.17282C4.22512 8.06216 4.40443 8.06216 4.5151 8.17282ZM3.7576 6.34414C3.7576 6.50057 3.63066 6.62751 3.47423 6.62751H3.27556C3.11913 6.62751 2.99219 6.50057 2.99219 6.34414C2.99219 6.18772 3.11913 6.06078 3.27556 6.06078H3.47423C3.63066 6.06078 3.7576 6.1875 3.7576 6.34414ZM4.5151 4.11461C4.62576 4.22527 4.62576 4.4048 4.5151 4.51546C4.45966 4.57068 4.38727 4.5984 4.31467 4.5984C4.24207 4.5984 4.16968 4.57068 4.11424 4.51546L3.97365 4.37488C3.86299 4.26421 3.86299 4.08469 3.97365 3.97403C4.08432 3.86337 4.26385 3.86337 4.37451 3.97403L4.5151 4.11461Z" stroke="#5D2BFF" stroke-width="0.6" mask="url(#path-1-outside-1_7125_16055)"/>
</svg>
