<svg width="20" height="20" viewBox="0 0 20 20" fill="none" xmlns="http://www.w3.org/2000/svg">
<path d="M1.66927 7.5V4.16667C1.66927 3.70833 1.83246 3.31598 2.15885 2.98958C2.48525 2.66319 2.8776 2.5 3.33594 2.5H16.6693C17.1276 2.5 17.5199 2.66319 17.8464 2.98958C18.1728 3.31598 18.3359 3.70833 18.3359 4.16667V7.5H16.6693V4.16667H3.33594V7.5H1.66927ZM3.33594 15C2.8776 15 2.48525 14.8368 2.15885 14.5104C1.83246 14.184 1.66927 13.7917 1.66927 13.3333V9.16667H3.33594V13.3333H16.6693V9.16667H18.3359V13.3333C18.3359 13.7917 18.1728 14.184 17.8464 14.5104C17.5199 14.8368 17.1276 15 16.6693 15H3.33594ZM0.835938 17.5V15.8333H19.1693V17.5H0.835938ZM1.66927 9.16667V7.5H6.66927C6.82205 7.5 6.96788 7.54167 7.10677 7.625C7.24566 7.70833 7.34983 7.81944 7.41927 7.95833L8.39844 9.89583L10.9609 5.41667C11.0304 5.29167 11.1276 5.19097 11.2526 5.11458C11.3776 5.03819 11.5165 5 11.6693 5C11.822 5 11.9679 5.03819 12.1068 5.11458C12.2457 5.19097 12.3499 5.30556 12.4193 5.45833L13.4401 7.5H18.3359V9.16667H12.9193C12.7665 9.16667 12.6207 9.1285 12.4818 9.05208C12.3429 8.97567 12.2387 8.86108 12.1693 8.70833L11.6276 7.60417L9.0651 12.0833C8.99569 12.2222 8.89152 12.3264 8.7526 12.3958C8.61369 12.4653 8.46785 12.5 8.3151 12.5C8.16233 12.5 8.01996 12.4583 7.88802 12.375C7.75608 12.2917 7.65538 12.1806 7.58594 12.0417L6.14844 9.16667H1.66927Z" fill="#5D2BFF"/>
</svg>
