<svg width="20" height="20" viewBox="0 0 20 20" fill="none" xmlns="http://www.w3.org/2000/svg">
<path d="M15.3527 10.5831L16.4488 7.64648H14.0911L13.9122 8.14758H11.5625L12.4729 10.5831H15.3527Z" fill="#5D2BFF"/>
<path d="M14.2109 17.369C14.7676 17.2744 14.7698 16.9687 14.7698 16.8243C14.7698 16.4999 14.6018 16.3574 14.2109 16.2324V17.369Z" fill="#5D2BFF"/>
<path d="M13.0312 14.842C13.0312 15.0983 13.1755 15.2153 13.5901 15.3387V14.2871C13.0621 14.3756 13.0312 14.7575 13.0312 14.842Z" fill="#5D2BFF"/>
<path d="M19.7017 17.3893L15.5462 11.2393H12.2712L8.11634 17.3893C7.93014 17.6576 7.82031 17.9822 7.82031 18.3319C7.82031 19.2535 8.57722 20.0004 9.5118 20.0004H18.3067C19.2408 20.0004 19.9982 19.2535 19.9982 18.3319C19.9982 17.9824 19.8884 17.6578 19.7017 17.3893ZM15.4784 16.8248C15.4784 17.1726 15.3427 17.9363 14.2079 18.0763V18.4845H13.5912V18.0861C12.8326 18.0009 12.3207 17.5071 12.3207 16.8248H13.0323C13.0323 17.1171 13.2427 17.3156 13.5912 17.3767V16.07C13.007 15.9209 12.3207 15.6756 12.3207 14.8427C12.3207 14.2772 12.7211 13.6738 13.5912 13.5804V13.1929H14.2079V13.5931C15.1366 13.7213 15.4784 14.3205 15.4784 14.8429H14.7668C14.7668 14.5024 14.4828 14.3622 14.2079 14.3058V15.5003C14.809 15.6611 15.4784 15.9401 15.4784 16.8248Z" fill="#5D2BFF"/>
<path d="M11.2443 5.4229C11.8197 5.4229 12.2879 4.96089 12.2879 4.39309C12.2879 3.82529 11.8195 3.36328 11.2443 3.36328C10.669 3.36328 10.2006 3.82529 10.2006 4.39309C10.2006 4.63697 10.2905 4.85815 10.4347 5.03485L9.76198 5.98392C9.66853 5.957 9.57175 5.93781 9.46999 5.93781C9.22211 5.93781 8.99748 6.02698 8.81816 6.16999L7.87125 5.57527C7.89094 5.49616 7.9047 5.41448 7.9047 5.32928C7.9047 4.76148 7.43622 4.29947 6.86101 4.29947C6.2858 4.29947 5.81733 4.76148 5.81733 5.32928C5.81733 5.47369 5.84816 5.61084 5.90272 5.73559L4.99234 6.53931C4.84243 6.45693 4.67235 6.40591 4.489 6.40591C3.91355 6.40591 3.44531 6.86792 3.44531 7.43572C3.44531 8.00352 3.91379 8.46553 4.489 8.46553C5.06421 8.46553 5.53268 8.00352 5.53268 7.43572C5.53268 7.28803 5.49971 7.14807 5.44278 7.02122L6.34889 6.22124C6.50094 6.30644 6.67386 6.3591 6.86077 6.3591C7.10865 6.3591 7.33328 6.26992 7.5126 6.12692L8.45951 6.72164C8.43982 6.80075 8.42607 6.88243 8.42607 6.96762C8.42607 7.53542 8.89454 7.99743 9.46975 7.99743C10.045 7.99743 10.5134 7.53542 10.5134 6.96762C10.5134 6.73896 10.4349 6.52972 10.3068 6.35863L10.9938 5.38944C11.0744 5.40933 11.1572 5.4229 11.2443 5.4229ZM4.48852 7.81019C4.27931 7.81019 4.109 7.64215 4.109 7.43572C4.109 7.22929 4.27931 7.06124 4.48852 7.06124C4.69774 7.06124 4.86805 7.22929 4.86805 7.43572C4.86805 7.64215 4.69774 7.81019 4.48852 7.81019ZM6.86054 5.70376C6.65133 5.70376 6.48101 5.53572 6.48101 5.32928C6.48101 5.12285 6.65133 4.95481 6.86054 4.95481C7.06975 4.95481 7.24006 5.12285 7.24006 5.32928C7.24006 5.53572 7.06975 5.70376 6.86054 5.70376ZM9.46975 7.3421C9.26054 7.3421 9.09023 7.17405 9.09023 6.96762C9.09023 6.76119 9.26054 6.59314 9.46975 6.59314C9.67896 6.59314 9.84927 6.76119 9.84927 6.96762C9.84927 7.17405 9.67896 7.3421 9.46975 7.3421ZM10.8647 4.39309C10.8647 4.18666 11.035 4.01862 11.2443 4.01862C11.4535 4.01862 11.6238 4.18666 11.6238 4.39309C11.6238 4.59952 11.4535 4.76757 11.2443 4.76757C11.035 4.76757 10.8647 4.59952 10.8647 4.39309Z" fill="#5D2BFF"/>
<path d="M8.89974 10.0332H3.91021C3.72685 10.0332 3.57812 10.1797 3.57812 10.3609C3.57812 10.542 3.72685 10.6885 3.91021 10.6885H8.89974C9.08309 10.6885 9.23182 10.542 9.23182 10.3609C9.23182 10.1797 9.08333 10.0332 8.89974 10.0332Z" fill="#5D2BFF"/>
<path d="M9.23206 12.1597C9.23206 11.9788 9.08333 11.832 8.89997 11.832H3.91021C3.72685 11.832 3.57812 11.9785 3.57812 12.1597C3.57812 12.3409 3.72685 12.4874 3.91021 12.4874H8.89974C9.08333 12.4871 9.23206 12.3406 9.23206 12.1597Z" fill="#5D2BFF"/>
<path d="M3.91021 13.6309C3.72685 13.6309 3.57812 13.7774 3.57812 13.9585C3.57812 14.1397 3.72685 14.2862 3.91021 14.2862H6.40556C6.58892 14.2862 6.73765 14.1397 6.73765 13.9585C6.73765 13.7774 6.58892 13.6309 6.40556 13.6309H3.91021Z" fill="#5D2BFF"/>
<path d="M1.30461 1.28726H14.4377V6.99148H15.7423V0H0V18.1149H7.17487C7.21163 17.7231 7.34209 17.3479 7.56577 17.0254L7.69932 16.8276H1.30437L1.30461 1.28726Z" fill="#5D2BFF"/>
</svg>
