<svg width="20" height="20" viewBox="0 0 20 20" fill="none" xmlns="http://www.w3.org/2000/svg">
<g clip-path="url(#clip0_7132_9983)">
<path d="M17.5026 1.66699H2.5026C1.58594 1.66699 0.835938 2.41699 0.835938 3.33366V13.3337C0.835938 14.2503 1.58594 15.0003 2.5026 15.0003H8.33594V16.667H6.66927V18.3337H13.3359V16.667H11.6693V15.0003H17.5026C18.4193 15.0003 19.1693 14.2503 19.1693 13.3337V3.33366C19.1693 2.41699 18.4193 1.66699 17.5026 1.66699ZM17.5026 13.3337H2.5026V3.33366H17.5026V13.3337Z" fill="#5D2BFF"/>
<g clip-path="url(#clip1_7132_9983)">
<path d="M15.4557 6.33333C15.4557 6.92917 14.9682 7.41667 14.3724 7.41667C14.2749 7.41667 14.1828 7.40583 14.0961 7.37875L12.1678 9.30167C12.1949 9.38833 12.2057 9.48583 12.2057 9.58333C12.2057 10.1792 11.7182 10.6667 11.1224 10.6667C10.5266 10.6667 10.0391 10.1792 10.0391 9.58333C10.0391 9.48583 10.0499 9.38833 10.077 9.30167L8.69573 7.92042C8.60906 7.9475 8.51156 7.95833 8.41406 7.95833C8.31656 7.95833 8.21906 7.9475 8.1324 7.92042L5.66781 10.3904C5.6949 10.4771 5.70573 10.5692 5.70573 10.6667C5.70573 11.2625 5.21823 11.75 4.6224 11.75C4.02656 11.75 3.53906 11.2625 3.53906 10.6667C3.53906 10.0708 4.02656 9.58333 4.6224 9.58333C4.7199 9.58333 4.81198 9.59417 4.89865 9.62125L7.36865 7.15667C7.34156 7.07 7.33073 6.9725 7.33073 6.875C7.33073 6.27917 7.81823 5.79167 8.41406 5.79167C9.0099 5.79167 9.4974 6.27917 9.4974 6.875C9.4974 6.9725 9.48656 7.07 9.45948 7.15667L10.8407 8.53792C10.9274 8.51083 11.0249 8.5 11.1224 8.5C11.2199 8.5 11.3174 8.51083 11.4041 8.53792L13.327 6.60958C13.2999 6.52292 13.2891 6.43083 13.2891 6.33333C13.2891 5.7375 13.7766 5.25 14.3724 5.25C14.9682 5.25 15.4557 5.7375 15.4557 6.33333Z" fill="#5D2BFF"/>
</g>
</g>
<defs>
<clipPath id="clip0_7132_9983">
<rect width="20" height="20" fill="white"/>
</clipPath>
<clipPath id="clip1_7132_9983">
<rect width="13" height="13" fill="white" transform="translate(3 2)"/>
</clipPath>
</defs>
</svg>
