<svg width="21" height="21" viewBox="0 0 21 21" fill="none" xmlns="http://www.w3.org/2000/svg">
<g clip-path="url(#clip0_712_18679)">
<mask id="path-1-outside-1_712_18679" maskUnits="userSpaceOnUse" x="4.02344" y="3.44336" width="13" height="13" fill="black">
<rect fill="white" x="4.02344" y="3.44336" width="13" height="13"/>
<path d="M9.21954 15.7919C9.73572 15.9311 10.2679 16.002 10.8025 16.003C10.8282 16.003 10.8536 16.003 10.879 16.0024C11.3884 15.9945 11.8948 15.923 12.3865 15.7896C12.5096 15.7569 12.6184 15.6844 12.6959 15.5835C12.7735 15.4825 12.8155 15.3587 12.8155 15.2314V14.6043C12.8147 14.5868 12.8186 14.5694 12.8269 14.5539C12.8351 14.5384 12.8474 14.5254 12.8623 14.5163C13.1153 14.4023 13.3583 14.2671 13.5885 14.1121C13.6105 14.1018 13.6347 14.0972 13.659 14.0985C13.6833 14.0999 13.7069 14.1073 13.7276 14.12L14.2895 14.4339C14.3973 14.4939 14.5214 14.518 14.6438 14.5025C14.7661 14.4871 14.8804 14.433 14.9699 14.3481C15.7372 13.6211 16.2887 12.6962 16.5636 11.6755C16.5967 11.5513 16.5874 11.4197 16.5374 11.3013C16.4873 11.1829 16.3992 11.0846 16.287 11.0219L15.6605 10.672C15.6917 10.3736 15.6917 10.0729 15.6605 9.77454L16.2864 9.42516C16.3987 9.36255 16.4869 9.26427 16.5371 9.14589C16.5872 9.0275 16.5964 8.89577 16.5633 8.77155C16.2899 7.7504 15.7393 6.82481 14.9724 6.09727C14.8831 6.01222 14.7689 5.95801 14.6466 5.94257C14.5243 5.92714 14.4002 5.95128 14.2926 6.01147L13.7276 6.32642C13.7068 6.33929 13.6831 6.34676 13.6587 6.34814C13.6343 6.34952 13.61 6.34477 13.5879 6.33432C13.3582 6.17936 13.1156 6.04434 12.8629 5.93076C12.8477 5.92162 12.8353 5.90857 12.827 5.89297C12.8186 5.87737 12.8147 5.85981 12.8155 5.84214V5.21284C12.8155 5.08561 12.7735 4.96193 12.6961 4.86099C12.6186 4.76006 12.51 4.68751 12.3871 4.65462C11.8467 4.50616 11.288 4.43527 10.7277 4.44409C10.2182 4.45201 9.71179 4.52349 9.22008 4.65688C9.09704 4.68962 8.98827 4.76211 8.91069 4.86306C8.83311 4.96402 8.79107 5.08778 8.79111 5.2151V5.8422C8.79191 5.85979 8.78793 5.87727 8.77959 5.89278C8.77124 5.90829 8.75884 5.92124 8.74372 5.93025C8.49097 6.04441 8.24826 6.17959 8.01814 6.33438C7.99608 6.34455 7.97185 6.34915 7.94759 6.34777C7.92334 6.34639 7.89979 6.33908 7.87901 6.32648L7.31713 6.01264C7.20936 5.95261 7.08524 5.92856 6.96285 5.94399C6.84046 5.95942 6.7262 6.01353 6.63671 6.09843C5.86926 6.82556 5.31773 7.75066 5.04305 8.77156C5.00982 8.89578 5.01901 9.02754 5.06916 9.14594C5.11931 9.26434 5.20756 9.36261 5.3199 9.42517L5.94584 9.77455C5.91499 10.0729 5.91499 10.3736 5.94584 10.672L5.32017 11.0214C5.20788 11.084 5.11967 11.1823 5.06953 11.3006C5.01938 11.419 5.01016 11.5508 5.04332 11.675C5.31666 12.6961 5.86726 13.6217 6.63416 14.3493C6.72345 14.4343 6.83763 14.4885 6.95998 14.504C7.08232 14.5194 7.2064 14.4953 7.31402 14.4351L7.87901 14.1201C7.89978 14.1072 7.92345 14.0998 7.94785 14.0984C7.97225 14.097 7.99661 14.1018 8.0187 14.1122C8.24819 14.2669 8.49034 14.4019 8.74258 14.5158C8.75795 14.5248 8.77059 14.5377 8.77914 14.5534C8.78769 14.569 8.79184 14.5866 8.79113 14.6044V15.2337C8.79112 15.3609 8.83311 15.4846 8.91057 15.5856C8.98803 15.6865 9.09664 15.759 9.21954 15.7919ZM8.66527 13.1543C8.46584 13.0241 8.23448 12.9512 7.99644 12.9436C7.7584 12.9359 7.52282 12.9938 7.31544 13.1109L7.1399 13.2085C6.77582 12.7939 6.48984 12.3168 6.2958 11.8003L6.85712 11.487C6.96309 11.4279 7.04775 11.337 7.09912 11.227C7.15048 11.1171 7.16594 10.9938 7.14329 10.8746C7.05712 10.4447 7.05712 10.0019 7.14329 9.57192C7.16594 9.45272 7.15048 9.32942 7.09912 9.2195C7.04775 9.10957 6.96309 9.01861 6.85712 8.95951L6.2958 8.64625C6.49089 8.13007 6.77761 7.65338 7.14216 7.23913L7.31488 7.33566C7.52216 7.45285 7.75767 7.51083 7.99567 7.50326C8.23367 7.4957 8.46502 7.42288 8.66445 7.29276C8.8402 7.17479 9.02551 7.0717 9.21843 6.98458C9.43681 6.88429 9.62167 6.72321 9.75089 6.52062C9.88012 6.31802 9.94824 6.08248 9.9471 5.84218V5.67737C10.2095 5.62967 10.4754 5.60381 10.7421 5.60005C11.0496 5.59442 11.357 5.61976 11.6595 5.67568V5.84219C11.6584 6.08249 11.7265 6.31803 11.8558 6.52063C11.985 6.72323 12.1698 6.8843 12.3882 6.98459C12.5811 7.07143 12.7662 7.17453 12.9416 7.29277C13.1412 7.42263 13.3725 7.49529 13.6104 7.50286C13.8484 7.51042 14.0838 7.45259 14.2912 7.33567L14.4667 7.23802C14.8308 7.65262 15.1168 8.12974 15.3108 8.64626L14.7492 8.95953C14.6432 9.01869 14.5585 9.10975 14.5071 9.21977C14.4558 9.32979 14.4403 9.45319 14.4631 9.57247C14.5496 10.002 14.5496 10.4445 14.4631 10.8741C14.4403 10.9933 14.4557 11.1167 14.507 11.2267C14.5584 11.3367 14.643 11.4278 14.7489 11.487L15.3105 11.8009C15.1155 12.3169 14.8288 12.7934 14.4642 13.2074L14.2915 13.1109C14.0843 12.9934 13.8488 12.9353 13.6108 12.9429C13.3728 12.9504 13.1415 13.0234 12.9422 13.1538C12.7661 13.2723 12.5802 13.3755 12.3865 13.4625C12.1687 13.5632 11.9843 13.7243 11.8554 13.9267C11.7265 14.1292 11.6585 14.3644 11.6595 14.6044V14.7692C11.3972 14.8169 11.1313 14.8427 10.8646 14.8465C10.557 14.8533 10.2495 14.8279 9.94711 14.7708V14.6043C9.94801 14.3641 9.87979 14.1287 9.75059 13.9261C9.62139 13.7235 9.43666 13.5624 9.21843 13.4619C9.02581 13.375 8.84077 13.2721 8.66527 13.1543Z"/>
</mask>
<path d="M9.21954 15.7919C9.73572 15.9311 10.2679 16.002 10.8025 16.003C10.8282 16.003 10.8536 16.003 10.879 16.0024C11.3884 15.9945 11.8948 15.923 12.3865 15.7896C12.5096 15.7569 12.6184 15.6844 12.6959 15.5835C12.7735 15.4825 12.8155 15.3587 12.8155 15.2314V14.6043C12.8147 14.5868 12.8186 14.5694 12.8269 14.5539C12.8351 14.5384 12.8474 14.5254 12.8623 14.5163C13.1153 14.4023 13.3583 14.2671 13.5885 14.1121C13.6105 14.1018 13.6347 14.0972 13.659 14.0985C13.6833 14.0999 13.7069 14.1073 13.7276 14.12L14.2895 14.4339C14.3973 14.4939 14.5214 14.518 14.6438 14.5025C14.7661 14.4871 14.8804 14.433 14.9699 14.3481C15.7372 13.6211 16.2887 12.6962 16.5636 11.6755C16.5967 11.5513 16.5874 11.4197 16.5374 11.3013C16.4873 11.1829 16.3992 11.0846 16.287 11.0219L15.6605 10.672C15.6917 10.3736 15.6917 10.0729 15.6605 9.77454L16.2864 9.42516C16.3987 9.36255 16.4869 9.26427 16.5371 9.14589C16.5872 9.0275 16.5964 8.89577 16.5633 8.77155C16.2899 7.7504 15.7393 6.82481 14.9724 6.09727C14.8831 6.01222 14.7689 5.95801 14.6466 5.94257C14.5243 5.92714 14.4002 5.95128 14.2926 6.01147L13.7276 6.32642C13.7068 6.33929 13.6831 6.34676 13.6587 6.34814C13.6343 6.34952 13.61 6.34477 13.5879 6.33432C13.3582 6.17936 13.1156 6.04434 12.8629 5.93076C12.8477 5.92162 12.8353 5.90857 12.827 5.89297C12.8186 5.87737 12.8147 5.85981 12.8155 5.84214V5.21284C12.8155 5.08561 12.7735 4.96193 12.6961 4.86099C12.6186 4.76006 12.51 4.68751 12.3871 4.65462C11.8467 4.50616 11.288 4.43527 10.7277 4.44409C10.2182 4.45201 9.71179 4.52349 9.22008 4.65688C9.09704 4.68962 8.98827 4.76211 8.91069 4.86306C8.83311 4.96402 8.79107 5.08778 8.79111 5.2151V5.8422C8.79191 5.85979 8.78793 5.87727 8.77959 5.89278C8.77124 5.90829 8.75884 5.92124 8.74372 5.93025C8.49097 6.04441 8.24826 6.17959 8.01814 6.33438C7.99608 6.34455 7.97185 6.34915 7.94759 6.34777C7.92334 6.34639 7.89979 6.33908 7.87901 6.32648L7.31713 6.01264C7.20936 5.95261 7.08524 5.92856 6.96285 5.94399C6.84046 5.95942 6.7262 6.01353 6.63671 6.09843C5.86926 6.82556 5.31773 7.75066 5.04305 8.77156C5.00982 8.89578 5.01901 9.02754 5.06916 9.14594C5.11931 9.26434 5.20756 9.36261 5.3199 9.42517L5.94584 9.77455C5.91499 10.0729 5.91499 10.3736 5.94584 10.672L5.32017 11.0214C5.20788 11.084 5.11967 11.1823 5.06953 11.3006C5.01938 11.419 5.01016 11.5508 5.04332 11.675C5.31666 12.6961 5.86726 13.6217 6.63416 14.3493C6.72345 14.4343 6.83763 14.4885 6.95998 14.504C7.08232 14.5194 7.2064 14.4953 7.31402 14.4351L7.87901 14.1201C7.89978 14.1072 7.92345 14.0998 7.94785 14.0984C7.97225 14.097 7.99661 14.1018 8.0187 14.1122C8.24819 14.2669 8.49034 14.4019 8.74258 14.5158C8.75795 14.5248 8.77059 14.5377 8.77914 14.5534C8.78769 14.569 8.79184 14.5866 8.79113 14.6044V15.2337C8.79112 15.3609 8.83311 15.4846 8.91057 15.5856C8.98803 15.6865 9.09664 15.759 9.21954 15.7919ZM8.66527 13.1543C8.46584 13.0241 8.23448 12.9512 7.99644 12.9436C7.7584 12.9359 7.52282 12.9938 7.31544 13.1109L7.1399 13.2085C6.77582 12.7939 6.48984 12.3168 6.2958 11.8003L6.85712 11.487C6.96309 11.4279 7.04775 11.337 7.09912 11.227C7.15048 11.1171 7.16594 10.9938 7.14329 10.8746C7.05712 10.4447 7.05712 10.0019 7.14329 9.57192C7.16594 9.45272 7.15048 9.32942 7.09912 9.2195C7.04775 9.10957 6.96309 9.01861 6.85712 8.95951L6.2958 8.64625C6.49089 8.13007 6.77761 7.65338 7.14216 7.23913L7.31488 7.33566C7.52216 7.45285 7.75767 7.51083 7.99567 7.50326C8.23367 7.4957 8.46502 7.42288 8.66445 7.29276C8.8402 7.17479 9.02551 7.0717 9.21843 6.98458C9.43681 6.88429 9.62167 6.72321 9.75089 6.52062C9.88012 6.31802 9.94824 6.08248 9.9471 5.84218V5.67737C10.2095 5.62967 10.4754 5.60381 10.7421 5.60005C11.0496 5.59442 11.357 5.61976 11.6595 5.67568V5.84219C11.6584 6.08249 11.7265 6.31803 11.8558 6.52063C11.985 6.72323 12.1698 6.8843 12.3882 6.98459C12.5811 7.07143 12.7662 7.17453 12.9416 7.29277C13.1412 7.42263 13.3725 7.49529 13.6104 7.50286C13.8484 7.51042 14.0838 7.45259 14.2912 7.33567L14.4667 7.23802C14.8308 7.65262 15.1168 8.12974 15.3108 8.64626L14.7492 8.95953C14.6432 9.01869 14.5585 9.10975 14.5071 9.21977C14.4558 9.32979 14.4403 9.45319 14.4631 9.57247C14.5496 10.002 14.5496 10.4445 14.4631 10.8741C14.4403 10.9933 14.4557 11.1167 14.507 11.2267C14.5584 11.3367 14.643 11.4278 14.7489 11.487L15.3105 11.8009C15.1155 12.3169 14.8288 12.7934 14.4642 13.2074L14.2915 13.1109C14.0843 12.9934 13.8488 12.9353 13.6108 12.9429C13.3728 12.9504 13.1415 13.0234 12.9422 13.1538C12.7661 13.2723 12.5802 13.3755 12.3865 13.4625C12.1687 13.5632 11.9843 13.7243 11.8554 13.9267C11.7265 14.1292 11.6585 14.3644 11.6595 14.6044V14.7692C11.3972 14.8169 11.1313 14.8427 10.8646 14.8465C10.557 14.8533 10.2495 14.8279 9.94711 14.7708V14.6043C9.94801 14.3641 9.87979 14.1287 9.75059 13.9261C9.62139 13.7235 9.43666 13.5624 9.21843 13.4619C9.02581 13.375 8.84077 13.2721 8.66527 13.1543Z" fill="#5D2BFF"/>
<path d="M9.21954 15.7919C9.73572 15.9311 10.2679 16.002 10.8025 16.003C10.8282 16.003 10.8536 16.003 10.879 16.0024C11.3884 15.9945 11.8948 15.923 12.3865 15.7896C12.5096 15.7569 12.6184 15.6844 12.6959 15.5835C12.7735 15.4825 12.8155 15.3587 12.8155 15.2314V14.6043C12.8147 14.5868 12.8186 14.5694 12.8269 14.5539C12.8351 14.5384 12.8474 14.5254 12.8623 14.5163C13.1153 14.4023 13.3583 14.2671 13.5885 14.1121C13.6105 14.1018 13.6347 14.0972 13.659 14.0985C13.6833 14.0999 13.7069 14.1073 13.7276 14.12L14.2895 14.4339C14.3973 14.4939 14.5214 14.518 14.6438 14.5025C14.7661 14.4871 14.8804 14.433 14.9699 14.3481C15.7372 13.6211 16.2887 12.6962 16.5636 11.6755C16.5967 11.5513 16.5874 11.4197 16.5374 11.3013C16.4873 11.1829 16.3992 11.0846 16.287 11.0219L15.6605 10.672C15.6917 10.3736 15.6917 10.0729 15.6605 9.77454L16.2864 9.42516C16.3987 9.36255 16.4869 9.26427 16.5371 9.14589C16.5872 9.0275 16.5964 8.89577 16.5633 8.77155C16.2899 7.7504 15.7393 6.82481 14.9724 6.09727C14.8831 6.01222 14.7689 5.95801 14.6466 5.94257C14.5243 5.92714 14.4002 5.95128 14.2926 6.01147L13.7276 6.32642C13.7068 6.33929 13.6831 6.34676 13.6587 6.34814C13.6343 6.34952 13.61 6.34477 13.5879 6.33432C13.3582 6.17936 13.1156 6.04434 12.8629 5.93076C12.8477 5.92162 12.8353 5.90857 12.827 5.89297C12.8186 5.87737 12.8147 5.85981 12.8155 5.84214V5.21284C12.8155 5.08561 12.7735 4.96193 12.6961 4.86099C12.6186 4.76006 12.51 4.68751 12.3871 4.65462C11.8467 4.50616 11.288 4.43527 10.7277 4.44409C10.2182 4.45201 9.71179 4.52349 9.22008 4.65688C9.09704 4.68962 8.98827 4.76211 8.91069 4.86306C8.83311 4.96402 8.79107 5.08778 8.79111 5.2151V5.8422C8.79191 5.85979 8.78793 5.87727 8.77959 5.89278C8.77124 5.90829 8.75884 5.92124 8.74372 5.93025C8.49097 6.04441 8.24826 6.17959 8.01814 6.33438C7.99608 6.34455 7.97185 6.34915 7.94759 6.34777C7.92334 6.34639 7.89979 6.33908 7.87901 6.32648L7.31713 6.01264C7.20936 5.95261 7.08524 5.92856 6.96285 5.94399C6.84046 5.95942 6.7262 6.01353 6.63671 6.09843C5.86926 6.82556 5.31773 7.75066 5.04305 8.77156C5.00982 8.89578 5.01901 9.02754 5.06916 9.14594C5.11931 9.26434 5.20756 9.36261 5.3199 9.42517L5.94584 9.77455C5.91499 10.0729 5.91499 10.3736 5.94584 10.672L5.32017 11.0214C5.20788 11.084 5.11967 11.1823 5.06953 11.3006C5.01938 11.419 5.01016 11.5508 5.04332 11.675C5.31666 12.6961 5.86726 13.6217 6.63416 14.3493C6.72345 14.4343 6.83763 14.4885 6.95998 14.504C7.08232 14.5194 7.2064 14.4953 7.31402 14.4351L7.87901 14.1201C7.89978 14.1072 7.92345 14.0998 7.94785 14.0984C7.97225 14.097 7.99661 14.1018 8.0187 14.1122C8.24819 14.2669 8.49034 14.4019 8.74258 14.5158C8.75795 14.5248 8.77059 14.5377 8.77914 14.5534C8.78769 14.569 8.79184 14.5866 8.79113 14.6044V15.2337C8.79112 15.3609 8.83311 15.4846 8.91057 15.5856C8.98803 15.6865 9.09664 15.759 9.21954 15.7919ZM8.66527 13.1543C8.46584 13.0241 8.23448 12.9512 7.99644 12.9436C7.7584 12.9359 7.52282 12.9938 7.31544 13.1109L7.1399 13.2085C6.77582 12.7939 6.48984 12.3168 6.2958 11.8003L6.85712 11.487C6.96309 11.4279 7.04775 11.337 7.09912 11.227C7.15048 11.1171 7.16594 10.9938 7.14329 10.8746C7.05712 10.4447 7.05712 10.0019 7.14329 9.57192C7.16594 9.45272 7.15048 9.32942 7.09912 9.2195C7.04775 9.10957 6.96309 9.01861 6.85712 8.95951L6.2958 8.64625C6.49089 8.13007 6.77761 7.65338 7.14216 7.23913L7.31488 7.33566C7.52216 7.45285 7.75767 7.51083 7.99567 7.50326C8.23367 7.4957 8.46502 7.42288 8.66445 7.29276C8.8402 7.17479 9.02551 7.0717 9.21843 6.98458C9.43681 6.88429 9.62167 6.72321 9.75089 6.52062C9.88012 6.31802 9.94824 6.08248 9.9471 5.84218V5.67737C10.2095 5.62967 10.4754 5.60381 10.7421 5.60005C11.0496 5.59442 11.357 5.61976 11.6595 5.67568V5.84219C11.6584 6.08249 11.7265 6.31803 11.8558 6.52063C11.985 6.72323 12.1698 6.8843 12.3882 6.98459C12.5811 7.07143 12.7662 7.17453 12.9416 7.29277C13.1412 7.42263 13.3725 7.49529 13.6104 7.50286C13.8484 7.51042 14.0838 7.45259 14.2912 7.33567L14.4667 7.23802C14.8308 7.65262 15.1168 8.12974 15.3108 8.64626L14.7492 8.95953C14.6432 9.01869 14.5585 9.10975 14.5071 9.21977C14.4558 9.32979 14.4403 9.45319 14.4631 9.57247C14.5496 10.002 14.5496 10.4445 14.4631 10.8741C14.4403 10.9933 14.4557 11.1167 14.507 11.2267C14.5584 11.3367 14.643 11.4278 14.7489 11.487L15.3105 11.8009C15.1155 12.3169 14.8288 12.7934 14.4642 13.2074L14.2915 13.1109C14.0843 12.9934 13.8488 12.9353 13.6108 12.9429C13.3728 12.9504 13.1415 13.0234 12.9422 13.1538C12.7661 13.2723 12.5802 13.3755 12.3865 13.4625C12.1687 13.5632 11.9843 13.7243 11.8554 13.9267C11.7265 14.1292 11.6585 14.3644 11.6595 14.6044V14.7692C11.3972 14.8169 11.1313 14.8427 10.8646 14.8465C10.557 14.8533 10.2495 14.8279 9.94711 14.7708V14.6043C9.94801 14.3641 9.87979 14.1287 9.75059 13.9261C9.62139 13.7235 9.43666 13.5624 9.21843 13.4619C9.02581 13.375 8.84077 13.2721 8.66527 13.1543Z" stroke="#5D2BFF" stroke-width="0.2" mask="url(#path-1-outside-1_712_18679)"/>
<path d="M13.2861 10.2209V10.2209C13.2862 9.7293 13.1404 9.24873 12.8674 8.83997C12.5943 8.4312 12.2062 8.11259 11.752 7.92443C11.2979 7.73627 10.7981 7.68701 10.316 7.78288C9.83382 7.87875 9.39093 8.11544 9.04331 8.46302C8.69568 8.8106 8.45894 9.25347 8.36301 9.7356C8.26709 10.2177 8.31629 10.7175 8.5044 11.1717C8.69251 11.6258 9.01107 12.014 9.41981 12.2871C9.82854 12.5603 10.3091 12.706 10.8007 12.706H10.8007C11.4596 12.7053 12.0913 12.4432 12.5572 11.9774C13.0232 11.5115 13.2853 10.8798 13.2861 10.2209ZM9.57102 10.2208C9.57097 9.97762 9.64304 9.73987 9.77812 9.53763C9.9132 9.33538 10.1052 9.17773 10.3299 9.08462C10.5546 8.99151 10.8019 8.96711 11.0404 9.01453C11.2789 9.06195 11.4981 9.17904 11.6701 9.351C11.8421 9.52296 11.9592 9.74206 12.0067 9.9806C12.0542 10.2191 12.0298 10.4664 11.9368 10.6911C11.8437 10.9158 11.6861 11.1079 11.4839 11.243C11.2817 11.3781 11.0439 11.4502 10.8007 11.4503C10.4747 11.4499 10.1622 11.3203 9.93163 11.0898C9.7011 10.8593 9.57141 10.5468 9.57102 10.2208Z" fill="#5D2BFF" stroke="#5D2BFF" stroke-width="0.1"/>
<path d="M15.2377 3.51185L15.2794 3.53925L15.3069 3.49769L15.9453 2.53363L15.9729 2.4919L15.9312 2.4643C14.1429 1.28276 12.0014 0.755192 9.86889 0.970835C7.73641 1.18648 5.74388 2.1321 4.22834 3.64773C2.71281 5.16337 1.76733 7.15597 1.55183 9.28846C1.33633 11.421 1.86404 13.5624 3.0457 15.3506L3.07331 15.3924L3.11505 15.3647L4.07854 14.7258L4.12005 14.6983L4.09267 14.6567C3.07445 13.1088 2.62039 11.2575 2.80689 9.41416C2.99338 7.57085 3.80904 5.84802 5.11665 4.53549C6.42919 3.22793 8.15202 2.41233 9.9953 2.22588C11.8386 2.03944 13.6899 2.49356 15.2377 3.51185Z" fill="#5D2BFF" stroke="#5D2BFF" stroke-width="0.1"/>
<path d="M4.27089 16.7634L4.23554 16.7988C4.38245 16.9457 4.53366 17.0875 4.68803 17.2226L4.72568 17.2555L4.7586 17.2179L5.51934 16.3477L5.55225 16.31L5.5146 16.2771C5.38117 16.1605 5.25069 16.0382 5.12319 15.9104L5.1231 15.9103C4.9955 15.783 4.87324 15.6525 4.75634 15.5188L4.72338 15.4812L4.68574 15.5142L3.81665 16.276L3.77905 16.309L3.81202 16.3466C3.94729 16.5009 4.08857 16.6524 4.2356 16.7988L4.27089 16.7634ZM4.27089 16.7634C4.13665 16.6297 4.00717 16.4917 3.88267 16.3511L3.88257 16.3512L3.84961 16.3136L3.8872 16.2807C3.88721 16.2807 3.88721 16.2807 3.88721 16.2807L4.68111 15.5847C4.68109 15.5847 4.68108 15.5847 4.68107 15.5847L4.7187 15.5518L4.72931 15.5639C4.84375 15.6941 4.96325 15.8214 5.08779 15.9457C5.21572 16.074 5.34665 16.1967 5.48057 16.3138C5.48094 16.3141 5.48132 16.3144 5.4817 16.3148L5.44879 16.3524C5.44879 16.3524 5.44879 16.3524 5.44879 16.3524L4.75387 17.1473C4.75387 17.1473 4.75388 17.1473 4.75388 17.1473L4.72096 17.185L4.68331 17.1521L4.68342 17.1519C4.54293 17.0276 4.40512 16.8976 4.27089 16.7634Z" fill="#5D2BFF" stroke="#5D2BFF" stroke-width="0.1"/>
<path d="M17.5243 5.72226L17.4827 5.74985L17.5102 5.79149C18.5318 7.33817 18.9879 9.19023 18.8013 11.0344C18.6148 12.8787 17.7969 14.6018 16.4862 15.9125C15.1755 17.2232 13.4523 18.041 11.6081 18.2275C9.76385 18.4141 7.9118 17.9579 6.36515 16.9363L6.32348 16.9087L6.2959 16.9504L5.65753 17.9144L5.6299 17.9562L5.67166 17.9838C7.45993 19.1653 9.60145 19.6929 11.7339 19.4772C13.8664 19.2616 15.8589 18.316 17.3745 16.8003C18.89 15.2847 19.8355 13.2921 20.051 11.1596C20.2665 9.02711 19.7388 6.88563 18.5571 5.09743L18.5295 5.05565L18.4878 5.08333L17.5243 5.72226Z" fill="#5D2BFF" stroke="#5D2BFF" stroke-width="0.1"/>
<path d="M17.3417 3.68035L17.377 3.645C17.2301 3.49808 17.0789 3.35624 16.9245 3.22116L16.8869 3.18822L16.854 3.22588L16.0932 4.0961L16.0603 4.13375L16.098 4.16666C16.2314 4.28328 16.3619 4.40552 16.4894 4.53339L16.4895 4.53348C16.6171 4.6608 16.7393 4.79129 16.8562 4.92492L16.8892 4.9626L16.9268 4.9296L17.7959 4.16774L17.8335 4.13477L17.8005 4.09717C17.6653 3.9429 17.524 3.7914 17.377 3.64493L17.3417 3.68035ZM17.3417 3.68035C17.4759 3.81408 17.6054 3.95209 17.7299 4.09263M17.3417 3.68035C17.2074 3.54612 17.0696 3.41617 16.9291 3.29182L16.9292 3.2917L16.8916 3.25879L16.8587 3.29642C16.8587 3.29642 16.8587 3.29643 16.8587 3.29643L16.1638 4.09137C16.1638 4.09137 16.1638 4.09136 16.1638 4.09136L16.1309 4.12901C16.1312 4.12934 16.1316 4.12967 16.132 4.13C16.2659 4.24709 16.3968 4.36979 16.5248 4.49809C16.6494 4.62241 16.7689 4.74975 16.8834 4.88009L17.7299 4.09263M17.7299 4.09263L17.73 4.09254L17.7629 4.13014L17.7254 4.1631C17.7254 4.1631 17.7254 4.1631 17.7253 4.1631L16.9315 4.85904M17.7299 4.09263L16.9315 4.85904M16.9315 4.85904C16.9315 4.85906 16.9315 4.85907 16.9315 4.85908L16.8939 4.892L16.9315 4.85904Z" fill="#5D2BFF" stroke="#5D2BFF" stroke-width="0.1"/>
</g>
<defs>
<clipPath id="clip0_712_18679">
<rect width="20" height="20" fill="white" transform="translate(0.802734 0.223633)"/>
</clipPath>
</defs>
</svg>
