<svg width="20" height="21" viewBox="0 0 20 21" fill="none" xmlns="http://www.w3.org/2000/svg">
<g clip-path="url(#clip0_491_40704)">
<path d="M11.8083 4.68132L15.8333 8.70632V16.348H4.16667V4.68132H11.8083ZM11.8083 3.01465H4.16667C3.25 3.01465 2.5 3.76465 2.5 4.68132V16.348C2.5 17.2646 3.25 18.0146 4.16667 18.0146H15.8333C16.75 18.0146 17.5 17.2646 17.5 16.348V8.70632C17.5 8.26465 17.325 7.83965 17.0083 7.53131L12.9833 3.50632C12.675 3.18965 12.25 3.01465 11.8083 3.01465ZM5.83333 13.0146H14.1667V14.6813H5.83333V13.0146ZM5.83333 9.68131H14.1667V11.348H5.83333V9.68131ZM5.83333 6.34798H11.6667V8.01465H5.83333V6.34798Z" fill="#5D2BFF"/>
</g>
<defs>
<clipPath id="clip0_491_40704">
<rect width="20" height="20" fill="white" transform="translate(0 0.514648)"/>
</clipPath>
</defs>
</svg>
