<svg width="20" height="21" viewBox="0 0 20 21" fill="none" xmlns="http://www.w3.org/2000/svg">
<path d="M16.6259 3.84681L16.6259 3.8468L16.6257 3.84428C16.5996 3.58714 16.3825 3.38652 16.1185 3.38652H1.46177V3.38646L1.45925 3.38659L1.41224 3.38896L1.41223 3.3889L1.40971 3.38915C1.15257 3.41527 0.951953 3.63234 0.951953 3.89634V15.2012H0.951889L0.952017 15.2037L0.954391 15.2507L0.954326 15.2507L0.954583 15.2532C0.980696 15.5104 1.19777 15.711 1.46177 15.711H10.7046V15.7111L10.7071 15.7109L10.7541 15.7086L10.7541 15.7086L10.7567 15.7084C11.0138 15.6823 11.2144 15.4652 11.2144 15.2012C11.2144 14.9196 10.9862 14.6914 10.7046 14.6914H1.97159V7.05178H15.6084V10.3801L13.3085 9.6841L13.3085 9.68407L13.3068 9.68363L13.2376 9.66529L13.2376 9.66526L13.2358 9.66485C12.8944 9.58783 12.5358 9.69202 12.2865 9.94353C12.0211 10.2108 11.9232 10.6026 12.0302 10.9643L12.0303 10.9644L13.5768 16.1659L13.5767 16.1659L13.5773 16.1675L13.5989 16.2324L13.5989 16.2324L13.5995 16.234C13.7163 16.5473 13.9799 16.7865 14.3069 16.87L14.3072 16.8701C14.6597 16.9576 15.0309 16.855 15.2853 16.5981L15.8568 16.071L16.7548 16.9778L16.7548 16.9778L16.756 16.979L16.8073 17.0273L16.8073 17.0273L16.8087 17.0285C16.994 17.1907 17.2331 17.2811 17.4815 17.2811C17.7545 17.2811 18.0164 17.1717 18.2084 16.9772L18.2088 16.9768L19.2716 15.8753L19.321 15.8304L19.321 15.8304L19.322 15.8295C19.5332 15.6269 19.6358 15.3866 19.6285 15.1378C19.6212 14.8898 19.505 14.6399 19.2913 14.4157L19.291 14.4153L19.2848 14.4089L19.2844 14.4086L18.3853 13.5012L18.9035 12.946L18.9037 12.9459L18.9483 12.8976L18.9483 12.8977L18.9495 12.8963C19.1599 12.6516 19.2431 12.3057 19.1612 11.9789L19.1612 11.9789L19.1607 11.9772L19.1418 11.9115L19.1418 11.9114L19.1413 11.9098C19.0377 11.5921 18.786 11.3429 18.464 11.2446L18.4639 11.2446L16.6281 10.6885L16.6283 3.89634H16.6284L16.6282 3.89382L16.6259 3.84681ZM13.0103 10.6617L13.0104 10.6617C13.0114 10.6606 13.0122 10.6601 13.0126 10.6599L18.1631 12.2189L18.1702 12.2226C18.1703 12.2227 18.1704 12.2228 18.1705 12.2229C18.1711 12.2239 18.1717 12.2252 18.1722 12.2268C18.1733 12.2313 18.1715 12.2365 18.1692 12.2388L18.1681 12.24L17.3054 13.1639L17.3053 13.1639L17.3036 13.1659L17.2722 13.2033L17.2722 13.2033L17.2706 13.2054C17.12 13.4052 17.136 13.6891 17.3159 13.8707L18.5562 15.1223L18.5691 15.1363L18.5575 15.147L18.5574 15.147L18.5554 15.149L17.4822 16.2614L17.4815 16.2615C17.4807 16.2615 17.4802 16.2612 17.4798 16.2608L17.4798 16.2608L16.2351 15.0039L16.2351 15.0039L16.2332 15.0021L16.1969 14.9692L16.197 14.9691L16.1949 14.9675C16.0006 14.8088 15.7154 14.8142 15.527 14.9881L14.5784 15.8637L14.5614 15.8782C14.5593 15.8796 14.5578 15.8803 14.5568 15.8808C14.5558 15.8796 14.5549 15.878 14.5544 15.8763L14.5544 15.8762L13.0087 10.6776L13.0073 10.6685C13.0077 10.6654 13.009 10.663 13.0103 10.6617ZM9.93719 9.43551C9.93719 9.15394 9.70894 8.92569 9.42737 8.92569H4.01077C3.7292 8.92569 3.50095 9.15394 3.50095 9.43551V12.6655C3.50095 12.947 3.7292 13.1753 4.01077 13.1753H9.42737C9.70894 13.1753 9.93719 12.947 9.93719 12.6655V9.43551ZM4.52059 12.1556V9.94533H8.91755V12.1556H4.52059ZM1.97159 4.40616H15.6087L15.6084 6.03214H1.97159V4.40616Z" fill="#5D2BFF" stroke="#5D2BFF" stroke-width="0.1"/>
</svg>
