<svg width="20" height="21" viewBox="0 0 20 21" fill="none" xmlns="http://www.w3.org/2000/svg">
<g clip-path="url(#clip0_488_32260)">
<path d="M17.5007 1.71484H2.50065C1.58398 1.71484 0.833984 2.46484 0.833984 3.38151V13.3815C0.833984 14.2982 1.58398 15.0482 2.50065 15.0482H8.33398V16.7148H6.66732V18.3815H13.334V16.7148H11.6673V15.0482H17.5007C18.4173 15.0482 19.1673 14.2982 19.1673 13.3815V3.38151C19.1673 2.46484 18.4173 1.71484 17.5007 1.71484ZM17.5007 13.3815H2.50065V3.38151H17.5007V13.3815Z" fill="#5D2BFF"/>
<g clip-path="url(#clip1_488_32260)">
<path d="M15.4577 6.38118C15.4577 6.97702 14.9702 7.46452 14.3743 7.46452C14.2768 7.46452 14.1848 7.45369 14.0981 7.4266L12.1698 9.34952C12.1968 9.43618 12.2077 9.53369 12.2077 9.63119C12.2077 10.227 11.7202 10.7145 11.1243 10.7145C10.5285 10.7145 10.041 10.227 10.041 9.63119C10.041 9.53369 10.0518 9.43618 10.0789 9.34952L8.69768 7.96827C8.61102 7.99535 8.51352 8.00619 8.41602 8.00619C8.31852 8.00619 8.22102 7.99535 8.13435 7.96827L5.66977 10.4383C5.69685 10.5249 5.70768 10.617 5.70768 10.7145C5.70768 11.3104 5.22018 11.7979 4.62435 11.7979C4.02852 11.7979 3.54102 11.3104 3.54102 10.7145C3.54102 10.1187 4.02852 9.63119 4.62435 9.63119C4.72185 9.63119 4.81393 9.64202 4.9006 9.6691L7.3706 7.20452C7.34352 7.11785 7.33268 7.02035 7.33268 6.92285C7.33268 6.32702 7.82018 5.83952 8.41602 5.83952C9.01185 5.83952 9.49935 6.32702 9.49935 6.92285C9.49935 7.02035 9.48852 7.11785 9.46143 7.20452L10.8427 8.58577C10.9293 8.55868 11.0268 8.54785 11.1243 8.54785C11.2218 8.54785 11.3193 8.55868 11.406 8.58577L13.3289 6.65744C13.3018 6.57077 13.291 6.47868 13.291 6.38118C13.291 5.78535 13.7785 5.29785 14.3743 5.29785C14.9702 5.29785 15.4577 5.78535 15.4577 6.38118Z" fill="#5D2BFF"/>
</g>
</g>
<defs>
<clipPath id="clip0_488_32260">
<rect width="20" height="20" fill="white" transform="translate(0 0.0478516)"/>
</clipPath>
<clipPath id="clip1_488_32260">
<rect width="13" height="13" fill="white" transform="translate(3 2.04785)"/>
</clipPath>
</defs>
</svg>
