<svg width="20" height="20" viewBox="0 0 20 20" fill="none" xmlns="http://www.w3.org/2000/svg">
<path d="M15.9851 6.90697C16.0649 6.8355 16.1288 6.74814 16.1728 6.6505C16.2169 6.55264 16.2399 6.44663 16.2405 6.3393V6.33877V5.44843C16.2405 4.77254 15.972 4.12434 15.4941 3.64642C15.0162 3.16849 14.368 2.9 13.6921 2.9H6.12421C5.44833 2.9 4.80012 3.16849 4.3222 3.64642C3.84428 4.12434 3.57578 4.77254 3.57578 5.44843L3.57578 6.33877L3.57578 6.3393C3.57636 6.44663 3.59943 6.55264 3.64351 6.6505C3.6875 6.74815 3.75142 6.83551 3.83118 6.90698C3.90985 6.97921 4.00272 7.03424 4.10387 7.06854C4.20523 7.10291 4.31267 7.11571 4.41928 7.10612L4.41928 7.10622L4.42374 7.10561C4.61762 7.07934 4.79499 6.98244 4.92186 6.83349C5.04844 6.68487 5.11587 6.49486 5.11129 6.29972V5.44843C5.11129 5.17979 5.21801 4.92214 5.40797 4.73218C5.59793 4.54223 5.85557 4.43551 6.12421 4.43551H13.6921C13.9607 4.43551 14.2184 4.54223 14.4083 4.73218C14.5983 4.92214 14.705 5.17979 14.705 5.44843V6.29972C14.7004 6.49486 14.7678 6.68487 14.8944 6.83349C15.0213 6.98244 15.1987 7.07934 15.3926 7.10561L15.3925 7.10571L15.397 7.10612C15.5036 7.11571 15.6111 7.10291 15.7124 7.06854C15.8136 7.03423 15.9065 6.9792 15.9851 6.90697ZM15.9851 6.90697C15.9849 6.90713 15.9848 6.90728 15.9846 6.90744L15.9179 6.8329L15.9856 6.9065C15.9855 6.90666 15.9853 6.90681 15.9851 6.90697Z" fill="#5D2BFF" stroke="#5D2BFF" stroke-width="0.2"/>
<path d="M4.42386 12.6937L4.42374 12.6946C4.61762 12.7209 4.79499 12.8178 4.92186 12.9667C5.04844 13.1154 5.11587 13.3054 5.11129 13.5005V14.3518C5.11129 14.6204 5.21801 14.8781 5.40797 15.068C5.59793 15.258 5.85557 15.3647 6.12421 15.3647H13.6921C13.9607 15.3647 14.2184 15.258 14.4083 15.068C14.5983 14.8781 14.705 14.6204 14.705 14.3518V13.5005C14.7004 13.3054 14.7678 13.1154 14.8944 12.9667C15.0213 12.8178 15.1987 12.7209 15.3926 12.6946L15.397 12.694L15.397 12.6941C15.5036 12.6845 15.6111 12.6973 15.7124 12.7317C15.8136 12.766 15.9064 12.821 15.9851 12.8932M4.42386 12.6937L15.9179 12.9673M4.42386 12.6937H4.41031H4.34353V12.6937L4.34294 12.6937C4.15368 12.6948 3.97151 12.7658 3.8314 12.8931M4.42386 12.6937L4.34353 12.7937M15.9851 12.8932C15.9853 12.8934 15.9855 12.8936 15.9856 12.8937L15.9179 12.9673M15.9851 12.8932C15.9849 12.8931 15.9848 12.8929 15.9846 12.8928L15.9179 12.9673M15.9851 12.8932C16.0649 12.9647 16.1288 13.0521 16.1728 13.1497C16.2169 13.2476 16.2399 13.3536 16.2405 13.4609L16.2405 13.4615L16.2405 14.3518C16.2405 15.0277 15.972 15.6759 15.4941 16.1538C15.0162 16.6317 14.368 16.9002 13.6921 16.9002H6.12421C5.44833 16.9002 4.80012 16.6317 4.3222 16.1538C3.84428 15.6759 3.57578 15.0277 3.57578 14.3518V13.4615V13.4609L3.57578 13.4609C3.57636 13.3536 3.59943 13.2476 3.64351 13.1497C3.68754 13.052 3.75154 12.9646 3.8314 12.8931M15.9179 12.9673C15.9875 13.0296 16.0433 13.1057 16.0816 13.1908C16.1199 13.2759 16.14 13.3681 16.1405 13.4615V14.3518C16.1405 15.0012 15.8826 15.6239 15.4234 16.0831C14.9642 16.5423 14.3414 16.8002 13.6921 16.8002H6.12421C5.47485 16.8002 4.85208 16.5423 4.39291 16.0831C3.93374 15.6239 3.67578 15.0012 3.67578 14.3518V13.4615C3.67628 13.3681 3.69635 13.2759 3.73469 13.1908C3.77303 13.1057 3.82879 13.0296 3.89837 12.9673M3.8314 12.8931C3.8313 12.8931 3.8312 12.8932 3.8311 12.8933L3.89837 12.9673M3.8314 12.8931C3.8315 12.893 3.8316 12.8929 3.8317 12.8928L3.89837 12.9673M3.89837 12.9673C4.02026 12.8565 4.17881 12.7947 4.34353 12.7937M4.34353 12.7937H4.41031C4.57979 12.8167 4.73483 12.9014 4.84573 13.0316C4.95663 13.1618 5.01558 13.3283 5.01129 13.4993L4.34353 12.7937Z" fill="#5D2BFF" stroke="#5D2BFF" stroke-width="0.2"/>
<path d="M11.096 13.5081L11.096 13.5081C10.8729 13.4417 10.6685 13.3241 10.4991 13.1646C10.3298 13.0053 10.2002 12.8087 10.1205 12.5904L8.32558 7.92622L7.44696 9.8326C7.44695 9.83261 7.44695 9.83262 7.44695 9.83263C7.33198 10.0822 7.14777 10.2936 6.91622 10.4416C6.68465 10.5896 6.41547 10.6681 6.14065 10.6676M11.096 13.5081L6.14082 10.5676M11.096 13.5081L11.0976 13.5085C11.4268 13.6005 11.778 13.572 12.0881 13.4282C12.3981 13.2844 12.6466 13.0347 12.7889 12.7241L11.096 13.5081ZM6.14065 10.6676L6.14082 10.5676M6.14065 10.6676H6.14082V10.5676M6.14065 10.6676H3.67747M6.14082 10.5676H3.67681M3.67747 10.6676C3.6777 10.6676 3.67793 10.6676 3.67816 10.6676L3.67681 10.5676M3.67747 10.6676H3.67681V10.5676M3.67747 10.6676C3.56298 10.669 3.44962 10.6449 3.34568 10.5968C3.24153 10.5487 3.1495 10.4778 3.07634 10.3895C3.00318 10.3011 2.95076 10.1974 2.92293 10.0861C2.8951 9.97481 2.89257 9.85869 2.91553 9.74628L2.91595 9.74422L2.91597 9.74422C2.95583 9.568 3.05521 9.41091 3.19737 9.29941C3.33929 9.1881 3.51518 9.12902 3.69549 9.13208H6.079L7.02704 7.07366C7.02707 7.07361 7.02709 7.07356 7.02711 7.07351C7.16947 6.76281 7.41801 6.51308 7.72803 6.36925C8.03811 6.2254 8.38934 6.19691 8.71855 6.28892L8.72015 6.28936L8.72015 6.28938C8.94319 6.35573 9.14761 6.47336 9.31705 6.63286C9.48628 6.79215 9.61593 6.9888 9.69565 7.2071L11.4906 11.8737L12.3714 9.96707C12.4864 9.71745 12.6706 9.50607 12.9021 9.35806C13.1337 9.21004 13.4029 9.13161 13.6777 9.13208M3.67681 10.5676L13.6775 9.23208M13.6777 9.13208L13.6775 9.23208M13.6777 9.13208H13.6775V9.23208M13.6777 9.13208H16.1409M13.6775 9.23208H16.1415M16.1409 9.13208C16.1406 9.13208 16.1404 9.13209 16.1402 9.13209L16.1415 9.23208M16.1409 9.13208C16.2554 9.13063 16.3687 9.15481 16.4727 9.20284C16.5768 9.25097 16.6688 9.32183 16.742 9.41021C16.8152 9.49859 16.8676 9.60224 16.8954 9.71355C16.9232 9.82486 16.9258 9.94098 16.9028 10.0534L16.9024 10.0555L16.9024 10.0554C16.8625 10.2317 16.7631 10.3888 16.621 10.5003C16.4791 10.6116 16.3032 10.6706 16.1228 10.6676M16.1409 9.13208H16.1415V9.23208M16.1415 9.23208C16.2413 9.23073 16.3401 9.25176 16.4307 9.29362C16.5213 9.33548 16.6013 9.39711 16.665 9.47398C16.7286 9.55085 16.7742 9.641 16.7984 9.73781C16.8226 9.83461 16.8248 9.93562 16.8048 10.0334L16.1228 10.6676M16.1228 10.6676H16.1237V10.5676L16.1219 10.6676C16.1222 10.6676 16.1225 10.6676 16.1228 10.6676ZM16.1228 10.6676H13.7393M16.1228 10.6676L12.6982 12.6821L12.7891 12.7238L13.7393 10.6676M13.7393 10.6676L13.7661 10.6095L13.6753 10.5676V10.6676H13.7393ZM11.4895 12.1094L11.4924 12.1083L11.5407 12.0038L11.4322 12.0002L11.4733 12.107L11.4762 12.1084M11.4895 12.1094V12.0146H11.4762V12.1084M11.4895 12.1094L11.4835 12.1117M11.4895 12.1094V12.1146L11.4835 12.1117M11.4762 12.1084L11.4835 12.1117M11.4762 12.1084V12.1146L11.4835 12.1117M8.3266 7.69026L8.32372 7.69137L8.27548 7.79602L8.38398 7.79953L8.34283 7.6926L8.33995 7.69127M8.3266 7.69026V7.78512H8.33995V7.69127M8.3266 7.69026L8.33267 7.68792M8.3266 7.69026V7.68512L8.33267 7.68792M8.33995 7.69127L8.33267 7.68792M8.33995 7.69127V7.68512L8.33267 7.68792" fill="#5D2BFF" stroke="#5D2BFF" stroke-width="0.2"/>
</svg>
