<svg width="22" height="23" viewBox="0 0 22 23" fill="none" xmlns="http://www.w3.org/2000/svg">
<path d="M1.80586 9.37783L3.17173 8.69448C2.35735 10.587 2.17359 12.6898 2.67264 14.7136C3.2767 17.1844 4.80012 19.2872 6.98023 20.6276C8.50364 21.5477 10.2109 22.0469 11.9445 22.0469C12.7061 22.0469 13.4417 21.968 14.2033 21.784C19.2989 20.5225 22.4508 15.3443 21.2163 10.2451C20.6122 7.77431 19.0888 5.67156 16.9087 4.3311C15.648 3.54252 14.2295 3.09573 12.7849 2.96426V1.78151H14.9911C15.4638 1.78151 15.8579 1.38732 15.8579 0.91412C15.8579 0.441095 15.4902 0.046875 15.0175 0.046875H8.89758C8.42489 0.046875 8.03081 0.441066 8.03081 0.914261C8.03081 1.38729 8.42472 1.78165 8.89758 1.78165H11.1039V2.9644C10.6574 3.01702 10.1845 3.06946 9.73799 3.20092C9.2653 3.30598 8.97638 3.77917 9.10757 4.2522C9.21255 4.72523 9.68541 5.01436 10.1581 4.88307C14.3343 3.88422 18.5632 6.46023 19.5875 10.6394C20.5857 14.8185 18.0115 19.0504 13.8353 20.0755C11.7606 20.5749 9.65929 20.2332 7.87345 19.1554C6.08747 18.0777 4.85298 16.3429 4.35388 14.3191C3.93359 12.6107 4.11753 10.8759 4.82657 9.29877L5.48322 10.6392C5.64078 10.9546 5.92971 11.1122 6.27124 11.1122C6.4026 11.1122 6.53397 11.086 6.66515 11.0334C7.08544 10.8231 7.26921 10.2974 7.05906 9.87685L5.45685 6.64391C5.35186 6.43361 5.16791 6.27594 4.95775 6.1971C4.7476 6.11826 4.51125 6.14448 4.30111 6.24972L1.04424 7.82688C0.623946 8.03718 0.440175 8.56284 0.65033 8.98344C0.860479 9.43025 1.38577 9.58794 1.80607 9.37763L1.80586 9.37783Z" fill="white"/>
<path d="M17.8805 12.5319C17.8805 9.22012 15.2013 6.53906 11.8919 6.53906V12.5319L7.66309 16.7635C8.74003 17.8412 10.2371 18.5246 11.8919 18.5246C15.2013 18.5248 17.8805 15.8437 17.8805 12.5317V12.5319Z" fill="white"/>
</svg>
