<svg aria-hidden="true" style="position: absolute; width: 0; height: 0; overflow: hidden;" version="1.1" xmlns="http://www.w3.org/2000/svg" xmlns:xlink="http://www.w3.org/1999/xlink">
<defs>

<symbol id="list-1" viewBox="0 0 22 23">
<path d="M1.80586 9.37783L3.17173 8.69448C2.35735 10.587 2.17359 12.6898 2.67264 14.7136C3.2767 17.1844 4.80012 19.2872 6.98023 20.6276C8.50364 21.5477 10.2109 22.0469 11.9445 22.0469C12.7061 22.0469 13.4417 21.968 14.2033 21.784C19.2989 20.5225 22.4508 15.3443 21.2163 10.2451C20.6122 7.77431 19.0888 5.67156 16.9087 4.3311C15.648 3.54252 14.2295 3.09573 12.7849 2.96426V1.78151H14.9911C15.4638 1.78151 15.8579 1.38732 15.8579 0.91412C15.8579 0.441095 15.4902 0.046875 15.0175 0.046875H8.89758C8.42489 0.046875 8.03081 0.441066 8.03081 0.914261C8.03081 1.38729 8.42472 1.78165 8.89758 1.78165H11.1039V2.9644C10.6574 3.01702 10.1845 3.06946 9.73799 3.20092C9.2653 3.30598 8.97638 3.77917 9.10757 4.2522C9.21255 4.72523 9.68541 5.01436 10.1581 4.88307C14.3343 3.88422 18.5632 6.46023 19.5875 10.6394C20.5857 14.8185 18.0115 19.0504 13.8353 20.0755C11.7606 20.5749 9.65929 20.2332 7.87345 19.1554C6.08747 18.0777 4.85298 16.3429 4.35388 14.3191C3.93359 12.6107 4.11753 10.8759 4.82657 9.29877L5.48322 10.6392C5.64078 10.9546 5.92971 11.1122 6.27124 11.1122C6.4026 11.1122 6.53397 11.086 6.66515 11.0334C7.08544 10.8231 7.26921 10.2974 7.05906 9.87685L5.45685 6.64391C5.35186 6.43361 5.16791 6.27594 4.95775 6.1971C4.7476 6.11826 4.51125 6.14448 4.30111 6.24972L1.04424 7.82688C0.623946 8.03718 0.440175 8.56284 0.65033 8.98344C0.860479 9.43025 1.38577 9.58794 1.80607 9.37763L1.80586 9.37783Z" fill="white"/>
<path d="M17.8805 12.5319C17.8805 9.22012 15.2013 6.53906 11.8919 6.53906V12.5319L7.66309 16.7635C8.74003 17.8412 10.2371 18.5246 11.8919 18.5246C15.2013 18.5248 17.8805 15.8437 17.8805 12.5317V12.5319Z" fill="white"/>
</symbol>

<symbol id="list-2" viewBox="0 0 22 17">
<path d="M0.00310873 14.7914H2.9181V16.9999H0L0.00310873 14.7914ZM4.77304 10.7019H7.69114V17.0002H4.77304V10.7019ZM9.53955 3.01263H12.4577V16.9999H9.53955V3.01263ZM14.3095 5.46599H17.2276V16.9988H14.3095V5.46599ZM19.0788 0.149414H21.9969V16.9988H19.0788V0.149414Z" fill="white"/>
</symbol>

<symbol id="list-3" viewBox="0 0 22 22">
<path fill-rule="evenodd" clip-rule="evenodd" d="M10.6094 0H14.3142V1.12797H10.6094V0ZM18.8344 18.5583H15.6372V19.6862H18.8344C19.4206 19.6862 19.8958 19.1812 19.8958 18.5583V15.8893H18.8344V18.5583ZM1.06135 14.4831V10.5461H0V14.4831H1.06135ZM0 15.8893V18.5583C0 19.1812 0.47518 19.6862 1.06135 19.6862H4.25847V18.5583H1.06135V15.8893H0ZM18.8344 14.4831H19.8958V10.5461H18.8344V14.4831ZM19.8958 5.20273V9.13996H18.8344V5.20273H19.8958ZM1.06135 3.79658V1.12797H4.25847V0H1.06135C0.47518 0 0 0.505012 0 1.12797V3.79658H1.06135ZM0 5.20273V9.13996H1.06135V5.20273H0ZM18.8344 3.79658V1.12797H15.6372V0H18.8344C19.4206 0 19.8958 0.505011 19.8958 1.12797V3.79658H18.8344ZM10.6094 18.5583H14.3142V19.6862H10.6094V18.5583ZM9.28631 0H5.58161V1.12797H9.28631V0ZM9.28631 18.5583H5.58161V19.6862H9.28631V18.5583Z" fill="white"/>
<path d="M19.895 16.416H18.8682V22.0003H19.895V16.416Z" fill="white"/>
<path d="M18.0989 18.6145V19.6865H22V18.6145H18.0989Z" fill="white"/>
<path fill-rule="evenodd" clip-rule="evenodd" d="M13.8273 5.99251H15.1853C15.8302 5.99251 16.3529 6.5481 16.3529 7.23347V13.0077C16.3529 13.693 15.8302 14.2486 15.1853 14.2486H4.71063C4.06579 14.2486 3.54297 13.693 3.54297 13.0077V7.23347C3.54297 6.5481 4.06579 5.99251 4.71063 5.99251H6.06868C6.2478 5.55168 6.66057 5.24316 7.14112 5.24316H12.7549C13.2354 5.24316 13.6482 5.55168 13.8273 5.99251Z" fill="white"/>
<path d="M10.2175 12.4088C11.346 12.4088 12.2609 11.4365 12.2609 10.2371C12.2609 9.03772 11.346 8.06543 10.2175 8.06543C9.08894 8.06543 8.17407 9.03772 8.17407 10.2371C8.17407 11.4365 9.08894 12.4088 10.2175 12.4088Z" fill="white" stroke="#593CCA" stroke-width="2"/>
<path d="M17.8805 12.5319C17.8805 9.22012 15.2013 6.53906 11.8919 6.53906V12.5319L7.66309 16.7635C8.74003 17.8412 10.2371 18.5246 11.8919 18.5246C15.2013 18.5248 17.8805 15.8437 17.8805 12.5317V12.5319Z" fill="white"/>
</symbol>

<symbol id="list-4" viewBox="0 0 19 19">
<path d="M0.657495 5.64258L3.98443 5.64258C4.34751 5.64258 4.64185 5.34502 4.64185 4.97797L4.64185 1.61465C4.64185 1.2476 4.34751 0.950044 3.98443 0.950044L0.657495 0.950044C0.294414 0.950044 7.77245e-05 1.2476 7.77245e-05 1.61465L7.77245e-05 4.97797C7.77245e-05 5.34502 0.294414 5.64258 0.657495 5.64258Z" fill="white"/>
<path d="M7.83645 5.64258L11.1634 5.64258C11.5265 5.64258 11.8208 5.34502 11.8208 4.97797V1.61465C11.8208 1.2476 11.5265 0.950044 11.1634 0.950044L7.83645 0.950044C7.47337 0.950044 7.17903 1.2476 7.17903 1.61465L7.17903 4.97797C7.17903 5.34502 7.47337 5.64258 7.83645 5.64258Z" fill="white"/>
<path d="M3.98435 7.62793H0.657417C0.294335 7.62793 0 7.92548 0 8.29254V11.6559C0 12.0229 0.294335 12.3205 0.657417 12.3205H3.98435C4.34743 12.3205 4.64177 12.0229 4.64177 11.6559V8.29254C4.64177 7.92548 4.34743 7.62793 3.98435 7.62793Z" fill="white"/>
<path d="M11.1631 7.62793H7.83613C7.47305 7.62793 7.17871 7.92548 7.17871 8.29254V11.6559C7.17871 12.0229 7.47305 12.3205 7.83613 12.3205H11.1631C11.5261 12.3205 11.8205 12.0229 11.8205 11.6559V8.29254C11.8205 7.92548 11.5261 7.62793 11.1631 7.62793Z" fill="white"/>
<path d="M15.0156 5.64258L18.3426 5.64258C18.7057 5.64258 19 5.34502 19 4.97797V1.61465C19 1.2476 18.7057 0.950044 18.3426 0.950044L15.0156 0.950044C14.6526 0.950044 14.3582 1.2476 14.3582 1.61465V4.97797C14.3582 5.34502 14.6526 5.64258 15.0156 5.64258Z" fill="white"/>
<path d="M18.3423 7.62793H15.0153C14.6522 7.62793 14.3579 7.92548 14.3579 8.29254V11.6559C14.3579 12.0229 14.6522 12.3205 15.0153 12.3205H18.3423C18.7053 12.3205 18.9997 12.0229 18.9997 11.6559V8.29254C18.9997 7.92548 18.7053 7.62793 18.3423 7.62793Z" fill="white"/>
<path d="M3.98435 14.3066H0.657417C0.294335 14.3066 0 14.6042 0 14.9712V18.3346C0 18.7016 0.294335 18.9992 0.657417 18.9992H3.98435C4.34743 18.9992 4.64177 18.7016 4.64177 18.3346V14.9712C4.64177 14.6042 4.34743 14.3066 3.98435 14.3066Z" fill="white"/>
<path d="M11.1631 14.3066H7.83613C7.47305 14.3066 7.17871 14.6042 7.17871 14.9712V18.3346C7.17871 18.7016 7.47305 18.9992 7.83613 18.9992H11.1631C11.5261 18.9992 11.8205 18.7016 11.8205 18.3346V14.9712C11.8205 14.6042 11.5261 14.3066 11.1631 14.3066Z" fill="white"/>
<path d="M18.3423 14.3066H15.0153C14.6522 14.3066 14.3579 14.6042 14.3579 14.9712V18.3346C14.3579 18.7016 14.6522 18.9992 15.0153 18.9992H18.3423C18.7053 18.9992 18.9997 18.7016 18.9997 18.3346V14.9712C18.9997 14.6042 18.7053 14.3066 18.3423 14.3066Z" fill="white"/>
</symbol>

<symbol id="list-5" viewBox="0 0 22 18" >
<path fill-rule="evenodd" clip-rule="evenodd" d="M5.82352 7.33335C6.53821 7.33335 7.11764 6.73642 7.11764 6.00001C7.11764 5.26363 6.53821 4.66667 5.82352 4.66667C5.10876 4.66667 4.52939 5.26363 4.52939 6.00001C4.52939 6.73642 5.10876 7.33335 5.82352 7.33335ZM5.82352 8.00002C6.89559 8.00002 7.76471 7.10456 7.76471 6.00001C7.76471 4.89544 6.89559 4 5.82352 4C4.75144 4 3.88232 4.89544 3.88232 6.00001C3.88232 7.10456 4.75144 8.00002 5.82352 8.00002Z" fill="white"/>
<path fill-rule="evenodd" clip-rule="evenodd" d="M5.82355 9.33333C7.61038 9.33333 9.05887 7.84095 9.05887 5.99998C9.05887 4.15906 7.61038 2.66667 5.82355 2.66667C4.03672 2.66667 2.58823 4.15906 2.58823 5.99998C2.58823 7.84095 4.03672 9.33333 5.82355 9.33333ZM5.82355 10C7.96769 10 9.70593 8.20916 9.70593 5.99998C9.70593 3.79087 7.96769 2 5.82355 2C3.67934 2 1.94116 3.79087 1.94116 5.99998C1.94116 8.20916 3.67934 10 5.82355 10Z" fill="#F1ECFF"/>
<path fill-rule="evenodd" clip-rule="evenodd" d="M5.82358 11.3334C8.68248 11.3334 11.0001 8.94558 11.0001 6.00006C11.0001 3.05449 8.68248 0.666668 5.82358 0.666668C2.96467 0.666668 0.647064 3.05449 0.647064 6.00006C0.647064 8.94558 2.96467 11.3334 5.82358 11.3334ZM5.82358 12.0001C9.03986 12.0001 11.6472 9.31372 11.6472 6.00006C11.6472 2.6863 9.03986 0 5.82358 0C2.6073 0 0 2.6863 0 6.00006C0 9.31372 2.6073 12.0001 5.82358 12.0001Z" fill="#F1ECFF"/>
<path d="M8.85955 14.0376H11.5358L5.1599 7.21508C5.08119 6.82675 5.03397 5.9504 5.47478 5.55101C5.91559 5.15164 6.76045 5.38461 7.12778 5.55101L10.3871 8.79586C10.4501 7.13188 11.8827 7.32598 12.5911 7.63105C12.5911 5.63422 14.0605 5.8561 14.7952 6.21662C14.9841 4.55259 16.1333 4.58032 16.6844 4.80219L20.8243 8.79592L21.1391 9.21189C22.3198 11.5416 22.3986 14.3704 20.6668 16.2009C19.116 17.8401 16.6786 18.1422 15.4717 17.9481L8.85955 16.6169C8.64963 16.5336 8.2141 16.151 8.15114 15.2856C8.08817 14.4204 8.59718 14.0931 8.85955 14.0376Z" fill="white"/>
</symbol>

<symbol id="list-6" viewBox="0 0 22 22">
<path d="M17.6636 0.00018847H7.66848L2.11548 5.49993V19.7999C2.11548 21.0149 3.10999 22 4.33668 22H17.6635C18.8902 22 19.8847 21.0149 19.8847 19.7999V2.1999C19.8847 0.984871 18.8902 0 17.6635 0L17.6636 0.00018847ZM3.78133 6.60025L8.77889 1.65021V6.60025H3.78133ZM11.5556 18.7001C8.79993 18.7001 6.55807 16.4795 6.55807 13.75C6.55807 11.0205 8.79993 8.79996 11.5556 8.79996C14.3113 8.79996 16.5532 11.0205 16.5532 13.75C16.5532 16.4795 14.3112 18.7001 11.5556 18.7001ZM14.332 14.3001H11.0003V9.9001H12.1108V13.2001H14.332V14.3001Z" fill="white"/>
</symbol>



  

</defs>
</svg>