<svg width="125" height="44" viewBox="0 0 125 44" fill="none" xmlns="http://www.w3.org/2000/svg">
<g clip-path="url(#clip0_4154_22309)">
<path d="M27.1275 29.4622C27.1275 29.5221 27.1575 29.5669 27.2174 29.5968C27.2872 29.6168 27.377 29.6367 27.4868 29.6567C27.5965 29.6766 27.7113 29.6915 27.831 29.7015C27.9607 29.7015 28.0855 29.7015 28.2052 29.7015H28.5495V30.3595H23.9844V29.7015H24.1191C24.4384 29.7015 24.7028 29.6666 24.9124 29.5968C25.1319 29.527 25.2416 29.3875 25.2416 29.1781V20.9235C25.2416 20.7142 25.1319 20.5746 24.9124 20.5048C24.7028 20.4351 24.4384 20.4002 24.1191 20.4002H23.9844V19.7422H28.6841C29.9314 19.7422 30.8993 20.0163 31.5878 20.5647C32.2864 21.103 32.6356 21.8507 32.6356 22.8077C32.6356 23.4557 32.4709 24.024 32.1417 24.5125C31.8122 24.991 31.3434 25.3649 30.7347 25.634C30.136 25.8932 29.4276 26.0228 28.6093 26.0228H26.6635V25.2452H28.3848C28.9037 25.2452 29.3328 25.1505 29.672 24.9611C30.0113 24.7717 30.2657 24.4975 30.4353 24.1387C30.6149 23.7798 30.7048 23.3461 30.7048 22.8377C30.7048 22.3292 30.6199 21.9055 30.4503 21.5666C30.2807 21.2276 30.0262 20.9734 29.687 20.8039C29.3577 20.6245 28.9486 20.5347 28.4597 20.5347H27.1275V29.4622Z" fill="white"/>
<path d="M35.6449 21.148C35.3157 21.148 35.0464 21.0583 34.8366 20.8788C34.637 20.6894 34.5374 20.4402 34.5374 20.1311C34.5374 19.8121 34.637 19.5629 34.8366 19.3835C35.0464 19.204 35.3157 19.1143 35.6449 19.1143C35.9642 19.1143 36.2236 19.204 36.4232 19.3835C36.6327 19.5629 36.7376 19.8121 36.7376 20.1311C36.7376 20.4402 36.6327 20.6894 36.4232 20.8788C36.2236 21.0583 35.9642 21.148 35.6449 21.148ZM36.5728 22.6733V29.2232C36.5728 29.4325 36.6728 29.5721 36.8724 29.6419C37.0818 29.7017 37.3364 29.7316 37.6356 29.7316H37.6507V30.3596H33.6992V29.7316H33.7291C34.0284 29.7316 34.278 29.7017 34.4775 29.6419C34.6771 29.5721 34.7768 29.4325 34.7768 29.2232V23.9593C34.7768 23.76 34.7021 23.6254 34.5522 23.5556C34.4026 23.4759 34.1681 23.4061 33.8488 23.3462L33.6992 23.3163V22.6733H36.5728Z" fill="white"/>
<path d="M46.4904 30.3612H42.5691V29.7331H42.5991C42.7684 29.7331 42.9381 29.7281 43.1078 29.7181C43.2873 29.7082 43.432 29.6932 43.5418 29.6732C43.6615 29.6434 43.7214 29.6085 43.7214 29.5686L41.656 26.8619L41.5961 26.8171L39.2763 23.7366C39.1865 23.6169 39.0964 23.5272 39.0067 23.4674C38.9271 23.4076 38.832 23.3677 38.7222 23.3478C38.6127 23.3278 38.4828 23.3178 38.3332 23.3178H38.3181V22.6748H42.1052V23.3029H42.0749C41.9154 23.3029 41.7556 23.3079 41.5961 23.3178C41.4465 23.3278 41.3216 23.3428 41.2219 23.3627C41.122 23.3826 41.0723 23.4125 41.0723 23.4524L43.0032 26.0095L43.063 26.0694L45.4276 29.1798C45.5276 29.2994 45.6223 29.4041 45.7121 29.4938C45.812 29.5736 45.9218 29.6334 46.0415 29.6732C46.1711 29.7131 46.3158 29.7331 46.4756 29.7331H46.4904V30.3612ZM38.1836 30.3612V29.7331H38.2135C38.3631 29.7331 38.4979 29.7131 38.6176 29.6732C38.7373 29.6334 38.8521 29.5686 38.9619 29.4789C39.0816 29.3891 39.1914 29.2795 39.2911 29.1499L41.581 26.3385L42.165 26.7273L40.0546 29.3891C40.0546 29.4589 40.1043 29.5237 40.2042 29.5835C40.314 29.6334 40.4486 29.6732 40.6084 29.7032C40.7678 29.7231 40.9276 29.7331 41.0871 29.7331H41.1022V30.3612H38.1836ZM42.9581 26.5927L42.4791 26.0544L44.4099 23.6169C44.4099 23.5471 44.3652 23.4923 44.2754 23.4524C44.1853 23.4026 44.0709 23.3677 43.9311 23.3478C43.7914 23.3178 43.6418 23.3029 43.482 23.3029H43.4372V22.6748H46.2359V23.3029H46.2211C46.0613 23.3029 45.9166 23.3278 45.787 23.3777C45.6673 23.4175 45.5476 23.4873 45.4276 23.587C45.3079 23.6867 45.1833 23.8163 45.0537 23.9758L42.9581 26.5927Z" fill="white"/>
<path d="M48.7693 26.5769C48.7693 27.0854 48.8242 27.539 48.9341 27.9377C49.0538 28.3265 49.2182 28.6555 49.428 28.9247C49.6473 29.1839 49.9067 29.3833 50.2063 29.5229C50.5055 29.6624 50.8399 29.7322 51.2089 29.7322C51.5982 29.7322 51.9376 29.6574 52.2269 29.5079C52.5262 29.3583 52.7807 29.1689 52.9901 28.9396C53.1996 28.7103 53.3791 28.4661 53.5291 28.2069L54.1575 28.7153C53.9681 29.0643 53.7234 29.3783 53.4242 29.6575C53.1348 29.9266 52.7905 30.136 52.3914 30.2855C51.9922 30.4351 51.5334 30.5098 51.0145 30.5098C50.2362 30.5098 49.5378 30.3503 48.919 30.0313C48.3103 29.7123 47.8263 29.2537 47.4672 28.6555C47.118 28.0574 46.9434 27.3545 46.9434 26.547C46.9434 25.7495 47.1078 25.0516 47.4373 24.4535C47.7766 23.8453 48.2353 23.3718 48.8141 23.0328C49.3931 22.6939 50.0366 22.5244 50.7449 22.5244C51.3039 22.5244 51.7978 22.6141 52.2269 22.7936C52.6659 22.973 53.0299 23.2372 53.3193 23.5861C53.6188 23.9251 53.8434 24.3538 53.993 24.8722C54.1525 25.3806 54.2374 25.9738 54.2476 26.6517H48.2902V25.9189H52.8704L52.4811 26.1881C52.4713 25.6797 52.4315 25.246 52.3614 24.8871C52.2917 24.5183 52.1819 24.2192 52.0323 23.9899C51.8925 23.7506 51.7179 23.5762 51.5084 23.4665C51.2987 23.3469 51.0543 23.2871 50.7748 23.2871C50.4855 23.2871 50.2162 23.3568 49.9666 23.4964C49.7272 23.636 49.5177 23.8453 49.3382 24.1245C49.1583 24.4036 49.0189 24.7475 48.919 25.1563C48.8193 25.5651 48.7693 26.0386 48.7693 26.5769Z" fill="white"/>
<path d="M57.9735 19.2656V29.225C57.9735 29.4343 58.0732 29.5739 58.2728 29.6437C58.4724 29.7035 58.7216 29.7334 59.0212 29.7334H59.0511V30.3615H55.0996V29.7334H55.1295C55.4291 29.7334 55.6783 29.7035 55.8779 29.6437C56.0775 29.5739 56.1772 29.4343 56.1772 29.225V20.5517C56.1772 20.4121 56.1423 20.3074 56.0726 20.2376C56.0128 20.1678 55.9128 20.113 55.773 20.0731C55.6435 20.0233 55.4689 19.9784 55.2492 19.9385L55.0996 19.9086V19.2656H57.9735Z" fill="white"/>
<path d="M65.2425 20.4302C64.7536 20.4302 64.3097 20.5399 63.9105 20.7592C63.5113 20.9686 63.167 21.2776 62.8776 21.6863C62.5883 22.0851 62.3637 22.5686 62.2042 23.1369C62.0444 23.7051 61.9645 24.3431 61.9645 25.051C61.9645 25.7787 62.0444 26.4267 62.2042 26.995C62.3637 27.5632 62.5883 28.0467 62.8776 28.4455C63.167 28.8443 63.5212 29.1484 63.9404 29.3577C64.3593 29.5671 64.8335 29.6717 65.3622 29.6717C65.941 29.6717 66.4549 29.5421 66.9038 29.2829C67.353 29.0138 67.7321 28.6499 68.0415 28.1913C68.3506 27.7227 68.5752 27.1894 68.7149 26.5912L69.4782 26.8903C69.3187 27.5981 69.0441 28.2262 68.6551 28.7745C68.276 29.3228 67.7919 29.7515 67.2033 30.0605C66.6144 30.3596 65.936 30.5091 65.1676 30.5091C64.4192 30.5091 63.7257 30.3796 63.0871 30.1203C62.4485 29.8512 61.8948 29.4773 61.4259 28.9988C60.9668 28.5103 60.6077 27.9321 60.3483 27.2642C60.0889 26.5962 59.959 25.8585 59.959 25.051C59.959 24.2434 60.0889 23.5107 60.3483 22.8527C60.6176 22.1848 60.9869 21.6066 61.4558 21.1181C61.9247 20.6296 62.4686 20.2557 63.0871 19.9965C63.7059 19.7274 64.3744 19.5928 65.0929 19.5928C65.7614 19.5928 66.3402 19.7025 66.8291 19.9218C67.3181 20.1311 67.7222 20.4252 68.0415 20.804C68.3608 21.1829 68.6002 21.6265 68.76 22.135L68.2059 21.9705L68.4604 19.7423H69.2838V22.9724H68.4006C68.2309 22.454 68.0066 22.0054 67.7272 21.6265C67.4578 21.2477 67.1185 20.9536 66.7094 20.7442C66.3004 20.5349 65.8114 20.4302 65.2425 20.4302Z" fill="white"/>
<path d="M76.0438 22.5999V24.2298C75.9741 24.1999 75.8893 24.18 75.7893 24.17C75.6995 24.1501 75.5999 24.1351 75.4901 24.1252C75.3802 24.1152 75.2754 24.1102 75.1757 24.1102C74.9261 24.1102 74.7068 24.1401 74.5171 24.1999C74.3277 24.2597 74.1531 24.3544 73.9933 24.484C73.8436 24.6137 73.7039 24.7781 73.5743 24.9775C73.4444 25.1669 73.3198 25.4012 73.2001 25.6804L73.1403 24.9476C73.2998 24.4691 73.4895 24.0504 73.7088 23.6915C73.9285 23.3326 74.1879 23.0534 74.4872 22.8541C74.7867 22.6447 75.1307 22.54 75.52 22.54C75.6298 22.54 75.7295 22.545 75.8192 22.555C75.9192 22.565 75.9938 22.5799 76.0438 22.5999ZM70.5508 30.361V29.7329H70.5656C70.875 29.7329 71.1295 29.703 71.3291 29.6432C71.5287 29.5734 71.6283 29.4338 71.6283 29.2245V23.9607C71.6283 23.8211 71.5935 23.7164 71.5238 23.6466C71.4537 23.5768 71.3492 23.522 71.2094 23.4821C71.0795 23.4323 70.9099 23.3874 70.7004 23.3476L70.5508 23.3176V22.6746H73.2899V24.9177L73.4244 24.7831V29.4338C73.4244 29.5136 73.4842 29.5784 73.6042 29.6282C73.7239 29.6681 73.8686 29.698 74.0383 29.7179C74.2077 29.7279 74.3675 29.7329 74.5171 29.7329H74.7716V30.361H70.5508Z" fill="white"/>
<path d="M81.9119 25.7694L81.8971 26.4274C81.4479 26.4772 81.0438 26.542 80.6847 26.6218C80.3355 26.6916 80.031 26.7863 79.7715 26.9059C79.5121 27.0156 79.2977 27.1452 79.128 27.2947C78.9584 27.4442 78.8337 27.6137 78.7538 27.8031C78.6739 27.9926 78.6341 28.2069 78.6341 28.4462C78.6341 28.7153 78.6841 28.9446 78.7837 29.1341C78.8834 29.3135 79.0231 29.4531 79.2027 29.5528C79.3825 29.6525 79.592 29.7023 79.8314 29.7023C80.1408 29.7023 80.4151 29.6275 80.6548 29.478C80.8942 29.3284 81.1086 29.1241 81.2983 28.8649C81.488 28.5957 81.6524 28.2916 81.7922 27.9527L81.927 28.6107C81.7774 28.9995 81.5778 29.3384 81.3282 29.6275C81.0786 29.9067 80.7843 30.126 80.445 30.2855C80.1059 30.4351 79.7166 30.5098 79.2776 30.5098C78.8186 30.5098 78.4095 30.4301 78.0505 30.2706C77.6911 30.111 77.4066 29.8817 77.1972 29.5827C76.9877 29.2736 76.8828 28.9097 76.8828 28.491C76.8828 28.0823 76.9877 27.7284 77.1972 27.4293C77.4168 27.1302 77.7361 26.876 78.155 26.6666C78.5842 26.4473 79.1129 26.2679 79.7416 26.1283C80.3703 25.9788 81.0937 25.8591 81.9119 25.7694ZM81.6725 30.3603V28.8499L81.5229 28.8649V24.8871C81.5229 24.4983 81.4679 24.1843 81.3581 23.945C81.2585 23.7058 81.1036 23.5363 80.8942 23.4366C80.6946 23.3369 80.4351 23.2871 80.1158 23.2871C79.6568 23.2871 79.2776 23.3818 78.9784 23.5712C78.6789 23.7606 78.4395 23.9899 78.2599 24.2591C78.2497 24.1195 78.255 23.9999 78.2747 23.9002C78.3047 23.7905 78.3497 23.6958 78.4095 23.616C78.4694 23.5263 78.5391 23.4565 78.619 23.4067C78.7088 23.3568 78.8087 23.3219 78.9186 23.302V24.947H77.3767V23.4366C77.5263 23.3269 77.7312 23.2023 77.9906 23.0627C78.2599 22.9132 78.5891 22.7886 78.9784 22.6889C79.3674 22.5792 79.8064 22.5244 80.2954 22.5244C80.7245 22.5244 81.1187 22.5742 81.4778 22.6739C81.8372 22.7637 82.1516 22.9082 82.4209 23.1076C82.7001 23.297 82.9148 23.5512 83.0644 23.8703C83.214 24.1793 83.289 24.5582 83.289 25.0067V29.2088C83.289 29.3384 83.3337 29.4431 83.4238 29.5229C83.5136 29.5926 83.6333 29.6425 83.7829 29.6724C83.9424 29.7023 84.1222 29.7172 84.3218 29.7172H84.3517V30.3603H81.6725Z" fill="white"/>
<path d="M89.3586 29.2844L88.9397 30.1518L88.3258 30.8695L85.3026 23.7964C85.2427 23.6668 85.1677 23.5671 85.078 23.4973C84.9981 23.4175 84.8935 23.3677 84.7636 23.3478C84.6439 23.3178 84.4992 23.3029 84.3296 23.3029H84.3145V22.6748H88.1614V23.3029H88.1462C87.9766 23.3029 87.802 23.3079 87.6224 23.3178C87.4429 23.3278 87.2933 23.3428 87.1733 23.3627C87.0536 23.3727 86.9937 23.3976 86.9937 23.4375L89.3586 29.2844ZM89.2988 30.1667C89.0295 30.8247 88.7598 31.3878 88.4905 31.8565C88.2311 32.3351 87.9618 32.719 87.6823 33.0079C87.4028 33.2972 87.1085 33.5065 86.7991 33.636C86.4998 33.7656 86.1756 33.8303 85.8264 33.8303C85.5669 33.8303 85.3424 33.8004 85.1526 33.7409C84.9731 33.6909 84.8333 33.6262 84.7337 33.5463V32.1106C84.7636 32.1208 84.8333 32.1507 84.9432 32.2004C85.0629 32.2503 85.2128 32.3003 85.3923 32.3499C85.5719 32.3999 85.7665 32.4248 85.976 32.4248C86.2256 32.4248 86.46 32.39 86.6794 32.32C86.9089 32.2602 87.1335 32.1356 87.3531 31.9463C87.5725 31.7569 87.7872 31.4878 87.9966 31.1387C88.2061 30.7898 88.4208 30.3312 88.6401 29.763L88.8348 29.2844L91.0649 23.6618C91.0649 23.582 91.01 23.5172 90.9002 23.4674C90.8005 23.4175 90.6657 23.3777 90.496 23.3478C90.3365 23.3178 90.1718 23.3029 90.0021 23.3029H89.9574V22.6748H92.7712V23.3029C92.6216 23.3029 92.4867 23.3228 92.3671 23.3627C92.2474 23.4026 92.1375 23.4724 92.0379 23.572C91.9379 23.6717 91.8531 23.8113 91.7834 23.9908L89.2988 30.1667Z" fill="white"/>
<path d="M101.233 26.532C101.233 27.3097 101.058 28.0025 100.709 28.6107C100.37 29.2088 99.8957 29.6774 99.2871 30.0163C98.6784 30.3453 97.975 30.5098 97.1767 30.5098C96.3786 30.5098 95.67 30.3453 95.0514 30.0163C94.4428 29.6774 93.9637 29.2088 93.6145 28.6107C93.2751 28.0025 93.1055 27.3097 93.1055 26.532C93.1055 25.9439 93.2054 25.4055 93.405 24.917C93.6046 24.4186 93.8838 23.9949 94.2432 23.646C94.6121 23.2871 95.0413 23.0129 95.5302 22.8235C96.0291 22.6241 96.5779 22.5244 97.1767 22.5244C97.7754 22.5244 98.3193 22.6241 98.8083 22.8235C99.3071 23.0129 99.7362 23.2871 100.095 23.646C100.465 23.9949 100.744 24.4186 100.933 24.917C101.133 25.4055 101.233 25.9439 101.233 26.532ZM94.9916 26.5171C94.9916 27.185 95.0764 27.7633 95.2458 28.2518C95.4155 28.7403 95.6601 29.1141 95.9794 29.3733C96.3086 29.6325 96.7077 29.7621 97.1767 29.7621C97.6456 29.7621 98.0398 29.6325 98.3591 29.3733C98.6886 29.1141 98.9378 28.7453 99.1075 28.2667C99.2772 27.7782 99.362 27.195 99.362 26.5171C99.362 25.8492 99.2772 25.2709 99.1075 24.7825C98.9378 24.294 98.6886 23.9251 98.3591 23.6759C98.0398 23.4167 97.6456 23.2871 97.1767 23.2871C96.7077 23.2871 96.3086 23.4167 95.9794 23.6759C95.6601 23.9351 95.4155 24.3089 95.2458 24.7974C95.0764 25.2759 94.9916 25.8492 94.9916 26.5171Z" fill="white"/>
<path d="M102.301 30.3603V29.7322H102.316C102.515 29.7322 102.695 29.7172 102.855 29.6873C103.014 29.6575 103.139 29.6076 103.229 29.5378C103.329 29.458 103.378 29.3534 103.378 29.2238V23.96C103.378 23.8204 103.343 23.7157 103.274 23.646C103.204 23.5762 103.099 23.5213 102.959 23.4814C102.83 23.4316 102.66 23.3868 102.45 23.3469L102.301 23.317V22.6739H105.04V24.274L105.174 24.3787V29.5827C105.174 29.6126 105.224 29.6425 105.324 29.6724C105.424 29.6923 105.544 29.7073 105.683 29.7172C105.833 29.7272 105.978 29.7322 106.117 29.7322H106.147V30.3603H102.301ZM111.221 30.3603H107.375V29.7322H107.39C107.52 29.7322 107.659 29.7272 107.809 29.7172C107.959 29.7073 108.083 29.6923 108.183 29.6724C108.293 29.6425 108.348 29.6126 108.348 29.5827V25.0067C108.348 24.6479 108.308 24.3538 108.228 24.1245C108.158 23.8952 108.038 23.7307 107.869 23.631C107.699 23.5214 107.479 23.4665 107.21 23.4665C106.901 23.4665 106.611 23.5363 106.342 23.6759C106.073 23.8154 105.818 24.0198 105.579 24.289C105.349 24.5482 105.13 24.8722 104.92 25.261L104.801 24.4385C105.05 24.0298 105.314 23.6858 105.594 23.4067C105.883 23.1176 106.202 22.8983 106.552 22.7487C106.901 22.5992 107.295 22.5244 107.734 22.5244C108.233 22.5244 108.662 22.6141 109.021 22.7936C109.38 22.973 109.66 23.2472 109.859 23.616C110.059 23.9749 110.159 24.4335 110.159 24.9918V29.2238C110.159 29.3534 110.204 29.458 110.294 29.5378C110.383 29.6076 110.503 29.6575 110.653 29.6873C110.812 29.7172 110.997 29.7322 111.206 29.7322H111.221V30.3603Z" fill="white"/>
<path d="M116.782 28.506C116.782 28.2966 116.732 28.1272 116.632 27.9976C116.532 27.858 116.388 27.7384 116.198 27.6387C116.018 27.539 115.809 27.4542 115.569 27.3844C115.34 27.3146 115.09 27.2449 114.821 27.1751C114.522 27.0854 114.222 26.9907 113.923 26.891C113.623 26.7813 113.349 26.6417 113.1 26.4723C112.85 26.2928 112.646 26.0685 112.486 25.7993C112.336 25.5202 112.262 25.1762 112.262 24.7675C112.262 24.3089 112.381 23.9151 112.621 23.5861C112.86 23.2472 113.199 22.988 113.638 22.8085C114.078 22.6191 114.601 22.5244 115.21 22.5244C115.679 22.5244 116.088 22.5643 116.437 22.644C116.797 22.7138 117.091 22.8035 117.32 22.9132C117.56 23.0129 117.734 23.1076 117.844 23.1973V24.7077H116.407V23.2572C116.517 23.2572 116.607 23.2821 116.677 23.3319C116.747 23.3718 116.802 23.4316 116.841 23.5114C116.881 23.5811 116.906 23.6559 116.916 23.7357C116.926 23.8055 116.916 23.8752 116.886 23.945C116.777 23.8055 116.642 23.6858 116.482 23.5861C116.323 23.4765 116.138 23.3967 115.929 23.3469C115.729 23.297 115.495 23.2721 115.225 23.2721C114.716 23.2721 114.337 23.3818 114.087 23.6011C113.848 23.8204 113.728 24.0946 113.728 24.4236C113.728 24.6529 113.783 24.8423 113.893 24.9918C114.013 25.1314 114.167 25.251 114.357 25.3507C114.547 25.4404 114.766 25.5252 115.015 25.6049C115.265 25.6747 115.524 25.7445 115.794 25.8143C116.093 25.894 116.393 25.9887 116.692 26.0984C117.001 26.2081 117.275 26.3476 117.515 26.5171C117.764 26.6766 117.964 26.886 118.114 27.1452C118.264 27.3944 118.338 27.7084 118.338 28.0873C118.338 28.5658 118.209 28.9895 117.949 29.3583C117.7 29.7172 117.335 30.0014 116.857 30.2107C116.388 30.4101 115.814 30.5098 115.135 30.5098C114.636 30.5098 114.182 30.4649 113.773 30.3752C113.374 30.2955 113.025 30.1908 112.725 30.0612C112.436 29.9216 112.191 29.7871 111.992 29.6575V28.0424H113.474V29.8518C113.344 29.7821 113.239 29.7123 113.16 29.6425C113.089 29.5627 113.04 29.4879 113.01 29.4182C112.98 29.3384 112.97 29.2637 112.98 29.1939C113 29.1241 113.03 29.0543 113.07 28.9845C113.21 29.164 113.384 29.3085 113.594 29.4182C113.803 29.5278 114.033 29.6126 114.282 29.6724C114.542 29.7322 114.821 29.7621 115.12 29.7621C115.479 29.7621 115.779 29.7123 116.018 29.6126C116.268 29.5129 116.457 29.3683 116.587 29.1789C116.717 28.9895 116.782 28.7652 116.782 28.506Z" fill="white"/>
<path d="M74.9488 36.3082L74.3544 36.217V35.8361H75.3526C75.5103 35.8361 75.7364 35.826 76.031 35.8056C76.3256 35.7856 76.5465 35.7754 76.694 35.7754C77.6389 35.7754 78.3401 36.0137 78.7973 36.4911C79.2594 36.9629 79.4908 37.628 79.4908 38.4858C79.4908 39.0846 79.3714 39.6178 79.1326 40.0846C78.8988 40.5465 78.5687 40.907 78.1417 41.1657C77.7151 41.4247 77.2249 41.5539 76.6711 41.5539C76.5493 41.5539 76.3407 41.5438 76.0461 41.5237C75.7413 41.5034 75.5127 41.4932 75.3603 41.4932H74.3164V41.1201L74.9488 41.0439V36.3082ZM75.7568 41.0667C75.9345 41.1074 76.163 41.1278 76.4425 41.1278H76.6711C77.0521 41.1225 77.3875 41.026 77.6771 40.8382C77.9717 40.6505 78.2003 40.3714 78.3629 40.0008C78.5255 39.6252 78.6066 39.171 78.6066 38.6381C78.6066 37.8361 78.4314 37.2268 78.081 36.8108C77.7354 36.3946 77.2122 36.1864 76.511 36.1864C76.3639 36.1864 76.1883 36.1966 75.9854 36.217C75.899 36.2321 75.8228 36.2398 75.7568 36.2398V41.0667Z" fill="white"/>
<path d="M80.9822 36.5076C80.8197 36.5076 80.6979 36.462 80.6165 36.3707C80.5354 36.2791 80.4947 36.1625 80.4947 36.0204C80.4947 35.8579 80.5428 35.7234 80.6393 35.6168C80.7411 35.5101 80.878 35.457 81.0507 35.457C81.2233 35.457 81.3504 35.5027 81.4315 35.5939C81.5129 35.6852 81.5536 35.8021 81.5536 35.9442C81.5536 36.1166 81.5027 36.2538 81.401 36.3553C81.3047 36.4567 81.1675 36.5076 80.9899 36.5076H80.9822ZM80.6776 37.8551L80.0985 37.7182V37.3146L81.2792 37.1699H81.2946L81.4697 37.3071V41.0604L82.079 41.1215V41.4946H80.0605V41.1215L80.6776 41.053V37.8551Z" fill="white"/>
<path d="M84.4398 43.5494C83.7895 43.5494 83.3169 43.4455 83.0223 43.2374C82.7329 43.0345 82.5879 42.7527 82.5879 42.3922C82.5879 42.1689 82.6567 41.9633 82.7937 41.7755C82.9359 41.5877 83.1037 41.4455 83.2968 41.3493C83.063 41.2174 82.9461 41.004 82.9461 40.7098C82.9461 40.527 82.9994 40.3543 83.1062 40.1921C83.2129 40.0296 83.3526 39.9053 83.5254 39.819C83.2712 39.7074 83.0756 39.5473 82.9387 39.3392C82.8063 39.131 82.7403 38.885 82.7403 38.6007C82.7403 38.3062 82.8217 38.05 82.9843 37.8316C83.1518 37.6133 83.3702 37.4459 83.6395 37.3293C83.9138 37.2125 84.2035 37.1542 84.5083 37.1542C85.0216 37.1542 85.423 37.2606 85.7123 37.474C85.7885 37.3978 85.9054 37.3241 86.0631 37.2532C86.2204 37.1819 86.3882 37.1465 86.5659 37.1465H86.8251V37.8165H85.9869C86.1087 38.0043 86.1695 38.2226 86.1695 38.4712C86.1695 38.7709 86.0933 39.0373 85.9409 39.2707C85.7938 39.4992 85.5855 39.6768 85.3162 39.8036C85.0518 39.9306 84.7523 39.9941 84.417 39.9941C84.1985 39.9941 84.003 39.9713 83.8302 39.9254C83.7589 39.9966 83.7006 40.0752 83.655 40.1616C83.609 40.2479 83.5862 40.3315 83.5862 40.4129C83.5862 40.5954 83.6473 40.7225 83.7691 40.7934C83.891 40.8594 84.1097 40.8924 84.4247 40.8924H85.2857C85.7783 40.8924 86.1442 40.9864 86.383 41.1742C86.6217 41.362 86.7411 41.6284 86.7411 41.9734C86.7411 42.263 86.6369 42.5269 86.4286 42.7653C86.2204 43.0089 85.9384 43.1995 85.5827 43.3364C85.2323 43.4785 84.8513 43.5494 84.4398 43.5494ZM84.4931 39.5754C85.0722 39.5754 85.3619 39.2325 85.3619 38.5473C85.3619 38.2072 85.2857 37.9587 85.1333 37.8014C84.9858 37.6389 84.7625 37.5575 84.4626 37.5575C84.1831 37.5575 83.9622 37.6365 83.7997 37.7937C83.6371 37.946 83.5556 38.1921 83.5556 38.5322C83.5556 38.852 83.6318 39.1058 83.7845 39.2935C83.9419 39.4813 84.1782 39.5754 84.4931 39.5754ZM84.5083 43.1079C84.7572 43.1079 84.9911 43.0699 85.2095 42.9938C85.4331 42.9229 85.6133 42.8137 85.7506 42.6663C85.8875 42.5242 85.9563 42.3567 85.9563 42.164C85.9563 41.9355 85.8953 41.7681 85.7734 41.6614C85.6515 41.5599 85.4152 41.5091 85.0648 41.5091H84.1655C83.9622 41.5091 83.8021 41.4964 83.6852 41.4711C83.477 41.6993 83.373 41.9559 83.373 42.2402C83.373 42.5242 83.4594 42.74 83.6318 42.8871C83.8046 43.0345 84.0967 43.1079 84.5083 43.1079Z" fill="white"/>
<path d="M88.1482 36.5076C87.9857 36.5076 87.8639 36.462 87.7825 36.3707C87.7014 36.2791 87.6607 36.1625 87.6607 36.0204C87.6607 35.8579 87.7088 35.7234 87.8053 35.6168C87.9071 35.5101 88.044 35.457 88.2167 35.457C88.3894 35.457 88.5164 35.5027 88.5975 35.5939C88.6789 35.6852 88.7193 35.8021 88.7193 35.9442C88.7193 36.1166 88.6687 36.2538 88.567 36.3553C88.4708 36.4567 88.3336 36.5076 88.1556 36.5076H88.1482ZM87.8436 37.8551L87.2645 37.7182V37.3146L88.4452 37.1699H88.4606L88.6357 37.3071V41.0604L89.245 41.1215V41.4946H87.2266V41.1215L87.8436 41.053V37.8551Z" fill="white"/>
<path d="M91.0915 41.5699C90.8018 41.5699 90.5861 41.5039 90.4436 41.3719C90.3014 41.24 90.2304 41.0139 90.2304 40.6942V37.7707H89.6816V37.4281C89.7072 37.4229 89.7782 37.4053 89.8951 37.3748C90.012 37.3442 90.0907 37.3162 90.1314 37.2909C90.2126 37.2453 90.2761 37.154 90.3218 37.0168C90.3625 36.9206 90.4106 36.7655 90.4668 36.5524C90.5226 36.3393 90.5556 36.2123 90.5658 36.1719H91.0153L91.0304 37.2681H92.3032V37.7707H91.0304V40.108C91.0304 40.3972 91.0381 40.6004 91.0535 40.717C91.0736 40.8339 91.1118 40.91 91.1676 40.9455C91.2287 40.9809 91.3302 40.9988 91.4724 40.9988C91.6097 40.9988 91.7597 40.9809 91.9222 40.9455C92.0897 40.91 92.2193 40.8718 92.3109 40.8314L92.4251 41.174C92.3032 41.2653 92.1052 41.3541 91.8306 41.4404C91.5613 41.5267 91.3151 41.5699 91.0915 41.5699Z" fill="white"/>
<path d="M92.8887 40.3516C92.8887 39.8745 93.1278 39.5243 93.6053 39.301C94.0828 39.0725 94.6872 38.9507 95.4189 38.9356V38.7222C95.4189 38.4836 95.3933 38.2958 95.3427 38.1589C95.2918 38.022 95.203 37.923 95.0759 37.8619C94.954 37.7959 94.7788 37.7629 94.5502 37.7629C94.2911 37.7629 94.0572 37.8012 93.849 37.877C93.6457 37.9483 93.4427 38.0371 93.2394 38.1438L93.0488 37.7478C93.1148 37.692 93.237 37.6183 93.4147 37.527C93.5924 37.4355 93.7981 37.3544 94.0319 37.2831C94.2655 37.2122 94.4993 37.1768 94.7328 37.1768C95.0938 37.1768 95.3782 37.2273 95.5864 37.3291C95.7999 37.4253 95.9523 37.5829 96.0436 37.8012C96.1353 38.0192 96.1809 38.3112 96.1809 38.6766V41.1206H96.6304V41.4555C96.5289 41.4811 96.3993 41.5063 96.242 41.5316C96.0896 41.5572 95.9548 41.5699 95.8379 41.5699C95.6957 41.5699 95.5991 41.547 95.5485 41.5014C95.4976 41.4607 95.4723 41.3667 95.4723 41.2196V40.9683C95.3199 41.1206 95.1317 41.2603 94.9084 41.387C94.69 41.5141 94.441 41.5773 94.1615 41.5773C93.7956 41.5773 93.4908 41.4733 93.2471 41.2652C93.0081 41.0521 92.8887 40.7475 92.8887 40.3516ZM94.4891 41.0595C94.6212 41.0595 94.7736 41.0191 94.9463 40.9377C95.1191 40.8566 95.2767 40.7601 95.4189 40.6485V39.3389C94.8652 39.3389 94.4459 39.4253 94.1615 39.5979C93.882 39.7654 93.7423 39.9862 93.7423 40.2603C93.7423 40.5344 93.8083 40.7373 93.9403 40.8693C94.0776 40.9963 94.2605 41.0595 94.4891 41.0595Z" fill="white"/>
<path d="M97.7186 35.8154L97.1016 35.7315V35.4044L98.3279 35.2598H98.343L98.5107 35.3739V41.0611L99.158 41.1222V41.4953H97.1016V41.1222L97.7186 41.0537V35.8154Z" fill="white"/>
<path d="M102.148 36.31L101.492 36.2187V35.8379H105.569L105.645 37.1324H105.15L104.921 36.2872L102.963 36.2338V38.4419L104.342 38.4191L104.472 37.787H104.876V39.5687H104.479L104.342 38.9063L102.963 38.8758V41.0457L104.152 41.1218V41.4949H101.538V41.1218L102.148 41.0457V36.31Z" fill="white"/>
<path d="M107.125 36.5076C106.962 36.5076 106.84 36.462 106.759 36.3707C106.678 36.2791 106.637 36.1625 106.637 36.0204C106.637 35.8579 106.685 35.7234 106.782 35.6168C106.883 35.5101 107.021 35.457 107.193 35.457C107.366 35.457 107.493 35.5027 107.574 35.5939C107.655 35.6852 107.696 35.8021 107.696 35.9442C107.696 36.1166 107.645 36.2538 107.544 36.3553C107.447 36.4567 107.31 36.5076 107.132 36.5076H107.125ZM106.82 37.8551L106.241 37.7182V37.3146L107.422 37.1699H107.437L107.612 37.3071V41.0604L108.222 41.1215V41.4946H106.203V41.1215L106.82 41.053V37.8551Z" fill="white"/>
<path d="M108.779 41.12L109.351 41.0743V37.8536L108.802 37.7167V37.3056L109.854 37.1684H109.869L110.037 37.3056V37.4426L110.014 38.0364H110.037C110.088 37.9501 110.179 37.8385 110.311 37.7016C110.443 37.5644 110.613 37.4401 110.822 37.3285C111.03 37.2116 111.256 37.1533 111.5 37.1533C111.601 37.1533 111.685 37.166 111.751 37.1912V38.0442C111.716 38.0186 111.658 37.9957 111.576 37.9754C111.5 37.9501 111.414 37.9375 111.317 37.9375C110.895 37.9375 110.504 38.067 110.143 38.3257V41.0666L111.111 41.1277V41.4931H108.779V41.12Z" fill="white"/>
<path d="M112.961 40.8847C113.011 40.9606 113.118 41.0293 113.281 41.0901C113.448 41.1511 113.623 41.1813 113.806 41.1813C114.096 41.1813 114.309 41.1255 114.447 41.0139C114.584 40.9023 114.652 40.7475 114.652 40.5495C114.652 40.4126 114.609 40.2933 114.523 40.1918C114.436 40.0901 114.315 40.0013 114.157 39.9251C114.004 39.844 113.784 39.7475 113.494 39.6359C113.103 39.4888 112.816 39.3136 112.633 39.1104C112.455 38.9026 112.366 38.631 112.366 38.2958C112.366 38.0725 112.432 37.877 112.564 37.7096C112.701 37.5422 112.887 37.4126 113.121 37.3214C113.359 37.2249 113.623 37.1768 113.913 37.1768C114.147 37.1768 114.35 37.1943 114.523 37.2301C114.701 37.2656 114.843 37.301 114.95 37.3365C115.056 37.3723 115.127 37.3951 115.163 37.4052V38.3491H114.698L114.546 37.7858C114.515 37.725 114.434 37.6741 114.302 37.6334C114.17 37.5878 114.022 37.565 113.86 37.565C113.631 37.565 113.446 37.6159 113.304 37.7173C113.166 37.8187 113.098 37.956 113.098 38.1283C113.098 38.2807 113.133 38.4077 113.205 38.5092C113.281 38.6057 113.375 38.6843 113.487 38.745C113.598 38.8061 113.751 38.877 113.944 38.9584L114.096 39.0192C114.381 39.1308 114.612 39.2375 114.79 39.3389C114.967 39.4404 115.115 39.5751 115.232 39.7426C115.354 39.9051 115.414 40.1055 115.414 40.3439C115.414 40.7197 115.267 41.0191 114.973 41.2424C114.683 41.4656 114.284 41.5773 113.776 41.5773C113.527 41.5773 113.265 41.5443 112.991 41.4783C112.722 41.4074 112.501 41.3364 112.328 41.2652V40.2908H112.824L112.961 40.8847Z" fill="white"/>
<path d="M117.408 41.5699C117.118 41.5699 116.902 41.5039 116.76 41.3719C116.618 41.24 116.547 41.0139 116.547 40.6942V37.7707H115.998V37.4281C116.023 37.4229 116.095 37.4053 116.212 37.3748C116.328 37.3442 116.407 37.3162 116.448 37.2909C116.529 37.2453 116.593 37.154 116.638 37.0168C116.679 36.9206 116.727 36.7655 116.783 36.5524C116.839 36.3393 116.872 36.2123 116.882 36.1719H117.332L117.347 37.2681H118.62V37.7707H117.347V40.108C117.347 40.3972 117.354 40.6004 117.37 40.717C117.39 40.8339 117.428 40.91 117.484 40.9455C117.545 40.9809 117.647 40.9988 117.789 40.9988C117.926 40.9988 118.076 40.9809 118.238 40.9455C118.406 40.91 118.536 40.8718 118.627 40.8314L118.741 41.174C118.619 41.2653 118.421 41.3541 118.147 41.4404C117.878 41.5267 117.631 41.5699 117.408 41.5699Z" fill="white"/>
<path d="M120.035 23.4099V21.7342H119.889C119.802 21.7342 119.732 21.7382 119.679 21.7463C119.626 21.7545 119.586 21.7697 119.56 21.7921C119.535 21.8124 119.521 21.8408 119.517 21.8774L119.487 22.2156H119.273V21.5361H121.178V22.2156H120.968L120.938 21.8774C120.936 21.8408 120.921 21.8124 120.895 21.7921C120.869 21.7697 120.828 21.7545 120.773 21.7463C120.72 21.7382 120.65 21.7342 120.563 21.7342H120.416V23.4099C120.416 23.4546 120.439 23.4841 120.483 23.4983C120.53 23.5125 120.588 23.5196 120.657 23.5196H120.709V23.6994H119.746V23.5196H119.798C119.865 23.5196 119.921 23.5125 119.965 23.4983C120.012 23.4841 120.035 23.4546 120.035 23.4099Z" fill="white"/>
<path d="M121.447 23.6984V23.5187H121.481C121.526 23.5187 121.565 23.5157 121.6 23.5096C121.636 23.5035 121.665 23.4923 121.685 23.4761C121.705 23.4598 121.715 23.4375 121.715 23.4091V21.8254C121.715 21.795 121.705 21.7726 121.685 21.7584C121.665 21.7422 121.636 21.731 121.6 21.7249C121.565 21.7188 121.526 21.7158 121.481 21.7158H121.447V21.5361H122.279L122.834 23.3238L122.764 23.272L123.328 21.5361H124.142V21.7158H124.108C124.064 21.7158 124.023 21.7188 123.986 21.7249C123.952 21.731 123.924 21.7422 123.904 21.7584C123.884 21.7726 123.874 21.795 123.874 21.8254V23.4091C123.874 23.4375 123.884 23.4598 123.904 23.4761C123.924 23.4923 123.952 23.5035 123.986 23.5096C124.023 23.5157 124.064 23.5187 124.108 23.5187H124.142V23.6984H123.252V23.5187H123.279C123.31 23.5187 123.341 23.5177 123.374 23.5157C123.408 23.5136 123.437 23.5106 123.459 23.5065C123.483 23.5004 123.496 23.4944 123.496 23.4883V21.6031L123.526 21.597L122.828 23.7045H122.603L121.904 21.597H121.938V23.4883C121.938 23.4944 121.95 23.5004 121.974 23.5065C121.999 23.5106 122.028 23.5136 122.063 23.5157C122.098 23.5177 122.129 23.5187 122.157 23.5187H122.17V23.6984H121.447Z" fill="white"/>
<mask id="mask0_4154_22309" style="mask-type:luminance" maskUnits="userSpaceOnUse" x="6" y="19" width="9" height="19">
<path d="M7.4133 37.6342C11.7911 33.0052 7.56255 25.911 14.8257 19.4707C6.31886 23.4456 4.2792 33.2066 7.4133 37.6342Z" fill="white"/>
</mask>
<g mask="url(#mask0_4154_22309)">
<path d="M4.27734 19.4229H14.8239V37.5864H4.27734V19.4229Z" fill="url(#paint0_linear_4154_22309)"/>
</g>
<mask id="mask1_4154_22309" style="mask-type:luminance" maskUnits="userSpaceOnUse" x="7" y="-1" width="12" height="26">
<path d="M14.8202 24.603C16.6111 20.8293 17.4071 16.0494 13.676 12.9299C7.95499 8.0997 10.1937 6.79152 7.00977 -0.000976562C12.681 2.46445 17.8051 6.59025 18.7503 13.1312C19.2478 16.7035 18.1533 20.5275 14.8202 24.603Z" fill="white"/>
</mask>
<g mask="url(#mask1_4154_22309)">
<path d="M7.00977 -0.000976562H19.2478V24.603H7.00977V-0.000976562Z" fill="url(#paint1_linear_4154_22309)"/>
</g>
<mask id="mask2_4154_22309" style="mask-type:luminance" maskUnits="userSpaceOnUse" x="0" y="3" width="35" height="22">
<path d="M14.8228 24.6046C15.5193 21.1832 15.9173 16.5542 13.1314 15.4473C6.16666 12.6297 6.21642 14.0385 0.744141 3.01953C9.74851 3.82458 12.7832 8.85604 15.768 10.9189C16.8127 11.6234 17.9072 12.0259 18.8524 11.7743C19.8473 11.5731 19.9469 10.2145 21.29 9.56047C22.6333 8.90636 24.3744 9.25856 25.3694 10.6674C27.3593 10.7177 31.3391 11.1705 34.0753 11.8246C29.8467 11.2711 26.7126 11.5731 24.0759 12.7303C20.2951 14.441 20.0464 19.3215 14.8228 24.6046Z" fill="white"/>
</mask>
<g mask="url(#mask2_4154_22309)">
<path d="M0.744141 3.01953H34.0753V24.5543H0.744141V3.01953Z" fill="url(#paint2_linear_4154_22309)"/>
</g>
<mask id="mask3_4154_22309" style="mask-type:luminance" maskUnits="userSpaceOnUse" x="7" y="9" width="28" height="20">
<path d="M13.1316 15.3949C10.6442 14.3886 9.05231 13.9357 7.80859 13.2817C7.90811 13.332 16.4648 16.4012 19.6984 11.1684C20.0963 10.6653 20.4446 9.96089 21.2903 9.55837C22.6335 8.90429 24.3747 9.25649 25.3696 10.6653C27.3596 10.7156 31.3394 11.1684 34.0756 11.8225C29.8967 11.42 26.7128 11.4703 24.0762 12.5269C21.3401 13.6339 21.0416 17.3572 18.1064 21.2314C16.6637 23.1434 13.6291 25.0553 13.4799 28.2252C12.3357 25.1559 13.7286 23.2943 14.6241 21.483C15.6688 19.4201 15.4698 16.3509 13.1316 15.3949Z" fill="white"/>
</mask>
<g mask="url(#mask3_4154_22309)">
<path d="M7.80859 8.95508H34.0756V28.2257H7.80859V8.95508Z" fill="url(#paint3_linear_4154_22309)"/>
</g>
<mask id="mask4_4154_22309" style="mask-type:luminance" maskUnits="userSpaceOnUse" x="13" y="10" width="22" height="19">
<path d="M25.3675 10.7168C27.3574 10.7168 31.3372 11.1696 34.0734 11.8237C29.8945 11.4212 26.7107 11.6728 24.074 12.7294C21.7359 13.6854 22.7308 17.2074 21.2384 20.6791C19.3977 24.8049 13.7264 24.654 13.5275 28.2263C13.3285 23.2452 18.154 23.4464 19.4474 16.8552C19.9947 13.9873 21.7359 10.9181 25.3675 10.7168Z" fill="white"/>
</mask>
<g mask="url(#mask4_4154_22309)">
<path d="M13.2793 10.7168H34.074V28.2263H13.2793V10.7168Z" fill="url(#paint4_linear_4154_22309)"/>
</g>
<mask id="mask5_4154_22309" style="mask-type:luminance" maskUnits="userSpaceOnUse" x="13" y="12" width="6" height="15">
<path d="M16.3165 18.1631C16.217 16.704 15.819 15.3455 14.8738 14.1379C16.2667 13.9367 17.6099 13.4335 18.6546 12.4775C18.7043 12.6788 18.7541 12.88 18.7541 13.1316C19.0028 14.9933 18.8536 16.9555 18.1571 18.9178C17.2119 21.5845 13.9783 23.5971 13.5306 26.4651C13.3316 23.1443 16.4657 21.031 16.3165 18.1631Z" fill="white"/>
</mask>
<g mask="url(#mask5_4154_22309)">
<path d="M13.334 12.4766H19.0053V26.4641H13.334V12.4766Z" fill="url(#paint5_linear_4154_22309)"/>
</g>
<mask id="mask6_4154_22309" style="mask-type:luminance" maskUnits="userSpaceOnUse" x="8" y="5" width="11" height="10">
<path d="M14.8751 14.1385C14.5269 13.736 14.1786 13.3335 13.7309 12.9309C9.99979 9.81143 9.65156 8.15104 8.95508 5.48438C12.1389 7.2957 13.9796 9.66049 15.7706 10.9184C16.666 11.5725 17.661 11.9247 18.5067 11.824C18.5564 12.0253 18.6062 12.2265 18.6559 12.4781C17.5615 13.4341 16.2183 13.9373 14.8751 14.1385Z" fill="white"/>
</mask>
<g mask="url(#mask6_4154_22309)">
<path d="M8.95508 5.48438H18.6559V14.1385H8.95508V5.48438Z" fill="url(#paint6_linear_4154_22309)"/>
</g>
<mask id="mask7_4154_22309" style="mask-type:luminance" maskUnits="userSpaceOnUse" x="9" y="19" width="9" height="24">
<path d="M14.8264 19.4189C8.80692 25.7586 13.9807 36.4758 17.6621 42.6142C13.0355 39.4443 9.15518 34.9158 9.45365 28.9285C9.55314 25.7083 11.1451 22.4881 14.8264 19.4189Z" fill="white"/>
</mask>
<g mask="url(#mask7_4154_22309)">
<path d="M8.85156 19.4189H17.6569V42.6142H8.85156V19.4189Z" fill="url(#paint7_linear_4154_22309)"/>
</g>
<mask id="mask8_4154_22309" style="mask-type:luminance" maskUnits="userSpaceOnUse" x="8" y="19" width="7" height="20">
<path d="M13.0832 38.6402C13.1826 36.7787 12.8842 34.8163 12.2375 32.7032C10.6953 27.8728 10.0485 24.2501 14.8243 19.4199C7.31239 24.6023 7.0139 32.1497 13.0832 38.6402Z" fill="white"/>
</mask>
<g mask="url(#mask8_4154_22309)">
<path d="M7.00977 19.4199H14.8202V38.6402H7.00977V19.4199Z" fill="url(#paint8_linear_4154_22309)"/>
</g>
<mask id="mask9_4154_22309" style="mask-type:luminance" maskUnits="userSpaceOnUse" x="3" y="19" width="12" height="15">
<path d="M3.58177 33.8594C5.72092 31.7965 7.5616 30.3876 8.05908 27.7712C8.65608 24.7523 10.248 22.4881 14.8248 19.4189C6.4174 21.7837 2.8853 30.136 3.58177 33.8594Z" fill="white"/>
</mask>
<g mask="url(#mask9_4154_22309)">
<path d="M2.87891 19.4189H14.8184V33.8594H2.87891V19.4189Z" fill="url(#paint9_linear_4154_22309)"/>
</g>
<mask id="mask10_4154_22309" style="mask-type:luminance" maskUnits="userSpaceOnUse" x="6" y="19" width="9" height="13">
<path d="M6.06641 31.3948C7.06136 30.3382 7.75781 29.2313 8.05631 27.7722C8.65331 24.7533 10.2452 22.4891 14.822 19.4199C9.34976 22.0363 6.51412 27.0175 6.06641 31.3948Z" fill="white"/>
</mask>
<g mask="url(#mask10_4154_22309)">
<path d="M6.06641 19.4199H14.822V31.3948H6.06641V19.4199Z" fill="url(#paint10_linear_4154_22309)"/>
</g>
<path fill-rule="evenodd" clip-rule="evenodd" d="M22.7818 10.9694C22.9808 10.9694 23.13 10.8184 23.13 10.617C23.13 10.4157 22.9808 10.2646 22.7818 10.2646C22.5828 10.2646 22.4336 10.4157 22.4336 10.617C22.4336 10.8184 22.5828 10.9694 22.7818 10.9694Z" fill="white"/>
<mask id="mask11_4154_22309" style="mask-type:luminance" maskUnits="userSpaceOnUse" x="6" y="19" width="9" height="10">
<path d="M10.4968 26.5148C11.0938 24.2003 12.1883 21.7852 14.8249 19.4707C10.6958 21.433 8.05916 24.7034 6.86523 28.1248C8.15865 27.7726 9.40238 27.2192 10.4968 26.5148Z" fill="white"/>
</mask>
<g mask="url(#mask11_4154_22309)">
<path d="M6.86523 19.4229H14.8249V28.077H6.86523V19.4229Z" fill="url(#paint11_linear_4154_22309)"/>
</g>
<mask id="mask12_4154_22309" style="mask-type:luminance" maskUnits="userSpaceOnUse" x="9" y="7" width="7" height="8">
<path d="M15.021 14.34C14.6727 13.8368 14.225 13.384 13.7276 12.9311C10.8919 10.5664 9.99645 9.0569 9.44922 7.2959C12.1356 8.7047 14.225 11.2708 15.021 14.34Z" fill="white"/>
</mask>
<g mask="url(#mask12_4154_22309)">
<path d="M9.44922 7.2959H15.021V14.34H9.44922V7.2959Z" fill="url(#paint12_linear_4154_22309)"/>
</g>
<mask id="mask13_4154_22309" style="mask-type:luminance" maskUnits="userSpaceOnUse" x="2" y="6" width="14" height="13">
<path d="M15.2704 18.8161C15.0714 17.2564 14.4744 15.9482 13.1313 15.445C6.91274 12.9796 6.26604 13.8349 2.33594 6.23739C2.98266 6.13678 3.62938 6.03613 4.32587 6.03613C10.4449 6.03613 15.3699 11.0676 15.3699 17.206C15.3699 17.7595 15.3202 18.2626 15.2704 18.8161Z" fill="white"/>
</mask>
<g mask="url(#mask13_4154_22309)">
<path d="M2.33594 6.03613H15.3699V18.8161H2.33594V6.03613Z" fill="url(#paint13_linear_4154_22309)"/>
</g>
<mask id="mask14_4154_22309" style="mask-type:luminance" maskUnits="userSpaceOnUse" x="7" y="13" width="9" height="6">
<path d="M13.1316 15.3974C10.6442 14.3911 9.05231 13.9383 7.80859 13.2842C7.90811 13.3345 11.5397 14.6427 14.9226 14.0892C15.2211 15.0955 15.3703 16.1018 15.3703 17.1584C15.3703 17.7622 15.3206 18.366 15.2211 18.9697C15.2708 17.5106 14.6241 16.0012 13.1316 15.3974Z" fill="white"/>
</mask>
<g mask="url(#mask14_4154_22309)">
<path d="M7.80859 13.2842H15.3703V18.9697H7.80859V13.2842Z" fill="url(#paint14_linear_4154_22309)"/>
</g>
<mask id="mask15_4154_22309" style="mask-type:luminance" maskUnits="userSpaceOnUse" x="14" y="14" width="2" height="1">
<path d="M15.0144 14.34C14.9647 14.2897 14.915 14.189 14.8652 14.1387H14.9647L15.0144 14.34Z" fill="white"/>
</mask>
<g mask="url(#mask15_4154_22309)">
<path d="M14.8652 14.1387H15.0144V14.34H14.8652V14.1387Z" fill="url(#paint15_linear_4154_22309)"/>
</g>
<mask id="mask16_4154_22309" style="mask-type:luminance" maskUnits="userSpaceOnUse" x="9" y="7" width="6" height="8">
<path d="M14.8718 14.1387C14.5235 13.7362 14.1753 13.3337 13.7276 12.9311C10.8919 10.5664 9.99645 9.0569 9.44922 7.2959C12.0859 8.7047 14.1255 11.1701 14.9712 14.1387H14.8718Z" fill="white"/>
</mask>
<g mask="url(#mask16_4154_22309)">
<path d="M9.44922 7.2959H14.9712V14.1387H9.44922V7.2959Z" fill="url(#paint16_linear_4154_22309)"/>
</g>
<mask id="mask17_4154_22309" style="mask-type:luminance" maskUnits="userSpaceOnUse" x="9" y="19" width="6" height="8">
<path d="M14.8223 19.4199L14.7726 19.4702L14.7228 19.5206C13.2801 21.1306 12.4842 22.9923 12.2355 25.0049C11.4892 25.7596 10.6435 26.4137 9.74805 26.9168C10.2953 24.4011 11.8872 21.8854 14.8223 19.4199Z" fill="white"/>
</mask>
<g mask="url(#mask17_4154_22309)">
<path d="M9.69727 19.4199H14.8213V26.9671H9.69727V19.4199Z" fill="url(#paint17_linear_4154_22309)"/>
</g>
<mask id="mask18_4154_22309" style="mask-type:luminance" maskUnits="userSpaceOnUse" x="9" y="19" width="6" height="9">
<path d="M11.147 26.0116C11.3957 23.9487 12.4404 21.8355 14.8283 19.4707C11.545 21.7348 9.60478 24.4519 9.00781 27.3701C9.80379 26.9676 10.5002 26.5148 11.147 26.0116Z" fill="white"/>
</mask>
<g mask="url(#mask18_4154_22309)">
<path d="M9.00781 19.4229H14.8283V27.3223H9.00781V19.4229Z" fill="url(#paint18_linear_4154_22309)"/>
</g>
<mask id="mask19_4154_22309" style="mask-type:luminance" maskUnits="userSpaceOnUse" x="4" y="19" width="11" height="10">
<path d="M8.05268 27.7209C8.64967 24.702 10.2416 22.4881 14.8184 19.4189C9.49538 20.8781 6.16226 24.7523 4.57031 28.375C5.76427 28.375 6.95824 28.1234 8.05268 27.7209Z" fill="white"/>
</mask>
<g mask="url(#mask19_4154_22309)">
<path d="M4.57031 19.4189H14.8184V28.375H4.57031V19.4189Z" fill="url(#paint19_linear_4154_22309)"/>
</g>
<mask id="mask20_4154_22309" style="mask-type:luminance" maskUnits="userSpaceOnUse" x="6" y="19" width="9" height="10">
<path d="M8.05917 27.7219C8.65616 24.703 10.2481 22.4891 14.8249 19.4199C10.6958 21.3822 8.05916 24.6527 6.86523 28.0741C7.26319 27.9734 7.66118 27.8728 8.05917 27.7219Z" fill="white"/>
</mask>
<g mask="url(#mask20_4154_22309)">
<path d="M6.86523 19.4199H14.8249V28.0741H6.86523V19.4199Z" fill="url(#paint20_linear_4154_22309)"/>
</g>
</g>
<defs>
<linearGradient id="paint0_linear_4154_22309" x1="7.14084" y1="28.6035" x2="14.4371" y2="28.4056" gradientUnits="userSpaceOnUse">
<stop stop-color="#E860F9"/>
<stop offset="0.56" stop-color="#0884D1"/>
<stop offset="1" stop-color="#0CBAB1"/>
</linearGradient>
<linearGradient id="paint1_linear_4154_22309" x1="9.13161" y1="5.47485" x2="12.7998" y2="11.5906" gradientUnits="userSpaceOnUse">
<stop stop-color="#16BAEB"/>
<stop offset="1" stop-color="#0FC3E2"/>
</linearGradient>
<linearGradient id="paint2_linear_4154_22309" x1="3.92817" y1="1.06364" x2="13.9705" y2="10.3494" gradientUnits="userSpaceOnUse">
<stop stop-color="#B5D91E"/>
<stop offset="0.5" stop-color="#3BDAA9"/>
<stop offset="1" stop-color="#26A5FF"/>
</linearGradient>
<linearGradient id="paint3_linear_4154_22309" x1="26.9349" y1="10.3901" x2="15.1715" y2="26.1234" gradientUnits="userSpaceOnUse">
<stop stop-color="#E860F9"/>
<stop offset="0.56" stop-color="#0884D1"/>
<stop offset="1" stop-color="#0CBAB1"/>
</linearGradient>
<linearGradient id="paint4_linear_4154_22309" x1="20.3934" y1="23.4888" x2="31.3308" y2="10.3231" gradientUnits="userSpaceOnUse">
<stop stop-color="#E860F9"/>
<stop offset="0.56" stop-color="#0884D1"/>
<stop offset="1" stop-color="#0CBAB1"/>
</linearGradient>
<linearGradient id="paint5_linear_4154_22309" x1="18.7369" y1="13.4208" x2="15.451" y2="21.0133" gradientUnits="userSpaceOnUse">
<stop stop-color="#3512BE"/>
<stop offset="1" stop-color="#2A81EF"/>
</linearGradient>
<linearGradient id="paint6_linear_4154_22309" x1="9.80985" y1="8.80978" x2="16.9276" y2="10.5603" gradientUnits="userSpaceOnUse">
<stop stop-color="#5086FF"/>
<stop offset="1" stop-color="#7C66FF"/>
</linearGradient>
<linearGradient id="paint7_linear_4154_22309" x1="21.0089" y1="35.0642" x2="15.8565" y2="32.4619" gradientUnits="userSpaceOnUse">
<stop stop-color="#B5D91E"/>
<stop offset="0.5" stop-color="#3BDAA9"/>
<stop offset="1" stop-color="#26A5FF"/>
</linearGradient>
<linearGradient id="paint8_linear_4154_22309" x1="9.20352" y1="28.9137" x2="13.7729" y2="29.2679" gradientUnits="userSpaceOnUse">
<stop stop-color="#5086FF"/>
<stop offset="1" stop-color="#7C66FF"/>
</linearGradient>
<linearGradient id="paint9_linear_4154_22309" x1="5.96237" y1="24.3624" x2="7.7855" y2="25.7809" gradientUnits="userSpaceOnUse">
<stop stop-color="#B5D91E"/>
<stop offset="0.5" stop-color="#3BDAA9"/>
<stop offset="1" stop-color="#26A5FF"/>
</linearGradient>
<linearGradient id="paint10_linear_4154_22309" x1="4.90095" y1="22.952" x2="9.00504" y2="24.7436" gradientUnits="userSpaceOnUse">
<stop stop-color="#BCDD35"/>
<stop offset="0.5" stop-color="#4FDEB2"/>
<stop offset="1" stop-color="#3CAEFF"/>
</linearGradient>
<linearGradient id="paint11_linear_4154_22309" x1="7.01368" y1="23.8789" x2="14.31" y2="23.681" gradientUnits="userSpaceOnUse">
<stop stop-color="#F097FB"/>
<stop offset="0.56" stop-color="#5DAEE1"/>
<stop offset="1" stop-color="#60D2CC"/>
</linearGradient>
<linearGradient id="paint12_linear_4154_22309" x1="9.0992" y1="5.4966" x2="12.7674" y2="11.6124" gradientUnits="userSpaceOnUse">
<stop stop-color="#66D2F2"/>
<stop offset="1" stop-color="#62D7EC"/>
</linearGradient>
<linearGradient id="paint13_linear_4154_22309" x1="0.630776" y1="4.62724" x2="10.6731" y2="13.913" gradientUnits="userSpaceOnUse">
<stop stop-color="#CEE66B"/>
<stop offset="0.5" stop-color="#7FE7C7"/>
<stop offset="1" stop-color="#72C4FF"/>
</linearGradient>
<linearGradient id="paint14_linear_4154_22309" x1="19.7452" y1="5.01649" x2="7.98173" y2="20.7498" gradientUnits="userSpaceOnUse">
<stop stop-color="#F097FB"/>
<stop offset="0.56" stop-color="#5DAEE1"/>
<stop offset="1" stop-color="#60D2CC"/>
</linearGradient>
<linearGradient id="paint15_linear_4154_22309" x1="15.8016" y1="12.1562" x2="12.5122" y2="19.75" gradientUnits="userSpaceOnUse">
<stop stop-color="#7A63D5"/>
<stop offset="1" stop-color="#73ACF4"/>
</linearGradient>
<linearGradient id="paint16_linear_4154_22309" x1="9.50583" y1="10.0325" x2="16.6236" y2="11.783" gradientUnits="userSpaceOnUse">
<stop stop-color="#8DB0FF"/>
<stop offset="1" stop-color="#AA9AFF"/>
</linearGradient>
<linearGradient id="paint17_linear_4154_22309" x1="23.944" y1="29.2537" x2="18.7917" y2="26.6514" gradientUnits="userSpaceOnUse">
<stop stop-color="#CEE66B"/>
<stop offset="0.5" stop-color="#7FE7C7"/>
<stop offset="1" stop-color="#72C4FF"/>
</linearGradient>
<linearGradient id="paint18_linear_4154_22309" x1="9.65392" y1="23.2108" x2="14.2233" y2="23.565" gradientUnits="userSpaceOnUse">
<stop stop-color="#8DB0FF"/>
<stop offset="1" stop-color="#AA9AFF"/>
</linearGradient>
<linearGradient id="paint19_linear_4154_22309" x1="7.60043" y1="22.2571" x2="9.42355" y2="23.6756" gradientUnits="userSpaceOnUse">
<stop stop-color="#CEE66B"/>
<stop offset="0.5" stop-color="#7FE7C7"/>
<stop offset="1" stop-color="#72C4FF"/>
</linearGradient>
<linearGradient id="paint20_linear_4154_22309" x1="5.57262" y1="21.4199" x2="9.67671" y2="23.2115" gradientUnits="userSpaceOnUse">
<stop stop-color="#D3E97A"/>
<stop offset="0.5" stop-color="#8CE9CD"/>
<stop offset="1" stop-color="#80CAFF"/>
</linearGradient>
<clipPath id="clip0_4154_22309">
<rect width="123.397" height="43.7861" fill="white" transform="translate(0.746094)"/>
</clipPath>
</defs>
</svg>
