<svg width="30" height="30" viewBox="0 0 30 30" fill="none" xmlns="http://www.w3.org/2000/svg">
<path fill-rule="evenodd" clip-rule="evenodd" d="M30 15C30 23.2843 23.2843 30 15 30C6.71573 30 0 23.2843 0 15C0 6.71573 6.71573 0 15 0C23.2843 0 30 6.71573 30 15ZM18.1356 14.3909L18.1343 14.3909L18.134 14.3909H18.134H18.1339C16.8939 14.4041 15.6551 14.4173 14.5312 14.4308V7.41028C15.6701 7.23012 16.927 7.0504 18.1836 6.87072L18.1837 6.87071L18.1838 6.8707C19.5133 6.6806 20.8425 6.49054 22.0312 6.30005V14.3475C20.8282 14.3623 19.4812 14.3766 18.1356 14.3909ZM13.5938 7.58981V14.4443C12.4075 14.4581 11.3332 14.4723 10.2617 14.4864C9.21618 14.5002 8.17322 14.514 7.03125 14.5273V8.69981C8.14546 8.52138 9.16541 8.34321 10.1855 8.16503L10.1855 8.16503L10.1856 8.16501L10.1858 8.16497C11.2826 7.97339 12.3795 7.78179 13.5938 7.58981ZM14.625 15.5696C14.6244 17.1296 14.6246 18.6897 14.6248 20.2498L14.625 22.59C15.7837 22.7757 17.0603 22.9611 18.3366 23.1464L18.3367 23.1464L18.3371 23.1465H18.3372H18.3372H18.3372C19.6075 23.3309 20.8777 23.5153 22.0312 23.7001V15.6525C20.9045 15.6392 19.6665 15.6257 18.4256 15.6122L18.4226 15.6122L18.4206 15.6122L18.419 15.6121C17.1154 15.598 15.8088 15.5837 14.625 15.5696ZM10.1715 15.5125L10.1724 15.5125C11.2736 15.5269 12.3745 15.5412 13.5938 15.5558V22.41C12.3751 22.2174 11.2747 22.0252 10.174 21.833L10.1738 21.833C9.15767 21.6555 8.14123 21.478 7.03125 21.3V15.4725C8.14038 15.4859 9.15612 15.4992 10.1715 15.5125Z" fill="white"/>
</svg>
