<svg width="46" height="46" viewBox="0 0 46 46" fill="none" xmlns="http://www.w3.org/2000/svg">
<rect x="0.5" y="0.566406" width="45" height="45.038" rx="8.1746" fill="#F9F9F9"/>
<path d="M12 26.8287V31.9376C12 33.5761 13.3276 34.9097 14.9607 34.9097H26.105C27.7364 34.9097 29.0648 33.5769 29.0648 31.9376V26.8287C29.0648 25.1911 27.7372 23.8575 26.105 23.8575H25.66C25.3444 23.8575 25.0525 23.6726 24.9162 23.3846C24.5014 22.5146 23.613 21.9521 22.6539 21.9521H18.4118C17.4519 21.9521 16.5643 22.5146 16.1495 23.3854C16.0132 23.6726 15.7212 23.8575 15.4057 23.8575H14.9615C13.3293 23.8575 12 25.1903 12 26.8287ZM13.6827 26.8287C13.6827 26.1218 14.2565 25.5467 14.9607 25.5467H15.4049C16.3657 25.5467 17.2533 24.9842 17.6664 24.1143C17.8027 23.8271 18.0955 23.6413 18.411 23.6413H22.653C22.9685 23.6413 23.2613 23.8271 23.3976 24.1134C23.8107 24.9842 24.6991 25.5467 25.6591 25.5467H26.1042C26.8084 25.5467 27.3813 26.1218 27.3813 26.8287V31.9376C27.3813 32.6445 26.8084 33.2205 26.1042 33.2205H14.9598C14.2556 33.2205 13.6818 32.6445 13.6818 31.9376L13.6827 26.8287Z" fill="#5D2BFF"/>
<path d="M20.5332 32.0329C22.2849 32.0329 23.7101 30.6022 23.7101 28.8429C23.7101 27.0837 22.2849 25.6538 20.5332 25.6538C18.7815 25.6538 17.3555 27.0845 17.3555 28.8429C17.3555 30.6013 18.7807 32.0329 20.5332 32.0329ZM20.5332 27.3421C21.3569 27.3421 22.0274 28.0152 22.0274 28.8421C22.0274 29.6689 21.3569 30.3429 20.5332 30.3429C19.7095 30.3429 19.0381 29.6698 19.0381 28.8421C19.0381 28.0144 19.7087 27.3421 20.5332 27.3421Z" fill="#5D2BFF"/>
<path d="M33.9396 12.1053C33.9396 11.6383 33.5635 11.2607 33.0982 11.2607H31.4156C30.9503 11.2607 30.5742 11.6383 30.5742 12.1053C30.5742 12.5724 30.9503 12.9499 31.4156 12.9499H32.2569V13.7945C32.2569 14.2615 32.633 14.6391 33.0982 14.6391C33.5635 14.6391 33.9396 14.2615 33.9396 13.7945V12.1053Z" fill="#5D2BFF"/>
<path d="M21.8358 12.9499C22.3011 12.9499 22.6772 12.5724 22.6772 12.1053C22.6772 11.6383 22.3011 11.2607 21.8358 11.2607H18.6421C18.1769 11.2607 17.8008 11.6383 17.8008 12.1053C17.8008 12.5724 18.1769 12.9499 18.6421 12.9499H21.8358Z" fill="#5D2BFF"/>
<path d="M28.2226 12.9499C28.6878 12.9499 29.0639 12.5724 29.0639 12.1053C29.0639 11.6383 28.6878 11.2607 28.2226 11.2607H25.0288C24.5636 11.2607 24.1875 11.6383 24.1875 12.1053C24.1875 12.5724 24.5636 12.9499 25.0288 12.9499H28.2226Z" fill="#5D2BFF"/>
<path d="M13.7671 14.6391C14.2324 14.6391 14.6085 14.2615 14.6085 13.7945V12.9499H15.4498C15.9151 12.9499 16.2911 12.5724 16.2911 12.1053C16.2911 11.6383 15.9151 11.2607 15.4498 11.2607H13.7671C13.3019 11.2607 12.9258 11.6383 12.9258 12.1053V13.7945C12.9258 14.2615 13.3019 14.6391 13.7671 14.6391Z" fill="#5D2BFF"/>
<path d="M12.9258 20.2064C12.9258 20.6734 13.3019 21.0509 13.7671 21.0509C14.2324 21.0509 14.6085 20.6734 14.6085 20.2064V17.0003C14.6085 16.5333 14.2324 16.1558 13.7671 16.1558C13.3019 16.1558 12.9258 16.5333 12.9258 17.0003V20.2064Z" fill="#5D2BFF"/>
<path d="M31.4156 32.3573H33.0982C33.5635 32.3573 33.9396 31.9798 33.9396 31.5127V29.8236C33.9396 29.3565 33.5635 28.979 33.0982 28.979C32.633 28.979 32.2569 29.3565 32.2569 29.8236V30.6682H31.4156C30.9503 30.6682 30.5742 31.0457 30.5742 31.5127C30.5742 31.9798 30.9503 32.3573 31.4156 32.3573Z" fill="#5D2BFF"/>
<path d="M33.0991 22.5669C32.6339 22.5669 32.2578 22.9444 32.2578 23.4115V26.6175C32.2578 27.0845 32.6339 27.4621 33.0991 27.4621C33.5644 27.4621 33.9405 27.0845 33.9405 26.6175V23.4115C33.9405 22.9444 33.5644 22.5669 33.0991 22.5669Z" fill="#5D2BFF"/>
<path d="M33.9405 16.9999C33.9405 16.5328 33.5644 16.1553 33.0991 16.1553C32.6339 16.1553 32.2578 16.5328 32.2578 16.9999V20.2059C32.2578 20.6729 32.6339 21.0504 33.0991 21.0504C33.5644 21.0504 33.9405 20.6729 33.9405 20.2059V16.9999Z" fill="#5D2BFF"/>
</svg>
