<svg width="46" height="46" viewBox="0 0 46 46" fill="none" xmlns="http://www.w3.org/2000/svg">
<rect x="0.5" y="0.474609" width="45" height="44.9551" rx="10" fill="#F9F9F9"/>
<path d="M23.9791 25.9301C25.2133 25.9301 26.3263 25.6392 27.318 25.0573C28.3098 24.4755 29.0922 23.7085 29.6652 22.7565C28.8938 22.1429 28.0233 21.6721 27.0536 21.3442C26.0839 21.0163 25.059 20.8523 23.9791 20.8523C22.8992 20.8523 21.8744 21.0163 20.9047 21.3442C19.935 21.6721 19.0644 22.1429 18.2931 22.7565C18.8661 23.7085 19.6485 24.4755 20.6402 25.0573C21.632 25.6392 22.7449 25.9301 23.9791 25.9301ZM23.9791 19.5828C24.7064 19.5828 25.329 19.3342 25.8469 18.837C26.3649 18.3398 26.6238 17.7421 26.6238 17.0439C26.6238 16.3457 26.3649 15.748 25.8469 15.2508C25.329 14.7536 24.7064 14.505 23.9791 14.505C23.2518 14.505 22.6292 14.7536 22.1113 15.2508C21.5934 15.748 21.3344 16.3457 21.3344 17.0439C21.3344 17.7421 21.5934 18.3398 22.1113 18.837C22.6292 19.3342 23.2518 19.5828 23.9791 19.5828ZM23.9791 31.4522C26.6679 29.0825 28.6624 26.9298 29.9627 24.9939C31.263 23.0579 31.9132 21.3389 31.9132 19.8367C31.9132 17.5306 31.1473 15.6423 29.6156 14.1718C28.0839 12.7014 26.2051 11.9661 23.9791 11.9661C21.7532 11.9661 19.8744 12.7014 18.3426 14.1718C16.8109 15.6423 16.0451 17.5306 16.0451 19.8367C16.0451 21.3389 16.6952 23.0579 17.9955 24.9939C19.2958 26.9298 21.2904 29.0825 23.9791 31.4522ZM23.9791 34.8162C20.4308 31.9176 17.7806 29.2253 16.0285 26.7393C14.2764 24.2533 13.4004 21.9525 13.4004 19.8367C13.4004 16.6631 14.4638 14.1348 16.5905 12.2518C18.7173 10.3688 21.1802 9.42725 23.9791 9.42725C26.7781 9.42725 29.2409 10.3688 31.3677 12.2518C33.4945 14.1348 34.5579 16.6631 34.5579 19.8367C34.5579 21.9525 33.6818 24.2533 31.9297 26.7393C30.1776 29.2253 27.5274 31.9176 23.9791 34.8162Z" fill="#5D2BFF"/>
</svg>
