<svg width="46" height="47" viewBox="0 0 46 47" fill="none" xmlns="http://www.w3.org/2000/svg">
<rect x="0.921875" y="0.529297" width="45" height="45.846" rx="7.42932" fill="#F9F9F9"/>
<path d="M31.3352 12.9834H15.5072C14.7828 12.9862 14.0889 13.2839 13.5776 13.8113C13.0664 14.3387 12.7793 15.0527 12.7793 15.7972V30.271C12.7793 31.0154 13.0664 31.7295 13.5776 32.2569C14.0889 32.7842 14.7828 33.0819 15.5072 33.0848H31.3352C32.0596 33.0819 32.7535 32.7842 33.2647 32.2569C33.776 31.7295 34.0631 31.0154 34.0631 30.271V15.7972C34.0631 15.0527 33.776 14.3387 33.2647 13.8113C32.7535 13.2839 32.0596 12.9862 31.3352 12.9834ZM15.5072 14.5821H31.3352C31.647 14.5849 31.9451 14.7142 32.1646 14.9418C32.3841 15.1693 32.5073 15.4768 32.5073 15.7972V18.4404H14.3351V15.7972C14.3351 15.4768 14.4583 15.1693 14.6778 14.9418C14.8973 14.7142 15.1954 14.5849 15.5072 14.5821ZM31.3352 31.486H15.5072C15.1954 31.4832 14.8973 31.354 14.6778 31.1264C14.4583 30.8988 14.3351 30.5914 14.3351 30.271V20.0391H32.5073V30.271C32.5073 30.5914 32.3841 30.8988 32.1646 31.1264C31.9451 31.354 31.647 31.4832 31.3352 31.486Z" fill="#5D2BFF"/>
<path d="M26.8216 22.809C26.6757 22.6593 26.478 22.5752 26.2719 22.5752C26.0657 22.5752 25.868 22.6593 25.7221 22.809C25.6487 22.8825 25.5904 22.9703 25.5506 23.0673C25.5108 23.1643 25.4902 23.2686 25.4902 23.3739C25.4902 23.4792 25.5108 23.5834 25.5506 23.6804C25.5904 23.7774 25.6487 23.8653 25.7221 23.9387L27.4335 25.708L25.7221 27.4666C25.6487 27.5401 25.5904 27.6279 25.5506 27.7249C25.5108 27.822 25.4902 27.9262 25.4902 28.0315C25.4902 28.1368 25.5108 28.241 25.5506 28.338C25.5904 28.435 25.6487 28.5229 25.7221 28.5964C25.7928 28.6726 25.8783 28.7329 25.9729 28.7732C26.0676 28.8136 26.1694 28.8332 26.2719 28.8309C26.3741 28.8314 26.4753 28.8109 26.5697 28.7706C26.6641 28.7303 26.7498 28.6711 26.8216 28.5964L29.0827 26.2303C29.2284 26.0804 29.3102 25.8772 29.3102 25.6654C29.3102 25.4535 29.2284 25.2504 29.0827 25.1005L26.8216 22.809Z" fill="#5D2BFF"/>
<path d="M21.1174 22.809C20.9715 22.6593 20.7738 22.5752 20.5677 22.5752C20.3615 22.5752 20.1638 22.6593 20.0179 22.809L17.7568 25.1644C17.6111 25.3143 17.5293 25.5175 17.5293 25.7293C17.5293 25.9412 17.6111 26.1443 17.7568 26.2942L20.0179 28.6177C20.0898 28.6924 20.1754 28.7516 20.2698 28.7919C20.3642 28.8322 20.4655 28.8527 20.5677 28.8522C20.6701 28.8545 20.772 28.8349 20.8666 28.7945C20.9613 28.7542 21.0467 28.6939 21.1174 28.6177C21.1908 28.5442 21.2491 28.4564 21.2889 28.3593C21.3288 28.2623 21.3493 28.1581 21.3493 28.0528C21.3493 27.9475 21.3288 27.8433 21.2889 27.7463C21.2491 27.6492 21.1908 27.5614 21.1174 27.4879L19.406 25.7293L21.1174 23.9601C21.194 23.8863 21.2551 23.7971 21.2969 23.6982C21.3386 23.5992 21.3601 23.4924 21.3601 23.3845C21.3601 23.2766 21.3386 23.1699 21.2969 23.0709C21.2551 22.9719 21.194 22.8827 21.1174 22.809Z" fill="#5D2BFF"/>
<path d="M24.3901 22.2685C24.1921 22.2084 23.979 22.2306 23.7967 22.3302C23.6143 22.4299 23.4773 22.5991 23.4151 22.8014L21.9215 27.8001C21.8912 27.9009 21.8805 28.0068 21.8902 28.1119C21.8998 28.2169 21.9296 28.3189 21.9778 28.412C22.026 28.5052 22.0917 28.5876 22.1711 28.6545C22.2504 28.7214 22.3419 28.7716 22.4402 28.802C22.5159 28.8124 22.5926 28.8124 22.6683 28.802C22.8353 28.8027 22.9981 28.7481 23.1326 28.6464C23.2671 28.5447 23.3662 28.4012 23.4151 28.2371L24.9087 23.2384C24.9608 23.0392 24.9358 22.8271 24.8392 22.6463C24.7425 22.4656 24.5816 22.3302 24.3901 22.2685Z" fill="#5D2BFF"/>
<path d="M16.6529 17.399H17.4723C17.6786 17.399 17.8765 17.3148 18.0224 17.1649C18.1683 17.015 18.2502 16.8117 18.2502 16.5997C18.2502 16.3877 18.1683 16.1843 18.0224 16.0344C17.8765 15.8845 17.6786 15.8003 17.4723 15.8003H16.6529C16.4466 15.8003 16.2487 15.8845 16.1028 16.0344C15.957 16.1843 15.875 16.3877 15.875 16.5997C15.875 16.8117 15.957 17.015 16.1028 17.1649C16.2487 17.3148 16.4466 17.399 16.6529 17.399Z" fill="#5D2BFF"/>
<path d="M20.1627 17.399H20.9821C21.1884 17.399 21.3863 17.3148 21.5322 17.1649C21.678 17.015 21.76 16.8117 21.76 16.5997C21.76 16.3877 21.678 16.1843 21.5322 16.0344C21.3863 15.8845 21.1884 15.8003 20.9821 15.8003H20.1627C19.9564 15.8003 19.7585 15.8845 19.6126 16.0344C19.4667 16.1843 19.3848 16.3877 19.3848 16.5997C19.3848 16.8117 19.4667 17.015 19.6126 17.1649C19.7585 17.3148 19.9564 17.399 20.1627 17.399Z" fill="#5D2BFF"/>
<path d="M23.6749 17.399H24.4632C24.6695 17.399 24.8673 17.3148 25.0132 17.1649C25.1591 17.015 25.2411 16.8117 25.2411 16.5997C25.2411 16.3877 25.1591 16.1843 25.0132 16.0344C24.8673 15.8845 24.6695 15.8003 24.4632 15.8003H23.6334C23.4271 15.8003 23.2292 15.8845 23.0833 16.0344C22.9374 16.1843 22.8555 16.3877 22.8555 16.5997C22.8555 16.8117 22.9374 17.015 23.0833 17.1649C23.2292 17.3148 23.4271 17.399 23.6334 17.399H23.6749Z" fill="#5D2BFF"/>
</svg>
