<svg width="46" height="46" viewBox="0 0 46 46" fill="none" xmlns="http://www.w3.org/2000/svg">
<rect x="0.921875" y="0.474609" width="45" height="44.9551" rx="10" fill="#F9F9F9"/>
<path d="M24.401 25.9301C25.6352 25.9301 26.7482 25.6392 27.7399 25.0573C28.7317 24.4755 29.5141 23.7085 30.0871 22.7565C29.3157 22.1429 28.4452 21.6721 27.4754 21.3442C26.5057 21.0163 25.4809 20.8523 24.401 20.8523C23.3211 20.8523 22.2963 21.0163 21.3266 21.3442C20.3568 21.6721 19.4863 22.1429 18.7149 22.7565C19.2879 23.7085 20.0703 24.4755 21.0621 25.0573C22.0538 25.6392 23.1668 25.9301 24.401 25.9301ZM24.401 19.5828C25.1283 19.5828 25.7509 19.3342 26.2688 18.837C26.7867 18.3398 27.0457 17.7421 27.0457 17.0439C27.0457 16.3457 26.7867 15.748 26.2688 15.2508C25.7509 14.7536 25.1283 14.505 24.401 14.505C23.6737 14.505 23.0511 14.7536 22.5332 15.2508C22.0153 15.748 21.7563 16.3457 21.7563 17.0439C21.7563 17.7421 22.0153 18.3398 22.5332 18.837C23.0511 19.3342 23.6737 19.5828 24.401 19.5828ZM24.401 31.4522C27.0898 29.0825 29.0843 26.9298 30.3846 24.9939C31.6849 23.0579 32.3351 21.3389 32.3351 19.8367C32.3351 17.5306 31.5692 15.6423 30.0375 14.1718C28.5058 12.7014 26.6269 11.9661 24.401 11.9661C22.1751 11.9661 20.2962 12.7014 18.7645 14.1718C17.2328 15.6423 16.4669 17.5306 16.4669 19.8367C16.4669 21.3389 17.1171 23.0579 18.4174 24.9939C19.7177 26.9298 21.7122 29.0825 24.401 31.4522ZM24.401 34.8162C20.8527 31.9176 18.2025 29.2253 16.4504 26.7393C14.6983 24.2533 13.8223 21.9525 13.8223 19.8367C13.8223 16.6631 14.8856 14.1348 17.0124 12.2518C19.1392 10.3688 21.602 9.42725 24.401 9.42725C27.2 9.42725 29.6628 10.3688 31.7896 12.2518C33.9164 14.1348 34.9797 16.6631 34.9797 19.8367C34.9797 21.9525 34.1037 24.2533 32.3516 26.7393C30.5995 29.2253 27.9493 31.9176 24.401 34.8162Z" fill="#5D2BFF"/>
</svg>
