<svg width="33" height="39" viewBox="0 0 33 39" fill="none" xmlns="http://www.w3.org/2000/svg">
<path d="M2.53404 13.0195C1.87931 13.0195 1.3238 13.2479 0.867159 13.7045C0.410518 14.1611 0.182129 14.7091 0.182129 15.3486V25.1681C0.182129 25.8237 0.410449 26.3787 0.867159 26.8354C1.3238 27.2921 1.87931 27.5204 2.53404 27.5204C3.18829 27.5204 3.74044 27.2921 4.19 26.8354C4.63867 26.3788 4.86362 25.8237 4.86362 25.1681V15.3486C4.86362 14.709 4.6353 14.1611 4.17859 13.7045C3.72188 13.2479 3.17359 13.0195 2.53404 13.0195Z" fill="#A4C639"/>
<path d="M21.4435 4.20457L23.0649 1.21353C23.1713 1.01551 23.1334 0.863663 22.9509 0.756889C22.7528 0.664818 22.6007 0.711472 22.4943 0.893551L20.8502 3.90851C19.4036 3.26889 17.8735 2.9485 16.26 2.9485C14.6461 2.9485 13.1159 3.26896 11.6698 3.90851L10.0256 0.893551C9.91881 0.711472 9.76661 0.665231 9.56901 0.756889C9.3861 0.864144 9.34825 1.01551 9.45509 1.21353L11.0766 4.20457C9.43241 5.04303 8.12296 6.21074 7.14866 7.71025C6.17437 9.21058 5.68701 10.8501 5.68701 12.6317H26.81C26.81 10.8505 26.3226 9.21093 25.3483 7.71025C24.374 6.21074 23.0721 5.04303 21.4435 4.20457ZM12.0693 8.5551C11.8939 8.73085 11.6845 8.81832 11.4411 8.81832C11.1971 8.81832 10.992 8.73085 10.8246 8.5551C10.6572 8.38016 10.5735 8.17156 10.5735 7.9273C10.5735 7.68387 10.6572 7.47485 10.8246 7.29951C10.992 7.12457 11.1976 7.03711 11.4411 7.03711C11.6845 7.03711 11.8939 7.12457 12.0693 7.29951C12.2442 7.47527 12.3321 7.68387 12.3321 7.9273C12.3316 8.17115 12.2438 8.38016 12.0693 8.5551ZM21.6944 8.5551C21.5267 8.73085 21.3211 8.81832 21.0781 8.81832C20.8341 8.81832 20.6247 8.73085 20.4497 8.5551C20.2744 8.38016 20.187 8.17156 20.187 7.9273C20.187 7.68387 20.2744 7.47485 20.4497 7.29951C20.6247 7.12457 20.8341 7.03711 21.0781 7.03711C21.3215 7.03711 21.5267 7.12457 21.6944 7.29951C21.862 7.47527 21.9455 7.68387 21.9455 7.9273C21.9455 8.17115 21.8619 8.38016 21.6944 8.5551Z" fill="#A4C639"/>
<path d="M5.77686 28.6617C5.77686 29.3626 6.02029 29.956 6.50723 30.443C6.99459 30.9299 7.58796 31.1733 8.28845 31.1733H9.97842L10.0016 36.3577C10.0016 37.0124 10.2299 37.5683 10.6865 38.025C11.1432 38.4817 11.6915 38.71 12.3307 38.71C12.985 38.71 13.5408 38.4817 13.9976 38.025C14.4543 37.5683 14.6826 37.0124 14.6826 36.3577V31.1738H17.8339V36.3577C17.8339 37.0124 18.0621 37.5683 18.5188 38.025C18.9755 38.4817 19.5309 38.71 20.1857 38.71C20.84 38.71 21.3959 38.4817 21.8526 38.025C22.3093 37.5683 22.5375 37.0124 22.5375 36.3577V31.1738H24.2503C24.9353 31.1738 25.521 30.9303 26.0089 30.4434C26.4957 29.9564 26.7393 29.3631 26.7393 28.6622V13.4526H5.77686V28.6617Z" fill="#A4C639"/>
<path d="M29.984 13.0195C29.3443 13.0195 28.7965 13.2445 28.3397 13.6932C27.8831 14.1427 27.6548 14.6948 27.6548 15.3486V25.1681C27.6548 25.8237 27.883 26.3787 28.3397 26.8354C28.7965 27.2921 29.3448 27.5204 29.984 27.5204C30.6383 27.5204 31.1941 27.2921 31.6508 26.8354C32.1075 26.3787 32.3358 25.8237 32.3358 25.1681V15.3486C32.3358 14.6947 32.1075 14.1427 31.6508 13.6932C31.1941 13.2445 30.6383 13.0195 29.984 13.0195Z" fill="#A4C639"/>
</svg>
