<svg width="130" height="29" viewBox="0 0 130 29" fill="none" xmlns="http://www.w3.org/2000/svg">
<path d="M0 10.4291L11.9145 10.4315L19.1594 10.4327V3.3457L0 10.4291Z" fill="#FF9D28"/>
<path d="M19.1592 3.34646V28.3672L28.2079 0L19.1592 3.34646Z" fill="#68C5ED"/>
<path d="M19.1599 10.4329L11.915 10.4316L19.1599 28.3666V10.4329Z" fill="#00234B"/>
<path d="M0 10.4287L13.7724 15.0329L11.9146 10.431L0 10.4287Z" fill="#E54747"/>
<path d="M43.8908 21.778C43.7859 21.8817 43.6107 22.0111 43.3657 22.1666C43.1207 22.3222 42.8017 22.4776 42.4082 22.6332C42.0142 22.7885 41.5331 22.9222 40.9644 23.0349C40.3957 23.1469 39.7442 23.2032 39.0097 23.2032C37.5923 23.2032 36.3676 22.9785 35.3355 22.5296C34.303 22.0807 33.4501 21.454 32.7768 20.6509C32.1031 19.8476 31.609 18.8976 31.2941 17.8004C30.9792 16.7035 30.8218 15.4987 30.8218 14.1856C30.8218 12.8731 30.9923 11.6592 31.3335 10.545C31.6746 9.4307 32.1863 8.46801 32.8686 7.6557C33.551 6.84398 34.4039 6.20902 35.4274 5.75109C36.4509 5.29368 37.6535 5.06445 39.0359 5.06445C39.7179 5.06445 40.3349 5.12508 40.8857 5.2458C41.4371 5.36679 41.9182 5.50943 42.3295 5.67339C42.7403 5.83778 43.0813 6.01018 43.3531 6.19163C43.6238 6.37298 43.8294 6.52452 43.9695 6.64503C44.1269 6.78361 44.2623 6.94753 44.3766 7.13736C44.49 7.32766 44.5471 7.53498 44.5471 7.75936C44.5471 8.1051 44.4155 8.45042 44.1531 8.79584C43.8908 9.14158 43.6023 9.46114 43.287 9.75463C43.0771 9.54731 42.841 9.33605 42.5787 9.11983C42.3164 8.90393 42.0231 8.71415 41.6994 8.54971C41.3758 8.38579 41.008 8.24763 40.5972 8.13512C40.1859 8.02293 39.7268 7.96663 39.2195 7.96663C38.3273 7.96663 37.5795 8.14403 36.9758 8.49788C36.3723 8.85215 35.8867 9.31408 35.5194 9.8842C35.152 10.4543 34.8895 11.1065 34.732 11.8406C34.5746 12.575 34.4959 13.3221 34.4959 14.0821C34.4959 14.8942 34.5746 15.6715 34.732 16.4141C34.8894 17.1569 35.1605 17.8135 35.5456 18.3834C35.9301 18.9534 36.4333 19.4114 37.0545 19.7567C37.6753 20.1026 38.4495 20.275 39.3769 20.275C39.8664 20.275 40.3171 20.2147 40.7284 20.0938C41.1391 19.9729 41.5027 19.826 41.8175 19.653C42.1323 19.4807 42.4082 19.2994 42.6443 19.1091C42.8804 18.9191 43.0771 18.7552 43.2345 18.6166C43.34 18.7378 43.4617 18.8848 43.6023 19.0572C43.7429 19.2316 43.8746 19.4132 43.9958 19.6014C44.118 19.7917 44.2229 19.9816 44.3105 20.1713C44.3981 20.3617 44.4417 20.5342 44.4417 20.6894C44.4417 20.9143 44.3981 21.1042 44.3105 21.2597C44.2229 21.4152 44.0828 21.5881 43.8908 21.778ZM57.4147 19.7906C57.4147 21.1637 57.6172 22.163 58.0223 22.7886C57.7054 22.91 57.4105 22.9971 57.1377 23.0492C56.8644 23.1014 56.5785 23.1274 56.2794 23.1274C55.6462 23.1274 55.1662 23.0057 54.8409 22.7624C54.5151 22.5194 54.3084 22.1718 54.2203 21.7197C53.8331 22.1199 53.3226 22.4586 52.6889 22.7367C52.0556 23.0142 51.2808 23.1536 50.3658 23.1536C49.8905 23.1536 49.4152 23.0885 48.9404 22.9591C48.4651 22.8285 48.0333 22.6167 47.6467 22.3225C47.2589 22.0278 46.9426 21.6336 46.696 21.1398C46.4494 20.646 46.3262 20.0442 46.3262 19.334C46.3262 18.4505 46.5418 17.7313 46.973 17.1772C47.4043 16.6226 47.9457 16.1852 48.5968 15.8646C49.2478 15.5444 49.9519 15.324 50.7089 15.2024C51.4654 15.081 52.1611 15.0032 52.7948 14.9682C53.0063 14.951 53.2124 14.9421 53.415 14.9421H53.9826V14.4676C53.9826 13.7996 53.8021 13.325 53.4417 13.044C53.0808 12.7629 52.4953 12.622 51.6858 12.622C50.9287 12.622 50.2556 12.7438 49.666 12.9869C49.0763 13.2305 48.4997 13.5083 47.9368 13.8212C47.6902 13.5258 47.4919 13.2001 47.3429 12.8436C47.1934 12.4876 47.1184 12.2225 47.1184 12.0485C47.1184 11.8054 47.2548 11.5707 47.5276 11.3446C47.8004 11.119 48.1744 10.9145 48.6497 10.732C49.1251 10.5496 49.6701 10.4021 50.2866 10.2889C50.9025 10.176 51.5541 10.1194 52.2403 10.1194C53.1909 10.1194 53.9962 10.2152 54.6562 10.4062C55.3162 10.5976 55.8529 10.8929 56.2663 11.2925C56.6797 11.6925 56.9746 12.1919 57.1508 12.7914C57.3266 13.3911 57.4147 14.0909 57.4147 14.8899V19.7906ZM54.0356 16.7668H53.6657C53.5424 16.7668 53.4191 16.7759 53.2964 16.793C52.8562 16.828 52.4203 16.88 51.9895 16.9492C51.5578 17.0189 51.1753 17.1406 50.8411 17.3143C50.5064 17.4881 50.2336 17.7143 50.0227 17.9919C49.8113 18.2702 49.7058 18.6266 49.7058 19.0609C49.7058 19.5476 49.8464 19.9601 50.1282 20.299C50.4094 20.638 50.8847 20.8075 51.5536 20.8075C51.8878 20.8075 52.2046 20.7643 52.5042 20.677C52.8032 20.5904 53.0671 20.4774 53.2964 20.3383C53.5246 20.1992 53.7056 20.0473 53.8378 19.8819C53.9695 19.717 54.0356 19.565 54.0356 19.4259V16.7668ZM63.9883 11.6313C64.269 11.3013 64.7076 10.9666 65.3041 10.6276C65.9006 10.2887 66.655 10.1193 67.5679 10.1193C68.2174 10.1193 68.8354 10.2279 69.4235 10.4451C70.0111 10.6626 70.5331 11.0146 70.989 11.5009C71.4454 11.9877 71.8095 12.6308 72.0818 13.43C72.3536 14.2296 72.49 15.2117 72.49 16.3757C72.49 17.7312 72.3315 18.8481 72.0157 19.7255C71.6999 20.6035 71.2922 21.2986 70.7923 21.8111C70.2923 22.3238 69.7351 22.6845 69.1213 22.8929C68.507 23.1014 67.8926 23.2058 67.2788 23.2058C66.7699 23.2058 66.3266 23.1493 65.9499 23.0364C65.5722 22.9232 65.2522 22.7976 64.9888 22.6584C64.726 22.5195 64.524 22.3807 64.3839 22.2413C64.2433 22.1024 64.1557 22.0066 64.1205 21.9543V28.3626H60.53V10.4842C60.6181 10.4671 60.7246 10.4496 60.8495 10.4321C60.956 10.4151 61.0798 10.4019 61.222 10.393C61.3636 10.3844 61.532 10.38 61.7272 10.38C62.3121 10.38 62.809 10.4757 63.2166 10.6668C63.6242 10.8582 63.8818 11.1795 63.9883 11.6313ZM68.7404 16.4538C68.7404 15.9325 68.6969 15.4462 68.6093 14.9941C68.5222 14.5425 68.3774 14.1513 68.1765 13.8211C67.975 13.4911 67.7032 13.2345 67.3622 13.0519C67.0207 12.8695 66.6052 12.7784 66.1157 12.7784C65.3807 12.7784 64.8687 12.9176 64.5801 13.1953C64.2911 13.4736 64.1468 13.7779 64.1468 14.1078V19.6344C64.2869 19.7737 64.5355 19.9385 64.8944 20.1297C65.2537 20.321 65.6687 20.4163 66.1414 20.4163C67.0343 20.4163 67.6907 20.0691 68.1109 19.3737C68.5306 18.6787 68.7404 17.7052 68.7404 16.4538ZM75.2611 20.9378C75.1378 20.5904 75.0586 20.2252 75.0234 19.8428C74.9877 19.4607 74.9704 19.0785 74.9704 18.6956V6.59995C75.0937 6.58288 75.2254 6.56539 75.3665 6.54785C75.4893 6.53079 75.6215 6.51783 75.7626 6.50877C75.9032 6.50024 76.0438 6.49582 76.1849 6.49582C76.4661 6.49582 76.7479 6.52189 77.0296 6.57393C77.3108 6.62618 77.5663 6.73042 77.7955 6.88669C78.0243 7.04313 78.209 7.25624 78.3496 7.52539C78.4907 7.79502 78.561 8.14703 78.561 8.58115V10.4319H82.2575V13.0651H78.561V18.6241C78.561 19.8364 79.0625 20.4424 80.0661 20.4424C80.3122 20.4424 80.5451 20.4035 80.7655 20.3251C80.9853 20.2469 81.1836 20.1601 81.3599 20.0645C81.5356 19.9689 81.6899 19.8691 81.8216 19.7647C81.9538 19.6604 82.0461 19.5823 82.0986 19.5302C82.363 19.9127 82.565 20.2439 82.7061 20.5233C82.8467 20.8031 82.917 21.0657 82.917 21.311C82.917 21.5393 82.8252 21.7631 82.64 21.9823C82.4548 22.2014 82.1951 22.4035 81.8609 22.5875C81.5267 22.7716 81.1222 22.9207 80.6469 23.0348C80.1716 23.1488 79.6522 23.2059 79.0893 23.2059C77.9975 23.2059 77.1482 22.9973 76.5412 22.5803C75.9342 22.163 75.5071 21.6155 75.2611 20.9378ZM91.3509 20.5988C91.7927 20.5988 92.1809 20.5513 92.5167 20.4555C92.8524 20.3602 93.1525 20.2428 93.4174 20.1038C93.6824 19.9649 93.9122 19.8128 94.1063 19.6476C94.3004 19.4826 94.4772 19.3306 94.6367 19.1912C94.8481 19.4518 95.069 19.7866 95.2988 20.1947C95.528 20.6035 95.6429 20.9378 95.6429 21.1984C95.6429 21.5809 95.4226 21.9285 94.9829 22.2413C94.6136 22.5195 94.0895 22.7584 93.4122 22.958C92.7344 23.1578 91.938 23.2578 91.023 23.2578C90.1952 23.2578 89.3815 23.1536 88.5809 22.9451C87.7798 22.7366 87.0668 22.3715 86.4425 21.8501C85.8171 21.3289 85.3114 20.6295 84.9242 19.7517C84.537 18.8742 84.3434 17.7665 84.3434 16.4279C84.3434 15.3329 84.515 14.3905 84.8581 13.5995C85.2012 12.8089 85.6587 12.1527 86.2311 11.6314C86.8029 11.11 87.4498 10.728 88.1717 10.4842C88.893 10.2412 89.6322 10.1193 90.3893 10.1193C91.3751 10.1193 92.2108 10.2718 92.8975 10.5756C93.5838 10.8798 94.1425 11.2883 94.5737 11.8008C95.005 12.3135 95.3171 12.9 95.5112 13.5604C95.7043 14.2211 95.8014 14.916 95.8014 15.6459V16.0108C95.8014 16.1502 95.7972 16.2975 95.7882 16.4539C95.7793 16.6105 95.7704 16.7628 95.762 16.9101C95.7526 17.0581 95.7394 17.1753 95.7227 17.2621H87.934C88.0043 18.2181 88.3049 19.013 88.8343 19.6476C89.3642 20.2821 90.203 20.5988 91.3509 20.5988ZM92.5539 15.3069C92.5539 14.4727 92.3902 13.7949 92.0628 13.2736C91.7349 12.7523 91.1463 12.4915 90.2969 12.4915C89.5709 12.4915 88.9911 12.7392 88.5578 13.2345C88.1239 13.7299 87.9073 14.4206 87.9073 15.3068H92.5539V15.3069ZM102.05 11.6972C102.155 11.5421 102.296 11.3698 102.472 11.1799C102.648 10.9902 102.864 10.8178 103.119 10.6627C103.374 10.5075 103.656 10.3779 103.964 10.2745C104.272 10.1711 104.602 10.1193 104.954 10.1193C105.165 10.1193 105.389 10.1369 105.627 10.1711C105.865 10.2057 106.085 10.2704 106.287 10.3649C106.49 10.4599 106.652 10.589 106.776 10.7528C106.899 10.9165 106.96 11.1189 106.96 11.3601C106.96 11.7393 106.864 12.1748 106.67 12.6664C106.476 13.1585 106.283 13.578 106.089 13.9254C105.79 13.6822 105.491 13.4953 105.192 13.365C104.892 13.2347 104.54 13.1694 104.136 13.1694C103.59 13.1694 103.133 13.3263 102.763 13.6399C102.393 13.9535 102.208 14.3283 102.208 14.764V23.203H98.6176V10.4842C98.7057 10.4671 98.8112 10.4496 98.9344 10.4321C99.0399 10.4151 99.1632 10.4019 99.3043 10.393C99.4449 10.3844 99.6117 10.38 99.8059 10.38C100.369 10.38 100.857 10.4878 101.271 10.703C101.685 10.918 101.944 11.2496 102.05 11.6972ZM112.258 11.6972C112.364 11.5421 112.505 11.3698 112.681 11.1799C112.857 10.9902 113.072 10.8178 113.328 10.6627C113.583 10.5075 113.864 10.3779 114.172 10.2745C114.48 10.1711 114.81 10.1193 115.162 10.1193C115.374 10.1193 115.598 10.1369 115.835 10.1711C116.073 10.2057 116.293 10.2704 116.495 10.3649C116.698 10.4599 116.861 10.589 116.984 10.7528C117.107 10.9165 117.169 11.1189 117.169 11.3601C117.169 11.7393 117.072 12.1748 116.878 12.6664C116.684 13.1585 116.491 13.578 116.298 13.9254C115.999 13.6822 115.699 13.4953 115.4 13.365C115.1 13.2347 114.748 13.1694 114.344 13.1694C113.798 13.1694 113.341 13.3263 112.971 13.6399C112.602 13.9535 112.417 14.3283 112.417 14.764V23.203H108.826V10.4842C108.914 10.4671 109.019 10.4496 109.143 10.4321C109.249 10.4151 109.372 10.4019 109.513 10.393C109.653 10.3844 109.821 10.38 110.014 10.38C110.578 10.38 111.066 10.4878 111.479 10.703C111.893 10.918 112.152 11.2496 112.258 11.6972ZM129.393 19.7906C129.393 21.1637 129.595 22.163 130 22.7886C129.683 22.91 129.388 22.9971 129.116 23.0492C128.843 23.1014 128.557 23.1274 128.258 23.1274C127.624 23.1274 127.144 23.0057 126.819 22.7624C126.493 22.5194 126.286 22.1718 126.198 21.7197C125.811 22.1199 125.301 22.4586 124.667 22.7367C124.033 23.0142 123.259 23.1536 122.344 23.1536C121.869 23.1536 121.393 23.0885 120.918 22.9591C120.443 22.8285 120.011 22.6167 119.624 22.3225C119.237 22.0278 118.92 21.6336 118.674 21.1398C118.427 20.646 118.304 20.0442 118.304 19.334C118.304 18.4505 118.519 17.7313 118.951 17.1772C119.382 16.6226 119.924 16.1852 120.575 15.8646C121.226 15.5444 121.93 15.324 122.687 15.2024C123.444 15.081 124.139 15.0032 124.772 14.9682C124.984 14.951 125.191 14.9421 125.393 14.9421H125.961V14.4676C125.961 13.7996 125.78 13.325 125.419 13.044C125.058 12.7629 124.473 12.622 123.664 12.622C122.907 12.622 122.234 12.7438 121.644 12.9869C121.054 13.2305 120.478 13.5083 119.915 13.8212C119.668 13.5258 119.47 13.2001 119.321 12.8436C119.171 12.4876 119.096 12.2225 119.096 12.0485C119.096 11.8054 119.232 11.5707 119.506 11.3446C119.779 11.119 120.153 10.9145 120.628 10.732C121.103 10.5496 121.648 10.4021 122.265 10.2889C122.881 10.176 123.532 10.1194 124.218 10.1194C125.169 10.1194 125.974 10.2152 126.634 10.4062C127.294 10.5976 127.831 10.8929 128.244 11.2925C128.658 11.6925 128.953 12.1919 129.129 12.7914C129.305 13.3911 129.393 14.0909 129.393 14.8899V19.7906ZM126.013 16.7668H125.644C125.521 16.7668 125.397 16.7759 125.275 16.793C124.834 16.828 124.398 16.88 123.967 16.9492C123.536 17.0189 123.153 17.1406 122.819 17.3143C122.485 17.4881 122.212 17.7143 122 17.9919C121.789 18.2702 121.683 18.6266 121.683 19.0609C121.683 19.5476 121.825 19.9601 122.106 20.299C122.387 20.638 122.863 20.8075 123.532 20.8075C123.866 20.8075 124.183 20.7643 124.482 20.677C124.781 20.5904 125.045 20.4774 125.275 20.3383C125.503 20.1992 125.684 20.0473 125.815 19.8819C125.948 19.717 126.014 19.565 126.014 19.4259V16.7668H126.013Z" fill="#00234B"/>
</svg>
