<svg width="19" height="20" viewBox="0 0 19 20" fill="none" xmlns="http://www.w3.org/2000/svg">
<mask id="mask0_2060_41332" style="mask-type:luminance" maskUnits="userSpaceOnUse" x="0" y="1" width="19" height="18">
<path d="M9.4987 17.9173C10.5385 17.9186 11.5683 17.7144 12.529 17.3165C13.4897 16.9186 14.3622 16.3347 15.0966 15.5985C15.8328 14.8642 16.4166 13.9916 16.8145 13.031C17.2125 12.0703 17.4167 11.0405 17.4154 10.0007C17.4167 8.96084 17.2125 7.93101 16.8145 6.97035C16.4166 6.00969 15.8328 5.13712 15.0966 4.40278C14.3622 3.6666 13.4897 3.08276 12.529 2.68483C11.5683 2.2869 10.5385 2.08271 9.4987 2.08399C8.45889 2.08271 7.42906 2.2869 6.4684 2.68483C5.50774 3.08276 4.63517 3.6666 3.90083 4.40278C3.16464 5.13712 2.58081 6.00969 2.18288 6.97035C1.78495 7.93101 1.58076 8.96084 1.58204 10.0007C1.58076 11.0405 1.78495 12.0703 2.18288 13.031C2.58081 13.9916 3.16464 14.8642 3.90083 15.5985C4.63517 16.3347 5.50774 16.9186 6.4684 17.3165C7.42906 17.7144 8.45889 17.9186 9.4987 17.9173Z" fill="#555555" stroke="white" stroke-width="2" stroke-linejoin="round"/>
<path d="M6.33203 10L8.70703 12.375L13.457 7.625" stroke="white" stroke-width="2" stroke-linecap="round" stroke-linejoin="round"/>
</mask>
<g mask="url(#mask0_2060_41332)">
<path d="M0 0.5H19V19.5H0V0.5Z" fill="#5D2BFF"/>
</g>
</svg>
