<svg width="125" height="17" viewBox="0 0 125 17" fill="none" xmlns="http://www.w3.org/2000/svg">
<path d="M72.1375 14.9878C71.366 14.9878 70.7088 14.9033 70.1659 14.7342C69.623 14.5792 69.1015 14.3889 68.6014 14.1635V11.7538C68.93 11.9652 69.2729 12.1695 69.6301 12.3668C70.0016 12.55 70.3945 12.698 70.8088 12.8107C71.2374 12.9234 71.6946 12.9798 72.1804 12.9798C72.7518 12.9798 73.1733 12.8741 73.4448 12.6627C73.7305 12.4373 73.8734 12.1695 73.8734 11.8595C73.8734 11.5636 73.7662 11.3381 73.5519 11.1831C73.3376 11.014 73.059 10.8731 72.7161 10.7604C72.3732 10.6477 72.0089 10.5349 71.6232 10.4222C71.266 10.3376 70.9017 10.2249 70.5302 10.084C70.173 9.94308 69.8444 9.75284 69.5444 9.51329C69.2443 9.27373 69.0015 8.97077 68.8157 8.60439C68.6443 8.22392 68.5586 7.76594 68.5586 7.23047C68.5586 6.59635 68.6871 6.06087 68.9443 5.62404C69.2015 5.1872 69.5372 4.83491 69.9516 4.56718C70.3659 4.29944 70.8231 4.1092 71.3231 3.99647C71.8232 3.86965 72.3089 3.80624 72.7804 3.80624C73.5948 3.83442 74.252 3.93306 74.7521 4.10216C75.2521 4.25716 75.7236 4.46149 76.1665 4.71514L76.1879 6.89227C75.6879 6.62453 75.2021 6.38498 74.7306 6.17361C74.2591 5.94814 73.7234 5.83541 73.1233 5.83541C72.5661 5.83541 72.1304 5.93405 71.816 6.13133C71.516 6.31452 71.366 6.57521 71.366 6.91341C71.366 7.20933 71.4589 7.44889 71.6446 7.63207C71.8303 7.81526 72.0732 7.95618 72.3732 8.05482C72.6733 8.15346 73.0019 8.2521 73.3591 8.35074C73.7162 8.44938 74.0877 8.56211 74.4735 8.68894C74.8592 8.80167 75.2164 8.97077 75.545 9.19623C75.8736 9.42169 76.1379 9.72466 76.3379 10.1051C76.5522 10.4715 76.6594 10.9647 76.6594 11.5847C76.6451 12.402 76.4236 13.0643 75.995 13.5716C75.5664 14.0648 75.0021 14.4242 74.302 14.6496C73.6162 14.8751 72.8947 14.9878 72.1375 14.9878Z" fill="#05164D"/>
<path d="M82.5021 15.009C81.3877 15.009 80.5376 14.7412 79.9519 14.2058C79.3661 13.6562 79.0732 12.8671 79.0732 11.8384V6.13133H77.4016V4.01761H79.0732V1.07953H81.8806V4.01761H84.388V6.13133H81.8806V11.4156C81.8806 11.8525 81.9663 12.1766 82.1378 12.388C82.3092 12.5993 82.6093 12.705 83.0379 12.705C83.2665 12.705 83.5022 12.6698 83.7451 12.5993C84.0023 12.5148 84.2166 12.4161 84.388 12.3034V14.6285C84.1023 14.7694 83.788 14.8681 83.4451 14.9244C83.1165 14.9808 82.8021 15.009 82.5021 15.009Z" fill="#05164D"/>
<path d="M90.1837 14.9878C89.5836 14.9878 89.0122 14.9315 88.4692 14.8187C87.9263 14.706 87.4406 14.5228 87.0119 14.2692C86.5833 14.0014 86.2404 13.6421 85.9833 13.1912C85.7404 12.7261 85.6189 12.1484 85.6189 11.4579C85.6189 10.7392 85.769 10.1333 86.069 9.64011C86.369 9.13282 86.8048 8.75235 87.3763 8.4987C87.962 8.23096 88.6764 8.09709 89.5193 8.09709C90.0337 8.09709 90.5123 8.14641 90.9552 8.24505C91.3981 8.3296 91.7981 8.44938 92.1553 8.60439C92.5125 8.75939 92.8054 8.92849 93.034 9.11168L93.2269 10.6124C92.9268 10.4151 92.5411 10.2601 92.0696 10.1474C91.6124 10.0206 91.1124 9.95717 90.5695 9.95717C89.8122 9.95717 89.2479 10.0769 88.8764 10.3165C88.505 10.5561 88.3192 10.9295 88.3192 11.4368C88.3192 11.7891 88.4192 12.085 88.6193 12.3245C88.8193 12.55 89.0764 12.7261 89.3908 12.853C89.7051 12.9657 90.0337 13.0221 90.3766 13.0221C91.1624 13.0221 91.7267 12.9727 92.0696 12.8741C92.4268 12.7614 92.6054 12.5289 92.6054 12.1766V7.97027C92.6054 7.27979 92.3839 6.77954 91.941 6.46953C91.4981 6.14542 90.8766 5.98337 90.0765 5.98337C89.4622 5.98337 88.8336 6.08906 88.1906 6.30043C87.5477 6.49771 87.0262 6.7584 86.6262 7.08251V4.65172C87.0119 4.41217 87.5906 4.2008 88.3621 4.01761C89.1336 3.83442 89.9622 3.74282 90.8481 3.74282C91.2195 3.74282 91.6124 3.77805 92.0267 3.84851C92.4411 3.91897 92.834 4.0317 93.2054 4.18671C93.5912 4.34171 93.9412 4.56013 94.2555 4.84196C94.5699 5.1097 94.8199 5.45494 95.0056 5.87768C95.1914 6.28634 95.2842 6.78659 95.2842 7.37843V12.4302C95.2842 13.0925 95.0699 13.6139 94.6413 13.9944C94.2127 14.3608 93.6198 14.6144 92.8625 14.7553C92.1053 14.9103 91.2124 14.9878 90.1837 14.9878Z" fill="#05164D"/>
<path d="M101.679 15.009C100.565 15.009 99.7148 14.7412 99.129 14.2058C98.5433 13.6562 98.2504 12.8671 98.2504 11.8384V6.13133H96.5788V4.01761H98.2504V1.07953H101.058V4.01761H103.565V6.13133H101.058V11.4156C101.058 11.8525 101.144 12.1766 101.315 12.388C101.486 12.5993 101.786 12.705 102.215 12.705C102.444 12.705 102.679 12.6698 102.922 12.5993C103.179 12.5148 103.394 12.4161 103.565 12.3034V14.6285C103.279 14.7694 102.965 14.8681 102.622 14.9244C102.294 14.9808 101.979 15.009 101.679 15.009Z" fill="#05164D"/>
<path d="M110.261 14.9878C109.261 14.9878 108.389 14.8328 107.646 14.5228C106.918 14.1987 106.346 13.7196 105.932 13.0855C105.532 12.4514 105.332 11.6411 105.332 10.6547V4.01761H108.054V10.3799C108.054 11.169 108.232 11.7538 108.589 12.1343C108.947 12.5148 109.504 12.705 110.261 12.705C111.047 12.705 111.611 12.5148 111.954 12.1343C112.311 11.7538 112.49 11.169 112.49 10.3799V4.01761H115.061V10.6547C115.061 12.1202 114.633 13.2123 113.776 13.931C112.933 14.6355 111.761 14.9878 110.261 14.9878Z" fill="#05164D"/>
<path d="M120.478 14.9878C119.707 14.9878 119.049 14.9033 118.506 14.7342C117.964 14.5792 117.442 14.3889 116.942 14.1635V11.7538C117.271 11.9652 117.613 12.1695 117.971 12.3668C118.342 12.55 118.735 12.698 119.149 12.8107C119.578 12.9234 120.035 12.9798 120.521 12.9798C121.092 12.9798 121.514 12.8741 121.785 12.6627C122.071 12.4373 122.214 12.1695 122.214 11.8595C122.214 11.5636 122.107 11.3381 121.893 11.1831C121.678 11.014 121.4 10.8731 121.057 10.7604C120.714 10.6477 120.349 10.5349 119.964 10.4222C119.607 10.3376 119.242 10.2249 118.871 10.084C118.514 9.94308 118.185 9.75284 117.885 9.51329C117.585 9.27373 117.342 8.97077 117.156 8.60439C116.985 8.22392 116.899 7.76594 116.899 7.23047C116.899 6.59635 117.028 6.06087 117.285 5.62404C117.542 5.1872 117.878 4.83491 118.292 4.56718C118.706 4.29944 119.164 4.1092 119.664 3.99647C120.164 3.86965 120.65 3.80624 121.121 3.80624C121.935 3.83442 122.593 3.93306 123.093 4.10216C123.593 4.25716 124.064 4.46149 124.507 4.71514L124.528 6.89227C124.028 6.62453 123.543 6.38498 123.071 6.17361C122.6 5.94814 122.064 5.83541 121.464 5.83541C120.907 5.83541 120.471 5.93405 120.157 6.13133C119.857 6.31452 119.707 6.57521 119.707 6.91341C119.707 7.20933 119.799 7.44889 119.985 7.63207C120.171 7.81526 120.414 7.95618 120.714 8.05482C121.014 8.15346 121.342 8.2521 121.7 8.35074C122.057 8.44938 122.428 8.56211 122.814 8.68894C123.2 8.80167 123.557 8.97077 123.886 9.19623C124.214 9.42169 124.478 9.72466 124.678 10.1051C124.893 10.4715 125 10.9647 125 11.5847C124.986 12.402 124.764 13.0643 124.336 13.5716C123.907 14.0648 123.343 14.4242 122.643 14.6496C121.957 14.8751 121.235 14.9878 120.478 14.9878Z" fill="#05164D"/>
<path d="M24.2711 14.6694L20.6707 4.01625H23.5853L26.157 12.8728L25.3212 12.9573L27.7858 4.01625H29.886L32.3076 12.7037H31.6433L34.1721 4.01625H37.001L33.4006 14.6694H30.9147L28.5573 7.06001L29.0287 7.18684L26.7785 14.6694H24.2711Z" fill="#5D2BFF"/>
<path d="M42.4462 14.9865C40.6746 14.9865 39.3459 14.5003 38.4601 13.528C37.5743 12.5557 37.1314 11.1536 37.1314 9.3217C37.1314 7.36298 37.5815 5.93974 38.4815 5.05198C39.3959 4.16421 40.7103 3.72033 42.4248 3.72033C43.6249 3.72033 44.625 3.9317 45.4251 4.35445C46.2252 4.7631 46.8181 5.38313 47.2039 6.21452C47.6039 7.04592 47.8039 8.08165 47.8039 9.3217C47.8039 11.1536 47.3396 12.5557 46.4109 13.528C45.4965 14.5003 44.175 14.9865 42.4462 14.9865ZM42.4462 12.7882C43.0749 12.7882 43.5821 12.6473 43.9678 12.3655C44.3679 12.0836 44.6607 11.6891 44.8465 11.1818C45.0322 10.6604 45.1251 10.0404 45.1251 9.3217C45.1251 8.51848 45.0251 7.86323 44.8251 7.35594C44.6393 6.84864 44.3464 6.47522 43.9464 6.23566C43.5606 5.99611 43.0606 5.87633 42.4462 5.87633C41.8176 5.87633 41.3104 6.00315 40.9247 6.2568C40.5389 6.51045 40.2532 6.89092 40.0674 7.39821C39.896 7.9055 39.8103 8.54667 39.8103 9.3217C39.8103 10.449 40.0174 11.3086 40.4317 11.9004C40.8461 12.4923 41.5176 12.7882 42.4462 12.7882Z" fill="#5D2BFF"/>
<path d="M49.4752 14.6694V5.05198C49.6752 4.92515 50.0252 4.75606 50.5253 4.54468C51.0396 4.33331 51.6325 4.15012 52.304 3.99512C52.9755 3.82602 53.6542 3.74147 54.34 3.74147C54.8543 3.74147 55.2615 3.78374 55.5615 3.86829C55.8758 3.93875 56.1187 4.03034 56.2902 4.14308V6.17225C56.0044 6.12998 55.6758 6.09475 55.3044 6.06656C54.9472 6.03838 54.5757 6.03134 54.19 6.04543C53.8185 6.04543 53.4542 6.05952 53.097 6.0877C52.7541 6.11588 52.4541 6.15111 52.1969 6.19339V14.6694H49.4752Z" fill="#5D2BFF"/>
<path d="M59.6995 8.64531L63.8785 4.01625H67.2003L61.0925 10.0615L59.6995 8.64531ZM60.2781 14.6694H57.5779V0.000179291H60.2996L60.2781 14.6694ZM61.6497 7.60958L67.6074 14.6694H64.1571L59.7209 9.40625L61.6497 7.60958Z" fill="#5D2BFF"/>
<path fill-rule="evenodd" clip-rule="evenodd" d="M1.94942 7.83706C1.77638 9.26161 2.11173 10.7011 2.89786 11.9083C3.684 13.1154 4.87182 14.0148 6.25723 14.4519C7.64264 14.889 9.13913 14.8366 10.4896 14.3035C11.84 13.7705 12.9601 12.7901 13.6573 11.531C14.3545 10.2718 14.5854 8.8124 14.3102 7.40356C14.035 5.99472 13.271 4.72441 12.1494 3.81088C11.275 3.09868 10.2258 2.63801 9.11659 2.46955L9.11659 3.60559C9.11659 4.12447 8.69015 4.5451 8.16411 4.5451C7.63807 4.5451 7.21163 4.12447 7.21163 3.60559L7.21163 1.59237C7.21163 1.00394 7.69846 0.508555 8.31815 0.520083C10.1607 0.55436 11.939 1.2027 13.3623 2.36198C14.8253 3.55354 15.8219 5.21048 16.1808 7.04809C16.5397 8.8857 16.2386 10.7892 15.3291 12.4316C14.4197 14.074 12.9588 15.3527 11.1973 16.048C9.43588 16.7433 7.48393 16.8118 5.67687 16.2416C3.86981 15.6715 2.32048 14.4984 1.29509 12.9238C0.269706 11.3493 -0.167715 9.47164 0.0579936 7.61352C0.283702 5.75541 1.15845 4.03284 2.53192 2.74181C2.91274 2.38385 3.51564 2.39818 3.87854 2.77381C4.24144 3.14944 4.22691 3.74412 3.8461 4.10208C2.7931 5.09187 2.12246 6.41251 1.94942 7.83706Z" fill="#05164D"/>
<path fill-rule="evenodd" clip-rule="evenodd" d="M4.77021 5.08552C5.14218 4.71862 5.74525 4.71862 6.11722 5.08552L9.11072 8.03825C9.48269 8.40515 9.48269 9.00001 9.11072 9.36691C8.73876 9.73381 8.13568 9.73381 7.76371 9.36691L4.77021 6.41418C4.39825 6.04728 4.39825 5.45242 4.77021 5.08552Z" fill="#5D2BFF"/>
</svg>
