<svg width="46" height="45" viewBox="0 0 46 45" fill="none" xmlns="http://www.w3.org/2000/svg">
<g clip-path="url(#clip0_128_14436)">
<path d="M0.935547 19.0237C0.935547 15.2318 4.56436 12.158 9.04072 12.158H37.5988C42.0751 12.158 45.7039 15.2318 45.7039 19.0237V28.9414C45.7039 32.7332 42.0751 35.807 37.5988 35.807H9.04072C4.56435 35.807 0.935547 32.7332 0.935547 28.9414V19.0237Z" fill="#F0EEFF"/>
<path d="M26.2132 4.83089C25.9825 5.02695 25.8344 5.32067 25.8037 5.64295L24.7658 15.9026L22.7435 15.5524C22.566 15.5192 22.3857 15.5075 22.2058 15.5175C21.7852 15.5475 21.3862 15.7375 21.0748 16.0556C20.7635 16.3738 20.5581 16.8013 20.4929 17.2677L20.3271 18.4123L31.2832 20.3934L31.5021 18.8708C31.7177 17.3831 29.9392 16.9002 29.9392 16.9002L27.776 16.4837L29.8703 6.39909C29.9355 6.07923 29.8797 5.74353 29.7163 5.47101C29.553 5.19877 29.2966 5.01394 29.0075 4.96047L27.0351 4.61034C26.7458 4.55418 26.4484 4.63402 26.2131 4.83081L26.2132 4.83089ZM27.2102 5.92641L28.423 6.14689L28.4232 6.14713C28.4893 6.15812 28.5486 6.19865 28.5878 6.25896C28.6273 6.31951 28.6432 6.3952 28.6325 6.46894L28.5669 6.92747C28.5562 7.00194 28.5196 7.06835 28.4649 7.1123C28.4104 7.15625 28.3425 7.17432 28.2763 7.16211L27.0635 6.94164H27.0633C26.9979 6.92967 26.9392 6.8889 26.9006 6.82859C26.8618 6.76804 26.8463 6.69283 26.857 6.61958L26.9196 6.16447C26.9301 6.09049 26.9658 6.02383 27.0197 5.97891C27.0742 5.93618 27.1409 5.91738 27.2072 5.92641L27.2102 5.92641Z" fill="#5D2BFF"/>
<path d="M30.2477 22.3417L20.0168 20.3933C19.6874 24.5377 15.353 25.4211 15.353 25.4211C16.0467 26.3903 17.3702 27.1394 18.9674 27.6584C19.979 27.2803 21.1914 25.7785 21.6256 24.9985V24.9982C21.4219 26.1012 20.9791 27.1231 20.3402 27.964C21.5067 28.2274 22.6949 28.3336 23.8817 28.2802C25.2488 27.6239 26.4234 25.6546 26.4234 25.6546C26.3563 26.4312 25.9978 27.8094 25.6481 28.1668C26.5459 28.1057 27.4277 27.8605 28.2538 27.4417C30.2447 26.531 30.3555 23.8402 30.2476 22.3418L30.2477 22.3417Z" fill="#5D2BFF"/>
<path d="M30.7669 30.5932C30.7669 31.1361 30.3786 31.5761 29.8996 31.5761C29.4208 31.5761 29.0322 31.1361 29.0322 30.5932C29.0322 30.0506 29.4208 29.6104 29.8996 29.6104C30.3786 29.6104 30.7669 30.0506 30.7669 30.5932Z" fill="#5D2BFF"/>
<path d="M35.7554 20.3934C35.2915 20.3934 34.8467 20.6021 34.5186 20.9739C34.1906 21.3456 34.0063 21.8497 34.0063 22.3753C34.0063 22.9008 34.1906 23.4048 34.5186 23.7766C34.8467 24.1483 35.2915 24.3571 35.7554 24.3571C36.2191 24.3571 36.6639 24.1483 36.9919 23.7766C37.3199 23.4048 37.5042 22.9007 37.5042 22.3753C37.5032 21.8499 37.3187 21.3464 36.9909 20.9749C36.6631 20.6035 36.2188 20.3944 35.7553 20.3933L35.7554 20.3934Z" fill="#5D2BFF"/>
<path d="M12.2136 23.4543C12.2136 24.4175 11.5243 25.1983 10.6743 25.1983C9.82429 25.1983 9.13525 24.4175 9.13525 23.4543C9.13525 22.4908 9.82429 21.71 10.6743 21.71C11.5243 21.71 12.2136 22.4908 12.2136 23.4543Z" fill="#5D2BFF"/>
<path d="M18.2602 29.2364C18.2602 29.757 17.8878 30.179 17.4283 30.179C16.9689 30.179 16.5967 29.757 16.5967 29.2364C16.5967 28.7157 16.9689 28.2937 17.4283 28.2937C17.8878 28.2937 18.2602 28.7157 18.2602 29.2364Z" fill="#5D2BFF"/>
</g>
<defs>
<clipPath id="clip0_128_14436">
<rect width="44.7684" height="44.7684" fill="white" transform="translate(0.935547 0.206055)"/>
</clipPath>
</defs>
</svg>
