<svg width="29" height="29" viewBox="0 0 29 29" fill="none" xmlns="http://www.w3.org/2000/svg">
<g clip-path="url(#clip0_84_8613)">
<mask id="mask0_84_8613" style="mask-type:luminance" maskUnits="userSpaceOnUse" x="0" y="0" width="29" height="29">
<path d="M29 0H0V29H29V0Z" fill="white"/>
</mask>
<g mask="url(#mask0_84_8613)">
<path d="M8.45833 13.29H10.875V15.7067H8.45833V13.29ZM25.375 7.24837V24.165C25.375 25.4942 24.2875 26.5817 22.9583 26.5817H6.04167C4.70042 26.5817 3.625 25.4942 3.625 24.165L3.63708 7.24837C3.63708 5.9192 4.70042 4.8317 6.04167 4.8317H7.25V2.41504H9.66667V4.8317H19.3333V2.41504H21.75V4.8317H22.9583C24.2875 4.8317 25.375 5.9192 25.375 7.24837ZM6.04167 9.66504H22.9583V7.24837H6.04167V9.66504ZM22.9583 24.165V12.0817H6.04167V24.165H22.9583ZM18.125 15.7067H20.5417V13.29H18.125V15.7067ZM13.2917 15.7067H15.7083V13.29H13.2917V15.7067Z" fill="#5D2BFF"/>
</g>
</g>
<defs>
<clipPath id="clip0_84_8613">
<rect width="29" height="29" fill="white"/>
</clipPath>
</defs>
</svg>
