<svg width="26" height="26" viewBox="0 0 26 26" fill="none" xmlns="http://www.w3.org/2000/svg">
<path d="M6.23817 19.9454H9.01595V13.001H6.23817V19.9454ZM17.3493 19.9454H20.1271V6.05653H17.3493V19.9454ZM11.7937 19.9454H14.5715V15.7788H11.7937V19.9454ZM11.7937 13.001H14.5715V10.2232H11.7937V13.001ZM3.46039 25.501C2.69651 25.501 2.04234 25.2292 1.49789 24.6857C0.954381 24.1413 0.682617 23.4871 0.682617 22.7232V3.27875C0.682617 2.51487 0.954381 1.8607 1.49789 1.31625C2.04234 0.77274 2.69651 0.500977 3.46039 0.500977H22.9048C23.6687 0.500977 24.3229 0.77274 24.8673 1.31625C25.4108 1.8607 25.6826 2.51487 25.6826 3.27875V22.7232C25.6826 23.4871 25.4108 24.1413 24.8673 24.6857C24.3229 25.2292 23.6687 25.501 22.9048 25.501H3.46039ZM3.46039 22.7232H22.9048V3.27875H3.46039V22.7232Z" fill="#5D2BFF" fill-opacity="0.6"/>
</svg>
