<svg width="254" height="34" viewBox="0 0 254 34" fill="none" xmlns="http://www.w3.org/2000/svg">
<path fill-rule="evenodd" clip-rule="evenodd" d="M3.85496 15.719C3.51277 18.536 4.17593 21.3827 5.7305 23.7698C7.28506 26.1569 9.63397 27.9355 12.3736 28.7998C15.1132 29.6642 18.0725 29.5604 20.743 28.5063C23.4135 27.4522 25.6284 25.5136 27.0072 23.0236C28.3859 20.5336 28.8425 17.6477 28.2983 14.8617C27.7542 12.0758 26.2433 9.56372 24.0253 7.75724C22.2962 6.34887 20.2214 5.4379 18.028 5.10477L18.028 7.35129C18.028 8.37735 17.1847 9.20914 16.1444 9.20914C15.1042 9.20914 14.2609 8.37735 14.2609 7.35129L14.2609 3.37016C14.2609 2.20655 15.2236 1.22693 16.4491 1.24972C20.0926 1.3175 23.6092 2.59959 26.4239 4.89205C29.3169 7.24835 31.2875 10.5249 31.9973 14.1588C32.7071 17.7926 32.1116 21.5569 30.3132 24.8047C28.5148 28.0525 25.6258 30.5811 22.1426 31.956C18.6593 33.331 14.7994 33.4663 11.226 32.3389C7.65252 31.2115 4.58873 28.8916 2.56104 25.778C0.53334 22.6643 -0.331654 18.9513 0.114682 15.2769C0.561017 11.6025 2.29081 8.19617 5.00684 5.64316C5.7599 4.93531 6.95213 4.96364 7.66976 5.70644C8.38739 6.44924 8.35868 7.62523 7.60562 8.33309C5.52333 10.2904 4.19715 12.9019 3.85496 15.719Z" fill="white"/>
<path fill-rule="evenodd" clip-rule="evenodd" d="M9.43364 10.283C10.1692 9.55743 11.3618 9.55743 12.0973 10.283L18.017 16.122C18.7525 16.8475 18.7525 18.0238 18.017 18.7494C17.2814 19.4749 16.0888 19.4749 15.3533 18.7494L9.43364 12.9104C8.69808 12.1848 8.69808 11.0085 9.43364 10.283Z" fill="white"/>
<path d="M144.437 32.6103C142.845 32.6103 141.489 32.4359 140.369 32.087C139.249 31.7672 138.173 31.3747 137.141 30.9095V25.9381C137.819 26.3742 138.527 26.7957 139.264 27.2027C140.03 27.5807 140.841 27.886 141.696 28.1185C142.58 28.3511 143.523 28.4674 144.525 28.4674C145.704 28.4674 146.574 28.2494 147.134 27.8133C147.723 27.3481 148.018 26.7957 148.018 26.1561C148.018 25.5456 147.797 25.0804 147.355 24.7606C146.913 24.4117 146.338 24.121 145.631 23.8884C144.923 23.6559 144.172 23.4233 143.376 23.1907C142.639 23.0163 141.887 22.7837 141.121 22.4929C140.384 22.2022 139.706 21.8097 139.087 21.3155C138.468 20.8213 137.967 20.1962 137.584 19.4403C137.23 18.6553 137.053 17.7105 137.053 16.6057C137.053 15.2974 137.318 14.1926 137.849 13.2914C138.379 12.3901 139.072 11.6633 139.927 11.1109C140.782 10.5585 141.725 10.1661 142.757 9.93348C143.788 9.67182 144.791 9.54099 145.763 9.54099C147.443 9.59914 148.799 9.80265 149.831 10.1515C150.863 10.4713 151.835 10.8929 152.749 11.4162L152.793 15.9079C151.762 15.3556 150.76 14.8613 149.787 14.4252C148.814 13.9601 147.709 13.7275 146.471 13.7275C145.321 13.7275 144.422 13.931 143.774 14.338C143.155 14.716 142.845 15.2538 142.845 15.9516C142.845 16.5621 143.037 17.0563 143.42 17.4343C143.803 17.8122 144.304 18.1029 144.923 18.3065C145.542 18.51 146.22 18.7135 146.957 18.917C147.694 19.1205 148.46 19.3531 149.256 19.6147C150.052 19.8473 150.789 20.1962 151.467 20.6614C152.145 21.1265 152.69 21.7516 153.103 22.5366C153.545 23.2924 153.766 24.31 153.766 25.5892C153.737 27.2754 153.28 28.6418 152.396 29.6885C151.511 30.706 150.347 31.4474 148.903 31.9125C147.488 32.3777 145.999 32.6103 144.437 32.6103Z" fill="white"/>
<path d="M165.821 32.6539C163.521 32.6539 161.768 32.1015 160.559 30.9967C159.351 29.8629 158.746 28.2348 158.746 26.1125V14.338H155.297V9.97708H158.746V3.9154H164.538V9.97708H169.712V14.338H164.538V25.2403C164.538 26.1416 164.715 26.8103 165.069 27.2463C165.423 27.6824 166.042 27.9005 166.926 27.9005C167.398 27.9005 167.884 27.8278 168.385 27.6824C168.916 27.508 169.358 27.3045 169.712 27.0719V31.8689C169.122 32.1597 168.473 32.3632 167.766 32.4795C167.088 32.5958 166.44 32.6539 165.821 32.6539Z" fill="white"/>
<path d="M181.669 32.6103C180.431 32.6103 179.252 32.494 178.132 32.2614C177.012 32.0288 176.009 31.6509 175.125 31.1276C174.241 30.5752 173.533 29.8338 173.003 28.9035C172.502 27.9441 172.251 26.7521 172.251 25.3275C172.251 23.8448 172.561 22.5947 173.18 21.5771C173.799 20.5305 174.698 19.7456 175.877 19.2222C177.085 18.6699 178.559 18.3937 180.298 18.3937C181.359 18.3937 182.347 18.4954 183.261 18.6989C184.174 18.8734 185 19.1205 185.737 19.4403C186.474 19.7601 187.078 20.109 187.549 20.4869L187.947 23.5832C187.328 23.1762 186.532 22.8564 185.56 22.6238C184.617 22.3621 183.585 22.2313 182.465 22.2313C180.902 22.2313 179.738 22.4784 178.972 22.9726C178.205 23.4669 177.822 24.2373 177.822 25.2839C177.822 26.0108 178.029 26.6213 178.441 27.1155C178.854 27.5807 179.384 27.9441 180.033 28.2058C180.681 28.4383 181.359 28.5546 182.067 28.5546C183.688 28.5546 184.852 28.4529 185.56 28.2494C186.297 28.0168 186.665 27.5371 186.665 26.8103V18.132C186.665 16.7074 186.208 15.6754 185.294 15.0358C184.381 14.3671 183.098 14.0327 181.448 14.0327C180.18 14.0327 178.883 14.2508 177.557 14.6869C176.23 15.0939 175.155 15.6318 174.329 16.3004V11.2854C175.125 10.7911 176.319 10.355 177.911 9.97708C179.502 9.59914 181.212 9.41016 183.04 9.41016C183.806 9.41016 184.617 9.48285 185.471 9.62821C186.326 9.77357 187.137 10.0062 187.903 10.326C188.699 10.6458 189.421 11.0964 190.07 11.6778C190.718 12.2302 191.234 12.9425 191.617 13.8147C192 14.6578 192.192 15.6899 192.192 16.911V27.3336C192.192 28.7 191.75 29.7757 190.866 30.5607C189.981 31.3165 188.758 31.8399 187.196 32.1306C185.633 32.4504 183.791 32.6103 181.669 32.6103Z" fill="white"/>
<path d="M205.386 32.6539C203.087 32.6539 201.333 32.1015 200.124 30.9967C198.916 29.8629 198.312 28.2348 198.312 26.1125V14.338H194.863V9.97708H198.312V3.9154H204.104V9.97708H209.277V14.338H204.104V25.2403C204.104 26.1416 204.281 26.8103 204.634 27.2463C204.988 27.6824 205.607 27.9005 206.491 27.9005C206.963 27.9005 207.449 27.8278 207.95 27.6824C208.481 27.508 208.923 27.3045 209.277 27.0719V31.8689C208.687 32.1597 208.039 32.3632 207.331 32.4795C206.653 32.5958 206.005 32.6539 205.386 32.6539Z" fill="white"/>
<path d="M223.091 32.6103C221.028 32.6103 219.23 32.2905 217.697 31.6509C216.194 30.9822 215.015 29.9937 214.16 28.6855C213.335 27.3772 212.922 25.7055 212.922 23.6704V9.97708H218.537V23.1035C218.537 24.7316 218.906 25.9381 219.642 26.723C220.379 27.508 221.529 27.9005 223.091 27.9005C224.712 27.9005 225.877 27.508 226.584 26.723C227.321 25.9381 227.69 24.7316 227.69 23.1035V9.97708H232.995V23.6704C232.995 26.694 232.111 28.9471 230.342 30.4298C228.603 31.8835 226.186 32.6103 223.091 32.6103Z" fill="white"/>
<path d="M244.171 32.6103C242.579 32.6103 241.223 32.4359 240.103 32.087C238.983 31.7672 237.907 31.3747 236.875 30.9095V25.9381C237.553 26.3742 238.261 26.7957 238.998 27.2027C239.764 27.5807 240.575 27.886 241.429 28.1185C242.314 28.3511 243.257 28.4674 244.259 28.4674C245.438 28.4674 246.308 28.2494 246.868 27.8133C247.457 27.3481 247.752 26.7957 247.752 26.1561C247.752 25.5456 247.531 25.0804 247.089 24.7606C246.647 24.4117 246.072 24.121 245.364 23.8884C244.657 23.6559 243.905 23.4233 243.11 23.1907C242.373 23.0163 241.621 22.7837 240.855 22.4929C240.118 22.2022 239.44 21.8097 238.821 21.3155C238.202 20.8213 237.701 20.1962 237.317 19.4403C236.964 18.6553 236.787 17.7105 236.787 16.6057C236.787 15.2974 237.052 14.1926 237.583 13.2914C238.113 12.3901 238.806 11.6633 239.661 11.1109C240.516 10.5585 241.459 10.1661 242.49 9.93348C243.522 9.67182 244.524 9.54099 245.497 9.54099C247.177 9.59914 248.533 9.80265 249.565 10.1515C250.597 10.4713 251.569 10.8929 252.483 11.4162L252.527 15.9079C251.496 15.3556 250.493 14.8613 249.521 14.4252C248.548 13.9601 247.443 13.7275 246.205 13.7275C245.055 13.7275 244.156 13.931 243.507 14.338C242.888 14.716 242.579 15.2538 242.579 15.9516C242.579 16.5621 242.771 17.0563 243.154 17.4343C243.537 17.8122 244.038 18.1029 244.657 18.3065C245.276 18.51 245.954 18.7135 246.691 18.917C247.428 19.1205 248.194 19.3531 248.99 19.6147C249.786 19.8473 250.523 20.1962 251.201 20.6614C251.879 21.1265 252.424 21.7516 252.837 22.5366C253.279 23.2924 253.5 24.31 253.5 25.5892C253.471 27.2754 253.014 28.6418 252.129 29.6885C251.245 30.706 250.081 31.4474 248.636 31.9125C247.221 32.3777 245.733 32.6103 244.171 32.6103Z" fill="white"/>
<path d="M45.6813 31.9562L38.2532 9.9771H44.2664L49.5722 28.2494L47.8478 28.4238L52.9325 9.9771H57.2656L62.2619 27.9005H60.8912L66.1086 9.9771H71.9449L64.5168 31.9562H59.3879L54.5243 16.2568L55.497 16.5185L50.8544 31.9562H45.6813Z" fill="white"/>
<path d="M83.1793 32.6103C79.5242 32.6103 76.7829 31.6073 74.9553 29.6013C73.1278 27.5952 72.214 24.7025 72.214 20.923C72.214 16.8819 73.1425 13.9455 74.9995 12.1139C76.886 10.2824 79.5979 9.36657 83.1351 9.36657C85.6111 9.36657 87.6745 9.80266 89.3252 10.6748C90.9758 11.518 92.1991 12.7972 92.995 14.5125C93.8203 16.2278 94.233 18.3646 94.233 20.923C94.233 24.7025 93.275 27.5952 91.359 29.6013C89.4725 31.6073 86.746 32.6103 83.1793 32.6103ZM83.1793 28.0749C84.4763 28.0749 85.5227 27.7842 86.3185 27.2028C87.1439 26.6213 87.7482 25.8073 88.1314 24.7606C88.5145 23.6849 88.7061 22.4057 88.7061 20.923C88.7061 19.2659 88.4998 17.914 88.0871 16.8674C87.7039 15.8207 87.0997 15.0503 86.2743 14.5561C85.4785 14.0618 84.4468 13.8147 83.1793 13.8147C81.8823 13.8147 80.8359 14.0764 80.04 14.5997C79.2442 15.123 78.6546 15.908 78.2714 16.9546C77.9177 18.0012 77.7409 19.324 77.7409 20.923C77.7409 23.2488 78.1683 25.0223 79.0231 26.2433C79.8779 27.4644 81.2633 28.0749 83.1793 28.0749Z" fill="white"/>
<path d="M97.6811 31.9562V12.1139C98.0937 11.8523 98.8159 11.5034 99.8476 11.0673C100.909 10.6312 102.132 10.2533 103.517 9.93349C104.903 9.58461 106.303 9.41017 107.718 9.41017C108.779 9.41017 109.619 9.49739 110.238 9.67183C110.887 9.81719 111.388 10.0062 111.741 10.2388V14.4252C111.152 14.338 110.474 14.2653 109.708 14.2072C108.971 14.149 108.204 14.1345 107.408 14.1636C106.642 14.1636 105.89 14.1927 105.153 14.2508C104.446 14.3089 103.827 14.3816 103.296 14.4688V31.9562H97.6811Z" fill="white"/>
<path d="M118.775 19.5275L127.397 9.9771H134.251L121.649 22.4493L118.775 19.5275ZM119.969 31.9562H114.398V1.69134H120.013L119.969 31.9562ZM122.799 17.3907L135.091 31.9562H127.972L118.82 21.0975L122.799 17.3907Z" fill="white"/>
</svg>
