<svg width="92" height="30" viewBox="0 0 92 30" fill="none" xmlns="http://www.w3.org/2000/svg">
<mask id="mask0_1162_50340" style="mask-type:alpha" maskUnits="userSpaceOnUse" x="0" y="0" width="92" height="30">
<rect x="0.046875" width="91.843" height="29.9849" fill="#D9D9D9"/>
</mask>
<g mask="url(#mask0_1162_50340)">
<path d="M26.0411 11.9141H34.5444V13.5398H31.2009V22.6792H29.3623V13.5398H26.0337V11.9141H26.0411ZM34.1811 14.8845H35.7528V16.3888H35.7824C35.8343 16.176 35.9307 15.9709 36.0716 15.7734C36.2124 15.5759 36.3829 15.3859 36.5831 15.2264C36.7832 15.0593 37.0057 14.9301 37.2503 14.8238C37.4949 14.725 37.747 14.6718 37.9991 14.6718C38.1918 14.6718 38.3327 14.6794 38.4068 14.687C38.4809 14.6946 38.5551 14.7098 38.6366 14.7174V16.3736C38.518 16.3508 38.3994 16.3356 38.2734 16.3204C38.1473 16.3052 38.0287 16.2976 37.9101 16.2976C37.6284 16.2976 37.3615 16.3584 37.1094 16.4723C36.8574 16.5863 36.6424 16.761 36.4571 16.9813C36.2717 17.2092 36.1235 17.4827 36.0122 17.817C35.901 18.1513 35.8492 18.5311 35.8492 18.9642V22.6716H34.1737V14.8845H34.1811ZM46.3392 22.6792H44.6934V21.5928H44.6638C44.4562 21.9878 44.1523 22.2993 43.7445 22.5348C43.3368 22.7703 42.9216 22.8919 42.4991 22.8919C41.4982 22.8919 40.7717 22.6412 40.3269 22.1322C39.8821 21.6232 39.6597 20.8559 39.6597 19.8302V14.8845H41.3351V19.6631C41.3351 20.3469 41.4612 20.8331 41.7206 21.1142C41.9727 21.3953 42.336 21.5396 42.7956 21.5396C43.1514 21.5396 43.4406 21.4864 43.6778 21.3725C43.915 21.2585 44.1078 21.1142 44.2486 20.9242C44.3969 20.7419 44.5007 20.514 44.5674 20.2557C44.6341 19.9974 44.6638 19.7163 44.6638 19.4124V14.8921H46.3392V22.6792ZM49.1934 20.1797C49.2453 20.6811 49.4307 21.0306 49.7494 21.2357C50.0756 21.4332 50.4611 21.5396 50.9134 21.5396C51.069 21.5396 51.247 21.5244 51.4471 21.5016C51.6473 21.4788 51.84 21.4256 52.0106 21.3573C52.1885 21.2889 52.3293 21.1825 52.448 21.0458C52.5592 20.909 52.611 20.7343 52.6036 20.514C52.5962 20.2937 52.5147 20.1113 52.3664 19.9746C52.2181 19.8302 52.0328 19.7239 51.803 19.6327C51.5732 19.5492 51.3137 19.4732 51.0171 19.4124C50.7206 19.3516 50.4241 19.2833 50.1201 19.2149C49.8088 19.1465 49.5048 19.0553 49.2157 18.9566C48.9265 18.8578 48.6671 18.7211 48.4373 18.5463C48.2074 18.3792 48.0221 18.1589 47.8887 17.893C47.7478 17.6271 47.6811 17.3004 47.6811 16.9054C47.6811 16.4799 47.7849 16.1305 47.985 15.8418C48.1852 15.5531 48.4447 15.3252 48.7486 15.1504C49.06 14.9757 49.401 14.8541 49.7791 14.7782C50.1572 14.7098 50.5204 14.6718 50.8615 14.6718C51.2544 14.6718 51.6325 14.7174 51.9883 14.801C52.3442 14.8845 52.6704 15.0213 52.9595 15.2188C53.2486 15.4087 53.4858 15.6594 53.6786 15.9633C53.8713 16.2672 53.99 16.6395 54.0419 17.0725H52.2923C52.2107 16.6623 52.0328 16.3812 51.7437 16.2444C51.4545 16.1001 51.1209 16.0317 50.7503 16.0317C50.6316 16.0317 50.4908 16.0393 50.3277 16.0621C50.1646 16.0849 50.0163 16.1229 49.8681 16.176C49.7272 16.2292 49.6086 16.3128 49.5048 16.4191C49.4084 16.5255 49.3565 16.6623 49.3565 16.837C49.3565 17.0497 49.4307 17.2168 49.5715 17.346C49.7124 17.4751 49.8977 17.5815 50.1275 17.6727C50.3573 17.7562 50.6168 17.8322 50.9134 17.893C51.2099 17.9538 51.5139 18.0221 51.8252 18.0905C52.1292 18.1589 52.4257 18.2501 52.7222 18.3488C53.0188 18.4476 53.2783 18.5843 53.5081 18.7591C53.7379 18.9338 53.9232 19.1465 54.0641 19.4048C54.205 19.6631 54.2791 19.9898 54.2791 20.3696C54.2791 20.8331 54.1753 21.2205 53.9677 21.5472C53.7601 21.8663 53.4933 22.1322 53.1671 22.3297C52.8409 22.5272 52.4702 22.6792 52.0699 22.7703C51.6695 22.8615 51.2692 22.9071 50.8763 22.9071C50.3944 22.9071 49.9496 22.8539 49.5419 22.7399C49.1341 22.626 48.7783 22.4588 48.4817 22.2385C48.1852 22.0106 47.948 21.7295 47.7775 21.3953C47.6069 21.061 47.518 20.6583 47.5032 20.1949H49.1934V20.1797ZM54.7239 14.8845H55.9916V12.5446H57.667V14.8845H59.1794V16.1684H57.667V20.3317C57.667 20.514 57.6745 20.6659 57.6893 20.8027C57.7041 20.9318 57.7412 21.0458 57.7931 21.137C57.845 21.2281 57.9265 21.2965 58.0377 21.3421C58.1489 21.3877 58.2898 21.4104 58.4825 21.4104C58.6012 21.4104 58.7198 21.4104 58.8384 21.4028C58.957 21.3953 59.0756 21.3801 59.1942 21.3497V22.6792C59.0089 22.702 58.8236 22.7171 58.653 22.7399C58.4751 22.7627 58.2972 22.7703 58.1119 22.7703C57.667 22.7703 57.3112 22.7247 57.0443 22.6412C56.7774 22.5576 56.5624 22.4285 56.4142 22.2613C56.2585 22.0942 56.1621 21.8891 56.1028 21.6384C56.0509 21.3877 56.0138 21.099 56.0064 20.7799V16.1836H54.7387V14.8845H54.7239ZM60.3656 14.8845H61.952V15.9405H61.9817C62.2189 15.4847 62.5451 15.1656 62.9677 14.9681C63.3903 14.7706 63.8425 14.6718 64.3392 14.6718C64.9397 14.6718 65.4586 14.7782 65.9034 14.9985C66.3483 15.2112 66.7189 15.5075 67.0155 15.8873C67.312 16.2672 67.527 16.7078 67.6753 17.2092C67.8235 17.7107 67.8977 18.25 67.8977 18.8198C67.8977 19.344 67.8309 19.853 67.6975 20.3393C67.5641 20.8331 67.3639 21.2661 67.097 21.646C66.8301 22.0258 66.4891 22.3221 66.0739 22.55C65.6588 22.7779 65.1769 22.8919 64.6135 22.8919C64.3688 22.8919 64.1242 22.8691 63.8796 22.8235C63.6349 22.7779 63.3977 22.702 63.1753 22.6032C62.9529 22.5044 62.7379 22.3753 62.5525 22.2157C62.3598 22.0562 62.2041 21.8739 62.0707 21.6687H62.041V25.5585H60.3656V14.8845ZM66.2222 18.7894C66.2222 18.44 66.1777 18.0981 66.0888 17.7638C65.9998 17.4296 65.8664 17.1409 65.6884 16.8826C65.5105 16.6243 65.2881 16.4191 65.0286 16.2672C64.7618 16.1153 64.4578 16.0317 64.1168 16.0317C63.4125 16.0317 62.8787 16.2824 62.5229 16.7838C62.167 17.2852 61.9891 17.9538 61.9891 18.7894C61.9891 19.1845 62.0336 19.5492 62.13 19.8834C62.2263 20.2177 62.3598 20.5064 62.5525 20.7495C62.7379 20.9926 62.9603 21.1825 63.2198 21.3193C63.4792 21.4636 63.7832 21.532 64.1242 21.532C64.5097 21.532 64.8285 21.4484 65.0954 21.2889C65.3623 21.1294 65.5772 20.9166 65.7477 20.6659C65.9183 20.4076 66.0443 20.1189 66.1184 19.7923C66.1851 19.4656 66.2222 19.1313 66.2222 18.7894ZM69.1802 11.9141H70.8556V13.5398H69.1802V11.9141ZM69.1802 14.8845H70.8556V22.6792H69.1802V14.8845ZM72.3532 11.9141H74.0286V22.6792H72.3532V11.9141ZM79.1662 22.8919C78.5583 22.8919 78.0171 22.7855 77.5426 22.5804C77.0682 22.3753 76.6678 22.0866 76.3342 21.7295C76.008 21.3649 75.756 20.9318 75.5855 20.4304C75.4149 19.929 75.326 19.3744 75.326 18.7742C75.326 18.1817 75.4149 17.6347 75.5855 17.1333C75.756 16.6319 76.008 16.1988 76.3342 15.8342C76.6604 15.4695 77.0682 15.1884 77.5426 14.9833C78.0171 14.7782 78.5583 14.6718 79.1662 14.6718C79.7741 14.6718 80.3153 14.7782 80.7897 14.9833C81.2642 15.1884 81.6645 15.4771 81.9981 15.8342C82.3243 16.1988 82.5764 16.6319 82.7469 17.1333C82.9174 17.6347 83.0064 18.1817 83.0064 18.7742C83.0064 19.3744 82.9174 19.929 82.7469 20.4304C82.5764 20.9318 82.3243 21.3649 81.9981 21.7295C81.6719 22.0942 81.2642 22.3753 80.7897 22.5804C80.3153 22.7855 79.7741 22.8919 79.1662 22.8919ZM79.1662 21.532C79.5368 21.532 79.863 21.4484 80.1373 21.2889C80.4116 21.1294 80.634 20.9166 80.812 20.6583C80.9899 20.4 81.1159 20.1037 81.2049 19.7771C81.2864 19.4504 81.3309 19.1161 81.3309 18.7742C81.3309 18.44 81.2864 18.1133 81.2049 17.779C81.1233 17.4448 80.9899 17.1561 80.812 16.8978C80.634 16.6395 80.4116 16.4343 80.1373 16.2748C79.863 16.1153 79.5368 16.0317 79.1662 16.0317C78.7955 16.0317 78.4693 16.1153 78.195 16.2748C77.9207 16.4343 77.6983 16.6471 77.5204 16.8978C77.3425 17.1561 77.2164 17.4448 77.1275 17.779C77.0459 18.1133 77.0014 18.44 77.0014 18.7742C77.0014 19.1161 77.0459 19.4504 77.1275 19.7771C77.209 20.1037 77.3425 20.4 77.5204 20.6583C77.6983 20.9166 77.9207 21.1294 78.195 21.2889C78.4693 21.456 78.7955 21.532 79.1662 21.532ZM83.4956 14.8845H84.7634V12.5446H86.4388V14.8845H87.9512V16.1684H86.4388V20.3317C86.4388 20.514 86.4462 20.6659 86.461 20.8027C86.4759 20.9318 86.5129 21.0458 86.5648 21.137C86.6167 21.2281 86.6983 21.2965 86.8095 21.3421C86.9207 21.3877 87.0615 21.4104 87.2543 21.4104C87.3729 21.4104 87.4915 21.4104 87.6101 21.4028C87.7287 21.3953 87.8474 21.3801 87.966 21.3497V22.6792C87.7806 22.702 87.5953 22.7171 87.4248 22.7399C87.2469 22.7627 87.069 22.7703 86.8836 22.7703C86.4388 22.7703 86.083 22.7247 85.8161 22.6412C85.5492 22.5576 85.3342 22.4285 85.1859 22.2613C85.0302 22.0942 84.9339 21.8891 84.8746 21.6384C84.8227 21.3877 84.7856 21.099 84.7782 20.7799V16.1836H83.5105V14.8845H83.4956Z" fill="#BDB3F9"/>
<path d="M24.084 11.9165H16.4036L14.0313 4.42578L11.6516 11.9165L3.97119 11.9089L10.1911 16.5432L7.81138 24.0263L14.0313 19.3997L20.2438 24.0263L17.8715 16.5432L24.084 11.9165Z" fill="#BDB3F9"/>
<path d="M18.4042 18.2371L17.8705 16.543L14.0303 19.3995L18.4042 18.2371Z" fill="#005128"/>
</g>
</svg>
