<svg width="26" height="22" viewBox="0 0 26 22" fill="none" xmlns="http://www.w3.org/2000/svg">
<path d="M3.08547 21.6996H22.8247C24.3611 21.6996 25.611 20.4498 25.611 18.9136V18.2981C25.611 17.9387 25.3198 17.6479 24.9608 17.6479H0.949454C0.590406 17.6479 0.299219 17.9387 0.299219 18.2981V18.9136C0.299219 20.4498 1.54907 21.6996 3.08547 21.6996ZM24.3101 18.9483C24.2916 19.7513 23.6323 20.3991 22.8247 20.3991H3.08547C2.27787 20.3991 1.61861 19.7513 1.60009 18.9483H24.3101Z" fill="#624DE3" stroke="#624DE3" stroke-width="0.3"/>
<path d="M2.14867 18.9485H23.7839C24.1429 18.9485 24.4341 18.6576 24.4341 18.2983V2.00738C24.4341 1.28656 23.8479 0.700098 23.1268 0.700098H2.80572C2.08462 0.700098 1.49844 1.28656 1.49844 2.00738V18.2983C1.49844 18.6576 1.78962 18.9485 2.14867 18.9485ZM23.1336 2.00738V17.648H2.79891V2.00738C2.79891 2.00376 2.8021 2.00057 2.80572 2.00057H23.1268C23.1304 2.00057 23.1336 2.00376 23.1336 2.00738Z" fill="#624DE3" stroke="#624DE3" stroke-width="0.3"/>
<path d="M15.7076 11.6616L15.7076 11.6616C15.495 11.4469 15.4966 11.1004 15.7113 10.8878L18.2742 8.34986L18.2745 8.34965C18.4885 8.13853 18.8349 8.13851 19.0477 8.35363C19.0477 8.35365 19.0477 8.35367 19.0478 8.35369L18.9411 8.45916C19.0954 8.61499 19.0942 8.86657 18.9384 9.02086L15.7076 11.6616ZM15.7076 11.6616C15.8145 11.7696 15.9558 11.8235 16.0962 11.8235C16.2351 11.8235 16.3744 11.7706 16.4809 11.6655L16.481 11.6654L19.0439 9.12745M15.7076 11.6616L19.0439 9.12745M19.0439 9.12745C19.0439 9.12745 19.0439 9.12745 19.0439 9.12744L19.0439 9.12745Z" fill="#624DE3" stroke="#624DE3" stroke-width="0.3"/>
<path d="M6.8882 11.6046L6.88834 11.6047C6.99532 11.713 7.13677 11.7676 7.27784 11.7676C7.41614 11.7676 7.55527 11.7152 7.66185 11.61C7.66186 11.61 7.66187 11.61 7.66188 11.61C7.66191 11.61 7.66193 11.61 7.66196 11.6099L10.6126 8.70192L10.6127 8.70187C10.8276 8.48987 10.8303 8.14376 10.6182 7.9285L10.6181 7.9283C10.4062 7.71402 10.0599 7.71031 9.84459 7.92306C9.84453 7.92312 9.84448 7.92318 9.84442 7.92323L6.89384 10.8312L6.89379 10.8312C6.67885 11.0432 6.67615 11.3893 6.8882 11.6046Z" fill="#624DE3" stroke="#624DE3" stroke-width="0.3"/>
<path d="M14.2304 11.6677L14.2304 11.6677C14.3368 11.7723 14.4756 11.8247 14.6138 11.8247C14.755 11.8247 14.8968 11.7703 15.0039 11.6611C15.2155 11.4459 15.2126 11.0994 14.9973 10.8878C14.9973 10.8878 14.9973 10.8878 14.9973 10.8878L11.9679 7.9095L11.9679 7.90948C11.7525 7.69785 11.4058 7.69992 11.1943 7.91609C10.9827 8.13137 10.9856 8.47783 11.2009 8.6894C11.2009 8.68941 11.2009 8.68942 11.2009 8.68942L14.2304 11.6677Z" fill="#624DE3" stroke="#624DE3" stroke-width="0.3"/>
<path d="M17.8148 8.03633C17.8148 8.88944 18.5086 9.58302 19.3615 9.58302C20.2144 9.58302 20.9082 8.88944 20.9082 8.03633C20.9082 7.18323 20.2144 6.48965 19.3615 6.48965C18.5086 6.48965 17.8148 7.18323 17.8148 8.03633ZM18.9087 8.03633C18.9087 7.78693 19.112 7.58355 19.3615 7.58355C19.6111 7.58355 19.8143 7.78693 19.8143 8.03633C19.8143 8.28574 19.6111 8.48912 19.3615 8.48912C19.112 8.48912 18.9087 8.28574 18.9087 8.03633Z" fill="#624DE3" stroke="#624DE3" stroke-width="0.3"/>
<path d="M13.8949 11.9958C13.8949 12.7977 14.5472 13.4503 15.3493 13.4503C16.1515 13.4503 16.8038 12.7977 16.8038 11.9958C16.8038 11.1939 16.1515 10.5414 15.3493 10.5414C14.5472 10.5414 13.8949 11.1939 13.8949 11.9958ZM14.9888 11.9958C14.9888 11.7972 15.1508 11.6353 15.3493 11.6353C15.5479 11.6353 15.7099 11.7972 15.7099 11.9958C15.7099 12.1944 15.5479 12.3564 15.3493 12.3564C15.1508 12.3564 14.9888 12.1944 14.9888 11.9958Z" fill="#624DE3" stroke="#624DE3" stroke-width="0.3"/>
<path d="M9.9027 8.75023L9.90277 8.7503C10.1694 9.0008 10.509 9.13791 10.8662 9.13791C10.8949 9.13791 10.9235 9.13704 10.9522 9.13531L10.9523 9.13531C11.3788 9.10929 11.7826 8.91461 12.0608 8.59953L12.061 8.59936C12.3088 8.31776 12.4361 7.96526 12.4128 7.60593L12.4128 7.60584C12.3588 6.78176 11.7214 6.14687 10.919 6.14687C10.0946 6.14687 9.42422 6.81721 9.42422 7.64162C9.42422 8.06003 9.5984 8.464 9.9027 8.75023ZM11.2404 7.87563L11.2401 7.87588C11.1559 7.97159 11.0281 8.03419 10.888 8.04335C10.8009 8.0452 10.7192 8.01626 10.6521 7.95333C10.5672 7.87324 10.5181 7.75971 10.5181 7.64162C10.5181 7.42058 10.698 7.24077 10.919 7.24077C11.1501 7.24077 11.3056 7.4387 11.3211 7.6773L11.3211 7.67733C11.3248 7.73411 11.3024 7.80552 11.2404 7.87563Z" fill="#624DE3" stroke="#624DE3" stroke-width="0.3"/>
<path d="M5.11562 11.9188C5.11562 12.723 5.76966 13.3771 6.57373 13.3771C7.37781 13.3771 8.03184 12.723 8.03184 11.9188C8.03184 11.1149 7.37778 10.4608 6.57373 10.4608C5.76969 10.4608 5.11562 11.1149 5.11562 11.9188ZM6.20952 11.9188C6.20952 11.7183 6.37298 11.5547 6.57373 11.5547C6.77449 11.5547 6.93795 11.7183 6.93795 11.9188C6.93795 12.1197 6.77442 12.2832 6.57373 12.2832C6.37305 12.2832 6.20952 12.1197 6.20952 11.9188Z" fill="#624DE3" stroke="#624DE3" stroke-width="0.3"/>
</svg>
