<svg width="12" height="12" viewBox="0 0 12 12" fill="none" xmlns="http://www.w3.org/2000/svg">
<path opacity="0.5" fill-rule="evenodd" clip-rule="evenodd" d="M6 12C9.31371 12 12 9.31371 12 6C12 2.68629 9.31371 0 6 0C2.68629 0 0 2.68629 0 6C0 9.31371 2.68629 12 6 12ZM6 10.9091C8.71122 10.9091 10.9091 8.71122 10.9091 6C10.9091 3.28878 8.71122 1.09091 6 1.09091C3.28878 1.09091 1.09091 3.28878 1.09091 6C1.09091 8.71122 3.28878 10.9091 6 10.9091ZM6.95455 3.41091C6.95455 3.63689 6.8769 3.82978 6.72089 3.98838C6.56523 4.14778 6.37757 4.22727 6.15826 4.22727C5.93822 4.22727 5.75018 4.14778 5.59269 3.98838C5.43557 3.82978 5.35683 3.63689 5.35683 3.41091C5.35683 3.18533 5.43557 2.99203 5.59269 2.83142C5.74982 2.67081 5.93822 2.59091 6.15826 2.59091C6.37757 2.59091 6.56523 2.67121 6.72089 2.83142C6.8769 2.99203 6.95455 3.18533 6.95455 3.41091ZM6.87647 8.79087C6.64224 8.90343 6.45492 8.98902 6.31548 9.04804C6.17604 9.10705 6.01378 9.13636 5.82903 9.13636C5.54532 9.13636 5.32459 9.05194 5.16715 8.88389C5.00971 8.71544 4.931 8.50166 4.931 8.24254C4.931 8.1421 4.93678 8.03892 4.94867 7.93378C4.96056 7.82865 4.97951 7.70984 5.00554 7.57735L5.29856 6.31654C5.32459 6.19577 5.34676 6.08126 5.36443 5.973C5.38242 5.86552 5.3911 5.76664 5.3911 5.67753C5.3911 5.51651 5.36379 5.40395 5.30917 5.34064C5.25455 5.27732 5.15044 5.24528 4.9959 5.24528C4.92007 5.24528 4.84232 5.26013 4.76296 5.28866C4.68327 5.31719 4.63636 4.98186 4.63636 4.98186C4.82818 4.88689 5.01164 4.80559 5.18707 4.73798C5.3625 4.67037 5.52829 4.63636 5.68509 4.63636C5.96687 4.63636 6.18439 4.71922 6.33701 4.88493C6.48962 5.05064 6.56609 5.2656 6.56609 5.53058C6.56609 5.5853 6.56095 5.68183 6.55035 5.81979C6.53975 5.95815 6.52015 6.08477 6.49155 6.20007L6.19981 7.45619C6.17604 7.55703 6.15451 7.67232 6.13587 7.80208C6.11659 7.93105 6.10728 8.02954 6.10728 8.09559C6.10728 8.26247 6.1378 8.3762 6.19917 8.43678C6.26086 8.49736 6.36721 8.52745 6.51822 8.52745C6.58923 8.52745 6.66987 8.51221 6.75952 8.48212C6.84916 8.45202 6.87647 8.79087 6.87647 8.79087Z" fill="#617798"/>
</svg>
