<svg width="14" height="14" viewBox="0 0 14 14" fill="none" xmlns="http://www.w3.org/2000/svg">
<path d="M11.0502 7.74698L1.0755 7.85276C0.85103 7.85482 0.66083 7.77931 0.504899 7.62622C0.349346 7.47351 0.270538 7.28491 0.268473 7.06044C0.266408 6.83597 0.34192 6.64578 0.495008 6.48984C0.647726 6.33429 0.836318 6.25548 1.06079 6.25342L11.0358 6.1757L6.73161 1.95002C6.57115 1.79248 6.48975 1.60616 6.48739 1.39105C6.48579 1.17593 6.56375 0.988136 6.72129 0.827674C6.87883 0.667213 7.06515 0.585806 7.28026 0.583454C7.49538 0.581849 7.68317 0.659815 7.84363 0.817351L13.507 6.37745C13.6674 6.53499 13.7487 6.72113 13.7506 6.93587C13.7526 7.15136 13.6748 7.33934 13.5173 7.4998L7.95719 13.1631C7.79966 13.3236 7.61333 13.4046 7.39821 13.4062C7.1831 13.4086 6.99531 13.331 6.83485 13.1735C6.67439 13.0159 6.59335 12.8296 6.59175 12.6145C6.5894 12.3994 6.66699 12.2116 6.82452 12.0511L11.0502 7.74698Z" fill="white"/>
</svg>
