<svg width="31" height="36" viewBox="0 0 31 36" fill="none" xmlns="http://www.w3.org/2000/svg">
<rect width="31" height="36" rx="14" fill="#7E6AF4"/>
<path d="M18.4127 15.6984L11.369 22.7619C11.2103 22.9206 11.0217 23 10.8032 23C10.5852 23 10.3968 22.9206 10.2381 22.7619C10.0794 22.6032 10 22.4145 10 22.196C10 21.978 10.0794 21.7897 10.2381 21.631L17.3016 14.5873H11.2698C11.045 14.5873 10.8563 14.5114 10.704 14.3595C10.5521 14.2071 10.4762 14.0185 10.4762 13.7937C10.4762 13.5688 10.5521 13.3802 10.704 13.2278C10.8563 13.0759 11.045 13 11.2698 13H19.2063C19.4312 13 19.6196 13.0759 19.7714 13.2278C19.9238 13.3802 20 13.5688 20 13.7937V21.7302C20 21.955 19.9238 22.1434 19.7714 22.2952C19.6196 22.4476 19.4312 22.5238 19.2063 22.5238C18.9815 22.5238 18.7931 22.4476 18.6413 22.2952C18.4889 22.1434 18.4127 21.955 18.4127 21.7302V15.6984Z" fill="white"/>
</svg>
