<svg width="200" height="40" viewBox="0 0 200 40" fill="none" xmlns="http://www.w3.org/2000/svg">
<path d="M115.362 26.0022C114.173 26.0022 113.16 25.8733 112.323 25.6155C111.486 25.3791 110.683 25.0891 109.912 24.7453V21.0715C110.418 21.3937 110.947 21.7053 111.497 22.0061C112.07 22.2854 112.676 22.5109 113.314 22.6828C113.975 22.8547 114.68 22.9406 115.428 22.9406C116.309 22.9406 116.959 22.7795 117.377 22.4572C117.818 22.1135 118.038 21.7053 118.038 21.2326C118.038 20.7814 117.873 20.4377 117.543 20.2013C117.212 19.9435 116.783 19.7287 116.254 19.5568C115.726 19.3849 115.164 19.2131 114.57 19.0412C114.019 18.9123 113.457 18.7404 112.885 18.5255C112.334 18.3107 111.828 18.0207 111.365 17.6554C110.903 17.2902 110.528 16.8283 110.242 16.2697C109.978 15.6896 109.846 14.9913 109.846 14.1749C109.846 13.2081 110.044 12.3917 110.44 11.7257C110.837 11.0596 111.354 10.5225 111.993 10.1143C112.632 9.70611 113.336 9.41607 114.107 9.24419C114.878 9.05083 115.627 8.95415 116.353 8.95415C117.609 8.99712 118.622 9.14751 119.392 9.40533C120.163 9.64166 120.89 9.95318 121.573 10.3399L121.606 13.6593C120.835 13.2511 120.086 12.8858 119.359 12.5636C118.633 12.2198 117.807 12.0479 116.882 12.0479C116.023 12.0479 115.351 12.1983 114.867 12.4991C114.404 12.7784 114.173 13.1759 114.173 13.6915C114.173 14.1427 114.316 14.5079 114.603 14.7872C114.889 15.0665 115.263 15.2814 115.726 15.4318C116.188 15.5822 116.695 15.7325 117.245 15.8829C117.796 16.0333 118.368 16.2052 118.963 16.3986C119.558 16.5704 120.108 16.8283 120.615 17.172C121.121 17.5158 121.529 17.9777 121.837 18.5578C122.167 19.1164 122.332 19.8683 122.332 20.8137C122.31 22.0598 121.969 23.0695 121.308 23.843C120.648 24.5949 119.778 25.1428 118.699 25.4866C117.642 25.8303 116.53 26.0022 115.362 26.0022Z" fill="#05164D"/>
<path d="M131.339 26.0344C129.621 26.0344 128.31 25.6262 127.408 24.8098C126.505 23.9719 126.053 22.7688 126.053 21.2004V12.4991H123.477V9.27642H126.053V4.79688H130.381V9.27642H134.246V12.4991H130.381V20.5558C130.381 21.2219 130.513 21.716 130.777 22.0383C131.041 22.3605 131.504 22.5217 132.164 22.5217C132.517 22.5217 132.88 22.468 133.255 22.3605C133.651 22.2316 133.981 22.0812 134.246 21.9094V25.4543C133.805 25.6692 133.321 25.8196 132.792 25.9055C132.286 25.9914 131.801 26.0344 131.339 26.0344Z" fill="#05164D"/>
<path d="M143.179 26.0022C142.254 26.0022 141.373 25.9163 140.536 25.7444C139.7 25.5725 138.951 25.2932 138.29 24.9065C137.629 24.4983 137.101 23.9504 136.705 23.2629C136.33 22.5539 136.143 21.673 136.143 20.6203C136.143 19.5246 136.374 18.6007 136.837 17.8488C137.299 17.0753 137.971 16.4952 138.852 16.1085C139.755 15.7003 140.856 15.4962 142.155 15.4962C142.948 15.4962 143.686 15.5714 144.368 15.7218C145.051 15.8507 145.668 16.0333 146.218 16.2697C146.769 16.506 147.22 16.7638 147.573 17.0431L147.87 19.3312C147.407 19.0304 146.813 18.7941 146.086 18.6222C145.381 18.4289 144.611 18.3322 143.774 18.3322C142.607 18.3322 141.737 18.5148 141.164 18.88C140.592 19.2453 140.305 19.8146 140.305 20.5881C140.305 21.1252 140.459 21.5764 140.768 21.9416C141.076 22.2854 141.472 22.5539 141.957 22.7473C142.441 22.9191 142.948 23.0051 143.476 23.0051C144.688 23.0051 145.558 22.9299 146.086 22.7795C146.637 22.6076 146.912 22.2531 146.912 21.716V15.3029C146.912 14.2501 146.571 13.4874 145.888 13.0147C145.205 12.5206 144.247 12.2735 143.014 12.2735C142.067 12.2735 141.098 12.4347 140.107 12.7569C139.116 13.0577 138.312 13.4552 137.696 13.9493V10.2432C138.29 9.87799 139.182 9.55572 140.371 9.27642C141.561 8.99712 142.838 8.85747 144.203 8.85747C144.776 8.85747 145.381 8.91118 146.02 9.0186C146.659 9.12602 147.264 9.2979 147.837 9.53423C148.432 9.77056 148.971 10.1036 149.456 10.5333C149.94 10.9415 150.325 11.4678 150.612 12.1124C150.898 12.7354 151.041 13.4981 151.041 14.4005V22.1027C151.041 23.1125 150.711 23.9074 150.05 24.4875C149.39 25.0461 148.476 25.4328 147.308 25.6477C146.141 25.884 144.765 26.0022 143.179 26.0022Z" fill="#05164D"/>
<path d="M160.899 26.0344C159.181 26.0344 157.871 25.6262 156.968 24.8098C156.065 23.9719 155.613 22.7688 155.613 21.2004V12.4991H153.037V9.27642H155.613V4.79688H159.941V9.27642H163.806V12.4991H159.941V20.5558C159.941 21.2219 160.073 21.716 160.337 22.0383C160.601 22.3605 161.064 22.5217 161.725 22.5217C162.077 22.5217 162.44 22.468 162.815 22.3605C163.211 22.2316 163.541 22.0812 163.806 21.9094V25.4543C163.365 25.6692 162.881 25.8196 162.352 25.9055C161.846 25.9914 161.361 26.0344 160.899 26.0344Z" fill="#05164D"/>
<path d="M174.127 26.0022C172.585 26.0022 171.242 25.7659 170.097 25.2932C168.973 24.7991 168.093 24.0686 167.454 23.1018C166.837 22.135 166.529 20.8996 166.529 19.3957V9.27642H170.724V18.9767C170.724 20.1799 171 21.0715 171.55 21.6516C172.101 22.2316 172.96 22.5217 174.127 22.5217C175.338 22.5217 176.208 22.2316 176.736 21.6516C177.287 21.0715 177.562 20.1799 177.562 18.9767V9.27642H181.526V19.3957C181.526 21.6301 180.866 23.2951 179.544 24.3908C178.245 25.4651 176.439 26.0022 174.127 26.0022Z" fill="#05164D"/>
<path d="M189.876 26.0022C188.686 26.0022 187.673 25.8733 186.836 25.6155C186 25.3791 185.196 25.0891 184.425 24.7453V21.0715C184.932 21.3937 185.46 21.7053 186.011 22.0061C186.583 22.2854 187.189 22.5109 187.827 22.6828C188.488 22.8547 189.193 22.9406 189.942 22.9406C190.823 22.9406 191.472 22.7795 191.891 22.4572C192.331 22.1135 192.551 21.7053 192.551 21.2326C192.551 20.7814 192.386 20.4377 192.056 20.2013C191.725 19.9435 191.296 19.7287 190.767 19.5568C190.239 19.3849 189.677 19.2131 189.083 19.0412C188.532 18.9123 187.971 18.7404 187.398 18.5255C186.847 18.3107 186.341 18.0207 185.878 17.6554C185.416 17.2902 185.042 16.8283 184.755 16.2697C184.491 15.6896 184.359 14.9913 184.359 14.1749C184.359 13.2081 184.557 12.3917 184.954 11.7257C185.35 11.0596 185.867 10.5225 186.506 10.1143C187.145 9.70611 187.85 9.41607 188.62 9.24419C189.391 9.05083 190.14 8.95415 190.867 8.95415C192.122 8.99712 193.135 9.14751 193.906 9.40533C194.676 9.64166 195.403 9.95318 196.086 10.3399L196.119 13.6593C195.348 13.2511 194.599 12.8858 193.873 12.5636C193.146 12.2198 192.32 12.0479 191.395 12.0479C190.536 12.0479 189.865 12.1983 189.38 12.4991C188.918 12.7784 188.686 13.1759 188.686 13.6915C188.686 14.1427 188.83 14.5079 189.116 14.7872C189.402 15.0665 189.776 15.2814 190.239 15.4318C190.701 15.5822 191.208 15.7325 191.759 15.8829C192.309 16.0333 192.882 16.2052 193.476 16.3986C194.071 16.5704 194.621 16.8283 195.128 17.172C195.634 17.5158 196.042 17.9777 196.35 18.5578C196.681 19.1164 196.846 19.8683 196.846 20.8137C196.824 22.0598 196.482 23.0695 195.822 23.843C195.161 24.5949 194.291 25.1428 193.212 25.4866C192.155 25.8303 191.043 26.0022 189.876 26.0022Z" fill="#05164D"/>
<path d="M41.579 25.5217L36.0293 9.27936H40.5219L44.486 22.7824L43.1976 22.9113L46.9965 9.27936H50.2339L53.9667 22.5246H52.9426L56.8406 9.27936H61.2011L55.6514 25.5217H51.8195L48.1858 13.92L48.9125 14.1134L45.4439 25.5217H41.579Z" fill="#624DE3"/>
<path d="M69.5945 26.0051C66.8637 26.0051 64.8156 25.2639 63.4502 23.7815C62.0848 22.299 61.4021 20.1613 61.4021 17.3683C61.4021 14.382 62.0958 12.212 63.4833 10.8585C64.8927 9.50495 66.9188 8.82819 69.5615 8.82819C71.4114 8.82819 72.953 9.15045 74.1862 9.79499C75.4195 10.418 76.3334 11.3634 76.928 12.631C77.5447 13.8986 77.853 15.4777 77.853 17.3683C77.853 20.1613 77.1372 22.299 75.7058 23.7815C74.2963 25.2639 72.2593 26.0051 69.5945 26.0051ZM69.5945 22.6535C70.5635 22.6535 71.3453 22.4387 71.9399 22.009C72.5566 21.5793 73.008 20.9777 73.2943 20.2043C73.5806 19.4094 73.7238 18.464 73.7238 17.3683C73.7238 16.1437 73.5696 15.1447 73.2613 14.3712C72.975 13.5978 72.5235 13.0284 71.9069 12.6632C71.3123 12.2979 70.5415 12.1153 69.5945 12.1153C68.6255 12.1153 67.8437 12.3087 67.2491 12.6954C66.6545 13.0821 66.2141 13.6622 65.9278 14.4357C65.6635 15.2091 65.5314 16.1867 65.5314 17.3683C65.5314 19.0871 65.8507 20.3976 66.4893 21.3C67.128 22.2024 68.1631 22.6535 69.5945 22.6535Z" fill="#624DE3"/>
<path d="M80.4291 25.5217V10.8585C80.7374 10.6651 81.277 10.4073 82.0478 10.085C82.8406 9.76277 83.7545 9.48347 84.7896 9.24714C85.8246 8.98932 86.8707 8.86041 87.9278 8.86041C88.7206 8.86041 89.3482 8.92487 89.8107 9.05377C90.2952 9.1612 90.6696 9.30085 90.9339 9.47272V12.5665C90.4934 12.5021 89.9869 12.4483 89.4143 12.4054C88.8637 12.3624 88.2912 12.3517 87.6965 12.3731C87.124 12.3731 86.5624 12.3946 86.0118 12.4376C85.4833 12.4806 85.0208 12.5343 84.6244 12.5987V25.5217H80.4291Z" fill="#624DE3"/>
<path d="M96.1891 16.3371L102.631 9.27936H107.751L98.3363 18.4963L96.1891 16.3371ZM97.081 25.5217H92.9187V3.15625H97.114L97.081 25.5217ZM99.1952 14.7579L108.379 25.5217H103.06L96.2221 17.4972L99.1952 14.7579Z" fill="#624DE3"/>
<path d="M109.867 37.0752V31.0605H113.937V31.8992H110.901V33.6395H113.546V34.4872H110.892V36.2366H113.937V37.0752H109.867Z" fill="#3F3F3F"/>
<path d="M115.762 37.0752V33.3329H115.017V32.5484H115.771V32.3681C115.771 32.0495 115.805 31.7849 115.874 31.5745C115.948 31.3641 116.044 31.1958 116.162 31.0696C116.28 30.9433 116.411 30.8501 116.553 30.79C116.696 30.7239 116.839 30.6818 116.982 30.6638C117.131 30.6457 117.271 30.6367 117.401 30.6367C117.494 30.6367 117.587 30.6427 117.68 30.6548C117.773 30.6668 117.854 30.6818 117.922 30.6998V31.5385C117.867 31.5084 117.808 31.4844 117.746 31.4663C117.69 31.4423 117.615 31.4303 117.522 31.4303C117.429 31.4303 117.336 31.4393 117.243 31.4573C117.149 31.4693 117.066 31.5054 116.991 31.5655C116.917 31.6196 116.858 31.7038 116.814 31.818C116.771 31.9322 116.749 32.0885 116.749 32.2869V32.5484H117.922V33.3329H116.74V37.0752H115.762Z" fill="#3F3F3F"/>
<path d="M119.42 37.0752V33.3329H118.675V32.5484H119.429V32.3681C119.429 32.0495 119.464 31.7849 119.532 31.5745C119.606 31.3641 119.703 31.1958 119.821 31.0696C119.939 30.9433 120.069 30.8501 120.212 30.79C120.355 30.7239 120.497 30.6818 120.64 30.6638C120.789 30.6457 120.929 30.6367 121.059 30.6367C121.152 30.6367 121.246 30.6427 121.339 30.6548C121.432 30.6668 121.513 30.6818 121.581 30.6998V31.5385C121.525 31.5084 121.466 31.4844 121.404 31.4663C121.348 31.4423 121.273 31.4303 121.18 31.4303C121.087 31.4303 120.994 31.4393 120.901 31.4573C120.808 31.4693 120.724 31.5054 120.649 31.5655C120.575 31.6196 120.516 31.7038 120.473 31.818C120.429 31.9322 120.407 32.0885 120.407 32.2869V32.5484H121.581V33.3329H120.398V37.0752H119.42Z" fill="#3F3F3F"/>
<path d="M124.435 37.2104C123.678 37.2104 123.113 37.003 122.74 36.5882C122.374 36.1734 122.191 35.5813 122.191 34.8118C122.191 33.9942 122.38 33.3961 122.759 33.0173C123.144 32.6326 123.696 32.4402 124.416 32.4402C124.932 32.4402 125.357 32.5334 125.692 32.7197C126.028 32.9001 126.276 33.1676 126.437 33.5223C126.599 33.877 126.679 34.3068 126.679 34.8118C126.679 35.5753 126.484 36.1674 126.093 36.5882C125.708 37.003 125.155 37.2104 124.435 37.2104ZM124.426 36.4079C124.742 36.4079 124.994 36.3418 125.18 36.2095C125.366 36.0712 125.5 35.8819 125.581 35.6414C125.667 35.4009 125.711 35.1244 125.711 34.8118C125.711 34.4631 125.667 34.1716 125.581 33.9371C125.494 33.7027 125.357 33.5283 125.171 33.4141C124.984 33.2939 124.736 33.2337 124.426 33.2337C124.115 33.2337 123.867 33.2969 123.681 33.4231C123.494 33.5494 123.361 33.7297 123.28 33.9642C123.199 34.1986 123.159 34.4812 123.159 34.8118C123.159 35.3108 123.255 35.7015 123.448 35.9841C123.64 36.2666 123.966 36.4079 124.426 36.4079Z" fill="#3F3F3F"/>
<path d="M127.91 37.0752V32.9632C127.991 32.9151 128.14 32.849 128.357 32.7648C128.574 32.6807 128.832 32.6085 129.13 32.5484C129.428 32.4823 129.729 32.4492 130.033 32.4492C130.189 32.4492 130.316 32.4612 130.415 32.4853C130.515 32.5093 130.598 32.5364 130.667 32.5665V33.3239C130.524 33.3059 130.375 33.2939 130.22 33.2878C130.064 33.2758 129.909 33.2758 129.754 33.2878C129.599 33.2939 129.447 33.3059 129.298 33.3239C129.149 33.342 129.012 33.36 128.888 33.378V37.0752H127.91Z" fill="#3F3F3F"/>
<path d="M133.39 37.1924C132.968 37.1924 132.632 37.0842 132.384 36.8678C132.142 36.6514 132.021 36.3327 132.021 35.9119V33.3329H131.267V32.5484H132.021V31.286H133.027V32.5484H134.163V33.3329H133.027V35.7226C133.027 35.933 133.064 36.0923 133.139 36.2005C133.219 36.3027 133.365 36.3538 133.576 36.3538C133.682 36.3538 133.787 36.3418 133.893 36.3177C133.998 36.2877 134.088 36.2516 134.163 36.2095V37.0481C134.051 37.0962 133.924 37.1323 133.781 37.1563C133.645 37.1804 133.514 37.1924 133.39 37.1924Z" fill="#3F3F3F"/>
<path d="M136.359 37.0752H135.39V30.8351H136.359V37.0752Z" fill="#3F3F3F"/>
<path d="M139.842 37.2104C139.382 37.2104 138.982 37.1203 138.64 36.9399C138.305 36.7596 138.044 36.492 137.858 36.1374C137.678 35.7827 137.588 35.3498 137.588 34.8388C137.588 34.0513 137.777 33.4562 138.156 33.0534C138.541 32.6446 139.075 32.4402 139.758 32.4402C140.261 32.4402 140.667 32.5484 140.978 32.7648C141.288 32.9813 141.512 33.2848 141.648 33.6756C141.791 34.0603 141.859 34.5112 141.853 35.0282H138.175L138.147 34.3249H141.108L140.875 34.5503C140.857 34.0874 140.757 33.7507 140.577 33.5403C140.397 33.3239 140.115 33.2157 139.73 33.2157C139.481 33.2157 139.27 33.2668 139.097 33.369C138.923 33.4652 138.789 33.6335 138.696 33.874C138.609 34.1084 138.566 34.4331 138.566 34.8479C138.566 35.3528 138.687 35.7376 138.929 36.0021C139.171 36.2606 139.528 36.3898 140 36.3898C140.211 36.3898 140.407 36.3718 140.587 36.3357C140.773 36.2997 140.944 36.2546 141.099 36.2005C141.254 36.1404 141.388 36.0833 141.499 36.0292V36.9038C141.282 36.994 141.037 37.0662 140.764 37.1203C140.49 37.1804 140.183 37.2104 139.842 37.2104Z" fill="#3F3F3F"/>
<path d="M144.421 37.2104C144.086 37.2104 143.8 37.1744 143.564 37.1022C143.335 37.0361 143.108 36.9519 142.885 36.8497V35.957C143.046 36.0532 143.204 36.1404 143.359 36.2185C143.515 36.2907 143.676 36.3478 143.844 36.3898C144.018 36.4319 144.21 36.453 144.421 36.453C144.688 36.453 144.896 36.3989 145.045 36.2907C145.2 36.1824 145.278 36.0472 145.278 35.8849C145.278 35.7466 145.228 35.6384 145.129 35.5602C145.036 35.4821 144.915 35.416 144.766 35.3619C144.617 35.3078 144.462 35.2537 144.3 35.1995C144.132 35.1575 143.965 35.1094 143.797 35.0553C143.63 34.9952 143.474 34.917 143.332 34.8208C143.195 34.7186 143.083 34.5894 142.996 34.4331C142.916 34.2768 142.875 34.0844 142.875 33.8559C142.875 33.6035 142.928 33.39 143.034 33.2157C143.139 33.0354 143.276 32.8911 143.443 32.7829C143.617 32.6686 143.807 32.5875 144.011 32.5394C144.222 32.4853 144.427 32.4582 144.626 32.4582C144.955 32.4643 145.222 32.5033 145.427 32.5755C145.638 32.6476 145.843 32.7348 146.042 32.837L146.051 33.6485C145.827 33.5343 145.616 33.4351 145.418 33.351C145.219 33.2668 144.989 33.2247 144.729 33.2247C144.486 33.2247 144.285 33.2698 144.123 33.36C143.962 33.4442 143.881 33.5704 143.881 33.7387C143.881 33.883 143.924 33.9972 144.011 34.0814C144.105 34.1655 144.222 34.2317 144.365 34.2798C144.514 34.3279 144.673 34.376 144.84 34.424C144.995 34.4721 145.157 34.5232 145.325 34.5773C145.492 34.6254 145.647 34.6976 145.79 34.7938C145.933 34.8899 146.048 35.0162 146.135 35.1725C146.228 35.3288 146.275 35.5332 146.275 35.7857C146.268 36.1223 146.175 36.3959 145.995 36.6063C145.821 36.8167 145.592 36.97 145.306 37.0662C145.02 37.1623 144.725 37.2104 144.421 37.2104Z" fill="#3F3F3F"/>
<path d="M148.862 37.2104C148.526 37.2104 148.241 37.1744 148.005 37.1022C147.775 37.0361 147.549 36.9519 147.325 36.8497V35.957C147.486 36.0532 147.645 36.1404 147.8 36.2185C147.955 36.2907 148.117 36.3478 148.284 36.3898C148.458 36.4319 148.651 36.453 148.862 36.453C149.129 36.453 149.337 36.3989 149.486 36.2907C149.641 36.1824 149.718 36.0472 149.718 35.8849C149.718 35.7466 149.669 35.6384 149.569 35.5602C149.476 35.4821 149.355 35.416 149.206 35.3619C149.057 35.3078 148.902 35.2537 148.741 35.1995C148.573 35.1575 148.405 35.1094 148.238 35.0553C148.07 34.9952 147.915 34.917 147.772 34.8208C147.635 34.7186 147.524 34.5894 147.437 34.4331C147.356 34.2768 147.316 34.0844 147.316 33.8559C147.316 33.6035 147.368 33.39 147.474 33.2157C147.58 33.0354 147.716 32.8911 147.884 32.7829C148.058 32.6686 148.247 32.5875 148.452 32.5394C148.663 32.4853 148.868 32.4582 149.067 32.4582C149.396 32.4643 149.663 32.5033 149.867 32.5755C150.079 32.6476 150.283 32.7348 150.482 32.837L150.491 33.6485C150.268 33.5343 150.057 33.4351 149.858 33.351C149.659 33.2668 149.43 33.2247 149.169 33.2247C148.927 33.2247 148.725 33.2698 148.564 33.36C148.402 33.4442 148.322 33.5704 148.322 33.7387C148.322 33.883 148.365 33.9972 148.452 34.0814C148.545 34.1655 148.663 34.2317 148.806 34.2798C148.955 34.3279 149.113 34.376 149.281 34.424C149.436 34.4721 149.597 34.5232 149.765 34.5773C149.933 34.6254 150.088 34.6976 150.231 34.7938C150.374 34.8899 150.488 35.0162 150.575 35.1725C150.668 35.3288 150.715 35.5332 150.715 35.7857C150.709 36.1223 150.616 36.3959 150.436 36.6063C150.262 36.8167 150.032 36.97 149.746 37.0662C149.461 37.1623 149.166 37.2104 148.862 37.2104Z" fill="#3F3F3F"/>
<path d="M154.738 37.0752V31.0605H158.808V31.8992H155.772V33.6395H158.417V34.4872H155.762V36.2366H158.808V37.0752H154.738Z" fill="#3F3F3F"/>
<path d="M160.633 37.0752V33.3329H159.888V32.5484H160.642V32.3681C160.642 32.0495 160.676 31.7849 160.744 31.5745C160.819 31.3641 160.915 31.1958 161.033 31.0696C161.151 30.9433 161.282 30.8501 161.424 30.79C161.567 30.7239 161.71 30.6818 161.853 30.6638C162.002 30.6457 162.141 30.6367 162.272 30.6367C162.365 30.6367 162.458 30.6427 162.551 30.6548C162.644 30.6668 162.725 30.6818 162.793 30.6998V31.5385C162.737 31.5084 162.678 31.4844 162.616 31.4663C162.561 31.4423 162.486 31.4303 162.393 31.4303C162.3 31.4303 162.207 31.4393 162.113 31.4573C162.02 31.4693 161.937 31.5054 161.862 31.5655C161.788 31.6196 161.729 31.7038 161.685 31.818C161.642 31.9322 161.62 32.0885 161.62 32.2869V32.5484H162.793V33.3329H161.611V37.0752H160.633Z" fill="#3F3F3F"/>
<path d="M164.291 37.0752V33.3329H163.546V32.5484H164.3V32.3681C164.3 32.0495 164.334 31.7849 164.403 31.5745C164.477 31.3641 164.574 31.1958 164.691 31.0696C164.809 30.9433 164.94 30.8501 165.083 30.79C165.225 30.7239 165.368 30.6818 165.511 30.6638C165.66 30.6457 165.8 30.6367 165.93 30.6367C166.023 30.6367 166.116 30.6427 166.21 30.6548C166.303 30.6668 166.383 30.6818 166.452 30.6998V31.5385C166.396 31.5084 166.337 31.4844 166.275 31.4663C166.219 31.4423 166.144 31.4303 166.051 31.4303C165.958 31.4303 165.865 31.4393 165.772 31.4573C165.679 31.4693 165.595 31.5054 165.52 31.5655C165.446 31.6196 165.387 31.7038 165.343 31.818C165.3 31.9322 165.278 32.0885 165.278 32.2869V32.5484H166.452V33.3329H165.269V37.0752H164.291ZM167.355 37.0752V32.5755H168.333L168.342 37.0752H167.355ZM167.327 31.827V30.9704H168.37V31.827H167.327Z" fill="#3F3F3F"/>
<path d="M171.899 37.1653C171.614 37.1653 171.334 37.1263 171.061 37.0481C170.788 36.97 170.539 36.8437 170.316 36.6694C170.099 36.489 169.925 36.2516 169.794 35.957C169.664 35.6564 169.599 35.2837 169.599 34.8388C169.599 34.382 169.661 34.0002 169.785 33.6936C169.909 33.387 170.08 33.1436 170.297 32.9632C170.515 32.7769 170.76 32.6446 171.033 32.5665C171.312 32.4883 171.598 32.4492 171.89 32.4492C172.138 32.4492 172.387 32.4733 172.635 32.5214C172.883 32.5634 173.113 32.6296 173.324 32.7197V33.5674C173.113 33.4772 172.902 33.4081 172.691 33.36C172.48 33.3059 172.259 33.2788 172.03 33.2788C171.545 33.2788 171.179 33.3961 170.931 33.6305C170.689 33.865 170.567 34.2437 170.567 34.7667C170.567 35.3078 170.682 35.7045 170.912 35.957C171.148 36.2035 171.53 36.3267 172.058 36.3267C172.287 36.3267 172.511 36.2997 172.728 36.2456C172.945 36.1855 173.147 36.1133 173.333 36.0292V36.8768C173.116 36.973 172.89 37.0451 172.654 37.0932C172.418 37.1413 172.166 37.1653 171.899 37.1653Z" fill="#3F3F3F"/>
<path d="M174.582 37.0752V32.5755H175.56L175.569 37.0752H174.582ZM174.554 31.827V30.9704H175.597V31.827H174.554Z" fill="#3F3F3F"/>
<path d="M179.078 37.2104C178.619 37.2104 178.218 37.1203 177.877 36.9399C177.542 36.7596 177.281 36.492 177.095 36.1374C176.915 35.7827 176.825 35.3498 176.825 34.8388C176.825 34.0513 177.014 33.4562 177.393 33.0534C177.778 32.6446 178.312 32.4402 178.995 32.4402C179.497 32.4402 179.904 32.5484 180.215 32.7648C180.525 32.9813 180.749 33.2848 180.885 33.6756C181.028 34.0603 181.096 34.5112 181.09 35.0282H177.411L177.383 34.3249H180.345L180.112 34.5503C180.093 34.0874 179.994 33.7507 179.814 33.5403C179.634 33.3239 179.352 33.2157 178.967 33.2157C178.718 33.2157 178.507 33.2668 178.333 33.369C178.159 33.4652 178.026 33.6335 177.933 33.874C177.846 34.1084 177.802 34.4331 177.802 34.8479C177.802 35.3528 177.924 35.7376 178.166 36.0021C178.408 36.2606 178.765 36.3898 179.237 36.3898C179.448 36.3898 179.643 36.3718 179.823 36.3357C180.01 36.2997 180.18 36.2546 180.336 36.2005C180.491 36.1404 180.624 36.0833 180.736 36.0292V36.9038C180.519 36.994 180.274 37.0662 180 37.1203C179.727 37.1804 179.42 37.2104 179.078 37.2104Z" fill="#3F3F3F"/>
<path d="M182.308 32.9181C182.444 32.852 182.596 32.7919 182.764 32.7378C182.938 32.6777 183.121 32.6266 183.313 32.5845C183.506 32.5424 183.701 32.5093 183.9 32.4853C184.099 32.4612 184.291 32.4492 184.478 32.4492C184.918 32.4492 185.278 32.5093 185.558 32.6296C185.837 32.7438 186.045 32.9241 186.182 33.1706C186.318 33.4111 186.387 33.7147 186.387 34.0814V37.0752H185.409V34.2076C185.409 34.0934 185.393 33.9822 185.362 33.874C185.337 33.7598 185.285 33.6576 185.204 33.5674C185.129 33.4712 185.018 33.3961 184.869 33.342C184.726 33.2878 184.536 33.2608 184.301 33.2608C184.133 33.2608 183.959 33.2758 183.779 33.3059C183.605 33.3359 183.441 33.378 183.285 33.4321V37.0752H182.308V32.9181Z" fill="#3F3F3F"/>
<path d="M189.916 37.1653C189.63 37.1653 189.351 37.1263 189.078 37.0481C188.804 36.97 188.556 36.8437 188.333 36.6694C188.115 36.489 187.941 36.2516 187.811 35.957C187.681 35.6564 187.615 35.2837 187.615 34.8388C187.615 34.382 187.678 34.0002 187.802 33.6936C187.926 33.387 188.097 33.1436 188.314 32.9632C188.531 32.7769 188.777 32.6446 189.05 32.5665C189.329 32.4883 189.615 32.4492 189.907 32.4492C190.155 32.4492 190.403 32.4733 190.652 32.5214C190.9 32.5634 191.13 32.6296 191.341 32.7197V33.5674C191.13 33.4772 190.919 33.4081 190.707 33.36C190.496 33.3059 190.276 33.2788 190.046 33.2788C189.562 33.2788 189.196 33.3961 188.947 33.6305C188.705 33.865 188.584 34.2437 188.584 34.7667C188.584 35.3078 188.699 35.7045 188.929 35.957C189.165 36.2035 189.546 36.3267 190.074 36.3267C190.304 36.3267 190.527 36.2997 190.745 36.2456C190.962 36.1855 191.164 36.1133 191.35 36.0292V36.8768C191.133 36.973 190.906 37.0451 190.67 37.0932C190.434 37.1413 190.183 37.1653 189.916 37.1653Z" fill="#3F3F3F"/>
<path d="M193.297 38.8246C193.179 38.8246 193.068 38.8125 192.962 38.7885C192.857 38.7705 192.763 38.7464 192.683 38.7163V37.9048C192.757 37.9288 192.832 37.9499 192.906 37.9679C192.981 37.9859 193.061 37.995 193.148 37.995C193.335 37.995 193.49 37.9469 193.614 37.8507C193.738 37.7545 193.844 37.6162 193.931 37.4359C194.018 37.2555 194.089 37.0391 194.145 36.7866L194.163 37.2555L192.17 32.5484H193.279L194.629 36.1193H194.489L195.821 32.5484H196.836L194.909 37.3547C194.753 37.7395 194.586 38.037 194.406 38.2474C194.226 38.4639 194.039 38.6142 193.847 38.6983C193.661 38.7825 193.477 38.8246 193.297 38.8246Z" fill="#3F3F3F"/>
<path fill-rule="evenodd" clip-rule="evenodd" d="M6.17191 16.2832C5.90023 18.5005 6.42674 20.7412 7.66096 22.6201C8.89518 24.4991 10.7601 25.899 12.9351 26.5794C15.1102 27.2597 17.4597 27.1781 19.5799 26.3483C21.7001 25.5186 23.4586 23.9927 24.5532 22.0328C25.6479 20.0729 26.0103 17.8013 25.5783 15.6084C25.1463 13.4155 23.9468 11.4382 22.1858 10.0163C20.813 8.90776 19.1658 8.19071 17.4243 7.9285L17.4243 9.69678C17.4243 10.5044 16.7548 11.1591 15.9289 11.1591C15.1031 11.1591 14.4336 10.5044 14.4336 9.69678L14.4336 6.56315C14.4336 5.64724 15.1979 4.87616 16.1708 4.89411C19.0635 4.94746 21.8555 5.95662 24.0901 7.76107C26.387 9.61576 27.9516 12.1948 28.5151 15.0551C29.0786 17.9154 28.6058 20.8783 27.178 23.4347C25.7502 25.9912 23.4565 27.9815 20.6911 29.0637C17.9256 30.146 14.8611 30.2525 12.024 29.3651C9.18692 28.4776 6.75448 26.6516 5.14462 24.2008C3.53476 21.75 2.84802 18.8274 3.20238 15.9352C3.55674 13.043 4.93008 10.3618 7.08643 8.35228C7.68431 7.79511 8.63086 7.81741 9.20061 8.40209C9.77036 8.98676 9.74756 9.91241 9.14968 10.4696C7.49648 12.0102 6.44359 14.0658 6.17191 16.2832Z" fill="#05164D"/>
<path fill-rule="evenodd" clip-rule="evenodd" d="M10.5962 12.0064C11.1802 11.4354 12.127 11.4354 12.711 12.0064L17.4108 16.6024C17.9948 17.1735 17.9948 18.0994 17.4108 18.6705C16.8268 19.2416 15.88 19.2416 15.296 18.6705L10.5962 14.0745C10.0122 13.5034 10.0122 12.5775 10.5962 12.0064Z" fill="#624DE3"/>
</svg>
