<svg width="25" height="26" viewBox="0 0 25 26" fill="none" xmlns="http://www.w3.org/2000/svg">
<mask id="mask0_5895_192985" style="mask-type:alpha" maskUnits="userSpaceOnUse" x="0" y="0" width="25" height="26">
<rect y="0.537109" width="25" height="25" fill="#D9D9D9"/>
</mask>
<g mask="url(#mask0_5895_192985)">
<path d="M5.88281 10.9801L7.91406 11.8395C8.15712 11.3533 8.40885 10.8846 8.66927 10.4332C8.92969 9.98182 9.21615 9.53043 9.52865 9.07904L8.07031 8.79258L5.88281 10.9801ZM9.58073 13.1415L12.5495 16.0842C13.2786 15.8065 14.0599 15.3811 14.8932 14.8082C15.7266 14.2353 16.5078 13.5842 17.237 12.8551C18.4523 11.6398 19.4028 10.29 20.0885 8.8056C20.7743 7.32123 21.0738 5.95404 20.987 4.70404C19.737 4.61723 18.3655 4.91671 16.8724 5.60248C15.3793 6.28824 14.0252 7.23876 12.8099 8.45404C12.0807 9.18321 11.4297 9.96446 10.8568 10.7978C10.2839 11.6311 9.85851 12.4124 9.58073 13.1415ZM14.2161 11.4488C13.8168 11.0495 13.6172 10.5591 13.6172 9.97748C13.6172 9.39588 13.8168 8.90543 14.2161 8.50612C14.6155 8.10682 15.1102 7.90716 15.7005 7.90716C16.2908 7.90716 16.7856 8.10682 17.1849 8.50612C17.5842 8.90543 17.7839 9.39588 17.7839 9.97748C17.7839 10.5591 17.5842 11.0495 17.1849 11.4488C16.7856 11.8481 16.2908 12.0478 15.7005 12.0478C15.1102 12.0478 14.6155 11.8481 14.2161 11.4488ZM14.7109 19.8082L16.8984 17.6207L16.612 16.1624C16.1606 16.4749 15.7092 16.757 15.2578 17.0087C14.8064 17.2605 14.3377 17.5079 13.8516 17.7509L14.7109 19.8082ZM22.862 2.803C23.1918 4.90369 22.9878 6.94796 22.25 8.93581C21.5122 10.9237 20.2405 12.8204 18.4349 14.6259L18.9557 17.204C19.0252 17.5513 19.0078 17.8898 18.9036 18.2197C18.7995 18.5495 18.6259 18.836 18.3828 19.079L14.0078 23.454L11.8203 18.3238L7.36719 13.8707L2.23698 11.6832L6.58594 7.30821C6.82899 7.06515 7.11979 6.89154 7.45833 6.78737C7.79688 6.68321 8.13976 6.66584 8.48698 6.73529L11.0651 7.25612C12.8707 5.45057 14.763 4.17452 16.7422 3.428C18.7214 2.68147 20.7613 2.47314 22.862 2.803ZM4.08594 17.178C4.69358 16.5704 5.43576 16.2622 6.3125 16.2535C7.18924 16.2448 7.93142 16.5443 8.53906 17.152C9.1467 17.7596 9.44618 18.5018 9.4375 19.3785C9.42882 20.2553 9.12066 20.9974 8.51302 21.6051C8.07899 22.0391 7.35417 22.4124 6.33854 22.7249C5.32292 23.0374 3.92101 23.3152 2.13281 23.5582C2.37587 21.77 2.65365 20.3681 2.96615 19.3525C3.27865 18.3369 3.65191 17.612 4.08594 17.178ZM5.57031 18.6363C5.3967 18.8099 5.22309 19.1268 5.04948 19.5869C4.87587 20.0469 4.75434 20.5113 4.6849 20.9801C5.15365 20.9106 5.61806 20.7934 6.07812 20.6285C6.53819 20.4636 6.85503 20.2943 7.02865 20.1207C7.23698 19.9124 7.34983 19.6606 7.36719 19.3655C7.38455 19.0704 7.28906 18.8186 7.08073 18.6103C6.8724 18.402 6.62066 18.3021 6.32552 18.3108C6.03038 18.3195 5.77865 18.428 5.57031 18.6363Z" fill="#5D2BFF"/>
</g>
</svg>
