<svg width="102" height="16" viewBox="0 0 102 16" fill="none" xmlns="http://www.w3.org/2000/svg">
<path d="M8.40485 0.645403L10.1727 4.30831C10.302 4.57534 10.5521 4.75781 10.8392 4.79503L14.3664 5.24142H14.3663C14.5883 5.27179 14.7903 5.38981 14.9297 5.57058C15.0692 5.75134 15.1353 5.98085 15.1142 6.2108C15.0931 6.44077 14.9863 6.65332 14.8164 6.80387L12.064 9.22128C11.9446 9.32498 11.8548 9.45998 11.8036 9.6121C11.7526 9.76406 11.7423 9.92755 11.774 10.0851L12.5941 14.1564C12.64 14.3835 12.5983 14.6201 12.478 14.8161C12.3577 15.0121 12.1681 15.1521 11.9494 15.2064C11.7309 15.2608 11.5002 15.2253 11.3066 15.1073L8.00877 13.114C7.87715 13.0356 7.72802 12.9944 7.57603 12.9944C7.42404 12.9944 7.2749 13.0356 7.14329 13.114L3.84991 15.1228H3.84976C3.65611 15.2408 3.4256 15.2765 3.20689 15.2221C2.98833 15.1678 2.79877 15.0278 2.67844 14.8318C2.55799 14.6358 2.51648 14.3991 2.56221 14.1719L3.37804 10.0847C3.40974 9.92714 3.39948 9.76365 3.34846 9.61169C3.29729 9.45957 3.20748 9.32458 3.08808 9.22088L0.339893 6.83241C0.169784 6.68138 0.0632156 6.46807 0.0426895 6.23746C0.0221615 6.00687 0.0893293 5.77705 0.23001 5.59644C0.370686 5.41598 0.573853 5.2989 0.796487 5.26994L4.63961 4.80346C4.94572 4.76609 5.20941 4.56383 5.33213 4.27221L6.84682 0.7007V0.700856C6.93482 0.494861 7.09482 0.330751 7.29514 0.241393C7.49529 0.15202 7.72096 0.143925 7.92668 0.218817C8.13242 0.293554 8.30313 0.44583 8.40487 0.644957L8.40485 0.645403Z" fill="#FFAB00"/>
<path d="M29.9752 0.645403L31.743 4.30831C31.8724 4.57534 32.1225 4.75781 32.4096 4.79503L35.9367 5.24142H35.9366C36.1586 5.27179 36.3606 5.38981 36.5001 5.57058C36.6395 5.75134 36.7056 5.98085 36.6845 6.2108C36.6634 6.44077 36.5567 6.65332 36.3867 6.80387L33.6343 9.22128C33.5149 9.32498 33.4251 9.45998 33.3739 9.6121C33.3229 9.76406 33.3126 9.92755 33.3443 10.0851L34.1644 14.1564C34.2103 14.3835 34.1686 14.6201 34.0483 14.8161C33.928 15.0121 33.7385 15.1521 33.5197 15.2064C33.3012 15.2608 33.0705 15.2253 32.8769 15.1073L29.5791 13.114C29.4475 13.0356 29.2983 12.9944 29.1463 12.9944C28.9944 12.9944 28.8452 13.0356 28.7136 13.114L25.4202 15.1228H25.4201C25.2264 15.2408 24.9959 15.2765 24.7772 15.2221C24.5586 15.1678 24.3691 15.0278 24.2488 14.8318C24.1283 14.6358 24.0868 14.3991 24.1325 14.1719L24.9484 10.0847C24.9801 9.92714 24.9698 9.76365 24.9188 9.61169C24.8676 9.45957 24.7778 9.32458 24.6584 9.22088L21.9102 6.83241C21.7401 6.68138 21.6335 6.46807 21.613 6.23746C21.5925 6.00687 21.6596 5.77705 21.8003 5.59644C21.941 5.41598 22.1442 5.2989 22.3668 5.26994L26.2099 4.80346C26.516 4.76609 26.7797 4.56383 26.9024 4.27221L28.4171 0.7007V0.700856C28.5051 0.494861 28.6651 0.330751 28.8654 0.241393C29.0656 0.15202 29.2913 0.143925 29.497 0.218817C29.7027 0.293554 29.8734 0.44583 29.9752 0.644957L29.9752 0.645403Z" fill="#FFAB00"/>
<path d="M51.5416 0.645403L53.3094 4.30831C53.4388 4.57534 53.6889 4.75781 53.976 4.79503L57.5032 5.24142H57.503C57.725 5.27179 57.927 5.38981 58.0665 5.57058C58.2059 5.75134 58.272 5.98085 58.2509 6.2108C58.2298 6.44077 58.1231 6.65332 57.9531 6.80387L55.2007 9.22128C55.0813 9.32498 54.9915 9.45998 54.9403 9.6121C54.8893 9.76406 54.879 9.92755 54.9107 10.0851L55.7308 14.1564C55.7767 14.3835 55.7351 14.6201 55.6148 14.8161C55.4945 15.0121 55.3049 15.1521 55.0861 15.2064C54.8676 15.2608 54.6369 15.2253 54.4433 15.1073L51.1455 13.114C51.0139 13.0356 50.8647 12.9944 50.7127 12.9944C50.5608 12.9944 50.4116 13.0356 50.28 13.114L46.9866 15.1228H46.9865C46.7928 15.2408 46.5623 15.2765 46.3436 15.2221C46.1251 15.1678 45.9355 15.0278 45.8152 14.8318C45.6947 14.6358 45.6532 14.3991 45.6989 14.1719L46.5148 10.0847C46.5465 9.92714 46.5362 9.76365 46.4852 9.61169C46.434 9.45957 46.3442 9.32458 46.2248 9.22088L43.4766 6.83241C43.3065 6.68138 43.1999 6.46807 43.1794 6.23746C43.1589 6.00687 43.226 5.77705 43.3667 5.59644C43.5074 5.41598 43.7106 5.2989 43.9332 5.26994L47.7763 4.80346C48.0824 4.76609 48.3461 4.56383 48.4689 4.27221L49.9835 0.7007V0.700856C50.0715 0.494861 50.2315 0.330751 50.4319 0.241393C50.632 0.15202 50.8577 0.143925 51.0634 0.218817C51.2691 0.293554 51.4399 0.44583 51.5416 0.644957L51.5416 0.645403Z" fill="#FFAB00"/>
<path d="M73.108 0.645403L74.8758 4.30831C75.0052 4.57534 75.2553 4.75781 75.5424 4.79503L79.0696 5.24142H79.0694C79.2914 5.27179 79.4934 5.38981 79.6329 5.57058C79.7723 5.75134 79.8385 5.98085 79.8173 6.2108C79.7962 6.44077 79.6895 6.65332 79.5195 6.80387L76.7671 9.22128C76.6477 9.32498 76.5579 9.45998 76.5067 9.6121C76.4557 9.76406 76.4455 9.92755 76.4772 10.0851L77.2972 14.1564C77.3431 14.3835 77.3015 14.6201 77.1812 14.8161C77.0609 15.0121 76.8713 15.1521 76.6525 15.2064C76.434 15.2608 76.2033 15.2253 76.0097 15.1073L72.7119 13.114C72.5803 13.0356 72.4311 12.9944 72.2792 12.9944C72.1272 12.9944 71.978 13.0356 71.8464 13.114L68.553 15.1228H68.5529C68.3592 15.2408 68.1287 15.2765 67.91 15.2221C67.6915 15.1678 67.5019 15.0278 67.3816 14.8318C67.2611 14.6358 67.2196 14.3991 67.2653 14.1719L68.0812 10.0847C68.1129 9.92714 68.1026 9.76365 68.0516 9.61169C68.0004 9.45957 67.9106 9.32458 67.7912 9.22088L65.043 6.83241C64.8729 6.68138 64.7663 6.46807 64.7458 6.23746C64.7253 6.00687 64.7925 5.77705 64.9331 5.59644C65.0738 5.41598 65.277 5.2989 65.4996 5.26994L69.3427 4.80346C69.6488 4.76609 69.9125 4.56383 70.0353 4.27221L71.5499 0.7007V0.700856C71.6379 0.494861 71.7979 0.330751 71.9983 0.241393C72.1984 0.15202 72.4241 0.143925 72.6298 0.218817C72.8355 0.293554 73.0063 0.44583 73.108 0.644957L73.108 0.645403Z" fill="#FFAB00"/>
<path d="M94.6744 0.645403L96.4422 4.30831C96.5716 4.57534 96.8217 4.75781 97.1088 4.79503L100.636 5.24142H100.636C100.858 5.27179 101.06 5.38981 101.199 5.57058C101.339 5.75134 101.405 5.98085 101.384 6.2108C101.363 6.44077 101.256 6.65332 101.086 6.80387L98.3335 9.22128C98.2141 9.32498 98.1243 9.45998 98.0731 9.6121C98.0221 9.76406 98.0119 9.92755 98.0436 10.0851L98.8636 14.1564C98.9095 14.3835 98.8679 14.6201 98.7476 14.8161C98.6273 15.0121 98.4377 15.1521 98.219 15.2064C98.0004 15.2608 97.7698 15.2253 97.5761 15.1073L94.2783 13.114C94.1467 13.0356 93.9976 12.9944 93.8456 12.9944C93.6936 12.9944 93.5444 13.0356 93.4128 13.114L90.1194 15.1228H90.1193C89.9256 15.2408 89.6951 15.2765 89.4764 15.2221C89.2579 15.1678 89.0683 15.0278 88.948 14.8318C88.8275 14.6358 88.786 14.3991 88.8317 14.1719L89.6476 10.0847C89.6793 9.92714 89.669 9.76365 89.618 9.61169C89.5668 9.45957 89.477 9.32458 89.3576 9.22088L86.6094 6.83241C86.4393 6.68138 86.3327 6.46807 86.3122 6.23746C86.2917 6.00687 86.3589 5.77705 86.4995 5.59644C86.6402 5.41598 86.8434 5.2989 87.066 5.26994L90.9091 4.80346C91.2153 4.76609 91.4789 4.56383 91.6017 4.27221L93.1164 0.7007V0.700856C93.2044 0.494861 93.3644 0.330751 93.5647 0.241393C93.7648 0.15202 93.9905 0.143925 94.1962 0.218817C94.4019 0.293554 94.5727 0.44583 94.6744 0.644957L94.6744 0.645403Z" fill="#FFAB00"/>
<mask id="mask0_4881_13303" style="mask-type:alpha" maskUnits="userSpaceOnUse" x="86" y="0" width="16" height="16">
<path d="M94.6744 0.645403L96.4422 4.30831C96.5716 4.57534 96.8217 4.75781 97.1088 4.79503L100.636 5.24142H100.636C100.858 5.27179 101.06 5.38981 101.199 5.57058C101.339 5.75134 101.405 5.98085 101.384 6.2108C101.363 6.44077 101.256 6.65332 101.086 6.80387L98.3335 9.22128C98.2141 9.32498 98.1243 9.45998 98.0731 9.6121C98.0221 9.76406 98.0119 9.92755 98.0436 10.0851L98.8636 14.1564C98.9095 14.3835 98.8679 14.6201 98.7476 14.8161C98.6273 15.0121 98.4377 15.1521 98.219 15.2064C98.0004 15.2608 97.7698 15.2253 97.5761 15.1073L94.2783 13.114C94.1467 13.0356 93.9976 12.9944 93.8456 12.9944C93.6936 12.9944 93.5444 13.0356 93.4128 13.114L90.1194 15.1228H90.1193C89.9256 15.2408 89.6951 15.2765 89.4764 15.2221C89.2579 15.1678 89.0683 15.0278 88.948 14.8318C88.8275 14.6358 88.786 14.3991 88.8317 14.1719L89.6476 10.0847C89.6793 9.92714 89.669 9.76365 89.618 9.61169C89.5668 9.45957 89.477 9.32458 89.3576 9.22088L86.6094 6.83241C86.4393 6.68138 86.3327 6.46807 86.3122 6.23746C86.2917 6.00687 86.3589 5.77705 86.4995 5.59644C86.6402 5.41598 86.8434 5.2989 87.066 5.26994L90.9091 4.80346C91.2153 4.76609 91.4789 4.56383 91.6017 4.27221L93.1164 0.7007V0.700856C93.2044 0.494861 93.3644 0.330751 93.5647 0.241393C93.7648 0.15202 93.9905 0.143925 94.1962 0.218817C94.4019 0.293554 94.5727 0.44583 94.6744 0.644957L94.6744 0.645403Z" fill="#FFCC00"/>
</mask>
<g mask="url(#mask0_4881_13303)">
<rect x="93.8438" y="-1.50781" width="12.9847" height="22.6185" fill="#FFAB00"/>
</g>
<path d="M94.6392 0.880755L96.4071 4.54366C96.5364 4.81069 96.7865 4.99316 97.0736 5.03039L100.601 5.47677H100.601C100.823 5.50714 101.025 5.62516 101.164 5.80593C101.304 5.9867 101.37 6.2162 101.349 6.44615C101.327 6.67612 101.221 6.88868 101.051 7.03923L98.2984 9.45664C98.179 9.56033 98.0892 9.69533 98.038 9.84745C97.987 9.99941 97.9767 10.1629 98.0084 10.3205L98.8285 14.3917C98.8744 14.6189 98.8327 14.8554 98.7124 15.0514C98.5921 15.2475 98.4025 15.3875 98.1838 15.4418C97.9652 15.4961 97.7346 15.4606 97.5409 15.3426L94.2431 13.3493C94.1115 13.271 93.9624 13.2297 93.8104 13.2297C93.6584 13.2297 93.5093 13.271 93.3777 13.3493L90.0843 15.3582H90.0841C89.8905 15.4762 89.66 15.5118 89.4413 15.4575C89.2227 15.4032 89.0331 15.2632 88.9128 15.0672C88.7924 14.8711 88.7509 14.6345 88.7966 14.4073L89.6124 10.3201C89.6441 10.1625 89.6339 9.999 89.5828 9.84705C89.5317 9.69493 89.4419 9.55993 89.3225 9.45623L86.5743 7.06776C86.4042 6.91673 86.2976 6.70342 86.2771 6.47282C86.2565 6.24222 86.3237 6.0124 86.4644 5.83179C86.6051 5.65134 86.8082 5.53425 87.0309 5.50529L90.874 5.03881C91.1801 5.00144 91.4438 4.79918 91.5665 4.50756L93.0812 0.936052V0.936207C93.1692 0.730213 93.3292 0.566102 93.5295 0.476745C93.7297 0.387372 93.9553 0.379276 94.1611 0.454168C94.3668 0.528905 94.5375 0.681181 94.6392 0.880308L94.6392 0.880755Z" fill="#FFAB00"/>
<mask id="mask1_4881_13303" style="mask-type:alpha" maskUnits="userSpaceOnUse" x="86" y="0" width="16" height="16">
<path d="M94.6392 0.880755L96.4071 4.54366C96.5364 4.81069 96.7865 4.99316 97.0736 5.03039L100.601 5.47677H100.601C100.823 5.50714 101.025 5.62516 101.164 5.80593C101.304 5.9867 101.37 6.2162 101.349 6.44615C101.327 6.67612 101.221 6.88868 101.051 7.03923L98.2984 9.45664C98.179 9.56033 98.0892 9.69533 98.038 9.84745C97.987 9.99941 97.9767 10.1629 98.0084 10.3205L98.8285 14.3917C98.8744 14.6189 98.8327 14.8554 98.7124 15.0514C98.5921 15.2475 98.4025 15.3875 98.1838 15.4418C97.9652 15.4961 97.7346 15.4606 97.5409 15.3426L94.2431 13.3493C94.1115 13.271 93.9624 13.2297 93.8104 13.2297C93.6584 13.2297 93.5093 13.271 93.3777 13.3493L90.0843 15.3582H90.0841C89.8905 15.4762 89.66 15.5118 89.4413 15.4575C89.2227 15.4032 89.0331 15.2632 88.9128 15.0672C88.7924 14.8711 88.7509 14.6345 88.7966 14.4073L89.6124 10.3201C89.6441 10.1625 89.6339 9.999 89.5828 9.84705C89.5317 9.69493 89.4419 9.55993 89.3225 9.45623L86.5743 7.06776C86.4042 6.91673 86.2976 6.70342 86.2771 6.47282C86.2565 6.24222 86.3237 6.0124 86.4644 5.83179C86.6051 5.65134 86.8082 5.53425 87.0309 5.50529L90.874 5.03881C91.1801 5.00144 91.4438 4.79918 91.5665 4.50756L93.0812 0.936052V0.936207C93.1692 0.730213 93.3292 0.566102 93.5295 0.476745C93.7297 0.387372 93.9553 0.379276 94.1611 0.454168C94.3668 0.528905 94.5375 0.681181 94.6392 0.880308L94.6392 0.880755Z" fill="#FFCC00"/>
</mask>
<g mask="url(#mask1_4881_13303)">
<rect x="97.9102" y="4.08691" width="4.51964" height="5.03067" transform="rotate(-11.2991 97.9102 4.08691)" fill="#E5E5E5"/>
</g>
<path d="M94.6392 0.879778L96.4071 4.54268C96.5364 4.80971 96.7865 4.99218 97.0736 5.02941L100.601 5.4758H100.601C100.823 5.50616 101.025 5.62418 101.164 5.80495C101.304 5.98572 101.37 6.21523 101.349 6.44518C101.327 6.67515 101.221 6.8877 101.051 7.03825L98.2984 9.45566C98.179 9.55936 98.0892 9.69435 98.038 9.84647C97.987 9.99844 97.9767 10.1619 98.0084 10.3195L98.8285 14.3908C98.8744 14.6179 98.8327 14.8544 98.7124 15.0505C98.5921 15.2465 98.4025 15.3865 98.1838 15.4408C97.9652 15.4952 97.7346 15.4597 97.5409 15.3416L94.2431 13.3483C94.1115 13.27 93.9624 13.2288 93.8104 13.2288C93.6584 13.2288 93.5093 13.27 93.3777 13.3483L90.0843 15.3572H90.0841C89.8905 15.4752 89.66 15.5109 89.4413 15.4565C89.2227 15.4022 89.0331 15.2622 88.9128 15.0662C88.7924 14.8701 88.7509 14.6335 88.7966 14.4063L89.6124 10.3191C89.6441 10.1615 89.6339 9.99803 89.5828 9.84607C89.5317 9.69395 89.4419 9.55896 89.3225 9.45526L86.5743 7.06678C86.4042 6.91575 86.2976 6.70244 86.2771 6.47184C86.2565 6.24124 86.3237 6.01142 86.4644 5.83082C86.6051 5.65036 86.8082 5.53327 87.0309 5.50431L90.874 5.03783C91.1801 5.00046 91.4438 4.79821 91.5665 4.50658L93.0812 0.935075V0.935231C93.1692 0.729236 93.3292 0.565126 93.5295 0.475768C93.7297 0.386395 93.9553 0.3783 94.1611 0.453192C94.3668 0.527929 94.5375 0.680205 94.6392 0.879332L94.6392 0.879778Z" fill="#FFAB00"/>
<mask id="mask2_4881_13303" style="mask-type:alpha" maskUnits="userSpaceOnUse" x="86" y="0" width="16" height="16">
<path d="M94.6392 0.879778L96.4071 4.54268C96.5364 4.80971 96.7865 4.99218 97.0736 5.02941L100.601 5.4758H100.601C100.823 5.50616 101.025 5.62418 101.164 5.80495C101.304 5.98572 101.37 6.21523 101.349 6.44518C101.327 6.67515 101.221 6.8877 101.051 7.03825L98.2984 9.45566C98.179 9.55936 98.0892 9.69435 98.038 9.84647C97.987 9.99844 97.9767 10.1619 98.0084 10.3195L98.8285 14.3908C98.8744 14.6179 98.8327 14.8544 98.7124 15.0505C98.5921 15.2465 98.4025 15.3865 98.1838 15.4408C97.9652 15.4952 97.7346 15.4597 97.5409 15.3416L94.2431 13.3483C94.1115 13.27 93.9624 13.2288 93.8104 13.2288C93.6584 13.2288 93.5093 13.27 93.3777 13.3483L90.0843 15.3572H90.0841C89.8905 15.4752 89.66 15.5109 89.4413 15.4565C89.2227 15.4022 89.0331 15.2622 88.9128 15.0662C88.7924 14.8701 88.7509 14.6335 88.7966 14.4063L89.6124 10.3191C89.6441 10.1615 89.6339 9.99803 89.5828 9.84607C89.5317 9.69395 89.4419 9.55896 89.3225 9.45526L86.5743 7.06678C86.4042 6.91575 86.2976 6.70244 86.2771 6.47184C86.2565 6.24124 86.3237 6.01142 86.4644 5.83082C86.6051 5.65036 86.8082 5.53327 87.0309 5.50431L90.874 5.03783C91.1801 5.00046 91.4438 4.79821 91.5665 4.50658L93.0812 0.935075V0.935231C93.1692 0.729236 93.3292 0.565126 93.5295 0.475768C93.7297 0.386395 93.9553 0.3783 94.1611 0.453192C94.3668 0.527929 94.5375 0.680205 94.6392 0.879332L94.6392 0.879778Z" fill="#FFCC00"/>
</mask>
<g mask="url(#mask2_4881_13303)">
<rect x="96.4062" y="-1.27344" width="12.9847" height="22.6185" fill="#E5E5E5"/>
</g>
</svg>
