<svg width="160" height="20" viewBox="0 0 160 20" fill="none" xmlns="http://www.w3.org/2000/svg">
<path d="M92.335 18.0335C91.3475 18.0335 90.5062 17.9318 89.8113 17.7284C89.1164 17.5419 88.4488 17.313 87.8088 17.0418V14.1428C88.2294 14.3971 88.6683 14.6429 89.1255 14.8802C89.601 15.1006 90.1039 15.2786 90.6342 15.4143C91.1829 15.5499 91.7681 15.6177 92.3899 15.6177C93.1214 15.6177 93.6609 15.4905 94.0084 15.2362C94.3741 14.965 94.557 14.6429 94.557 14.2699C94.557 13.9139 94.4198 13.6427 94.1455 13.4562C93.8712 13.2527 93.5146 13.0832 93.0757 12.9476C92.6368 12.8119 92.1704 12.6763 91.6767 12.5407C91.2195 12.439 90.7531 12.3034 90.2776 12.1338C89.8204 11.9643 89.3998 11.7354 89.0158 11.4472C88.6317 11.159 88.3208 10.7945 88.0831 10.3537C87.8636 9.89601 87.7539 9.34503 87.7539 8.70081C87.7539 7.93792 87.9185 7.2937 88.2477 6.76815C88.5769 6.2426 89.0066 5.81877 89.537 5.49666C90.0673 5.17455 90.6525 4.94569 91.2926 4.81006C91.9327 4.65748 92.5545 4.58119 93.158 4.58119C94.2004 4.6151 95.0416 4.73377 95.6817 4.93721C96.3218 5.12369 96.9253 5.36951 97.4922 5.67467L97.5196 8.29393C96.8796 7.97182 96.2578 7.68362 95.6543 7.42932C95.0508 7.15807 94.365 7.02245 93.5969 7.02245C92.8837 7.02245 92.3259 7.14112 91.9235 7.37846C91.5395 7.59885 91.3475 7.91249 91.3475 8.31936C91.3475 8.67538 91.4663 8.96358 91.7041 9.18397C91.9418 9.40436 92.2527 9.5739 92.6368 9.69257C93.0208 9.81124 93.4414 9.92991 93.8986 10.0486C94.3558 10.1673 94.8313 10.3029 95.3251 10.4555C95.8189 10.5911 96.2761 10.7945 96.6967 11.0658C97.1173 11.337 97.4556 11.7015 97.7117 12.1593C97.986 12.6 98.1231 13.1934 98.1231 13.9393C98.1049 14.9226 97.8214 15.7194 97.2728 16.3297C96.7241 16.9231 96.0018 17.3554 95.1056 17.6266C94.2278 17.8979 93.3043 18.0335 92.335 18.0335Z" fill="#05164D"/>
<path d="M105.602 18.0589C104.176 18.0589 103.087 17.7368 102.338 17.0926C101.588 16.4314 101.213 15.4821 101.213 14.2445V7.37846H99.0732V4.83549H101.213V1.30076H104.806V4.83549H108.016V7.37846H104.806V13.7359C104.806 14.2614 104.916 14.6514 105.136 14.9057C105.355 15.16 105.739 15.2871 106.288 15.2871C106.58 15.2871 106.882 15.2447 107.193 15.16C107.522 15.0582 107.797 14.9396 108.016 14.8039V17.6012C107.65 17.7707 107.248 17.8894 106.809 17.9572C106.388 18.025 105.986 18.0589 105.602 18.0589Z" fill="#05164D"/>
<path d="M115.435 18.0335C114.666 18.0335 113.935 17.9657 113.24 17.8301C112.545 17.6945 111.923 17.4741 111.375 17.1689C110.826 16.8468 110.387 16.4145 110.058 15.872C109.747 15.3125 109.592 14.6175 109.592 13.7868C109.592 12.9221 109.784 12.1932 110.168 11.5998C110.552 10.9895 111.109 10.5317 111.841 10.2266C112.591 9.90448 113.505 9.74343 114.584 9.74343C115.243 9.74343 115.855 9.80276 116.422 9.92144C116.989 10.0232 117.501 10.1673 117.958 10.3537C118.416 10.5402 118.79 10.7437 119.083 10.9641L119.33 12.7696C118.946 12.5322 118.452 12.3457 117.849 12.2101C117.263 12.0575 116.623 11.9812 115.928 11.9812C114.959 11.9812 114.237 12.1253 113.761 12.4135C113.286 12.7018 113.048 13.151 113.048 13.7613C113.048 14.1852 113.176 14.5412 113.432 14.8294C113.688 15.1006 114.017 15.3125 114.42 15.4651C114.822 15.6007 115.243 15.6686 115.681 15.6686C116.687 15.6686 117.41 15.6092 117.849 15.4905C118.306 15.3549 118.534 15.0752 118.534 14.6514V9.59085C118.534 8.76014 118.251 8.15831 117.684 7.78534C117.117 7.39542 116.322 7.20045 115.297 7.20045C114.511 7.20045 113.706 7.3276 112.883 7.5819C112.06 7.81924 111.393 8.13288 110.881 8.5228V5.59838C111.375 5.31018 112.115 5.05588 113.103 4.83549C114.09 4.6151 115.151 4.5049 116.285 4.5049C116.76 4.5049 117.263 4.54729 117.794 4.63205C118.324 4.71682 118.827 4.85244 119.302 5.03893C119.796 5.22541 120.244 5.48819 120.647 5.82725C121.049 6.14936 121.369 6.56471 121.607 7.07331C121.844 7.56495 121.963 8.16678 121.963 8.87882V14.9565C121.963 15.7533 121.689 16.3806 121.14 16.8383C120.592 17.2791 119.833 17.5843 118.864 17.7538C117.894 17.9403 116.751 18.0335 115.435 18.0335Z" fill="#05164D"/>
<path d="M130.149 18.0589C128.723 18.0589 127.635 17.7368 126.885 17.0926C126.135 16.4314 125.76 15.4821 125.76 14.2445V7.37846H123.62V4.83549H125.76V1.30076H129.354V4.83549H132.563V7.37846H129.354V13.7359C129.354 14.2614 129.463 14.6514 129.683 14.9057C129.902 15.16 130.286 15.2871 130.835 15.2871C131.128 15.2871 131.429 15.2447 131.74 15.16C132.069 15.0582 132.344 14.9396 132.563 14.8039V17.6012C132.197 17.7707 131.795 17.8894 131.356 17.9572C130.936 18.025 130.533 18.0589 130.149 18.0589Z" fill="#05164D"/>
<path d="M141.134 18.0335C139.854 18.0335 138.738 17.847 137.787 17.4741C136.855 17.0841 136.123 16.5077 135.593 15.7448C135.081 14.982 134.825 14.0071 134.825 12.8204V4.83549H138.308V12.4898C138.308 13.4392 138.537 14.1428 138.994 14.6005C139.451 15.0582 140.165 15.2871 141.134 15.2871C142.14 15.2871 142.862 15.0582 143.301 14.6005C143.758 14.1428 143.987 13.4392 143.987 12.4898V4.83549H147.279V12.8204C147.279 14.5836 146.73 15.8974 145.633 16.762C144.554 17.6097 143.054 18.0335 141.134 18.0335Z" fill="#05164D"/>
<path d="M154.212 18.0335C153.225 18.0335 152.383 17.9318 151.688 17.7284C150.993 17.5419 150.326 17.313 149.686 17.0418V14.1428C150.106 14.3971 150.545 14.6429 151.003 14.8802C151.478 15.1006 151.981 15.2786 152.511 15.4143C153.06 15.5499 153.645 15.6177 154.267 15.6177C154.998 15.6177 155.538 15.4905 155.885 15.2362C156.251 14.965 156.434 14.6429 156.434 14.2699C156.434 13.9139 156.297 13.6427 156.023 13.4562C155.748 13.2527 155.392 13.0832 154.953 12.9476C154.514 12.8119 154.047 12.6763 153.554 12.5407C153.097 12.439 152.63 12.3034 152.155 12.1338C151.697 11.9643 151.277 11.7354 150.893 11.4472C150.509 11.159 150.198 10.7945 149.96 10.3537C149.741 9.89601 149.631 9.34503 149.631 8.70081C149.631 7.93792 149.796 7.2937 150.125 6.76815C150.454 6.2426 150.884 5.81877 151.414 5.49666C151.944 5.17455 152.53 4.94569 153.17 4.81006C153.81 4.65748 154.432 4.58119 155.035 4.58119C156.077 4.6151 156.919 4.73377 157.559 4.93721C158.199 5.12369 158.802 5.36951 159.369 5.67467L159.397 8.29393C158.757 7.97182 158.135 7.68362 157.531 7.42932C156.928 7.15807 156.242 7.02245 155.474 7.02245C154.761 7.02245 154.203 7.14112 153.801 7.37846C153.417 7.59885 153.225 7.91249 153.225 8.31936C153.225 8.67538 153.343 8.96358 153.581 9.18397C153.819 9.40436 154.13 9.5739 154.514 9.69257C154.898 9.81124 155.319 9.92991 155.776 10.0486C156.233 10.1673 156.708 10.3029 157.202 10.4555C157.696 10.5911 158.153 10.7945 158.574 11.0658C158.994 11.337 159.333 11.7015 159.589 12.1593C159.863 12.6 160 13.1934 160 13.9393C159.982 14.9226 159.698 15.7194 159.15 16.3297C158.601 16.9231 157.879 17.3554 156.983 17.6266C156.105 17.8979 155.181 18.0335 154.212 18.0335Z" fill="#05164D"/>
<path d="M31.0656 17.6482L26.457 4.83165H30.1878L33.4796 15.4867L32.4097 15.5884L35.5644 4.83165H38.2527L41.3525 15.2833H40.5021L43.7391 4.83165H47.3601L42.7516 17.6482H39.5695L36.552 8.49353L37.1555 8.64611L34.2751 17.6482H31.0656Z" fill="#6754E2"/>
<path d="M54.3302 18.0297C52.0625 18.0297 50.3617 17.4448 49.2278 16.275C48.094 15.1053 47.5271 13.4184 47.5271 11.2145C47.5271 8.85802 48.1031 7.14575 49.2553 6.07771C50.4257 5.00966 52.1082 4.47563 54.3027 4.47563C55.8389 4.47563 57.1191 4.72993 58.1432 5.23852C59.1673 5.73017 59.9263 6.4761 60.42 7.47634C60.9321 8.47658 61.1881 9.72263 61.1881 11.2145C61.1881 13.4184 60.5938 15.1053 59.4051 16.275C58.2346 17.4448 56.543 18.0297 54.3302 18.0297ZM54.3302 15.385C55.1348 15.385 55.784 15.2155 56.2778 14.8764C56.7899 14.5373 57.1648 14.0626 57.4025 13.4523C57.6403 12.8251 57.7591 12.0791 57.7591 11.2145C57.7591 10.2482 57.6311 9.45986 57.3751 8.84955C57.1374 8.23923 56.7625 7.78997 56.2504 7.50177C55.7566 7.21357 55.1165 7.06947 54.3302 7.06947C53.5255 7.06947 52.8763 7.22204 52.3825 7.5272C51.8887 7.83236 51.523 8.29009 51.2852 8.90041C51.0658 9.51072 50.956 10.2821 50.956 11.2145C50.956 12.5708 51.2212 13.6049 51.7516 14.3169C52.2819 15.029 53.1414 15.385 54.3302 15.385Z" fill="#6754E2"/>
<path d="M63.3274 17.6482V6.07771C63.5834 5.92513 64.0315 5.72169 64.6715 5.46739C65.3299 5.21309 66.0889 4.9927 66.9484 4.80622C67.8079 4.60278 68.6766 4.50106 69.5544 4.50106C70.2128 4.50106 70.734 4.55192 71.118 4.65364C71.5204 4.73841 71.8313 4.8486 72.0507 4.98423V7.42548C71.685 7.37462 71.2643 7.33224 70.7888 7.29833C70.3316 7.26443 69.8562 7.25595 69.3624 7.2729C68.8869 7.2729 68.4206 7.28986 67.9634 7.32376C67.5245 7.35767 67.1404 7.40005 66.8112 7.45091V17.6482H63.3274Z" fill="#6754E2"/>
<path d="M76.4147 10.4008L81.764 4.83165H86.0159L78.1978 12.1046L76.4147 10.4008ZM77.1554 17.6482H73.699V0H77.1828L77.1554 17.6482ZM78.911 9.1547L86.5371 17.6482H82.1206L76.4422 11.3162L78.911 9.1547Z" fill="#6754E2"/>
<path fill-rule="evenodd" clip-rule="evenodd" d="M2.4953 9.42813C2.2738 11.142 2.70307 12.8738 3.70933 14.3261C4.7156 15.7784 6.23604 16.8605 8.00939 17.3863C9.78275 17.9122 11.6983 17.8491 13.4269 17.2078C15.1555 16.5665 16.5892 15.387 17.4817 13.8722C18.3741 12.3573 18.6696 10.6015 18.3174 8.90659C17.9652 7.21166 16.9872 5.68336 15.5515 4.58432C14.4323 3.72749 13.0893 3.17326 11.6694 2.9706L11.6694 4.33735C11.6694 4.96159 11.1236 5.46764 10.4502 5.46764C9.77691 5.46764 9.23105 4.96159 9.23105 4.33735L9.23105 1.91528C9.23105 1.20736 9.8542 0.611368 10.6474 0.625236C13.0059 0.666475 15.2822 1.44648 17.1041 2.84118C18.9767 4.27472 20.2523 6.26814 20.7118 8.47893C21.1712 10.6897 20.7858 12.9798 19.6217 14.9558C18.4576 16.9317 16.5875 18.4701 14.3328 19.3066C12.0781 20.143 9.5796 20.2254 7.26653 19.5395C4.95345 18.8536 2.97027 17.4422 1.65775 15.5479C0.34523 13.6536 -0.214679 11.3947 0.0742331 9.15919C0.363145 6.92374 1.48284 4.85136 3.24092 3.29815C3.72837 2.8675 4.5001 2.88473 4.96462 3.33664C5.42914 3.78855 5.41055 4.50401 4.92309 4.93466C3.57523 6.12545 2.7168 7.71428 2.4953 9.42813Z" fill="#05164D"/>
<path fill-rule="evenodd" clip-rule="evenodd" d="M6.10514 6.12006C6.58127 5.67865 7.35322 5.67865 7.82934 6.12006L11.6611 9.67242C12.1372 10.1138 12.1372 10.8295 11.6611 11.2709C11.185 11.7123 10.413 11.7123 9.93689 11.2709L6.10514 7.71854C5.62902 7.27713 5.62902 6.56147 6.10514 6.12006Z" fill="#6754E2"/>
</svg>
