<svg width="26" height="26" viewBox="0 0 26 26" fill="none" xmlns="http://www.w3.org/2000/svg">
<path fill-rule="evenodd" clip-rule="evenodd" d="M3.16487 12.0151C2.89624 14.2265 3.41683 16.4612 4.63719 18.3351C5.85754 20.209 7.70146 21.6052 9.85211 22.2838C12.0028 22.9623 14.3259 22.8808 16.4222 22.0533C18.5186 21.2259 20.2573 19.704 21.3397 17.7493C22.422 15.7947 22.7804 13.5292 22.3532 11.3422C21.9261 9.15515 20.74 7.18316 18.9989 5.76505C17.6415 4.65946 16.0128 3.94433 14.2909 3.68282L14.2909 5.44637C14.2909 6.25184 13.6289 6.90481 12.8123 6.90481C11.9957 6.90481 11.3337 6.25184 11.3337 5.44637L11.3337 2.32113C11.3337 1.40768 12.0894 0.638664 13.0514 0.656559C15.9116 0.709768 18.6722 1.71623 20.8818 3.51584C23.1528 5.36556 24.6998 7.93772 25.257 10.7903C25.8142 13.643 25.3467 16.5979 23.935 19.1475C22.5232 21.6971 20.2553 23.6821 17.5209 24.7614C14.7865 25.8408 11.7564 25.947 8.9512 25.062C6.146 24.1769 3.74089 22.3558 2.14912 19.9116C0.557351 17.4673 -0.121681 14.5526 0.228699 11.6681C0.579078 8.78364 1.93699 6.10961 4.06911 4.10547C4.66027 3.54979 5.59619 3.57203 6.15954 4.15514C6.72289 4.73825 6.70034 5.66142 6.10918 6.2171C4.47456 7.7536 3.43349 9.80369 3.16487 12.0151Z" fill="#05164D"/>
<path fill-rule="evenodd" clip-rule="evenodd" d="M7.54244 7.74748C8.11987 7.17792 9.05605 7.17792 9.63348 7.74748L14.2805 12.3312C14.8579 12.9007 14.8579 13.8242 14.2805 14.3937C13.703 14.9633 12.7668 14.9633 12.1894 14.3937L7.54244 9.81003C6.96502 9.24048 6.96502 8.31704 7.54244 7.74748Z" fill="#5D2BFF"/>
</svg>
