<svg width="19" height="18" viewBox="0 0 19 18" fill="none" xmlns="http://www.w3.org/2000/svg">
<path fill-rule="evenodd" clip-rule="evenodd" d="M12.7325 1.5033C12.3448 1.82268 11.911 2.08068 11.4467 2.26981C10.834 2.51786 10.1791 2.64559 9.5185 2.64477C8.8546 2.64642 8.19564 2.51784 7.58038 2.2665C7.11359 2.0757 6.67896 1.81522 6.2905 1.49253C6.20885 1.52821 6.1272 1.56554 6.0439 1.60452C5.83771 1.70241 5.63565 1.80859 5.43607 1.92307C5.4237 1.92971 5.41133 1.93634 5.39896 1.94298C5.22329 2.04585 5.04844 2.15866 4.87278 2.2806C4.8068 2.32622 4.74082 2.37434 4.67402 2.42411C4.75731 2.92268 4.76391 3.43119 4.69546 3.93225C4.60474 4.59589 4.38619 5.2363 4.05216 5.81616C3.71898 6.40017 3.27609 6.91284 2.74744 7.32512C2.34745 7.63705 1.90209 7.88507 1.42787 8.06093C1.35447 8.67895 1.35282 9.30361 1.42292 9.92244C1.89796 10.0983 2.34332 10.3463 2.74331 10.6582C3.81134 11.4919 4.51236 12.7139 4.6971 14.0618C4.76555 14.5662 4.75565 15.0789 4.66906 15.5807C5.1672 15.9507 5.70575 16.261 6.27399 16.5073C6.66328 16.1822 7.09956 15.9184 7.56799 15.7259C8.81498 15.2132 10.2114 15.2116 11.46 15.7201C11.9268 15.9117 12.3614 16.173 12.7499 16.4965C12.8249 16.4634 12.9 16.4293 12.975 16.3928C13.1738 16.2983 13.3692 16.1954 13.5614 16.0834C13.5738 16.0768 13.5861 16.0702 13.5985 16.0635C13.7799 15.9565 13.9606 15.8404 14.142 15.7143V15.7126C14.2162 15.6604 14.2896 15.6073 14.3614 15.5534H14.3622C14.2797 15.0548 14.2731 14.5463 14.3424 14.046C14.434 13.3841 14.6533 12.7453 14.9865 12.1671C14.994 12.1538 15.0022 12.1414 15.0105 12.1281V12.1289C15.3371 11.569 15.7659 11.0754 16.2739 10.6756C16.6682 10.3653 17.1061 10.1164 17.5737 9.93725C17.6479 9.31094 17.6479 8.67715 17.5737 8.05002C17.1061 7.87083 16.6681 7.62197 16.2739 7.31171C15.7544 6.90191 15.3173 6.39505 14.9882 5.81935H14.9874C14.655 5.24365 14.4373 4.60904 14.3441 3.95037C14.274 3.45262 14.2797 2.94743 14.3606 2.45136C14.109 2.26223 13.8468 2.08886 13.5754 1.93124C13.3033 1.77196 13.0211 1.62938 12.7325 1.5033ZM9.50277 3.57801C11.1803 3.57801 12.7622 4.36276 13.7839 5.70083C14.8049 7.03973 15.1496 8.78013 14.715 10.4102C14.2812 12.0403 13.1183 13.3742 11.5679 14.0205C10.0182 14.6659 8.25735 14.5505 6.80498 13.7061C5.35181 12.8624 4.37127 11.3874 4.15275 9.71422C3.93337 8.04101 4.50078 6.36118 5.68675 5.16748C6.69788 4.14795 8.07109 3.57635 9.50277 3.57801ZM12.344 6.14722C13.2281 7.0365 13.6504 8.28744 13.4871 9.53339C13.3238 10.7794 12.5939 11.8785 11.5118 12.5074C10.4298 13.1353 9.11929 13.2216 7.96462 12.7413C6.80999 12.2602 5.94403 11.2664 5.62001 10.0528C5.29672 8.83827 5.55321 7.54259 6.31362 6.54532C7.07485 5.5482 8.25338 4.96337 9.50275 4.96337C10.5683 4.96254 11.591 5.38819 12.344 6.14722ZM11.6281 6.78018L11.6289 6.77935C11.9555 6.97346 12.0636 7.39738 11.8706 7.72586C11.6776 8.0552 11.2562 8.16387 10.9296 7.96974L10.1906 7.53008V11.6961C10.1906 12.0785 9.88218 12.3879 9.50197 12.3879C9.12177 12.3879 8.81333 12.0785 8.81333 11.6961V7.52923L8.07437 7.96889C7.74777 8.16301 7.32633 8.05434 7.13336 7.72584C6.93954 7.3965 7.04841 6.9726 7.375 6.7785L9.14075 5.7258H9.14157C9.15972 5.71502 9.17868 5.70424 9.19765 5.69511L9.21085 5.6893L9.21662 5.68682L9.22404 5.6835L9.23559 5.67852L9.23477 5.67769C9.31641 5.64368 9.40384 5.62543 9.49209 5.6246H9.50776H9.50694C9.59518 5.62543 9.6826 5.64368 9.76426 5.67769L9.77581 5.68267L9.78323 5.68599L9.78901 5.68848L9.8022 5.69428L9.80138 5.69511C9.82035 5.70424 9.83932 5.71419 9.85746 5.7258L11.624 6.7785L11.6281 6.78018ZM10.9354 0.987487C11.3733 0.809962 11.7716 0.546999 12.1073 0.212693C12.297 0.0227258 12.5791 -0.0386628 12.8306 0.0559078C13.8211 0.426719 14.7423 0.961774 15.5571 1.63869C15.7633 1.81041 15.8516 2.08665 15.7839 2.34712C15.6635 2.80753 15.6363 3.28783 15.7031 3.75901C15.7716 4.24097 15.9316 4.70469 16.174 5.12528H16.1732L16.174 5.12694C16.4157 5.54919 16.7357 5.92083 17.1167 6.22111C17.4887 6.51477 17.9159 6.72962 18.3711 6.8549V6.85655C18.6309 6.92707 18.8255 7.14359 18.8693 7.40987C19.0416 8.44681 19.0433 9.50533 18.8759 10.5431C18.842 10.8243 18.6416 11.0558 18.3703 11.1288C17.9151 11.2532 17.4895 11.4681 17.1175 11.7609C16.7464 12.0537 16.4322 12.4138 16.193 12.8227C16.1872 12.8343 16.1806 12.8468 16.174 12.8584C15.9299 13.2815 15.7699 13.7485 15.7023 14.2338C15.6371 14.7017 15.6652 15.1778 15.7839 15.6349C15.8606 15.9004 15.7741 16.1858 15.5621 16.3616C15.3576 16.5317 15.1456 16.6934 14.9262 16.8469V16.8453L14.9246 16.8469C14.725 16.9863 14.513 17.1223 14.2879 17.2542C14.2755 17.2617 14.264 17.27 14.2508 17.2775C14.024 17.4094 13.7939 17.5305 13.5621 17.6408C13.3304 17.752 13.0928 17.8532 12.8504 17.9469C12.5972 18.0423 12.3118 17.9801 12.1213 17.7868C11.7848 17.4492 11.3848 17.182 10.9436 17.0029C10.0282 16.6329 9.0055 16.6329 8.08913 17.0029C7.64706 17.1837 7.24543 17.4533 6.90895 17.7943C6.71926 17.9876 6.4339 18.0514 6.17989 17.9569C5.2067 17.5919 4.29952 17.0701 3.49451 16.4106C3.26854 16.2397 3.16874 15.9477 3.2438 15.6739C3.3708 15.2094 3.40214 14.7233 3.33699 14.2463C3.27019 13.7577 3.10937 13.2865 2.86277 12.8601C2.61866 12.4312 2.29289 12.0546 1.90443 11.7518C1.5333 11.4606 1.10857 11.2474 0.654128 11.1238C0.380312 11.0624 0.170828 10.8393 0.125477 10.5606C-0.0435923 9.52116 -0.0419434 8.46016 0.13125 7.42076C0.175786 7.15199 0.373713 6.93463 0.63598 6.86578C1.09783 6.74301 1.52999 6.52731 1.90688 6.23283C2.68543 5.62311 3.19677 4.73217 3.33449 3.75006C3.39964 3.27555 3.36995 2.79193 3.24542 2.32904C3.17449 2.06607 3.26439 1.78485 3.47386 1.61231C3.66107 1.45801 3.86808 1.30206 4.09323 1.14527C4.28705 1.01089 4.49322 0.878988 4.71096 0.751229C4.72333 0.742934 4.73488 0.735468 4.74807 0.728001C4.9823 0.591955 5.219 0.467513 5.45817 0.353877C5.68332 0.246864 5.91837 0.147317 6.16248 0.0552484L6.16166 0.0560779C6.42063 -0.0559109 6.72164 0.00298651 6.91958 0.204568C7.25608 0.541358 7.65607 0.806815 8.09564 0.985181C8.54759 1.16851 9.03006 1.26225 9.51748 1.2606C10.0033 1.26226 10.4841 1.16935 10.9352 0.987666L10.9354 0.987487Z" fill="#5D2BFF"/>
</svg>
