<svg width="16" height="22" viewBox="0 0 16 22" fill="none" xmlns="http://www.w3.org/2000/svg">
<path d="M11.7077 9.28H4.29228C1.9252 9.28 0 11.3177 0 13.8227V16.7147C0 17.7844 0.822782 18.6543 1.83352 18.6543H4.21346C4.54085 20.5535 6.11194 22 8 22C9.88806 22 11.4593 20.5545 11.7865 18.6543H14.1665C15.1772 18.6543 16 17.7835 16 16.7147V13.8227C16 11.3185 14.0747 9.28 11.7077 9.28ZM7.99989 20.5325C6.64012 20.5325 5.53325 19.362 5.53325 17.922C5.53325 16.4829 6.63926 15.3114 7.99989 15.3114C9.35966 15.3114 10.4665 16.482 10.4665 17.922C10.4665 19.3611 9.36052 20.5325 7.99989 20.5325ZM14.6142 16.714C14.6142 16.9752 14.4133 17.1869 14.1665 17.1869H11.7865C11.4583 15.2895 9.88719 13.8449 8 13.8449C6.11365 13.8449 4.54249 15.2886 4.21346 17.1869H1.83352C1.58667 17.1869 1.38575 16.9743 1.38575 16.714V13.822C1.38575 12.1263 2.69009 10.7459 4.29228 10.7459H11.7077C13.31 10.7459 14.6142 12.1254 14.6142 13.822V16.714Z" fill="#5D2BFF"/>
<path d="M8.00864 8.15436C10.1323 8.15436 11.861 6.32567 11.861 4.07718C11.861 1.8296 10.1332 0 8.00864 0C5.88498 0 4.15625 1.82869 4.15625 4.07718C4.15625 6.32476 5.88412 8.15436 8.00864 8.15436ZM8.00864 1.46661C9.36841 1.46661 10.4753 2.63716 10.4753 4.07718C10.4753 5.51629 9.36927 6.68775 8.00864 6.68775C6.64887 6.68775 5.542 5.51721 5.542 4.07718C5.542 2.63807 6.64801 1.46661 8.00864 1.46661Z" fill="#5D2BFF"/>
<path d="M8.58234 16.404L7.5309 17.5168L7.40099 17.3793C7.13075 17.0933 6.69166 17.0933 6.42142 17.3793C6.15119 17.6653 6.15119 18.13 6.42142 18.416L7.04155 19.0723C7.17667 19.2153 7.35422 19.2868 7.53176 19.2868C7.70929 19.2868 7.886 19.2153 8.02196 19.0723L9.5636 17.4407C9.83383 17.1547 9.83383 16.69 9.5636 16.404C9.29337 16.118 8.85427 16.118 8.58404 16.404L8.58234 16.404Z" fill="#5D2BFF"/>
</svg>
