<svg width="30" height="30" viewBox="0 0 30 30" fill="none" xmlns="http://www.w3.org/2000/svg">
<g clip-path="url(#clip0_2309_20584)">
<path opacity="0.2" d="M30 15C30 6.71573 23.2843 0 15 0C6.71573 0 0 6.71573 0 15C0 23.2843 6.71573 30 15 30C23.2843 30 30 23.2843 30 15Z" fill="#5D2BFF"/>
<path d="M25 15C25 9.47715 20.5228 5 15 5C9.47715 5 5 9.47715 5 15C5 20.5228 9.47715 25 15 25C20.5228 25 25 20.5228 25 15Z" fill="#5D2BFF"/>
<path d="M10 15L13.333 18.333L20 11.667" stroke="white" stroke-width="2"/>
</g>
<defs>
<clipPath id="clip0_2309_20584">
<rect width="30" height="30" fill="white"/>
</clipPath>
</defs>
</svg>
