<svg width="127" height="31" viewBox="0 0 127 31" fill="none" xmlns="http://www.w3.org/2000/svg">
<g clip-path="url(#clip0_2629_45319)">
<path d="M33.3745 10.959H46.2337V13.3376H41.1775V26.7088H38.3971V13.3376H33.3633V10.959H33.3745ZM45.6843 15.3049H48.0611V17.5057H48.106C48.1844 17.1945 48.3302 16.8944 48.5432 16.6054C48.7562 16.3164 49.0141 16.0385 49.3168 15.8051C49.6195 15.5606 49.9558 15.3716 50.3258 15.216C50.6957 15.0715 51.0769 14.9937 51.4581 14.9937C51.7496 14.9937 51.9626 15.0048 52.0747 15.0159C52.1868 15.0271 52.2989 15.0493 52.4222 15.0604V17.4835C52.2429 17.4501 52.0635 17.4279 51.8729 17.4056C51.6823 17.3834 51.5029 17.3723 51.3236 17.3723C50.8975 17.3723 50.4939 17.4612 50.1127 17.6279C49.7316 17.7947 49.4064 18.0503 49.1262 18.3726C48.8459 18.7061 48.6217 19.1062 48.4535 19.5953C48.2853 20.0843 48.2069 20.6401 48.2069 21.2736V26.6977H45.6731V15.3049H45.6843ZM64.0706 26.7088H61.5818V25.1194H61.5369C61.223 25.6974 60.7633 26.1531 60.1467 26.4977C59.5301 26.8422 58.9023 27.0201 58.2633 27.0201C56.7498 27.0201 55.6511 26.6533 54.9784 25.9086C54.3057 25.1639 53.9694 24.0413 53.9694 22.5407V15.3049H56.5031V22.2962C56.5031 23.2966 56.6937 24.0079 57.0861 24.4192C57.4673 24.8304 58.0166 25.0416 58.7117 25.0416C59.2498 25.0416 59.6871 24.9638 60.0458 24.7971C60.4046 24.6304 60.6961 24.4192 60.9091 24.1413C61.1333 23.8745 61.2903 23.5411 61.3912 23.1632C61.4921 22.7853 61.5369 22.374 61.5369 21.9294V15.316H64.0706V26.7088ZM68.3869 23.052C68.4654 23.7856 68.7457 24.2969 69.2278 24.597C69.7211 24.886 70.304 25.0416 70.9879 25.0416C71.2234 25.0416 71.4924 25.0194 71.7951 24.986C72.0978 24.9527 72.3893 24.8749 72.6472 24.7748C72.9162 24.6748 73.1293 24.5192 73.3086 24.3191C73.4768 24.1191 73.5553 23.8634 73.5441 23.5411C73.5329 23.2188 73.4095 22.952 73.1853 22.7519C72.9611 22.5407 72.6808 22.3851 72.3333 22.2518C71.9857 22.1295 71.5933 22.0183 71.1449 21.9294C70.6964 21.8405 70.248 21.7405 69.7883 21.6404C69.3175 21.5404 68.8578 21.407 68.4206 21.2625C67.9833 21.118 67.5909 20.918 67.2434 20.6623C66.8959 20.4178 66.6156 20.0955 66.4138 19.7064C66.2008 19.3174 66.0999 18.8395 66.0999 18.2615C66.0999 17.6391 66.2568 17.1278 66.5595 16.7054C66.8622 16.283 67.2546 15.9496 67.7143 15.6939C68.1851 15.4383 68.7009 15.2605 69.2726 15.1493C69.8444 15.0493 70.3937 14.9937 70.9094 14.9937C71.5036 14.9937 72.0754 15.0604 72.6135 15.1827C73.1517 15.3049 73.645 15.505 74.0822 15.794C74.5194 16.0719 74.8782 16.4386 75.1697 16.8832C75.4612 17.3278 75.6406 17.8725 75.719 18.506H73.0732C72.9499 17.9058 72.6808 17.4946 72.2436 17.2945C71.8063 17.0833 71.3018 16.9833 70.7413 16.9833C70.5619 16.9833 70.3489 16.9944 70.1022 17.0277C69.8556 17.0611 69.6314 17.1167 69.4072 17.1945C69.1941 17.2723 69.0148 17.3945 68.8578 17.5501C68.7121 17.7057 68.6336 17.9058 68.6336 18.1615C68.6336 18.4727 68.7457 18.7172 68.9587 18.9062C69.1717 19.0951 69.452 19.2507 69.7995 19.3841C70.1471 19.5064 70.5395 19.6175 70.9879 19.7064C71.4364 19.7954 71.896 19.8954 72.3669 19.9954C72.8266 20.0955 73.275 20.2288 73.7234 20.3733C74.1719 20.5178 74.5643 20.7179 74.9118 20.9735C75.2594 21.2292 75.5397 21.5404 75.7527 21.9183C75.9657 22.2962 76.0778 22.7742 76.0778 23.3299C76.0778 24.0079 75.9208 24.5748 75.6069 25.0527C75.293 25.5195 74.8894 25.9086 74.3961 26.1976C73.9028 26.4865 73.3423 26.7088 72.7369 26.8422C72.1315 26.9756 71.5261 27.0423 70.9319 27.0423C70.2031 27.0423 69.5305 26.9645 68.9139 26.7978C68.2972 26.631 67.7591 26.3865 67.3107 26.0642C66.8622 25.7307 66.5035 25.3195 66.2456 24.8304C65.9878 24.3414 65.8532 23.7523 65.8308 23.0743H68.3869V23.052ZM76.7505 15.3049H78.6676V11.8815H81.2013V15.3049H83.4884V17.1833H81.2013V23.2743C81.2013 23.5411 81.2125 23.7634 81.2349 23.9635C81.2573 24.1524 81.3134 24.3191 81.3919 24.4525C81.4704 24.5859 81.5937 24.6859 81.7618 24.7526C81.93 24.8193 82.143 24.8527 82.4345 24.8527C82.6139 24.8527 82.7933 24.8527 82.9726 24.8415C83.152 24.8304 83.3314 24.8082 83.5108 24.7637V26.7088C83.2305 26.7422 82.9502 26.7644 82.6924 26.7978C82.4233 26.8311 82.1542 26.8422 81.874 26.8422C81.2013 26.8422 80.6632 26.7755 80.2596 26.6533C79.856 26.531 79.5308 26.3421 79.3066 26.0975C79.0712 25.853 78.9254 25.5529 78.8357 25.1861C78.7573 24.8193 78.7012 24.3969 78.69 23.9301V17.2056H76.7729V15.3049H76.7505ZM85.2822 15.3049H87.6813V16.8499H87.7262C88.0849 16.183 88.5782 15.7162 89.2173 15.4272C89.8563 15.1382 90.5402 14.9937 91.2913 14.9937C92.1994 14.9937 92.9842 15.1493 93.6569 15.4716C94.3296 15.7829 94.8901 16.2163 95.3386 16.7721C95.787 17.3278 96.1121 17.9725 96.3363 18.7061C96.5606 19.4397 96.6727 20.2288 96.6727 21.0625C96.6727 21.8294 96.5718 22.5741 96.37 23.2854C96.1682 24.0079 95.8655 24.6415 95.4619 25.1972C95.0583 25.753 94.5426 26.1864 93.9147 26.5199C93.2869 26.8533 92.5582 27.0201 91.7061 27.0201C91.3362 27.0201 90.9662 26.9867 90.5962 26.92C90.2263 26.8533 89.8675 26.7422 89.5312 26.5977C89.1948 26.4532 88.8697 26.2642 88.5894 26.0308C88.298 25.7974 88.0625 25.5307 87.8607 25.2306H87.8159V30.9214H85.2822V15.3049ZM94.139 21.018C94.139 20.5067 94.0717 20.0065 93.9372 19.5175C93.8026 19.0284 93.6008 18.6061 93.3318 18.2282C93.0627 17.8502 92.7264 17.5501 92.334 17.3278C91.9304 17.1055 91.4707 16.9833 90.955 16.9833C89.8899 16.9833 89.0827 17.3501 88.5446 18.0837C88.0065 18.8172 87.7374 19.7954 87.7374 21.018C87.7374 21.596 87.8047 22.1295 87.9504 22.6185C88.0962 23.1076 88.298 23.53 88.5894 23.8857C88.8697 24.2413 89.2061 24.5192 89.5984 24.7193C89.9908 24.9305 90.4505 25.0305 90.9662 25.0305C91.5492 25.0305 92.0313 24.9082 92.4349 24.6748C92.8385 24.4414 93.1636 24.1302 93.4214 23.7634C93.6793 23.3855 93.8699 22.9631 93.982 22.4852C94.0829 22.0072 94.139 21.5182 94.139 21.018ZM98.6122 10.959H101.146V13.3376H98.6122V10.959ZM98.6122 15.3049H101.146V26.7088H98.6122V15.3049ZM103.411 10.959H105.944V26.7088H103.411V10.959ZM113.714 27.0201C112.794 27.0201 111.976 26.8645 111.258 26.5643C110.541 26.2642 109.935 25.8419 109.431 25.3195C108.938 24.786 108.557 24.1524 108.299 23.4188C108.041 22.6852 107.906 21.8738 107.906 20.9958C107.906 20.1288 108.041 19.3285 108.299 18.5949C108.557 17.8614 108.938 17.2278 109.431 16.6943C109.924 16.1608 110.541 15.7495 111.258 15.4494C111.976 15.1493 112.794 14.9937 113.714 14.9937C114.633 14.9937 115.451 15.1493 116.169 15.4494C116.886 15.7495 117.492 16.1719 117.996 16.6943C118.49 17.2278 118.871 17.8614 119.129 18.5949C119.386 19.3285 119.521 20.1288 119.521 20.9958C119.521 21.8738 119.386 22.6852 119.129 23.4188C118.871 24.1524 118.49 24.786 117.996 25.3195C117.503 25.853 116.886 26.2642 116.169 26.5643C115.451 26.8645 114.633 27.0201 113.714 27.0201ZM113.714 25.0305C114.274 25.0305 114.768 24.9082 115.182 24.6748C115.597 24.4414 115.933 24.1302 116.203 23.7523C116.472 23.3744 116.662 22.9409 116.797 22.4629C116.92 21.985 116.987 21.4959 116.987 20.9958C116.987 20.5067 116.92 20.0288 116.797 19.5397C116.673 19.0507 116.472 18.6283 116.203 18.2504C115.933 17.8725 115.597 17.5724 115.182 17.339C114.768 17.1055 114.274 16.9833 113.714 16.9833C113.153 16.9833 112.66 17.1055 112.245 17.339C111.83 17.5724 111.494 17.8836 111.225 18.2504C110.956 18.6283 110.765 19.0507 110.631 19.5397C110.507 20.0288 110.44 20.5067 110.44 20.9958C110.44 21.4959 110.507 21.985 110.631 22.4629C110.754 22.9409 110.956 23.3744 111.225 23.7523C111.494 24.1302 111.83 24.4414 112.245 24.6748C112.66 24.9193 113.153 25.0305 113.714 25.0305ZM120.261 15.3049H122.178V11.8815H124.712V15.3049H126.999V17.1833H124.712V23.2743C124.712 23.5411 124.723 23.7634 124.745 23.9635C124.768 24.1524 124.824 24.3191 124.902 24.4525C124.981 24.5859 125.104 24.6859 125.272 24.7526C125.441 24.8193 125.654 24.8527 125.945 24.8527C126.124 24.8527 126.304 24.8527 126.483 24.8415C126.663 24.8304 126.842 24.8082 127.021 24.7637V26.7088C126.741 26.7422 126.461 26.7644 126.203 26.7978C125.934 26.8311 125.665 26.8422 125.384 26.8422C124.712 26.8422 124.174 26.7755 123.77 26.6533C123.366 26.531 123.041 26.3421 122.817 26.0975C122.582 25.853 122.436 25.5529 122.346 25.1861C122.268 24.8193 122.212 24.3969 122.201 23.9301V17.2056H120.283V15.3049H120.261Z" fill="#191919"/>
<path d="M30.4159 10.9593H18.8011L15.2135 0L11.6148 10.9593L0 10.9482L9.40616 17.7283L5.80738 28.6765L15.2135 21.9075L24.6085 28.6765L21.0209 17.7283L30.4159 10.9593Z" fill="#00B67A"/>
<path d="M21.8294 20.2071L21.0222 17.7285L15.2148 21.9077L21.8294 20.2071Z" fill="#005128"/>
</g>
<defs>
<clipPath id="clip0_2629_45319">
<rect width="127" height="30.9217" fill="white"/>
</clipPath>
</defs>
</svg>
