<svg width="125" height="5" viewBox="0 0 125 5" fill="none" xmlns="http://www.w3.org/2000/svg">
<path d="M24.9197 2.99735C27.6799 2.90578 30.6021 2.80884 33.6411 2.72451C22.0557 2.78387 11.9019 2.79739 5.33218 2.61638C3.39575 2.56304 2.1426 2.52262 1.37338 2.48543C0.989266 2.46686 0.723231 2.44898 0.552366 2.43041C0.467804 2.42122 0.401664 2.41136 0.354783 2.39992C0.332397 2.39445 0.306587 2.38683 0.283748 2.37485C0.272384 2.36889 0.255124 2.35847 0.239359 2.34128C0.222547 2.32294 0.203125 2.29167 0.203125 2.24933C0.203125 2.19776 0.230749 2.16204 0.252916 2.14293C0.273347 2.12531 0.295695 2.1154 0.311285 2.10956C0.343365 2.09755 0.384016 2.08954 0.429103 2.08319C0.52182 2.07015 0.666654 2.05993 0.880877 2.05189C1.31107 2.03573 2.03843 2.02783 3.22883 2.02808C5.61056 2.02859 9.8537 2.0618 17.2992 2.12799C18.6381 2.13989 19.9637 2.14965 21.2766 2.15744C21.8931 2.14744 22.5188 2.13717 23.1527 2.12676C31.2753 1.99344 40.7598 1.83775 49.8819 1.94044C51.313 1.95655 52.7262 1.97879 54.1275 2.00607C58.1259 1.95466 62.0252 1.89707 65.8527 1.84054C67.6243 1.81437 69.3805 1.78843 71.1241 1.76344C64.5128 1.53687 57.9878 1.33604 51.2571 1.24913C41.3502 1.1212 32.4992 1.23665 25.266 1.35138C24.479 1.36386 23.7112 1.37633 22.9632 1.38849C16.8377 1.488 12.0414 1.56593 8.97805 1.44911C7.44201 1.39054 6.2946 1.34375 5.53516 1.30924C5.15554 1.29199 4.87235 1.27779 4.68588 1.2667C4.59288 1.26116 4.5228 1.25634 4.47654 1.25222C4.45404 1.25022 4.43439 1.24814 4.41991 1.24588L4.41984 1.24587C4.41474 1.24507 4.40151 1.24299 4.38811 1.23839C4.38413 1.23703 4.37705 1.23441 4.36885 1.23005C4.36292 1.2269 4.34421 1.21667 4.32794 1.19563C4.30701 1.16856 4.28992 1.12092 4.31175 1.06969C4.32784 1.03193 4.35675 1.01461 4.36458 1.01008C4.38278 0.999542 4.39994 0.99596 4.40345 0.995227L4.40381 0.995151C4.41018 0.993794 4.41589 0.993008 4.41978 0.992537C4.4278 0.991566 4.43647 0.990948 4.4446 0.9905C4.46129 0.98958 4.48347 0.988973 4.51023 0.988588C4.56415 0.987812 4.64195 0.987874 4.74303 0.98874C4.94547 0.990474 5.24444 0.995468 5.63951 1.00376C6.42981 1.02036 7.60638 1.05021 9.16822 1.09379C14.3774 1.23912 21.1561 1.14261 28.8454 1.03314L29.2817 1.02693C37.1496 0.914993 45.9475 0.794136 54.973 0.906767C62.7901 1.00433 70.1597 1.27751 77.8044 1.5609C78.5654 1.58911 79.3291 1.61742 80.0963 1.64567C85.5873 1.58281 90.9876 1.54275 96.3783 1.54957C105.985 1.5617 114.238 2.11652 117.624 2.38488C119.95 2.39594 121.581 2.40527 121.907 2.40995C122.694 2.42127 123.292 2.43763 123.699 2.45663C123.901 2.46611 124.058 2.47633 124.167 2.48709C124.221 2.49243 124.266 2.49815 124.3 2.50448C124.317 2.50759 124.334 2.51144 124.35 2.51655C124.358 2.51909 124.368 2.52282 124.378 2.52829C124.387 2.5328 124.407 2.54357 124.424 2.56421C124.444 2.58908 124.463 2.63275 124.448 2.68374C124.435 2.72461 124.407 2.74635 124.396 2.75398C124.373 2.77014 124.348 2.7773 124.336 2.78038C124.307 2.7883 124.268 2.79449 124.222 2.79989C124.13 2.81098 123.989 2.82146 123.802 2.83123C123.427 2.85083 122.856 2.86805 122.088 2.88051C120.834 2.90088 118.963 2.84582 116.607 2.75327C114.907 2.74368 112.536 2.73329 109.954 2.72463C97.7814 2.68379 87.0757 2.32112 76.7707 1.96021C71.6122 2.01195 66.5604 2.09852 61.4191 2.19012C62.7086 2.22904 63.997 2.27071 65.2896 2.31424C65.2903 2.31426 65.2911 2.31429 65.2918 2.31432C70.2795 2.303 75.2009 2.30464 79.9179 2.32901C86.0919 2.3609 89.2378 2.37881 89.4796 2.3875L89.4804 2.38752C89.4857 2.38772 89.4971 2.38812 89.5062 2.38938C89.5084 2.3897 89.5137 2.39064 89.517 2.39135C89.5231 2.39286 89.5429 2.40017 89.556 2.40732C89.5938 2.44395 89.6064 2.55882 89.5667 2.61204C89.5504 2.62285 89.5256 2.63328 89.5184 2.6352C89.5091 2.6374 89.5013 2.63808 89.5004 2.63815L89.4935 2.63869C89.4822 2.63938 89.4598 2.63982 89.4306 2.6402C89.3694 2.641 89.2632 2.64166 89.1127 2.64219C88.8114 2.64325 88.3308 2.6438 87.673 2.64392C86.3573 2.64415 84.3322 2.64264 81.6142 2.63998C79.2369 2.63765 76.9503 2.64054 74.7474 2.64786C77.3536 2.73983 80.0206 2.83074 82.7855 2.9141C90.2402 3.03741 97.6186 3.16779 103.72 3.27561L104.693 3.29281C104.694 3.29281 104.694 3.29282 104.694 3.29282C104.929 3.29355 105.165 3.29413 105.402 3.29463C112.136 3.30864 118.057 3.33218 118.557 3.34703C118.862 3.3561 119.092 3.36855 119.247 3.38304C119.323 3.39021 119.385 3.39822 119.429 3.40746C119.45 3.41181 119.474 3.41791 119.495 3.42749C119.505 3.43192 119.524 3.44116 119.541 3.4583C119.56 3.47665 119.59 3.51767 119.58 3.57501C119.571 3.62426 119.538 3.65115 119.526 3.66032C119.511 3.67147 119.496 3.67815 119.486 3.68202C119.465 3.69005 119.442 3.69576 119.42 3.70021C119.374 3.70944 119.31 3.71773 119.231 3.72533C119.072 3.74064 118.837 3.75436 118.528 3.76512L118.524 3.6402L118.528 3.76512C118.121 3.77933 112.577 3.68213 104.692 3.54283C104.692 3.54283 104.692 3.54282 104.692 3.54282C96.5013 3.51806 89.363 3.36249 82.7797 3.16403C73.8383 3.01613 64.7876 2.87845 57.6993 2.80212C57.6988 2.80211 57.6983 2.80211 57.6977 2.8021C50.6866 2.90611 44.6525 3.04465 39.1623 3.1707C31.0075 3.35793 24.0528 3.51761 16.8792 3.49563C16.8786 3.49563 16.878 3.49563 16.8774 3.49562C16.4356 3.50695 16.0009 3.51744 15.5738 3.52698C23.4757 3.68027 33.7459 3.5981 44.1956 3.51449C53.54 3.43972 63.0279 3.36381 71.0943 3.45408C80.7985 3.56271 84.4072 3.58675 91.2024 3.588C93.0104 3.58833 94.653 3.84727 95.8432 4.1071C96.4385 4.23706 96.9212 4.36736 97.2556 4.46596C97.4227 4.51526 97.553 4.55667 97.6419 4.58622C97.6862 4.60097 97.7206 4.61287 97.7442 4.62138C97.7559 4.62559 97.7657 4.62922 97.773 4.6321C97.7764 4.63344 97.7807 4.63519 97.7849 4.63707C97.7866 4.63781 97.791 4.63982 97.7961 4.64267C97.7981 4.64379 97.8045 4.64739 97.8119 4.65308C97.816 4.65636 97.826 4.66568 97.8316 4.67197C97.8405 4.68405 97.8573 4.72347 97.8607 4.75166L97.8608 4.75166C97.861 4.80157 97.8333 4.83401 97.8158 4.84867C97.7996 4.86235 97.7837 4.86864 97.777 4.87109C97.7626 4.87638 97.7498 4.87813 97.7449 4.87875C97.7328 4.88032 97.72 4.8807 97.7098 4.88082C97.6879 4.88107 97.6579 4.88017 97.6219 4.87849C97.549 4.8751 97.4426 4.86809 97.3065 4.85805C97.034 4.83794 96.6381 4.80536 96.1443 4.76424L95.824 4.73753C94.8671 4.6577 93.6104 4.55285 92.1964 4.44522C89.0398 4.20495 85.1029 3.9511 81.9729 3.93077C75.8498 3.891 67.7478 3.94974 58.9973 4.01318C44.8633 4.11565 29.0375 4.23039 17.1256 3.96208C11.9682 3.84591 8.6153 3.76023 6.62229 3.68919C5.62642 3.65369 4.96776 3.62176 4.59287 3.59133C4.4103 3.57652 4.28223 3.56125 4.21732 3.54267C4.20318 3.53863 4.17481 3.52999 4.15011 3.51125C4.13769 3.50183 4.11034 3.47805 4.10003 3.43604C4.08783 3.38634 4.10699 3.34528 4.12611 3.32184C4.14259 3.30163 4.16144 3.2905 4.17108 3.28532C4.18231 3.2793 4.1933 3.275 4.20222 3.27192C4.22007 3.26575 4.24021 3.26088 4.26021 3.2568L4.26023 3.25679C4.35317 3.23786 4.52956 3.2256 4.87747 3.21716C5.22966 3.20861 5.7675 3.20393 6.59147 3.20297C8.23973 3.20105 11.037 3.21401 15.7932 3.2409C16.1538 3.24294 16.5135 3.2445 16.8728 3.24561C16.8734 3.24561 16.874 3.24561 16.8746 3.24561C19.3465 3.18223 22.0452 3.0927 24.9197 2.99735ZM4.28156 3.30084C4.28152 3.30085 4.28203 3.30106 4.28322 3.30145L4.28156 3.30084Z" fill="#27C26C" stroke="#27C26C" stroke-width="0.25"/>
</svg>
