<svg width="11" height="11" viewBox="0 0 11 11" fill="none" xmlns="http://www.w3.org/2000/svg">
<g clip-path="url(#clip0_375_4265)">
<path d="M9.9762 5.16841L6.41287 1.60507L6.41164 1.60384L6.41165 1.60383C6.28845 1.47628 6.28846 1.27406 6.41164 1.14649L6.41165 1.14648C6.53795 1.01574 6.74634 1.01208 6.8771 1.13841L6.87835 1.13961L6.87834 1.13962L11.0032 5.26452L9.9762 5.16841ZM9.9762 5.16841H0.229174H0.229157C0.0473804 5.16844 -0.1 5.3158 -0.1 5.4976C-0.1 5.67939 0.0473807 5.82677 0.229174 5.82677H9.9762L6.41387 9.38911C6.28382 9.51547 6.28041 9.72332 6.40649 9.85387L6.4065 9.85388C6.5328 9.98463 6.74116 9.98823 6.87193 9.86197L6.87195 9.86195L6.8788 9.8551L6.87881 9.85511L11.0038 5.73011L11.004 5.72993C11.0344 5.69941 11.0585 5.66322 11.075 5.62333C11.1259 5.50027 11.0976 5.35868 11.0033 5.26462L9.9762 5.16841Z" fill="#5D2BFF" stroke="#5D2BFF" stroke-width="0.2"/>
</g>
<defs>
<clipPath id="clip0_375_4265">
<rect width="11" height="11" fill="white"/>
</clipPath>
</defs>
</svg>
