<svg width="14" height="14" viewBox="0 0 14 14" fill="none" xmlns="http://www.w3.org/2000/svg">
<g clip-path="url(#clip0_2629_49993)">
<path d="M8.19147 0.9446L8.19145 0.94462L13.0663 6.15494L13.0665 6.15513L12.9204 6.29177C12.998 6.37449 13.0213 6.49906 12.9795 6.60731L8.19147 0.9446ZM8.19147 0.9446L8.18907 0.942119C8.00064 0.747566 7.6952 0.753849 7.51406 0.954266L7.51403 0.954294C7.34388 1.14262 7.34386 1.43633 7.51405 1.62465L7.51403 1.62467L7.51639 1.6272L11.6144 6.00724H0.270843H0.270806C-0.00152008 6.00729 -0.2 6.23916 -0.2 6.49675C-0.2 6.75433 -0.00152062 6.98623 0.270843 6.98623H11.6144L7.51799 11.3646C7.33821 11.5516 7.33411 11.8533 7.50795 12.0457L7.50796 12.0457C7.68913 12.2462 7.99452 12.2524 8.18294 12.0579L8.183 12.0579L8.19198 12.0483L8.19201 12.0483L13.067 6.83777L13.0674 6.8374C13.1101 6.79152 13.1434 6.73779 13.166 6.67945L8.19147 0.9446Z" fill="white" stroke="white" stroke-width="0.4"/>
</g>
<defs>
<clipPath id="clip0_2629_49993">
<rect width="14" height="14" fill="white"/>
</clipPath>
</defs>
</svg>
