<svg width="271" height="100" viewBox="0 0 271 100" fill="none" xmlns="http://www.w3.org/2000/svg">
<circle cx="50" cy="50" r="50" fill="white"/>
<path fill-rule="evenodd" clip-rule="evenodd" d="M32.3733 47.446C31.8963 51.4265 32.8207 55.4488 34.9875 58.8219C37.1544 62.195 40.4284 64.7082 44.247 65.9295C48.0657 67.1509 52.1905 67.0042 55.9128 65.5147C59.6351 64.0253 62.7223 61.286 64.6442 57.7675C66.566 54.2491 67.2023 50.1712 66.4438 46.2347C65.6853 42.298 63.5794 38.7484 60.4879 36.1958C58.0777 34.2057 55.1858 32.9185 52.1284 32.4478V35.6222C52.1284 37.0721 50.953 38.2474 49.503 38.2474C48.0531 38.2474 46.8777 37.0721 46.8777 35.6222V29.9968C46.8777 28.3526 48.2195 26.9683 49.9277 27.0006C55.0062 27.0963 59.9079 28.9079 63.8311 32.1473C67.8635 35.4767 70.6104 40.1066 71.5997 45.2413C72.589 50.3761 71.759 55.695 69.2523 60.2843C66.7457 64.8735 62.7187 68.4465 57.8636 70.3893C53.0085 72.3321 47.6283 72.5234 42.6474 70.9303C37.6665 69.3373 33.396 66.0592 30.5697 61.6596C27.7434 57.2599 26.5377 52.0133 27.1599 46.8213C27.782 41.6293 30.1931 36.8161 33.9788 33.2086C35.0285 32.2084 36.6903 32.2484 37.6906 33.298C38.6908 34.3476 38.6508 36.0093 37.6011 37.0095C34.6987 39.7753 32.8502 43.4654 32.3733 47.446Z" fill="#05164D"/>
<path fill-rule="evenodd" clip-rule="evenodd" d="M40.1458 39.766C41.1711 38.7408 42.8334 38.7408 43.8587 39.766L52.1098 48.0166C53.1351 49.0418 53.1351 50.704 52.1098 51.7293C51.0846 52.7544 49.4222 52.7544 48.3969 51.7293L40.1458 43.4786C39.1207 42.4534 39.1207 40.7912 40.1458 39.766Z" fill="#5D2BFF"/>
<path d="M137.204 48.384H144.008V52.236H137.204V59.004H133.352V52.236H126.548V48.384H133.352V41.544H137.204V48.384Z" fill="white"/>
<circle cx="221" cy="50" r="50" fill="white"/>
<g clip-path="url(#clip0_728_2831)">
<path d="M252 43.4814V57.9173L250 59.8669V45.741L252 43.4814Z" fill="#E79225"/>
<path d="M238.881 43.4939L236.809 45.741L236.916 45.8849L249.914 45.8365L250.033 45.741L251.999 43.4814L238.881 43.4939Z" fill="#FFF16D"/>
<path d="M236.809 45.7412H250.033V59.8796H236.809V45.7412Z" fill="url(#paint0_linear_728_2831)"/>
<path d="M248.022 50.8302C247.756 50.1702 247.359 49.5713 246.853 49.0701C246.387 48.582 245.823 48.1973 245.198 47.9411C244.591 47.692 243.935 47.5605 243.219 47.5605C242.504 47.5605 241.838 47.692 241.23 47.9411C240.605 48.198 240.042 48.5826 239.575 49.0701C239.062 49.5821 238.681 50.1757 238.419 50.8302C238.157 51.4847 238.037 52.1972 238.037 52.9832C238.037 53.7442 238.169 54.4568 238.431 55.1237C238.692 55.7893 239.074 56.3842 239.586 56.9073C240.063 57.3957 240.61 57.7624 241.219 58.0128C241.828 58.2633 242.505 58.3933 243.232 58.3933C243.935 58.3933 244.589 58.2619 245.198 58.0128C245.806 57.7638 246.367 57.3957 246.853 56.9073C247.366 56.3842 247.758 55.7893 248.022 55.1362C248.283 54.4817 248.414 53.7566 248.414 52.9956C248.423 52.2554 248.29 51.5203 248.022 50.8302ZM245.294 55.4918C244.781 56.0978 244.103 56.4064 243.219 56.4064C242.338 56.4064 241.647 56.0965 241.134 55.4918C240.623 54.8857 240.372 54.0403 240.372 52.9707C240.372 51.8762 240.634 51.0322 241.134 50.4137C241.647 49.7952 242.325 49.4977 243.219 49.4977C244.103 49.4977 244.781 49.8076 245.294 50.4137C245.793 51.0322 246.056 51.8762 246.056 52.9707C246.056 54.0417 245.805 54.8857 245.294 55.4918Z" fill="white"/>
<path d="M235.511 42.3057V42.3776L237.202 55.3495L236.214 58.0851L236.082 57.991L234.342 45.5531L234.378 45.3857L235.462 42.3776L235.511 42.3057Z" fill="#009ADA"/>
<path d="M222.489 44.1127L235.513 42.3057L234.416 45.4203L234.262 45.5877L222.086 47.3713L222.146 45.1477L222.489 44.1127Z" fill="#91C9ED"/>
<path d="M234.414 45.4199L236.214 58.0833L223.381 59.8793L221.654 47.6435L222.406 47.061L234.414 45.4199Z" fill="url(#paint1_linear_728_2831)"/>
<path d="M232.235 47.8473C232.175 47.4544 232.043 47.1569 231.83 46.9549C231.652 46.7985 231.422 46.7136 231.185 46.7169C231.126 46.7169 231.055 46.7169 230.983 46.728C230.649 46.7764 230.399 46.93 230.244 47.1804C230.125 47.3589 230.077 47.5845 230.077 47.846C230.077 47.9401 230.09 48.048 230.102 48.1545L230.567 51.4477L226.873 51.9942L226.409 48.7011C226.349 48.3206 226.218 48.0231 226.003 47.8211C225.833 47.6592 225.607 47.5699 225.372 47.572C225.312 47.572 225.253 47.572 225.193 47.5831C224.848 47.6315 224.586 47.7851 224.418 48.0355C224.299 48.214 224.252 48.4395 224.252 48.7011C224.252 48.7965 224.264 48.9031 224.275 49.0221L225.538 57.5953C225.598 57.9883 225.73 58.2858 225.968 58.4878C226.151 58.6427 226.385 58.7232 226.624 58.7133C226.696 58.7133 226.768 58.7133 226.838 58.7022C226.983 58.6859 227.123 58.6367 227.247 58.5583C227.371 58.4799 227.476 58.3744 227.553 58.2498C227.663 58.0542 227.717 57.832 227.708 57.6078C227.708 57.5137 227.695 57.4058 227.683 57.2978L227.172 53.9092L230.865 53.3613L231.376 56.7499C231.436 57.1429 231.568 57.4404 231.794 57.6313C231.971 57.7869 232.201 57.8717 232.437 57.8693C232.497 57.8693 232.569 57.8693 232.64 57.8568C232.789 57.8424 232.933 57.7942 233.061 57.7157C233.189 57.6373 233.298 57.5309 233.378 57.4044C233.493 57.2057 233.551 56.9792 233.545 56.7499C233.545 56.6558 233.532 56.5479 233.52 56.4413L232.235 47.8473Z" fill="white"/>
<path d="M210.301 39L205.666 49.9878L206.297 54.8154L206.333 54.8029L211.538 43.115L211.515 42.8646L210.393 39.155L210.301 39Z" fill="#66BF6B"/>
<path d="M210.301 39L211.504 43.032L211.528 43.115L222.99 48.2402L223.025 48.2166L222.049 44.3645L210.301 39Z" fill="#98D0A0"/>
<path d="M211.504 43.0303L223.025 48.2149L217.819 59.9996L206.297 54.815L211.504 43.0303Z" fill="url(#paint2_linear_728_2831)"/>
<path d="M219.534 49.1656C219.304 48.5303 218.947 47.9481 218.486 47.454C218.033 46.978 217.484 46.5975 216.841 46.325C216.197 46.0524 215.554 45.9209 214.9 45.9209H214.864C214.198 45.9209 213.542 46.0759 212.898 46.3609C212.22 46.6584 211.636 47.0624 211.135 47.5979C210.617 48.1528 210.205 48.7976 209.92 49.5005C209.62 50.194 209.447 50.9352 209.408 51.6894V51.9385C209.408 52.5819 209.515 53.2115 209.741 53.83C209.979 54.4845 210.326 55.0421 210.778 55.5181C211.23 55.994 211.79 56.3746 212.458 56.6471C213.089 56.9211 213.732 57.0512 214.388 57.0512H214.401C215.056 57.0512 215.711 56.9087 216.354 56.6347C217.033 56.3372 217.629 55.9207 218.13 55.3866C218.629 54.8636 219.046 54.234 219.357 53.4965C219.656 52.8033 219.829 52.0626 219.868 51.3089V51.0945C219.881 50.4361 219.768 49.7814 219.534 49.1656ZM217.236 52.5902C216.806 53.6127 216.224 54.3143 215.519 54.6948C215.162 54.8925 214.761 54.9989 214.352 55.0047C214.007 55.0047 213.637 54.9203 213.268 54.7667C212.458 54.4222 211.958 53.8742 211.743 53.0897C211.671 52.8222 211.634 52.5463 211.636 52.2692C211.636 51.6977 211.779 51.0682 212.064 50.3902C212.505 49.3441 213.089 48.6301 213.792 48.2372C214.173 48.0241 214.567 47.9286 214.96 47.9286C215.318 47.9286 215.676 48.0117 216.056 48.1666C216.854 48.5112 217.356 49.0591 217.57 49.8422C217.642 50.0927 217.676 50.3653 217.676 50.6503C217.675 51.2467 217.534 51.8887 217.236 52.5902Z" fill="white"/>
<path d="M204.747 40.8662L206.63 53.4466L205.772 57.8702L205.653 57.7152L203.818 45.5624V45.3244L204.628 41.0793L204.747 40.8662Z" fill="#760D16"/>
<path d="M191 47.3708L191.894 42.9237L204.749 40.8662L203.879 45.3963V45.6938L191.154 47.4898L191 47.3708Z" fill="#EF463E"/>
<path d="M203.879 45.3965L205.773 57.8703L193.048 59.8559L190.998 47.371L203.879 45.3965Z" fill="url(#paint3_linear_728_2831)"/>
<path d="M202.508 55.8842C202.4 55.7616 202.26 55.6711 202.103 55.6227C201.903 55.5604 201.693 55.5323 201.484 55.5397C201.258 55.5397 200.995 55.5632 200.709 55.6116L197.348 56.1817C197.384 55.9202 197.516 55.5867 197.742 55.1716C197.993 54.7081 198.373 54.1491 198.862 53.5071C199.029 53.2815 199.16 53.1155 199.255 52.9965C199.314 52.9121 199.41 52.8056 199.529 52.6506C200.304 51.6405 200.768 50.82 200.958 50.178C201.062 49.8174 201.126 49.4467 201.15 49.0724C201.161 48.9659 201.161 48.8704 201.161 48.7749C201.161 48.5134 201.137 48.2519 201.09 47.9904C201.064 47.7874 201.004 47.5903 200.911 47.4079C200.844 47.2689 200.741 47.1501 200.613 47.0633C200.481 46.9803 200.279 46.9443 200.028 46.9443C199.826 46.9443 199.576 46.9679 199.278 47.0163L195.394 47.6818C194.929 47.7648 194.571 47.8963 194.358 48.1108C194.273 48.1894 194.205 48.2853 194.16 48.3919C194.115 48.4985 194.093 48.6135 194.096 48.7292C194.096 48.7887 194.096 48.8607 194.108 48.9313C194.168 49.2648 194.334 49.5027 194.607 49.6217C194.775 49.6937 194.965 49.7283 195.203 49.7283C195.359 49.7283 195.538 49.7172 195.729 49.6812L198.969 49.1098C198.969 49.1693 198.981 49.2288 198.981 49.2772C198.981 49.4792 198.947 49.6812 198.875 49.8722C198.779 50.1448 198.54 50.5266 198.148 51.0137C198.041 51.1451 197.875 51.3596 197.648 51.6322C196.766 52.6907 196.148 53.5942 195.766 54.3428C195.51 54.8256 195.321 55.3415 195.206 55.8759C195.147 56.1534 195.115 56.4362 195.112 56.72C195.112 56.9109 195.124 57.1005 195.159 57.279C195.206 57.5391 195.266 57.7549 195.351 57.921C195.435 58.087 195.553 58.2185 195.683 58.2904C195.815 58.361 195.994 58.3845 196.256 58.3845C196.576 58.3845 197.018 58.3375 197.578 58.2406L201.104 57.6346C201.724 57.5266 202.166 57.3731 202.414 57.1697C202.513 57.0915 202.591 56.9919 202.645 56.8784C202.699 56.765 202.726 56.6407 202.724 56.5152C202.724 56.4446 202.712 56.3727 202.701 56.3021C202.679 56.1472 202.611 56.0021 202.508 55.8842Z" fill="white"/>
</g>
<defs>
<linearGradient id="paint0_linear_728_2831" x1="243.665" y1="46.0859" x2="243.665" y2="59.7381" gradientUnits="userSpaceOnUse">
<stop offset="0.006" stop-color="#FFE513"/>
<stop offset="1" stop-color="#FDB924"/>
</linearGradient>
<linearGradient id="paint1_linear_728_2831" x1="221.703" y1="46.231" x2="234.863" y2="56.9964" gradientUnits="userSpaceOnUse">
<stop offset="0.006" stop-color="#008CD2"/>
<stop offset="1" stop-color="#00649D"/>
</linearGradient>
<linearGradient id="paint2_linear_728_2831" x1="214.306" y1="48.2351" x2="214.306" y2="60.7648" gradientUnits="userSpaceOnUse">
<stop stop-color="#26A146"/>
<stop offset="1" stop-color="#008A52"/>
</linearGradient>
<linearGradient id="paint3_linear_728_2831" x1="198.248" y1="46.5078" x2="199.857" y2="59.6573" gradientUnits="userSpaceOnUse">
<stop stop-color="#D92231"/>
<stop offset="1" stop-color="#BA2234"/>
</linearGradient>
<clipPath id="clip0_728_2831">
<rect width="61" height="21" fill="white" transform="translate(191 39)"/>
</clipPath>
</defs>
</svg>
