<?xml version="1.0" encoding="UTF-8"?>
<svg xmlns="http://www.w3.org/2000/svg" width="60" height="60" viewBox="0 0 60 60" fill="none">
  <path d="M25.5673 51.5699C25.4893 51.5699 25.4093 51.56 25.33 51.5393C24.8289 51.4088 24.5284 50.8964 24.6589 50.3956L26.2212 44.3951C26.3517 43.8939 26.864 43.5934 27.3647 43.7238C27.8658 43.8543 28.1663 44.3667 28.0358 44.8675L26.4735 50.868C26.3637 51.2904 25.984 51.5699 25.5673 51.5699V51.5699Z" fill="white"></path>
  <path d="M34.4301 51.5699C34.0138 51.5699 33.6333 51.29 33.5235 50.868L31.9611 44.8675C31.8307 44.3663 32.1312 43.8543 32.6323 43.7238C33.133 43.5934 33.6453 43.8939 33.7757 44.3951L35.3381 50.3957C35.4685 50.8969 35.168 51.4089 34.6669 51.5393C34.5877 51.56 34.5085 51.5699 34.4301 51.5699V51.5699Z" fill="white"></path>
  <path d="M42.272 56.2513H17.7248C17.2069 56.2513 16.7871 55.8318 16.7871 55.3134C16.7871 52.216 19.3064 49.6953 22.404 49.6953H37.5921C40.6888 49.6953 43.209 52.2152 43.209 55.3134C43.2086 55.831 42.7888 56.2513 42.2714 56.2513H42.272ZM18.7817 54.3755H41.2151C40.7979 52.7642 39.332 51.5706 37.5923 51.5706L22.4042 51.571C20.6645 51.571 19.1986 52.7642 18.7815 54.3755L18.7817 54.3755Z" fill="white"></path>
  <path d="M57.4986 45.5703H2.49904C1.12053 45.5703 -0.000976562 44.4486 -0.000976562 43.0697V6.14118C-0.000976562 4.76237 1.12053 3.64062 2.49904 3.64062H57.4986C58.8771 3.64062 59.9986 4.76237 59.9986 6.14118V43.0697C59.9986 44.449 58.8771 45.5707 57.4986 45.5707V45.5703ZM2.49904 5.5166C2.15463 5.5166 1.87394 5.79692 1.87394 6.14183V43.0704C1.87394 43.4149 2.1542 43.6956 2.49904 43.6956H57.4986C57.843 43.6956 58.1237 43.4153 58.1237 43.0704V6.14183C58.1237 5.79735 57.8434 5.5166 57.4986 5.5166H2.49904Z" fill="white"></path>
  <path d="M59.0612 39.2468H0.937162C0.41926 39.2468 -0.000488281 38.8274 -0.000488281 38.309C-0.000488281 37.7909 0.41883 37.3711 0.937162 37.3711H59.0612C59.5791 37.3711 59.9988 37.7905 59.9988 38.309C59.9988 38.8274 59.5791 39.2468 59.0612 39.2468Z" fill="white"></path>
  <path d="M46.558 22.0321C42.6912 22.0321 39.5454 18.8857 39.5454 15.018C39.5454 11.1503 42.6912 8.00391 46.558 8.00391C50.4249 8.00391 53.5706 11.1503 53.5706 15.018C53.5706 18.8857 50.4249 22.0321 46.558 22.0321ZM46.558 9.87988C43.7253 9.87988 41.4208 12.1849 41.4208 15.0182C41.4208 17.8516 43.7253 20.1566 46.558 20.1566C49.3908 20.1566 51.6953 17.8516 51.6953 15.0182C51.6953 12.1849 49.3908 9.87988 46.558 9.87988V9.87988Z" fill="white"></path>
  <path d="M52.6341 15.9558H46.5592C46.0413 15.9558 45.6216 15.5364 45.6216 15.018V8.94176C45.6216 8.42374 46.0409 8.00391 46.5592 8.00391C47.0771 8.00391 47.4969 8.42331 47.4969 8.94176V14.0801H52.6341C53.152 14.0801 53.5718 14.4995 53.5718 15.018C53.5718 15.536 53.1516 15.9558 52.6341 15.9558L52.6341 15.9558Z" fill="white"></path>
  <path d="M32.6887 11.905H7.36343C6.84553 11.905 6.42578 11.4856 6.42578 10.9671C6.42578 10.4491 6.8451 10.0293 7.36343 10.0293H32.6887C33.2066 10.0293 33.6264 10.4487 33.6264 10.9671C33.626 11.4852 33.2062 11.905 32.6887 11.905Z" fill="white"></path>
  <path d="M32.6887 15.9558H7.36343C6.84553 15.9558 6.42578 15.5364 6.42578 15.0179C6.42578 14.4999 6.8451 14.0801 7.36343 14.0801H32.6887C33.2066 14.0801 33.6264 14.4995 33.6264 15.0179C33.626 15.5359 33.2062 15.9558 32.6887 15.9558Z" fill="white"></path>
  <path d="M32.6887 20.0066H7.36343C6.84553 20.0066 6.42578 19.5872 6.42578 19.0687C6.42578 18.5507 6.8451 18.1309 7.36343 18.1309H32.6887C33.2066 18.1309 33.6264 18.5503 33.6264 19.0687C33.626 19.5872 33.2062 20.0066 32.6887 20.0066Z" fill="white"></path>
  <path d="M11.3001 34.884H7.36392C6.84602 34.884 6.42627 34.4646 6.42627 33.9461V24.9164C6.42627 24.3984 6.84559 23.9785 7.36392 23.9785H11.3001C11.818 23.9785 12.2377 24.3979 12.2377 24.9164V33.9461C12.2377 34.4641 11.818 34.884 11.3001 34.884ZM8.30159 33.0082H10.3629V25.8538H8.30159V33.0082Z" fill="white"></path>
  <path d="M19.5676 34.8838H15.631C15.1131 34.8838 14.6934 34.4644 14.6934 33.946L14.6938 26.8695C14.6938 26.3515 15.1131 25.9316 15.6314 25.9316H19.5676C20.0855 25.9316 20.5053 26.351 20.5053 26.8695V33.946C20.5053 34.464 20.0855 34.8838 19.5676 34.8838H19.5676ZM16.5687 33.0081H18.63V27.8072H16.5687V33.0081Z" fill="white"></path>
  <path d="M27.8342 34.884H23.8976C23.3797 34.884 22.96 34.4646 22.96 33.9461L22.9604 24.9164C22.9604 24.3984 23.3797 23.9785 23.898 23.9785H27.8342C28.3521 23.9785 28.7719 24.3979 28.7719 24.9164V33.9461C28.7714 34.4641 28.3521 34.884 27.8342 34.884H27.8342ZM24.8353 33.0082H26.8965V25.8538H24.8353V33.0082Z" fill="white"></path>
  <path d="M36.0999 34.8835H32.1632C31.6453 34.8835 31.2256 34.4641 31.2256 33.9457L31.226 27.6507C31.226 27.1327 31.6453 26.7129 32.1637 26.7129H36.0999C36.6178 26.7129 37.0375 27.1323 37.0375 27.6507V33.9457C37.0371 34.4637 36.6173 34.8835 36.0999 34.8835H36.0999ZM33.1009 33.0078H35.1622V28.5885H33.1009V33.0078Z" fill="white"></path>
  <path d="M44.367 34.8841H40.4308C39.9129 34.8841 39.4932 34.4647 39.4932 33.9463V25.6976C39.4932 25.1796 39.9125 24.7598 40.4308 24.7598H44.367C44.8849 24.7598 45.3046 25.1792 45.3046 25.6976V33.9463C45.3042 34.4643 44.8849 34.8841 44.367 34.8841ZM41.368 33.0084H43.4293V26.6355H41.368V33.0084Z" fill="white"></path>
  <path d="M52.6341 34.8835H48.6979C48.18 34.8835 47.7603 34.4641 47.7603 33.9456V27.2601C47.7603 26.7421 48.1796 26.3223 48.6979 26.3223H52.6341C53.152 26.3223 53.5717 26.7417 53.5717 27.2601V33.9456C53.5717 34.4636 53.152 34.8835 52.6341 34.8835ZM49.6351 33.0077H51.6964V28.1974H49.6351V33.0077Z" fill="white"></path>
</svg>
