<?xml version="1.0" encoding="UTF-8"?>
<svg xmlns="http://www.w3.org/2000/svg" width="61" height="60" viewBox="0 0 61 60" fill="none">
  <path d="M57.1341 41.6652L54.7466 41.9454L54.2088 37.3552C54.1529 36.8749 53.9947 36.4122 53.7449 35.9983C56.147 35.8736 58.0263 33.8798 58.0108 31.4723C57.9954 29.0648 56.0907 27.0953 53.6871 27.0015C51.2836 26.9078 49.2315 28.7229 49.0289 31.1219L46.0116 28.1068C44.6647 26.7649 42.4875 26.7649 41.1407 28.1068L38.5262 30.7086C37.8745 31.3557 37.508 32.2365 37.508 33.1553C37.508 34.0741 37.8745 34.9549 38.5262 35.602C39.8804 36.938 42.0562 36.9353 43.4071 35.596L43.5701 35.4329L44.7558 36.6207L28.9923 52.4106C28.0119 53.3987 27.719 54.8787 28.249 56.1663C28.779 57.4538 30.0286 58.2977 31.4198 58.3077H31.4308C32.3495 58.3081 33.2303 57.941 33.8773 57.288L39.2361 51.9243L40.4218 53.1121L39.397 54.1378C38.0844 55.494 38.1017 57.6534 39.4358 58.9885C40.7698 60.3235 42.9273 60.3403 44.282 59.0262L47.7532 55.5528C49.1 54.2014 49.1 52.0139 47.7532 50.6624L44.119 47.0399L47.9371 43.2183L48.2841 46.1683C48.3874 47.078 48.8482 47.9092 49.5647 48.4782C50.2813 49.0473 51.1947 49.3075 52.1032 49.2014L57.9439 48.526C59.6779 48.3202 60.9842 46.8493 60.9853 45.1016C60.9875 44.9639 60.9812 44.8262 60.9663 44.6893C60.7374 42.7978 59.0251 41.4466 57.1341 41.6652V41.6652ZM51.7193 29.757C52.6955 28.7802 54.2779 28.7803 55.2539 29.7573C56.2299 30.7343 56.2299 32.3181 55.2539 33.2951C54.2779 34.2721 52.6955 34.2722 51.7193 33.2954C51.2477 32.8269 50.9825 32.1893 50.9825 31.5242C50.9825 30.8591 51.2477 30.2215 51.7193 29.753V29.757ZM57.712 46.5426L51.8703 47.2181C51.4896 47.2637 51.1064 47.1556 50.8055 46.9178C50.5046 46.6809 50.3121 46.3323 50.2716 45.9512L49.8287 42.1916C49.7575 41.577 49.3412 41.0574 48.7572 40.8544C48.1733 40.6514 47.5248 40.8008 47.0883 41.2389L41.9975 46.3324C41.8097 46.5201 41.7042 46.7748 41.7042 47.0404C41.7042 47.306 41.8097 47.5607 41.9975 47.7484L46.3385 52.0814C46.9035 52.6514 46.9035 53.5708 46.3385 54.1408L42.8663 57.6142C42.2907 58.1638 41.3853 58.1638 40.8097 57.6142C40.2523 57.0415 40.2523 56.1286 40.8097 55.5558L42.1094 54.2549C42.4148 53.9528 42.5867 53.5409 42.5867 53.1111C42.5867 52.6813 42.4148 52.2694 42.1094 51.9673L40.3818 50.2351C40.081 49.928 39.6693 49.7549 39.2396 49.7549C38.8098 49.7549 38.3982 49.928 38.0973 50.2351L32.4676 55.869C32.1944 56.1481 31.8201 56.3047 31.4298 56.3033C30.8463 56.2956 30.3237 55.94 30.1018 55.3998C29.8799 54.8595 30.0016 54.2389 30.411 53.8226L46.4525 37.7565C47.0763 37.1269 47.0763 36.1116 46.4525 35.4819L44.7109 33.7377C44.0827 33.1111 43.0665 33.1111 42.4384 33.7377L41.9975 34.179C41.427 34.7412 40.5114 34.7412 39.9409 34.179C39.6659 33.9075 39.5111 33.537 39.5111 33.1503C39.5111 32.7637 39.6659 32.3931 39.9409 32.1216L42.5543 29.5198C43.1193 28.9546 44.035 28.9546 44.5999 29.5198L51.8113 36.7248C52.0435 36.9545 52.1894 37.2574 52.2242 37.5824L52.8471 42.8971C52.879 43.2301 53.043 43.5364 53.3022 43.7476C53.5615 43.9588 53.8945 44.0572 54.2268 44.0208L57.3671 43.6526C57.7512 43.6072 58.1375 43.7165 58.4411 43.9563C58.7447 44.1962 58.9406 44.547 58.9857 44.9315C58.9887 44.9885 58.9887 45.0456 58.9857 45.1026C58.9844 45.8346 58.438 46.4506 57.712 46.5386V46.5426Z" fill="white"></path>
  <path d="M2.94251 23.3627C2.39023 23.3655 1.94027 22.9197 1.93751 22.367C1.93475 21.8144 2.38023 21.3641 2.93251 21.3613H2.94251C3.4948 21.3613 3.94251 21.8094 3.94251 22.362C3.94251 22.9147 3.4948 23.3627 2.94251 23.3627Z" fill="white"></path>
  <path d="M5.95576 49.8818C5.36895 50.3903 5.12913 51.1927 5.34058 51.9401C5.55202 52.6876 6.17652 53.2451 6.94254 53.3701L15.4017 54.7521L16.6374 54.8922C16.7131 54.901 16.7892 54.9053 16.8654 54.9052C17.4333 54.9041 17.974 54.6613 18.3524 54.2374C18.7309 53.8136 18.9114 53.2487 18.8489 52.6837C18.8414 52.6121 18.826 52.5417 18.8029 52.4735C18.7749 52.0102 18.6979 51.3118 18.577 50.226L17.7771 42.9902C17.6919 42.2263 17.1771 41.5788 16.4525 41.3241C15.7279 41.0694 14.9216 41.2526 14.3779 41.7954L12.7873 43.3865C9.15633 38.7825 7.48004 32.934 8.12028 27.1036C9.21888 16.938 17.0235 8.78975 27.1246 7.26239C37.2258 5.73504 47.087 11.2121 51.1368 20.5992C51.6833 21.8858 52.9378 22.7275 54.3345 22.7449C55.7311 22.7622 57.0061 21.9519 57.5844 20.6793C57.978 19.8099 57.9903 18.8153 57.6183 17.9365C52.6034 6.18599 40.608 -1.00457 27.8909 0.116548C25.2255 0.377824 22.6047 0.980482 20.0926 1.90975C17.5929 2.86545 15.2343 4.15606 13.0812 5.74631C10.9132 7.31985 8.97906 9.19306 7.33646 11.31C5.6654 13.4041 4.29696 15.723 3.27136 18.1986C3.15848 18.4446 3.1537 18.7267 3.2582 18.9764C3.36269 19.226 3.56689 19.4205 3.82123 19.5125C4.32923 19.6987 4.89491 19.4631 5.12095 18.9711C6.0763 16.6629 7.35226 14.5012 8.91111 12.5499C10.4429 10.5751 12.2476 8.82842 14.2709 7.36239C16.2788 5.87865 18.4788 4.67484 20.8105 3.784C23.1502 2.92039 25.5903 2.35882 28.0719 2.11288C39.9267 1.06797 51.1089 7.77056 55.7847 18.724C55.9394 19.0864 55.9329 19.4975 55.7668 19.8547C55.5145 20.405 54.9608 20.7537 54.356 20.743C53.7513 20.7324 53.2101 20.3645 52.9774 19.8057C49.1567 10.943 40.4946 5.15016 30.8517 5.00897C21.2088 4.86777 12.3811 10.4045 8.30301 19.1516C4.22494 27.8986 5.65602 38.2268 11.9584 45.5329C12.1402 45.7429 12.401 45.8677 12.6785 45.8776C12.9559 45.8875 13.2249 45.7814 13.4211 45.5849L15.7936 43.2103L16.8663 52.9018L15.6796 52.7687L7.26547 51.3938L9.82991 49.1713C10.032 48.9962 10.1556 48.7473 10.173 48.4803C10.1905 48.2133 10.1004 47.9504 9.92289 47.7504C4.72177 41.9335 2.2631 34.1633 3.17038 26.4101C3.23139 25.8608 2.83592 25.366 2.28707 25.3049C1.73822 25.2438 1.24383 25.6396 1.18282 26.189C0.250151 34.1551 2.63156 42.1547 7.76836 48.3108L5.95576 49.8818Z" fill="white"></path>
  <path d="M32.9691 11.0339C31.9683 10.0304 30.4617 9.72996 29.153 10.2728C27.8443 10.8157 26.9917 12.0947 26.9934 13.5126V25.2818C26.7242 25.5042 26.4768 25.7518 26.2546 26.0213H18.4953C16.5628 26.0213 14.9961 27.5894 14.9961 29.5237C14.9961 31.4581 16.5628 33.0261 18.4953 33.0261H26.2546C27.5811 34.6513 29.7154 35.38 31.7577 34.905C33.7999 34.43 35.3945 32.8339 35.8691 30.7899C36.3436 28.7458 35.6156 26.6095 33.9919 25.2818V13.5126C33.9956 12.5828 33.6273 11.6902 32.9691 11.0339V11.0339ZM28.993 13.5126C28.993 12.6836 29.6644 12.0116 30.4927 12.0116C31.3209 12.0116 31.9923 12.6836 31.9923 13.5126V24.2331C31.0127 23.9489 29.9726 23.9489 28.993 24.2331V13.5126ZM18.4953 31.0248C17.6671 31.0248 16.9957 30.3527 16.9957 29.5237C16.9957 28.6947 17.6671 28.0227 18.4953 28.0227H25.2068C24.9229 29.0032 24.9229 30.0442 25.2068 31.0248H18.4953ZM30.4927 33.0261C28.5601 33.0261 26.9934 31.4581 26.9934 29.5237C26.9934 27.5894 28.5601 26.0213 30.4927 26.0213C32.4252 26.0213 33.9919 27.5894 33.9919 29.5237C33.9919 31.4581 32.4252 33.0261 30.4927 33.0261V33.0261Z" fill="white"></path>
  <path d="M37.9891 39.03C37.9891 38.4773 37.5415 38.0293 36.9893 38.0293H24.992C24.4398 38.0293 23.9922 38.4773 23.9922 39.03C23.9922 39.5827 24.4398 40.0307 24.992 40.0307H36.9893C37.5415 40.0307 37.9891 39.5827 37.9891 39.03Z" fill="white"></path>
  <path d="M32.9932 44.0319C32.9932 43.4793 32.5456 43.0312 31.9934 43.0312H20.9959C20.4437 43.0312 19.9961 43.4793 19.9961 44.0319C19.9961 44.5846 20.4437 45.0326 20.9959 45.0326H31.9934C32.5456 45.0326 32.9932 44.5846 32.9932 44.0319Z" fill="white"></path>
  <path d="M26.9948 48.0352H21.9959C21.4437 48.0352 20.9961 48.4832 20.9961 49.0358C20.9961 49.5885 21.4437 50.0365 21.9959 50.0365H26.9948C27.5469 50.0365 27.9945 49.5885 27.9945 49.0358C27.9945 48.4832 27.5469 48.0352 26.9948 48.0352Z" fill="white"></path>
</svg>
