<?xml version="1.0" encoding="UTF-8"?>
<svg xmlns="http://www.w3.org/2000/svg" width="56" height="60" viewBox="0 0 56 60" fill="none">
  <path d="M35.6365 55.9999H49.8911C50.4534 55.9999 50.9093 55.5522 50.9093 54.9999C50.9093 54.4476 50.4534 53.9999 49.8911 53.9999H35.6365C35.0742 53.9999 34.6183 54.4476 34.6183 54.9999C34.6183 55.5522 35.0742 55.9999 35.6365 55.9999Z" fill="white"></path>
  <path d="M1.52725 15.0293C0.96492 15.0324 0.506557 14.5871 0.503464 14.0348C0.500371 13.4825 0.95372 13.0323 1.51605 13.0293H1.52725C2.08957 13.0293 2.54543 13.477 2.54543 14.0293C2.54543 14.5816 2.08957 15.0293 1.52725 15.0293Z" fill="white"></path>
  <path d="M12.8291 40.2857C11.3152 40.9476 10.297 42.3762 10.1818 43.9998C10.1818 46.7998 13.7597 48.9998 18.3273 48.9998C22.8948 48.9998 26.4727 46.7998 26.4727 43.9998C26.3569 42.3712 25.3339 40.939 23.8143 40.2777C25.8736 38.5955 27.7848 36.7456 29.5273 34.7476V54.9999C29.5306 57.76 31.8079 59.9967 34.6182 60H50.9091C53.7193 59.9967 55.9966 57.76 56 54.9999V24.9995C55.9955 22.2767 53.7736 20.058 51.0017 20.0084H50.9529C50.9376 20.0084 50.9244 20.0084 50.9091 20.0084H36.5395C36.6125 19.3411 36.6509 18.6706 36.6545 17.9994C36.6635 11.482 33.0799 5.47051 27.2889 2.28833C21.4979 -0.89386 14.4068 -0.748137 8.75636 2.66917C8.04 3.09991 7.35172 3.57417 6.69556 4.08919C6.05421 4.62161 5.44721 5.19272 4.87811 5.79922C3.73037 7.00606 2.76263 8.36661 2.00378 9.84028C1.87169 10.0793 1.8468 10.3615 1.93506 10.6193C2.02332 10.8771 2.21679 11.0872 2.46909 11.1993C2.96928 11.4215 3.55925 11.2247 3.81818 10.7493C4.49183 9.43807 5.35236 8.22788 6.37382 7.15524C6.87969 6.61605 7.41899 6.10807 7.98865 5.63422C8.57266 5.17737 9.18473 4.75623 9.82138 4.3732C14.8435 1.33453 21.147 1.2044 26.2947 4.03312C31.4423 6.86184 34.6273 12.206 34.6182 17.9994C34.6137 18.6723 34.5705 19.3443 34.4889 20.0124C31.733 20.0812 29.5336 22.2919 29.5273 24.9995V31.5346C26.391 35.5386 22.6075 39.0104 18.3273 41.8117C15.4764 39.9587 2.03636 30.5556 2.03636 17.9994C2.03636 17.4471 1.58051 16.9994 1.01818 16.9994C0.455855 16.9994 0 17.4471 0 17.9994C0 28.0515 7.55185 35.9757 12.8291 40.2857V40.2857ZM49.2617 21.9995L48.5245 23.4465C48.3533 23.7862 48.0002 24.0007 47.6143 23.9995H37.913C37.5271 24.0007 37.174 23.7862 37.0028 23.4465L36.2656 21.9995H49.2617ZM31.5636 24.9995C31.564 23.5696 32.5919 22.3387 34.0195 22.0585L35.1812 24.3415C35.6956 25.3604 36.7551 26.0035 37.913 25.9995H47.6143C48.7722 26.0035 49.8317 25.3604 50.346 24.3415L51.5078 22.0585C52.9354 22.3387 53.9632 23.5696 53.9636 24.9995V54.9999C53.9636 56.6568 52.5961 58 50.9091 58H34.6182C32.9312 58 31.5636 56.6568 31.5636 54.9999V24.9995ZM18.3273 43.9998C18.5131 43.9997 18.6954 43.9499 18.8547 43.8558C18.9769 43.7828 20.2486 43.0158 22.0528 41.6627C23.5139 42.2417 24.4364 43.1278 24.4364 43.9998C24.4364 45.4188 21.9276 46.9998 18.3273 46.9998C14.727 46.9998 12.2182 45.4188 12.2182 43.9998C12.2182 43.1308 13.1345 42.2467 14.5916 41.6667C16.3561 42.9848 17.6145 43.7448 17.7999 43.8558C17.9591 43.9499 18.1414 43.9997 18.3273 43.9998V43.9998Z" fill="white"></path>
  <path d="M29.5274 17.9994C29.5274 11.9242 24.513 6.99927 18.3274 6.99927C12.1419 6.99927 7.12744 11.9242 7.12744 17.9994C7.12744 24.0746 12.1419 28.9996 18.3274 28.9996C24.51 28.9924 29.5201 24.0717 29.5274 17.9994ZM9.1638 17.9994C9.1638 13.0288 13.2665 8.9993 18.3274 8.9993C23.3884 8.9993 27.4911 13.0288 27.4911 17.9994C27.4911 22.9701 23.3884 26.9996 18.3274 26.9996C13.2691 26.9935 9.16998 22.9675 9.1638 17.9994Z" fill="white"></path>
  <path d="M35.9345 44.2928C35.6698 44.5438 35.5637 44.9156 35.6569 45.2653C35.7501 45.6149 36.0281 45.888 36.3841 45.9795C36.74 46.071 37.1186 45.9667 37.3742 45.7068L37.7734 45.3148C40.7065 47.5604 44.8184 47.5604 47.7516 45.3148L48.1507 45.7068C48.5502 46.0858 49.1852 46.0803 49.578 45.6946C49.9707 45.3089 49.9763 44.6851 49.5904 44.2928L49.1913 43.9007C51.4777 41.02 51.4777 36.9814 49.1913 34.1006L49.5904 33.7086C49.9763 33.3162 49.9707 32.6925 49.578 32.3068C49.1852 31.921 48.5502 31.9156 48.1507 32.2946L47.7516 32.6866C44.8184 30.4409 40.7065 30.4409 37.7734 32.6866L37.3742 32.2946C36.9747 31.9156 36.3397 31.921 35.9469 32.3068C35.5542 32.6925 35.5487 33.3162 35.9345 33.7086L36.3337 34.1006C34.0472 36.9814 34.0472 41.02 36.3337 43.9007L35.9345 44.2928ZM36.6544 38.9997C36.6525 37.754 37.0489 36.5392 37.7876 35.5266L37.9709 35.7066C38.3704 36.0856 39.0055 36.0802 39.3982 35.6944C39.791 35.3087 39.7965 34.685 39.4106 34.2926L39.2273 34.1126C41.3426 32.6286 44.1843 32.6286 46.2996 34.1126L46.1164 34.2926C45.8517 34.5437 45.7455 34.9155 45.8387 35.2651C45.9319 35.6148 46.2099 35.8878 46.5659 35.9793C46.9219 36.0708 47.3004 35.9666 47.5561 35.7066L47.7393 35.5266C49.2503 37.6042 49.2503 40.3952 47.7393 42.4727L47.5561 42.2927C47.1566 41.9137 46.5215 41.9192 46.1288 42.3049C45.736 42.6906 45.7305 43.3144 46.1164 43.7067L46.2996 43.8867C44.1843 45.3708 41.3426 45.3708 39.2273 43.8867L39.4106 43.7067C39.7965 43.3144 39.791 42.6906 39.3982 42.3049C39.0055 41.9192 38.3704 41.9137 37.9709 42.2927L37.7876 42.4727C37.0489 41.4601 36.6525 40.2453 36.6544 38.9997V38.9997Z" fill="white"></path>
  <path d="M42.7635 39.9997C43.3258 39.9997 43.7817 39.5519 43.7817 38.9996C43.7817 38.4474 43.3258 37.9996 42.7635 37.9996C42.2012 37.9996 41.7453 38.4474 41.7453 38.9996C41.7453 39.5519 42.2012 39.9997 42.7635 39.9997Z" fill="white"></path>
</svg>
