<?xml version="1.0" encoding="UTF-8"?>
<svg xmlns="http://www.w3.org/2000/svg" width="60" height="60" viewBox="0 0 60 60" fill="none">
  <path d="M56.079 5.74111H51.6882V3.65555C51.6882 1.64036 49.9995 0 47.9247 0C45.8498 0 44.1611 1.64026 44.1611 3.65555V5.74111H15.8382V3.65555C15.8382 1.64036 14.1495 0 12.0747 0C9.99985 0 8.31114 1.64026 8.31114 3.65555V5.74111H3.92038C1.76118 5.74111 0 7.43996 0 9.54898V56.1921C0 58.2894 1.76118 60 3.92038 60H56.0796C58.2388 60 60 58.2894 60 56.1921V9.56076C60 7.44007 58.2388 5.74121 56.0796 5.74121L56.079 5.74111ZM45.9705 3.65555C45.9705 2.61277 46.8511 1.75745 47.9247 1.75745C48.9983 1.75745 49.8788 2.61275 49.8788 3.65555V9.56066C49.8788 10.6034 48.9983 11.4588 47.9247 11.4588C46.8511 11.4588 45.9705 10.6034 45.9705 9.56066V3.65555ZM10.1205 3.65555C10.1205 2.61277 11.0011 1.75745 12.0747 1.75745C13.1483 1.75745 14.0289 2.61275 14.0289 3.65555V9.56066C14.0289 10.6034 13.1483 11.4588 12.0747 11.4588C11.0011 11.4588 10.1205 10.6034 10.1205 9.56066V3.65555ZM58.1903 56.1808C58.1903 57.3056 57.2374 58.2312 56.0793 58.2312H3.92005C2.76203 58.2312 1.80904 57.3056 1.80904 56.1808V20.1288H58.1901L58.1903 56.1808ZM58.1903 18.372H1.80926V9.54952C1.80926 8.42473 2.76221 7.49909 3.92027 7.49909H8.31102V9.57287C8.31102 11.5881 9.99974 13.2284 12.0746 13.2284C14.1494 13.2284 15.8381 11.5882 15.8381 9.57287V7.49909H44.161V9.57287C44.161 11.5881 45.8497 13.2284 47.9245 13.2284C49.9994 13.2284 51.6881 11.5882 51.6881 9.57287V7.49909H56.0788C57.2369 7.49909 58.1899 8.42469 58.1899 9.54952L58.1903 18.372Z" fill="white"></path>
  <path d="M24.0405 26.2575V33.7443C24.0405 34.8691 24.9935 35.7948 26.1515 35.7948H33.8596C35.0176 35.7948 35.9706 34.8692 35.9706 33.7443V26.2575C35.9706 25.1327 35.0177 24.207 33.8596 24.207H26.1515C24.9815 24.207 24.0405 25.1209 24.0405 26.2575ZM25.8499 26.2575C25.8499 26.0934 25.9826 25.9645 26.1515 25.9645H33.8596C34.0284 25.9645 34.1611 26.0934 34.1611 26.2575V33.7443C34.1611 33.9084 34.0284 34.0373 33.8596 34.0373H26.1515C25.9826 34.0373 25.8499 33.9084 25.8499 33.7443V26.2575Z" fill="white"></path>
  <path d="M17.3216 24.207H9.62566C8.46764 24.207 7.51465 25.1326 7.51465 26.2575V33.7443C7.51465 34.8691 8.4676 35.7948 9.62566 35.7948H17.3337C18.4918 35.7948 19.4447 34.8692 19.4447 33.7443V26.2575C19.4327 25.121 18.4918 24.207 17.3217 24.207H17.3216ZM17.6232 33.7326C17.6232 33.8966 17.4905 34.0255 17.3216 34.0255H9.62566C9.45678 34.0255 9.32409 33.8966 9.32409 33.7326V26.2457C9.32409 26.0816 9.45677 25.9528 9.62566 25.9528H17.3337C17.5026 25.9528 17.6353 26.0816 17.6353 26.2457V33.7326H17.6232Z" fill="white"></path>
  <path d="M33.8474 40.832H26.1393C24.9813 40.832 24.0283 41.7576 24.0283 42.8825V50.3693C24.0283 51.4941 24.9813 52.4198 26.1393 52.4198H33.8474C35.0054 52.4198 35.9584 51.4942 35.9584 50.3693V42.8825C35.9584 41.746 35.0175 40.832 33.8474 40.832ZM32.8703 42.5895L29.9994 45.378L27.1286 42.5895H32.8703ZM25.8499 49.4084V43.8197L28.7208 46.6082L25.8499 49.4084ZM27.1286 50.6504L29.9994 47.8619L32.8703 50.6504H27.1286ZM34.149 49.4084L31.2781 46.6199L34.149 43.8315V49.4084Z" fill="white"></path>
  <path d="M43.0509 35.7811H50.7468C51.9048 35.7811 52.8578 34.8555 52.8578 33.7307V26.2438C52.8578 25.119 51.9049 24.1934 50.7468 24.1934H43.0387C41.8807 24.1934 40.9277 25.119 40.9277 26.2438V33.7307C40.9398 34.8671 41.8807 35.7811 43.0508 35.7811H43.0509ZM42.7493 26.2556C42.7493 26.0915 42.882 25.9627 43.0509 25.9627H50.7468C50.9157 25.9627 51.0484 26.0915 51.0484 26.2556V33.7424C51.0484 33.9065 50.9157 34.0354 50.7468 34.0354H43.0387C42.8699 34.0354 42.7372 33.9065 42.7372 33.7424V26.2556H42.7493Z" fill="white"></path>
  <path d="M43.0509 52.408H50.7468C51.9048 52.408 52.8578 51.4824 52.8578 50.3576V42.8825C52.8578 41.7577 51.9049 40.832 50.7468 40.832H43.0387C41.8807 40.832 40.9277 41.7576 40.9277 42.8825V50.3693C40.9398 51.4941 41.8807 52.408 43.0508 52.408H43.0509ZM44.028 50.6505L46.8988 47.862L49.7697 50.6505H44.028ZM51.0484 43.8316V49.4203L48.1775 46.6318L51.0484 43.8316ZM49.7697 42.5896L46.8988 45.3781L44.028 42.5896H49.7697ZM42.7493 43.8316L45.6202 46.6201L42.7493 49.4086V43.8316Z" fill="white"></path>
  <path d="M17.3216 40.832H9.62566C8.46764 40.832 7.51465 41.7576 7.51465 42.8825V50.3693C7.51465 51.4941 8.4676 52.4198 9.62566 52.4198H17.3337C18.4918 52.4198 19.4447 51.4942 19.4447 50.3693V42.8825C19.4327 41.746 18.4918 40.832 17.3217 40.832H17.3216ZM17.6232 50.3576C17.6232 50.5216 17.4905 50.6505 17.3216 50.6505H9.62566C9.45678 50.6505 9.32409 50.5216 9.32409 50.3576V42.8825C9.32409 42.7184 9.45677 42.5895 9.62566 42.5895H17.3337C17.5026 42.5895 17.6353 42.7184 17.6353 42.8825V50.3576H17.6232Z" fill="white"></path>
</svg>
