<?xml version="1.0" encoding="UTF-8"?>
<svg xmlns="http://www.w3.org/2000/svg" width="56" height="61" viewBox="0 0 56 61" fill="none">
  <path d="M35.6363 56.002H49.8909C50.4532 56.002 50.9091 55.5543 50.9091 55.002C50.9091 54.4497 50.4532 54.002 49.8909 54.002H35.6363C35.074 54.002 34.6182 54.4497 34.6182 55.002C34.6182 55.5543 35.074 56.002 35.6363 56.002Z" fill="white"></path>
  <path d="M1.52722 15.0313C0.964889 15.0343 0.506526 14.5891 0.503434 14.0368C0.500341 13.4845 0.953689 13.0343 1.51602 13.0312H1.52722C2.08954 13.0312 2.5454 13.479 2.5454 14.0313C2.5454 14.5836 2.08954 15.0313 1.52722 15.0313Z" fill="white"></path>
  <path d="M12.8291 40.2877C11.3152 40.9495 10.297 42.3781 10.1818 44.0017C10.1818 46.8018 13.7597 49.0018 18.3273 49.0018C22.8948 49.0018 26.4727 46.8018 26.4727 44.0017C26.3569 42.3732 25.3339 40.941 23.8143 40.2797C25.8736 38.5975 27.7848 36.7476 29.5273 34.7496V55.0019C29.5306 57.762 31.8079 59.9986 34.6182 60.002H50.9091C53.7193 59.9986 55.9966 57.762 56 55.0019V25.0014C55.9955 22.2786 53.7736 20.0599 51.0017 20.0104H50.9529C50.9376 20.0104 50.9244 20.0104 50.9091 20.0104H36.5395C36.6125 19.343 36.6509 18.6725 36.6545 18.0013C36.6635 11.484 33.0799 5.47247 27.2889 2.29028C21.4979 -0.891907 14.4068 -0.746184 8.75636 2.67113C8.04 3.10186 7.35172 3.57612 6.69556 4.09115C6.05421 4.62356 5.44721 5.19468 4.87811 5.80117C3.73037 7.00801 2.76263 8.36857 2.00378 9.84223C1.87169 10.0813 1.84679 10.3635 1.93506 10.6213C2.02332 10.8791 2.21679 11.0892 2.46909 11.2012C2.96928 11.4235 3.55925 11.2267 3.81818 10.7512C4.49183 9.44003 5.35236 8.22983 6.37382 7.15719C6.87969 6.618 7.41899 6.11003 7.98865 5.63617C8.57266 5.17932 9.18473 4.75819 9.82138 4.37515C14.8435 1.33649 21.147 1.20636 26.2947 4.03508C31.4423 6.8638 34.6273 12.208 34.6182 18.0013C34.6137 18.6742 34.5705 19.3463 34.4889 20.0144C31.733 20.0831 29.5336 22.2939 29.5273 25.0014V31.5365C26.391 35.5405 22.6075 39.0123 18.3273 41.8137C15.4764 39.9607 2.03636 30.5575 2.03636 18.0013C2.03636 17.4491 1.58051 17.0013 1.01818 17.0013C0.455855 17.0013 0 17.4491 0 18.0013C0 28.0535 7.55185 35.9776 12.8291 40.2877ZM49.2617 22.0014L48.5245 23.4484C48.3533 23.7882 48.0002 24.0026 47.6143 24.0014H37.913C37.5271 24.0026 37.174 23.7882 37.0028 23.4484L36.2656 22.0014H49.2617ZM31.5636 25.0014C31.564 23.5716 32.5919 22.3407 34.0195 22.0604L35.1812 24.3434C35.6956 25.3624 36.7551 26.0054 37.913 26.0015H47.6143C48.7722 26.0054 49.8317 25.3624 50.346 24.3434L51.5078 22.0604C52.9354 22.3407 53.9632 23.5716 53.9636 25.0014V55.0019C53.9636 56.6588 52.5961 58.0019 50.9091 58.0019H34.6182C32.9312 58.0019 31.5636 56.6588 31.5636 55.0019V25.0014ZM18.3273 44.0017C18.5131 44.0016 18.6954 43.9518 18.8547 43.8577C18.9769 43.7847 20.2486 43.0177 22.0528 41.6647C23.5139 42.2437 24.4364 43.1297 24.4364 44.0017C24.4364 45.4207 21.9276 47.0018 18.3273 47.0018C14.727 47.0018 12.2182 45.4207 12.2182 44.0017C12.2182 43.1327 13.1345 42.2487 14.5916 41.6687C16.3561 42.9867 17.6145 43.7467 17.7999 43.8577C17.9591 43.9518 18.1414 44.0016 18.3273 44.0017Z" fill="white"></path>
  <path d="M29.5274 18.0011C29.5274 11.9259 24.513 7.00098 18.3274 7.00098C12.1419 7.00098 7.12744 11.9259 7.12744 18.0011C7.12744 24.0764 12.1419 29.0013 18.3274 29.0013C24.51 28.9941 29.5201 24.0734 29.5274 18.0011ZM9.1638 18.0011C9.1638 13.0305 13.2665 9.00101 18.3274 9.00101C23.3884 9.00101 27.4911 13.0305 27.4911 18.0011C27.4911 22.9718 23.3884 27.0013 18.3274 27.0013C13.2691 26.9952 9.16998 22.9693 9.1638 18.0011Z" fill="white"></path>
  <path d="M35.9344 44.2953C35.6697 44.5464 35.5635 44.9182 35.6567 45.2678C35.7499 45.6175 36.0279 45.8905 36.3839 45.982C36.7399 46.0736 37.1184 45.9693 37.3741 45.7093L37.7732 45.3173C40.7063 47.563 44.8183 47.563 47.7514 45.3173L48.1505 45.7093C48.55 46.0883 49.1851 46.0829 49.5778 45.6972C49.9706 45.3114 49.9761 44.6877 49.5902 44.2953L49.1911 43.9033C51.4776 41.0225 51.4776 36.9839 49.1911 34.1032L49.5902 33.7112C49.9761 33.3188 49.9706 32.6951 49.5778 32.3093C49.1851 31.9236 48.55 31.9182 48.1505 32.2971L47.7514 32.6891C44.8183 30.4435 40.7063 30.4435 37.7732 32.6891L37.3741 32.2971C36.9746 31.9182 36.3395 31.9236 35.9468 32.3093C35.554 32.6951 35.5485 33.3188 35.9344 33.7112L36.3335 34.1032C34.047 36.9839 34.047 41.0225 36.3335 43.9033L35.9344 44.2953ZM36.6542 39.0022C36.6524 37.7566 37.0488 36.5418 37.7875 35.5292L37.9707 35.7092C38.3703 36.0882 39.0053 36.0827 39.3981 35.697C39.7908 35.3113 39.7963 34.6875 39.4105 34.2952L39.2272 34.1152C41.3425 32.6311 44.1842 32.6311 46.2995 34.1152L46.1162 34.2952C45.8515 34.5462 45.7454 34.918 45.8385 35.2677C45.9317 35.6173 46.2097 35.8904 46.5657 35.9819C46.9217 36.0734 47.3003 35.9691 47.5559 35.7092L47.7392 35.5292C49.2502 37.6067 49.2502 40.3977 47.7392 42.4753L47.5559 42.2953C47.1564 41.9163 46.5214 41.9217 46.1286 42.3075C45.7359 42.6932 45.7303 43.3169 46.1162 43.7093L46.2995 43.8893C44.1842 45.3734 41.3425 45.3734 39.2272 43.8893L39.4105 43.7093C39.7963 43.3169 39.7908 42.6932 39.3981 42.3075C39.0053 41.9217 38.3703 41.9163 37.9707 42.2953L37.7875 42.4753C37.0488 41.4627 36.6524 40.2479 36.6542 39.0022Z" fill="white"></path>
  <path d="M42.7633 40.002C43.3256 40.002 43.7815 39.5543 43.7815 39.002C43.7815 38.4497 43.3256 38.002 42.7633 38.002C42.201 38.002 41.7451 38.4497 41.7451 39.002C41.7451 39.5543 42.201 40.002 42.7633 40.002Z" fill="white"></path>
</svg>
