<?xml version="1.0" encoding="UTF-8"?>
<svg xmlns="http://www.w3.org/2000/svg" width="60" height="54" viewBox="0 0 60 54" fill="none">
  <path d="M25.5682 48.5694C25.4903 48.5694 25.4102 48.5595 25.331 48.5388C24.8299 48.4084 24.5294 47.8959 24.6599 47.3951L26.2222 41.3946C26.3527 40.8934 26.865 40.5929 27.3656 40.7233C27.8668 40.8538 28.1673 41.3662 28.0368 41.867L26.4745 47.8675C26.3647 48.2899 25.985 48.5694 25.5682 48.5694V48.5694Z" fill="white"></path>
  <path d="M34.4311 48.5694C34.0148 48.5694 33.6342 48.2895 33.5244 47.8675L31.9621 41.867C31.8317 41.3658 32.1322 40.8538 32.6333 40.7233C33.1339 40.5929 33.6463 40.8934 33.7767 41.3946L35.339 47.3952C35.4695 47.8964 35.169 48.4084 34.6679 48.5389C34.5887 48.5595 34.5095 48.5694 34.4311 48.5694V48.5694Z" fill="white"></path>
  <path d="M42.273 53.2498H17.7257C17.2078 53.2498 16.7881 52.8304 16.7881 52.3119C16.7881 49.2146 19.3074 46.6938 22.405 46.6938H37.5931C40.6898 46.6938 43.21 49.2137 43.21 52.3119C43.2096 52.8295 42.7898 53.2498 42.2723 53.2498H42.273ZM18.7827 51.374H41.216C40.7989 49.7628 39.333 48.5691 37.5933 48.5691L22.4052 48.5696C20.6655 48.5696 19.1996 49.7627 18.7824 51.374L18.7827 51.374Z" fill="white"></path>
  <path d="M57.4996 42.5693H2.50002C1.1215 42.5693 0 41.4476 0 40.0688V3.14021C0 1.76139 1.1215 0.639648 2.50002 0.639648H57.4996C58.8781 0.639648 59.9996 1.76139 59.9996 3.14021V40.0688C59.9996 41.448 58.8781 42.5698 57.4996 42.5698V42.5693ZM2.50002 2.51562C2.15561 2.51562 1.87492 2.79595 1.87492 3.14086V40.0694C1.87492 40.4139 2.15518 40.6947 2.50002 40.6947H57.4996C57.844 40.6947 58.1247 40.4143 58.1247 40.0694V3.14086C58.1247 2.79638 57.8444 2.51562 57.4996 2.51562H2.50002Z" fill="white"></path>
  <path d="M59.0622 36.2463H0.938138C0.420236 36.2463 0.000488281 35.8269 0.000488281 35.3085C0.000488281 34.7904 0.419807 34.3706 0.938138 34.3706H59.0622C59.5801 34.3706 59.9998 34.79 59.9998 35.3085C59.9998 35.8269 59.5801 36.2463 59.0622 36.2463Z" fill="white"></path>
  <path d="M46.559 19.0312C42.6921 19.0312 39.5464 15.8847 39.5464 12.017C39.5464 8.14935 42.6921 5.00293 46.559 5.00293C50.4258 5.00293 53.5716 8.14935 53.5716 12.017C53.5716 15.8847 50.4258 19.0312 46.559 19.0312ZM46.559 6.8789C43.7262 6.8789 41.4217 9.18391 41.4217 12.0173C41.4217 14.8506 43.7262 17.1556 46.559 17.1556C49.3917 17.1556 51.6962 14.8506 51.6962 12.0173C51.6962 9.18391 49.3917 6.8789 46.559 6.8789Z" fill="white"></path>
  <path d="M52.6351 12.9549H46.5602C46.0423 12.9549 45.6226 12.5355 45.6226 12.017V5.94078C45.6226 5.42277 46.0419 5.00293 46.5602 5.00293C47.0781 5.00293 47.4979 5.42234 47.4979 5.94078V11.0791H52.6351C53.153 11.0791 53.5728 11.4985 53.5728 12.017C53.5728 12.535 53.1526 12.9548 52.6351 12.9548L52.6351 12.9549Z" fill="white"></path>
  <path d="M32.6897 8.90353H7.36441C6.84651 8.90353 6.42676 8.48412 6.42676 7.96568C6.42676 7.44767 6.84608 7.02783 7.36441 7.02783H32.6897C33.2076 7.02783 33.6274 7.44724 33.6274 7.96568C33.6269 8.48369 33.2072 8.90353 32.6897 8.90353Z" fill="white"></path>
  <path d="M32.6897 12.9548H7.36441C6.84651 12.9548 6.42676 12.5354 6.42676 12.017C6.42676 11.4989 6.84608 11.0791 7.36441 11.0791H32.6897C33.2076 11.0791 33.6274 11.4985 33.6274 12.017C33.6269 12.535 33.2072 12.9548 32.6897 12.9548Z" fill="white"></path>
  <path d="M32.6897 17.0046H7.36441C6.84651 17.0046 6.42676 16.5852 6.42676 16.0668C6.42676 15.5487 6.84608 15.1289 7.36441 15.1289H32.6897C33.2076 15.1289 33.6274 15.5483 33.6274 16.0668C33.6269 16.5852 33.2072 17.0046 32.6897 17.0046Z" fill="white"></path>
  <path d="M11.3011 31.883H7.3649C6.84699 31.883 6.42725 31.4636 6.42725 30.9451V21.9154C6.42725 21.3974 6.84656 20.9775 7.3649 20.9775H11.3011C11.819 20.9775 12.2387 21.3969 12.2387 21.9154V30.9451C12.2387 31.4632 11.819 31.883 11.3011 31.883ZM8.30257 30.0072H10.3638V22.8528H8.30257V30.0072Z" fill="white"></path>
  <path d="M19.5686 31.8834H15.632C15.1141 31.8834 14.6943 31.4639 14.6943 30.9455L14.6948 23.869C14.6948 23.351 15.1141 22.9312 15.6324 22.9312H19.5686C20.0865 22.9312 20.5062 23.3506 20.5062 23.869V30.9455C20.5062 31.4635 20.0865 31.8834 19.5686 31.8834H19.5686ZM16.5697 30.0076H18.6309V24.8067H16.5697V30.0076Z" fill="white"></path>
  <path d="M27.8352 31.883H23.8986C23.3807 31.883 22.9609 31.4636 22.9609 30.9451L22.9614 21.9154C22.9614 21.3974 23.3807 20.9775 23.899 20.9775H27.8352C28.3531 20.9775 28.7728 21.3969 28.7728 21.9154V30.9451C28.7724 31.4632 28.3531 31.883 27.8352 31.883H27.8352ZM24.8363 30.0072H26.8975V22.8528H24.8363V30.0072Z" fill="white"></path>
  <path d="M36.1008 31.883H32.1642C31.6463 31.883 31.2266 31.4636 31.2266 30.9452L31.227 24.6503C31.227 24.1322 31.6463 23.7124 32.1646 23.7124H36.1008C36.6187 23.7124 37.0385 24.1318 37.0385 24.6503V30.9452C37.0381 31.4632 36.6183 31.883 36.1008 31.883H36.1008ZM33.1019 30.0073H35.1632V25.588H33.1019V30.0073Z" fill="white"></path>
  <path d="M44.368 31.8831H40.4318C39.9139 31.8831 39.4941 31.4637 39.4941 30.9453V22.6966C39.4941 22.1786 39.9135 21.7588 40.4318 21.7588H44.368C44.8859 21.7588 45.3056 22.1782 45.3056 22.6966V30.9453C45.3052 31.4633 44.8859 31.8831 44.368 31.8831ZM41.369 30.0074H43.4303V23.6345H41.369V30.0074Z" fill="white"></path>
  <path d="M52.635 31.883H48.6989C48.181 31.883 47.7612 31.4636 47.7612 30.9451V24.2596C47.7612 23.7416 48.1805 23.3218 48.6989 23.3218H52.635C53.153 23.3218 53.5727 23.7412 53.5727 24.2596V30.9451C53.5727 31.4631 53.153 31.883 52.635 31.883ZM49.6361 30.0072H51.6974V25.1969H49.6361V30.0072Z" fill="white"></path>
</svg>
