<?xml version="1.0" encoding="UTF-8"?>
<svg xmlns="http://www.w3.org/2000/svg" width="58" height="60" viewBox="0 0 58 60" fill="none">
  <path d="M39.4633 37.1644C39.2678 37.5938 39.1535 38.0641 39.1535 38.5576C39.1535 39.9982 40.0907 41.2607 41.3756 41.7746V44.6639C41.3756 45.3548 41.9349 45.9137 42.6264 45.9137C43.3179 45.9137 43.8772 45.3548 43.8772 44.6639V41.7755C45.1635 41.262 46.1019 39.9991 46.1019 38.5576C46.1019 36.6766 44.5112 35.0885 42.6278 35.0885C42.1339 35.0885 41.6631 35.2027 41.233 35.3976L37.8417 32.0092C37.3531 31.521 36.5617 31.521 36.073 32.0092C35.5844 32.4975 35.5844 33.2882 36.073 33.7765L39.4633 37.1644ZM43.6002 38.5576C43.6002 39.0728 43.1456 39.5253 42.6277 39.5253C42.1098 39.5253 41.6552 39.0724 41.6552 38.5576C41.6552 38.0414 42.1098 37.5885 42.6277 37.5885C43.146 37.5885 43.6002 38.0414 43.6002 38.5576Z" fill="white"></path>
  <path d="M15.2607 11.8714C15.2607 19.694 20.477 26.0574 26.8877 26.0574C33.2984 26.0574 38.5146 19.6934 38.5146 11.8714C38.5146 4.66053 33.9506 0 26.8877 0C19.8246 0 15.2607 4.66042 15.2607 11.8714ZM36.0127 11.8714C36.0127 18.316 31.9191 23.5588 26.8873 23.5588C21.8556 23.5588 17.7619 18.3164 17.7619 11.8714C17.7619 6.00312 21.1737 2.50006 26.8873 2.50006C32.6009 2.50006 36.0127 6.00312 36.0127 11.8714Z" fill="white"></path>
  <path d="M4.0428 60H49.8022C51.7824 60 53.3924 58.4351 53.3924 56.5127V49.0066C56.0281 46.3027 57.6593 42.6191 57.6593 38.5581C57.6593 30.2853 50.9161 23.5542 42.627 23.5542C35.9107 23.5542 30.2115 27.9739 28.2905 34.0519C20.3928 33.8614 12.378 35.4578 4.44466 38.8331C2.01976 39.8252 0.452637 42.1089 0.452637 44.6504V56.5118C0.452201 58.4346 2.06254 59.9996 4.04291 59.9996L4.0428 60ZM41.3763 26.1176V27.4311C41.3763 28.122 41.9356 28.6809 42.6271 28.6809C43.3186 28.6809 43.8779 28.122 43.8779 27.4311V26.1176C49.7901 26.7053 54.5042 31.4088 55.0938 37.3084H53.7758C53.0843 37.3084 52.5249 37.8672 52.5249 38.5581C52.5249 39.249 53.0843 39.8079 53.7758 39.8079H55.0938C54.5044 45.7062 49.7903 50.4093 43.8779 50.9975V49.684C43.8779 48.9931 43.3186 48.4342 42.6271 48.4342C41.9356 48.4342 41.3763 48.9931 41.3763 49.684V50.9975C35.4641 50.4098 30.75 45.7067 30.1604 39.8079H31.4784C32.1699 39.8079 32.7292 39.249 32.7292 38.5581C32.7292 37.8672 32.1699 37.3084 31.4784 37.3084H30.1608C30.7502 31.4091 35.4643 26.7055 41.3756 26.1176H41.3763ZM2.95494 44.6513C2.95494 43.129 3.91259 41.7537 5.4091 41.1395C12.8644 37.9682 20.3834 36.4468 27.7471 36.5454C27.6581 37.2054 27.5957 37.8736 27.5957 38.558C27.5957 46.8299 34.339 53.5597 42.628 53.5597C45.6794 53.5597 48.5175 52.6421 50.8909 51.0762V56.5121C50.8909 57.0566 50.4022 57.4995 49.8023 57.4995H4.04296C3.44306 57.4995 2.95441 57.0566 2.95441 56.5121L2.95494 44.6513Z" fill="white"></path>
</svg>
