<?xml version="1.0" encoding="UTF-8"?>
<svg xmlns="http://www.w3.org/2000/svg" width="60" height="60" viewBox="0 0 60 60" fill="none">
  <path d="M34.6875 55.3125C34.6872 55.5611 34.5884 55.7993 34.4126 55.9751C34.2368 56.1509 33.9986 56.2497 33.75 56.25H5.50781C5.29033 56.2497 5.08184 56.1632 4.92805 56.0094C4.77427 55.8557 4.68776 55.6472 4.6875 55.4297V11.25C4.68778 11.0014 4.78665 10.7632 4.9624 10.5874C5.13816 10.4116 5.37645 10.3128 5.625 10.3125H11.6081L12.2865 11.6693C12.3644 11.825 12.4841 11.956 12.6321 12.0475C12.7802 12.139 12.9509 12.1875 13.125 12.1875H16.875V8.4375H5.625C4.87934 8.43835 4.16447 8.73494 3.6372 9.2622C3.10994 9.78947 2.81335 10.5043 2.8125 11.25V55.4297C2.81329 56.1443 3.09752 56.8294 3.60281 57.3347C4.10811 57.84 4.79321 58.1242 5.50781 58.125H33.75C34.4957 58.1241 35.2105 57.8276 35.7378 57.3003C36.2651 56.773 36.5616 56.0582 36.5625 55.3125V43.125H34.6875V55.3125Z" fill="white"></path>
  <path d="M38.4375 12.1875C36.9462 12.1892 35.5164 12.7823 34.4619 13.8369C33.4073 14.8914 32.8142 16.3212 32.8125 17.8125C32.8125 20.6488 37.2051 26.2113 37.706 26.8363C37.7938 26.9459 37.9052 27.0344 38.0318 27.0951C38.1584 27.1559 38.297 27.1875 38.4375 27.1875C38.578 27.1875 38.7166 27.1559 38.8432 27.0951C38.9698 27.0344 39.0812 26.9459 39.169 26.8363C39.6699 26.2113 44.0625 20.6488 44.0625 17.8125C44.0608 16.3212 43.4677 14.8914 42.4131 13.8369C41.3586 12.7823 39.9288 12.1892 38.4375 12.1875ZM38.4375 24.7174C36.7579 22.4737 34.6875 19.2392 34.6875 17.8125C34.6875 16.8179 35.0826 15.8641 35.7859 15.1609C36.4891 14.4576 37.4429 14.0625 38.4375 14.0625C39.4321 14.0625 40.3859 14.4576 41.0891 15.1609C41.7924 15.8641 42.1875 16.8179 42.1875 17.8125C42.1875 19.2392 40.1171 22.4737 38.4375 24.7174Z" fill="white"></path>
  <path d="M38.4375 19.6875C39.473 19.6875 40.3125 18.848 40.3125 17.8125C40.3125 16.777 39.473 15.9375 38.4375 15.9375C37.402 15.9375 36.5625 16.777 36.5625 17.8125C36.5625 18.848 37.402 19.6875 38.4375 19.6875Z" fill="white"></path>
  <path d="M41.25 30H35.625V26.25H33.75V30.9375C33.75 31.1861 33.8488 31.4246 34.0246 31.6004C34.2004 31.7762 34.4389 31.875 34.6875 31.875H42.1875C42.4361 31.875 42.6746 31.7762 42.8504 31.6004C43.0262 31.4246 43.125 31.1861 43.125 30.9375V26.25H41.25V30Z" fill="white"></path>
  <path d="M55.3125 1.875H21.5625C20.8168 1.87585 20.102 2.17244 19.5747 2.6997C19.0474 3.22697 18.7509 3.94184 18.75 4.6875V38.4375C18.7509 39.1832 19.0474 39.898 19.5747 40.4253C20.102 40.9526 20.8168 41.2491 21.5625 41.25H55.3125C56.0582 41.2491 56.773 40.9526 57.3003 40.4253C57.8276 39.898 58.1241 39.1832 58.125 38.4375V4.6875C58.1241 3.94184 57.8276 3.22697 57.3003 2.6997C56.773 2.17244 56.0582 1.87585 55.3125 1.875ZM46.875 22.5C46.6264 22.5 46.3879 22.5988 46.2121 22.7746C46.0363 22.9504 45.9375 23.1889 45.9375 23.4375V30.9375C45.9375 31.1861 46.0363 31.4246 46.2121 31.6004C46.3879 31.7762 46.6264 31.875 46.875 31.875H56.25V34.6875H46.875C46.6264 34.6875 46.3879 34.7863 46.2121 34.9621C46.0363 35.1379 45.9375 35.3764 45.9375 35.625V39.375H43.125V35.625C43.125 35.3764 43.0262 35.1379 42.8504 34.9621C42.6746 34.7863 42.4361 34.6875 42.1875 34.6875H34.6875C34.4389 34.6875 34.2004 34.7863 34.0246 34.9621C33.8488 35.1379 33.75 35.3764 33.75 35.625V39.375H30.9375V27.1875C30.9375 27.0021 30.8825 26.8208 30.7795 26.6667C30.6764 26.5125 30.53 26.3924 30.3587 26.3214C30.1874 26.2504 29.9989 26.2319 29.8171 26.268C29.6352 26.3042 29.4682 26.3935 29.337 26.5245L20.625 35.2366V31.3259L28.788 23.163C28.919 23.0318 29.0083 22.8648 29.0445 22.6829C29.0806 22.5011 29.0621 22.3126 28.9911 22.1413C28.9201 21.97 28.8 21.8236 28.6458 21.7205C28.4917 21.6175 28.3104 21.5625 28.125 21.5625H20.625V19.6875H24.375C24.6236 19.6875 24.8621 19.5887 25.0379 19.4129C25.2137 19.2371 25.3125 18.9986 25.3125 18.75V9.375H28.125V18.75C28.125 18.9986 28.2238 19.2371 28.3996 19.4129C28.5754 19.5887 28.8139 19.6875 29.0625 19.6875H31.875V17.8125H30V9.375H47.4241L44.337 12.462L45.663 13.788L50.0759 9.375H54.9241L46.212 18.087C46.081 18.2182 45.9917 18.3852 45.9555 18.5671C45.9194 18.7489 45.9379 18.9374 46.0089 19.1087C46.0799 19.28 46.2 19.4264 46.3542 19.5295C46.5083 19.6325 46.6896 19.6875 46.875 19.6875H56.25V22.5H46.875ZM56.25 24.375V30H47.8125V24.375H56.25ZM41.25 39.375H35.625V36.5625H41.25V39.375ZM20.625 28.6741V23.4375H25.8617L20.625 28.6741ZM20.625 17.8125V9.375H23.4375V17.8125H20.625ZM49.1383 17.8125L56.25 10.7009V17.8125H49.1383ZM21.5625 3.75H55.3125C55.5611 3.75028 55.7993 3.84915 55.9751 4.0249C56.1509 4.20066 56.2497 4.43895 56.25 4.6875V7.5H20.625V4.6875C20.6253 4.43895 20.7241 4.20066 20.8999 4.0249C21.0757 3.84915 21.3139 3.75028 21.5625 3.75ZM20.625 38.4375V37.8884L29.0625 29.4508V39.375H21.5625C21.3139 39.3747 21.0757 39.2759 20.8999 39.1001C20.7241 38.9243 20.6253 38.6861 20.625 38.4375ZM55.3125 39.375H47.8125V36.5625H56.25V38.4375C56.2497 38.6861 56.1509 38.9243 55.9751 39.1001C55.7993 39.2759 55.5611 39.3747 55.3125 39.375Z" fill="white"></path>
  <path d="M22.5 6.5625C23.0178 6.5625 23.4375 6.14277 23.4375 5.625C23.4375 5.10723 23.0178 4.6875 22.5 4.6875C21.9822 4.6875 21.5625 5.10723 21.5625 5.625C21.5625 6.14277 21.9822 6.5625 22.5 6.5625Z" fill="white"></path>
  <path d="M25.3125 6.5625C25.8303 6.5625 26.25 6.14277 26.25 5.625C26.25 5.10723 25.8303 4.6875 25.3125 4.6875C24.7947 4.6875 24.375 5.10723 24.375 5.625C24.375 6.14277 24.7947 6.5625 25.3125 6.5625Z" fill="white"></path>
  <path d="M28.125 6.5625C28.6428 6.5625 29.0625 6.14277 29.0625 5.625C29.0625 5.10723 28.6428 4.6875 28.125 4.6875C27.6072 4.6875 27.1875 5.10723 27.1875 5.625C27.1875 6.14277 27.6072 6.5625 28.125 6.5625Z" fill="white"></path>
  <path d="M13.125 52.5H7.5V54.375H13.125V52.5Z" fill="white"></path>
  <path d="M22.5 52.5H16.875V54.375H22.5V52.5Z" fill="white"></path>
  <path d="M31.875 52.5H26.25V54.375H31.875V52.5Z" fill="white"></path>
  <path d="M23.4375 50.625V45C23.4375 44.7514 23.3387 44.5129 23.1629 44.3371C22.9871 44.1613 22.7486 44.0625 22.5 44.0625H16.875C16.6264 44.0625 16.3879 44.1613 16.2121 44.3371C16.0363 44.5129 15.9375 44.7514 15.9375 45V50.625C15.9375 50.8736 16.0363 51.1121 16.2121 51.2879C16.3879 51.4637 16.6264 51.5625 16.875 51.5625H22.5C22.7486 51.5625 22.9871 51.4637 23.1629 51.2879C23.3387 51.1121 23.4375 50.8736 23.4375 50.625ZM21.5625 49.6875H17.8125V45.9375H21.5625V49.6875Z" fill="white"></path>
  <path d="M14.0625 50.625V45C14.0625 44.7514 13.9637 44.5129 13.7879 44.3371C13.6121 44.1613 13.3736 44.0625 13.125 44.0625H7.5C7.25136 44.0625 7.01291 44.1613 6.8371 44.3371C6.66129 44.5129 6.56251 44.7514 6.5625 45V50.625C6.56251 50.8736 6.66129 51.1121 6.8371 51.2879C7.01291 51.4637 7.25136 51.5625 7.5 51.5625H13.125C13.3736 51.5625 13.6121 51.4637 13.7879 51.2879C13.9637 51.1121 14.0625 50.8736 14.0625 50.625ZM12.1875 49.6875H8.4375V45.9375H12.1875V49.6875Z" fill="white"></path>
  <path d="M32.8125 50.625V45C32.8125 44.7514 32.7137 44.5129 32.5379 44.3371C32.3621 44.1613 32.1236 44.0625 31.875 44.0625H26.25C26.0014 44.0625 25.7629 44.1613 25.5871 44.3371C25.4113 44.5129 25.3125 44.7514 25.3125 45V50.625C25.3125 50.8736 25.4113 51.1121 25.5871 51.2879C25.7629 51.4637 26.0014 51.5625 26.25 51.5625H31.875C32.1236 51.5625 32.3621 51.4637 32.5379 51.2879C32.7137 51.1121 32.8125 50.8736 32.8125 50.625ZM30.9375 49.6875H27.1875V45.9375H30.9375V49.6875Z" fill="white"></path>
</svg>
