<?xml version="1.0" encoding="UTF-8"?>
<svg xmlns="http://www.w3.org/2000/svg" width="60" height="60" viewBox="0 0 60 60" fill="none">
  <path d="M60 35.8929V24.1071H52.8151C52.2681 21.981 51.4226 19.9469 50.2938 18.0403L56.1376 12.1958L47.8048 3.86235L41.9597 9.70622C40.053 8.57859 38.0196 7.7325 35.8935 7.18485L35.8929 0H24.1071V7.18485C21.981 7.73251 19.9469 8.57795 18.0409 9.70622L12.1958 3.86235L3.86296 12.1958L9.70684 18.0403C8.57801 19.9469 7.73265 21.981 7.18546 24.1071H0V35.8929H7.18485C7.73192 38.019 8.57735 40.0531 9.70622 41.9597L3.86235 47.8042L12.1952 56.1377L18.0403 50.2938C19.9469 51.4214 21.9804 52.2675 24.1065 52.8152L24.1071 60H35.8928V52.8152C38.019 52.2675 40.053 51.4221 41.9591 50.2938L47.8042 56.1377L56.137 47.8042L50.2931 41.9597C51.422 40.0531 52.2673 38.019 52.8145 35.8929H60ZM50.9221 34.593C50.384 37.0552 49.4136 39.3923 48.0355 41.5406L47.5697 42.2665L53.1069 47.8042L47.8041 53.1075L42.2657 47.5697L41.5399 48.0355C39.3929 49.4131 37.0556 50.3847 34.5923 50.9221L33.7498 51.1062V57.857H26.2498V51.1062L25.4074 50.9221C22.9446 50.384 20.6069 49.413 18.4598 48.0355L17.7339 47.5697L12.1956 53.1075L6.89276 47.8042L12.4299 42.2665L11.9641 41.5406C10.586 39.3924 9.61495 37.0552 9.07756 34.593L8.8946 33.75H2.14261V26.25H8.8946L9.07756 25.407C9.61566 22.9448 10.5861 20.6077 11.9641 18.4594L12.4299 17.7335L6.89276 12.1958L12.1956 6.8925L17.7339 12.4303L18.4598 11.9645C20.6068 10.5869 22.944 9.61531 25.4074 9.07791L26.2498 8.89376V2.14299H33.7498V8.89376L34.5923 9.07791C37.055 9.61601 39.3927 10.587 41.5399 11.9645L42.2657 12.4303L47.8041 6.8925L53.1069 12.1958L47.5697 17.7335L48.0355 18.4594C49.4136 20.6076 50.3847 22.9448 50.9221 25.407L51.105 26.25H57.857V33.75H51.105L50.9221 34.593Z" fill="white"></path>
  <path d="M30 11.25C19.6612 11.25 11.25 19.6612 11.25 30C11.25 40.3388 19.6612 48.75 30 48.75C40.3388 48.75 48.75 40.3388 48.75 30C48.75 19.6612 40.3388 11.25 30 11.25ZM30 46.6071C20.8427 46.6071 13.3929 39.1573 13.3929 30C13.3929 20.8427 20.8427 13.3929 30 13.3929C39.1573 13.3929 46.6071 20.8427 46.6071 30C46.6071 39.1573 39.1573 46.6071 30 46.6071Z" fill="white"></path>
  <path d="M28.9287 15H31.0716V18.2143H28.9287V15Z" fill="white"></path>
  <path d="M28.9287 41.7861H31.0716V45.0004H28.9287V41.7861Z" fill="white"></path>
  <path d="M41.7856 28.9287H44.9999V31.0716H41.7856V28.9287Z" fill="white"></path>
  <path d="M15 28.9287H18.2143V31.0716H15V28.9287Z" fill="white"></path>
  <path d="M31.0716 20.3574H28.9287V30.5516L36.8778 36.2299L38.1226 34.4853L31.0717 29.4493L31.0716 20.3574Z" fill="white"></path>
</svg>
