<?xml version="1.0" encoding="UTF-8"?>
<svg xmlns="http://www.w3.org/2000/svg" width="63" height="60" viewBox="0 0 63 60" fill="none">
  <path d="M58.9655 0H3.10345C2.28066 0.000958247 1.49184 0.328236 0.910037 0.910037C0.328236 1.49184 0.000958247 2.28066 0 3.10345V56.8966C0.000958247 57.7193 0.328236 58.5082 0.910037 59.09C1.49184 59.6718 2.28066 59.999 3.10345 60H58.9655C59.7883 59.999 60.5771 59.6718 61.1589 59.09C61.7407 58.5082 62.068 57.7193 62.069 56.8966V3.10345C62.068 2.28066 61.7407 1.49184 61.1589 0.910037C60.5771 0.328236 59.7883 0.000958247 58.9655 0ZM3.10345 2.06897H58.9655C59.2398 2.06927 59.5027 2.17836 59.6967 2.3723C59.8906 2.56624 59.9997 2.82918 60 3.10345V8.27586H2.06897V3.10345C2.06927 2.82918 2.17836 2.56624 2.3723 2.3723C2.56624 2.17836 2.82918 2.06927 3.10345 2.06897ZM58.9655 57.931H3.10345C2.82918 57.9307 2.56624 57.8216 2.3723 57.6277C2.17836 57.4338 2.06927 57.1708 2.06897 56.8966V10.3448H60V56.8966C59.9997 57.1708 59.8906 57.4338 59.6967 57.6277C59.5027 57.8216 59.2398 57.9307 58.9655 57.931Z" fill="white"></path>
  <path d="M49.7159 51.0568C49.8375 50.7769 49.8203 50.4477 49.6708 50.1846C49.5213 49.9216 49.2605 49.7618 48.9798 49.7618H43.7344V15.4566C43.7344 14.957 43.3688 14.5527 42.9179 14.5527H13.2293C10.8807 14.5527 8.9698 16.6677 8.9689 19.2673C8.9689 19.2678 8.96875 19.2678 8.96875 19.2682L8.9688 19.2684C8.9688 19.2687 8.96875 19.2689 8.96875 19.2691C8.96875 19.7687 9.33436 20.173 9.7853 20.173C9.7867 20.173 9.78784 20.1721 9.78924 20.1721H15.8528V50.6657C15.8528 53.2653 17.7634 55.3803 20.1118 55.3803C20.1145 55.3803 20.117 55.3794 20.1197 55.3794H42.9175C42.9189 55.3794 42.9201 55.3803 42.9215 55.3803C47.7853 55.3803 49.6393 51.2333 49.7159 51.0568ZM13.2293 16.3605C13.9347 16.3605 14.5953 16.6624 15.0897 17.2097C15.3854 17.5368 15.5904 17.9344 15.7166 18.3643H10.745C11.091 17.2051 12.0676 16.3605 13.2293 16.3605ZM17.4859 50.6657V19.291C17.4861 19.2832 17.4899 19.2768 17.4899 19.2691C17.4899 19.2537 17.4861 19.2391 17.4859 19.2236V16.3623H23.5539C23.5567 16.3623 23.559 16.3605 23.5618 16.3605H42.1013V49.7618H23.5539C23.1029 49.7618 22.7373 50.1661 22.7373 50.6657C22.7373 52.2656 21.5637 53.5668 20.1197 53.5716H20.1098C20.1091 53.5716 20.1086 53.5721 20.1079 53.5721C18.6616 53.5696 17.4859 52.2672 17.4859 50.6657ZM42.9218 53.5725C42.9204 53.5725 42.9193 53.5716 42.9179 53.5716H23.4395C23.8521 52.9939 24.1557 52.3193 24.2879 51.5696H47.3695C46.5565 52.4929 45.1336 53.5725 42.9218 53.5725Z" fill="white"></path>
  <path d="M20.3166 38.1477H39.2711C39.722 38.1477 40.0877 37.7434 40.0877 37.2437C40.0877 36.7441 39.722 36.3398 39.2711 36.3398H20.3166C19.8656 36.3398 19.5 36.7441 19.5 37.2437C19.5 37.7434 19.8656 38.1477 20.3166 38.1477Z" fill="white"></path>
  <path d="M20.3166 43.1105H39.2711C39.722 43.1105 40.0877 42.7063 40.0877 42.2066C40.0877 41.707 39.722 41.3027 39.2711 41.3027H20.3166C19.8656 41.3027 19.5 41.707 19.5 42.2066C19.5 42.7063 19.8656 43.1105 20.3166 43.1105Z" fill="white"></path>
  <path d="M29.3542 26.4167C29.6842 26.3627 29.8492 26.1817 29.8492 25.8737C29.8492 25.7577 29.8122 25.6667 29.7382 25.6007C29.6662 25.5327 29.5702 25.4757 29.4502 25.4297L29.3542 26.4167ZM29.0752 23.4947C28.9832 23.5087 28.9052 23.5297 28.8412 23.5577C28.7792 23.5857 28.7282 23.6187 28.6882 23.6567C28.6502 23.6947 28.6222 23.7377 28.6042 23.7857C28.5862 23.8317 28.5772 23.8807 28.5772 23.9327C28.5772 24.0507 28.6152 24.1467 28.6912 24.2207C28.7672 24.2927 28.8652 24.3537 28.9852 24.4037L29.0752 23.4947ZM29.5342 24.5837C29.6302 24.6117 29.7262 24.6427 29.8222 24.6767C29.9182 24.7087 30.0102 24.7467 30.0982 24.7907C30.1882 24.8327 30.2712 24.8817 30.3472 24.9377C30.4252 24.9937 30.4922 25.0597 30.5482 25.1357C30.6062 25.2117 30.6512 25.2987 30.6832 25.3967C30.7152 25.4947 30.7312 25.6077 30.7312 25.7357C30.7312 25.9257 30.6992 26.1047 30.6352 26.2727C30.5712 26.4387 30.4772 26.5867 30.3532 26.7167C30.2292 26.8447 30.0772 26.9497 29.8972 27.0317C29.7172 27.1117 29.5112 27.1607 29.2792 27.1787L29.2432 27.5507C29.2392 27.6067 29.2142 27.6567 29.1682 27.7007C29.1242 27.7467 29.0672 27.7697 28.9972 27.7697H28.6552L28.7152 27.1517C28.4852 27.1137 28.2652 27.0477 28.0552 26.9537C27.8472 26.8577 27.6712 26.7427 27.5272 26.6087L27.8152 26.1917C27.8392 26.1577 27.8712 26.1297 27.9112 26.1077C27.9532 26.0837 27.9972 26.0717 28.0432 26.0717C28.0912 26.0717 28.1402 26.0847 28.1902 26.1107C28.2402 26.1347 28.2942 26.1647 28.3522 26.2007C28.4122 26.2347 28.4772 26.2707 28.5472 26.3087C28.6192 26.3447 28.7002 26.3747 28.7902 26.3987L28.9012 25.2677C28.7572 25.2277 28.6132 25.1807 28.4692 25.1267C28.3272 25.0727 28.1992 24.9997 28.0852 24.9077C27.9712 24.8157 27.8782 24.6987 27.8062 24.5567C27.7362 24.4147 27.7012 24.2367 27.7012 24.0227C27.7012 23.8647 27.7332 23.7107 27.7972 23.5607C27.8612 23.4107 27.9542 23.2757 28.0762 23.1557C28.2002 23.0357 28.3522 22.9377 28.5322 22.8617C28.7122 22.7837 28.9182 22.7387 29.1502 22.7267L29.1832 22.3937C29.1872 22.3377 29.2112 22.2877 29.2552 22.2437C29.3012 22.1977 29.3592 22.1747 29.4292 22.1747H29.7712L29.7142 22.7627C29.9302 22.8027 30.1152 22.8677 30.2692 22.9577C30.4252 23.0477 30.5572 23.1437 30.6652 23.2457L30.4372 23.5787C30.4032 23.6287 30.3682 23.6657 30.3322 23.6897C30.2982 23.7117 30.2572 23.7227 30.2092 23.7227C30.1792 23.7227 30.1432 23.7157 30.1012 23.7017C30.0612 23.6857 30.0172 23.6677 29.9692 23.6477C29.9212 23.6257 29.8692 23.6037 29.8132 23.5817C29.7592 23.5577 29.7012 23.5367 29.6392 23.5187L29.5342 24.5837Z" fill="white"></path>
  <circle cx="29.9696" cy="25.9227" r="5.42659" stroke="white"></circle>
  <path d="M13.4485 6.20764C14.0199 6.20764 14.483 5.74448 14.483 5.17315C14.483 4.60183 14.0199 4.13867 13.4485 4.13867C12.8772 4.13867 12.4141 4.60183 12.4141 5.17315C12.4141 5.74448 12.8772 6.20764 13.4485 6.20764Z" fill="white"></path>
  <path d="M9.31183 6.20764C9.88316 6.20764 10.3463 5.74448 10.3463 5.17315C10.3463 4.60183 9.88316 4.13867 9.31183 4.13867C8.7405 4.13867 8.27734 4.60183 8.27734 5.17315C8.27734 5.74448 8.7405 6.20764 9.31183 6.20764Z" fill="white"></path>
  <path d="M5.1712 6.20764C5.74253 6.20764 6.20568 5.74448 6.20568 5.17315C6.20568 4.60183 5.74253 4.13867 5.1712 4.13867C4.59987 4.13867 4.13672 4.60183 4.13672 5.17315C4.13672 5.74448 4.59987 6.20764 5.1712 6.20764Z" fill="white"></path>
</svg>
