<?xml version="1.0" encoding="UTF-8"?>
<svg xmlns="http://www.w3.org/2000/svg" width="60" height="60" viewBox="0 0 60 60" fill="none">
  <path d="M0 0V60H60V0H0ZM58.063 58.063H1.93701V15.4843H58.063V58.063V58.063ZM1.93701 13.5472V1.93701H58.063V13.5472H1.93701V13.5472Z" fill="white"></path>
  <path d="M7.73745 4.8418C6.14296 4.8418 4.84375 6.14101 4.84375 7.7355C4.84375 9.32999 6.14296 10.641 7.74926 10.641C9.35556 10.641 10.6548 9.3418 10.6548 7.7355C10.6548 6.1292 9.34375 4.8418 7.73745 4.8418ZM7.73745 8.704C7.20595 8.704 6.76895 8.26699 6.76895 7.7355C6.76895 7.204 7.20595 6.76699 7.73745 6.76699C8.26895 6.76699 8.70595 7.204 8.70595 7.7355C8.70595 8.2788 8.28076 8.704 7.73745 8.704Z" fill="white"></path>
  <path d="M15.4836 4.8418C13.8773 4.8418 12.5781 6.14101 12.5781 7.74731C12.5781 9.35361 13.8773 10.6528 15.4836 10.6528C17.0899 10.6528 18.3891 9.35361 18.3891 7.74731C18.3891 6.14101 17.0899 4.8418 15.4836 4.8418ZM15.4836 8.704C14.9521 8.704 14.5151 8.26699 14.5151 7.7355C14.5151 7.204 14.9521 6.76699 15.4836 6.76699C16.0151 6.76699 16.4521 7.204 16.4521 7.7355C16.4521 8.2788 16.0151 8.704 15.4836 8.704Z" fill="white"></path>
  <path d="M23.2219 4.8418C21.6156 4.8418 20.3164 6.14101 20.3164 7.74731C20.3164 9.35361 21.6156 10.6528 23.2219 10.6528C24.8282 10.6528 26.1274 9.35361 26.1274 7.74731C26.1274 6.14101 24.8282 4.8418 23.2219 4.8418ZM23.2219 8.704C22.6904 8.704 22.2534 8.26699 22.2534 7.7355C22.2534 7.204 22.6904 6.76699 23.2219 6.76699C23.7534 6.76699 24.1904 7.204 24.1904 7.7355C24.1904 8.2788 23.7652 8.704 23.2219 8.704Z" fill="white"></path>
  <path d="M30 10.641H55.1575V4.8418H30V10.641ZM31.937 6.7788H53.2323V8.71581H31.937V6.7788Z" fill="white"></path>
  <path d="M56.127 17.4219H3.875V56.1266H56.1388V17.4219H56.127ZM54.19 54.1896H5.81201V19.3471H54.2018V54.1896H54.19Z" fill="white"></path>
  <path d="M28.0614 22.2637H8.70312V51.2952H28.0614V22.2637V22.2637ZM26.1244 49.3582H10.6401V24.2007H26.1244V49.3582Z" fill="white"></path>
  <path d="M51.2958 22.2637H31.9375V29.9999H51.2958V22.2637V22.2637ZM49.3588 28.0629H33.8745V24.1889H49.3588V28.0629Z" fill="white"></path>
  <path d="M51.2958 33.873H31.9375V51.2943H51.2958V33.873V33.873ZM49.3588 49.3573H33.8745V35.8101H49.3588V49.3573Z" fill="white"></path>
</svg>
