<?xml version="1.0" encoding="UTF-8"?>
<svg xmlns="http://www.w3.org/2000/svg" width="56" height="60" viewBox="0 0 56 60" fill="none">
  <path d="M35.6365 56H49.8911C50.4534 56 50.9093 55.5523 50.9093 55C50.9093 54.4477 50.4534 54 49.8911 54H35.6365C35.0742 54 34.6183 54.4477 34.6183 55C34.6183 55.5523 35.0742 56 35.6365 56Z" fill="white"></path>
  <path d="M1.52722 15.0293C0.964889 15.0324 0.506526 14.5871 0.503434 14.0348C0.500341 13.4825 0.953689 13.0323 1.51602 13.0293H1.52722C2.08954 13.0293 2.5454 13.477 2.5454 14.0293C2.5454 14.5816 2.08954 15.0293 1.52722 15.0293Z" fill="white"></path>
  <path d="M12.8291 40.2857C11.3152 40.9476 10.297 42.3762 10.1818 43.9998C10.1818 46.7998 13.7597 48.9998 18.3273 48.9998C22.8948 48.9998 26.4727 46.7998 26.4727 43.9998C26.3569 42.3712 25.3339 40.939 23.8143 40.2777C25.8736 38.5955 27.7848 36.7456 29.5273 34.7476V54.9999C29.5306 57.76 31.8079 59.9967 34.6182 60H50.9091C53.7193 59.9967 55.9966 57.76 56 54.9999V24.9995C55.9955 22.2767 53.7736 20.058 51.0017 20.0084H50.9529C50.9376 20.0084 50.9244 20.0084 50.9091 20.0084H36.5395C36.6125 19.3411 36.6509 18.6706 36.6545 17.9994C36.6635 11.482 33.0799 5.47051 27.2889 2.28833C21.4979 -0.89386 14.4068 -0.748137 8.75636 2.66917C8.04 3.09991 7.35172 3.57417 6.69556 4.08919C6.05421 4.62161 5.44721 5.19272 4.87811 5.79922C3.73037 7.00606 2.76263 8.36661 2.00378 9.84028C1.87169 10.0793 1.8468 10.3615 1.93506 10.6193C2.02332 10.8771 2.21679 11.0872 2.46909 11.1993C2.96928 11.4215 3.55925 11.2247 3.81818 10.7493C4.49183 9.43807 5.35236 8.22788 6.37382 7.15524C6.87969 6.61605 7.41899 6.10807 7.98865 5.63422C8.57266 5.17737 9.18473 4.75623 9.82138 4.3732C14.8435 1.33453 21.147 1.2044 26.2947 4.03312C31.4423 6.86184 34.6273 12.206 34.6182 17.9994C34.6137 18.6723 34.5705 19.3443 34.4889 20.0124C31.733 20.0812 29.5336 22.2919 29.5273 24.9995V31.5346C26.391 35.5386 22.6075 39.0104 18.3273 41.8117C15.4764 39.9587 2.03636 30.5556 2.03636 17.9994C2.03636 17.4471 1.58051 16.9994 1.01818 16.9994C0.455855 16.9994 0 17.4471 0 17.9994C0 28.0515 7.55185 35.9757 12.8291 40.2857V40.2857ZM49.2617 21.9995L48.5245 23.4465C48.3533 23.7862 48.0002 24.0007 47.6143 23.9995H37.913C37.5271 24.0007 37.174 23.7862 37.0028 23.4465L36.2656 21.9995H49.2617ZM31.5636 24.9995C31.564 23.5696 32.5919 22.3387 34.0195 22.0585L35.1812 24.3415C35.6956 25.3604 36.7551 26.0035 37.913 25.9995H47.6143C48.7722 26.0035 49.8317 25.3604 50.346 24.3415L51.5078 22.0585C52.9354 22.3387 53.9632 23.5696 53.9636 24.9995V54.9999C53.9636 56.6568 52.5961 58 50.9091 58H34.6182C32.9312 58 31.5636 56.6568 31.5636 54.9999V24.9995ZM18.3273 43.9998C18.5131 43.9997 18.6954 43.9499 18.8547 43.8558C18.9769 43.7828 20.2486 43.0158 22.0528 41.6627C23.5139 42.2417 24.4364 43.1278 24.4364 43.9998C24.4364 45.4188 21.9276 46.9998 18.3273 46.9998C14.727 46.9998 12.2182 45.4188 12.2182 43.9998C12.2182 43.1308 13.1345 42.2467 14.5916 41.6667C16.3561 42.9848 17.6145 43.7448 17.7999 43.8558C17.9591 43.9499 18.1414 43.9997 18.3273 43.9998V43.9998Z" fill="white"></path>
  <path d="M29.5274 17.9994C29.5274 11.9242 24.513 6.99927 18.3274 6.99927C12.1419 6.99927 7.12744 11.9242 7.12744 17.9994C7.12744 24.0746 12.1419 28.9996 18.3274 28.9996C24.51 28.9924 29.5201 24.0717 29.5274 17.9994ZM9.1638 17.9994C9.1638 13.0288 13.2665 8.9993 18.3274 8.9993C23.3884 8.9993 27.4911 13.0288 27.4911 17.9994C27.4911 22.9701 23.3884 26.9996 18.3274 26.9996C13.2691 26.9935 9.16998 22.9675 9.1638 17.9994Z" fill="white"></path>
  <path d="M35.9345 44.2929C35.6698 44.544 35.5637 44.9158 35.6568 45.2654C35.75 45.615 36.028 45.8881 36.384 45.9796C36.74 46.0711 37.1186 45.9669 37.3742 45.7069L37.7733 45.3149C40.7064 47.5606 44.8184 47.5606 47.7515 45.3149L48.1507 45.7069C48.5502 46.0859 49.1852 46.0805 49.578 45.6947C49.9707 45.309 49.9762 44.6853 49.5904 44.2929L49.1912 43.9009C51.4777 41.0201 51.4777 36.9815 49.1912 34.1007L49.5904 33.7087C49.9762 33.3163 49.9707 32.6926 49.578 32.3069C49.1852 31.9211 48.5502 31.9157 48.1507 32.2947L47.7515 32.6867C44.8184 30.441 40.7064 30.441 37.7733 32.6867L37.3742 32.2947C36.9747 31.9157 36.3396 31.9211 35.9469 32.3069C35.5542 32.6926 35.5486 33.3163 35.9345 33.7087L36.3336 34.1007C34.0472 36.9815 34.0472 41.0201 36.3336 43.9009L35.9345 44.2929ZM36.6544 38.9998C36.6525 37.7541 37.0489 36.5393 37.7876 35.5267L37.9709 35.7067C38.3704 36.0857 39.0054 36.0803 39.3982 35.6946C39.7909 35.3088 39.7964 34.6851 39.4106 34.2927L39.2273 34.1127C41.3426 32.6287 44.1843 32.6287 46.2996 34.1127L46.1163 34.2927C45.8516 34.5438 45.7455 34.9156 45.8387 35.2652C45.9318 35.6149 46.2099 35.8879 46.5658 35.9794C46.9218 36.071 47.3004 35.9667 47.556 35.7067L47.7393 35.5267C49.2503 37.6043 49.2503 40.3953 47.7393 42.4728L47.556 42.2928C47.1565 41.9139 46.5215 41.9193 46.1287 42.305C45.736 42.6908 45.7305 43.3145 46.1163 43.7069L46.2996 43.8869C44.1843 45.3709 41.3426 45.3709 39.2273 43.8869L39.4106 43.7069C39.7964 43.3145 39.7909 42.6908 39.3982 42.305C39.0054 41.9193 38.3704 41.9139 37.9709 42.2928L37.7876 42.4728C37.0489 41.4603 36.6525 40.2455 36.6544 38.9998V38.9998Z" fill="white"></path>
  <path d="M42.7635 39.9998C43.3258 39.9998 43.7817 39.5521 43.7817 38.9998C43.7817 38.4475 43.3258 37.9998 42.7635 37.9998C42.2012 37.9998 41.7453 38.4475 41.7453 38.9998C41.7453 39.5521 42.2012 39.9998 42.7635 39.9998Z" fill="white"></path>
</svg>
