<?xml version="1.0" encoding="UTF-8"?>
<svg xmlns="http://www.w3.org/2000/svg" width="60" height="60" viewBox="0 0 60 60" fill="none">
  <path d="M0 0V60H60V0H0ZM58.063 58.063H1.93701V15.4843H58.063V58.063ZM1.93701 13.5472V1.93701H58.063V13.5472H1.93701Z" fill="white"></path>
  <path d="M7.73647 4.84253C6.14199 4.84253 4.84277 6.14174 4.84277 7.73623C4.84277 9.33072 6.14199 10.6417 7.74829 10.6417C9.35458 10.6417 10.6538 9.34253 10.6538 7.73623C10.6538 6.12993 9.34277 4.84253 7.73647 4.84253ZM7.73647 8.70473C7.20498 8.70473 6.76797 8.26773 6.76797 7.73623C6.76797 7.20473 7.20498 6.76773 7.73647 6.76773C8.26797 6.76773 8.70498 7.20473 8.70498 7.73623C8.70498 8.27954 8.27978 8.70473 7.73647 8.70473Z" fill="white"></path>
  <path d="M15.4846 4.84253C13.8783 4.84253 12.5791 6.14174 12.5791 7.74804C12.5791 9.35434 13.8783 10.6536 15.4846 10.6536C17.0909 10.6536 18.3901 9.35434 18.3901 7.74804C18.3901 6.14174 17.0909 4.84253 15.4846 4.84253ZM15.4846 8.70473C14.9531 8.70473 14.5161 8.26773 14.5161 7.73623C14.5161 7.20473 14.9531 6.76773 15.4846 6.76773C16.0161 6.76773 16.4531 7.20473 16.4531 7.73623C16.4531 8.27954 16.0161 8.70473 15.4846 8.70473Z" fill="white"></path>
  <path d="M23.2209 4.84253C21.6146 4.84253 20.3154 6.14174 20.3154 7.74804C20.3154 9.35434 21.6146 10.6536 23.2209 10.6536C24.8272 10.6536 26.1265 9.35434 26.1265 7.74804C26.1265 6.14174 24.8272 4.84253 23.2209 4.84253ZM23.2209 8.70473C22.6894 8.70473 22.2524 8.26773 22.2524 7.73623C22.2524 7.20473 22.6894 6.76773 23.2209 6.76773C23.7524 6.76773 24.1894 7.20473 24.1894 7.73623C24.1894 8.27954 23.7642 8.70473 23.2209 8.70473Z" fill="white"></path>
  <path d="M30 10.6417H55.1575V4.84253H30V10.6417ZM31.937 6.77954H53.2323V8.71655H31.937V6.77954Z" fill="white"></path>
  <path d="M56.126 17.4211H3.87402V56.1259H56.1378V17.4211H56.126ZM54.189 54.1889H5.81103V19.3463H54.2008V54.1889H54.189Z" fill="white"></path>
  <path d="M28.0633 22.2637H8.70508V51.2952H28.0633V22.2637ZM26.1263 49.3582H10.6421V24.2007H26.1263V49.3582Z" fill="white"></path>
  <path d="M51.2948 22.2637H31.9365V29.9999H51.2948V22.2637ZM49.3578 28.0629H33.8735V24.1889H49.3578V28.0629Z" fill="white"></path>
  <path d="M51.2948 33.874H31.9365V51.2953H51.2948V33.874ZM49.3578 49.3583H33.8735V35.811H49.3578V49.3583Z" fill="white"></path>
</svg>
