<svg width="66" height="66" viewBox="0 0 66 66" fill="none" xmlns="http://www.w3.org/2000/svg">
<g clip-path="url(#clip0_2341_5102)">
<path d="M65.87 59.0108C66.0665 58.5584 66.0387 58.0261 65.797 57.6009C65.5553 57.1756 65.1338 56.9173 64.6802 56.9173H56.2006V1.46121C56.2006 0.65355 55.6096 0 54.8806 0H6.88747C3.09078 0 0.00169185 3.41901 0.000241699 7.62143C0.000241699 7.62072 0.000241699 7.62214 0.000241699 7.62143L8.05666e-05 7.62321C8.05666e-05 7.62286 8.05666e-05 7.62357 8.05666e-05 7.62321C8.05666e-05 8.43088 0.591035 9.08549 1.32 9.08549C1.32226 9.08549 1.32411 9.08406 1.32637 9.08406H11.1285V58.3786C11.1285 62.581 14.2171 66 18.0134 66C18.0178 66 18.0217 65.9986 18.026 65.9986H54.8801C54.8824 65.9986 54.8842 66 54.8865 66C62.7491 66 65.7462 59.2962 65.87 59.0108ZM6.88747 2.92243C8.02765 2.92243 9.09564 3.41045 9.89486 4.29517C10.3729 4.82385 10.7043 5.46671 10.9082 6.16164H2.87146C3.43068 4.28768 5.00938 2.92243 6.88747 2.92243ZM13.7685 58.3786V7.65959C13.7688 7.6471 13.7749 7.63675 13.7749 7.62428C13.7749 7.59931 13.7687 7.57577 13.7685 7.55079V2.92528H23.5777C23.5822 2.92528 23.5859 2.92243 23.5904 2.92243H53.5606V56.9173H23.5777C22.8487 56.9173 22.2577 57.5709 22.2577 58.3786C22.2577 60.9649 20.3605 63.0684 18.026 63.0762H18.0102C18.0091 63.0762 18.0082 63.0769 18.0069 63.0769C15.6691 63.073 13.7685 60.9674 13.7685 58.3786ZM54.8868 63.0776C54.8847 63.0776 54.8829 63.0762 54.8806 63.0762H23.3929C24.0597 62.1422 24.5506 61.0516 24.7643 59.8399H62.0767C60.7626 61.3324 58.4624 63.0776 54.8868 63.0776Z" fill="white"/>
<path d="M18.3433 38.1413H48.9845C49.7135 38.1413 50.3045 37.4877 50.3045 36.68C50.3045 35.8723 49.7135 35.2188 48.9845 35.2188H18.3433C17.6145 35.2188 17.0234 35.8723 17.0234 36.68C17.0234 37.4877 17.6145 38.1413 18.3433 38.1413Z" fill="white"/>
<path d="M18.3433 46.1655H48.9845C49.7135 46.1655 50.3045 45.512 50.3045 44.7044C50.3045 43.8967 49.7135 43.2432 48.9845 43.2432H18.3433C17.6145 43.2432 17.0234 43.8967 17.0234 44.7044C17.0234 45.512 17.6145 46.1655 18.3433 46.1655Z" fill="white"/>
<path d="M33.2746 20.0629C33.8632 19.9665 34.1576 19.6437 34.1576 19.0943C34.1576 18.8873 34.0916 18.725 33.9596 18.6073C33.8311 18.486 33.6599 18.3843 33.4458 18.3023L33.2746 20.0629ZM32.7769 14.8507C32.6128 14.8757 32.4737 14.9131 32.3595 14.9631C32.2489 15.013 32.158 15.0719 32.0866 15.1397C32.0188 15.2074 31.9689 15.2841 31.9368 15.3698C31.9047 15.4518 31.8886 15.5392 31.8886 15.632C31.8886 15.8425 31.9564 16.0137 32.0919 16.1457C32.2275 16.2741 32.4023 16.383 32.6164 16.4721L32.7769 14.8507ZM33.5957 16.7932C33.7669 16.8432 33.9382 16.8985 34.1094 16.9591C34.2807 17.0162 34.4448 17.084 34.6017 17.1625C34.7623 17.2374 34.9103 17.3248 35.0459 17.4247C35.185 17.5246 35.3045 17.6423 35.4044 17.7779C35.5079 17.9134 35.5882 18.0686 35.6452 18.2434C35.7023 18.4182 35.7309 18.6198 35.7309 18.8481C35.7309 19.187 35.6738 19.5063 35.5596 19.806C35.4455 20.1021 35.2778 20.3661 35.0566 20.598C34.8354 20.8263 34.5643 21.0136 34.2432 21.1599C33.9221 21.3026 33.5547 21.39 33.1408 21.4221L33.0766 22.0857C33.0695 22.1856 33.0249 22.2747 32.9428 22.3532C32.8643 22.4353 32.7627 22.4763 32.6378 22.4763H32.0277L32.1348 21.3739C31.7245 21.3061 31.3321 21.1884 30.9575 21.0207C30.5864 20.8495 30.2725 20.6444 30.0156 20.4053L30.5294 19.6615C30.5722 19.6009 30.6292 19.5509 30.7006 19.5117C30.7755 19.4689 30.854 19.4474 30.9361 19.4474C31.0217 19.4474 31.1091 19.4706 31.1983 19.517C31.2875 19.5598 31.3838 19.6133 31.4872 19.6776C31.5943 19.7382 31.7102 19.8024 31.8351 19.8702C31.9635 19.9344 32.108 19.9879 32.2685 20.0307L32.4665 18.0133C32.2097 17.9419 31.9528 17.8581 31.6959 17.7618C31.4427 17.6655 31.2143 17.5353 31.011 17.3712C30.8076 17.2071 30.6417 16.9984 30.5133 16.7451C30.3884 16.4918 30.326 16.1743 30.326 15.7925C30.326 15.5107 30.3831 15.236 30.4972 14.9684C30.6114 14.7009 30.7773 14.46 30.9949 14.246C31.2161 14.0319 31.4872 13.8571 31.8083 13.7216C32.1294 13.5824 32.4969 13.5021 32.9107 13.4807L32.9696 12.8867C32.9767 12.7869 33.0195 12.6977 33.098 12.6192C33.1801 12.5371 33.2835 12.4961 33.4084 12.4961H34.0184L33.9168 13.545C34.3021 13.6163 34.6321 13.7323 34.9068 13.8928C35.185 14.0533 35.4205 14.2246 35.6131 14.4065L35.2064 15.0005C35.1458 15.0897 35.0834 15.1557 35.0191 15.1985C34.9585 15.2378 34.8854 15.2574 34.7997 15.2574C34.7462 15.2574 34.682 15.2449 34.6071 15.2199C34.5357 15.1914 34.4572 15.1593 34.3716 15.1236C34.286 15.0844 34.1932 15.0451 34.0934 15.0059C33.997 14.9631 33.8936 14.9256 33.783 14.8935L33.5957 16.7932Z" fill="white"/>
<path d="M33.9505 27.0689C38.7491 27.0689 42.6392 23.1788 42.6392 18.3802C42.6392 13.5815 38.7491 9.69141 33.9505 9.69141C29.1518 9.69141 25.2617 13.5815 25.2617 18.3802C25.2617 23.1788 29.1518 27.0689 33.9505 27.0689Z" stroke="white"/>
</g>
<defs>
<clipPath id="clip0_2341_5102">
<rect width="66" height="66" fill="white"/>
</clipPath>
</defs>
</svg>
