<?xml version="1.0" encoding="UTF-8"?>
<svg xmlns="http://www.w3.org/2000/svg" width="60" height="60" viewBox="0 0 60 60" fill="none">
  <path d="M56.079 5.74111H51.6882V3.65555C51.6882 1.64036 49.9995 0 47.9247 0C45.8498 0 44.1611 1.64026 44.1611 3.65555V5.74111H15.8382V3.65555C15.8382 1.64036 14.1495 0 12.0747 0C9.99985 0 8.31114 1.64026 8.31114 3.65555V5.74111H3.92038C1.76118 5.74111 0 7.43996 0 9.54898V56.1921C0 58.2894 1.76118 60 3.92038 60H56.0796C58.2388 60 60 58.2894 60 56.1921V9.56076C60 7.44007 58.2388 5.74121 56.0796 5.74121L56.079 5.74111ZM45.9705 3.65555C45.9705 2.61277 46.8511 1.75745 47.9247 1.75745C48.9983 1.75745 49.8788 2.61275 49.8788 3.65555V9.56066C49.8788 10.6034 48.9983 11.4588 47.9247 11.4588C46.8511 11.4588 45.9705 10.6034 45.9705 9.56066V3.65555ZM10.1205 3.65555C10.1205 2.61277 11.0011 1.75745 12.0747 1.75745C13.1483 1.75745 14.0289 2.61275 14.0289 3.65555V9.56066C14.0289 10.6034 13.1483 11.4588 12.0747 11.4588C11.0011 11.4588 10.1205 10.6034 10.1205 9.56066V3.65555ZM58.1903 56.1808C58.1903 57.3056 57.2374 58.2312 56.0793 58.2312H3.92005C2.76203 58.2312 1.80904 57.3056 1.80904 56.1808V20.1288H58.1901L58.1903 56.1808ZM58.1903 18.372H1.80926V9.54952C1.80926 8.42473 2.76221 7.49909 3.92027 7.49909H8.31102V9.57287C8.31102 11.5881 9.99974 13.2284 12.0746 13.2284C14.1494 13.2284 15.8381 11.5882 15.8381 9.57287V7.49909H44.161V9.57287C44.161 11.5881 45.8497 13.2284 47.9245 13.2284C49.9994 13.2284 51.6881 11.5882 51.6881 9.57287V7.49909H56.0788C57.2369 7.49909 58.1899 8.42469 58.1899 9.54952L58.1903 18.372Z" fill="white"></path>
  <path d="M24.0406 26.2575V33.7443C24.0406 34.8691 24.9936 35.7948 26.1517 35.7948H33.8597C35.0178 35.7948 35.9707 34.8692 35.9707 33.7443V26.2575C35.9707 25.1327 35.0178 24.207 33.8597 24.207H26.1517C24.9816 24.207 24.0406 25.1209 24.0406 26.2575ZM25.85 26.2575C25.85 26.0934 25.9827 25.9645 26.1516 25.9645H33.8597C34.0285 25.9645 34.1612 26.0934 34.1612 26.2575V33.7443C34.1612 33.9084 34.0286 34.0373 33.8597 34.0373H26.1516C25.9827 34.0373 25.85 33.9084 25.85 33.7443V26.2575Z" fill="white"></path>
  <path d="M17.3216 24.207H9.62566C8.46764 24.207 7.51465 25.1326 7.51465 26.2575V33.7443C7.51465 34.8691 8.4676 35.7948 9.62566 35.7948H17.3337C18.4918 35.7948 19.4447 34.8692 19.4447 33.7443V26.2575C19.4327 25.121 18.4918 24.207 17.3217 24.207H17.3216ZM17.6232 33.7326C17.6232 33.8966 17.4905 34.0255 17.3216 34.0255H9.62566C9.45678 34.0255 9.32409 33.8966 9.32409 33.7326V26.2457C9.32409 26.0816 9.45677 25.9528 9.62566 25.9528H17.3337C17.5026 25.9528 17.6353 26.0816 17.6353 26.2457V33.7326H17.6232Z" fill="white"></path>
  <path d="M33.8473 40.832H26.1392C24.9812 40.832 24.0282 41.7576 24.0282 42.8825V50.3693C24.0282 51.4941 24.9811 52.4198 26.1392 52.4198H33.8473C35.0053 52.4198 35.9583 51.4942 35.9583 50.3693V42.8825C35.9583 41.746 35.0174 40.832 33.8473 40.832ZM32.8702 42.5895L29.9993 45.378L27.1284 42.5895H32.8702ZM25.8498 49.4084V43.8197L28.7207 46.6082L25.8498 49.4084ZM27.1284 50.6504L29.9993 47.8619L32.8702 50.6504H27.1284ZM34.1489 49.4084L31.278 46.6199L34.1489 43.8315V49.4084Z" fill="white"></path>
  <path d="M43.0509 35.783H50.7468C51.9048 35.783 52.8578 34.8574 52.8578 33.7326V26.2457C52.8578 25.121 51.9049 24.1953 50.7468 24.1953H43.0387C41.8807 24.1953 40.9277 25.1209 40.9277 26.2457V33.7326C40.9398 34.8691 41.8807 35.783 43.0508 35.783H43.0509ZM42.7493 26.2575C42.7493 26.0935 42.882 25.9646 43.0509 25.9646H50.7468C50.9157 25.9646 51.0484 26.0935 51.0484 26.2575V33.7444C51.0484 33.9084 50.9157 34.0373 50.7468 34.0373H43.0387C42.8699 34.0373 42.7372 33.9084 42.7372 33.7444V26.2575H42.7493Z" fill="white"></path>
  <path d="M43.0509 52.408H50.7468C51.9048 52.408 52.8578 51.4824 52.8578 50.3576V42.8825C52.8578 41.7577 51.9049 40.832 50.7468 40.832H43.0387C41.8807 40.832 40.9277 41.7576 40.9277 42.8825V50.3693C40.9398 51.4941 41.8807 52.408 43.0508 52.408H43.0509ZM44.028 50.6505L46.8988 47.862L49.7697 50.6505H44.028ZM51.0484 43.8316V49.4203L48.1775 46.6318L51.0484 43.8316ZM49.7697 42.5896L46.8988 45.3781L44.028 42.5896H49.7697ZM42.7493 43.8316L45.6202 46.6201L42.7493 49.4086V43.8316Z" fill="white"></path>
  <path d="M17.3216 40.832H9.62566C8.46764 40.832 7.51465 41.7576 7.51465 42.8825V50.3693C7.51465 51.4941 8.4676 52.4198 9.62566 52.4198H17.3337C18.4918 52.4198 19.4447 51.4942 19.4447 50.3693V42.8825C19.4327 41.746 18.4918 40.832 17.3217 40.832H17.3216ZM17.6232 50.3576C17.6232 50.5216 17.4905 50.6505 17.3216 50.6505H9.62566C9.45678 50.6505 9.32409 50.5216 9.32409 50.3576V42.8825C9.32409 42.7184 9.45677 42.5895 9.62566 42.5895H17.3337C17.5026 42.5895 17.6353 42.7184 17.6353 42.8825V50.3576H17.6232Z" fill="white"></path>
</svg>
