<?xml version="1.0" encoding="UTF-8"?>
<svg xmlns="http://www.w3.org/2000/svg" width="60" height="60" viewBox="0 0 60 60" fill="none">
  <path d="M24.3756 37.0725C35.1756 37.0725 41.7104 29.7679 42.9103 28.2978C43.1896 27.9542 43.1896 27.4619 42.9103 27.1179C41.7105 25.6478 35.176 18.3438 24.3756 18.3438C13.5751 18.3438 7.04181 25.6478 5.84078 27.1179C5.56154 27.4619 5.56154 27.9543 5.84078 28.2978C7.04104 29.7679 13.5751 37.0725 24.3756 37.0725ZM16.8756 27.708C16.8756 25.721 17.6658 23.8154 19.0725 22.4104C20.479 21.0058 22.3867 20.2165 24.3756 20.2165C26.3648 20.2165 28.2726 21.0058 29.6791 22.4104C31.0853 23.8154 31.8755 25.721 31.8755 27.708C31.8755 29.6947 31.0853 31.6002 29.6791 33.0052C28.2726 34.4102 26.3648 35.1996 24.3756 35.1996C22.3867 35.1996 20.479 34.4103 19.0725 33.0052C17.6659 31.6002 16.8756 29.6947 16.8756 27.708ZM40.9504 27.708C38.2904 30.5987 34.9528 32.7836 31.238 34.0662C32.8526 32.3421 33.7512 30.0692 33.7512 27.708C33.7512 25.3469 32.8526 23.074 31.238 21.3495C34.9528 22.6325 38.2904 24.8174 40.9504 27.708ZM17.5131 21.3495C15.8985 23.074 15.0003 25.3469 15.0003 27.708C15.0003 30.0692 15.8985 32.3421 17.5131 34.0662C13.7983 32.7836 10.4607 30.5987 7.80077 27.708C10.4607 24.8174 13.7983 22.6325 17.5131 21.3495Z" fill="white"></path>
  <path d="M24.3755 23.0273C23.1324 23.0273 21.9399 23.5205 21.0612 24.3988C20.182 25.2769 19.6882 26.4677 19.6882 27.7098C19.6882 28.9514 20.182 30.1426 21.0612 31.0203C21.9399 31.8985 23.1324 32.3917 24.3755 32.3917C25.6189 32.3917 26.811 31.8985 27.6902 31.0203C28.5693 30.1426 29.0631 28.9514 29.0631 27.7098C29.0631 26.4677 28.5694 25.2769 27.6902 24.3988C26.811 23.5206 25.6189 23.0273 24.3755 23.0273ZM24.3755 30.5189C23.6296 30.5189 22.9144 30.2232 22.3871 29.6963C21.8592 29.1691 21.5631 28.4547 21.5631 27.7097C21.5631 26.9648 21.8592 26.2499 22.3871 25.7231C22.9145 25.1963 23.6296 24.9001 24.3755 24.9001C25.1217 24.9001 25.8369 25.1963 26.3643 25.7231C26.8917 26.25 27.1882 26.9648 27.1882 27.7097C27.1882 28.4547 26.8917 29.1691 26.3643 29.6963C25.8369 30.2232 25.1217 30.5189 24.3755 30.5189Z" fill="white"></path>
  <path d="M45.9378 8.97877H36.5629V7.10595C36.5629 6.85763 36.464 6.61966 36.2884 6.44375C36.1123 6.26829 35.874 6.16956 35.6254 6.16956H32.8127V3.36039C32.8127 2.61498 32.5166 1.90057 31.9892 1.37379C31.4617 0.846962 30.7461 0.550781 30.0003 0.550781H18.7502C18.0039 0.550781 17.2887 0.846962 16.7614 1.37379C16.2339 1.90061 15.9374 2.61497 15.9374 3.36039V6.16956H13.1251C12.6072 6.16956 12.1877 6.58861 12.1877 7.10595V8.97877H2.81232C2.0665 8.97877 1.3513 9.27495 0.823927 9.80177C0.296512 10.3286 0 11.043 0 11.7884V56.7375C0 57.4825 0.296512 58.1969 0.823927 58.7236C1.35134 59.2505 2.0665 59.5466 2.81232 59.5466H45.9368C46.6826 59.5466 47.3982 59.2505 47.9256 58.7236C48.453 58.1968 48.7491 57.4825 48.7491 56.7375V11.7884C48.7491 11.043 48.453 10.3286 47.9256 9.80177C47.3982 9.27495 46.6826 8.97877 45.9368 8.97877H45.9378ZM17.8124 3.36043C17.8124 2.84309 18.2323 2.42361 18.7503 2.42361H30.0004C30.249 2.42361 30.4877 2.52233 30.6634 2.69823C30.839 2.87369 30.9379 3.11211 30.9379 3.36043V6.1696H17.8127L17.8124 3.36043ZM14.0626 8.04286L34.6878 8.04243V11.7881L14.0626 11.7885V8.04286ZM46.875 56.7378C46.875 56.9861 46.7761 57.2241 46.6004 57.3996C46.4248 57.5755 46.1861 57.6742 45.9375 57.6742H2.81303C2.29554 57.6742 1.87559 57.2547 1.87559 56.7378V11.7887C1.87559 11.2714 2.29554 10.8523 2.81303 10.8523H12.1884V12.7251C12.1884 12.9735 12.2872 13.2114 12.4629 13.3873C12.6385 13.5628 12.8772 13.6615 13.1258 13.6615H35.6261C35.8747 13.6615 36.113 13.5628 36.2891 13.3873C36.4647 13.2114 36.5636 12.9735 36.5636 12.7251V10.8523H45.9385C46.1871 10.8523 46.4258 10.9506 46.6014 11.1265C46.7771 11.302 46.8759 11.5404 46.8759 11.7887L46.875 56.7378Z" fill="white"></path>
  <path d="M56.2498 16.4688C55.2554 16.4688 54.3015 16.8637 53.5984 17.5659C52.8949 18.2687 52.5 19.221 52.5 20.2148V49.2445C52.4866 49.3342 52.4866 49.426 52.5 49.5157L55.3123 58.8801V58.8806C55.4293 59.2798 55.7957 59.5548 56.2127 59.5548C56.6292 59.5548 56.9956 59.2798 57.1125 58.8806L59.9249 49.5161V49.5157C59.9633 49.4295 59.9887 49.3381 60 49.2445V20.2148C60 19.221 59.6046 18.2687 58.9015 17.5659C58.1984 16.8637 57.2446 16.4688 56.2498 16.4688H56.2498ZM56.2498 18.3416V18.342C56.7474 18.342 57.2243 18.539 57.5757 18.8904C57.9274 19.2417 58.1251 19.7181 58.1251 20.2148V23.024H54.3749V20.2148C54.3749 19.7181 54.5726 19.2417 54.9244 18.8904C55.2757 18.539 55.7526 18.342 56.2498 18.342L56.2498 18.3416ZM54.3749 48.3084V24.8974H58.1247L58.1251 48.3084H54.3749ZM56.2498 55.3503L54.6939 50.1816H57.8062L56.2498 55.3503Z" fill="white"></path>
  <path d="M15.0004 42.6915H5.62549C5.10757 42.6915 4.68805 43.1105 4.68805 43.6279V52.9923C4.68805 53.2406 4.78689 53.479 4.96255 53.6545C5.13821 53.83 5.37689 53.9287 5.62549 53.9287H15.0004C15.249 53.9287 15.4877 53.83 15.6633 53.6545C15.839 53.479 15.9378 53.2406 15.9378 52.9923V49.2467C15.9378 48.7293 15.5183 48.3098 15.0004 48.3098C14.4825 48.3098 14.0629 48.7293 14.0629 49.2467V52.0558H6.56296V44.5642H15.0003C15.5183 44.5642 15.9378 44.1447 15.9378 43.6278C15.9378 43.1105 15.5183 42.6914 15.0003 42.6914L15.0004 42.6915Z" fill="white"></path>
  <path d="M14.5043 45.4995L9.91986 48.3651L9.08557 47.1102C8.79553 46.673 8.20597 46.5536 7.7683 46.8433C7.33064 47.133 7.2111 47.7219 7.50113 48.1591L8.86072 50.1819C9.03509 50.4461 9.33117 50.6048 9.64797 50.6031C9.82362 50.6035 9.99584 50.5552 10.1447 50.4625L15.4979 47.1197C15.9459 46.8455 16.0866 46.2604 15.8121 45.8134C15.5376 45.3659 14.9524 45.2253 14.5044 45.4995L14.5043 45.4995Z" fill="white"></path>
  <path d="M43.1258 42.6914H18.7505C18.2326 42.6914 17.8126 43.1105 17.8126 43.6278C17.8126 44.1447 18.2326 44.5642 18.7505 44.5642H43.1258C43.6433 44.5642 44.0633 44.1447 44.0633 43.6278C44.0633 43.1105 43.6433 42.6914 43.1258 42.6914Z" fill="white"></path>
  <path d="M43.1258 47.3711H18.7505C18.2326 47.3711 17.8126 47.7906 17.8126 48.3075C17.8126 48.8248 18.2326 49.2443 18.7505 49.2443H43.1258C43.6433 49.2443 44.0633 48.8248 44.0633 48.3075C44.0633 47.7906 43.6433 47.3711 43.1258 47.3711Z" fill="white"></path>
  <path d="M43.1258 52.0547H18.7505C18.2326 52.0547 17.8126 52.4737 17.8126 52.9911C17.8126 53.5084 18.2326 53.9275 18.7505 53.9275H43.1258C43.6433 53.9275 44.0633 53.5084 44.0633 52.9911C44.0633 52.4737 43.6433 52.0547 43.1258 52.0547Z" fill="white"></path>
</svg>
