<?xml version="1.0" encoding="UTF-8"?>
<svg xmlns="http://www.w3.org/2000/svg" width="66" height="66" viewBox="0 0 66 66" fill="none">
  <g filter="url(#filter0_d_1594_25169)">
    <path d="M58.3125 2.8125H7.6875C6.94185 2.81337 6.22698 3.10996 5.69972 3.63722C5.17246 4.16448 4.87587 4.87935 4.875 5.625V54.375C4.87587 55.1207 5.17246 55.8355 5.69972 56.3628C6.22698 56.89 6.94185 57.1866 7.6875 57.1875H58.3125C59.0582 57.1866 59.773 56.89 60.3003 56.3628C60.8275 55.8355 61.1241 55.1207 61.125 54.375V5.625C61.1241 4.87935 60.8275 4.16448 60.3003 3.63722C59.773 3.10996 59.0582 2.81337 58.3125 2.8125V2.8125ZM7.6875 4.6875H58.3125C58.5611 4.68778 58.7994 4.78664 58.9751 4.9624C59.1509 5.13815 59.2497 5.37645 59.25 5.625V10.3125H6.75V5.625C6.75028 5.37645 6.84914 5.13815 7.0249 4.9624C7.20065 4.78664 7.43895 4.68778 7.6875 4.6875V4.6875ZM58.3125 55.3125H7.6875C7.43895 55.3122 7.20065 55.2134 7.0249 55.0376C6.84914 54.8619 6.75028 54.6236 6.75 54.375V12.1875H59.25V54.375C59.2497 54.6236 59.1509 54.8619 58.9751 55.0376C58.7994 55.2134 58.5611 55.3122 58.3125 55.3125Z" fill="white"></path>
    <path d="M17.0625 8.4375C17.5803 8.4375 18 8.01777 18 7.5C18 6.98223 17.5803 6.5625 17.0625 6.5625C16.5447 6.5625 16.125 6.98223 16.125 7.5C16.125 8.01777 16.5447 8.4375 17.0625 8.4375Z" fill="white"></path>
    <path d="M13.3125 8.4375C13.8303 8.4375 14.25 8.01777 14.25 7.5C14.25 6.98223 13.8303 6.5625 13.3125 6.5625C12.7947 6.5625 12.375 6.98223 12.375 7.5C12.375 8.01777 12.7947 8.4375 13.3125 8.4375Z" fill="white"></path>
    <path d="M9.5625 8.4375C10.0803 8.4375 10.5 8.01777 10.5 7.5C10.5 6.98223 10.0803 6.5625 9.5625 6.5625C9.04473 6.5625 8.625 6.98223 8.625 7.5C8.625 8.01777 9.04473 8.4375 9.5625 8.4375Z" fill="white"></path>
    <path d="M54.5625 15.9375H11.4375C11.1889 15.9375 10.9504 16.0363 10.7746 16.2121C10.5988 16.3879 10.5 16.6264 10.5 16.875V31.875C10.5 32.1236 10.5988 32.3621 10.7746 32.5379C10.9504 32.7137 11.1889 32.8125 11.4375 32.8125H54.5625C54.8111 32.8125 55.0496 32.7137 55.2254 32.5379C55.4012 32.3621 55.5 32.1236 55.5 31.875V16.875C55.5 16.6264 55.4012 16.3879 55.2254 16.2121C55.0496 16.0363 54.8111 15.9375 54.5625 15.9375ZM53.625 30.9375H50.8125V24.375C50.8125 24.1264 50.7137 23.8879 50.5379 23.7121C50.3621 23.5363 50.1236 23.4375 49.875 23.4375C49.6264 23.4375 49.3879 23.5363 49.2121 23.7121C49.0363 23.8879 48.9375 24.1264 48.9375 24.375V30.9375H47.0625V28.125C47.0625 27.8764 46.9637 27.6379 46.7879 27.4621C46.6121 27.2863 46.3736 27.1875 46.125 27.1875C45.8764 27.1875 45.6379 27.2863 45.4621 27.4621C45.2863 27.6379 45.1875 27.8764 45.1875 28.125V30.9375H43.3125V26.25C43.3125 26.0014 43.2137 25.7629 43.0379 25.5871C42.8621 25.4113 42.6236 25.3125 42.375 25.3125C42.1264 25.3125 41.8879 25.4113 41.7121 25.5871C41.5363 25.7629 41.4375 26.0014 41.4375 26.25V30.9375H39.5625V28.125C39.5625 27.8764 39.4637 27.6379 39.2879 27.4621C39.1121 27.2863 38.8736 27.1875 38.625 27.1875C38.3764 27.1875 38.1379 27.2863 37.9621 27.4621C37.7863 27.6379 37.6875 27.8764 37.6875 28.125V30.9375H35.8125V24.375C35.8125 24.1264 35.7137 23.8879 35.5379 23.7121C35.3621 23.5363 35.1236 23.4375 34.875 23.4375C34.6264 23.4375 34.3879 23.5363 34.2121 23.7121C34.0363 23.8879 33.9375 24.1264 33.9375 24.375V30.9375H32.0625V22.5C32.0625 22.2514 31.9637 22.0129 31.7879 21.8371C31.6121 21.6613 31.3736 21.5625 31.125 21.5625C30.8764 21.5625 30.6379 21.6613 30.4621 21.8371C30.2863 22.0129 30.1875 22.2514 30.1875 22.5V30.9375H28.3125V24.375C28.3125 24.1264 28.2137 23.8879 28.0379 23.7121C27.8621 23.5363 27.6236 23.4375 27.375 23.4375C27.1264 23.4375 26.8879 23.5363 26.7121 23.7121C26.5363 23.8879 26.4375 24.1264 26.4375 24.375V30.9375H24.5625V26.25C24.5625 26.0014 24.4637 25.7629 24.2879 25.5871C24.1121 25.4113 23.8736 25.3125 23.625 25.3125C23.3764 25.3125 23.1379 25.4113 22.9621 25.5871C22.7863 25.7629 22.6875 26.0014 22.6875 26.25V30.9375H20.8125V24.375C20.8125 24.1264 20.7137 23.8879 20.5379 23.7121C20.3621 23.5363 20.1236 23.4375 19.875 23.4375C19.6264 23.4375 19.3879 23.5363 19.2121 23.7121C19.0363 23.8879 18.9375 24.1264 18.9375 24.375V30.9375H17.0625V28.125C17.0625 27.8764 16.9637 27.6379 16.7879 27.4621C16.6121 27.2863 16.3736 27.1875 16.125 27.1875C15.8764 27.1875 15.6379 27.2863 15.4621 27.4621C15.2863 27.6379 15.1875 27.8764 15.1875 28.125V30.9375H12.375V17.8125H53.625V30.9375Z" fill="white"></path>
    <path d="M18 36.5625C16.5166 36.5625 15.0666 37.0024 13.8332 37.8265C12.5999 38.6506 11.6386 39.8219 11.0709 41.1924C10.5032 42.5628 10.3547 44.0708 10.6441 45.5257C10.9335 46.9805 11.6478 48.3169 12.6967 49.3658C13.7456 50.4147 15.082 51.129 16.5368 51.4184C17.9917 51.7078 19.4997 51.5593 20.8701 50.9916C22.2406 50.4239 23.4119 49.4626 24.236 48.2293C25.0601 46.9959 25.5 45.5459 25.5 44.0625C25.4978 42.0741 24.7069 40.1677 23.3008 38.7617C21.8948 37.3556 19.9884 36.5647 18 36.5625ZM23.5454 43.125H21.6313C21.4625 42.4769 21.1239 41.8856 20.6504 41.4121C20.1769 40.9386 19.5856 40.6 18.9375 40.4312V38.5171C20.0881 38.7136 21.1493 39.2625 21.9747 40.0878C22.8 40.9132 23.3489 41.9744 23.5454 43.125V43.125ZM18 42.1875C18.3708 42.1875 18.7334 42.2975 19.0417 42.5035C19.35 42.7095 19.5904 43.0024 19.7323 43.345C19.8742 43.6876 19.9113 44.0646 19.839 44.4283C19.7666 44.792 19.5881 45.1261 19.3258 45.3883C19.0636 45.6506 18.7295 45.8291 18.3658 45.9015C18.0021 45.9738 17.6251 45.9367 17.2825 45.7948C16.9399 45.6529 16.647 45.4125 16.441 45.1042C16.235 44.7959 16.125 44.4333 16.125 44.0625C16.1256 43.5654 16.3233 43.0888 16.6748 42.7373C17.0263 42.3858 17.5029 42.1881 18 42.1875V42.1875ZM18 49.6875C16.5905 49.6862 15.2329 49.1557 14.1958 48.2012C13.1588 47.2466 12.5179 45.9375 12.4 44.5329C12.2821 43.1284 12.6958 41.7307 13.5593 40.6167C14.4227 39.5026 15.6729 38.7533 17.0625 38.5171V40.4312C16.4224 40.5966 15.8374 40.9282 15.3668 41.3926C14.8962 41.8569 14.5566 42.4374 14.3827 43.0752C14.2087 43.713 14.2064 44.3855 14.3761 45.0244C14.5458 45.6634 14.8814 46.2462 15.3488 46.7137C15.8163 47.1811 16.3991 47.5167 17.0381 47.6864C17.677 47.8561 18.3495 47.8538 18.9873 47.6798C19.6251 47.5059 20.2056 47.1664 20.67 46.6957C21.1343 46.2251 21.4659 45.6401 21.6313 45H23.5454C23.3224 46.3098 22.6435 47.4987 21.6287 48.3564C20.614 49.2142 19.3287 49.6857 18 49.6875V49.6875Z" fill="white"></path>
    <path d="M45.1875 46.875H48.9375C49.1861 46.875 49.4246 46.7762 49.6004 46.6004C49.7762 46.4246 49.875 46.1861 49.875 45.9375C49.875 45.6889 49.7762 45.4504 49.6004 45.2746C49.4246 45.0988 49.1861 45 48.9375 45H45.1875C44.9389 45 44.7004 45.0988 44.5246 45.2746C44.3488 45.4504 44.25 45.6889 44.25 45.9375C44.25 46.1861 44.3488 46.4246 44.5246 46.6004C44.7004 46.7762 44.9389 46.875 45.1875 46.875Z" fill="white"></path>
    <path d="M54.5625 48.75H45.1875C44.9389 48.75 44.7004 48.8488 44.5246 49.0246C44.3488 49.2004 44.25 49.4389 44.25 49.6875C44.25 49.9361 44.3488 50.1746 44.5246 50.3504C44.7004 50.5262 44.9389 50.625 45.1875 50.625H54.5625C54.8111 50.625 55.0496 50.5262 55.2254 50.3504C55.4012 50.1746 55.5 49.9361 55.5 49.6875C55.5 49.4389 55.4012 49.2004 55.2254 49.0246C55.0496 48.8488 54.8111 48.75 54.5625 48.75Z" fill="white"></path>
    <path d="M45.1875 39.375H48.9375C49.1861 39.375 49.4246 39.2762 49.6004 39.1004C49.7762 38.9246 49.875 38.6861 49.875 38.4375C49.875 38.1889 49.7762 37.9504 49.6004 37.7746C49.4246 37.5988 49.1861 37.5 48.9375 37.5H45.1875C44.9389 37.5 44.7004 37.5988 44.5246 37.7746C44.3488 37.9504 44.25 38.1889 44.25 38.4375C44.25 38.6861 44.3488 38.9246 44.5246 39.1004C44.7004 39.2762 44.9389 39.375 45.1875 39.375Z" fill="white"></path>
    <path d="M54.5625 41.25H45.1875C44.9389 41.25 44.7004 41.3488 44.5246 41.5246C44.3488 41.7004 44.25 41.9389 44.25 42.1875C44.25 42.4361 44.3488 42.6746 44.5246 42.8504C44.7004 43.0262 44.9389 43.125 45.1875 43.125H54.5625C54.8111 43.125 55.0496 43.0262 55.2254 42.8504C55.4012 42.6746 55.5 42.4361 55.5 42.1875C55.5 41.9389 55.4012 41.7004 55.2254 41.5246C55.0496 41.3488 54.8111 41.25 54.5625 41.25Z" fill="white"></path>
    <path d="M30.1875 46.875H33.9375C34.1861 46.875 34.4246 46.7762 34.6004 46.6004C34.7762 46.4246 34.875 46.1861 34.875 45.9375C34.875 45.6889 34.7762 45.4504 34.6004 45.2746C34.4246 45.0988 34.1861 45 33.9375 45H30.1875C29.9389 45 29.7004 45.0988 29.5246 45.2746C29.3488 45.4504 29.25 45.6889 29.25 45.9375C29.25 46.1861 29.3488 46.4246 29.5246 46.6004C29.7004 46.7762 29.9389 46.875 30.1875 46.875Z" fill="white"></path>
    <path d="M39.5625 48.75H30.1875C29.9389 48.75 29.7004 48.8488 29.5246 49.0246C29.3488 49.2004 29.25 49.4389 29.25 49.6875C29.25 49.9361 29.3488 50.1746 29.5246 50.3504C29.7004 50.5262 29.9389 50.625 30.1875 50.625H39.5625C39.8111 50.625 40.0496 50.5262 40.2254 50.3504C40.4012 50.1746 40.5 49.9361 40.5 49.6875C40.5 49.4389 40.4012 49.2004 40.2254 49.0246C40.0496 48.8488 39.8111 48.75 39.5625 48.75Z" fill="white"></path>
    <path d="M30.1875 39.375H33.9375C34.1861 39.375 34.4246 39.2762 34.6004 39.1004C34.7762 38.9246 34.875 38.6861 34.875 38.4375C34.875 38.1889 34.7762 37.9504 34.6004 37.7746C34.4246 37.5988 34.1861 37.5 33.9375 37.5H30.1875C29.9389 37.5 29.7004 37.5988 29.5246 37.7746C29.3488 37.9504 29.25 38.1889 29.25 38.4375C29.25 38.6861 29.3488 38.9246 29.5246 39.1004C29.7004 39.2762 29.9389 39.375 30.1875 39.375Z" fill="white"></path>
    <path d="M39.5625 41.25H30.1875C29.9389 41.25 29.7004 41.3488 29.5246 41.5246C29.3488 41.7004 29.25 41.9389 29.25 42.1875C29.25 42.4361 29.3488 42.6746 29.5246 42.8504C29.7004 43.0262 29.9389 43.125 30.1875 43.125H39.5625C39.8111 43.125 40.0496 43.0262 40.2254 42.8504C40.4012 42.6746 40.5 42.4361 40.5 42.1875C40.5 41.9389 40.4012 41.7004 40.2254 41.5246C40.0496 41.3488 39.8111 41.25 39.5625 41.25Z" fill="white"></path>
  </g>
  <defs>
    <filter id="filter0_d_1594_25169" x="-1" y="0" width="68" height="68" color-interpolation-filters="sRGB">
      <feFlood flood-opacity="0" result="BackgroundImageFix"></feFlood>
      <feColorMatrix in="SourceAlpha" type="matrix" values="0 0 0 0 0 0 0 0 0 0 0 0 0 0 0 0 0 0 127 0" result="hardAlpha"></feColorMatrix>
      <feOffset dy="4"></feOffset>
      <feGaussianBlur stdDeviation="2"></feGaussianBlur>
      <feColorMatrix type="matrix" values="0 0 0 0 0 0 0 0 0 0 0 0 0 0 0 0 0 0 0.25 0"></feColorMatrix>
      <feBlend mode="normal" in2="BackgroundImageFix" result="effect1_dropShadow_1594_25169"></feBlend>
      <feBlend mode="normal" in="SourceGraphic" in2="effect1_dropShadow_1594_25169" result="shape"></feBlend>
    </filter>
  </defs>
</svg>
