<?xml version="1.0" encoding="UTF-8"?>
<svg xmlns="http://www.w3.org/2000/svg" width="60" height="60" viewBox="0 0 60 60" fill="none">
  <path d="M18.4908 29.2407H10.1203C9.52122 29.2407 9.03613 29.7273 9.03613 30.3271C9.03613 30.9268 9.52122 31.4134 10.1203 31.4134H18.4908C19.0898 31.4134 19.5749 30.9268 19.5749 30.3271C19.5749 29.7273 19.0898 29.2407 18.4908 29.2407Z" fill="white"></path>
  <path d="M16.322 36.4844H10.1203C9.52122 36.4844 9.03613 36.971 9.03613 37.5707C9.03613 38.1705 9.52122 38.657 10.1203 38.657H16.322C16.9211 38.657 17.4061 38.1705 17.4061 37.5707C17.4061 36.971 16.9211 36.4844 16.322 36.4844Z" fill="white"></path>
  <path d="M57.9034 48.4378C58.5523 46.9205 58.9532 44.5067 58.9532 42.3286C58.9532 34.1177 52.0047 26.4093 44.9021 23.8365L46.4572 17.9075C46.6569 17.0289 46.2908 16.4821 45.609 16.4821C45.4184 16.4821 45.2026 16.525 44.9676 16.6155L44.0958 16.951V4.31957C44.0958 2.72597 42.7948 1.42236 41.2045 1.42236H2.8913C1.30094 1.42236 0 2.72597 0 4.31957V50.6791C0 52.2727 1.30094 53.5763 2.8913 53.5763H20.291C20.6445 56.3963 23.0452 58.5775 25.9598 58.5775C27.7665 58.5775 29.3745 57.7378 30.4228 56.4306C33.2537 57.7922 36.5717 58.5775 40.1205 58.5775C43.6694 58.5775 46.9873 57.7923 49.8182 56.4306C50.8666 57.7382 52.4746 58.5775 54.2813 58.5775C57.4394 58.5775 60 56.0183 60 52.8588C60 51.0781 59.1841 49.4871 57.9044 48.4381L57.9034 48.4378ZM37.4353 23.2842L36.4122 19.3834L37.3874 19.7594C38.3641 20.1368 39.4129 20.2166 40.1204 20.2166C40.8279 20.2166 41.8763 20.1378 42.8524 19.7604L43.8276 19.3845L42.8045 23.2847C42.7591 23.46 42.743 23.6343 42.741 23.8091H37.4989C37.4968 23.6343 37.4807 23.4595 37.4353 23.2842H37.4353ZM20.4344 51.4038H2.89017C2.49836 51.4038 2.16707 51.0719 2.16707 50.6793V4.31976C2.16707 3.92715 2.49836 3.59518 2.89017 3.59518H41.2033C41.5951 3.59518 41.9264 3.92715 41.9264 4.31976V17.7775C41.4096 17.9513 40.7677 18.0427 40.1192 18.0427C39.4107 18.0427 38.7033 17.9387 38.1657 17.7315L35.2703 16.6153C35.0353 16.5249 34.82 16.4819 34.6289 16.4819C33.9471 16.4819 33.5816 17.0287 33.7807 17.9074L35.3348 23.8363C28.2329 26.4102 21.2862 34.1182 21.2836 42.3271C21.2831 44.5054 21.685 46.9201 22.3335 48.4364C21.4173 49.1882 20.7442 50.223 20.4335 51.4029L20.4344 51.4038ZM54.2799 56.4051C53.1983 56.4051 52.1873 55.9185 51.5071 55.0702C51.085 54.5427 50.4573 54.2582 49.8163 54.2582C49.4996 54.2582 49.1789 54.3279 48.8789 54.4724C46.2493 55.7361 43.2213 56.4051 40.1192 56.4051C37.0171 56.4051 33.9891 55.7366 31.3599 54.4724C31.0594 54.3274 30.7392 54.2582 30.4225 54.2582C29.7811 54.2582 29.1539 54.5437 28.7318 55.0702C28.0515 55.9185 27.041 56.4051 25.959 56.4051C24.0015 56.4051 22.409 54.815 22.409 52.8596C22.409 51.7954 22.883 50.7965 23.71 50.1185C24.4573 49.5051 24.7104 48.4713 24.3297 47.581C23.8063 46.3577 23.4549 44.2462 23.4559 42.3287C23.4574 35.093 29.8301 28.276 35.8276 25.9813H44.4124C50.411 28.2762 56.7847 35.0925 56.7847 42.3287C56.7847 44.2477 56.4343 46.3593 55.9109 47.5815C55.5306 48.4718 55.7828 49.5061 56.5306 50.1195C57.3575 50.7966 57.831 51.795 57.831 52.8581C57.8305 54.8146 56.2375 56.4047 54.2801 56.4047L54.2799 56.4051Z" fill="white"></path>
  <path d="M43.8961 37.743C43.8961 38.3028 44.3484 38.757 44.9081 38.757C45.4678 38.757 45.9201 38.3028 45.9201 37.743C45.9201 36.0675 44.8461 34.1463 41.9285 33.7033V33.2016C41.9285 32.6018 41.4434 32.1152 40.8443 32.1152C40.2453 32.1152 39.7602 32.6018 39.7602 33.2016V33.6639C37.0277 33.9969 35.7686 35.931 35.7686 37.744C35.7686 40.3785 37.898 41.2016 39.7602 41.6938V46.4554C38.546 46.2235 37.7916 45.4853 37.7916 44.4328C37.7916 43.8729 37.3393 43.4187 36.7796 43.4187C36.2199 43.4187 35.7676 43.8729 35.7676 44.4328C35.7676 46.6191 37.3727 48.2087 39.7592 48.5129V49.0086C39.7592 49.6083 40.2443 50.0949 40.8434 50.0949C41.4424 50.0949 41.9275 49.6083 41.9275 49.0086V48.4785C45.4915 47.9925 45.9191 45.5504 45.9191 44.4337C45.9191 41.6238 43.8406 40.6916 41.9275 40.1571V35.7682C42.8936 35.9739 43.8961 36.4882 43.8961 37.7429V37.743ZM37.7906 37.743C37.7906 37.4322 37.8985 36.0336 39.7592 35.7052V39.5827C38.3861 39.1719 37.7906 38.747 37.7906 37.743ZM43.8961 44.4329C43.8961 44.9184 43.888 46.0755 41.9275 46.4323V42.2779C43.2794 42.722 43.8961 43.2465 43.8961 44.4329Z" fill="white"></path>
  <path d="M11.2051 24.5323C12.2025 24.5323 13.0124 23.7223 13.0124 22.7214C13.0124 22.636 12.9987 22.5546 12.9871 22.4723L17.4618 17.9879C17.544 18 17.6252 18.0132 17.7104 18.0132C18.0533 18.0132 18.3705 17.9116 18.6438 17.7459L23.2032 19.5735C23.4119 20.3425 24.1063 20.9105 24.9403 20.9105C25.9377 20.9105 26.7475 20.1005 26.7475 19.0995C26.7475 18.9444 26.7223 18.7969 26.6855 18.6534L30.6706 13.6612C30.6887 13.6617 30.7054 13.6668 30.7235 13.6668C31.7209 13.6668 32.5307 12.8568 32.5307 11.8558C32.5307 10.8564 31.7209 10.0449 30.7235 10.0449C29.7246 10.0449 28.9163 10.8564 28.9163 11.8558C28.9163 12.011 28.9415 12.1585 28.9778 12.302L24.9933 17.2942C24.9751 17.2937 24.9585 17.2886 24.9403 17.2886C24.5969 17.2886 24.2803 17.3902 24.0069 17.5559L19.4476 15.7283C19.2388 14.9598 18.544 14.3913 17.711 14.3913C16.712 14.3913 15.9037 15.2028 15.9037 16.2023C15.9037 16.2876 15.9174 16.369 15.929 16.4514L11.4543 20.9357C11.3721 20.9236 11.2909 20.9104 11.2057 20.9104C10.2067 20.9104 9.39844 21.7219 9.39844 22.7214C9.39793 23.7223 10.2062 24.5323 11.2051 24.5323H11.2051Z" fill="white"></path>
</svg>
