<?xml version="1.0" encoding="UTF-8"?>
<svg xmlns="http://www.w3.org/2000/svg" width="60" height="60" viewBox="0 0 60 60" fill="none">
  <g clip-path="url(#clip0_1826_28200)">
    <path d="M56.148 41.6375L53.76 41.9175L53.222 37.3305C53.1661 36.8505 53.0079 36.3881 52.758 35.9745C55.1607 35.8499 57.0404 33.8575 57.0249 31.4516C57.0095 29.0458 55.1043 27.0776 52.7003 26.9839C50.2962 26.8902 48.2437 28.7041 48.041 31.1015L45.023 28.0885C43.6758 26.7475 41.4982 26.7475 40.151 28.0885L37.536 30.6885C36.8842 31.3351 36.5175 32.2153 36.5175 33.1335C36.5175 34.0517 36.8842 34.9318 37.536 35.5785C38.8905 36.9135 41.0668 36.9109 42.418 35.5725L42.581 35.4095L43.767 36.5965L28 52.3755C27.0194 53.3628 26.7264 54.8419 27.2565 56.1285C27.7866 57.4151 29.0365 58.2585 30.428 58.2685H30.439C31.358 58.2689 32.239 57.902 32.886 57.2495L38.246 51.8895L39.432 53.0765L38.407 54.1015C37.0941 55.4567 37.1114 57.6147 38.4457 58.9488C39.7801 60.2829 41.938 60.2997 43.293 58.9865L46.765 55.5155C48.1121 54.165 48.1121 51.979 46.765 50.6285L43.13 47.0085L46.949 43.1895L47.296 46.1375C47.3993 47.0466 47.8602 47.8771 48.5769 48.4458C49.2936 49.0145 50.2072 49.2745 51.116 49.1685L56.958 48.4935C58.6923 48.2878 59.999 46.818 60 45.0715C60.0023 44.9339 59.9959 44.7963 59.981 44.6595C59.7521 42.7693 58.0394 41.419 56.148 41.6375ZM50.732 29.7375C51.7084 28.7614 53.2912 28.7615 54.2674 29.7378C55.2436 30.7141 55.2436 32.2969 54.2674 33.2732C53.2912 34.2495 51.7084 34.2496 50.732 33.2735C50.2603 32.8053 49.995 32.1681 49.995 31.5035C49.995 30.8389 50.2603 30.2017 50.732 29.7335V29.7375ZM56.726 46.5115L50.883 47.1865C50.5022 47.2321 50.119 47.1241 49.818 46.8865C49.517 46.6497 49.3245 46.3013 49.284 45.9205L48.841 42.1635C48.7698 41.5493 48.3533 41.0301 47.7693 40.8272C47.1852 40.6244 46.5366 40.7737 46.1 41.2115L41.008 46.3015C40.8202 46.4891 40.7147 46.7436 40.7147 47.009C40.7147 47.2744 40.8202 47.5289 41.008 47.7165L45.35 52.0465C45.9151 52.6161 45.9151 53.5349 45.35 54.1045L41.877 57.5755C41.3013 58.1247 40.3957 58.1247 39.82 57.5755C39.2625 57.0031 39.2625 56.0908 39.82 55.5185L41.12 54.2185C41.4255 53.9166 41.5974 53.505 41.5974 53.0755C41.5974 52.646 41.4255 52.2344 41.12 51.9325L39.392 50.2015C39.0911 49.8946 38.6793 49.7216 38.2495 49.7216C37.8197 49.7216 37.4079 49.8946 37.107 50.2015L31.476 55.8315C31.2028 56.1103 30.8284 56.2669 30.438 56.2655C29.8544 56.2577 29.3316 55.9024 29.1097 55.3625C28.8878 54.8227 29.0095 54.2025 29.419 53.7865L45.464 37.7315C46.088 37.1023 46.088 36.0877 45.464 35.4585L43.722 33.7155C43.0937 33.0893 42.0773 33.0893 41.449 33.7155L41.008 34.1565C40.4374 34.7183 39.5216 34.7183 38.951 34.1565C38.6759 33.8851 38.5211 33.5149 38.5211 33.1285C38.5211 32.7421 38.6759 32.3718 38.951 32.1005L41.565 29.5005C42.13 28.9356 43.046 28.9356 43.611 29.5005L50.824 36.7005C51.0563 36.93 51.2022 37.2328 51.237 37.5575L51.86 42.8685C51.892 43.2013 52.056 43.5074 52.3153 43.7184C52.5746 43.9294 52.9076 44.0278 53.24 43.9915L56.381 43.6235C56.7652 43.5781 57.1517 43.6873 57.4553 43.927C57.759 44.1667 57.9549 44.5173 58 44.9015C58.003 44.9585 58.003 45.0155 58 45.0725C57.9987 45.8039 57.4522 46.4196 56.726 46.5075V46.5115Z" fill="white"></path>
    <path d="M1.94618 23.3477C1.39389 23.3504 0.943936 22.9049 0.941175 22.3527C0.938413 21.8004 1.38389 21.3504 1.93618 21.3477H1.94618C2.49846 21.3477 2.94618 21.7954 2.94618 22.3477C2.94618 22.8999 2.49846 23.3477 1.94618 23.3477Z" fill="white"></path>
    <path d="M4.95967 49.8465C4.37273 50.3546 4.13286 51.1565 4.34435 51.9035C4.55583 52.6504 5.18048 53.2075 5.94667 53.3325L14.4077 54.7135L15.6437 54.8535C15.7193 54.8623 15.7955 54.8667 15.8717 54.8665C16.4397 54.8654 16.9805 54.6228 17.3591 54.1993C17.7376 53.7757 17.9182 53.2111 17.8557 52.6465C17.8482 52.575 17.8327 52.5046 17.8097 52.4365C17.7817 51.9735 17.7047 51.2755 17.5837 50.1905L16.7837 42.9595C16.6984 42.1962 16.1834 41.5491 15.4587 41.2946C14.734 41.0401 13.9275 41.2231 13.3837 41.7655L11.7927 43.3555C8.16094 38.7546 6.48428 32.91 7.12467 27.0835C8.22351 16.9247 16.0298 8.78193 26.1332 7.25559C36.2366 5.72925 46.1 11.2027 50.1507 20.5835C50.6973 21.8692 51.9521 22.7104 53.3491 22.7277C54.746 22.7451 56.0213 21.9353 56.5997 20.6635C56.9934 19.7947 57.0058 18.8008 56.6337 17.9225C51.6176 6.1799 39.6195 -1.00585 26.8997 0.114518C24.2337 0.375619 21.6123 0.977875 19.0997 1.90652C16.5994 2.86158 14.2402 4.15134 12.0867 5.74052C9.91821 7.313 7.98363 9.18496 6.34067 11.3005C4.66924 13.3932 3.3005 15.7105 2.27467 18.1845C2.16177 18.4303 2.15699 18.7122 2.26151 18.9617C2.36602 19.2112 2.57027 19.4056 2.82467 19.4975C3.33277 19.6836 3.89858 19.4481 4.12467 18.9565C5.08023 16.6499 6.35648 14.4896 7.91567 12.5395C9.44782 10.5661 11.2529 8.82057 13.2767 7.35552C15.285 5.87277 17.4854 4.66977 19.8177 3.77952C22.1579 2.91648 24.5985 2.3553 27.0807 2.10952C38.9382 1.0653 50.1228 7.76342 54.7997 18.7095C54.9544 19.0717 54.9478 19.4825 54.7817 19.8395C54.5294 20.3894 53.9756 20.7378 53.3707 20.7272C52.7657 20.7166 52.2245 20.3489 51.9917 19.7905C48.1701 10.9338 39.5061 5.14477 29.8611 5.00367C20.2161 4.86256 11.3864 10.3956 7.30744 19.1368C3.22846 27.878 4.65986 38.1993 10.9637 45.5005C11.1455 45.7103 11.4064 45.8351 11.6839 45.845C11.9613 45.8548 12.2304 45.7489 12.4267 45.5525L14.7997 43.1795L15.8727 52.8645L14.6857 52.7315L6.26967 51.3575L8.83467 49.1365C9.03679 48.9615 9.16039 48.7128 9.17787 48.446C9.19534 48.1791 9.10524 47.9164 8.92767 47.7165C3.7254 41.9035 1.26619 34.1385 2.17367 26.3905C2.2347 25.8416 1.83914 25.347 1.29017 25.286C0.741197 25.225 0.246696 25.6206 0.185668 26.1695C-0.747204 34.1304 1.63474 42.1245 6.77267 48.2765L4.95967 49.8465Z" fill="white"></path>
    <path d="M31.977 11.0235C30.9759 10.0207 29.469 9.72038 28.16 10.2629C26.851 10.8053 25.9983 12.0835 26 13.5005V25.2615C25.7307 25.4837 25.4833 25.7312 25.261 26.0005H17.5C15.567 26.0005 14 27.5675 14 29.5005C14 31.4335 15.567 33.0005 17.5 33.0005H25.261C26.5878 34.6245 28.7226 35.3527 30.7653 34.878C32.8079 34.4034 34.4029 32.8084 34.8776 30.7657C35.3523 28.7231 34.624 26.5882 33 25.2615V13.5005C33.0037 12.5713 32.6353 11.6793 31.977 11.0235ZM28 13.5005C28 12.672 28.6716 12.0005 29.5 12.0005C30.3284 12.0005 31 12.672 31 13.5005V24.2135C30.0202 23.9294 28.9798 23.9294 28 24.2135V13.5005ZM17.5 31.0005C16.6716 31.0005 16 30.3289 16 29.5005C16 28.672 16.6716 28.0005 17.5 28.0005H24.213C23.929 28.9803 23.929 30.0206 24.213 31.0005H17.5ZM29.5 33.0005C27.567 33.0005 26 31.4335 26 29.5005C26 27.5675 27.567 26.0005 29.5 26.0005C31.433 26.0005 33 27.5675 33 29.5005C33 31.4335 31.433 33.0005 29.5 33.0005Z" fill="white"></path>
    <path d="M37.0001 39C37.0001 38.4477 36.5524 38 36.0001 38H24.0001C23.4478 38 23.0001 38.4477 23.0001 39C23.0001 39.5523 23.4478 40 24.0001 40H36.0001C36.5524 40 37.0001 39.5523 37.0001 39Z" fill="white"></path>
    <path d="M32.0001 44C32.0001 43.4477 31.5524 43 31.0001 43H20.0001C19.4478 43 19.0001 43.4477 19.0001 44C19.0001 44.5523 19.4478 45 20.0001 45H31.0001C31.5524 45 32.0001 44.5523 32.0001 44Z" fill="white"></path>
    <path d="M26.0001 48H21.0001C20.4478 48 20.0001 48.4477 20.0001 49C20.0001 49.5523 20.4478 50 21.0001 50H26.0001C26.5524 50 27.0001 49.5523 27.0001 49C27.0001 48.4477 26.5524 48 26.0001 48Z" fill="white"></path>
  </g>
  <defs>
    <clipPath id="clip0_1826_28200">
      <rect width="60" height="60" fill="white"></rect>
    </clipPath>
  </defs>
</svg>
