<?xml version="1.0" encoding="UTF-8"?>
<svg xmlns="http://www.w3.org/2000/svg" width="56" height="60" viewBox="0 0 56 60" fill="none">
  <path d="M12.8291 40.2857C11.3152 40.9476 10.297 42.3762 10.1818 43.9998C10.1818 46.7998 13.7597 48.9998 18.3273 48.9998C22.8948 48.9998 26.4727 46.7998 26.4727 43.9998C26.3569 42.3712 25.3339 40.939 23.8143 40.2777C25.8736 38.5955 27.7848 36.7456 29.5273 34.7476V54.9999C29.5306 57.76 31.8079 59.9967 34.6182 60H50.9091C53.7193 59.9967 55.9966 57.76 56 54.9999V24.9995C55.9955 22.2767 53.7736 20.058 51.0017 20.0084H50.9529C50.9376 20.0084 50.9244 20.0084 50.9091 20.0084H36.5395C36.6125 19.3411 36.6509 18.6706 36.6545 17.9994C36.6635 11.482 33.0799 5.47051 27.2889 2.28833C21.4979 -0.89386 14.4068 -0.748137 8.75636 2.66917C8.04 3.09991 7.35172 3.57417 6.69556 4.08919C6.05421 4.62161 5.44721 5.19272 4.87811 5.79922C3.73037 7.00606 2.76263 8.36661 2.00378 9.84028C1.87169 10.0793 1.84679 10.3615 1.93506 10.6193C2.02332 10.8771 2.21679 11.0872 2.46909 11.1993C2.96928 11.4215 3.55925 11.2247 3.81818 10.7493C4.49183 9.43807 5.35236 8.22788 6.37382 7.15524C6.87969 6.61605 7.41899 6.10807 7.98865 5.63421C8.57266 5.17737 9.18473 4.75623 9.82138 4.3732C14.8435 1.33453 21.147 1.2044 26.2947 4.03312C31.4423 6.86184 34.6273 12.206 34.6182 17.9994C34.6137 18.6723 34.5705 19.3443 34.4889 20.0124C31.733 20.0812 29.5336 22.2919 29.5273 24.9995V31.5346C26.391 35.5386 22.6075 39.0104 18.3273 41.8117C15.4764 39.9587 2.03636 30.5556 2.03636 17.9994C2.03636 17.4471 1.58051 16.9994 1.01818 16.9994C0.455855 16.9994 0 17.4471 0 17.9994C0 28.0515 7.55185 35.9757 12.8291 40.2857ZM49.2617 21.9995L48.5245 23.4465C48.3533 23.7862 48.0002 24.0007 47.6143 23.9995H37.913C37.5271 24.0007 37.174 23.7862 37.0028 23.4465L36.2656 21.9995H49.2617ZM31.5636 24.9995C31.564 23.5696 32.5919 22.3387 34.0195 22.0585L35.1812 24.3415C35.6956 25.3604 36.7551 26.0035 37.913 25.9995H47.6143C48.7722 26.0035 49.8317 25.3604 50.346 24.3415L51.5078 22.0585C52.9354 22.3387 53.9632 23.5696 53.9636 24.9995V54.9999C53.9636 56.6568 52.5961 58 50.9091 58H34.6182C32.9312 58 31.5636 56.6568 31.5636 54.9999V24.9995ZM18.3273 43.9998C18.5131 43.9997 18.6954 43.9499 18.8547 43.8558C18.9769 43.7828 20.2486 43.0158 22.0528 41.6627C23.5139 42.2417 24.4364 43.1278 24.4364 43.9998C24.4364 45.4188 21.9276 46.9998 18.3273 46.9998C14.727 46.9998 12.2182 45.4188 12.2182 43.9998C12.2182 43.1308 13.1345 42.2467 14.5916 41.6667C16.3561 42.9848 17.6145 43.7448 17.7999 43.8558C17.9591 43.9499 18.1414 43.9997 18.3273 43.9998Z" fill="white"></path>
</svg>
