<?xml version="1.0" encoding="UTF-8"?>
<svg xmlns="http://www.w3.org/2000/svg" width="60" height="60" viewBox="0 0 60 60" fill="none">
  <path d="M56.1484 41.636L53.7604 41.916L53.2224 37.329C53.1665 36.849 53.0082 36.3866 52.7584 35.973C55.161 35.8485 57.0407 33.856 57.0253 31.4502C57.0098 29.0443 55.1047 27.0762 52.7006 26.9825C50.2965 26.8888 48.244 28.7027 48.0414 31.1L45.0234 28.087C43.6762 26.746 41.4985 26.746 40.1514 28.087L37.5364 30.687C36.8845 31.3337 36.5179 32.2138 36.5179 33.132C36.5179 34.0502 36.8845 34.9304 37.5364 35.577C38.8909 36.9121 41.0672 36.9094 42.4184 35.571L42.5814 35.408L43.7674 36.595L28.0004 52.374C27.0198 53.3614 26.7268 54.8404 27.2569 56.127C27.787 57.4137 29.0368 58.257 30.4284 58.267H30.4394C31.3583 58.2674 32.2393 57.9005 32.8864 57.248L38.2464 51.888L39.4324 53.075L38.4074 54.1C37.0945 55.4553 37.1117 57.6132 38.4461 58.9473C39.7805 60.2814 41.9384 60.2982 43.2934 58.985L46.7654 55.514C48.1125 54.1635 48.1125 51.9775 46.7654 50.627L43.1304 47.007L46.9494 43.188L47.2964 46.136C47.3997 47.0451 47.8606 47.8757 48.5773 48.4443C49.294 49.013 50.2076 49.2731 51.1164 49.167L56.9584 48.492C58.6927 48.2864 59.9993 46.8165 60.0004 45.07C60.0026 44.9324 59.9963 44.7948 59.9814 44.658C59.7524 42.7679 58.0398 41.4176 56.1484 41.636ZM50.7324 29.736C51.7087 28.7599 53.2915 28.76 54.2677 29.7363C55.2439 30.7126 55.2439 32.2954 54.2677 33.2717C53.2915 34.248 51.7087 34.2481 50.7324 33.272C50.2607 32.8038 49.9954 32.1667 49.9954 31.502C49.9954 30.8374 50.2607 30.2003 50.7324 29.732V29.736ZM56.7264 46.51L50.8834 47.185C50.5026 47.2306 50.1194 47.1227 49.8184 46.885C49.5174 46.6482 49.3248 46.2999 49.2844 45.919L48.8414 42.162C48.7701 41.5479 48.3537 41.0286 47.7696 40.8258C47.1856 40.6229 46.537 40.7722 46.1004 41.21L41.0084 46.3C40.8206 46.4876 40.7151 46.7421 40.7151 47.0075C40.7151 47.2729 40.8206 47.5275 41.0084 47.715L45.3504 52.045C45.9155 52.6146 45.9155 53.5334 45.3504 54.103L41.8774 57.574C41.3017 58.1232 40.3961 58.1232 39.8204 57.574C39.2629 57.0017 39.2629 56.0894 39.8204 55.517L41.1204 54.217C41.4258 53.9151 41.5978 53.5035 41.5978 53.074C41.5978 52.6445 41.4258 52.2329 41.1204 51.931L39.3924 50.2C39.0915 49.8931 38.6797 49.7202 38.2499 49.7202C37.82 49.7202 37.4083 49.8931 37.1074 50.2L31.4764 55.83C31.2031 56.1089 30.8288 56.2654 30.4384 56.264C29.8547 56.2563 29.332 55.901 29.1101 55.3611C28.8882 54.8212 29.0099 54.201 29.4194 53.785L45.4644 37.73C46.0883 37.1008 46.0883 36.0862 45.4644 35.457L43.7224 33.714C43.0941 33.0879 42.0777 33.0879 41.4494 33.714L41.0084 34.155C40.4378 34.7168 39.522 34.7168 38.9514 34.155C38.6763 33.8837 38.5214 33.5134 38.5214 33.127C38.5214 32.7406 38.6763 32.3704 38.9514 32.099L41.5654 29.499C42.1304 28.9342 43.0463 28.9342 43.6114 29.499L50.8244 36.699C51.0567 36.9286 51.2026 37.2313 51.2374 37.556L51.8604 42.867C51.8924 43.1998 52.0563 43.5059 52.3156 43.717C52.575 43.928 52.908 44.0263 53.2404 43.99L56.3814 43.622C56.7656 43.5767 57.152 43.6859 57.4557 43.9256C57.7593 44.1653 57.9553 44.5158 58.0004 44.9C58.0034 44.957 58.0034 45.0141 58.0004 45.071C57.9991 45.8025 57.4525 46.4181 56.7264 46.506V46.51Z" fill="white"></path>
  <path d="M1.94642 23.3459C1.39413 23.3487 0.94418 22.9032 0.941419 22.3509C0.938658 21.7987 1.38413 21.3487 1.93642 21.3459H1.94642C2.4987 21.3459 2.94642 21.7937 2.94642 22.3459C2.94642 22.8982 2.4987 23.3459 1.94642 23.3459Z" fill="white"></path>
  <path d="M4.95979 49.846C4.37285 50.3542 4.13298 51.156 4.34447 51.903C4.55596 52.6499 5.1806 53.207 5.94679 53.332L14.4078 54.713L15.6438 54.853C15.7195 54.8619 15.7956 54.8662 15.8718 54.866C16.4399 54.8649 16.9806 54.6223 17.3592 54.1988C17.7377 53.7752 17.9183 53.2107 17.8558 52.646C17.8483 52.5745 17.8329 52.5041 17.8098 52.436C17.7818 51.973 17.7048 51.275 17.5838 50.19L16.7838 42.959C16.6985 42.1957 16.1836 41.5486 15.4588 41.2941C14.7341 41.0396 13.9276 41.2226 13.3838 41.765L11.7928 43.355C8.16106 38.7541 6.4844 32.9095 7.12479 27.083C8.22363 16.9242 16.0299 8.78144 26.1333 7.2551C36.2368 5.72877 46.1001 11.2022 50.1508 20.583C50.6975 21.8687 51.9522 22.7099 53.3492 22.7272C54.7462 22.7446 56.0214 21.9348 56.5998 20.663C56.9935 19.7942 57.0059 18.8003 56.6338 17.922C51.6177 6.17941 39.6197 -1.00634 26.8998 0.11403C24.2338 0.375131 21.6124 0.977386 19.0998 1.90603C16.5995 2.86109 14.2404 4.15085 12.0868 5.74003C9.91833 7.31251 7.98375 9.18447 6.34079 11.3C4.66937 13.3927 3.30062 15.7101 2.27479 18.184C2.16189 18.4299 2.15711 18.7117 2.26163 18.9612C2.36614 19.2107 2.57039 19.4051 2.82479 19.497C3.3329 19.6831 3.89871 19.4476 4.12479 18.956C5.08035 16.6494 6.3566 14.4891 7.91579 12.539C9.44794 10.5656 11.253 8.82009 13.2768 7.35503C15.2851 5.87228 17.4856 4.66928 19.8178 3.77903C22.158 2.916 24.5987 2.35481 27.0808 2.10903C38.9383 1.06481 50.1229 7.76293 54.7998 18.709C54.9545 19.0712 54.9479 19.482 54.7818 19.839C54.5295 20.3889 53.9757 20.7374 53.3708 20.7267C52.7659 20.7161 52.2246 20.3484 51.9918 19.79C48.1703 10.9333 39.5062 5.14428 29.8612 5.00318C20.2162 4.86208 11.3865 10.3951 7.30756 19.1363C3.22858 27.8775 4.65998 38.1988 10.9638 45.5C11.1456 45.7099 11.4065 45.8346 11.684 45.8445C11.9614 45.8544 12.2305 45.7484 12.4268 45.552L14.7998 43.179L15.8728 52.864L14.6858 52.731L6.26979 51.357L8.83479 49.136C9.03691 48.961 9.16052 48.7123 9.17799 48.4455C9.19547 48.1786 9.10536 47.916 8.92779 47.716C3.72552 41.9031 1.26631 34.138 2.17379 26.39C2.23482 25.8411 1.83926 25.3466 1.29029 25.2855C0.74132 25.2245 0.246818 25.6201 0.185791 26.169C-0.747082 34.1299 1.63486 42.124 6.77279 48.276L4.95979 49.846Z" fill="white"></path>
  <path d="M31.977 11.023C30.9759 10.0202 29.469 9.7199 28.16 10.2624C26.851 10.8048 25.9983 12.083 26 13.5V25.261C25.7307 25.4832 25.4833 25.7307 25.261 26H17.5C15.567 26 14 27.567 14 29.5C14 31.433 15.567 33 17.5 33H25.261C26.5878 34.624 28.7226 35.3522 30.7653 34.8776C32.8079 34.4029 34.4029 32.8079 34.8776 30.7652C35.3523 28.7226 34.624 26.5877 33 25.261V13.5C33.0037 12.5708 32.6353 11.6788 31.977 11.023ZM28 13.5C28 12.6715 28.6716 12 29.5 12C30.3284 12 31 12.6715 31 13.5V24.213C30.0202 23.929 28.9798 23.929 28 24.213V13.5ZM17.5 31C16.6716 31 16 30.3284 16 29.5C16 28.6715 16.6716 28 17.5 28H24.213C23.929 28.9798 23.929 30.0201 24.213 31H17.5ZM29.5 33C27.567 33 26 31.433 26 29.5C26 27.567 27.567 26 29.5 26C31.433 26 33 27.567 33 29.5C33 31.433 31.433 33 29.5 33Z" fill="white"></path>
  <path d="M37.0005 39C37.0005 38.4477 36.5528 38 36.0005 38H24.0005C23.4482 38 23.0005 38.4477 23.0005 39C23.0005 39.5523 23.4482 40 24.0005 40H36.0005C36.5528 40 37.0005 39.5523 37.0005 39Z" fill="white"></path>
  <path d="M32 44C32 43.4477 31.5523 43 31 43H20C19.4477 43 19 43.4477 19 44C19 44.5523 19.4477 45 20 45H31C31.5523 45 32 44.5523 32 44Z" fill="white"></path>
  <path d="M26 48H21C20.4477 48 20 48.4477 20 49C20 49.5523 20.4477 50 21 50H26C26.5523 50 27 49.5523 27 49C27 48.4477 26.5523 48 26 48Z" fill="white"></path>
</svg>
