<?xml version="1.0" encoding="UTF-8"?>
<svg xmlns="http://www.w3.org/2000/svg" width="58" height="56" viewBox="0 0 58 56" fill="none">
  <path d="M54.3125 0.8125H3.6875C2.94185 0.813368 2.22698 1.10996 1.69972 1.63722C1.17246 2.16448 0.875868 2.87935 0.875 3.625V52.375C0.875868 53.1207 1.17246 53.8355 1.69972 54.3628C2.22698 54.89 2.94185 55.1866 3.6875 55.1875H54.3125C55.0582 55.1866 55.773 54.89 56.3003 54.3628C56.8275 53.8355 57.1241 53.1207 57.125 52.375V3.625C57.1241 2.87935 56.8275 2.16448 56.3003 1.63722C55.773 1.10996 55.0582 0.813368 54.3125 0.8125ZM3.6875 2.6875H54.3125C54.5611 2.68778 54.7994 2.78664 54.9751 2.9624C55.1509 3.13815 55.2497 3.37645 55.25 3.625V8.3125H2.75V3.625C2.75028 3.37645 2.84914 3.13815 3.0249 2.9624C3.20065 2.78664 3.43895 2.68778 3.6875 2.6875ZM54.3125 53.3125H3.6875C3.43895 53.3122 3.20065 53.2134 3.0249 53.0376C2.84914 52.8619 2.75028 52.6236 2.75 52.375V10.1875H55.25V52.375C55.2497 52.6236 55.1509 52.8619 54.9751 53.0376C54.7994 53.2134 54.5611 53.3122 54.3125 53.3125Z" fill="white"></path>
</svg>
