<?xml version="1.0" encoding="UTF-8"?>
<svg xmlns="http://www.w3.org/2000/svg" width="61" height="60" viewBox="0 0 61 60" fill="none">
  <path d="M57.138 41.6652L54.7505 41.9454L54.2127 37.3552C54.1568 36.8749 53.9986 36.4122 53.7488 35.9983C56.1509 35.8736 58.0302 33.8798 58.0147 31.4723C57.9993 29.0648 56.0946 27.0953 53.691 27.0015C51.2875 26.9078 49.2354 28.7229 49.0328 31.1219L46.0155 28.1068C44.6686 26.7649 42.4914 26.7649 41.1446 28.1068L38.5301 30.7086C37.8784 31.3557 37.5119 32.2365 37.5119 33.1553C37.5119 34.0741 37.8784 34.9549 38.5301 35.602C39.8843 36.938 42.0602 36.9353 43.4111 35.596L43.574 35.4329L44.7598 36.6207L28.9962 52.4106C28.0159 53.3987 27.7229 54.8787 28.2529 56.1663C28.7829 57.4538 30.0325 58.2977 31.4237 58.3077H31.4347C32.3535 58.3081 33.2343 57.941 33.8812 57.288L39.24 51.9243L40.4257 53.1121L39.4009 54.1378C38.0883 55.494 38.1056 57.6534 39.4397 58.9885C40.7737 60.3235 42.9312 60.3403 44.2859 59.0262L47.7571 55.5528C49.1039 54.2014 49.1039 52.0139 47.7571 50.6624L44.1229 47.0399L47.9411 43.2183L48.288 46.1683C48.3913 47.078 48.8521 47.9092 49.5686 48.4782C50.2852 49.0473 51.1986 49.3075 52.1071 49.2014L57.9478 48.526C59.6818 48.3202 60.9881 46.8493 60.9892 45.1016C60.9914 44.9639 60.9851 44.8262 60.9702 44.6893C60.7413 42.7978 59.029 41.4466 57.138 41.6652ZM51.7232 29.757C52.6994 28.7802 54.2818 28.7803 55.2578 29.7573C56.2338 30.7343 56.2338 32.3181 55.2578 33.2951C54.2818 34.2721 52.6994 34.2722 51.7232 33.2954C51.2516 32.8269 50.9864 32.1893 50.9864 31.5242C50.9864 30.8591 51.2516 30.2215 51.7232 29.753V29.757ZM57.7159 46.5426L51.8742 47.2181C51.4935 47.2637 51.1103 47.1556 50.8094 46.9178C50.5085 46.6809 50.316 46.3323 50.2755 45.9512L49.8326 42.1916C49.7614 41.577 49.3451 41.0574 48.7612 40.8544C48.1772 40.6514 47.5287 40.8008 47.0922 41.2389L42.0014 46.3324C41.8136 46.5201 41.7081 46.7748 41.7081 47.0404C41.7081 47.306 41.8136 47.5607 42.0014 47.7484L46.3424 52.0814C46.9074 52.6514 46.9074 53.5708 46.3424 54.1408L42.8702 57.6142C42.2946 58.1638 41.3892 58.1638 40.8136 57.6142C40.2562 57.0415 40.2562 56.1286 40.8136 55.5558L42.1133 54.2549C42.4188 53.9528 42.5906 53.5409 42.5906 53.1111C42.5906 52.6813 42.4188 52.2694 42.1133 51.9673L40.3857 50.2351C40.0849 49.928 39.6732 49.7549 39.2435 49.7549C38.8137 49.7549 38.4021 49.928 38.1012 50.2351L32.4715 55.869C32.1983 56.1481 31.824 56.3047 31.4337 56.3033C30.8502 56.2956 30.3276 55.94 30.1057 55.3998C29.8839 54.8595 30.0055 54.2389 30.4149 53.8226L46.4564 37.7565C47.0802 37.1269 47.0802 36.1116 46.4564 35.4819L44.7148 33.7377C44.0866 33.1111 43.0704 33.1111 42.4423 33.7377L42.0014 34.179C41.4309 34.7412 40.5153 34.7412 39.9448 34.179C39.6698 33.9075 39.515 33.537 39.515 33.1503C39.515 32.7637 39.6698 32.3931 39.9448 32.1216L42.5582 29.5198C43.1232 28.9546 44.0389 28.9546 44.6038 29.5198L51.8152 36.7248C52.0475 36.9545 52.1933 37.2574 52.2281 37.5824L52.851 42.8971C52.8829 43.2301 53.0469 43.5364 53.3061 43.7476C53.5654 43.9588 53.8984 44.0572 54.2307 44.0208L57.371 43.6526C57.7551 43.6072 58.1415 43.7165 58.445 43.9563C58.7486 44.1962 58.9445 44.547 58.9896 44.9315C58.9926 44.9885 58.9926 45.0456 58.9896 45.1026C58.9883 45.8346 58.4419 46.4506 57.7159 46.5386V46.5426Z" fill="white"></path>
  <path d="M2.94642 23.3627C2.39413 23.3655 1.94418 22.9197 1.94142 22.367C1.93866 21.8144 2.38413 21.3641 2.93642 21.3613H2.94642C3.4987 21.3613 3.94642 21.8094 3.94642 22.362C3.94642 22.9147 3.4987 23.3627 2.94642 23.3627Z" fill="white"></path>
  <path d="M5.95967 49.8818C5.37286 50.3903 5.13304 51.1927 5.34448 51.9401C5.55592 52.6876 6.18043 53.2451 6.94645 53.3701L15.4056 54.7521L16.6413 54.8922C16.717 54.901 16.7931 54.9053 16.8693 54.9052C17.4372 54.9041 17.9779 54.6613 18.3563 54.2374C18.7348 53.8136 18.9153 53.2487 18.8528 52.6837C18.8453 52.6121 18.8299 52.5417 18.8068 52.4735C18.7788 52.0102 18.7019 51.3118 18.5809 50.226L17.7811 42.9902C17.6958 42.2263 17.181 41.5788 16.4564 41.3241C15.7318 41.0694 14.9255 41.2526 14.3818 41.7954L12.7912 43.3865C9.16023 38.7825 7.48394 32.934 8.12419 27.1036C9.22279 16.938 17.0274 8.78975 27.1285 7.26239C37.2297 5.73504 47.0909 11.2121 51.1407 20.5992C51.6872 21.8858 52.9417 22.7275 54.3384 22.7449C55.735 22.7622 57.01 21.9519 57.5883 20.6793C57.9819 19.8099 57.9942 18.8153 57.6222 17.9365C52.6073 6.18599 40.6119 -1.00457 27.8948 0.116548C25.2294 0.377824 22.6086 0.980482 20.0965 1.90975C17.5968 2.86545 15.2382 4.15606 13.0851 5.74631C10.9171 7.31985 8.98296 9.19306 7.34036 11.31C5.66931 13.4041 4.30087 15.723 3.27526 18.1986C3.16238 18.4446 3.15761 18.7267 3.2621 18.9764C3.36659 19.226 3.5708 19.4205 3.82514 19.5125C4.33313 19.6987 4.89882 19.4631 5.12485 18.9711C6.0802 16.6629 7.35617 14.5012 8.91502 12.5499C10.4468 10.5751 12.2515 8.82842 14.2748 7.36239C16.2827 5.87865 18.4827 4.67484 20.8144 3.784C23.1541 2.92039 25.5942 2.35882 28.0758 2.11288C39.9306 1.06797 51.1128 7.77056 55.7887 18.724C55.9433 19.0864 55.9368 19.4975 55.7707 19.8547C55.5184 20.405 54.9647 20.7537 54.36 20.743C53.7552 20.7324 53.214 20.3645 52.9813 19.8057C49.1606 10.943 40.4985 5.15016 30.8556 5.00897C21.2127 4.86777 12.385 10.4045 8.30692 19.1516C4.22884 27.8986 5.65993 38.2268 11.9623 45.5329C12.1441 45.7429 12.405 45.8677 12.6824 45.8776C12.9598 45.8875 13.2288 45.7814 13.425 45.5849L15.7975 43.2104L16.8703 52.9018L15.6835 52.7687L7.26938 51.3938L9.83381 49.1713C10.0359 48.9962 10.1595 48.7473 10.1769 48.4803C10.1944 48.2133 10.1043 47.9504 9.92679 47.7504C4.72568 41.9335 2.267 34.1633 3.17428 26.4101C3.2353 25.8608 2.83983 25.3659 2.29098 25.3049C1.74213 25.2438 1.24774 25.6396 1.18672 26.189C0.254057 34.1551 2.63547 42.1547 7.77227 48.3108L5.95967 49.8818Z" fill="white"></path>
  <path d="M32.973 11.0339C31.9722 10.0304 30.4656 9.72996 29.1569 10.2728C27.8482 10.8157 26.9956 12.0947 26.9973 13.5126V25.2818C26.7281 25.5042 26.4807 25.7518 26.2585 26.0213H18.4992C16.5667 26.0213 15 27.5894 15 29.5237C15 31.4581 16.5667 33.0261 18.4992 33.0261H26.2585C27.585 34.6513 29.7194 35.38 31.7616 34.905C33.8038 34.43 35.3984 32.8339 35.873 30.7899C36.3475 28.7458 35.6195 26.6095 33.9958 25.2818V13.5126C33.9995 12.5828 33.6312 11.6902 32.973 11.0339ZM28.9969 13.5126C28.9969 12.6836 29.6683 12.0116 30.4966 12.0116C31.3248 12.0116 31.9962 12.6836 31.9962 13.5126V24.2331C31.0166 23.9489 29.9765 23.9489 28.9969 24.2331V13.5126ZM18.4992 31.0248C17.671 31.0248 16.9996 30.3527 16.9996 29.5237C16.9996 28.6947 17.671 28.0227 18.4992 28.0227H25.2107C24.9268 29.0032 24.9268 30.0442 25.2107 31.0248H18.4992ZM30.4966 33.0261C28.564 33.0261 26.9973 31.4581 26.9973 29.5237C26.9973 27.5894 28.564 26.0213 30.4966 26.0213C32.4291 26.0213 33.9958 27.5894 33.9958 29.5237C33.9958 31.4581 32.4291 33.0261 30.4966 33.0261Z" fill="white"></path>
  <path d="M37.993 39.03C37.993 38.4773 37.5454 38.0293 36.9932 38.0293H24.9959C24.4437 38.0293 23.9961 38.4773 23.9961 39.03C23.9961 39.5827 24.4437 40.0307 24.9959 40.0307H36.9932C37.5454 40.0307 37.993 39.5827 37.993 39.03Z" fill="white"></path>
  <path d="M32.9971 44.0319C32.9971 43.4793 32.5495 43.0312 31.9973 43.0312H20.9998C20.4476 43.0312 20 43.4793 20 44.0319C20 44.5846 20.4476 45.0326 20.9998 45.0326H31.9973C32.5495 45.0326 32.9971 44.5846 32.9971 44.0319Z" fill="white"></path>
  <path d="M26.9987 48.0352H21.9998C21.4476 48.0352 21 48.4832 21 49.0358C21 49.5885 21.4476 50.0365 21.9998 50.0365H26.9987C27.5508 50.0365 27.9985 49.5885 27.9985 49.0358C27.9985 48.4832 27.5508 48.0352 26.9987 48.0352Z" fill="white"></path>
</svg>
