<svg width="337" height="241" viewBox="0 0 337 241" fill="none" xmlns="http://www.w3.org/2000/svg">
<g clip-path="url(#clip0_3648_14417)">
<path fill-rule="evenodd" clip-rule="evenodd" d="M287.034 164.805L286.808 164.789C286.061 164.738 285.497 164.091 285.548 163.343C285.6 162.596 286.247 162.032 286.994 162.083L287.22 162.099C287.967 162.15 288.531 162.797 288.48 163.545C288.428 164.292 287.781 164.856 287.034 164.805ZM273.463 164.833L273.688 164.816C274.435 164.76 274.995 164.109 274.939 163.362C274.882 162.615 274.231 162.055 273.485 162.112L273.259 162.129C272.512 162.185 271.952 162.836 272.009 163.583C272.065 164.33 272.716 164.889 273.463 164.833ZM260.46 166.746L260.24 166.795C259.509 166.958 258.784 166.498 258.621 165.767C258.458 165.036 258.918 164.311 259.649 164.148L259.87 164.099C260.601 163.936 261.326 164.396 261.489 165.127C261.652 165.858 261.191 166.583 260.46 166.746ZM247.448 170.64L247.658 170.559C248.359 170.292 248.709 169.509 248.442 168.809C248.175 168.109 247.391 167.758 246.691 168.025L246.48 168.106C245.78 168.373 245.43 169.157 245.697 169.856C245.964 170.556 246.747 170.907 247.448 170.64ZM235.549 176.185L235.352 176.295C234.699 176.661 233.872 176.428 233.507 175.774C233.14 175.121 233.374 174.294 234.027 173.928L234.225 173.818C234.878 173.452 235.705 173.685 236.07 174.339C236.436 174.992 236.203 175.819 235.549 176.185ZM224.205 183.651L224.384 183.513C224.977 183.057 225.088 182.205 224.631 181.612C224.174 181.018 223.323 180.907 222.729 181.364L222.55 181.502C221.957 181.959 221.846 182.811 222.303 183.404C222.76 183.997 223.612 184.109 224.205 183.651ZM214.395 192.382L214.237 192.544C213.716 193.081 212.857 193.094 212.319 192.572C211.782 192.05 211.77 191.192 212.291 190.654L212.449 190.492C212.97 189.955 213.829 189.942 214.366 190.464C214.904 190.986 214.916 191.844 214.395 192.382ZM204.421 202.058L204.594 201.913C205.166 201.429 205.238 200.573 204.754 200.001C204.271 199.429 203.415 199.357 202.843 199.84L202.67 199.987C202.098 200.47 202.026 201.326 202.51 201.898C202.993 202.47 203.849 202.542 204.421 202.058ZM193.48 210.038L193.288 210.157C192.652 210.552 191.816 210.357 191.421 209.721C191.025 209.084 191.221 208.248 191.857 207.853L192.049 207.733C192.685 207.338 193.521 207.533 193.916 208.17C194.312 208.806 194.116 209.642 193.48 210.038ZM101.329 214.721L101.127 214.621C100.455 214.289 100.18 213.475 100.512 212.804C100.844 212.133 101.657 211.857 102.328 212.189L102.531 212.289C103.202 212.621 103.478 213.435 103.146 214.106C102.814 214.777 102.001 215.052 101.329 214.721ZM114.078 219.867L113.863 219.797C113.15 219.567 112.76 218.802 112.991 218.089C113.221 217.377 113.986 216.986 114.699 217.217L114.914 217.286C115.626 217.517 116.017 218.282 115.786 218.995C115.555 219.707 114.791 220.098 114.078 219.867ZM127.217 223.073L127.44 223.111C128.179 223.236 128.879 222.739 129.004 222.001C129.129 221.262 128.632 220.562 127.894 220.437L127.671 220.399C126.932 220.274 126.232 220.771 126.107 221.509C125.982 222.248 126.479 222.948 127.217 223.073ZM141.137 224.394L140.912 224.389C140.163 224.371 139.57 223.75 139.588 223.001C139.606 222.252 140.227 221.659 140.976 221.677L141.202 221.683C141.95 221.7 142.543 222.321 142.525 223.07C142.508 223.819 141.886 224.412 141.137 224.394ZM154.63 223.725L154.854 223.699C155.598 223.608 156.128 222.933 156.038 222.189C155.948 221.446 155.272 220.916 154.529 221.006L154.305 221.033C153.561 221.122 153.031 221.798 153.12 222.542C153.21 223.285 153.886 223.815 154.63 223.725ZM168.343 221.038L168.125 221.097C167.402 221.293 166.657 220.866 166.461 220.143C166.265 219.42 166.692 218.675 167.415 218.479L167.633 218.42C168.356 218.224 169.101 218.651 169.297 219.374C169.493 220.097 169.066 220.842 168.343 221.038ZM181.109 216.544L181.316 216.454C182.003 216.155 182.318 215.356 182.02 214.67C181.721 213.983 180.922 213.668 180.235 213.967L180.028 214.057C179.341 214.355 179.026 215.154 179.325 215.841C179.623 216.528 180.422 216.843 181.109 216.544ZM300.033 166.665L300.255 166.712C300.987 166.871 301.708 166.406 301.867 165.674C302.025 164.942 301.561 164.22 300.829 164.062L300.607 164.014C299.875 163.855 299.154 164.32 298.995 165.052C298.836 165.784 299.301 166.506 300.033 166.665ZM313.062 170.511L312.851 170.432C312.149 170.169 311.794 169.387 312.057 168.686C312.32 167.985 313.101 167.63 313.803 167.892L314.014 167.972C314.716 168.235 315.071 169.016 314.808 169.718C314.545 170.419 313.764 170.774 313.062 170.511ZM324.988 176.023L325.185 176.133C325.841 176.495 326.666 176.257 327.028 175.601C327.39 174.945 327.153 174.12 326.497 173.758L326.299 173.649C325.643 173.287 324.818 173.525 324.456 174.181C324.094 174.836 324.332 175.661 324.988 176.023ZM336.365 183.458L336.185 183.321C335.589 182.868 335.473 182.017 335.926 181.421C336.38 180.825 337.231 180.709 337.827 181.162L338.007 181.299C338.603 181.752 338.719 182.603 338.265 183.199C337.812 183.795 336.961 183.911 336.365 183.458Z" fill="#624DE3" fill-opacity="0.4"/>
<path fill-rule="evenodd" clip-rule="evenodd" d="M286.376 148.872L286.151 148.856C285.403 148.805 284.839 148.158 284.89 147.41C284.942 146.664 285.59 146.099 286.336 146.151L286.562 146.166C287.309 146.218 287.873 146.865 287.822 147.612C287.771 148.36 287.123 148.923 286.376 148.872ZM272.805 148.901L273.03 148.884C273.777 148.827 274.337 148.176 274.281 147.43C274.224 146.683 273.574 146.123 272.827 146.179L272.601 146.196C271.854 146.252 271.294 146.903 271.351 147.65C271.407 148.397 272.058 148.957 272.805 148.901ZM259.803 150.813L259.582 150.863C258.851 151.026 258.126 150.565 257.963 149.834C257.8 149.103 258.26 148.379 258.991 148.216L259.212 148.166C259.943 148.003 260.668 148.463 260.831 149.194C260.994 149.925 260.534 150.65 259.803 150.813ZM246.79 154.707L247.001 154.627C247.701 154.36 248.052 153.576 247.784 152.877C247.517 152.176 246.734 151.826 246.034 152.093L245.823 152.173C245.123 152.44 244.772 153.224 245.039 153.924C245.306 154.624 246.09 154.974 246.79 154.707ZM234.892 160.253L234.695 160.363C234.041 160.729 233.215 160.496 232.849 159.842C232.483 159.189 232.716 158.362 233.369 157.996L233.567 157.886C234.22 157.52 235.047 157.754 235.413 158.407C235.778 159.061 235.545 159.887 234.892 160.253ZM223.547 167.719L223.726 167.581C224.32 167.124 224.43 166.273 223.973 165.679C223.517 165.086 222.665 164.975 222.072 165.432L221.892 165.57C221.299 166.027 221.188 166.878 221.645 167.472C222.102 168.065 222.953 168.176 223.547 167.719ZM213.737 176.449L213.579 176.611C213.058 177.149 212.199 177.161 211.662 176.64C211.124 176.118 211.111 175.259 211.633 174.722L211.791 174.56C212.312 174.023 213.171 174.01 213.708 174.531C214.245 175.053 214.258 175.911 213.737 176.449ZM203.763 186.125L203.935 185.98C204.507 185.496 204.579 184.641 204.096 184.068C203.612 183.496 202.757 183.425 202.185 183.908L202.012 184.054C201.44 184.538 201.368 185.393 201.851 185.965C202.335 186.538 203.191 186.609 203.763 186.125ZM192.823 194.105L192.63 194.225C191.994 194.62 191.158 194.425 190.763 193.789C190.367 193.153 190.563 192.316 191.199 191.921L191.391 191.802C192.027 191.406 192.863 191.602 193.258 192.238C193.654 192.874 193.458 193.71 192.823 194.105ZM180.451 200.612L180.659 200.522C181.345 200.223 181.66 199.424 181.362 198.737C181.063 198.05 180.264 197.736 179.577 198.034L179.37 198.124C178.683 198.423 178.368 199.222 178.667 199.908C178.965 200.596 179.764 200.91 180.451 200.612ZM113.205 203.866L113.42 203.935C114.133 204.166 114.897 203.775 115.128 203.063C115.359 202.35 114.968 201.585 114.256 201.355L114.041 201.285C113.328 201.054 112.563 201.445 112.333 202.157C112.102 202.87 112.493 203.635 113.205 203.866ZM126.559 207.141L126.782 207.178C127.521 207.304 128.221 206.807 128.346 206.068C128.471 205.33 127.974 204.63 127.236 204.505L127.013 204.466C126.274 204.341 125.574 204.838 125.449 205.577C125.324 206.315 125.821 207.015 126.559 207.141ZM140.48 208.461L140.254 208.456C139.505 208.439 138.912 207.817 138.93 207.068C138.948 206.32 139.569 205.727 140.318 205.745L140.544 205.75C141.293 205.768 141.885 206.389 141.867 207.138C141.85 207.887 141.229 208.479 140.48 208.461ZM153.972 207.793L154.196 207.766C154.94 207.676 155.47 207 155.38 206.257C155.29 205.513 154.615 204.983 153.871 205.073L153.647 205.1C152.903 205.19 152.373 205.866 152.463 206.609C152.553 207.353 153.229 207.883 153.972 207.793ZM167.685 205.105L167.467 205.165C166.743 205.361 165.999 204.933 165.803 204.21C165.607 203.488 166.034 202.743 166.757 202.547L166.975 202.488C167.698 202.292 168.443 202.719 168.639 203.442C168.835 204.165 168.408 204.909 167.685 205.105ZM299.376 150.733L299.597 150.78C300.329 150.939 301.05 150.474 301.209 149.742C301.368 149.01 300.903 148.288 300.171 148.129L299.95 148.081C299.218 147.923 298.496 148.388 298.337 149.12C298.179 149.852 298.644 150.574 299.376 150.733ZM312.404 154.579L312.193 154.499C311.492 154.237 311.136 153.455 311.399 152.754C311.662 152.052 312.444 151.697 313.145 151.96L313.356 152.039C314.058 152.302 314.414 153.084 314.15 153.785C313.887 154.487 313.106 154.842 312.404 154.579ZM324.33 160.091L324.527 160.2C325.183 160.562 326.008 160.325 326.37 159.669C326.733 159.013 326.495 158.188 325.839 157.826L325.641 157.717C324.986 157.354 324.16 157.592 323.798 158.248C323.436 158.903 323.674 159.728 324.33 160.091ZM335.707 167.525L335.527 167.388C334.931 166.935 334.815 166.084 335.268 165.488C335.722 164.892 336.573 164.776 337.169 165.229L337.349 165.366C337.945 165.82 338.061 166.671 337.607 167.267C337.154 167.863 336.303 167.979 335.707 167.525Z" fill="#624DE3" fill-opacity="0.4"/>
<path fill-rule="evenodd" clip-rule="evenodd" d="M285.717 132.94L285.492 132.924C284.744 132.873 284.181 132.225 284.232 131.478C284.283 130.731 284.931 130.167 285.678 130.218L285.903 130.234C286.651 130.285 287.215 130.933 287.163 131.68C287.112 132.427 286.465 132.991 285.717 132.94ZM272.146 132.968L272.371 132.951C273.118 132.895 273.678 132.244 273.622 131.497C273.565 130.75 272.914 130.19 272.167 130.246L271.942 130.263C271.195 130.32 270.635 130.971 270.691 131.718C270.748 132.465 271.399 133.025 272.146 132.968ZM259.144 134.881L258.923 134.93C258.192 135.093 257.467 134.633 257.304 133.902C257.141 133.171 257.601 132.446 258.332 132.283L258.553 132.234C259.284 132.07 260.009 132.531 260.172 133.262C260.335 133.993 259.875 134.718 259.144 134.881ZM246.13 138.775L246.342 138.694C247.041 138.427 247.392 137.644 247.125 136.944C246.858 136.244 246.074 135.894 245.375 136.16L245.163 136.241C244.464 136.508 244.113 137.292 244.38 137.991C244.647 138.691 245.431 139.042 246.13 138.775ZM234.233 144.32L234.036 144.43C233.382 144.796 232.556 144.563 232.189 143.909C231.824 143.256 232.057 142.43 232.711 142.063L232.908 141.953C233.561 141.587 234.388 141.82 234.754 142.474C235.119 143.128 234.886 143.954 234.233 144.32ZM222.888 151.787L223.067 151.649C223.661 151.192 223.771 150.34 223.314 149.747C222.857 149.153 222.006 149.043 221.412 149.499L221.233 149.637C220.64 150.094 220.529 150.946 220.986 151.54C221.443 152.133 222.294 152.243 222.888 151.787ZM213.078 160.516L212.92 160.679C212.399 161.216 211.54 161.229 211.003 160.707C210.465 160.186 210.452 159.327 210.974 158.79L211.132 158.628C211.653 158.09 212.512 158.077 213.05 158.599C213.587 159.12 213.599 159.979 213.078 160.516ZM203.104 170.193L203.277 170.047C203.849 169.564 203.92 168.708 203.437 168.136C202.954 167.564 202.098 167.492 201.526 167.976L201.354 168.122C200.782 168.605 200.71 169.461 201.193 170.033C201.677 170.605 202.532 170.677 203.104 170.193ZM192.163 178.173L191.971 178.293C191.335 178.688 190.499 178.492 190.104 177.856C189.709 177.22 189.903 176.384 190.54 175.989L190.732 175.869C191.368 175.474 192.204 175.669 192.599 176.306C192.995 176.942 192.8 177.778 192.163 178.173ZM179.792 184.679L179.999 184.589C180.686 184.291 181.001 183.492 180.702 182.805C180.404 182.118 179.605 181.803 178.918 182.102L178.711 182.192C178.024 182.49 177.709 183.289 178.007 183.976C178.306 184.663 179.105 184.978 179.792 184.679ZM112.546 187.933L112.761 188.003C113.474 188.233 114.238 187.843 114.469 187.13C114.7 186.418 114.309 185.653 113.597 185.422L113.382 185.353C112.67 185.122 111.905 185.512 111.674 186.225C111.443 186.938 111.834 187.702 112.546 187.933ZM125.9 191.208L126.123 191.246C126.861 191.371 127.562 190.874 127.687 190.136C127.812 189.398 127.315 188.697 126.577 188.572L126.354 188.534C125.615 188.409 124.915 188.906 124.79 189.644C124.665 190.383 125.162 191.083 125.9 191.208ZM139.821 192.529L139.595 192.524C138.846 192.506 138.253 191.885 138.271 191.136C138.289 190.387 138.91 189.795 139.659 189.812L139.884 189.818C140.633 189.835 141.226 190.457 141.209 191.206C141.191 191.954 140.569 192.547 139.821 192.529ZM153.313 191.861L153.538 191.833C154.281 191.744 154.811 191.068 154.721 190.325C154.631 189.581 153.956 189.051 153.212 189.141L152.988 189.168C152.244 189.258 151.714 189.933 151.804 190.677C151.894 191.42 152.57 191.951 153.313 191.861ZM167.026 189.173L166.808 189.232C166.085 189.428 165.34 189.001 165.144 188.278C164.948 187.555 165.375 186.81 166.098 186.614L166.317 186.555C167.039 186.359 167.784 186.786 167.98 187.509C168.176 188.232 167.749 188.977 167.026 189.173ZM298.717 134.8L298.938 134.848C299.67 135.006 300.392 134.541 300.55 133.809C300.709 133.077 300.244 132.355 299.512 132.197L299.291 132.149C298.559 131.99 297.837 132.455 297.679 133.187C297.52 133.919 297.985 134.641 298.717 134.8ZM311.745 138.647L311.534 138.567C310.832 138.305 310.477 137.523 310.74 136.821C311.003 136.12 311.785 135.764 312.486 136.027L312.698 136.107C313.399 136.37 313.754 137.151 313.491 137.853C313.228 138.554 312.447 138.909 311.745 138.647ZM323.67 144.158L323.868 144.267C324.524 144.63 325.349 144.392 325.711 143.736C326.073 143.081 325.835 142.256 325.18 141.893L324.982 141.784C324.326 141.422 323.501 141.66 323.139 142.315C322.777 142.971 323.015 143.796 323.67 144.158ZM335.048 151.593L334.868 151.456C334.272 151.003 334.156 150.152 334.61 149.556C335.063 148.959 335.914 148.844 336.51 149.297L336.69 149.434C337.287 149.887 337.402 150.738 336.949 151.334C336.495 151.931 335.645 152.046 335.048 151.593Z" fill="#624DE3" fill-opacity="0.4"/>
<path fill-rule="evenodd" clip-rule="evenodd" d="M285.059 117.009L284.834 116.993C284.086 116.942 283.523 116.295 283.574 115.547C283.625 114.8 284.273 114.236 285.02 114.287L285.245 114.303C285.993 114.354 286.557 115.001 286.505 115.749C286.454 116.496 285.807 117.06 285.059 117.009ZM271.488 117.037L271.714 117.02C272.461 116.964 273.021 116.313 272.964 115.566C272.908 114.819 272.257 114.259 271.51 114.316L271.284 114.333C270.538 114.389 269.978 115.04 270.034 115.787C270.09 116.534 270.742 117.094 271.488 117.037ZM258.486 118.95L258.265 118.999C257.534 119.162 256.81 118.702 256.647 117.971C256.484 117.24 256.944 116.515 257.675 116.352L257.896 116.303C258.627 116.139 259.351 116.6 259.514 117.331C259.677 118.062 259.217 118.787 258.486 118.95ZM245.473 122.844L245.684 122.763C246.384 122.496 246.735 121.713 246.468 121.013C246.201 120.313 245.417 119.962 244.717 120.229L244.506 120.31C243.806 120.577 243.455 121.36 243.722 122.061C243.99 122.76 244.773 123.111 245.473 122.844ZM233.575 128.389L233.378 128.5C232.724 128.866 231.898 128.633 231.532 127.979C231.166 127.325 231.4 126.499 232.053 126.133L232.251 126.023C232.904 125.657 233.73 125.89 234.096 126.544C234.462 127.197 234.229 128.024 233.575 128.389ZM222.23 135.855L222.409 135.717C223.003 135.261 223.114 134.409 222.657 133.816C222.2 133.222 221.348 133.111 220.755 133.568L220.576 133.706C219.983 134.163 219.871 135.015 220.329 135.608C220.785 136.201 221.637 136.313 222.23 135.855ZM212.42 144.586L212.263 144.748C211.741 145.285 210.883 145.298 210.345 144.776C209.808 144.254 209.795 143.396 210.317 142.858L210.474 142.696C210.996 142.159 211.854 142.146 212.392 142.668C212.929 143.19 212.942 144.048 212.42 144.586ZM202.447 154.262L202.619 154.117C203.191 153.633 203.263 152.777 202.78 152.205C202.296 151.633 201.44 151.562 200.868 152.045L200.696 152.191C200.124 152.674 200.052 153.53 200.536 154.102C201.019 154.674 201.875 154.746 202.447 154.262ZM191.506 162.242L191.314 162.361C190.678 162.757 189.842 162.562 189.446 161.925C189.051 161.289 189.246 160.453 189.882 160.057L190.074 159.938C190.71 159.543 191.547 159.738 191.942 160.374C192.337 161.011 192.142 161.847 191.506 162.242ZM179.134 168.748L179.342 168.658C180.029 168.359 180.344 167.561 180.045 166.874C179.746 166.187 178.948 165.872 178.261 166.171L178.054 166.261C177.366 166.559 177.052 167.358 177.35 168.045C177.649 168.732 178.448 169.047 179.134 168.748ZM111.889 172.002L112.104 172.072C112.816 172.302 113.581 171.912 113.812 171.199C114.043 170.486 113.652 169.722 112.939 169.491L112.724 169.422C112.012 169.191 111.247 169.582 111.017 170.294C110.786 171.007 111.177 171.771 111.889 172.002ZM125.243 175.277L125.466 175.315C126.204 175.44 126.904 174.943 127.029 174.205C127.155 173.466 126.658 172.766 125.919 172.641L125.697 172.603C124.958 172.478 124.258 172.975 124.133 173.713C124.007 174.452 124.504 175.152 125.243 175.277ZM139.163 176.598L138.937 176.593C138.188 176.575 137.596 175.954 137.613 175.205C137.631 174.456 138.253 173.864 139.001 173.882L139.227 173.887C139.976 173.904 140.569 174.526 140.551 175.275C140.534 176.023 139.912 176.616 139.163 176.598ZM152.655 175.93L152.88 175.903C153.624 175.813 154.153 175.138 154.063 174.394C153.974 173.65 153.298 173.12 152.555 173.21L152.33 173.237C151.587 173.327 151.057 174.003 151.146 174.746C151.236 175.49 151.912 176.02 152.655 175.93ZM166.368 173.242L166.15 173.301C165.428 173.497 164.683 173.07 164.487 172.347C164.291 171.624 164.718 170.879 165.441 170.683L165.659 170.624C166.382 170.428 167.127 170.855 167.323 171.578C167.519 172.301 167.092 173.046 166.368 173.242ZM298.059 118.869L298.28 118.917C299.012 119.075 299.734 118.61 299.892 117.878C300.051 117.146 299.586 116.424 298.854 116.266L298.633 116.218C297.901 116.06 297.179 116.525 297.021 117.257C296.862 117.989 297.327 118.71 298.059 118.869ZM311.088 122.715L310.876 122.636C310.175 122.373 309.819 121.591 310.082 120.89C310.346 120.189 311.127 119.834 311.829 120.097L312.04 120.176C312.741 120.439 313.097 121.221 312.834 121.922C312.571 122.623 311.789 122.978 311.088 122.715ZM323.013 128.227L323.211 128.336C323.866 128.699 324.691 128.461 325.053 127.805C325.416 127.15 325.178 126.324 324.523 125.962L324.324 125.853C323.669 125.491 322.844 125.729 322.482 126.384C322.119 127.04 322.357 127.865 323.013 128.227ZM334.391 135.662L334.211 135.525C333.615 135.072 333.499 134.221 333.952 133.625C334.405 133.029 335.256 132.913 335.852 133.366L336.032 133.503C336.628 133.956 336.744 134.807 336.291 135.403C335.838 135.999 334.987 136.115 334.391 135.662Z" fill="#624DE3" fill-opacity="0.4"/>
<path fill-rule="evenodd" clip-rule="evenodd" d="M284.401 101.077L284.175 101.061C283.428 101.009 282.863 100.362 282.915 99.6146C282.966 98.8677 283.614 98.3034 284.361 98.3548L284.586 98.3702C285.334 98.4217 285.898 99.0693 285.846 99.8162C285.795 100.564 285.147 101.127 284.401 101.077ZM270.83 101.105L271.055 101.088C271.802 101.031 272.361 100.381 272.305 99.6336C272.249 98.8867 271.598 98.327 270.851 98.3831L270.625 98.4001C269.879 98.4562 269.319 99.1074 269.375 99.8543C269.431 100.601 270.083 101.161 270.83 101.105ZM257.827 103.017L257.606 103.067C256.875 103.23 256.151 102.769 255.987 102.038C255.824 101.307 256.285 100.583 257.016 100.42L257.236 100.37C257.967 100.207 258.692 100.668 258.855 101.399C259.018 102.13 258.558 102.854 257.827 103.017ZM244.814 106.911L245.025 106.831C245.725 106.564 246.075 105.78 245.808 105.081C245.541 104.381 244.758 104.03 244.058 104.297L243.847 104.377C243.147 104.644 242.796 105.428 243.064 106.128C243.331 106.828 244.114 107.178 244.814 106.911ZM232.916 112.457L232.719 112.567C232.065 112.933 231.239 112.7 230.873 112.046C230.507 111.393 230.741 110.566 231.394 110.2L231.591 110.09C232.245 109.724 233.071 109.958 233.437 110.611C233.803 111.265 233.57 112.091 232.916 112.457ZM221.571 119.923L221.75 119.785C222.344 119.328 222.455 118.477 221.998 117.883C221.541 117.29 220.689 117.179 220.096 117.636L219.917 117.774C219.323 118.231 219.213 119.082 219.67 119.676C220.126 120.269 220.978 120.38 221.571 119.923ZM211.761 128.653L211.604 128.815C211.082 129.353 210.224 129.366 209.686 128.844C209.149 128.322 209.136 127.463 209.657 126.926L209.815 126.764C210.337 126.227 211.195 126.214 211.732 126.735C212.27 127.257 212.283 128.116 211.761 128.653ZM201.787 138.33L201.96 138.184C202.532 137.7 202.604 136.845 202.12 136.272C201.637 135.7 200.781 135.629 200.209 136.112L200.036 136.258C199.464 136.742 199.393 137.598 199.876 138.17C200.359 138.742 201.215 138.813 201.787 138.33ZM190.847 146.31L190.655 146.429C190.019 146.824 189.182 146.629 188.787 145.993C188.392 145.357 188.587 144.52 189.223 144.125L189.416 144.006C190.051 143.61 190.888 143.806 191.283 144.442C191.678 145.078 191.483 145.914 190.847 146.31ZM178.476 152.816L178.683 152.726C179.37 152.427 179.685 151.628 179.386 150.941C179.087 150.254 178.288 149.94 177.602 150.238L177.394 150.328C176.707 150.627 176.392 151.426 176.691 152.112C176.99 152.8 177.788 153.115 178.476 152.816ZM111.23 156.07L111.445 156.139C112.157 156.37 112.922 155.979 113.153 155.267C113.384 154.554 112.993 153.789 112.28 153.559L112.065 153.489C111.353 153.259 110.588 153.649 110.357 154.361C110.126 155.074 110.517 155.839 111.23 156.07ZM124.584 159.345L124.807 159.383C125.545 159.508 126.245 159.011 126.37 158.272C126.496 157.534 125.999 156.834 125.26 156.709L125.037 156.671C124.299 156.546 123.599 157.043 123.474 157.781C123.348 158.519 123.846 159.219 124.584 159.345ZM138.504 160.666L138.278 160.66C137.529 160.643 136.937 160.021 136.955 159.272C136.972 158.524 137.594 157.931 138.343 157.949L138.568 157.954C139.317 157.972 139.91 158.593 139.892 159.342C139.874 160.091 139.253 160.683 138.504 160.666ZM151.996 159.997L152.221 159.97C152.964 159.88 153.494 159.205 153.404 158.461C153.315 157.717 152.639 157.188 151.895 157.277L151.671 157.304C150.927 157.394 150.398 158.07 150.487 158.813C150.577 159.557 151.252 160.087 151.996 159.997ZM165.709 157.309L165.491 157.369C164.768 157.565 164.023 157.137 163.827 156.414C163.631 155.692 164.059 154.947 164.781 154.751L164.999 154.692C165.723 154.496 166.467 154.923 166.663 155.646C166.859 156.369 166.432 157.114 165.709 157.309ZM297.4 102.937L297.621 102.984C298.353 103.143 299.075 102.678 299.234 101.946C299.392 101.214 298.927 100.492 298.195 100.333L297.974 100.285C297.242 100.127 296.52 100.592 296.362 101.324C296.203 102.056 296.668 102.778 297.4 102.937ZM310.429 106.783L310.217 106.704C309.516 106.441 309.16 105.659 309.423 104.958C309.686 104.257 310.468 103.901 311.169 104.164L311.381 104.243C312.082 104.506 312.438 105.288 312.175 105.989C311.912 106.691 311.13 107.046 310.429 106.783ZM322.354 112.295L322.552 112.404C323.208 112.766 324.033 112.529 324.395 111.873C324.757 111.217 324.519 110.392 323.863 110.03L323.665 109.921C323.01 109.559 322.185 109.796 321.823 110.452C321.461 111.107 321.698 111.932 322.354 112.295ZM333.732 119.729L333.552 119.592C332.956 119.139 332.84 118.288 333.293 117.692C333.747 117.096 334.597 116.98 335.194 117.434L335.374 117.57C335.97 118.024 336.086 118.875 335.632 119.471C335.179 120.067 334.328 120.183 333.732 119.729Z" fill="#624DE3" fill-opacity="0.4"/>
<path fill-rule="evenodd" clip-rule="evenodd" d="M283.743 85.1439L283.518 85.1285C282.77 85.077 282.206 84.4294 282.258 83.6825C282.309 82.9351 282.956 82.3708 283.704 82.4222L283.929 82.4376C284.677 82.4891 285.24 83.1367 285.189 83.8841C285.138 84.6311 284.49 85.1953 283.743 85.1439ZM270.172 85.1722L270.397 85.1552C271.144 85.0992 271.704 84.4479 271.648 83.701C271.591 82.9541 270.941 82.3944 270.194 82.4505L269.968 82.4675C269.221 82.5241 268.661 83.1748 268.718 83.9217C268.774 84.6686 269.425 85.2288 270.172 85.1722ZM257.169 87.0848L256.949 87.1341C256.218 87.2972 255.493 86.8368 255.33 86.1058C255.167 85.3749 255.627 84.6501 256.358 84.487L256.579 84.4376C257.31 84.2746 258.035 84.735 258.198 85.4659C258.361 86.1969 257.9 86.9217 257.169 87.0848ZM244.157 90.9793L244.368 90.8985C245.068 90.6316 245.418 89.8476 245.152 89.148C244.884 88.4484 244.101 88.0976 243.401 88.3646L243.19 88.4448C242.49 88.7123 242.139 89.4958 242.406 90.1953C242.673 90.8954 243.457 91.2463 244.157 90.9793ZM232.259 96.5246L232.061 96.6346C231.408 97.0009 230.582 96.7674 230.216 96.1141C229.85 95.4603 230.083 94.6341 230.737 94.2679L230.934 94.1578C231.588 93.7921 232.414 94.0251 232.78 94.6789C233.146 95.3322 232.912 96.1588 232.259 96.5246ZM220.914 103.991L221.093 103.853C221.687 103.396 221.798 102.544 221.341 101.951C220.884 101.357 220.032 101.247 219.439 101.704L219.26 101.841C218.666 102.298 218.556 103.15 219.013 103.743C219.469 104.337 220.321 104.447 220.914 103.991ZM211.104 112.721L210.946 112.883C210.425 113.42 209.566 113.433 209.029 112.911C208.492 112.39 208.479 111.531 209 110.994L209.158 110.832C209.679 110.294 210.538 110.281 211.075 110.803C211.613 111.324 211.626 112.183 211.104 112.721ZM201.13 122.397L201.303 122.251C201.875 121.768 201.947 120.912 201.463 120.34C200.98 119.768 200.124 119.696 199.552 120.18L199.379 120.326C198.807 120.81 198.735 121.665 199.219 122.237C199.702 122.809 200.558 122.881 201.13 122.397ZM190.19 130.377L189.997 130.496C189.361 130.892 188.525 130.696 188.13 130.061C187.734 129.424 187.93 128.588 188.566 128.193L188.758 128.073C189.394 127.678 190.23 127.873 190.626 128.51C191.021 129.146 190.825 129.982 190.19 130.377ZM177.818 136.884L178.026 136.793C178.712 136.495 179.027 135.696 178.729 135.009C178.43 134.322 177.631 134.007 176.944 134.306L176.737 134.396C176.05 134.694 175.735 135.493 176.034 136.18C176.332 136.867 177.132 137.182 177.818 136.884ZM110.572 140.137L110.787 140.207C111.5 140.438 112.265 140.047 112.496 139.334C112.726 138.622 112.336 137.857 111.623 137.626L111.408 137.557C110.695 137.326 109.931 137.716 109.7 138.429C109.47 139.142 109.86 139.906 110.572 140.137ZM123.927 143.412L124.15 143.45C124.888 143.575 125.588 143.079 125.713 142.34C125.839 141.602 125.341 140.902 124.603 140.776L124.381 140.738C123.642 140.613 122.942 141.11 122.816 141.849C122.691 142.587 123.188 143.287 123.927 143.412ZM137.847 144.733L137.621 144.728C136.872 144.71 136.28 144.089 136.297 143.34C136.315 142.591 136.937 141.999 137.685 142.016L137.911 142.022C138.66 142.039 139.252 142.661 139.235 143.409C139.217 144.158 138.596 144.751 137.847 144.733ZM151.339 144.065L151.564 144.037C152.307 143.948 152.837 143.272 152.747 142.529C152.657 141.785 151.982 141.255 151.238 141.345L151.014 141.372C150.27 141.462 149.74 142.137 149.83 142.881C149.92 143.624 150.596 144.155 151.339 144.065ZM165.052 141.377L164.834 141.436C164.111 141.632 163.366 141.205 163.17 140.482C162.974 139.759 163.402 139.014 164.124 138.818L164.342 138.759C165.065 138.563 165.81 138.991 166.006 139.713C166.202 140.436 165.775 141.181 165.052 141.377ZM296.743 87.004L296.964 87.0518C297.696 87.2103 298.418 86.7452 298.576 86.0132C298.735 85.2813 298.27 84.5595 297.538 84.4006L297.317 84.3528C296.585 84.1943 295.863 84.6593 295.704 85.3913C295.546 86.1233 296.011 86.8455 296.743 87.004ZM309.772 90.8507L309.56 90.7715C308.859 90.5081 308.503 89.7267 308.766 89.0251C309.029 88.3239 309.811 87.9685 310.512 88.2314L310.724 88.3111C311.425 88.5739 311.781 89.3553 311.518 90.057C311.255 90.7581 310.473 91.1136 309.772 90.8507ZM321.697 96.3625L321.894 96.4716C322.55 96.8337 323.375 96.5961 323.737 95.9402C324.099 95.2848 323.862 94.4597 323.206 94.0976L323.008 93.988C322.353 93.6259 321.527 93.8641 321.165 94.5194C320.803 95.1753 321.041 96.0004 321.697 96.3625ZM333.075 103.797L332.895 103.66C332.299 103.207 332.183 102.356 332.636 101.76C333.089 101.163 333.94 101.048 334.536 101.501L334.716 101.638C335.312 102.091 335.428 102.942 334.975 103.538C334.522 104.135 333.671 104.25 333.075 103.797Z" fill="#624DE3" fill-opacity="0.4"/>
<path fill-rule="evenodd" clip-rule="evenodd" d="M211.539 138.571L211.313 138.556C210.567 138.504 210.002 137.857 210.054 137.11C210.105 136.362 210.752 135.798 211.5 135.85L211.725 135.865C212.472 135.917 213.037 136.564 212.985 137.311C212.934 138.059 212.286 138.623 211.539 138.571ZM197.968 138.6L198.194 138.583C198.941 138.526 199.5 137.875 199.444 137.129C199.388 136.382 198.737 135.822 197.99 135.878L197.764 135.895C197.018 135.951 196.458 136.603 196.514 137.349C196.57 138.096 197.221 138.656 197.968 138.6ZM184.966 140.512L184.745 140.562C184.014 140.725 183.289 140.265 183.126 139.534C182.963 138.803 183.424 138.077 184.155 137.914L184.375 137.865C185.106 137.702 185.831 138.163 185.994 138.894C186.157 139.625 185.697 140.349 184.966 140.512ZM171.953 144.407L172.164 144.326C172.864 144.059 173.215 143.275 172.947 142.575C172.68 141.876 171.897 141.525 171.197 141.792L170.986 141.873C170.286 142.14 169.935 142.923 170.202 143.623C170.469 144.323 171.253 144.673 171.953 144.407ZM160.055 149.951L159.858 150.062C159.204 150.428 158.378 150.195 158.012 149.541C157.646 148.887 157.879 148.061 158.533 147.695L158.73 147.584C159.383 147.219 160.21 147.452 160.576 148.106C160.942 148.759 160.709 149.586 160.055 149.951ZM148.711 157.418L148.89 157.28C149.483 156.823 149.593 155.972 149.137 155.378C148.68 154.785 147.828 154.674 147.235 155.131L147.056 155.269C146.462 155.726 146.352 156.577 146.808 157.171C147.265 157.764 148.117 157.875 148.711 157.418ZM138.9 166.148L138.743 166.31C138.221 166.848 137.362 166.86 136.825 166.339C136.287 165.817 136.275 164.958 136.797 164.421L136.954 164.259C137.476 163.721 138.334 163.708 138.872 164.231C139.409 164.752 139.422 165.611 138.9 166.148ZM3.23186 172.957L3.06622 172.804C2.51735 172.294 2.48553 171.436 2.99516 170.887C3.50478 170.338 4.36287 170.306 4.91175 170.816L5.07739 170.97C5.62625 171.48 5.65809 172.338 5.14848 172.886C4.63886 173.435 3.78074 173.467 3.23186 172.957ZM13.9689 181.542L13.7829 181.414C13.1668 180.988 13.0125 180.143 13.4383 179.527C13.8641 178.911 14.7088 178.757 15.325 179.183L15.5109 179.311C16.1271 179.737 16.2814 180.581 15.8556 181.198C15.4297 181.814 14.585 181.968 13.9689 181.542ZM25.632 188.387L25.8347 188.487C26.5061 188.819 27.3194 188.544 27.6513 187.873C27.9832 187.201 27.7079 186.387 27.0365 186.056L26.8338 185.956C26.1624 185.624 25.349 185.899 25.0172 186.571C24.6853 187.242 24.9606 188.055 25.632 188.387ZM38.5835 193.634L38.3685 193.564C37.6559 193.333 37.2653 192.569 37.4961 191.856C37.7268 191.144 38.4915 190.753 39.204 190.984L39.4191 191.053C40.1317 191.284 40.5223 192.048 40.2915 192.761C40.0607 193.474 39.296 193.864 38.5835 193.634ZM51.7226 196.84L51.9453 196.878C52.684 197.003 53.3841 196.506 53.5091 195.768C53.6346 195.029 53.1372 194.329 52.399 194.203L52.1763 194.166C51.4376 194.04 50.7375 194.538 50.6123 195.276C50.487 196.014 50.9839 196.715 51.7226 196.84ZM65.6429 198.161L65.417 198.155C64.6681 198.138 64.0755 197.517 64.0935 196.768C64.111 196.019 64.7324 195.426 65.4813 195.444L65.7072 195.449C66.4556 195.467 67.0487 196.088 67.0307 196.837C67.0132 197.586 66.3918 198.179 65.6429 198.161ZM79.1351 197.492L79.3594 197.465C80.1032 197.375 80.6331 196.7 80.543 195.956C80.4535 195.213 79.7776 194.682 79.0343 194.772L78.81 194.799C78.0662 194.889 77.5364 195.565 77.6259 196.308C77.7159 197.052 78.3918 197.582 79.1351 197.492ZM92.8481 194.805L92.63 194.864C91.9072 195.059 91.1624 194.632 90.9664 193.91C90.7704 193.186 91.1979 192.441 91.9206 192.245L92.1387 192.186C92.8614 191.991 93.6063 192.418 93.8023 193.141C93.9983 193.864 93.5713 194.609 92.8481 194.805ZM105.615 190.311L105.822 190.221C106.509 189.922 106.823 189.123 106.525 188.436C106.226 187.75 105.427 187.435 104.741 187.733L104.533 187.823C103.846 188.122 103.531 188.921 103.83 189.608C104.128 190.294 104.927 190.609 105.615 190.311ZM117.985 183.804L117.794 183.923C117.158 184.319 116.321 184.124 115.926 183.487C115.531 182.851 115.726 182.015 116.362 181.619L116.554 181.5C117.19 181.105 118.027 181.3 118.422 181.936C118.817 182.573 118.622 183.409 117.985 183.804ZM128.927 175.825L129.099 175.679C129.671 175.196 129.743 174.34 129.26 173.768C128.776 173.196 127.921 173.124 127.349 173.607L127.176 173.753C126.604 174.237 126.532 175.092 127.015 175.664C127.499 176.237 128.355 176.308 128.927 175.825ZM224.539 140.431L224.76 140.479C225.492 140.637 226.214 140.173 226.372 139.44C226.531 138.708 226.066 137.987 225.334 137.828L225.113 137.78C224.381 137.622 223.659 138.087 223.5 138.819C223.342 139.551 223.807 140.273 224.539 140.431ZM237.568 144.278L237.356 144.199C236.654 143.936 236.3 143.154 236.562 142.453C236.825 141.752 237.607 141.396 238.308 141.659L238.52 141.738C239.221 142.001 239.576 142.783 239.313 143.484C239.051 144.185 238.269 144.541 237.568 144.278ZM249.493 149.79L249.69 149.899C250.346 150.261 251.171 150.023 251.534 149.368C251.896 148.712 251.658 147.887 251.002 147.525L250.805 147.416C250.149 147.054 249.324 147.291 248.962 147.947C248.599 148.602 248.837 149.428 249.493 149.79ZM260.871 157.224L260.69 157.088C260.094 156.634 259.979 155.784 260.432 155.187C260.885 154.591 261.736 154.475 262.332 154.929L262.513 155.065C263.109 155.519 263.224 156.369 262.771 156.966C262.318 157.562 261.467 157.678 260.871 157.224Z" fill="#624DE3" fill-opacity="0.33"/>
<path fill-rule="evenodd" clip-rule="evenodd" d="M210.883 122.639L210.658 122.623C209.91 122.572 209.346 121.925 209.397 121.177C209.449 120.43 210.096 119.866 210.843 119.917L211.069 119.933C211.816 119.984 212.38 120.632 212.329 121.379C212.277 122.126 211.63 122.69 210.883 122.639ZM197.312 122.667L197.537 122.65C198.284 122.594 198.844 121.943 198.788 121.196C198.731 120.449 198.081 119.89 197.334 119.946L197.108 119.963C196.361 120.019 195.801 120.67 195.858 121.417C195.914 122.164 196.565 122.723 197.312 122.667ZM184.309 124.58L184.089 124.629C183.358 124.792 182.633 124.332 182.47 123.601C182.307 122.87 182.767 122.145 183.498 121.982L183.719 121.933C184.45 121.77 185.175 122.23 185.338 122.961C185.501 123.692 185.04 124.417 184.309 124.58ZM171.297 128.474L171.507 128.394C172.208 128.127 172.558 127.343 172.291 126.643C172.024 125.943 171.241 125.592 170.54 125.859L170.33 125.94C169.63 126.207 169.279 126.991 169.546 127.69C169.813 128.391 170.596 128.741 171.297 128.474ZM159.398 134.019L159.201 134.13C158.548 134.495 157.722 134.262 157.356 133.609C156.99 132.955 157.223 132.129 157.876 131.763L158.074 131.652C158.727 131.287 159.554 131.52 159.92 132.173C160.285 132.827 160.052 133.653 159.398 134.019ZM148.054 141.486L148.233 141.348C148.826 140.891 148.937 140.039 148.48 139.446C148.023 138.852 147.172 138.741 146.578 139.199L146.399 139.337C145.806 139.793 145.695 140.645 146.152 141.238C146.609 141.832 147.46 141.943 148.054 141.486ZM138.244 150.216L138.086 150.378C137.565 150.915 136.706 150.928 136.169 150.406C135.631 149.884 135.618 149.026 136.14 148.489L136.298 148.326C136.819 147.789 137.678 147.776 138.215 148.298C138.752 148.82 138.765 149.678 138.244 150.216ZM2.57562 157.025L2.40997 156.871C1.8611 156.362 1.82928 155.504 2.3389 154.955C2.84853 154.406 3.70662 154.374 4.2555 154.883L4.42115 155.037C4.97004 155.547 5.00183 156.405 4.49221 156.954C3.98259 157.503 3.1245 157.535 2.57562 157.025ZM13.3126 165.61L13.1267 165.482C12.5105 165.056 12.3562 164.211 12.782 163.595C13.2079 162.978 14.0526 162.824 14.6687 163.25L14.8547 163.379C15.4708 163.804 15.6251 164.649 15.1993 165.265C14.7735 165.881 13.9288 166.036 13.3126 165.61ZM24.9758 172.455L25.1784 172.555C25.8498 172.887 26.6632 172.611 26.9951 171.94C27.327 171.269 27.0516 170.455 26.3802 170.124L26.1776 170.023C25.5061 169.691 24.6928 169.967 24.3609 170.638C24.029 171.309 24.3043 172.123 24.9758 172.455ZM37.9272 177.702L37.7122 177.632C36.9996 177.401 36.609 176.636 36.8398 175.924C37.0706 175.211 37.8353 174.821 38.5478 175.052L38.7628 175.121C39.4754 175.352 39.866 176.117 39.6352 176.829C39.4045 177.542 38.6398 177.932 37.9272 177.702ZM51.0663 180.907L51.289 180.945C52.0277 181.071 52.7278 180.573 52.8528 179.835C52.9783 179.096 52.4814 178.396 51.7427 178.271L51.52 178.233C50.7815 178.108 50.0813 178.605 49.956 179.344C49.8307 180.082 50.3279 180.782 51.0663 180.907ZM64.9865 182.228L64.7607 182.223C64.0117 182.205 63.4191 181.584 63.4371 180.835C63.4546 180.086 64.076 179.493 64.825 179.511L65.0508 179.517C65.7998 179.535 66.3924 180.155 66.3744 180.904C66.3569 181.653 65.7355 182.246 64.9865 182.228ZM78.4788 181.56L78.7031 181.532C79.4469 181.442 79.9767 180.767 79.8872 180.023C79.7972 179.28 79.1218 178.75 78.378 178.84L78.1537 178.867C77.4099 178.957 76.88 179.632 76.9701 180.376C77.0596 181.119 77.7355 181.649 78.4788 181.56ZM92.1917 178.872L91.9736 178.931C91.2504 179.127 90.5055 178.7 90.3095 177.977C90.1141 177.254 90.541 176.509 91.2638 176.313L91.4824 176.254C92.2051 176.058 92.95 176.485 93.146 177.208C93.3419 177.931 92.9145 178.676 92.1917 178.872ZM104.958 174.378L105.165 174.288C105.852 173.99 106.167 173.191 105.869 172.504C105.57 171.817 104.771 171.502 104.084 171.8L103.877 171.891C103.19 172.189 102.875 172.988 103.174 173.675C103.472 174.362 104.271 174.677 104.958 174.378ZM117.33 167.872L117.137 167.991C116.501 168.387 115.665 168.191 115.27 167.555C114.874 166.919 115.07 166.083 115.706 165.688L115.898 165.568C116.534 165.173 117.37 165.368 117.765 166.004C118.161 166.641 117.965 167.477 117.33 167.872ZM128.27 159.892L128.442 159.746C129.014 159.263 129.086 158.407 128.603 157.835C128.119 157.263 127.264 157.191 126.692 157.675L126.519 157.821C125.947 158.304 125.875 159.16 126.358 159.732C126.842 160.304 127.698 160.376 128.27 159.892ZM223.882 124.499L224.104 124.547C224.836 124.705 225.557 124.24 225.716 123.508C225.875 122.776 225.41 122.054 224.678 121.896L224.457 121.848C223.725 121.689 223.003 122.154 222.844 122.886C222.685 123.618 223.15 124.34 223.882 124.499ZM236.911 128.346L236.7 128.266C235.999 128.003 235.643 127.222 235.906 126.52C236.169 125.819 236.951 125.464 237.652 125.726L237.863 125.806C238.565 126.069 238.92 126.85 238.657 127.552C238.394 128.253 237.613 128.609 236.911 128.346ZM248.837 133.857L249.034 133.967C249.69 134.329 250.515 134.091 250.877 133.435C251.239 132.78 251.002 131.955 250.346 131.593L250.148 131.483C249.492 131.121 248.667 131.359 248.305 132.015C247.943 132.67 248.181 133.495 248.837 133.857ZM260.214 141.292L260.034 141.155C259.438 140.702 259.322 139.851 259.775 139.255C260.229 138.659 261.08 138.543 261.676 138.996L261.856 139.133C262.452 139.587 262.568 140.437 262.114 141.034C261.661 141.63 260.81 141.745 260.214 141.292Z" fill="#624DE3" fill-opacity="0.33"/>
<path fill-rule="evenodd" clip-rule="evenodd" d="M210.223 106.706L209.998 106.691C209.25 106.64 208.687 105.992 208.738 105.245C208.789 104.498 209.437 103.933 210.184 103.985L210.409 104C211.157 104.052 211.721 104.699 211.669 105.447C211.618 106.194 210.971 106.758 210.223 106.706ZM196.652 106.735L196.877 106.718C197.624 106.662 198.184 106.01 198.127 105.264C198.071 104.517 197.42 103.957 196.673 104.013L196.448 104.03C195.701 104.087 195.141 104.737 195.197 105.484C195.254 106.231 195.905 106.791 196.652 106.735ZM183.65 108.647L183.429 108.697C182.698 108.86 181.973 108.399 181.81 107.668C181.647 106.937 182.107 106.213 182.838 106.05L183.059 106C183.79 105.837 184.515 106.297 184.678 107.028C184.841 107.759 184.381 108.484 183.65 108.647ZM170.636 112.542L170.848 112.461C171.547 112.194 171.898 111.41 171.631 110.711C171.364 110.011 170.58 109.66 169.881 109.927L169.669 110.007C168.97 110.275 168.619 111.058 168.886 111.758C169.153 112.458 169.937 112.809 170.636 112.542ZM158.739 118.087L158.542 118.197C157.888 118.563 157.062 118.329 156.695 117.676C156.33 117.022 156.563 116.196 157.216 115.83L157.414 115.72C158.067 115.354 158.894 115.587 159.26 116.241C159.625 116.894 159.392 117.721 158.739 118.087ZM147.394 125.553L147.573 125.415C148.167 124.958 148.277 124.107 147.82 123.513C147.363 122.92 146.512 122.809 145.918 123.266L145.739 123.404C145.146 123.861 145.035 124.713 145.492 125.306C145.949 125.899 146.8 126.01 147.394 125.553ZM137.584 134.283L137.426 134.446C136.905 134.983 136.046 134.995 135.509 134.474C134.971 133.952 134.958 133.094 135.48 132.556L135.638 132.394C136.159 131.857 137.018 131.844 137.555 132.365C138.093 132.887 138.105 133.746 137.584 134.283ZM1.91546 141.093L1.74982 140.939C1.20094 140.429 1.16912 139.571 1.67875 139.022C2.18837 138.473 3.04646 138.441 3.59535 138.951L3.76098 139.105C4.30986 139.614 4.34169 140.473 3.83206 141.022C3.32243 141.571 2.46434 141.602 1.91546 141.093ZM12.6529 149.678L12.467 149.549C11.8508 149.123 11.6966 148.278 12.1224 147.662C12.5482 147.046 13.3929 146.892 14.0091 147.317L14.195 147.446C14.8112 147.872 14.9655 148.717 14.5397 149.333C14.1139 149.949 13.2692 150.103 12.6529 149.678ZM24.3156 156.522L24.5183 156.623C25.1897 156.954 26.003 156.679 26.3349 156.008C26.6668 155.336 26.3915 154.523 25.7201 154.191L25.5174 154.091C24.846 153.759 24.0326 154.034 23.7008 154.706C23.3689 155.377 23.6441 156.19 24.3156 156.522ZM37.2672 161.769L37.0522 161.7C36.3396 161.469 35.949 160.704 36.1798 159.992C36.4105 159.279 37.1752 158.888 37.8878 159.119L38.1028 159.189C38.8154 159.42 39.206 160.184 38.9752 160.897C38.7445 161.61 37.9798 162 37.2672 161.769ZM50.4063 164.975L50.6291 165.013C51.3673 165.138 52.0679 164.641 52.1929 163.902C52.3184 163.164 51.821 162.464 51.0828 162.339L50.8601 162.301C50.1214 162.175 49.4213 162.672 49.296 163.411C49.1707 164.149 49.6678 164.85 50.4063 164.975ZM64.3267 166.296L64.1008 166.291C63.3519 166.273 62.7593 165.651 62.7768 164.903C62.7948 164.154 63.4162 163.561 64.1646 163.579L64.3904 163.584C65.1394 163.602 65.732 164.223 65.7145 164.972C65.6965 165.721 65.0751 166.313 64.3267 166.296ZM77.8189 165.627L78.0437 165.6C78.787 165.51 79.3169 164.834 79.2274 164.091C79.1373 163.347 78.4619 162.817 77.7181 162.907L77.4938 162.934C76.75 163.024 76.2202 163.7 76.3102 164.443C76.3997 165.187 77.0756 165.717 77.8189 165.627ZM91.5319 162.939L91.3138 162.999C90.591 163.195 89.8462 162.768 89.6502 162.044C89.4542 161.322 89.8812 160.577 90.6044 160.381L90.8225 160.322C91.5452 160.126 92.2901 160.553 92.4861 161.276C92.6821 161.999 92.2546 162.743 91.5319 162.939ZM104.298 158.446L104.505 158.356C105.192 158.057 105.507 157.258 105.208 156.572C104.91 155.884 104.111 155.57 103.424 155.868L103.217 155.958C102.53 156.257 102.215 157.056 102.513 157.743C102.812 158.43 103.611 158.744 104.298 158.446ZM116.669 151.94L116.477 152.059C115.841 152.454 115.005 152.259 114.61 151.623C114.214 150.987 114.409 150.15 115.046 149.755L115.238 149.636C115.874 149.241 116.71 149.436 117.105 150.072C117.5 150.708 117.306 151.544 116.669 151.94ZM127.61 143.96L127.783 143.814C128.355 143.33 128.426 142.475 127.943 141.903C127.46 141.331 126.604 141.259 126.032 141.742L125.86 141.888C125.287 142.372 125.215 143.227 125.699 143.799C126.183 144.371 127.038 144.444 127.61 143.96ZM223.223 108.566L223.444 108.614C224.176 108.773 224.898 108.308 225.056 107.576C225.215 106.844 224.75 106.122 224.018 105.964L223.797 105.916C223.065 105.757 222.343 106.222 222.185 106.954C222.026 107.686 222.491 108.408 223.223 108.566ZM236.251 112.413L236.04 112.334C235.338 112.071 234.983 111.289 235.246 110.588C235.509 109.886 236.29 109.531 236.992 109.794L237.204 109.874C237.905 110.136 238.26 110.918 237.997 111.619C237.734 112.321 236.952 112.676 236.251 112.413ZM248.176 117.925L248.374 118.034C249.03 118.396 249.855 118.159 250.217 117.503C250.579 116.847 250.341 116.022 249.686 115.66L249.488 115.551C248.832 115.188 248.007 115.427 247.645 116.082C247.283 116.738 247.521 117.563 248.176 117.925ZM259.554 125.36L259.374 125.223C258.778 124.769 258.662 123.918 259.116 123.322C259.569 122.726 260.42 122.61 261.016 123.064L261.196 123.201C261.793 123.654 261.908 124.505 261.455 125.101C261.001 125.697 260.151 125.813 259.554 125.36Z" fill="#624DE3" fill-opacity="0.33"/>
<path fill-rule="evenodd" clip-rule="evenodd" d="M209.566 90.7733L209.341 90.7578C208.594 90.7064 208.03 90.0593 208.081 89.3119C208.133 88.5644 208.78 88.0006 209.527 88.0521L209.752 88.0675C210.5 88.119 211.064 88.7661 211.012 89.5135C210.961 90.2609 210.314 90.8247 209.566 90.7733ZM195.995 90.8021L196.221 90.7851C196.968 90.7285 197.528 90.0773 197.471 89.3304C197.415 88.584 196.764 88.0238 196.017 88.0804L195.792 88.0974C195.045 88.1534 194.485 88.8047 194.541 89.5516C194.598 90.2985 195.249 90.8581 195.995 90.8021ZM182.993 92.7146L182.773 92.7635C182.042 92.9271 181.317 92.4667 181.154 91.7352C180.991 91.0042 181.451 90.2795 182.182 90.1164L182.403 90.0675C183.134 89.9039 183.858 90.3643 184.022 91.0958C184.185 91.8268 183.724 92.5516 182.993 92.7146ZM169.98 96.6087L170.191 96.5279C170.891 96.2609 171.242 95.4775 170.975 94.7774C170.708 94.0778 169.924 93.727 169.224 93.9939L169.013 94.0747C168.313 94.3417 167.962 95.1251 168.229 95.8252C168.497 96.5248 169.28 96.8756 169.98 96.6087ZM158.082 102.154L157.885 102.265C157.231 102.63 156.405 102.397 156.04 101.743C155.673 101.09 155.907 100.263 156.56 99.8978L156.758 99.7872C157.411 99.4214 158.238 99.6544 158.603 100.308C158.969 100.962 158.736 101.788 158.082 102.154ZM146.738 109.62L146.917 109.482C147.51 109.025 147.621 108.174 147.164 107.58C146.707 106.987 145.855 106.876 145.262 107.333L145.083 107.471C144.49 107.928 144.379 108.779 144.836 109.373C145.293 109.966 146.144 110.077 146.738 109.62ZM136.927 118.35L136.77 118.512C136.248 119.05 135.39 119.062 134.852 118.541C134.315 118.019 134.302 117.161 134.824 116.623L134.981 116.461C135.503 115.923 136.362 115.911 136.899 116.433C137.437 116.954 137.449 117.813 136.927 118.35ZM1.25921 125.16L1.09357 125.006C0.544689 124.496 0.512873 123.638 1.0225 123.089C1.53213 122.54 2.39022 122.508 2.93909 123.018L3.10474 123.172C3.65362 123.682 3.68543 124.54 3.17581 125.089C2.66618 125.637 1.80809 125.669 1.25921 125.16ZM11.9962 133.744L11.8103 133.616C11.1941 133.19 11.0398 132.345 11.4656 131.729C11.8915 131.113 12.7362 130.959 13.3523 131.384L13.5383 131.513C14.1544 131.939 14.3087 132.784 13.8829 133.4C13.4571 134.016 12.6124 134.17 11.9962 133.744ZM23.6593 140.589L23.862 140.689C24.5335 141.021 25.3468 140.746 25.6787 140.075C26.0106 139.403 25.7353 138.59 25.0638 138.258L24.8612 138.158C24.1897 137.826 23.3764 138.101 23.0445 138.773C22.7126 139.444 22.9879 140.257 23.6593 140.589ZM36.6111 145.836L36.3961 145.767C35.6835 145.536 35.2929 144.771 35.5236 144.059C35.7544 143.346 36.5191 142.955 37.2317 143.186L37.4467 143.256C38.1593 143.487 38.5499 144.251 38.3191 144.964C38.0883 145.677 37.3236 146.067 36.6111 145.836ZM49.75 149.042L49.9728 149.08C50.7113 149.205 51.4116 148.708 51.5366 147.97C51.6621 147.231 51.1647 146.531 50.4264 146.405L50.2036 146.368C49.4652 146.242 48.765 146.74 48.6397 147.478C48.5145 148.217 49.0116 148.917 49.75 149.042ZM63.6703 150.363L63.4445 150.358C62.6955 150.34 62.1029 149.719 62.1204 148.97C62.1384 148.221 62.7598 147.628 63.5083 147.646L63.7346 147.651C64.4831 147.669 65.0757 148.29 65.0582 149.039C65.0407 149.788 64.4193 150.381 63.6703 150.363ZM77.1626 149.695L77.3869 149.668C78.1307 149.578 78.6605 148.902 78.5705 148.159C78.481 147.415 77.8051 146.885 77.0618 146.975L76.837 147.002C76.0937 147.092 75.5638 147.768 75.6533 148.511C75.7433 149.255 76.4188 149.785 77.1626 149.695ZM90.8755 147.007L90.6574 147.066C89.9347 147.261 89.1898 146.834 88.9938 146.112C88.7979 145.388 89.2253 144.644 89.9481 144.448L90.1662 144.388C90.8889 144.193 91.6338 144.62 91.8298 145.343C92.0257 146.066 91.5988 146.811 90.8755 147.007ZM103.641 142.513L103.849 142.423C104.536 142.124 104.851 141.325 104.552 140.638C104.254 139.952 103.455 139.637 102.768 139.935L102.561 140.025C101.873 140.324 101.559 141.123 101.858 141.81C102.156 142.496 102.955 142.811 103.641 142.513ZM116.013 136.007L115.821 136.126C115.185 136.521 114.349 136.326 113.953 135.69C113.558 135.054 113.753 134.218 114.389 133.822L114.581 133.703C115.218 133.308 116.054 133.503 116.449 134.139C116.845 134.775 116.649 135.611 116.013 136.007ZM126.954 128.027L127.127 127.881C127.699 127.398 127.771 126.542 127.287 125.97C126.803 125.398 125.948 125.326 125.375 125.809L125.203 125.955C124.631 126.439 124.559 127.294 125.043 127.866C125.526 128.438 126.382 128.51 126.954 128.027ZM222.566 92.6334L222.787 92.6812C223.519 92.8396 224.241 92.3746 224.4 91.6426C224.558 90.9106 224.094 90.1889 223.362 90.0305L223.14 89.9826C222.408 89.8242 221.687 90.2892 221.528 91.0212C221.369 91.7532 221.834 92.4749 222.566 92.6334ZM235.595 96.4801L235.384 96.4008C234.682 96.138 234.327 95.3561 234.589 94.655C234.853 93.9533 235.634 93.5984 236.336 93.8612L236.547 93.9404C237.248 94.2033 237.604 94.9852 237.341 95.6863C237.078 96.3875 236.296 96.7429 235.595 96.4801ZM247.52 101.992L247.718 102.101C248.373 102.464 249.198 102.225 249.561 101.57C249.923 100.914 249.685 100.089 249.03 99.727L248.832 99.6179C248.176 99.2558 247.351 99.4934 246.989 100.149C246.626 100.805 246.865 101.63 247.52 101.992ZM258.898 109.427L258.718 109.29C258.122 108.837 258.006 107.986 258.459 107.39C258.912 106.793 259.763 106.678 260.359 107.131L260.539 107.268C261.136 107.721 261.251 108.572 260.798 109.168C260.345 109.764 259.494 109.88 258.898 109.427Z" fill="#624DE3" fill-opacity="0.33"/>
<path fill-rule="evenodd" clip-rule="evenodd" d="M208.907 74.8412L208.681 74.8252C207.934 74.7738 207.369 74.1267 207.421 73.3792C207.472 72.6323 208.12 72.068 208.867 72.1195L209.092 72.1349C209.84 72.1863 210.404 72.834 210.352 73.5809C210.301 74.3283 209.653 74.8921 208.907 74.8412ZM195.336 74.8695L195.561 74.8525C196.308 74.7959 196.867 74.1452 196.811 73.3983C196.755 72.6514 196.104 72.0917 195.357 72.1478L195.131 72.1647C194.385 72.2208 193.825 72.872 193.881 73.619C193.937 74.3659 194.589 74.9255 195.336 74.8695ZM182.333 76.782L182.112 76.8314C181.381 76.9945 180.657 76.5341 180.493 75.8031C180.33 75.0721 180.791 74.3473 181.522 74.1843L181.742 74.1349C182.473 73.9718 183.198 74.4322 183.361 75.1632C183.524 75.8942 183.064 76.619 182.333 76.782ZM169.32 80.676L169.531 80.5958C170.231 80.3288 170.581 79.5449 170.314 78.8453C170.047 78.1452 169.264 77.7944 168.564 78.0613L168.353 78.1421C167.653 78.4091 167.302 79.193 167.57 79.8926C167.837 80.5927 168.62 80.943 169.32 80.676ZM157.422 86.2213L157.225 86.3319C156.571 86.6976 155.745 86.4646 155.379 85.8108C155.013 85.1575 155.247 84.3309 155.9 83.9651L156.097 83.8545C156.751 83.4888 157.577 83.7223 157.943 84.3756C158.309 85.0294 158.076 85.8556 157.422 86.2213ZM146.077 93.6879L146.256 93.55C146.85 93.0927 146.961 92.2414 146.504 91.6477C146.047 91.0546 145.195 90.9435 144.602 91.4008L144.423 91.5387C143.829 91.9955 143.719 92.8468 144.176 93.4404C144.632 94.0341 145.484 94.1447 146.077 93.6879ZM136.267 102.418L136.11 102.58C135.588 103.117 134.73 103.13 134.192 102.609C133.655 102.087 133.642 101.228 134.163 100.691L134.321 100.528C134.843 99.9914 135.701 99.9785 136.238 100.5C136.776 101.022 136.789 101.88 136.267 102.418ZM0.599052 109.227L0.433415 109.073C-0.115468 108.564 -0.147286 107.706 0.362345 107.157C0.871969 106.608 1.73006 106.576 2.27894 107.085L2.44458 107.239C2.99346 107.749 3.02528 108.607 2.51565 109.156C2.00602 109.705 1.14793 109.737 0.599052 109.227ZM11.336 117.812L11.1501 117.684C10.5339 117.258 10.3797 116.413 10.8055 115.797C11.2313 115.181 12.076 115.026 12.6922 115.452L12.8781 115.581C13.4943 116.006 13.6486 116.851 13.2228 117.467C12.7969 118.083 11.9522 118.238 11.336 117.812ZM22.9992 124.657L23.2018 124.757C23.8733 125.089 24.6866 124.813 25.0185 124.142C25.3504 123.471 25.0751 122.657 24.4037 122.326L24.201 122.225C23.5296 121.894 22.7162 122.169 22.3843 122.84C22.0525 123.511 22.3277 124.325 22.9992 124.657ZM35.9508 129.904L35.7358 129.834C35.0232 129.603 34.6326 128.839 34.8634 128.126C35.0941 127.414 35.8588 127.023 36.5714 127.254L36.7864 127.324C37.499 127.554 37.8896 128.319 37.6588 129.031C37.4281 129.744 36.6634 130.134 35.9508 129.904ZM49.0899 133.11L49.3127 133.147C50.0511 133.273 50.7513 132.775 50.8763 132.037C51.0018 131.298 50.5048 130.598 49.7663 130.473L49.5435 130.435C48.805 130.31 48.1049 130.807 47.9796 131.546C47.8543 132.284 48.3514 132.984 49.0899 133.11ZM63.0101 134.431L62.7842 134.425C62.0353 134.407 61.4427 133.786 61.4607 133.037C61.4782 132.289 62.0996 131.696 62.8485 131.714L63.0744 131.719C63.8233 131.737 64.4159 132.358 64.3979 133.107C64.3804 133.856 63.759 134.448 63.0101 134.431ZM76.5023 133.762L76.7266 133.735C77.4704 133.645 78.0003 132.969 77.9102 132.225C77.8207 131.482 77.1448 130.952 76.4015 131.042L76.1772 131.069C75.4334 131.159 74.9036 131.834 74.9931 132.578C75.0831 133.322 75.7585 133.851 76.5023 133.762ZM90.2153 131.074L89.9967 131.133C89.2739 131.329 88.5291 130.902 88.3331 130.179C88.1371 129.456 88.5646 128.711 89.2873 128.516L89.5054 128.456C90.2286 128.26 90.9735 128.687 91.1695 129.411C91.365 130.133 90.938 130.878 90.2153 131.074ZM102.982 126.58L103.189 126.49C103.876 126.192 104.191 125.393 103.892 124.706C103.593 124.019 102.794 123.704 102.108 124.003L101.9 124.093C101.213 124.392 100.898 125.19 101.197 125.877C101.496 126.564 102.294 126.879 102.982 126.58ZM115.353 120.074L115.161 120.193C114.525 120.589 113.688 120.394 113.293 119.757C112.898 119.121 113.093 118.285 113.729 117.89L113.922 117.771C114.557 117.375 115.394 117.571 115.789 118.206C116.184 118.843 115.989 119.679 115.353 120.074ZM126.293 112.094L126.466 111.949C127.038 111.465 127.11 110.61 126.626 110.037C126.143 109.465 125.287 109.394 124.715 109.877L124.542 110.023C123.97 110.506 123.899 111.362 124.382 111.934C124.865 112.506 125.721 112.578 126.293 112.094ZM221.906 76.7013L222.127 76.7491C222.859 76.9075 223.581 76.4425 223.74 75.7105C223.898 74.9785 223.433 74.2563 222.701 74.0979L222.48 74.05C221.748 73.8916 221.026 74.3566 220.868 75.0886C220.709 75.8206 221.174 76.5423 221.906 76.7013ZM234.935 80.5474L234.723 80.4682C234.022 80.2054 233.666 79.4235 233.929 78.7223C234.192 78.0212 234.974 77.6658 235.675 77.9286L235.887 78.0078C236.588 78.2707 236.944 79.0526 236.681 79.7537C236.418 80.4554 235.636 80.8108 234.935 80.5474ZM246.86 86.0593L247.058 86.1688C247.714 86.531 248.538 86.2933 248.901 85.6375C249.263 84.9821 249.025 84.157 248.369 83.7949L248.171 83.6853C247.516 83.3232 246.691 83.5608 246.329 84.2167C245.967 84.872 246.204 85.6971 246.86 86.0593ZM258.238 93.4939L258.058 93.3571C257.461 92.9039 257.346 92.0531 257.799 91.4569C258.253 90.8607 259.103 90.745 259.7 91.1982L259.88 91.335C260.476 91.7887 260.592 92.6395 260.138 93.2357C259.685 93.8319 258.834 93.9476 258.238 93.4939Z" fill="#624DE3" fill-opacity="0.33"/>
<path fill-rule="evenodd" clip-rule="evenodd" d="M223.25 59.725L223.025 59.7095C222.277 59.6581 221.713 59.0105 221.765 58.2635C221.816 57.5161 222.463 56.9518 223.211 57.0033L223.436 57.0187C224.184 57.0701 224.747 57.7178 224.696 58.4652C224.644 59.2121 223.997 59.7764 223.25 59.725ZM209.679 59.7533L209.904 59.7363C210.651 59.6802 211.211 59.029 211.155 58.2821C211.098 57.5351 210.447 56.9755 209.701 57.0315L209.475 57.0485C208.728 57.1051 208.168 57.7558 208.225 58.5027C208.281 59.2497 208.932 59.8098 209.679 59.7533ZM196.676 61.6658L196.456 61.7152C195.725 61.8783 195 61.4179 194.837 60.6869C194.674 59.9559 195.134 59.2311 195.865 59.0681L196.086 59.0187C196.817 58.8556 197.542 59.316 197.705 60.047C197.868 60.7779 197.407 61.5027 196.676 61.6658ZM183.664 65.5604L183.874 65.4796C184.575 65.2126 184.925 64.4287 184.658 63.7291C184.391 63.0295 183.607 62.6787 182.908 62.9456L182.696 63.0259C181.997 63.2934 181.646 64.0768 181.913 64.7764C182.18 65.4765 182.963 65.8273 183.664 65.5604ZM171.766 71.1056L171.568 71.2157C170.915 71.5819 170.088 71.3484 169.723 70.6951C169.357 70.0413 169.59 69.2152 170.244 68.8489L170.441 68.7388C171.095 68.3731 171.921 68.6061 172.286 69.2599C172.653 69.9132 172.419 70.7399 171.766 71.1056ZM160.421 78.5716L160.6 78.4338C161.194 77.977 161.304 77.1252 160.848 76.532C160.391 75.9384 159.539 75.8278 158.946 76.2846L158.766 76.4225C158.173 76.8793 158.063 77.7311 158.52 78.3242C158.976 78.9178 159.828 79.0284 160.421 78.5716ZM150.611 87.3016L150.453 87.4641C149.932 88.0012 149.073 88.014 148.535 87.4924C147.998 86.9708 147.986 86.1123 148.507 85.5747L148.665 85.4127C149.186 84.8751 150.045 84.8623 150.582 85.3839C151.12 85.9055 151.133 86.7645 150.611 87.3016ZM14.9428 94.1112L14.7772 93.9574C14.2283 93.4477 14.1965 92.5896 14.7061 92.0408C15.2157 91.4919 16.0738 91.46 16.6227 91.9698L16.7883 92.1236C17.3372 92.6328 17.369 93.4914 16.8594 94.0403C16.3498 94.5891 15.4917 94.6205 14.9428 94.1112ZM25.6798 102.696L25.4938 102.568C24.8777 102.142 24.7234 101.297 25.1492 100.681C25.5751 100.064 26.4198 99.9101 27.0359 100.336L27.2219 100.465C27.838 100.891 27.9923 101.735 27.5665 102.351C27.1406 102.968 26.2959 103.122 25.6798 102.696ZM37.343 109.541L37.5456 109.641C38.217 109.973 39.0304 109.698 39.3623 109.026C39.6941 108.355 39.4189 107.541 38.7474 107.209L38.5448 107.109C37.8733 106.777 37.06 107.053 36.7281 107.724C36.3962 108.396 36.6715 109.209 37.343 109.541ZM50.2944 114.788L50.0794 114.718C49.3668 114.487 48.9762 113.723 49.207 113.01C49.4377 112.297 50.2025 111.907 50.915 112.138L51.13 112.207C51.8426 112.438 52.2332 113.203 52.0025 113.915C51.7717 114.628 51.007 115.019 50.2944 114.788ZM63.4336 117.993L63.6565 118.031C64.3949 118.156 65.095 117.66 65.2203 116.921C65.3456 116.183 64.8485 115.483 64.1101 115.357L63.8872 115.32C63.1488 115.194 62.4486 115.691 62.3233 116.43C62.1981 117.168 62.6951 117.868 63.4336 117.993ZM77.354 119.314L77.1282 119.309C76.3792 119.291 75.7866 118.67 75.8041 117.921C75.8221 117.172 76.4435 116.58 77.1919 116.597L77.4183 116.603C78.1667 116.62 78.7593 117.242 78.7418 117.99C78.7238 118.739 78.1029 119.332 77.354 119.314ZM90.8462 118.646L91.0705 118.618C91.8138 118.529 92.3442 117.853 92.2542 117.11C92.1641 116.366 91.4887 115.836 90.7454 115.926L90.5206 115.953C89.7773 116.043 89.247 116.718 89.337 117.462C89.427 118.205 90.1024 118.736 90.8462 118.646ZM104.559 115.958L104.341 116.017C103.618 116.213 102.873 115.786 102.677 115.063C102.481 114.34 102.908 113.595 103.631 113.399L103.849 113.34C104.572 113.144 105.317 113.572 105.513 114.294C105.709 115.017 105.282 115.762 104.559 115.958ZM117.325 111.465L117.532 111.374C118.219 111.076 118.534 110.277 118.236 109.59C117.937 108.903 117.138 108.588 116.451 108.887L116.244 108.977C115.557 109.275 115.242 110.074 115.541 110.761C115.839 111.448 116.638 111.763 117.325 111.465ZM129.697 104.958L129.504 105.077C128.868 105.473 128.032 105.277 127.637 104.642C127.241 104.005 127.437 103.169 128.073 102.774L128.265 102.654C128.901 102.259 129.737 102.454 130.133 103.091C130.528 103.727 130.332 104.563 129.697 104.958ZM140.637 96.9785L140.81 96.8324C141.382 96.3489 141.454 95.4934 140.97 94.9214C140.487 94.3494 139.631 94.2774 139.059 94.7609L138.886 94.907C138.314 95.3906 138.242 96.246 138.726 96.818C139.209 97.39 140.065 97.4621 140.637 96.9785ZM236.25 61.585L236.471 61.6329C237.203 61.7913 237.925 61.3263 238.083 60.5943C238.242 59.8623 237.777 59.1406 237.045 58.9816L236.824 58.9338C236.092 58.7754 235.37 59.2404 235.211 59.9724C235.053 60.7044 235.518 61.4266 236.25 61.585ZM249.279 65.4317L249.067 65.3525C248.366 65.0892 248.01 64.3078 248.273 63.6061C248.536 62.905 249.318 62.5495 250.019 62.8124L250.231 62.8921C250.932 63.155 251.287 63.9364 251.025 64.638C250.762 65.3392 249.98 65.6946 249.279 65.4317ZM261.204 70.9436L261.401 71.0526C262.057 71.4148 262.882 71.1771 263.244 70.5212C263.606 69.8659 263.369 69.0408 262.713 68.6787L262.515 68.5691C261.859 68.207 261.034 68.4451 260.672 69.1005C260.31 69.7563 260.548 70.5814 261.204 70.9436ZM272.582 78.3782L272.402 78.2414C271.805 77.7877 271.69 76.9369 272.143 76.3407C272.596 75.7445 273.447 75.6287 274.043 76.0825L274.223 76.2193C274.819 76.6725 274.935 77.5233 274.482 78.1195C274.029 78.7157 273.178 78.8314 272.582 78.3782Z" fill="#624DE3" fill-opacity="0.33"/>
<mask id="mask0_3648_14417" style="mask-type:alpha" maskUnits="userSpaceOnUse" x="28" y="195" width="62" height="62">
<path fill-rule="evenodd" clip-rule="evenodd" d="M89.9996 219.8V195C55.7584 195 28 222.758 28 256.999H52.7999C52.7999 236.454 69.455 219.8 89.9996 219.8Z" fill="white"/>
</mask>
<g mask="url(#mask0_3648_14417)">
<path d="M28 194.033L28 257.001H90.9684V194.033H28Z" fill="#624DE3"/>
</g>
<mask id="mask1_3648_14417" style="mask-type:alpha" maskUnits="userSpaceOnUse" x="238" y="0" width="50" height="50">
<path fill-rule="evenodd" clip-rule="evenodd" d="M250.444 12.4444H262.889C262.889 5.57139 257.317 0 250.444 0V12.4444ZM287.778 12.4444H275.333V0C282.206 0 287.778 5.57139 287.778 12.4444ZM262.889 12.4444H275.333V24.8888C282.206 24.8889 287.778 30.4602 287.778 37.3332H275.333V24.8888C268.46 24.8887 262.889 19.3174 262.889 12.4444ZM262.889 37.3334L275.333 37.3332V49.7778C268.46 49.7778 262.889 44.2064 262.889 37.3334ZM238 12.4446L250.444 12.4444V24.8888C257.317 24.8889 262.889 30.4604 262.889 37.3334L250.444 37.3332V24.8888C243.571 24.8887 238 19.3176 238 12.4446ZM238 37.3334L250.444 37.3332V49.7778C243.571 49.7778 238 44.2064 238 37.3334Z" fill="#624DE3"/>
</mask>
<g mask="url(#mask1_3648_14417)">
<path d="M289.132 -2.30469H236.561V50.9874H289.132V-2.30469Z" fill="#624DE3"/>
</g>
<mask id="mask2_3648_14417" style="mask-type:alpha" maskUnits="userSpaceOnUse" x="60" y="7" width="17" height="18">
<path fill-rule="evenodd" clip-rule="evenodd" d="M74.4923 10.3708C74.9831 11.3746 77.044 17.5358 76.2389 18.0428C75.4342 18.5496 72.086 12.1866 71.4001 10.6619C71.4001 10.6619 69.9324 8.14574 71.6733 7.18141C73.0607 6.41215 73.7158 8.25875 74.173 9.54774C74.2893 9.87563 74.3928 10.1674 74.4923 10.3708ZM67.4924 14.2973C65.5828 12.7788 61.0395 9.1657 60.1249 10.6709C59.1662 12.2495 63.9738 15.5636 66.0565 16.8369C66.1746 16.9092 66.2995 16.9858 66.4301 17.0659C68.6043 18.3995 72.3856 20.7187 73.2526 20.253C74.3028 19.6898 69.6643 16.0175 67.8591 14.5884L67.7505 14.5024C67.6712 14.4395 67.5849 14.3709 67.4924 14.2973ZM66.9353 22.0214C66.7371 22.0367 66.4568 22.051 66.122 22.0682C64.12 22.1706 60.1721 22.3725 60.2279 23.4779C60.2929 24.7678 65.1391 25.0173 67.2025 24.5688C68.222 24.3467 71.7996 23.2259 72.5045 22.5927C72.9202 22.2189 68.3185 21.9149 66.9353 22.0214Z" fill="#624DE3"/>
</mask>
<g mask="url(#mask2_3648_14417)">
<path d="M75.1488 6.20159L57.5908 10.9062L62.0051 27.3805L79.5631 22.6758L75.1488 6.20159Z" fill="#624DE3"/>
</g>
<g filter="url(#filter0_d_3648_14417)">
<path d="M258.001 22H90.001C83.3736 22 78.001 27.3726 78.001 34V272C78.001 278.627 83.3736 284 90.001 284H258.001C264.628 284 270.001 278.627 270.001 272V34C270.001 27.3726 264.628 22 258.001 22Z" fill="black"/>
<path d="M265.002 20.999H83.002C80.2405 20.999 78.002 23.2376 78.002 25.999V281.999C78.002 284.76 80.2405 286.999 83.002 286.999H265.002C267.763 286.999 270.002 284.76 270.002 281.999V25.999C270.002 23.2376 267.763 20.999 265.002 20.999Z" fill="#05164D"/>
<g opacity="0.9">
<path d="M184.161 59.3514C183.318 59.3514 182.599 59.259 182.006 59.0742C181.413 58.9048 180.843 58.697 180.297 58.4506V55.8177C180.656 56.0487 181.031 56.2719 181.421 56.4875C181.827 56.6876 182.256 56.8493 182.709 56.9725C183.177 57.0957 183.677 57.1573 184.207 57.1573C184.832 57.1573 185.292 57.0418 185.589 56.8108C185.901 56.5645 186.057 56.2719 186.057 55.9332C186.057 55.6098 185.94 55.3635 185.706 55.1941C185.472 55.0093 185.167 54.8554 184.793 54.7322C184.418 54.609 184.02 54.4858 183.599 54.3627C183.208 54.2703 182.81 54.1471 182.404 53.9931C182.014 53.8392 181.655 53.6313 181.327 53.3695C180.999 53.1078 180.734 52.7767 180.531 52.3764C180.344 51.9607 180.25 51.4603 180.25 50.8752C180.25 50.1823 180.391 49.5972 180.671 49.1199C180.952 48.6426 181.319 48.2577 181.772 47.9651C182.225 47.6726 182.724 47.4647 183.271 47.3415C183.817 47.2029 184.348 47.1337 184.863 47.1337C185.753 47.1645 186.471 47.2722 187.017 47.457C187.564 47.6264 188.079 47.8496 188.563 48.1268L188.586 50.5057C188.04 50.2131 187.509 49.9514 186.994 49.7204C186.479 49.474 185.893 49.3509 185.238 49.3509C184.629 49.3509 184.153 49.4586 183.809 49.6742C183.481 49.8744 183.318 50.1592 183.318 50.5287C183.318 50.8521 183.419 51.1138 183.622 51.314C183.825 51.5142 184.09 51.6681 184.418 51.7759C184.746 51.8837 185.105 51.9915 185.495 52.0993C185.886 52.207 186.291 52.3302 186.713 52.4688C187.134 52.592 187.525 52.7767 187.884 53.0231C188.243 53.2695 188.532 53.6005 188.75 54.0162C188.984 54.4165 189.101 54.9555 189.101 55.6329C189.086 56.526 188.844 57.2496 188.376 57.8039C187.907 58.3428 187.291 58.7355 186.526 58.9818C185.776 59.2282 184.988 59.3514 184.161 59.3514Z" fill="white"/>
<path d="M195.486 59.3745C194.268 59.3745 193.339 59.0819 192.699 58.4968C192.059 57.8963 191.739 57.0341 191.739 55.9101V49.6742H189.912V47.3646H191.739V44.1543H194.807V47.3646H197.546V49.6742H194.807V55.4482C194.807 55.9255 194.9 56.2796 195.088 56.5106C195.275 56.7415 195.603 56.857 196.071 56.857C196.321 56.857 196.578 56.8185 196.844 56.7415C197.125 56.6491 197.359 56.5414 197.546 56.4182V58.9587C197.234 59.1127 196.891 59.2205 196.516 59.2821C196.157 59.3437 195.813 59.3745 195.486 59.3745Z" fill="white"/>
<path d="M203.879 59.3514C203.223 59.3514 202.599 59.2898 202.006 59.1666C201.412 59.0434 200.882 58.8433 200.413 58.5661C199.945 58.2736 199.57 57.8809 199.289 57.3882C199.024 56.8801 198.891 56.2488 198.891 55.4944C198.891 54.7091 199.055 54.047 199.383 53.5081C199.711 52.9538 200.187 52.5381 200.811 52.2609C201.451 51.9684 202.232 51.8221 203.153 51.8221C203.715 51.8221 204.238 51.876 204.722 51.9838C205.206 52.0762 205.643 52.207 206.033 52.3764C206.424 52.5458 206.744 52.7306 206.993 52.9307L207.204 54.5705C206.876 54.355 206.455 54.1856 205.94 54.0624C205.44 53.9238 204.894 53.8546 204.3 53.8546C203.473 53.8546 202.856 53.9854 202.451 54.2472C202.045 54.5089 201.842 54.917 201.842 55.4713C201.842 55.8562 201.951 56.1795 202.17 56.4413C202.388 56.6876 202.669 56.8801 203.013 57.0187C203.356 57.1419 203.715 57.2034 204.09 57.2034C204.948 57.2034 205.565 57.1496 205.94 57.0418C206.33 56.9186 206.525 56.6645 206.525 56.2796V51.6835C206.525 50.9291 206.283 50.3825 205.799 50.0437C205.315 49.6896 204.636 49.5125 203.762 49.5125C203.091 49.5125 202.404 49.628 201.701 49.859C200.999 50.0745 200.429 50.3594 199.992 50.7135V48.0575C200.413 47.7957 201.046 47.5648 201.889 47.3646C202.732 47.1645 203.637 47.0644 204.605 47.0644C205.011 47.0644 205.44 47.1029 205.893 47.1799C206.346 47.2568 206.775 47.38 207.181 47.5494C207.602 47.7188 207.985 47.9574 208.328 48.2654C208.672 48.5579 208.945 48.9351 209.148 49.3971C209.351 49.8436 209.452 50.3902 209.452 51.0369V56.5568C209.452 57.2804 209.218 57.8501 208.75 58.2659C208.281 58.6662 207.633 58.9433 206.806 59.0973C205.979 59.2667 205.003 59.3514 203.879 59.3514Z" fill="white"/>
<path d="M216.44 59.3745C215.222 59.3745 214.293 59.0819 213.653 58.4968C213.013 57.8963 212.693 57.0341 212.693 55.9101V49.6742H210.867V47.3646H212.693V44.1543H215.761V47.3646H218.5V49.6742H215.761V55.4482C215.761 55.9255 215.854 56.2796 216.042 56.5106C216.229 56.7415 216.557 56.857 217.025 56.857C217.275 56.857 217.533 56.8185 217.798 56.7415C218.079 56.6491 218.313 56.5414 218.5 56.4182V58.9587C218.188 59.1127 217.845 59.2205 217.47 59.2821C217.111 59.3437 216.768 59.3745 216.44 59.3745Z" fill="white"/>
<path d="M225.817 59.3514C224.724 59.3514 223.772 59.182 222.96 58.8433C222.164 58.4891 221.539 57.9656 221.086 57.2727C220.649 56.5799 220.431 55.6945 220.431 54.6167V47.3646H223.405V54.3165C223.405 55.1787 223.6 55.8177 223.99 56.2334C224.38 56.6491 224.989 56.857 225.817 56.857C226.675 56.857 227.292 56.6491 227.667 56.2334C228.057 55.8177 228.252 55.1787 228.252 54.3165V47.3646H231.062V54.6167C231.062 56.218 230.594 57.4113 229.657 58.1966C228.736 58.9664 227.456 59.3514 225.817 59.3514Z" fill="white"/>
<path d="M236.98 59.3514C236.137 59.3514 235.419 59.259 234.826 59.0742C234.233 58.9048 233.663 58.697 233.117 58.4506V55.8177C233.476 56.0487 233.85 56.2719 234.241 56.4875C234.647 56.6876 235.076 56.8493 235.529 56.9725C235.997 57.0957 236.497 57.1573 237.027 57.1573C237.652 57.1573 238.112 57.0418 238.409 56.8108C238.721 56.5645 238.877 56.2719 238.877 55.9332C238.877 55.6098 238.76 55.3635 238.526 55.1941C238.292 55.0093 237.987 54.8554 237.613 54.7322C237.238 54.609 236.84 54.4858 236.418 54.3627C236.028 54.2703 235.63 54.1471 235.224 53.9931C234.834 53.8392 234.475 53.6313 234.147 53.3695C233.819 53.1078 233.554 52.7767 233.351 52.3764C233.164 51.9607 233.07 51.4603 233.07 50.8752C233.07 50.1823 233.21 49.5972 233.491 49.1199C233.772 48.6426 234.139 48.2577 234.592 47.9651C235.045 47.6726 235.544 47.4647 236.091 47.3415C236.637 47.2029 237.168 47.1337 237.683 47.1337C238.573 47.1645 239.291 47.2722 239.837 47.457C240.384 47.6264 240.899 47.8496 241.383 48.1268L241.406 50.5057C240.86 50.2131 240.329 49.9514 239.814 49.7204C239.299 49.474 238.713 49.3509 238.058 49.3509C237.449 49.3509 236.973 49.4586 236.629 49.6742C236.301 49.8744 236.137 50.1592 236.137 50.5287C236.137 50.8521 236.239 51.1138 236.442 51.314C236.645 51.5142 236.91 51.6681 237.238 51.7759C237.566 51.8837 237.925 51.9915 238.315 52.0993C238.705 52.207 239.111 52.3302 239.533 52.4688C239.954 52.592 240.345 52.7767 240.704 53.0231C241.063 53.2695 241.352 53.6005 241.57 54.0162C241.804 54.4165 241.921 54.9555 241.921 55.6329C241.906 56.526 241.664 57.2496 241.195 57.8039C240.727 58.3428 240.11 58.7355 239.346 58.9818C238.596 59.2282 237.808 59.3514 236.98 59.3514Z" fill="white"/>
<path d="M131.858 59.0041L127.924 47.3638H131.108L133.918 57.041L133.005 57.1333L135.698 47.3638H137.993L140.639 56.8562H139.913L142.676 47.3638H145.767L141.833 59.0041H139.117L136.541 50.6896L137.056 50.8282L134.598 59.0041H131.858Z" fill="white"/>
<path d="M151.717 59.3505C149.781 59.3505 148.329 58.8193 147.362 57.7569C146.394 56.6945 145.91 55.1625 145.91 53.1609C145.91 51.0206 146.402 49.4655 147.385 48.4955C148.384 47.5255 149.82 47.0405 151.694 47.0405C153.005 47.0405 154.098 47.2714 154.972 47.7333C155.846 48.1798 156.494 48.8573 156.916 49.7658C157.353 50.6742 157.571 51.8059 157.571 53.1609C157.571 55.1625 157.064 56.6945 156.049 57.7569C155.05 58.8193 153.606 59.3505 151.717 59.3505ZM151.717 56.9486C152.404 56.9486 152.958 56.7946 153.38 56.4867C153.817 56.1787 154.137 55.7476 154.34 55.1933C154.543 54.6236 154.644 53.9461 154.644 53.1609C154.644 52.2832 154.535 51.5672 154.316 51.0129C154.113 50.4586 153.793 50.0506 153.356 49.7889C152.935 49.5271 152.388 49.3962 151.717 49.3962C151.03 49.3962 150.476 49.5348 150.054 49.812C149.633 50.0891 149.321 50.5048 149.118 51.0591C148.93 51.6134 148.837 52.314 148.837 53.1609C148.837 54.3926 149.063 55.3319 149.516 55.9785C149.969 56.6252 150.702 56.9486 151.717 56.9486Z" fill="white"/>
<path d="M159.397 59.0041V48.4955C159.616 48.3569 159.998 48.1721 160.545 47.9412C161.107 47.7102 161.755 47.5101 162.488 47.3407C163.222 47.1559 163.964 47.0635 164.713 47.0635C165.275 47.0635 165.72 47.1097 166.048 47.2021C166.391 47.2791 166.656 47.3792 166.844 47.5024V49.7196C166.532 49.6734 166.173 49.6349 165.767 49.6041C165.376 49.5733 164.97 49.5656 164.549 49.581C164.143 49.581 163.745 49.5964 163.355 49.6272C162.98 49.658 162.652 49.6965 162.371 49.7427V59.0041H159.397Z" fill="white"/>
<path d="M170.569 52.4218L175.135 47.3638H178.765L172.091 53.9692L170.569 52.4218ZM171.201 59.0041H168.251V42.9756H171.225L171.201 59.0041ZM172.7 51.2901L179.21 59.0041H175.44L170.592 53.2532L172.7 51.2901Z" fill="white"/>
<path fill-rule="evenodd" clip-rule="evenodd" d="M107.47 51.5351C107.281 53.0916 107.647 54.6646 108.506 55.9836C109.365 57.3026 110.663 58.2853 112.177 58.7629C113.691 59.2405 115.326 59.1832 116.801 58.6007C118.277 58.0183 119.501 56.9471 120.263 55.5713C121.024 54.1954 121.277 52.6008 120.976 51.0614C120.675 49.522 119.841 48.134 118.615 47.1358C117.66 46.3576 116.513 45.8543 115.301 45.6702L115.301 46.9115C115.301 47.4785 114.835 47.9381 114.26 47.9381C113.686 47.9381 113.22 47.4785 113.22 46.9115L113.22 44.7117C113.22 44.0688 113.752 43.5275 114.429 43.5401C116.442 43.5776 118.385 44.286 119.94 45.5527C121.539 46.8546 122.628 48.6651 123.02 50.673C123.412 52.6809 123.083 54.7608 122.089 56.5554C121.096 58.35 119.499 59.7472 117.575 60.5069C115.65 61.2666 113.517 61.3414 111.543 60.7184C109.568 60.0955 107.875 58.8136 106.755 57.0932C105.635 55.3728 105.157 53.3211 105.403 51.2908C105.65 49.2605 106.606 47.3784 108.106 45.9677C108.522 45.5766 109.181 45.5922 109.578 46.0027C109.974 46.4131 109.958 47.0629 109.542 47.454C108.392 48.5355 107.659 49.9785 107.47 51.5351Z" fill="white"/>
<path fill-rule="evenodd" clip-rule="evenodd" d="M110.552 48.5321C110.958 48.1312 111.617 48.1312 112.024 48.5321L115.295 51.7585C115.701 52.1593 115.701 52.8093 115.295 53.2102C114.888 53.6111 114.229 53.6111 113.823 53.2102L110.552 49.9839C110.145 49.583 110.145 48.933 110.552 48.5321Z" fill="white"/>
</g>
<mask id="mask3_3648_14417" style="mask-type:luminance" maskUnits="userSpaceOnUse" x="78" y="164" width="193" height="123">
<path d="M258.39 164.799H90.0029C83.3755 164.799 78.0029 170.171 78.0029 176.799V274.638C78.0029 281.266 83.3755 286.638 90.0029 286.638H258.39C265.017 286.638 270.39 281.266 270.39 274.638V176.799C270.39 170.171 265.017 164.799 258.39 164.799Z" fill="white"/>
</mask>
<g mask="url(#mask3_3648_14417)">
<path d="M78.0029 201.555L174.196 221.05L270.39 206.429V188.965L174.196 206.022L78.0029 188.965V201.555Z" fill="#624DE3"/>
<path d="M78.0029 244.198L174.196 242.98L270.39 241.762V206.022L174.196 220.643L78.0029 201.148V244.198Z" fill="white"/>
</g>
</g>
</g>
<defs>
<filter id="filter0_d_3648_14417" x="56.9105" y="2.99493" width="234.57" height="308.181" filterUnits="userSpaceOnUse" color-interpolation-filters="sRGB">
<feFlood flood-opacity="0" result="BackgroundImageFix"/>
<feColorMatrix in="SourceAlpha" type="matrix" values="0 0 0 0 0 0 0 0 0 0 0 0 0 0 0 0 0 0 127 0" result="hardAlpha"/>
<feOffset dy="3.08642"/>
<feGaussianBlur stdDeviation="10.5453"/>
<feComposite in2="hardAlpha" operator="out"/>
<feColorMatrix type="matrix" values="0 0 0 0 0.170913 0 0 0 0 0.164792 0 0 0 0 0.470833 0 0 0 0.31 0"/>
<feBlend mode="normal" in2="BackgroundImageFix" result="effect1_dropShadow_3648_14417"/>
<feBlend mode="normal" in="SourceGraphic" in2="effect1_dropShadow_3648_14417" result="shape"/>
</filter>
<clipPath id="clip0_3648_14417">
<path d="M0 20C0 8.9543 8.95431 0 20 0H317C328.046 0 337 8.95431 337 20V241H0V20Z" fill="white"/>
</clipPath>
</defs>
</svg>
