<svg width="18" height="18" viewBox="0 0 18 18" fill="none" xmlns="http://www.w3.org/2000/svg">
<g opacity="0.9">
<path fill-rule="evenodd" clip-rule="evenodd" d="M7.13725 2.37278C4.3213 2.37278 2.03879 4.65531 2.03879 7.47123C2.03879 10.2862 4.32133 12.5687 7.13725 12.5687C9.95221 12.5687 12.2347 10.2862 12.2347 7.47123C12.2347 4.65529 9.95218 2.37278 7.13725 2.37278ZM0 7.47123C0 3.52945 3.19546 0.333984 7.13725 0.333984C11.078 0.333984 14.2735 3.52945 14.2735 7.47123C14.2735 11.412 11.078 14.6075 7.13725 14.6075C3.19546 14.6075 0 11.412 0 7.47123Z" fill="white"/>
<path fill-rule="evenodd" clip-rule="evenodd" d="M11.0033 11.3373C11.4019 10.9397 12.0471 10.9397 12.4456 11.3373L17.0337 15.9253C17.4313 16.3239 17.4313 16.9691 17.0337 17.3677C16.6351 17.7653 15.9899 17.7653 15.5913 17.3677L11.0033 12.7796C10.6057 12.3811 10.6057 11.7359 11.0033 11.3373Z" fill="white"/>
</g>
</svg>
