<svg width="22" height="22" viewBox="0 0 22 22" fill="none" xmlns="http://www.w3.org/2000/svg">
<path d="M5.83284 20.7326H15.4985C18.3846 20.7326 20.7323 18.3849 20.7323 15.4988V10.376C20.7323 9.54208 20.3012 8.78723 19.5815 8.36455C18.8648 7.94353 17.9962 7.92992 17.2662 8.33624C17.2661 8.33631 17.266 8.33638 17.2659 8.33645L10.6657 12.0028L4.06642 8.33645C4.06634 8.33641 4.06627 8.33637 4.0662 8.33633C3.3365 7.93006 2.46583 7.94329 1.75053 8.36471C1.03093 8.78741 0.6 9.54218 0.6 10.376V15.4998C0.6 18.3849 2.94677 20.7326 5.83284 20.7326ZM3.33295 15.4988V11.0549L10.002 14.7597C10.0022 14.7597 10.0023 14.7598 10.0025 14.7599C10.4138 14.9898 10.9182 14.9895 11.3299 14.76C11.3299 14.76 11.33 14.76 11.3301 14.7599L17.9994 11.0549V15.4988C17.9994 16.8774 16.878 17.9987 15.4995 17.9987H5.83284C4.45429 17.9987 3.33295 16.8774 3.33295 15.4988Z" fill="#05164D" stroke="#FFEDE0" stroke-width="0.8"/>
<path d="M10.0027 14.7607L10.0034 14.7611C10.2091 14.8748 10.4379 14.9325 10.6663 14.9325C10.8942 14.9325 11.1238 14.8751 11.3299 14.7594C11.3303 14.7592 11.3306 14.759 11.3309 14.7588L18.0956 11.001C18.0956 11.001 18.0957 11.0009 18.0958 11.0009C18.5298 10.7601 18.7991 10.3037 18.7991 9.80663V5.83284C18.7991 2.94772 16.4523 0.6 13.5662 0.6H7.76644C4.88131 0.6 2.53359 2.94677 2.53359 5.83284V9.80663C2.53359 10.3038 2.80283 10.7596 3.23497 11.0012L3.23595 11.0018L10.0027 14.7607ZM10.6663 12.0016L5.26655 9.00216V5.83283C5.26655 4.45428 6.38789 3.33294 7.76644 3.33294H13.5662C14.9448 3.33294 16.0661 4.45428 16.0661 5.83283V9.00216L10.6663 12.0016Z" fill="#05164D" stroke="#FFEDE0" stroke-width="0.8"/>
<path d="M13.9663 5.83334V5.83266C13.9663 5.07823 13.3552 4.46572 12.5994 4.46572H8.73256C7.97674 4.46572 7.36562 5.07823 7.36562 5.83266C7.36562 6.58734 7.97698 7.1987 8.73166 7.1987H12.5985C13.354 7.1987 13.9651 6.5876 13.9663 5.83334Z" fill="#05164D" stroke="#FFEDE0" stroke-width="0.8"/>
<path d="M8.73256 10.0985H10.6655C11.4211 10.0985 12.0325 9.48717 12.0325 8.73159C12.0325 7.97715 11.4213 7.36465 10.6655 7.36465H8.73256C7.97674 7.36465 7.36562 7.97715 7.36562 8.73159C7.36562 9.48603 7.97674 10.0985 8.73256 10.0985Z" fill="#05164D" stroke="#FFEDE0" stroke-width="0.8"/>
</svg>
