<svg width="30" height="30" viewBox="0 0 30 30" fill="none" xmlns="http://www.w3.org/2000/svg">
<path fill-rule="evenodd" clip-rule="evenodd" d="M0.000488281 15C0.000488281 6.71531 6.7158 0 15.0005 0C23.2852 0 30.0005 6.71531 30.0005 15C30.0005 23.2838 23.2852 30 15.0005 30C6.7158 30 0.000488281 23.2838 0.000488281 15ZM18.3484 6.13512L17.7503 7.17106C18.9044 8.01856 19.6572 9.38168 19.6572 10.9239H10.3431C10.3431 9.38074 11.0969 8.01762 12.2509 7.17012L11.6528 6.13418C11.5731 5.99449 11.6209 5.81731 11.7597 5.73668C11.9003 5.65699 12.0775 5.70481 12.1581 5.84356L12.7412 6.85418C13.4106 6.48106 14.1803 6.26731 15.0006 6.26731C15.8209 6.26731 16.5906 6.48106 17.26 6.85324L17.844 5.84356C17.9247 5.70387 18.1028 5.65606 18.2415 5.73668C18.3812 5.81824 18.429 5.99543 18.3484 6.13512ZM12.6719 8.59512C12.6719 8.91668 12.9325 9.17731 13.254 9.17731C13.5765 9.17731 13.8362 8.91762 13.8362 8.59512C13.8362 8.27356 13.5756 8.01293 13.254 8.01293C12.9325 8.01293 12.6719 8.27356 12.6719 8.59512ZM16.165 8.59512C16.165 8.91668 16.4256 9.17731 16.7472 9.17731C17.0687 9.17731 17.3294 8.91762 17.3294 8.59512C17.3294 8.27356 17.0687 8.01293 16.7472 8.01293C16.4256 8.01293 16.165 8.27356 16.165 8.59512ZM7.43311 12.0882C7.43311 11.4451 7.95529 10.9239 8.59748 10.9239C9.23967 10.9239 9.76186 11.4451 9.76186 12.0882V16.7448C9.76186 17.3879 9.24061 17.9092 8.59748 17.9092C7.95436 17.9092 7.43311 17.387 7.43311 16.7448V12.0882ZM20.2394 12.0882C20.2394 11.4451 20.7615 10.9239 21.4037 10.9239C22.0469 10.9239 22.5681 11.4451 22.5681 12.0882V16.7448C22.5681 17.3879 22.0469 17.9092 21.4037 17.9092C20.7606 17.9092 20.2394 17.387 20.2394 16.7448V12.0882ZM10.344 20.2379H11.5084V23.1489C11.5084 23.7911 12.0297 24.3132 12.6728 24.3132C13.3159 24.3132 13.8372 23.792 13.8372 23.1489V20.2379H16.1659V23.1489C16.1659 23.7911 16.6872 24.3132 17.3303 24.3132C17.9734 24.3132 18.4947 23.792 18.4947 23.1489V20.2379H19.659V11.5061H10.345L10.344 20.2379Z" fill="white"/>
</svg>
