<svg width="30" height="30" viewBox="0 0 30 30" fill="none" xmlns="http://www.w3.org/2000/svg">
<path d="M14.0854 11.0975C13.6586 11.0365 13.1708 10.9756 12.744 11.0975C11.7074 11.4024 10.9757 12.317 10.6708 13.6585C10.4879 14.6341 10.5489 15.7317 10.7928 16.5853C11.2196 17.9268 12.1952 18.7195 13.4147 18.6585C14.5733 18.6585 15.5489 17.9268 16.0367 16.5853C16.3415 15.7317 16.4025 14.6341 16.1586 13.6585C15.8537 12.317 15.061 11.3414 14.0854 11.0975Z" fill="white"/>
<path d="M15 0C6.7073 0 0 6.70734 0 15C0 23.2927 6.7073 30 15 30C23.2927 30 30 23.2927 30 15C30.061 6.70734 23.2927 0 15 0ZM7.49999 20.1829H5.54876V12.622H7.49999V20.1829ZM6.5244 11.5854C5.97562 11.5854 5.4878 11.0976 5.4878 10.5488C5.4878 9.99999 5.97562 9.51221 6.5244 9.51221C7.07318 9.51221 7.56095 9.99999 7.56095 10.5488C7.56095 11.0976 7.07318 11.5854 6.5244 11.5854ZM15.5488 19.7561C15.061 20 14.6341 20.122 13.9024 20.1829C13.5366 20.2439 13.2317 20.1829 12.8658 20.1829C12.1341 20.122 11.7073 20 11.2195 19.7561C9.51217 18.9634 8.53658 17.1951 8.53658 14.939C8.53658 12.6829 9.51217 10.8537 11.2195 10C11.8902 9.69513 12.561 9.51221 13.3536 9.51221C14.1463 9.51221 14.817 9.69513 15.4878 10C17.1951 10.8537 18.1707 12.6829 18.1707 14.939C18.2317 17.1951 17.2561 18.9634 15.5488 19.7561ZM25.1829 18.3537C24.6951 19.3903 23.6585 20.061 22.1951 20.1829C21.8902 20.2439 21.2195 20.2439 21.0366 20.1829C20.1829 20.061 19.3902 19.939 18.7195 19.5732L19.1463 18.0488C20.2439 18.4147 21.7683 18.9024 22.8048 18.4756C23.3536 18.1707 23.6585 17.6829 23.5366 17.0732C23.4146 16.4024 22.9878 16.0366 21.7073 15.5488C20.3049 15 19.4512 14.3902 19.0854 13.5366C18.9024 13.1098 18.8414 12.561 18.9634 12.1342C19.1463 10.8537 20.1829 9.93901 21.7073 9.63414C22.1341 9.57316 23.1098 9.57316 23.5976 9.63414C24.2683 9.75609 25.061 10 25.061 10.122C25.061 10.1829 24.6341 11.5854 24.6341 11.5854C23.9634 11.3415 23.2317 11.1585 22.561 11.0976C21.6463 11.0976 20.6707 11.6464 20.8537 12.561C20.9756 13.1708 21.3414 13.4146 22.7439 14.0244C23.7805 14.4512 24.2683 14.7561 24.6951 15.1829C25.3049 15.7927 25.4878 16.4634 25.4878 17.1342C25.4878 17.622 25.4268 17.8659 25.1829 18.3537Z" fill="white"/>
</svg>
