<svg width="30" height="30" viewBox="0 0 30 30" fill="none" xmlns="http://www.w3.org/2000/svg">
<path fill-rule="evenodd" clip-rule="evenodd" d="M15.0005 30C23.2848 30 30.0005 23.2843 30.0005 15C30.0005 6.71573 23.2848 0 15.0005 0C6.71622 0 0.000488281 6.71573 0.000488281 15C0.000488281 23.2843 6.71622 30 15.0005 30ZM24.8477 22.4205C24.7565 22.3182 24.6273 22.218 24.4609 22.1197C24.4358 22.1037 24.3672 22.0647 24.2553 22.0036C24.1431 21.9421 24.0536 21.889 23.9867 21.8439C23.9202 21.7988 23.8328 21.7211 23.7245 21.6106C23.6164 21.5003 23.5312 21.3834 23.4686 21.2607C23.4062 21.1381 23.3458 20.9724 23.2875 20.7636C23.2291 20.5548 23.1962 20.3237 23.1877 20.0699C23.0711 20.1678 23.0067 20.3622 22.9942 20.653C22.9816 20.9434 23.0442 21.2399 23.1816 21.5427C23.3188 21.8457 23.5248 22.0418 23.7994 22.1321C24.0657 22.2223 24.2799 22.3182 24.4425 22.4205C24.6045 22.5229 24.7088 22.6393 24.7547 22.7702C24.8004 22.9015 24.7232 23.0426 24.5236 23.1938C24.3237 23.3454 24.0033 23.4946 23.5623 23.6424C22.9547 23.8468 22.5239 24.0209 22.2699 24.1639C22.0161 24.3072 21.6439 24.5794 21.1526 24.9802C20.8196 25.2503 20.4659 25.3958 20.0912 25.4162C19.717 25.4368 19.4129 25.3018 19.1801 25.0113C18.9469 24.7208 18.8718 24.3097 18.9551 23.7775C19.1133 22.7545 19.1094 21.9566 18.943 21.3837C18.8098 20.9336 18.7805 20.5366 18.8556 20.1929C18.9305 19.8495 19.0469 19.6491 19.2052 19.5917C19.3629 19.5342 19.5338 19.657 19.717 19.9597C19.7333 20.0006 19.771 20.0804 19.829 20.1991C19.8872 20.3177 19.935 20.4019 19.9728 20.4507C20.0102 20.4999 20.0664 20.5633 20.1413 20.6412C20.2162 20.7191 20.3103 20.7742 20.4224 20.8071C20.5346 20.8398 20.6656 20.8602 20.8157 20.8683C21.0986 20.8764 21.3523 20.8192 21.5772 20.6965C21.8018 20.5738 21.9706 20.4366 22.0828 20.2852C22.195 20.1337 22.3076 19.9886 22.4199 19.8494C22.5321 19.71 22.63 19.6323 22.7133 19.6159C22.8048 19.5998 22.8881 19.5097 22.9631 19.3458C23.0379 19.1822 23.0879 18.9552 23.1129 18.6647C23.138 18.3741 23.1171 18.0283 23.0506 17.6275C22.9257 16.9152 22.6779 16.1337 22.3076 15.2826C21.9371 14.4314 21.5233 13.7644 21.0654 13.2815C20.2415 12.4223 19.6882 11.5302 19.4049 10.6054C19.1139 9.63156 18.9892 8.75583 19.0307 7.97831C19.0724 7.42175 18.9496 6.81815 18.6625 6.16747C18.3755 5.51687 17.9945 5.01969 17.5201 4.67597C17.2205 4.45509 16.85 4.28529 16.4092 4.16653C15.968 4.04777 15.5268 3.99269 15.0856 4.00078C14.5447 4.00078 14.1118 4.08664 13.7873 4.25859C13.1215 4.61057 12.6805 5.03813 12.4639 5.54146C12.2474 6.04471 12.1477 6.66465 12.1642 7.40124C12.1977 9.02168 12.2641 10.2902 12.364 11.2067C12.2474 11.6324 11.7315 12.4302 10.8159 13.6005C10.6493 13.7643 10.487 13.9852 10.3288 14.2634C10.1708 14.5418 10.0459 14.7914 9.95434 15.0122C9.86269 15.2331 9.73999 15.5523 9.58602 15.9697C9.43196 16.387 9.32181 16.6818 9.25517 16.8535C9.19692 17.0011 9.10531 17.1726 8.98055 17.3694C8.85567 17.5656 8.75557 17.7581 8.68084 17.946C8.60611 18.1342 8.56439 18.347 8.55608 18.5844C8.54777 18.7645 8.55608 18.92 8.5811 19.0508C8.61429 19.2475 8.67686 19.3088 8.7683 19.2352C9.14301 18.9569 9.61326 19.1206 10.1792 19.7264C10.5787 20.1519 11.282 21.1422 12.2891 22.6972C12.3723 22.8363 12.4555 22.9856 12.5387 23.1456C12.6221 23.305 12.701 23.5175 12.776 23.7836C12.8509 24.0499 12.8821 24.2891 12.8696 24.502C12.857 24.7149 12.7614 24.9113 12.5824 25.0911C12.4034 25.2711 12.135 25.3856 11.7772 25.4347C11.5856 25.4593 11.3549 25.4431 11.0842 25.3856C10.8137 25.3283 10.4704 25.2343 10.0543 25.1033C9.63814 24.9725 9.33025 24.8823 9.13046 24.8332C8.83931 24.7676 8.42525 24.6841 7.8883 24.5816C7.35141 24.4791 6.99965 24.4035 6.83322 24.3544C6.55026 24.2808 6.39633 24.1745 6.37141 24.0352C6.34639 23.9206 6.40464 23.7243 6.54619 23.4462C6.68783 23.1679 6.75845 22.9672 6.75845 22.8447C6.76667 22.7545 6.76256 22.6647 6.74585 22.5746C6.72932 22.4845 6.71061 22.4149 6.68975 22.3658C6.66894 22.3167 6.63356 22.243 6.58358 22.1447C6.5336 22.0466 6.50036 21.9727 6.4837 21.9239C6.33397 21.58 6.31312 21.3465 6.4213 21.2239C6.49612 21.1175 6.6751 21.0766 6.95807 21.1013C7.38254 21.1422 7.72791 21.0807 7.9943 20.917C8.4353 20.6469 8.56863 20.2132 8.39376 19.6156C8.39376 19.8938 8.34378 20.1023 8.2439 20.2417C8.14403 20.3807 7.96916 20.524 7.71956 20.6715C7.57814 20.7533 7.32832 20.8023 6.97053 20.819C6.6127 20.8353 6.37539 20.8927 6.25889 20.9908C6.17572 21.0645 6.13208 21.175 6.12788 21.3223C6.12377 21.4699 6.14262 21.619 6.18416 21.7705C6.2257 21.9219 6.26738 22.0957 6.30892 22.2922C6.35059 22.4887 6.36712 22.6526 6.3589 22.7833C6.35059 22.8733 6.27547 23.0965 6.13405 23.4521C5.99263 23.8082 5.96351 24.0804 6.04672 24.2685C6.0884 24.3587 6.15902 24.4386 6.25894 24.508C6.35877 24.5776 6.49818 24.6369 6.67711 24.6863C6.85592 24.7354 7.02038 24.7742 7.17028 24.8028C7.32001 24.8312 7.52807 24.8682 7.79438 24.913C8.06073 24.9578 8.27294 24.997 8.43111 25.0295C8.96381 25.136 9.57133 25.312 10.2539 25.5574C10.9364 25.803 11.3982 25.9297 11.6396 25.9378C11.8727 25.9459 12.0952 25.899 12.3076 25.7966C12.5198 25.6945 12.7008 25.5778 12.8506 25.4468C13.0003 25.3158 13.223 25.193 13.5184 25.0785C13.814 24.9639 14.1448 24.9025 14.5111 24.8943C14.6775 24.8862 14.9189 24.8759 15.2351 24.8637C15.5514 24.8513 15.7886 24.8453 15.9467 24.8453C16.6625 24.8453 17.2034 24.8493 17.5696 24.8575C17.8194 24.8659 18.015 24.9046 18.1565 24.9742C18.2979 25.0436 18.3897 25.1235 18.4311 25.2134C18.4727 25.3037 18.5417 25.4078 18.6375 25.5266C18.733 25.6451 18.8557 25.7414 19.0053 25.8149C19.3215 25.9624 19.692 26.0217 20.1166 25.993C20.541 25.9644 20.8241 25.8846 20.9655 25.7536C21.1985 25.5327 21.5126 25.2707 21.908 24.968C22.3034 24.6654 22.6595 24.4361 22.9756 24.2806C23.042 24.2476 23.1544 24.1945 23.3126 24.1207C23.4706 24.0471 23.6036 23.9838 23.7118 23.9304C23.82 23.8771 23.9513 23.8095 24.1049 23.7278C24.259 23.6458 24.3839 23.5702 24.4796 23.5006C24.5754 23.4309 24.673 23.3513 24.7729 23.2611C24.8728 23.1712 24.9373 23.0812 24.9666 22.9912C24.9953 22.9011 25.0061 22.809 24.9977 22.7149C24.9892 22.621 24.9395 22.523 24.8477 22.4205ZM18.1562 10.5557C18.181 10.5395 18.1978 10.5333 18.206 10.5373C18.2144 10.5414 18.2311 10.5579 18.2559 10.5865C18.281 10.6151 18.3036 10.6418 18.3247 10.6663C18.3454 10.6907 18.3744 10.7236 18.4118 10.7644C18.4492 10.8054 18.4888 10.8381 18.5302 10.8626C18.5804 10.8953 18.6406 10.918 18.7114 10.9302C18.7822 10.9424 18.8363 10.9629 18.874 10.9914C18.9116 11.02 18.9386 11.0671 18.9549 11.1326C18.9714 11.2228 18.9575 11.3044 18.9117 11.3781C18.8656 11.4518 18.8054 11.4846 18.7304 11.4764C18.5805 11.4436 18.4182 11.3148 18.2435 11.0897C18.069 10.8646 18.0397 10.6867 18.1562 10.5557ZM16.608 5.78672C16.6494 5.73353 16.6745 5.69058 16.6827 5.6579C16.6993 5.60863 16.7014 5.55754 16.689 5.50436C16.6766 5.45117 16.6806 5.39798 16.7014 5.34479C16.7223 5.2916 16.7702 5.2609 16.8452 5.25274C16.92 5.25274 17.02 5.31418 17.1448 5.43689C17.1696 5.45332 17.2092 5.47787 17.263 5.51055C17.3172 5.54331 17.3546 5.57191 17.3754 5.59642C17.3962 5.62084 17.4065 5.64152 17.4065 5.65777C17.3899 5.69862 17.3525 5.72751 17.2944 5.74377C17.2364 5.76002 17.1737 5.76836 17.1072 5.76836C17.0408 5.76836 17.0031 5.7724 16.9949 5.78057C16.9283 5.80517 16.8659 5.84193 16.8075 5.89099C16.7493 5.94014 16.7035 5.97694 16.6703 6.00149C16.6368 6.026 16.6036 6.026 16.5703 6.00149C16.5371 5.95235 16.5246 5.91756 16.5329 5.89718C16.5414 5.8768 16.5664 5.83991 16.608 5.78672ZM10.5655 14.9753C10.6236 14.9099 10.6653 14.8568 10.6903 14.8158C10.7152 14.7748 10.738 14.7195 10.7589 14.6501C10.7797 14.5804 10.7984 14.5292 10.8151 14.4965C10.8318 14.4636 10.8569 14.4514 10.8901 14.4596C10.9066 14.4555 10.919 14.4636 10.9277 14.4841L10.9401 14.5149V14.5517C10.9401 14.5641 10.9379 14.5804 10.9338 14.6009C10.9296 14.6215 10.9233 14.6399 10.9151 14.6561C10.9066 14.6726 10.8984 14.6972 10.8901 14.7298C10.8818 14.7625 10.8736 14.7912 10.8651 14.8157C10.8318 14.8977 10.7797 14.9712 10.7091 15.0367C10.6383 15.1022 10.5862 15.1309 10.5529 15.1227C10.503 15.1064 10.5073 15.0571 10.5655 14.9753ZM18.7301 22.5495C18.7135 22.8113 18.6572 23.1797 18.5615 23.6544C18.4657 24.129 18.4053 24.4441 18.3802 24.5995C18.2054 24.5911 18.1056 24.5277 18.0806 24.4091C18.0558 24.2903 18.0806 24.137 18.1556 23.9487C18.3386 23.4002 18.4341 23.0238 18.4426 22.8193C18.4595 22.4428 18.4178 22.23 18.3181 22.181C18.2262 22.1156 18.0848 22.2384 17.8934 22.5491C17.5269 23.1385 16.7905 23.4942 15.6836 23.6173C14.685 23.7483 13.9942 23.601 13.6112 23.1751C13.528 23.1179 13.4448 23.1077 13.3616 23.1447C13.2784 23.1812 13.2243 23.2203 13.1993 23.2609C13.1911 23.2774 13.1993 23.3018 13.2243 23.3346C13.2493 23.3675 13.2888 23.4164 13.3429 23.4819C13.397 23.5477 13.4407 23.6129 13.4739 23.6786C13.7986 24.235 13.7696 24.6114 13.3866 24.8078C13.3866 24.4316 13.3575 24.1431 13.2993 23.9427C13.241 23.7421 13.1246 23.5212 12.9497 23.2796C12.775 23.0383 12.6543 22.8561 12.5878 22.7334C12.8374 22.709 13.0268 22.6148 13.1558 22.4511C13.2848 22.2874 13.343 22.1115 13.3306 21.9233C13.3181 21.7349 13.2454 21.5794 13.1122 21.4567C13.0372 21.3831 12.6501 21.07 11.951 20.5176C11.252 19.9652 10.8191 19.5948 10.6527 19.4066C10.6193 19.3738 10.5195 19.292 10.353 19.161C10.1865 19.0301 10.0824 18.9156 10.0408 18.8173C9.65791 17.9911 9.61637 17.3115 9.91595 16.7798L9.96585 16.7184C10.0074 16.7103 10.0116 16.7839 9.97826 16.9395C9.92837 17.1687 9.9118 17.3977 9.92837 17.6269C9.9616 18.1426 10.1115 18.5272 10.3778 18.7807C10.5526 18.9528 10.6732 18.9405 10.7399 18.744C10.7899 18.6784 10.8127 18.437 10.8085 18.0194C10.8045 17.6023 10.8107 17.3199 10.8273 17.1725C10.894 16.706 11.0917 16.1289 11.4204 15.4418C11.7491 14.7542 12.0093 14.3859 12.2007 14.3369C12.0509 14.0995 12.003 13.8417 12.0572 13.5634C12.1112 13.2851 12.1987 13.0477 12.3193 12.8514C12.4399 12.655 12.5628 12.428 12.6875 12.1701C12.8124 11.9123 12.8748 11.6811 12.8748 11.4765C12.8748 11.4193 12.8791 11.3783 12.8874 11.3538C12.9123 11.2801 13.0164 11.3701 13.1995 11.6238C13.549 12.1313 13.8112 12.4301 13.9861 12.5201C14.1692 12.6181 14.373 12.6141 14.5977 12.5077C14.8224 12.4013 15.0991 12.2253 15.428 11.9799C15.7566 11.7344 16.0375 11.5543 16.2706 11.4399C16.2958 11.4316 16.3352 11.4132 16.3895 11.3845C16.4433 11.3561 16.4849 11.3355 16.514 11.3231C16.5429 11.3109 16.5804 11.2925 16.6264 11.2679C16.6718 11.2434 16.7072 11.2229 16.7322 11.2065C16.7571 11.19 16.7822 11.1716 16.807 11.1511C16.8318 11.1306 16.8484 11.1103 16.857 11.0898C16.8653 11.0693 16.8695 11.051 16.8695 11.0345C16.8528 10.9608 16.8175 10.9158 16.7633 10.8995C16.7091 10.8832 16.6364 10.8933 16.5448 10.9303C16.4532 10.9671 16.3512 11.0163 16.2389 11.0776C16.1267 11.1389 16.0019 11.2085 15.8645 11.2863C15.7273 11.3641 15.5878 11.4356 15.4464 11.5011C15.305 11.5667 15.1551 11.6239 14.9969 11.6731C14.8388 11.7221 14.689 11.7509 14.5475 11.759C14.1979 11.7673 13.9192 11.6774 13.7111 11.489C13.578 11.3661 13.5073 11.2884 13.4989 11.2557C13.4905 11.2231 13.528 11.2149 13.6112 11.2312C14.0608 11.2885 14.3895 11.2966 14.5976 11.2557C14.8139 11.2231 15.1052 11.1289 15.4715 10.9733C15.5465 10.9407 15.7356 10.8608 16.0397 10.7339C16.3433 10.6073 16.5786 10.5192 16.745 10.4701C16.8451 10.4455 16.9138 10.4067 16.9512 10.3535C16.9885 10.3003 17.0011 10.2512 16.9885 10.2061C16.9761 10.1612 16.949 10.1264 16.9075 10.1019C16.8157 10.0527 16.7326 10.0855 16.6579 10.2001C16.6162 10.2737 16.5286 10.3455 16.3956 10.4149C16.2625 10.4846 16.1396 10.5377 16.0273 10.5745C15.9149 10.6113 15.7714 10.6543 15.5965 10.7033C15.4216 10.7525 15.3261 10.7811 15.3093 10.7893C14.8516 10.9283 14.4272 10.9898 14.0359 10.9733C13.8528 10.9653 13.7051 10.9386 13.5928 10.8935C13.4804 10.8487 13.4033 10.7955 13.3618 10.734C13.3202 10.6727 13.2537 10.5949 13.1621 10.5008C13.0704 10.4066 12.9664 10.3268 12.8499 10.2613C12.7667 10.2204 12.7354 10.1468 12.7563 10.0404C12.7771 9.93401 12.8416 9.82342 12.9498 9.70887C12.9581 9.70062 13.0435 9.64958 13.2057 9.55541C13.368 9.46125 13.4824 9.36506 13.5491 9.26686C13.6239 9.15231 13.753 9.03355 13.936 8.91075C13.9444 8.87807 13.9506 8.78808 13.9548 8.64077C13.9589 8.49355 13.9194 8.33394 13.8362 8.16208C13.753 7.99013 13.6405 7.90431 13.499 7.90431C13.2992 7.89614 13.1578 7.95337 13.0745 8.07617C12.9913 8.1988 12.954 8.35028 12.9623 8.53031C12.9707 8.68575 13.0102 8.82274 13.0808 8.94149C13.1516 9.06025 13.2162 9.11963 13.2744 9.11963C13.3659 9.11133 13.395 9.14397 13.3618 9.21771C13.3119 9.30783 13.2452 9.36524 13.162 9.38966C13.1036 9.40591 13.039 9.35075 12.9684 9.2239C12.8976 9.09706 12.8436 8.94369 12.8061 8.76357C12.7688 8.58354 12.7541 8.43215 12.7625 8.30926C12.779 8.05557 12.8476 7.81208 12.9684 7.57882C13.0892 7.3456 13.2619 7.23303 13.4865 7.24111C13.7196 7.24941 13.907 7.38864 14.0484 7.65862C14.1901 7.92864 14.2566 8.29709 14.2483 8.76353C14.2733 8.82084 14.3377 8.84131 14.4419 8.82489C14.5457 8.80846 14.6831 8.80635 14.8537 8.81869C15.0242 8.8309 15.147 8.87382 15.2219 8.94751C15.2304 8.94751 15.2345 8.88603 15.2345 8.76336C15.0847 7.73232 15.455 7.18397 16.3457 7.11844C16.4786 7.14304 16.5909 7.17378 16.6824 7.2105C16.7742 7.24726 16.8717 7.30879 16.9758 7.39466C17.0801 7.48052 17.1672 7.6053 17.238 7.76908C17.3088 7.93294 17.365 8.13753 17.4066 8.38296V8.8371C17.4066 9.09895 17.3523 9.2463 17.2441 9.27907C17.0695 9.3363 16.9448 9.33432 16.87 9.27288C16.795 9.21139 16.8031 9.10308 16.8948 8.94756C16.978 8.74298 16.9614 8.50546 16.8448 8.23543C16.7284 7.96545 16.516 7.84265 16.2082 7.86724C16 7.87546 15.8502 7.98596 15.7586 8.19867C15.6671 8.41146 15.6339 8.62017 15.6589 8.8248C15.6838 9.02938 15.7295 9.13576 15.7963 9.14388C15.8461 9.15218 15.994 9.21758 16.2395 9.34038C16.4854 9.46314 16.6705 9.53675 16.7951 9.5613C17.1197 9.62666 17.3047 9.72899 17.3506 9.86818C17.3964 10.0074 17.3777 10.2099 17.2945 10.4759C17.2112 10.742 17.1863 10.9607 17.2198 11.1326C17.2531 11.3129 17.3156 11.4764 17.4072 11.6237C17.4988 11.7711 17.5963 11.906 17.7005 12.0289C17.8045 12.1514 17.9271 12.3807 18.0689 12.7162C18.2102 13.0518 18.3392 13.4733 18.4556 13.9807C18.4638 13.9888 18.495 14.0175 18.5492 14.0666C18.6033 14.1157 18.6572 14.177 18.7115 14.2507C18.7659 14.3244 18.8302 14.4246 18.9052 14.5515C18.98 14.6784 19.0614 14.8646 19.1488 15.1102C19.2359 15.3556 19.3173 15.6381 19.3921 15.9571C19.4837 16.3338 19.5315 16.7713 19.5357 17.2709C19.54 17.77 19.5732 18.1117 19.6357 18.2959C19.6983 18.4802 19.8584 18.5559 20.1164 18.5231C20.441 18.5067 20.6493 18.3349 20.7404 18.0075C21.0152 17.0581 20.7907 15.9204 20.0664 14.5948C19.7917 14.0791 19.5546 13.7395 19.3547 13.5759C19.6459 13.7395 19.9457 14.0463 20.2538 14.4966C20.5618 14.9467 20.7572 15.3683 20.8404 15.7609C20.8485 15.802 20.8716 15.9105 20.9089 16.0862C20.9463 16.2622 20.9673 16.3646 20.9712 16.3932C20.9752 16.4219 20.9922 16.5058 21.0211 16.6449C21.0504 16.784 21.0648 16.8741 21.0648 16.915C21.0648 16.956 21.0688 17.0358 21.0773 17.1544C21.0858 17.273 21.0836 17.3651 21.071 17.4305C21.0585 17.4962 21.0462 17.5842 21.0336 17.6944C21.0211 17.8049 21.0004 17.9113 20.9712 18.0137C20.9425 18.116 20.9112 18.2287 20.8778 18.3513C21.3354 18.5477 21.5644 18.7194 21.5644 18.8669C21.3897 18.7277 21.1398 18.6357 20.8151 18.5911C20.4903 18.5459 20.189 18.5889 19.9101 18.7199C19.6311 18.8508 19.4875 19.0676 19.4791 19.3702C19.1795 19.3702 18.9671 19.4438 18.8425 19.5914C18.6594 19.8041 18.5638 20.0924 18.5555 20.4568C18.5471 20.8208 18.5781 21.2179 18.6488 21.6473C18.7199 22.0769 18.7469 22.3775 18.7301 22.5495ZM13.4992 8.32147C13.4742 8.31339 13.4535 8.28866 13.4369 8.24782C13.4369 8.17433 13.4743 8.14548 13.5492 8.16195C13.5992 8.1782 13.6472 8.23965 13.6928 8.34602C13.7386 8.4524 13.749 8.5752 13.7241 8.71434C13.7241 8.73889 13.7117 8.75127 13.6865 8.75106C13.5949 8.75106 13.5616 8.66928 13.5867 8.50563C13.6115 8.38287 13.5824 8.32147 13.4992 8.32147ZM16.7328 8.51801L16.708 8.55477C16.6415 8.59562 16.6085 8.60384 16.6085 8.57937C16.5749 8.35828 16.5001 8.23143 16.3837 8.19867L16.3337 8.17416C16.2753 8.12501 16.3043 8.09638 16.4207 8.08821C16.4457 8.08 16.4831 8.09221 16.5331 8.12497C16.5831 8.15778 16.6289 8.20895 16.6705 8.27852C16.712 8.34817 16.7328 8.42785 16.7328 8.51801ZM13.8238 9.22979C13.8238 9.27894 13.8447 9.29941 13.8864 9.29128C13.9196 9.29128 13.9548 9.25237 13.9924 9.17463C14.0298 9.09706 14.0944 9.0541 14.1859 9.04581L14.061 9.04568C13.9029 9.07023 13.8238 9.13159 13.8238 9.22979ZM15.1287 9.13795C15.0663 9.07659 14.9933 9.05802 14.9101 9.08261C15.1099 8.99262 15.243 9.00079 15.3096 9.10721C15.3346 9.15627 15.322 9.1932 15.2723 9.21762C15.2389 9.22592 15.191 9.19922 15.1287 9.13795Z" fill="white"/>
</svg>
