<svg width="81" height="81" viewBox="0 0 81 81" fill="none" xmlns="http://www.w3.org/2000/svg">
<g clip-path="url(#clip0_682_20675)">
<path fill-rule="evenodd" clip-rule="evenodd" d="M38.1247 0.90957C25.5092 2.09174 14.8712 8.40657 7.98329 18.8019C4.60606 23.8989 2.24113 30.7112 1.66376 37.0048C1.44432 39.3981 1.56611 44.169 1.90112 46.2903C2.98313 53.1453 5.39452 58.9797 9.34654 64.3054C15.8015 73.0038 24.9694 78.4282 35.9227 80.0296C38.3726 80.388 44.0267 80.3896 46.3716 80.0327C52.728 79.0656 58.1771 76.9806 63.1818 73.6005C76.5326 64.5839 83.1124 48.5271 79.9415 32.7025C76.611 16.0826 62.9937 3.37606 46.0974 1.12192C44.8058 0.949509 39.2707 0.8021 38.1247 0.90957ZM45.5899 7.00214C59.1109 8.75476 70.4109 18.8067 73.83 32.1227C74.7165 35.576 75.0904 40.3883 74.7381 43.812C73.9054 51.9014 70.5123 59.0675 64.8536 64.6864C60.238 69.2697 54.4345 72.4269 48.2235 73.7332C45.7146 74.2608 43.8703 74.4426 41.0239 74.4426C31.755 74.4426 23.3033 70.8275 16.8216 64.0905C11.7741 58.8443 8.71009 52.5255 7.65329 45.183C7.31343 42.821 7.31343 38.3807 7.65329 36.0188C8.19847 32.2312 9.14791 29.1129 10.7834 25.738C15.7186 15.5547 25.3557 8.55841 36.6062 6.99147C38.6818 6.70245 43.3203 6.70794 45.5899 7.00214ZM37.5932 7.47136C27.4462 8.73523 19.0614 13.8649 13.4995 22.2112C10.7772 26.2964 9.05938 30.8112 8.27121 35.9515C7.92072 38.2371 7.92072 42.9646 8.27121 45.2503C9.39802 52.5991 12.544 58.9271 17.6224 64.0588C22.547 69.0355 28.5712 72.1666 35.695 73.4528C37.9216 73.8547 42.7301 73.9333 45.2696 73.6092C59.8052 71.7544 71.2338 60.7663 73.8342 46.1455C74.1329 44.4659 74.1831 43.6673 74.1831 40.6009C74.1831 36.6524 73.9436 34.7403 73.0471 31.5357C69.4507 18.6789 58.3 9.14576 44.9625 7.52532C43.7681 7.3802 38.6274 7.34255 37.5932 7.47136ZM42.6667 11.0404C43.2601 11.3837 43.8476 11.8111 43.9723 11.9899C44.2358 12.3673 44.2944 14.8324 44.0509 15.2892C43.84 15.6845 41.5936 16.9727 41.1151 16.9727C40.7173 16.9727 38.454 15.7305 38.2409 15.3952C38.0456 15.0876 38.1069 12.1764 38.3146 11.9022C38.6576 11.4493 40.9092 10.254 41.2612 10.338C41.4409 10.381 42.0734 10.697 42.6667 11.0404ZM40.2054 12.0098C39.888 12.1988 39.5552 12.4269 39.4661 12.5163C39.3374 12.6457 39.2695 13.7259 39.3307 14.6715C39.3406 14.8224 40.9123 15.7532 41.1574 15.7532C41.3717 15.7532 42.8325 14.8358 42.8325 14.7012C42.8325 14.64 42.6073 14.4823 42.3323 14.3506C41.9061 14.1467 41.7745 14.1414 41.4443 14.315C41.1148 14.4883 41.0077 14.4844 40.7297 14.289C40.2611 13.9596 40.2905 13.2619 40.7824 13.037C41.0956 12.8936 41.162 12.7563 41.162 12.2502C41.162 11.5424 41.0408 11.5119 40.2054 12.0098ZM42.8424 19.5695C43.1068 19.7115 43.1362 19.9032 43.1362 21.4819C43.1362 23.1283 43.1139 23.259 42.7735 23.6006C42.1119 24.2648 40.8519 24.2925 40.261 23.656C39.6155 22.9605 39.8077 21.0325 40.5629 20.6268C40.9225 20.4335 41.5618 20.4381 41.9313 20.6366C42.2016 20.7819 42.225 20.7393 42.225 20.103C42.225 19.3893 42.3332 19.2959 42.8424 19.5695ZM50.7292 20.7074L50.8051 21.7745L51.324 21.1267C51.7473 20.5983 51.9364 20.4787 52.3491 20.4787C52.6274 20.4787 52.8552 20.5339 52.8552 20.6013C52.8552 20.6687 52.6161 20.9565 52.3237 21.241C52.0314 21.5254 51.7922 21.8189 51.7922 21.8931C51.7922 21.9674 52.0314 22.4378 52.3237 22.9384C52.6161 23.4392 52.8552 23.8794 52.8552 23.9169C52.8552 23.9542 52.6212 23.9849 52.3351 23.9849C51.8823 23.9849 51.7693 23.9026 51.4619 23.3482C50.9618 22.4465 50.7292 22.4268 50.7292 23.2862C50.7292 23.961 50.7135 23.9849 50.2736 23.9849H49.818V21.7644V19.5438L50.2356 19.5922C50.6384 19.6386 50.656 19.6784 50.7292 20.7074ZM53.7784 20.0596C53.788 20.212 53.8057 20.212 53.8669 20.0596C53.9848 19.7664 54.222 19.8338 54.222 20.1605C54.222 20.478 53.7512 20.5094 53.6481 20.1987C53.5598 19.9324 53.3406 19.9855 53.2779 20.2882C53.2329 20.5051 53.2051 20.4909 53.1291 20.212C53.0508 19.9253 53.0955 19.869 53.401 19.869C53.6019 19.869 53.7719 19.9548 53.7784 20.0596ZM30.4279 20.6561C30.7696 20.8388 31.1259 21.2298 31.1343 21.4315C31.1416 21.6036 30.1083 21.5689 30.0002 21.3934C29.8259 21.1102 29.3255 21.2386 29.0682 21.6324C28.8686 21.9383 28.8429 22.1433 28.9509 22.5703C29.1435 23.332 29.4998 23.5239 30.0913 23.1846C31.0399 22.6403 31.4917 22.9896 30.7472 23.6916C30.2397 24.1701 29.06 24.2128 28.5729 23.7701C27.8146 23.0814 27.862 21.4201 28.6576 20.7918C29.0985 20.4437 29.9137 20.3812 30.4279 20.6561ZM33.2652 21.0123C33.2652 21.4777 33.2174 21.5459 32.8908 21.5459C32.3768 21.5459 32.2022 21.9517 32.2022 23.1466V24.1576L31.7845 24.1093L31.3669 24.0612L31.3717 22.8277C31.3772 21.395 31.6219 20.8725 32.3927 20.6491C33.2033 20.4142 33.2652 20.4399 33.2652 21.0123ZM35.734 20.6421C36.8478 21.1515 36.8218 23.3611 35.695 23.9506C35.1932 24.2133 34.2084 24.0849 33.833 23.7079C33.4688 23.3423 33.2856 22.4183 33.4347 21.7008C33.6441 20.6936 34.7417 20.1882 35.734 20.6421ZM39.6434 20.9102C39.6434 21.2198 39.4042 21.6067 38.7954 22.2821L37.9474 23.2227H38.8713C39.7556 23.2227 39.7952 23.239 39.7952 23.6038V23.9849H38.2767C36.8315 23.9849 36.758 23.9693 36.758 23.6623C36.758 23.4837 37.1717 22.8715 37.6848 22.2904L38.6116 21.241H37.842C37.246 21.241 37.0382 21.1768 36.9205 20.9561C36.837 20.7995 36.8119 20.628 36.8646 20.575C36.9173 20.5221 37.5641 20.4787 38.3019 20.4787H39.6434V20.9102ZM45.7405 20.6434C46.0721 20.8215 46.4771 21.6505 46.4771 22.1507C46.4771 22.4345 46.3819 22.4605 45.3382 22.4605C44.1265 22.4605 43.9225 22.6182 44.4496 23.1473C44.7057 23.4044 44.8233 23.3953 45.674 23.0521C45.9422 22.9439 46.2048 22.8986 46.2574 22.9513C46.4494 23.1439 46.1408 23.6892 45.7146 23.9103C45.1541 24.2012 44.6054 24.1983 44.0332 23.9014C43.4849 23.6166 43.288 23.15 43.288 22.1339C43.288 21.4928 43.3594 21.2983 43.7319 20.9243C44.0797 20.5753 44.312 20.4787 44.805 20.4787C45.1509 20.4787 45.572 20.5529 45.7405 20.6434ZM49.1415 20.853C49.3465 21.0588 49.5143 21.2988 49.5143 21.3865C49.5143 21.6251 48.7938 21.5785 48.3915 21.3137C48.0192 21.069 47.4887 21.1586 47.5827 21.4503C47.613 21.5448 48.0303 21.7483 48.5097 21.9026C49.1148 22.0972 49.4308 22.2919 49.543 22.5391C49.92 23.3695 49.2129 24.1373 48.0716 24.1373C47.5035 24.1373 46.6289 23.7729 46.6289 23.5361C46.6289 23.4613 46.5875 23.2916 46.5368 23.159C46.4129 22.8347 47.2735 22.824 47.5401 23.1464C47.7881 23.4463 48.545 23.4425 48.6603 23.1407C48.7096 23.0117 48.6655 22.8798 48.5626 22.8474C48.4597 22.8151 48.102 22.7061 47.7679 22.6053C46.964 22.3627 46.6289 22.0474 46.6289 21.5334C46.6289 20.5449 48.3661 20.0745 49.1415 20.853ZM34.4639 21.4893C34.2113 21.7948 34.2209 22.8331 34.4792 23.1454C34.9413 23.7045 35.695 23.1317 35.695 22.2214C35.695 21.4217 34.9072 20.953 34.4639 21.4893ZM40.919 21.6239C40.507 22.2551 40.8616 23.3751 41.4734 23.3751C41.9193 23.3751 42.225 22.9409 42.225 22.3081C42.225 21.2989 41.4098 20.8719 40.919 21.6239ZM44.3815 21.4239C44.0264 21.7803 44.1802 22.0032 44.7813 22.0032C45.4774 22.0032 45.6054 21.9048 45.4034 21.5259C45.2322 21.2047 44.6569 21.1473 44.3815 21.4239ZM43.4445 31.1877C44.1816 31.5614 44.8067 32.3588 44.8067 32.9252C44.8067 33.2618 44.7508 33.2838 43.8955 33.2838C43.2073 33.2838 42.9843 33.2305 42.9843 33.0662C42.9843 32.7576 42.2503 32.2167 41.8319 32.2167C40.9456 32.2167 40.2706 32.9853 40.7004 33.5052C40.7995 33.6251 41.3709 33.907 41.9703 34.1318C44.3401 35.0207 44.8925 35.5943 44.7731 37.041C44.6614 38.3935 43.7111 39.067 41.9059 39.0731C40.7598 39.0769 40.0818 38.8864 39.3795 38.3632C38.8248 37.9498 38.6624 37.6914 38.5103 36.9805L38.4044 36.485H39.3356C40.2384 36.485 40.2716 36.4992 40.4292 36.9532C40.7966 38.0111 42.9843 37.9384 42.9843 36.8683C42.9843 36.3336 42.6948 36.1237 41.1021 35.5043C39.3033 34.8047 38.7322 34.2464 38.7322 33.1875C38.7322 32.802 38.8493 32.2934 38.995 32.0457C39.6552 30.9238 42.0237 30.4671 43.4445 31.1877ZM22.1794 31.6831V32.3691H20.8885H19.5978V35.7228V39.0765H18.6865H17.7754V35.7228V32.3691H16.4846H15.1938V31.6831V30.9971H18.6865H22.1794V31.6831ZM28.1777 31.3019C29.5837 31.9852 29.7383 34.4598 28.4017 34.8855C28.0158 35.0086 28.0184 35.2183 28.4073 35.3421C28.8558 35.4851 29.1484 36.1737 29.2948 37.4304C29.3662 38.0423 29.4759 38.6629 29.5387 38.8097C29.6403 39.0469 29.5521 39.0765 28.7442 39.0765C28.1375 39.0765 27.775 39.0033 27.6535 38.8565C27.5534 38.7355 27.4222 38.1182 27.3619 37.4848C27.3018 36.8516 27.1684 36.2491 27.0658 36.1461C26.9627 36.0426 26.4901 35.9571 26.0099 35.9551L25.1406 35.9515L25.0974 37.5139L25.0541 39.0765H24.1483H23.2425V35.0369V30.9971H25.3964C27.2399 30.9971 27.6409 31.041 28.1777 31.3019ZM32.535 33.9659C32.58 36.8208 32.5951 36.9478 32.9278 37.2815C33.4305 37.7854 34.6899 37.778 35.1009 37.2684C35.3646 36.9417 35.3912 36.6359 35.3912 33.9528V30.9971H36.3919H37.3924L37.3392 34.084C37.2788 37.5897 37.2054 37.8603 36.122 38.58C35.6114 38.9192 35.2829 39.0076 34.3586 39.0544C33.0362 39.1214 32.255 38.9248 31.5809 38.3554C30.765 37.6663 30.6836 37.2687 30.6836 33.9746V30.9971H31.5858H32.4879L32.535 33.9659ZM52.5515 31.6831V32.3691H51.2608H49.9699V35.7228V39.0765H49.0588H48.1476V35.7228V32.3691H46.8568H45.5659V31.6831V30.9971H49.0588H52.5515V31.6831ZM59.2334 31.6831V32.3691H57.3351H55.4369V33.2075V34.046H57.0314H58.626V34.8081V35.5703H57.0314H55.4369V36.5612V37.552H57.3435H59.2501L59.2038 38.2761L59.1574 39.0002L56.386 39.0419L53.6146 39.0833V35.0403V30.9971H56.424H59.2334V31.6831ZM64.6245 31.2862C66.0048 31.9276 66.5243 32.9441 66.5194 34.9938C66.5154 36.6447 66.26 37.3691 65.4207 38.1089C64.6276 38.8079 63.9426 38.983 61.9669 38.9922L60.2205 39.0002L60.1799 34.9987L60.1395 30.9971L62.0782 31.0005C63.6404 31.0032 64.135 31.0587 64.6245 31.2862ZM25.0647 33.4362V34.5033H25.9068C26.5986 34.5033 26.8157 34.4364 27.1217 34.1291C27.3267 33.9233 27.4945 33.6115 27.4945 33.4362C27.4945 33.2609 27.3267 32.9492 27.1217 32.7434C26.8157 32.4361 26.5986 32.3691 25.9068 32.3691H25.0647V33.4362ZM62.1188 34.9606V37.552H62.7338C64.1241 37.552 64.7004 36.7895 64.7004 34.9504C64.7004 33.1409 64.0888 32.3691 62.6552 32.3691H62.1188V34.9606ZM54.1173 43.2912C54.4672 43.5378 54.9243 44.0451 55.1331 44.4186C55.4771 45.0342 55.5127 45.2624 55.5114 46.8509C55.5102 48.3624 55.464 48.6905 55.1765 49.2327C54.4942 50.5181 53.4661 51.0359 51.7849 50.9404C50.516 50.8685 49.6539 50.3415 49.1084 49.3042C48.7992 48.7162 48.755 48.4184 48.755 46.9206C48.755 45.3444 48.7885 45.1447 49.1777 44.3964C49.5219 43.7354 49.7554 43.5021 50.4306 43.145C51.1794 42.7487 51.3693 42.7125 52.3709 42.7744C53.2896 42.831 53.5911 42.9202 54.1173 43.2912ZM21.1929 45.6695C21.5964 47.1997 21.9716 48.542 22.0267 48.6525C22.082 48.7629 22.491 47.5112 22.9358 45.8704L23.7446 42.8874H24.7187C25.6595 42.8874 25.6891 42.899 25.5844 43.2305C25.525 43.4192 24.9358 45.2401 24.2754 47.2769L23.0745 50.9804L22.0819 50.9354L21.0895 50.8906L19.812 46.9278C19.1095 44.7484 18.5347 42.9475 18.5347 42.9262C18.5347 42.9048 18.9677 42.8874 19.4971 42.8874H20.4593L21.1929 45.6695ZM32.0504 43.5735V44.2595H30.228H28.4057V45.0925V45.9256L29.9623 45.9691L31.5188 46.0125L31.5652 46.7366L31.6115 47.4607H30.0086H28.4057V48.4516V49.4424H30.228H32.0504V50.2081V50.9736L29.2788 50.9322L26.5074 50.8906L26.4669 46.889L26.4265 42.8874H29.2383H32.0504V43.5735ZM36.4583 45.4023L37.8969 47.9171L37.9386 45.4023L37.9802 42.8874H38.8877H39.7952V46.9344V50.9813L38.8682 50.936L37.9415 50.8906L36.5788 48.5277C35.8293 47.2282 35.153 46.0997 35.0759 46.0201C34.9901 45.9314 34.9357 46.8622 34.9357 48.421V50.9668H34.0246H33.1133V46.9272V42.8874H34.0664H35.0196L36.4583 45.4023ZM45.6432 43.1717C46.4035 43.5185 47.1686 44.3783 47.3966 45.1417C47.4962 45.4756 47.5478 46.3825 47.5173 47.2659C47.4683 48.6898 47.4294 48.8568 47.0087 49.457C46.2631 50.5203 45.4101 50.8496 43.1769 50.9359L41.3138 51.008V46.9478V42.8874L43.1741 42.8908C44.6442 42.8934 45.1622 42.9524 45.6432 43.1717ZM61.7671 43.1837C62.5416 43.5367 62.8781 44.131 62.8781 45.1459C62.8781 45.9532 62.5148 46.6001 61.963 46.776C61.5574 46.9052 61.586 47.0717 62.0507 47.2842C62.5545 47.5145 62.8781 48.3139 62.8781 49.3273C62.8781 49.7915 62.973 50.2728 63.1006 50.4555C63.4035 50.8898 63.2755 50.9668 62.2508 50.9668C61.1961 50.9668 61.1298 50.8813 61.0147 49.3721C60.9119 48.0253 60.6225 47.7293 59.4736 47.7967L58.7019 47.8418L58.6586 49.4043L58.6153 50.9668H57.7095H56.8036V46.9272V42.8874L58.9676 42.8908C60.7643 42.8935 61.2394 42.9432 61.7671 43.1837ZM51.5274 44.2639C50.8507 44.5369 50.5785 45.2698 50.5779 46.8205C50.5773 48.3406 50.7609 48.929 51.3696 49.3569C52.0238 49.817 53.0942 49.5076 53.4331 48.7607C53.5353 48.5356 53.6146 47.6921 53.6146 46.8291C53.6146 45.0905 53.4027 44.527 52.6506 44.2639C52.1245 44.0797 51.9836 44.0797 51.5274 44.2639ZM43.1362 46.8509V49.4424H43.7512C44.5401 49.4424 45.1959 49.0988 45.4874 48.5328C45.7892 47.947 45.794 45.9574 45.4955 45.24C45.244 44.6356 44.5444 44.2595 43.6725 44.2595H43.1362V46.8509ZM58.626 45.3442V46.4291L59.6314 46.3648C60.7449 46.2937 61.0557 46.0606 61.0557 45.2974C61.0557 44.5804 60.586 44.2595 59.5371 44.2595H58.626V45.3442ZM21.4201 58.5126C21.4201 59.0037 21.4563 59.0461 21.8757 59.0461C22.2951 59.0461 22.3312 59.0037 22.3312 58.5126C22.3312 58.0808 22.3891 57.979 22.6349 57.979C22.9148 57.979 22.9386 58.0808 22.9386 59.2748C22.9386 60.4689 22.9148 60.5705 22.6349 60.5705C22.3891 60.5705 22.3312 60.4689 22.3312 60.037C22.3312 59.5458 22.2951 59.5034 21.8757 59.5034C21.4563 59.5034 21.4201 59.5458 21.4201 60.037C21.4201 60.4689 21.3623 60.5705 21.1164 60.5705C20.8365 60.5705 20.8126 60.4689 20.8126 59.2748C20.8126 58.0808 20.8365 57.979 21.1164 57.979C21.3623 57.979 21.4201 58.0808 21.4201 58.5126ZM24.0017 59.2748C24.0017 60.4689 23.9779 60.5705 23.698 60.5705C23.4181 60.5705 23.3943 60.4689 23.3943 59.2748C23.3943 58.0808 23.4181 57.979 23.698 57.979C23.9779 57.979 24.0017 58.0808 24.0017 59.2748ZM26.1929 58.2185C26.6748 58.7023 26.2952 58.9394 25.6609 58.5507C25.3962 58.3885 25.3175 58.4042 25.1314 58.656C24.8737 59.0052 24.8522 59.4098 25.0701 59.8184C25.2551 60.1656 25.8241 60.2155 25.8241 59.8846C25.8241 59.7588 25.7557 59.6559 25.6722 59.6559C25.5887 59.6559 25.5204 59.553 25.5204 59.4273C25.5204 59.2748 25.6722 59.1985 25.9759 59.1985C26.4042 59.1985 26.4315 59.2343 26.4315 59.792C26.4315 60.4452 26.2745 60.5705 25.4555 60.5705C24.9296 60.5705 24.5636 60.2689 24.3881 59.6907C24.254 59.2494 24.4157 58.4999 24.7083 58.2062C25.0055 57.9079 25.8907 57.9153 26.1929 58.2185ZM27.4945 58.5126C27.4945 59.0037 27.5307 59.0461 27.9501 59.0461C28.3695 59.0461 28.4057 59.0037 28.4057 58.5126C28.4057 58.0808 28.4635 57.979 28.7094 57.979C28.9892 57.979 29.0131 58.0808 29.0131 59.2748C29.0131 60.4689 28.9892 60.5705 28.7094 60.5705C28.4635 60.5705 28.4057 60.4689 28.4057 60.037C28.4057 59.5458 28.3695 59.5034 27.9501 59.5034C27.5307 59.5034 27.4945 59.5458 27.4945 60.037C27.4945 60.4689 27.4366 60.5705 27.1908 60.5705C26.9109 60.5705 26.887 60.4689 26.887 59.2748C26.887 58.0808 26.9109 57.979 27.1908 57.979C27.4366 57.979 27.4945 58.0808 27.4945 58.5126ZM31.4076 58.8556L31.7017 59.7321L31.9795 58.8556C32.2314 58.0619 32.2981 57.979 32.6856 57.979H33.1133V59.2748C33.1133 60.4689 33.0895 60.5705 32.8096 60.5705C32.5455 60.5705 32.5048 60.4663 32.498 59.7702L32.4901 58.9699L32.1836 59.7702C32.0151 60.2103 31.785 60.5705 31.6722 60.5705C31.5595 60.5705 31.3537 60.2275 31.2151 59.8083C31.0764 59.3892 30.9278 59.0461 30.885 59.0461C30.8419 59.0461 30.854 59.3892 30.9114 59.8083C31.008 60.5137 30.992 60.5705 30.6979 60.5705C30.4001 60.5705 30.3799 60.4882 30.3799 59.2748C30.3799 58.0062 30.3876 57.979 30.7469 57.979C31.0583 57.979 31.1583 58.1116 31.4076 58.8556ZM35.2078 59.2662C35.4854 60.1724 35.5703 60.4492 35.4787 60.5336C35.4385 60.5707 35.3642 60.5707 35.2573 60.5706L35.2394 60.5705C35.0707 60.5705 34.9357 60.4689 34.9357 60.3419C34.9357 60.1913 34.7857 60.1132 34.4964 60.1132C34.246 60.1132 34.0194 60.2115 33.9695 60.3419C33.9215 60.4676 33.7474 60.5705 33.5827 60.5705C33.2914 60.5705 33.2933 60.5406 33.6551 59.4653C33.8594 58.8574 34.0602 58.2696 34.1009 58.159C34.1416 58.0483 34.324 57.9797 34.5061 58.0064C34.7734 58.0458 34.9042 58.2751 35.1871 59.1985L35.2078 59.2662ZM37.5825 58.2185C37.8647 58.5019 37.8776 58.655 37.655 59.0725C37.5351 59.2976 37.5351 59.4298 37.655 59.5503C37.7463 59.6419 37.821 59.9089 37.821 60.1437C37.821 60.4689 37.7487 60.5705 37.5173 60.5705C37.2957 60.5705 37.2136 60.4689 37.2136 60.1947C37.2136 59.9794 37.0883 59.7518 36.9199 59.6613C36.486 59.4282 36.4543 59.4537 36.4543 60.037C36.4543 60.4689 36.3965 60.5705 36.1506 60.5705C35.8707 60.5705 35.8468 60.4689 35.8468 59.2748V57.979H36.5954C37.0733 57.979 37.43 58.0656 37.5825 58.2185ZM38.7322 58.4274C38.7322 59.0755 38.9353 59.1049 39.2581 58.5033C39.4596 58.1277 39.6439 57.979 39.9075 57.979H40.2755L39.9595 58.4925C39.5588 59.1433 39.5626 59.2286 40.025 59.9638L40.4065 60.5705H40.0398C39.782 60.5705 39.5805 60.4124 39.3598 60.037C39.1873 59.7435 38.9754 59.5034 38.8893 59.5034C38.8028 59.5034 38.7322 59.7435 38.7322 60.037C38.7322 60.4689 38.6744 60.5705 38.4285 60.5705C38.1486 60.5705 38.1247 60.4689 38.1247 59.2748C38.1247 58.0808 38.1486 57.979 38.4285 57.979C38.6634 57.979 38.7322 58.0808 38.7322 58.4274ZM42.3768 58.2078C42.3768 58.3728 42.2081 58.4364 41.7694 58.4364C41.2633 58.4364 41.162 58.4872 41.162 58.7412C41.162 58.9894 41.2633 59.0461 41.7061 59.0461C42.3923 59.0461 42.34 59.4061 41.6438 59.4749C41.2848 59.5107 41.162 59.5981 41.162 59.818C41.162 60.0607 41.2698 60.1132 41.7694 60.1132C42.2081 60.1132 42.3768 60.1768 42.3768 60.3419C42.3768 60.5198 42.1744 60.5705 41.4657 60.5705H40.5546V59.2748V57.979H41.4657C42.1744 57.979 42.3768 58.0299 42.3768 58.2078ZM44.8067 58.2078C44.8067 58.3602 44.6547 58.4364 44.351 58.4364H43.8955V59.5034C43.8955 60.4689 43.8666 60.5705 43.5917 60.5705C43.3169 60.5705 43.288 60.4689 43.288 59.5034C43.288 58.4669 43.2773 58.4364 42.9084 58.4364C42.6721 58.4364 42.5288 58.3499 42.5288 58.2078C42.5288 58.0248 42.7566 57.979 43.6677 57.979C44.5788 57.979 44.8067 58.0248 44.8067 58.2078ZM47.718 58.2314C48.3169 58.7753 47.8637 59.6559 46.9851 59.6559C46.5219 59.6559 46.4771 59.6963 46.4771 60.1132C46.4771 60.418 46.4011 60.5705 46.2493 60.5705C46.0646 60.5705 46.0215 60.325 46.0215 59.2748V57.979H46.7308C47.178 57.979 47.543 58.0723 47.718 58.2314ZM50.0914 58.1619C50.3159 58.3875 50.3304 58.993 50.1143 59.127C50.0152 59.1885 50.008 59.2924 50.0954 59.4027C50.1723 59.5001 50.2668 59.8059 50.3052 60.0824C50.3663 60.5225 50.3356 60.5795 50.0586 60.5397C49.8529 60.5102 49.7234 60.3609 49.6888 60.1132C49.5804 59.338 48.9068 59.2722 48.9068 60.037C48.9068 60.4689 48.849 60.5705 48.6031 60.5705C48.3233 60.5705 48.2994 60.4689 48.2994 59.2748V57.979H49.1043C49.5469 57.979 49.9911 58.0613 50.0914 58.1619ZM52.5515 58.2078C52.5515 58.3728 52.3828 58.4364 51.9441 58.4364C51.4379 58.4364 51.3367 58.4872 51.3367 58.7412C51.3367 58.9894 51.438 59.0461 51.8808 59.0461C52.567 59.0461 52.5147 59.4061 51.8185 59.4749C51.4595 59.5107 51.3367 59.5981 51.3367 59.818C51.3367 60.0607 51.4445 60.1132 51.9441 60.1132C52.3828 60.1132 52.5515 60.1768 52.5515 60.3419C52.5515 60.5198 52.3491 60.5705 51.6404 60.5705H50.7292V59.2748V57.979H51.6404C52.3491 57.979 52.5515 58.0299 52.5515 58.2078ZM54.5976 58.322C54.8254 58.6464 54.82 58.6679 54.4972 58.7181C54.3095 58.7472 54.1311 58.6958 54.1004 58.6038C54.0206 58.3633 53.4627 58.3967 53.4627 58.6418C53.4627 58.755 53.7255 58.9512 54.0469 59.0779C55.085 59.4871 54.9114 60.5705 53.8078 60.5705C53.2954 60.5705 52.7034 60.2309 52.7034 59.9371C52.7034 59.7562 53.273 59.7758 53.3868 59.9607C53.533 60.1981 54.0701 60.1399 54.0701 59.8865C54.0701 59.762 53.8364 59.562 53.5507 59.4421C52.8628 59.1536 52.6439 58.7421 52.947 58.3075C53.2739 57.8389 54.2643 57.8477 54.5976 58.322ZM56.9555 58.2078C56.9555 58.3728 56.7868 58.4364 56.3481 58.4364C55.8419 58.4364 55.7406 58.4872 55.7406 58.7412C55.7406 58.9785 55.8419 59.0461 56.1962 59.0461C56.4999 59.0461 56.6518 59.1224 56.6518 59.2748C56.6518 59.4273 56.4999 59.5034 56.1962 59.5034C55.8419 59.5034 55.7406 59.5711 55.7406 59.8083C55.7406 60.0625 55.8419 60.1132 56.3481 60.1132C56.7868 60.1132 56.9555 60.1768 56.9555 60.3419C56.9555 60.5198 56.7531 60.5705 56.0443 60.5705H55.1331V59.2748V57.979H56.0443C56.7531 57.979 56.9555 58.0299 56.9555 58.2078ZM58.2463 58.7795L58.7019 59.5797L58.7478 58.7793C58.7864 58.1036 58.8397 57.979 59.0894 57.979C59.3594 57.979 59.3852 58.0923 59.3852 59.2748C59.3852 60.5169 59.3711 60.5705 59.0436 60.5704C58.7906 60.5702 58.5836 60.3627 58.2463 59.7701L57.7908 58.9699L57.7449 59.7702C57.7061 60.4459 57.6528 60.5705 57.4032 60.5705C57.1332 60.5705 57.1073 60.4573 57.1073 59.2748C57.1073 58.0327 57.1214 57.979 57.449 57.9793C57.702 57.9794 57.909 58.187 58.2463 58.7795ZM61.6181 58.4364C61.7785 58.759 61.7716 58.8254 61.5721 58.869C61.4426 58.8973 61.2518 58.8041 61.1481 58.6618C61.0444 58.5196 60.8276 58.4287 60.666 58.46C60.4226 58.5071 60.3724 58.6465 60.3724 59.2748C60.3724 59.8987 60.4235 60.0426 60.6614 60.0886C60.8202 60.1195 61.0116 60.0346 61.0864 59.9002C61.28 59.553 61.8344 59.5728 61.7132 59.9226C61.4876 60.5735 60.4952 60.7985 59.9668 60.3183C59.5939 59.9797 59.5811 58.656 59.9469 58.2505C60.3387 57.8161 61.3661 57.9303 61.6181 58.4364ZM63.941 58.2078C63.941 58.3728 63.7723 58.4364 63.3336 58.4364C62.8275 58.4364 62.7262 58.4872 62.7262 58.7412C62.7262 58.9785 62.8275 59.0461 63.1818 59.0461C63.4855 59.0461 63.6373 59.1224 63.6373 59.2748C63.6373 59.4273 63.4855 59.5034 63.1818 59.5034C62.8275 59.5034 62.7262 59.5711 62.7262 59.8083C62.7262 60.0625 62.8275 60.1132 63.3336 60.1132C63.7723 60.1132 63.941 60.1768 63.941 60.3419C63.941 60.5198 63.7386 60.5705 63.0299 60.5705H62.1188V59.2748V57.979H63.0299C63.7386 57.979 63.941 58.0299 63.941 58.2078ZM36.4543 58.7412C36.4543 58.9921 36.533 59.0561 36.796 59.0187C36.984 58.9918 37.1377 58.867 37.1377 58.7412C37.1377 58.6155 36.984 58.4906 36.796 58.4639C36.533 58.4265 36.4543 58.4903 36.4543 58.7412ZM46.4771 58.8175C46.4771 59.1654 46.5327 59.2124 46.8948 59.1705C47.1951 59.1359 47.3124 59.0366 47.3124 58.8175C47.3124 58.5983 47.1951 58.499 46.8948 58.4645C46.5327 58.4225 46.4771 58.4696 46.4771 58.8175ZM48.9068 58.7305C48.9068 58.9679 49.0038 59.0461 49.2976 59.0461C49.7961 59.0461 49.7519 58.5363 49.2471 58.4639C48.9887 58.4269 48.9068 58.4911 48.9068 58.7305ZM34.3283 58.9485C34.3283 59.0724 34.2868 59.2821 34.2361 59.4147C34.1756 59.573 34.2277 59.6559 34.388 59.6559C34.6607 59.6559 34.7354 58.9758 34.4801 58.8175C34.3966 58.7657 34.3283 58.8246 34.3283 58.9485ZM40.3599 63.9242C40.3792 63.9242 40.4991 64.1266 40.6265 64.3739C40.7736 64.6594 40.8583 65.2399 40.8583 65.9629C40.8583 66.966 40.8113 67.1581 40.465 67.571C40.1343 67.9656 39.9644 68.0401 39.3953 68.0401C38.879 68.0401 38.6298 67.9512 38.3457 67.6659C38.0062 67.3252 37.9729 67.1715 37.9729 65.9468C37.9729 64.4139 38.1544 64.0062 38.9288 63.7994C39.1966 63.7279 39.6201 63.7267 39.8701 63.7968C40.1202 63.8669 40.3406 63.9242 40.3599 63.9242ZM44.0053 64.1736C44.1119 64.3201 44.1992 64.6937 44.1992 65.004C44.1992 65.458 44.0657 65.7171 43.5158 66.3311C43.1399 66.7508 42.8325 67.1354 42.8325 67.186C42.8325 67.2366 43.1741 67.2779 43.5917 67.2779C44.3005 67.2779 44.351 67.3034 44.351 67.659V68.0401H42.8325C41.4299 68.0401 41.3138 68.0174 41.3138 67.7439C41.3138 67.581 41.6794 67.0494 42.1263 66.5625C43.0478 65.5584 43.3484 65.0642 43.2285 64.7508C43.1068 64.4324 42.5607 64.4867 42.3416 64.8388C42.0939 65.2369 41.3138 65.2626 41.3138 64.8728C41.3138 64.4279 41.7507 63.938 42.2698 63.8009C42.883 63.639 43.7518 63.8255 44.0053 64.1736ZM47.3911 64.1911C47.9482 64.902 47.7643 65.5274 46.6515 66.7063L46.1117 67.2779H46.9778C47.8004 67.2779 47.8438 67.2971 47.8438 67.659V68.0401H46.3252C44.8443 68.0401 44.8067 68.0314 44.8067 67.6914C44.8067 67.4731 45.0952 67.0596 45.5778 66.5861C46.4488 65.7319 46.8215 65.1227 46.6876 64.7722C46.5541 64.423 45.91 64.471 45.7937 64.8388C45.6645 65.2476 44.8067 65.2771 44.8067 64.8728C44.8067 63.7898 46.6877 63.2936 47.3911 64.1911ZM36.8925 64.0386C37.0685 64.1852 37.2496 64.5111 37.2947 64.7627C37.382 65.2495 37.2259 65.5553 36.3276 66.657L35.8213 67.2779H36.5934C37.3156 67.2779 37.3654 67.3025 37.3654 67.659C37.3654 68.0387 37.3605 68.0401 35.9227 68.0401C34.5549 68.0401 34.4801 68.0233 34.4801 67.7175C34.4801 67.5378 34.8499 66.9939 35.3143 66.4904C36.1305 65.6055 36.4308 65.018 36.2318 64.6952C36.0604 64.4168 35.5199 64.5143 35.4353 64.8388C35.3752 65.0695 35.2281 65.1437 34.8318 65.1437C34.3589 65.1437 34.3179 65.1102 34.4115 64.8008C34.4685 64.6121 34.6558 64.3035 34.8277 64.1147C35.2268 63.6771 36.4066 63.6335 36.8925 64.0386ZM38.9763 64.7751C38.9255 64.9078 38.8841 65.4166 38.8841 65.9059C38.8841 66.9945 38.9823 67.2779 39.3597 67.2779C39.711 67.2779 39.9471 66.7263 39.9471 65.9059C39.9471 65.0855 39.711 64.534 39.3597 64.534C39.1995 64.534 39.027 64.6425 38.9763 64.7751ZM30.8356 64.3817L31.1765 65.4351H32.2799L31.3872 66.0861L31.7282 67.1395L30.8356 66.4885L29.943 67.1395L30.284 66.0861L29.3913 65.4351H30.4947L30.8356 64.3817ZM51.8307 65.4351L51.4898 64.3817L51.1488 65.4351H50.0455L50.9381 66.0861L50.5971 67.1395L51.4898 66.4885L52.3824 67.1395L52.0414 66.0861L52.9341 65.4351H51.8307Z" fill="white" fill-opacity="0.4"/>
<rect x="39.1157" y="11" width="4" height="5" rx="2" fill="#5849C1"/>
<path d="M41.4017 12.9938C41.3941 12.8988 41.3585 12.8247 41.2949 12.7716C41.2322 12.7184 41.1367 12.6918 41.0085 12.6918C40.9268 12.6918 40.8598 12.7017 40.8076 12.7217C40.7563 12.7407 40.7183 12.7668 40.6936 12.8C40.6689 12.8333 40.6561 12.8713 40.6551 12.914C40.6532 12.9492 40.6594 12.981 40.6736 13.0095C40.6888 13.037 40.7126 13.0622 40.7449 13.085C40.7772 13.1069 40.8185 13.1268 40.8688 13.1449C40.9192 13.1629 40.979 13.1791 41.0484 13.1933L41.2877 13.2446C41.4492 13.2788 41.5874 13.3239 41.7024 13.38C41.8173 13.436 41.9113 13.502 41.9845 13.578C42.0576 13.6531 42.1113 13.7376 42.1455 13.8316C42.1806 13.9257 42.1987 14.0283 42.1996 14.1394C42.1987 14.3313 42.1507 14.4937 42.0557 14.6267C41.9607 14.7597 41.8249 14.8608 41.6482 14.9302C41.4725 14.9995 41.2611 15.0342 41.0142 15.0342C40.7605 15.0342 40.5392 14.9967 40.3502 14.9216C40.1621 14.8466 40.0158 14.7312 39.9113 14.5754C39.8078 14.4187 39.7556 14.2182 39.7546 13.9741H40.5069C40.5117 14.0634 40.534 14.1384 40.5739 14.1992C40.6138 14.26 40.6698 14.3061 40.742 14.3374C40.8152 14.3688 40.9021 14.3845 41.0028 14.3845C41.0873 14.3845 41.1581 14.374 41.2151 14.3531C41.2721 14.3322 41.3153 14.3033 41.3447 14.2662C41.3742 14.2292 41.3894 14.1869 41.3903 14.1394C41.3894 14.0948 41.3747 14.0558 41.3462 14.0226C41.3186 13.9884 41.273 13.958 41.2094 13.9314C41.1457 13.9038 41.0598 13.8782 40.9515 13.8544L40.6608 13.7917C40.4024 13.7357 40.1987 13.6421 40.0496 13.511C39.9014 13.379 39.8278 13.199 39.8287 12.971C39.8278 12.7858 39.8771 12.6238 39.9769 12.4852C40.0776 12.3455 40.2167 12.2368 40.3944 12.1589C40.5729 12.081 40.7776 12.042 41.0085 12.042C41.244 12.042 41.4478 12.0815 41.6197 12.1603C41.7917 12.2391 41.9242 12.3503 42.0173 12.4937C42.1113 12.6362 42.1588 12.8029 42.1597 12.9938H41.4017Z" fill="#1802A9"/>
</g>
<defs>
<clipPath id="clip0_682_20675">
<rect width="80.19" height="79.4263" fill="white" transform="translate(0.642578 0.873047)"/>
</clipPath>
</defs>
</svg>
