<svg width="82" height="81" viewBox="0 0 82 81" fill="none" xmlns="http://www.w3.org/2000/svg">
<g clip-path="url(#clip0_1_28)">
<path fill-rule="evenodd" clip-rule="evenodd" d="M37.7332 1.04205C22.1728 2.51959 8.80409 13.1853 3.86299 28.0639C0.515511 38.1438 1.3506 49.3013 6.15667 58.7087C9.40968 65.0762 14.801 70.9012 20.8686 74.6046C24.3416 76.7243 28.9502 78.5666 33.0246 79.4637C35.9321 80.104 37.9052 80.2996 41.4544 80.2996C46.3628 80.2996 49.5445 79.7861 54.1322 78.2533C56.5456 77.4469 60.4739 75.6011 62.4151 74.3614C65.7494 72.2321 69.3914 69.0389 71.8684 66.0728C76.5261 60.4958 79.6471 53.3937 80.7387 45.8877C81.1069 43.3557 81.1069 37.9082 80.7387 35.3763C79.6647 27.9917 76.7773 21.285 72.2453 15.6481C69.6613 12.4342 65.4686 8.73844 62.0762 6.68428C54.7801 2.26656 46.0786 0.249726 37.7332 1.04205ZM45.0677 6.97312C54.3011 7.97872 62.8491 12.819 68.3489 20.1559C72.8403 26.1479 75.1738 33.1486 75.1738 40.632C75.1738 52.0735 69.6072 62.4885 60.0871 68.8587C52.6727 73.8199 43.5096 75.5731 34.4923 73.7557C29.7659 72.8031 24.7468 70.4887 20.8401 67.4605C12.5216 61.0124 7.7351 51.2136 7.7351 40.632C7.7351 35.2548 8.83614 30.4549 11.1529 25.7329C14.5442 18.821 19.7134 13.6389 26.615 10.2327C30.033 8.54588 33.8767 7.40927 37.5813 6.98988C39.3151 6.79351 43.3368 6.78452 45.0677 6.97312ZM38.6461 7.43715C32.6156 7.93469 26.4791 10.2926 21.503 14.0243C19.9028 15.2246 16.7981 18.2625 15.4843 19.9137C9.49944 27.4361 7.03261 37.34 8.81168 46.7026C10.1419 53.7036 13.3267 59.5772 18.5356 64.6365C21.7329 67.742 25.1735 69.967 29.3094 71.6039C38.1124 75.088 48.134 74.5981 56.5392 70.2727C62.8822 67.0085 68.3177 61.421 71.3687 55.0282C76.4031 44.4791 75.5623 31.9858 69.1696 22.3511C67.773 20.2463 66.4727 18.6878 64.5206 16.7788C58.9099 11.2924 51.878 8.09358 43.9606 7.42618C41.9125 7.25358 40.8457 7.25571 38.6461 7.43715ZM42.9611 11.0917C43.5536 11.4344 44.1406 11.861 44.2653 12.0397C44.5295 12.4176 44.5873 14.8806 44.3429 15.3385C44.1514 15.6975 41.8749 17.0192 41.4482 17.0192C41.0569 17.0192 39.2354 16.0214 38.7584 15.5458C38.45 15.2382 38.4169 15.0593 38.419 13.7126C38.4203 12.892 38.4715 12.1414 38.5329 12.0448C38.7701 11.6715 40.9363 10.49 41.4031 10.4794C41.7034 10.4727 42.2873 10.7021 42.9611 11.0917ZM40.5271 12.0444C39.5366 12.6384 39.4799 12.7256 39.4799 13.6573C39.4799 14.6763 39.5984 14.8554 40.657 15.4379L41.4544 15.8766L42.2519 15.4365C43.3572 14.8264 43.3642 14.8129 42.7712 14.4454C42.3228 14.1674 42.1835 14.1451 41.8488 14.2981C41.2939 14.5517 40.6951 14.2676 40.6951 13.7506C40.6951 13.5128 40.8375 13.2765 41.0747 13.1205C41.372 12.9252 41.4544 12.7422 41.4544 12.2791C41.4544 11.5983 41.3255 11.5656 40.5271 12.0444ZM43.3962 21.4179C43.4456 23.4007 43.3227 23.7353 42.4372 24.0284C41.702 24.2717 40.9298 24.1046 40.5497 23.6199C40.3162 23.3221 40.2393 22.9998 40.2393 22.3188C40.2393 21.5143 40.2906 21.3623 40.6994 20.9522C41.1658 20.4844 41.6659 20.4236 42.4037 20.7447C42.6329 20.8443 42.6696 20.7725 42.6696 20.224C42.6696 19.6514 42.7038 19.5927 43.0113 19.6364C43.3398 19.6834 43.3547 19.752 43.3962 21.4179ZM51.0234 20.7233L51.0994 21.7616L51.6228 21.2184C52.0271 20.7989 52.2674 20.6754 52.6789 20.6754H53.2116L52.6492 21.2531C52.3398 21.5709 52.0867 21.8874 52.0867 21.9567C52.0867 22.026 52.3259 22.4777 52.6183 22.9605C52.9106 23.4433 53.1499 23.8806 53.1499 23.9326C53.1499 23.9844 52.9277 24.0269 52.656 24.0269C52.2257 24.0269 52.1155 23.9387 51.7995 23.3414C51.6 22.9643 51.344 22.6558 51.2302 22.6558C51.0865 22.6558 51.0234 22.8647 51.0234 23.3414C51.0234 24.0014 51.0066 24.0269 50.5678 24.0269H50.1121V21.8079V19.5888L50.5298 19.637C50.9311 19.6834 50.9506 19.7257 51.0234 20.7233ZM54.3732 20.066C54.5057 19.8768 54.525 19.8899 54.485 20.1422C54.4584 20.3097 54.3362 20.4469 54.2132 20.4469C54.0901 20.4469 53.9678 20.3097 53.9412 20.1422C53.9013 19.8899 53.9206 19.8768 54.053 20.066C54.1954 20.2691 54.2309 20.2691 54.3732 20.066ZM30.8113 20.746C31.1731 20.9334 31.4298 21.2571 31.4298 21.5258C31.4298 21.6616 30.5312 21.581 30.4425 21.4371C30.2956 21.1987 29.6661 21.2586 29.4393 21.5325C29.1466 21.8863 29.1802 22.9023 29.4951 23.2181C29.7188 23.4425 29.8281 23.4536 30.2619 23.2962C30.8458 23.0846 31.4298 23.0557 31.4298 23.2386C31.4298 23.4661 30.7543 24.0023 30.3366 24.1062C29.7203 24.2596 28.879 23.9201 28.6172 23.4123C28.4933 23.1721 28.392 22.6241 28.392 22.1947C28.392 21.5346 28.4608 21.3448 28.836 20.9683C29.3436 20.4594 30.0955 20.3747 30.8113 20.746ZM36.1401 20.7525C36.9581 21.1767 37.1203 22.7466 36.4364 23.6189C35.8225 24.4013 34.3723 24.2637 33.9165 23.3798C33.5368 22.6433 33.6982 21.3324 34.2248 20.8781C34.7068 20.4623 35.4825 20.4113 36.1401 20.7525ZM46.0195 20.68C46.3886 20.878 46.7705 21.6078 46.7705 22.115C46.7705 22.4969 46.7511 22.5035 45.6314 22.5035C44.459 22.5035 44.3542 22.5696 44.6494 23.1228C44.815 23.433 45.4695 23.5279 45.6314 23.2652C45.729 23.1068 46.6187 23.0473 46.6187 23.199C46.6187 23.5044 46.2379 23.8764 45.7649 24.033C44.9426 24.3052 44.1427 24.0256 43.8256 23.3553C43.3804 22.4143 43.6175 21.0878 44.3024 20.6876C44.6494 20.4848 45.6478 20.4804 46.0195 20.68ZM49.4082 20.8388C50.1744 21.4434 49.6554 21.8952 48.8232 21.3483C48.4277 21.0884 47.7762 21.1843 47.8743 21.4881C47.906 21.5857 48.3241 21.7917 48.8036 21.9459C49.7628 22.2542 50.0716 22.6474 49.8981 23.3401C49.62 24.4519 46.9225 24.3626 46.9225 23.2416C46.9225 22.9 47.5545 22.8515 47.8201 23.1725C48.078 23.4841 48.5426 23.5644 48.8372 23.3484C49.202 23.0809 49.0104 22.8728 48.2132 22.6716C46.9741 22.3587 46.586 21.6083 47.2953 20.8971C47.7842 20.4067 48.8241 20.378 49.4082 20.8388ZM33.5562 21.0398C33.5562 21.3027 33.449 21.431 33.1712 21.5011C32.6923 21.6216 32.493 22.1204 32.493 23.1989C32.493 23.9805 32.4717 24.0269 32.1133 24.0269C31.7397 24.0269 31.7336 24.0074 31.7336 22.7964C31.7336 21.6395 31.7602 21.5393 32.1776 21.1207C32.7611 20.5354 33.5562 20.4887 33.5562 21.0398ZM39.9356 21.0995C39.9356 21.4118 39.7152 21.7419 39.1002 22.3511C38.6407 22.8061 38.2648 23.2324 38.2648 23.2981C38.2648 23.3638 38.6749 23.4175 39.1761 23.4175C39.9861 23.4175 40.0874 23.4513 40.0874 23.7222C40.0874 24.0066 39.9861 24.0269 38.5686 24.0269C37.1276 24.0269 37.0497 24.0104 37.0497 23.7074C37.0497 23.5287 37.4579 22.9419 37.9771 22.3744L38.9047 21.3609L38.0924 21.2847C37.4765 21.227 37.2679 21.1441 37.2296 20.942C37.1847 20.704 37.327 20.6754 38.5574 20.6754H39.9356V21.0995ZM34.7551 21.5329C34.5025 21.8382 34.5121 22.8758 34.7704 23.1879C35.0377 23.5109 35.642 23.4737 35.8293 23.1228C35.9156 22.9608 35.9865 22.6135 35.9865 22.3511C35.9865 22.0888 35.9156 21.7414 35.8293 21.5794C35.6374 21.22 35.0355 21.194 34.7551 21.5329ZM41.2866 21.5325C41.1739 21.6688 41.0816 22.0371 41.0816 22.3511C41.0816 23.025 41.3586 23.4175 41.8342 23.4175C42.3097 23.4175 42.5867 23.025 42.5867 22.3511C42.5867 21.6773 42.3097 21.2847 41.8342 21.2847C41.6459 21.2847 41.3995 21.3962 41.2866 21.5325ZM44.6745 21.4675C44.2993 21.8439 44.4748 22.0464 45.1758 22.0464C45.6354 22.0464 45.8592 21.9815 45.8592 21.8484C45.8592 21.5518 45.5356 21.2847 45.1758 21.2847C45.0004 21.2847 44.7747 21.367 44.6745 21.4675ZM22.5443 31.0513C23.3807 31.2818 24.3445 32.3095 24.5713 33.2128C24.7924 34.0936 24.7965 35.9489 24.579 36.7473C24.4877 37.0824 24.2446 37.5803 24.039 37.8538L23.6649 38.3508L24.1531 38.7678C24.4217 38.9971 24.7145 39.2325 24.8039 39.2909C24.9081 39.359 24.8367 39.5359 24.6048 39.7834C24.0061 40.4227 23.7525 40.4143 22.9764 39.7289C22.3243 39.1534 22.2092 39.1086 21.3788 39.1086C19.087 39.1086 17.9117 37.7278 17.9117 35.0352C17.9117 33.4935 18.1483 32.6717 18.8034 31.9393C19.6608 30.9804 21.0717 30.6456 22.5443 31.0513ZM27.8135 34.0187L27.8604 37.0028L28.2866 37.3702C28.8645 37.8683 29.7421 37.8683 30.3201 37.3702L30.7463 37.0028L30.7932 34.0187L30.8403 31.0345H31.7425H32.6449L32.6412 33.7386C32.6363 37.445 32.4602 38.0507 31.1933 38.7172C30.3403 39.1661 28.2664 39.1661 27.4134 38.7172C26.1465 38.0507 25.9704 37.445 25.9655 33.7386L25.9618 31.0345H26.8641H27.7664L27.8135 34.0187ZM39.058 34.7668C39.7079 36.7777 40.2784 38.5429 40.3256 38.6897C40.4011 38.9237 40.2995 38.9563 39.4947 38.9563H38.5778L38.3677 38.2326L38.1579 37.509L36.8529 37.4651L35.5483 37.4212L35.3885 37.9984C35.3007 38.3157 35.2283 38.6612 35.2279 38.7658C35.2273 38.8986 34.9261 38.9563 34.2307 38.9563C33.6829 38.9563 33.2648 38.9047 33.3015 38.842C33.3384 38.7792 33.9268 36.9936 34.6089 34.8743L35.8495 31.021L36.8629 31.0658L37.8762 31.1107L39.058 34.7668ZM43.1252 34.3098V37.5851H44.796H46.4668V38.2707V38.9563H43.8847H41.3026V34.9953V31.0345H42.2139H43.1252V34.3098ZM49.5046 34.9953V38.9563H48.5933H47.6819V34.9953V31.0345H48.5933H49.5046V34.9953ZM57.5547 31.72V32.4056H56.2636H54.9725V35.6809V38.9563H54.0612H53.1499V35.6809V32.4056H51.8588H50.5678V31.72V31.0345H54.0612H57.5547V31.72ZM60.751 32.6765C61.1419 33.5377 61.5044 34.2852 61.5569 34.3375C61.609 34.39 62.0056 33.6683 62.4379 32.7337L63.2241 31.0345H64.1866C64.7159 31.0345 65.1492 31.0605 65.1492 31.0919C65.1492 31.1235 64.534 32.3204 63.7822 33.7517L62.4151 36.3539V37.6551V38.9563H61.5798H60.7444V37.6106C60.7444 37.5399 60.7446 37.4731 60.7448 37.4098C60.7459 37.1007 60.7467 36.8713 60.718 36.6457C60.6351 35.9956 60.3064 35.377 59.0306 32.9761C58.9399 32.8054 58.8445 32.6258 58.744 32.4365L57.992 31.0203L59.0161 31.0655L60.0403 31.1107L60.751 32.6765ZM20.6456 32.4405C20.0138 32.7697 19.7348 33.5417 19.7346 34.9621C19.7342 36.8599 20.2385 37.7375 21.3292 37.7375C22.4124 37.7375 22.924 36.8579 22.924 34.9953C22.924 33.7462 22.7097 32.9481 22.2775 32.5887C21.9223 32.2932 21.0761 32.2164 20.6456 32.4405ZM36.3873 34.456C36.1669 35.253 35.9865 35.9403 35.9865 35.9835C35.9865 36.0266 36.3624 36.0618 36.8219 36.0618C37.3906 36.0618 37.6562 36.001 37.654 35.8714C37.6504 35.6501 36.9294 33.1483 36.8449 33.0635C36.8138 33.0322 36.6078 33.6587 36.3873 34.456ZM26.5601 43.2737C27.1404 43.6588 27.561 44.3486 27.7288 45.19L27.8224 45.6592H26.8921C26.0515 45.6592 25.9618 45.6288 25.9618 45.3428C25.9618 45.1688 25.7621 44.8261 25.5178 44.5811C24.656 43.7168 23.4732 44.1956 23.2202 45.5113C22.9173 47.0854 23.1245 48.7547 23.6934 49.3253C24.2886 49.9223 25.5386 49.5921 25.8392 48.7583C26.0191 48.2595 26.0411 48.249 26.9157 48.249H27.8086L27.7022 48.7441C27.4709 49.8216 26.9634 50.4293 26.0097 50.7704C25.2275 51.0502 23.7987 51.0435 23.1145 50.7568C21.7389 50.1803 21.4128 49.4364 21.4084 46.8638C21.4042 44.4444 21.6495 43.8513 22.9351 43.1704C23.6873 42.7721 23.8571 42.7409 24.875 42.8149C25.7161 42.8758 26.1308 42.9889 26.5601 43.2737ZM41.5299 42.9355C42.3647 43.168 43.3479 44.1821 43.5814 45.0516C43.6894 45.4537 43.7413 46.3603 43.7082 47.26C43.6591 48.5875 43.598 48.8784 43.2388 49.4932C42.6805 50.4487 41.6199 50.9925 40.3234 50.9878C37.9092 50.979 36.7471 49.3836 36.9362 46.3374C37.0181 45.0162 37.3418 44.175 38.0078 43.5516C38.771 42.8373 40.2487 42.5787 41.5299 42.9355ZM53.0461 42.9855C53.3648 43.0995 53.765 43.3192 53.9357 43.4739C54.3559 43.855 54.8207 44.7996 54.8207 45.2723C54.8207 45.64 54.7789 45.6592 53.9806 45.6592C53.312 45.6592 53.1241 45.6049 53.0609 45.3926C52.8588 44.7147 52.5768 44.3639 52.1318 44.2358C51.4411 44.0371 50.907 44.2243 50.5568 44.7874C50.2877 45.2201 50.2568 45.4927 50.2957 47.0819C50.3389 48.8452 50.3495 48.8937 50.7661 49.2528C51.3407 49.7481 52.1275 49.7453 52.6251 49.2461C52.8301 49.0405 52.998 48.7319 52.998 48.5605C52.998 48.2805 53.0923 48.249 53.9293 48.249H54.8605L54.7732 48.7884C54.5325 50.2751 53.5872 50.9149 51.6311 50.9149C50.0083 50.9149 49.4115 50.5988 48.8318 49.4321C48.4863 48.7368 48.4415 48.4607 48.4422 47.0385C48.4431 45.1117 48.6096 44.4311 49.2498 43.7343C50.0741 42.8373 51.7226 42.512 53.0461 42.9855ZM30.8222 44.5983V46.2796L32.3031 46.236L33.7841 46.1924L33.8272 44.5547L33.8704 42.9171H34.7006H35.5308V46.8779V50.8388H34.7007H33.8707L33.8273 49.2773L33.7841 47.7158L32.3031 47.6722L30.8222 47.6287V49.2337V50.8388H29.9109H28.9996V46.8779V42.9171H29.9109H30.8222V44.5983ZM46.9225 46.8779V50.8388H46.0871H45.2517V46.8779V42.9171H46.0871H46.9225V46.8779ZM61.6557 43.6026V44.2881H59.7495H57.8432L57.8888 45.1641L57.9344 46.0401L59.4913 46.0835L61.0481 46.1269V46.807V47.4873H59.4533H57.8585V48.4776V49.4677H59.757H61.6557V50.1532V50.8388H58.8457H56.0358V46.8779V42.9171H58.8457H61.6557V43.6026ZM39.6786 44.2825C39.126 44.5175 38.8364 45.1384 38.7565 46.2591C38.6003 48.4461 39.129 49.6201 40.2698 49.6201C41.4152 49.6201 41.9101 48.8164 41.9101 46.9568C41.9101 45.6277 41.7047 44.8381 41.2637 44.4713C40.9473 44.208 40.0929 44.1063 39.6786 44.2825ZM23.2277 58.2273C23.2277 58.3694 23.0844 58.4558 22.848 58.4558C22.4791 58.4558 22.4684 58.4863 22.4684 59.5222C22.4684 60.487 22.4394 60.5885 22.1646 60.5885C21.8897 60.5885 21.8608 60.487 21.8608 59.5222C21.8608 58.4863 21.85 58.4558 21.481 58.4558C21.2447 58.4558 21.1013 58.3694 21.1013 58.2273C21.1013 58.046 21.3206 57.9988 22.1646 57.9988C23.0085 57.9988 23.2277 58.046 23.2277 58.2273ZM25.3542 58.3035C25.568 58.5179 25.658 58.8112 25.658 59.2937C25.658 60.1036 25.2725 60.5885 24.6286 60.5885C23.8607 60.5885 23.5315 60.2126 23.5315 59.3351C23.5315 58.8238 23.6179 58.4602 23.783 58.2774C24.123 57.9006 24.9663 57.9144 25.3542 58.3035ZM27.7845 58.3035C27.9515 58.471 28.0883 58.711 28.0883 58.8367C28.0883 59.2184 27.5094 59.6745 27.025 59.6745C26.6199 59.6745 26.5693 59.7252 26.5693 60.1315C26.5693 60.4362 26.4934 60.5885 26.3416 60.5885C26.1568 60.5885 26.1137 60.3431 26.1137 59.2937V57.9988H26.7972C27.2781 57.9988 27.5707 58.0892 27.7845 58.3035ZM31.0393 58.2381C31.3205 58.5204 31.3343 58.6746 31.1155 59.0849C31.0135 59.2762 31.0059 59.4565 31.095 59.57C31.1733 59.6693 31.2717 59.9428 31.3138 60.1778C31.3799 60.5447 31.3455 60.5982 31.0684 60.5586C30.8569 60.5283 30.728 60.3817 30.6929 60.1315C30.5845 59.3567 29.9109 59.2911 29.9109 60.0554C29.9109 60.487 29.8531 60.5885 29.6071 60.5885C29.3272 60.5885 29.3033 60.487 29.3033 59.2937V57.9988H30.052C30.53 57.9988 30.8868 58.0853 31.0393 58.2381ZM33.316 59.1798C33.5317 59.8296 33.7081 60.4123 33.7081 60.4748C33.7081 60.7159 33.2551 60.5735 33.1006 60.2839C33.0111 60.1164 32.8061 59.9792 32.6449 59.9792C32.4837 59.9792 32.2787 60.1164 32.1892 60.2839C32.006 60.6272 31.5817 60.6971 31.5817 60.384C31.5817 60.2169 31.919 59.1287 32.262 58.1893C32.3003 58.0846 32.4647 57.9988 32.6275 57.9988C32.8619 57.9988 33.0054 58.2452 33.316 59.1798ZM35.0278 58.7888L35.4548 59.5789L35.5007 58.7888C35.5394 58.1233 35.5932 57.9988 35.8424 57.9988C36.1126 57.9988 36.1383 58.112 36.1383 59.2937C36.1383 60.4731 36.112 60.5885 35.844 60.5885C35.6456 60.5885 35.4105 60.3311 35.1225 59.7986L34.6954 59.0085L34.6495 59.7986C34.6108 60.4641 34.5571 60.5885 34.3078 60.5885C34.0378 60.5885 34.0119 60.4754 34.0119 59.2937C34.0119 58.1143 34.0382 57.9988 34.3062 57.9988C34.5046 57.9988 34.7398 58.2563 35.0278 58.7888ZM37.0497 58.4468C37.0497 59.1055 37.2833 59.1388 37.6567 58.5329C37.8478 58.2225 38.1079 57.9988 38.2773 57.9988C38.648 57.9988 38.643 58.0754 38.2354 58.6496L37.9022 59.1188L38.3113 59.8536L38.7203 60.5885H38.3752C38.1362 60.5885 37.9416 60.4236 37.7417 60.0514C37.4 59.415 37.144 59.4358 37.0781 60.1052C37.0487 60.4017 36.9461 60.5885 36.8122 60.5885C36.6396 60.5885 36.594 60.3177 36.594 59.2937C36.594 58.2442 36.6371 57.9988 36.8219 57.9988C36.9726 57.9988 37.0497 58.15 37.0497 58.4468ZM40.6951 58.2273C40.6951 58.3923 40.5263 58.4558 40.0874 58.4558C39.5812 58.4558 39.4799 58.5065 39.4799 58.7605C39.4799 59.0071 39.5812 59.0652 40.0115 59.0652C40.6815 59.0652 40.7122 59.3342 40.0495 59.3984C39.6712 59.4349 39.5445 59.526 39.5072 59.7888C39.4638 60.0961 39.5228 60.1315 40.0768 60.1315C40.525 60.1315 40.6951 60.1944 40.6951 60.36C40.6951 60.5356 40.5009 60.5885 39.8597 60.5885H39.0243V59.2937V57.9988H39.8597C40.5009 57.9988 40.6951 58.0518 40.6951 58.2273ZM42.6696 58.3035C42.8793 58.5139 42.9734 58.8112 42.9734 59.2646C42.9734 60.1901 42.7228 60.4613 41.7837 60.5517L40.9988 60.6272V59.313V57.9988H41.6823C42.1634 57.9988 42.4559 58.0892 42.6696 58.3035ZM46.0826 58.3416C46.3029 58.6554 46.3023 58.6887 46.0751 58.7367C45.9387 58.7655 45.7521 58.7141 45.6609 58.6224C45.4225 58.3834 44.9479 58.4168 44.9479 58.6724C44.9479 58.7917 45.1876 58.9685 45.4807 59.0656C46.2664 59.3257 46.5163 60.0805 45.9463 60.472C45.6058 60.7057 44.7946 60.5872 44.4638 60.2555C44.0666 59.857 44.3253 59.6858 44.8767 59.9818C45.2447 60.1794 45.7073 60.0998 45.7073 59.8388C45.7073 59.7563 45.3998 59.5523 45.0238 59.3855C44.476 59.1424 44.3404 59.0065 44.3404 58.7004C44.3404 57.9723 45.6361 57.7054 46.0826 58.3416ZM48.4413 58.3035C48.6551 58.5179 48.7451 58.8112 48.7451 59.2937C48.7451 60.1036 48.3596 60.5885 47.7157 60.5885C46.9479 60.5885 46.6187 60.2126 46.6187 59.3351C46.6187 58.8238 46.7051 58.4602 46.8701 58.2774C47.2101 57.9006 48.0535 57.9144 48.4413 58.3035ZM49.6565 59.0652V60.1315H50.188C50.5592 60.1315 50.7197 60.2004 50.7197 60.36C50.7197 60.5326 50.5341 60.5885 49.9603 60.5885H49.2008V59.2937C49.2008 58.2442 49.2439 57.9988 49.4287 57.9988C49.6093 57.9988 49.6565 58.2188 49.6565 59.0652ZM51.662 59.0271C51.705 60.0103 51.7235 60.0554 52.0867 60.0554C52.4498 60.0554 52.4684 60.0103 52.5113 59.0271C52.5507 58.1237 52.5923 57.9988 52.8531 57.9988C53.1178 57.9988 53.1499 58.1083 53.1499 59.0151C53.1499 60.2174 52.9115 60.5885 52.1391 60.5885C51.3201 60.5885 51.0234 60.1632 51.0234 58.989C51.0234 58.108 51.0562 57.9988 51.3202 57.9988C51.581 57.9988 51.6226 58.1237 51.662 59.0271ZM55.5802 58.2273C55.5802 58.3694 55.4367 58.4558 55.2004 58.4558C54.8314 58.4558 54.8207 58.4863 54.8207 59.5222C54.8207 60.3686 54.7736 60.5885 54.5928 60.5885C54.4121 60.5885 54.365 60.3686 54.365 59.5222V58.4558H53.9094C53.6056 58.4558 53.4537 58.3797 53.4537 58.2273C53.4537 58.046 53.6731 57.9988 54.5169 57.9988C55.3608 57.9988 55.5802 58.046 55.5802 58.2273ZM56.4915 59.2937C56.4915 60.3431 56.4483 60.5885 56.2636 60.5885C56.079 60.5885 56.0358 60.3431 56.0358 59.2937C56.0358 58.2442 56.079 57.9988 56.2636 57.9988C56.4483 57.9988 56.4915 58.2442 56.4915 59.2937ZM58.7091 60.472C58.4114 60.6714 57.6617 60.5952 57.3768 60.3364C57.008 60.0018 56.991 58.6757 57.3504 58.2774C57.603 57.9974 58.3925 57.9033 58.7091 58.1153C59.3658 58.5551 59.3658 60.0322 58.7091 60.472ZM60.4097 58.4725C60.5519 58.7331 60.7858 59.0929 60.9292 59.2724C61.1838 59.5907 61.19 59.5798 61.195 58.7986C61.1988 58.1915 61.2549 57.9988 61.4278 57.9988C61.6126 57.9988 61.6557 58.2442 61.6557 59.2937C61.6557 60.4254 61.6221 60.5885 61.3899 60.5884C61.2284 60.5882 60.9452 60.2743 60.6684 59.7887L60.2127 58.989L60.1668 59.7888C60.1281 60.4641 60.0749 60.5885 59.8252 60.5885C59.555 60.5885 59.5293 60.4754 59.5293 59.2937C59.5293 58.0905 59.5513 57.9988 59.8402 57.9988C60.0312 57.9988 60.2506 58.1813 60.4097 58.4725ZM24.1753 58.6328C23.7284 59.081 24.1175 60.2168 24.6807 60.1079C24.9244 60.0609 24.9745 59.9215 24.9745 59.2915C24.9745 58.6467 24.9283 58.5253 24.6689 58.4881C24.5009 58.4639 24.2787 58.5291 24.1753 58.6328ZM26.5693 58.8367C26.5693 59.1843 26.625 59.2314 26.987 59.1895C27.2875 59.1549 27.4047 59.0557 27.4047 58.8367C27.4047 58.6176 27.2875 58.5185 26.987 58.4838C26.625 58.442 26.5693 58.489 26.5693 58.8367ZM29.9109 58.7409C29.9109 59.1124 30.1022 59.2513 30.4363 59.1226C30.7876 58.9875 30.6585 58.5416 30.2512 58.4832C29.9955 58.4467 29.9109 58.5108 29.9109 58.7409ZM41.6064 59.3044C41.6064 60.0949 41.6294 60.1493 41.945 60.1041C42.6753 59.9992 42.6457 58.4558 41.9133 58.4558C41.642 58.4558 41.6064 58.5544 41.6064 59.3044ZM47.2006 58.8324C46.9376 59.411 47.1933 60.0554 47.6855 60.0554C48.0357 60.0554 48.0616 60.0027 48.0616 59.2937C48.0616 58.6208 48.022 58.5263 47.7214 58.4835C47.4761 58.4485 47.3306 58.546 47.2006 58.8324ZM57.6501 58.6886C57.4953 59.0931 57.5408 59.7519 57.737 59.9487C58.2474 60.4607 58.7024 59.9395 58.5918 58.9694C58.5528 58.6266 58.4558 58.5219 58.1437 58.4857C57.8841 58.4555 57.7122 58.5262 57.6501 58.6886ZM32.493 58.946C32.493 59.0816 32.4515 59.301 32.4008 59.4335C32.3341 59.6078 32.4001 59.6745 32.6388 59.6745C32.9107 59.6745 32.9508 59.6139 32.8659 59.3318C32.7275 58.8723 32.493 58.6298 32.493 58.946ZM37.2192 64.0761C37.4839 64.291 37.5744 64.5191 37.5744 64.9712C37.5744 65.4757 37.4512 65.7226 36.8446 66.4348L36.1148 67.2915H36.8861C37.6074 67.2915 37.6573 67.3163 37.6573 67.6725C37.6573 68.0519 37.6522 68.0533 36.2143 68.0533C34.8448 68.0533 34.7714 68.0368 34.7714 67.7299C34.7714 67.5458 35.1539 66.9963 35.66 66.4537C36.6376 65.4055 36.8372 64.9675 36.494 64.6232C36.2295 64.3578 35.6827 64.5683 35.6827 64.9356C35.6827 65.082 35.5259 65.1588 35.227 65.1588C34.6451 65.1588 34.607 64.7004 35.1442 64.1617C35.619 63.6854 36.684 63.6415 37.2192 64.0761ZM40.4604 63.8823C40.901 64.0519 41.1507 64.7901 41.1507 65.9229C41.1507 67.5083 40.7864 68.0435 39.7077 68.0435C38.629 68.0435 38.2648 67.5083 38.2648 65.9229C38.2648 64.8391 38.5146 64.0481 38.9071 63.8896C39.1874 63.7766 40.1736 63.772 40.4604 63.8823ZM44.1885 64.0924C44.3882 64.2928 44.4922 64.6002 44.4922 64.99C44.4922 65.4781 44.3715 65.7175 43.8088 66.3454C43.4328 66.7648 43.1252 67.1492 43.1252 67.1997C43.1252 67.2503 43.467 67.2915 43.8847 67.2915C44.5935 67.2915 44.6442 67.317 44.6442 67.6725C44.6442 68.0519 44.6391 68.0533 43.2012 68.0533C41.8468 68.0533 41.7582 68.034 41.7582 67.7404C41.7582 67.5682 42.1683 66.9494 42.6696 66.3654C43.6002 65.281 43.752 64.8815 43.3587 64.5542C43.1782 64.404 43.068 64.4433 42.7717 64.7639C42.4089 65.1567 41.6064 65.3185 41.6064 64.9988C41.6064 64.7286 42.0444 63.9721 42.2487 63.8896C42.3549 63.8469 42.7663 63.8063 43.1632 63.7998C43.6933 63.7909 43.9652 63.8684 44.1885 64.0924ZM47.6342 64.1189C48.2534 64.7025 48.0351 65.6933 47.0878 66.5964C46.8298 66.8424 46.6187 67.0996 46.6187 67.1677C46.6187 67.2358 46.9604 67.2915 47.3781 67.2915C48.087 67.2915 48.1376 67.317 48.1376 67.6725C48.1376 68.0519 48.1325 68.0533 46.6946 68.0533C45.2729 68.0533 45.2517 68.0479 45.2517 67.6878C45.2517 67.4542 45.584 66.9545 46.1718 66.3038C47.1919 65.1749 47.3172 64.6626 46.5938 64.5787C46.2947 64.544 46.1632 64.6135 46.0898 64.8453C46.0185 65.0712 45.8616 65.1588 45.5287 65.1588C45.1023 65.1588 45.0744 65.1268 45.1657 64.7399C45.3156 64.1049 45.7894 63.7877 46.5877 63.7877C47.0921 63.7877 47.3791 63.8785 47.6342 64.1189ZM39.4148 64.6364C39.2441 64.8075 39.1761 65.174 39.1761 65.9205C39.1761 66.667 39.2441 67.0335 39.4148 67.2045C39.5461 67.3362 39.678 67.4439 39.7077 67.4439C39.7376 67.4439 39.8693 67.3362 40.0008 67.2045C40.1713 67.0335 40.2393 66.667 40.2393 65.9205C40.2393 65.174 40.1713 64.8075 40.0008 64.6364C39.8693 64.5048 39.7376 64.3971 39.7077 64.3971C39.678 64.3971 39.5461 64.5048 39.4148 64.6364ZM31.1245 64.3978L31.4656 65.4504H32.5691L31.6763 66.101L32.0174 67.1536L31.1245 66.5032L30.2318 67.1536L30.5728 66.101L29.68 65.4504H30.7836L31.1245 64.3978ZM52.1237 65.4504L51.7827 64.3978L51.4416 65.4504H50.3382L51.2309 66.101L50.89 67.1536L51.7827 66.5032L52.6755 67.1536L52.3345 66.101L53.2272 65.4504H52.1237Z" fill="white" fill-opacity="0.4"/>
<rect x="39.1157" y="11" width="5" height="5" rx="2" fill="#6754E2"/>
<path d="M41.8768 12.9938C41.8692 12.8988 41.8336 12.8247 41.77 12.7716C41.7073 12.7184 41.6118 12.6918 41.4836 12.6918C41.4019 12.6918 41.3349 12.7017 41.2827 12.7217C41.2314 12.7407 41.1934 12.7668 41.1687 12.8C41.144 12.8333 41.1312 12.8713 41.1302 12.914C41.1283 12.9492 41.1345 12.981 41.1487 13.0095C41.1639 13.037 41.1877 13.0622 41.22 13.085C41.2523 13.1069 41.2936 13.1268 41.3439 13.1449C41.3943 13.1629 41.4541 13.1791 41.5235 13.1933L41.7628 13.2446C41.9243 13.2788 42.0625 13.3239 42.1775 13.38C42.2924 13.436 42.3864 13.502 42.4596 13.578C42.5327 13.6531 42.5864 13.7376 42.6206 13.8316C42.6557 13.9257 42.6738 14.0283 42.6747 14.1394C42.6738 14.3313 42.6258 14.4937 42.5308 14.6267C42.4358 14.7597 42.3 14.8608 42.1233 14.9302C41.9476 14.9995 41.7362 15.0342 41.4893 15.0342C41.2356 15.0342 41.0143 14.9967 40.8253 14.9216C40.6372 14.8466 40.4909 14.7312 40.3864 14.5754C40.2829 14.4187 40.2307 14.2182 40.2297 13.9741H40.982C40.9868 14.0634 41.0091 14.1384 41.049 14.1992C41.0889 14.26 41.1449 14.3061 41.2171 14.3374C41.2903 14.3688 41.3772 14.3845 41.4779 14.3845C41.5624 14.3845 41.6332 14.374 41.6902 14.3531C41.7472 14.3322 41.7904 14.3033 41.8198 14.2662C41.8493 14.2292 41.8645 14.1869 41.8654 14.1394C41.8645 14.0948 41.8498 14.0558 41.8213 14.0226C41.7937 13.9884 41.7481 13.958 41.6845 13.9314C41.6208 13.9038 41.5349 13.8782 41.4266 13.8544L41.1359 13.7917C40.8775 13.7357 40.6738 13.6421 40.5247 13.511C40.3765 13.379 40.3029 13.199 40.3038 12.971C40.3029 12.7858 40.3522 12.6238 40.452 12.4852C40.5527 12.3455 40.6918 12.2368 40.8695 12.1589C41.048 12.081 41.2527 12.042 41.4836 12.042C41.7191 12.042 41.9229 12.0815 42.0948 12.1603C42.2668 12.2391 42.3993 12.3503 42.4924 12.4937C42.5864 12.6362 42.6339 12.8029 42.6348 12.9938H41.8768Z" fill="#A498EE"/>
</g>
<defs>
<clipPath id="clip0_1_28">
<rect width="80.19" height="79.4263" fill="white" transform="translate(0.927246 0.873291)"/>
</clipPath>
</defs>
</svg>
