<svg width="133" height="44" viewBox="0 0 133 44" fill="none" xmlns="http://www.w3.org/2000/svg">
<path d="M122.409 -0.000101141H10.5973C10.1897 -0.000101141 9.78703 -0.000101141 9.38054 0.00209886C9.04027 0.00429886 8.70271 0.0106899 8.35918 0.0160689C7.61286 0.0247608 6.86829 0.0897427 6.13195 0.21045C5.39665 0.333785 4.68438 0.566306 4.01923 0.90015C3.3549 1.23682 2.74787 1.67428 2.22019 2.19668C1.68973 2.7176 1.24756 3.31972 0.910662 3.97987C0.572839 4.63872 0.338591 5.34473 0.216009 6.07353C0.0922621 6.8014 0.0256726 7.53767 0.0168384 8.27573C0.00652418 8.61299 0.00543496 8.95137 0 9.28867V34.7144C0.00543496 35.0559 0.00652418 35.3868 0.0168384 35.7284C0.0256753 36.4665 0.0922648 37.2027 0.216009 37.9305C0.338253 38.6598 0.572514 39.3662 0.910662 40.0253C1.2474 40.6833 1.68964 41.283 2.22019 41.801C2.74587 42.3257 3.35329 42.7635 4.01923 43.0976C4.68437 43.4323 5.39656 43.6662 6.13195 43.7914C6.86842 43.9112 7.6129 43.9762 8.35918 43.9859C8.70271 43.9934 9.04027 43.9977 9.38054 43.9977C9.78701 43.9999 10.1897 43.9999 10.5973 43.9999H122.409C122.808 43.9999 123.214 43.9999 123.614 43.9977C123.952 43.9977 124.299 43.9934 124.638 43.9859C125.383 43.9767 126.126 43.9117 126.861 43.7914C127.599 43.6653 128.314 43.4315 128.982 43.0976C129.647 42.7633 130.254 42.3255 130.779 41.801C131.309 41.2809 131.752 40.6817 132.093 40.0253C132.428 39.3657 132.66 38.6593 132.781 37.9305C132.905 37.2026 132.974 36.4665 132.987 35.7284C132.991 35.3868 132.991 35.0559 132.991 34.7144C133 34.3147 133 33.9173 133 33.5112V10.4896C133 10.0868 133 9.6872 132.991 9.28867C132.991 8.95137 132.991 8.61299 132.987 8.27568C132.974 7.53756 132.905 6.80146 132.781 6.07348C132.66 5.34511 132.428 4.63915 132.093 3.97983C131.407 2.65661 130.319 1.57953 128.982 0.900051C128.314 0.567023 127.599 0.334563 126.861 0.210351C126.126 0.0891119 125.383 0.0241074 124.638 0.0159149C124.299 0.0105469 123.952 0.00410086 123.614 0.00195586C123.214 -0.000244141 122.808 -0.000244141 122.409 -0.000244141V-0.000101141Z" fill="#A6A6A6"/>
<path d="M9.38587 43.0374C9.04724 43.0374 8.71678 43.0331 8.38081 43.0256C7.6848 43.0167 6.99042 42.9567 6.30336 42.8462C5.66271 42.737 5.0421 42.5339 4.46199 42.2435C3.88719 41.9556 3.36294 41.578 2.9093 41.1253C2.44909 40.6779 2.06595 40.159 1.77506 39.5891C1.48096 39.0156 1.27742 38.4008 1.17154 37.7662C1.0572 37.0843 0.995338 36.3948 0.986486 35.7037C0.97944 35.4717 0.970215 34.6993 0.970215 34.6993V9.28868C0.970215 9.28868 0.98004 8.52813 0.986542 8.30468C0.995018 7.61463 1.05652 6.92622 1.17052 6.24541C1.27659 5.60908 1.48029 4.99253 1.77455 4.4171C2.06437 3.84764 2.44538 3.32835 2.90282 2.87935C3.35974 2.42609 3.88567 2.04657 4.46144 1.75463C5.04022 1.46521 5.65966 1.26351 6.29901 1.1563C6.98833 1.04472 7.68512 0.984398 8.38354 0.975833L9.38642 0.962402H123.608L124.623 0.976372C125.315 0.984511 126.005 1.0443 126.688 1.15522C127.334 1.26377 127.96 1.46688 128.545 1.75786C129.699 2.34619 130.638 3.27698 131.23 4.41978C131.519 4.99124 131.72 5.60276 131.824 6.23359C131.94 6.91999 132.004 7.61381 132.018 8.30952C132.021 8.62104 132.021 8.95566 132.021 9.28868C132.03 9.70118 132.03 10.0938 132.03 10.4896V33.5112C132.03 33.9108 132.03 34.3008 132.021 34.6939C132.021 35.0516 132.021 35.3793 132.016 35.7166C132.004 36.3999 131.94 37.0813 131.827 37.7554C131.723 38.3946 131.52 39.0142 131.226 39.5924C130.933 40.1561 130.552 40.6705 130.098 41.1167C129.644 41.5719 129.118 41.9516 128.542 42.2414C127.958 42.534 127.333 42.7379 126.688 42.8462C126.001 42.9573 125.307 43.0173 124.611 43.0256C124.285 43.0331 123.944 43.0374 123.613 43.0374L122.409 43.0396L9.38587 43.0374Z" fill="black"/>
<path d="M27.5294 22.3303C27.5414 21.4122 27.7878 20.512 28.2457 19.7134C28.7037 18.9149 29.3582 18.2439 30.1486 17.763C29.6465 17.0534 28.9841 16.4693 28.2141 16.0573C27.4441 15.6453 26.5876 15.4167 25.7126 15.3896C23.8463 15.1957 22.0369 16.4949 21.0858 16.4949C20.1163 16.4949 18.652 15.4088 17.0752 15.441C16.0552 15.4736 15.0612 15.7671 14.19 16.293C13.3187 16.8188 12.6 17.5591 12.1038 18.4416C9.95422 22.1249 11.5576 27.538 13.6166 30.5153C14.6468 31.9732 15.8509 33.6017 17.4263 33.5439C18.9679 33.4806 19.5437 32.571 21.4046 32.571C23.2482 32.571 23.7884 33.5439 25.3958 33.5072C27.05 33.4806 28.0923 32.0429 29.0863 30.5712C29.8265 29.5324 30.3961 28.3843 30.774 27.1694C29.8129 26.7671 28.9927 26.0937 28.4158 25.2332C27.8388 24.3727 27.5305 23.3631 27.5294 22.3303Z" fill="white"/>
<path d="M24.4931 13.4322C25.3951 12.3606 25.8395 10.9832 25.7319 9.59253C24.3539 9.73577 23.081 10.3876 22.1668 11.4181C21.7199 11.9215 21.3775 12.5072 21.1594 13.1417C20.9413 13.7761 20.8517 14.4469 20.8956 15.1156C21.5849 15.1227 22.2668 14.9748 22.8899 14.6832C23.5131 14.3916 24.0612 13.9639 24.4931 13.4322Z" fill="white"/>
<path d="M47.0168 29.8534H41.7559L40.4925 33.5455H38.2642L43.2472 19.8857H45.5624L50.5454 33.5455H48.2791L47.0168 29.8534ZM42.3007 28.1497H46.4709L44.4151 22.1577H44.3576L42.3007 28.1497Z" fill="white"/>
<path d="M61.3069 28.5661C61.3069 31.6609 59.6332 33.6493 57.1075 33.6493C56.4677 33.6824 55.8314 33.5366 55.2715 33.2284C54.7115 32.9203 54.2506 32.4623 53.9414 31.9069H53.8936V36.8397H51.8281V23.586H53.8275V25.2425H53.8654C54.1888 24.6898 54.6576 24.2341 55.2218 23.9241C55.786 23.6141 56.4245 23.4612 57.0695 23.4818C59.6234 23.4818 61.3069 25.4799 61.3069 28.5661ZM59.1839 28.5661C59.1839 26.5498 58.131 25.2242 56.5247 25.2242C54.9465 25.2242 53.885 26.5777 53.885 28.5661C53.885 30.5727 54.9465 31.9166 56.5247 31.9166C58.131 31.9166 59.1839 30.6007 59.1839 28.5661Z" fill="white"/>
<path d="M72.3826 28.5663C72.3826 31.6612 70.7089 33.6495 68.1832 33.6495C67.5434 33.6827 66.9071 33.5368 66.3472 33.2286C65.7872 32.9205 65.3263 32.4625 65.0171 31.9071H64.9693V36.84H62.9038V23.5863H64.9031V25.2427H64.9411C65.2645 24.69 65.7332 24.2344 66.2974 23.9244C66.8616 23.6143 67.5002 23.4615 68.1452 23.4821C70.6991 23.4821 72.3826 25.4801 72.3826 28.5663ZM70.2596 28.5663C70.2596 26.55 69.2067 25.2244 67.6003 25.2244C66.0222 25.2244 64.9607 26.578 64.9607 28.5663C64.9607 30.573 66.0222 31.9168 67.6003 31.9168C69.2067 31.9168 70.2596 30.6009 70.2596 28.5663H70.2596Z" fill="white"/>
<path d="M79.7023 29.7396C79.8553 31.0942 81.1849 31.9836 83.0019 31.9836C84.7429 31.9836 85.9954 31.0941 85.9954 29.8727C85.9954 28.8125 85.24 28.1776 83.4512 27.7425L81.6625 27.3161C79.1281 26.7102 77.9515 25.5372 77.9515 23.6336C77.9515 21.2768 80.0268 19.658 82.9737 19.658C85.8901 19.658 87.8894 21.2768 87.9567 23.6336H85.8716C85.7468 22.2705 84.6082 21.4476 82.9443 21.4476C81.2804 21.4476 80.1418 22.2801 80.1418 23.4919C80.1418 24.4576 80.8691 25.0258 82.648 25.4609L84.1686 25.8304C87.0004 26.4932 88.177 27.619 88.177 29.617C88.177 32.1726 86.1202 33.7732 82.8488 33.7732C79.788 33.7732 77.7214 32.2102 77.5879 29.7395L79.7023 29.7396Z" fill="white"/>
<path d="M92.6351 21.2305V23.5873H94.5486V25.2062H92.6351V30.6965C92.6351 31.5494 93.0182 31.9469 93.8594 31.9469C94.0866 31.943 94.3134 31.9272 94.5388 31.8996V33.5088C94.1607 33.5787 93.7763 33.6104 93.3916 33.6033C91.3543 33.6033 90.5598 32.846 90.5598 30.9145V25.2062H89.0967V23.5873H90.5598V21.2305H92.6351Z" fill="white"/>
<path d="M95.6567 28.5674C95.6567 25.4339 97.5214 23.4648 100.429 23.4648C103.347 23.4648 105.203 25.4338 105.203 28.5674C105.203 31.7095 103.357 33.6699 100.429 33.6699C97.5029 33.6699 95.6567 31.7095 95.6567 28.5674ZM103.098 28.5674C103.098 26.4179 102.103 25.1492 100.429 25.1492C98.7555 25.1492 97.7613 26.4275 97.7613 28.5674C97.7613 30.7255 98.7555 31.9845 100.429 31.9845C102.103 31.9845 103.098 30.7255 103.098 28.5674H103.098Z" fill="white"/>
<path d="M106.906 23.5862H108.876V25.2813H108.924C109.057 24.7519 109.37 24.284 109.811 23.9563C110.252 23.6286 110.793 23.4611 111.344 23.482C111.582 23.4811 111.819 23.5067 112.052 23.5582V25.4703C111.751 25.3795 111.438 25.3377 111.124 25.3468C110.824 25.3348 110.524 25.3871 110.247 25.5003C109.969 25.6135 109.719 25.7848 109.515 26.0025C109.31 26.2201 109.156 26.479 109.062 26.7614C108.968 27.0437 108.937 27.3428 108.971 27.6381V33.5452H106.906L106.906 23.5862Z" fill="white"/>
<path d="M121.575 30.6213C121.297 32.4292 119.518 33.6699 117.242 33.6699C114.315 33.6699 112.498 31.7288 112.498 28.6146C112.498 25.4908 114.324 23.4648 117.155 23.4648C119.939 23.4648 121.69 25.3576 121.69 28.3772V29.0776H114.583V29.2012C114.55 29.5677 114.596 29.9369 114.719 30.2843C114.841 30.6318 115.037 30.9494 115.293 31.2162C115.549 31.483 115.859 31.6929 116.204 31.8318C116.548 31.9707 116.918 32.0356 117.29 32.0221C117.778 32.0673 118.268 31.9554 118.686 31.7031C119.105 31.4507 119.43 31.0713 119.613 30.6213L121.575 30.6213ZM114.592 27.6489H119.623C119.642 27.3194 119.591 26.9896 119.475 26.6802C119.359 26.3709 119.179 26.0887 118.947 25.8514C118.715 25.614 118.437 25.4267 118.128 25.301C117.82 25.1754 117.488 25.1142 117.155 25.1213C116.819 25.1193 116.485 25.1833 116.174 25.3095C115.863 25.4357 115.58 25.6217 115.342 25.8567C115.103 26.0917 114.914 26.371 114.786 26.6786C114.657 26.9863 114.592 27.316 114.592 27.6489V27.6489Z" fill="white"/>
<path d="M42.0419 9.60437C42.475 9.57362 42.9095 9.63836 43.3142 9.79394C43.7189 9.94952 44.0837 10.192 44.3822 10.504C44.6807 10.816 44.9055 11.1897 45.0405 11.5981C45.1754 12.0065 45.2171 12.4394 45.1625 12.8657C45.1625 14.9626 44.0174 16.1679 42.0419 16.1679H39.6465V9.60437H42.0419ZM40.6765 15.2397H41.9269C42.2363 15.258 42.546 15.2078 42.8333 15.0927C43.1207 14.9776 43.3785 14.8006 43.588 14.5744C43.7975 14.3483 43.9534 14.0788 44.0444 13.7855C44.1354 13.4923 44.1592 13.1826 44.114 12.8791C44.1559 12.5768 44.1297 12.269 44.0373 11.9779C43.9449 11.6867 43.7886 11.4194 43.5796 11.1951C43.3706 10.9708 43.114 10.795 42.8283 10.6803C42.5426 10.5657 42.2347 10.515 41.9269 10.5319H40.6765V15.2397Z" fill="white"/>
<path d="M46.3261 13.6899C46.2946 13.3644 46.3323 13.036 46.4366 12.7257C46.5409 12.4154 46.7095 12.1301 46.9318 11.8881C47.154 11.6462 47.4249 11.4528 47.727 11.3205C48.0291 11.1882 48.3559 11.1199 48.6863 11.1199C49.0167 11.1199 49.3434 11.1882 49.6456 11.3205C49.9477 11.4528 50.2186 11.6462 50.4408 11.8881C50.6631 12.1301 50.8317 12.4154 50.936 12.7257C51.0403 13.036 51.078 13.3644 51.0465 13.6899C51.0785 14.0157 51.0414 14.3446 50.9373 14.6554C50.8333 14.9662 50.6648 15.252 50.4425 15.4944C50.2202 15.7369 49.9491 15.9306 49.6467 16.0632C49.3442 16.1958 49.0171 16.2643 48.6863 16.2643C48.3555 16.2643 48.0284 16.1958 47.7259 16.0632C47.4235 15.9306 47.1524 15.7369 46.9301 15.4944C46.7078 15.252 46.5393 14.9662 46.4352 14.6554C46.3312 14.3446 46.294 14.0157 46.3261 13.6899ZM50.0305 13.6899C50.0305 12.6162 49.5432 11.9883 48.6879 11.9883C47.8294 11.9883 47.3464 12.6162 47.3464 13.6899C47.3464 14.7722 47.8294 15.3952 48.6879 15.3952C49.5432 15.3952 50.0306 14.7679 50.0306 13.6899H50.0305Z" fill="white"/>
<path d="M57.3208 16.1678H56.2962L55.2619 12.5198H55.1837L54.1537 16.1678H53.1388L51.7593 11.2146H52.7611L53.6576 14.9942H53.7315L54.7604 11.2146H55.708L56.7369 14.9942H56.8151L57.7072 11.2146H58.695L57.3208 16.1678Z" fill="white"/>
<path d="M59.8555 11.2143H60.8063V12.0011H60.8801C61.0053 11.7185 61.2165 11.4816 61.4842 11.3234C61.7519 11.1652 62.0628 11.0936 62.3736 11.1186C62.6171 11.1005 62.8616 11.1369 63.089 11.225C63.3164 11.3131 63.5209 11.4507 63.6872 11.6276C63.8536 11.8045 63.9776 12.0163 64.0501 12.2471C64.1226 12.4779 64.1416 12.7218 64.1059 12.9609V16.1674H63.1182V13.2064C63.1182 12.4104 62.7687 12.0146 62.0382 12.0146C61.8729 12.0069 61.7078 12.0348 61.5544 12.0962C61.4009 12.1576 61.2627 12.2511 61.1492 12.3704C61.0357 12.4896 60.9496 12.6317 60.8968 12.7869C60.8439 12.9422 60.8257 13.1069 60.8432 13.2698V16.1675H59.8555L59.8555 11.2143Z" fill="white"/>
<path d="M65.6797 9.28101H66.6674V16.1678H65.6797V9.28101Z" fill="white"/>
<path d="M68.0404 13.6883C68.009 13.3627 68.0466 13.0343 68.151 12.724C68.2553 12.4137 68.424 12.1284 68.6462 11.8864C68.8685 11.6445 69.1394 11.4511 69.4415 11.3188C69.7437 11.1865 70.0705 11.1182 70.4009 11.1182C70.7313 11.1182 71.0581 11.1865 71.3602 11.3188C71.6624 11.4511 71.9333 11.6445 72.1556 11.8864C72.3778 12.1284 72.5465 12.4137 72.6508 12.724C72.7551 13.0343 72.7928 13.3627 72.7613 13.6883C72.7934 14.0141 72.7562 14.343 72.6521 14.6538C72.548 14.9646 72.3794 15.2504 72.1571 15.4928C71.9348 15.7353 71.6638 15.929 71.3613 16.0616C71.0588 16.1942 70.7317 16.2627 70.4009 16.2627C70.0701 16.2627 69.7429 16.1942 69.4405 16.0616C69.138 15.929 68.8669 15.7353 68.6446 15.4928C68.4223 15.2504 68.2537 14.9646 68.1497 14.6538C68.0456 14.343 68.0084 14.0141 68.0404 13.6883ZM71.7449 13.6883C71.7449 12.6146 71.2575 11.9867 70.4022 11.9867C69.5437 11.9867 69.0607 12.6146 69.0607 13.6883C69.0607 14.7706 69.5437 15.3936 70.4022 15.3936C71.2575 15.3936 71.7449 14.7663 71.7449 13.6883H71.7449Z" fill="white"/>
<path d="M73.8013 14.7679C73.8013 13.8763 74.472 13.3623 75.6627 13.2892L77.0184 13.2119V12.7844C77.0184 12.2612 76.6689 11.9658 75.9938 11.9658C75.4424 11.9658 75.0603 12.1662 74.9507 12.5164H73.9945C74.0954 11.6656 74.904 11.1199 76.0394 11.1199C77.2941 11.1199 78.0018 11.7381 78.0018 12.7844V16.1687H77.0509V15.4726H76.9728C76.8142 15.7223 76.5914 15.9259 76.3273 16.0625C76.0632 16.1991 75.7672 16.2639 75.4695 16.2503C75.2594 16.2719 75.0471 16.2498 74.8462 16.1852C74.6453 16.1206 74.4603 16.0151 74.3031 15.8754C74.1459 15.7358 74.02 15.5651 73.9336 15.3743C73.8472 15.1835 73.8021 14.977 73.8013 14.7679ZM77.0184 14.3447V13.9306L75.7962 14.0079C75.107 14.0536 74.7944 14.2856 74.7944 14.7223C74.7944 15.168 75.1851 15.4275 75.7225 15.4275C75.8799 15.4432 76.0389 15.4275 76.1901 15.3812C76.3412 15.3349 76.4814 15.259 76.6024 15.158C76.7233 15.0569 76.8224 14.9329 76.8939 14.7932C76.9653 14.6534 77.0077 14.5009 77.0184 14.3447Z" fill="white"/>
<path d="M79.2998 13.6891C79.2998 12.1239 80.1128 11.1324 81.3773 11.1324C81.69 11.1182 82.0005 11.1923 82.2722 11.3462C82.544 11.5001 82.7659 11.7274 82.912 12.0014H82.9858V9.28101H83.9735V16.1678H83.0271V15.3852H82.9489C82.7915 15.6575 82.5619 15.8819 82.2849 16.0343C82.0078 16.1866 81.694 16.261 81.3773 16.2494C80.1041 16.2495 79.2998 15.258 79.2998 13.6891ZM80.3201 13.6891C80.3201 14.7397 80.8205 15.3718 81.6573 15.3718C82.4898 15.3718 83.0043 14.7305 83.0043 13.6934C83.0043 12.6611 82.4844 12.0106 81.6573 12.0106C80.8259 12.0106 80.3201 12.6471 80.3201 13.6891H80.3201Z" fill="white"/>
<path d="M88.06 13.6899C88.0285 13.3644 88.0662 13.036 88.1704 12.7257C88.2747 12.4154 88.4434 12.1301 88.6656 11.8881C88.8879 11.6462 89.1587 11.4528 89.4609 11.3205C89.763 11.1882 90.0898 11.1199 90.4202 11.1199C90.7506 11.1199 91.0773 11.1882 91.3795 11.3205C91.6816 11.4528 91.9525 11.6462 92.1747 11.8881C92.3969 12.1301 92.5656 12.4154 92.6699 12.7257C92.7742 13.036 92.8118 13.3644 92.7804 13.6899C92.8124 14.0157 92.7753 14.3446 92.6712 14.6554C92.5672 14.9662 92.3986 15.252 92.1764 15.4944C91.9541 15.7369 91.683 15.9306 91.3806 16.0632C91.0781 16.1958 90.751 16.2643 90.4202 16.2643C90.0894 16.2643 89.7623 16.1958 89.4598 16.0632C89.1574 15.9306 88.8863 15.7369 88.664 15.4944C88.4417 15.252 88.2731 14.9662 88.1691 14.6554C88.0651 14.3446 88.0279 14.0157 88.06 13.6899ZM91.7644 13.6899C91.7644 12.6162 91.2771 11.9883 90.4218 11.9883C89.5633 11.9883 89.0803 12.6162 89.0803 13.6899C89.0803 14.7722 89.5633 15.3952 90.4218 15.3952C91.2771 15.3952 91.7644 14.7679 91.7644 13.6899Z" fill="white"/>
<path d="M94.1055 11.2143H95.0563V12.0011H95.1301C95.2553 11.7185 95.4665 11.4816 95.7342 11.3234C96.0019 11.1652 96.3128 11.0936 96.6236 11.1186C96.8671 11.1005 97.1116 11.1369 97.339 11.225C97.5664 11.3131 97.7709 11.4507 97.9372 11.6276C98.1036 11.8045 98.2276 12.0163 98.3001 12.2471C98.3725 12.4779 98.3916 12.7218 98.3559 12.9609V16.1674H97.3682V13.2064C97.3682 12.4104 97.0187 12.0146 96.2882 12.0146C96.1229 12.0069 95.9578 12.0348 95.8044 12.0962C95.6509 12.1576 95.5127 12.2511 95.3992 12.3704C95.2857 12.4896 95.1996 12.6317 95.1468 12.7869C95.0939 12.9422 95.0757 13.1069 95.0932 13.2698V16.1675H94.1055V11.2143Z" fill="white"/>
<path d="M103.937 9.98145V11.2372H105.021V12.0606H103.937V14.6076C103.937 15.1264 104.153 15.3536 104.645 15.3536C104.771 15.3532 104.896 15.3457 105.021 15.3311V16.1453C104.844 16.1767 104.664 16.1934 104.484 16.1953C103.386 16.1953 102.948 15.8128 102.948 14.8579V12.0606H102.154V11.2372H102.948V9.98145H103.937Z" fill="white"/>
<path d="M106.371 9.28101H107.35V12.0106H107.428C107.559 11.7253 107.776 11.4871 108.049 11.3283C108.322 11.1695 108.638 11.0979 108.954 11.1233C109.196 11.1103 109.438 11.1503 109.663 11.2405C109.888 11.3308 110.09 11.469 110.254 11.6454C110.419 11.8218 110.542 12.0319 110.615 12.2609C110.689 12.4898 110.71 12.7319 110.677 12.9699V16.1678H109.689V13.211C109.689 12.4199 109.316 12.0192 108.619 12.0192C108.449 12.0054 108.278 12.0285 108.118 12.0869C107.958 12.1452 107.813 12.2374 107.693 12.357C107.573 12.4766 107.481 12.6208 107.423 12.7793C107.365 12.9379 107.343 13.107 107.358 13.2749V16.1678H106.371L106.371 9.28101Z" fill="white"/>
<path d="M116.436 14.8297C116.302 15.2824 116.011 15.6739 115.615 15.9359C115.219 16.1979 114.742 16.3135 114.268 16.2627C113.938 16.2713 113.61 16.2088 113.308 16.0795C113.005 15.9502 112.734 15.7573 112.514 15.514C112.294 15.2708 112.13 14.983 112.034 14.6708C111.937 14.3586 111.911 14.0294 111.956 13.706C111.912 13.3817 111.939 13.0517 112.035 12.7386C112.131 12.4255 112.294 12.1364 112.513 11.891C112.732 11.6457 113.001 11.4497 113.303 11.3163C113.605 11.183 113.933 11.1155 114.263 11.1182C115.656 11.1182 116.496 12.0598 116.496 13.6152V13.9563H112.962V14.0111C112.947 14.1929 112.97 14.3759 113.03 14.5483C113.09 14.7207 113.186 14.8788 113.311 15.0124C113.437 15.146 113.589 15.2522 113.759 15.3241C113.928 15.396 114.111 15.4322 114.295 15.4301C114.531 15.4582 114.771 15.4161 114.983 15.3092C115.195 15.2022 115.37 15.0353 115.486 14.8296L116.436 14.8297ZM112.962 13.2334H115.49C115.502 13.0671 115.48 12.9002 115.423 12.7432C115.366 12.5862 115.277 12.4427 115.161 12.3218C115.045 12.201 114.905 12.1055 114.749 12.0415C114.594 11.9775 114.426 11.9464 114.258 11.9502C114.087 11.9481 113.918 11.9799 113.759 12.0436C113.601 12.1073 113.457 12.2018 113.337 12.3214C113.216 12.4409 113.121 12.5832 113.056 12.7399C112.992 12.8965 112.96 13.0643 112.962 13.2334H112.962Z" fill="white"/>
</svg>
