<svg width="149" height="44" viewBox="0 0 149 44" fill="none" xmlns="http://www.w3.org/2000/svg">
<g clip-path="url(#clip0_2922_8023)">
<path d="M143.274 43.8906H5.61663C2.58818 43.8906 0.110352 41.4279 0.110352 38.418V5.58217C0.110352 2.57222 2.58818 0.109531 5.61663 0.109531H143.274C146.302 0.109531 148.78 2.57222 148.78 5.58217V38.418C148.78 41.4279 146.302 43.8906 143.274 43.8906Z" fill="black"/>
<path d="M143.274 0.109531H5.61663C2.58818 0.109531 0.110352 2.57222 0.110352 5.58217V38.418C0.110352 41.4279 2.58818 43.8906 5.61663 43.8906H143.274C146.302 43.8906 148.78 41.4279 148.78 38.418V5.58217C148.78 2.57222 146.302 0.109531 143.274 0.109531ZM143.274 0.985153C145.824 0.985153 147.899 3.04768 147.899 5.58217V38.418C147.899 40.9529 145.824 43.0154 143.274 43.0154H5.61663C3.06656 43.0154 0.991357 40.9529 0.991357 38.418V5.58217C0.991357 3.04768 3.06656 0.985153 5.61663 0.985153H143.274Z" fill="#A6A6A6"/>
<path d="M52.3301 11.321C52.3301 12.238 52.0569 12.9683 51.5096 13.513C50.8881 14.1608 50.078 14.4849 49.0821 14.4849C48.1284 14.4849 47.3176 14.1565 46.6508 13.4989C45.9828 12.8418 45.6494 12.0269 45.6494 11.0546C45.6494 10.0819 45.9828 9.26747 46.6508 8.60988C47.3176 7.95272 48.1284 7.62393 49.0821 7.62393C49.5553 7.62393 50.0084 7.71587 50.4386 7.89931C50.8687 8.08319 51.2137 8.32727 51.4719 8.63297L50.8911 9.21055C50.4536 8.69109 49.8514 8.43158 49.0821 8.43158C48.3866 8.43158 47.7852 8.67445 47.2776 9.16053C46.7699 9.64716 46.5162 10.2782 46.5162 11.0546C46.5162 11.8311 46.7699 12.4621 47.2776 12.9487C47.7852 13.4348 48.3866 13.6776 49.0821 13.6776C49.82 13.6776 50.4351 13.4335 50.9276 12.9444C51.2473 12.6258 51.4322 12.183 51.4817 11.6142H49.0821V10.8254H52.284C52.315 10.9969 52.3301 11.1615 52.3301 11.321Z" fill="white"/>
<path d="M52.3303 11.3212H52.2202C52.2193 12.2173 51.956 12.9133 51.432 13.4358L51.4308 13.4367L51.4304 13.4376C50.8286 14.063 50.055 14.3743 49.0824 14.3756C48.1542 14.3743 47.3772 14.0596 46.7285 13.4217C46.0811 12.7825 45.761 12.0022 45.7598 11.0548C45.761 10.1069 46.0811 9.32707 46.7285 8.6883C47.3772 8.04997 48.1542 7.73486 49.0824 7.73355C49.5414 7.73355 49.9785 7.82253 50.3953 7.99995C50.8126 8.17869 51.1422 8.41292 51.3878 8.70373L51.4721 8.63314L51.3943 8.55576L50.8135 9.13378L50.8913 9.21072L50.9761 9.14067C50.5183 8.59549 49.8757 8.32065 49.0824 8.32229C48.3611 8.32142 47.7265 8.57754 47.2017 9.08211C46.6718 9.58833 46.4055 10.2548 46.4063 11.0548C46.4055 11.8548 46.6718 12.5212 47.2017 13.0274C47.7265 13.532 48.3611 13.7881 49.0824 13.7873C49.8447 13.7886 50.4943 13.5316 51.0058 13.022C51.3474 12.6816 51.541 12.2101 51.5917 11.6238L51.602 11.505H49.1925V10.935H52.2843V10.8256L52.1758 10.8448C52.206 11.0108 52.2202 11.1685 52.2202 11.3212H52.3303H52.4405C52.4405 11.1548 52.4249 10.9839 52.3927 10.806L52.3764 10.7161H48.9723V11.6144V11.7239H51.4819V11.6144L51.3722 11.605C51.3237 12.1558 51.1473 12.5705 50.85 12.8672C50.3768 13.3358 49.7961 13.567 49.0824 13.5684C48.4126 13.5675 47.8444 13.3383 47.3544 12.8702C46.8692 12.4037 46.6278 11.8081 46.6266 11.0548C46.6278 10.3014 46.8692 9.70588 47.3544 9.2394C47.8444 8.77127 48.4126 8.54207 49.0824 8.5412C49.8271 8.54295 50.3894 8.78747 50.8071 9.28132L50.8845 9.37282L51.55 8.71052L51.6213 8.6396L51.5564 8.56298C51.2858 8.24239 50.9254 7.98791 50.4822 7.799C50.0383 7.60954 49.5698 7.51464 49.0824 7.51464C48.1034 7.51377 47.2585 7.85581 46.5732 8.53266C45.8853 9.2082 45.5387 10.0573 45.5396 11.0548C45.5387 12.0518 45.8853 12.9014 46.5736 13.5773C47.2585 14.2538 48.1034 14.5954 49.0824 14.5945C50.1019 14.5954 50.9477 14.2588 51.5895 13.5888L51.5099 13.5132L51.5878 13.5906C52.1582 13.0241 52.4412 12.2588 52.4405 11.3212H52.3303Z" fill="white"/>
<path d="M57.4062 8.57799H54.3971V10.6602H57.1107V11.4494H54.3971V13.5316H57.4062V14.3384H53.5488V7.77121H57.4062V8.57799Z" fill="white"/>
<path d="M57.406 8.57791V8.46846H54.2868V10.7696H57.0004V11.3395L54.2868 11.3398V13.641H57.2959V14.2288H53.6587V7.88059H57.2959V8.57791H57.406V8.46846V8.57791H57.5161V7.77114V7.66168H53.4385V14.4478H57.5161V13.5315V13.4221H54.507V11.5588H57.2206V10.6601V10.5507H54.507V8.68737H57.5161V8.57791H57.406Z" fill="white"/>
<path d="M60.9866 14.3384H60.137V8.57799H58.2915V7.77121H62.8321V8.57799H60.9866V14.3384Z" fill="white"/>
<path d="M60.9864 14.3383V14.2288H60.2469V8.46846H58.4014V7.88059H62.7217V8.46846H60.8763V14.3383H60.9864V14.2288V14.3383H61.0965V8.68737H62.942V7.77114V7.66168H58.1812V8.57791V8.68737H60.0266V14.4478H60.9864H61.0965V14.3383H60.9864Z" fill="white"/>
<path d="M66.1172 14.3384V7.77121H66.9659V14.3384H66.1172Z" fill="white"/>
<path d="M66.1174 14.3383H66.2276V7.88059H66.8561V14.2288H66.1174V14.3383H66.2276H66.1174V14.4478H66.9662H67.0763V7.66168H66.1174H66.0073V14.4478H66.1174V14.3383Z" fill="white"/>
<path d="M70.7321 14.3384H69.8825V8.57799H68.0371V7.77121H72.5776V8.57799H70.7321V14.3384Z" fill="white"/>
<path d="M70.7324 14.3383V14.2288H69.9929V8.46846H68.1475V7.88059H72.4677V8.46846H70.6222V14.3383H70.7324V14.2288V14.3383H70.8425V8.68737H72.688V7.77114V7.66168H67.9272V8.57791V8.68737H69.7726V14.4478H70.7324H70.8425V14.3383H70.7324Z" fill="white"/>
<path d="M76.9552 12.9397C77.4443 13.4318 78.0427 13.6776 78.7504 13.6776C79.458 13.6776 80.0568 13.4318 80.5451 12.9397C81.0346 12.4476 81.2798 11.8186 81.2798 11.0546C81.2798 10.2906 81.0346 9.66161 80.5451 9.16951C80.0568 8.67741 79.458 8.43158 78.7504 8.43158C78.0427 8.43158 77.4443 8.67741 76.9552 9.16951C76.4669 9.66161 76.2218 10.2906 76.2218 11.0546C76.2218 11.8186 76.4669 12.4476 76.9552 12.9397ZM81.1731 13.4895C80.5235 14.1534 79.7156 14.4849 78.7504 14.4849C77.7841 14.4849 76.9767 14.1534 76.3285 13.4895C75.6784 12.8263 75.355 12.0145 75.355 11.0546C75.355 10.0947 75.6784 9.28279 76.3285 8.61973C76.9767 7.95568 77.7841 7.62393 78.7504 7.62393C79.7105 7.62393 80.5162 7.95743 81.1688 8.62399C81.8206 9.29056 82.1466 10.1007 82.1466 11.0546C82.1466 12.0145 81.8213 12.8263 81.1731 13.4895Z" fill="white"/>
<path d="M76.9555 12.9399L76.8772 13.0168C77.3844 13.5286 78.0172 13.7886 78.7506 13.7873C79.4836 13.7886 80.1173 13.5286 80.6237 13.0168C81.1342 12.5046 81.391 11.8419 81.3902 11.0548C81.391 10.2677 81.1342 9.60497 80.6237 9.09273C80.1173 8.58093 79.4836 8.32098 78.7506 8.32229C78.0172 8.32098 77.3844 8.58093 76.8772 9.09273C76.3678 9.60497 76.1106 10.2677 76.1119 11.0548C76.1106 11.8419 76.3678 12.5046 76.8772 13.0168L76.9555 12.9399L77.0338 12.8629C76.5666 12.3904 76.333 11.7961 76.3322 11.0548C76.333 10.3135 76.5666 9.71913 77.0338 9.24662C77.5052 8.77422 78.0683 8.54251 78.7506 8.5412C79.4324 8.54251 79.9968 8.77422 80.4671 9.24662C80.9351 9.71913 81.1687 10.3135 81.1695 11.0548C81.1687 11.7961 80.9351 12.3904 80.4671 12.8629C79.9968 13.3353 79.4324 13.567 78.7506 13.5684C78.0683 13.567 77.5052 13.3353 77.0338 12.8629L76.9555 12.9399ZM81.1734 13.4897L81.0947 13.4136C80.4632 14.0566 79.691 14.3743 78.7506 14.3756C77.8098 14.3743 77.0376 14.0566 76.4074 13.4136L76.4044 13.4102L76.4074 13.4136C75.7772 12.7684 75.4663 11.9903 75.4654 11.0548C75.4663 10.1193 75.7772 9.34119 76.4074 8.69596C77.0376 8.05293 77.8098 7.73486 78.7506 7.73355C79.6849 7.73486 80.4554 8.05424 81.0904 8.70067C81.7227 9.34885 82.0355 10.1257 82.0368 11.0548C82.0355 11.9903 81.7236 12.7684 81.0947 13.4136L81.1734 13.4897L81.2526 13.5657C81.9202 12.8843 82.2578 12.039 82.257 11.0548C82.2578 10.0762 81.9188 9.23261 81.2482 8.54809C80.5772 7.86095 79.7366 7.51344 78.7506 7.51464C77.7595 7.51344 76.9164 7.85931 76.2496 8.54382V8.54339C75.5807 9.22528 75.2442 10.0706 75.2451 11.0548C75.2442 12.039 75.5807 12.8843 76.2496 13.5662L76.2525 13.5692L76.2496 13.5657C76.9164 14.2503 77.7595 14.5954 78.7506 14.5945C79.7413 14.5954 80.5844 14.2503 81.2526 13.5657L81.1734 13.4897Z" fill="white"/>
<path d="M83.3384 14.3384V7.77121H84.3717L87.5829 12.88H87.6195L87.5829 11.6144V7.77121H88.4326V14.3384H87.5464L84.1867 8.98198H84.1501L84.1867 10.248V14.3384H83.3384Z" fill="white"/>
<path d="M83.3382 14.3383H83.4483V7.88059H84.3103L87.5216 12.9894H87.6193H87.7324L87.6929 11.6127V7.88059H88.3222V14.2288H87.6073L84.2476 8.87245H84.1499H84.0368L84.0763 10.2497V14.2288H83.3382V14.3383H83.4483H83.3382V14.4478H84.1864H84.2966V10.2462L84.26 8.97895L84.1499 8.9819V9.09136H84.1864V8.9819L84.0931 9.04013L87.485 14.4478H88.4323H88.5425V7.66168H87.5827H87.4726V11.6157L87.5092 12.8829L87.6193 12.88V12.7705H87.5827V12.88L87.6761 12.8218L84.4325 7.66168H83.3382H83.228V14.4478H83.3382V14.3383Z" fill="white"/>
<path d="M117.875 32.9452H119.929V19.2623H117.875V32.9452ZM136.383 24.1912L134.028 30.1234H133.957L131.512 24.1912H129.299L132.965 32.4826L130.875 37.0946H133.019L138.668 24.1912H136.383ZM124.73 31.3911C124.056 31.3911 123.118 31.0567 123.118 30.229C123.118 29.1729 124.287 28.7681 125.296 28.7681C126.2 28.7681 126.624 28.9617 127.174 29.226C127.014 30.4933 125.916 31.3911 124.73 31.3911ZM124.978 23.8918C123.49 23.8918 121.949 24.5434 121.312 25.9869L123.135 26.7436C123.525 25.9869 124.251 25.7402 125.013 25.7402C126.076 25.7402 127.156 26.3742 127.174 27.5008V27.6415C126.801 27.4302 126.005 27.1135 125.03 27.1135C123.065 27.1135 121.063 28.187 121.063 30.1939C121.063 32.0247 122.675 33.2043 124.481 33.2043C125.863 33.2043 126.624 32.5882 127.103 31.8666H127.174V32.9226H129.157V27.6765C129.157 25.2476 127.333 23.8918 124.978 23.8918ZM112.278 25.8569H109.355V21.1667H112.278C113.814 21.1667 114.686 22.4309 114.686 23.5117C114.686 24.5721 113.814 25.8569 112.278 25.8569ZM112.225 19.2623H107.301V32.9452H109.355V27.7612H112.225C114.502 27.7612 116.741 26.1224 116.741 23.5117C116.741 20.9012 114.502 19.2623 112.225 19.2623ZM85.3753 31.3936C83.9557 31.3936 82.7671 30.2123 82.7671 28.5898C82.7671 26.9502 83.9557 25.7509 85.3753 25.7509C86.7769 25.7509 87.8769 26.9502 87.8769 28.5898C87.8769 30.2123 86.7769 31.3936 85.3753 31.3936ZM87.7349 24.9574H87.6639C87.2028 24.4109 86.3153 23.9171 85.1977 23.9171C82.8558 23.9171 80.7092 25.9625 80.7092 28.5898C80.7092 31.1996 82.8558 33.2274 85.1977 33.2274C86.3153 33.2274 87.2028 32.7335 87.6639 32.1696H87.7349V32.8396C87.7349 34.6208 86.7769 35.573 85.2334 35.573C83.9738 35.573 83.1931 34.6734 82.8734 33.9153L81.0818 34.6559C81.5963 35.8902 82.9625 37.4067 85.2334 37.4067C87.6462 37.4067 89.6865 35.9958 89.6865 32.5574V24.1993H87.7349V24.9574ZM91.1057 32.9452H93.1638V19.2619H91.1057V32.9452ZM96.1977 28.4312C96.1444 26.6324 97.5993 25.7158 98.6459 25.7158C99.4626 25.7158 100.154 26.1211 100.384 26.7035L96.1977 28.4312ZM102.585 26.8796C102.195 25.8389 101.005 23.9171 98.5749 23.9171C96.162 23.9171 94.1574 25.8039 94.1574 28.5723C94.1574 31.1821 96.1444 33.2274 98.8055 33.2274C100.953 33.2274 102.195 31.9225 102.709 31.1644L101.112 30.1062C100.58 30.8823 99.8525 31.3936 98.8055 31.3936C97.7589 31.3936 97.0139 30.9174 96.5346 29.9831L102.797 27.4085L102.585 26.8796ZM52.6887 25.3455V27.3203H57.4434C57.3014 28.4312 56.9289 29.2422 56.3611 29.8066C55.6694 30.4945 54.5871 31.2525 52.6887 31.2525C49.7613 31.2525 47.4727 28.9074 47.4727 25.9979C47.4727 23.0885 49.7613 20.743 52.6887 20.743C54.2678 20.743 55.4207 21.3603 56.2724 22.1538L57.674 20.7609C56.4854 19.6322 54.9062 18.7681 52.6887 18.7681C48.6789 18.7681 45.3081 22.0128 45.3081 25.9979C45.3081 29.9831 48.6789 33.2274 52.6887 33.2274C54.8534 33.2274 56.4854 32.5224 57.7627 31.1996C59.0756 29.8947 59.4838 28.0609 59.4838 26.5799C59.4838 26.1211 59.4485 25.6983 59.3771 25.3455H52.6887ZM64.8894 31.3936C63.4698 31.3936 62.2455 30.2298 62.2455 28.5723C62.2455 26.8971 63.4698 25.7509 64.8894 25.7509C66.3085 25.7509 67.5328 26.8971 67.5328 28.5723C67.5328 30.2298 66.3085 31.3936 64.8894 31.3936ZM64.8894 23.9171C62.2988 23.9171 60.1875 25.8744 60.1875 28.5723C60.1875 31.2525 62.2988 33.2274 64.8894 33.2274C67.4795 33.2274 69.5908 31.2525 69.5908 28.5723C69.5908 25.8744 67.4795 23.9171 64.8894 23.9171ZM75.1457 31.3936C73.7266 31.3936 72.5022 30.2298 72.5022 28.5723C72.5022 26.8971 73.7266 25.7509 75.1457 25.7509C76.5648 25.7509 77.7891 26.8971 77.7891 28.5723C77.7891 30.2298 76.5648 31.3936 75.1457 31.3936ZM75.1457 23.9171C72.5552 23.9171 70.4443 25.8744 70.4443 28.5723C70.4443 31.2525 72.5552 33.2274 75.1457 33.2274C77.7358 33.2274 79.8471 31.2525 79.8471 28.5723C79.8471 25.8744 77.7358 23.9171 75.1457 23.9171Z" fill="white"/>
<path d="M11.6843 35.5605L11.6024 35.4827C11.282 35.1457 11.0928 34.6224 11.0928 33.9448V34.1043V9.89771C11.0928 9.89552 11.0928 9.89388 11.0928 9.89213C11.0928 9.89421 11.0928 9.89596 11.0928 9.89815V10.0581C11.0928 9.32429 11.3134 8.77155 11.6829 8.44013L25.3273 22.0008L11.6843 35.5605ZM11.0928 9.89082C11.0928 9.83051 11.0944 9.77195 11.0975 9.71427C11.0944 9.77151 11.0928 9.83051 11.0928 9.89082ZM11.0975 9.71164C11.0975 9.71088 11.0975 9.71 11.0978 9.70913C11.0975 9.71 11.0975 9.71088 11.0975 9.71164ZM11.0978 9.70398C11.0978 9.70354 11.0978 9.70311 11.0978 9.70267C11.0978 9.70311 11.0978 9.70354 11.0978 9.70398Z" fill="url(#paint0_linear_2922_8023)"/>
<path d="M29.8746 26.6829L29.9783 26.6243L35.3666 23.5814C35.8804 23.2911 36.2228 22.9392 36.3936 22.5669C36.2232 22.9392 35.8807 23.2916 35.3666 23.5818L29.9783 26.6247L29.8746 26.6829ZM29.8759 26.5225L25.3271 22.0008L29.8754 17.4799L35.3666 20.5804C36.064 20.9742 36.4555 21.4818 36.5209 22.0004C36.5209 22.0008 36.5209 22.0017 36.5209 22.0024C36.4555 22.5198 36.064 23.0278 35.3666 23.4215L29.8759 26.5225Z" fill="url(#paint1_linear_2922_8023)"/>
<path d="M12.6569 36.0771C12.2757 36.0771 11.9432 35.954 11.6838 35.7214L11.6843 35.721C11.9436 35.9536 12.2766 36.0771 12.6578 36.0771C12.6908 36.0771 12.7244 36.0763 12.7584 36.0746C12.724 36.0763 12.6899 36.0771 12.6569 36.0771ZM12.6573 35.9168C12.2762 35.9172 11.9436 35.7937 11.6843 35.5611V35.5608L25.3273 22.001L29.876 26.5227L13.8911 35.5496C13.4488 35.7988 13.0298 35.9168 12.6573 35.9168ZM11.6804 35.7185C11.6563 35.6967 11.6326 35.6736 11.6094 35.6496L11.6804 35.7185Z" fill="url(#paint2_linear_2922_8023)"/>
<path d="M25.3275 22.001L11.6831 8.44033C11.9425 8.20818 12.2746 8.08505 12.6553 8.08505C13.0287 8.08505 13.4481 8.20348 13.8912 8.45314L29.8758 17.48L25.3275 22.001ZM29.9786 17.3779L13.8912 8.29334C13.4481 8.04356 13.0287 7.92514 12.6553 7.92514C12.6535 7.92514 12.6523 7.92514 12.6506 7.92514C12.6528 7.92514 12.6544 7.92514 12.6571 7.92514C13.0296 7.92514 13.4485 8.04313 13.8912 8.2929L29.9786 17.3779Z" fill="url(#paint3_linear_2922_8023)"/>
<path d="M12.7585 36.0745C13.1048 36.0548 13.4881 35.9363 13.8912 35.7093L29.8748 26.6829L13.8912 35.7093C13.4884 35.9368 13.1048 36.0548 12.7585 36.0745ZM11.6839 35.7213L11.6805 35.7183C11.6817 35.7192 11.683 35.7204 11.6839 35.7213ZM11.6095 35.6495L11.6025 35.6427V35.6422C11.6052 35.6448 11.6073 35.6473 11.6095 35.6495Z" fill="black"/>
<path d="M29.875 26.6829L29.9787 26.6243L29.875 26.6829Z" fill="url(#paint4_linear_2922_8023)"/>
<path d="M12.6579 36.0771C12.2767 36.0771 11.9437 35.9536 11.6844 35.721L11.6839 35.7214C11.683 35.7206 11.6817 35.7193 11.6805 35.7185L11.6095 35.6496C11.6073 35.6474 11.6052 35.6449 11.6025 35.6424L11.6844 35.5611C11.9437 35.7937 12.2763 35.9172 12.6574 35.9168C13.0299 35.9168 13.4489 35.7988 13.8912 35.5496L29.8761 26.5227L29.9785 26.6245L29.8748 26.683L13.8912 35.7095C13.4881 35.9365 13.1048 36.0549 12.7585 36.0746C12.7245 36.0763 12.6909 36.0771 12.6579 36.0771Z" fill="url(#paint5_linear_2922_8023)"/>
<path d="M11.6024 35.6428C11.282 35.3058 11.0928 34.7825 11.0928 34.1049V34.1045C11.0928 34.7825 11.282 35.3054 11.6024 35.6424V35.6428Z" fill="black"/>
<path d="M11.6024 35.6423C11.282 35.3053 11.0928 34.7825 11.0928 34.1044V33.9449C11.0928 34.6226 11.282 35.1459 11.6024 35.4829L11.6843 35.5607L11.6024 35.6423Z" fill="url(#paint6_linear_2922_8023)"/>
<path d="M11.6025 35.6423L11.6844 35.5607V35.561L11.6025 35.6423Z" fill="url(#paint7_linear_2922_8023)"/>
<path d="M36.3936 22.5669C36.4782 22.3821 36.5209 22.1924 36.5209 22.0025C36.5209 22.0021 36.5209 22.0017 36.5209 22.0017C36.5209 22.1919 36.4782 22.3817 36.3936 22.5669Z" fill="black"/>
<path d="M29.9784 26.6245L29.876 26.5227L35.3667 23.4217C36.064 23.028 36.4555 22.52 36.521 22.0026C36.521 22.1925 36.4783 22.3823 36.3937 22.5671C36.2228 22.9395 35.8805 23.2913 35.3667 23.5816L29.9784 26.6245Z" fill="url(#paint8_linear_2922_8023)"/>
<path d="M36.521 22.001V22.0005C36.5206 21.428 36.1356 20.8556 35.3668 20.4211L29.9785 17.3782H29.978L29.9785 17.3779L35.3668 20.4207C36.1365 20.8551 36.5219 21.4284 36.521 22.001Z" fill="#404040"/>
<path d="M36.5209 22.0005C36.4555 21.4819 36.064 20.9744 35.3667 20.5806L29.8755 17.48L29.9779 17.3782H29.9783L35.3667 20.4211C36.1355 20.8555 36.5205 21.4279 36.5209 22.0005Z" fill="url(#paint9_linear_2922_8023)"/>
<path d="M11.0928 9.89233C11.0928 9.8919 11.0928 9.89146 11.0928 9.89102C11.0928 9.89146 11.0928 9.8919 11.0928 9.89233ZM11.0975 9.71447C11.0975 9.7136 11.0975 9.71272 11.0975 9.71185C11.0975 9.71272 11.0975 9.7136 11.0975 9.71447ZM11.0978 9.70933C11.0978 9.70758 11.0978 9.70594 11.0978 9.70419C11.0978 9.70594 11.0978 9.70758 11.0978 9.70933ZM11.0978 9.70287C11.1616 8.57847 11.7768 7.92897 12.647 7.92514C12.2697 7.92733 11.9411 8.05047 11.6838 8.28086V8.28043L11.6807 8.28349C11.6536 8.30779 11.6279 8.33351 11.6024 8.36C11.3134 8.66395 11.131 9.11927 11.0978 9.70287Z" fill="#404040"/>
<path d="M11.0928 10.0581V9.89819C11.0928 9.89601 11.0928 9.89426 11.0928 9.89218C11.0928 9.89174 11.0928 9.8913 11.0928 9.89086C11.0928 9.83055 11.0944 9.77156 11.0975 9.71431C11.0975 9.71344 11.0975 9.71257 11.0975 9.71169C11.0975 9.71092 11.0975 9.71005 11.0978 9.70917C11.0978 9.70742 11.0978 9.70578 11.0978 9.70403C11.0978 9.70359 11.0978 9.70315 11.0978 9.70271C11.131 9.11911 11.3134 8.66379 11.6024 8.35984L11.6829 8.44017C11.3134 8.7716 11.0928 9.32433 11.0928 10.0581ZM11.6807 8.28333L11.6838 8.28026C11.6829 8.28158 11.6816 8.28245 11.6807 8.28333Z" fill="url(#paint10_linear_2922_8023)"/>
<path d="M29.8757 17.48L13.8912 8.45309C13.448 8.20342 13.0287 8.085 12.6552 8.085C12.2745 8.085 11.9424 8.20813 11.683 8.44028L11.6025 8.35994C11.628 8.33345 11.6537 8.30773 11.6808 8.28343C11.6817 8.28256 11.683 8.28168 11.6839 8.28081C11.9412 8.05041 12.2698 7.92727 12.6471 7.92509C12.648 7.92509 12.6492 7.92509 12.6505 7.92509C12.6523 7.92509 12.6535 7.92509 12.6552 7.92509C13.0287 7.92509 13.448 8.04351 13.8912 8.29328L29.9785 17.3779L29.9781 17.3782L29.8757 17.48Z" fill="url(#paint11_linear_2922_8023)"/>
</g>
<defs>
<linearGradient id="paint0_linear_2922_8023" x1="24.1174" y1="9.64236" x2="5.74888" y2="28.1238" gradientUnits="userSpaceOnUse">
<stop stop-color="#00A0FF"/>
<stop offset="0.00657445" stop-color="#00A1FF"/>
<stop offset="0.2601" stop-color="#00BEFF"/>
<stop offset="0.5122" stop-color="#00D2FF"/>
<stop offset="0.7604" stop-color="#00DFFF"/>
<stop offset="1" stop-color="#00E3FF"/>
</linearGradient>
<linearGradient id="paint1_linear_2922_8023" x1="37.3705" y1="22.0015" x2="10.7234" y2="22.0015" gradientUnits="userSpaceOnUse">
<stop stop-color="#FFE000"/>
<stop offset="0.4087" stop-color="#FFBD00"/>
<stop offset="0.7754" stop-color="#FFA500"/>
<stop offset="1" stop-color="#FF9C00"/>
</linearGradient>
<linearGradient id="paint2_linear_2922_8023" x1="27.4512" y1="24.5132" x2="2.54205" y2="49.5755" gradientUnits="userSpaceOnUse">
<stop stop-color="#FF3A44"/>
<stop offset="1" stop-color="#C31162"/>
</linearGradient>
<linearGradient id="paint3_linear_2922_8023" x1="8.14664" y1="0.302413" x2="19.2696" y2="11.4937" gradientUnits="userSpaceOnUse">
<stop stop-color="#32A071"/>
<stop offset="0.0685" stop-color="#2DA771"/>
<stop offset="0.4762" stop-color="#15CF74"/>
<stop offset="0.8009" stop-color="#06E775"/>
<stop offset="1" stop-color="#00F076"/>
</linearGradient>
<linearGradient id="paint4_linear_2922_8023" x1="37.371" y1="22.0017" x2="10.7237" y2="22.0017" gradientUnits="userSpaceOnUse">
<stop stop-color="#CCB300"/>
<stop offset="0.4087" stop-color="#CC9700"/>
<stop offset="0.7754" stop-color="#CC8400"/>
<stop offset="1" stop-color="#CC7D00"/>
</linearGradient>
<linearGradient id="paint5_linear_2922_8023" x1="27.4513" y1="24.5132" x2="2.54215" y2="49.5755" gradientUnits="userSpaceOnUse">
<stop stop-color="#CC2E36"/>
<stop offset="1" stop-color="#9C0E4E"/>
</linearGradient>
<linearGradient id="paint6_linear_2922_8023" x1="24.1175" y1="9.64252" x2="5.74893" y2="28.124" gradientUnits="userSpaceOnUse">
<stop stop-color="#008DE0"/>
<stop offset="0.00657445" stop-color="#008DE0"/>
<stop offset="0.2601" stop-color="#00A7E0"/>
<stop offset="0.5122" stop-color="#00B8E0"/>
<stop offset="0.7604" stop-color="#00C4E0"/>
<stop offset="1" stop-color="#00C7E0"/>
</linearGradient>
<linearGradient id="paint7_linear_2922_8023" x1="27.4516" y1="24.5134" x2="2.54313" y2="49.5763" gradientUnits="userSpaceOnUse">
<stop stop-color="#E0333C"/>
<stop offset="1" stop-color="#AB0F56"/>
</linearGradient>
<linearGradient id="paint8_linear_2922_8023" x1="37.3706" y1="22.0017" x2="10.7235" y2="22.0017" gradientUnits="userSpaceOnUse">
<stop stop-color="#E0C500"/>
<stop offset="0.4087" stop-color="#E0A600"/>
<stop offset="0.7754" stop-color="#E09100"/>
<stop offset="1" stop-color="#E08900"/>
</linearGradient>
<linearGradient id="paint9_linear_2922_8023" x1="37.3705" y1="22.0016" x2="10.7234" y2="22.0016" gradientUnits="userSpaceOnUse">
<stop stop-color="#FFE840"/>
<stop offset="0.4087" stop-color="#FFCE40"/>
<stop offset="0.7754" stop-color="#FFBC40"/>
<stop offset="1" stop-color="#FFB540"/>
</linearGradient>
<linearGradient id="paint10_linear_2922_8023" x1="24.1174" y1="9.6424" x2="5.74888" y2="28.1239" gradientUnits="userSpaceOnUse">
<stop stop-color="#40B8FF"/>
<stop offset="0.00657445" stop-color="#40B9FF"/>
<stop offset="0.2601" stop-color="#40CEFF"/>
<stop offset="0.5122" stop-color="#40DDFF"/>
<stop offset="0.7604" stop-color="#40E7FF"/>
<stop offset="1" stop-color="#40EAFF"/>
</linearGradient>
<linearGradient id="paint11_linear_2922_8023" x1="8.14658" y1="0.302358" x2="19.2695" y2="11.4937" gradientUnits="userSpaceOnUse">
<stop stop-color="#65B895"/>
<stop offset="0.0685" stop-color="#62BD95"/>
<stop offset="0.4762" stop-color="#50DB97"/>
<stop offset="0.8009" stop-color="#44ED98"/>
<stop offset="1" stop-color="#40F498"/>
</linearGradient>
<clipPath id="clip0_2922_8023">
<rect width="149" height="44" fill="white"/>
</clipPath>
</defs>
</svg>
