<svg width="149" height="44" viewBox="0 0 149 44" fill="none" xmlns="http://www.w3.org/2000/svg">
<g clip-path="url(#clip0_2922_7696)">
<path d="M143.274 43.8906H5.61663C2.58818 43.8906 0.110352 41.4279 0.110352 38.418V5.58217C0.110352 2.57222 2.58818 0.109531 5.61663 0.109531H143.274C146.302 0.109531 148.78 2.57222 148.78 5.58217V38.418C148.78 41.4279 146.302 43.8906 143.274 43.8906Z" fill="black"/>
<path d="M143.274 0.109531H5.61663C2.58818 0.109531 0.110352 2.57222 0.110352 5.58217V38.418C0.110352 41.4279 2.58818 43.8906 5.61663 43.8906H143.274C146.302 43.8906 148.78 41.4279 148.78 38.418V5.58217C148.78 2.57222 146.302 0.109531 143.274 0.109531ZM143.274 0.985153C145.824 0.985153 147.899 3.04768 147.899 5.58217V38.418C147.899 40.9529 145.824 43.0154 143.274 43.0154H5.61663C3.06656 43.0154 0.991357 40.9529 0.991357 38.418V5.58217C0.991357 3.04768 3.06656 0.985153 5.61663 0.985153H143.274Z" fill="#A6A6A6"/>
<path d="M12.7585 36.0745C13.1048 36.0548 13.4881 35.9363 13.8912 35.7093L29.8748 26.6829L13.8912 35.7093C13.4884 35.9368 13.1048 36.0548 12.7585 36.0745ZM11.6839 35.7213L11.6805 35.7183C11.6817 35.7192 11.683 35.7204 11.6839 35.7213ZM11.6095 35.6495L11.6025 35.6427V35.6422C11.6052 35.6448 11.6073 35.6473 11.6095 35.6495Z" fill="black"/>
<path d="M29.875 26.6829L29.9787 26.6243L29.875 26.6829Z" fill="url(#paint0_linear_2922_7696)"/>
<path d="M11.6024 35.6428C11.282 35.3058 11.0928 34.7825 11.0928 34.1049V34.1045C11.0928 34.7825 11.282 35.3054 11.6024 35.6424V35.6428Z" fill="black"/>
<path d="M11.6024 35.6423C11.282 35.3053 11.0928 34.7825 11.0928 34.1044V33.9449C11.0928 34.6226 11.282 35.1459 11.6024 35.4829L11.6843 35.5607L11.6024 35.6423Z" fill="url(#paint1_linear_2922_7696)"/>
<path d="M11.6025 35.6423L11.6844 35.5607V35.561L11.6025 35.6423Z" fill="url(#paint2_linear_2922_7696)"/>
<path d="M36.3936 22.5669C36.4782 22.3821 36.5209 22.1924 36.5209 22.0025C36.5209 22.0021 36.5209 22.0017 36.5209 22.0017C36.5209 22.1919 36.4782 22.3817 36.3936 22.5669Z" fill="black"/>
<path d="M36.521 22.001V22.0005C36.5206 21.428 36.1356 20.8556 35.3668 20.4211L29.9785 17.3782H29.978L29.9785 17.3779L35.3668 20.4207C36.1365 20.8551 36.5219 21.4284 36.521 22.001Z" fill="#404040"/>
<path d="M11.0928 9.89233C11.0928 9.8919 11.0928 9.89146 11.0928 9.89102C11.0928 9.89146 11.0928 9.8919 11.0928 9.89233ZM11.0975 9.71447C11.0975 9.7136 11.0975 9.71272 11.0975 9.71185C11.0975 9.71272 11.0975 9.7136 11.0975 9.71447ZM11.0978 9.70933C11.0978 9.70758 11.0978 9.70594 11.0978 9.70419C11.0978 9.70594 11.0978 9.70758 11.0978 9.70933ZM11.0978 9.70287C11.1616 8.57847 11.7768 7.92897 12.647 7.92514C12.2697 7.92733 11.9411 8.05047 11.6838 8.28086V8.28043L11.6807 8.28349C11.6536 8.30779 11.6279 8.33351 11.6024 8.36C11.3134 8.66395 11.131 9.11927 11.0978 9.70287Z" fill="#404040"/>
<path d="M11.0928 10.0581V9.89819C11.0928 9.89601 11.0928 9.89426 11.0928 9.89218C11.0928 9.89174 11.0928 9.8913 11.0928 9.89086C11.0928 9.83055 11.0944 9.77156 11.0975 9.71431C11.0975 9.71344 11.0975 9.71257 11.0975 9.71169C11.0975 9.71092 11.0975 9.71005 11.0978 9.70917C11.0978 9.70742 11.0978 9.70578 11.0978 9.70403C11.0978 9.70359 11.0978 9.70315 11.0978 9.70271C11.131 9.11911 11.3134 8.66379 11.6024 8.35984L11.6829 8.44017C11.3134 8.7716 11.0928 9.32433 11.0928 10.0581ZM11.6807 8.28333L11.6838 8.28026C11.6829 8.28158 11.6816 8.28245 11.6807 8.28333Z" fill="url(#paint3_linear_2922_7696)"/>
</g>
<path d="M50.7567 12.8678C50.7567 13.9061 50.4727 14.6892 49.9048 15.217C49.3426 15.739 48.5567 16 47.547 16H45.8347V9.85612H47.7277C48.3473 9.85612 48.8837 9.97085 49.3369 10.2003C49.79 10.4298 50.14 10.7682 50.3867 11.2157C50.6333 11.6574 50.7567 12.2081 50.7567 12.8678ZM49.9392 12.8936C49.9392 12.0733 49.7356 11.4738 49.3283 11.0952C48.9267 10.7109 48.3559 10.5187 47.6159 10.5187H46.6091V15.3374H47.4438C49.1074 15.3374 49.9392 14.5228 49.9392 12.8936ZM56.0269 13.6853C56.0269 14.4483 55.8318 15.0391 55.4418 15.4579C55.0574 15.8767 54.5354 16.086 53.8757 16.086C53.4684 16.086 53.1041 15.9943 52.7828 15.8107C52.4673 15.6214 52.2178 15.3489 52.0342 14.9932C51.8506 14.6318 51.7589 14.1958 51.7589 13.6853C51.7589 12.9223 51.951 12.3343 52.3354 11.9213C52.7197 11.5083 53.2418 11.3017 53.9015 11.3017C54.3202 11.3017 54.6874 11.3964 55.0029 11.5857C55.3242 11.7693 55.5737 12.0389 55.7515 12.3946C55.9351 12.7445 56.0269 13.1747 56.0269 13.6853ZM52.5419 13.6853C52.5419 14.2303 52.648 14.6634 52.8603 14.9846C53.0783 15.3001 53.4225 15.4579 53.8929 15.4579C54.3575 15.4579 54.6989 15.3001 54.9169 14.9846C55.1348 14.6634 55.2438 14.2303 55.2438 13.6853C55.2438 13.1403 55.1348 12.7129 54.9169 12.4032C54.6989 12.0934 54.3547 11.9385 53.8843 11.9385C53.4139 11.9385 53.0725 12.0934 52.8603 12.4032C52.648 12.7129 52.5419 13.1403 52.5419 13.6853ZM60.0362 13.3927C59.9616 13.1575 59.8957 12.9281 59.8383 12.7043C59.7867 12.4749 59.7465 12.297 59.7178 12.1708H59.6834C59.6605 12.297 59.6232 12.4749 59.5716 12.7043C59.5199 12.9281 59.454 13.1604 59.3736 13.4013L58.5476 15.9914H57.6871L56.4222 11.3792H57.2052L57.842 13.8402C57.9051 14.0868 57.9653 14.3364 58.0227 14.5888C58.08 14.8412 58.1202 15.0506 58.1431 15.217H58.1776C58.2005 15.1194 58.2263 14.999 58.255 14.8556C58.2894 14.7121 58.3267 14.563 58.3669 14.4081C58.407 14.2475 58.4472 14.1041 58.4873 13.9779L59.3048 11.3792H60.1309L60.9225 13.9779C60.9856 14.1729 61.0459 14.3852 61.1032 14.6146C61.1663 14.8441 61.2094 15.042 61.2323 15.2084H61.2667C61.2839 15.0649 61.3212 14.867 61.3786 14.6146C61.4417 14.3622 61.5077 14.1041 61.5765 13.8402L62.2219 11.3792H62.9963L61.7142 15.9914H60.8279L60.0362 13.3927ZM66.0436 11.3017C66.5943 11.3017 67.0102 11.4365 67.2913 11.7062C67.5724 11.97 67.7129 12.4003 67.7129 12.9969V16H66.9643V13.0485C66.9643 12.3085 66.6201 11.9385 65.9317 11.9385C65.4211 11.9385 65.0683 12.0819 64.8733 12.3687C64.6783 12.6556 64.5807 13.0686 64.5807 13.6078V16H63.8235V11.3878H64.4345L64.5463 12.0159H64.5893C64.7385 11.775 64.945 11.5972 65.2089 11.4824C65.4728 11.362 65.751 11.3017 66.0436 11.3017ZM69.9 16H69.1427V9.46029H69.9V16ZM75.3711 13.6853C75.3711 14.4483 75.176 15.0391 74.7859 15.4579C74.4016 15.8767 73.8795 16.086 73.2198 16.086C72.8125 16.086 72.4483 15.9943 72.127 15.8107C71.8115 15.6214 71.562 15.3489 71.3784 14.9932C71.1948 14.6318 71.103 14.1958 71.103 13.6853C71.103 12.9223 71.2952 12.3343 71.6796 11.9213C72.0639 11.5083 72.5859 11.3017 73.2456 11.3017C73.6644 11.3017 74.0316 11.3964 74.3471 11.5857C74.6683 11.7693 74.9179 12.0389 75.0957 12.3946C75.2793 12.7445 75.3711 13.1747 75.3711 13.6853ZM71.8861 13.6853C71.8861 14.2303 71.9922 14.6634 72.2045 14.9846C72.4224 15.3001 72.7666 15.4579 73.237 15.4579C73.7017 15.4579 74.043 15.3001 74.261 14.9846C74.479 14.6634 74.588 14.2303 74.588 13.6853C74.588 13.1403 74.479 12.7129 74.261 12.4032C74.043 12.0934 73.6988 11.9385 73.2284 11.9385C72.758 11.9385 72.4167 12.0934 72.2045 12.4032C71.9922 12.7129 71.8861 13.1403 71.8861 13.6853ZM78.318 11.3103C78.8801 11.3103 79.296 11.4337 79.5657 11.6804C79.8353 11.927 79.9701 12.32 79.9701 12.8592V16H79.4194L79.2731 15.346H79.2387C79.0379 15.5984 78.8256 15.7849 78.6019 15.9053C78.3839 16.0258 78.0799 16.086 77.6898 16.086C77.271 16.086 76.924 15.9771 76.6486 15.7591C76.3733 15.5353 76.2356 15.1883 76.2356 14.7179C76.2356 14.2589 76.4163 13.9061 76.7777 13.6595C77.1391 13.4071 77.6955 13.2694 78.447 13.2464L79.2301 13.2206V12.9453C79.2301 12.5609 79.1469 12.2942 78.9805 12.145C78.8142 11.9959 78.579 11.9213 78.2749 11.9213C78.034 11.9213 77.8045 11.9586 77.5865 12.0332C77.3686 12.102 77.1649 12.1823 76.9756 12.2741L76.7433 11.7062C76.944 11.5972 77.1821 11.5054 77.4575 11.4308C77.7328 11.3505 78.0197 11.3103 78.318 11.3103ZM78.5417 13.7713C77.968 13.7943 77.5693 13.8861 77.3456 14.0467C77.1276 14.2073 77.0186 14.4339 77.0186 14.7265C77.0186 14.9846 77.0961 15.1739 77.251 15.2944C77.4116 15.4149 77.6152 15.4751 77.8619 15.4751C78.252 15.4751 78.5761 15.369 78.8342 15.1567C79.0924 14.9387 79.2215 14.606 79.2215 14.1586V13.7455L78.5417 13.7713ZM83.0295 16.086C82.4559 16.086 81.9969 15.8881 81.6527 15.4923C81.3086 15.0908 81.1365 14.4941 81.1365 13.7025C81.1365 12.9108 81.3086 12.3142 81.6527 11.9127C82.0027 11.5054 82.4645 11.3017 83.0381 11.3017C83.3938 11.3017 83.6835 11.3677 83.9072 11.4996C84.1367 11.6316 84.3231 11.7922 84.4665 11.9815H84.5182C84.5124 11.9069 84.501 11.798 84.4838 11.6545C84.4723 11.5054 84.4665 11.3878 84.4665 11.3017V9.46029H85.2238V16H84.6128L84.501 15.3804H84.4665C84.3289 15.5755 84.1453 15.7419 83.9158 15.8795C83.6864 16.0172 83.3909 16.086 83.0295 16.086ZM83.15 15.4579C83.6376 15.4579 83.9789 15.326 84.174 15.0621C84.3748 14.7924 84.4752 14.388 84.4752 13.8488V13.7111C84.4752 13.1374 84.3805 12.6986 84.1912 12.3946C84.0019 12.0848 83.652 11.9299 83.1414 11.9299C82.7341 11.9299 82.4272 12.0934 82.2207 12.4204C82.0199 12.7416 81.9195 13.1747 81.9195 13.7197C81.9195 14.2704 82.0199 14.6978 82.2207 15.0018C82.4272 15.3059 82.737 15.4579 83.15 15.4579ZM91.0493 11.9729H89.8876V16H89.1304V11.9729H88.3215V11.6201L89.1304 11.362V11.0952C89.1304 10.4986 89.2623 10.0712 89.5262 9.81309C89.7901 9.54921 90.1572 9.41727 90.6276 9.41727C90.8112 9.41727 90.9776 9.43448 91.1267 9.4689C91.2816 9.49758 91.4135 9.532 91.5225 9.57216L91.3246 10.1659C91.2328 10.1372 91.1267 10.1085 91.0063 10.0798C90.8858 10.0512 90.7624 10.0368 90.6362 10.0368C90.3838 10.0368 90.1945 10.1229 90.0683 10.295C89.9479 10.4613 89.8876 10.7252 89.8876 11.0866V11.3878H91.0493V11.9729ZM95.8917 13.6853C95.8917 14.4483 95.6966 15.0391 95.3065 15.4579C94.9222 15.8767 94.4002 16.086 93.7405 16.086C93.3332 16.086 92.9689 15.9943 92.6476 15.8107C92.3321 15.6214 92.0826 15.3489 91.899 14.9932C91.7154 14.6318 91.6237 14.1958 91.6237 13.6853C91.6237 12.9223 91.8158 12.3343 92.2002 11.9213C92.5845 11.5083 93.1066 11.3017 93.7663 11.3017C94.185 11.3017 94.5522 11.3964 94.8677 11.5857C95.1889 11.7693 95.4385 12.0389 95.6163 12.3946C95.7999 12.7445 95.8917 13.1747 95.8917 13.6853ZM92.4067 13.6853C92.4067 14.2303 92.5128 14.6634 92.7251 14.9846C92.9431 15.3001 93.2873 15.4579 93.7577 15.4579C94.2223 15.4579 94.5637 15.3001 94.7816 14.9846C94.9996 14.6634 95.1086 14.2303 95.1086 13.6853C95.1086 13.1403 94.9996 12.7129 94.7816 12.4032C94.5637 12.0934 94.2195 11.9385 93.7491 11.9385C93.2787 11.9385 92.9373 12.0934 92.7251 12.4032C92.5128 12.7129 92.4067 13.1403 92.4067 13.6853ZM99.243 11.3017C99.3291 11.3017 99.4208 11.3075 99.5184 11.3189C99.6216 11.3247 99.7105 11.3362 99.7851 11.3534L99.6905 12.0504C99.6159 12.0332 99.5327 12.0188 99.4409 12.0073C99.3549 11.9959 99.2717 11.9901 99.1914 11.9901C98.9562 11.9901 98.7353 12.0561 98.5288 12.188C98.3223 12.3142 98.1559 12.4949 98.0297 12.7301C97.9092 12.9596 97.849 13.2292 97.849 13.539V16H97.0918V11.3878H97.7113L97.7974 12.2311H97.8318C97.981 11.9787 98.1731 11.7607 98.4083 11.5771C98.6435 11.3935 98.9218 11.3017 99.243 11.3017Z" fill="white"/>
<path d="M62.7112 20.024V35H60.5688V24.7352C60.5688 24.5688 60.5723 24.3885 60.5792 24.1944C60.5931 23.9933 60.6104 23.7923 60.6312 23.5912L55.816 32.4832C55.6288 32.8507 55.3411 33.0344 54.9528 33.0344H54.6096C54.2144 33.0344 53.9267 32.8507 53.7464 32.4832L48.8584 23.5704C48.8792 23.7715 48.8931 23.9725 48.9 24.1736C48.9139 24.3747 48.9208 24.5619 48.9208 24.7352V35H46.7784V20.024H48.5984C48.8133 20.024 48.9797 20.0448 49.0976 20.0864C49.2155 20.1211 49.3229 20.2355 49.42 20.4296L54.2248 29.1344C54.3288 29.3355 54.4259 29.5435 54.516 29.7584C54.6131 29.9664 54.6997 30.1813 54.776 30.4032C54.8592 30.1813 54.9459 29.9629 55.036 29.748C55.1331 29.5261 55.2336 29.3147 55.3376 29.1136L60.0696 20.4296C60.1667 20.2355 60.2741 20.1211 60.392 20.0864C60.5099 20.0448 60.6763 20.024 60.8912 20.024H62.7112ZM71.2257 30.3616C70.4284 30.3893 69.7558 30.4552 69.2081 30.5592C68.6604 30.6563 68.2166 30.7845 67.8769 30.944C67.5372 31.0965 67.291 31.2803 67.1385 31.4952C66.9929 31.7101 66.9201 31.9459 66.9201 32.2024C66.9201 32.452 66.9582 32.6669 67.0345 32.8472C67.1177 33.0205 67.2286 33.1661 67.3673 33.284C67.5129 33.3949 67.6793 33.4781 67.8665 33.5336C68.0606 33.5821 68.2721 33.6064 68.5009 33.6064C69.0833 33.6064 69.5825 33.4989 69.9985 33.284C70.4214 33.0621 70.8305 32.7432 71.2257 32.3272V30.3616ZM65.2977 25.8688C66.4972 24.7525 67.9254 24.1944 69.5825 24.1944C70.1926 24.1944 70.7334 24.2949 71.2049 24.496C71.6833 24.6901 72.082 24.9675 72.4009 25.328C72.7268 25.6885 72.9729 26.1184 73.1393 26.6176C73.3126 27.1099 73.3993 27.6576 73.3993 28.2608V35H72.4009C72.186 35 72.023 34.9688 71.9121 34.9064C71.8012 34.8371 71.7076 34.7019 71.6313 34.5008L71.4129 33.6376C71.1425 33.8803 70.8756 34.0987 70.6121 34.2928C70.3486 34.48 70.0748 34.6395 69.7905 34.7712C69.5132 34.9029 69.2116 35 68.8857 35.0624C68.5668 35.1317 68.2132 35.1664 67.8249 35.1664C67.395 35.1664 66.9929 35.1075 66.6185 34.9896C66.251 34.8717 65.9321 34.6949 65.6617 34.4592C65.3913 34.2165 65.1764 33.9184 65.0169 33.5648C64.8644 33.2112 64.7881 32.7952 64.7881 32.3168C64.7881 31.9077 64.8956 31.5091 65.1105 31.1208C65.3324 30.7325 65.6929 30.3859 66.1921 30.0808C66.6982 29.7688 67.3604 29.5123 68.1785 29.3112C69.0036 29.1101 70.0193 28.9957 71.2257 28.968V28.2608C71.2257 27.4981 71.0628 26.9296 70.7369 26.5552C70.411 26.1808 69.9326 25.9936 69.3017 25.9936C68.8718 25.9936 68.5113 26.0491 68.2201 26.16C67.9289 26.264 67.6758 26.3784 67.4609 26.5032C67.246 26.628 67.0553 26.7459 66.8889 26.8568C66.7225 26.9608 66.5457 27.0128 66.3585 27.0128C66.206 27.0128 66.0742 26.9747 65.9633 26.8984C65.8593 26.8152 65.7726 26.7147 65.7033 26.5968L65.2977 25.8688ZM83.5171 26.472C83.4477 26.5621 83.3819 26.6315 83.3195 26.68C83.2571 26.7285 83.1669 26.7528 83.0491 26.7528C82.9312 26.7528 82.8064 26.7112 82.6746 26.628C82.5498 26.5448 82.3973 26.4547 82.2171 26.3576C82.0437 26.2536 81.8322 26.16 81.5826 26.0768C81.3331 25.9936 81.0211 25.952 80.6467 25.952C80.1613 25.952 79.7349 26.0387 79.3674 26.212C79.0069 26.3853 78.7019 26.6349 78.4522 26.9608C78.2096 27.2797 78.0258 27.6715 77.901 28.136C77.7832 28.5936 77.7243 29.1101 77.7243 29.6856C77.7243 30.2819 77.7901 30.8123 77.9218 31.2768C78.0536 31.7413 78.2408 32.1331 78.4835 32.452C78.7331 32.7709 79.0312 33.0136 79.3779 33.18C79.7314 33.3464 80.1266 33.4296 80.5634 33.4296C80.9933 33.4296 81.3435 33.3776 81.6139 33.2736C81.8842 33.1696 82.1096 33.0552 82.2899 32.9304C82.4701 32.8056 82.6227 32.6912 82.7475 32.5872C82.8792 32.4832 83.0179 32.4312 83.1634 32.4312C83.3437 32.4312 83.4824 32.5005 83.5795 32.6392L84.2138 33.4608C83.9573 33.7728 83.673 34.0363 83.361 34.2512C83.0491 34.4661 82.7197 34.6429 82.3731 34.7816C82.0264 34.9133 81.6659 35.0069 81.2914 35.0624C80.9171 35.1248 80.5392 35.156 80.1579 35.156C79.4992 35.156 78.8821 35.0347 78.3066 34.792C77.7381 34.5424 77.2389 34.1853 76.8091 33.7208C76.3861 33.2493 76.0499 32.6773 75.8003 32.0048C75.5576 31.3253 75.4363 30.5523 75.4363 29.6856C75.4363 28.9021 75.5472 28.1776 75.7691 27.512C75.9909 26.8395 76.3133 26.2605 76.7362 25.7752C77.1661 25.2899 77.6965 24.912 78.3275 24.6416C78.9584 24.3643 79.6864 24.2256 80.5115 24.2256C81.2811 24.2256 81.957 24.3504 82.5394 24.6C83.1288 24.8496 83.6523 25.2032 84.1099 25.6608L83.5171 26.472Z" fill="white"/>
<path d="M27.3518 15.5969C26.9964 15.7023 26.4941 15.7837 25.8517 15.8414C25.8806 14.4087 26.2542 13.173 26.9781 12.1358C27.6887 11.1054 28.889 10.3934 30.5812 10C30.5917 10.0275 30.6053 10.0827 30.6183 10.1593C30.6315 10.2358 30.6446 10.2883 30.6552 10.3173C30.6552 10.3553 30.6578 10.4039 30.663 10.4617C30.6657 10.5199 30.6683 10.5671 30.6683 10.6069C30.6683 11.1933 30.5287 11.8462 30.25 12.5674C29.963 13.2885 29.5153 13.9519 28.9101 14.5575C28.3915 15.0757 27.8703 15.4231 27.3518 15.5969ZM33.8133 25.7066C33.1503 24.7562 32.8186 23.6823 32.8186 22.4903C32.8186 21.4033 33.1294 20.4082 33.7555 19.5055C34.0925 19.0132 34.6399 18.4473 35.4004 17.8028C34.9003 17.1867 34.4005 16.7079 33.9004 16.3605C32.9949 15.7365 31.971 15.4231 30.8263 15.4231C30.1445 15.4231 29.3126 15.5863 28.3337 15.9128C27.3916 16.2419 26.7018 16.4034 26.2701 16.4034C25.9436 16.4034 25.2806 16.2603 24.2802 15.971C23.2698 15.6822 22.4196 15.5391 21.7273 15.5391C20.0718 15.5391 18.7083 16.2309 17.6292 17.6155C16.5422 19.0185 16 20.8187 16 23.0085C16 25.3382 16.7081 27.7542 18.1215 30.2651C19.5534 32.755 21.0009 34 22.4616 34C22.9513 34 23.588 33.8367 24.3647 33.5103C25.1437 33.1922 25.828 33.0338 26.4148 33.0338C27.0389 33.0338 27.7653 33.1878 28.5915 33.4945C29.4654 33.8026 30.1393 33.9562 30.6106 33.9562C31.8424 33.9562 33.0764 33.0145 34.3187 31.1298C35.1243 29.9281 35.7164 28.7269 36.0927 27.5253C35.2346 27.2645 34.4767 26.6593 33.8133 25.7066Z" fill="white"/>
<defs>
<linearGradient id="paint0_linear_2922_7696" x1="37.371" y1="22.0017" x2="10.7237" y2="22.0017" gradientUnits="userSpaceOnUse">
<stop stop-color="#CCB300"/>
<stop offset="0.4087" stop-color="#CC9700"/>
<stop offset="0.7754" stop-color="#CC8400"/>
<stop offset="1" stop-color="#CC7D00"/>
</linearGradient>
<linearGradient id="paint1_linear_2922_7696" x1="24.1175" y1="9.64252" x2="5.74893" y2="28.124" gradientUnits="userSpaceOnUse">
<stop stop-color="#008DE0"/>
<stop offset="0.00657445" stop-color="#008DE0"/>
<stop offset="0.2601" stop-color="#00A7E0"/>
<stop offset="0.5122" stop-color="#00B8E0"/>
<stop offset="0.7604" stop-color="#00C4E0"/>
<stop offset="1" stop-color="#00C7E0"/>
</linearGradient>
<linearGradient id="paint2_linear_2922_7696" x1="27.4516" y1="24.5134" x2="2.54313" y2="49.5763" gradientUnits="userSpaceOnUse">
<stop stop-color="#E0333C"/>
<stop offset="1" stop-color="#AB0F56"/>
</linearGradient>
<linearGradient id="paint3_linear_2922_7696" x1="24.1174" y1="9.6424" x2="5.74888" y2="28.1239" gradientUnits="userSpaceOnUse">
<stop stop-color="#40B8FF"/>
<stop offset="0.00657445" stop-color="#40B9FF"/>
<stop offset="0.2601" stop-color="#40CEFF"/>
<stop offset="0.5122" stop-color="#40DDFF"/>
<stop offset="0.7604" stop-color="#40E7FF"/>
<stop offset="1" stop-color="#40EAFF"/>
</linearGradient>
<clipPath id="clip0_2922_7696">
<rect width="149" height="44" fill="white"/>
</clipPath>
</defs>
</svg>
