<svg width="149" height="44" viewBox="0 0 149 44" fill="none" xmlns="http://www.w3.org/2000/svg">
<g clip-path="url(#clip0_2922_7688)">
<path d="M143.273 43.8906H5.61639C2.58793 43.8906 0.110107 41.4279 0.110107 38.418V5.58217C0.110107 2.57222 2.58793 0.109531 5.61639 0.109531H143.273C146.302 0.109531 148.78 2.57222 148.78 5.58217V38.418C148.78 41.4279 146.302 43.8906 143.273 43.8906Z" fill="black"/>
<path d="M143.273 0.109531H5.61639C2.58793 0.109531 0.110107 2.57222 0.110107 5.58217V38.418C0.110107 41.4279 2.58793 43.8906 5.61639 43.8906H143.273C146.302 43.8906 148.78 41.4279 148.78 38.418V5.58217C148.78 2.57222 146.302 0.109531 143.273 0.109531ZM143.273 0.985153C145.824 0.985153 147.899 3.04768 147.899 5.58217V38.418C147.899 40.9529 145.824 43.0154 143.273 43.0154H5.61639C3.06632 43.0154 0.991113 40.9529 0.991113 38.418V5.58217C0.991113 3.04768 3.06632 0.985153 5.61639 0.985153H143.273Z" fill="#A6A6A6"/>
<path d="M12.7583 36.0745C13.1045 36.0548 13.4879 35.9363 13.8909 35.7093L29.8746 26.6829L13.8909 35.7093C13.4882 35.9368 13.1045 36.0548 12.7583 36.0745ZM11.6837 35.7213L11.6803 35.7183C11.6815 35.7192 11.6828 35.7204 11.6837 35.7213ZM11.6092 35.6495L11.6023 35.6427V35.6422C11.6049 35.6448 11.607 35.6473 11.6092 35.6495Z" fill="black"/>
<path d="M29.8745 26.6829L29.9783 26.6243L29.8745 26.6829Z" fill="url(#paint0_linear_2922_7688)"/>
<path d="M11.6022 35.6428C11.2817 35.3058 11.0925 34.7825 11.0925 34.1049V34.1045C11.0925 34.7825 11.2817 35.3054 11.6022 35.6424V35.6428Z" fill="black"/>
<path d="M11.6022 35.6423C11.2817 35.3053 11.0925 34.7825 11.0925 34.1044V33.9449C11.0925 34.6226 11.2817 35.1459 11.6022 35.4829L11.684 35.5607L11.6022 35.6423Z" fill="url(#paint1_linear_2922_7688)"/>
<path d="M11.6023 35.6423L11.6841 35.5607V35.561L11.6023 35.6423Z" fill="url(#paint2_linear_2922_7688)"/>
<path d="M36.3936 22.5669C36.4782 22.3821 36.5209 22.1924 36.5209 22.0025C36.5209 22.0021 36.5209 22.0017 36.5209 22.0017C36.5209 22.1919 36.4782 22.3817 36.3936 22.5669Z" fill="black"/>
<path d="M36.5208 22.001V22.0005C36.5203 21.428 36.1354 20.8556 35.3666 20.4211L29.9782 17.3782H29.9778L29.9782 17.3779L35.3666 20.4207C36.1362 20.8551 36.5217 21.4284 36.5208 22.001Z" fill="#404040"/>
<path d="M11.0925 9.89233C11.0925 9.8919 11.0925 9.89146 11.0925 9.89102C11.0925 9.89146 11.0925 9.8919 11.0925 9.89233ZM11.0973 9.71447C11.0973 9.7136 11.0973 9.71272 11.0973 9.71185C11.0973 9.71272 11.0973 9.7136 11.0973 9.71447ZM11.0976 9.70933C11.0976 9.70758 11.0976 9.70594 11.0976 9.70419C11.0976 9.70594 11.0976 9.70758 11.0976 9.70933ZM11.0976 9.70287C11.1614 8.57847 11.7765 7.92897 12.6467 7.92514C12.2694 7.92733 11.9408 8.05047 11.6836 8.28086V8.28043L11.6805 8.28349C11.6534 8.30779 11.6276 8.33351 11.6022 8.36C11.3131 8.66395 11.1307 9.11927 11.0976 9.70287Z" fill="#404040"/>
<path d="M11.0925 10.0581V9.89819C11.0925 9.89601 11.0925 9.89426 11.0925 9.89218C11.0925 9.89174 11.0925 9.8913 11.0925 9.89086C11.0925 9.83055 11.0942 9.77156 11.0973 9.71431C11.0973 9.71344 11.0973 9.71257 11.0973 9.71169C11.0973 9.71092 11.0973 9.71005 11.0976 9.70917C11.0976 9.70742 11.0976 9.70578 11.0976 9.70403C11.0976 9.70359 11.0976 9.70315 11.0976 9.70271C11.1307 9.11911 11.3131 8.66379 11.6022 8.35984L11.6827 8.44017C11.3131 8.7716 11.0925 9.32433 11.0925 10.0581ZM11.6805 8.28333L11.6836 8.28026C11.6827 8.28158 11.6814 8.28245 11.6805 8.28333Z" fill="url(#paint3_linear_2922_7688)"/>
</g>
<path d="M54.0247 12.8678C54.0247 13.9061 53.7408 14.6892 53.1728 15.217C52.6107 15.739 51.8247 16 50.8151 16H49.1027V9.85612H50.9958C51.6154 9.85612 52.1517 9.97085 52.6049 10.2003C53.0581 10.4298 53.408 10.7682 53.6547 11.2157C53.9014 11.6574 54.0247 12.2081 54.0247 12.8678ZM53.2073 12.8936C53.2073 12.0733 53.0036 11.4738 52.5963 11.0952C52.1948 10.7109 51.624 10.5187 50.8839 10.5187H49.8772V15.3374H50.7119C52.3755 15.3374 53.2073 14.5228 53.2073 12.8936ZM59.2949 13.6853C59.2949 14.4483 59.0999 15.0391 58.7098 15.4579C58.3255 15.8767 57.8034 16.086 57.1437 16.086C56.7364 16.086 56.3722 15.9943 56.0509 15.8107C55.7354 15.6214 55.4859 15.3489 55.3023 14.9932C55.1187 14.6318 55.0269 14.1958 55.0269 13.6853C55.0269 12.9223 55.2191 12.3343 55.6035 11.9213C55.9878 11.5083 56.5098 11.3017 57.1695 11.3017C57.5883 11.3017 57.9555 11.3964 58.271 11.5857C58.5922 11.7693 58.8418 12.0389 59.0196 12.3946C59.2032 12.7445 59.2949 13.1747 59.2949 13.6853ZM55.81 13.6853C55.81 14.2303 55.9161 14.6634 56.1284 14.9846C56.3463 15.3001 56.6905 15.4579 57.1609 15.4579C57.6256 15.4579 57.9669 15.3001 58.1849 14.9846C58.4029 14.6634 58.5119 14.2303 58.5119 13.6853C58.5119 13.1403 58.4029 12.7129 58.1849 12.4032C57.9669 12.0934 57.6227 11.9385 57.1523 11.9385C56.6819 11.9385 56.3406 12.0934 56.1284 12.4032C55.9161 12.7129 55.81 13.1403 55.81 13.6853ZM63.3043 13.3927C63.2297 13.1575 63.1637 12.9281 63.1064 12.7043C63.0547 12.4749 63.0146 12.297 62.9859 12.1708H62.9515C62.9285 12.297 62.8913 12.4749 62.8396 12.7043C62.788 12.9281 62.722 13.1604 62.6417 13.4013L61.8156 15.9914H60.9552L59.6902 11.3792H60.4733L61.11 13.8402C61.1731 14.0868 61.2334 14.3364 61.2907 14.5888C61.3481 14.8412 61.3883 15.0506 61.4112 15.217H61.4456C61.4686 15.1194 61.4944 14.999 61.5231 14.8556C61.5575 14.7121 61.5948 14.563 61.6349 14.4081C61.6751 14.2475 61.7153 14.1041 61.7554 13.9779L62.5729 11.3792H63.3989L64.1906 13.9779C64.2537 14.1729 64.3139 14.3852 64.3713 14.6146C64.4344 14.8441 64.4774 15.042 64.5004 15.2084H64.5348C64.552 15.0649 64.5893 14.867 64.6466 14.6146C64.7097 14.3622 64.7757 14.1041 64.8446 13.8402L65.4899 11.3792H66.2644L64.9822 15.9914H64.0959L63.3043 13.3927ZM69.3116 11.3017C69.8623 11.3017 70.2782 11.4365 70.5593 11.7062C70.8404 11.97 70.981 12.4003 70.981 12.9969V16H70.2324V13.0485C70.2324 12.3085 69.8882 11.9385 69.1998 11.9385C68.6892 11.9385 68.3364 12.0819 68.1414 12.3687C67.9463 12.6556 67.8488 13.0686 67.8488 13.6078V16H67.0916V11.3878H67.7025L67.8144 12.0159H67.8574C68.0066 11.775 68.2131 11.5972 68.477 11.4824C68.7408 11.362 69.0191 11.3017 69.3116 11.3017ZM73.168 16H72.4108V9.46029H73.168V16ZM78.6391 13.6853C78.6391 14.4483 78.4441 15.0391 78.054 15.4579C77.6696 15.8767 77.1476 16.086 76.4879 16.086C76.0806 16.086 75.7163 15.9943 75.3951 15.8107C75.0796 15.6214 74.83 15.3489 74.6465 14.9932C74.4629 14.6318 74.3711 14.1958 74.3711 13.6853C74.3711 12.9223 74.5633 12.3343 74.9476 11.9213C75.332 11.5083 75.854 11.3017 76.5137 11.3017C76.9325 11.3017 77.2996 11.3964 77.6151 11.5857C77.9364 11.7693 78.1859 12.0389 78.3638 12.3946C78.5473 12.7445 78.6391 13.1747 78.6391 13.6853ZM75.1541 13.6853C75.1541 14.2303 75.2603 14.6634 75.4725 14.9846C75.6905 15.3001 76.0347 15.4579 76.5051 15.4579C76.9698 15.4579 77.3111 15.3001 77.5291 14.9846C77.7471 14.6634 77.8561 14.2303 77.8561 13.6853C77.8561 13.1403 77.7471 12.7129 77.5291 12.4032C77.3111 12.0934 76.9669 11.9385 76.4965 11.9385C76.0261 11.9385 75.6848 12.0934 75.4725 12.4032C75.2603 12.7129 75.1541 13.1403 75.1541 13.6853ZM81.586 11.3103C82.1482 11.3103 82.5641 11.4337 82.8337 11.6804C83.1033 11.927 83.2382 12.32 83.2382 12.8592V16H82.6874L82.5412 15.346H82.5067C82.306 15.5984 82.0937 15.7849 81.87 15.9053C81.652 16.0258 81.348 16.086 80.9579 16.086C80.5391 16.086 80.192 15.9771 79.9167 15.7591C79.6413 15.5353 79.5036 15.1883 79.5036 14.7179C79.5036 14.2589 79.6843 13.9061 80.0457 13.6595C80.4072 13.4071 80.9636 13.2694 81.7151 13.2464L82.4981 13.2206V12.9453C82.4981 12.5609 82.415 12.2942 82.2486 12.145C82.0822 11.9959 81.847 11.9213 81.543 11.9213C81.3021 11.9213 81.0726 11.9586 80.8546 12.0332C80.6366 12.102 80.433 12.1823 80.2437 12.2741L80.0113 11.7062C80.2121 11.5972 80.4502 11.5054 80.7255 11.4308C81.0009 11.3505 81.2877 11.3103 81.586 11.3103ZM81.8097 13.7713C81.2361 13.7943 80.8374 13.8861 80.6137 14.0467C80.3957 14.2073 80.2867 14.4339 80.2867 14.7265C80.2867 14.9846 80.3641 15.1739 80.519 15.2944C80.6796 15.4149 80.8833 15.4751 81.13 15.4751C81.5201 15.4751 81.8442 15.369 82.1023 15.1567C82.3605 14.9387 82.4895 14.606 82.4895 14.1586V13.7455L81.8097 13.7713ZM86.2976 16.086C85.7239 16.086 85.265 15.8881 84.9208 15.4923C84.5766 15.0908 84.4045 14.4941 84.4045 13.7025C84.4045 12.9108 84.5766 12.3142 84.9208 11.9127C85.2707 11.5054 85.7325 11.3017 86.3062 11.3017C86.6619 11.3017 86.9516 11.3677 87.1753 11.4996C87.4048 11.6316 87.5912 11.7922 87.7346 11.9815H87.7862C87.7805 11.9069 87.769 11.798 87.7518 11.6545C87.7403 11.5054 87.7346 11.3878 87.7346 11.3017V9.46029H88.4918V16H87.8809L87.769 15.3804H87.7346C87.5969 15.5755 87.4134 15.7419 87.1839 15.8795C86.9544 16.0172 86.659 16.086 86.2976 16.086ZM86.4181 15.4579C86.9057 15.4579 87.247 15.326 87.442 15.0621C87.6428 14.7924 87.7432 14.388 87.7432 13.8488V13.7111C87.7432 13.1374 87.6486 12.6986 87.4593 12.3946C87.2699 12.0848 86.92 11.9299 86.4095 11.9299C86.0022 11.9299 85.6953 12.0934 85.4887 12.4204C85.288 12.7416 85.1876 13.1747 85.1876 13.7197C85.1876 14.2704 85.288 14.6978 85.4887 15.0018C85.6953 15.3059 86.005 15.4579 86.4181 15.4579ZM94.3173 11.9729H93.1557V16H92.3985V11.9729H91.5896V11.6201L92.3985 11.362V11.0952C92.3985 10.4986 92.5304 10.0712 92.7943 9.81309C93.0582 9.54921 93.4253 9.41727 93.8957 9.41727C94.0793 9.41727 94.2456 9.43448 94.3948 9.4689C94.5497 9.49758 94.6816 9.532 94.7906 9.57216L94.5927 10.1659C94.5009 10.1372 94.3948 10.1085 94.2743 10.0798C94.1538 10.0512 94.0305 10.0368 93.9043 10.0368C93.6519 10.0368 93.4626 10.1229 93.3364 10.295C93.2159 10.4613 93.1557 10.7252 93.1557 11.0866V11.3878H94.3173V11.9729ZM99.1597 13.6853C99.1597 14.4483 98.9647 15.0391 98.5746 15.4579C98.1903 15.8767 97.6682 16.086 97.0085 16.086C96.6012 16.086 96.2369 15.9943 95.9157 15.8107C95.6002 15.6214 95.3506 15.3489 95.1671 14.9932C94.9835 14.6318 94.8917 14.1958 94.8917 13.6853C94.8917 12.9223 95.0839 12.3343 95.4682 11.9213C95.8526 11.5083 96.3746 11.3017 97.0343 11.3017C97.4531 11.3017 97.8202 11.3964 98.1358 11.5857C98.457 11.7693 98.7065 12.0389 98.8844 12.3946C99.068 12.7445 99.1597 13.1747 99.1597 13.6853ZM95.6748 13.6853C95.6748 14.2303 95.7809 14.6634 95.9931 14.9846C96.2111 15.3001 96.5553 15.4579 97.0257 15.4579C97.4904 15.4579 97.8317 15.3001 98.0497 14.9846C98.2677 14.6634 98.3767 14.2303 98.3767 13.6853C98.3767 13.1403 98.2677 12.7129 98.0497 12.4032C97.8317 12.0934 97.4875 11.9385 97.0171 11.9385C96.5467 11.9385 96.2054 12.0934 95.9931 12.4032C95.7809 12.7129 95.6748 13.1403 95.6748 13.6853ZM102.511 11.3017C102.597 11.3017 102.689 11.3075 102.786 11.3189C102.89 11.3247 102.979 11.3362 103.053 11.3534L102.959 12.0504C102.884 12.0332 102.801 12.0188 102.709 12.0073C102.623 11.9959 102.54 11.9901 102.459 11.9901C102.224 11.9901 102.003 12.0561 101.797 12.188C101.59 12.3142 101.424 12.4949 101.298 12.7301C101.177 12.9596 101.117 13.2292 101.117 13.539V16H100.36V11.3878H100.979L101.065 12.2311H101.1C101.249 11.9787 101.441 11.7607 101.676 11.5771C101.912 11.3935 102.19 11.3017 102.511 11.3017Z" fill="white"/>
<path d="M68.9886 20.5829L64.4911 35.0391H62.3729L58.9797 24.6587C58.9396 24.5449 58.8994 24.4211 58.8592 24.2873C58.8258 24.1534 58.7923 24.0095 58.7588 23.8556C58.7254 24.0095 58.6886 24.1534 58.6484 24.2873C58.615 24.4211 58.5781 24.5449 58.538 24.6587L55.1147 35.0391H52.9964L48.499 20.5829H50.4666C50.6674 20.5829 50.8347 20.6331 50.9686 20.7335C51.1091 20.8272 51.2028 20.9577 51.2497 21.125L53.9602 30.391C54.0137 30.5918 54.0639 30.8093 54.1108 31.0435C54.1576 31.2778 54.2045 31.5221 54.2513 31.7764C54.2982 31.5221 54.3484 31.2778 54.4019 31.0435C54.4621 30.8026 54.5257 30.5851 54.5927 30.391L57.6947 21.125C57.7416 20.9911 57.8353 20.8673 57.9758 20.7535C58.1163 20.6398 58.2837 20.5829 58.4778 20.5829H59.1604C59.3679 20.5829 59.5352 20.6364 59.6624 20.7435C59.7895 20.8439 59.8866 20.971 59.9535 21.125L63.0455 30.391C63.1124 30.5851 63.1727 30.7959 63.2262 31.0235C63.2864 31.2443 63.34 31.4786 63.3868 31.7262C63.4337 31.4786 63.4772 31.2443 63.5173 31.0235C63.5642 30.7959 63.6144 30.5851 63.6679 30.391L66.3684 21.125C66.4086 20.9777 66.4989 20.8506 66.6395 20.7435C66.7867 20.6364 66.9574 20.5829 67.1515 20.5829H68.9886ZM72.6943 24.7993V35.0391H70.5359V24.7993H72.6943ZM73.0557 21.7072C73.0557 21.9013 73.0155 22.0854 72.9352 22.2594C72.8616 22.4334 72.7578 22.5873 72.624 22.7212C72.4901 22.8483 72.3329 22.9521 72.1522 23.0324C71.9781 23.106 71.7908 23.1428 71.59 23.1428C71.3959 23.1428 71.2118 23.106 71.0378 23.0324C70.8705 22.9521 70.7233 22.8483 70.5961 22.7212C70.4689 22.5873 70.3652 22.4334 70.2849 22.2594C70.2113 22.0854 70.1745 21.9013 70.1745 21.7072C70.1745 21.5065 70.2113 21.3191 70.2849 21.1451C70.3652 20.971 70.4689 20.8205 70.5961 20.6933C70.7233 20.5594 70.8705 20.4557 71.0378 20.3821C71.2118 20.3018 71.3959 20.2616 71.59 20.2616C71.7908 20.2616 71.9781 20.3018 72.1522 20.3821C72.3329 20.4557 72.4901 20.5594 72.624 20.6933C72.7578 20.8205 72.8616 20.971 72.9352 21.1451C73.0155 21.3191 73.0557 21.5065 73.0557 21.7072ZM77.4241 26.1545C77.6449 25.927 77.8725 25.7228 78.1067 25.5421C78.3476 25.3547 78.602 25.1941 78.8697 25.0603C79.1374 24.9264 79.4218 24.8227 79.723 24.7491C80.0242 24.6754 80.3521 24.6386 80.7068 24.6386C81.269 24.6386 81.7609 24.7323 82.1826 24.9197C82.6109 25.1071 82.9689 25.3715 83.2567 25.7128C83.5512 26.0541 83.7721 26.4657 83.9193 26.9476C84.0665 27.4228 84.1402 27.9482 84.1402 28.5237V35.0391H81.9918V28.5237C81.9918 27.8344 81.8312 27.299 81.5099 26.9175C81.1954 26.536 80.7135 26.3453 80.0643 26.3453C79.5824 26.3453 79.134 26.4557 78.7191 26.6766C78.3108 26.8974 77.926 27.1986 77.5646 27.5801V35.0391H75.4062V24.7993H76.7113C77.0058 24.7993 77.1932 24.9365 77.2735 25.2109L77.4241 26.1545ZM93.1963 27.3191C92.8951 26.9309 92.5638 26.6598 92.2024 26.5059C91.841 26.352 91.4495 26.275 91.0279 26.275C90.1846 26.275 89.5254 26.5862 89.0502 27.2086C88.575 27.8244 88.3374 28.7379 88.3374 29.9493C88.3374 30.5784 88.391 31.1172 88.498 31.5656C88.6051 32.0073 88.7591 32.3687 88.9598 32.6498C89.1606 32.9309 89.4049 33.135 89.6927 33.2622C89.9805 33.3893 90.3051 33.4529 90.6665 33.4529C91.2153 33.4529 91.6871 33.3358 92.082 33.1015C92.4835 32.8606 92.855 32.5226 93.1963 32.0876V27.3191ZM95.3547 20.1813V35.0391H94.0496C93.7618 35.0391 93.5778 34.9019 93.4975 34.6275L93.3067 33.5131C92.8784 34.0151 92.3898 34.42 91.841 34.7279C91.2989 35.0357 90.6665 35.1896 89.9437 35.1896C89.3681 35.1896 88.8461 35.0759 88.3776 34.8483C87.9091 34.6141 87.5075 34.2761 87.1729 33.8344C86.8383 33.3927 86.5772 32.8472 86.3898 32.198C86.2091 31.5421 86.1188 30.7926 86.1188 29.9493C86.1188 29.1863 86.2192 28.4802 86.42 27.831C86.6274 27.1819 86.9219 26.6197 87.3034 26.1445C87.6849 25.6626 88.1467 25.2878 88.6888 25.0201C89.2376 24.7457 89.85 24.6085 90.5259 24.6085C91.1283 24.6085 91.6403 24.7056 92.0619 24.8996C92.4835 25.087 92.8617 25.3514 93.1963 25.6927V20.1813H95.3547ZM102.421 24.6386C103.178 24.6386 103.86 24.7624 104.469 25.0101C105.085 25.2577 105.607 25.6091 106.035 26.0642C106.47 26.5193 106.805 27.0714 107.039 27.7206C107.273 28.3698 107.391 29.0993 107.391 29.9091C107.391 30.7189 107.273 31.4484 107.039 32.0976C106.805 32.7468 106.47 33.3023 106.035 33.7641C105.607 34.2192 105.085 34.5706 104.469 34.8182C103.86 35.0658 103.178 35.1896 102.421 35.1896C101.658 35.1896 100.969 35.0658 100.353 34.8182C99.7442 34.5706 99.2221 34.2192 98.7871 33.7641C98.3521 33.3023 98.0174 32.7468 97.7832 32.0976C97.549 31.4484 97.4318 30.7189 97.4318 29.9091C97.4318 29.0993 97.549 28.3698 97.7832 27.7206C98.0174 27.0714 98.3521 26.5193 98.7871 26.0642C99.2221 25.6091 99.7442 25.2577 100.353 25.0101C100.969 24.7624 101.658 24.6386 102.421 24.6386ZM102.421 33.5031C103.345 33.5031 104.031 33.1952 104.479 32.5795C104.934 31.9571 105.162 31.0703 105.162 29.9192C105.162 28.768 104.934 27.8812 104.479 27.2588C104.031 26.6297 103.345 26.3152 102.421 26.3152C101.484 26.3152 100.788 26.6297 100.333 27.2588C99.878 27.8812 99.6505 28.768 99.6505 29.9192C99.6505 31.0703 99.878 31.9571 100.333 32.5795C100.788 33.1952 101.484 33.5031 102.421 33.5031ZM123.693 24.7993L120.411 35.0391H118.694C118.493 35.0391 118.353 34.9086 118.272 34.6475L116.234 28.2728C116.181 28.0921 116.131 27.9114 116.084 27.7307C116.044 27.5499 116.007 27.3726 115.973 27.1986C115.9 27.56 115.809 27.9214 115.702 28.2828L113.634 34.6475C113.561 34.9086 113.403 35.0391 113.163 35.0391H111.526L108.243 24.7993H109.95C110.117 24.7993 110.255 24.8428 110.362 24.9298C110.475 25.0101 110.549 25.1071 110.582 25.2209L112.289 31.1841C112.356 31.4585 112.413 31.7262 112.46 31.9872C112.513 32.2415 112.56 32.4958 112.6 32.7502C112.667 32.4958 112.738 32.2415 112.811 31.9872C112.885 31.7262 112.962 31.4585 113.042 31.1841L114.959 25.1908C114.993 25.0703 115.06 24.9733 115.16 24.8996C115.267 24.8193 115.395 24.7792 115.542 24.7792H116.485C116.639 24.7792 116.77 24.8193 116.877 24.8996C116.984 24.9733 117.054 25.0703 117.088 25.1908L118.955 31.1841C119.035 31.4585 119.109 31.7262 119.176 31.9872C119.25 32.2482 119.316 32.5092 119.377 32.7702C119.424 32.5159 119.474 32.2583 119.527 31.9972C119.581 31.7362 119.644 31.4652 119.718 31.1841L121.455 25.2209C121.495 25.1004 121.569 25 121.676 24.9197C121.783 24.8394 121.913 24.7993 122.067 24.7993H123.693ZM131.284 26.6565C131.23 26.7502 131.17 26.8171 131.103 26.8573C131.036 26.8974 130.952 26.9175 130.852 26.9175C130.738 26.9175 130.614 26.884 130.481 26.8171C130.347 26.7435 130.189 26.6632 130.009 26.5762C129.828 26.4892 129.614 26.4122 129.366 26.3453C129.125 26.2716 128.841 26.2348 128.513 26.2348C128.245 26.2348 128.001 26.2683 127.78 26.3352C127.566 26.3955 127.382 26.4858 127.228 26.6063C127.081 26.7201 126.967 26.8573 126.887 27.0179C126.806 27.1718 126.766 27.3391 126.766 27.5198C126.766 27.7608 126.84 27.9615 126.987 28.1222C127.134 28.2828 127.328 28.4233 127.569 28.5438C127.81 28.6576 128.085 28.7613 128.392 28.855C128.7 28.9487 129.015 29.0491 129.336 29.1562C129.657 29.2633 129.972 29.3871 130.28 29.5276C130.588 29.6682 130.862 29.8422 131.103 30.0497C131.344 30.2504 131.538 30.4981 131.685 30.7926C131.833 31.0803 131.906 31.4317 131.906 31.8467C131.906 32.3285 131.819 32.7736 131.645 33.1818C131.471 33.5901 131.217 33.9448 130.882 34.246C130.548 34.5472 130.129 34.7814 129.627 34.9487C129.132 35.116 128.563 35.1997 127.921 35.1997C127.566 35.1997 127.221 35.1662 126.887 35.0993C126.559 35.0391 126.244 34.9554 125.943 34.8483C125.648 34.7345 125.371 34.6007 125.11 34.4468C124.855 34.2928 124.628 34.1255 124.427 33.9448L124.929 33.1216C124.989 33.0212 125.063 32.9443 125.15 32.8907C125.244 32.8305 125.357 32.8004 125.491 32.8004C125.632 32.8004 125.769 32.8472 125.903 32.9409C126.043 33.0279 126.204 33.125 126.385 33.232C126.572 33.3391 126.796 33.4395 127.057 33.5332C127.318 33.6202 127.643 33.6637 128.031 33.6637C128.352 33.6637 128.63 33.6269 128.864 33.5533C129.099 33.473 129.293 33.3659 129.447 33.232C129.601 33.0982 129.714 32.9476 129.788 32.7803C129.862 32.6063 129.898 32.4222 129.898 32.2281C129.898 31.9671 129.825 31.753 129.677 31.5856C129.53 31.4183 129.333 31.2744 129.085 31.154C128.844 31.0335 128.567 30.9264 128.252 30.8327C127.944 30.739 127.63 30.6386 127.308 30.5315C126.987 30.4245 126.669 30.3006 126.355 30.1601C126.047 30.0196 125.769 29.8422 125.521 29.628C125.28 29.4072 125.086 29.1428 124.939 28.8349C124.792 28.5204 124.718 28.1389 124.718 27.6905C124.718 27.2822 124.799 26.8941 124.959 26.526C125.126 26.1579 125.367 25.8333 125.682 25.5522C126.003 25.2711 126.395 25.0502 126.857 24.8896C127.325 24.7223 127.864 24.6386 128.473 24.6386C129.162 24.6386 129.788 24.7491 130.35 24.9699C130.912 25.1908 131.384 25.4919 131.766 25.8734L131.284 26.6565Z" fill="white"/>
<path fill-rule="evenodd" clip-rule="evenodd" d="M24.8145 22.8171H16V15.482L24.8145 14.295V22.8171ZM25.8007 22.8171H37.5122V12.585L25.8007 14.1622V22.8171ZM24.8145 23.865H16V31.2001L24.8145 32.3871V23.865ZM25.8007 23.865H37.5122V34.0972L25.8007 32.52V23.865Z" fill="white"/>
<defs>
<linearGradient id="paint0_linear_2922_7688" x1="37.3705" y1="22.0017" x2="10.7233" y2="22.0017" gradientUnits="userSpaceOnUse">
<stop stop-color="#CCB300"/>
<stop offset="0.4087" stop-color="#CC9700"/>
<stop offset="0.7754" stop-color="#CC8400"/>
<stop offset="1" stop-color="#CC7D00"/>
</linearGradient>
<linearGradient id="paint1_linear_2922_7688" x1="24.1172" y1="9.64252" x2="5.74868" y2="28.124" gradientUnits="userSpaceOnUse">
<stop stop-color="#008DE0"/>
<stop offset="0.00657445" stop-color="#008DE0"/>
<stop offset="0.2601" stop-color="#00A7E0"/>
<stop offset="0.5122" stop-color="#00B8E0"/>
<stop offset="0.7604" stop-color="#00C4E0"/>
<stop offset="1" stop-color="#00C7E0"/>
</linearGradient>
<linearGradient id="paint2_linear_2922_7688" x1="27.4514" y1="24.5134" x2="2.54289" y2="49.5763" gradientUnits="userSpaceOnUse">
<stop stop-color="#E0333C"/>
<stop offset="1" stop-color="#AB0F56"/>
</linearGradient>
<linearGradient id="paint3_linear_2922_7688" x1="24.1172" y1="9.6424" x2="5.74863" y2="28.1239" gradientUnits="userSpaceOnUse">
<stop stop-color="#40B8FF"/>
<stop offset="0.00657445" stop-color="#40B9FF"/>
<stop offset="0.2601" stop-color="#40CEFF"/>
<stop offset="0.5122" stop-color="#40DDFF"/>
<stop offset="0.7604" stop-color="#40E7FF"/>
<stop offset="1" stop-color="#40EAFF"/>
</linearGradient>
<clipPath id="clip0_2922_7688">
<rect width="149" height="44" fill="white"/>
</clipPath>
</defs>
</svg>
