<svg width="36" height="36" viewBox="0 0 36 36" fill="none" xmlns="http://www.w3.org/2000/svg">
<g opacity="0.85" clip-path="url(#clip0_682_19330)">
<path d="M28.2675 9.68652H8.8208C4.95481 9.68652 1.8208 12.8205 1.8208 16.6865V20.1277C1.8208 23.9937 4.95481 27.1277 8.8208 27.1277H28.2675C32.1335 27.1277 35.2675 23.9937 35.2675 20.1277V16.6865C35.2675 12.8205 32.1335 9.68652 28.2675 9.68652Z" fill="#E4ECFF"/>
</g>
<path d="M18.7966 4.37109C18.7279 4.37109 18.6608 4.39209 18.6043 4.4312L8.79111 11.1966C8.63689 11.3031 8.59868 11.5147 8.70577 11.6684L9.54495 12.867C9.65129 13.0198 9.86138 13.058 10.0148 12.9523L18.7964 6.89602L27.578 12.9523C27.7313 13.0577 27.9408 13.0195 28.0471 12.867L28.8838 11.6684C28.991 11.5148 28.9531 11.3034 28.7992 11.1966L18.9891 4.4312C18.9326 4.39209 18.8655 4.37109 18.7968 4.37109H18.7966ZM23.1942 5.38602C23.0073 5.38602 22.8558 5.5375 22.8558 5.72433V6.27606L26.9158 9.0757V5.72433C26.9158 5.5375 26.7643 5.38602 26.5775 5.38602H23.1942ZM17.4425 10.7997C16.886 10.7997 16.4288 11.2569 16.4288 11.8133V12.1536H17.1028V11.8133C17.1028 11.62 17.2492 11.4763 17.4425 11.4763H20.1498C20.3431 11.4763 20.4868 11.6201 20.4868 11.8133V12.1536H21.164V11.8133C21.164 11.2569 20.7062 10.7997 20.1497 10.7997H17.4425ZM19.4731 15.8743C19.6589 15.8751 19.8093 16.0255 19.8101 16.2113V17.3214L24.2912 16.2013C24.4416 16.1642 24.5476 16.0293 24.5482 15.8742V13.8437C24.5482 13.2873 24.0883 12.8301 23.5319 12.8301L14.0585 12.8303C13.5021 12.8303 13.0449 13.2875 13.0449 13.8439V15.8743C13.0452 16.0285 13.1499 16.1631 13.2993 16.2015L17.7796 17.3215V16.2114C17.7794 16.0373 17.9116 15.8914 18.1023 15.8745L19.4731 15.8743ZM11.3539 12.8513L10.6772 13.3178V21.9627H11.3539V12.8513ZM26.239 12.8513V21.9624H26.9157V13.3176L26.239 12.8513ZM18.4566 16.551V17.5645C18.4566 17.7579 18.6029 17.9048 18.7963 17.9048C18.9896 17.9048 19.1332 17.7579 19.1332 17.5645V16.551H18.4566ZM23.8714 17.0036L19.6792 18.0522C19.5055 18.3648 19.1759 18.5814 18.7964 18.5814C18.4169 18.5814 18.086 18.3647 17.9116 18.0522L13.7212 17.005V20.6095C13.7212 21.1659 14.1784 21.6257 14.7349 21.6257H22.8541C23.4106 21.6257 23.8711 21.1658 23.8711 20.6095L23.8714 17.0036ZM9.99978 22.6392C9.81158 22.6385 9.65903 22.7915 9.66008 22.9795V24.33C9.65933 24.5179 9.81188 24.6705 9.99978 24.6697L27.5923 24.6699C27.7792 24.6691 27.9301 24.517 27.9293 24.3302V22.9797C27.9304 22.7925 27.7795 22.6401 27.5923 22.6394L9.99978 22.6392Z" fill="#7DA1F5"/>
<path d="M18.6043 4.43245L8.79111 11.1978C8.63689 11.3043 8.59868 11.5159 8.70577 11.6697L9.54495 12.8682C9.65129 13.0211 9.86138 13.0593 10.0148 12.9536L18.7964 6.89727L27.578 12.9536C27.7313 13.059 27.9408 13.0208 28.0471 12.8682L28.8838 11.6697C28.991 11.5161 28.9531 11.3046 28.7992 11.1978L18.9891 4.43245C18.866 4.34757 18.7186 4.35376 18.6045 4.43245H18.6043ZM23.1944 5.38726C23.0076 5.38726 22.8561 5.53874 22.8561 5.72556V6.2773L26.9161 9.07694V5.72556C26.9161 5.53874 26.7646 5.38726 26.5778 5.38726H23.1944ZM17.4428 10.801C16.8863 10.801 16.4291 11.2581 16.4291 11.8145V12.1548H17.1031V11.8145C17.1031 11.6212 17.2494 11.4776 17.4428 11.4776H20.1501C20.3434 11.4776 20.487 11.6214 20.487 11.8145V12.1548H21.1643V11.8145C21.1643 11.2581 20.7065 10.801 20.1499 10.801H17.4428ZM19.4734 15.8756C19.6592 15.8763 19.8096 16.0268 19.8104 16.2125V17.3226L24.2914 16.2026C24.4419 16.1654 24.5479 16.0305 24.5485 15.8754V13.845C24.5485 13.2885 24.0886 12.8314 23.5322 12.8314L14.0588 12.8315C13.5024 12.8315 13.0452 13.2887 13.0452 13.8451V15.8756C13.0455 16.0298 13.1502 16.1643 13.2995 16.2027L17.7798 17.3228V16.2127C17.7797 16.0385 17.9119 15.8927 18.1026 15.8757L19.4734 15.8756ZM11.3542 12.8525L10.6775 13.3191V21.9639H11.3542V12.8525ZM26.2393 12.8525V21.9637H26.9159V13.3188L26.2393 12.8525ZM18.4568 16.5522V17.5658C18.4568 17.7591 18.6032 17.906 18.7965 17.906C18.9899 17.906 19.1335 17.7591 19.1335 17.5658V16.5522H18.4568ZM23.8717 17.0048L19.6795 18.0534C19.5058 18.3661 19.1762 18.5827 18.7966 18.5827C18.4172 18.5827 18.0863 18.3659 17.9118 18.0534L13.7215 17.0062V20.6107C13.7215 21.1671 14.1787 21.627 14.7352 21.627H22.8544C23.4109 21.627 23.8714 21.1671 23.8714 20.6107L23.8717 17.0048ZM10.0001 22.6405C9.81186 22.6397 9.65931 22.7927 9.66036 22.9807V24.3313C9.65961 24.5192 9.81216 24.6717 10.0001 24.6709L27.5926 24.6711C27.7795 24.6703 27.9303 24.5182 27.9296 24.3314V22.9809C27.9306 22.7938 27.7798 22.6414 27.5926 22.6406L10.0001 22.6405Z" fill="#7DA1F5"/>
<defs>
<clipPath id="clip0_682_19330">
<rect width="35" height="35" fill="white" transform="translate(0.945801 0.171875)"/>
</clipPath>
</defs>
</svg>
