<svg width="13" height="13" viewBox="0 0 13 13" fill="none" xmlns="http://www.w3.org/2000/svg">
<g opacity="0.5">
<path fill-rule="evenodd" clip-rule="evenodd" d="M6.5 13C10.0899 13 13 10.0899 13 6.5C13 2.91015 10.0899 0 6.5 0C2.91015 0 0 2.91015 0 6.5C0 10.0899 2.91015 13 6.5 13ZM6.5 11.8182C9.43715 11.8182 11.8182 9.43715 11.8182 6.5C11.8182 3.56285 9.43715 1.18182 6.5 1.18182C3.56285 1.18182 1.18182 3.56285 1.18182 6.5C1.18182 9.43715 3.56285 11.8182 6.5 11.8182ZM7.53409 3.69515C7.53409 3.93996 7.44998 4.14893 7.28096 4.32074C7.11234 4.49342 6.90903 4.57955 6.67145 4.57955C6.43307 4.57955 6.22937 4.49342 6.05875 4.32074C5.88854 4.14893 5.80323 3.93996 5.80323 3.69515C5.80323 3.45077 5.88854 3.24137 6.05875 3.06737C6.22897 2.89338 6.43307 2.80682 6.67145 2.80682C6.90903 2.80682 7.11234 2.89382 7.28096 3.06737C7.44998 3.24137 7.53409 3.45077 7.53409 3.69515ZM7.44951 9.52344C7.19576 9.64538 6.99283 9.73811 6.84177 9.80204C6.6907 9.86597 6.51493 9.89773 6.31478 9.89773C6.00743 9.89773 5.7683 9.80627 5.59775 9.62421C5.42719 9.44173 5.34191 9.21013 5.34191 8.92942C5.34191 8.8206 5.34818 8.70883 5.36106 8.59493C5.37394 8.48104 5.39447 8.35233 5.42267 8.20879L5.74011 6.84291C5.7683 6.71208 5.79232 6.58803 5.81147 6.47075C5.83096 6.35431 5.84036 6.24719 5.84036 6.15066C5.84036 5.97622 5.81077 5.85428 5.7516 5.78569C5.69242 5.7171 5.57965 5.68238 5.41222 5.68238C5.33008 5.68238 5.24584 5.69847 5.15987 5.72938C5.07355 5.76029 5.02273 5.39701 5.02273 5.39701C5.23053 5.29413 5.42928 5.20606 5.61933 5.13281C5.80938 5.05956 5.98898 5.02273 6.15884 5.02273C6.46411 5.02273 6.69975 5.11249 6.86509 5.29201C7.03043 5.47153 7.11327 5.7044 7.11327 5.99146C7.11327 6.05074 7.1077 6.15532 7.09621 6.30477C7.08472 6.45466 7.06349 6.59184 7.03251 6.71674L6.71646 8.07754C6.6907 8.18678 6.66738 8.31168 6.64719 8.45225C6.62631 8.59197 6.61622 8.69866 6.61622 8.77022C6.61622 8.95101 6.64928 9.07422 6.71577 9.13984C6.7826 9.20547 6.89781 9.23807 7.0614 9.23807C7.13833 9.23807 7.2257 9.22156 7.32281 9.18896C7.41992 9.15636 7.44951 9.52344 7.44951 9.52344Z" fill="#525F7F"/>
</g>
</svg>
