<svg width="62" height="10" viewBox="0 0 62 10" fill="none" xmlns="http://www.w3.org/2000/svg">
<path d="M5.44771 0.3109L6.5989 2.69614C6.68314 2.87003 6.846 2.98885 7.03295 3.01309L9.32982 3.30378H9.32972C9.47431 3.32355 9.60583 3.4004 9.69664 3.51812C9.78745 3.63583 9.83052 3.78528 9.81676 3.93502C9.80299 4.08478 9.7335 4.22319 9.62283 4.32123L7.83049 5.89542C7.75275 5.96294 7.69426 6.05085 7.66094 6.14991C7.62772 6.24887 7.62104 6.35533 7.64168 6.45793L8.1757 9.10909C8.20558 9.25702 8.17845 9.41104 8.10012 9.53869C8.02178 9.66635 7.89832 9.7575 7.75589 9.79288C7.61357 9.82827 7.46338 9.80515 7.33726 9.7283L5.18978 8.43028C5.10408 8.37928 5.00696 8.35241 4.90799 8.35241C4.80901 8.35241 4.7119 8.37928 4.62619 8.43028L2.48158 9.73842H2.48149C2.35538 9.81527 2.20528 9.83849 2.06286 9.80311C1.92053 9.76772 1.79709 9.67657 1.71873 9.54892C1.64029 9.42127 1.61326 9.26716 1.64305 9.11921L2.17431 6.45767C2.19495 6.35506 2.18826 6.2486 2.15504 6.14965C2.12172 6.05059 2.06324 5.96268 1.98549 5.89515L0.195898 4.33981C0.0851243 4.24146 0.0157282 4.10255 0.00236187 3.95239C-0.0110058 3.80222 0.0327332 3.65257 0.124343 3.53496C0.21595 3.41745 0.34825 3.3412 0.493227 3.32234L2.99582 3.01858C3.19516 2.99424 3.36687 2.86254 3.44679 2.67263L4.43314 0.346909V0.34701C4.49044 0.212869 4.59463 0.106002 4.72507 0.0478133C4.85541 -0.0103856 5.00236 -0.0156572 5.13633 0.0331115C5.2703 0.0817794 5.38147 0.18094 5.44772 0.310609L5.44771 0.3109Z" fill="#E5E5E5"/>
<path d="M18.2661 0.3109L19.4173 2.69614C19.5015 2.87003 19.6644 2.98885 19.8513 3.01309L22.1482 3.30378H22.1481C22.2927 3.32355 22.4242 3.4004 22.515 3.51812C22.6058 3.63583 22.6489 3.78528 22.6351 3.93502C22.6214 4.08478 22.5519 4.22319 22.4412 4.32123L20.6489 5.89542C20.5711 5.96294 20.5126 6.05085 20.4793 6.14991C20.4461 6.24887 20.4394 6.35533 20.46 6.45793L20.9941 9.10909C21.0239 9.25702 20.9968 9.41104 20.9185 9.53869C20.8401 9.66635 20.7167 9.7575 20.5743 9.79288C20.4319 9.82827 20.2817 9.80515 20.1556 9.7283L18.0081 8.43028C17.9224 8.37928 17.8253 8.35241 17.7263 8.35241C17.6274 8.35241 17.5303 8.37928 17.4446 8.43028L15.2999 9.73842H15.2998C15.1737 9.81527 15.0236 9.83849 14.8812 9.80311C14.7389 9.76772 14.6154 9.67657 14.5371 9.54892C14.4587 9.42127 14.4316 9.26716 14.4614 9.11921L14.9927 6.45767C15.0133 6.35506 15.0066 6.2486 14.9734 6.14965C14.9401 6.05059 14.8816 5.96268 14.8038 5.89515L13.0143 4.33981C12.9035 4.24146 12.8341 4.10255 12.8207 3.95239C12.8074 3.80222 12.8511 3.65257 12.9427 3.53496C13.0343 3.41745 13.1666 3.3412 13.3116 3.32234L15.8142 3.01858C16.0135 2.99424 16.1852 2.86254 16.2651 2.67263L17.2515 0.346909V0.34701C17.3088 0.212869 17.413 0.106002 17.5434 0.0478133C17.6738 -0.0103856 17.8207 -0.0156572 17.9547 0.0331115C18.0887 0.0817794 18.1998 0.18094 18.2661 0.310609L18.2661 0.3109Z" fill="#E5E5E5"/>
<path d="M31.0844 0.3109L32.2356 2.69614C32.3199 2.87003 32.4827 2.98885 32.6697 3.01309L34.9665 3.30378H34.9664C35.111 3.32355 35.2425 3.4004 35.3334 3.51812C35.4242 3.63583 35.4672 3.78528 35.4535 3.93502C35.4397 4.08478 35.3702 4.22319 35.2595 4.32123L33.4672 5.89542C33.3895 5.96294 33.331 6.05085 33.2977 6.14991C33.2644 6.24887 33.2578 6.35533 33.2784 6.45793L33.8124 9.10909C33.8423 9.25702 33.8152 9.41104 33.7368 9.53869C33.6585 9.66635 33.535 9.7575 33.3926 9.79288C33.2503 9.82827 33.1001 9.80515 32.974 9.7283L30.8265 8.43028C30.7408 8.37928 30.6437 8.35241 30.5447 8.35241C30.4457 8.35241 30.3486 8.37928 30.2629 8.43028L28.1183 9.73842H28.1182C27.9921 9.81527 27.842 9.83849 27.6996 9.80311C27.5572 9.76772 27.4338 9.67657 27.3554 9.54892C27.277 9.42127 27.25 9.26716 27.2798 9.11921L27.811 6.45767C27.8317 6.35506 27.825 6.2486 27.7918 6.14965C27.7584 6.05059 27.7 5.96268 27.6222 5.89515L25.8326 4.33981C25.7218 4.24146 25.6524 4.10255 25.6391 3.95239C25.6257 3.80222 25.6695 3.65257 25.7611 3.53496C25.8527 3.41745 25.985 3.3412 26.1299 3.32234L28.6325 3.01858C28.8319 2.99424 29.0036 2.86254 29.0835 2.67263L30.0699 0.346909V0.34701C30.1272 0.212869 30.2313 0.106002 30.3618 0.0478133C30.4921 -0.0103856 30.6391 -0.0156572 30.773 0.0331115C30.907 0.0817794 31.0182 0.18094 31.0844 0.310609L31.0844 0.3109Z" fill="#E5E5E5"/>
<path d="M43.9028 0.3109L45.054 2.69614C45.1382 2.87003 45.3011 2.98885 45.488 3.01309L47.7849 3.30378H47.7848C47.9294 3.32355 48.0609 3.4004 48.1517 3.51812C48.2425 3.63583 48.2856 3.78528 48.2718 3.93502C48.2581 4.08478 48.1886 4.22319 48.0779 4.32123L46.2856 5.89542C46.2078 5.96294 46.1493 6.05085 46.116 6.14991C46.0828 6.24887 46.0761 6.35533 46.0968 6.45793L46.6308 9.10909C46.6607 9.25702 46.6335 9.41104 46.5552 9.53869C46.4769 9.66635 46.3534 9.7575 46.211 9.79288C46.0686 9.82827 45.9185 9.80515 45.7923 9.7283L43.6449 8.43028C43.5592 8.37928 43.462 8.35241 43.3631 8.35241C43.2641 8.35241 43.167 8.37928 43.0813 8.43028L40.9367 9.73842H40.9366C40.8105 9.81527 40.6604 9.83849 40.5179 9.80311C40.3756 9.76772 40.2522 9.67657 40.1738 9.54892C40.0954 9.42127 40.0683 9.26716 40.0981 9.11921L40.6294 6.45767C40.65 6.35506 40.6433 6.2486 40.6101 6.14965C40.5768 6.05059 40.5183 5.96268 40.4406 5.89515L38.651 4.33981C38.5402 4.24146 38.4708 4.10255 38.4574 3.95239C38.4441 3.80222 38.4878 3.65257 38.5794 3.53496C38.671 3.41745 38.8033 3.3412 38.9483 3.32234L41.4509 3.01858C41.6502 2.99424 41.8219 2.86254 41.9019 2.67263L42.8882 0.346909V0.34701C42.9455 0.212869 43.0497 0.106002 43.1802 0.0478133C43.3105 -0.0103856 43.4574 -0.0156572 43.5914 0.0331115C43.7254 0.0817794 43.8365 0.18094 43.9028 0.310609L43.9028 0.3109Z" fill="#E5E5E5"/>
<path d="M56.7211 0.3109L57.8723 2.69614C57.9566 2.87003 58.1194 2.98885 58.3064 3.01309L60.6033 3.30378H60.6032C60.7477 3.32355 60.8793 3.4004 60.9701 3.51812C61.0609 3.63583 61.104 3.78528 61.0902 3.93502C61.0764 4.08478 61.0069 4.22319 60.8963 4.32123L59.1039 5.89542C59.0262 5.96294 58.9677 6.05085 58.9344 6.14991C58.9012 6.24887 58.8945 6.35533 58.9151 6.45793L59.4491 9.10909C59.479 9.25702 59.4519 9.41104 59.3736 9.53869C59.2952 9.66635 59.1718 9.7575 59.0293 9.79288C58.887 9.82827 58.7368 9.80515 58.6107 9.7283L56.4632 8.43028C56.3775 8.37928 56.2804 8.35241 56.1814 8.35241C56.0825 8.35241 55.9853 8.37928 55.8996 8.43028L53.755 9.73842H53.7549C53.6288 9.81527 53.4787 9.83849 53.3363 9.80311C53.194 9.76772 53.0705 9.67657 52.9922 9.54892C52.9137 9.42127 52.8867 9.26716 52.9165 9.11921L53.4477 6.45767C53.4684 6.35506 53.4617 6.2486 53.4285 6.14965C53.3952 6.05059 53.3367 5.96268 53.2589 5.89515L51.4693 4.33981C51.3586 4.24146 51.2892 4.10255 51.2758 3.95239C51.2624 3.80222 51.3062 3.65257 51.3978 3.53496C51.4894 3.41745 51.6217 3.3412 51.7667 3.32234L54.2693 3.01858C54.4686 2.99424 54.6403 2.86254 54.7202 2.67263L55.7066 0.346909V0.34701C55.7639 0.212869 55.8681 0.106002 55.9985 0.0478133C56.1288 -0.0103856 56.2758 -0.0156572 56.4098 0.0331115C56.5437 0.0817794 56.6549 0.18094 56.7212 0.310609L56.7211 0.3109Z" fill="#E5E5E5"/>
<mask id="mask0_3_23" style="mask-type:alpha" maskUnits="userSpaceOnUse" x="51" y="0" width="11" height="10">
<path d="M56.7211 0.3109L57.8723 2.69614C57.9566 2.87003 58.1194 2.98885 58.3064 3.01309L60.6033 3.30378H60.6032C60.7477 3.32355 60.8793 3.4004 60.9701 3.51812C61.0609 3.63583 61.104 3.78528 61.0902 3.93502C61.0764 4.08478 61.0069 4.22319 60.8963 4.32123L59.1039 5.89542C59.0262 5.96294 58.9677 6.05085 58.9344 6.14991C58.9012 6.24887 58.8945 6.35533 58.9151 6.45793L59.4491 9.10909C59.479 9.25702 59.4519 9.41104 59.3736 9.53869C59.2952 9.66635 59.1718 9.7575 59.0293 9.79288C58.887 9.82827 58.7368 9.80515 58.6107 9.7283L56.4632 8.43028C56.3775 8.37928 56.2804 8.35241 56.1814 8.35241C56.0825 8.35241 55.9853 8.37928 55.8996 8.43028L53.755 9.73842H53.7549C53.6288 9.81527 53.4787 9.83849 53.3363 9.80311C53.194 9.76772 53.0705 9.67657 52.9922 9.54892C52.9137 9.42127 52.8867 9.26716 52.9165 9.11921L53.4477 6.45767C53.4684 6.35506 53.4617 6.2486 53.4285 6.14965C53.3952 6.05059 53.3367 5.96268 53.2589 5.89515L51.4693 4.33981C51.3586 4.24146 51.2892 4.10255 51.2758 3.95239C51.2624 3.80222 51.3062 3.65257 51.3978 3.53496C51.4894 3.41745 51.6217 3.3412 51.7667 3.32234L54.2693 3.01858C54.4686 2.99424 54.6403 2.86254 54.7202 2.67263L55.7066 0.346909V0.34701C55.7639 0.212869 55.8681 0.106002 55.9985 0.0478133C56.1288 -0.0103856 56.2758 -0.0156572 56.4098 0.0331115C56.5437 0.0817794 56.6549 0.18094 56.7212 0.310609L56.7211 0.3109Z" fill="#FFCC00"/>
</mask>
<g mask="url(#mask0_3_23)">
<rect x="57.873" y="-1.09082" width="8.45548" height="14.7289" fill="#E5E5E5"/>
</g>
</svg>
