<svg width="112" height="18" viewBox="0 0 112 18" fill="none" xmlns="http://www.w3.org/2000/svg">
<path d="M9.44853 1.20942L11.3878 5.2286C11.5297 5.5216 11.804 5.72182 12.119 5.76267L15.9882 6.25248H15.988C16.2316 6.28579 16.4532 6.4153 16.6061 6.61365C16.7591 6.812 16.8317 7.06383 16.8085 7.31615C16.7853 7.56849 16.6682 7.80171 16.4818 7.96691L13.4625 10.6194C13.3315 10.7332 13.233 10.8814 13.1769 11.0483C13.1209 11.215 13.1096 11.3944 13.1444 11.5673L14.044 16.0346C14.0944 16.2838 14.0487 16.5434 13.9167 16.7584C13.7847 16.9735 13.5768 17.1271 13.3368 17.1868C13.0971 17.2464 12.8441 17.2074 12.6316 17.0779L9.01403 14.8907C8.86965 14.8048 8.70606 14.7595 8.53933 14.7595C8.3726 14.7595 8.209 14.8048 8.06462 14.8907L4.45188 17.095H4.45172C4.23928 17.2245 3.98642 17.2636 3.74651 17.204C3.50675 17.1444 3.2988 16.9908 3.16681 16.7757C3.03467 16.5606 2.98914 16.3009 3.03931 16.0516L3.93425 11.5669C3.96902 11.394 3.95776 11.2146 3.9018 11.0478C3.84567 10.8809 3.74715 10.7328 3.61617 10.619L0.601487 7.99822C0.414882 7.83249 0.29798 7.59844 0.275463 7.3454C0.252944 7.09238 0.326626 6.8402 0.480948 6.64203C0.635266 6.44402 0.858135 6.31554 1.10236 6.28376L5.31816 5.77191C5.65395 5.73091 5.94321 5.50898 6.07784 5.18899L7.73941 1.2701V1.27027C7.83594 1.04423 8.01145 0.864162 8.23119 0.766113C8.45075 0.668047 8.69831 0.659164 8.92399 0.741341C9.14967 0.823347 9.33694 0.990434 9.44854 1.20893L9.44853 1.20942Z" fill="#FFAB00"/>
<path d="M33.1087 1.20942L35.0479 5.2286C35.1898 5.5216 35.4642 5.72182 35.7791 5.76267L39.6484 6.25248H39.6482C39.8918 6.28579 40.1133 6.4153 40.2663 6.61365C40.4193 6.812 40.4918 7.06383 40.4686 7.31615C40.4455 7.56849 40.3284 7.80171 40.142 7.96691L37.1226 10.6194C36.9917 10.7332 36.8932 10.8814 36.837 11.0483C36.7811 11.215 36.7698 11.3944 36.8046 11.5673L37.7042 16.0346C37.7545 16.2838 37.7088 16.5434 37.5768 16.7584C37.4449 16.9735 37.2369 17.1271 36.997 17.1868C36.7572 17.2464 36.5042 17.2074 36.2918 17.0779L32.6742 14.8907C32.5298 14.8048 32.3662 14.7595 32.1995 14.7595C32.0328 14.7595 31.8692 14.8048 31.7248 14.8907L28.112 17.095H28.1119C27.8994 17.2245 27.6466 17.2636 27.4067 17.204C27.1669 17.1444 26.959 16.9908 26.827 16.7757C26.6948 16.5606 26.6493 16.3009 26.6995 16.0516L27.5944 11.5669C27.6292 11.394 27.6179 11.2146 27.562 11.0478C27.5058 10.8809 27.4073 10.7328 27.2763 10.619L24.2616 7.99822C24.075 7.83249 23.9581 7.59844 23.9356 7.3454C23.9131 7.09238 23.9868 6.8402 24.1411 6.64203C24.2954 6.44402 24.5183 6.31554 24.7625 6.28376L28.9783 5.77191C29.3141 5.73091 29.6034 5.50898 29.738 5.18899L31.3996 1.2701V1.27027C31.4961 1.04423 31.6716 0.864162 31.8914 0.766113C32.1109 0.668047 32.3585 0.659164 32.5841 0.741341C32.8098 0.823347 32.9971 0.990434 33.1087 1.20893L33.1087 1.20942Z" fill="#FFAB00"/>
<path d="M56.7688 1.20942L58.7081 5.2286C58.85 5.5216 59.1244 5.72182 59.4393 5.76267L63.3085 6.25248H63.3084C63.5519 6.28579 63.7735 6.4153 63.9265 6.61365C64.0794 6.812 64.152 7.06383 64.1288 7.31615C64.1056 7.56849 63.9886 7.80171 63.8021 7.96691L60.7828 10.6194C60.6518 10.7332 60.5533 10.8814 60.4972 11.0483C60.4412 11.215 60.43 11.3944 60.4647 11.5673L61.3643 16.0346C61.4147 16.2838 61.369 16.5434 61.237 16.7584C61.105 16.9735 60.8971 17.1271 60.6571 17.1868C60.4174 17.2464 60.1644 17.2074 59.9519 17.0779L56.3343 14.8907C56.19 14.8048 56.0264 14.7595 55.8596 14.7595C55.6929 14.7595 55.5293 14.8048 55.3849 14.8907L51.7722 17.095H51.772C51.5596 17.2245 51.3067 17.2636 51.0668 17.204C50.8271 17.1444 50.6191 16.9908 50.4871 16.7757C50.355 16.5606 50.3095 16.3009 50.3596 16.0516L51.2546 11.5669C51.2893 11.394 51.2781 11.2146 51.2221 11.0478C51.166 10.8809 51.0675 10.7328 50.9365 10.619L47.9218 7.99822C47.7352 7.83249 47.6183 7.59844 47.5958 7.3454C47.5733 7.09238 47.6469 6.8402 47.8013 6.64203C47.9556 6.44402 48.1784 6.31554 48.4227 6.28376L52.6385 5.77191C52.9743 5.73091 53.2635 5.50898 53.3981 5.18899L55.0597 1.2701V1.27027C55.1562 1.04423 55.3318 0.864162 55.5515 0.766113C55.7711 0.668047 56.0186 0.659164 56.2443 0.741341C56.47 0.823347 56.6573 0.990434 56.7689 1.20893L56.7688 1.20942Z" fill="#FFAB00"/>
<path d="M80.429 1.20942L82.3683 5.2286C82.5102 5.5216 82.7845 5.72182 83.0994 5.76267L86.9687 6.25248H86.9685C87.2121 6.28579 87.4336 6.4153 87.5866 6.61365C87.7396 6.812 87.8121 7.06383 87.789 7.31615C87.7658 7.56849 87.6487 7.80171 87.4623 7.96691L84.443 10.6194C84.312 10.7332 84.2135 10.8814 84.1573 11.0483C84.1014 11.215 84.0901 11.3944 84.1249 11.5673L85.0245 16.0346C85.0748 16.2838 85.0291 16.5434 84.8972 16.7584C84.7652 16.9735 84.5572 17.1271 84.3173 17.1868C84.0775 17.2464 83.8245 17.2074 83.6121 17.0779L79.9945 14.8907C79.8501 14.8048 79.6865 14.7595 79.5198 14.7595C79.3531 14.7595 79.1895 14.8048 79.0451 14.8907L75.4324 17.095H75.4322C75.2197 17.2245 74.9669 17.2636 74.727 17.204C74.4872 17.1444 74.2793 16.9908 74.1473 16.7757C74.0151 16.5606 73.9696 16.3009 74.0198 16.0516L74.9147 11.5669C74.9495 11.394 74.9382 11.2146 74.8823 11.0478C74.8261 10.8809 74.7276 10.7328 74.5966 10.619L71.582 7.99822C71.3954 7.83249 71.2784 7.59844 71.2559 7.3454C71.2334 7.09238 71.3071 6.8402 71.4614 6.64203C71.6157 6.44402 71.8386 6.31554 72.0828 6.28376L76.2986 5.77191C76.6344 5.73091 76.9237 5.50898 77.0583 5.18899L78.7199 1.2701V1.27027C78.8164 1.04423 78.9919 0.864162 79.2117 0.766113C79.4312 0.668047 79.6788 0.659164 79.9045 0.741341C80.1301 0.823347 80.3174 0.990434 80.429 1.20893L80.429 1.20942Z" fill="#FFAB00"/>
<path d="M104.087 1.20942L106.026 5.2286C106.168 5.5216 106.443 5.72182 106.758 5.76267L110.627 6.25248H110.627C110.87 6.28579 111.092 6.4153 111.245 6.61365C111.398 6.812 111.47 7.06383 111.447 7.31615C111.424 7.56849 111.307 7.80171 111.12 7.96691L108.101 10.6194C107.97 10.7332 107.872 10.8814 107.816 11.0483C107.76 11.215 107.748 11.3944 107.783 11.5673L108.683 16.0346C108.733 16.2838 108.687 16.5434 108.555 16.7584C108.423 16.9735 108.215 17.1271 107.975 17.1868C107.736 17.2464 107.483 17.2074 107.27 17.0779L103.653 14.8907C103.508 14.8048 103.345 14.7595 103.178 14.7595C103.011 14.7595 102.848 14.8048 102.703 14.8907L99.0906 17.095H99.0904C98.878 17.2245 98.6251 17.2636 98.3852 17.204C98.1454 17.1444 97.9375 16.9908 97.8055 16.7757C97.6733 16.5606 97.6278 16.3009 97.678 16.0516L98.5729 11.5669C98.6077 11.394 98.5964 11.2146 98.5405 11.0478C98.4843 10.8809 98.3858 10.7328 98.2548 10.619L95.2402 7.99822C95.0536 7.83249 94.9367 7.59844 94.9141 7.3454C94.8916 7.09238 94.9653 6.8402 95.1196 6.64203C95.2739 6.44402 95.4968 6.31554 95.741 6.28376L99.9568 5.77191C100.293 5.73091 100.582 5.50898 100.717 5.18899L102.378 1.2701V1.27027C102.475 1.04423 102.65 0.864162 102.87 0.766113C103.089 0.668047 103.337 0.659164 103.563 0.741341C103.788 0.823347 103.976 0.990434 104.087 1.20893L104.087 1.20942Z" fill="#FFAB00"/>
<mask id="mask0_4944_16587" style="mask-type:alpha" maskUnits="userSpaceOnUse" x="94" y="0" width="18" height="18">
<path d="M104.087 1.20942L106.026 5.2286C106.168 5.5216 106.443 5.72182 106.758 5.76267L110.627 6.25248H110.627C110.87 6.28579 111.092 6.4153 111.245 6.61365C111.398 6.812 111.47 7.06383 111.447 7.31615C111.424 7.56849 111.307 7.80171 111.12 7.96691L108.101 10.6194C107.97 10.7332 107.872 10.8814 107.816 11.0483C107.76 11.215 107.748 11.3944 107.783 11.5673L108.683 16.0346C108.733 16.2838 108.687 16.5434 108.555 16.7584C108.423 16.9735 108.215 17.1271 107.975 17.1868C107.736 17.2464 107.483 17.2074 107.27 17.0779L103.653 14.8907C103.508 14.8048 103.345 14.7595 103.178 14.7595C103.011 14.7595 102.848 14.8048 102.703 14.8907L99.0906 17.095H99.0904C98.878 17.2245 98.6251 17.2636 98.3852 17.204C98.1454 17.1444 97.9375 16.9908 97.8055 16.7757C97.6733 16.5606 97.6278 16.3009 97.678 16.0516L98.5729 11.5669C98.6077 11.394 98.5964 11.2146 98.5405 11.0478C98.4843 10.8809 98.3858 10.7328 98.2548 10.619L95.2402 7.99822C95.0536 7.83249 94.9367 7.59844 94.9141 7.3454C94.8916 7.09238 94.9653 6.8402 95.1196 6.64203C95.2739 6.44402 95.4968 6.31554 95.741 6.28376L99.9568 5.77191C100.293 5.73091 100.582 5.50898 100.717 5.18899L102.378 1.2701V1.27027C102.475 1.04423 102.65 0.864162 102.87 0.766113C103.089 0.668047 103.337 0.659164 103.563 0.741341C103.788 0.823347 103.976 0.990434 104.087 1.20893L104.087 1.20942Z" fill="#FFCC00"/>
</mask>
<g mask="url(#mask0_4944_16587)">
<rect x="106.74" y="-1.37891" width="14.2438" height="24.8119" fill="#E5E5E5"/>
</g>
</svg>
