<svg width="20" height="20" viewBox="0 0 20 20" fill="none" xmlns="http://www.w3.org/2000/svg">
<g clip-path="url(#clip0_3122_37185)">
<path d="M4.03954 9.82294V9.65186C4.36118 9.83229 4.75394 9.99666 5.21343 10.1408C5.26497 10.1573 5.31827 10.1647 5.37039 10.1647C5.54991 10.1647 5.71959 10.0733 5.7868 9.92456C5.8731 9.73289 5.75726 9.51926 5.52734 9.44708L5.78623 13.3102C5.87252 13.1185 5.75668 12.9047 5.52677 12.8325C4.51675 12.5153 3.88954 12.0885 3.88954 11.7189V9.73864C3.93796 9.76716 3.98796 9.79526 4.03954 9.82294ZM4.03954 9.82294V11.7189C4.03954 11.7678 4.06035 11.8323 4.12221 11.9127C4.18396 11.993 4.28036 12.0805 4.41377 12.1713C4.68046 12.3527 5.07481 12.5333 5.5717 12.6894L5.16817 10.2838C4.73553 10.1481 4.35768 9.99363 4.03954 9.82294ZM5.16765 13.6693C5.16774 13.6693 5.16783 13.6693 5.16793 13.6693L5.21286 13.5262L5.16732 13.6692C5.16743 13.6692 5.16754 13.6692 5.16765 13.6693ZM4.03954 13.2084V13.0373C3.98769 13.0082 3.93768 12.9787 3.88954 12.9488V13.1241C3.93796 13.1526 3.98797 13.1807 4.03954 13.2084ZM4.01184 15.1314C4.01487 15.123 4.0198 15.1092 4.02467 15.0922C4.0198 15.0752 4.01487 15.0614 4.01184 15.053C4.01076 15.05 4.00992 15.0477 4.00942 15.0461L3.86669 15.0922L4.00942 15.1383C4.00992 15.1368 4.01076 15.1344 4.01184 15.1314ZM15.9723 15.1189C15.9708 15.1235 15.9676 15.1329 15.9649 15.1455C15.9676 15.1582 15.9708 15.1676 15.9723 15.1722L15.9726 15.1729L15.9737 15.1761L15.9744 15.1781C15.9746 15.1788 15.9747 15.179 15.9747 15.179L15.9746 15.1787C15.9743 15.1778 15.9728 15.1729 15.9718 15.1658L16.1205 15.1455L15.9719 15.1248C15.9725 15.1203 15.9733 15.1168 15.9739 15.1146C15.9742 15.1133 15.9745 15.1125 15.9746 15.1122C15.9747 15.1118 15.9747 15.1118 15.9743 15.1129L15.9736 15.115L15.9725 15.1182L15.9723 15.1189ZM15.9605 13.2079C16.0121 13.1802 16.0621 13.1521 16.1105 13.1235V12.9482C16.0624 12.9781 16.0123 13.0077 15.9605 13.0368V13.2079ZM14.0427 13.38C14.0427 13.38 14.0427 13.38 14.0427 13.38L14.1797 13.3189L14.0427 13.38ZM14.3977 12.6988C14.3977 12.6989 14.3977 12.6989 14.3976 12.6989L14.442 12.8422L14.3977 12.6988ZM15.9605 9.82234C16.0121 9.79462 16.0621 9.76648 16.1105 9.73793V9.5626C16.0623 9.59254 16.0123 9.62207 15.9605 9.6512V9.82234ZM14.7432 10.1547L14.7874 10.298C14.7875 10.2979 14.7877 10.2979 14.7878 10.2978L14.7432 10.1547ZM14.0343 9.99623C14.0344 9.99632 14.0344 9.99642 14.0344 9.99652L14.1715 9.93568L14.0343 9.99623ZM15.9605 5.75278V5.92346C16.0119 5.89615 16.0619 5.86832 16.1105 5.83998V5.66513C16.0621 5.69488 16.0121 5.72409 15.9605 5.75278ZM4.03954 5.92347V5.75278C3.98789 5.7241 3.93787 5.69488 3.88954 5.66513V5.83999C3.93811 5.86833 3.98813 5.89616 4.03954 5.92347ZM17.15 4.43406C17.15 3.97491 16.8866 3.58606 16.4751 3.26808C16.064 2.95036 15.4881 2.68894 14.8168 2.48089C13.4726 2.06429 11.7067 1.85 10 1.85C8.29329 1.85 6.52745 2.06429 5.18317 2.48089C4.51185 2.68894 3.93598 2.95036 3.52487 3.26808C3.11342 3.58606 2.85 3.97491 2.85 4.43406C2.85 4.46032 2.85424 4.48333 2.85679 4.4962C2.85346 4.50902 2.85 4.52702 2.85 4.54753V14.9978C2.85 15.032 2.85736 15.066 2.86487 15.0922C2.85736 15.1184 2.85 15.1524 2.85 15.1866C2.85 15.6458 3.11341 16.0347 3.52486 16.3527C3.93597 16.6705 4.51185 16.9319 5.18317 17.14C6.52745 17.5566 8.29329 17.7709 10 17.7709C11.7067 17.7709 13.4726 17.5566 14.8168 17.14C15.4882 16.9319 16.064 16.6705 16.4751 16.3527C16.8866 16.0347 17.15 15.6458 17.15 15.1866C17.15 15.171 17.148 15.1569 17.1456 15.1455C17.148 15.134 17.15 15.1199 17.15 15.1043V11.7188V8.33341V4.54753C17.15 4.52699 17.1465 4.509 17.1432 4.49618C17.1458 4.4833 17.15 4.4603 17.15 4.43406ZM10 2.89158C11.8811 2.89158 13.3929 3.13659 14.4295 3.46573C14.9487 3.63057 15.3423 3.8145 15.6027 3.99475C15.8736 4.1823 15.9605 4.33719 15.9605 4.43406C15.9605 4.53093 15.8736 4.68582 15.6027 4.87336C15.3423 5.05361 14.9487 5.23755 14.4295 5.40239C13.3929 5.73153 11.8811 5.97654 10 5.97654C8.11893 5.97654 6.60714 5.73153 5.57048 5.40239C5.05129 5.23755 4.65769 5.05361 4.39729 4.87336C4.12636 4.68582 4.03954 4.53093 4.03954 4.43406C4.03954 4.33719 4.12636 4.1823 4.39729 3.99475C4.65769 3.8145 5.05129 3.63057 5.57048 3.46573C6.60714 3.13659 8.11893 2.89158 10 2.89158Z" fill="#6754E2" stroke="#6754E2" stroke-width="0.3"/>
<path d="M9.13593 11.6194L7.4284 10.2576L7.42835 10.2576C7.30785 10.1614 7.23873 10.0271 7.23493 9.88464C7.23112 9.74206 7.29316 9.60438 7.40942 9.50298M9.13593 11.6194L7.50801 9.61603M9.13593 11.6194L7.50331 13.0421L7.50326 13.0422C7.38701 13.1436 7.32497 13.2813 7.32878 13.4238C7.33258 13.5663 7.40169 13.7006 7.52219 13.7968L7.52226 13.7968C7.63837 13.8894 7.78312 13.9324 7.92328 13.9324C8.07149 13.9324 8.22487 13.884 8.34313 13.7811L8.34325 13.781L10.0172 12.3222L9.13593 11.6194ZM7.40942 9.50298L7.50801 9.61603M7.40942 9.50298C7.40939 9.50301 7.40936 9.50303 7.40933 9.50306L7.50801 9.61603M7.40942 9.50298C7.63442 9.30651 7.99674 9.30063 8.23047 9.48716L8.13695 9.60442L8.23052 9.4872L9.98083 10.8831M7.50801 9.61603C7.67769 9.4678 7.95914 9.4625 8.13694 9.60443L9.98509 11.0783M9.98083 10.8831L9.88654 10.9652L9.98509 11.0783M9.98083 10.8831L10.0786 10.961L9.98509 11.0783M9.98083 10.8831L11.6544 9.42459C11.6545 9.42455 11.6545 9.42451 11.6545 9.42447C11.8796 9.22802 12.2419 9.22217 12.4756 9.40872L9.98509 11.0783" fill="#6754E2" stroke="#6754E2" stroke-width="0.3"/>
</g>
<defs>
<clipPath id="clip0_3122_37185">
<rect width="20" height="20" fill="white"/>
</clipPath>
</defs>
</svg>
