<svg width="20" height="20" viewBox="0 0 20 20" fill="none" xmlns="http://www.w3.org/2000/svg">
<mask id="path-1-outside-1_6241_97701" maskUnits="userSpaceOnUse" x="1" y="0" width="17" height="20" fill="black">
<rect fill="white" x="1" width="17" height="20"/>
<path d="M14.6063 1H8.22337C7.59468 1.00862 6.99469 1.27123 6.5537 1.7308C6.11271 2.19037 5.86633 2.80979 5.86807 3.45455V7.38182C5.86896 7.94631 6.06006 8.49313 6.40903 8.92971C6.75799 9.36628 7.24336 9.66576 7.78295 9.77745V10.432C7.78295 10.658 7.84849 10.8788 7.97125 11.0665C8.094 11.2541 8.26842 11.4001 8.47231 11.4858C8.60982 11.545 8.75724 11.5761 8.90635 11.5775C9.05273 11.5773 9.1976 11.547 9.33243 11.4886C9.46725 11.4301 9.58932 11.3446 9.69145 11.2371L11.0446 9.856H14.6063C14.9223 9.85601 15.2351 9.79188 15.5268 9.6673C15.8184 9.54272 16.0831 9.36016 16.3057 9.13015C16.5282 8.90014 16.7041 8.62723 16.8232 8.32716C16.9424 8.02709 17.0025 7.7058 16.9999 7.38182V3.45455C16.9999 2.80356 16.7477 2.17924 16.2989 1.71892C15.85 1.2586 15.2411 1 14.6063 1ZM16.0425 7.38182C16.0374 7.7684 15.8837 8.13729 15.6147 8.4082C15.3458 8.67911 14.9833 8.83012 14.6063 8.82836H10.834C10.7071 8.82848 10.5854 8.88027 10.4957 8.97236L9.00209 10.4975C8.98015 10.5208 8.95193 10.5369 8.92103 10.5438C8.89012 10.5507 8.85792 10.548 8.82852 10.5361C8.79911 10.5242 8.77381 10.5035 8.75585 10.4769C8.73789 10.4502 8.72806 10.4186 8.72763 10.3862V9.34545C8.72848 9.28074 8.71669 9.21651 8.69293 9.15656C8.66918 9.0966 8.63395 9.04213 8.58932 8.99637C8.5447 8.95061 8.49158 8.91448 8.43311 8.89012C8.37464 8.86576 8.31201 8.85366 8.2489 8.85455C8.06114 8.85369 7.87538 8.81491 7.70224 8.74044C7.52909 8.66596 7.37194 8.55724 7.23976 8.42049C7.10759 8.28373 7.00297 8.12162 6.9319 7.9434C6.86082 7.76519 6.82467 7.57436 6.82551 7.38182V3.45455C6.82208 3.06966 6.96704 2.69896 7.22884 2.42314C7.49064 2.14732 7.84809 1.98871 8.22337 1.98182H14.6063C14.7952 1.98095 14.9823 2.01845 15.1569 2.09216C15.3315 2.16586 15.4902 2.27431 15.6237 2.41124C15.7573 2.54817 15.863 2.71086 15.9349 2.88993C16.0068 3.069 16.0433 3.2609 16.0425 3.45455V7.38182ZM14.1276 6.72727C14.1259 6.85694 14.075 6.98082 13.9856 7.07252C13.8961 7.16422 13.7753 7.21649 13.6489 7.21818H9.18081C9.05385 7.21818 8.93209 7.16646 8.84231 7.0744C8.75253 6.98233 8.70209 6.85747 8.70209 6.72727C8.70209 6.59708 8.75253 6.47221 8.84231 6.38015C8.93209 6.28808 9.05385 6.23636 9.18081 6.23636H13.6489C13.7131 6.23462 13.777 6.24599 13.837 6.2698C13.8969 6.29361 13.9516 6.32939 13.9979 6.37506C14.0442 6.42074 14.0812 6.47539 14.1068 6.53585C14.1323 6.59632 14.1459 6.66138 14.1467 6.72727H14.1276ZM14.1276 4.10909C14.1259 4.23876 14.075 4.36264 13.9856 4.45434C13.8961 4.54604 13.7753 4.5983 13.6489 4.6H9.18081C9.05385 4.6 8.93209 4.54828 8.84231 4.45622C8.75253 4.36415 8.70209 4.23929 8.70209 4.10909C8.70209 3.97889 8.75253 3.85403 8.84231 3.76197C8.93209 3.6699 9.05385 3.61818 9.18081 3.61818H13.6489C13.7131 3.61644 13.777 3.62781 13.837 3.65162C13.8969 3.67543 13.9516 3.71121 13.9979 3.75688C14.0442 3.80255 14.0812 3.85721 14.1068 3.91767C14.1323 3.97813 14.1459 4.0432 14.1467 4.10909H14.1276ZM14.1723 15.4327C14.3884 15.219 14.5602 14.9627 14.6776 14.6793C14.7949 14.3959 14.8553 14.0912 14.8553 13.7833C14.8553 13.1705 14.6179 12.5828 14.1953 12.1495C13.7728 11.7162 13.1997 11.4727 12.6021 11.4727C12.0045 11.4727 11.4314 11.7162 11.0088 12.1495C10.5863 12.5828 10.3489 13.1705 10.3489 13.7833C10.3488 14.0912 10.4092 14.3959 10.5266 14.6793C10.6439 14.9627 10.8158 15.219 11.0319 15.4327C10.6135 15.6577 10.2629 15.9953 10.0177 16.4094C9.77253 16.8234 9.64208 17.2981 9.64039 17.7825C9.64039 18.1054 9.76547 18.4151 9.98812 18.6434C10.2108 18.8717 10.5127 19 10.8276 19H14.3765C14.6914 19 14.9934 18.8717 15.216 18.6434C15.4387 18.4151 15.5638 18.1054 15.5638 17.7825C15.5639 17.3002 15.4363 16.8268 15.1946 16.4129C14.9529 15.9991 14.6062 15.6603 14.1914 15.4327H14.1723ZM12.6021 12.4545C12.8546 12.4545 13.1014 12.5313 13.3113 12.6752C13.5212 12.819 13.6849 13.0235 13.7815 13.2627C13.8781 13.5019 13.9034 13.7651 13.8541 14.019C13.8049 14.273 13.6833 14.5062 13.5048 14.6893C13.3262 14.8724 13.0988 14.9971 12.8511 15.0476C12.6035 15.0981 12.3468 15.0722 12.1135 14.9731C11.8803 14.874 11.6809 14.7062 11.5406 14.4909C11.4004 14.2756 11.3255 14.0225 11.3255 13.7636C11.3255 13.5901 11.3591 13.4182 11.4245 13.2581C11.4898 13.098 11.5856 12.9528 11.7061 12.831C11.8267 12.7091 11.9697 12.6131 12.1268 12.5485C12.2839 12.4839 12.452 12.4519 12.6212 12.4545H12.6021ZM14.3765 18.0182H10.8468C10.7858 18.0182 10.7274 17.9934 10.6843 17.9492C10.6412 17.905 10.617 17.845 10.617 17.7825C10.617 17.3347 10.7905 16.9051 11.0993 16.5884C11.4081 16.2717 11.827 16.0938 12.2638 16.0938H12.9723C13.4068 16.0973 13.8224 16.2767 14.1285 16.593C14.4346 16.9094 14.6063 17.3369 14.6063 17.7825C14.6065 17.8418 14.585 17.8989 14.5459 17.9426C14.5069 17.9863 14.4532 18.0132 14.3957 18.0182H14.3765ZM6.53189 15.4327C6.74798 15.219 6.91983 14.9627 7.03718 14.6793C7.15452 14.3959 7.21496 14.0912 7.21487 13.7833C7.21487 13.1705 6.97748 12.5828 6.55493 12.1495C6.13237 11.7162 5.55927 11.4727 4.96169 11.4727C4.36411 11.4727 3.791 11.7162 3.36845 12.1495C2.9459 12.5828 2.70851 13.1705 2.70851 13.7833C2.70842 14.0912 2.76885 14.3959 2.8862 14.6793C3.00354 14.9627 3.17539 15.219 3.39148 15.4327C2.97313 15.6577 2.6225 15.9953 2.37732 16.4094C2.13214 16.8234 2.00169 17.2981 2 17.7825C2 18.1054 2.12508 18.4151 2.34773 18.6434C2.57038 18.8717 2.87236 19 3.18723 19H6.73615C7.05102 19 7.35299 18.8717 7.57564 18.6434C7.79829 18.4151 7.92337 18.1054 7.92337 17.7825C7.92168 17.2981 7.79123 16.8234 7.54605 16.4094C7.30087 15.9953 6.95024 15.6577 6.53189 15.4327ZM4.96169 12.4545C5.21417 12.4545 5.46099 12.5313 5.67092 12.6752C5.88086 12.819 6.04448 13.0235 6.1411 13.2627C6.23772 13.5019 6.263 13.7651 6.21375 14.019C6.16449 14.273 6.04291 14.5062 5.86437 14.6893C5.68584 14.8724 5.45837 14.9971 5.21074 15.0476C4.9631 15.0981 4.70642 15.0722 4.47316 14.9731C4.23989 14.874 4.04052 14.7062 3.90024 14.4909C3.75997 14.2756 3.6851 14.0225 3.6851 13.7636C3.6851 13.4164 3.8196 13.0835 4.059 12.838C4.29841 12.5925 4.62311 12.4545 4.96169 12.4545ZM6.73615 18.0182H3.18723C3.12629 18.0182 3.06784 17.9934 3.02474 17.9492C2.98165 17.905 2.95744 17.845 2.95744 17.7825C2.95744 17.3347 3.13094 16.9051 3.43978 16.5884C3.74861 16.2717 4.16748 16.0938 4.60424 16.0938H5.31275C5.74729 16.0973 6.16289 16.2767 6.46897 16.593C6.77505 16.9094 6.9468 17.3369 6.94678 17.7825C6.94698 17.8418 6.92542 17.8989 6.88639 17.9426C6.84735 17.9863 6.79371 18.0132 6.73615 18.0182Z"/>
</mask>
<path d="M14.6063 1H8.22337C7.59468 1.00862 6.99469 1.27123 6.5537 1.7308C6.11271 2.19037 5.86633 2.80979 5.86807 3.45455V7.38182C5.86896 7.94631 6.06006 8.49313 6.40903 8.92971C6.75799 9.36628 7.24336 9.66576 7.78295 9.77745V10.432C7.78295 10.658 7.84849 10.8788 7.97125 11.0665C8.094 11.2541 8.26842 11.4001 8.47231 11.4858C8.60982 11.545 8.75724 11.5761 8.90635 11.5775C9.05273 11.5773 9.1976 11.547 9.33243 11.4886C9.46725 11.4301 9.58932 11.3446 9.69145 11.2371L11.0446 9.856H14.6063C14.9223 9.85601 15.2351 9.79188 15.5268 9.6673C15.8184 9.54272 16.0831 9.36016 16.3057 9.13015C16.5282 8.90014 16.7041 8.62723 16.8232 8.32716C16.9424 8.02709 17.0025 7.7058 16.9999 7.38182V3.45455C16.9999 2.80356 16.7477 2.17924 16.2989 1.71892C15.85 1.2586 15.2411 1 14.6063 1ZM16.0425 7.38182C16.0374 7.7684 15.8837 8.13729 15.6147 8.4082C15.3458 8.67911 14.9833 8.83012 14.6063 8.82836H10.834C10.7071 8.82848 10.5854 8.88027 10.4957 8.97236L9.00209 10.4975C8.98015 10.5208 8.95193 10.5369 8.92103 10.5438C8.89012 10.5507 8.85792 10.548 8.82852 10.5361C8.79911 10.5242 8.77381 10.5035 8.75585 10.4769C8.73789 10.4502 8.72806 10.4186 8.72763 10.3862V9.34545C8.72848 9.28074 8.71669 9.21651 8.69293 9.15656C8.66918 9.0966 8.63395 9.04213 8.58932 8.99637C8.5447 8.95061 8.49158 8.91448 8.43311 8.89012C8.37464 8.86576 8.31201 8.85366 8.2489 8.85455C8.06114 8.85369 7.87538 8.81491 7.70224 8.74044C7.52909 8.66596 7.37194 8.55724 7.23976 8.42049C7.10759 8.28373 7.00297 8.12162 6.9319 7.9434C6.86082 7.76519 6.82467 7.57436 6.82551 7.38182V3.45455C6.82208 3.06966 6.96704 2.69896 7.22884 2.42314C7.49064 2.14732 7.84809 1.98871 8.22337 1.98182H14.6063C14.7952 1.98095 14.9823 2.01845 15.1569 2.09216C15.3315 2.16586 15.4902 2.27431 15.6237 2.41124C15.7573 2.54817 15.863 2.71086 15.9349 2.88993C16.0068 3.069 16.0433 3.2609 16.0425 3.45455V7.38182ZM14.1276 6.72727C14.1259 6.85694 14.075 6.98082 13.9856 7.07252C13.8961 7.16422 13.7753 7.21649 13.6489 7.21818H9.18081C9.05385 7.21818 8.93209 7.16646 8.84231 7.0744C8.75253 6.98233 8.70209 6.85747 8.70209 6.72727C8.70209 6.59708 8.75253 6.47221 8.84231 6.38015C8.93209 6.28808 9.05385 6.23636 9.18081 6.23636H13.6489C13.7131 6.23462 13.777 6.24599 13.837 6.2698C13.8969 6.29361 13.9516 6.32939 13.9979 6.37506C14.0442 6.42074 14.0812 6.47539 14.1068 6.53585C14.1323 6.59632 14.1459 6.66138 14.1467 6.72727H14.1276ZM14.1276 4.10909C14.1259 4.23876 14.075 4.36264 13.9856 4.45434C13.8961 4.54604 13.7753 4.5983 13.6489 4.6H9.18081C9.05385 4.6 8.93209 4.54828 8.84231 4.45622C8.75253 4.36415 8.70209 4.23929 8.70209 4.10909C8.70209 3.97889 8.75253 3.85403 8.84231 3.76197C8.93209 3.6699 9.05385 3.61818 9.18081 3.61818H13.6489C13.7131 3.61644 13.777 3.62781 13.837 3.65162C13.8969 3.67543 13.9516 3.71121 13.9979 3.75688C14.0442 3.80255 14.0812 3.85721 14.1068 3.91767C14.1323 3.97813 14.1459 4.0432 14.1467 4.10909H14.1276ZM14.1723 15.4327C14.3884 15.219 14.5602 14.9627 14.6776 14.6793C14.7949 14.3959 14.8553 14.0912 14.8553 13.7833C14.8553 13.1705 14.6179 12.5828 14.1953 12.1495C13.7728 11.7162 13.1997 11.4727 12.6021 11.4727C12.0045 11.4727 11.4314 11.7162 11.0088 12.1495C10.5863 12.5828 10.3489 13.1705 10.3489 13.7833C10.3488 14.0912 10.4092 14.3959 10.5266 14.6793C10.6439 14.9627 10.8158 15.219 11.0319 15.4327C10.6135 15.6577 10.2629 15.9953 10.0177 16.4094C9.77253 16.8234 9.64208 17.2981 9.64039 17.7825C9.64039 18.1054 9.76547 18.4151 9.98812 18.6434C10.2108 18.8717 10.5127 19 10.8276 19H14.3765C14.6914 19 14.9934 18.8717 15.216 18.6434C15.4387 18.4151 15.5638 18.1054 15.5638 17.7825C15.5639 17.3002 15.4363 16.8268 15.1946 16.4129C14.9529 15.9991 14.6062 15.6603 14.1914 15.4327H14.1723ZM12.6021 12.4545C12.8546 12.4545 13.1014 12.5313 13.3113 12.6752C13.5212 12.819 13.6849 13.0235 13.7815 13.2627C13.8781 13.5019 13.9034 13.7651 13.8541 14.019C13.8049 14.273 13.6833 14.5062 13.5048 14.6893C13.3262 14.8724 13.0988 14.9971 12.8511 15.0476C12.6035 15.0981 12.3468 15.0722 12.1135 14.9731C11.8803 14.874 11.6809 14.7062 11.5406 14.4909C11.4004 14.2756 11.3255 14.0225 11.3255 13.7636C11.3255 13.5901 11.3591 13.4182 11.4245 13.2581C11.4898 13.098 11.5856 12.9528 11.7061 12.831C11.8267 12.7091 11.9697 12.6131 12.1268 12.5485C12.2839 12.4839 12.452 12.4519 12.6212 12.4545H12.6021ZM14.3765 18.0182H10.8468C10.7858 18.0182 10.7274 17.9934 10.6843 17.9492C10.6412 17.905 10.617 17.845 10.617 17.7825C10.617 17.3347 10.7905 16.9051 11.0993 16.5884C11.4081 16.2717 11.827 16.0938 12.2638 16.0938H12.9723C13.4068 16.0973 13.8224 16.2767 14.1285 16.593C14.4346 16.9094 14.6063 17.3369 14.6063 17.7825C14.6065 17.8418 14.585 17.8989 14.5459 17.9426C14.5069 17.9863 14.4532 18.0132 14.3957 18.0182H14.3765ZM6.53189 15.4327C6.74798 15.219 6.91983 14.9627 7.03718 14.6793C7.15452 14.3959 7.21496 14.0912 7.21487 13.7833C7.21487 13.1705 6.97748 12.5828 6.55493 12.1495C6.13237 11.7162 5.55927 11.4727 4.96169 11.4727C4.36411 11.4727 3.791 11.7162 3.36845 12.1495C2.9459 12.5828 2.70851 13.1705 2.70851 13.7833C2.70842 14.0912 2.76885 14.3959 2.8862 14.6793C3.00354 14.9627 3.17539 15.219 3.39148 15.4327C2.97313 15.6577 2.6225 15.9953 2.37732 16.4094C2.13214 16.8234 2.00169 17.2981 2 17.7825C2 18.1054 2.12508 18.4151 2.34773 18.6434C2.57038 18.8717 2.87236 19 3.18723 19H6.73615C7.05102 19 7.35299 18.8717 7.57564 18.6434C7.79829 18.4151 7.92337 18.1054 7.92337 17.7825C7.92168 17.2981 7.79123 16.8234 7.54605 16.4094C7.30087 15.9953 6.95024 15.6577 6.53189 15.4327ZM4.96169 12.4545C5.21417 12.4545 5.46099 12.5313 5.67092 12.6752C5.88086 12.819 6.04448 13.0235 6.1411 13.2627C6.23772 13.5019 6.263 13.7651 6.21375 14.019C6.16449 14.273 6.04291 14.5062 5.86437 14.6893C5.68584 14.8724 5.45837 14.9971 5.21074 15.0476C4.9631 15.0981 4.70642 15.0722 4.47316 14.9731C4.23989 14.874 4.04052 14.7062 3.90024 14.4909C3.75997 14.2756 3.6851 14.0225 3.6851 13.7636C3.6851 13.4164 3.8196 13.0835 4.059 12.838C4.29841 12.5925 4.62311 12.4545 4.96169 12.4545ZM6.73615 18.0182H3.18723C3.12629 18.0182 3.06784 17.9934 3.02474 17.9492C2.98165 17.905 2.95744 17.845 2.95744 17.7825C2.95744 17.3347 3.13094 16.9051 3.43978 16.5884C3.74861 16.2717 4.16748 16.0938 4.60424 16.0938H5.31275C5.74729 16.0973 6.16289 16.2767 6.46897 16.593C6.77505 16.9094 6.9468 17.3369 6.94678 17.7825C6.94698 17.8418 6.92542 17.8989 6.88639 17.9426C6.84735 17.9863 6.79371 18.0132 6.73615 18.0182Z" fill="#6754E2"/>
<path d="M14.6063 1H8.22337C7.59468 1.00862 6.99469 1.27123 6.5537 1.7308C6.11271 2.19037 5.86633 2.80979 5.86807 3.45455V7.38182C5.86896 7.94631 6.06006 8.49313 6.40903 8.92971C6.75799 9.36628 7.24336 9.66576 7.78295 9.77745V10.432C7.78295 10.658 7.84849 10.8788 7.97125 11.0665C8.094 11.2541 8.26842 11.4001 8.47231 11.4858C8.60982 11.545 8.75724 11.5761 8.90635 11.5775C9.05273 11.5773 9.1976 11.547 9.33243 11.4886C9.46725 11.4301 9.58932 11.3446 9.69145 11.2371L11.0446 9.856H14.6063C14.9223 9.85601 15.2351 9.79188 15.5268 9.6673C15.8184 9.54272 16.0831 9.36016 16.3057 9.13015C16.5282 8.90014 16.7041 8.62723 16.8232 8.32716C16.9424 8.02709 17.0025 7.7058 16.9999 7.38182V3.45455C16.9999 2.80356 16.7477 2.17924 16.2989 1.71892C15.85 1.2586 15.2411 1 14.6063 1ZM16.0425 7.38182C16.0374 7.7684 15.8837 8.13729 15.6147 8.4082C15.3458 8.67911 14.9833 8.83012 14.6063 8.82836H10.834C10.7071 8.82848 10.5854 8.88027 10.4957 8.97236L9.00209 10.4975C8.98015 10.5208 8.95193 10.5369 8.92103 10.5438C8.89012 10.5507 8.85792 10.548 8.82852 10.5361C8.79911 10.5242 8.77381 10.5035 8.75585 10.4769C8.73789 10.4502 8.72806 10.4186 8.72763 10.3862V9.34545C8.72848 9.28074 8.71669 9.21651 8.69293 9.15656C8.66918 9.0966 8.63395 9.04213 8.58932 8.99637C8.5447 8.95061 8.49158 8.91448 8.43311 8.89012C8.37464 8.86576 8.31201 8.85366 8.2489 8.85455C8.06114 8.85369 7.87538 8.81491 7.70224 8.74044C7.52909 8.66596 7.37194 8.55724 7.23976 8.42049C7.10759 8.28373 7.00297 8.12162 6.9319 7.9434C6.86082 7.76519 6.82467 7.57436 6.82551 7.38182V3.45455C6.82208 3.06966 6.96704 2.69896 7.22884 2.42314C7.49064 2.14732 7.84809 1.98871 8.22337 1.98182H14.6063C14.7952 1.98095 14.9823 2.01845 15.1569 2.09216C15.3315 2.16586 15.4902 2.27431 15.6237 2.41124C15.7573 2.54817 15.863 2.71086 15.9349 2.88993C16.0068 3.069 16.0433 3.2609 16.0425 3.45455V7.38182ZM14.1276 6.72727C14.1259 6.85694 14.075 6.98082 13.9856 7.07252C13.8961 7.16422 13.7753 7.21649 13.6489 7.21818H9.18081C9.05385 7.21818 8.93209 7.16646 8.84231 7.0744C8.75253 6.98233 8.70209 6.85747 8.70209 6.72727C8.70209 6.59708 8.75253 6.47221 8.84231 6.38015C8.93209 6.28808 9.05385 6.23636 9.18081 6.23636H13.6489C13.7131 6.23462 13.777 6.24599 13.837 6.2698C13.8969 6.29361 13.9516 6.32939 13.9979 6.37506C14.0442 6.42074 14.0812 6.47539 14.1068 6.53585C14.1323 6.59632 14.1459 6.66138 14.1467 6.72727H14.1276ZM14.1276 4.10909C14.1259 4.23876 14.075 4.36264 13.9856 4.45434C13.8961 4.54604 13.7753 4.5983 13.6489 4.6H9.18081C9.05385 4.6 8.93209 4.54828 8.84231 4.45622C8.75253 4.36415 8.70209 4.23929 8.70209 4.10909C8.70209 3.97889 8.75253 3.85403 8.84231 3.76197C8.93209 3.6699 9.05385 3.61818 9.18081 3.61818H13.6489C13.7131 3.61644 13.777 3.62781 13.837 3.65162C13.8969 3.67543 13.9516 3.71121 13.9979 3.75688C14.0442 3.80255 14.0812 3.85721 14.1068 3.91767C14.1323 3.97813 14.1459 4.0432 14.1467 4.10909H14.1276ZM14.1723 15.4327C14.3884 15.219 14.5602 14.9627 14.6776 14.6793C14.7949 14.3959 14.8553 14.0912 14.8553 13.7833C14.8553 13.1705 14.6179 12.5828 14.1953 12.1495C13.7728 11.7162 13.1997 11.4727 12.6021 11.4727C12.0045 11.4727 11.4314 11.7162 11.0088 12.1495C10.5863 12.5828 10.3489 13.1705 10.3489 13.7833C10.3488 14.0912 10.4092 14.3959 10.5266 14.6793C10.6439 14.9627 10.8158 15.219 11.0319 15.4327C10.6135 15.6577 10.2629 15.9953 10.0177 16.4094C9.77253 16.8234 9.64208 17.2981 9.64039 17.7825C9.64039 18.1054 9.76547 18.4151 9.98812 18.6434C10.2108 18.8717 10.5127 19 10.8276 19H14.3765C14.6914 19 14.9934 18.8717 15.216 18.6434C15.4387 18.4151 15.5638 18.1054 15.5638 17.7825C15.5639 17.3002 15.4363 16.8268 15.1946 16.4129C14.9529 15.9991 14.6062 15.6603 14.1914 15.4327H14.1723ZM12.6021 12.4545C12.8546 12.4545 13.1014 12.5313 13.3113 12.6752C13.5212 12.819 13.6849 13.0235 13.7815 13.2627C13.8781 13.5019 13.9034 13.7651 13.8541 14.019C13.8049 14.273 13.6833 14.5062 13.5048 14.6893C13.3262 14.8724 13.0988 14.9971 12.8511 15.0476C12.6035 15.0981 12.3468 15.0722 12.1135 14.9731C11.8803 14.874 11.6809 14.7062 11.5406 14.4909C11.4004 14.2756 11.3255 14.0225 11.3255 13.7636C11.3255 13.5901 11.3591 13.4182 11.4245 13.2581C11.4898 13.098 11.5856 12.9528 11.7061 12.831C11.8267 12.7091 11.9697 12.6131 12.1268 12.5485C12.2839 12.4839 12.452 12.4519 12.6212 12.4545H12.6021ZM14.3765 18.0182H10.8468C10.7858 18.0182 10.7274 17.9934 10.6843 17.9492C10.6412 17.905 10.617 17.845 10.617 17.7825C10.617 17.3347 10.7905 16.9051 11.0993 16.5884C11.4081 16.2717 11.827 16.0938 12.2638 16.0938H12.9723C13.4068 16.0973 13.8224 16.2767 14.1285 16.593C14.4346 16.9094 14.6063 17.3369 14.6063 17.7825C14.6065 17.8418 14.585 17.8989 14.5459 17.9426C14.5069 17.9863 14.4532 18.0132 14.3957 18.0182H14.3765ZM6.53189 15.4327C6.74798 15.219 6.91983 14.9627 7.03718 14.6793C7.15452 14.3959 7.21496 14.0912 7.21487 13.7833C7.21487 13.1705 6.97748 12.5828 6.55493 12.1495C6.13237 11.7162 5.55927 11.4727 4.96169 11.4727C4.36411 11.4727 3.791 11.7162 3.36845 12.1495C2.9459 12.5828 2.70851 13.1705 2.70851 13.7833C2.70842 14.0912 2.76885 14.3959 2.8862 14.6793C3.00354 14.9627 3.17539 15.219 3.39148 15.4327C2.97313 15.6577 2.6225 15.9953 2.37732 16.4094C2.13214 16.8234 2.00169 17.2981 2 17.7825C2 18.1054 2.12508 18.4151 2.34773 18.6434C2.57038 18.8717 2.87236 19 3.18723 19H6.73615C7.05102 19 7.35299 18.8717 7.57564 18.6434C7.79829 18.4151 7.92337 18.1054 7.92337 17.7825C7.92168 17.2981 7.79123 16.8234 7.54605 16.4094C7.30087 15.9953 6.95024 15.6577 6.53189 15.4327ZM4.96169 12.4545C5.21417 12.4545 5.46099 12.5313 5.67092 12.6752C5.88086 12.819 6.04448 13.0235 6.1411 13.2627C6.23772 13.5019 6.263 13.7651 6.21375 14.019C6.16449 14.273 6.04291 14.5062 5.86437 14.6893C5.68584 14.8724 5.45837 14.9971 5.21074 15.0476C4.9631 15.0981 4.70642 15.0722 4.47316 14.9731C4.23989 14.874 4.04052 14.7062 3.90024 14.4909C3.75997 14.2756 3.6851 14.0225 3.6851 13.7636C3.6851 13.4164 3.8196 13.0835 4.059 12.838C4.29841 12.5925 4.62311 12.4545 4.96169 12.4545ZM6.73615 18.0182H3.18723C3.12629 18.0182 3.06784 17.9934 3.02474 17.9492C2.98165 17.905 2.95744 17.845 2.95744 17.7825C2.95744 17.3347 3.13094 16.9051 3.43978 16.5884C3.74861 16.2717 4.16748 16.0938 4.60424 16.0938H5.31275C5.74729 16.0973 6.16289 16.2767 6.46897 16.593C6.77505 16.9094 6.9468 17.3369 6.94678 17.7825C6.94698 17.8418 6.92542 17.8989 6.88639 17.9426C6.84735 17.9863 6.79371 18.0132 6.73615 18.0182Z" stroke="#6754E2" stroke-width="0.4" mask="url(#path-1-outside-1_6241_97701)"/>
</svg>
