<svg width="20" height="20" viewBox="0 0 20 20" fill="none" xmlns="http://www.w3.org/2000/svg">
<g clip-path="url(#clip0_6241_97693)">
<mask id="path-1-outside-1_6241_97693" maskUnits="userSpaceOnUse" x="-1.00977" y="2.27539" width="22" height="17" fill="black">
<rect fill="white" x="-1.00977" y="2.27539" width="22" height="17"/>
<path d="M19.9993 14.792C19.9985 14.7818 19.9971 14.7718 19.9953 14.7617C19.9936 14.7522 19.9916 14.7429 19.989 14.7336C19.9862 14.7235 19.9829 14.7137 19.9791 14.704C19.9756 14.695 19.9719 14.6863 19.9676 14.6777C19.9629 14.6683 19.9578 14.6592 19.9521 14.6504C19.9469 14.642 19.9413 14.6339 19.9353 14.626C19.9224 14.6097 19.908 14.5945 19.8923 14.5809C19.8883 14.5774 19.8852 14.5733 19.881 14.57L17.5249 12.7313C17.4986 12.6934 17.4628 12.6632 17.4211 12.6435C17.0939 12.3568 16.6767 12.1935 16.2418 12.1817C15.8069 12.17 15.3816 12.3106 15.0394 12.5792L12.8847 11.3405L13.1622 10.86L13.1625 10.8596C13.2441 10.719 13.2675 10.5521 13.2278 10.3945C13.1881 10.2369 13.0884 10.101 12.95 10.0159L11.1302 8.88562C11.1273 8.88395 11.1208 8.87372 11.1179 8.87204L9.94715 6.77794C9.88621 6.57039 9.78275 6.37779 9.64336 6.21238C9.50396 6.04697 9.33167 5.91238 9.13744 5.81715L5.41018 3.48916C5.17786 3.3176 4.88708 3.24495 4.60137 3.28709C4.31566 3.32923 4.05823 3.48273 3.88533 3.71405L2.60197 5.42929L0.458303 4.19696C0.386399 4.15581 0.301103 4.14487 0.221142 4.16655C0.14118 4.18822 0.0730867 4.24074 0.0318109 4.31258C-0.0094649 4.38441 -0.0205501 4.46969 0.000988796 4.54969C0.0225277 4.62969 0.0749305 4.69787 0.146693 4.73927L2.27755 5.96425C2.25332 6.07968 2.26219 6.1996 2.30315 6.3102C2.34411 6.4208 2.41548 6.51758 2.50904 6.58939L3.00844 6.96909C3.03899 6.99203 3.07156 7.01213 3.10576 7.02915C3.11624 7.03446 3.12713 7.0383 3.13784 7.04299C3.16177 7.05366 3.18635 7.06279 3.21144 7.07033C3.22419 7.07406 3.23699 7.07701 3.24994 7.07991C3.2745 7.08539 3.29937 7.08935 3.32441 7.09179C3.33737 7.09307 3.35018 7.09448 3.36325 7.09494C3.37065 7.0952 3.37789 7.09673 3.38532 7.09673C3.41407 7.09672 3.44279 7.09473 3.47128 7.09078C3.6236 7.06971 3.76261 6.99266 3.8612 6.87465L4.97372 7.51422C4.57314 8.32023 4.18995 9.09143 4.18824 9.09494C4.01749 9.45827 3.93675 9.85739 3.95286 10.2585C3.96897 10.6597 4.08144 11.051 4.28077 11.3995C4.28063 11.4063 4.27931 11.413 4.27961 11.4199L4.57787 17.9996C4.58503 18.1604 4.65392 18.3123 4.77021 18.4236C4.88651 18.5349 5.04124 18.5972 5.20223 18.5973H5.96049C6.12162 18.5971 6.27647 18.5348 6.3928 18.4233C6.50913 18.3118 6.57798 18.1598 6.58501 17.9988L6.75359 14.2785L7.26801 14.8606L7.48687 18.0193C7.49933 18.1761 7.57023 18.3226 7.68554 18.4296C7.80084 18.5367 7.95214 18.5965 8.10947 18.5973H9.09369C9.2513 18.5964 9.40282 18.5363 9.51818 18.429C9.63354 18.3216 9.70432 18.1747 9.71646 18.0176L9.98974 14.1541C10.0059 13.9379 9.94706 13.7227 9.82302 13.5448L8.2462 11.2922L8.95898 9.80525L10.062 10.4393L11.9808 11.6203C12.0687 11.6732 12.1682 11.7036 12.2706 11.709L14.6085 13.053C14.3819 13.4117 14.2833 13.8365 14.3287 14.2583C14.3741 14.6802 14.5609 15.0742 14.8587 15.3765L15.9627 16.8942C15.9894 16.9302 16.0235 16.96 16.0629 16.9815C16.2552 17.1409 16.4984 17.2262 16.7482 17.2218C16.7967 17.2218 16.845 17.2189 16.8931 17.2131C17.0529 17.1976 17.2071 17.1462 17.3443 17.0628C17.4814 16.9794 17.598 16.8662 17.6853 16.7315C17.7107 16.6902 17.726 16.6435 17.73 16.5953C17.8872 16.5782 18.0386 16.5263 18.1732 16.4434C18.3078 16.3605 18.4223 16.2487 18.5083 16.116C18.5426 16.0608 18.5587 15.9962 18.5543 15.9313C18.7749 15.8601 18.9652 15.7169 19.0947 15.5245C19.2632 15.5039 19.4253 15.4473 19.5701 15.3585C19.7149 15.2698 19.839 15.1511 19.9339 15.0103L19.9352 15.009C19.9362 15.0076 19.9368 15.0061 19.9378 15.0047C19.943 14.9969 19.949 14.9899 19.9539 14.9819C19.9565 14.9778 19.9579 14.9733 19.9603 14.9691C19.9658 14.9592 19.9708 14.9491 19.9752 14.9388C19.979 14.9298 19.9824 14.9209 19.9854 14.9117C19.9886 14.9016 19.9913 14.8914 19.9934 14.881C19.9955 14.8713 19.9972 14.8617 19.9983 14.852C19.9994 14.8418 20 14.8317 20.0001 14.8215C20.0003 14.8116 20.0001 14.8019 19.9993 14.792ZM16.1803 12.8065C16.3957 12.803 16.6082 12.8568 16.7961 12.9623L15.1098 14.6807C14.9738 14.444 14.9187 14.1694 14.9531 13.8986C14.9875 13.6278 15.1094 13.3757 15.3003 13.1805C15.4149 13.0631 15.5517 12.9695 15.7028 12.9053C15.8538 12.8411 16.0161 12.8075 16.1803 12.8065ZM3.38692 6.47137L2.8876 6.09151L4.38611 4.08872C4.42309 4.03923 4.46949 3.99755 4.52265 3.96608C4.57582 3.93462 4.63468 3.91399 4.69586 3.90539C4.75703 3.89679 4.8193 3.90038 4.87908 3.91597C4.93886 3.93155 4.99496 3.95882 5.04415 3.99619C5.05178 4.002 5.05964 4.00749 5.06773 4.01253L8.82026 6.3564C8.83023 6.36265 8.84055 6.36831 8.85117 6.37335C8.97381 6.43156 9.08229 6.51579 9.16907 6.62017C9.25586 6.72456 9.31886 6.84659 9.35371 6.97779C9.36039 7.00316 9.37026 7.02758 9.3831 7.05047L10.5682 9.17036C10.6211 9.27256 10.7015 9.35795 10.8003 9.41694L12.6207 10.547L12.6202 10.5478L12.3425 11.0288L10.3582 9.88812L10.1832 9.78045L9.47867 8.43126C9.45181 8.3798 9.41115 8.33683 9.36124 8.30717C9.31133 8.2775 9.25416 8.26232 9.19611 8.26332C9.13807 8.26432 9.08144 8.28146 9.03259 8.31282C8.98373 8.34418 8.94457 8.38852 8.9195 8.44088L8.68645 8.92708L5.79572 7.26528C5.99955 6.8552 6.18661 6.47896 6.30478 6.24144C6.37448 6.09991 6.38828 5.9373 6.34341 5.78605C6.29855 5.6348 6.19832 5.50601 6.06271 5.42538L5.2872 4.9669C5.24513 4.93792 5.19962 4.91429 5.15172 4.89654C5.02567 4.84605 4.88649 4.83853 4.75574 4.87515C4.62498 4.91177 4.50996 4.99049 4.42847 5.09911L3.38692 6.47137ZM4.24541 6.37406L4.92612 5.47745C4.93567 5.48478 4.94566 5.49151 4.95604 5.4976L5.74492 5.96296C5.63002 6.19392 5.44998 6.55606 5.25264 6.95308L4.24541 6.37406ZM5.9592 17.9719L5.20254 17.9704L4.94231 12.2288L6.1578 13.6043L5.9592 17.9719ZM7.68282 11.0208C7.63447 11.1211 7.61365 11.2324 7.6225 11.3433C7.63136 11.4543 7.66956 11.5609 7.7332 11.6523L9.31057 13.9031C9.35219 13.9632 9.3718 14.0357 9.36608 14.1085L9.0937 17.9719L8.11055 17.9738L7.89191 14.8178C7.88209 14.6814 7.82794 14.5518 7.73771 14.449L5.0462 11.402C4.80407 11.1285 4.64716 10.7901 4.59476 10.4286C4.54235 10.067 4.59674 9.69806 4.75123 9.36702C4.75123 9.36702 5.12285 8.61914 5.51683 7.82644L8.41532 9.4927L7.68282 11.0208ZM16.8192 16.5922C16.7566 16.6026 16.6926 16.5998 16.6311 16.5842C16.5697 16.5685 16.5121 16.5403 16.4621 16.5012C16.453 16.4929 16.4434 16.4852 16.4333 16.4781L15.492 15.184L17.2958 13.3459L19.2111 14.8406C19.1514 14.8732 19.0863 14.8946 19.019 14.9039C18.9767 14.9122 18.9331 14.9111 18.8912 14.9008C18.8493 14.8906 18.8102 14.8713 18.7765 14.8444C18.7472 14.8156 18.7126 14.7929 18.6745 14.7775C18.6364 14.7621 18.5957 14.7543 18.5546 14.7547C18.5135 14.7551 18.4729 14.7635 18.4351 14.7795C18.3973 14.7956 18.363 14.8189 18.3342 14.8482C18.3054 14.8775 18.2827 14.9122 18.2673 14.9503C18.2519 14.9883 18.2442 15.0291 18.2445 15.0702C18.2449 15.1112 18.2533 15.1518 18.2694 15.1896C18.2854 15.2274 18.3088 15.2617 18.338 15.2905C18.3517 15.304 18.3683 15.3138 18.3829 15.3261C18.3385 15.3446 18.2917 15.357 18.244 15.3632C18.1815 15.3736 18.1175 15.3709 18.0561 15.3553C17.9947 15.3396 17.9372 15.3113 17.8873 15.2722C17.8282 15.2141 17.7484 15.1818 17.6654 15.1825C17.5825 15.1832 17.5032 15.2169 17.445 15.276C17.3869 15.3352 17.3546 15.415 17.3554 15.498C17.3561 15.5809 17.3897 15.6602 17.4489 15.7183C17.549 15.8144 17.6693 15.887 17.801 15.9309C17.7507 15.9543 17.6971 15.9697 17.642 15.9766C17.5795 15.987 17.5155 15.9842 17.4541 15.9686C17.3926 15.9529 17.3351 15.9247 17.2852 15.8857C17.226 15.8275 17.1462 15.7952 17.0633 15.796C16.9803 15.7967 16.901 15.8303 16.8429 15.8895C16.7847 15.9486 16.7525 16.0285 16.7532 16.1114C16.7539 16.1944 16.7876 16.2736 16.8467 16.3318C16.9127 16.3959 16.9882 16.4494 17.0705 16.4905C16.9979 16.5472 16.9108 16.5824 16.8192 16.5922Z"/>
</mask>
<path d="M19.9993 14.792C19.9985 14.7818 19.9971 14.7718 19.9953 14.7617C19.9936 14.7522 19.9916 14.7429 19.989 14.7336C19.9862 14.7235 19.9829 14.7137 19.9791 14.704C19.9756 14.695 19.9719 14.6863 19.9676 14.6777C19.9629 14.6683 19.9578 14.6592 19.9521 14.6504C19.9469 14.642 19.9413 14.6339 19.9353 14.626C19.9224 14.6097 19.908 14.5945 19.8923 14.5809C19.8883 14.5774 19.8852 14.5733 19.881 14.57L17.5249 12.7313C17.4986 12.6934 17.4628 12.6632 17.4211 12.6435C17.0939 12.3568 16.6767 12.1935 16.2418 12.1817C15.8069 12.17 15.3816 12.3106 15.0394 12.5792L12.8847 11.3405L13.1622 10.86L13.1625 10.8596C13.2441 10.719 13.2675 10.5521 13.2278 10.3945C13.1881 10.2369 13.0884 10.101 12.95 10.0159L11.1302 8.88562C11.1273 8.88395 11.1208 8.87372 11.1179 8.87204L9.94715 6.77794C9.88621 6.57039 9.78275 6.37779 9.64336 6.21238C9.50396 6.04697 9.33167 5.91238 9.13744 5.81715L5.41018 3.48916C5.17786 3.3176 4.88708 3.24495 4.60137 3.28709C4.31566 3.32923 4.05823 3.48273 3.88533 3.71405L2.60197 5.42929L0.458303 4.19696C0.386399 4.15581 0.301103 4.14487 0.221142 4.16655C0.14118 4.18822 0.0730867 4.24074 0.0318109 4.31258C-0.0094649 4.38441 -0.0205501 4.46969 0.000988796 4.54969C0.0225277 4.62969 0.0749305 4.69787 0.146693 4.73927L2.27755 5.96425C2.25332 6.07968 2.26219 6.1996 2.30315 6.3102C2.34411 6.4208 2.41548 6.51758 2.50904 6.58939L3.00844 6.96909C3.03899 6.99203 3.07156 7.01213 3.10576 7.02915C3.11624 7.03446 3.12713 7.0383 3.13784 7.04299C3.16177 7.05366 3.18635 7.06279 3.21144 7.07033C3.22419 7.07406 3.23699 7.07701 3.24994 7.07991C3.2745 7.08539 3.29937 7.08935 3.32441 7.09179C3.33737 7.09307 3.35018 7.09448 3.36325 7.09494C3.37065 7.0952 3.37789 7.09673 3.38532 7.09673C3.41407 7.09672 3.44279 7.09473 3.47128 7.09078C3.6236 7.06971 3.76261 6.99266 3.8612 6.87465L4.97372 7.51422C4.57314 8.32023 4.18995 9.09143 4.18824 9.09494C4.01749 9.45827 3.93675 9.85739 3.95286 10.2585C3.96897 10.6597 4.08144 11.051 4.28077 11.3995C4.28063 11.4063 4.27931 11.413 4.27961 11.4199L4.57787 17.9996C4.58503 18.1604 4.65392 18.3123 4.77021 18.4236C4.88651 18.5349 5.04124 18.5972 5.20223 18.5973H5.96049C6.12162 18.5971 6.27647 18.5348 6.3928 18.4233C6.50913 18.3118 6.57798 18.1598 6.58501 17.9988L6.75359 14.2785L7.26801 14.8606L7.48687 18.0193C7.49933 18.1761 7.57023 18.3226 7.68554 18.4296C7.80084 18.5367 7.95214 18.5965 8.10947 18.5973H9.09369C9.2513 18.5964 9.40282 18.5363 9.51818 18.429C9.63354 18.3216 9.70432 18.1747 9.71646 18.0176L9.98974 14.1541C10.0059 13.9379 9.94706 13.7227 9.82302 13.5448L8.2462 11.2922L8.95898 9.80525L10.062 10.4393L11.9808 11.6203C12.0687 11.6732 12.1682 11.7036 12.2706 11.709L14.6085 13.053C14.3819 13.4117 14.2833 13.8365 14.3287 14.2583C14.3741 14.6802 14.5609 15.0742 14.8587 15.3765L15.9627 16.8942C15.9894 16.9302 16.0235 16.96 16.0629 16.9815C16.2552 17.1409 16.4984 17.2262 16.7482 17.2218C16.7967 17.2218 16.845 17.2189 16.8931 17.2131C17.0529 17.1976 17.2071 17.1462 17.3443 17.0628C17.4814 16.9794 17.598 16.8662 17.6853 16.7315C17.7107 16.6902 17.726 16.6435 17.73 16.5953C17.8872 16.5782 18.0386 16.5263 18.1732 16.4434C18.3078 16.3605 18.4223 16.2487 18.5083 16.116C18.5426 16.0608 18.5587 15.9962 18.5543 15.9313C18.7749 15.8601 18.9652 15.7169 19.0947 15.5245C19.2632 15.5039 19.4253 15.4473 19.5701 15.3585C19.7149 15.2698 19.839 15.1511 19.9339 15.0103L19.9352 15.009C19.9362 15.0076 19.9368 15.0061 19.9378 15.0047C19.943 14.9969 19.949 14.9899 19.9539 14.9819C19.9565 14.9778 19.9579 14.9733 19.9603 14.9691C19.9658 14.9592 19.9708 14.9491 19.9752 14.9388C19.979 14.9298 19.9824 14.9209 19.9854 14.9117C19.9886 14.9016 19.9913 14.8914 19.9934 14.881C19.9955 14.8713 19.9972 14.8617 19.9983 14.852C19.9994 14.8418 20 14.8317 20.0001 14.8215C20.0003 14.8116 20.0001 14.8019 19.9993 14.792ZM16.1803 12.8065C16.3957 12.803 16.6082 12.8568 16.7961 12.9623L15.1098 14.6807C14.9738 14.444 14.9187 14.1694 14.9531 13.8986C14.9875 13.6278 15.1094 13.3757 15.3003 13.1805C15.4149 13.0631 15.5517 12.9695 15.7028 12.9053C15.8538 12.8411 16.0161 12.8075 16.1803 12.8065ZM3.38692 6.47137L2.8876 6.09151L4.38611 4.08872C4.42309 4.03923 4.46949 3.99755 4.52265 3.96608C4.57582 3.93462 4.63468 3.91399 4.69586 3.90539C4.75703 3.89679 4.8193 3.90038 4.87908 3.91597C4.93886 3.93155 4.99496 3.95882 5.04415 3.99619C5.05178 4.002 5.05964 4.00749 5.06773 4.01253L8.82026 6.3564C8.83023 6.36265 8.84055 6.36831 8.85117 6.37335C8.97381 6.43156 9.08229 6.51579 9.16907 6.62017C9.25586 6.72456 9.31886 6.84659 9.35371 6.97779C9.36039 7.00316 9.37026 7.02758 9.3831 7.05047L10.5682 9.17036C10.6211 9.27256 10.7015 9.35795 10.8003 9.41694L12.6207 10.547L12.6202 10.5478L12.3425 11.0288L10.3582 9.88812L10.1832 9.78045L9.47867 8.43126C9.45181 8.3798 9.41115 8.33683 9.36124 8.30717C9.31133 8.2775 9.25416 8.26232 9.19611 8.26332C9.13807 8.26432 9.08144 8.28146 9.03259 8.31282C8.98373 8.34418 8.94457 8.38852 8.9195 8.44088L8.68645 8.92708L5.79572 7.26528C5.99955 6.8552 6.18661 6.47896 6.30478 6.24144C6.37448 6.09991 6.38828 5.9373 6.34341 5.78605C6.29855 5.6348 6.19832 5.50601 6.06271 5.42538L5.2872 4.9669C5.24513 4.93792 5.19962 4.91429 5.15172 4.89654C5.02567 4.84605 4.88649 4.83853 4.75574 4.87515C4.62498 4.91177 4.50996 4.99049 4.42847 5.09911L3.38692 6.47137ZM4.24541 6.37406L4.92612 5.47745C4.93567 5.48478 4.94566 5.49151 4.95604 5.4976L5.74492 5.96296C5.63002 6.19392 5.44998 6.55606 5.25264 6.95308L4.24541 6.37406ZM5.9592 17.9719L5.20254 17.9704L4.94231 12.2288L6.1578 13.6043L5.9592 17.9719ZM7.68282 11.0208C7.63447 11.1211 7.61365 11.2324 7.6225 11.3433C7.63136 11.4543 7.66956 11.5609 7.7332 11.6523L9.31057 13.9031C9.35219 13.9632 9.3718 14.0357 9.36608 14.1085L9.0937 17.9719L8.11055 17.9738L7.89191 14.8178C7.88209 14.6814 7.82794 14.5518 7.73771 14.449L5.0462 11.402C4.80407 11.1285 4.64716 10.7901 4.59476 10.4286C4.54235 10.067 4.59674 9.69806 4.75123 9.36702C4.75123 9.36702 5.12285 8.61914 5.51683 7.82644L8.41532 9.4927L7.68282 11.0208ZM16.8192 16.5922C16.7566 16.6026 16.6926 16.5998 16.6311 16.5842C16.5697 16.5685 16.5121 16.5403 16.4621 16.5012C16.453 16.4929 16.4434 16.4852 16.4333 16.4781L15.492 15.184L17.2958 13.3459L19.2111 14.8406C19.1514 14.8732 19.0863 14.8946 19.019 14.9039C18.9767 14.9122 18.9331 14.9111 18.8912 14.9008C18.8493 14.8906 18.8102 14.8713 18.7765 14.8444C18.7472 14.8156 18.7126 14.7929 18.6745 14.7775C18.6364 14.7621 18.5957 14.7543 18.5546 14.7547C18.5135 14.7551 18.4729 14.7635 18.4351 14.7795C18.3973 14.7956 18.363 14.8189 18.3342 14.8482C18.3054 14.8775 18.2827 14.9122 18.2673 14.9503C18.2519 14.9883 18.2442 15.0291 18.2445 15.0702C18.2449 15.1112 18.2533 15.1518 18.2694 15.1896C18.2854 15.2274 18.3088 15.2617 18.338 15.2905C18.3517 15.304 18.3683 15.3138 18.3829 15.3261C18.3385 15.3446 18.2917 15.357 18.244 15.3632C18.1815 15.3736 18.1175 15.3709 18.0561 15.3553C17.9947 15.3396 17.9372 15.3113 17.8873 15.2722C17.8282 15.2141 17.7484 15.1818 17.6654 15.1825C17.5825 15.1832 17.5032 15.2169 17.445 15.276C17.3869 15.3352 17.3546 15.415 17.3554 15.498C17.3561 15.5809 17.3897 15.6602 17.4489 15.7183C17.549 15.8144 17.6693 15.887 17.801 15.9309C17.7507 15.9543 17.6971 15.9697 17.642 15.9766C17.5795 15.987 17.5155 15.9842 17.4541 15.9686C17.3926 15.9529 17.3351 15.9247 17.2852 15.8857C17.226 15.8275 17.1462 15.7952 17.0633 15.796C16.9803 15.7967 16.901 15.8303 16.8429 15.8895C16.7847 15.9486 16.7525 16.0285 16.7532 16.1114C16.7539 16.1944 16.7876 16.2736 16.8467 16.3318C16.9127 16.3959 16.9882 16.4494 17.0705 16.4905C16.9979 16.5472 16.9108 16.5824 16.8192 16.5922Z" fill="#6754E2"/>
<path d="M6.0605 18.2846V17.9719H5.8605V18.2846H6.0605ZM19.9993 14.792L19.7999 14.8079L19.8 14.8081L19.9993 14.792ZM19.9953 14.7617L20.1922 14.7267L20.1921 14.7264L19.9953 14.7617ZM19.989 14.7336L20.1818 14.6804L20.1816 14.6796L19.989 14.7336ZM19.9791 14.704L19.7926 14.7762L19.7929 14.7771L19.9791 14.704ZM19.9676 14.6777L20.1468 14.5887L20.1464 14.5879L19.9676 14.6777ZM19.9521 14.6504L19.7828 14.7568L19.7834 14.7577L19.9521 14.6504ZM19.9353 14.626L20.0937 14.504L20.0927 14.5027L19.9353 14.626ZM19.8923 14.5809L20.0235 14.4299L20.0231 14.4295L19.8923 14.5809ZM19.881 14.57L20.004 14.4124L20.004 14.4124L19.881 14.57ZM17.5249 12.7313L17.3606 12.8454L17.3779 12.8703L17.4019 12.889L17.5249 12.7313ZM17.4211 12.6435L17.2893 12.794L17.3105 12.8125L17.3359 12.8245L17.4211 12.6435ZM15.0394 12.5792L14.9397 12.7526L15.0567 12.8198L15.1628 12.7365L15.0394 12.5792ZM12.8847 11.3405L12.7115 11.2405L12.6113 11.4141L12.785 11.5139L12.8847 11.3405ZM13.1622 10.86L12.9972 10.747L12.9928 10.7533L12.989 10.76L13.1622 10.86ZM13.1625 10.8596L13.3275 10.9726L13.3317 10.9664L13.3355 10.9599L13.1625 10.8596ZM12.95 10.0159L12.8445 10.1858L12.8452 10.1862L12.95 10.0159ZM11.1302 8.88562L11.2358 8.71565L11.2304 8.71254L11.1302 8.88562ZM11.1179 8.87204L10.9433 8.96963L10.9701 9.01759L11.0177 9.04512L11.1179 8.87204ZM9.94715 6.77794L9.75526 6.83429L9.7616 6.85589L9.77258 6.87554L9.94715 6.77794ZM9.13744 5.81715L9.03149 5.98678L9.04019 5.99222L9.0494 5.99673L9.13744 5.81715ZM5.41018 3.48916L5.29137 3.65005L5.29763 3.65467L5.30423 3.65879L5.41018 3.48916ZM3.88533 3.71405L4.04547 3.83387L4.04553 3.83379L3.88533 3.71405ZM2.60197 5.42929L2.50229 5.60268L2.65594 5.69101L2.76211 5.54911L2.60197 5.42929ZM0.458303 4.19696L0.55798 4.02357L0.557648 4.02338L0.458303 4.19696ZM0.146693 4.73927L0.0467531 4.91251L0.0470146 4.91266L0.146693 4.73927ZM2.27755 5.96425L2.47328 6.00533L2.50311 5.86323L2.37722 5.79086L2.27755 5.96425ZM2.50904 6.58939L2.38727 6.74805L2.38799 6.7486L2.50904 6.58939ZM3.00844 6.96909L2.88739 7.1283L2.88834 7.12902L3.00844 6.96909ZM3.10576 7.02915L3.19614 6.85073L3.19486 6.85009L3.10576 7.02915ZM3.13784 7.04299L3.21932 6.86033L3.21797 6.85974L3.13784 7.04299ZM3.21144 7.07033L3.15391 7.26188L3.15527 7.26228L3.21144 7.07033ZM3.24994 7.07991L3.20624 7.27507L3.2064 7.27511L3.24994 7.07991ZM3.32441 7.09179L3.34405 6.89276L3.34377 6.89273L3.32441 7.09179ZM3.36325 7.09494L3.37047 6.89507L3.37025 6.89506L3.36325 7.09494ZM3.38532 7.09673V7.29673H3.38541L3.38532 7.09673ZM3.47128 7.09078L3.44387 6.89266L3.44378 6.89267L3.47128 7.09078ZM3.8612 6.87465L3.96088 6.70126L3.81534 6.6176L3.70772 6.74642L3.8612 6.87465ZM4.97372 7.51422L5.15283 7.60323L5.23661 7.43465L5.0734 7.34083L4.97372 7.51422ZM4.18824 9.09494L4.00836 9.00748L4.00723 9.00988L4.18824 9.09494ZM4.28077 11.3995L4.48073 11.4037L4.48189 11.3483L4.45438 11.3002L4.28077 11.3995ZM4.27961 11.4199L4.07981 11.4287L4.07982 11.4289L4.27961 11.4199ZM4.57787 17.9996L4.77767 17.9907L4.77766 17.9905L4.57787 17.9996ZM5.20223 18.5973L5.20205 18.7973H5.20223V18.5973ZM5.96049 18.5973V18.7973H5.96072L5.96049 18.5973ZM6.58501 17.9988L6.38522 17.9898L6.3852 17.9901L6.58501 17.9988ZM6.75359 14.2785L6.90345 14.146L6.57616 13.7757L6.55379 14.2694L6.75359 14.2785ZM7.26801 14.8606L7.46753 14.8468L7.46284 14.779L7.41787 14.7281L7.26801 14.8606ZM7.48687 18.0193L7.28734 18.0331L7.2875 18.0351L7.48687 18.0193ZM8.10947 18.5973L8.10846 18.7973H8.10947V18.5973ZM9.09369 18.5973V18.7973L9.0948 18.7973L9.09369 18.5973ZM9.71646 18.0176L9.91587 18.033L9.91596 18.0317L9.71646 18.0176ZM9.98974 14.1541L9.7903 14.1392L9.79024 14.14L9.98974 14.1541ZM9.82302 13.5448L9.98706 13.4304L9.98686 13.4301L9.82302 13.5448ZM8.2462 11.2922L8.06585 11.2058L8.01533 11.3112L8.08235 11.4069L8.2462 11.2922ZM8.95898 9.80525L9.05866 9.63185L8.8718 9.52443L8.77863 9.7188L8.95898 9.80525ZM10.062 10.4393L10.1668 10.2689L10.1616 10.2659L10.062 10.4393ZM11.9808 11.6203L11.876 11.7907L11.8778 11.7918L11.9808 11.6203ZM12.2706 11.709L12.3703 11.5356L12.3289 11.5118L12.2811 11.5093L12.2706 11.709ZM14.6085 13.053L14.7776 13.1598L14.889 12.9835L14.7082 12.8796L14.6085 13.053ZM14.8587 15.3765L15.0205 15.2588L15.0117 15.2467L15.0012 15.2361L14.8587 15.3765ZM15.9627 16.8942L15.801 17.0119L15.802 17.0132L15.9627 16.8942ZM16.0629 16.9815L16.1905 16.8275L16.1757 16.8152L16.1588 16.806L16.0629 16.9815ZM16.7482 17.2218L16.7481 17.0218L16.7447 17.0219L16.7482 17.2218ZM16.8931 17.2131L16.8738 17.014L16.8693 17.0146L16.8931 17.2131ZM17.6853 16.7315L17.8532 16.8403L17.8558 16.8361L17.6853 16.7315ZM17.73 16.5953L17.7084 16.3965L17.5445 16.4143L17.5307 16.5786L17.73 16.5953ZM18.5083 16.116L18.6761 16.2249L18.6782 16.2216L18.5083 16.116ZM18.5543 15.9313L18.4929 15.741L18.3443 15.789L18.3548 15.9447L18.5543 15.9313ZM19.0947 15.5245L19.0703 15.326L18.9797 15.3371L18.9287 15.4129L19.0947 15.5245ZM19.9339 15.0103L19.7895 14.872L19.7776 14.8843L19.7681 14.8985L19.9339 15.0103ZM19.9352 15.009L20.0796 15.1473L20.0869 15.1397L20.0933 15.1314L19.9352 15.009ZM19.9378 15.0047L20.0978 15.1255L20.1048 15.1148L19.9378 15.0047ZM19.9539 14.9819L20.1237 15.0877L20.1238 15.0875L19.9539 14.9819ZM19.9603 14.9691L19.7859 14.8712L19.7858 14.8713L19.9603 14.9691ZM19.9752 14.9388L19.7912 14.8603L19.7911 14.8605L19.9752 14.9388ZM19.9854 14.9117L20.1758 14.9727L20.176 14.9723L19.9854 14.9117ZM19.9934 14.881L19.7977 14.8397L19.7976 14.8403L19.9934 14.881ZM19.9983 14.852L20.197 14.8746L20.197 14.8745L19.9983 14.852ZM20.0001 14.8215L19.8001 14.8182L19.8001 14.8187L20.0001 14.8215ZM16.1803 12.8065L16.1815 13.0065L16.1835 13.0065L16.1803 12.8065ZM16.7961 12.9623L16.9389 13.1024L17.1219 12.9158L16.894 12.7879L16.7961 12.9623ZM15.1098 14.6807L14.9364 14.7804L15.0678 15.009L15.2525 14.8208L15.1098 14.6807ZM15.3003 13.1805L15.4432 13.3204L15.4434 13.3202L15.3003 13.1805ZM3.38692 6.47137L3.26583 6.63054L3.42518 6.75177L3.54623 6.59229L3.38692 6.47137ZM2.8876 6.09151L2.72746 5.9717L2.6086 6.13056L2.76651 6.25069L2.8876 6.09151ZM4.38611 4.08872L4.54625 4.20853L4.54633 4.20842L4.38611 4.08872ZM5.04415 3.99619L5.16516 3.83696L5.16515 3.83695L5.04415 3.99619ZM5.06773 4.01253L5.17369 3.8429L5.17343 3.84274L5.06773 4.01253ZM8.82026 6.3564L8.92641 6.1869L8.92621 6.18678L8.82026 6.3564ZM8.85117 6.37335L8.76537 6.55401L8.76541 6.55403L8.85117 6.37335ZM9.35371 6.97779L9.54711 6.92685L9.54701 6.92646L9.35371 6.97779ZM9.3831 7.05047L9.55767 6.95287L9.55754 6.95264L9.3831 7.05047ZM10.5682 9.17036L10.746 9.07839L10.7428 9.07277L10.5682 9.17036ZM10.8003 9.41694L10.9058 9.24699L10.9028 9.24521L10.8003 9.41694ZM12.6207 10.547L12.7921 10.6501L12.8936 10.4811L12.7261 10.3771L12.6207 10.547ZM12.6202 10.5478L12.4487 10.4448L12.447 10.4478L12.6202 10.5478ZM12.3425 11.0288L12.2428 11.2022L12.4159 11.3017L12.5157 11.1288L12.3425 11.0288ZM10.3582 9.88812L10.2534 10.0585L10.2585 10.0615L10.3582 9.88812ZM10.1832 9.78045L10.0059 9.87303L10.0314 9.92191L10.0784 9.9508L10.1832 9.78045ZM9.47867 8.43126L9.30137 8.52381L9.30138 8.52384L9.47867 8.43126ZM8.9195 8.44088L9.09985 8.52733L9.09987 8.52727L8.9195 8.44088ZM8.68645 8.92708L8.58677 9.10047L8.77363 9.20789L8.8668 9.01352L8.68645 8.92708ZM5.79572 7.26528L5.61662 7.17626L5.53283 7.34484L5.69604 7.43867L5.79572 7.26528ZM6.30478 6.24144L6.48384 6.33053L6.4842 6.3298L6.30478 6.24144ZM6.06271 5.42538L6.16493 5.25348L6.16449 5.25322L6.06271 5.42538ZM5.2872 4.9669L5.17349 5.13201L5.18541 5.13906L5.2872 4.9669ZM5.15172 4.89654L5.07732 5.08227L5.08223 5.08409L5.15172 4.89654ZM4.42847 5.09911L4.58778 5.22002L4.58846 5.21912L4.42847 5.09911ZM4.24541 6.37406L4.08611 6.25312L3.94866 6.43416L4.14573 6.54745L4.24541 6.37406ZM4.92612 5.47745L5.04784 5.31876L4.88836 5.19643L4.76682 5.35651L4.92612 5.47745ZM4.95604 5.4976L5.05766 5.32534L5.05734 5.32515L4.95604 5.4976ZM5.74492 5.96296L5.92398 6.05204L6.00693 5.88531L5.84653 5.7907L5.74492 5.96296ZM5.25264 6.95308L5.15296 7.12647L5.33716 7.23236L5.43173 7.0421L5.25264 6.95308ZM5.9592 17.9719L5.95879 18.1719L6.15029 18.1723L6.15899 17.981L5.9592 17.9719ZM5.20254 17.9704L5.00274 17.9795L5.01138 18.17L5.20214 18.1704L5.20254 17.9704ZM4.94231 12.2288L5.09218 12.0964L4.71686 11.6717L4.74252 12.2379L4.94231 12.2288ZM6.1578 13.6043L6.35759 13.6134L6.36127 13.5325L6.30767 13.4718L6.1578 13.6043ZM7.68282 11.0208L7.86297 11.1077L7.86317 11.1072L7.68282 11.0208ZM7.6225 11.3433L7.42314 11.3593L7.6225 11.3433ZM7.7332 11.6523L7.56911 11.7666L7.56942 11.767L7.7332 11.6523ZM9.31057 13.9031L9.47492 13.7892L9.47436 13.7884L9.31057 13.9031ZM9.36608 14.1085L9.16668 14.0928L9.16657 14.0944L9.36608 14.1085ZM9.0937 17.9719L9.09407 18.1719L9.28012 18.1716L9.29321 17.986L9.0937 17.9719ZM8.11055 17.9738L7.91103 17.9876L7.92395 18.1741L8.11092 18.1738L8.11055 17.9738ZM7.89191 14.8178L8.09144 14.804L8.0914 14.8035L7.89191 14.8178ZM7.73771 14.449L7.88807 14.3171L7.88761 14.3166L7.73771 14.449ZM5.0462 11.402L5.19609 11.2696L5.19596 11.2695L5.0462 11.402ZM4.75123 9.36702L4.93247 9.4516L4.96617 9.37938L4.94097 9.30377L4.75123 9.36702ZM5.51683 7.82644L5.6165 7.65305L5.43229 7.54715L5.33773 7.73742L5.51683 7.82644ZM8.41532 9.4927L8.59567 9.57916L8.67589 9.41181L8.515 9.31931L8.41532 9.4927ZM16.8192 16.5922L16.7979 16.393L16.7866 16.3949L16.8192 16.5922ZM16.4621 16.5012L16.3277 16.6493L16.3332 16.6543L16.339 16.6589L16.4621 16.5012ZM16.4333 16.4781L16.2716 16.5957L16.2909 16.6222L16.3176 16.6412L16.4333 16.4781ZM15.492 15.184L15.3493 15.0439L15.2307 15.1647L15.3303 15.3016L15.492 15.184ZM17.2958 13.3459L17.4189 13.1882L17.2781 13.0784L17.1531 13.2058L17.2958 13.3459ZM19.2111 14.8406L19.3069 15.0162L19.5741 14.8703L19.3341 14.683L19.2111 14.8406ZM19.019 14.9039L18.9916 14.7055L18.9808 14.7076L19.019 14.9039ZM18.7765 14.8444L18.6363 14.987L18.6437 14.9942L18.6517 15.0007L18.7765 14.8444ZM18.338 15.2905L18.4783 15.1479L18.4782 15.1479L18.338 15.2905ZM18.3829 15.3261L18.4596 15.5109L18.7618 15.3854L18.5124 15.1737L18.3829 15.3261ZM18.244 15.3632L18.2185 15.1647L18.2111 15.1659L18.244 15.3632ZM17.8873 15.2722L17.7472 15.4148L17.7551 15.4227L17.7639 15.4296L17.8873 15.2722ZM17.4489 15.7183L17.3087 15.861L17.3104 15.8626L17.4489 15.7183ZM17.801 15.9309L17.8854 16.1122L18.3414 15.8999L17.8641 15.7411L17.801 15.9309ZM17.642 15.9766L17.617 15.7781L17.6093 15.7793L17.642 15.9766ZM17.2852 15.8857L17.145 16.0283L17.1531 16.0362L17.162 16.0432L17.2852 15.8857ZM16.8467 16.3318L16.7065 16.4744L16.7074 16.4753L16.8467 16.3318ZM17.0705 16.4905L17.1936 16.6482L17.4434 16.4533L17.1599 16.3116L17.0705 16.4905ZM20.1987 14.7762C20.1972 14.7578 20.1947 14.7411 20.1922 14.7267L19.7984 14.7968C19.7994 14.8025 19.7998 14.8059 19.7999 14.8079L20.1987 14.7762ZM20.1921 14.7264C20.1897 14.713 20.1865 14.6974 20.1818 14.6804L19.7962 14.7867C19.7967 14.7884 19.7974 14.7914 19.7984 14.7971L20.1921 14.7264ZM20.1816 14.6796C20.177 14.6631 20.1715 14.6468 20.1653 14.6309L19.7929 14.7771C19.7943 14.7805 19.7955 14.784 19.7964 14.7875L20.1816 14.6796ZM20.1656 14.6318C20.1606 14.6189 20.1545 14.6042 20.1468 14.5887L19.7885 14.7666C19.7894 14.7683 19.7907 14.7712 19.7926 14.7762L20.1656 14.6318ZM20.1464 14.5879C20.1386 14.5725 20.1301 14.5575 20.1209 14.543L19.7834 14.7577C19.7854 14.7609 19.7872 14.7641 19.7889 14.7675L20.1464 14.5879ZM20.1214 14.5439C20.1132 14.5308 20.1041 14.5175 20.0937 14.504L19.7768 14.7481C19.7786 14.7504 19.7805 14.7532 19.7828 14.7568L20.1214 14.5439ZM20.0927 14.5027C20.072 14.4763 20.0488 14.4519 20.0235 14.4299L19.7611 14.7318C19.7672 14.7371 19.7728 14.743 19.7779 14.7494L20.0927 14.5027ZM20.0231 14.4295C20.027 14.4329 20.0298 14.4357 20.0309 14.4368C20.0315 14.4374 20.0325 14.4385 20.0304 14.4363C20.0291 14.435 20.0258 14.4315 20.0217 14.4276C20.0174 14.4236 20.0115 14.4182 20.004 14.4124L19.7579 14.7277C19.7526 14.7235 19.7486 14.7199 19.7462 14.7176C19.744 14.7155 19.7425 14.714 19.743 14.7145C19.7431 14.7146 19.7432 14.7147 19.7435 14.715C19.7437 14.7152 19.7441 14.7156 19.7445 14.716C19.7453 14.7168 19.7465 14.7181 19.748 14.7196C19.7509 14.7225 19.7556 14.7271 19.7616 14.7322L20.0231 14.4295ZM20.004 14.4124L17.6479 12.5736L17.4019 12.889L19.7579 14.7277L20.004 14.4124ZM17.6892 12.6172C17.6428 12.5505 17.5797 12.4972 17.5062 12.4626L17.3359 12.8245C17.3459 12.8292 17.3544 12.8364 17.3606 12.8454L17.6892 12.6172ZM17.5529 12.4931C17.1906 12.1757 16.7288 11.9948 16.2472 11.9818L16.2364 12.3817C16.6247 12.3922 16.9971 12.538 17.2893 12.794L17.5529 12.4931ZM16.2472 11.9818C15.7657 11.9688 15.2948 12.1244 14.9159 12.4218L15.1628 12.7365C15.4684 12.4967 15.8481 12.3712 16.2364 12.3817L16.2472 11.9818ZM15.139 12.4058L12.9844 11.1671L12.785 11.5139L14.9397 12.7526L15.139 12.4058ZM13.0579 11.4405L13.3354 10.96L12.989 10.76L12.7115 11.2405L13.0579 11.4405ZM13.3272 10.973L13.3275 10.9726L12.9975 10.7465L12.9972 10.747L13.3272 10.973ZM13.3355 10.9599C13.4432 10.7743 13.4742 10.5538 13.4218 10.3456L13.0339 10.4434C13.0608 10.5504 13.0449 10.6637 12.9895 10.7592L13.3355 10.9599ZM13.4218 10.3456C13.3693 10.1375 13.2376 9.958 13.0548 9.84553L12.8452 10.1862C12.9392 10.2441 13.0069 10.3363 13.0339 10.4434L13.4218 10.3456ZM13.0555 9.84598L11.2358 8.71573L11.0247 9.05552L12.8445 10.1858L13.0555 9.84598ZM11.2304 8.71254C11.2416 8.71901 11.25 8.72533 11.2551 8.72943C11.2604 8.73375 11.2646 8.73759 11.2674 8.74026C11.2728 8.74541 11.2765 8.74963 11.278 8.75132C11.2797 8.75329 11.2809 8.7547 11.2811 8.75494C11.2813 8.75519 11.2813 8.75528 11.2806 8.75437C11.2801 8.75379 11.2789 8.75221 11.2775 8.75055C11.2762 8.74888 11.2739 8.74612 11.2711 8.74293C11.2686 8.74001 11.2638 8.7347 11.2575 8.72867C11.2543 8.72555 11.2497 8.72132 11.2439 8.71667C11.2384 8.71223 11.2296 8.70563 11.2181 8.69895L11.0177 9.04512C11.0065 9.03865 10.9981 9.03233 10.993 9.02823C10.9877 9.02391 10.9835 9.02007 10.9807 9.0174C10.9753 9.01225 10.9716 9.00803 10.9701 9.00634C10.9684 9.00437 10.9672 9.00296 10.967 9.00272C10.9668 9.00247 10.9668 9.00238 10.9675 9.00329C10.968 9.00387 10.9692 9.00545 10.9706 9.00712C10.9719 9.00878 10.9742 9.01154 10.977 9.01473C10.9795 9.01765 10.9843 9.02296 10.9906 9.02899C10.9938 9.03211 10.9984 9.03634 11.0042 9.04099C11.0097 9.04543 11.0185 9.05203 11.03 9.05871L11.2304 8.71254ZM11.2924 8.77444L10.1217 6.68035L9.77258 6.87554L10.9433 8.96963L11.2924 8.77444ZM10.1391 6.72159C10.0703 6.48742 9.95357 6.27012 9.79629 6.08349L9.49042 6.34127C9.61194 6.48546 9.70213 6.65336 9.75526 6.83429L10.1391 6.72159ZM9.79629 6.08349C9.63901 5.89687 9.44462 5.74501 9.22548 5.63758L9.0494 5.99673C9.21871 6.07974 9.3689 6.19707 9.49042 6.34127L9.79629 6.08349ZM9.24339 5.64752L5.51613 3.31953L5.30423 3.65879L9.03149 5.98678L9.24339 5.64752ZM5.52899 3.32827C5.25416 3.12532 4.91018 3.03938 4.57219 3.08923L4.63055 3.48495C4.86398 3.45052 5.10156 3.50988 5.29137 3.65005L5.52899 3.32827ZM4.57219 3.08923C4.2342 3.13908 3.92968 3.32066 3.72514 3.59431L4.04553 3.83379C4.18679 3.64479 4.39712 3.51938 4.63055 3.48495L4.57219 3.08923ZM3.7252 3.59423L2.44183 5.30947L2.76211 5.54911L4.04547 3.83387L3.7252 3.59423ZM2.70165 5.2559L0.55798 4.02357L0.358626 4.37036L2.50229 5.60268L2.70165 5.2559ZM0.557648 4.02338C0.439759 3.95591 0.299915 3.93798 0.168814 3.97352L0.273469 4.35958C0.302292 4.35177 0.333038 4.35571 0.358958 4.37055L0.557648 4.02338ZM0.168814 3.97352C0.0377139 4.00905 -0.073927 4.09516 -0.1416 4.21293L0.205222 4.41222C0.2201 4.38633 0.244646 4.3674 0.273469 4.35958L0.168814 3.97352ZM-0.1416 4.21293C-0.209273 4.33071 -0.227448 4.47052 -0.192134 4.60168L0.194111 4.49769C0.186347 4.46885 0.190343 4.43811 0.205222 4.41222L-0.1416 4.21293ZM-0.192134 4.60168C-0.15682 4.73284 -0.070904 4.84463 0.0467532 4.91251L0.246633 4.56603C0.220765 4.5511 0.201876 4.52653 0.194111 4.49769L-0.192134 4.60168ZM0.0470146 4.91266L2.17787 6.13764L2.37722 5.79086L0.246371 4.56588L0.0470146 4.91266ZM2.08181 5.92316C2.04984 6.07547 2.06155 6.23371 2.1156 6.37965L2.4907 6.24075C2.46283 6.16548 2.45679 6.08388 2.47328 6.00533L2.08181 5.92316ZM2.1156 6.37965C2.16964 6.52559 2.26381 6.6533 2.38727 6.74805L2.63081 6.43073C2.56714 6.38187 2.51857 6.31601 2.4907 6.24075L2.1156 6.37965ZM2.38799 6.7486L2.88739 7.1283L3.12949 6.80988L2.63009 6.43018L2.38799 6.7486ZM2.88834 7.12902C2.92862 7.15926 2.97157 7.18577 3.01666 7.20821L3.19486 6.85009C3.17155 6.8385 3.14935 6.8248 3.12854 6.80917L2.88834 7.12902ZM3.01538 7.20757C3.02777 7.21384 3.03892 7.21851 3.04561 7.22126C3.05453 7.22493 3.055 7.22505 3.05772 7.22624L3.21797 6.85974C3.21319 6.85765 3.20885 6.85585 3.20558 6.85451C3.20396 6.85385 3.20234 6.85319 3.20111 6.85269C3.19977 6.85215 3.19875 6.85173 3.19781 6.85135C3.19376 6.84968 3.19423 6.84977 3.19614 6.85074L3.01538 7.20757ZM3.05637 7.22564C3.08808 7.23978 3.12066 7.25189 3.15392 7.26188L3.26897 6.87878C3.25204 6.8737 3.23546 6.86754 3.21932 6.86034L3.05637 7.22564ZM3.15527 7.26228C3.17479 7.26799 3.19314 7.27214 3.20624 7.27507L3.29365 6.88474C3.28083 6.88187 3.27359 6.88013 3.26761 6.87838L3.15527 7.26228ZM3.2064 7.27511C3.23893 7.28237 3.27188 7.28762 3.30506 7.29085L3.34377 6.89273C3.32686 6.89108 3.31007 6.88841 3.29349 6.88471L3.2064 7.27511ZM3.30477 7.29082C3.31434 7.29177 3.33518 7.29408 3.35625 7.29481L3.37025 6.89506C3.36518 6.89488 3.3604 6.89437 3.34405 6.89276L3.30477 7.29082ZM3.35603 7.29481C3.35234 7.29467 3.34976 7.29443 3.34919 7.29437C3.34911 7.29436 3.34869 7.29432 3.35176 7.29466C3.35392 7.29491 3.3585 7.29542 3.36382 7.29585C3.36932 7.29629 3.37671 7.29673 3.38532 7.29673V6.89673C3.39022 6.89673 3.39391 6.89698 3.39574 6.89713C3.39738 6.89726 3.39829 6.89738 3.39678 6.89721C3.39619 6.89714 3.39211 6.89666 3.38837 6.89629C3.38412 6.89587 3.37786 6.89533 3.37047 6.89507L3.35603 7.29481ZM3.38541 7.29673C3.42333 7.29671 3.46121 7.29409 3.49877 7.28888L3.44378 6.89267C3.42438 6.89537 3.40482 6.89672 3.38523 6.89673L3.38541 7.29673ZM3.49868 7.28889C3.70025 7.26101 3.88421 7.15904 4.01468 7.00288L3.70772 6.74642C3.641 6.82627 3.54694 6.87841 3.44387 6.89266L3.49868 7.28889ZM3.76152 7.04804L4.87405 7.68761L5.0734 7.34083L3.96088 6.70126L3.76152 7.04804ZM4.79462 7.42521C4.39454 8.23021 4.01059 9.00294 4.00837 9.00749L4.36811 9.18239C4.36803 9.18254 4.39156 9.13518 4.43447 9.04881C4.47689 8.96342 4.53747 8.84151 4.61051 8.69452C4.75659 8.40053 4.95254 8.00623 5.15283 7.60323L4.79462 7.42521ZM4.00723 9.00988C3.82282 9.40228 3.73563 9.83332 3.75302 10.2665L4.1527 10.2505C4.13788 9.88145 4.21216 9.51427 4.36925 9.18001L4.00723 9.00988ZM3.75302 10.2665C3.77041 10.6998 3.89189 11.1224 4.10716 11.4988L4.45438 11.3002C4.27099 10.9796 4.16752 10.6195 4.1527 10.2505L3.75302 10.2665ZM4.08081 11.3953C4.0809 11.3914 4.08111 11.3887 4.08115 11.3883C4.08117 11.388 4.08118 11.388 4.08112 11.3886C4.08111 11.3887 4.08094 11.3905 4.08085 11.3915C4.08045 11.3959 4.07902 11.4108 4.07981 11.4287L4.47942 11.411C4.47968 11.417 4.47954 11.4217 4.47941 11.4245C4.47928 11.4271 4.47912 11.4287 4.4792 11.4278C4.47926 11.4272 4.47926 11.4272 4.4794 11.4257C4.4795 11.4246 4.47966 11.4229 4.47982 11.4209C4.48013 11.417 4.48057 11.411 4.48073 11.4037L4.08081 11.3953ZM4.07982 11.4289L4.37807 18.0086L4.77766 17.9905L4.47941 11.4108L4.07982 11.4289ZM4.37806 18.0085C4.38752 18.2207 4.47844 18.4212 4.63191 18.5681L4.90852 18.2791C4.82941 18.2034 4.78254 18.1001 4.77767 17.9907L4.37806 18.0085ZM4.63191 18.5681C4.78538 18.715 4.98959 18.7971 5.20205 18.7973L5.20242 18.3973C5.0929 18.3972 4.98763 18.3549 4.90852 18.2791L4.63191 18.5681ZM5.20223 18.7973H5.96049V18.3973H5.20223V18.7973ZM5.96072 18.7973C6.17334 18.7971 6.37767 18.7148 6.53118 18.5677L6.25442 18.2789C6.17526 18.3548 6.0699 18.3972 5.96027 18.3973L5.96072 18.7973ZM6.53118 18.5677C6.68468 18.4206 6.77554 18.22 6.78482 18.0076L6.3852 17.9901C6.38042 18.0996 6.33357 18.2031 6.25442 18.2789L6.53118 18.5677ZM6.78481 18.0079L6.95338 14.2875L6.55379 14.2694L6.38522 17.9898L6.78481 18.0079ZM6.60372 14.4109L7.11814 14.993L7.41787 14.7281L6.90345 14.146L6.60372 14.4109ZM7.06849 14.8744L7.28735 18.0331L7.68639 18.0055L7.46753 14.8468L7.06849 14.8744ZM7.2875 18.0351C7.30393 18.2419 7.39742 18.435 7.54946 18.5762L7.82161 18.283C7.74305 18.2101 7.69473 18.1103 7.68624 18.0034L7.2875 18.0351ZM7.54946 18.5762C7.7015 18.7173 7.901 18.7963 8.10846 18.7973L8.11049 18.3973C8.00328 18.3968 7.90018 18.356 7.82161 18.283L7.54946 18.5762ZM8.10947 18.7973H9.09369V18.3973H8.10947V18.7973ZM9.0948 18.7973C9.30259 18.7962 9.50236 18.7169 9.65445 18.5753L9.38191 18.2826C9.30328 18.3558 9.20001 18.3967 9.09259 18.3973L9.0948 18.7973ZM9.65445 18.5753C9.80655 18.4338 9.89986 18.2402 9.91586 18.033L9.51705 18.0022C9.50878 18.1093 9.46054 18.2094 9.38191 18.2826L9.65445 18.5753ZM9.91596 18.0317L10.1892 14.1683L9.79024 14.14L9.51696 18.0035L9.91596 18.0317ZM10.1892 14.1691C10.2088 13.9069 10.1374 13.646 9.98706 13.4304L9.65897 13.6592C9.75668 13.7993 9.80307 13.9689 9.7903 14.1392L10.1892 14.1691ZM9.98686 13.4301L8.41004 11.1776L8.08235 11.4069L9.65917 13.6595L9.98686 13.4301ZM8.42655 11.3787L9.13933 9.8917L8.77863 9.7188L8.06585 11.2058L8.42655 11.3787ZM8.85931 9.97864L9.96228 10.6127L10.1616 10.2659L9.05866 9.63185L8.85931 9.97864ZM9.95713 10.6096L11.876 11.7907L12.0856 11.45L10.1668 10.269L9.95713 10.6096ZM11.8778 11.7918C11.9937 11.8614 12.125 11.9016 12.2601 11.9087L12.2811 11.5093C12.2114 11.5056 12.1437 11.4849 12.0838 11.4489L11.8778 11.7918ZM12.1709 11.8824L14.5088 13.2264L14.7082 12.8796L12.3703 11.5356L12.1709 11.8824ZM14.4394 12.9462C14.1887 13.343 14.0796 13.813 14.1299 14.2797L14.5276 14.2369C14.487 13.86 14.5751 13.4804 14.7776 13.1598L14.4394 12.9462ZM14.1299 14.2797C14.1801 14.7465 14.3868 15.1825 14.7163 15.5168L15.0012 15.2361C14.7351 14.966 14.5682 14.6139 14.5276 14.2369L14.1299 14.2797ZM14.697 15.4941L15.801 17.0119L16.1244 16.7766L15.0205 15.2588L14.697 15.4941ZM15.802 17.0132C15.8459 17.0725 15.9022 17.1216 15.9669 17.157L16.1588 16.806C16.1449 16.7984 16.1329 16.7879 16.1234 16.7752L15.802 17.0132ZM15.9352 17.1355C16.1644 17.3254 16.4541 17.427 16.7517 17.4218L16.7447 17.0219C16.5427 17.0254 16.3461 16.9565 16.1905 16.8275L15.9352 17.1355ZM16.7484 17.4218C16.8047 17.4218 16.861 17.4184 16.9169 17.4117L16.8693 17.0146C16.8291 17.0194 16.7886 17.0218 16.7481 17.0218L16.7484 17.4218ZM16.9125 17.4122C17.1022 17.3938 17.2853 17.3328 17.4482 17.2337L17.2404 16.8919C17.1289 16.9597 17.0036 17.0015 16.8738 17.0141L16.9125 17.4122ZM17.4482 17.2337C17.6111 17.1347 17.7495 17.0002 17.8532 16.8402L17.5175 16.6227C17.4466 16.7321 17.3518 16.8242 17.2404 16.8919L17.4482 17.2337ZM17.8558 16.8361C17.8975 16.7682 17.9227 16.6914 17.9293 16.612L17.5307 16.5786C17.5293 16.5957 17.5239 16.6122 17.5149 16.6268L17.8558 16.8361ZM17.7517 16.7941C17.9384 16.7738 18.1182 16.7121 18.2781 16.6137L18.0683 16.2731C17.959 16.3404 17.836 16.3826 17.7084 16.3965L17.7517 16.7941ZM18.2781 16.6137C18.4379 16.5152 18.5739 16.3824 18.6761 16.2248L18.3405 16.0072C18.2706 16.1149 18.1776 16.2058 18.0683 16.2731L18.2781 16.6137ZM18.6782 16.2216C18.7346 16.1308 18.761 16.0246 18.7539 15.9179L18.3548 15.9447C18.3563 15.9678 18.3506 15.9908 18.3384 16.0105L18.6782 16.2216ZM18.6158 16.1217C18.879 16.0367 19.1061 15.8657 19.2606 15.6362L18.9287 15.4129C18.8243 15.568 18.6708 15.6836 18.4929 15.741L18.6158 16.1217ZM19.119 15.723C19.316 15.6989 19.5054 15.6327 19.6746 15.5291L19.4656 15.188C19.3452 15.2618 19.2104 15.3088 19.0703 15.326L19.119 15.723ZM19.6746 15.5291C19.8438 15.4254 19.9888 15.2866 20.0997 15.1221L19.7681 14.8985C19.6891 15.0155 19.586 15.1142 19.4656 15.188L19.6746 15.5291ZM20.0783 15.1486L20.0796 15.1473L19.7907 14.8706L19.7895 14.872L20.0783 15.1486ZM20.0933 15.1314C20.0992 15.1239 20.1034 15.1173 20.1062 15.1128C20.1087 15.1087 20.1107 15.1051 20.1107 15.1051C20.1114 15.104 20.1099 15.1066 20.1081 15.1096C20.106 15.113 20.1025 15.1186 20.0975 15.1252L19.7782 14.8842C19.7727 14.8915 19.7687 14.8979 19.7662 14.902C19.7649 14.904 19.7639 14.9057 19.7633 14.9068C19.763 14.9074 19.7627 14.9078 19.7626 14.9081C19.7625 14.9083 19.7624 14.9084 19.7624 14.9085C19.7623 14.9085 19.7623 14.9086 19.7623 14.9086C19.7623 14.9086 19.7623 14.9086 19.7623 14.9086C19.7619 14.9093 19.7635 14.9064 19.7656 14.9031C19.7679 14.8993 19.7717 14.8934 19.777 14.8866L20.0933 15.1314ZM20.1048 15.1148C20.1039 15.1162 20.1034 15.1169 20.1037 15.1165C20.1042 15.1157 20.1046 15.1152 20.1066 15.1126C20.1093 15.1089 20.1165 15.0993 20.1237 15.0877L19.7842 14.8762C19.7855 14.874 19.7865 14.8726 19.7867 14.8724C19.7868 14.8722 19.7866 14.8725 19.7854 14.8742C19.7845 14.8753 19.7821 14.8785 19.78 14.8815C19.7776 14.8848 19.7743 14.8893 19.7708 14.8947L20.1048 15.1148ZM20.1238 15.0875C20.1287 15.0796 20.1324 15.0726 20.135 15.0674C20.1375 15.0624 20.1393 15.0582 20.14 15.0566C20.1411 15.0541 20.1405 15.0556 20.14 15.0566C20.1393 15.0582 20.1375 15.062 20.1348 15.0668L19.7858 14.8713C19.7819 14.8783 19.7791 14.8842 19.7773 14.8879C19.7764 14.8899 19.7757 14.8915 19.7752 14.8925C19.775 14.893 19.7748 14.8935 19.7747 14.8938C19.7745 14.8942 19.7744 14.8943 19.7744 14.8944C19.7741 14.8951 19.775 14.893 19.7764 14.8902C19.7779 14.8871 19.7804 14.8822 19.7841 14.8764L20.1238 15.0875ZM20.1347 15.0669C20.1438 15.0507 20.152 15.0341 20.1592 15.017L19.7911 14.8605C19.7896 14.8642 19.7878 14.8677 19.7859 14.8712L20.1347 15.0669ZM20.1591 15.0172C20.1646 15.0044 20.1705 14.9895 20.1758 14.9727L19.7949 14.8508C19.7944 14.8523 19.7934 14.8552 19.7912 14.8603L20.1591 15.0172ZM20.176 14.9723C20.1813 14.9556 20.1857 14.9387 20.1892 14.9217L19.7976 14.8403C19.7968 14.844 19.7959 14.8476 19.7948 14.8512L20.176 14.9723ZM20.1891 14.9223C20.1921 14.9084 20.195 14.8923 20.197 14.8746L19.7995 14.8294C19.7993 14.8312 19.7989 14.8343 19.7977 14.8397L20.1891 14.9223ZM20.197 14.8745C20.199 14.8565 20.1999 14.8396 20.2001 14.8243L19.8001 14.8187C19.8 14.8238 19.7998 14.8271 19.7995 14.8294L20.197 14.8745ZM20.2001 14.8248C20.2003 14.8108 20.2001 14.7942 20.1987 14.776L19.8 14.8081C19.8001 14.8095 19.8002 14.8124 19.8001 14.8182L20.2001 14.8248ZM16.1835 13.0065C16.3636 13.0036 16.5412 13.0485 16.6982 13.1367L16.894 12.7879C16.6753 12.6651 16.4279 12.6025 16.1771 12.6065L16.1835 13.0065ZM16.6534 12.8222L14.967 14.5406L15.2525 14.8208L16.9389 13.1024L16.6534 12.8222ZM15.2832 14.581C15.1689 14.3822 15.1226 14.1514 15.1515 13.9238L14.7547 13.8735C14.7149 14.1875 14.7786 14.5059 14.9364 14.7804L15.2832 14.581ZM15.1515 13.9238C15.1804 13.6963 15.2829 13.4844 15.4432 13.3204L15.1573 13.0407C14.9359 13.267 14.7946 13.5594 14.7547 13.8735L15.1515 13.9238ZM15.4434 13.3202C15.5396 13.2217 15.6543 13.1432 15.781 13.0893L15.6245 12.7212C15.4491 12.7958 15.2902 12.9044 15.1571 13.0409L15.4434 13.3202ZM15.781 13.0893C15.9077 13.0355 16.0438 13.0073 16.1815 13.0065L16.1791 12.6065C15.9884 12.6077 15.8 12.6467 15.6245 12.7212L15.781 13.0893ZM3.50801 6.31219L3.00869 5.93234L2.76651 6.25069L3.26583 6.63054L3.50801 6.31219ZM3.04773 6.21133L4.54625 4.20853L4.22597 3.9689L2.72746 5.9717L3.04773 6.21133ZM4.54633 4.20842C4.56751 4.18008 4.59408 4.15621 4.62452 4.1382L4.42079 3.79397C4.3449 3.83888 4.27867 3.89837 4.22589 3.96901L4.54633 4.20842ZM4.62452 4.1382C4.65496 4.12018 4.68867 4.10837 4.7237 4.10344L4.66801 3.70734C4.58069 3.71961 4.49667 3.74906 4.42079 3.79397L4.62452 4.1382ZM4.7237 4.10344C4.75873 4.09851 4.79439 4.10057 4.82862 4.1095L4.92954 3.72244C4.84421 3.70019 4.75533 3.69506 4.66801 3.70734L4.7237 4.10344ZM4.82862 4.1095C4.86285 4.11842 4.89498 4.13404 4.92314 4.15544L5.16515 3.83695C5.09494 3.7836 5.01486 3.74468 4.92954 3.72244L4.82862 4.1095ZM4.92313 4.15543C4.93493 4.1644 4.94792 4.17353 4.96204 4.18232L5.17343 3.84274C5.17137 3.84146 5.16862 3.83959 5.16516 3.83696L4.92313 4.15543ZM4.96178 4.18216L8.71431 6.52603L8.92621 6.18678L5.17369 3.8429L4.96178 4.18216ZM8.71411 6.52591C8.73063 6.53626 8.74775 6.54564 8.76537 6.55401L8.93698 6.19269C8.93335 6.19097 8.92982 6.18904 8.92641 6.1869L8.71411 6.52591ZM8.76541 6.55403C8.8618 6.59979 8.94707 6.66599 9.01528 6.74803L9.32286 6.49231C9.21751 6.36559 9.08581 6.26334 8.93694 6.19267L8.76541 6.55403ZM9.01528 6.74803C9.0835 6.83008 9.13302 6.926 9.16041 7.02913L9.54701 6.92646C9.50471 6.76718 9.42822 6.61903 9.32286 6.49231L9.01528 6.74803ZM9.1603 7.02874C9.1713 7.07047 9.18754 7.11065 9.20866 7.1483L9.55754 6.95264C9.55298 6.94452 9.54948 6.93585 9.54711 6.92685L9.1603 7.02874ZM9.20853 7.14806L10.3937 9.26796L10.7428 9.07277L9.55767 6.95287L9.20853 7.14806ZM10.3906 9.26229C10.4606 9.39756 10.567 9.5106 10.6978 9.58867L10.9028 9.24521C10.836 9.20531 10.7816 9.14756 10.7459 9.07844L10.3906 9.26229ZM10.6948 9.58685L12.5152 10.717L12.7261 10.3771L10.9058 9.24702L10.6948 9.58685ZM12.4492 10.444L12.4488 10.4448L12.7916 10.6508L12.7921 10.6501L12.4492 10.444ZM12.447 10.4478L12.1693 10.9288L12.5157 11.1288L12.7934 10.6478L12.447 10.4478ZM12.4422 10.8554L10.4579 9.71473L10.2585 10.0615L12.2428 11.2022L12.4422 10.8554ZM10.463 9.71777L10.288 9.6101L10.0784 9.9508L10.2534 10.0585L10.463 9.71777ZM10.3605 9.68788L9.65595 8.33869L9.30138 8.52384L10.0059 9.87303L10.3605 9.68788ZM9.65597 8.33872C9.61192 8.25433 9.54525 8.18388 9.46343 8.13524L9.25905 8.47909C9.27704 8.48978 9.29169 8.50526 9.30137 8.52381L9.65597 8.33872ZM9.46343 8.13524C9.3816 8.08661 9.28785 8.06171 9.19267 8.06335L9.19955 8.46329C9.22047 8.46293 9.24107 8.4684 9.25905 8.47909L9.46343 8.13524ZM9.19267 8.06335C9.0975 8.06499 9.00466 8.09309 8.92455 8.14451L9.14063 8.48113C9.15823 8.46983 9.17863 8.46365 9.19955 8.46329L9.19267 8.06335ZM8.92455 8.14451C8.84444 8.19593 8.78024 8.26864 8.73912 8.35449L9.09987 8.52727C9.10891 8.50841 9.12302 8.49243 9.14063 8.48113L8.92455 8.14451ZM8.73914 8.35443L8.5061 8.84063L8.8668 9.01352L9.09985 8.52733L8.73914 8.35443ZM8.78613 8.75369L5.8954 7.09189L5.69604 7.43867L8.58677 9.10047L8.78613 8.75369ZM5.97482 7.3543C6.17865 6.94422 6.36569 6.56801 6.48384 6.33052L6.12571 6.15235C6.00752 6.38991 5.82046 6.76618 5.61662 7.17626L5.97482 7.3543ZM6.4842 6.3298C6.57613 6.14313 6.59433 5.92866 6.53516 5.72917L6.15167 5.84292C6.18223 5.94594 6.17283 6.05668 6.12536 6.15307L6.4842 6.3298ZM6.53516 5.72917C6.47598 5.52968 6.34378 5.35982 6.16493 5.25348L5.9605 5.59729C6.05285 5.6522 6.12111 5.73991 6.15167 5.84292L6.53516 5.72917ZM6.16449 5.25322L5.38898 4.79473L5.18541 5.13906L5.96093 5.59755L6.16449 5.25322ZM5.40063 4.80218C5.34491 4.76381 5.28464 4.73251 5.2212 4.709L5.08223 5.08409C5.11459 5.09608 5.14534 5.11204 5.17376 5.13162L5.40063 4.80218ZM5.22609 4.71089C5.0592 4.64403 4.87492 4.63408 4.7018 4.68256L4.80968 5.06774C4.89806 5.04299 4.99214 5.04807 5.07734 5.0822L5.22609 4.71089ZM4.7018 4.68256C4.52868 4.73105 4.37637 4.83527 4.26849 4.97909L4.58846 5.21912C4.64354 5.1457 4.72129 5.09249 4.80968 5.06774L4.7018 4.68256ZM4.26916 4.97819L3.22761 6.35045L3.54623 6.59229L4.58778 5.22002L4.26916 4.97819ZM4.4047 6.49499L5.08541 5.59839L4.76682 5.35651L4.08611 6.25312L4.4047 6.49499ZM4.8044 5.63614C4.82047 5.64847 4.83728 5.6598 4.85475 5.67005L5.05734 5.32515C5.05404 5.32322 5.05087 5.32108 5.04784 5.31876L4.8044 5.63614ZM4.85443 5.66986L5.6433 6.13522L5.84653 5.7907L5.05766 5.32534L4.85443 5.66986ZM5.56585 5.87388C5.45094 6.10487 5.27088 6.46704 5.07354 6.86406L5.43173 7.0421C5.62907 6.64508 5.8091 6.28296 5.92398 6.05204L5.56585 5.87388ZM5.35231 6.77969L4.34508 6.20067L4.14573 6.54745L5.15296 7.12647L5.35231 6.77969ZM5.9596 17.7719L5.20294 17.7704L5.20214 18.1704L5.95879 18.1719L5.9596 17.7719ZM5.40233 17.9614L5.14211 12.2198L4.74252 12.2379L5.00274 17.9795L5.40233 17.9614ZM4.79245 12.3613L6.00793 13.7367L6.30767 13.4718L5.09218 12.0964L4.79245 12.3613ZM5.95801 13.5952L5.7594 17.9629L6.15899 17.981L6.35759 13.6134L5.95801 13.5952ZM7.50268 10.9339C7.43891 11.0661 7.41146 11.2129 7.42314 11.3593L7.82187 11.3274C7.81584 11.2518 7.83002 11.176 7.86297 11.1077L7.50268 10.9339ZM7.42314 11.3593C7.43481 11.5056 7.48519 11.6462 7.56911 11.7666L7.8973 11.5379C7.85393 11.4757 7.8279 11.403 7.82187 11.3274L7.42314 11.3593ZM7.56942 11.767L9.14679 14.0179L9.47436 13.7884L7.89699 11.5375L7.56942 11.767ZM9.14623 14.0171C9.16157 14.0392 9.1688 14.066 9.16669 14.0928L9.56546 14.1242C9.57479 14.0054 9.54281 13.8871 9.47492 13.7892L9.14623 14.0171ZM9.16657 14.0944L8.8942 17.9579L9.29321 17.986L9.56558 14.1226L9.16657 14.0944ZM9.09333 17.7719L8.11018 17.7738L8.11092 18.1738L9.09407 18.1719L9.09333 17.7719ZM8.31007 17.96L8.09144 14.804L7.69239 14.8316L7.91103 17.9876L8.31007 17.96ZM8.0914 14.8035C8.07844 14.6235 8.00704 14.4527 7.88807 14.3171L7.58736 14.5808C7.64884 14.6509 7.68573 14.7392 7.69243 14.8322L8.0914 14.8035ZM7.88761 14.3166L5.19609 11.2696L4.89631 11.5344L7.58782 14.5814L7.88761 14.3166ZM5.19596 11.2695C4.97967 11.0251 4.8395 10.7229 4.79269 10.3999L4.39682 10.4573C4.45482 10.8574 4.62847 11.2318 4.89644 11.5346L5.19596 11.2695ZM4.79269 10.3999C4.74587 10.0769 4.79446 9.74732 4.93247 9.4516L4.56999 9.28244C4.39902 9.6488 4.33883 10.0571 4.39682 10.4573L4.79269 10.3999ZM4.75123 9.36702C4.93034 9.45601 4.93034 9.45601 4.93034 9.45601C4.93034 9.456 4.93035 9.45599 4.93035 9.45598C4.93037 9.45596 4.93038 9.45592 4.93041 9.45588C4.93045 9.45579 4.93052 9.45565 4.93061 9.45547C4.93079 9.45511 4.93106 9.45456 4.93142 9.45384C4.93213 9.45241 4.9332 9.45026 4.93461 9.44742C4.93742 9.44175 4.94161 9.43333 4.94707 9.42233C4.95801 9.40033 4.97406 9.36802 4.99456 9.32677C5.03555 9.24428 5.09432 9.12602 5.16539 8.98299C5.30754 8.69694 5.49894 8.3118 5.69592 7.91545L5.33773 7.73742C5.14074 8.13378 4.94934 8.51893 4.80718 8.80499C4.73611 8.94802 4.67734 9.06627 4.63635 9.14877C4.61585 9.19002 4.59979 9.22233 4.58886 9.24433C4.5834 9.25533 4.57921 9.26375 4.57639 9.26942C4.57498 9.27226 4.57392 9.27441 4.5732 9.27585C4.57284 9.27657 4.57257 9.27711 4.57239 9.27747C4.5723 9.27765 4.57224 9.27779 4.57219 9.27788C4.57217 9.27793 4.57215 9.27796 4.57214 9.27798C4.57213 9.278 4.57213 9.278 4.57213 9.27801C4.57212 9.27802 4.57212 9.27802 4.75123 9.36702ZM5.41715 7.99983L8.31564 9.66609L8.515 9.31931L5.6165 7.65305L5.41715 7.99983ZM8.23497 9.40625L7.50247 10.9343L7.86317 11.1072L8.59567 9.57916L8.23497 9.40625ZM16.7866 16.3949C16.7513 16.4007 16.7152 16.3992 16.6805 16.3904L16.5817 16.778C16.67 16.8005 16.762 16.8044 16.8518 16.7895L16.7866 16.3949ZM16.6805 16.3904C16.6458 16.3815 16.6134 16.3656 16.5852 16.3436L16.339 16.6589C16.4108 16.7149 16.4935 16.7555 16.5817 16.778L16.6805 16.3904ZM16.5966 16.3532C16.5815 16.3395 16.5657 16.3268 16.5491 16.315L16.3176 16.6412C16.3211 16.6437 16.3245 16.6464 16.3277 16.6493L16.5966 16.3532ZM16.5951 16.3604L15.6538 15.0663L15.3303 15.3016L16.2716 16.5957L16.5951 16.3604ZM15.6348 15.3241L17.4386 13.486L17.1531 13.2058L15.3493 15.0439L15.6348 15.3241ZM17.1728 13.5035L19.088 14.9983L19.3341 14.683L17.4189 13.1882L17.1728 13.5035ZM19.1152 14.6651C19.0768 14.686 19.035 14.6998 18.9916 14.7058L19.0463 15.1021C19.1377 15.0895 19.226 15.0604 19.3069 15.0162L19.1152 14.6651ZM18.9808 14.7076C18.9669 14.7103 18.9526 14.71 18.9389 14.7066L18.8435 15.0951C18.9135 15.1123 18.9864 15.114 19.0572 15.1003L18.9808 14.7076ZM18.9389 14.7066C18.9252 14.7032 18.9124 14.6969 18.9013 14.6881L18.6517 15.0007C18.708 15.0457 18.7735 15.0779 18.8435 15.0951L18.9389 14.7066ZM18.9167 14.7018C18.8687 14.6546 18.8118 14.6173 18.7494 14.592L18.5995 14.9629C18.6133 14.9685 18.6258 14.9767 18.6363 14.987L18.9167 14.7018ZM18.7494 14.592C18.687 14.5668 18.6202 14.5541 18.5529 14.5547L18.5563 14.9547C18.5711 14.9546 18.5858 14.9574 18.5995 14.9629L18.7494 14.592ZM18.5529 14.5547C18.4855 14.5553 18.419 14.5691 18.357 14.5954L18.5132 14.9636C18.5269 14.9579 18.5415 14.9548 18.5563 14.9547L18.5529 14.5547ZM18.357 14.5954C18.295 14.6217 18.2388 14.66 18.1916 14.708L18.4769 14.9884C18.4872 14.9778 18.4996 14.9694 18.5132 14.9636L18.357 14.5954ZM18.1916 14.708C18.1444 14.756 18.1071 14.8129 18.0819 14.8753L18.4527 15.0252C18.4583 15.0115 18.4665 14.999 18.4769 14.9884L18.1916 14.708ZM18.0819 14.8753C18.0566 14.9378 18.044 15.0045 18.0445 15.0719L18.4445 15.0684C18.4444 15.0536 18.4472 15.0389 18.4527 15.0252L18.0819 14.8753ZM18.0445 15.0719C18.0451 15.1392 18.059 15.2058 18.0853 15.2678L18.4535 15.1115C18.4477 15.0979 18.4447 15.0832 18.4445 15.0684L18.0445 15.0719ZM18.0853 15.2678C18.1116 15.3297 18.1498 15.3859 18.1978 15.4332L18.4782 15.1479C18.4677 15.1375 18.4593 15.1251 18.4535 15.1115L18.0853 15.2678ZM18.1978 15.4331C18.2154 15.4504 18.2327 15.4633 18.2413 15.4696C18.2473 15.474 18.2485 15.4748 18.2516 15.4772C18.2538 15.4788 18.2541 15.4791 18.2535 15.4786L18.5124 15.1737C18.5045 15.167 18.4972 15.1614 18.4917 15.1573C18.4873 15.1539 18.4806 15.1491 18.4789 15.1478C18.4722 15.1428 18.4743 15.144 18.4783 15.1479L18.1978 15.4331ZM18.3063 15.1414C18.2782 15.1531 18.2487 15.1609 18.2185 15.1648L18.2695 15.5616C18.3348 15.5532 18.3988 15.5361 18.4596 15.5109L18.3063 15.1414ZM18.2111 15.1659C18.176 15.1718 18.14 15.1703 18.1055 15.1615L18.0066 15.549C18.095 15.5716 18.187 15.5755 18.2769 15.5605L18.2111 15.1659ZM18.1055 15.1615C18.071 15.1527 18.0388 15.1368 18.0108 15.1148L17.7639 15.4296C17.8357 15.4858 17.9183 15.5265 18.0066 15.549L18.1055 15.1615ZM18.0275 15.1296C17.9306 15.0342 17.7997 14.9813 17.6637 14.9825L17.6671 15.3825C17.697 15.3822 17.7258 15.3939 17.7472 15.4148L18.0275 15.1296ZM17.6637 14.9825C17.5277 14.9837 17.3977 15.0388 17.3024 15.1358L17.5877 15.4162C17.6086 15.3949 17.6372 15.3828 17.6671 15.3825L17.6637 14.9825ZM17.3024 15.1358C17.2071 15.2328 17.1542 15.3637 17.1554 15.4997L17.5553 15.4962C17.5551 15.4663 17.5667 15.4375 17.5877 15.4162L17.3024 15.1358ZM17.1554 15.4997C17.1565 15.6357 17.2117 15.7656 17.3087 15.861L17.5891 15.5757C17.5677 15.5547 17.5556 15.5261 17.5553 15.4962L17.1554 15.4997ZM17.3104 15.8626C17.4319 15.9793 17.578 16.0674 17.7379 16.1206L17.8641 15.7411C17.7606 15.7066 17.6661 15.6496 17.5874 15.574L17.3104 15.8626ZM17.7166 15.7495C17.6851 15.7642 17.6515 15.7739 17.617 15.7782L17.667 16.1751C17.7426 16.1656 17.8163 16.1443 17.8854 16.1122L17.7166 15.7495ZM17.6093 15.7793C17.5741 15.7852 17.5381 15.7836 17.5035 15.7748L17.4046 16.1624C17.4929 16.1849 17.5848 16.1888 17.6747 16.174L17.6093 15.7793ZM17.5035 15.7748C17.4689 15.766 17.4365 15.7501 17.4084 15.7281L17.162 16.0432C17.2338 16.0993 17.3164 16.1399 17.4046 16.1624L17.5035 15.7748ZM17.4254 15.743C17.3284 15.6477 17.1975 15.5948 17.0615 15.596L17.065 15.996C17.0949 15.9957 17.1237 16.0073 17.145 16.0283L17.4254 15.743ZM17.0615 15.596C16.9255 15.5971 16.7956 15.6523 16.7003 15.7493L16.9855 16.0297C17.0065 16.0083 17.0351 15.9962 17.065 15.996L17.0615 15.596ZM16.7003 15.7493C16.6049 15.8463 16.552 15.9771 16.5532 16.1131L16.9532 16.1097C16.9529 16.0798 16.9646 16.051 16.9855 16.0297L16.7003 15.7493ZM16.5532 16.1131C16.5544 16.2491 16.6095 16.3791 16.7065 16.4744L16.9869 16.1891C16.9656 16.1682 16.9535 16.1396 16.9532 16.1097L16.5532 16.1131ZM16.7074 16.4753C16.7881 16.5537 16.8805 16.6192 16.9811 16.6695L17.1599 16.3116C17.096 16.2797 17.0373 16.2381 16.986 16.1883L16.7074 16.4753ZM16.9475 16.3329C16.9043 16.3666 16.8525 16.3875 16.798 16.3934L16.8405 16.7911C16.9692 16.7773 17.0915 16.7279 17.1936 16.6482L16.9475 16.3329Z" fill="#6754E2" mask="url(#path-1-outside-1_6241_97693)"/>
<path d="M13.7272 17.6278L14.6131 17.8884C14.6131 17.8884 14.6131 17.8884 14.6131 17.8884C14.6651 17.9036 14.7136 17.929 14.7558 17.963C14.798 17.9971 14.8331 18.0391 14.8591 18.0866C14.885 18.1342 14.9014 18.1865 14.9072 18.2404C14.9129 18.2943 14.908 18.3488 14.8927 18.4008C14.8774 18.4528 14.852 18.5013 14.818 18.5435C14.784 18.5857 14.7419 18.6208 14.6943 18.6467C14.6467 18.6727 14.5945 18.689 14.5406 18.6947C14.4867 18.7005 14.4322 18.6956 14.3802 18.6802M13.7272 17.6278L13.6989 17.7237L13.7272 17.6277M13.7272 17.6278C13.7272 17.6278 13.7272 17.6278 13.7272 17.6277M13.7272 17.6278L13.7272 17.6277M14.3802 18.6802L14.4084 18.5843L14.3802 18.6803L14.3802 18.6802ZM14.3802 18.6802L13.4943 18.4196L13.5224 18.3237L13.4942 18.4196C13.4422 18.4044 13.3937 18.379 13.3515 18.345C13.3093 18.3109 13.2742 18.2689 13.2483 18.2213C13.2223 18.1738 13.206 18.1215 13.2002 18.0676C13.1944 18.0137 13.1993 17.9592 13.2146 17.9072C13.2299 17.8552 13.2553 17.8067 13.2894 17.7645C13.3234 17.7223 13.3654 17.6872 13.413 17.6613C13.4606 17.6353 13.5129 17.619 13.5668 17.6133C13.6207 17.6075 13.6752 17.6124 13.7272 17.6277" fill="#6754E2" stroke="#6754E2" stroke-width="0.2"/>
<path d="M15.7829 17.5972L15.7829 17.5972L16.0087 17.493L16.0088 17.4929L16.0507 17.5837L15.7829 17.5972ZM15.7829 17.5972L15.7827 17.5972M15.7829 17.5972L15.7827 17.5972M15.7827 17.5972C15.6835 17.6432 15.6066 17.7267 15.5689 17.8293C15.5312 17.9319 15.5357 18.0453 15.5815 18.1446C15.6273 18.2439 15.7106 18.3209 15.8132 18.3588C15.9157 18.3967 16.0291 18.3924 16.1285 18.3468L16.1287 18.3467M15.7827 17.5972L16.1287 18.3467M16.1287 18.3467L16.3544 18.2425L16.1287 18.3467Z" fill="#6754E2" stroke="#6754E2" stroke-width="0.2"/>
<path d="M18.0504 18.2011L18.0504 18.2011L18.3891 18.5658C18.3891 18.5658 18.3891 18.5658 18.3891 18.5658C18.4636 18.646 18.5669 18.6933 18.6763 18.6974C18.7857 18.7014 18.8922 18.6618 18.9725 18.5874C19.0527 18.5129 19.1 18.4096 19.104 18.3002C19.1081 18.1908 19.0685 18.0842 18.994 18.004L18.994 18.004L18.6552 17.6393C18.6552 17.6393 18.6552 17.6393 18.6552 17.6393C18.5807 17.5591 18.4774 17.5117 18.368 17.5077C18.2586 17.5037 18.1521 17.5432 18.0719 17.6177C17.9917 17.6922 17.9444 17.7955 17.9403 17.9049C17.9363 18.0143 17.9759 18.1208 18.0504 18.2011Z" fill="#6754E2" stroke="#6754E2" stroke-width="0.2"/>
<path d="M18.4322 16.9103V16.9103V17.0873C18.4322 17.1967 18.4757 17.3017 18.5531 17.3791C18.6305 17.4565 18.7355 17.5 18.8449 17.5C18.9544 17.5 19.0593 17.4565 19.1367 17.3791C19.2141 17.3017 19.2576 17.1967 19.2576 17.0873V16.9103V16.9103C19.2576 16.8009 19.2141 16.6959 19.1367 16.6185C19.0593 16.5411 18.9544 16.4977 18.8449 16.4977H18.8449C18.7355 16.4977 18.6305 16.5411 18.5531 16.6185C18.4757 16.6959 18.4322 16.8009 18.4322 16.9103Z" fill="#6754E2" stroke="#6754E2" stroke-width="0.2"/>
<path d="M16.7467 17.9201V17.9201V18.2848C16.7467 18.3943 16.7902 18.4993 16.8676 18.5766C16.9449 18.654 17.0499 18.6975 17.1594 18.6975C17.2688 18.6975 17.3738 18.654 17.4512 18.5766C17.5286 18.4993 17.572 18.3943 17.572 18.2848V17.9201V17.9201C17.572 17.8106 17.5286 17.7057 17.4512 17.6283C17.3738 17.5509 17.2688 17.5074 17.1594 17.5074H17.1594C17.0499 17.5074 16.9449 17.5509 16.8676 17.6283C16.7902 17.7057 16.7467 17.8106 16.7467 17.9201Z" fill="#6754E2" stroke="#6754E2" stroke-width="0.2"/>
<path d="M14.5695 16.639L14.5695 16.639C14.5224 16.6123 14.4704 16.5952 14.4166 16.5886C14.3628 16.582 14.3082 16.5861 14.256 16.6006C14.2038 16.6151 14.1549 16.6397 14.1122 16.6731C14.0695 16.7065 14.0338 16.748 14.0072 16.7951C13.9805 16.8423 13.9634 16.8943 13.9568 16.9481C13.9502 17.0019 13.9543 17.0565 13.9688 17.1087C13.9833 17.1609 14.0079 17.2098 14.0413 17.2525C14.0747 17.2951 14.1161 17.3309 14.1633 17.3575C14.1633 17.3575 14.1633 17.3575 14.1633 17.3575L14.3196 17.4459L14.3197 17.4459C14.4149 17.4998 14.5277 17.5136 14.6332 17.4843C14.7387 17.455 14.8282 17.3851 14.882 17.2898C14.9359 17.1945 14.9497 17.0817 14.9204 16.9762C14.8911 16.8708 14.8212 16.7813 14.7259 16.7274C14.7259 16.7274 14.7259 16.7274 14.7259 16.7274L14.5695 16.639Z" fill="#6754E2" stroke="#6754E2" stroke-width="0.2"/>
<path d="M10.9025 1.36583L10.9025 1.36585C10.9946 1.42502 11.0594 1.51833 11.0826 1.62527C11.1046 1.72599 11.088 1.83103 11.0365 1.91984C11.2972 2.17569 11.4876 2.49511 11.5883 2.84721C11.6899 3.20248 11.6966 3.57776 11.6082 3.93566L11.9887 4.17966L11.9889 4.17975L11.9349 4.26394C11.9695 4.28606 11.9995 4.31479 12.023 4.34849L12.105 4.29126C12.136 4.33574 12.158 4.38591 12.1696 4.43889C12.1813 4.49187 12.1824 4.54663 12.1728 4.60003C12.1633 4.65344 12.1433 4.70443 12.114 4.7501C12.0847 4.79577 12.0468 4.83522 12.0022 4.86619C11.9577 4.89717 11.9075 4.91905 11.8545 4.93061C11.8015 4.94216 11.7467 4.94314 11.6933 4.93351C11.6399 4.92388 11.589 4.90381 11.5434 4.87446M10.9025 1.36583L11.2305 4.55509M10.9025 1.36583C10.8104 1.3067 10.6986 1.28656 10.5917 1.30984C10.4953 1.33082 10.4099 1.38555 10.3507 1.46357M10.9025 1.36583L10.3507 1.46357M11.5434 4.87446L11.5975 4.79036L11.5435 4.87454L11.5434 4.87446ZM11.5434 4.87446L11.2576 4.69123M11.2576 4.69123C11.2769 4.66473 11.2957 4.63774 11.3139 4.61029L11.2305 4.55509M11.2576 4.69123C11.0371 4.99294 10.7408 5.2319 10.3979 5.38337C10.0249 5.54816 9.61253 5.60251 9.2096 5.53997C8.80667 5.47744 8.43012 5.30065 8.12463 5.03057C7.81914 4.7605 7.59752 4.40847 7.48606 4.01624C7.3746 3.62401 7.37798 3.20804 7.4958 2.81768C7.61361 2.42731 7.84092 2.07893 8.15075 1.81385C8.46059 1.54877 8.83996 1.37812 9.24385 1.32214C9.61932 1.2701 10.0013 1.31918 10.3507 1.46357M11.2576 4.69123L11.1765 4.63927L11.2305 4.55509M11.2305 4.55509L10.3507 1.46357M9.53875 4.73983H9.5387C9.30675 4.74004 9.07894 4.6784 8.87874 4.56126C8.67855 4.44412 8.51321 4.27571 8.39976 4.0734C8.28632 3.87108 8.22887 3.64218 8.23335 3.41027C8.23716 3.21252 8.28588 3.0187 8.37527 2.84326L10.5614 4.24486C10.4502 4.38529 10.311 4.50164 10.1523 4.58628C9.9635 4.68701 9.75278 4.73974 9.53875 4.73983ZM10.8443 3.4459L8.9814 2.25146C9.15622 2.16737 9.3483 2.12318 9.54365 2.12301C9.79273 2.12279 10.0366 2.19415 10.2463 2.3286C10.456 2.46304 10.6226 2.65491 10.7264 2.88135C10.8078 3.05895 10.8478 3.25194 10.8443 3.4459Z" fill="#6754E2" stroke="#6754E2" stroke-width="0.2"/>
</g>
<defs>
<clipPath id="clip0_6241_97693">
<rect width="20" height="20" fill="white" transform="translate(0 0.00390625)"/>
</clipPath>
</defs>
</svg>
