<svg width="20" height="20" viewBox="0 0 20 20" fill="none" xmlns="http://www.w3.org/2000/svg">
<g clip-path="url(#clip0_6241_97725)">
<path fill-rule="evenodd" clip-rule="evenodd" d="M11.4679 5.46963C11.3818 5.44593 11.2914 5.4424 11.2038 5.45929C11.1161 5.47619 11.0335 5.51307 10.9624 5.56706C10.8913 5.62105 10.8337 5.69071 10.7939 5.77061C10.754 5.85052 10.7332 5.93852 10.7329 6.02779V8.23636C10.7329 8.33605 10.7586 8.43405 10.8076 8.5209C10.8565 8.60774 10.927 8.68049 11.0123 8.7321C11.2542 8.87871 11.455 9.08426 11.5958 9.32952C11.6468 9.41749 11.72 9.49051 11.8081 9.54128C11.8962 9.59205 11.9961 9.61878 12.0977 9.6188H14.3258C14.415 9.61891 14.5031 9.59837 14.5831 9.55879C14.6631 9.5192 14.7328 9.46165 14.7869 9.39063C14.8409 9.3196 14.8778 9.23704 14.8947 9.14939C14.9115 9.06174 14.9078 8.97138 14.8839 8.88539C14.6556 8.07069 14.2214 7.32848 13.6231 6.73024C13.0248 6.13199 12.2826 5.69786 11.4679 5.46963ZM12.409 8.46043C12.2604 8.26368 12.0869 8.08706 11.8928 7.93503V6.87648C12.5681 7.23281 13.1199 7.78494 13.4759 8.46043H12.409ZM9.34615 5.56698C9.27516 5.51273 9.19254 5.47569 9.1048 5.4588C9.01705 5.44191 8.92659 5.44561 8.84053 5.46963C8.02575 5.69789 7.28345 6.13203 6.68505 6.73026C6.08666 7.32849 5.65232 8.07068 5.42384 8.88539C5.39995 8.97138 5.39628 9.06174 5.41312 9.14939C5.42996 9.23703 5.46685 9.3196 5.5209 9.39062C5.57496 9.46164 5.64471 9.5192 5.7247 9.55878C5.8047 9.59836 5.89276 9.6189 5.98201 9.61879H8.20974C8.31147 9.61889 8.41144 9.59221 8.4996 9.54143C8.58776 9.49065 8.661 9.41757 8.71196 9.32952C8.85302 9.08469 9.05335 8.87926 9.29455 8.73209C9.37997 8.68063 9.4506 8.60792 9.49956 8.52104C9.54853 8.43416 9.57415 8.33608 9.57393 8.23635V6.02778C9.57387 5.93864 9.5533 5.85072 9.5138 5.77081C9.4743 5.6909 9.41694 5.62116 9.34615 5.56698ZM8.41556 7.93503C8.22121 8.08665 8.04776 8.26332 7.89974 8.46044H6.83162C7.18773 7.78476 7.73989 7.2326 8.41556 6.87649V7.93503ZM9.29455 11.5776C9.07574 11.4442 8.89024 11.2626 8.75214 11.0467C8.69986 10.9643 8.62764 10.8965 8.54217 10.8495C8.4567 10.8025 8.36075 10.7778 8.2632 10.7778H5.98201C5.89274 10.7781 5.80474 10.7989 5.72483 10.8387C5.64493 10.8785 5.57528 10.9362 5.52129 11.0073C5.4673 11.0784 5.43042 11.161 5.41352 11.2486C5.39662 11.3363 5.40015 11.4267 5.42384 11.5127C5.65241 12.3274 6.08677 13.0696 6.68515 13.6679C7.28352 14.2662 8.02578 14.7004 8.84053 14.9288C8.89066 14.9432 8.9426 14.9502 8.99475 14.9498C9.07084 14.9499 9.1462 14.935 9.21652 14.906C9.28684 14.8769 9.35073 14.8342 9.40454 14.7804C9.45834 14.7266 9.501 14.6627 9.53007 14.5924C9.55914 14.5221 9.57404 14.4467 9.57393 14.3706V12.0737C9.57419 11.9739 9.54858 11.8758 9.49962 11.7888C9.45066 11.7019 9.38 11.6291 9.29455 11.5776ZM8.41556 13.5207C7.74007 13.1648 7.18795 12.613 6.83162 11.9377H7.96897C8.10141 12.0994 8.25117 12.246 8.41556 12.375V13.5207ZM14.3258 10.7778H12.0446C11.9472 10.778 11.8514 10.8027 11.7661 10.8497C11.6808 10.8967 11.6087 10.9644 11.5566 11.0467C11.4175 11.2625 11.2315 11.444 11.0123 11.5776C10.927 11.6293 10.8564 11.7021 10.8075 11.789C10.7586 11.8759 10.7329 11.974 10.7329 12.0737V14.3706C10.7334 14.5242 10.7948 14.6714 10.9035 14.7799C11.0122 14.8885 11.1594 14.9495 11.313 14.9498C11.3654 14.9502 11.4175 14.9431 11.4679 14.9288C12.2826 14.7004 13.0248 14.2662 13.623 13.6679C14.2213 13.0696 14.6556 12.3274 14.8839 11.5127C14.9076 11.4267 14.9112 11.3363 14.8943 11.2486C14.8774 11.161 14.8405 11.0784 14.7865 11.0073C14.7325 10.9362 14.6628 10.8785 14.5829 10.8387C14.503 10.7989 14.415 10.7781 14.3258 10.7778ZM11.8928 13.5207V12.375C12.0572 12.2458 12.207 12.0992 12.3397 11.9377H13.4759C13.1197 12.6128 12.5679 13.1646 11.8928 13.5207ZM19.6315 8.4561L16.946 7.41116C16.9296 7.37252 16.9129 7.33204 16.8962 7.29279L18.0571 4.65494C18.104 4.54796 18.1175 4.42929 18.0957 4.31452C18.074 4.19974 18.0181 4.09421 17.9353 4.01179L16.297 2.37251C16.2143 2.28981 16.1086 2.23402 15.9936 2.21245C15.8787 2.19089 15.7599 2.20456 15.6529 2.25167L12.9872 3.4258C12.961 3.41436 12.9353 3.40386 12.9081 3.39334L11.8527 0.677308C11.8104 0.568567 11.7363 0.475151 11.64 0.409341C11.5437 0.343531 11.4297 0.30841 11.313 0.308594H8.99475C8.878 0.308476 8.76393 0.34361 8.66748 0.409399C8.57103 0.475188 8.49669 0.568566 8.4542 0.677308L7.39844 3.39334C7.3731 3.40477 7.3459 3.41436 7.32056 3.4258L4.65365 2.2526C4.54681 2.20555 4.42824 2.19191 4.31351 2.21348C4.19879 2.23504 4.09326 2.29081 4.01081 2.37344L2.37245 4.01179C2.28984 4.09433 2.2341 4.19991 2.21253 4.31468C2.19097 4.42945 2.20459 4.54806 2.25161 4.65495L3.41153 7.2928C3.39484 7.33205 3.37722 7.37253 3.36085 7.41179L0.67633 8.4561C0.56777 8.49859 0.474529 8.5728 0.40876 8.66905C0.342991 8.76531 0.307745 8.87915 0.307617 8.99572V11.314C0.307577 11.4306 0.342755 11.5445 0.408546 11.6408C0.474337 11.7371 0.567673 11.8113 0.67633 11.8536L3.31943 12.8822C3.34323 12.9425 3.36765 13.0012 3.39299 13.0608L2.25162 15.6551C2.20457 15.7619 2.19094 15.8805 2.2125 15.9952C2.23407 16.11 2.28983 16.2155 2.37246 16.298L4.01082 17.9372C4.09329 18.0198 4.19881 18.0756 4.31353 18.0971C4.42825 18.1187 4.54681 18.1051 4.65366 18.0581L7.21888 16.9297C7.29244 16.9612 7.36538 16.9909 7.43893 17.0209L8.4542 19.6324C8.49692 19.741 8.57131 19.8343 8.66771 19.9C8.76411 19.9658 8.87806 20.001 8.99476 20.0011H11.313C11.4297 20.0013 11.5437 19.9662 11.64 19.9004C11.7363 19.8346 11.8104 19.7412 11.8527 19.6324L12.8679 17.0209C12.9433 16.9909 13.016 16.9612 13.0886 16.9297L15.6529 18.0571C15.7599 18.1043 15.8787 18.1179 15.9936 18.0964C16.1086 18.0748 16.2143 18.019 16.297 17.9363L17.9362 16.298C18.0186 16.2154 18.0743 16.1098 18.0958 15.9952C18.1174 15.8805 18.1039 15.762 18.0571 15.6551L16.9154 13.0608C16.9401 13.0012 16.9646 12.9409 16.988 12.8822L19.6314 11.8536C19.7401 11.8113 19.8335 11.7372 19.8993 11.6409C19.9651 11.5446 20.0003 11.4307 20.0002 11.314V8.99572C20.0003 8.87907 19.9652 8.7651 19.8994 8.66878C19.8336 8.57247 19.7402 8.49833 19.6315 8.4561ZM18.8412 10.9181L16.3257 11.8957C16.2477 11.9261 16.1772 11.9729 16.119 12.0331C16.0608 12.0933 16.0163 12.1653 15.9885 12.2443C15.9215 12.4382 15.844 12.6283 15.7564 12.8139C15.7216 12.8887 15.7031 12.97 15.7022 13.0525C15.7013 13.135 15.718 13.2168 15.7512 13.2923L16.8366 15.7583L15.7574 16.8367L13.3182 15.7627C13.2415 15.7291 13.1583 15.7126 13.0746 15.7143C12.9908 15.7159 12.9084 15.7357 12.833 15.7722C12.6358 15.8668 12.4337 15.9508 12.2276 16.0238C12.1493 16.0519 12.0779 16.0964 12.0182 16.1543C11.9585 16.2121 11.9119 16.2821 11.8814 16.3595L10.9168 18.8422H9.39158L8.42546 16.3595C8.39543 16.282 8.34905 16.2119 8.28947 16.154C8.22989 16.096 8.15852 16.0517 8.08023 16.0238C7.87419 15.9505 7.6721 15.8665 7.47478 15.7722C7.3995 15.7357 7.31719 15.7159 7.23352 15.7143C7.14986 15.7126 7.06683 15.7291 6.99016 15.7627L4.55135 16.8367L3.47273 15.7583L4.55662 13.2923C4.58993 13.2168 4.6067 13.1351 4.60579 13.0525C4.60488 12.97 4.58631 12.8886 4.55134 12.8139C4.4642 12.628 4.38643 12.4379 4.31831 12.2443C4.29072 12.1653 4.24634 12.0933 4.18824 12.0331C4.13014 11.9729 4.05969 11.926 3.98175 11.8957L1.4666 10.9181V9.39195L4.01853 8.40017C4.09494 8.37028 4.16415 8.32453 4.22158 8.26592C4.27901 8.20732 4.32336 8.1372 4.3517 8.0602C4.41537 7.88774 4.48986 7.71405 4.56959 7.54499C4.60538 7.46976 4.62454 7.38769 4.62577 7.30439C4.627 7.22108 4.61026 7.13849 4.5767 7.06224L3.47211 4.55141L4.5495 3.47308L7.08753 4.58911C7.16267 4.62242 7.24408 4.63927 7.32628 4.63852C7.40847 4.63778 7.48956 4.61945 7.56409 4.58478C7.72171 4.51216 7.88305 4.44447 8.04438 4.38667C8.1218 4.35852 8.19228 4.31406 8.25104 4.25632C8.3098 4.19857 8.35547 4.12888 8.38496 4.05195L9.39066 1.46758H10.9168L11.9219 4.05195C11.9516 4.12904 11.9976 4.19883 12.0567 4.25659C12.1157 4.31434 12.1866 4.35871 12.2643 4.38667C12.4247 4.44447 12.5851 4.51216 12.7443 4.58478C12.8186 4.61922 12.8994 4.63742 12.9813 4.63817C13.0633 4.63891 13.1444 4.62219 13.2193 4.58911L15.7574 3.47308L16.8357 4.55141L15.7311 7.06223C15.6975 7.1385 15.6808 7.22113 15.6821 7.30445C15.6834 7.38778 15.7028 7.46984 15.7388 7.54498C15.8176 7.71311 15.8912 7.88681 15.9552 8.0602C15.9837 8.1372 16.0281 8.2073 16.0857 8.2659C16.1432 8.32449 16.2125 8.37025 16.2889 8.40016L18.8412 9.39195V10.9181Z" fill="#6754E2"/>
</g>
<defs>
<clipPath id="clip0_6241_97725">
<rect width="20" height="20" fill="white"/>
</clipPath>
</defs>
</svg>
