<svg width="20" height="20" viewBox="0 0 20 20" fill="none" xmlns="http://www.w3.org/2000/svg">
<path d="M6.25391 4.75843C6.25391 4.51462 6.45211 4.31641 6.69676 4.31641H7.58083C7.82547 4.31641 8.02368 4.51461 8.02368 4.75843V5.64333C8.02368 5.88797 7.82547 6.08535 7.58083 6.08535H6.69676C6.45212 6.08535 6.25391 5.88797 6.25391 5.64333V4.75843Z" fill="#6754E2"/>
<path d="M6.69676 7.85742C6.45212 7.85742 6.25391 8.0548 6.25391 8.29945V9.18435C6.25391 9.42816 6.45211 9.62637 6.69676 9.62637H7.58083C7.82547 9.62637 8.02368 9.42816 8.02368 9.18435V8.29945C8.02368 8.0548 7.82547 7.85742 7.58083 7.85742H6.69676Z" fill="#6754E2"/>
<path d="M6.25391 11.8354C6.25391 11.5908 6.45211 11.3926 6.69676 11.3926H7.58083C7.82547 11.3926 8.02368 11.5908 8.02368 11.8354V12.7195C8.02368 12.9641 7.82547 13.1624 7.58083 13.1624H6.69676C6.45212 13.1624 6.25391 12.9641 6.25391 12.7195V11.8354Z" fill="#6754E2"/>
<path d="M13.7721 7.85742C13.5275 7.85742 13.3301 8.0548 13.3301 8.29945V9.18435C13.3301 9.42816 13.5275 9.62637 13.7721 9.62637H14.657C14.9008 9.62637 15.099 9.42816 15.099 9.18435V8.29945C15.099 8.0548 14.9008 7.85742 14.657 7.85742H13.7721Z" fill="#6754E2"/>
<path d="M13.3301 11.8354C13.3301 11.5908 13.5275 11.3926 13.7721 11.3926H14.657C14.9008 11.3926 15.099 11.5908 15.099 11.8354V12.7195C15.099 12.9641 14.9008 13.1624 14.657 13.1624H13.7721C13.5275 13.1624 13.3301 12.9641 13.3301 12.7195V11.8354Z" fill="#6754E2"/>
<path fill-rule="evenodd" clip-rule="evenodd" d="M2.05204 3.43241C2.05204 2.0889 3.14095 1 4.48445 1H9.79215C11.1357 1 12.2246 2.0889 12.2246 3.43241V5.42279H15.0998C16.4433 5.42279 17.5322 6.51253 17.5322 7.85605V16.9231H18.6386C19.0051 16.9231 19.302 17.22 19.302 17.5865C19.302 17.9531 19.0051 18.25 18.6386 18.25H0.945688C0.579946 18.25 0.282227 17.9531 0.282227 17.5865C0.282227 17.22 0.579946 16.9231 0.945688 16.9231H2.052L2.05204 3.43241ZM8.0232 16.9231H10.8976V3.43241C10.8976 2.82202 10.4025 2.32692 9.79215 2.32692H4.48445C3.87407 2.32692 3.37897 2.82202 3.37897 3.43241V16.9231H6.2534V14.4907C6.2534 14.246 6.45161 14.0478 6.69625 14.0478H7.58032C7.82497 14.0478 8.02318 14.246 8.02318 14.4907L8.0232 16.9231ZM12.2246 16.9231H16.2053V7.85605C16.2053 7.24484 15.7102 6.74974 15.0998 6.74974H12.2246V16.9231Z" fill="#6754E2"/>
</svg>
