<svg width="20" height="20" viewBox="0 0 20 20" fill="none" xmlns="http://www.w3.org/2000/svg">
<path d="M6.16807 12.4747L6.168 12.4747C5.75831 12.6413 5.2863 12.5501 4.97196 12.2424C4.65725 11.9343 4.56298 11.4698 4.73421 11.0662L4.73424 11.0662C4.90534 10.6637 5.30705 10.4031 5.74974 10.404M6.16807 12.4747L5.74954 10.504M6.16807 12.4747C6.57726 12.3079 6.84539 11.9147 6.84445 11.4779M6.16807 12.4747L6.74445 11.4781M5.74974 10.404L5.74954 10.504M5.74974 10.404C5.74972 10.404 5.74971 10.404 5.74969 10.404L5.74954 10.504M5.74974 10.404C6.35207 10.405 6.84349 10.8831 6.84445 11.4779M5.74954 10.504C6.2988 10.5049 6.74361 10.9404 6.74445 11.4781M6.84445 11.4779L6.74445 11.4781M6.84445 11.4779C6.84445 11.4779 6.84445 11.4779 6.84445 11.478L6.74445 11.4781M7.73622 11.4784L7.73622 11.4781C7.73622 11.0422 8.00439 10.6506 8.41368 10.4856L7.73622 11.4784ZM7.73622 11.4784C7.73808 12.0731 8.2294 12.5513 8.83181 12.5522H8.83196M7.73622 11.4784L8.83196 12.5522M8.83196 12.5522C9.27291 12.5522 9.67287 12.2924 9.8431 11.8899M8.83196 12.5522L9.8431 11.8899M5.74974 13.7031C5.30705 13.7022 4.90534 13.9629 4.73424 14.3653L4.73421 14.3654C4.56298 14.769 4.65725 15.2334 4.97196 15.5415C5.2863 15.8493 5.75831 15.9404 6.168 15.7738L6.16807 15.7738C6.57726 15.607 6.84539 15.2138 6.84446 14.777L6.84445 14.7767L6.84443 14.7726L6.84443 14.7725C6.84071 14.1795 6.35029 13.7041 5.74974 13.7031ZM5.74974 13.7031L5.74954 13.8031M5.74974 13.7031C5.74972 13.7031 5.74971 13.7031 5.74969 13.7031L5.74954 13.8031M5.74954 13.8031C6.29712 13.804 6.74107 14.237 6.74443 14.7731L5.04192 15.47C4.75635 15.1904 4.67125 14.7698 4.82626 14.4044C4.98127 14.0399 5.34604 13.8023 5.74954 13.8031ZM7.81329 14.3613C7.64291 14.7633 7.73727 15.226 8.05106 15.5333C8.36453 15.8402 8.83477 15.9313 9.24361 15.7656L9.24368 15.7656C9.65193 15.5997 9.92017 15.2083 9.92017 14.7731V14.773C9.91924 14.178 9.42691 13.7 8.82558 13.6982H8.82527C8.38339 13.6982 7.98348 13.9589 7.81329 14.3613ZM7.81329 14.3613L7.90536 14.4003L7.81326 14.3614C7.81327 14.3613 7.81328 14.3613 7.81329 14.3613ZM9.8431 11.8899C10.0135 11.4879 9.91912 11.0252 9.60533 10.718C9.29197 10.4112 8.82183 10.3199 8.41381 10.4855L9.8431 11.8899ZM17.4583 9.4604H15.7606V3.25417L15.7606 3.25397C15.758 1.95316 14.6819 0.90264 13.3585 0.9H13.3583L4.30495 0.9L4.30489 0.9C2.98054 0.900859 1.90271 1.95224 1.9 3.25396V3.25417L1.9 16.7458L1.9 16.746C1.90264 18.0477 2.98043 19.0991 4.30489 19.1H4.30495H17.4584C18.1219 19.1 18.7216 18.7081 18.9751 18.1042C19.2159 17.5316 19.099 16.8776 18.6826 16.4201C18.9498 16.1269 19.1 15.7464 19.1 15.3503C19.1 14.9536 18.9498 14.5731 18.6827 14.2799C18.9499 13.9871 19.1 13.606 19.1 13.21C19.1 12.8141 18.9499 12.4329 18.6826 12.1402C19.099 11.6827 19.2158 11.0287 18.9751 10.4553L18.9751 10.4553C18.7215 9.85227 18.1218 9.4604 17.4583 9.4604ZM11.7508 15.3505C11.7508 15.0722 11.9724 14.8385 12.2603 14.8204H17.4553C17.7433 14.8385 17.9649 15.0722 17.9649 15.3505C17.9649 15.6252 17.7491 15.8563 17.4666 15.8798L17.4583 15.8798L12.2603 15.8806C11.9724 15.8625 11.7508 15.6288 11.7508 15.3505ZM11.7508 13.2101C11.7508 12.9318 11.9724 12.6982 12.2603 12.68H17.4553C17.7433 12.6982 17.9649 12.9318 17.9649 13.2101C17.9649 13.4848 17.7491 13.716 17.4666 13.7394L17.4583 13.7394L12.2603 13.7403C11.9724 13.7221 11.7508 13.4885 11.7508 13.2101ZM11.7508 11.0698C11.7508 10.7914 11.9724 10.5578 12.2603 10.5396H17.4553C17.7433 10.5578 17.9649 10.7914 17.9649 11.0698C17.9649 11.3444 17.7491 11.5756 17.4666 11.5991L17.4583 11.5991L12.2603 11.5999C11.9724 11.5817 11.7508 11.3481 11.7508 11.0698ZM13.011 8.27127V4.69259C13.011 4.5492 12.9528 4.41135 12.8495 4.31019C12.7463 4.20909 12.6065 4.15298 12.462 4.15298H5.20119C4.9003 4.15298 4.65219 4.39288 4.65219 4.69258V8.27125C4.65219 8.41464 4.71034 8.55249 4.81364 8.65365C4.91688 8.75475 5.0567 8.81087 5.20121 8.81087H12.462C12.6065 8.81087 12.7463 8.75473 12.8495 8.65366C12.9529 8.5525 13.011 8.41465 13.011 8.27127ZM5.75107 5.23304H11.9129L11.9122 7.73167H5.75107V5.23304ZM10.7406 10.4553C10.4989 11.0272 10.6142 11.6814 11.0292 12.1403C10.7627 12.4338 10.6147 12.8144 10.6147 13.2102C10.6147 13.606 10.7627 13.9865 11.0292 14.28C10.7627 14.574 10.6148 14.9546 10.6148 15.3504C10.6148 15.7455 10.7628 16.1261 11.0291 16.4201C10.6324 16.8567 10.5098 17.4708 10.7061 18.0201H4.30489C3.58211 18.0201 2.99968 17.4482 2.99891 16.7459V3.25443C2.99968 2.55206 3.58213 1.98024 4.30489 1.98024H13.3582C13.7048 1.98024 14.0367 2.11459 14.2815 2.35418C14.5254 2.59295 14.6625 2.917 14.6625 3.25432V9.46055H12.2572C11.5937 9.46055 10.995 9.85249 10.7406 10.4553ZM17.4553 18.0202H12.2603C11.9724 18.002 11.7508 17.7684 11.7508 17.49C11.7508 17.2117 11.9724 16.9781 12.2603 16.9599H17.4553C17.7433 16.9781 17.9649 17.2117 17.9649 17.49C17.9649 17.7683 17.7433 18.002 17.4553 18.0202Z" fill="#6754E2" stroke="#6754E2" stroke-width="0.2"/>
</svg>
