<svg width="20" height="20" viewBox="0 0 20 20" fill="none" xmlns="http://www.w3.org/2000/svg">
<path d="M0 15.0039V13.6914C0 13.0803 0.309167 12.5906 0.9275 12.2222C1.54527 11.8545 2.34722 11.6706 3.33333 11.6706C3.51389 11.6706 3.6875 11.6739 3.85417 11.6806C4.02083 11.6878 4.18056 11.7053 4.33333 11.7331C4.13889 12.0108 3.99306 12.3095 3.89583 12.6289C3.79861 12.9483 3.75 13.2887 3.75 13.6497V15.0039H0ZM5 15.0039V13.6497C5 12.747 5.46194 12.0178 6.38583 11.4622C7.30917 10.9067 8.51392 10.6289 10 10.6289C11.5 10.6289 12.7083 10.9067 13.625 11.4622C14.5417 12.0178 15 12.747 15 13.6497V15.0039H5ZM16.25 15.0039V13.6497C16.25 13.2887 16.2048 12.9483 16.1142 12.6289C16.0242 12.3095 15.8889 12.0108 15.7083 11.7331C15.8611 11.7053 16.0175 11.6878 16.1775 11.6806C16.3369 11.6739 16.5 11.6706 16.6667 11.6706C17.6667 11.6706 18.4722 11.8545 19.0833 12.2222C19.6944 12.5906 20 13.0803 20 13.6914V15.0039H16.25ZM10 12.2956C9.20833 12.2956 8.5 12.3997 7.875 12.6081C7.25 12.8164 6.88194 13.0595 6.77083 13.3372H13.25C13.125 13.0595 12.7533 12.8164 12.135 12.6081C11.5173 12.3997 10.8056 12.2956 10 12.2956ZM3.33333 10.8372C2.875 10.8372 2.48277 10.6739 2.15667 10.3472C1.83 10.0212 1.66667 9.62891 1.66667 9.17057C1.66667 8.69832 1.83 8.30251 2.15667 7.98307C2.48277 7.66363 2.875 7.50391 3.33333 7.50391C3.80556 7.50391 4.20139 7.66363 4.52083 7.98307C4.84027 8.30251 5 8.69832 5 9.17057C5 9.62891 4.84027 10.0212 4.52083 10.3472C4.20139 10.6739 3.80556 10.8372 3.33333 10.8372ZM16.6667 10.8372C16.2083 10.8372 15.8158 10.6739 15.4892 10.3472C15.1631 10.0212 15 9.62891 15 9.17057C15 8.69832 15.1631 8.30251 15.4892 7.98307C15.8158 7.66363 16.2083 7.50391 16.6667 7.50391C17.1389 7.50391 17.5347 7.66363 17.8542 7.98307C18.1736 8.30251 18.3333 8.69832 18.3333 9.17057C18.3333 9.62891 18.1736 10.0212 17.8542 10.3472C17.5347 10.6739 17.1389 10.8372 16.6667 10.8372ZM10 10.0039C9.30558 10.0039 8.71525 9.76082 8.22917 9.27474C7.74306 8.78866 7.5 8.19835 7.5 7.50391C7.5 6.79557 7.74306 6.20168 8.22917 5.72224C8.71525 5.24335 9.30558 5.00391 10 5.00391C10.7083 5.00391 11.3019 5.24335 11.7808 5.72224C12.2603 6.20168 12.5 6.79557 12.5 7.50391C12.5 8.19835 12.2603 8.78866 11.7808 9.27474C11.3019 9.76082 10.7083 10.0039 10 10.0039ZM10 6.67057C9.76392 6.67057 9.56608 6.7503 9.40667 6.90974C9.24667 7.06974 9.16667 7.2678 9.16667 7.50391C9.16667 7.74001 9.24667 7.9378 9.40667 8.09724C9.56608 8.25724 9.76392 8.33724 10 8.33724C10.2361 8.33724 10.4342 8.25724 10.5942 8.09724C10.7536 7.9378 10.8333 7.74001 10.8333 7.50391C10.8333 7.2678 10.7536 7.06974 10.5942 6.90974C10.4342 6.7503 10.2361 6.67057 10 6.67057Z" fill="#624DE3"/>
</svg>
