<svg width="20" height="20" viewBox="0 0 20 20" fill="none" xmlns="http://www.w3.org/2000/svg">
<path d="M2.94319 17.2582C2.71572 17.2526 2.49415 17.3294 2.32092 17.4741C2.1477 17.6187 2.03501 17.8209 2.00445 18.0419C1.992 18.1633 2.00573 18.286 2.04477 18.4019C2.0838 18.5178 2.14727 18.6244 2.23104 18.7147C2.31481 18.805 2.41701 18.8771 2.53103 18.9262C2.64504 18.9753 2.76832 19.0003 2.89285 18.9997H17.0568C17.2843 19.0053 17.5059 18.9284 17.6791 18.7838C17.8523 18.6392 17.965 18.437 17.9955 18.216C18.008 18.0946 17.9943 17.9719 17.9552 17.856C17.9162 17.7401 17.8527 17.6335 17.769 17.5432C17.6852 17.4529 17.583 17.3808 17.469 17.3317C17.355 17.2826 17.2317 17.2576 17.1072 17.2582H10.8884V14.3556H13.2574C13.873 14.3552 14.4796 14.2102 15.0262 13.9326C15.5728 13.655 16.0435 13.253 16.3988 12.7603C16.7541 12.2676 16.9837 11.6985 17.0683 11.1008C17.1529 10.5032 17.0901 9.89435 16.8851 9.32541L16.6245 8.60847C15.811 6.36111 14.6089 4.26777 13.0709 2.42017C12.7007 1.97631 12.2344 1.61864 11.7059 1.37302C11.1773 1.12741 10.5997 1 10.0148 1C9.42988 1 8.85226 1.12741 8.32373 1.37302C7.7952 1.61864 7.32896 1.97631 6.95873 2.42017C5.42082 4.26787 4.21875 6.36118 3.40516 8.60847L3.14456 9.32541C2.94033 9.89204 2.87712 10.4983 2.9602 11.0937C3.04329 11.6891 3.27026 12.2564 3.62222 12.7485C3.97419 13.2406 4.44097 13.6431 4.98371 13.9227C5.52646 14.2022 6.12947 14.3506 6.74256 14.3556H9.11161V17.2582H2.94319ZM6.74256 12.614C6.41275 12.6118 6.08824 12.5325 5.79598 12.3827C5.50373 12.2329 5.25217 12.0168 5.0622 11.7526C4.87223 11.4883 4.74933 11.1834 4.70371 10.8633C4.6581 10.5431 4.69109 10.2169 4.79993 9.91173L5.06053 9.1948C5.80651 7.13604 6.9084 5.21847 8.31797 3.52606C8.52156 3.28196 8.77794 3.08527 9.06858 2.9502C9.35923 2.81513 9.67686 2.74506 9.99852 2.74506C10.3202 2.74506 10.6378 2.81513 10.9285 2.9502C11.2191 3.08527 11.4755 3.28196 11.6791 3.52606C13.0885 5.21854 14.1904 7.13608 14.9365 9.1948L15.1971 9.91173C15.3059 10.2167 15.3389 10.5426 15.2934 10.8626C15.248 11.1825 15.1253 11.4872 14.9357 11.7514C14.7461 12.0156 14.4949 12.2317 14.203 12.3817C13.9112 12.5317 13.587 12.6114 13.2574 12.614H10.8884V9.4212C10.8884 9.19025 10.7948 8.96877 10.6282 8.80547C10.4616 8.64217 10.2356 8.55042 10 8.55042C9.76438 8.55042 9.53842 8.64217 9.37181 8.80547C9.2052 8.96877 9.11161 9.19025 9.11161 9.4212V12.614H6.74256Z" fill="#6754E2"/>
</svg>
