<svg width="22" height="20" viewBox="0 0 22 20" fill="none" xmlns="http://www.w3.org/2000/svg">
<path d="M16.916 2.70068C16.533 2.70218 16.1554 2.7904 15.8114 2.95874C15.4674 3.12708 15.166 3.37116 14.9298 3.67265C14.6183 2.88442 14.0769 2.20808 13.3761 1.73147C12.6752 1.25486 11.8473 1 10.9997 1C10.1521 1 9.32417 1.25486 8.62332 1.73147C7.92246 2.20808 7.38112 2.88442 7.06959 3.67265C6.83343 3.37116 6.53203 3.12708 6.18804 2.95874C5.84404 2.7904 5.46638 2.70218 5.08341 2.70068C4.41094 2.70068 3.76601 2.96782 3.2905 3.44333C2.81499 3.91884 2.54785 4.56377 2.54785 5.23624C2.54785 5.90871 2.81499 6.55364 3.2905 7.02915C3.76601 7.50466 4.41094 7.77179 5.08341 7.77179C5.46638 7.7703 5.84404 7.68207 6.18804 7.51373C6.53203 7.3454 6.83343 7.10132 7.06959 6.79983C7.38112 7.58806 7.92246 8.2644 8.62332 8.74101C9.32417 9.21762 10.1521 9.47248 10.9997 9.47248C11.8473 9.47248 12.6752 9.21762 13.3761 8.74101C14.0769 8.2644 14.6183 7.58806 14.9298 6.79983C15.166 7.10132 15.4674 7.3454 15.8114 7.51373C16.1554 7.68207 16.533 7.7703 16.916 7.77179C17.5885 7.77179 18.2334 7.50466 18.7089 7.02915C19.1844 6.55364 19.4516 5.90871 19.4516 5.23624C19.4516 4.56377 19.1844 3.91884 18.7089 3.44333C18.2334 2.96782 17.5885 2.70068 16.916 2.70068ZM5.08341 6.08142C4.91624 6.08142 4.75284 6.03185 4.61385 5.93898C4.47486 5.84611 4.36653 5.71411 4.30256 5.55968C4.23859 5.40524 4.22185 5.2353 4.25446 5.07135C4.28707 4.9074 4.36757 4.7568 4.48577 4.6386C4.60397 4.5204 4.75457 4.4399 4.91852 4.40729C5.08247 4.37468 5.25241 4.39142 5.40685 4.45539C5.56128 4.51936 5.69328 4.62769 5.78615 4.76668C5.87902 4.90567 5.92859 5.06908 5.92859 5.23624C5.92859 5.46039 5.83955 5.67537 5.68104 5.83387C5.52254 5.99238 5.30756 6.08142 5.08341 6.08142ZM10.9997 7.77179C10.4982 7.77179 10.008 7.62309 9.59102 7.34447C9.17405 7.06586 8.84906 6.66987 8.65715 6.20655C8.46524 5.74324 8.41503 5.23343 8.51287 4.74158C8.6107 4.24973 8.85219 3.79793 9.20679 3.44333C9.5614 3.08873 10.0132 2.84724 10.505 2.7494C10.9969 2.65157 11.5067 2.70178 11.97 2.89369C12.4333 3.0856 12.8293 3.41059 13.1079 3.82756C13.3865 4.24453 13.5353 4.73475 13.5353 5.23624C13.5353 5.90871 13.2681 6.55364 12.7926 7.02915C12.3171 7.50466 11.6722 7.77179 10.9997 7.77179ZM16.916 6.08142C16.7488 6.08142 16.5854 6.03185 16.4464 5.93898C16.3074 5.84611 16.1991 5.71411 16.1351 5.55968C16.0712 5.40524 16.0544 5.2353 16.0871 5.07135C16.1197 4.9074 16.2002 4.7568 16.3184 4.6386C16.4366 4.5204 16.5872 4.4399 16.7511 4.40729C16.9151 4.37468 17.085 4.39142 17.2394 4.45539C17.3939 4.51936 17.5259 4.62769 17.6187 4.76668C17.7116 4.90567 17.7612 5.06908 17.7612 5.23624C17.7612 5.46039 17.6721 5.67537 17.5136 5.83387C17.3551 5.99238 17.1402 6.08142 16.916 6.08142Z" fill="#6754E2"/>
<path d="M21.1419 11.9979V12.8431C21.1419 13.0673 21.0528 13.2822 20.8943 13.4407C20.7358 13.5993 20.5208 13.6883 20.2967 13.6883C20.0725 13.6883 19.8575 13.5993 19.699 13.4407C19.5405 13.2822 19.4515 13.0673 19.4515 12.8431V11.9979C19.4515 11.5496 19.2734 11.1197 18.9564 10.8027C18.6394 10.4856 18.2094 10.3076 17.7611 10.3076H16.0708C15.7498 10.3076 15.4355 10.3991 15.1646 10.5712C14.8937 10.7433 14.6774 10.989 14.541 11.2795C15.4587 11.5044 16.2746 12.0304 16.8584 12.7735C17.4421 13.5165 17.7599 14.4338 17.7611 15.3787V17.9142C17.7611 18.1384 17.6721 18.3534 17.5136 18.5119C17.3551 18.6704 17.1401 18.7594 16.9159 18.7594C16.6918 18.7594 16.4768 18.6704 16.3183 18.5119C16.1598 18.3534 16.0708 18.1384 16.0708 17.9142V15.3787C16.0708 14.7062 15.8036 14.0613 15.3281 13.5858C14.8526 13.1102 14.2077 12.8431 13.5352 12.8431H8.46409C7.79162 12.8431 7.14669 13.1102 6.67118 13.5858C6.19567 14.0613 5.92853 14.7062 5.92853 15.3787V17.069H14.3804C14.6045 17.069 14.8195 17.1581 14.978 17.3166C15.1365 17.4751 15.2256 17.6901 15.2256 17.9142C15.2256 18.1384 15.1365 18.3534 14.978 18.5119C14.8195 18.6704 14.6045 18.7594 14.3804 18.7594H5.08335C4.85919 18.7594 4.64421 18.6704 4.48571 18.5119C4.32721 18.3534 4.23816 18.1384 4.23816 17.9142V15.3787C4.23936 14.4338 4.5572 13.5165 5.14092 12.7735C5.72464 12.0304 6.54056 11.5044 7.45832 11.2795C7.32191 10.989 7.10561 10.7433 6.8347 10.5712C6.5638 10.3991 6.24949 10.3076 5.92853 10.3076H4.23816C3.78985 10.3076 3.3599 10.4856 3.04289 10.8027C2.72588 11.1197 2.54779 11.5496 2.54779 11.9979V12.8431C2.54779 13.0673 2.45875 13.2822 2.30024 13.4407C2.14174 13.5993 1.92676 13.6883 1.70261 13.6883C1.47845 13.6883 1.26347 13.5993 1.10497 13.4407C0.946468 13.2822 0.857422 13.0673 0.857422 12.8431V11.9979C0.857422 11.1013 1.21361 10.2414 1.84762 9.60738C2.48163 8.97337 3.34153 8.61719 4.23816 8.61719H5.92853C6.6776 8.61775 7.40526 8.86706 7.99728 9.32599C8.5893 9.78492 9.01213 10.4275 9.1994 11.1527H12.7999C12.9872 10.4275 13.41 9.78492 14.002 9.32599C14.594 8.86706 15.3217 8.61775 16.0708 8.61719H17.7611C18.6577 8.61719 19.5177 8.97337 20.1517 9.60738C20.7857 10.2414 21.1419 11.1013 21.1419 11.9979Z" fill="#6754E2"/>
</svg>
