<svg width="20" height="20" viewBox="0 0 20 20" fill="none" xmlns="http://www.w3.org/2000/svg">
<g clip-path="url(#clip0_6241_97669)">
<path d="M1.04005 10.1136L1.04003 10.1136L1.03854 10.1151C0.957938 10.1963 0.919425 10.326 0.905896 10.4671C0.891969 10.6123 0.902761 10.7881 0.937808 10.9811C1.00797 11.3674 1.17759 11.8351 1.4603 12.2872C2.02695 13.1933 3.05376 14.0444 4.65256 14.0444C6.34256 14.0444 7.44283 13.0484 7.98878 12.0568C8.2611 11.5622 8.39953 11.062 8.40178 10.6783C8.4029 10.4874 8.37031 10.3155 8.29395 10.1879C8.21435 10.0548 8.0881 9.97283 7.92308 9.97283H7.70118L5.3208 3.40697H9.5362V16.0057H4.78884C4.51936 16.0057 4.31896 16.2197 4.31896 16.4628V18.6429C4.31896 18.9115 4.54579 19.1 4.78884 19.1H15.2233C15.4928 19.1 15.6932 18.886 15.6932 18.6429V16.4816C15.6932 16.213 15.4664 16.0245 15.2233 16.0245H10.476V3.40697H14.6918L12.3306 9.97197C12.3132 9.97158 12.2962 9.9711 12.2793 9.97063C12.2627 9.97016 12.2463 9.9697 12.2297 9.96933C12.1765 9.96814 12.1231 9.96797 12.0714 9.97337C11.9628 9.9847 11.863 10.0206 11.7666 10.1136C11.6829 10.1944 11.6417 10.3241 11.6261 10.4657C11.6101 10.6112 11.6193 10.7872 11.6529 10.9804C11.7203 11.367 11.8882 11.8348 12.1697 12.287C12.7339 13.1933 13.7608 14.0444 15.3596 14.0444C17.4364 14.0444 19.1 12.4239 19.1 10.4299C19.1 10.1869 18.8996 9.97283 18.6301 9.97283H18.4082L16.0278 3.40697H16.2746C16.4226 3.40697 16.5414 3.35174 16.6223 3.26263C16.7018 3.17519 16.7396 3.06106 16.7396 2.94988C16.7396 2.8387 16.7018 2.72457 16.6223 2.63714C16.5414 2.54802 16.4226 2.4928 16.2746 2.4928H10.476V1.35239C10.476 1.20605 10.4172 1.08985 10.325 1.01178C10.235 0.935567 10.1186 0.9 10.0061 0.9C9.89358 0.9 9.77717 0.935567 9.68717 1.01178C9.59498 1.08985 9.5362 1.20605 9.5362 1.35239V2.4928H3.75707C3.60902 2.4928 3.49026 2.54802 3.40929 2.63714C3.32985 2.72457 3.29205 2.8387 3.29205 2.94988C3.29205 3.06106 3.32985 3.17519 3.40929 3.26263C3.49026 3.35174 3.60902 3.40697 3.75707 3.40697H3.98471L1.62322 9.97283H1.38205C1.25849 9.97283 1.13634 10.0207 1.04005 10.1136ZM4.65553 13.1044C3.39944 13.0977 2.15928 12.3495 1.90731 10.887H1.96607H1.97849H1.9909H2.00329H2.01566H2.02801H2.04034H2.05266H2.06496H2.07724H2.0895H2.10175H2.11397H2.12618H2.13838H2.15055H2.16271H2.17485H2.18698H2.19908H2.21118H2.22325H2.23531H2.24735H2.25937H2.27138H2.28337H2.29534H2.3073H2.31924H2.33117H2.34308H2.35497H2.36685H2.37871H2.39055H2.40238H2.4142H2.426H2.43778H2.44955H2.4613H2.47303H2.48476H2.49646H2.50815H2.51983H2.53149H2.54314H2.55477H2.56638H2.57798H2.58957H2.60114H2.6127H2.62425H2.63577H2.64729H2.65879H2.67028H2.68175H2.69321H2.70465H2.71608H2.7275H2.7389H2.75029H2.76167H2.77303H2.78438H2.79572H2.80704H2.81835H2.82965H2.84093H2.8522H2.86346H2.8747H2.88593H2.89715H2.90836H2.91955H2.93073H2.9419H2.95306H2.9642H2.97534H2.98646H2.99756H3.00866H3.01974H3.03082H3.04188H3.05293H3.06396H3.07499H3.086H3.09701H3.108H3.11898H3.12995H3.1409H3.15185H3.16278H3.17371H3.18462H3.19553H3.20642H3.2173H3.22817H3.23903H3.24988H3.26072H3.27155H3.28237H3.29318H3.30398H3.31477H3.32555H3.33632H3.34708H3.35783H3.36857H3.3793H3.39002H3.40073H3.41143H3.42213H3.43281H3.44349H3.45415H3.46481H3.47546H3.4861H3.49673H3.50735H3.51796H3.52857H3.53916H3.54975H3.56033H3.5709H3.58146H3.59202H3.60256H3.6131H3.62363H3.63416H3.64467H3.65518H3.66568H3.67617H3.68665H3.69713H3.7076H3.71806H3.72852H3.73897H3.74941H3.75984H3.77027H3.78069H3.7911H3.80151H3.81191H3.8223H3.83269H3.84307H3.85344H3.86381H3.87417H3.88453H3.89488H3.90522H3.91556H3.92589H3.93622H3.94654H3.95685H3.96716H3.97747H3.98777H3.99806H4.00835H4.01863H4.02891H4.03918H4.04945H4.05971H4.06997H4.08022H4.09047H4.10071H4.11095H4.12118H4.13141H4.14164H4.15186H4.16208H4.17229H4.1825H4.1927H4.2029H4.2131H4.22329H4.23348H4.24367H4.25385H4.26403H4.27421H4.28438H4.29455H4.30471H4.31487H4.32503H4.33519H4.34534H4.35549H4.36564H4.37579H4.38593H4.39607H4.40621H4.41634H4.42647H4.4366H4.44673H4.45686H4.46698H4.4771H4.48722H4.49734H4.50746H4.51757H4.52769H4.5378H4.54791H4.55802H4.56812H4.57823H4.58833H4.59844H4.60854H4.61864H4.62874H4.63884H4.64894H4.65904H4.66913H4.67923H4.68933H4.69942H4.70952H4.71961H4.72971H4.7398H4.7499H4.75999H4.77009H4.78018H4.79028H4.80038H4.81047H4.82057H4.83066H4.84076H4.85086H4.86096H4.87106H4.88116H4.89126H4.90136H4.91147H4.92157H4.93168H4.94178H4.95189H4.962H4.97211H4.98223H4.99234H5.00246H5.01258H5.0227H5.03282H5.04294H5.05307H5.0632H5.07333H5.08346H5.09359H5.10373H5.11387H5.12401H5.13416H5.14431H5.15446H5.16461H5.17477H5.18493H5.19509H5.20525H5.21542H5.22559H5.23577H5.24595H5.25613H5.26632H5.27651H5.2867H5.2969H5.3071H5.3173H5.32751H5.33772H5.34794H5.35816H5.36839H5.37862H5.38885H5.39909H5.40933H5.41958H5.42983H5.44009H5.45035H5.46062H5.47089H5.48117H5.49145H5.50174H5.51203H5.52233H5.53264H5.54294H5.55326H5.56358H5.57391H5.58424H5.59458H5.60492H5.61527H5.62562H5.63599H5.64635H5.65673H5.66711H5.6775H5.68789H5.69829H5.7087H5.71911H5.72953H5.73996H5.75039H5.76083H5.77128H5.78174H5.7922H5.80267H5.81315H5.82363H5.83412H5.84462H5.85513H5.86564H5.87617H5.8867H5.89724H5.90778H5.91834H5.9289H5.93947H5.95005H5.96064H5.97123H5.98184H5.99245H6.00307H6.0137H6.02434H6.03499H6.04565H6.05631H6.06699H6.07767H6.08836H6.09907H6.10978H6.1205H6.13123H6.14197H6.15272H6.16348H6.17425H6.18503H6.19582H6.20662H6.21743H6.22825H6.23908H6.24992H6.26077H6.27163H6.2825H6.29338H6.30427H6.31518H6.32609H6.33701H6.34795H6.3589H6.36985H6.38082H6.3918H6.40279H6.4138H6.42481H6.43584H6.44687H6.45792H6.46898H6.48005H6.49114H6.50223H6.51334H6.52446H6.53559H6.54674H6.5579H6.56907H6.58025H6.59144H6.60265H6.61387H6.6251H6.63634H6.6476H6.65887H6.67015H6.68145H6.69276H6.70408H6.71542H6.72677H6.73813H6.74951H6.7609H6.7723H6.78372H6.79515H6.80659H6.81805H6.82952H6.84101H6.85251H6.86402H6.87555H6.8871H6.89866H6.91023H6.92182H6.93342H6.94503H6.95666H6.96831H6.97997H6.99165H7.00334H7.01504H7.02677H7.0385H7.05025H7.06202H7.0738H7.0856H7.09742H7.10925H7.12109H7.13295H7.14483H7.15672H7.16863H7.18056H7.1925H7.20446H7.21643H7.22842H7.24043H7.25245H7.26449H7.27655H7.28862H7.30071H7.31282H7.32495H7.33709H7.34925H7.36142H7.37362H7.38583H7.39805H7.4103H7.41692C7.15653 12.3763 5.91135 13.1111 4.65553 13.1044ZM6.69043 9.97283H2.61469L4.65256 4.33415L6.69043 9.97283ZM5.25871 18.167V16.9199H14.7535V18.167H5.25871ZM13.3217 9.97283L15.3596 4.33415L17.3975 9.97283H13.3217ZM18.1132 10.887H18.1247C17.8733 12.3761 16.6284 13.1111 15.3699 13.1044C14.1112 13.0977 12.8665 12.3493 12.6144 10.887H12.6173H12.6292H12.6411H12.653H12.6649H12.6767H12.6886H12.7004H12.7123H12.7241H12.736H12.7478H12.7596H12.7714H12.7832H12.795H12.8068H12.8186H12.8304H12.8422H12.8539H12.8657H12.8774H12.8892H12.9009H12.9127H12.9244H12.9361H12.9478H12.9595H12.9712H12.9829H12.9946H13.0063H13.0179H13.0296H13.0413H13.0529H13.0646H13.0762H13.0878H13.0995H13.1111H13.1227H13.1343H13.1459H13.1575H13.1691H13.1807H13.1923H13.2039H13.2154H13.227H13.2385H13.2501H13.2616H13.2732H13.2847H13.2962H13.3078H13.3193H13.3308H13.3423H13.3538H13.3653H13.3768H13.3883H13.3997H13.4112H13.4227H13.4341H13.4456H13.457H13.4685H13.4799H13.4913H13.5028H13.5142H13.5256H13.537H13.5484H13.5598H13.5712H13.5826H13.594H13.6054H13.6168H13.6281H13.6395H13.6509H13.6622H13.6736H13.6849H13.6963H13.7076H13.7189H13.7303H13.7416H13.7529H13.7642H13.7755H13.7868H13.7981H13.8094H13.8207H13.832H13.8433H13.8546H13.8658H13.8771H13.8884H13.8996H13.9109H13.9221H13.9334H13.9446H13.9559H13.9671H13.9783H13.9896H14.0008H14.012H14.0232H14.0344H14.0456H14.0568H14.068H14.0792H14.0904H14.1016H14.1128H14.124H14.1351H14.1463H14.1575H14.1686H14.1798H14.191H14.2021H14.2133H14.2244H14.2356H14.2467H14.2578H14.269H14.2801H14.2912H14.3023H14.3135H14.3246H14.3357H14.3468H14.3579H14.369H14.3801H14.3912H14.4023H14.4134H14.4245H14.4355H14.4466H14.4577H14.4688H14.4799H14.4909H14.502H14.513H14.5241H14.5352H14.5462H14.5573H14.5683H14.5794H14.5904H14.6015H14.6125H14.6235H14.6346H14.6456H14.6566H14.6676H14.6787H14.6897H14.7007H14.7117H14.7227H14.7338H14.7448H14.7558H14.7668H14.7778H14.7888H14.7998H14.8108H14.8218H14.8328H14.8437H14.8547H14.8657H14.8767H14.8877H14.8987H14.9096H14.9206H14.9316H14.9426H14.9535H14.9645H14.9755H14.9864H14.9974H15.0084H15.0193H15.0303H15.0413H15.0522H15.0632H15.0741H15.0851H15.096H15.107H15.1179H15.1289H15.1398H15.1507H15.1617H15.1726H15.1836H15.1945H15.2055H15.2164H15.2273H15.2383H15.2492H15.2601H15.2711H15.282H15.2929H15.3038H15.3148H15.3257H15.3366H15.3475H15.3585H15.3694H15.3803H15.3912H15.4022H15.4131H15.424H15.4349H15.4458H15.4568H15.4677H15.4786H15.4895H15.5004H15.5113H15.5223H15.5332H15.5441H15.555H15.5659H15.5768H15.5878H15.5987H15.6096H15.6205H15.6314H15.6423H15.6532H15.6641H15.6751H15.686H15.6969H15.7078H15.7187H15.7296H15.7405H15.7515H15.7624H15.7733H15.7842H15.7951H15.806H15.817H15.8279H15.8388H15.8497H15.8606H15.8715H15.8825H15.8934H15.9043H15.9152H15.9261H15.9371H15.948H15.9589H15.9698H15.9808H15.9917H16.0026H16.0135H16.0245H16.0354H16.0463H16.0573H16.0682H16.0791H16.09H16.101H16.1119H16.1229H16.1338H16.1447H16.1557H16.1666H16.1776H16.1885H16.1995H16.2104H16.2213H16.2323H16.2432H16.2542H16.2652H16.2761H16.2871H16.298H16.309H16.3199H16.3309H16.3419H16.3528H16.3638H16.3748H16.3858H16.3967H16.4077H16.4187H16.4297H16.4406H16.4516H16.4626H16.4736H16.4846H16.4956H16.5066H16.5176H16.5286H16.5396H16.5506H16.5616H16.5726H16.5836H16.5946H16.6056H16.6166H16.6276H16.6387H16.6497H16.6607H16.6717H16.6828H16.6938H16.7048H16.7159H16.7269H16.7379H16.749H16.76H16.7711H16.7821H16.7932H16.8043H16.8153H16.8264H16.8374H16.8485H16.8596H16.8707H16.8817H16.8928H16.9039H16.915H16.9261H16.9372H16.9483H16.9594H16.9705H16.9816H16.9927H17.0038H17.0149H17.0261H17.0372H17.0483H17.0594H17.0706H17.0817H17.0928H17.104H17.1151H17.1263H17.1374H17.1486H17.1598H17.1709H17.1821H17.1933H17.2044H17.2156H17.2268H17.238H17.2492H17.2604H17.2716H17.2828H17.294H17.3052H17.3164H17.3277H17.3389H17.3501H17.3613H17.3726H17.3838H17.3951H17.4063H17.4176H17.4288H17.4401H17.4513H17.4626H17.4739H17.4852H17.4965H17.5077H17.519H17.5303H17.5416H17.5529H17.5643H17.5756H17.5869H17.5982H17.6095H17.6209H17.6322H17.6436H17.6549H17.6663H17.6776H17.689H17.7004H17.7117H17.7231H17.7345H17.7459H17.7573H17.7687H17.7801H17.7915H17.8029H17.8143H17.8258H17.8372H17.8486H17.8601H17.8715H17.883H17.8944H17.9059H17.9173H17.9288H17.9403H17.9518H17.9633H17.9748H17.9863H17.9978H18.0093H18.0208H18.0323H18.0439H18.0554H18.0669H18.0785H18.09H18.1016H18.1132Z" fill="#6754E2" stroke="#6754E2" stroke-width="0.2"/>
</g>
<defs>
<clipPath id="clip0_6241_97669">
<rect width="20" height="20" fill="white" transform="translate(0 0.00390625)"/>
</clipPath>
</defs>
</svg>
