<svg width="20" height="20" viewBox="0 0 20 20" fill="none" xmlns="http://www.w3.org/2000/svg">
<path d="M17.7596 4.41517L17.7598 4.4153C17.8631 4.47404 17.949 4.55908 18.0087 4.66178C18.0685 4.76448 18.1 4.88116 18.1 5V15.8571V15.8573C18.0993 16.4897 17.8477 17.0961 17.4005 17.5433C16.9532 17.9906 16.3469 18.2421 15.7144 18.2429H15.7143H4.28571H4.2856C3.65312 18.2421 3.04675 17.9906 2.59952 17.5433C2.15229 17.0961 1.90072 16.4897 1.9 15.8573L1.9 15.8571L1.9 1.57149C1.9 1.57147 1.9 1.57145 1.9 1.57143C1.89996 1.48325 1.91729 1.39593 1.95101 1.31446C1.98474 1.23297 2.0342 1.15892 2.09656 1.09656C2.15892 1.0342 2.23297 0.984737 2.31446 0.95101C2.39593 0.91729 2.48325 0.899957 2.57143 0.9L17.7596 4.41517ZM17.7596 4.41517C17.6561 4.35667 17.5389 4.32669 17.42 4.3283M17.7596 4.41517L17.42 4.3283M17.42 4.3283C17.3011 4.32991 17.1848 4.36306 17.083 4.42434M17.42 4.3283L17.083 4.42434M17.083 4.42434C17.083 4.42435 17.0829 4.42435 17.0829 4.42436L17.1345 4.51005L17.083 4.4243L17.083 4.42434ZM12.3857 5.00017L12.3857 7.24302L12.3857 5.00017ZM12.3857 5.00017L12.3857 5M12.3857 5.00017C12.3857 5.00011 12.3857 5.00006 12.3857 5M12.3857 5C12.3859 4.88114 12.3545 4.76436 12.2947 4.66162C12.2349 4.55883 12.1488 4.47378 12.0453 4.4152C11.9418 4.35661 11.8246 4.32659 11.7057 4.3282C11.5868 4.32982 11.4705 4.36301 11.3686 4.42437C11.3686 4.42438 11.3686 4.42439 11.3686 4.42439L6.67143 7.24302M12.3857 5L6.67143 7.24302M6.67143 7.24302V1.57149V1.57143H6.57143M6.67143 7.24302L6 1C6.07505 0.999957 6.14938 1.01471 6.21873 1.04341C6.28808 1.07211 6.35109 1.1142 6.40416 1.16727C6.45723 1.22034 6.49932 1.28335 6.52802 1.3527C6.55672 1.42205 6.57147 1.49638 6.57143 1.57143M6.57143 1.57143V7.30302V1.57143ZM16.4514 16.5942C16.6469 16.3987 16.7569 16.1336 16.7571 15.857V6.18555L12.06 9.00418C11.9581 9.06555 11.8418 9.09875 11.7229 9.10037C11.6039 9.10198 11.4867 9.07196 11.3832 9.01337C11.2797 8.95479 11.1937 8.86975 11.1339 8.76696C11.0741 8.66422 11.0427 8.54744 11.0429 8.42857C11.0429 8.42851 11.0429 8.42846 11.0429 8.4284M16.4514 16.5942L11.1429 8.42857L11.0429 8.4284M16.4514 16.5942C16.2558 16.7898 15.9907 16.8997 15.7142 16.9H4.28581M16.4514 16.5942L4.28581 16.9M11.0429 8.4284L11.0429 6.18555M11.0429 8.4284L11.0429 6.18555M11.0429 6.18555L6.34569 9.00418C6.34566 9.00419 6.34564 9.00421 6.34561 9.00422C6.24377 9.06557 6.12745 9.09875 6.00857 9.10037C5.88965 9.10198 5.77245 9.07196 5.66895 9.01337C5.56546 8.95479 5.4794 8.86975 5.41959 8.76696C5.35978 8.66417 5.32837 8.54732 5.32857 8.4284M11.0429 6.18555L5.42857 8.42857M5.32857 8.4284L5.42857 8.42857M5.32857 8.4284V8.42857H5.42857M5.32857 8.4284V2.24286M5.42857 8.42857V2.24286H5.32857M5.32857 2.24286V2.14286L3.47793 16.6649C3.26366 16.4507 3.14316 16.1602 3.14286 15.8571H3.24286M5.32857 2.24286H3.24286L3.24286 15.857L3.24286 15.8571M3.24286 15.8571C3.24316 16.1336 3.35313 16.3987 3.54864 16.5942C3.74417 16.7898 4.00929 16.8997 4.28581 16.9M3.24286 15.8571L4.28581 16.9M4.28571 11.1857H4.18571V11.2857V13.5714V13.6714H4.28571H6.57143H6.67143V13.5714V11.2857V11.1857H6.57143H4.28571ZM8.85714 11.1857H8.75714V11.2857V13.5714V13.6714H8.85714H11.1429H11.2429V13.5714V11.2857V11.1857H11.1429H8.85714ZM15.7143 13.6714H15.8143V13.5714V11.2857V11.1857H15.7143H13.4286H13.3286V11.2857V13.5714V13.6714H13.4286H15.7143ZM5.99994 0.9L2.57146 0.9H6C5.99998 0.9 5.99996 0.9 5.99994 0.9Z" fill="#6754E2" stroke="#6754E2" stroke-width="0.2"/>
</svg>
