<svg width="20" height="20" viewBox="0 0 20 20" fill="none" xmlns="http://www.w3.org/2000/svg">
<path d="M3.36765 18.7196V17.5799H16.1324V18.7196H3.36765ZM3.36765 3.14361V2.00391H16.1324V3.14361H3.36765ZM9.75 11.0456C10.3832 11.0456 10.915 10.8303 11.3456 10.3997C11.7761 9.96918 11.9914 9.43732 11.9914 8.80415C11.9914 8.17098 11.7761 7.63912 11.3456 7.20856C10.915 6.77801 10.3832 6.56273 9.75 6.56273C9.11683 6.56273 8.58497 6.77801 8.15441 7.20856C7.72386 7.63912 7.50858 8.17098 7.50858 8.80415C7.50858 9.43732 7.72386 9.96918 8.15441 10.3997C8.58497 10.8303 9.11683 11.0456 9.75 11.0456ZM3.13971 16.4402C2.83578 16.4402 2.56985 16.3262 2.34191 16.0983C2.11397 15.8703 2 15.6044 2 15.3005V5.42302C2 5.09378 2.11397 4.82151 2.34191 4.60623C2.56985 4.39096 2.83578 4.28332 3.13971 4.28332H16.3603C16.6642 4.28332 16.9301 4.39729 17.1581 4.62523C17.386 4.85317 17.5 5.1191 17.5 5.42302V15.3005C17.5 15.6044 17.386 15.8703 17.1581 16.0983C16.9301 16.3262 16.6642 16.4402 16.3603 16.4402H3.13971ZM4.81127 15.3005C5.45711 14.5027 6.22324 13.9043 7.10968 13.5054C7.99612 13.1065 8.87306 12.9071 9.7405 12.9071C10.6079 12.9071 11.4944 13.1065 12.3998 13.5054C13.3052 13.9043 14.0682 14.5027 14.6887 15.3005H16.3603V5.42302H3.13971V15.3005H4.81127ZM6.59681 15.3005H12.9412C12.5486 14.9206 12.0896 14.6167 11.564 14.3887C11.0385 14.1608 10.4338 14.0468 9.75 14.0468C9.06618 14.0468 8.46783 14.1608 7.95496 14.3887C7.4421 14.6167 6.98938 14.9206 6.59681 15.3005ZM9.753 9.90587C9.44708 9.90587 9.18964 9.79823 8.9807 9.58295C8.77175 9.36767 8.66728 9.10807 8.66728 8.80415C8.66728 8.50023 8.77075 8.24063 8.9777 8.02535C9.18464 7.81007 9.44108 7.70244 9.747 7.70244C10.0529 7.70244 10.3104 7.81007 10.5193 8.02535C10.7282 8.24063 10.8327 8.50023 10.8327 8.80415C10.8327 9.10807 10.7292 9.36767 10.5223 9.58295C10.3154 9.79823 10.0589 9.90587 9.753 9.90587Z" fill="#624DE3"/>
</svg>
