<svg width="20" height="20" viewBox="0 0 20 20" fill="none" xmlns="http://www.w3.org/2000/svg">
<path d="M8.29012 0.954334C8.36513 0.684766 8.61125 0.498047 8.89174 0.498047H10.606C10.8865 0.498047 11.1326 0.684784 11.2076 0.954334L11.5209 2.06929C12.1507 2.28807 12.7265 2.62169 13.2227 3.04283L14.3626 2.75218C14.633 2.68264 14.9166 2.8014 15.0572 3.04283L15.9144 4.51174C16.0573 4.75631 16.0175 5.06648 15.8182 5.26728L14.9994 6.09237C15.058 6.40646 15.0893 6.73072 15.0893 7.06123C15.0893 7.39175 15.058 7.71598 14.9994 8.03009L15.8182 8.85518C16.0612 9.10052 16.0597 9.49586 15.8143 9.73965C15.5698 9.98264 15.1737 9.98108 14.9307 9.73574L13.8712 8.66845C13.7157 8.5114 13.6547 8.28481 13.7102 8.07073C13.7938 7.74882 13.8391 7.4105 13.8391 7.06124C13.8391 6.71199 13.7938 6.37367 13.7102 6.05176C13.6547 5.83768 13.7157 5.61109 13.8712 5.45404L14.5923 4.7274L14.215 4.07967L13.207 4.33752C12.9961 4.39143 12.7726 4.33205 12.6163 4.18047C12.1288 3.7062 11.5225 3.35305 10.8458 3.16709C10.6341 3.10927 10.4685 2.9444 10.4091 2.73344L10.1325 1.74818H9.36523L9.08864 2.73344C9.02926 2.9444 8.86362 3.10926 8.65188 3.16709C7.97525 3.35304 7.36892 3.7062 6.88137 4.18047C6.72511 4.33205 6.50165 4.39143 6.29069 4.33752L5.28277 4.07967L4.90539 4.7274L5.62656 5.45404C5.78205 5.61108 5.84298 5.83768 5.78752 6.05176C5.70391 6.37367 5.6586 6.71199 5.6586 7.06124C5.6586 7.4105 5.70391 7.74882 5.78752 8.07073C5.84299 8.28481 5.78205 8.5114 5.62656 8.66845L4.56707 9.73574C4.32409 9.98109 3.92794 9.98265 3.68338 9.73965C3.43803 9.49586 3.43647 9.10052 3.67947 8.85518L4.49832 8.03009C4.43972 7.716 4.40846 7.39175 4.40846 7.06123C4.40846 6.73072 4.43972 6.40648 4.49832 6.09237L3.67947 5.26728C3.48023 5.06648 3.44039 4.75629 3.58337 4.51174L4.4405 3.04283C4.58114 2.80141 4.86476 2.68263 5.13511 2.75218L6.27507 3.04283C6.77122 2.62169 7.34706 2.28807 7.97681 2.06929L8.29012 0.954334Z" fill="#6754E2"/>
<path fill-rule="evenodd" clip-rule="evenodd" d="M7.19922 7.06121C7.19922 5.647 8.37122 4.52734 9.78309 4.52734C11.195 4.52734 12.367 5.647 12.367 7.06121C12.367 8.47541 11.195 9.59507 9.78309 9.59507C8.37122 9.59507 7.19922 8.47541 7.19922 7.06121ZM9.78309 5.77747C9.03067 5.77747 8.44935 6.36738 8.44935 7.06121C8.44935 7.75504 9.03065 8.34494 9.78309 8.34494C10.5347 8.34494 11.1168 7.75504 11.1168 7.06121C11.1168 6.36738 10.5347 5.77747 9.78309 5.77747Z" fill="#6754E2"/>
<path fill-rule="evenodd" clip-rule="evenodd" d="M4.68498 10.0007C4.84203 9.88273 5.0444 9.84522 5.23348 9.89913L10.8591 11.5063C11.1271 11.5829 11.3122 11.8283 11.3122 12.1072V13.8488H14.4376C14.7829 13.8488 15.0626 14.1285 15.0626 14.4738V18.6259C15.0626 18.9712 14.7829 19.2509 14.4376 19.2509H5.06158C4.89594 19.2509 4.73655 19.1853 4.61935 19.0681C4.50215 18.9509 4.43652 18.7915 4.43652 18.6259V10.5C4.43652 10.3039 4.52871 10.1187 4.68498 10.0007ZM5.68665 13.6253H6.31171C6.65707 13.6253 6.93678 13.3456 6.93678 13.0002C6.93678 12.6549 6.65707 12.3752 6.31171 12.3752H5.68665V11.3289L10.0621 12.5791V18.0006H5.68665V16.9591H6.31171C6.65707 16.9591 6.93678 16.6786 6.93678 16.3341C6.93678 15.9887 6.65707 15.709 6.31171 15.709H5.68665V15.2918H6.31171C6.65707 15.2918 6.93678 15.0121 6.93678 14.6667C6.93678 14.3221 6.65707 14.0416 6.31171 14.0416H5.68665V13.6253ZM11.3122 15.0989V18.0008H13.8125V15.0989H11.3122Z" fill="#6754E2"/>
</svg>
