<svg width="20" height="20" viewBox="0 0 20 20" fill="none" xmlns="http://www.w3.org/2000/svg">
<path d="M9.99814 1C9.98852 1.00042 9.9789 1.00109 9.96931 1.002C9.95647 1.00223 9.94365 1.0029 9.93085 1.004C9.91505 1.00647 9.89937 1.00961 9.88386 1.01341C9.87383 1.0152 9.86385 1.01727 9.85393 1.01961C9.8446 1.02211 9.83533 1.02484 9.82614 1.02781C9.8091 1.03322 9.79234 1.03943 9.77592 1.04642C9.77053 1.04907 9.76519 1.05181 9.7599 1.05463C9.74457 1.06187 9.7296 1.0698 9.71504 1.0784C9.70597 1.08368 9.69707 1.08922 9.68834 1.095C9.67698 1.10253 9.66592 1.11046 9.65518 1.1188C9.64489 1.12706 9.6349 1.13568 9.62526 1.14465C9.61641 1.15298 9.60785 1.1616 9.5996 1.1705C9.59149 1.17853 9.58365 1.1868 9.57608 1.19531C9.56863 1.20439 9.5615 1.2137 9.55469 1.22322C9.54681 1.23364 9.53933 1.24433 9.53226 1.25528C9.52659 1.26511 9.52124 1.27511 9.51623 1.28527C9.50885 1.29877 9.50208 1.31257 9.49593 1.32663C9.49556 1.32699 9.49629 1.32628 9.49593 1.32663C9.49518 1.3287 9.49336 1.33182 9.49264 1.33389C9.48523 1.35147 9.47881 1.36942 9.47339 1.38766C9.46805 1.40637 9.46378 1.42536 9.46059 1.44453C9.45981 1.44865 9.45908 1.45279 9.4584 1.45693C9.45477 1.48159 9.45294 1.50647 9.45292 1.53139V3.73487V4.98809L1.32803 8.42929C1.23073 8.47044 1.1479 8.53811 1.08965 8.62403C1.0314 8.70996 1.00025 8.81044 1 8.9132V10.4653C1.00058 10.6057 1.05877 10.7401 1.16176 10.839C1.26476 10.9379 1.40413 10.9931 1.54922 10.9926H1.82809V17.9412H1.54922C1.47701 17.9409 1.40547 17.9545 1.33871 17.9811C1.27195 18.0077 1.21129 18.0468 1.16023 18.0962C1.10918 18.1456 1.06874 18.2043 1.04123 18.2689C1.01373 18.3335 0.999722 18.4028 1 18.4727C1.00028 18.5422 1.01471 18.611 1.04246 18.6751C1.07022 18.7392 1.11075 18.7974 1.16175 18.8464C1.21275 18.8954 1.27321 18.9341 1.3397 18.9605C1.40618 18.9868 1.47737 19.0003 1.54922 19H2.37731H17.6227H18.4508C18.5959 19.0005 18.7352 18.9453 18.8382 18.8464C18.9412 18.7476 18.9994 18.6132 19 18.4728C19.0003 18.4029 18.9863 18.3337 18.9588 18.2691C18.9313 18.2045 18.8908 18.1458 18.8398 18.0963C18.7887 18.0469 18.7281 18.0078 18.6613 17.9812C18.5945 17.9546 18.523 17.941 18.4508 17.9413H18.1719V10.9927H18.4508C18.5959 10.9933 18.7352 10.938 18.8382 10.8391C18.9412 10.7402 18.9994 10.6058 19 10.4654V8.91333C18.9998 8.81068 18.9688 8.71028 18.9108 8.62437C18.8527 8.53845 18.7701 8.47072 18.673 8.42941L10.5471 4.98821V4.26647H13.4224C13.4946 4.26674 13.5662 4.25318 13.6329 4.22656C13.6997 4.19995 13.7603 4.16081 13.8114 4.1114C13.8624 4.062 13.9029 4.0033 13.9304 3.9387C13.9579 3.87409 13.9719 3.80486 13.9716 3.73499V1.53151C13.9719 1.46164 13.9579 1.39241 13.9304 1.32781C13.9029 1.2632 13.8624 1.20451 13.8114 1.1551C13.7603 1.1057 13.6997 1.06656 13.6329 1.03994C13.5662 1.01333 13.4946 0.999761 13.4224 1.00003L9.99814 1ZM10.5474 2.05883H12.8778V3.20762H10.5474V2.05883ZM9.99814 5.9157L17.9061 9.26176V9.93387H2.09551V9.26176L9.99814 5.9157ZM9.96718 6.77599C9.22359 6.7946 8.61339 7.39256 8.61339 8.11608C8.61339 8.85107 9.24287 9.46029 10.0024 9.46029C10.762 9.46029 11.3872 8.85107 11.3872 8.11608C11.3872 7.38107 10.762 6.77599 10.0024 6.77599C9.99058 6.77599 9.979 6.7757 9.96718 6.77599ZM9.98643 7.83482C9.99135 7.83459 9.9972 7.83482 10.0025 7.83482C10.1704 7.83482 10.2931 7.95302 10.2931 8.11608C10.2931 8.27911 10.1704 8.40146 10.0025 8.40146C9.83448 8.40146 9.70755 8.27911 9.70755 8.11608C9.70755 7.95814 9.82628 7.84192 9.98643 7.83482ZM2.92256 10.9927H17.0781V17.9413H16.0844V13.4278C16.0844 12.6393 15.4271 11.9698 14.6098 11.9698C13.7926 11.9698 13.1407 12.6393 13.1407 13.4278V17.9413H11.4727V13.4278C11.4727 12.6393 10.8197 11.9698 10.0025 11.9698C9.18525 11.9698 8.52793 12.6393 8.52793 13.4278V17.9413H6.86107V13.4278C6.86107 12.6393 6.20802 11.9698 5.39081 11.9698C4.5736 11.9698 3.91628 12.6393 3.91628 13.4278V17.9413H2.92257L2.92256 10.9927ZM5.3908 13.0287C5.59838 13.0287 5.77012 13.1873 5.77012 13.4278V17.9413H5.01043V13.4278C5.01043 13.1873 5.18322 13.0287 5.3908 13.0287ZM10.0025 13.0287C10.21 13.0287 10.3775 13.1873 10.3775 13.4278V17.9413H9.62315V13.4278C9.62315 13.1873 9.79487 13.0287 10.0025 13.0287ZM14.6098 13.0287C14.8174 13.0287 14.9902 13.1873 14.9902 13.4278V17.9413H14.2305V13.4278C14.2305 13.1873 14.4023 13.0287 14.6098 13.0287Z" fill="#6754E2"/>
</svg>
