<svg width="20" height="20" viewBox="0 0 20 20" fill="none" xmlns="http://www.w3.org/2000/svg">
<path fill-rule="evenodd" clip-rule="evenodd" d="M18.7222 4.27795C18.7222 4.27795 18.689 3.95958 18.4536 3.77032C14.0244 0.210455 7.32423 -0.0476196 2.57391 3.74912C2.43001 3.86417 2.29399 4.04925 2.27767 4.27795C2.17808 5.67608 2.16642 5.8417 2.02969 7.76222C1.70402 12.3354 4.07774 16.6935 8.15895 19.0151L9.36402 19.7007C10.0652 20.0998 10.9346 20.0998 11.6358 19.7007L12.8411 19.0151C16.9221 16.6935 19.2958 12.3354 18.9703 7.76222C18.8336 5.8417 18.7222 4.27795 18.7222 4.27795ZM17.253 4.69313L17.4785 7.86198C17.7651 11.8871 15.6758 15.7229 12.0837 17.7665L10.8786 18.4519C10.6448 18.585 10.355 18.585 10.1214 18.4521C10.1212 18.4519 8.91616 17.7665 8.91616 17.7665C5.32408 15.7229 3.23476 11.8871 3.52132 7.86198L3.74615 4.70443L3.86278 4.61806C7.8331 1.68087 13.3394 1.72606 17.253 4.69313ZM12.7429 7.58757V5.77722C12.7429 5.37734 12.4081 5.05322 11.9952 5.05322H9.00462C8.59174 5.05322 8.2571 5.37734 8.2571 5.77722V7.58757H6.38794C5.97507 7.58757 5.64025 7.91168 5.64025 8.31174V11.2081C5.64025 11.6081 5.97507 11.9323 6.38794 11.9323H8.2571V13.7426C8.2571 14.1425 8.59174 14.4666 9.00462 14.4666H11.9952C12.4081 14.4666 12.7429 14.1425 12.7429 13.7426V11.9323H14.6119C15.025 11.9323 15.3596 11.6081 15.3596 11.2081V8.31174C15.3596 7.91168 15.025 7.58757 14.6119 7.58757H12.7429ZM11.2475 8.31174C11.2475 8.71163 11.5824 9.03574 11.9952 9.03574H13.8644V10.4841H11.9952C11.5824 10.4841 11.2475 10.8082 11.2475 11.2081V13.0184H9.75232V11.2081C9.75232 10.8082 9.41767 10.4841 9.00462 10.4841H7.13564V9.03574H9.00462C9.41767 9.03574 9.75232 8.71163 9.75232 8.31174V6.50139H11.2475V8.31174Z" fill="#6754E2"/>
</svg>
