<svg width="20" height="20" viewBox="0 0 20 20" fill="none" xmlns="http://www.w3.org/2000/svg">
<path d="M2.91406 16.6654C2.58073 16.6654 2.28906 16.5404 2.03906 16.2904C1.78906 16.0404 1.66406 15.7487 1.66406 15.4154V4.58203C1.66406 4.2487 1.78906 3.95703 2.03906 3.70703C2.28906 3.45703 2.58073 3.33203 2.91406 3.33203H17.0807C17.4141 3.33203 17.7057 3.45703 17.9557 3.70703C18.2057 3.95703 18.3307 4.2487 18.3307 4.58203V15.4154C18.3307 15.7487 18.2057 16.0404 17.9557 16.2904C17.7057 16.5404 17.4141 16.6654 17.0807 16.6654H2.91406ZM2.91406 15.4154H17.0807V6.33203H2.91406V15.4154ZM6.2474 13.9154L5.3724 13.0404L7.51823 10.8737L5.35156 8.70703L6.2474 7.83203L9.28906 10.8737L6.2474 13.9154ZM10.2057 13.9987V12.7487H14.7891V13.9987H10.2057Z" fill="#624DE3"/>
</svg>
