<svg width="20" height="20" viewBox="0 0 20 20" fill="none" xmlns="http://www.w3.org/2000/svg">
<mask id="path-1-outside-1_6241_97442" maskUnits="userSpaceOnUse" x="-0.00195312" y="8.34766" width="19" height="10" fill="black">
<rect fill="white" x="-0.00195312" y="8.34766" width="19" height="10"/>
<path d="M16.9538 12.5795C17.2583 12.3569 17.4847 12.0438 17.6005 11.6848C17.7164 11.3258 17.7157 10.9394 17.5986 10.5809C17.4816 10.2223 17.2542 9.90993 16.9488 9.68843C16.6435 9.46694 16.276 9.34766 15.8988 9.34766C15.5216 9.34766 15.1541 9.46694 14.8488 9.68843C14.5435 9.90993 14.3161 10.2223 14.199 10.5809C14.082 10.9394 14.0813 11.3258 14.1971 11.6848C14.3129 12.0438 14.5393 12.3569 14.8439 12.5795C14.4455 12.776 14.11 13.0799 13.8752 13.4569C13.6403 13.834 13.5155 14.2691 13.5147 14.7133V15.3093H11.7266C11.4105 15.3093 11.1072 15.4349 10.8837 15.6584C10.6601 15.882 10.5345 16.1852 10.5345 16.5013C10.5354 16.7114 10.5931 16.9174 10.7014 17.0974H8.57956C8.68791 16.9174 8.74557 16.7114 8.74645 16.5013C8.74645 16.1852 8.62086 15.882 8.39731 15.6584C8.17375 15.4349 7.87054 15.3093 7.55439 15.3093H5.7663V14.7133C5.76551 14.2691 5.64066 13.834 5.40581 13.4569C5.17097 13.0799 4.83547 12.776 4.43715 12.5795C4.74169 12.3569 4.96806 12.0438 5.08388 11.6848C5.1997 11.3258 5.19904 10.9394 5.08199 10.5809C4.96494 10.2223 4.7375 9.90993 4.4322 9.68843C4.12689 9.46694 3.75936 9.34766 3.38217 9.34766C3.00498 9.34766 2.63745 9.46694 2.33215 9.68843C2.02684 9.90993 1.7994 10.2223 1.68235 10.5809C1.5653 10.9394 1.56464 11.3258 1.68046 11.6848C1.79628 12.0438 2.02265 12.3569 2.3272 12.5795C1.92887 12.776 1.59338 13.0799 1.35853 13.4569C1.12369 13.834 0.998833 14.2691 0.998047 14.7133V17.3954C0.998047 17.4744 1.02944 17.5502 1.08533 17.6061C1.14122 17.662 1.21702 17.6934 1.29606 17.6934H17.9849C18.064 17.6934 18.1398 17.662 18.1957 17.6061C18.2516 17.5502 18.283 17.4744 18.283 17.3954V14.7133C18.2822 14.2691 18.1573 13.834 17.9225 13.4569C17.6876 13.0799 17.3521 12.776 16.9538 12.5795ZM14.7068 11.1371C14.7068 10.9013 14.7767 10.6708 14.9077 10.4748C15.0386 10.2788 15.2248 10.126 15.4426 10.0357C15.6605 9.94552 15.9001 9.92191 16.1314 9.96791C16.3626 10.0139 16.575 10.1274 16.7417 10.2942C16.9085 10.4609 17.022 10.6733 17.068 10.9045C17.114 11.1357 17.0904 11.3754 17.0001 11.5933C16.9099 11.8111 16.7571 11.9972 16.5611 12.1282C16.3651 12.2592 16.1346 12.3291 15.8988 12.3291C15.5827 12.3291 15.2795 12.2035 15.0559 11.98C14.8324 11.7564 14.7068 11.4532 14.7068 11.1371ZM2.19011 11.1371C2.19011 10.9013 2.26002 10.6708 2.39101 10.4748C2.52199 10.2788 2.70817 10.126 2.92599 10.0357C3.14381 9.94552 3.38349 9.92191 3.61473 9.96791C3.84597 10.0139 4.05837 10.1274 4.22509 10.2942C4.3918 10.4609 4.50533 10.6733 4.55133 10.9045C4.59732 11.1357 4.57372 11.3754 4.48349 11.5933C4.39327 11.8111 4.24048 11.9972 4.04445 12.1282C3.84841 12.2592 3.61794 12.3291 3.38217 12.3291C3.06602 12.3291 2.76281 12.2035 2.53926 11.98C2.3157 11.7564 2.19011 11.4532 2.19011 11.1371ZM5.46828 17.0974C5.07309 17.0974 4.69408 16.9404 4.41464 16.6609C4.13519 16.3815 3.9782 16.0025 3.9782 15.6073C3.9782 15.5283 3.9468 15.4525 3.89092 15.3966C3.83503 15.3407 3.75923 15.3093 3.68019 15.3093C3.60115 15.3093 3.52535 15.3407 3.46946 15.3966C3.41357 15.4525 3.38217 15.5283 3.38217 15.6073C3.38252 15.885 3.43832 16.1599 3.5463 16.4158C3.65428 16.6716 3.81226 16.9034 4.01098 17.0974H1.59408V14.7133C1.59408 14.239 1.78247 13.7842 2.1178 13.4489C2.45313 13.1135 2.90794 12.9252 3.38217 12.9252C3.8564 12.9252 4.31121 13.1135 4.64654 13.4489C4.98188 13.7842 5.17027 14.239 5.17027 14.7133V15.6073C5.17027 15.6863 5.20166 15.7621 5.25755 15.818C5.31344 15.8739 5.38924 15.9053 5.46828 15.9053H7.55439C7.71247 15.9053 7.86407 15.9681 7.97585 16.0799C8.08763 16.1917 8.15042 16.3433 8.15042 16.5013C8.15042 16.6594 8.08763 16.811 7.97585 16.9228C7.86407 17.0346 7.71247 17.0974 7.55439 17.0974H5.46828ZM15.6008 15.3093C15.5218 15.3093 15.446 15.3407 15.3901 15.3966C15.3342 15.4525 15.3028 15.5283 15.3028 15.6073C15.3028 16.0025 15.1458 16.3815 14.8664 16.6609C14.5869 16.9404 14.2079 17.0974 13.8127 17.0974H11.7266C11.5685 17.0974 11.4169 17.0346 11.3052 16.9228C11.1934 16.811 11.1306 16.6594 11.1306 16.5013C11.1306 16.3433 11.1934 16.1917 11.3052 16.0799C11.4169 15.9681 11.5685 15.9053 11.7266 15.9053H13.8127C13.8918 15.9053 13.9676 15.8739 14.0234 15.818C14.0793 15.7621 14.1107 15.6863 14.1107 15.6073V14.7133C14.1107 14.239 14.2991 13.7842 14.6345 13.4489C14.9698 13.1135 15.4246 12.9252 15.8988 12.9252C16.3731 12.9252 16.8279 13.1135 17.1632 13.4489C17.4985 13.7842 17.6869 14.239 17.6869 14.7133V17.0974H15.27C15.4687 16.9034 15.6267 16.6716 15.7347 16.4158C15.8427 16.1599 15.8985 15.885 15.8988 15.6073C15.8988 15.5283 15.8674 15.4525 15.8115 15.3966C15.7557 15.3407 15.6798 15.3093 15.6008 15.3093Z"/>
</mask>
<path d="M16.9538 12.5795C17.2583 12.3569 17.4847 12.0438 17.6005 11.6848C17.7164 11.3258 17.7157 10.9394 17.5986 10.5809C17.4816 10.2223 17.2542 9.90993 16.9488 9.68843C16.6435 9.46694 16.276 9.34766 15.8988 9.34766C15.5216 9.34766 15.1541 9.46694 14.8488 9.68843C14.5435 9.90993 14.3161 10.2223 14.199 10.5809C14.082 10.9394 14.0813 11.3258 14.1971 11.6848C14.3129 12.0438 14.5393 12.3569 14.8439 12.5795C14.4455 12.776 14.11 13.0799 13.8752 13.4569C13.6403 13.834 13.5155 14.2691 13.5147 14.7133V15.3093H11.7266C11.4105 15.3093 11.1072 15.4349 10.8837 15.6584C10.6601 15.882 10.5345 16.1852 10.5345 16.5013C10.5354 16.7114 10.5931 16.9174 10.7014 17.0974H8.57956C8.68791 16.9174 8.74557 16.7114 8.74645 16.5013C8.74645 16.1852 8.62086 15.882 8.39731 15.6584C8.17375 15.4349 7.87054 15.3093 7.55439 15.3093H5.7663V14.7133C5.76551 14.2691 5.64066 13.834 5.40581 13.4569C5.17097 13.0799 4.83547 12.776 4.43715 12.5795C4.74169 12.3569 4.96806 12.0438 5.08388 11.6848C5.1997 11.3258 5.19904 10.9394 5.08199 10.5809C4.96494 10.2223 4.7375 9.90993 4.4322 9.68843C4.12689 9.46694 3.75936 9.34766 3.38217 9.34766C3.00498 9.34766 2.63745 9.46694 2.33215 9.68843C2.02684 9.90993 1.7994 10.2223 1.68235 10.5809C1.5653 10.9394 1.56464 11.3258 1.68046 11.6848C1.79628 12.0438 2.02265 12.3569 2.3272 12.5795C1.92887 12.776 1.59338 13.0799 1.35853 13.4569C1.12369 13.834 0.998833 14.2691 0.998047 14.7133V17.3954C0.998047 17.4744 1.02944 17.5502 1.08533 17.6061C1.14122 17.662 1.21702 17.6934 1.29606 17.6934H17.9849C18.064 17.6934 18.1398 17.662 18.1957 17.6061C18.2516 17.5502 18.283 17.4744 18.283 17.3954V14.7133C18.2822 14.2691 18.1573 13.834 17.9225 13.4569C17.6876 13.0799 17.3521 12.776 16.9538 12.5795ZM14.7068 11.1371C14.7068 10.9013 14.7767 10.6708 14.9077 10.4748C15.0386 10.2788 15.2248 10.126 15.4426 10.0357C15.6605 9.94552 15.9001 9.92191 16.1314 9.96791C16.3626 10.0139 16.575 10.1274 16.7417 10.2942C16.9085 10.4609 17.022 10.6733 17.068 10.9045C17.114 11.1357 17.0904 11.3754 17.0001 11.5933C16.9099 11.8111 16.7571 11.9972 16.5611 12.1282C16.3651 12.2592 16.1346 12.3291 15.8988 12.3291C15.5827 12.3291 15.2795 12.2035 15.0559 11.98C14.8324 11.7564 14.7068 11.4532 14.7068 11.1371ZM2.19011 11.1371C2.19011 10.9013 2.26002 10.6708 2.39101 10.4748C2.52199 10.2788 2.70817 10.126 2.92599 10.0357C3.14381 9.94552 3.38349 9.92191 3.61473 9.96791C3.84597 10.0139 4.05837 10.1274 4.22509 10.2942C4.3918 10.4609 4.50533 10.6733 4.55133 10.9045C4.59732 11.1357 4.57372 11.3754 4.48349 11.5933C4.39327 11.8111 4.24048 11.9972 4.04445 12.1282C3.84841 12.2592 3.61794 12.3291 3.38217 12.3291C3.06602 12.3291 2.76281 12.2035 2.53926 11.98C2.3157 11.7564 2.19011 11.4532 2.19011 11.1371ZM5.46828 17.0974C5.07309 17.0974 4.69408 16.9404 4.41464 16.6609C4.13519 16.3815 3.9782 16.0025 3.9782 15.6073C3.9782 15.5283 3.9468 15.4525 3.89092 15.3966C3.83503 15.3407 3.75923 15.3093 3.68019 15.3093C3.60115 15.3093 3.52535 15.3407 3.46946 15.3966C3.41357 15.4525 3.38217 15.5283 3.38217 15.6073C3.38252 15.885 3.43832 16.1599 3.5463 16.4158C3.65428 16.6716 3.81226 16.9034 4.01098 17.0974H1.59408V14.7133C1.59408 14.239 1.78247 13.7842 2.1178 13.4489C2.45313 13.1135 2.90794 12.9252 3.38217 12.9252C3.8564 12.9252 4.31121 13.1135 4.64654 13.4489C4.98188 13.7842 5.17027 14.239 5.17027 14.7133V15.6073C5.17027 15.6863 5.20166 15.7621 5.25755 15.818C5.31344 15.8739 5.38924 15.9053 5.46828 15.9053H7.55439C7.71247 15.9053 7.86407 15.9681 7.97585 16.0799C8.08763 16.1917 8.15042 16.3433 8.15042 16.5013C8.15042 16.6594 8.08763 16.811 7.97585 16.9228C7.86407 17.0346 7.71247 17.0974 7.55439 17.0974H5.46828ZM15.6008 15.3093C15.5218 15.3093 15.446 15.3407 15.3901 15.3966C15.3342 15.4525 15.3028 15.5283 15.3028 15.6073C15.3028 16.0025 15.1458 16.3815 14.8664 16.6609C14.5869 16.9404 14.2079 17.0974 13.8127 17.0974H11.7266C11.5685 17.0974 11.4169 17.0346 11.3052 16.9228C11.1934 16.811 11.1306 16.6594 11.1306 16.5013C11.1306 16.3433 11.1934 16.1917 11.3052 16.0799C11.4169 15.9681 11.5685 15.9053 11.7266 15.9053H13.8127C13.8918 15.9053 13.9676 15.8739 14.0234 15.818C14.0793 15.7621 14.1107 15.6863 14.1107 15.6073V14.7133C14.1107 14.239 14.2991 13.7842 14.6345 13.4489C14.9698 13.1135 15.4246 12.9252 15.8988 12.9252C16.3731 12.9252 16.8279 13.1135 17.1632 13.4489C17.4985 13.7842 17.6869 14.239 17.6869 14.7133V17.0974H15.27C15.4687 16.9034 15.6267 16.6716 15.7347 16.4158C15.8427 16.1599 15.8985 15.885 15.8988 15.6073C15.8988 15.5283 15.8674 15.4525 15.8115 15.3966C15.7557 15.3407 15.6798 15.3093 15.6008 15.3093Z" fill="#624DE3"/>
<path d="M16.9538 12.5795C17.2583 12.3569 17.4847 12.0438 17.6005 11.6848C17.7164 11.3258 17.7157 10.9394 17.5986 10.5809C17.4816 10.2223 17.2542 9.90993 16.9488 9.68843C16.6435 9.46694 16.276 9.34766 15.8988 9.34766C15.5216 9.34766 15.1541 9.46694 14.8488 9.68843C14.5435 9.90993 14.3161 10.2223 14.199 10.5809C14.082 10.9394 14.0813 11.3258 14.1971 11.6848C14.3129 12.0438 14.5393 12.3569 14.8439 12.5795C14.4455 12.776 14.11 13.0799 13.8752 13.4569C13.6403 13.834 13.5155 14.2691 13.5147 14.7133V15.3093H11.7266C11.4105 15.3093 11.1072 15.4349 10.8837 15.6584C10.6601 15.882 10.5345 16.1852 10.5345 16.5013C10.5354 16.7114 10.5931 16.9174 10.7014 17.0974H8.57956C8.68791 16.9174 8.74557 16.7114 8.74645 16.5013C8.74645 16.1852 8.62086 15.882 8.39731 15.6584C8.17375 15.4349 7.87054 15.3093 7.55439 15.3093H5.7663V14.7133C5.76551 14.2691 5.64066 13.834 5.40581 13.4569C5.17097 13.0799 4.83547 12.776 4.43715 12.5795C4.74169 12.3569 4.96806 12.0438 5.08388 11.6848C5.1997 11.3258 5.19904 10.9394 5.08199 10.5809C4.96494 10.2223 4.7375 9.90993 4.4322 9.68843C4.12689 9.46694 3.75936 9.34766 3.38217 9.34766C3.00498 9.34766 2.63745 9.46694 2.33215 9.68843C2.02684 9.90993 1.7994 10.2223 1.68235 10.5809C1.5653 10.9394 1.56464 11.3258 1.68046 11.6848C1.79628 12.0438 2.02265 12.3569 2.3272 12.5795C1.92887 12.776 1.59338 13.0799 1.35853 13.4569C1.12369 13.834 0.998833 14.2691 0.998047 14.7133V17.3954C0.998047 17.4744 1.02944 17.5502 1.08533 17.6061C1.14122 17.662 1.21702 17.6934 1.29606 17.6934H17.9849C18.064 17.6934 18.1398 17.662 18.1957 17.6061C18.2516 17.5502 18.283 17.4744 18.283 17.3954V14.7133C18.2822 14.2691 18.1573 13.834 17.9225 13.4569C17.6876 13.0799 17.3521 12.776 16.9538 12.5795ZM14.7068 11.1371C14.7068 10.9013 14.7767 10.6708 14.9077 10.4748C15.0386 10.2788 15.2248 10.126 15.4426 10.0357C15.6605 9.94552 15.9001 9.92191 16.1314 9.96791C16.3626 10.0139 16.575 10.1274 16.7417 10.2942C16.9085 10.4609 17.022 10.6733 17.068 10.9045C17.114 11.1357 17.0904 11.3754 17.0001 11.5933C16.9099 11.8111 16.7571 11.9972 16.5611 12.1282C16.3651 12.2592 16.1346 12.3291 15.8988 12.3291C15.5827 12.3291 15.2795 12.2035 15.0559 11.98C14.8324 11.7564 14.7068 11.4532 14.7068 11.1371ZM2.19011 11.1371C2.19011 10.9013 2.26002 10.6708 2.39101 10.4748C2.52199 10.2788 2.70817 10.126 2.92599 10.0357C3.14381 9.94552 3.38349 9.92191 3.61473 9.96791C3.84597 10.0139 4.05837 10.1274 4.22509 10.2942C4.3918 10.4609 4.50533 10.6733 4.55133 10.9045C4.59732 11.1357 4.57372 11.3754 4.48349 11.5933C4.39327 11.8111 4.24048 11.9972 4.04445 12.1282C3.84841 12.2592 3.61794 12.3291 3.38217 12.3291C3.06602 12.3291 2.76281 12.2035 2.53926 11.98C2.3157 11.7564 2.19011 11.4532 2.19011 11.1371ZM5.46828 17.0974C5.07309 17.0974 4.69408 16.9404 4.41464 16.6609C4.13519 16.3815 3.9782 16.0025 3.9782 15.6073C3.9782 15.5283 3.9468 15.4525 3.89092 15.3966C3.83503 15.3407 3.75923 15.3093 3.68019 15.3093C3.60115 15.3093 3.52535 15.3407 3.46946 15.3966C3.41357 15.4525 3.38217 15.5283 3.38217 15.6073C3.38252 15.885 3.43832 16.1599 3.5463 16.4158C3.65428 16.6716 3.81226 16.9034 4.01098 17.0974H1.59408V14.7133C1.59408 14.239 1.78247 13.7842 2.1178 13.4489C2.45313 13.1135 2.90794 12.9252 3.38217 12.9252C3.8564 12.9252 4.31121 13.1135 4.64654 13.4489C4.98188 13.7842 5.17027 14.239 5.17027 14.7133V15.6073C5.17027 15.6863 5.20166 15.7621 5.25755 15.818C5.31344 15.8739 5.38924 15.9053 5.46828 15.9053H7.55439C7.71247 15.9053 7.86407 15.9681 7.97585 16.0799C8.08763 16.1917 8.15042 16.3433 8.15042 16.5013C8.15042 16.6594 8.08763 16.811 7.97585 16.9228C7.86407 17.0346 7.71247 17.0974 7.55439 17.0974H5.46828ZM15.6008 15.3093C15.5218 15.3093 15.446 15.3407 15.3901 15.3966C15.3342 15.4525 15.3028 15.5283 15.3028 15.6073C15.3028 16.0025 15.1458 16.3815 14.8664 16.6609C14.5869 16.9404 14.2079 17.0974 13.8127 17.0974H11.7266C11.5685 17.0974 11.4169 17.0346 11.3052 16.9228C11.1934 16.811 11.1306 16.6594 11.1306 16.5013C11.1306 16.3433 11.1934 16.1917 11.3052 16.0799C11.4169 15.9681 11.5685 15.9053 11.7266 15.9053H13.8127C13.8918 15.9053 13.9676 15.8739 14.0234 15.818C14.0793 15.7621 14.1107 15.6863 14.1107 15.6073V14.7133C14.1107 14.239 14.2991 13.7842 14.6345 13.4489C14.9698 13.1135 15.4246 12.9252 15.8988 12.9252C16.3731 12.9252 16.8279 13.1135 17.1632 13.4489C17.4985 13.7842 17.6869 14.239 17.6869 14.7133V17.0974H15.27C15.4687 16.9034 15.6267 16.6716 15.7347 16.4158C15.8427 16.1599 15.8985 15.885 15.8988 15.6073C15.8988 15.5283 15.8674 15.4525 15.8115 15.3966C15.7557 15.3407 15.6798 15.3093 15.6008 15.3093Z" stroke="#624DE3" stroke-width="0.6" mask="url(#path-1-outside-1_6241_97442)"/>
<path d="M9.63202 8.90231C10.4279 8.90231 11.206 8.6663 11.8677 8.22411C12.5295 7.78193 13.0453 7.15343 13.3499 6.41811C13.6545 5.68278 13.7342 4.87365 13.5789 4.09303C13.4236 3.31241 13.0404 2.59536 12.4776 2.03257C11.9148 1.46977 11.1977 1.08651 10.4171 0.931232C9.63648 0.775957 8.82735 0.85565 8.09202 1.16023C7.35669 1.46481 6.7282 1.98061 6.28601 2.64238C5.84383 3.30416 5.60781 4.0822 5.60781 4.87811C5.60781 5.9454 6.03179 6.96897 6.78647 7.72365C7.54116 8.47834 8.56473 8.90231 9.63202 8.90231ZM9.63202 1.74994C10.2507 1.74994 10.8555 1.9334 11.3699 2.27713C11.8844 2.62086 12.2853 3.10941 12.5221 3.68101C12.7588 4.25261 12.8208 4.88158 12.7001 5.48839C12.5794 6.09519 12.2815 6.65258 11.844 7.09006C11.4065 7.52755 10.8491 7.82547 10.2423 7.94618C9.63549 8.06688 9.00651 8.00493 8.43492 7.76817C7.86332 7.5314 7.37476 7.13046 7.03104 6.61603C6.68731 6.1016 6.50384 5.4968 6.50384 4.87811C6.50384 4.04847 6.83342 3.25281 7.42006 2.66616C8.00671 2.07951 8.80237 1.74994 9.63202 1.74994Z" fill="#624DE3" stroke="#624DE3" stroke-width="0.3"/>
<path d="M9.03915 6.06963L9.03936 6.21963C9.14817 6.21947 9.25319 6.17973 9.33484 6.10781C9.33491 6.10775 9.33498 6.10769 9.33506 6.10762L11.7167 4.02371C11.7626 3.98615 11.8006 3.93983 11.8285 3.88743C11.8569 3.83405 11.8742 3.77546 11.8794 3.7152L11.73 3.70238L11.8794 3.7152C11.8846 3.65494 11.8775 3.59426 11.8586 3.53682C11.8397 3.47937 11.8093 3.42635 11.7694 3.38095L11.7694 3.38095C11.7294 3.33555 11.6807 3.29871 11.6261 3.27264C11.5715 3.24658 11.5122 3.23184 11.4518 3.2293C11.3914 3.22676 11.3311 3.23649 11.2745 3.25789C11.2191 3.27884 11.1685 3.31054 11.1254 3.35117L9.06088 5.15803L8.16474 4.26189C8.0805 4.17765 7.96623 4.13032 7.84709 4.13032C7.72794 4.13032 7.61368 4.17765 7.52943 4.26189C7.44518 4.34614 7.39785 4.46041 7.39785 4.57955C7.39785 4.6987 7.44518 4.81296 7.52943 4.89721L8.72149 6.08927L8.72193 6.0897C8.76379 6.13122 8.81343 6.16407 8.86802 6.18637C8.92261 6.20867 8.98106 6.21997 9.04002 6.21963L9.03915 6.06963ZM9.03915 6.06963C8.99993 6.06986 8.96105 6.06234 8.92474 6.04751L9.23584 5.99512C9.18151 6.04304 9.11159 6.06952 9.03915 6.06963Z" fill="#624DE3" stroke="#624DE3" stroke-width="0.3"/>
</svg>
