<svg width="20" height="21" viewBox="0 0 20 21" fill="none" xmlns="http://www.w3.org/2000/svg">
<path d="M17.8785 9.78598L17.8785 9.78595L17.8766 9.78404L11.2393 3.14673L11.0686 2.97602V3.21744V4.83138V4.8728L11.0979 4.90209L16.9282 10.7324C16.9422 10.7464 16.9484 10.7617 16.9505 10.7753C16.9525 10.7883 16.9503 10.7966 16.9498 10.7983C16.9497 10.7987 16.9497 10.7988 16.9498 10.7986C16.9425 10.8133 16.9352 10.8237 16.9264 10.8308C16.9194 10.8363 16.9063 10.8442 16.8779 10.8442H2.31208C2.2836 10.8442 2.2705 10.8363 2.26359 10.8308C2.25475 10.8237 2.24748 10.8133 2.24013 10.7986C2.24023 10.7988 2.2402 10.7987 2.24011 10.7983C2.23964 10.7966 2.23744 10.7883 2.23944 10.7753C2.24153 10.7617 2.24779 10.7464 2.26175 10.7324L8.0921 4.90209L8.12139 4.8728V4.83138V3.19727V2.95533L7.95057 3.12666L1.31336 9.78404C1.31333 9.78407 1.3133 9.7841 1.31327 9.78413C0.900737 10.1967 0.792364 10.8049 1.00932 11.3256C1.22659 11.847 1.74718 12.1941 2.31208 12.1941H2.81731V19.0945C2.81731 19.7348 3.34626 20.2638 3.98654 20.2638H7.31529C7.6534 20.2638 8.00764 20.1329 8.27723 19.8552C8.54773 19.5765 8.72661 19.1567 8.72661 18.5902V16.1693C8.72661 15.7253 9.02227 15.3301 9.43054 15.2591L9.43054 15.2591L9.43183 15.2589C9.71977 15.2049 9.98965 15.2932 10.2102 15.5137C10.3729 15.6764 10.4633 15.893 10.4633 16.1289V19.1147C10.4633 19.755 10.9923 20.2839 11.6326 20.2839H15.2034C15.8651 20.2839 16.3726 19.7538 16.3726 19.1147V12.1941H16.8779C17.4609 12.1941 17.9841 11.8486 18.1816 11.3232C18.398 10.7811 18.2668 10.1959 17.8785 9.78598ZM11.7931 18.9922V16.1088C11.7931 15.5167 11.5601 14.9669 11.1384 14.5452C10.7163 14.1231 10.1462 13.8905 9.5748 13.8905C9.44545 13.8905 9.31753 13.9118 9.19901 13.9315L9.19522 13.9322L9.19522 13.9322L9.19395 13.9324C8.13531 14.123 7.37668 15.054 7.37668 16.1693V18.5902C7.37668 18.6046 7.37213 18.702 7.34941 18.7929C7.33792 18.8388 7.32371 18.875 7.30859 18.8975C7.30139 18.9082 7.29615 18.9125 7.29416 18.9138L7.29263 18.9139L4.14707 18.992V12.1941H15.0034L15.0622 18.9162L11.7931 18.9922Z" fill="#6754E2" stroke="#6754E2" stroke-width="0.2"/>
<path d="M7.62795 7.82712L9.12084 9.32001C9.2423 9.44147 9.43001 9.51069 9.59504 9.51069C9.76007 9.51069 9.94778 9.44147 10.0692 9.32001L11.5621 7.82712C11.8231 7.56615 11.8231 7.1397 11.5621 6.87873C11.3012 6.61776 10.8747 6.61776 10.6137 6.87873L10.2801 7.21237V1.56292C10.2801 1.1826 9.97071 0.898047 9.61521 0.898047C9.23488 0.898047 8.95034 1.20743 8.95034 1.56292V7.22492L8.57492 6.87731C8.31383 6.61776 7.88845 6.61823 7.62795 6.87873C7.36698 7.1397 7.36698 7.56615 7.62795 7.82712Z" fill="#6754E2" stroke="#6754E2" stroke-width="0.2"/>
</svg>
