<svg width="20" height="20" viewBox="0 0 20 20" fill="none" xmlns="http://www.w3.org/2000/svg">
<path d="M3.63988 13.6101L3.56917 13.5394L3.49846 13.6101L0.929289 16.1793L0.858579 16.25L0.929289 16.3207L1.7772 17.1686L1.84791 17.2393L1.91862 17.1686L4.48779 14.5995L4.5585 14.5287L4.48779 14.458L3.63988 13.6101Z" fill="#6754E2" stroke="#6754E2" stroke-width="0.2"/>
<path d="M5.54418 15.5242L5.47347 15.4535L5.40276 15.5242L2.83359 18.0934L2.76288 18.1641L2.83359 18.2348L3.6815 19.0827L3.75221 19.1534L3.82292 19.0827L6.39209 16.5135L6.4628 16.4428L6.39209 16.3721L5.54418 15.5242Z" fill="#6754E2" stroke="#6754E2" stroke-width="0.2"/>
<path d="M2.86015 4.73516C3.18625 4.40299 3.59867 4.16853 4.05092 4.05823C4.50307 3.94795 4.97704 3.96616 5.41939 4.11081L6.8215 4.53907C8.29197 3.0741 10.1048 1.99881 12.096 1.41088C14.1027 0.818384 16.2261 0.739869 18.271 1.18255C18.4031 1.21073 18.5243 1.27655 18.6198 1.37206C18.7153 1.4676 18.7811 1.58876 18.8093 1.72091C19.252 3.76582 19.1734 5.88919 18.5809 7.89582C17.9904 9.89598 16.908 11.7162 15.433 13.1901L15.9161 14.5879L15.9167 14.5895L15.9167 14.5895C16.0616 15.0321 16.0799 15.5064 15.9696 15.9589C15.8592 16.4112 15.6247 16.8237 15.2925 17.1498C15.2923 17.1499 15.2922 17.1501 15.2921 17.1502L13.5361 18.9062L13.5358 18.9065C13.4704 18.9714 13.3929 19.0227 13.3076 19.0575C13.2225 19.0922 13.1314 19.1099 13.0394 19.1094H13.0397V19.0094L13.0391 19.1094L2.86015 4.73516ZM2.86015 4.73516L1.10394 6.47339L1.10394 6.47339L1.10335 6.47397C1.03177 6.54601 0.976726 6.63276 0.942048 6.72821C0.907371 6.82366 0.893891 6.92552 0.902545 7.0267C0.911199 7.12789 0.941779 7.22598 0.992162 7.31415C1.04254 7.40231 1.1115 7.47845 1.19425 7.53728C1.19427 7.53729 1.19428 7.5373 1.1943 7.53731L3.81888 9.41201C3.55168 10.1738 3.35776 10.9593 3.23978 11.758L3.23965 11.759C3.22499 11.8654 3.23504 11.9738 3.269 12.0757C3.30297 12.1776 3.35995 12.2703 3.43552 12.3466L3.43588 12.347L7.63283 16.544L7.63312 16.5442C7.76342 16.6735 7.93929 16.7463 8.12281 16.7471H8.12323H8.19518H8.20253L8.20979 16.746C9.0085 16.6281 9.79407 16.4341 10.5558 16.167L2.86015 4.73516ZM12.4292 18.7897L12.4307 18.7917L12.512 18.7336L12.4278 18.7875C12.4283 18.7883 12.4288 18.789 12.4292 18.7897ZM12.3139 2.82427C14.0016 2.29577 15.791 2.17874 17.5326 2.48254C17.9219 4.71597 17.6146 7.01598 16.6512 9.06989C15.6851 11.1295 14.107 12.8399 12.1332 13.9684L6.04104 7.87626C6.51708 7.03179 7.10405 6.25471 7.78638 5.56579C9.05211 4.29987 10.6055 3.35923 12.3139 2.82427ZM14.3065 16.1562L14.2767 16.1855V16.216L13.1313 17.3613L11.9425 15.6561C12.7815 15.2587 13.5732 14.7684 14.3028 14.1945L14.5813 15.0351C14.5814 15.0352 14.5814 15.0353 14.5814 15.0355C14.644 15.2293 14.6514 15.4367 14.6029 15.6346C14.5544 15.8326 14.4518 16.0132 14.3065 16.1562ZM4.95073 5.44048L5.78687 5.71919C5.2253 6.44712 4.74476 7.23412 4.35378 8.06625L2.67782 6.87911L3.8524 5.70452C3.85252 5.70441 3.85264 5.70429 3.85275 5.70418C3.99484 5.56497 4.17204 5.46693 4.36546 5.42051C4.55877 5.37411 4.76104 5.38102 4.95073 5.44048ZM8.3858 15.3057L4.69869 11.6538C4.8344 10.8216 5.06372 10.0075 5.38224 9.22694L10.8114 14.6503C10.0301 14.959 9.21646 15.1789 8.3858 15.3057Z" fill="#6754E2" stroke="#6754E2" stroke-width="0.2"/>
<path d="M12.0857 11.3143C12.7577 11.3143 13.4146 11.1151 13.9733 10.7417C14.532 10.3684 14.9675 9.83778 15.2247 9.21695C15.4818 8.59612 15.5491 7.91298 15.418 7.2539C15.2869 6.59483 14.9633 5.98944 14.4882 5.51428C14.013 5.03911 13.4076 4.71552 12.7485 4.58443C12.0895 4.45333 11.4063 4.52061 10.7855 4.77777C10.1647 5.03493 9.63402 5.4704 9.26069 6.02914C8.88735 6.58787 8.68809 7.24476 8.68809 7.91674C8.68809 8.81784 9.04605 9.68204 9.68322 10.3192C10.3204 10.9564 11.1846 11.3143 12.0857 11.3143ZM12.0857 5.91827C12.4809 5.91827 12.8673 6.03548 13.196 6.25507C13.5246 6.47467 13.7808 6.78679 13.932 7.15196C14.0833 7.51713 14.1229 7.91896 14.0458 8.30663C13.9687 8.69429 13.7783 9.05039 13.4988 9.32988C13.2193 9.60937 12.8632 9.79971 12.4756 9.87682C12.0879 9.95393 11.6861 9.91435 11.3209 9.76309C10.9557 9.61183 10.6436 9.35568 10.424 9.02704C10.2044 8.69839 10.0872 8.312 10.0872 7.91674C10.0872 7.38672 10.2978 6.8784 10.6726 6.50361C11.0473 6.12882 11.5557 5.91827 12.0857 5.91827Z" fill="#6754E2" stroke="#6754E2" stroke-width="0.2"/>
</svg>
