<svg width="20" height="20" viewBox="0 0 20 20" fill="none" xmlns="http://www.w3.org/2000/svg">
<g clip-path="url(#clip0_6241_97677)">
<path d="M9.00954 19.3509H9.23227L9.08427 19.1845C8.79027 18.8538 8.57828 18.4504 8.47338 18.011L8.45505 17.9343H8.37612H2.82501C2.56018 17.9343 2.31668 17.7092 2.31668 17.3955V2.85707C2.31668 2.47541 2.66314 2.24606 2.96661 2.33974L2.96672 2.33977L9.65823 4.39735C9.65826 4.39736 9.65829 4.39737 9.65832 4.39738C9.86629 4.4617 10.025 4.6655 10.025 4.91545V10.4019V10.5986L10.1839 10.4827L11.4006 9.59531L11.4417 9.56536V9.51452V4.91553C11.4417 4.06323 10.8958 3.29651 10.0746 3.04363L10.0745 3.04362L3.38291 0.985923C2.12327 0.598466 0.9 1.57028 0.9 2.85707V17.3955C0.9 18.4588 1.74523 19.3509 2.825 19.3509H9.00954Z" fill="#6754E2" stroke="#6754E2" stroke-width="0.2"/>
<path d="M8.20254 11.9281L8.29255 11.8625L8.21772 11.78C8.08791 11.637 7.90023 11.5465 7.69198 11.5465H4.65032C4.25898 11.5465 3.94199 11.8635 3.94199 12.2548C3.94199 12.6462 4.25899 12.9631 4.65032 12.9631H6.97795H7.03622L7.06495 12.9124C7.16146 12.7421 7.29491 12.5894 7.4635 12.4664L8.20254 11.9281Z" fill="#6754E2" stroke="#6754E2" stroke-width="0.2"/>
<path d="M6.9245 13.9801L6.94688 14.0493C6.99236 14.19 7.06057 14.3265 7.15227 14.4523L6.9245 13.9801ZM6.9245 13.9801H6.85173M6.9245 13.9801H6.85173M6.85173 13.9801H4.65025C4.25889 13.9801 3.94199 14.2971 3.94199 14.6884C3.94199 15.0797 4.25898 15.3967 4.65032 15.3967H7.69198C7.88392 15.3967 8.05848 15.3206 8.186 15.1966L8.33575 15.051M6.85173 13.9801L8.33575 15.051M8.33575 15.051L8.12845 15.0256M8.33575 15.051L8.12845 15.0256M8.12845 15.0256C7.75102 14.9794 7.39386 14.7834 7.1523 14.4523L8.12845 15.0256Z" fill="#6754E2" stroke="#6754E2" stroke-width="0.2"/>
<path d="M7.69198 8.09791C8.08332 8.09791 8.40031 7.78092 8.40031 7.38958C8.40031 6.99824 8.08332 6.68125 7.69198 6.68125H4.65032C4.25898 6.68125 3.94199 6.99824 3.94199 7.38958C3.94199 7.78092 4.25898 8.09791 4.65032 8.09791H7.69198Z" fill="#6754E2" stroke="#6754E2" stroke-width="0.2"/>
<path d="M7.69198 10.5296C8.08332 10.5296 8.40031 10.2126 8.40031 9.82122C8.40031 9.42988 8.08332 9.11289 7.69198 9.11289H4.65032C4.25898 9.11289 3.94199 9.42988 3.94199 9.82122C3.94199 10.2126 4.25898 10.5296 4.65032 10.5296H7.69198Z" fill="#6754E2" stroke="#6754E2" stroke-width="0.2"/>
<path d="M7.72673 14.0325C7.95704 14.3487 8.3998 14.4176 8.71577 14.1875L8.71584 14.1874L9.11125 13.8989V17.3856C9.11125 18.4488 9.95111 19.3509 11.0362 19.3509H15.9029C16.988 19.3509 17.8279 18.4488 17.8279 17.3856V13.8989L18.2233 14.1874L18.2234 14.1875C18.5393 14.4176 18.9821 14.3487 19.2124 14.0326C19.4436 13.7164 19.3735 13.2728 19.0575 13.0426L14.5886 9.78353L14.5885 9.78352C13.9192 9.2956 13.0199 9.2956 12.3506 9.78352L12.3506 9.78353L7.88171 13.0426M7.72673 14.0325C7.49563 13.7163 7.56566 13.2728 7.88171 13.0426M7.72673 14.0325C7.72671 14.0325 7.72669 14.0325 7.72667 14.0324L7.80751 13.9736M7.72673 14.0325C7.72674 14.0325 7.72676 14.0326 7.72678 14.0326L7.80751 13.9736M7.88171 13.0426L7.94058 13.1234M7.88171 13.0426L7.88166 13.0426L7.94058 13.1234M7.94058 13.1234L12.4095 9.86433M7.94058 13.1234C7.66911 13.3211 7.60905 13.7021 7.80751 13.9736M12.4095 9.86433L7.80751 13.9736M12.4095 9.86433C13.0437 9.402 13.8954 9.402 14.5296 9.86433H12.4095ZM9.21125 13.7021L9.11125 13.7751L9.21125 13.8259V13.7021ZM13.1856 10.9283L13.1858 10.9283C13.3574 10.8027 13.5819 10.8027 13.7535 10.9283L13.7537 10.9283L16.4112 12.8663V17.3856C16.4112 17.7097 16.1627 17.9342 15.9029 17.9342H11.0363C10.7765 17.9342 10.5279 17.7097 10.5279 17.3856V12.8663L13.1856 10.9283Z" fill="#6754E2" stroke="#6754E2" stroke-width="0.2"/>
</g>
<defs>
<clipPath id="clip0_6241_97677">
<rect width="20" height="20" fill="white"/>
</clipPath>
</defs>
</svg>
