<svg width="20" height="20" viewBox="0 0 20 20" fill="none" xmlns="http://www.w3.org/2000/svg">
<path d="M16.1786 1H2.82143C1.8166 1.00304 1.00303 1.8166 1 2.82143V16.1786C1.00304 17.1834 1.8166 17.997 2.82143 18H16.1786C17.1834 17.997 17.997 17.1834 18 16.1786V2.82143C17.997 1.8166 17.1834 1.00303 16.1786 1ZM16.7857 16.1786C16.7857 16.3395 16.722 16.4943 16.6081 16.6081C16.4943 16.722 16.3395 16.7857 16.1786 16.7857H2.82144C2.48598 16.7857 2.21429 16.514 2.21429 16.1786V7.07142H16.7857L16.7857 16.1786ZM2.21429 5.85714V2.82143C2.21429 2.48597 2.48597 2.21429 2.82143 2.21429H16.1786C16.3395 2.21429 16.4943 2.27803 16.6081 2.39187C16.722 2.50571 16.7857 2.66053 16.7857 2.82142V5.85714L2.21429 5.85714ZM15.5714 4.03571C15.5714 4.19661 15.5077 4.35143 15.3938 4.46526C15.28 4.5791 15.1252 4.64285 14.9643 4.64285H9.50001C9.16455 4.64285 8.89286 4.37116 8.89286 4.03571C8.89286 3.70025 9.16455 3.42856 9.50001 3.42856H14.9643C15.1252 3.42856 15.28 3.49231 15.3938 3.60615C15.5077 3.71999 15.5714 3.87483 15.5714 4.03571ZM5.25 4.03571C5.25 4.19661 5.18625 4.35143 5.07241 4.46526C4.95857 4.5791 4.80375 4.64285 4.64286 4.64285H4.03572C3.70027 4.64285 3.42858 4.37116 3.42858 4.03571C3.42858 3.70025 3.70027 3.42856 4.03572 3.42856H4.64286C4.80376 3.42856 4.95858 3.49231 5.07241 3.60615C5.18625 3.71999 5.25 3.87483 5.25 4.03571ZM7.98205 4.03571C7.98205 4.19661 7.9183 4.35143 7.80446 4.46526C7.69062 4.5791 7.5358 4.64285 7.37491 4.64285H6.76777C6.43231 4.64285 6.16062 4.37116 6.16062 4.03571C6.16062 3.70025 6.43231 3.42856 6.76777 3.42856H7.37491C7.5358 3.42856 7.69063 3.49231 7.80446 3.60615C7.9183 3.71999 7.98205 3.87483 7.98205 4.03571ZM5.25 11.9286H5.94822L6.38537 14.5575C6.48554 15.1433 6.99327 15.5721 7.58751 15.5714H11.4126C12.0068 15.5721 12.5146 15.1434 12.6147 14.5575L13.0519 11.9286H13.7501C14.0856 11.9286 14.3573 11.6569 14.3573 11.3214C14.3573 10.986 14.0856 10.7143 13.7501 10.7143H12.8394L11.2001 8.52857C10.999 8.26067 10.618 8.20602 10.3501 8.40714C10.0822 8.60827 10.0276 8.98924 10.2287 9.25714L11.3215 10.7143H7.67869L8.77155 9.25714C8.97267 8.98924 8.91802 8.60827 8.65012 8.40714C8.38221 8.20602 8.00124 8.26067 7.80012 8.52857L6.16083 10.7143H5.25012C4.91466 10.7143 4.64297 10.986 4.64297 11.3214C4.64297 11.6569 4.91455 11.9286 5.25 11.9286ZM11.4125 14.3571H7.58745L7.18066 11.9286H11.8192L11.4125 14.3571Z" fill="#6754E2"/>
</svg>
