<svg width="20" height="20" viewBox="0 0 20 20" fill="none" xmlns="http://www.w3.org/2000/svg">
<path d="M19.9747 2.28601C19.9341 1.70419 19.6847 1.15661 19.2724 0.744147C18.86 0.33168 18.3125 0.0821036 17.7307 0.0413869C16.4514 -0.0633672 15.1661 0.152413 13.9912 0.669214C12.8162 1.18602 11.7886 1.98754 11.0013 3.0013L10.0708 4.21539L7.49635 3.571C6.91973 3.42837 6.31608 3.43674 5.74363 3.59529C5.17118 3.75384 4.64925 4.05723 4.22817 4.47619L1.18533 7.51839C1.09683 7.60692 1.03657 7.7197 1.01216 7.84247C0.987743 7.96524 1.00028 8.0925 1.04818 8.20815C1.09608 8.3238 1.17719 8.42265 1.28126 8.4922C1.38533 8.56176 1.50769 8.5989 1.63287 8.59893H4.32628C5.00918 8.60049 5.66952 8.84355 6.19047 9.2851L5.63976 10.0036C5.54631 10.1255 5.50037 10.2772 5.5105 10.4304C5.52064 10.5837 5.58615 10.728 5.69483 10.8366L5.94803 11.0898L4.74533 12.2925C4.62666 12.4112 4.56 12.5722 4.56 12.74C4.56 12.9079 4.62666 13.0688 4.74533 13.1876L6.82917 15.2714C6.94788 15.3901 7.10885 15.4567 7.2767 15.4567C7.44455 15.4567 7.60553 15.3901 7.72423 15.2714L8.92693 14.0687L9.18014 14.3219C9.28867 14.4306 9.43302 14.4961 9.58628 14.5062C9.73955 14.5163 9.89127 14.4704 10.0132 14.377L10.7316 13.8262C11.1725 14.3464 11.4155 15.0055 11.4178 15.6873V18.3832C11.4178 18.5084 11.455 18.6308 11.5245 18.7348C11.5941 18.8389 11.6929 18.92 11.8086 18.9679C11.9242 19.0158 12.0515 19.0283 12.1742 19.0039C12.297 18.9795 12.4098 18.9193 12.4983 18.8308L15.5405 15.7879C15.9591 15.3666 16.2622 14.8446 16.4206 14.2722C16.5791 13.6999 16.5875 13.0963 16.4451 12.5197L15.8013 9.94342L17.0148 9.01481C18.0278 8.22692 18.8287 7.1993 19.3454 6.02462C19.8622 4.84994 20.0784 3.56512 19.9747 2.28601ZM4.32628 7.33292H3.16093L5.12323 5.37062C5.38981 5.10618 5.72 4.91486 6.08199 4.81507C6.44398 4.71529 6.82556 4.71042 7.18998 4.80092L9.23394 5.31175L6.96653 8.27103C6.22143 7.66239 5.28837 7.33087 4.32628 7.33292ZM7.2748 13.9301L6.08603 12.7413L6.84183 11.9861L8.02997 13.1743L7.2748 13.9301ZM15.2177 12.8267C15.308 13.1912 15.303 13.5727 15.2032 13.9346C15.1034 14.2966 14.9122 14.6268 14.648 14.8935L12.6857 16.8558V15.6898C12.6881 14.7282 12.3573 13.7954 11.7495 13.0502L14.7094 10.7828L15.2177 12.8267ZM16.2463 8.0077L9.68274 13.0369L9.37257 12.7267L7.28936 10.6435L6.97919 10.3334L12.0084 3.7704C12.6715 2.92346 13.5349 2.25475 14.5208 1.82446C15.5067 1.39418 16.5841 1.21584 17.656 1.30549C17.9273 1.33038 18.1813 1.44948 18.374 1.64212C18.5666 1.83476 18.6857 2.08878 18.7106 2.36007C18.8005 3.43197 18.6223 4.5094 18.1921 5.49529C17.762 6.48119 17.0933 7.34458 16.2463 8.0077Z" fill="#6754E2"/>
<path d="M2.22676 14.8076C1.01393 16.0205 1 18.2847 1 18.3803C1 18.5482 1.06669 18.7092 1.1854 18.8279C1.30411 18.9466 1.46512 19.0133 1.633 19.0133C1.72858 19.0133 3.99283 18.9994 5.20566 17.7866C5.60063 17.3915 5.82251 16.8557 5.82251 16.2971C5.82251 15.7385 5.60063 15.2027 5.20566 14.8076C4.80436 14.4246 4.27094 14.2109 3.71621 14.2109C3.16147 14.2109 2.62805 14.4246 2.22676 14.8076ZM4.31059 16.8909C3.7418 17.3487 3.04975 17.6272 2.32234 17.691C2.38607 16.9636 2.66457 16.2715 3.12245 15.7027C3.20047 15.6247 3.29308 15.5628 3.39501 15.5206C3.49694 15.4784 3.60619 15.4566 3.71652 15.4566C3.82685 15.4566 3.9361 15.4784 4.03803 15.5206C4.13996 15.5628 4.23258 15.6247 4.31059 15.7027C4.38861 15.7807 4.45049 15.8733 4.49271 15.9753C4.53494 16.0772 4.55667 16.1865 4.55667 16.2968C4.55667 16.4071 4.53494 16.5164 4.49271 16.6183C4.45049 16.7202 4.38861 16.8128 4.31059 16.8909Z" fill="#6754E2"/>
<path d="M13.1654 3.87203C12.8709 4.16659 12.6704 4.54185 12.5892 4.95035C12.508 5.35885 12.5498 5.78225 12.7092 6.16703C12.8686 6.5518 13.1386 6.88066 13.4849 7.11203C13.8312 7.34341 14.2383 7.4669 14.6548 7.4669C15.0713 7.4669 15.4785 7.34341 15.8248 7.11203C16.1711 6.88066 16.441 6.5518 16.6004 6.16703C16.7599 5.78225 16.8016 5.35885 16.7204 4.95035C16.6392 4.54185 16.4387 4.16659 16.1443 3.87203C15.9498 3.67437 15.718 3.51739 15.4622 3.41026C15.2065 3.30313 14.932 3.24799 14.6547 3.24805C14.3774 3.24811 14.1029 3.30337 13.8472 3.41061C13.5915 3.51785 13.3597 3.67492 13.1654 3.87267V3.87203ZM15.2492 5.95587C15.1719 6.03713 15.0792 6.1021 14.9764 6.14696C14.8736 6.19182 14.7629 6.21566 14.6507 6.21708C14.5386 6.2185 14.4273 6.19746 14.3234 6.15522C14.2196 6.11297 14.1252 6.05037 14.0459 5.97109C13.9665 5.89181 13.9039 5.79747 13.8616 5.69361C13.8193 5.58975 13.7982 5.47847 13.7995 5.36634C13.8009 5.2542 13.8247 5.14347 13.8695 5.04067C13.9143 4.93786 13.9792 4.84506 14.0604 4.76773C14.1377 4.68647 14.2305 4.6215 14.3333 4.57664C14.4361 4.53178 14.5468 4.50794 14.6589 4.50653C14.771 4.50511 14.8823 4.52614 14.9862 4.56839C15.0901 4.61063 15.1845 4.67324 15.2638 4.75251C15.3431 4.83179 15.4058 4.92614 15.4481 5.02999C15.4904 5.13385 15.5115 5.24513 15.5101 5.35726C15.5087 5.4694 15.485 5.58013 15.4402 5.68294C15.3953 5.78574 15.3304 5.87854 15.2492 5.95587Z" fill="#6754E2"/>
</svg>
