<svg width="21" height="20" viewBox="0 0 21 20" fill="none" xmlns="http://www.w3.org/2000/svg">
<mask id="mask0_6241_94765" style="mask-type:alpha" maskUnits="userSpaceOnUse" x="2" y="2" width="17" height="16">
<rect x="2.5" y="2" width="16" height="16" fill="#D9D9D9"/>
</mask>
<g mask="url(#mask0_6241_94765)">
<path d="M2.5 16.6667V6.88889L8.9 2L13.2 5.3C12.8667 5.34074 12.5533 5.41883 12.26 5.53426C11.9667 5.64969 11.6867 5.80247 11.42 5.99259L8.9 4.03704L4.1 7.7037V15.037H7.3V16.6667H2.5ZM8.9 16.6667V15.1185C8.9 14.8333 8.97 14.5651 9.11 14.3139C9.25 14.0627 9.44 13.8623 9.68 13.713C10.2933 13.3463 10.9367 13.0679 11.61 12.8778C12.2833 12.6877 12.98 12.5926 13.7 12.5926C14.42 12.5926 15.1167 12.6877 15.79 12.8778C16.4633 13.0679 17.1067 13.3463 17.72 13.713C17.96 13.8623 18.15 14.0627 18.29 14.3139C18.43 14.5651 18.5 14.8333 18.5 15.1185V16.6667H8.9ZM10.62 15.037H16.78C16.3133 14.7654 15.82 14.5617 15.3 14.4259C14.78 14.2901 14.2467 14.2222 13.7 14.2222C13.1533 14.2222 12.62 14.2901 12.1 14.4259C11.58 14.5617 11.0867 14.7654 10.62 15.037ZM13.7 11.7778C13.0333 11.7778 12.4667 11.5401 12 11.0648C11.5333 10.5895 11.3 10.0123 11.3 9.33333C11.3 8.65432 11.5333 8.07716 12 7.60185C12.4667 7.12654 13.0333 6.88889 13.7 6.88889C14.3667 6.88889 14.9333 7.12654 15.4 7.60185C15.8667 8.07716 16.1 8.65432 16.1 9.33333C16.1 10.0123 15.8667 10.5895 15.4 11.0648C14.9333 11.5401 14.3667 11.7778 13.7 11.7778ZM13.7 10.1481C13.9267 10.1481 14.1167 10.0701 14.27 9.91389C14.4233 9.75772 14.5 9.5642 14.5 9.33333C14.5 9.10247 14.4233 8.90895 14.27 8.75278C14.1167 8.59661 13.9267 8.51852 13.7 8.51852C13.4733 8.51852 13.2833 8.59661 13.13 8.75278C12.9767 8.90895 12.9 9.10247 12.9 9.33333C12.9 9.5642 12.9767 9.75772 13.13 9.91389C13.2833 10.0701 13.4733 10.1481 13.7 10.1481Z" fill="#624DE3"/>
</g>
</svg>
