<svg width="21" height="21" viewBox="0 0 21 21" fill="none" xmlns="http://www.w3.org/2000/svg">
<g clip-path="url(#clip0_5529_87441)">
<path d="M3.46562 17.072H8.36061C8.76732 17.0716 9.15726 16.9099 9.44485 16.6223C9.73244 16.3347 9.89418 15.9447 9.89459 15.538V11.4812C9.89418 11.0745 9.73244 10.6846 9.44485 10.397C9.15726 10.1094 8.76732 9.94768 8.36061 9.94727H3.46562C3.05891 9.94768 2.66898 10.1094 2.38139 10.397C2.0938 10.6846 1.93205 11.0745 1.93164 11.4812V15.538C1.93205 15.9447 2.0938 16.3347 2.38139 16.6223C2.66898 16.9099 3.05891 17.0716 3.46562 17.072ZM3.18895 11.4812C3.189 11.4079 3.21816 11.3375 3.27004 11.2857C3.32192 11.2338 3.39226 11.2046 3.46562 11.2046H8.36061C8.43398 11.2046 8.50432 11.2338 8.5562 11.2857C8.60807 11.3375 8.63724 11.4079 8.63729 11.4812V15.538C8.63724 15.6114 8.60807 15.6817 8.5562 15.7336C8.50432 15.7855 8.43398 15.8147 8.36061 15.8147H3.46562C3.39226 15.8147 3.32192 15.7855 3.27004 15.7336C3.21816 15.6817 3.189 15.6114 3.18895 15.538V11.4812Z" fill="#6754E2"/>
<path d="M18.4192 9.94727H13.5242C13.1175 9.94775 12.7276 10.1095 12.4401 10.3971C12.1525 10.6847 11.9907 11.0746 11.9902 11.4812V15.538C11.9907 15.9447 12.1525 16.3346 12.4401 16.6222C12.7276 16.9098 13.1175 17.0715 13.5242 17.072H18.4192C18.8259 17.0715 19.2158 16.9098 19.5034 16.6222C19.7909 16.3346 19.9527 15.9447 19.9532 15.538V11.4812C19.9527 11.0746 19.7909 10.6847 19.5034 10.3971C19.2158 10.1095 18.8259 9.94775 18.4192 9.94727ZM18.6959 15.538C18.6958 15.6114 18.6666 15.6817 18.6147 15.7335C18.5629 15.7854 18.4925 15.8146 18.4192 15.8147H13.5242C13.4509 15.8146 13.3806 15.7854 13.3287 15.7335C13.2768 15.6817 13.2477 15.6114 13.2475 15.538V11.4812C13.2477 11.4079 13.2768 11.3376 13.3287 11.2857C13.3806 11.2339 13.4509 11.2047 13.5242 11.2046H18.4192C18.4925 11.2047 18.5629 11.2339 18.6147 11.2857C18.6666 11.3376 18.6958 11.4079 18.6959 11.4812V15.538Z" fill="#6754E2"/>
<path d="M19.3244 5.75649H13.1492C13.015 5.27436 12.7266 4.84944 12.328 4.54671C11.9295 4.24397 11.4428 4.08008 10.9424 4.08008C10.4419 4.08008 9.95519 4.24397 9.55667 4.54671C9.15815 4.84944 8.86973 5.27436 8.73552 5.75649H2.56029C2.39357 5.75649 2.23366 5.82273 2.11577 5.94062C1.99787 6.05852 1.93164 6.21842 1.93164 6.38515C1.93164 6.55188 1.99787 6.71178 2.11577 6.82967C2.23366 6.94757 2.39357 7.0138 2.56029 7.0138H8.73552C8.86973 7.49594 9.15815 7.92085 9.55667 8.22359C9.95519 8.52632 10.4419 8.69022 10.9424 8.69022C11.4428 8.69022 11.9295 8.52632 12.328 8.22359C12.7266 7.92085 13.015 7.49594 13.1492 7.0138H19.3244C19.4911 7.0138 19.651 6.94757 19.7689 6.82967C19.8868 6.71178 19.9531 6.55188 19.9531 6.38515C19.9531 6.21842 19.8868 6.05852 19.7689 5.94062C19.651 5.82273 19.4911 5.75649 19.3244 5.75649ZM10.9424 7.43291C10.7351 7.43291 10.5326 7.37146 10.3602 7.25633C10.1879 7.1412 10.0537 6.97756 9.97435 6.78611C9.89505 6.59466 9.8743 6.38399 9.91473 6.18074C9.95516 5.9775 10.0549 5.7908 10.2015 5.64427C10.348 5.49774 10.5347 5.39795 10.7379 5.35752C10.9412 5.3171 11.1519 5.33784 11.3433 5.41715C11.5348 5.49645 11.6984 5.63074 11.8135 5.80305C11.9287 5.97535 11.9901 6.17792 11.9901 6.38515C11.9899 6.66295 11.8794 6.9293 11.6829 7.12574C11.4865 7.32218 11.2202 7.43265 10.9424 7.43291Z" fill="#6754E2"/>
</g>
<defs>
<clipPath id="clip0_5529_87441">
<rect width="20" height="20" fill="white" transform="translate(0.941406 0.576172)"/>
</clipPath>
</defs>
</svg>
