<svg width="21" height="21" viewBox="0 0 21 21" fill="none" xmlns="http://www.w3.org/2000/svg">
<g clip-path="url(#clip0_5529_87447)">
<path d="M6.76238 12.6965L10.6125 16.861C10.7009 16.9567 10.8207 17.0044 10.9406 17.0044C11.0606 17.0044 11.1801 16.9567 11.2687 16.861L15.1187 12.6967C16.5364 11.4797 17.4155 9.65504 17.3546 7.62676C17.2541 4.29842 14.5719 1.5694 11.2456 1.41527C11.157 1.41126 11.0692 1.40973 10.9815 1.40916C10.9679 1.40916 10.954 1.4082 10.9404 1.4082C7.3957 1.4082 4.52344 4.2818 4.52344 7.82519C4.52344 9.77384 5.39224 11.5195 6.76238 12.6965ZM10.9609 2.69947C10.9609 2.69947 11.1242 2.69718 11.1962 2.70042C13.8513 2.82342 15.9888 5.00469 16.069 7.66343C16.116 9.22341 15.4622 10.7011 14.2802 11.7156L14.2224 11.7647L14.1712 11.8197L10.9408 15.3136L7.71064 11.8199L7.66022 11.7655L7.60387 11.7171C6.46674 10.7404 5.8147 9.32177 5.8147 7.82519C5.81451 4.99896 8.13444 2.69947 10.9609 2.69947Z" fill="#6754E2"/>
<path d="M10.9398 10.5923C12.5533 10.5923 13.8657 9.27962 13.8657 7.66616C13.8657 6.05289 12.5531 4.74023 10.9398 4.74023C9.32633 4.74023 8.01367 6.05289 8.01367 7.66616C8.01367 9.27962 9.32633 10.5923 10.9398 10.5923ZM10.9398 6.0315C11.8413 6.0315 12.5746 6.76489 12.5746 7.66635C12.5746 8.56781 11.8413 9.30121 10.9398 9.30121C10.0383 9.30121 9.30494 8.56781 9.30494 7.66635C9.30494 6.76489 10.0383 6.0315 10.9398 6.0315Z" fill="#6754E2"/>
<path d="M16.3495 13.9415C16.0022 13.86 15.655 14.076 15.5739 14.423C15.4927 14.7702 15.7083 15.1174 16.0553 15.1986C18.1403 15.6862 18.8147 16.3283 18.8147 16.563C18.8147 17.1276 16.1357 18.4513 10.9407 18.4513C5.74564 18.4513 3.06666 17.1278 3.06666 16.563C3.06666 16.3025 3.83557 15.6054 6.21203 15.1138C6.56116 15.0416 6.78557 14.6999 6.71337 14.3508C6.64118 14.0015 6.29969 13.7777 5.95038 13.8493C4.04585 14.2435 1.77539 15.034 1.77539 16.563C1.77577 18.7475 6.52659 19.7426 10.9409 19.7426C15.3552 19.7426 20.106 18.7475 20.106 16.5632C20.106 15.4228 18.8071 14.5162 16.3495 13.9415Z" fill="#6754E2"/>
</g>
<defs>
<clipPath id="clip0_5529_87447">
<rect width="20" height="20" fill="white" transform="translate(0.941406 0.576172)"/>
</clipPath>
</defs>
</svg>
