<svg width="21" height="21" viewBox="0 0 21 21" fill="none" xmlns="http://www.w3.org/2000/svg">
<g clip-path="url(#clip0_5529_87451)">
<path d="M4.04141 8.17617H17.8414V13.9762H10.4414V13.9761L10.439 13.9762C10.3336 13.9788 10.2308 14.0097 10.1416 14.0658C10.1214 14.0776 10.102 14.0907 10.0835 14.1049C10.0029 14.1629 9.93819 14.2402 9.89524 14.3295L9.88317 14.3437L9.88094 14.3656C9.85526 14.4326 9.84186 14.5037 9.84141 14.5755L9.84048 14.5755L9.84224 14.5891C9.84534 14.6129 9.84995 14.6364 9.85603 14.6596C9.8593 14.683 9.86408 14.7062 9.87034 14.7289C9.89439 14.83 9.94446 14.923 10.0156 14.9988L10.0156 14.9988L10.0178 15.001L11.0172 16.0004C11.0172 16.0004 11.0172 16.0004 11.0172 16.0004C11.0729 16.0561 11.139 16.1003 11.2118 16.1305C11.2846 16.1606 11.3626 16.1762 11.4414 16.1762C11.5202 16.1762 11.5982 16.1606 11.671 16.1305C11.7438 16.1003 11.8099 16.0561 11.8656 16.0004C11.8656 16.0004 11.8656 16.0004 11.8656 16.0004L12.6898 15.1762H17.8414V16.0761C17.8408 16.5798 17.6405 17.0628 17.2842 17.419C16.928 17.7752 16.4451 17.9756 15.9413 17.9762H5.94152C5.43776 17.9756 4.95479 17.7752 4.59858 17.419C4.24239 17.0628 4.04201 16.5799 4.04141 16.0762C4.04141 16.0761 4.04141 16.0761 4.04141 16.0761L4.04141 8.17617ZM15.9414 2.97617H15.0414V2.57617C15.0414 2.41704 14.9782 2.26443 14.8657 2.15191C14.7531 2.03939 14.6005 1.97617 14.4414 1.97617C14.2823 1.97617 14.1297 2.03939 14.0171 2.15191C13.9046 2.26443 13.8414 2.41704 13.8414 2.57617V2.97617H8.04141V2.57617C8.04141 2.41704 7.97819 2.26443 7.86567 2.15191C7.75315 2.03939 7.60054 1.97617 7.44141 1.97617C7.28228 1.97617 7.12966 2.03939 7.01714 2.15191C6.90462 2.26443 6.84141 2.41704 6.84141 2.57617V2.97617H5.94141C5.11924 2.97617 4.33074 3.30278 3.74938 3.88414C3.16801 4.4655 2.84141 5.254 2.84141 6.07617V16.0762C2.84141 16.8983 3.16801 17.6868 3.74938 18.2682C4.33074 18.8496 5.11924 19.1762 5.94141 19.1762H15.9414C16.7636 19.1762 17.5521 18.8496 18.1334 18.2682C18.7148 17.6868 19.0414 16.8983 19.0414 16.0762V6.07617C19.0414 5.254 18.7148 4.4655 18.1334 3.88414C17.5521 3.30278 16.7636 2.97617 15.9414 2.97617ZM4.04141 6.07629C4.04141 6.07625 4.04141 6.07622 4.04141 6.07619C4.04141 6.07618 4.04141 6.07618 4.04141 6.07617C4.04201 5.57245 4.24239 5.08953 4.59858 4.73334C4.95479 4.37713 5.43776 4.17675 5.94152 4.17617H6.84141V4.57617C6.84141 4.7353 6.90462 4.88791 7.01714 5.00044C7.12966 5.11296 7.28228 5.17617 7.44141 5.17617C7.60054 5.17617 7.75315 5.11296 7.86567 5.00044C7.97819 4.88791 8.04141 4.7353 8.04141 4.57617V4.17617H13.8414V4.57617C13.8414 4.7353 13.9046 4.88791 14.0171 5.00044C14.1297 5.11296 14.2823 5.17617 14.4414 5.17617C14.6005 5.17617 14.7531 5.11296 14.8657 5.00044C14.9782 4.88791 15.0414 4.7353 15.0414 4.57617V4.17617H15.9413C16.4451 4.17675 16.928 4.37713 17.2842 4.73334C17.6405 5.08956 17.8408 5.57252 17.8414 6.07629V6.97617H4.04141L4.04141 6.07629Z" fill="#6754E2" stroke="#6754E2" stroke-width="0.2"/>
<path d="M6.44141 10.9761V10.9762L13.4413 10.9762C13.4414 10.9762 13.4414 10.9762 13.4414 10.9762C13.5202 10.9761 13.5982 10.9916 13.671 11.0218C13.7439 11.0519 13.81 11.0961 13.8658 11.1518C13.9215 11.2076 13.9657 11.2737 13.9958 11.3465L6.44141 10.9761ZM6.44141 10.9761L6.43896 10.9762M6.44141 10.9761L6.43896 10.9762M6.43896 10.9762C6.33357 10.9788 6.23083 11.0097 6.14156 11.0658C6.12141 11.0776 6.10202 11.0907 6.08349 11.1049C6.00289 11.1629 5.93819 11.2402 5.89524 11.3295M6.43896 10.9762L5.89524 11.3295M5.89524 11.3295L5.88316 11.3437L5.88094 11.3656C5.85526 11.4326 5.84186 11.5037 5.84141 11.5755L5.84048 11.5755L5.84224 11.5891C5.84534 11.6129 5.84995 11.6364 5.85603 11.6596C5.8593 11.683 5.86408 11.7062 5.87034 11.7289C5.89439 11.83 5.94447 11.923 6.01561 11.9988L6.01557 11.9988L6.01779 12.001L7.01716 13.0004L7.01718 13.0004L7.08789 12.9297C7.1343 12.9761 7.18941 13.013 7.25007 13.0381C7.31072 13.0632 7.37573 13.0762 7.44139 13.0762C7.50704 13.0762 7.57205 13.0632 7.63271 13.0381C7.69336 13.013 7.74847 12.9761 7.79489 12.9297M5.89524 11.3295L7.8656 13.0004L7.79489 12.9297M7.79489 12.9297L7.86561 13.0004L8.68983 12.1762M7.79489 12.9297L8.64841 12.0762M8.64841 12.0762V12.1762H8.68983M8.64841 12.0762L8.71912 12.1469L8.68983 12.1762M8.64841 12.0762H13.4414M8.68983 12.1762H13.4413M13.4413 12.1762L13.4414 12.0762M13.4413 12.1762H13.4414V12.0762M13.4413 12.1762L13.4414 12.0762" fill="#6754E2" stroke="#6754E2" stroke-width="0.2"/>
</g>
<defs>
<clipPath id="clip0_5529_87451">
<rect width="20" height="20" fill="white" transform="translate(0.941406 0.576172)"/>
</clipPath>
</defs>
</svg>
