<svg width="21" height="21" viewBox="0 0 21 21" fill="none" xmlns="http://www.w3.org/2000/svg">
<path d="M18.2081 4.11852L18.208 4.11845C18.0244 3.93408 17.7753 3.8312 17.5151 3.8312H6.26406C5.72324 3.8312 5.28447 4.26989 5.28447 4.81069V5.77629H12.7176L14.5237 5.27532L14.5247 5.27505L14.5247 5.27506C14.5642 5.26497 14.6057 5.25878 14.6488 5.2596M18.2081 4.11852L14.6483 5.3096M18.2081 4.11852C18.3918 4.3022 18.4946 4.55129 18.4946 4.81069V5.25884M18.2081 4.11852L18.5446 5.30883M14.6488 5.2596C14.649 5.2596 14.6491 5.25961 14.6493 5.25961L14.6483 5.3096M14.6488 5.2596H14.6483L14.6483 5.3096M14.6488 5.2596L18.4946 5.25884M14.6483 5.3096L18.4946 5.30883V5.25884M18.4946 5.25884L18.5446 5.25883L18.5446 5.30883M18.5446 5.30883V4.81069C18.5446 4.53806 18.4365 4.27624 18.2434 4.08316C18.0504 3.88932 17.7885 3.7812 17.5151 3.7812H6.26406C5.69563 3.7812 5.23447 4.24227 5.23447 4.81069L18.5446 5.30883ZM15.124 17.324H15.1241C15.745 17.3247 16.2972 16.9373 16.51 16.3591H6.26402C5.21309 16.3591 4.36046 15.5072 4.36046 14.4555V5.8072C3.77968 6.01858 3.38845 6.57094 3.3877 7.19413C3.3877 7.19414 3.3877 7.19416 3.3877 7.19418M15.124 17.324L3.3377 7.19413L3.3877 7.19418M15.124 17.324H4.86153H15.124ZM3.3877 7.19418V15.8502M3.3877 7.19418V15.8502M3.3877 15.8502L3.3877 15.8502L3.3877 15.8502ZM9.20511 4.29793C9.00663 4.29716 8.82667 4.41608 8.75021 4.5999C8.67453 4.78294 8.71623 4.99454 8.85679 5.13511L9.20511 4.29793ZM9.20511 4.29793C9.47389 4.29947 9.69241 4.51724 9.6932 4.78601M9.20511 4.29793L9.6932 4.78601M9.6932 4.78601L9.7432 4.78587C9.7432 4.78585 9.7432 4.78584 9.7432 4.78582C9.7423 4.48944 9.50142 4.24963 9.2054 4.24793L9.20531 4.24793C8.98663 4.24708 8.78832 4.3781 8.70405 4.58069L8.70401 4.58079C8.62062 4.78244 8.66654 5.01552 8.82139 5.17041C8.97557 5.32541 9.20881 5.3713 9.41051 5.28705L9.39123 5.24091C9.57504 5.16446 9.69397 4.98527 9.6932 4.78601ZM11.8905 7.5125H11.8905C12.8662 7.51407 13.801 7.90338 14.49 8.59393C15.179 9.28439 15.5658 10.22 15.5658 11.1956V11.1956C15.5642 12.1705 15.1751 13.1045 14.4845 13.7935L14.4845 13.7935C13.7938 14.4818 12.859 14.8678 11.8834 14.8662C10.9086 14.8647 9.97452 14.4763 9.28553 13.7865L9.28549 13.7865C8.59731 13.0959 8.21049 12.161 8.21205 11.1862C8.21205 11.1862 8.21205 11.1862 8.21205 11.1862L8.26205 11.1863C8.26282 10.2239 8.64512 9.30254 9.3263 8.6229L11.8905 7.5125ZM11.8905 7.5125C10.9157 7.51172 9.98081 7.89852 9.29097 8.58752L11.8905 7.5125ZM2.46367 7.19373V7.19397L2.46367 15.8578L2.46367 15.858C2.46919 17.1792 3.54111 18.2463 4.86146 18.2479H4.86152H15.124H15.1241C16.2541 18.2471 17.2285 17.4594 17.4692 16.3588H17.5151C18.566 16.3588 19.4186 15.507 19.4186 14.4553V4.81059C19.4186 3.75965 18.5661 2.90713 17.5151 2.90713H6.26406C5.21312 2.90713 4.36049 3.75975 4.36049 4.81069V4.85872C3.26061 5.09414 2.46914 6.06469 2.46367 7.19373ZM15.124 17.374H4.86148H15.124ZM17.5647 15.4345L17.5646 15.4272H17.5151H6.26406C5.72325 15.4272 5.28456 14.9885 5.28456 14.4477V6.69195H12.7785C12.8197 6.69195 12.862 6.68682 12.9031 6.67547L12.9031 6.67546L14.7092 6.17449L18.4947 6.17525V14.4555C18.4947 14.7157 18.3918 14.9648 18.2082 15.1485C18.0361 15.3205 17.8067 15.4223 17.5647 15.4345ZM7.475 5.28708L7.47507 5.28705L7.75699 4.78601L7.80699 4.78587C7.80699 4.78585 7.80699 4.78584 7.80699 4.78582C7.8061 4.4895 7.56603 4.24963 7.26919 4.24793L7.2691 4.24793C7.05033 4.24708 6.85285 4.37818 6.76861 4.58069C6.68437 4.78244 6.73036 5.01559 6.88523 5.17046C7.04013 5.32537 7.27252 5.3713 7.475 5.28708ZM11.6794 4.78582L11.6794 4.78573C11.6777 4.49218 11.442 4.25302 11.1483 4.24791L11.1483 4.24791C10.9288 4.24451 10.7287 4.3738 10.6427 4.57564C10.556 4.77738 10.6003 5.01135 10.7543 5.16785L10.7544 5.16805C10.9092 5.32361 11.1422 5.37137 11.3449 5.28792L11.345 5.28788C11.5483 5.20367 11.6803 5.0054 11.6794 4.78582ZM11.6294 4.78601C11.6302 4.98527 11.5105 5.16523 11.3259 5.24169C11.1421 5.31737 10.9305 5.27412 10.7899 5.13279L11.6294 4.78601ZM14.5999 10.7339H13.6979C13.6702 10.0858 13.5417 9.44605 13.3179 8.83765C13.9982 9.25366 14.4673 9.94499 14.5999 10.7339ZM10.0814 10.7339H9.1793C9.31128 9.9436 9.78101 9.25219 10.4633 8.83744C10.2376 9.44531 10.1091 10.0851 10.0814 10.7339ZM10.0798 11.6571C10.1069 12.3058 10.2359 12.9455 10.4611 13.5533C9.78019 13.1379 9.31126 12.4466 9.17932 11.6571H10.0798ZM14.5981 11.6571C14.4629 12.4402 13.9965 13.1255 13.3208 13.5392C13.542 12.935 13.668 12.3001 13.6955 11.6571H14.5981ZM11.8904 13.9406C11.8258 13.9406 11.7419 13.8956 11.6474 13.7884C11.5546 13.6831 11.4587 13.5257 11.3699 13.3208C11.1968 12.9214 11.0533 12.349 11.0083 11.6518H12.7703C12.7256 12.3468 12.5824 12.9192 12.4095 13.3191C12.3208 13.5243 12.2251 13.6822 12.1324 13.7879C12.0381 13.8955 11.9545 13.9406 11.8904 13.9406ZM11.0091 10.7339C11.0541 10.0414 11.1975 9.4685 11.3707 9.06737C11.4596 8.86152 11.5554 8.70279 11.6484 8.59645C11.743 8.4882 11.8268 8.4427 11.8912 8.4427C11.9556 8.4427 12.0393 8.4875 12.1335 8.59433C12.2261 8.69937 12.3216 8.85651 12.4102 9.0613C12.5828 9.46049 12.7257 10.0335 12.7703 10.7339H11.0091Z" fill="#6754E2" stroke="#6754E2" stroke-width="0.1"/>
</svg>
