<svg width="21" height="20" viewBox="0 0 21 20" fill="none" xmlns="http://www.w3.org/2000/svg">
<path d="M11 12.7C11.875 12.7 12.6641 12.4937 13.3672 12.0812C14.0703 11.6687 14.625 11.125 15.0312 10.45C14.4844 10.015 13.8672 9.68125 13.1797 9.44875C12.4922 9.21625 11.7656 9.1 11 9.1C10.2344 9.1 9.50781 9.21625 8.82031 9.44875C8.13281 9.68125 7.51562 10.015 6.96875 10.45C7.375 11.125 7.92969 11.6687 8.63281 12.0812C9.33594 12.4937 10.125 12.7 11 12.7ZM11 8.2C11.5156 8.2 11.957 8.02375 12.3242 7.67125C12.6914 7.31875 12.875 6.895 12.875 6.4C12.875 5.905 12.6914 5.48125 12.3242 5.12875C11.957 4.77625 11.5156 4.6 11 4.6C10.4844 4.6 10.043 4.77625 9.67578 5.12875C9.30859 5.48125 9.125 5.905 9.125 6.4C9.125 6.895 9.30859 7.31875 9.67578 7.67125C10.043 8.02375 10.4844 8.2 11 8.2ZM11 16.615C12.9062 14.935 14.3203 13.4087 15.2422 12.0362C16.1641 10.6637 16.625 9.445 16.625 8.38C16.625 6.745 16.082 5.40625 14.9961 4.36375C13.9102 3.32125 12.5781 2.8 11 2.8C9.42188 2.8 8.08984 3.32125 7.00391 4.36375C5.91797 5.40625 5.375 6.745 5.375 8.38C5.375 9.445 5.83594 10.6637 6.75781 12.0362C7.67969 13.4087 9.09375 14.935 11 16.615ZM11 19C8.48438 16.945 6.60547 15.0362 5.36328 13.2737C4.12109 11.5112 3.5 9.88 3.5 8.38C3.5 6.13 4.25391 4.3375 5.76172 3.0025C7.26953 1.6675 9.01562 1 11 1C12.9844 1 14.7305 1.6675 16.2383 3.0025C17.7461 4.3375 18.5 6.13 18.5 8.38C18.5 9.88 17.8789 11.5112 16.6367 13.2737C15.3945 15.0362 13.5156 16.945 11 19Z" fill="#624DE3"/>
</svg>
