<svg width="20" height="20" viewBox="0 0 20 20" fill="none" xmlns="http://www.w3.org/2000/svg">
<g clip-path="url(#clip0_5760_91785)">
<mask id="path-1-outside-1_5760_91785" maskUnits="userSpaceOnUse" x="1.00391" y="0" width="17" height="21" fill="black">
<rect fill="white" x="1.00391" width="17" height="21"/>
<path fill-rule="evenodd" clip-rule="evenodd" d="M7.74118 1C5.55393 1 3.76066 2.76102 3.76066 4.92596C3.76066 6.2743 4.45687 7.46398 5.50978 8.16995C3.45155 9.0209 2.00391 11.0142 2.00391 13.3464V16.8315C2.0045 16.9791 2.06347 17.1205 2.16794 17.2247C2.27241 17.329 2.41389 17.3877 2.56149 17.388H6.93263C7.006 17.3883 7.0787 17.3741 7.1466 17.3463C7.21449 17.3185 7.27623 17.2776 7.32831 17.2259C7.3804 17.1742 7.42179 17.1128 7.45013 17.0451C7.47847 16.9775 7.4932 16.9049 7.49349 16.8315C7.4932 16.7581 7.47847 16.6855 7.45013 16.6179C7.42178 16.5502 7.38039 16.4888 7.32831 16.4371C7.27623 16.3854 7.21448 16.3445 7.14659 16.3167C7.0787 16.2889 7.006 16.2747 6.93263 16.275H3.12234V13.3464C3.12234 10.8508 5.16324 8.84755 7.74118 8.84755C8.98398 8.84755 10.1017 9.3168 10.9284 10.0806C11.0374 10.1804 11.1814 10.233 11.3291 10.2269C11.4767 10.2208 11.6159 10.1564 11.7162 10.0478C11.8166 9.93944 11.87 9.7957 11.8647 9.64806C11.8594 9.50042 11.7958 9.3609 11.6879 9.26002C11.1928 8.80261 10.6129 8.43125 9.97475 8.16887C11.0282 7.4628 11.725 6.27378 11.725 4.92597C11.725 2.76103 9.92842 1 7.74118 1ZM7.74118 2.11734C9.33508 2.11734 10.6065 3.37557 10.6065 4.92596C10.6065 6.47635 9.33508 7.73022 7.74118 7.73022C6.14728 7.73022 4.87909 6.47635 4.87909 4.92596C4.87909 3.37557 6.14728 2.11734 7.74118 2.11734ZM11.8603 10.7178C11.7895 10.7174 11.7194 10.731 11.6539 10.7578C11.5884 10.7846 11.5289 10.8241 11.4786 10.8739C11.4283 10.9238 11.3884 10.9831 11.361 11.0484C11.3336 11.1137 11.3194 11.1838 11.3191 11.2546V11.8111C11.1705 11.8622 11.0269 11.9221 10.8859 11.9912L10.4931 11.6005C10.443 11.5501 10.3835 11.5101 10.318 11.4828C10.2524 11.4555 10.1821 11.4415 10.1112 11.4415C10.0402 11.4415 9.96989 11.4555 9.90435 11.4828C9.83881 11.5101 9.7793 11.5501 9.72925 11.6005L8.77886 12.552C8.67852 12.6531 8.6222 12.7898 8.6222 12.9323C8.6222 13.0748 8.67852 13.2115 8.77886 13.3125L9.17277 13.7064C9.10287 13.8494 9.04092 13.9934 8.98946 14.144H8.43733C8.36659 14.1438 8.29651 14.1575 8.23107 14.1845C8.16564 14.2114 8.10615 14.251 8.05599 14.3009C8.00584 14.3509 7.966 14.4102 7.93875 14.4756C7.91151 14.541 7.89739 14.6111 7.89721 14.6819V16.0273C7.89696 16.0984 7.91076 16.1689 7.93781 16.2346C7.96486 16.3004 8.00463 16.3601 8.05483 16.4104C8.10503 16.4607 8.16467 16.5006 8.23032 16.5277C8.29596 16.5549 8.36632 16.5687 8.43733 16.5685H8.99382C9.04494 16.7174 9.10367 16.8614 9.17278 17.0028L8.77887 17.3967C8.72854 17.4468 8.68859 17.5064 8.66133 17.5721C8.63407 17.6377 8.62004 17.7081 8.62004 17.7792C8.62004 17.8502 8.63407 17.9206 8.66133 17.9863C8.68859 18.0519 8.72854 18.1115 8.77887 18.1616L9.72927 19.1131C9.77932 19.1635 9.83882 19.2035 9.90436 19.2308C9.9699 19.2581 10.0402 19.2721 10.1112 19.2721C10.1822 19.2721 10.2524 19.2581 10.318 19.2308C10.3835 19.2035 10.443 19.1635 10.4931 19.1131L10.8859 18.7181C11.0271 18.7873 11.1704 18.8469 11.3191 18.8981V19.4557C11.319 19.5268 11.3329 19.5973 11.3601 19.663C11.3873 19.7287 11.4272 19.7883 11.4775 19.8385C11.5278 19.8887 11.5875 19.9285 11.6532 19.9555C11.7189 19.9825 11.7893 19.9962 11.8603 19.9958H13.2035C13.3462 19.9954 13.4828 19.9382 13.5835 19.837C13.6841 19.7357 13.7405 19.5986 13.7403 19.4557V18.9025C13.8907 18.8509 14.0351 18.788 14.1779 18.7181L14.5707 19.1131C14.6716 19.2135 14.8081 19.2699 14.9504 19.2699C15.0927 19.2699 15.2292 19.2135 15.3301 19.1131L16.2816 18.1616C16.332 18.1115 16.3719 18.0519 16.3992 17.9862C16.4264 17.9206 16.4405 17.8502 16.4405 17.7791C16.4405 17.7081 16.4264 17.6377 16.3992 17.572C16.3719 17.5064 16.332 17.4468 16.2816 17.3967L15.891 17.0028C15.96 16.8615 16.0189 16.7172 16.0699 16.5685H16.6253C16.6962 16.5684 16.7663 16.5544 16.8317 16.5271C16.8971 16.4998 16.9564 16.4599 17.0064 16.4097C17.0564 16.3594 17.096 16.2997 17.1229 16.2341C17.1498 16.1685 17.1635 16.0982 17.1633 16.0273V14.6819C17.1629 14.5392 17.1061 14.4025 17.0053 14.3017C16.9044 14.2009 16.7678 14.1442 16.6253 14.144H16.0776C16.0256 13.9918 15.9618 13.8476 15.891 13.7032L16.2816 13.3125C16.382 13.2115 16.4383 13.0748 16.4383 12.9323C16.4383 12.7898 16.382 12.653 16.2816 12.552L15.3301 11.6005C15.2292 11.5 15.0927 11.4437 14.9504 11.4437C14.8081 11.4437 14.6716 11.5 14.5707 11.6005L14.1812 11.9911C14.0369 11.9202 13.8924 11.8567 13.7403 11.8046V11.2546C13.7397 11.1123 13.6829 10.976 13.5823 10.8755C13.4818 10.7749 13.3456 10.7182 13.2035 10.7178L11.8603 10.7178ZM12.5324 12.7222C13.9774 12.7222 15.1588 13.9103 15.1588 15.3574C15.1588 16.8044 13.9774 17.9914 12.5324 17.9914C11.0874 17.9914 9.90165 16.8044 9.90165 15.3574C9.90165 13.9103 11.0874 12.7222 12.5324 12.7222ZM12.5301 14.4659C12.0409 14.4659 11.6386 14.8671 11.6386 15.3563C11.6386 15.8455 12.0409 16.2466 12.5301 16.2466C13.0193 16.2466 13.4216 15.8455 13.4216 15.3563C13.4216 14.8671 13.0193 14.4659 12.5301 14.4659Z"/>
</mask>
<path fill-rule="evenodd" clip-rule="evenodd" d="M7.74118 1C5.55393 1 3.76066 2.76102 3.76066 4.92596C3.76066 6.2743 4.45687 7.46398 5.50978 8.16995C3.45155 9.0209 2.00391 11.0142 2.00391 13.3464V16.8315C2.0045 16.9791 2.06347 17.1205 2.16794 17.2247C2.27241 17.329 2.41389 17.3877 2.56149 17.388H6.93263C7.006 17.3883 7.0787 17.3741 7.1466 17.3463C7.21449 17.3185 7.27623 17.2776 7.32831 17.2259C7.3804 17.1742 7.42179 17.1128 7.45013 17.0451C7.47847 16.9775 7.4932 16.9049 7.49349 16.8315C7.4932 16.7581 7.47847 16.6855 7.45013 16.6179C7.42178 16.5502 7.38039 16.4888 7.32831 16.4371C7.27623 16.3854 7.21448 16.3445 7.14659 16.3167C7.0787 16.2889 7.006 16.2747 6.93263 16.275H3.12234V13.3464C3.12234 10.8508 5.16324 8.84755 7.74118 8.84755C8.98398 8.84755 10.1017 9.3168 10.9284 10.0806C11.0374 10.1804 11.1814 10.233 11.3291 10.2269C11.4767 10.2208 11.6159 10.1564 11.7162 10.0478C11.8166 9.93944 11.87 9.7957 11.8647 9.64806C11.8594 9.50042 11.7958 9.3609 11.6879 9.26002C11.1928 8.80261 10.6129 8.43125 9.97475 8.16887C11.0282 7.4628 11.725 6.27378 11.725 4.92597C11.725 2.76103 9.92842 1 7.74118 1ZM7.74118 2.11734C9.33508 2.11734 10.6065 3.37557 10.6065 4.92596C10.6065 6.47635 9.33508 7.73022 7.74118 7.73022C6.14728 7.73022 4.87909 6.47635 4.87909 4.92596C4.87909 3.37557 6.14728 2.11734 7.74118 2.11734ZM11.8603 10.7178C11.7895 10.7174 11.7194 10.731 11.6539 10.7578C11.5884 10.7846 11.5289 10.8241 11.4786 10.8739C11.4283 10.9238 11.3884 10.9831 11.361 11.0484C11.3336 11.1137 11.3194 11.1838 11.3191 11.2546V11.8111C11.1705 11.8622 11.0269 11.9221 10.8859 11.9912L10.4931 11.6005C10.443 11.5501 10.3835 11.5101 10.318 11.4828C10.2524 11.4555 10.1821 11.4415 10.1112 11.4415C10.0402 11.4415 9.96989 11.4555 9.90435 11.4828C9.83881 11.5101 9.7793 11.5501 9.72925 11.6005L8.77886 12.552C8.67852 12.6531 8.6222 12.7898 8.6222 12.9323C8.6222 13.0748 8.67852 13.2115 8.77886 13.3125L9.17277 13.7064C9.10287 13.8494 9.04092 13.9934 8.98946 14.144H8.43733C8.36659 14.1438 8.29651 14.1575 8.23107 14.1845C8.16564 14.2114 8.10615 14.251 8.05599 14.3009C8.00584 14.3509 7.966 14.4102 7.93875 14.4756C7.91151 14.541 7.89739 14.6111 7.89721 14.6819V16.0273C7.89696 16.0984 7.91076 16.1689 7.93781 16.2346C7.96486 16.3004 8.00463 16.3601 8.05483 16.4104C8.10503 16.4607 8.16467 16.5006 8.23032 16.5277C8.29596 16.5549 8.36632 16.5687 8.43733 16.5685H8.99382C9.04494 16.7174 9.10367 16.8614 9.17278 17.0028L8.77887 17.3967C8.72854 17.4468 8.68859 17.5064 8.66133 17.5721C8.63407 17.6377 8.62004 17.7081 8.62004 17.7792C8.62004 17.8502 8.63407 17.9206 8.66133 17.9863C8.68859 18.0519 8.72854 18.1115 8.77887 18.1616L9.72927 19.1131C9.77932 19.1635 9.83882 19.2035 9.90436 19.2308C9.9699 19.2581 10.0402 19.2721 10.1112 19.2721C10.1822 19.2721 10.2524 19.2581 10.318 19.2308C10.3835 19.2035 10.443 19.1635 10.4931 19.1131L10.8859 18.7181C11.0271 18.7873 11.1704 18.8469 11.3191 18.8981V19.4557C11.319 19.5268 11.3329 19.5973 11.3601 19.663C11.3873 19.7287 11.4272 19.7883 11.4775 19.8385C11.5278 19.8887 11.5875 19.9285 11.6532 19.9555C11.7189 19.9825 11.7893 19.9962 11.8603 19.9958H13.2035C13.3462 19.9954 13.4828 19.9382 13.5835 19.837C13.6841 19.7357 13.7405 19.5986 13.7403 19.4557V18.9025C13.8907 18.8509 14.0351 18.788 14.1779 18.7181L14.5707 19.1131C14.6716 19.2135 14.8081 19.2699 14.9504 19.2699C15.0927 19.2699 15.2292 19.2135 15.3301 19.1131L16.2816 18.1616C16.332 18.1115 16.3719 18.0519 16.3992 17.9862C16.4264 17.9206 16.4405 17.8502 16.4405 17.7791C16.4405 17.7081 16.4264 17.6377 16.3992 17.572C16.3719 17.5064 16.332 17.4468 16.2816 17.3967L15.891 17.0028C15.96 16.8615 16.0189 16.7172 16.0699 16.5685H16.6253C16.6962 16.5684 16.7663 16.5544 16.8317 16.5271C16.8971 16.4998 16.9564 16.4599 17.0064 16.4097C17.0564 16.3594 17.096 16.2997 17.1229 16.2341C17.1498 16.1685 17.1635 16.0982 17.1633 16.0273V14.6819C17.1629 14.5392 17.1061 14.4025 17.0053 14.3017C16.9044 14.2009 16.7678 14.1442 16.6253 14.144H16.0776C16.0256 13.9918 15.9618 13.8476 15.891 13.7032L16.2816 13.3125C16.382 13.2115 16.4383 13.0748 16.4383 12.9323C16.4383 12.7898 16.382 12.653 16.2816 12.552L15.3301 11.6005C15.2292 11.5 15.0927 11.4437 14.9504 11.4437C14.8081 11.4437 14.6716 11.5 14.5707 11.6005L14.1812 11.9911C14.0369 11.9202 13.8924 11.8567 13.7403 11.8046V11.2546C13.7397 11.1123 13.6829 10.976 13.5823 10.8755C13.4818 10.7749 13.3456 10.7182 13.2035 10.7178L11.8603 10.7178ZM12.5324 12.7222C13.9774 12.7222 15.1588 13.9103 15.1588 15.3574C15.1588 16.8044 13.9774 17.9914 12.5324 17.9914C11.0874 17.9914 9.90165 16.8044 9.90165 15.3574C9.90165 13.9103 11.0874 12.7222 12.5324 12.7222ZM12.5301 14.4659C12.0409 14.4659 11.6386 14.8671 11.6386 15.3563C11.6386 15.8455 12.0409 16.2466 12.5301 16.2466C13.0193 16.2466 13.4216 15.8455 13.4216 15.3563C13.4216 14.8671 13.0193 14.4659 12.5301 14.4659Z" fill="#6754E2"/>
<path fill-rule="evenodd" clip-rule="evenodd" d="M7.74118 1C5.55393 1 3.76066 2.76102 3.76066 4.92596C3.76066 6.2743 4.45687 7.46398 5.50978 8.16995C3.45155 9.0209 2.00391 11.0142 2.00391 13.3464V16.8315C2.0045 16.9791 2.06347 17.1205 2.16794 17.2247C2.27241 17.329 2.41389 17.3877 2.56149 17.388H6.93263C7.006 17.3883 7.0787 17.3741 7.1466 17.3463C7.21449 17.3185 7.27623 17.2776 7.32831 17.2259C7.3804 17.1742 7.42179 17.1128 7.45013 17.0451C7.47847 16.9775 7.4932 16.9049 7.49349 16.8315C7.4932 16.7581 7.47847 16.6855 7.45013 16.6179C7.42178 16.5502 7.38039 16.4888 7.32831 16.4371C7.27623 16.3854 7.21448 16.3445 7.14659 16.3167C7.0787 16.2889 7.006 16.2747 6.93263 16.275H3.12234V13.3464C3.12234 10.8508 5.16324 8.84755 7.74118 8.84755C8.98398 8.84755 10.1017 9.3168 10.9284 10.0806C11.0374 10.1804 11.1814 10.233 11.3291 10.2269C11.4767 10.2208 11.6159 10.1564 11.7162 10.0478C11.8166 9.93944 11.87 9.7957 11.8647 9.64806C11.8594 9.50042 11.7958 9.3609 11.6879 9.26002C11.1928 8.80261 10.6129 8.43125 9.97475 8.16887C11.0282 7.4628 11.725 6.27378 11.725 4.92597C11.725 2.76103 9.92842 1 7.74118 1ZM7.74118 2.11734C9.33508 2.11734 10.6065 3.37557 10.6065 4.92596C10.6065 6.47635 9.33508 7.73022 7.74118 7.73022C6.14728 7.73022 4.87909 6.47635 4.87909 4.92596C4.87909 3.37557 6.14728 2.11734 7.74118 2.11734ZM11.8603 10.7178C11.7895 10.7174 11.7194 10.731 11.6539 10.7578C11.5884 10.7846 11.5289 10.8241 11.4786 10.8739C11.4283 10.9238 11.3884 10.9831 11.361 11.0484C11.3336 11.1137 11.3194 11.1838 11.3191 11.2546V11.8111C11.1705 11.8622 11.0269 11.9221 10.8859 11.9912L10.4931 11.6005C10.443 11.5501 10.3835 11.5101 10.318 11.4828C10.2524 11.4555 10.1821 11.4415 10.1112 11.4415C10.0402 11.4415 9.96989 11.4555 9.90435 11.4828C9.83881 11.5101 9.7793 11.5501 9.72925 11.6005L8.77886 12.552C8.67852 12.6531 8.6222 12.7898 8.6222 12.9323C8.6222 13.0748 8.67852 13.2115 8.77886 13.3125L9.17277 13.7064C9.10287 13.8494 9.04092 13.9934 8.98946 14.144H8.43733C8.36659 14.1438 8.29651 14.1575 8.23107 14.1845C8.16564 14.2114 8.10615 14.251 8.05599 14.3009C8.00584 14.3509 7.966 14.4102 7.93875 14.4756C7.91151 14.541 7.89739 14.6111 7.89721 14.6819V16.0273C7.89696 16.0984 7.91076 16.1689 7.93781 16.2346C7.96486 16.3004 8.00463 16.3601 8.05483 16.4104C8.10503 16.4607 8.16467 16.5006 8.23032 16.5277C8.29596 16.5549 8.36632 16.5687 8.43733 16.5685H8.99382C9.04494 16.7174 9.10367 16.8614 9.17278 17.0028L8.77887 17.3967C8.72854 17.4468 8.68859 17.5064 8.66133 17.5721C8.63407 17.6377 8.62004 17.7081 8.62004 17.7792C8.62004 17.8502 8.63407 17.9206 8.66133 17.9863C8.68859 18.0519 8.72854 18.1115 8.77887 18.1616L9.72927 19.1131C9.77932 19.1635 9.83882 19.2035 9.90436 19.2308C9.9699 19.2581 10.0402 19.2721 10.1112 19.2721C10.1822 19.2721 10.2524 19.2581 10.318 19.2308C10.3835 19.2035 10.443 19.1635 10.4931 19.1131L10.8859 18.7181C11.0271 18.7873 11.1704 18.8469 11.3191 18.8981V19.4557C11.319 19.5268 11.3329 19.5973 11.3601 19.663C11.3873 19.7287 11.4272 19.7883 11.4775 19.8385C11.5278 19.8887 11.5875 19.9285 11.6532 19.9555C11.7189 19.9825 11.7893 19.9962 11.8603 19.9958H13.2035C13.3462 19.9954 13.4828 19.9382 13.5835 19.837C13.6841 19.7357 13.7405 19.5986 13.7403 19.4557V18.9025C13.8907 18.8509 14.0351 18.788 14.1779 18.7181L14.5707 19.1131C14.6716 19.2135 14.8081 19.2699 14.9504 19.2699C15.0927 19.2699 15.2292 19.2135 15.3301 19.1131L16.2816 18.1616C16.332 18.1115 16.3719 18.0519 16.3992 17.9862C16.4264 17.9206 16.4405 17.8502 16.4405 17.7791C16.4405 17.7081 16.4264 17.6377 16.3992 17.572C16.3719 17.5064 16.332 17.4468 16.2816 17.3967L15.891 17.0028C15.96 16.8615 16.0189 16.7172 16.0699 16.5685H16.6253C16.6962 16.5684 16.7663 16.5544 16.8317 16.5271C16.8971 16.4998 16.9564 16.4599 17.0064 16.4097C17.0564 16.3594 17.096 16.2997 17.1229 16.2341C17.1498 16.1685 17.1635 16.0982 17.1633 16.0273V14.6819C17.1629 14.5392 17.1061 14.4025 17.0053 14.3017C16.9044 14.2009 16.7678 14.1442 16.6253 14.144H16.0776C16.0256 13.9918 15.9618 13.8476 15.891 13.7032L16.2816 13.3125C16.382 13.2115 16.4383 13.0748 16.4383 12.9323C16.4383 12.7898 16.382 12.653 16.2816 12.552L15.3301 11.6005C15.2292 11.5 15.0927 11.4437 14.9504 11.4437C14.8081 11.4437 14.6716 11.5 14.5707 11.6005L14.1812 11.9911C14.0369 11.9202 13.8924 11.8567 13.7403 11.8046V11.2546C13.7397 11.1123 13.6829 10.976 13.5823 10.8755C13.4818 10.7749 13.3456 10.7182 13.2035 10.7178L11.8603 10.7178ZM12.5324 12.7222C13.9774 12.7222 15.1588 13.9103 15.1588 15.3574C15.1588 16.8044 13.9774 17.9914 12.5324 17.9914C11.0874 17.9914 9.90165 16.8044 9.90165 15.3574C9.90165 13.9103 11.0874 12.7222 12.5324 12.7222ZM12.5301 14.4659C12.0409 14.4659 11.6386 14.8671 11.6386 15.3563C11.6386 15.8455 12.0409 16.2466 12.5301 16.2466C13.0193 16.2466 13.4216 15.8455 13.4216 15.3563C13.4216 14.8671 13.0193 14.4659 12.5301 14.4659Z" stroke="#6754E2" stroke-width="0.4" mask="url(#path-1-outside-1_5760_91785)"/>
</g>
<defs>
<clipPath id="clip0_5760_91785">
<rect width="20" height="20" fill="white" transform="translate(0.00390625)"/>
</clipPath>
</defs>
</svg>
