<svg width="20" height="20" viewBox="0 0 20 20" fill="none" xmlns="http://www.w3.org/2000/svg">
<path d="M12.4299 15.1547H14.8042H14.8044C14.9697 15.1551 15.1281 15.2208 15.245 15.3375C15.362 15.4542 15.428 15.6125 15.4286 15.7777L15.4286 15.7781L15.4286 17.4766V17.477C15.428 17.6422 15.362 17.8005 15.245 17.9172C15.1281 18.0339 14.9697 18.0997 14.8044 18.1H14.8042H5.0654L12.4299 15.1547ZM12.4299 15.1547V13.5085H17.4961C18.3026 13.5085 18.9662 12.8411 18.9662 12.0354V3.76885V2.37313C18.9662 1.56743 18.3026 0.9 17.4961 0.9H2.37314C1.56693 0.9 0.9 1.56714 0.9 2.37313V10.6386V12.0354C0.9 12.8414 1.56693 13.5085 2.37314 13.5085H7.43933M12.4299 15.1547L7.43933 13.5085M7.43933 15.1547L5.0654 15.1547C5.06531 15.1547 5.06522 15.1547 5.06513 15.1547H7.43933ZM7.43933 15.1547V13.5085M7.43933 15.1547V13.5085M8.26478 10.0579C8.40759 10.1413 8.57759 10.1647 8.73761 10.123C8.89762 10.0813 9.03462 9.97801 9.11866 9.8356L9.11886 9.83527L11.8269 5.20528C11.8269 5.20515 11.827 5.20501 11.8271 5.20488C11.869 5.13406 11.8965 5.05568 11.9081 4.9742C11.9196 4.89258 11.915 4.80948 11.8943 4.72967C11.8736 4.64986 11.8374 4.57492 11.7877 4.50917C11.738 4.44345 11.6758 4.38821 11.6047 4.3466C11.5192 4.29625 11.4229 4.26696 11.3239 4.26117L11.3238 4.26116C11.2081 4.25445 11.0928 4.28001 10.9908 4.33502C10.8888 4.38999 10.8041 4.47218 10.7461 4.57245L10.7463 4.57222L10.8326 4.62269M8.26478 10.0579L8.3139 9.97375L8.2648 10.0579C8.26479 10.0579 8.26479 10.0579 8.26478 10.0579ZM8.26478 10.0579C8.12177 9.9745 8.01767 9.83777 7.97531 9.67771C7.93294 9.51765 7.95578 9.34731 8.03881 9.20406L8.03899 9.20374L10.746 4.57266L10.8326 4.62269M10.8326 4.62269L8.12532 9.2542C8.05557 9.37455 8.03639 9.51765 8.07198 9.65212C8.10757 9.7866 8.19503 9.90147 8.31518 9.97156C8.43516 10.0416 8.57798 10.0612 8.71241 10.0262C8.84684 9.99122 8.96194 9.90441 9.03254 9.78478L11.7408 5.1543C11.7761 5.09472 11.7993 5.02874 11.809 4.96017C11.8188 4.8916 11.8148 4.82178 11.7975 4.75473C11.7801 4.68768 11.7497 4.62472 11.7079 4.56948C11.6661 4.51424 11.6138 4.4678 11.5541 4.43284C11.4822 4.3905 11.4013 4.36587 11.318 4.361C11.2208 4.35535 11.1239 4.37683 11.0382 4.42304C10.9525 4.46925 10.8813 4.53837 10.8326 4.62269ZM2.15256 2.34753L2.15257 2.34743C2.16336 2.23054 2.24936 2.15089 2.37314 2.15089H17.4961C17.6254 2.15089 17.7142 2.23917 17.7142 2.37313V3.76885V12.0354C17.7142 12.1689 17.6258 12.2566 17.4961 12.2566H2.37314C2.2417 12.2566 2.15089 12.1672 2.15089 12.0354V10.6386V2.37313C2.15089 2.36668 2.15148 2.35914 2.15256 2.34753ZM6.27839 4.34262L6.27783 4.34326L4.12887 6.79086C4.12886 6.79087 4.12885 6.79088 4.12884 6.79089C4.02855 6.90504 3.97324 7.05179 3.97324 7.20374C3.97324 7.35569 4.02855 7.50245 4.12884 7.6166C4.12885 7.61661 4.12886 7.61662 4.12887 7.61663L6.27783 10.0642L6.27796 10.0644C6.38754 10.1887 6.54196 10.2644 6.70732 10.2749C6.87259 10.2855 7.03529 10.23 7.15974 10.1208C7.28455 10.0117 7.36096 9.85756 7.37218 9.69219C7.3834 9.52681 7.32852 9.36375 7.21959 9.23881L7.21937 9.23855L5.43112 7.2018L7.21929 5.17011L7.21959 5.16976C7.32852 5.04482 7.3834 4.88176 7.37218 4.71638C7.36096 4.55101 7.28455 4.39685 7.15974 4.28778L7.15967 4.28772C7.03489 4.17887 6.87204 4.12393 6.70681 4.13497C6.54222 4.145 6.38824 4.21963 6.27839 4.34262ZM12.7065 4.28767L12.706 4.28813C12.5819 4.39788 12.5064 4.55239 12.4961 4.71775C12.4858 4.88309 12.5415 5.04576 12.651 5.17007C12.651 5.17008 12.651 5.1701 12.651 5.17011L14.4391 7.20176L12.651 9.23838C12.5415 9.36269 12.4858 9.52538 12.4961 9.69074C12.5064 9.8561 12.5819 10.0106 12.706 10.1204L12.7062 10.1206C12.8307 10.2299 12.9935 10.2854 13.1588 10.2749C13.3242 10.2643 13.4786 10.1886 13.5882 10.0643L13.5883 10.0642L15.7404 7.6166L15.7404 7.61658C15.8407 7.50243 15.896 7.35566 15.896 7.2037C15.896 7.05173 15.8407 6.90497 15.7404 6.79081L15.7404 6.79079L13.5883 4.34317L13.5878 4.34258C13.4776 4.21929 13.3231 4.14468 13.1581 4.13496C12.9933 4.12425 12.831 4.17914 12.7065 4.28767ZM8.69125 13.5085H11.179V15.1547H8.69125V13.5085ZM5.68841 16.4056H8.06375H11.8024H14.1767V16.8491H5.68841V16.4056Z" fill="#6754E2" stroke="#6754E2" stroke-width="0.2"/>
</svg>
