<svg width="20" height="20" viewBox="0 0 20 20" fill="none" xmlns="http://www.w3.org/2000/svg">
<g clip-path="url(#clip0_5760_91704)">
<mask id="path-1-outside-1_5760_91704" maskUnits="userSpaceOnUse" x="0.00390625" y="0" width="20" height="20" fill="black">
<rect fill="white" x="0.00390625" width="20" height="20"/>
<path fill-rule="evenodd" clip-rule="evenodd" d="M13.9206 3.78721C13.9206 3.89149 13.8896 3.99343 13.8317 4.08013C13.7737 4.16682 13.6913 4.23439 13.595 4.27427C13.4986 4.31415 13.3926 4.32457 13.2903 4.30419C13.188 4.28382 13.0941 4.23358 13.0204 4.15981C12.9466 4.08605 12.8964 3.99208 12.8761 3.88979C12.8558 3.7875 12.8663 3.68149 12.9062 3.58515C12.9461 3.48881 13.0138 3.40647 13.1005 3.34856C13.1872 3.29064 13.2892 3.25974 13.3935 3.25977C13.4627 3.25974 13.5313 3.27336 13.5953 3.29986C13.6593 3.32636 13.7174 3.36521 13.7664 3.4142C13.8154 3.46318 13.8542 3.52134 13.8806 3.58535C13.9071 3.64935 13.9207 3.71795 13.9206 3.78721ZM15.0876 3.25977C14.9834 3.25991 14.8815 3.29095 14.7949 3.34897C14.7083 3.40699 14.6408 3.48938 14.601 3.58573C14.5612 3.68208 14.5508 3.78807 14.5712 3.8903C14.5916 3.99254 14.6419 4.08642 14.7157 4.1601C14.7894 4.23378 14.8834 4.28394 14.9856 4.30424C15.0879 4.32455 15.1939 4.31409 15.2902 4.27418C15.3865 4.23427 15.4688 4.16671 15.5267 4.08004C15.5847 3.99336 15.6156 3.89146 15.6156 3.78721C15.6156 3.71789 15.602 3.64926 15.5754 3.58523C15.5489 3.5212 15.51 3.46303 15.4609 3.41405C15.4119 3.36506 15.3537 3.32622 15.2896 3.29975C15.2256 3.27328 15.1569 3.25969 15.0876 3.25977ZM16.7823 3.25977C16.678 3.2598 16.5761 3.29075 16.4894 3.3487C16.4027 3.40665 16.3352 3.489 16.2953 3.58534C16.2554 3.68168 16.245 3.78769 16.2653 3.88996C16.2857 3.99223 16.3359 4.08617 16.4096 4.1599C16.4833 4.23364 16.5773 4.28385 16.6796 4.3042C16.7818 4.32455 16.8878 4.31412 16.9842 4.27423C17.0805 4.23434 17.1629 4.16678 17.2208 4.08009C17.2788 3.99341 17.3097 3.89148 17.3098 3.78721C17.3098 3.71793 17.2962 3.64933 17.2697 3.58532C17.2432 3.52132 17.2043 3.46316 17.1554 3.41417C17.1064 3.36519 17.0482 3.32634 16.9842 3.29985C16.9202 3.27336 16.8516 3.25973 16.7823 3.25977ZM17.0649 1C17.3196 0.999925 17.5718 1.05005 17.8071 1.1475C18.0424 1.24495 18.2563 1.38783 18.4363 1.56796C18.6164 1.74808 18.7592 1.96193 18.8566 2.19728C18.954 2.43263 19.004 2.68487 19.0039 2.93957V4.63369C19.0034 5.14788 18.799 5.6409 18.4355 6.00457C18.072 6.36824 17.5791 6.57286 17.0649 6.57355H13.5531L11.9912 7.61425C11.9118 7.6671 11.8196 7.69744 11.7243 7.70205C11.629 7.70667 11.5343 7.68538 11.4502 7.64045C11.366 7.59553 11.2957 7.52864 11.2465 7.44691C11.1974 7.36518 11.1713 7.27165 11.171 7.17628V2.93958C11.1709 2.68482 11.221 2.43253 11.3185 2.19715C11.4159 1.96177 11.5588 1.7479 11.739 1.56777C11.9192 1.38764 12.1331 1.24478 12.3685 1.14736C12.6039 1.04994 12.8561 0.999866 13.1109 1.00001L17.0649 1ZM17.9493 2.93957C17.9494 2.82337 17.9266 2.70828 17.8822 2.6009C17.8378 2.49351 17.7727 2.39593 17.6905 2.31374C17.6084 2.23154 17.5109 2.16635 17.4035 2.12188C17.2961 2.07741 17.1811 2.05454 17.0649 2.05458H13.1109C12.9947 2.05453 12.8795 2.07738 12.7721 2.12183C12.6647 2.16628 12.5671 2.23146 12.4849 2.31365C12.4027 2.39583 12.3375 2.49341 12.293 2.60081C12.2485 2.70821 12.2256 2.82332 12.2256 2.93957V6.19079L13.1004 5.6073C13.1872 5.54958 13.2892 5.51884 13.3935 5.51898H17.0649C17.2995 5.51866 17.5244 5.42526 17.6902 5.25928C17.856 5.0933 17.9492 4.86831 17.9493 4.6337V2.93957ZM18.4765 10.0371C18.6164 10.0372 18.7506 10.0929 18.8495 10.1919C18.9484 10.2909 19.0039 10.4251 19.0039 10.5651V18.4723C19.0039 18.6121 18.9484 18.7463 18.8495 18.8451C18.7506 18.944 18.6165 18.9996 18.4766 18.9996C18.3368 18.9996 18.2026 18.944 18.1038 18.8451C18.0049 18.7463 17.9493 18.6121 17.9493 18.4723V17.3053H2.05935V18.4723C2.05935 18.6122 2.00375 18.7465 1.90478 18.8454C1.80581 18.9444 1.67159 19 1.53163 19C1.39167 19 1.25744 18.9444 1.15847 18.8454C1.05951 18.7465 1.00391 18.6122 1.00391 18.4723V10.5651C1.00387 10.4251 1.05942 10.2909 1.15832 10.1919C1.25723 10.0929 1.3914 10.0372 1.53135 10.0371H3.8288V9.43436C3.82913 8.82738 3.99421 8.23187 4.30643 7.71134C4.61865 7.19081 5.0663 6.76479 5.60165 6.47871C5.29305 6.16726 5.0835 5.77145 4.9994 5.34114C4.91531 4.91084 4.96041 4.46526 5.12904 4.06054C5.29768 3.65582 5.58229 3.31004 5.94705 3.06675C6.31182 2.82345 6.74041 2.69353 7.17887 2.69333C7.61732 2.69313 8.04603 2.82267 8.41101 3.06564C8.77599 3.3086 9.06092 3.65413 9.22992 4.0587C9.39891 4.46327 9.44442 4.9088 9.36071 5.33918C9.27699 5.76957 9.06781 6.16556 8.75948 6.47729C9.29525 6.76338 9.74316 7.18974 10.0553 7.71076C10.3674 8.23178 10.532 8.82785 10.5315 9.43521V10.0371H18.4765ZM7.18028 3.74955C6.94937 3.74943 6.72361 3.81781 6.53157 3.94603C6.33952 4.07424 6.18982 4.25654 6.1014 4.46985C6.01298 4.68316 5.98982 4.9179 6.03484 5.14438C6.07986 5.37086 6.19104 5.57889 6.35432 5.74217C6.5176 5.90545 6.72564 6.01663 6.95212 6.06166C7.1786 6.10668 7.41335 6.08352 7.62667 5.9951C7.83998 5.90669 8.02228 5.75699 8.1505 5.56495C8.27872 5.37291 8.3471 5.14715 8.34699 4.91624C8.3465 4.60697 8.22342 4.3105 8.00473 4.09181C7.78603 3.87312 7.48956 3.75004 7.18028 3.74955ZM4.88338 9.43436V10.0371H9.47716V9.43521C9.47621 8.82673 9.23386 8.2435 8.8033 7.81354C8.37275 7.38359 7.78917 7.14204 7.18069 7.14193C6.57221 7.14181 5.98855 7.38315 5.55784 7.81295C5.12712 8.24275 4.88455 8.82589 4.88338 9.43436ZM2.05935 16.251H17.9493V11.0925H2.05935V16.251Z"/>
</mask>
<path fill-rule="evenodd" clip-rule="evenodd" d="M13.9206 3.78721C13.9206 3.89149 13.8896 3.99343 13.8317 4.08013C13.7737 4.16682 13.6913 4.23439 13.595 4.27427C13.4986 4.31415 13.3926 4.32457 13.2903 4.30419C13.188 4.28382 13.0941 4.23358 13.0204 4.15981C12.9466 4.08605 12.8964 3.99208 12.8761 3.88979C12.8558 3.7875 12.8663 3.68149 12.9062 3.58515C12.9461 3.48881 13.0138 3.40647 13.1005 3.34856C13.1872 3.29064 13.2892 3.25974 13.3935 3.25977C13.4627 3.25974 13.5313 3.27336 13.5953 3.29986C13.6593 3.32636 13.7174 3.36521 13.7664 3.4142C13.8154 3.46318 13.8542 3.52134 13.8806 3.58535C13.9071 3.64935 13.9207 3.71795 13.9206 3.78721ZM15.0876 3.25977C14.9834 3.25991 14.8815 3.29095 14.7949 3.34897C14.7083 3.40699 14.6408 3.48938 14.601 3.58573C14.5612 3.68208 14.5508 3.78807 14.5712 3.8903C14.5916 3.99254 14.6419 4.08642 14.7157 4.1601C14.7894 4.23378 14.8834 4.28394 14.9856 4.30424C15.0879 4.32455 15.1939 4.31409 15.2902 4.27418C15.3865 4.23427 15.4688 4.16671 15.5267 4.08004C15.5847 3.99336 15.6156 3.89146 15.6156 3.78721C15.6156 3.71789 15.602 3.64926 15.5754 3.58523C15.5489 3.5212 15.51 3.46303 15.4609 3.41405C15.4119 3.36506 15.3537 3.32622 15.2896 3.29975C15.2256 3.27328 15.1569 3.25969 15.0876 3.25977ZM16.7823 3.25977C16.678 3.2598 16.5761 3.29075 16.4894 3.3487C16.4027 3.40665 16.3352 3.489 16.2953 3.58534C16.2554 3.68168 16.245 3.78769 16.2653 3.88996C16.2857 3.99223 16.3359 4.08617 16.4096 4.1599C16.4833 4.23364 16.5773 4.28385 16.6796 4.3042C16.7818 4.32455 16.8878 4.31412 16.9842 4.27423C17.0805 4.23434 17.1629 4.16678 17.2208 4.08009C17.2788 3.99341 17.3097 3.89148 17.3098 3.78721C17.3098 3.71793 17.2962 3.64933 17.2697 3.58532C17.2432 3.52132 17.2043 3.46316 17.1554 3.41417C17.1064 3.36519 17.0482 3.32634 16.9842 3.29985C16.9202 3.27336 16.8516 3.25973 16.7823 3.25977ZM17.0649 1C17.3196 0.999925 17.5718 1.05005 17.8071 1.1475C18.0424 1.24495 18.2563 1.38783 18.4363 1.56796C18.6164 1.74808 18.7592 1.96193 18.8566 2.19728C18.954 2.43263 19.004 2.68487 19.0039 2.93957V4.63369C19.0034 5.14788 18.799 5.6409 18.4355 6.00457C18.072 6.36824 17.5791 6.57286 17.0649 6.57355H13.5531L11.9912 7.61425C11.9118 7.6671 11.8196 7.69744 11.7243 7.70205C11.629 7.70667 11.5343 7.68538 11.4502 7.64045C11.366 7.59553 11.2957 7.52864 11.2465 7.44691C11.1974 7.36518 11.1713 7.27165 11.171 7.17628V2.93958C11.1709 2.68482 11.221 2.43253 11.3185 2.19715C11.4159 1.96177 11.5588 1.7479 11.739 1.56777C11.9192 1.38764 12.1331 1.24478 12.3685 1.14736C12.6039 1.04994 12.8561 0.999866 13.1109 1.00001L17.0649 1ZM17.9493 2.93957C17.9494 2.82337 17.9266 2.70828 17.8822 2.6009C17.8378 2.49351 17.7727 2.39593 17.6905 2.31374C17.6084 2.23154 17.5109 2.16635 17.4035 2.12188C17.2961 2.07741 17.1811 2.05454 17.0649 2.05458H13.1109C12.9947 2.05453 12.8795 2.07738 12.7721 2.12183C12.6647 2.16628 12.5671 2.23146 12.4849 2.31365C12.4027 2.39583 12.3375 2.49341 12.293 2.60081C12.2485 2.70821 12.2256 2.82332 12.2256 2.93957V6.19079L13.1004 5.6073C13.1872 5.54958 13.2892 5.51884 13.3935 5.51898H17.0649C17.2995 5.51866 17.5244 5.42526 17.6902 5.25928C17.856 5.0933 17.9492 4.86831 17.9493 4.6337V2.93957ZM18.4765 10.0371C18.6164 10.0372 18.7506 10.0929 18.8495 10.1919C18.9484 10.2909 19.0039 10.4251 19.0039 10.5651V18.4723C19.0039 18.6121 18.9484 18.7463 18.8495 18.8451C18.7506 18.944 18.6165 18.9996 18.4766 18.9996C18.3368 18.9996 18.2026 18.944 18.1038 18.8451C18.0049 18.7463 17.9493 18.6121 17.9493 18.4723V17.3053H2.05935V18.4723C2.05935 18.6122 2.00375 18.7465 1.90478 18.8454C1.80581 18.9444 1.67159 19 1.53163 19C1.39167 19 1.25744 18.9444 1.15847 18.8454C1.05951 18.7465 1.00391 18.6122 1.00391 18.4723V10.5651C1.00387 10.4251 1.05942 10.2909 1.15832 10.1919C1.25723 10.0929 1.3914 10.0372 1.53135 10.0371H3.8288V9.43436C3.82913 8.82738 3.99421 8.23187 4.30643 7.71134C4.61865 7.19081 5.0663 6.76479 5.60165 6.47871C5.29305 6.16726 5.0835 5.77145 4.9994 5.34114C4.91531 4.91084 4.96041 4.46526 5.12904 4.06054C5.29768 3.65582 5.58229 3.31004 5.94705 3.06675C6.31182 2.82345 6.74041 2.69353 7.17887 2.69333C7.61732 2.69313 8.04603 2.82267 8.41101 3.06564C8.77599 3.3086 9.06092 3.65413 9.22992 4.0587C9.39891 4.46327 9.44442 4.9088 9.36071 5.33918C9.27699 5.76957 9.06781 6.16556 8.75948 6.47729C9.29525 6.76338 9.74316 7.18974 10.0553 7.71076C10.3674 8.23178 10.532 8.82785 10.5315 9.43521V10.0371H18.4765ZM7.18028 3.74955C6.94937 3.74943 6.72361 3.81781 6.53157 3.94603C6.33952 4.07424 6.18982 4.25654 6.1014 4.46985C6.01298 4.68316 5.98982 4.9179 6.03484 5.14438C6.07986 5.37086 6.19104 5.57889 6.35432 5.74217C6.5176 5.90545 6.72564 6.01663 6.95212 6.06166C7.1786 6.10668 7.41335 6.08352 7.62667 5.9951C7.83998 5.90669 8.02228 5.75699 8.1505 5.56495C8.27872 5.37291 8.3471 5.14715 8.34699 4.91624C8.3465 4.60697 8.22342 4.3105 8.00473 4.09181C7.78603 3.87312 7.48956 3.75004 7.18028 3.74955ZM4.88338 9.43436V10.0371H9.47716V9.43521C9.47621 8.82673 9.23386 8.2435 8.8033 7.81354C8.37275 7.38359 7.78917 7.14204 7.18069 7.14193C6.57221 7.14181 5.98855 7.38315 5.55784 7.81295C5.12712 8.24275 4.88455 8.82589 4.88338 9.43436ZM2.05935 16.251H17.9493V11.0925H2.05935V16.251Z" fill="#6754E2"/>
<path fill-rule="evenodd" clip-rule="evenodd" d="M13.9206 3.78721C13.9206 3.89149 13.8896 3.99343 13.8317 4.08013C13.7737 4.16682 13.6913 4.23439 13.595 4.27427C13.4986 4.31415 13.3926 4.32457 13.2903 4.30419C13.188 4.28382 13.0941 4.23358 13.0204 4.15981C12.9466 4.08605 12.8964 3.99208 12.8761 3.88979C12.8558 3.7875 12.8663 3.68149 12.9062 3.58515C12.9461 3.48881 13.0138 3.40647 13.1005 3.34856C13.1872 3.29064 13.2892 3.25974 13.3935 3.25977C13.4627 3.25974 13.5313 3.27336 13.5953 3.29986C13.6593 3.32636 13.7174 3.36521 13.7664 3.4142C13.8154 3.46318 13.8542 3.52134 13.8806 3.58535C13.9071 3.64935 13.9207 3.71795 13.9206 3.78721ZM15.0876 3.25977C14.9834 3.25991 14.8815 3.29095 14.7949 3.34897C14.7083 3.40699 14.6408 3.48938 14.601 3.58573C14.5612 3.68208 14.5508 3.78807 14.5712 3.8903C14.5916 3.99254 14.6419 4.08642 14.7157 4.1601C14.7894 4.23378 14.8834 4.28394 14.9856 4.30424C15.0879 4.32455 15.1939 4.31409 15.2902 4.27418C15.3865 4.23427 15.4688 4.16671 15.5267 4.08004C15.5847 3.99336 15.6156 3.89146 15.6156 3.78721C15.6156 3.71789 15.602 3.64926 15.5754 3.58523C15.5489 3.5212 15.51 3.46303 15.4609 3.41405C15.4119 3.36506 15.3537 3.32622 15.2896 3.29975C15.2256 3.27328 15.1569 3.25969 15.0876 3.25977ZM16.7823 3.25977C16.678 3.2598 16.5761 3.29075 16.4894 3.3487C16.4027 3.40665 16.3352 3.489 16.2953 3.58534C16.2554 3.68168 16.245 3.78769 16.2653 3.88996C16.2857 3.99223 16.3359 4.08617 16.4096 4.1599C16.4833 4.23364 16.5773 4.28385 16.6796 4.3042C16.7818 4.32455 16.8878 4.31412 16.9842 4.27423C17.0805 4.23434 17.1629 4.16678 17.2208 4.08009C17.2788 3.99341 17.3097 3.89148 17.3098 3.78721C17.3098 3.71793 17.2962 3.64933 17.2697 3.58532C17.2432 3.52132 17.2043 3.46316 17.1554 3.41417C17.1064 3.36519 17.0482 3.32634 16.9842 3.29985C16.9202 3.27336 16.8516 3.25973 16.7823 3.25977ZM17.0649 1C17.3196 0.999925 17.5718 1.05005 17.8071 1.1475C18.0424 1.24495 18.2563 1.38783 18.4363 1.56796C18.6164 1.74808 18.7592 1.96193 18.8566 2.19728C18.954 2.43263 19.004 2.68487 19.0039 2.93957V4.63369C19.0034 5.14788 18.799 5.6409 18.4355 6.00457C18.072 6.36824 17.5791 6.57286 17.0649 6.57355H13.5531L11.9912 7.61425C11.9118 7.6671 11.8196 7.69744 11.7243 7.70205C11.629 7.70667 11.5343 7.68538 11.4502 7.64045C11.366 7.59553 11.2957 7.52864 11.2465 7.44691C11.1974 7.36518 11.1713 7.27165 11.171 7.17628V2.93958C11.1709 2.68482 11.221 2.43253 11.3185 2.19715C11.4159 1.96177 11.5588 1.7479 11.739 1.56777C11.9192 1.38764 12.1331 1.24478 12.3685 1.14736C12.6039 1.04994 12.8561 0.999866 13.1109 1.00001L17.0649 1ZM17.9493 2.93957C17.9494 2.82337 17.9266 2.70828 17.8822 2.6009C17.8378 2.49351 17.7727 2.39593 17.6905 2.31374C17.6084 2.23154 17.5109 2.16635 17.4035 2.12188C17.2961 2.07741 17.1811 2.05454 17.0649 2.05458H13.1109C12.9947 2.05453 12.8795 2.07738 12.7721 2.12183C12.6647 2.16628 12.5671 2.23146 12.4849 2.31365C12.4027 2.39583 12.3375 2.49341 12.293 2.60081C12.2485 2.70821 12.2256 2.82332 12.2256 2.93957V6.19079L13.1004 5.6073C13.1872 5.54958 13.2892 5.51884 13.3935 5.51898H17.0649C17.2995 5.51866 17.5244 5.42526 17.6902 5.25928C17.856 5.0933 17.9492 4.86831 17.9493 4.6337V2.93957ZM18.4765 10.0371C18.6164 10.0372 18.7506 10.0929 18.8495 10.1919C18.9484 10.2909 19.0039 10.4251 19.0039 10.5651V18.4723C19.0039 18.6121 18.9484 18.7463 18.8495 18.8451C18.7506 18.944 18.6165 18.9996 18.4766 18.9996C18.3368 18.9996 18.2026 18.944 18.1038 18.8451C18.0049 18.7463 17.9493 18.6121 17.9493 18.4723V17.3053H2.05935V18.4723C2.05935 18.6122 2.00375 18.7465 1.90478 18.8454C1.80581 18.9444 1.67159 19 1.53163 19C1.39167 19 1.25744 18.9444 1.15847 18.8454C1.05951 18.7465 1.00391 18.6122 1.00391 18.4723V10.5651C1.00387 10.4251 1.05942 10.2909 1.15832 10.1919C1.25723 10.0929 1.3914 10.0372 1.53135 10.0371H3.8288V9.43436C3.82913 8.82738 3.99421 8.23187 4.30643 7.71134C4.61865 7.19081 5.0663 6.76479 5.60165 6.47871C5.29305 6.16726 5.0835 5.77145 4.9994 5.34114C4.91531 4.91084 4.96041 4.46526 5.12904 4.06054C5.29768 3.65582 5.58229 3.31004 5.94705 3.06675C6.31182 2.82345 6.74041 2.69353 7.17887 2.69333C7.61732 2.69313 8.04603 2.82267 8.41101 3.06564C8.77599 3.3086 9.06092 3.65413 9.22992 4.0587C9.39891 4.46327 9.44442 4.9088 9.36071 5.33918C9.27699 5.76957 9.06781 6.16556 8.75948 6.47729C9.29525 6.76338 9.74316 7.18974 10.0553 7.71076C10.3674 8.23178 10.532 8.82785 10.5315 9.43521V10.0371H18.4765ZM7.18028 3.74955C6.94937 3.74943 6.72361 3.81781 6.53157 3.94603C6.33952 4.07424 6.18982 4.25654 6.1014 4.46985C6.01298 4.68316 5.98982 4.9179 6.03484 5.14438C6.07986 5.37086 6.19104 5.57889 6.35432 5.74217C6.5176 5.90545 6.72564 6.01663 6.95212 6.06166C7.1786 6.10668 7.41335 6.08352 7.62667 5.9951C7.83998 5.90669 8.02228 5.75699 8.1505 5.56495C8.27872 5.37291 8.3471 5.14715 8.34699 4.91624C8.3465 4.60697 8.22342 4.3105 8.00473 4.09181C7.78603 3.87312 7.48956 3.75004 7.18028 3.74955ZM4.88338 9.43436V10.0371H9.47716V9.43521C9.47621 8.82673 9.23386 8.2435 8.8033 7.81354C8.37275 7.38359 7.78917 7.14204 7.18069 7.14193C6.57221 7.14181 5.98855 7.38315 5.55784 7.81295C5.12712 8.24275 4.88455 8.82589 4.88338 9.43436ZM2.05935 16.251H17.9493V11.0925H2.05935V16.251Z" stroke="#6754E2" stroke-width="0.4" mask="url(#path-1-outside-1_5760_91704)"/>
</g>
<defs>
<clipPath id="clip0_5760_91704">
<rect width="20" height="20" fill="white" transform="translate(0.00390625)"/>
</clipPath>
</defs>
</svg>
