<svg width="20" height="20" viewBox="0 0 20 20" fill="none" xmlns="http://www.w3.org/2000/svg">
<path fill-rule="evenodd" clip-rule="evenodd" d="M11.8523 0.73996C11.8086 0.465094 11.6066 0.2421 11.3381 0.172018C10.4643 -0.0573395 9.54689 -0.0573395 8.67314 0.172018C8.40465 0.2421 8.20259 0.465094 8.15891 0.73996L8.01511 1.65101C7.97051 1.67559 7.92682 1.70107 7.88313 1.72746L7.02213 1.39617C6.76274 1.29605 6.46876 1.35977 6.27308 1.55727C5.63779 2.19893 5.17907 2.99439 4.94061 3.86541C4.8678 4.13299 4.95973 4.41879 5.17543 4.59445L5.89354 5.17512C5.89263 5.22518 5.89263 5.27614 5.89354 5.32711L5.17543 5.90687C4.95973 6.08253 4.8678 6.36833 4.94061 6.63591C5.17907 7.50692 5.63779 8.30239 6.27308 8.94405C6.46876 9.14155 6.76274 9.20526 7.02213 9.10514L7.88404 8.77385C7.92682 8.80025 7.97142 8.82573 8.01511 8.8503L8.15891 9.76136C8.20259 10.0362 8.40465 10.2592 8.67314 10.3293C9.54689 10.5587 10.4643 10.5587 11.3381 10.3293C11.6066 10.2592 11.8086 10.0362 11.8523 9.76136L11.9961 8.8503C12.0407 8.82573 12.0844 8.80025 12.1281 8.77385L12.9891 9.10514C13.2485 9.20526 13.5424 9.14155 13.7381 8.94405C14.3734 8.30239 14.8321 7.50692 15.0706 6.63591C15.1434 6.36833 15.0515 6.08253 14.8358 5.90687L14.1177 5.32619C14.1186 5.27614 14.1186 5.22517 14.1177 5.17421L14.8358 4.59445C15.0515 4.41879 15.1434 4.13299 15.0706 3.86541C14.8321 2.99439 14.3734 2.19893 13.7381 1.55727C13.5424 1.35977 13.2485 1.29605 12.9891 1.39617L12.1272 1.72746C12.0844 1.70107 12.0398 1.67559 11.9961 1.65101L11.8523 0.73996ZM10.5444 1.43804L10.67 2.22805C10.7073 2.46469 10.863 2.66584 11.0832 2.76049C11.2743 2.84332 11.4555 2.94797 11.6229 3.07266C11.8159 3.21556 12.068 3.25015 12.2919 3.16368L13.0382 2.87698C13.2603 3.16186 13.4423 3.47586 13.577 3.8108L12.9554 4.31411C12.7688 4.46519 12.6733 4.70093 12.7006 4.93847C12.7242 5.14599 12.7242 5.35533 12.7006 5.56284C12.6733 5.80039 12.7688 6.03612 12.9554 6.18721L13.577 6.69052C13.4423 7.02545 13.2603 7.33945 13.0382 7.62341L12.2919 7.33763C12.068 7.25117 11.8159 7.28576 11.6229 7.42865C11.4555 7.55334 11.2743 7.658 11.0832 7.74082C10.863 7.83548 10.7073 8.03663 10.67 8.27327L10.5444 9.06327C10.1867 9.11424 9.82448 9.11424 9.46679 9.06327L9.34119 8.27327C9.30387 8.03663 9.14824 7.83548 8.92798 7.74082C8.73685 7.658 8.55573 7.55334 8.38826 7.42865C8.19531 7.28576 7.9432 7.25117 7.7193 7.33763L6.97298 7.62433C6.7509 7.33945 6.56887 7.02545 6.43417 6.69052L7.05581 6.18721C7.24239 6.03612 7.33795 5.80039 7.31065 5.56284C7.28698 5.35533 7.28698 5.14599 7.31065 4.93847C7.33795 4.70093 7.24239 4.46519 7.05581 4.31411L6.43417 3.8108C6.56887 3.47586 6.7509 3.16187 6.97298 2.8779L7.7193 3.16368C7.9432 3.25015 8.19531 3.21556 8.38826 3.07266C8.55573 2.94797 8.73685 2.84332 8.92798 2.76049C9.14824 2.66584 9.30387 2.46469 9.34119 2.22805L9.46679 1.43804C9.82448 1.38707 10.1867 1.38707 10.5444 1.43804ZM10.0056 3.32205C8.94073 3.32205 8.07699 4.18578 8.07699 5.25066C8.07699 6.31553 8.94073 7.17927 10.0056 7.17927C11.0705 7.17927 11.9342 6.31553 11.9342 5.25066C11.9342 4.18578 11.0705 3.32205 10.0056 3.32205ZM10.0056 4.72187C10.2978 4.72187 10.5344 4.9585 10.5344 5.25066C10.5344 5.54282 10.2978 5.77945 10.0056 5.77945C9.71344 5.77945 9.4768 5.54282 9.4768 5.25066C9.4768 4.9585 9.71344 4.72187 10.0056 4.72187Z" fill="#6754E2"/>
<path fill-rule="evenodd" clip-rule="evenodd" d="M3.73203 9.49024C3.26645 10.4277 3.00391 11.4842 3.00391 12.6022V17.5031C3.00391 18.0603 3.22514 18.5945 3.61931 18.988C4.01277 19.3822 4.54696 19.6034 5.10425 19.6034C7.52875 19.6034 12.4814 19.6034 14.9059 19.6034C15.4632 19.6034 15.9973 19.3822 16.3908 18.988C16.785 18.5945 17.0062 18.0603 17.0062 17.5031C17.0062 16.2905 17.0062 14.4464 17.0062 12.6022C17.0062 11.4842 16.7437 10.4277 16.2781 9.49024C16.1059 9.14438 15.6858 9.00295 15.3392 9.17448C14.9934 9.34671 14.852 9.76748 15.0242 10.1133C15.3967 10.8632 15.606 11.7082 15.606 12.6022V17.5031C15.606 17.6886 15.5325 17.8671 15.4009 17.998C15.2699 18.1297 15.0914 18.2032 14.9059 18.2032H5.10425C4.91872 18.2032 4.74019 18.1297 4.60927 17.998C4.47765 17.8671 4.40414 17.6886 4.40414 17.5031V12.6022C4.40414 11.7082 4.61347 10.8632 4.98593 10.1133C5.15816 9.76748 5.01674 9.34671 4.67088 9.17448C4.32432 9.00295 3.90425 9.14438 3.73203 9.49024Z" fill="#6754E2"/>
<path fill-rule="evenodd" clip-rule="evenodd" d="M7.9043 12.6025V14.7028C7.9043 14.8883 7.97781 15.0669 8.10943 15.1978L9.50966 16.598C9.78271 16.8718 10.2266 16.8718 10.4996 16.598L11.8999 15.1978C12.0315 15.0669 12.105 14.8883 12.105 14.7028V12.6025C12.105 12.216 11.7913 11.9023 11.4049 11.9023C11.0184 11.9023 10.7048 12.216 10.7048 12.6025V14.413L10.0046 15.1131L9.30453 14.413V12.6025C9.30453 12.216 8.99088 11.9023 8.60441 11.9023C8.21795 11.9023 7.9043 12.216 7.9043 12.6025Z" fill="#6754E2"/>
</svg>
