<svg width="20" height="20" viewBox="0 0 20 20" fill="none" xmlns="http://www.w3.org/2000/svg">
<path d="M0 15V13.6875C0 13.0764 0.309167 12.5867 0.9275 12.2183C1.54527 11.8506 2.34722 11.6667 3.33333 11.6667C3.51389 11.6667 3.6875 11.67 3.85417 11.6767C4.02083 11.6839 4.18056 11.7014 4.33333 11.7292C4.13889 12.0069 3.99306 12.3056 3.89583 12.625C3.79861 12.9444 3.75 13.2847 3.75 13.6458V15H0ZM5 15V13.6458C5 12.7431 5.46194 12.0139 6.38583 11.4583C7.30917 10.9028 8.51392 10.625 10 10.625C11.5 10.625 12.7083 10.9028 13.625 11.4583C14.5417 12.0139 15 12.7431 15 13.6458V15H5ZM16.25 15V13.6458C16.25 13.2847 16.2048 12.9444 16.1142 12.625C16.0242 12.3056 15.8889 12.0069 15.7083 11.7292C15.8611 11.7014 16.0175 11.6839 16.1775 11.6767C16.3369 11.67 16.5 11.6667 16.6667 11.6667C17.6667 11.6667 18.4722 11.8506 19.0833 12.2183C19.6944 12.5867 20 13.0764 20 13.6875V15H16.25ZM10 12.2917C9.20833 12.2917 8.5 12.3958 7.875 12.6042C7.25 12.8125 6.88194 13.0556 6.77083 13.3333H13.25C13.125 13.0556 12.7533 12.8125 12.135 12.6042C11.5173 12.3958 10.8056 12.2917 10 12.2917ZM3.33333 10.8333C2.875 10.8333 2.48277 10.67 2.15667 10.3433C1.83 10.0172 1.66667 9.625 1.66667 9.16667C1.66667 8.69442 1.83 8.29861 2.15667 7.97917C2.48277 7.65972 2.875 7.5 3.33333 7.5C3.80556 7.5 4.20139 7.65972 4.52083 7.97917C4.84027 8.29861 5 8.69442 5 9.16667C5 9.625 4.84027 10.0172 4.52083 10.3433C4.20139 10.67 3.80556 10.8333 3.33333 10.8333ZM16.6667 10.8333C16.2083 10.8333 15.8158 10.67 15.4892 10.3433C15.1631 10.0172 15 9.625 15 9.16667C15 8.69442 15.1631 8.29861 15.4892 7.97917C15.8158 7.65972 16.2083 7.5 16.6667 7.5C17.1389 7.5 17.5347 7.65972 17.8542 7.97917C18.1736 8.29861 18.3333 8.69442 18.3333 9.16667C18.3333 9.625 18.1736 10.0172 17.8542 10.3433C17.5347 10.67 17.1389 10.8333 16.6667 10.8333ZM10 10C9.30558 10 8.71525 9.75692 8.22917 9.27083C7.74306 8.78475 7.5 8.19444 7.5 7.5C7.5 6.79167 7.74306 6.19778 8.22917 5.71833C8.71525 5.23944 9.30558 5 10 5C10.7083 5 11.3019 5.23944 11.7808 5.71833C12.2603 6.19778 12.5 6.79167 12.5 7.5C12.5 8.19444 12.2603 8.78475 11.7808 9.27083C11.3019 9.75692 10.7083 10 10 10ZM10 6.66667C9.76392 6.66667 9.56608 6.74639 9.40667 6.90583C9.24667 7.06583 9.16667 7.26389 9.16667 7.5C9.16667 7.73611 9.24667 7.93389 9.40667 8.09333C9.56608 8.25333 9.76392 8.33333 10 8.33333C10.2361 8.33333 10.4342 8.25333 10.5942 8.09333C10.7536 7.93389 10.8333 7.73611 10.8333 7.5C10.8333 7.26389 10.7536 7.06583 10.5942 6.90583C10.4342 6.74639 10.2361 6.66667 10 6.66667Z" fill="#624DE3"/>
</svg>
