<svg width="20" height="20" viewBox="0 0 20 20" fill="none" xmlns="http://www.w3.org/2000/svg">
<path d="M2.8181 17.4254H16.4314C17.5167 17.4254 18.3995 16.5426 18.3995 15.4574V15.0329C18.3995 14.7593 18.1778 14.5379 17.9045 14.5379H1.34499C1.07168 14.5379 0.85 14.7593 0.85 15.0329V15.4574C0.85 16.5426 1.73281 17.4254 2.8181 17.4254ZM17.407 15.5279C17.3707 16.0342 16.947 16.4354 16.4314 16.4354H2.8181C2.30255 16.4354 1.87876 16.0342 1.8425 15.5279H17.407Z" fill="#624DE3" stroke="#624DE3" stroke-width="0.3"/>
<path d="M2.17263 15.5282H17.0934C17.3668 15.5282 17.5884 15.3068 17.5884 15.0332V3.79813C17.5884 3.27531 17.1633 2.85 16.6403 2.85H2.62577C2.10274 2.85 1.67764 3.27531 1.67764 3.79813V15.0332C1.67764 15.3068 1.89932 15.5282 2.17263 15.5282ZM16.5985 3.83998V14.5382H2.66762V3.83998H16.5985Z" fill="#624DE3" stroke="#624DE3" stroke-width="0.3"/>
<path d="M11.4909 10.4892L11.4909 10.4892C11.3263 10.3229 11.3274 10.0544 11.4938 9.8897C11.4938 9.8897 11.4938 9.88969 11.4938 9.88969L13.2614 8.13941L13.2616 8.1392C13.4273 7.9757 13.6957 7.97559 13.8607 8.1424M11.4909 10.4892L13.754 8.24787M11.4909 10.4892C11.5738 10.5729 11.6833 10.6147 11.792 10.6147C11.8996 10.6147 12.0076 10.5737 12.09 10.4923L12.0902 10.4921L13.8577 8.74184M11.4909 10.4892L13.8577 8.74184M13.8607 8.1424L13.754 8.24787M13.8607 8.1424C13.8606 8.14238 13.8606 8.14236 13.8606 8.14234L13.754 8.24787M13.8607 8.1424C14.0252 8.3087 14.024 8.57712 13.8577 8.74183L13.7521 8.63525M13.754 8.24787C13.8604 8.35534 13.8596 8.52885 13.7521 8.63525M13.7521 8.63525L13.8577 8.74184M13.7521 8.63525L13.8577 8.74184" fill="#624DE3" stroke="#624DE3" stroke-width="0.3"/>
<path d="M5.51432 10.3445C5.56792 10.3988 5.63864 10.426 5.70935 10.426C5.77872 10.426 5.84823 10.3998 5.90157 10.3472M5.51432 10.3445L7.44684 7.84496C7.61377 7.68009 7.88198 7.68309 8.04604 7.849L8.04624 7.8492C8.21052 8.01597 8.20842 8.28413 8.04191 8.44838L8.04186 8.44842L6.00696 10.4539L6.00686 10.454L5.90157 10.3472M5.51432 10.3445C5.40819 10.2368 5.40952 10.0635 5.51713 9.9574L5.51432 10.3445ZM5.90157 10.3472L7.93657 8.34158L5.90157 10.3472ZM5.40746 10.4498L5.4076 10.4499L7.44667 7.84514L5.41184 9.85056L5.4118 9.8506C5.24528 10.0148 5.24318 10.283 5.40746 10.4498Z" fill="#624DE3" stroke="#624DE3" stroke-width="0.3"/>
<path d="M10.9648 10.3834L11.0717 10.4886C11.2358 10.3218 11.2336 10.0533 11.0667 9.88931C11.0667 9.88931 11.0667 9.8893 11.0667 9.88929L8.97744 7.83533L8.97742 7.83531C8.81066 7.67143 8.54209 7.67291 8.37808 7.84047C8.21415 8.00727 8.21643 8.27565 8.38322 8.43958C8.38323 8.43959 8.38324 8.4396 8.38325 8.4396L10.4725 10.4936L10.4725 10.4936C10.555 10.5746 10.6625 10.6152 10.7696 10.6152C10.8789 10.6152 10.9889 10.573 11.0719 10.4884L10.9648 10.3834ZM10.9648 10.3834C11.0708 10.2757 11.0693 10.1021 10.9616 9.99628L10.5777 10.3866C10.631 10.439 10.7004 10.4652 10.7696 10.4652C10.8405 10.4652 10.9113 10.4379 10.9648 10.3834Z" fill="#624DE3" stroke="#624DE3" stroke-width="0.3"/>
<path d="M12.93 7.95627C12.93 8.57034 13.4293 9.06951 14.0432 9.06951C14.6571 9.06951 15.1564 8.57034 15.1564 7.95627C15.1564 7.34221 14.6571 6.84304 14.0432 6.84304C13.4293 6.84304 12.93 7.34221 12.93 7.95627ZM13.7775 7.95627C13.7775 7.80997 13.8968 7.69056 14.0432 7.69056C14.1896 7.69056 14.3089 7.80997 14.3089 7.95627C14.3089 8.10257 14.1896 8.22199 14.0432 8.22199C13.8968 8.22199 13.7775 8.10257 13.7775 7.95627Z" fill="#624DE3" stroke="#624DE3" stroke-width="0.3"/>
<path d="M10.2274 10.6869C10.2274 11.2656 10.6981 11.7365 11.277 11.7365C11.8559 11.7365 12.3266 11.2656 12.3266 10.6869C12.3266 10.1082 11.8559 9.63729 11.277 9.63729C10.6981 9.63729 10.2274 10.1082 10.2274 10.6869ZM11.0749 10.6869C11.0749 10.5756 11.1658 10.4848 11.277 10.4848C11.3883 10.4848 11.4791 10.5756 11.4791 10.6869C11.4791 10.7981 11.3883 10.889 11.277 10.889C11.1658 10.889 11.0749 10.7981 11.0749 10.6869Z" fill="#624DE3" stroke="#624DE3" stroke-width="0.3"/>
<path d="M7.48796 8.48241L7.48803 8.48247C7.68029 8.66308 7.92576 8.76242 8.18436 8.76242C8.20505 8.76242 8.2257 8.76179 8.24643 8.76054L8.24656 8.76053C8.55275 8.74186 8.84288 8.60216 9.04309 8.37537L9.04324 8.3752C9.22173 8.17241 9.31435 7.91735 9.29741 7.65632L9.29741 7.65622C9.25871 7.06541 8.80063 6.60653 8.22072 6.60653C7.62645 6.60653 7.14331 7.08967 7.14331 7.68394C7.14331 7.9853 7.26871 8.27618 7.48796 8.48241ZM8.40751 7.81449L8.40728 7.81474C8.35797 7.87076 8.28196 7.90868 8.19735 7.91448C8.14928 7.91527 8.10522 7.8994 8.06846 7.8649L7.96581 7.97427L8.0687 7.86513C8.01947 7.81871 7.99083 7.75265 7.99083 7.68394C7.99083 7.55722 8.09406 7.45405 8.22072 7.45405C8.34709 7.45405 8.44189 7.56199 8.45159 7.71156L8.4516 7.71159C8.45318 7.73601 8.44376 7.77349 8.40751 7.81449ZM9.14773 7.66603C9.1619 7.88445 9.08477 8.10099 8.93064 8.2761L8.23743 8.61081C8.21965 8.61188 8.202 8.61242 8.18436 8.61242C7.96514 8.61242 7.75608 8.52847 7.59073 8.37315C7.40172 8.19536 7.29331 7.94406 7.29331 7.68394C7.29331 7.17251 7.70929 6.75653 8.22072 6.75653C8.7153 6.75653 9.11377 7.14765 9.14773 7.66603Z" fill="#624DE3" stroke="#624DE3" stroke-width="0.3"/>
<path d="M4.17226 10.6336C4.17226 11.214 4.64416 11.6859 5.2244 11.6859C5.80465 11.6859 6.27655 11.214 6.27655 10.6336C6.27655 10.0535 5.80462 9.58163 5.2244 9.58163C4.64419 9.58163 4.17226 10.0535 4.17226 10.6336ZM5.01978 10.6336C5.01978 10.5211 5.11165 10.4291 5.2244 10.4291C5.33716 10.4291 5.42903 10.5211 5.42903 10.6336C5.42903 10.7465 5.33709 10.8384 5.2244 10.8384C5.11172 10.8384 5.01978 10.7465 5.01978 10.6336Z" fill="#624DE3" stroke="#624DE3" stroke-width="0.3"/>
</svg>
