<svg width="20" height="20" viewBox="0 0 20 20" fill="none" xmlns="http://www.w3.org/2000/svg">
<g clip-path="url(#clip0_6241_97613)">
<path d="M2.58934 8.52758V5.21918C2.58934 4.89358 2.78088 4.59494 3.07776 4.45825L9.50979 1.47125C9.73701 1.36764 9.9982 1.36677 10.2219 1.4695L12.4089 2.48638C13.2413 2.85988 13.8228 1.62273 12.9966 1.22311L10.8061 0.204494C10.2098 -0.068888 9.52633 -0.0680187 8.92734 0.206235L2.49264 3.19414C1.70472 3.55718 1.19629 4.35205 1.19629 5.22005V8.52845C1.19629 10.5283 1.73084 12.4819 2.74337 14.1788C2.941 14.5123 3.37369 14.615 3.69845 14.42C4.02929 14.2224 4.13725 13.7949 3.9396 13.4649C3.05594 11.984 2.58928 10.2767 2.58928 8.52863L2.58934 8.52758Z" fill="#6754E2"/>
<path d="M17.2448 3.19393L15.5314 2.39993C14.6921 2.03167 14.1219 3.26271 14.9455 3.66407L16.6597 4.45894C16.9557 4.59563 17.1464 4.89424 17.1464 5.219V8.5274C17.2047 12.9694 14.1576 16.3821 10.192 18.0416C9.99171 18.1322 9.74272 18.1322 9.53899 18.0399C8.19214 17.4365 6.99239 16.6991 5.98163 15.8555C5.60292 15.4733 5.05355 15.0066 4.57298 15.5264C4.09936 16.0583 4.64263 16.5929 5.0823 16.9185C6.19843 17.8501 7.50699 18.6554 8.96617 19.3093C9.52945 19.5653 10.2024 19.567 10.7649 19.3111C15.2251 17.4453 18.6048 13.5049 18.5386 8.52755V5.21916C18.5386 4.35203 18.0302 3.55716 17.2431 3.19411L17.2448 3.19393Z" fill="#6754E2"/>
<path d="M11.6796 4.79779C10.143 3.17147 7.26306 4.35812 7.3083 6.59735V7.50627C6.54825 7.51584 5.93359 8.13572 5.93359 8.89751V12.5244C5.93359 13.2923 6.5587 13.9174 7.32658 13.9174H12.4109C13.1787 13.9174 13.8039 13.2923 13.8039 12.5244V8.89751C13.8039 8.13572 13.1883 7.51585 12.4291 7.50627C12.4744 6.57383 12.4275 5.45416 11.6796 4.79779ZM9.86872 5.43072C10.4808 5.4194 11.0484 5.97485 11.0362 6.59822V7.5054H8.70203V6.59822C8.70203 5.95484 9.22615 5.43072 9.86953 5.43072H9.86872ZM12.41 12.5254H7.32569V8.89847H12.41V12.5254Z" fill="#6754E2"/>
<path d="M9.86824 10.0137C8.95234 10.0293 8.95321 11.391 9.86824 11.4067C10.7841 11.391 10.7833 10.0293 9.86824 10.0137Z" fill="#6754E2"/>
</g>
<defs>
<clipPath id="clip0_6241_97613">
<rect width="20" height="20" fill="white"/>
</clipPath>
</defs>
</svg>
