<svg width="21" height="20" viewBox="0 0 21 20" fill="none" xmlns="http://www.w3.org/2000/svg">
<path d="M15.4933 2.22591L14.8479 2.87717L14.8478 2.87725C14.4866 3.24005 13.9033 3.24005 13.5421 2.87725L13.542 2.87715L12.7092 2.03593L15.4933 2.22591ZM15.4933 2.22591L15.4972 6.32683M15.4933 2.22591L15.4972 6.32683M15.4972 6.32683H5.79901L5.82216 2.25292L6.43997 2.87708L6.43996 2.87709L6.44084 2.87794C6.80585 3.22915 7.37997 3.23008 7.74509 2.8779L7.7451 2.87791L7.74591 2.87709L8.5784 2.03619C8.7406 1.88015 8.99635 1.88015 9.15857 2.03619L9.99106 2.87709L9.99105 2.8771L9.99192 2.87794C10.357 3.22921 10.9311 3.22921 11.2961 2.87794L11.2961 2.87795L11.297 2.87709L12.1299 2.03579C12.1299 2.03578 12.1299 2.03577 12.1299 2.03577C12.2895 1.87469 12.5485 1.8746 12.7091 2.03583L15.4972 6.32683ZM9.83523 1.35364L9.83524 1.35363L9.83445 1.35286C9.29412 0.831147 8.44257 0.831148 7.90223 1.35286L7.90222 1.35286L7.90188 1.3532L7.08282 2.15954L6.41443 1.48428L6.41436 1.4842C6.15009 1.21837 5.75302 1.13848 5.40775 1.28266L5.40771 1.28267C5.06336 1.42682 4.83837 1.76638 4.83837 2.14253V6.41081C4.3084 6.6003 3.95245 7.105 3.95 7.67463V7.67485L3.95 18.4919L3.95 18.4919C3.95083 19.2354 4.54838 19.8391 5.28627 19.8399H5.28632H16.0062H16.0063C16.7442 19.8391 17.3417 19.2354 17.3426 18.4919V18.4919V7.67485L17.3426 7.67463C17.3401 7.10499 16.9834 6.60031 16.4542 6.41082L16.4502 2.14166V2.14159C16.4493 1.76561 16.2252 1.42601 15.88 1.28183C15.5348 1.13769 15.1387 1.21749 14.8744 1.48396C14.8743 1.48405 14.8742 1.48414 14.8741 1.48424L14.1842 2.15962L13.3863 1.35364L13.3863 1.35359C12.8523 0.815539 11.9869 0.815469 11.4528 1.35338C11.4527 1.35345 11.4526 1.35352 11.4525 1.35359L10.6339 2.15956L9.83523 1.35364ZM16.3848 18.4918C16.3848 18.7032 16.2147 18.8742 16.0063 18.8742H5.28643C5.07811 18.8742 4.90793 18.7032 4.90793 18.4918V7.6748C4.90793 7.4628 5.07798 7.29236 5.28647 7.29158C5.28651 7.29158 5.28655 7.29158 5.2866 7.29158H16.0062C16.0062 7.29158 16.0063 7.29158 16.0063 7.29158C16.2148 7.29236 16.3848 7.4628 16.3848 7.6748V18.4918Z" fill="#6754E2" stroke="#6754E2" stroke-width="0.1"/>
<path d="M5.86627 11.6328L5.86627 11.6328C5.95605 11.7234 6.07817 11.7742 6.20488 11.7742H15.0869C15.2136 11.7742 15.3357 11.7234 15.4255 11.6328L15.39 11.5976L15.4255 11.6328C15.5153 11.5422 15.5654 11.4192 15.5654 11.2918V8.60235C15.5654 8.4749 15.5153 8.35189 15.4255 8.26129C15.3357 8.17067 15.2136 8.11992 15.0869 8.11992H6.20488C6.07818 8.11992 5.95606 8.17069 5.86627 8.26129C5.77649 8.35188 5.72637 8.4749 5.72637 8.60235V11.2918C5.72637 11.4192 5.77651 11.5422 5.86627 11.6328ZM14.6084 10.8085H6.68338V9.08552H14.6084V10.8085Z" fill="#6754E2" stroke="#6754E2" stroke-width="0.1"/>
<path d="M5.86609 14.7688L5.86627 14.769C5.95605 14.8596 6.07817 14.9104 6.20488 14.9104H7.98162C8.10833 14.9104 8.23044 14.8596 8.32023 14.769L8.32041 14.7688C8.40993 14.6776 8.46013 14.5555 8.46013 14.4272V13.0828C8.46013 12.9554 8.40999 12.8324 8.32024 12.7418C8.23045 12.6511 8.10833 12.6004 7.98162 12.6004H6.20488C6.07818 12.6004 5.95606 12.6512 5.86627 12.7418C5.77649 12.8323 5.72637 12.9554 5.72637 13.0828V14.4272C5.72637 14.5555 5.77656 14.6776 5.86609 14.7688ZM7.50238 13.5661L7.50303 13.9447H6.68338V13.5661H7.50238Z" fill="#6754E2" stroke="#6754E2" stroke-width="0.1"/>
<path d="M9.41998 12.7418L9.41998 12.7418C9.33022 12.8323 9.28008 12.9554 9.28008 13.0828V14.4272C9.28008 14.5555 9.33028 14.6776 9.4198 14.7688L9.41998 14.769C9.50976 14.8596 9.63188 14.9104 9.7586 14.9104H11.5353C11.662 14.9104 11.7841 14.8596 11.8739 14.769L11.8741 14.7688C11.9636 14.6776 12.0138 14.5555 12.0138 14.4272V13.0828C12.0138 12.9554 11.9637 12.8324 11.8739 12.7418L11.8739 12.7418C11.7842 12.6512 11.662 12.6004 11.5353 12.6004H9.7586C9.63189 12.6004 9.50977 12.6512 9.41998 12.7418ZM11.0568 13.9447H10.2379V13.5661H11.0568V13.9447Z" fill="#6754E2" stroke="#6754E2" stroke-width="0.1"/>
<path d="M12.9716 14.7688L12.9717 14.769C13.0615 14.8596 13.1836 14.9104 13.3104 14.9104H15.0871C15.2138 14.9104 15.3359 14.8596 15.4257 14.769L15.4259 14.7688C15.5154 14.6776 15.5656 14.5555 15.5656 14.4272V13.0828C15.5656 12.9554 15.5155 12.8324 15.4257 12.7418C15.3359 12.6511 15.2138 12.6004 15.0871 12.6004H13.3104C13.1836 12.6004 13.0615 12.6512 12.9717 12.7418C12.882 12.8323 12.8318 12.9554 12.8318 13.0828V14.4272C12.8318 14.5555 12.882 14.6776 12.9716 14.7688ZM14.6078 13.5661L14.6085 13.9447H13.7889V13.5661H14.6078Z" fill="#6754E2" stroke="#6754E2" stroke-width="0.1"/>
<path d="M7.98162 15.5125H6.20488C6.07819 15.5125 5.95602 15.5633 5.86618 15.6548C5.77651 15.7453 5.72637 15.8675 5.72637 15.9957V17.3401C5.72637 17.4675 5.77651 17.5905 5.86627 17.6811C5.95605 17.7717 6.07817 17.8225 6.20488 17.8225H7.98162C8.10833 17.8225 8.23044 17.7717 8.32023 17.6811C8.41001 17.5905 8.46013 17.4675 8.46013 17.3401V15.9957C8.46013 15.8675 8.40999 15.7453 8.32032 15.6548C8.2305 15.5633 8.10832 15.5125 7.98162 15.5125ZM7.50238 16.4782L7.50303 16.8569L6.68338 16.8576V16.4782H7.50238Z" fill="#6754E2" stroke="#6754E2" stroke-width="0.1"/>
<path d="M9.41998 17.6811L9.41998 17.6811C9.50976 17.7717 9.63188 17.8225 9.7586 17.8225H11.5353C11.662 17.8225 11.7841 17.7717 11.8739 17.6811L11.8739 17.6811C11.9637 17.5906 12.0138 17.4675 12.0138 17.3401V15.9957C12.0138 15.8675 11.9637 15.7453 11.874 15.6548C11.7842 15.5633 11.662 15.5125 11.5353 15.5125H9.7586C9.6319 15.5125 9.50973 15.5633 9.41989 15.6548C9.33022 15.7453 9.28008 15.8675 9.28008 15.9957V17.3401C9.28008 17.4675 9.33022 17.5905 9.41998 17.6811ZM11.0568 16.4782V16.8569L10.2379 16.8576V16.4782H11.0568Z" fill="#6754E2" stroke="#6754E2" stroke-width="0.1"/>
<path d="M15.0871 15.5125H13.3104C13.1837 15.5125 13.0615 15.5633 12.9717 15.6548C12.882 15.7453 12.8318 15.8675 12.8318 15.9957V17.3401C12.8318 17.4675 12.882 17.5905 12.9717 17.6811C13.0615 17.7717 13.1836 17.8225 13.3104 17.8225H15.0871C15.2138 17.8225 15.3359 17.7717 15.4257 17.6811C15.5155 17.5905 15.5656 17.4675 15.5656 17.3401V15.9957C15.5656 15.8675 15.5155 15.7453 15.4258 15.6548C15.336 15.5633 15.2138 15.5125 15.0871 15.5125ZM14.6078 16.4782L14.6085 16.8569L13.7889 16.8576V16.4782H14.6078Z" fill="#6754E2" stroke="#6754E2" stroke-width="0.1"/>
<path d="M7.21563 4.07109C7.08892 4.07109 6.96681 4.12186 6.87701 4.21246C6.78723 4.30305 6.73711 4.42607 6.73711 4.55353V5.41919C6.73711 5.68488 6.95121 5.9016 7.21561 5.9016C7.48075 5.9016 7.69491 5.68495 7.69491 5.41919V4.55353C7.69491 4.42609 7.64478 4.30302 7.55412 4.21238C7.46439 4.12187 7.34316 4.07109 7.21563 4.07109Z" fill="#6754E2" stroke="#6754E2" stroke-width="0.1"/>
<path d="M8.93127 4.07109C8.80375 4.07109 8.68249 4.12187 8.59275 4.21237C8.50208 4.303 8.45195 4.42608 8.45195 4.55353V5.41919C8.45195 5.68495 8.66612 5.9016 8.93126 5.9016C9.19565 5.9016 9.40976 5.68489 9.40976 5.41919V4.55353C9.40976 4.42608 9.35962 4.30306 9.26986 4.21247C9.18008 4.12185 9.05799 4.07109 8.93127 4.07109Z" fill="#6754E2" stroke="#6754E2" stroke-width="0.1"/>
<path d="M10.6463 4.07109C10.5196 4.07109 10.3975 4.12186 10.3077 4.21246C10.2179 4.30305 10.1678 4.42607 10.1678 4.55353V5.41919C10.1678 5.68482 10.381 5.9016 10.6463 5.9016C10.9115 5.9016 11.1248 5.68483 11.1248 5.41919V4.55353C11.1248 4.42608 11.0746 4.30306 10.9849 4.21247C10.8951 4.12185 10.773 4.07109 10.6463 4.07109Z" fill="#6754E2" stroke="#6754E2" stroke-width="0.1"/>
<path d="M12.3611 5.9016C12.4886 5.9016 12.6099 5.85083 12.6996 5.76032C12.7903 5.66969 12.8404 5.54661 12.8404 5.41917V4.55351C12.8404 4.28688 12.6262 4.07109 12.3611 4.07109C12.0968 4.07109 11.8826 4.28694 11.8826 4.55351V5.41917C11.8826 5.54662 11.9328 5.66963 12.0225 5.76023C12.1123 5.85085 12.2344 5.9016 12.3611 5.9016Z" fill="#6754E2" stroke="#6754E2" stroke-width="0.1"/>
<path d="M14.0767 5.9016C14.2035 5.9016 14.3256 5.85083 14.4154 5.76023C14.5051 5.66965 14.5553 5.54662 14.5553 5.41917V4.55351C14.5553 4.28694 14.3411 4.07109 14.0768 4.07109C13.8117 4.07109 13.5975 4.28688 13.5975 4.55351V5.41917C13.5975 5.54661 13.6476 5.66968 13.7383 5.76032C13.828 5.85082 13.9492 5.9016 14.0767 5.9016Z" fill="#6754E2" stroke="#6754E2" stroke-width="0.1"/>
</svg>
