<svg width="21" height="21" viewBox="0 0 21 21" fill="none" xmlns="http://www.w3.org/2000/svg">
<mask id="path-1-outside-1_6241_97608" maskUnits="userSpaceOnUse" x="0" y="0" width="21" height="21" fill="black">
<rect fill="white" width="21" height="21"/>
<path fill-rule="evenodd" clip-rule="evenodd" d="M8.69126 1.00358C8.24427 1.00358 7.79813 1.04344 7.35624 1.12146C7.14165 1.15878 6.98303 1.34449 6.98134 1.56331L6.9771 2.39101C6.62595 2.48768 6.28244 2.6115 5.95164 2.76416L5.41645 2.13322C5.27565 1.967 5.03477 1.92545 4.84563 2.034C4.0687 2.48262 3.37659 3.06439 2.80067 3.75045C2.65987 3.91752 2.65987 4.16175 2.79897 4.33052L3.32569 4.96826C3.11789 5.26678 2.93637 5.58225 2.78117 5.91044L1.96438 5.77136C1.74979 5.73489 1.5386 5.85786 1.46395 6.0631C1.1569 6.90606 1 7.79568 1 8.69286C1 8.91081 1.15606 9.09823 1.37065 9.13809L2.18405 9.2865C2.21713 9.64947 2.28074 10.0082 2.37319 10.3601L1.65902 10.7774C1.47072 10.8885 1.38845 11.1166 1.46309 11.3227C1.77014 12.1656 2.22136 12.9484 2.79811 13.6352C2.93806 13.8023 3.17894 13.8447 3.36894 13.7362L4.08819 13.3274C4.34688 13.5844 4.62594 13.8193 4.92365 14.0288L4.64459 14.8073C4.57165 15.0125 4.65562 15.2423 4.84476 15.3509C5.62169 15.7995 6.47072 16.1082 7.35374 16.2642C7.56833 16.3024 7.78036 16.1811 7.85671 15.9759L8.26722 14.8683C8.35458 14.6342 8.23499 14.3739 8.00088 14.2874C7.76678 14.2009 7.50641 14.3205 7.41903 14.5545L7.14338 15.2983C6.61751 15.1753 6.10861 14.9896 5.62684 14.7462L5.89317 13.9991C5.96527 13.7981 5.88723 13.5759 5.70657 13.4631C5.26212 13.1849 4.85754 12.8465 4.50726 12.4564C4.36561 12.2978 4.13235 12.2605 3.94831 12.3665L3.25789 12.7583C2.93473 12.3267 2.66501 11.8569 2.45213 11.3608L3.13576 10.9596C3.31981 10.8528 3.40294 10.6323 3.33677 10.4296C3.17477 9.93092 3.08316 9.41191 3.06451 8.88696C3.05688 8.6741 2.90251 8.49685 2.69386 8.45784L1.9144 8.31452C1.94408 7.77599 2.03823 7.24342 2.19515 6.72611L2.97718 6.85841C3.18583 6.89403 3.39364 6.77869 3.47337 6.58195C3.6693 6.09601 3.93309 5.63977 4.25625 5.22591C4.38687 5.05884 4.38347 4.82223 4.24861 4.65856L3.74226 4.04796C4.11121 3.65446 4.52598 3.30506 4.97805 3.00995L5.4912 3.61547C5.62861 3.77745 5.861 3.82155 6.04845 3.72148C6.5124 3.47554 7.0069 3.29492 7.52003 3.18636C7.72783 3.14226 7.87711 2.95908 7.87795 2.74623L7.88219 1.95416C8.4191 1.89055 8.95937 1.89055 9.49627 1.95416L9.50136 2.74623C9.50221 2.9591 9.65149 3.14227 9.85929 3.18636C10.3724 3.29576 10.8678 3.47554 11.3309 3.72148C11.5183 3.82155 11.7499 3.77745 11.8873 3.61547L12.4013 3.00995C12.8533 3.30508 13.2681 3.65448 13.6371 4.04796L13.1307 4.65856C12.9958 4.82223 12.9916 5.05798 13.1222 5.22591C13.4454 5.6389 13.71 6.09601 13.9059 6.58195C13.9857 6.7787 14.1926 6.89319 14.4021 6.85841L15.1833 6.72611C15.2944 7.09078 15.375 7.46391 15.4225 7.84215C15.4539 8.08977 15.6795 8.26532 15.928 8.23395C16.1757 8.20257 16.3504 7.97699 16.319 7.72851H16.3199C16.2486 7.16032 16.1129 6.59976 15.9161 6.06039C15.8415 5.85516 15.6303 5.7322 15.4157 5.76865L14.5989 5.90773C14.4446 5.57869 14.2613 5.26406 14.0536 4.96383C14.0536 4.96468 14.5811 4.32694 14.5811 4.32694C14.7211 4.15903 14.7211 3.9148 14.5794 3.74687C14.0035 3.06078 13.3114 2.47904 12.5345 2.03042C12.3453 1.92102 12.1044 1.96342 11.9636 2.12964L11.4285 2.76058C11.0977 2.60793 10.7541 2.48412 10.403 2.38743L10.3988 1.55973C10.3971 1.34178 10.2393 1.15605 10.0239 1.11788C9.58194 1.03986 9.13582 1 8.68883 1L8.69126 1.00358ZM8.69126 4.16936C6.1951 4.16936 4.16794 6.1962 4.16794 8.69203C4.16794 11.0183 5.92876 12.9375 8.1899 13.1876C8.43756 13.2155 8.66149 13.0358 8.68863 12.7881C8.71662 12.5397 8.53681 12.3166 8.28828 12.2886C6.47998 12.0885 5.07276 10.5543 5.07276 8.69211C5.07276 6.69495 6.69448 5.07346 8.69194 5.07346C10.5537 5.07346 12.0881 6.48124 12.289 8.29004C12.317 8.53852 12.54 8.7166 12.7885 8.68947C13.0362 8.66233 13.216 8.4393 13.188 8.19081C12.9378 5.93077 11.0192 4.16943 8.69185 4.16943L8.69126 4.16936ZM14.5717 9.1449C11.5759 9.1449 9.14333 11.5771 9.14333 14.5725C9.14333 17.5678 11.5759 20 14.5717 20C17.5675 20 20 17.5678 20 14.5725C20 11.5771 17.5675 9.1449 14.5717 9.1449ZM14.5717 10.0498C17.0678 10.0498 19.095 12.0766 19.095 14.5725C19.095 17.0683 17.0679 19.0951 14.5717 19.0951C12.0755 19.0951 10.0483 17.0683 10.0483 14.5725C10.0483 12.0766 12.0755 10.0498 14.5717 10.0498ZM14.5717 10.9547C12.5742 10.9547 10.9525 12.5762 10.9525 14.5733C10.9525 16.5705 12.5742 18.192 14.5717 18.192C16.5691 18.192 18.1908 16.5705 18.1908 14.5733C18.1908 12.5762 16.5691 10.9547 14.5717 10.9547ZM14.5717 11.8595C16.0695 11.8595 17.2858 13.0757 17.2858 14.5733C17.2858 16.071 16.0695 17.2871 14.5717 17.2871C13.0738 17.2871 11.8575 16.071 11.8575 14.5733C11.8575 13.0757 13.0738 11.8595 14.5717 11.8595ZM15.9288 13.2164C15.8125 13.2164 15.6972 13.2605 15.609 13.3487L14.1196 14.8379L13.5343 14.2528C13.3579 14.0764 13.0712 14.0764 12.8948 14.2528C12.7184 14.4292 12.7184 14.7158 12.8948 14.8922L13.7998 15.7971C13.9762 15.9743 14.2629 15.9743 14.4393 15.7971L16.2485 13.9882C16.4249 13.8118 16.4249 13.5251 16.2485 13.3488C16.1603 13.2606 16.0441 13.2164 15.9288 13.2164Z"/>
</mask>
<path fill-rule="evenodd" clip-rule="evenodd" d="M8.69126 1.00358C8.24427 1.00358 7.79813 1.04344 7.35624 1.12146C7.14165 1.15878 6.98303 1.34449 6.98134 1.56331L6.9771 2.39101C6.62595 2.48768 6.28244 2.6115 5.95164 2.76416L5.41645 2.13322C5.27565 1.967 5.03477 1.92545 4.84563 2.034C4.0687 2.48262 3.37659 3.06439 2.80067 3.75045C2.65987 3.91752 2.65987 4.16175 2.79897 4.33052L3.32569 4.96826C3.11789 5.26678 2.93637 5.58225 2.78117 5.91044L1.96438 5.77136C1.74979 5.73489 1.5386 5.85786 1.46395 6.0631C1.1569 6.90606 1 7.79568 1 8.69286C1 8.91081 1.15606 9.09823 1.37065 9.13809L2.18405 9.2865C2.21713 9.64947 2.28074 10.0082 2.37319 10.3601L1.65902 10.7774C1.47072 10.8885 1.38845 11.1166 1.46309 11.3227C1.77014 12.1656 2.22136 12.9484 2.79811 13.6352C2.93806 13.8023 3.17894 13.8447 3.36894 13.7362L4.08819 13.3274C4.34688 13.5844 4.62594 13.8193 4.92365 14.0288L4.64459 14.8073C4.57165 15.0125 4.65562 15.2423 4.84476 15.3509C5.62169 15.7995 6.47072 16.1082 7.35374 16.2642C7.56833 16.3024 7.78036 16.1811 7.85671 15.9759L8.26722 14.8683C8.35458 14.6342 8.23499 14.3739 8.00088 14.2874C7.76678 14.2009 7.50641 14.3205 7.41903 14.5545L7.14338 15.2983C6.61751 15.1753 6.10861 14.9896 5.62684 14.7462L5.89317 13.9991C5.96527 13.7981 5.88723 13.5759 5.70657 13.4631C5.26212 13.1849 4.85754 12.8465 4.50726 12.4564C4.36561 12.2978 4.13235 12.2605 3.94831 12.3665L3.25789 12.7583C2.93473 12.3267 2.66501 11.8569 2.45213 11.3608L3.13576 10.9596C3.31981 10.8528 3.40294 10.6323 3.33677 10.4296C3.17477 9.93092 3.08316 9.41191 3.06451 8.88696C3.05688 8.6741 2.90251 8.49685 2.69386 8.45784L1.9144 8.31452C1.94408 7.77599 2.03823 7.24342 2.19515 6.72611L2.97718 6.85841C3.18583 6.89403 3.39364 6.77869 3.47337 6.58195C3.6693 6.09601 3.93309 5.63977 4.25625 5.22591C4.38687 5.05884 4.38347 4.82223 4.24861 4.65856L3.74226 4.04796C4.11121 3.65446 4.52598 3.30506 4.97805 3.00995L5.4912 3.61547C5.62861 3.77745 5.861 3.82155 6.04845 3.72148C6.5124 3.47554 7.0069 3.29492 7.52003 3.18636C7.72783 3.14226 7.87711 2.95908 7.87795 2.74623L7.88219 1.95416C8.4191 1.89055 8.95937 1.89055 9.49627 1.95416L9.50136 2.74623C9.50221 2.9591 9.65149 3.14227 9.85929 3.18636C10.3724 3.29576 10.8678 3.47554 11.3309 3.72148C11.5183 3.82155 11.7499 3.77745 11.8873 3.61547L12.4013 3.00995C12.8533 3.30508 13.2681 3.65448 13.6371 4.04796L13.1307 4.65856C12.9958 4.82223 12.9916 5.05798 13.1222 5.22591C13.4454 5.6389 13.71 6.09601 13.9059 6.58195C13.9857 6.7787 14.1926 6.89319 14.4021 6.85841L15.1833 6.72611C15.2944 7.09078 15.375 7.46391 15.4225 7.84215C15.4539 8.08977 15.6795 8.26532 15.928 8.23395C16.1757 8.20257 16.3504 7.97699 16.319 7.72851H16.3199C16.2486 7.16032 16.1129 6.59976 15.9161 6.06039C15.8415 5.85516 15.6303 5.7322 15.4157 5.76865L14.5989 5.90773C14.4446 5.57869 14.2613 5.26406 14.0536 4.96383C14.0536 4.96468 14.5811 4.32694 14.5811 4.32694C14.7211 4.15903 14.7211 3.9148 14.5794 3.74687C14.0035 3.06078 13.3114 2.47904 12.5345 2.03042C12.3453 1.92102 12.1044 1.96342 11.9636 2.12964L11.4285 2.76058C11.0977 2.60793 10.7541 2.48412 10.403 2.38743L10.3988 1.55973C10.3971 1.34178 10.2393 1.15605 10.0239 1.11788C9.58194 1.03986 9.13582 1 8.68883 1L8.69126 1.00358ZM8.69126 4.16936C6.1951 4.16936 4.16794 6.1962 4.16794 8.69203C4.16794 11.0183 5.92876 12.9375 8.1899 13.1876C8.43756 13.2155 8.66149 13.0358 8.68863 12.7881C8.71662 12.5397 8.53681 12.3166 8.28828 12.2886C6.47998 12.0885 5.07276 10.5543 5.07276 8.69211C5.07276 6.69495 6.69448 5.07346 8.69194 5.07346C10.5537 5.07346 12.0881 6.48124 12.289 8.29004C12.317 8.53852 12.54 8.7166 12.7885 8.68947C13.0362 8.66233 13.216 8.4393 13.188 8.19081C12.9378 5.93077 11.0192 4.16943 8.69185 4.16943L8.69126 4.16936ZM14.5717 9.1449C11.5759 9.1449 9.14333 11.5771 9.14333 14.5725C9.14333 17.5678 11.5759 20 14.5717 20C17.5675 20 20 17.5678 20 14.5725C20 11.5771 17.5675 9.1449 14.5717 9.1449ZM14.5717 10.0498C17.0678 10.0498 19.095 12.0766 19.095 14.5725C19.095 17.0683 17.0679 19.0951 14.5717 19.0951C12.0755 19.0951 10.0483 17.0683 10.0483 14.5725C10.0483 12.0766 12.0755 10.0498 14.5717 10.0498ZM14.5717 10.9547C12.5742 10.9547 10.9525 12.5762 10.9525 14.5733C10.9525 16.5705 12.5742 18.192 14.5717 18.192C16.5691 18.192 18.1908 16.5705 18.1908 14.5733C18.1908 12.5762 16.5691 10.9547 14.5717 10.9547ZM14.5717 11.8595C16.0695 11.8595 17.2858 13.0757 17.2858 14.5733C17.2858 16.071 16.0695 17.2871 14.5717 17.2871C13.0738 17.2871 11.8575 16.071 11.8575 14.5733C11.8575 13.0757 13.0738 11.8595 14.5717 11.8595ZM15.9288 13.2164C15.8125 13.2164 15.6972 13.2605 15.609 13.3487L14.1196 14.8379L13.5343 14.2528C13.3579 14.0764 13.0712 14.0764 12.8948 14.2528C12.7184 14.4292 12.7184 14.7158 12.8948 14.8922L13.7998 15.7971C13.9762 15.9743 14.2629 15.9743 14.4393 15.7971L16.2485 13.9882C16.4249 13.8118 16.4249 13.5251 16.2485 13.3488C16.1603 13.2606 16.0441 13.2164 15.9288 13.2164Z" fill="#6754E2"/>
<path fill-rule="evenodd" clip-rule="evenodd" d="M8.69126 1.00358C8.24427 1.00358 7.79813 1.04344 7.35624 1.12146C7.14165 1.15878 6.98303 1.34449 6.98134 1.56331L6.9771 2.39101C6.62595 2.48768 6.28244 2.6115 5.95164 2.76416L5.41645 2.13322C5.27565 1.967 5.03477 1.92545 4.84563 2.034C4.0687 2.48262 3.37659 3.06439 2.80067 3.75045C2.65987 3.91752 2.65987 4.16175 2.79897 4.33052L3.32569 4.96826C3.11789 5.26678 2.93637 5.58225 2.78117 5.91044L1.96438 5.77136C1.74979 5.73489 1.5386 5.85786 1.46395 6.0631C1.1569 6.90606 1 7.79568 1 8.69286C1 8.91081 1.15606 9.09823 1.37065 9.13809L2.18405 9.2865C2.21713 9.64947 2.28074 10.0082 2.37319 10.3601L1.65902 10.7774C1.47072 10.8885 1.38845 11.1166 1.46309 11.3227C1.77014 12.1656 2.22136 12.9484 2.79811 13.6352C2.93806 13.8023 3.17894 13.8447 3.36894 13.7362L4.08819 13.3274C4.34688 13.5844 4.62594 13.8193 4.92365 14.0288L4.64459 14.8073C4.57165 15.0125 4.65562 15.2423 4.84476 15.3509C5.62169 15.7995 6.47072 16.1082 7.35374 16.2642C7.56833 16.3024 7.78036 16.1811 7.85671 15.9759L8.26722 14.8683C8.35458 14.6342 8.23499 14.3739 8.00088 14.2874C7.76678 14.2009 7.50641 14.3205 7.41903 14.5545L7.14338 15.2983C6.61751 15.1753 6.10861 14.9896 5.62684 14.7462L5.89317 13.9991C5.96527 13.7981 5.88723 13.5759 5.70657 13.4631C5.26212 13.1849 4.85754 12.8465 4.50726 12.4564C4.36561 12.2978 4.13235 12.2605 3.94831 12.3665L3.25789 12.7583C2.93473 12.3267 2.66501 11.8569 2.45213 11.3608L3.13576 10.9596C3.31981 10.8528 3.40294 10.6323 3.33677 10.4296C3.17477 9.93092 3.08316 9.41191 3.06451 8.88696C3.05688 8.6741 2.90251 8.49685 2.69386 8.45784L1.9144 8.31452C1.94408 7.77599 2.03823 7.24342 2.19515 6.72611L2.97718 6.85841C3.18583 6.89403 3.39364 6.77869 3.47337 6.58195C3.6693 6.09601 3.93309 5.63977 4.25625 5.22591C4.38687 5.05884 4.38347 4.82223 4.24861 4.65856L3.74226 4.04796C4.11121 3.65446 4.52598 3.30506 4.97805 3.00995L5.4912 3.61547C5.62861 3.77745 5.861 3.82155 6.04845 3.72148C6.5124 3.47554 7.0069 3.29492 7.52003 3.18636C7.72783 3.14226 7.87711 2.95908 7.87795 2.74623L7.88219 1.95416C8.4191 1.89055 8.95937 1.89055 9.49627 1.95416L9.50136 2.74623C9.50221 2.9591 9.65149 3.14227 9.85929 3.18636C10.3724 3.29576 10.8678 3.47554 11.3309 3.72148C11.5183 3.82155 11.7499 3.77745 11.8873 3.61547L12.4013 3.00995C12.8533 3.30508 13.2681 3.65448 13.6371 4.04796L13.1307 4.65856C12.9958 4.82223 12.9916 5.05798 13.1222 5.22591C13.4454 5.6389 13.71 6.09601 13.9059 6.58195C13.9857 6.7787 14.1926 6.89319 14.4021 6.85841L15.1833 6.72611C15.2944 7.09078 15.375 7.46391 15.4225 7.84215C15.4539 8.08977 15.6795 8.26532 15.928 8.23395C16.1757 8.20257 16.3504 7.97699 16.319 7.72851H16.3199C16.2486 7.16032 16.1129 6.59976 15.9161 6.06039C15.8415 5.85516 15.6303 5.7322 15.4157 5.76865L14.5989 5.90773C14.4446 5.57869 14.2613 5.26406 14.0536 4.96383C14.0536 4.96468 14.5811 4.32694 14.5811 4.32694C14.7211 4.15903 14.7211 3.9148 14.5794 3.74687C14.0035 3.06078 13.3114 2.47904 12.5345 2.03042C12.3453 1.92102 12.1044 1.96342 11.9636 2.12964L11.4285 2.76058C11.0977 2.60793 10.7541 2.48412 10.403 2.38743L10.3988 1.55973C10.3971 1.34178 10.2393 1.15605 10.0239 1.11788C9.58194 1.03986 9.13582 1 8.68883 1L8.69126 1.00358ZM8.69126 4.16936C6.1951 4.16936 4.16794 6.1962 4.16794 8.69203C4.16794 11.0183 5.92876 12.9375 8.1899 13.1876C8.43756 13.2155 8.66149 13.0358 8.68863 12.7881C8.71662 12.5397 8.53681 12.3166 8.28828 12.2886C6.47998 12.0885 5.07276 10.5543 5.07276 8.69211C5.07276 6.69495 6.69448 5.07346 8.69194 5.07346C10.5537 5.07346 12.0881 6.48124 12.289 8.29004C12.317 8.53852 12.54 8.7166 12.7885 8.68947C13.0362 8.66233 13.216 8.4393 13.188 8.19081C12.9378 5.93077 11.0192 4.16943 8.69185 4.16943L8.69126 4.16936ZM14.5717 9.1449C11.5759 9.1449 9.14333 11.5771 9.14333 14.5725C9.14333 17.5678 11.5759 20 14.5717 20C17.5675 20 20 17.5678 20 14.5725C20 11.5771 17.5675 9.1449 14.5717 9.1449ZM14.5717 10.0498C17.0678 10.0498 19.095 12.0766 19.095 14.5725C19.095 17.0683 17.0679 19.0951 14.5717 19.0951C12.0755 19.0951 10.0483 17.0683 10.0483 14.5725C10.0483 12.0766 12.0755 10.0498 14.5717 10.0498ZM14.5717 10.9547C12.5742 10.9547 10.9525 12.5762 10.9525 14.5733C10.9525 16.5705 12.5742 18.192 14.5717 18.192C16.5691 18.192 18.1908 16.5705 18.1908 14.5733C18.1908 12.5762 16.5691 10.9547 14.5717 10.9547ZM14.5717 11.8595C16.0695 11.8595 17.2858 13.0757 17.2858 14.5733C17.2858 16.071 16.0695 17.2871 14.5717 17.2871C13.0738 17.2871 11.8575 16.071 11.8575 14.5733C11.8575 13.0757 13.0738 11.8595 14.5717 11.8595ZM15.9288 13.2164C15.8125 13.2164 15.6972 13.2605 15.609 13.3487L14.1196 14.8379L13.5343 14.2528C13.3579 14.0764 13.0712 14.0764 12.8948 14.2528C12.7184 14.4292 12.7184 14.7158 12.8948 14.8922L13.7998 15.7971C13.9762 15.9743 14.2629 15.9743 14.4393 15.7971L16.2485 13.9882C16.4249 13.8118 16.4249 13.5251 16.2485 13.3488C16.1603 13.2606 16.0441 13.2164 15.9288 13.2164Z" stroke="#6754E2" stroke-width="0.4" mask="url(#path-1-outside-1_6241_97608)"/>
</svg>
