<svg width="20" height="23" viewBox="0 0 20 23" fill="none" xmlns="http://www.w3.org/2000/svg">
<mask id="path-1-outside-1_6241_97601" maskUnits="userSpaceOnUse" x="2.19727" y="0" width="16" height="23" fill="black">
<rect fill="white" x="2.19727" width="16" height="23"/>
<path fill-rule="evenodd" clip-rule="evenodd" d="M14.4719 2.85068C15.034 3.43676 15.4798 4.1332 15.7837 4.89997C16.0875 5.66674 16.2434 6.48871 16.2424 7.31866C16.2424 9.73925 13.6102 13.4592 11.7055 16.1514C11.2298 16.8237 10.8005 17.4302 10.4683 17.9386C10.4391 17.9851 10.3994 18.0234 10.3527 18.05C10.306 18.0766 10.2538 18.0908 10.2006 18.0913C10.1474 18.0918 10.0949 18.0786 10.0478 18.0529C10.0006 18.0272 9.96029 17.9897 9.9303 17.9438C9.59765 17.4344 9.16714 16.8261 8.68995 16.1514C6.78497 13.4592 4.15303 9.73925 4.15303 7.31866C4.15305 6.06894 4.50757 4.8473 5.17177 3.8082C5.83597 2.7691 6.78002 1.95923 7.88453 1.48098C8.98904 1.00274 10.2044 0.877608 11.3769 1.12141C12.5495 1.36521 13.6265 1.967 14.4719 2.85068ZM15.5938 7.31866C15.5938 5.82263 15.0253 4.38787 14.0134 3.33002C13.0014 2.27216 11.6289 1.67787 10.1977 1.67787C8.76657 1.67787 7.39404 2.27216 6.38207 3.33002C5.3701 4.38787 4.80158 5.82263 4.80158 7.31866C4.80158 9.51926 7.35868 13.1337 9.20937 15.7493C9.57419 16.2649 9.9122 16.7427 10.1977 17.1626C10.4832 16.7422 10.8212 16.2649 11.1861 15.7493C13.0367 13.1337 15.5938 9.51972 15.5938 7.31866ZM11.0165 3.95646C10.8271 3.75845 10.5778 3.63521 10.3112 3.60776C10.0446 3.5803 9.77717 3.65033 9.55443 3.8059C9.33169 3.96148 9.16744 4.19297 9.08967 4.46095C9.0119 4.72892 9.02542 5.0168 9.12793 5.27552C9.23045 5.53424 9.4156 5.7478 9.65185 5.87981C9.88811 6.01182 10.1608 6.05412 10.4236 5.99949C10.6863 5.94487 10.9228 5.7967 11.0928 5.58024C11.2627 5.36377 11.3556 5.0924 11.3556 4.81237C11.3558 4.65338 11.326 4.49592 11.2678 4.34904C11.2096 4.20215 11.1242 4.06874 11.0165 3.95646ZM10.1977 2.92401C9.77984 2.92406 9.37492 3.07558 9.05193 3.35273C8.72894 3.62989 8.50787 4.01553 8.42639 4.44397C8.34491 4.8724 8.40806 5.31711 8.60507 5.70233C8.80209 6.08756 9.12078 6.38945 9.50686 6.55659C9.89293 6.72372 10.3225 6.74575 10.7224 6.61893C11.1222 6.4921 11.4677 6.22427 11.6998 5.86106C11.932 5.49785 12.0365 5.06173 11.9955 4.62702C11.9545 4.19231 11.7706 3.78589 11.4751 3.47702C11.3076 3.30143 11.1084 3.16219 10.8892 3.06729C10.67 2.97239 10.435 2.92369 10.1977 2.92401ZM5.54932 16.8529H4.90301C4.96823 16.5485 5.09912 16.2637 5.2857 16.0202C5.63343 15.5792 6.06769 15.2215 6.55911 14.9711C6.59688 14.9508 6.63045 14.9228 6.6579 14.8889C6.68535 14.855 6.70614 14.8158 6.71908 14.7735C6.73203 14.7312 6.73687 14.6866 6.73335 14.6424C6.72982 14.5981 6.71798 14.555 6.69852 14.5155C6.67905 14.476 6.65233 14.4409 6.6199 14.4122C6.58746 14.3835 6.54993 14.3618 6.50945 14.3483C6.46898 14.3347 6.42635 14.3297 6.38401 14.3334C6.34166 14.337 6.30042 14.3494 6.26265 14.3698C5.68729 14.6658 5.17972 15.0879 4.77455 15.6075C4.49783 15.9679 4.31532 16.3972 4.24485 16.8534H3.53867C3.4947 16.851 3.45072 16.858 3.40941 16.8739C3.36809 16.8898 3.33032 16.9144 3.29837 16.9461C3.26643 16.9777 3.241 17.0159 3.22361 17.0582C3.20623 17.1005 3.19727 17.146 3.19727 17.192C3.19727 17.2381 3.20623 17.2836 3.22361 17.3259C3.241 17.3682 3.26643 17.4063 3.29837 17.438C3.33032 17.4697 3.36809 17.4943 3.40941 17.5102C3.45072 17.5261 3.4947 17.5331 3.53867 17.5307H4.24329C4.37376 18.4601 5.03549 19.2822 6.03902 19.8863C7.21916 20.548 8.53426 20.9033 9.87333 20.922V21.6787C9.87769 21.7654 9.91372 21.8471 9.97399 21.9069C10.0343 21.9667 10.1142 22 10.1973 22C10.2804 22 10.3603 21.9667 10.4205 21.9069C10.4808 21.8471 10.5168 21.7654 10.5212 21.6787V20.922C11.8603 20.9033 13.1754 20.548 14.3555 19.8863C15.359 19.2833 16.0208 18.4601 16.1512 17.5307H16.8559C16.8998 17.5331 16.9438 17.5261 16.9851 17.5102C17.0264 17.4943 17.0642 17.4697 17.0962 17.438C17.1281 17.4063 17.1535 17.3682 17.1709 17.3259C17.1883 17.2836 17.1973 17.2381 17.1973 17.192C17.1973 17.146 17.1883 17.1005 17.1709 17.0582C17.1535 17.0159 17.1281 16.9777 17.0962 16.9461C17.0642 16.9144 17.0264 16.8898 16.9851 16.8739C16.9438 16.858 16.8998 16.851 16.8559 16.8534H16.1521C16.0817 16.3972 15.8992 15.9679 15.6224 15.6075C15.2173 15.0879 14.7097 14.6658 14.1343 14.3698C14.0966 14.3494 14.0553 14.337 14.013 14.3334C13.9706 14.3297 13.928 14.3347 13.8875 14.3483C13.8471 14.3618 13.8095 14.3835 13.7771 14.4122C13.7447 14.4409 13.7179 14.476 13.6985 14.5155C13.679 14.555 13.6672 14.5981 13.6636 14.6424C13.6601 14.6866 13.665 14.7312 13.6779 14.7735C13.6909 14.8158 13.7116 14.855 13.7391 14.8889C13.7665 14.9228 13.8001 14.9508 13.8379 14.9711C14.3293 15.2215 14.7636 15.5792 15.1113 16.0202C15.2978 16.2637 15.4287 16.5485 15.494 16.8529H14.8461C14.8021 16.8505 14.7582 16.8575 14.7168 16.8734C14.6755 16.8893 14.6378 16.9139 14.6058 16.9456C14.5739 16.9773 14.5484 17.0154 14.531 17.0577C14.5137 17.1 14.5047 17.1455 14.5047 17.1916C14.5047 17.2376 14.5137 17.2831 14.531 17.3254C14.5484 17.3677 14.5739 17.4059 14.6058 17.4376C14.6378 17.4692 14.6755 17.4938 14.7168 17.5097C14.7582 17.5256 14.8021 17.5326 14.8461 17.5302H15.494C15.3599 18.2074 14.8267 18.8249 14.0351 19.3004C12.9529 19.9033 11.7483 20.2266 10.5221 20.2432V19.5771C10.5177 19.4904 10.4817 19.4087 10.4214 19.3489C10.3612 19.2892 10.2812 19.2558 10.1982 19.2558C10.1151 19.2558 10.0352 19.2892 9.97488 19.3489C9.91461 19.4087 9.87858 19.4904 9.87422 19.5771V20.2432C8.64813 20.2264 7.4437 19.9031 6.36162 19.3001C5.57009 18.8247 5.0375 18.2067 4.90278 17.53H5.55066C5.59463 17.5324 5.63861 17.5254 5.67992 17.5095C5.72124 17.4936 5.75901 17.469 5.79095 17.4373C5.8229 17.4056 5.84833 17.3675 5.86572 17.3252C5.8831 17.2829 5.89206 17.2374 5.89206 17.1913C5.89206 17.1453 5.8831 17.0998 5.86572 17.0575C5.84833 17.0152 5.8229 16.977 5.79095 16.9453C5.75901 16.9137 5.72124 16.8891 5.67992 16.8732C5.63861 16.8573 5.59463 16.8503 5.55066 16.8527L5.54932 16.8529Z"/>
</mask>
<path fill-rule="evenodd" clip-rule="evenodd" d="M14.4719 2.85068C15.034 3.43676 15.4798 4.1332 15.7837 4.89997C16.0875 5.66674 16.2434 6.48871 16.2424 7.31866C16.2424 9.73925 13.6102 13.4592 11.7055 16.1514C11.2298 16.8237 10.8005 17.4302 10.4683 17.9386C10.4391 17.9851 10.3994 18.0234 10.3527 18.05C10.306 18.0766 10.2538 18.0908 10.2006 18.0913C10.1474 18.0918 10.0949 18.0786 10.0478 18.0529C10.0006 18.0272 9.96029 17.9897 9.9303 17.9438C9.59765 17.4344 9.16714 16.8261 8.68995 16.1514C6.78497 13.4592 4.15303 9.73925 4.15303 7.31866C4.15305 6.06894 4.50757 4.8473 5.17177 3.8082C5.83597 2.7691 6.78002 1.95923 7.88453 1.48098C8.98904 1.00274 10.2044 0.877608 11.3769 1.12141C12.5495 1.36521 13.6265 1.967 14.4719 2.85068ZM15.5938 7.31866C15.5938 5.82263 15.0253 4.38787 14.0134 3.33002C13.0014 2.27216 11.6289 1.67787 10.1977 1.67787C8.76657 1.67787 7.39404 2.27216 6.38207 3.33002C5.3701 4.38787 4.80158 5.82263 4.80158 7.31866C4.80158 9.51926 7.35868 13.1337 9.20937 15.7493C9.57419 16.2649 9.9122 16.7427 10.1977 17.1626C10.4832 16.7422 10.8212 16.2649 11.1861 15.7493C13.0367 13.1337 15.5938 9.51972 15.5938 7.31866ZM11.0165 3.95646C10.8271 3.75845 10.5778 3.63521 10.3112 3.60776C10.0446 3.5803 9.77717 3.65033 9.55443 3.8059C9.33169 3.96148 9.16744 4.19297 9.08967 4.46095C9.0119 4.72892 9.02542 5.0168 9.12793 5.27552C9.23045 5.53424 9.4156 5.7478 9.65185 5.87981C9.88811 6.01182 10.1608 6.05412 10.4236 5.99949C10.6863 5.94487 10.9228 5.7967 11.0928 5.58024C11.2627 5.36377 11.3556 5.0924 11.3556 4.81237C11.3558 4.65338 11.326 4.49592 11.2678 4.34904C11.2096 4.20215 11.1242 4.06874 11.0165 3.95646ZM10.1977 2.92401C9.77984 2.92406 9.37492 3.07558 9.05193 3.35273C8.72894 3.62989 8.50787 4.01553 8.42639 4.44397C8.34491 4.8724 8.40806 5.31711 8.60507 5.70233C8.80209 6.08756 9.12078 6.38945 9.50686 6.55659C9.89293 6.72372 10.3225 6.74575 10.7224 6.61893C11.1222 6.4921 11.4677 6.22427 11.6998 5.86106C11.932 5.49785 12.0365 5.06173 11.9955 4.62702C11.9545 4.19231 11.7706 3.78589 11.4751 3.47702C11.3076 3.30143 11.1084 3.16219 10.8892 3.06729C10.67 2.97239 10.435 2.92369 10.1977 2.92401ZM5.54932 16.8529H4.90301C4.96823 16.5485 5.09912 16.2637 5.2857 16.0202C5.63343 15.5792 6.06769 15.2215 6.55911 14.9711C6.59688 14.9508 6.63045 14.9228 6.6579 14.8889C6.68535 14.855 6.70614 14.8158 6.71908 14.7735C6.73203 14.7312 6.73687 14.6866 6.73335 14.6424C6.72982 14.5981 6.71798 14.555 6.69852 14.5155C6.67905 14.476 6.65233 14.4409 6.6199 14.4122C6.58746 14.3835 6.54993 14.3618 6.50945 14.3483C6.46898 14.3347 6.42635 14.3297 6.38401 14.3334C6.34166 14.337 6.30042 14.3494 6.26265 14.3698C5.68729 14.6658 5.17972 15.0879 4.77455 15.6075C4.49783 15.9679 4.31532 16.3972 4.24485 16.8534H3.53867C3.4947 16.851 3.45072 16.858 3.40941 16.8739C3.36809 16.8898 3.33032 16.9144 3.29837 16.9461C3.26643 16.9777 3.241 17.0159 3.22361 17.0582C3.20623 17.1005 3.19727 17.146 3.19727 17.192C3.19727 17.2381 3.20623 17.2836 3.22361 17.3259C3.241 17.3682 3.26643 17.4063 3.29837 17.438C3.33032 17.4697 3.36809 17.4943 3.40941 17.5102C3.45072 17.5261 3.4947 17.5331 3.53867 17.5307H4.24329C4.37376 18.4601 5.03549 19.2822 6.03902 19.8863C7.21916 20.548 8.53426 20.9033 9.87333 20.922V21.6787C9.87769 21.7654 9.91372 21.8471 9.97399 21.9069C10.0343 21.9667 10.1142 22 10.1973 22C10.2804 22 10.3603 21.9667 10.4205 21.9069C10.4808 21.8471 10.5168 21.7654 10.5212 21.6787V20.922C11.8603 20.9033 13.1754 20.548 14.3555 19.8863C15.359 19.2833 16.0208 18.4601 16.1512 17.5307H16.8559C16.8998 17.5331 16.9438 17.5261 16.9851 17.5102C17.0264 17.4943 17.0642 17.4697 17.0962 17.438C17.1281 17.4063 17.1535 17.3682 17.1709 17.3259C17.1883 17.2836 17.1973 17.2381 17.1973 17.192C17.1973 17.146 17.1883 17.1005 17.1709 17.0582C17.1535 17.0159 17.1281 16.9777 17.0962 16.9461C17.0642 16.9144 17.0264 16.8898 16.9851 16.8739C16.9438 16.858 16.8998 16.851 16.8559 16.8534H16.1521C16.0817 16.3972 15.8992 15.9679 15.6224 15.6075C15.2173 15.0879 14.7097 14.6658 14.1343 14.3698C14.0966 14.3494 14.0553 14.337 14.013 14.3334C13.9706 14.3297 13.928 14.3347 13.8875 14.3483C13.8471 14.3618 13.8095 14.3835 13.7771 14.4122C13.7447 14.4409 13.7179 14.476 13.6985 14.5155C13.679 14.555 13.6672 14.5981 13.6636 14.6424C13.6601 14.6866 13.665 14.7312 13.6779 14.7735C13.6909 14.8158 13.7116 14.855 13.7391 14.8889C13.7665 14.9228 13.8001 14.9508 13.8379 14.9711C14.3293 15.2215 14.7636 15.5792 15.1113 16.0202C15.2978 16.2637 15.4287 16.5485 15.494 16.8529H14.8461C14.8021 16.8505 14.7582 16.8575 14.7168 16.8734C14.6755 16.8893 14.6378 16.9139 14.6058 16.9456C14.5739 16.9773 14.5484 17.0154 14.531 17.0577C14.5137 17.1 14.5047 17.1455 14.5047 17.1916C14.5047 17.2376 14.5137 17.2831 14.531 17.3254C14.5484 17.3677 14.5739 17.4059 14.6058 17.4376C14.6378 17.4692 14.6755 17.4938 14.7168 17.5097C14.7582 17.5256 14.8021 17.5326 14.8461 17.5302H15.494C15.3599 18.2074 14.8267 18.8249 14.0351 19.3004C12.9529 19.9033 11.7483 20.2266 10.5221 20.2432V19.5771C10.5177 19.4904 10.4817 19.4087 10.4214 19.3489C10.3612 19.2892 10.2812 19.2558 10.1982 19.2558C10.1151 19.2558 10.0352 19.2892 9.97488 19.3489C9.91461 19.4087 9.87858 19.4904 9.87422 19.5771V20.2432C8.64813 20.2264 7.4437 19.9031 6.36162 19.3001C5.57009 18.8247 5.0375 18.2067 4.90278 17.53H5.55066C5.59463 17.5324 5.63861 17.5254 5.67992 17.5095C5.72124 17.4936 5.75901 17.469 5.79095 17.4373C5.8229 17.4056 5.84833 17.3675 5.86572 17.3252C5.8831 17.2829 5.89206 17.2374 5.89206 17.1913C5.89206 17.1453 5.8831 17.0998 5.86572 17.0575C5.84833 17.0152 5.8229 16.977 5.79095 16.9453C5.75901 16.9137 5.72124 16.8891 5.67992 16.8732C5.63861 16.8573 5.59463 16.8503 5.55066 16.8527L5.54932 16.8529Z" fill="#6754E2"/>
<path fill-rule="evenodd" clip-rule="evenodd" d="M14.4719 2.85068C15.034 3.43676 15.4798 4.1332 15.7837 4.89997C16.0875 5.66674 16.2434 6.48871 16.2424 7.31866C16.2424 9.73925 13.6102 13.4592 11.7055 16.1514C11.2298 16.8237 10.8005 17.4302 10.4683 17.9386C10.4391 17.9851 10.3994 18.0234 10.3527 18.05C10.306 18.0766 10.2538 18.0908 10.2006 18.0913C10.1474 18.0918 10.0949 18.0786 10.0478 18.0529C10.0006 18.0272 9.96029 17.9897 9.9303 17.9438C9.59765 17.4344 9.16714 16.8261 8.68995 16.1514C6.78497 13.4592 4.15303 9.73925 4.15303 7.31866C4.15305 6.06894 4.50757 4.8473 5.17177 3.8082C5.83597 2.7691 6.78002 1.95923 7.88453 1.48098C8.98904 1.00274 10.2044 0.877608 11.3769 1.12141C12.5495 1.36521 13.6265 1.967 14.4719 2.85068ZM15.5938 7.31866C15.5938 5.82263 15.0253 4.38787 14.0134 3.33002C13.0014 2.27216 11.6289 1.67787 10.1977 1.67787C8.76657 1.67787 7.39404 2.27216 6.38207 3.33002C5.3701 4.38787 4.80158 5.82263 4.80158 7.31866C4.80158 9.51926 7.35868 13.1337 9.20937 15.7493C9.57419 16.2649 9.9122 16.7427 10.1977 17.1626C10.4832 16.7422 10.8212 16.2649 11.1861 15.7493C13.0367 13.1337 15.5938 9.51972 15.5938 7.31866ZM11.0165 3.95646C10.8271 3.75845 10.5778 3.63521 10.3112 3.60776C10.0446 3.5803 9.77717 3.65033 9.55443 3.8059C9.33169 3.96148 9.16744 4.19297 9.08967 4.46095C9.0119 4.72892 9.02542 5.0168 9.12793 5.27552C9.23045 5.53424 9.4156 5.7478 9.65185 5.87981C9.88811 6.01182 10.1608 6.05412 10.4236 5.99949C10.6863 5.94487 10.9228 5.7967 11.0928 5.58024C11.2627 5.36377 11.3556 5.0924 11.3556 4.81237C11.3558 4.65338 11.326 4.49592 11.2678 4.34904C11.2096 4.20215 11.1242 4.06874 11.0165 3.95646ZM10.1977 2.92401C9.77984 2.92406 9.37492 3.07558 9.05193 3.35273C8.72894 3.62989 8.50787 4.01553 8.42639 4.44397C8.34491 4.8724 8.40806 5.31711 8.60507 5.70233C8.80209 6.08756 9.12078 6.38945 9.50686 6.55659C9.89293 6.72372 10.3225 6.74575 10.7224 6.61893C11.1222 6.4921 11.4677 6.22427 11.6998 5.86106C11.932 5.49785 12.0365 5.06173 11.9955 4.62702C11.9545 4.19231 11.7706 3.78589 11.4751 3.47702C11.3076 3.30143 11.1084 3.16219 10.8892 3.06729C10.67 2.97239 10.435 2.92369 10.1977 2.92401ZM5.54932 16.8529H4.90301C4.96823 16.5485 5.09912 16.2637 5.2857 16.0202C5.63343 15.5792 6.06769 15.2215 6.55911 14.9711C6.59688 14.9508 6.63045 14.9228 6.6579 14.8889C6.68535 14.855 6.70614 14.8158 6.71908 14.7735C6.73203 14.7312 6.73687 14.6866 6.73335 14.6424C6.72982 14.5981 6.71798 14.555 6.69852 14.5155C6.67905 14.476 6.65233 14.4409 6.6199 14.4122C6.58746 14.3835 6.54993 14.3618 6.50945 14.3483C6.46898 14.3347 6.42635 14.3297 6.38401 14.3334C6.34166 14.337 6.30042 14.3494 6.26265 14.3698C5.68729 14.6658 5.17972 15.0879 4.77455 15.6075C4.49783 15.9679 4.31532 16.3972 4.24485 16.8534H3.53867C3.4947 16.851 3.45072 16.858 3.40941 16.8739C3.36809 16.8898 3.33032 16.9144 3.29837 16.9461C3.26643 16.9777 3.241 17.0159 3.22361 17.0582C3.20623 17.1005 3.19727 17.146 3.19727 17.192C3.19727 17.2381 3.20623 17.2836 3.22361 17.3259C3.241 17.3682 3.26643 17.4063 3.29837 17.438C3.33032 17.4697 3.36809 17.4943 3.40941 17.5102C3.45072 17.5261 3.4947 17.5331 3.53867 17.5307H4.24329C4.37376 18.4601 5.03549 19.2822 6.03902 19.8863C7.21916 20.548 8.53426 20.9033 9.87333 20.922V21.6787C9.87769 21.7654 9.91372 21.8471 9.97399 21.9069C10.0343 21.9667 10.1142 22 10.1973 22C10.2804 22 10.3603 21.9667 10.4205 21.9069C10.4808 21.8471 10.5168 21.7654 10.5212 21.6787V20.922C11.8603 20.9033 13.1754 20.548 14.3555 19.8863C15.359 19.2833 16.0208 18.4601 16.1512 17.5307H16.8559C16.8998 17.5331 16.9438 17.5261 16.9851 17.5102C17.0264 17.4943 17.0642 17.4697 17.0962 17.438C17.1281 17.4063 17.1535 17.3682 17.1709 17.3259C17.1883 17.2836 17.1973 17.2381 17.1973 17.192C17.1973 17.146 17.1883 17.1005 17.1709 17.0582C17.1535 17.0159 17.1281 16.9777 17.0962 16.9461C17.0642 16.9144 17.0264 16.8898 16.9851 16.8739C16.9438 16.858 16.8998 16.851 16.8559 16.8534H16.1521C16.0817 16.3972 15.8992 15.9679 15.6224 15.6075C15.2173 15.0879 14.7097 14.6658 14.1343 14.3698C14.0966 14.3494 14.0553 14.337 14.013 14.3334C13.9706 14.3297 13.928 14.3347 13.8875 14.3483C13.8471 14.3618 13.8095 14.3835 13.7771 14.4122C13.7447 14.4409 13.7179 14.476 13.6985 14.5155C13.679 14.555 13.6672 14.5981 13.6636 14.6424C13.6601 14.6866 13.665 14.7312 13.6779 14.7735C13.6909 14.8158 13.7116 14.855 13.7391 14.8889C13.7665 14.9228 13.8001 14.9508 13.8379 14.9711C14.3293 15.2215 14.7636 15.5792 15.1113 16.0202C15.2978 16.2637 15.4287 16.5485 15.494 16.8529H14.8461C14.8021 16.8505 14.7582 16.8575 14.7168 16.8734C14.6755 16.8893 14.6378 16.9139 14.6058 16.9456C14.5739 16.9773 14.5484 17.0154 14.531 17.0577C14.5137 17.1 14.5047 17.1455 14.5047 17.1916C14.5047 17.2376 14.5137 17.2831 14.531 17.3254C14.5484 17.3677 14.5739 17.4059 14.6058 17.4376C14.6378 17.4692 14.6755 17.4938 14.7168 17.5097C14.7582 17.5256 14.8021 17.5326 14.8461 17.5302H15.494C15.3599 18.2074 14.8267 18.8249 14.0351 19.3004C12.9529 19.9033 11.7483 20.2266 10.5221 20.2432V19.5771C10.5177 19.4904 10.4817 19.4087 10.4214 19.3489C10.3612 19.2892 10.2812 19.2558 10.1982 19.2558C10.1151 19.2558 10.0352 19.2892 9.97488 19.3489C9.91461 19.4087 9.87858 19.4904 9.87422 19.5771V20.2432C8.64813 20.2264 7.4437 19.9031 6.36162 19.3001C5.57009 18.8247 5.0375 18.2067 4.90278 17.53H5.55066C5.59463 17.5324 5.63861 17.5254 5.67992 17.5095C5.72124 17.4936 5.75901 17.469 5.79095 17.4373C5.8229 17.4056 5.84833 17.3675 5.86572 17.3252C5.8831 17.2829 5.89206 17.2374 5.89206 17.1913C5.89206 17.1453 5.8831 17.0998 5.86572 17.0575C5.84833 17.0152 5.8229 16.977 5.79095 16.9453C5.75901 16.9137 5.72124 16.8891 5.67992 16.8732C5.63861 16.8573 5.59463 16.8503 5.55066 16.8527L5.54932 16.8529Z" stroke="#6754E2" stroke-width="0.8" mask="url(#path-1-outside-1_6241_97601)"/>
</svg>
