<svg width="20" height="20" viewBox="0 0 20 20" fill="none" xmlns="http://www.w3.org/2000/svg">
<path d="M15.7333 1.95001C16.9301 1.95388 17.9079 2.934 17.9079 4.13166V18.2859C17.9079 18.5367 17.7861 18.7726 17.5733 18.917L17.5723 18.9177L17.5723 18.9177C17.3603 19.054 17.0943 19.0848 16.858 18.9857L13.7146 17.6789L10.3026 18.9929C10.3024 18.9929 10.3022 18.993 10.302 18.9931C10.1193 19.069 9.92099 19.069 9.73837 18.9929C9.73835 18.9929 9.73834 18.9929 9.73833 18.9929L6.55244 17.686L3.18298 18.9928C3.09681 19.0317 2.99745 19.0464 2.90782 19.0464C2.7645 19.0464 2.61204 19.0088 2.4815 18.9168C2.48136 18.9167 2.48122 18.9166 2.48108 18.9165L2.50991 18.8757L15.7333 1.95001ZM15.7333 1.95001V1.95H15.7262L15.7333 1.95001ZM16.3868 4.13166V17.1422L14.0188 16.1578C13.8362 16.0817 13.6378 16.0816 13.4551 16.1576L10.0423 17.4718L6.84931 16.1649C6.84925 16.1649 6.8492 16.1649 6.84915 16.1649C6.75649 16.1263 6.65735 16.1113 6.56007 16.1113C6.46307 16.1113 6.37079 16.1262 6.28487 16.165L3.66837 17.1825V4.13166C3.66837 3.76847 3.96574 3.47111 4.32893 3.47111H15.7262C16.0894 3.47111 16.3868 3.76847 16.3868 4.13166Z" fill="#6754E2" stroke="#6754E2" stroke-width="0.1"/>
<path d="M12.38 5.51641H7.68321C7.26479 5.51641 6.92266 5.85854 6.92266 6.27696C6.92266 6.69538 7.26479 7.03751 7.68321 7.03751H12.38C12.7984 7.03751 13.1405 6.69538 13.1405 6.27696C13.1405 5.85854 12.7984 5.51641 12.38 5.51641Z" fill="#6754E2" stroke="#6754E2" stroke-width="0.1"/>
<path d="M12.38 8.70781H7.68321C7.26479 8.70781 6.92266 9.04995 6.92266 9.46837C6.92266 9.88679 7.26479 10.2289 7.68321 10.2289H12.38C12.7984 10.2289 13.1405 9.88679 13.1405 9.46837C13.1405 9.04995 12.7984 8.70781 12.38 8.70781Z" fill="#6754E2" stroke="#6754E2" stroke-width="0.1"/>
<path d="M10.9587 11.8973H9.10411C8.68569 11.8973 8.34355 12.2394 8.34355 12.6578C8.34355 13.0762 8.68569 13.4184 9.10411 13.4184H10.9587C11.3771 13.4184 11.7192 13.0762 11.7192 12.6578C11.7192 12.2394 11.3771 11.8973 10.9587 11.8973Z" fill="#6754E2" stroke="#6754E2" stroke-width="0.1"/>
</svg>
