<svg width="20" height="20" viewBox="0 0 20 20" fill="none" xmlns="http://www.w3.org/2000/svg">
<g clip-path="url(#clip0_6241_97597)">
<path d="M16.7533 3.8492L16.7533 3.84921C16.8932 3.7178 17.08 3.64553 17.2733 3.64717C17.4667 3.6488 17.6522 3.72422 17.7898 3.858L17.723 3.92663L17.7898 3.858C17.9274 3.99187 18.006 4.17355 18.0077 4.36408C18.0094 4.55462 17.9341 4.73763 17.7988 4.87384L17.7976 4.87507L17.7976 4.87506L17.1363 5.51821C18.5299 7.10642 19.297 9.12722 19.2972 11.2182C19.2972 11.2183 19.2972 11.2184 19.2972 11.2185L19.1972 11.2185L16.7533 3.8492ZM16.7533 3.8492L16.752 3.85041M16.7533 3.8492L16.752 3.85041M16.752 3.85041L16.0869 4.49734L16.752 3.85041ZM10.9668 6.75576V5.60926C10.9668 5.41653 10.8881 5.23228 10.7488 5.09687C10.6097 4.96155 10.4216 4.88601 10.226 4.88601C10.0304 4.88601 9.8423 4.96155 9.70317 5.09687C9.56395 5.23228 9.48521 5.41653 9.48521 5.60926V6.75576H9.26742C8.52141 6.71704 7.7893 6.96602 7.23012 7.44945C6.67018 7.93355 6.32886 8.61372 6.28141 9.34227L6.28056 9.34222L6.28141 9.35527C6.32886 10.0838 6.67018 10.764 7.23012 11.2481C7.7893 11.7315 8.52141 11.9805 9.26742 11.9418H11.1872V11.9422L11.1967 11.9413C11.5529 11.9075 11.9083 12.0104 12.1872 12.2274C12.4625 12.4416 12.6415 12.7501 12.6883 13.0883C12.6415 13.4264 12.4625 13.735 12.1872 13.9492C11.9083 14.1662 11.5529 14.269 11.1967 14.2352L11.1967 14.2348H11.1872H7.022C6.82641 14.2348 6.63829 14.3103 6.49917 14.4456C6.35995 14.581 6.2812 14.7653 6.2812 14.958C6.2812 15.1508 6.35995 15.335 6.49917 15.4704C6.63829 15.6057 6.82641 15.6813 7.022 15.6813H9.48521V16.7742C9.48521 16.9669 9.56395 17.1512 9.70317 17.2866C9.8423 17.4219 10.0304 17.4974 10.226 17.4974C10.4216 17.4974 10.6097 17.4219 10.7488 17.2866C10.8881 17.1512 10.9668 16.9669 10.9668 16.7742V15.6813H11.1846C11.9306 15.72 12.6627 15.471 13.2219 14.9876C13.7818 14.5035 14.1232 13.8233 14.1706 13.0948L14.1715 13.0948L14.1706 13.0818C14.1232 12.3532 13.7818 11.6731 13.2219 11.189C12.6627 10.7055 11.9306 10.4565 11.1846 10.4953H9.26481V10.4948L9.25536 10.4957C8.89909 10.5295 8.54367 10.4266 8.26482 10.2097C7.98951 9.99545 7.81047 9.68693 7.76369 9.34877C7.81047 9.01061 7.98951 8.70208 8.26482 8.48786C8.54367 8.27089 8.89909 8.16803 9.25536 8.20182L9.25532 8.20227H9.26481H13.43C13.6256 8.20227 13.8137 8.12672 13.9529 7.99141C14.0921 7.856 14.1708 7.67174 14.1708 7.47902C14.1708 7.28629 14.0921 7.10203 13.9529 6.96662C13.8137 6.83131 13.6256 6.75576 13.43 6.75576H10.9668ZM7.022 1.3465H13.43C13.6256 1.3465 13.8137 1.27096 13.9529 1.13564C14.0921 1.00023 14.1708 0.815979 14.1708 0.623251C14.1708 0.430523 14.0921 0.246269 13.9529 0.110861C13.8137 -0.0244559 13.6256 -0.1 13.43 -0.1H7.022C6.82641 -0.1 6.63829 -0.0244558 6.49917 0.110861C6.35995 0.246269 6.2812 0.430523 6.2812 0.623251C6.2812 0.81598 6.35995 1.00023 6.49917 1.13564C6.63829 1.27096 6.82641 1.3465 7.022 1.3465ZM16.5373 7.12003C17.3708 8.33341 17.8156 9.75965 17.8156 11.2184C17.8134 13.1739 17.0138 15.0493 15.5912 16.4329C14.1685 17.8166 12.239 18.5954 10.2259 18.5975C8.72425 18.5975 7.25654 18.1644 6.00838 17.3532C4.76022 16.5421 3.78783 15.3895 3.21374 14.0414C2.63966 12.6934 2.4895 11.2103 2.78212 9.77948C3.07475 8.34862 3.79713 7.03391 4.85836 6.00175C5.91961 4.96955 7.27207 4.26632 8.74483 3.98139C10.2176 3.69646 11.7442 3.84272 13.1313 4.40157C14.5185 4.96041 15.7036 5.90658 16.5373 7.12003Z" fill="#6754E2" stroke="#6754E2" stroke-width="0.2"/>
</g>
<defs>
<clipPath id="clip0_6241_97597">
<rect width="20" height="20" fill="white"/>
</clipPath>
</defs>
</svg>
