<svg width="20" height="20" viewBox="0 0 20 20" fill="none" xmlns="http://www.w3.org/2000/svg">
<path d="M11.0451 2.02492H16.9475V2.02493C18.2447 2.02657 19.2957 3.07744 19.2973 4.37463V4.37475V12.1722V12.1724C19.2957 13.4696 18.2447 14.5205 16.9473 14.5221H16.9472L11.944 14.5228C11.9207 14.7163 11.8868 14.908 11.8429 15.0979L11.8429 15.0979C11.7877 15.3359 11.6057 15.5249 11.3691 15.588L10.5621 15.804L11.0451 2.02492ZM11.0451 2.02492L10.608 1.58854C10.1674 1.14641 9.56911 0.898512 8.9455 0.900007M11.0451 2.02492L8.9455 0.900007M8.9455 0.900007H8.94562V1.00001L8.94537 0.900007C8.94542 0.900007 8.94546 0.900007 8.9455 0.900007ZM8.9455 0.900007L6.84126 0.900007L6.84114 0.900007C5.5438 0.901536 4.49278 1.95248 4.49121 3.2497V3.24983V8.81626M8.9455 0.900007L4.49121 8.81626M4.49121 8.81626C3.87274 9.06839 3.30476 9.43157 2.81628 9.88898L2.81625 9.889C2.63771 10.0563 2.56613 10.3074 2.62906 10.5436L2.6291 10.5437L2.84516 11.35L2.84516 11.3501C2.91141 11.597 2.76512 11.8505 2.51813 11.9167C2.51813 11.9167 2.51813 11.9167 2.51812 11.9167L1.71261 12.1327C1.71258 12.1327 1.71255 12.1327 1.71252 12.1328L1.71245 12.1328L1.73835 12.2294M4.49121 8.81626L2.51959 15.804M1.73835 12.2294C1.53766 12.2828 1.38312 12.4432 1.33625 12.6454C1.15094 13.4451 1.15094 14.2756 1.33625 15.0753C1.38312 15.2775 1.53766 15.4379 1.73835 15.4913M1.73835 12.2294L2.54403 12.0133L1.73835 12.2294ZM1.73835 15.4913L1.71249 15.5879L1.7126 15.588L1.73835 15.4913ZM1.73835 15.4913L2.5455 15.7074M2.5455 15.7074L2.51959 15.804M2.5455 15.7074C2.8458 15.7879 3.02378 16.0963 2.94321 16.3965M2.5455 15.7074L2.51964 15.804L2.51959 15.804M2.51959 15.804L2.94321 16.3965M2.94321 16.3965L2.72715 17.2029L2.94321 16.3965ZM2.72569 10.5178C2.67222 10.3172 2.73301 10.104 2.88463 9.96197L2.72569 10.5178ZM2.72569 10.5178L2.94175 11.3242L2.72569 10.5178ZM4.12814 16.713L4.12816 16.7129C4.38342 15.7595 3.81781 14.7797 2.86434 14.5238L2.8643 14.5238L2.46074 14.4157C2.41085 14.0468 2.41085 13.6729 2.46074 13.304L2.86427 13.1959C3.81779 12.9407 4.38417 11.9601 4.12814 11.0067L4.01998 10.6038C4.31417 10.3756 4.63825 10.1882 4.98247 10.0464L5.27777 10.3417C5.97598 11.0398 7.10792 11.0399 7.80555 10.3417C7.80556 10.3417 7.80557 10.3417 7.80558 10.3417L8.10085 10.0464C8.44495 10.1882 8.76905 10.3761 9.06332 10.6039L8.95518 11.0067L8.95517 11.0068C8.69991 11.9602 9.26551 12.94 10.219 13.1959L10.219 13.1959L10.6226 13.304C10.6725 13.6723 10.6725 14.0462 10.6226 14.4157L10.2191 14.5238C9.26554 14.779 8.69915 15.7596 8.95519 16.713L9.06335 17.1159C8.76916 17.3441 8.44507 17.5315 8.10085 17.6733L7.80555 17.378C7.10734 16.6799 5.97541 16.6798 5.27777 17.378C5.27776 17.378 5.27775 17.378 5.27774 17.378L4.98248 17.6733C4.63837 17.5315 4.31428 17.3436 4.02 17.1158L4.12814 16.713ZM11.8432 12.6219L11.8431 12.6218L11.3436 12.2284L11.3695 12.1318L11.3694 12.1318L10.5624 11.9158C10.3154 11.8495 10.1691 11.596 10.2353 11.3491L10.2354 11.3491L10.4514 10.5428L10.4514 10.5427C10.5144 10.3072 10.4428 10.0554 10.2643 9.88807C9.6539 9.31583 8.91974 8.89212 8.11936 8.64819L8.11917 8.64813C7.88534 8.57739 7.63172 8.64123 7.45919 8.81374L7.52989 8.88446L7.45918 8.81374L6.86811 9.40475C6.68743 9.58542 6.39478 9.58542 6.2141 9.40475L5.81712 9.00782V3.2497C5.81779 2.68383 6.27623 2.22539 6.84216 2.22467C6.8422 2.22467 6.84223 2.22467 6.84226 2.22467L8.94575 2.22467L8.946 2.22467C9.21807 2.22401 9.47816 2.33199 9.67035 2.52483L9.67047 2.52495L12.5511 5.40528C12.6754 5.52955 12.8444 5.59935 13.0203 5.59935H16.9474C17.5134 5.60001 17.9719 6.05848 17.9725 6.62437L17.9725 12.1719C17.9718 12.7378 17.5133 13.1963 16.9473 13.197H11.9443C11.921 13.0035 11.8871 12.8118 11.8432 12.6219ZM6.54113 11.7908H6.54099C5.3981 11.7908 4.4722 12.7166 4.4722 13.8594C4.4722 15.0022 5.3981 15.928 6.54099 15.928C7.68388 15.928 8.60978 15.0022 8.60978 13.8594V13.8593C8.60825 12.7173 7.68318 11.7924 6.54113 11.7908ZM17.9725 4.37461V4.51037C17.6539 4.35521 17.3029 4.27449 16.9475 4.27449H13.2952L12.3702 3.34958H16.9473C17.5133 3.35025 17.9718 3.80871 17.9725 4.37461ZM6.54099 14.6031C6.13038 14.6031 5.79722 14.27 5.79722 13.8594C5.79722 13.4489 6.13038 13.1157 6.54099 13.1157C6.95161 13.1157 7.28476 13.4489 7.28476 13.8594C7.28476 14.27 6.95161 14.6031 6.54099 14.6031Z" fill="#6754E2" stroke="#6754E2" stroke-width="0.2"/>
</svg>
