<svg width="21" height="20" viewBox="0 0 21 20" fill="none" xmlns="http://www.w3.org/2000/svg">
<mask id="mask0_6341_92993" style="mask-type:alpha" maskUnits="userSpaceOnUse" x="0" y="0" width="21" height="21">
<rect x="0.456055" width="20.2539" height="20.2539" fill="#D9D9D9"/>
</mask>
<g mask="url(#mask0_6341_92993)">
<path d="M11.6587 14.7681H13.6841V14.7049L10.2029 11.0127L10.224 10.9494H10.435C11.1945 10.9494 11.8239 10.7174 12.3233 10.2532C12.8226 9.78906 13.1285 9.24755 13.241 8.62868H14.0849V7.63709H13.2199C13.1777 7.42611 13.1039 7.22568 12.9984 7.0358C12.8929 6.84592 12.7628 6.65955 12.6081 6.47671H14.0849V5.48511H7.08044V6.68768H10.3717C10.7374 6.68768 11.0363 6.77911 11.2684 6.96196C11.5004 7.1448 11.6587 7.36985 11.7431 7.63709H7.08044V8.62868H11.7642C11.6798 8.90999 11.518 9.15261 11.2789 9.35656C11.0398 9.5605 10.7163 9.66248 10.3084 9.66248H8.19863V11.0127L11.6587 14.7681ZM10.5827 18.5658C9.41527 18.5658 8.31818 18.3442 7.29142 17.9012C6.26466 17.4581 5.37152 16.8568 4.612 16.0973C3.85248 15.3378 3.25119 14.4446 2.80814 13.4179C2.36508 12.3911 2.14355 11.294 2.14355 10.1266C2.14355 8.95922 2.36508 7.86213 2.80814 6.83537C3.25119 5.80861 3.85248 4.91547 4.612 4.15594C5.37152 3.39642 6.26466 2.79514 7.29142 2.35208C8.31818 1.90903 9.41527 1.6875 10.5827 1.6875C11.7501 1.6875 12.8472 1.90903 13.8739 2.35208C14.9007 2.79514 15.7938 3.39642 16.5534 4.15594C17.3129 4.91547 17.9142 5.80861 18.3572 6.83537C18.8003 7.86213 19.0218 8.95922 19.0218 10.1266C19.0218 11.294 18.8003 12.3911 18.3572 13.4179C17.9142 14.4446 17.3129 15.3378 16.5534 16.0973C15.7938 16.8568 14.9007 17.4581 13.8739 17.9012C12.8472 18.3442 11.7501 18.5658 10.5827 18.5658ZM10.5827 16.8779C12.4674 16.8779 14.0638 16.2239 15.3719 14.9158C16.68 13.6078 17.334 12.0114 17.334 10.1266C17.334 8.24189 16.68 6.64549 15.3719 5.33742C14.0638 4.02936 12.4674 3.37533 10.5827 3.37533C8.69794 3.37533 7.10154 4.02936 5.79348 5.33742C4.48541 6.64549 3.83138 8.24189 3.83138 10.1266C3.83138 12.0114 4.48541 13.6078 5.79348 14.9158C7.10154 16.2239 8.69794 16.8779 10.5827 16.8779Z" fill="#6754E2"/>
</g>
</svg>
