<?xml version="1.0" encoding="UTF-8"?>
<svg xmlns="http://www.w3.org/2000/svg" width="53" height="60" viewBox="0 0 53 60" fill="none">
  <path d="M52.0521 25.6551L50.0491 16.7801C49.9992 16.5588 49.8753 16.3609 49.6979 16.2192C49.5204 16.0774 49.3 16.0001 49.0727 16H41.0608V1C41.0608 0.734784 40.9553 0.48043 40.7675 0.292893C40.5797 0.105357 40.325 0 40.0593 0H12.0178C11.7522 0 11.4975 0.105357 11.3096 0.292893C11.1218 0.48043 11.0163 0.734784 11.0163 1V16H3.00445C2.7772 16.0001 2.55674 16.0774 2.3793 16.2192C2.20185 16.3609 2.07797 16.5588 2.028 16.7801L0.0250372 25.6551C0.00851331 25.7273 0.000115385 25.801 0 25.875V55C0 55.2652 0.105513 55.5196 0.293328 55.7071C0.481143 55.8946 0.735874 56 1.00148 56H2.00297V59C2.00297 59.2652 2.10848 59.5196 2.2963 59.7071C2.48411 59.8946 2.73884 60 3.00445 60H49.0727C49.3383 60 49.593 59.8946 49.7809 59.7071C49.9687 59.5196 50.0742 59.2652 50.0742 59V56H51.0757C51.3413 56 51.596 55.8946 51.7838 55.7071C51.9716 55.5196 52.0772 55.2652 52.0772 55V25.875C52.077 25.801 52.0686 25.7273 52.0521 25.6551ZM13.0193 2H39.0579V16H13.0193V2ZM48.0712 58H4.00593V56H48.0712V58ZM50.0742 54H2.00297V25.9862L3.80564 18H48.2715L50.0742 25.9862V54Z" fill="white"></path>
  <path d="M26.0386 20C22.8694 20 19.7714 20.9384 17.1363 22.6965C14.5012 24.4546 12.4474 26.9534 11.2346 29.8771C10.0218 32.8007 9.70451 36.0177 10.3228 39.1214C10.9411 42.2251 12.4672 45.0761 14.7081 47.3137C16.9491 49.5513 19.8043 51.0752 22.9126 51.6926C26.0209 52.3099 29.2427 51.9931 32.1707 50.7821C35.0986 49.5711 37.6012 47.5203 39.3619 44.8891C41.1226 42.2579 42.0624 39.1645 42.0624 36C42.0576 31.758 40.3679 27.6911 37.3639 24.6916C34.3599 21.692 30.2869 20.0048 26.0386 20ZM33.896 47.5892L32.9148 45.8924L31.1803 46.8924L32.163 48.5924C30.5592 49.3733 28.82 49.8389 27.0401 49.9639V48H25.0372V49.9639C23.2572 49.8387 21.518 49.3729 19.9143 48.5919L20.897 46.8919L19.1625 45.8919L18.1812 47.5887C16.7063 46.5882 15.4342 45.318 14.4322 43.8452L16.1316 42.8655L15.1301 41.1335L13.4276 42.1147C12.6456 40.5135 12.1793 38.7771 12.054 37H14.0208V35H12.054C12.1794 33.2227 12.6459 31.4861 13.4281 29.8848L15.1306 30.866L16.1321 29.134L14.4327 28.1542C15.4347 26.6815 16.7068 25.4113 18.1817 24.4107L19.163 26.1076L20.8975 25.1076L19.9148 23.4076C21.5184 22.6268 23.2574 22.1612 25.0372 22.0361V24H27.0401V22.0361C28.82 22.1613 30.5592 22.6271 32.163 23.4081L31.1803 25.1081L32.9148 26.1081L33.896 24.4112C35.371 25.4118 36.6431 26.682 37.6451 28.1548L35.9457 29.1345L36.9472 30.8665L38.6497 29.8853C39.4317 31.4865 39.898 33.2229 40.0232 35H38.0564V37H40.0232C39.8979 38.7773 39.4314 40.5139 38.6492 42.1152L36.9467 41.134L35.9452 42.866L37.6446 43.8457C36.6427 45.3185 35.3708 46.5887 33.896 47.5892Z" fill="white"></path>
  <path d="M25.0369 35.4375L18.5205 39.2625L19.5355 40.9865L26.5459 36.8716C26.6964 36.7833 26.8211 36.6573 26.9078 36.506C26.9944 36.3547 27.04 36.1834 27.0399 36.0091V26H25.0369V35.4375Z" fill="white"></path>
  <path d="M11.0162 23C11.0162 22.4067 10.84 21.8266 10.5099 21.3333C10.1798 20.8399 9.71052 20.4554 9.16153 20.2284C8.61254 20.0013 8.00844 19.9419 7.42564 20.0576C6.84283 20.1734 6.30749 20.4591 5.88731 20.8787C5.46713 21.2982 5.18098 21.8328 5.06506 22.4147C4.94913 22.9967 5.00863 23.5999 5.23603 24.1481C5.46343 24.6962 5.84851 25.1648 6.34259 25.4944C6.83667 25.8241 7.41755 26 8.01178 26C8.80833 25.9991 9.57201 25.6828 10.1353 25.1203C10.6985 24.5579 11.0153 23.7954 11.0162 23ZM8.01178 24C7.8137 24 7.62008 23.9414 7.45538 23.8315C7.29069 23.7216 7.16233 23.5654 7.08653 23.3827C7.01073 23.2 6.99089 22.9989 7.02954 22.8049C7.06818 22.6109 7.16356 22.4327 7.30362 22.2929C7.44368 22.153 7.62213 22.0578 7.8164 22.0192C8.01067 21.9806 8.21203 22.0004 8.39503 22.0761C8.57803 22.1518 8.73444 22.28 8.84448 22.4444C8.95452 22.6089 9.01326 22.8022 9.01326 23C9.01296 23.2651 8.90735 23.5193 8.7196 23.7068C8.53185 23.8943 8.2773 23.9997 8.01178 24Z" fill="white"></path>
  <path d="M21.0311 8H17.0251V10H21.0311V8Z" fill="white"></path>
  <path d="M21.0311 12H17.0251V14H21.0311V12Z" fill="white"></path>
  <path d="M35.052 8H24.0356V10H35.052V8Z" fill="white"></path>
  <path d="M21.0311 4H17.0251V6H21.0311V4Z" fill="white"></path>
  <path d="M35.052 4H24.0356V6H35.052V4Z" fill="white"></path>
  <path d="M35.052 12H24.0356V14H35.052V12Z" fill="white"></path>
</svg>
