<svg width="13" height="16" viewBox="0 0 13 16" fill="none" xmlns="http://www.w3.org/2000/svg">
<path d="M6.49669 8.4441C7.57781 8.4441 8.52254 7.80788 9.02484 6.86929C9.8864 6.12599 10.3821 5.05197 10.3821 3.90866C10.3821 1.75433 8.63896 0 6.49669 0C4.35442 0 2.61133 1.75433 2.61133 3.90866C2.61133 5.05512 3.10698 6.12599 3.96854 6.86929C4.47085 7.80788 5.41558 8.4441 6.49669 8.4441ZM6.49669 7.55591C5.40892 7.55591 4.5274 6.56063 4.5274 5.33858C4.5274 5.33543 4.5274 5.32914 4.5274 5.32599C5.6318 4.98268 6.61645 4.22992 7.21522 3.27244C7.96036 3.6 8.46931 4.41575 8.46931 5.33858C8.46598 6.56063 7.58446 7.55591 6.49669 7.55591ZM3.67581 4.7685C3.59597 4.49449 3.55273 4.20473 3.55273 3.90866C3.55273 2.24252 4.87335 0.888189 6.49669 0.888189C8.12003 0.888189 9.44065 2.24252 9.44065 3.90866C9.44065 4.17638 9.40406 4.4378 9.33753 4.68976C9.10135 3.50866 8.2298 2.54803 7.09214 2.29606C6.87591 2.24567 6.65636 2.34961 6.55989 2.53858C6.06424 3.52756 5.07295 4.29921 3.96854 4.55118C3.84214 4.58268 3.73901 4.66142 3.67581 4.7685Z" fill="#4461D7"/>
<path d="M9.16786 8.91946C7.38818 8.64859 5.6085 8.64859 3.82881 8.91946C3.82881 8.91946 0.229529 9.373 0 13.2313L0.00332646 15.5557C0.00332646 15.8013 0.212897 15.9998 0.472364 15.9998H12.5276C12.7871 15.9998 12.9967 15.8013 12.9967 15.5557L13 13.2313C12.7638 9.373 9.16786 8.91946 9.16786 8.91946ZM4.26126 9.7604C5.75486 9.56198 7.24514 9.55568 8.73541 9.7604V10.1982C8.73541 11.3667 7.73081 12.3147 6.5 12.3147C5.26587 12.3147 4.26459 11.3636 4.26459 10.1982V9.7604H4.26126ZM12.0553 15.1116H0.938076L0.934749 13.2313C0.931423 11.7447 1.90942 10.447 3.31986 9.95883V10.195C3.31986 11.8517 4.7436 13.2029 6.49667 13.2029C8.24642 13.2029 9.67349 11.8549 9.67349 10.195V9.95883C11.0873 10.447 12.0619 11.7447 12.0586 13.2313L12.0553 15.1116Z" fill="#4461D7"/>
</svg>
