<svg width="60" height="54" viewBox="0 0 60 54" fill="none" xmlns="http://www.w3.org/2000/svg">
<path d="M25.5677 48.5695C25.4898 48.5695 25.4097 48.5596 25.3305 48.5389C24.8294 48.4084 24.5289 47.896 24.6594 47.3952L26.2217 41.3947C26.3522 40.8935 26.8645 40.5929 27.3652 40.7234C27.8663 40.8539 28.1668 41.3663 28.0363 41.8671L26.474 47.8676C26.3642 48.29 25.9845 48.5695 25.5677 48.5695V48.5695Z" fill="white"/>
<path d="M34.4311 48.5694C34.0148 48.5694 33.6342 48.2895 33.5244 47.8675L31.9621 41.867C31.8317 41.3658 32.1322 40.8538 32.6333 40.7233C33.1339 40.5929 33.6463 40.8934 33.7767 41.3946L35.339 47.3952C35.4695 47.8964 35.169 48.4084 34.6679 48.5389C34.5887 48.5595 34.5095 48.5694 34.4311 48.5694V48.5694Z" fill="white"/>
<path d="M42.272 53.25H17.7248C17.2069 53.25 16.7871 52.8306 16.7871 52.3121C16.7871 49.2148 19.3064 46.694 22.404 46.694H37.5921C40.6888 46.694 43.209 49.2139 43.209 52.3121C43.2086 52.8297 42.7888 53.25 42.2714 53.25H42.272ZM18.7817 51.3742H41.2151C40.7979 49.7629 39.332 48.5693 37.5923 48.5693L22.4042 48.5697C20.6645 48.5697 19.1986 49.7629 18.7815 51.3742L18.7817 51.3742Z" fill="white"/>
<path d="M57.4996 42.5694H2.50002C1.1215 42.5694 0 41.4476 0 40.0688V3.14027C0 1.76146 1.1215 0.639709 2.50002 0.639709H57.4996C58.8781 0.639709 59.9996 1.76146 59.9996 3.14027V40.0688C59.9996 41.4481 58.8781 42.5698 57.4996 42.5698V42.5694ZM2.50002 2.51568C2.15561 2.51568 1.87492 2.79601 1.87492 3.14092V40.0695C1.87492 40.414 2.15518 40.6947 2.50002 40.6947H57.4996C57.844 40.6947 58.1247 40.4144 58.1247 40.0695V3.14092C58.1247 2.79644 57.8444 2.51568 57.4996 2.51568H2.50002Z" fill="white"/>
<path d="M59.0617 36.2463H0.93765C0.419748 36.2463 0 35.8269 0 35.3085C0 34.7904 0.419318 34.3706 0.93765 34.3706H59.0617C59.5796 34.3706 59.9993 34.79 59.9993 35.3085C59.9993 35.8269 59.5796 36.2463 59.0617 36.2463Z" fill="white"/>
<path d="M46.5595 19.031C42.6926 19.031 39.5469 15.8846 39.5469 12.0169C39.5469 8.14923 42.6926 5.00281 46.5595 5.00281C50.4263 5.00281 53.5721 8.14923 53.5721 12.0169C53.5721 15.8846 50.4263 19.031 46.5595 19.031ZM46.5595 6.87878C43.7267 6.87878 41.4222 9.18378 41.4222 12.0171C41.4222 14.8505 43.7267 17.1555 46.5595 17.1555C49.3922 17.1555 51.6967 14.8505 51.6967 12.0171C51.6967 9.18378 49.3922 6.87878 46.5595 6.87878Z" fill="white"/>
<path d="M52.6356 12.9549H46.5607C46.0428 12.9549 45.623 12.5355 45.623 12.017V5.94078C45.623 5.42277 46.0424 5.00293 46.5607 5.00293C47.0786 5.00293 47.4983 5.42234 47.4983 5.94078V11.0791H52.6356C53.1535 11.0791 53.5732 11.4985 53.5732 12.017C53.5732 12.535 53.1531 12.9548 52.6356 12.9548L52.6356 12.9549Z" fill="white"/>
<path d="M32.6907 8.90377H7.36538C6.84748 8.90377 6.42773 8.48436 6.42773 7.96592C6.42773 7.44791 6.84705 7.02808 7.36538 7.02808H32.6907C33.2086 7.02808 33.6283 7.44748 33.6283 7.96592C33.6279 8.48393 33.2082 8.90377 32.6907 8.90377Z" fill="white"/>
<path d="M32.6907 12.9549H7.36538C6.84748 12.9549 6.42773 12.5355 6.42773 12.017C6.42773 11.499 6.84705 11.0792 7.36538 11.0792H32.6907C33.2086 11.0792 33.6283 11.4986 33.6283 12.017C33.6279 12.535 33.2082 12.9549 32.6907 12.9549Z" fill="white"/>
<path d="M32.6907 17.0049H7.36538C6.84748 17.0049 6.42773 16.5855 6.42773 16.0671C6.42773 15.5491 6.84705 15.1292 7.36538 15.1292H32.6907C33.2086 15.1292 33.6283 15.5486 33.6283 16.0671C33.6279 16.5855 33.2082 17.0049 32.6907 17.0049Z" fill="white"/>
<path d="M11.3016 31.8832H7.36538C6.84748 31.8832 6.42773 31.4638 6.42773 30.9454V21.9156C6.42773 21.3976 6.84705 20.9778 7.36538 20.9778H11.3016C11.8195 20.9778 12.2392 21.3972 12.2392 21.9156V30.9454C12.2392 31.4634 11.8195 31.8832 11.3016 31.8832ZM8.30306 30.0075H10.3643V22.853H8.30306V30.0075Z" fill="white"/>
<path d="M19.5676 31.8832H15.631C15.1131 31.8832 14.6934 31.4638 14.6934 30.9454L14.6938 23.8689C14.6938 23.3509 15.1131 22.931 15.6314 22.931H19.5676C20.0855 22.931 20.5053 23.3504 20.5053 23.8689V30.9454C20.5053 31.4634 20.0855 31.8832 19.5676 31.8832H19.5676ZM16.5687 30.0075H18.63V24.8066H16.5687V30.0075Z" fill="white"/>
<path d="M27.8352 31.8832H23.8986C23.3807 31.8832 22.9609 31.4638 22.9609 30.9454L22.9614 21.9156C22.9614 21.3976 23.3807 20.9778 23.899 20.9778H27.8352C28.3531 20.9778 28.7728 21.3972 28.7728 21.9156V30.9454C28.7724 31.4634 28.3531 31.8832 27.8352 31.8832H27.8352ZM24.8363 30.0075H26.8975V22.853H24.8363V30.0075Z" fill="white"/>
<path d="M36.1008 31.8832H32.1642C31.6463 31.8832 31.2266 31.4638 31.2266 30.9454L31.227 24.6504C31.227 24.1324 31.6463 23.7126 32.1646 23.7126H36.1008C36.6187 23.7126 37.0385 24.132 37.0385 24.6504V30.9454C37.0381 31.4634 36.6183 31.8832 36.1008 31.8832H36.1008ZM33.1019 30.0075H35.1632V25.5882H33.1019V30.0075Z" fill="white"/>
<path d="M44.368 31.8832H40.4318C39.9139 31.8832 39.4941 31.4638 39.4941 30.9454V22.6968C39.4941 22.1788 39.9135 21.7589 40.4318 21.7589H44.368C44.8859 21.7589 45.3056 22.1783 45.3056 22.6968V30.9454C45.3052 31.4634 44.8859 31.8832 44.368 31.8832ZM41.369 30.0075H43.4303V23.6346H41.369V30.0075Z" fill="white"/>
<path d="M52.6355 31.8832H48.6994C48.1815 31.8832 47.7617 31.4638 47.7617 30.9454V24.2599C47.7617 23.7419 48.181 23.322 48.6994 23.322H52.6355C53.1534 23.322 53.5732 23.7414 53.5732 24.2599V30.9454C53.5732 31.4634 53.1534 31.8832 52.6355 31.8832ZM49.6366 30.0075H51.6979V25.1972H49.6366V30.0075Z" fill="white"/>
</svg>
