<svg width="50" height="60" viewBox="0 0 50 60" fill="none" xmlns="http://www.w3.org/2000/svg">
<path d="M20 5C20 3.67392 19.4732 2.40215 18.5355 1.46447C17.5979 0.526784 16.3261 0 15 0C13.6739 0 12.4021 0.526784 11.4645 1.46447C10.5268 2.40215 10 3.67392 10 5H7C6.73478 5 6.48043 5.10536 6.29289 5.29289C6.10536 5.48043 6 5.73478 6 6V53H1C0.734784 53 0.48043 53.1054 0.292893 53.2929C0.105357 53.4804 0 53.7348 0 54V56C0 57.0609 0.421427 58.0783 1.17157 58.8284C1.92172 59.5786 2.93913 60 4 60H46C47.0609 60 48.0783 59.5786 48.8284 58.8284C49.5786 58.0783 50 57.0609 50 56V6C50 5.73478 49.8946 5.48043 49.7071 5.29289C49.5196 5.10536 49.2652 5 49 5H20ZM15 2C15.7956 2 16.5587 2.31607 17.1213 2.87868C17.6839 3.44129 18 4.20435 18 5H12C12 4.20435 12.3161 3.44129 12.8787 2.87868C13.4413 2.31607 14.2044 2 15 2ZM4 58C3.46957 58 2.96086 57.7893 2.58579 57.4142C2.21071 57.0391 2 56.5304 2 56V55H42V56C41.9989 56.7024 42.1842 57.3926 42.537 58H4ZM48 56C48 56.5304 47.7893 57.0391 47.4142 57.4142C47.0391 57.7893 46.5304 58 46 58C45.4696 58 44.9609 57.7893 44.5858 57.4142C44.2107 57.0391 44 56.5304 44 56V54C44 53.7348 43.8946 53.4804 43.7071 53.2929C43.5196 53.1054 43.2652 53 43 53H8V7H18V12.5C18 12.8978 17.842 13.2794 17.5607 13.5607C17.2794 13.842 16.8978 14 16.5 14C16.1022 14 15.7206 13.842 15.4393 13.5607C15.158 13.2794 15 12.8978 15 12.5V9H13V12.5C13 13.4283 13.3687 14.3185 14.0251 14.9749C14.6815 15.6313 15.5717 16 16.5 16C17.4283 16 18.3185 15.6313 18.9749 14.9749C19.6313 14.3185 20 13.4283 20 12.5V7H48V56Z" fill="white"/>
<path d="M45 39H28V41H45V39Z" fill="white"/>
<path d="M45 43H28V45H45V43Z" fill="white"/>
<path d="M41 47H28V49H41V47Z" fill="white"/>
<path d="M45 35H35V37H45V35Z" fill="white"/>
<path d="M37 29C38.5823 29 40.129 28.5308 41.4446 27.6518C42.7602 26.7727 43.7855 25.5233 44.391 24.0615C44.9965 22.5997 45.155 20.9911 44.8463 19.4393C44.5376 17.8874 43.7757 16.462 42.6569 15.3431C41.538 14.2243 40.1126 13.4624 38.5607 13.1537C37.0089 12.845 35.4003 13.0035 33.9385 13.609C32.4767 14.2145 31.2273 15.2398 30.3482 16.5554C29.4692 17.871 29 19.4178 29 21C29.0024 23.121 29.846 25.1545 31.3458 26.6542C32.8456 28.154 34.879 28.9976 37 29ZM37 27C35.7549 26.9999 34.5412 26.61 33.529 25.885L37.592 21.822L42.738 19.249C43.0116 20.1458 43.0713 21.0943 42.9121 22.0184C42.753 22.9425 42.3795 23.8163 41.8216 24.57C41.2637 25.3236 40.5369 25.936 39.6996 26.358C38.8622 26.78 37.9377 26.9999 37 27ZM41.836 17.464L38 19.382V15.09C39.539 15.3516 40.9153 16.2033 41.836 17.464ZM36 15.09V20.59L32.115 24.475C31.5236 23.6485 31.1525 22.685 31.0366 21.6754C30.9207 20.6657 31.0639 19.6432 31.4526 18.7042C31.8413 17.7652 32.4627 16.9406 33.2583 16.3083C34.0539 15.676 34.9975 15.2567 36 15.09Z" fill="white"/>
<path d="M13 21H11V29H13V21Z" fill="white"/>
<path d="M17 23H15V29H17V23Z" fill="white"/>
<path d="M21 19H19V29H21V19Z" fill="white"/>
<path d="M25 22H23V29H25V22Z" fill="white"/>
<path d="M24 35H12C11.7348 35 11.4804 35.1054 11.2929 35.2929C11.1054 35.4804 11 35.7348 11 36V48C11 48.2652 11.1054 48.5196 11.2929 48.7071C11.4804 48.8946 11.7348 49 12 49H24C24.2652 49 24.5196 48.8946 24.7071 48.7071C24.8946 48.5196 25 48.2652 25 48V36C25 35.7348 24.8946 35.4804 24.7071 35.2929C24.5196 35.1054 24.2652 35 24 35ZM23 47H13V37H23V47Z" fill="white"/>
<path d="M33 35H31V37H33V35Z" fill="white"/>
</svg>
