<svg width="40" height="60" viewBox="0 0 40 60" fill="none" xmlns="http://www.w3.org/2000/svg">
<path d="M20.0745 53.6296L19.0375 52.3704C18.2968 51.4815 0.741211 29.6296 0.741211 19.3333C0.741211 8.66667 9.40788 0 20.0745 0C30.7412 0 39.4079 8.66667 39.4079 19.3333C39.4079 29.6296 21.8523 51.4074 21.1116 52.3704L20.0745 53.6296ZM20.0745 3.33333C10.8894 3.33333 3.40788 10.5926 3.40788 19.4074C3.40788 27.1852 16.2968 43.7037 20.0745 48.2963C23.7783 43.7037 36.7412 27.1852 36.7412 19.4074C36.7412 10.5926 29.2597 3.33333 20.0745 3.33333Z" fill="white"/>
<path d="M20.074 29.0368C14.7406 29.0368 10.4443 24.7406 10.4443 19.4072C10.4443 14.0739 14.8147 9.77759 20.074 9.77759C25.3332 9.77759 29.7036 14.0739 29.7036 19.4072C29.7036 24.6665 25.4073 29.0368 20.074 29.0368ZM20.074 13.3331C16.3703 13.3331 13.4073 16.2961 13.4073 19.9998C13.4073 23.7035 16.3703 26.6665 20.074 26.6665C23.7777 26.6665 26.7406 23.7035 26.7406 19.9998C26.7406 16.2961 23.7777 13.3331 20.074 13.3331Z" fill="white"/>
<path d="M29.4815 46.5928L28.4444 47.9261C33.5556 48.9631 36.6667 50.8891 36.6667 52.7409C36.6667 55.4076 29.8519 58.3706 20 58.3706C10.1482 58.3706 3.33333 55.4076 3.33333 52.7409C3.33333 50.9631 6.51852 49.0372 11.5556 47.9261L10.5185 46.5928C4.59259 47.6298 0 49.778 0 52.8891C0 57.4817 10.2963 60.0002 20 60.0002C29.7037 60.0002 40 57.4817 40 52.8891C40.0741 49.778 35.4815 47.6298 29.4815 46.5928Z" fill="white"/>
</svg>
