<svg aria-hidden="true" style="position: absolute; width: 0; height: 0; overflow: hidden;" version="1.1" xmlns="http://www.w3.org/2000/svg" xmlns:xlink="http://www.w3.org/1999/xlink">
<defs>

<symbol id="accountant" viewBox="0 0 13 16">
<path fill-rule="evenodd" clip-rule="evenodd" d="M2 0H11C12.1046 0 13 0.895431 13 2V14C13 15.1046 12.1046 16 11 16H2C0.89543 16 0 15.1046 0 14V2C0 0.895431 0.89543 0 2 0ZM2 1C1.44772 1 1 1.44772 1 2V14C1 14.5523 1.44772 15 2 15H11C11.5523 15 12 14.5523 12 14V2C12 1.44772 11.5523 1 11 1H2Z" fill="#4461D7"/>
<path d="M10 3.5H3C2.72386 3.5 2.5 3.72386 2.5 4V6C2.5 6.27614 2.72386 6.5 3 6.5H10C10.2761 6.5 10.5 6.27614 10.5 6V4C10.5 3.72386 10.2761 3.5 10 3.5Z" stroke="#4461D7"  fill="none"/>
<path d="M3 11C3.55228 11 4 10.5523 4 10C4 9.44772 3.55228 9 3 9C2.44772 9 2 9.44772 2 10C2 10.5523 2.44772 11 3 11Z" fill="#4461D7"/>
<path d="M3 14C3.55228 14 4 13.5523 4 13C4 12.4477 3.55228 12 3 12C2.44772 12 2 12.4477 2 13C2 13.5523 2.44772 14 3 14Z" fill="#4461D7"/>
<path d="M6 11C6.55228 11 7 10.5523 7 10C7 9.44772 6.55228 9 6 9C5.44772 9 5 9.44772 5 10C5 10.5523 5.44772 11 6 11Z" fill="#4461D7"/>
<path d="M6 14C6.55228 14 7 13.5523 7 13C7 12.4477 6.55228 12 6 12C5.44772 12 5 12.4477 5 13C5 13.5523 5.44772 14 6 14Z" fill="#4461D7"/>
<path d="M10 11C10.5523 11 11 10.5523 11 10C11 9.44772 10.5523 9 10 9C9.44772 9 9 9.44772 9 10C9 10.5523 9.44772 11 10 11Z" fill="#4461D7"/>
<path d="M10 14C10.5523 14 11 13.5523 11 13C11 12.4477 10.5523 12 10 12C9.44772 12 9 12.4477 9 13C9 13.5523 9.44772 14 10 14Z" fill="#4461D7"/>
</symbol>

<symbol id="agency" viewBox="0 0 16 16">
<path fill-rule="evenodd" clip-rule="evenodd" d="M5.36606 1.06666C5.36606 0.772107 5.60485 0.533325 5.89939 0.533325H13.0935C13.3882 0.533325 13.6269 0.772107 13.6269 1.06666V14.4H14.9333C15.2278 14.4 15.4667 14.6388 15.4667 14.9333C15.4667 15.2278 15.2278 15.4667 14.9333 15.4667H1.06666C0.772107 15.4667 0.533325 15.2278 0.533325 14.9333C0.533325 14.6388 0.772107 14.4 1.06666 14.4H2.29068V8.89554C2.29068 8.65842 2.44723 8.44978 2.6749 8.38348L5.36606 7.59981V1.06666ZM5.36606 8.71079L3.35735 9.29572V14.4H5.36606V8.71079ZM6.43273 14.4H12.5602V1.59999H6.43273V14.4Z" fill="#4461D7"/>
<path d="M9.06668 3.19995H8.00001C7.70546 3.19995 7.46667 3.43873 7.46667 3.73328V4.79995C7.46667 5.0945 7.70546 5.33328 8.00001 5.33328H9.06668C9.36123 5.33328 9.60001 5.0945 9.60001 4.79995V3.73328C9.60001 3.43873 9.36123 3.19995 9.06668 3.19995Z" fill="#4461D7"/>
<path d="M9.06668 6.40002H8.00001C7.70546 6.40002 7.46667 6.63881 7.46667 6.93336V8.00002C7.46667 8.29458 7.70546 8.53336 8.00001 8.53336H9.06668C9.36123 8.53336 9.60001 8.29458 9.60001 8.00002V6.93336C9.60001 6.63881 9.36123 6.40002 9.06668 6.40002Z" fill="#4461D7"/>
<path d="M9.06668 9.59998H8.00001C7.70546 9.59998 7.46667 9.83876 7.46667 10.1333V11.2C7.46667 11.4945 7.70546 11.7333 8.00001 11.7333H9.06668C9.36123 11.7333 9.60001 11.4945 9.60001 11.2V10.1333C9.60001 9.83876 9.36123 9.59998 9.06668 9.59998Z" fill="#4461D7"/>
</symbol>

<symbol id="aechitect" viewBox="0 0 15 18">
<path d="M4.82011 16.8954C4.82 16.8973 4.81994 16.8993 4.81994 16.9012C4.81994 16.9558 4.86403 17 4.91843 17H4.91859H8.05889C8.11328 17 8.15738 16.9558 8.15738 16.9012V15.5216H12.0424H12.2992C13.2423 15.5216 14 14.71 14 13.7239V13.6896V2.79771C14 1.81177 13.2423 1 12.2992 1H11.7884C11.734 1 11.6899 1.04422 11.6899 1.09877V2.42958H8.15754V1.09877C8.15754 1.04422 8.11345 1 8.05906 1H4.91843C4.86403 1 4.81994 1.04422 4.81994 1.09877V2.42958H1.09848C1.04409 2.42958 1 2.47381 1 2.52835V15.4228C1 15.4773 1.04409 15.5216 1.09848 15.5216H4.82011V16.8954ZM6.6532 3.22132H5.52499V3.06707V2.52835V1.73625H7.45232V2.52835V3.06707V14.884V15.4228V16.2637H5.52499V15.423V14.8842V12.8249H6.29686C6.35125 12.8249 6.39534 12.7807 6.39534 12.7261V12.4568V12.1875C6.39534 12.1328 6.35125 12.0887 6.29686 12.0887H5.52499V11.0515H6.6532C6.70759 11.0515 6.75168 11.0072 6.75168 10.9527V10.6834V10.4139C6.75168 10.3594 6.70759 10.3152 6.6532 10.3152H5.52499V9.27816H6.29686C6.35125 9.27816 6.39534 9.23394 6.39534 9.1794V8.91003V8.64067C6.39534 8.58612 6.35125 8.54191 6.29686 8.54191H5.52499V7.50469H6.6532C6.70759 7.50469 6.75168 7.46047 6.75168 7.40593V7.13656V6.86721C6.75168 6.81266 6.70759 6.76844 6.6532 6.76844H5.52499V5.73122H6.29686C6.35125 5.73122 6.39534 5.687 6.39534 5.63245V5.3631V5.09374C6.39534 5.03919 6.35125 4.99497 6.29686 4.99497H5.52499V3.95758H6.6532C6.70759 3.95758 6.75168 3.91335 6.75168 3.85881V3.58945V3.32009C6.75168 3.26554 6.70759 3.22132 6.6532 3.22132ZM12.0424 14.7853H8.15754V3.16584H11.6899V12.26V12.5294C11.6899 12.5839 11.734 12.6281 11.7884 12.6281H12.2992C12.8431 12.6281 13.2949 13.0991 13.2949 13.6896V13.7239C13.2949 14.3144 12.8431 14.7853 12.2992 14.7853H12.0424ZM4.82011 3.16584V14.7853H1.70505V3.16584H4.82011ZM12.395 1.74116C12.8952 1.79257 13.2949 2.24223 13.2949 2.79771V12.2349C13.0404 12.0391 12.7324 11.9153 12.3977 11.8948L12.395 1.74116Z" fill="#4461D7" stroke="#4461D7" stroke-width="0.2" stroke-linejoin="round"/>
</symbol>

<symbol id="attorney" viewBox="0 0 16 16">
<path fill-rule="evenodd" clip-rule="evenodd" d="M12.9019 1.23108C13.1151 1.22373 13.3168 1.32729 13.4351 1.50474C13.8579 2.13888 14.9377 3.88401 15.935 5.87857C15.9777 5.96403 16 6.05825 16 6.15379C16 7.2202 15.6409 8.07557 15.0506 8.66585C14.4661 9.25034 13.6907 9.5384 12.9231 9.5384C12.1555 9.5384 11.3801 9.25034 10.7956 8.66585C10.2053 8.07557 9.84616 7.2202 9.84616 6.15379C9.84616 6.0467 9.87411 5.94145 9.92724 5.84847L12.3888 1.54078C12.4947 1.3556 12.6887 1.23841 12.9019 1.23108ZM12.9503 3.03877L11.0805 6.31097C11.1125 7.00532 11.356 7.48564 11.6659 7.79557C12.0045 8.13416 12.4599 8.30763 12.9231 8.30763C13.3862 8.30763 13.8416 8.13416 14.1802 7.79557C14.4927 7.48312 14.7376 6.99753 14.7664 6.29405C14.1171 5.00771 13.4391 3.83787 12.9503 3.03877Z" fill="#4461D7"/>
<path fill-rule="evenodd" clip-rule="evenodd" d="M3.05574 1.23108C3.2689 1.22373 3.47065 1.32729 3.58896 1.50474C4.01172 2.13888 5.09159 3.88401 6.08887 5.87857C6.13161 5.96403 6.15385 6.05825 6.15385 6.15379C6.15385 7.2202 5.79466 8.07557 5.20437 8.66585C4.61989 9.25034 3.84453 9.5384 3.07692 9.5384C2.30932 9.5384 1.53396 9.25034 0.949473 8.66585C0.359194 8.07557 0 7.2202 0 6.15379C0 6.0467 0.0279479 5.94145 0.0810811 5.84847L2.54262 1.54078C2.64843 1.3556 2.84258 1.23841 3.05574 1.23108ZM3.10416 3.03877L1.23434 6.31097C1.26633 7.00532 1.50982 7.48564 1.81975 7.79557C2.15835 8.13416 2.61376 8.30763 3.07692 8.30763C3.54009 8.30763 3.9955 8.13416 4.33409 7.79557C4.64654 7.48312 4.89146 6.99753 4.92025 6.29405C4.27092 5.00771 3.59305 3.83787 3.10416 3.03877Z" fill="#4461D7"/>
<path fill-rule="evenodd" clip-rule="evenodd" d="M7.99999 0C8.33985 0 8.61537 0.275518 8.61537 0.615385V14.7692H10.4615C10.8014 14.7692 11.0769 15.0448 11.0769 15.3846C11.0769 15.7244 10.8014 16 10.4615 16H5.53845C5.19859 16 4.92307 15.7244 4.92307 15.3846C4.92307 15.0448 5.19859 14.7692 5.53845 14.7692H7.3846V0.615385C7.3846 0.275518 7.66012 0 7.99999 0Z" fill="#4461D7"/>
<path fill-rule="evenodd" clip-rule="evenodd" d="M0 0.615385C0 0.275518 0.275518 0 0.615385 0H15.3846C15.7244 0 16 0.275518 16 0.615385C16 0.955252 15.7244 1.23077 15.3846 1.23077H0.615385C0.275518 1.23077 0 0.955252 0 0.615385Z" fill="#4461D7"/>
</symbol>

<symbol id="consultant" viewBox="0 0 13 16">
<path d="M6.49669 8.4441C7.57781 8.4441 8.52254 7.80788 9.02484 6.86929C9.8864 6.12599 10.3821 5.05197 10.3821 3.90866C10.3821 1.75433 8.63896 0 6.49669 0C4.35442 0 2.61133 1.75433 2.61133 3.90866C2.61133 5.05512 3.10698 6.12599 3.96854 6.86929C4.47085 7.80788 5.41558 8.4441 6.49669 8.4441ZM6.49669 7.55591C5.40892 7.55591 4.5274 6.56063 4.5274 5.33858C4.5274 5.33543 4.5274 5.32914 4.5274 5.32599C5.6318 4.98268 6.61645 4.22992 7.21522 3.27244C7.96036 3.6 8.46931 4.41575 8.46931 5.33858C8.46598 6.56063 7.58446 7.55591 6.49669 7.55591ZM3.67581 4.7685C3.59597 4.49449 3.55273 4.20473 3.55273 3.90866C3.55273 2.24252 4.87335 0.888189 6.49669 0.888189C8.12003 0.888189 9.44065 2.24252 9.44065 3.90866C9.44065 4.17638 9.40406 4.4378 9.33753 4.68976C9.10135 3.50866 8.2298 2.54803 7.09214 2.29606C6.87591 2.24567 6.65636 2.34961 6.55989 2.53858C6.06424 3.52756 5.07295 4.29921 3.96854 4.55118C3.84214 4.58268 3.73901 4.66142 3.67581 4.7685Z" fill="#4461D7"/>
<path d="M9.16786 8.91946C7.38818 8.64859 5.6085 8.64859 3.82881 8.91946C3.82881 8.91946 0.229529 9.373 0 13.2313L0.00332646 15.5557C0.00332646 15.8013 0.212897 15.9998 0.472364 15.9998H12.5276C12.7871 15.9998 12.9967 15.8013 12.9967 15.5557L13 13.2313C12.7638 9.373 9.16786 8.91946 9.16786 8.91946ZM4.26126 9.7604C5.75486 9.56198 7.24514 9.55568 8.73541 9.7604V10.1982C8.73541 11.3667 7.73081 12.3147 6.5 12.3147C5.26587 12.3147 4.26459 11.3636 4.26459 10.1982V9.7604H4.26126ZM12.0553 15.1116H0.938076L0.934749 13.2313C0.931423 11.7447 1.90942 10.447 3.31986 9.95883V10.195C3.31986 11.8517 4.7436 13.2029 6.49667 13.2029C8.24642 13.2029 9.67349 11.8549 9.67349 10.195V9.95883C11.0873 10.447 12.0619 11.7447 12.0586 13.2313L12.0553 15.1116Z" fill="#4461D7"/>
</symbol>

<symbol id="construction" viewBox="0 0 18 15">
<path d="M15.9429 12.8606L15.943 12.9005H15.8469H15.4022L13.8153 12.9004L8.99962 12.9001L4.18399 12.8997L2.59703 12.8995L2.15243 12.8992H2.05617L2.05618 12.8592L2.05634 12.5842L2.05675 11.7499L2.05704 10.9155L2.05705 10.6406L2.05701 10.6006H6.81414C7.29493 11.348 8.10751 11.8149 9 11.8149C9.89256 11.8149 10.7051 11.348 11.1859 10.6006H11.2077L11.3617 10.6007L11.9113 10.6007L13.5791 10.601L15.2468 10.6014L15.7965 10.6017L15.9439 10.6019L15.9438 10.642L15.9436 10.9169L15.9433 11.7512L15.9429 12.5856V12.8606ZM6.83745 2.03819V2.07984C3.95097 3.0427 1.934 5.85124 1.934 9.07917V9.50249C1.41464 9.53584 1 9.98631 1 10.5377V12.9634C1 13.537 1.44639 14.0006 1.99584 14.0006H16.0042C16.552 14.0006 17 13.5365 17 12.9634V10.5377C17 9.98576 16.5867 9.53572 16.066 9.50248V9.07917C16.066 5.85124 14.049 3.0427 11.1626 2.07984V2.03819C11.1626 1.46479 10.7157 1.00061 10.1661 1.00061H7.83388C7.28402 1.00061 6.83745 1.46443 6.83745 2.03819ZM11.1626 3.24567C13.4438 4.15911 15.0099 6.45721 15.0099 9.07917V9.50051H11.5985C11.6191 9.36213 11.6295 9.22135 11.6295 9.07917C11.6295 8.50823 11.4599 7.96896 11.1626 7.52211V3.24567ZM6.40151 9.50051H2.99012V9.07917C2.99012 6.45721 4.55615 4.15911 6.83745 3.24567V7.52213C6.54013 7.96898 6.37046 8.50825 6.37046 9.07917C6.37046 9.22135 6.38092 9.36213 6.40151 9.50051ZM7.89466 2.23678L7.89479 2.10077L7.93413 2.10078L8.19847 2.1009L9.00065 2.10131L9.80281 2.10189L10.0671 2.10221L10.1064 2.1023V6.59671C9.76585 6.43234 9.38976 6.3434 9 6.3434C8.61022 6.3434 8.23415 6.43233 7.89359 6.5967L7.89361 6.4987L7.89368 5.9705L7.89397 4.36773L7.8944 2.76495L7.89466 2.23678ZM7.89493 2.03806V2.03797V2.03806ZM9 10.7148C8.13017 10.7148 7.42658 9.98186 7.42658 9.07917C7.42658 8.17653 8.13011 7.44354 9 7.44354C9.86984 7.44354 10.5734 8.17647 10.5734 9.07917C10.5734 9.98181 9.86989 10.7148 9 10.7148Z" fill="#4461D7" stroke="#4461D7" stroke-width="0.1"/>
</symbol>

<symbol id="design" height="16" viewBox="0 0 16 16">
<path d="M12.1231 7.9751C12.7385 8.59093 13.3539 9.20677 13.9693 9.82261C14.5846 10.4384 15.2 11.0543 15.8154 11.6702C16.0616 11.9164 16.0616 12.0396 15.8154 12.2859C14.5846 13.5177 13.4769 14.6261 12.2462 15.8577C12 16.1041 11.8769 15.9809 11.6308 15.8577C10.7692 14.9956 10.0308 14.2566 9.16924 13.3945C8.80001 13.025 8.43077 12.6554 8.06153 12.2859C8.06153 12.2859 8.06155 12.2859 7.93847 12.1627L7.81539 12.2859C7.07693 13.025 6.46154 13.6408 5.72308 14.3798C5.72308 14.3798 5.72307 14.3798 5.59999 14.5029C5.35384 14.8725 4.86154 14.9956 4.49231 15.1188C3.38462 15.242 2.39999 15.3652 1.2923 15.6115C0.923064 15.6115 0.553833 15.3652 0.67691 14.9956C0.799987 13.8872 0.923077 12.9018 1.04615 11.7932C1.04615 11.547 1.16923 11.3006 1.16923 10.9311C1.16923 10.6848 1.29231 10.5616 1.41539 10.4384C2.15385 9.69943 2.89231 8.96043 3.63077 8.22142L3.75384 8.09825C3.75384 8.09825 3.75384 8.09826 3.75384 7.9751C3.75384 7.9751 3.63077 7.97509 3.63077 7.85192C2.52308 6.74342 1.29231 5.63491 0.184616 4.5264C-0.0615385 4.28007 -0.0615385 4.03373 0.184616 3.78739C1.29231 2.67888 2.52308 1.44721 3.63077 0.338702C3.87693 0.0923669 4 0.0923669 4.24616 0.338702C5.35385 1.44721 6.58461 2.67888 7.6923 3.78739L7.81539 3.91056C7.81539 3.91056 7.81539 3.91056 7.93847 3.91056C8.3077 3.54106 8.67693 3.17155 9.04616 2.80205C9.78463 2.06304 10.5231 1.32405 11.2615 0.461882C11.8769 -0.153961 12.8616 -0.153961 13.4769 0.461882C14.0923 1.07771 14.8308 1.81673 15.4462 2.43256C16.0616 3.0484 16.0616 4.03373 15.4462 4.64956C15.2 4.89589 15.077 5.01906 14.8308 5.2654C13.9693 6.12756 13.1077 6.98976 12.1231 7.9751ZM5.23076 13.6408C7.93846 10.9311 10.7692 8.22142 13.4769 5.51175C13.1077 5.14225 12.6154 4.64958 12.2462 4.28008C9.53847 6.98976 6.83076 9.69942 3.99999 12.4091C4.36922 12.9018 4.86153 13.2713 5.23076 13.6408ZM3.38461 11.9164C6.0923 9.20677 8.92309 6.49708 11.6308 3.78739C11.2615 3.29472 10.7692 2.92522 10.4 2.55572C7.69232 5.2654 4.86153 7.97508 2.15383 10.6848C2.64614 11.0543 3.01537 11.4238 3.38461 11.9164ZM11.8769 14.9956C12.8616 14.0102 13.8462 12.9018 14.9539 11.9164C14.8308 11.7932 14.7077 11.67 14.5846 11.4238L14.4616 11.547C14.2154 11.7932 13.9693 12.0396 13.7231 12.2859C13.6 12.4091 13.3539 12.4091 13.2308 12.2859C13.1077 12.1628 13.1077 11.9164 13.2308 11.7932C13.3539 11.67 13.4769 11.547 13.6 11.4238C13.7231 11.3006 13.8462 11.1774 13.9693 11.0543C13.8462 10.9311 13.7231 10.8079 13.6 10.5616C13.3539 10.8079 13.1077 11.0543 12.8616 11.4238C12.7385 11.547 12.4923 11.547 12.3693 11.4238C12.2462 11.3006 12.2462 11.0543 12.3693 10.9311C12.4923 10.8079 12.4923 10.8079 12.6154 10.6848C12.8616 10.4384 12.9846 10.3153 13.2308 10.0689C12.7385 9.57627 12.2462 9.0836 11.7539 8.59093C10.7692 9.57627 9.78462 10.6848 8.80001 11.547C9.66155 12.7786 10.7692 13.8872 11.8769 14.9956ZM3.99999 1.07771C3.01537 2.06305 2.03077 3.17156 1.04615 4.1569C2.15385 5.26541 3.26153 6.3739 4.36922 7.48241C5.35384 6.49708 6.33847 5.38857 7.32308 4.40323C6.83078 3.91056 6.46154 3.54107 5.96924 3.0484L5.84615 3.17156C5.59999 3.41789 5.35384 3.66422 5.23076 3.78739C5.10768 3.91056 4.86154 3.91056 4.73847 3.78739C4.61539 3.66422 4.4923 3.54106 4.61538 3.29474C4.61538 3.17156 4.73847 3.17156 4.73847 3.17156C4.98462 2.92522 5.23077 2.67889 5.35385 2.43256C5.23077 2.30939 5.10768 2.18622 4.98461 1.93988C4.73845 2.18622 4.49231 2.43256 4.24616 2.67889C4.12308 2.80206 3.87693 2.80206 3.63077 2.67889C3.50769 2.55573 3.50769 2.30939 3.63077 2.06305C3.87693 1.81673 4 1.69355 4.24616 1.44722L4.36922 1.32405C4.24614 1.32405 4.12307 1.20089 3.99999 1.07771ZM11.0154 1.81673C12 2.80207 12.9846 3.91058 14.0923 4.89591C14.4616 4.5264 14.7077 4.28007 14.9539 3.91056C15.3231 3.54106 15.3231 3.17155 14.9539 2.80205C14.5846 2.43254 14.0923 1.93988 13.7231 1.57038C13.4769 1.32404 13.2308 1.07771 12.8616 0.831384C12.6154 0.585046 12.1231 0.585046 11.8769 0.831384C11.6308 1.20089 11.3846 1.57039 11.0154 1.81673ZM4.36922 14.0102C3.63076 13.1481 2.76922 12.4091 1.90768 11.547C1.7846 12.5323 1.66153 13.3945 1.53845 14.3798C2.52307 14.2566 3.38461 14.1334 4.36922 14.0102Z" fill="#4461D7"/>
</symbol>

<symbol id="ecommerce" viewBox="0 0 15 17">
<path d="M12.375 4.81006H2.625C1.72754 4.81006 1 5.50331 1 6.35847V14.4516C1 15.3068 1.72754 16 2.625 16H12.375C13.2725 16 14 15.3068 14 14.4516V6.35847C14 5.50331 13.2725 4.81006 12.375 4.81006Z" stroke="#4461D7"  fill="none"/>
<path fill-rule="evenodd" clip-rule="evenodd" d="M6.0017 1.51275C5.61409 1.83801 5.33333 2.3391 5.33333 3.05851V9.6039C5.33333 9.88099 5.09082 10.1056 4.79167 10.1056C4.49251 10.1056 4.25 9.88099 4.25 9.6039V3.05851C4.25 2.0734 4.64634 1.29609 5.27435 0.769096C5.89317 0.249812 6.70468 0 7.5 0C8.29532 0 9.10683 0.249812 9.72565 0.769096C10.3537 1.29609 10.75 2.0734 10.75 3.05851V9.6039C10.75 9.88099 10.5075 10.1056 10.2083 10.1056C9.90918 10.1056 9.66667 9.88099 9.66667 9.6039V3.05851C9.66667 2.3391 9.38592 1.83801 8.9983 1.51275C8.6015 1.17977 8.05885 1.00345 7.5 1.00345C6.94115 1.00345 6.3985 1.17977 6.0017 1.51275Z" fill="#4461D7"/>
</symbol>

<symbol id="healthcare" viewBox="0 0 16 16">
<path d="M8 15.3847C12.0784 15.3847 15.3846 12.0785 15.3846 8.00009C15.3846 3.92168 12.0784 0.615479 8 0.615479C3.92159 0.615479 0.615383 3.92168 0.615383 8.00009C0.615383 12.0785 3.92159 15.3847 8 15.3847Z" stroke="#4461D7" fill="none" />
<path d="M3.07692 6.76921H6.76923V3.0769H9.23077V6.76921H12.9231V9.23075H9.23077V12.9231H6.76923V9.23075H3.07692V6.76921Z" stroke="#4461D7" stroke-linejoin="round"  fill="none"/>
</symbol>


<symbol id="janitorial" viewBox="0 0 13 16">
<path d="M12.6521 15.0225C12.1362 14.8374 11.6888 14.5022 11.3685 14.0607C11.0482 13.6193 10.87 13.0923 10.8572 12.5488V8.56368H11.1607C11.2949 8.56368 11.4236 8.51086 11.5185 8.41686C11.6133 8.32285 11.6666 8.19535 11.6666 8.06241V5.27385C11.6666 5.1409 11.6133 5.0134 11.5185 4.9194C11.4236 4.82539 11.2949 4.77258 11.1607 4.77258H8.18161V2.14292C8.18161 1.57459 7.95376 1.02952 7.54819 0.627648C7.14261 0.225772 6.59254 0 6.01897 0C5.4454 0 4.89533 0.225772 4.48975 0.627648C4.08418 1.02952 3.85633 1.57459 3.85633 2.14292V4.77258H0.505881C0.371713 4.77258 0.24304 4.82539 0.148169 4.9194C0.053298 5.0134 0 5.1409 0 5.27385V8.06241C0 8.19535 0.053298 8.32285 0.148169 8.41686C0.24304 8.51086 0.371713 8.56368 0.505881 8.56368H0.823574V12.5488C0.832577 13.3041 1.07639 14.0383 1.52178 14.6513C1.96717 15.2643 2.59249 15.7263 3.31251 15.9744C3.36395 15.9912 3.41772 15.9998 3.47186 16H12.4932C12.6136 16.0002 12.7301 15.9579 12.8218 15.8806C12.9135 15.8033 12.9744 15.6962 12.9936 15.5784C13.0127 15.4607 12.9888 15.34 12.9262 15.2381C12.8636 15.1362 12.7664 15.0598 12.6521 15.0225ZM4.86809 2.14292C4.86809 1.84047 4.98934 1.55041 5.20517 1.33655C5.42101 1.12269 5.71374 1.00254 6.01897 1.00254C6.3242 1.00254 6.61693 1.12269 6.83276 1.33655C7.0486 1.55041 7.16985 1.84047 7.16985 2.14292V4.77258H4.86809V2.14292ZM1.01176 5.77512H10.6528V7.56114H1.01176V5.77512ZM9.94966 14.9985C9.70684 14.7889 9.08967 14.1057 9.08967 12.5498C9.08967 12.4168 9.03637 12.2893 8.9415 12.1953C8.84662 12.1013 8.71795 12.0485 8.58379 12.0485C8.44962 12.0485 8.32094 12.1013 8.22607 12.1953C8.1312 12.2893 8.0779 12.4168 8.0779 12.5498C8.05115 13.404 8.25737 14.2496 8.67484 14.9975H3.56545C3.06367 14.8066 2.63089 14.4715 2.32263 14.0352C2.01437 13.5989 1.84468 13.0813 1.83534 12.5488V8.56368H9.84545V12.5488C9.83653 13.4614 10.1901 14.3409 10.8299 14.9975L9.94966 14.9985Z" fill="#4461D7"/>
</symbol>


<symbol id="landscaping" viewBox="0 0 18 16">
<g clip-path="url(#clip0)">
<path d="M17.3015 15.354L14.8917 9.44422C14.8188 9.27321 14.6544 9.15918 14.4719 9.15918H10.0176V10.0903H14.1799L16.2061 15.0499H1.12717L3.15352 10.0903H7.31576V9.15918H2.84319C2.66063 9.15918 2.49633 9.27321 2.42331 9.44422L0.0318436 15.354C-0.0229228 15.4869 -0.00466729 15.658 0.0683544 15.7911C0.141376 15.924 0.28742 16 0.451719 16H16.8816C17.0276 16 17.1737 15.924 17.2649 15.7911C17.338 15.658 17.3563 15.4869 17.3015 15.354Z" fill="#4461D7"/>
<path d="M4.59571 6.51781H8.21028V12.1805C8.21028 12.4466 8.41109 12.6556 8.66667 12.6556C8.92225 12.6556 9.12305 12.4466 9.12305 12.1805V6.51781H12.7376C12.9932 6.51781 13.194 6.30879 13.194 6.04276V0.475059C13.194 0.209027 12.9932 0 12.7376 0H4.59571C4.34013 0 4.13932 0.209027 4.13932 0.475059V6.04276C4.13932 6.30879 4.34013 6.51781 4.59571 6.51781ZM5.03384 0.950119H12.2813V5.58669H5.03384V0.950119Z" fill="#4461D7"/>
<path d="M6.45769 2.79363H10.8573C11.1128 2.79363 11.3136 2.5846 11.3136 2.31856C11.3136 2.05253 11.1128 1.84351 10.8573 1.84351H6.45769C6.20211 1.84351 6.00131 2.05253 6.00131 2.31856C6.01956 2.5846 6.22037 2.79363 6.45769 2.79363Z" fill="#4461D7"/>
<path d="M11.3136 4.18039C11.3136 3.91435 11.1128 3.70532 10.8573 3.70532H6.45769C6.20211 3.70532 6.00131 3.91435 6.00131 4.18039C6.00131 4.44642 6.20211 4.65544 6.45769 4.65544H10.8573C11.1128 4.65544 11.3136 4.44642 11.3136 4.18039Z" fill="#4461D7"/>
</g>
<defs>
<clipPath id="clip0">
<rect width="17.3333" height="16" fill="white"/>
</clipPath>
</defs>
</symbol>

<symbol id="manufacturing" viewBox="0 0 16 16">
<path d="M15.9995 15.4539L15.3447 0.500709C15.339 0.365866 15.2821 0.238495 15.1861 0.145194C15.09 0.0518921 14.9621 -0.000126548 14.8292 2.31194e-07H11.8029C11.6699 -0.000126548 11.5421 0.0518921 11.446 0.145194C11.3499 0.238495 11.2931 0.365866 11.2873 0.500709L10.9762 7.62752L6.19702 5.79217C6.11894 5.76224 6.03488 5.75199 5.95204 5.76231C5.86921 5.77263 5.79007 5.80321 5.72145 5.85143C5.65282 5.89966 5.59675 5.96406 5.55806 6.03914C5.51936 6.1142 5.4992 6.19769 5.4993 6.28241V7.63625L0.697723 5.79217C0.619648 5.76224 0.535582 5.75199 0.452745 5.76231C0.369908 5.77263 0.290777 5.80321 0.222151 5.85143C0.153527 5.89966 0.0974582 5.96406 0.058763 6.03914C0.0200677 6.1142 -9.72468e-05 6.19769 3.52607e-07 6.28241V15.4766C3.52607e-07 15.6154 0.054318 15.7486 0.151004 15.8466C0.24769 15.9449 0.378825 16 0.515559 16H15.4839C15.5536 16.0001 15.6225 15.9858 15.6865 15.9582C15.7506 15.9303 15.8085 15.8898 15.8566 15.8388C15.9049 15.7877 15.9423 15.7274 15.9669 15.6612C15.9914 15.5951 16.0026 15.5246 15.9995 15.4539ZM1.03112 7.03958L5.4993 8.7563V14.9532H4.62284V13.6534C4.62284 13.2537 4.46641 12.8703 4.18795 12.5876C3.9095 12.3049 3.53183 12.1461 3.13803 12.1461C2.74423 12.1461 2.36657 12.3049 2.08812 12.5876C1.80966 12.8703 1.65323 13.2537 1.65323 13.6534V14.9532H1.03112V7.03958ZM3.59173 14.9532H2.68434V13.6534C2.68434 13.5313 2.73215 13.4142 2.81723 13.3278C2.90231 13.2415 3.01771 13.1929 3.13803 13.1929C3.25836 13.1929 3.37376 13.2415 3.45884 13.3278C3.54393 13.4142 3.59173 13.5313 3.59173 13.6534V14.9532ZM14.336 1.05201L14.4426 3.4945H12.1895L12.2961 1.05201H14.336ZM6.53041 7.03958L10.9213 8.72838L10.6549 14.9532H10.1221V13.6534C10.1221 13.2537 9.96571 12.8703 9.68725 12.5876C9.4088 12.3049 9.03113 12.1461 8.63733 12.1461C8.24353 12.1461 7.86587 12.3049 7.58741 12.5876C7.30896 12.8703 7.15252 13.2537 7.15252 13.6534V14.9532H6.53041V7.03958ZM9.09103 14.9532H8.18364V13.6534C8.18364 13.5313 8.23145 13.4142 8.31653 13.3278C8.40161 13.2415 8.51701 13.1929 8.63733 13.1929C8.75766 13.1929 8.87306 13.2415 8.95814 13.3278C9.04323 13.4142 9.09103 13.5313 9.09103 13.6534V14.9532ZM11.6877 14.9532L12.1431 4.53604H14.489L14.9444 14.9532H11.6877Z" fill="#4461D7"/>
</symbol>

<symbol id="realestate" viewBox="0 0 18 18">
<path d="M16.8497 11.8795C16.7092 11.6323 16.494 11.4357 16.2352 11.3179C15.9764 11.2 15.6869 11.1669 15.4081 11.2233V6.47783L15.5905 6.62732C15.6604 6.68226 15.7473 6.71095 15.8363 6.70839H15.8667H15.8869C15.967 6.71176 16.046 6.68975 16.1129 6.64549C16.1796 6.60124 16.2306 6.53701 16.2588 6.46198C16.2869 6.38696 16.2906 6.30497 16.2693 6.22774C16.248 6.1505 16.2028 6.08197 16.1403 6.03192L15.2864 5.33771L10.0216 1.08122C9.94295 1.02828 9.85032 1 9.75554 1C9.66076 1 9.56813 1.02828 9.48951 1.08122L3.39613 6.03698C3.31842 6.10087 3.26901 6.19279 3.25857 6.29285C3.24815 6.39291 3.27754 6.49304 3.3404 6.57158C3.38011 6.62071 3.43158 6.65901 3.49005 6.68293C3.54851 6.70685 3.61208 6.7156 3.67484 6.70839C3.76666 6.71229 3.85674 6.68257 3.92819 6.62479L4.11315 6.47531V10.7039C3.59437 10.9332 3.11138 11.2361 2.67912 11.6034L1.20709 12.3634C1.11652 12.4107 1.04823 12.4917 1.01707 12.5889C1.00215 12.6374 0.996936 12.6882 1.00172 12.7387C1.0065 12.7892 1.02119 12.8382 1.04493 12.8828L3.03637 16.6073C3.06003 16.6535 3.0933 16.6941 3.13393 16.7265C3.17457 16.7588 3.22163 16.782 3.27199 16.7948C3.30399 16.8048 3.33729 16.8098 3.3708 16.81C3.44168 16.8098 3.51109 16.7897 3.57096 16.7517L5.0582 15.8294H5.07086H5.0886C5.15014 15.7964 5.2189 15.7791 5.28876 15.7791C5.35861 15.7791 5.42737 15.7964 5.48892 15.8294C7.29032 16.7872 8.39752 17 9.036 17C9.15982 17.0002 9.2835 16.991 9.4059 16.9721C9.75554 16.9291 13.0188 16.6757 16.3809 13.5492L16.6546 13.2756C16.8362 13.0967 16.9538 12.863 16.989 12.6107C17.0244 12.3583 16.9754 12.1013 16.8497 11.8795ZM4.8707 5.85963L9.75554 1.89451L14.6404 5.85963V11.5831L13.8549 12.029C13.2976 12.3407 12.7959 12.6497 12.3348 12.969C12.2587 13.0197 12.1878 13.0729 12.1143 13.1236C12.1393 13.0743 12.1589 13.0225 12.1727 12.969C12.2169 12.8262 12.2169 12.6735 12.1727 12.5307C12.1394 12.4218 12.0839 12.3211 12.0098 12.2347C11.9357 12.1484 11.8445 12.0783 11.7419 12.029V8.68716C11.7414 8.16029 11.5329 7.65494 11.1617 7.281C10.9639 7.08225 10.726 6.92792 10.4639 6.82832C10.2018 6.72871 9.92141 6.6861 9.64152 6.70333C9.12949 6.74566 8.65264 6.98087 8.30741 7.36138C7.96216 7.74189 7.77432 8.23931 7.78184 8.75303V10.6811C6.88284 10.2319 5.84668 10.1414 4.88338 10.4278L4.8707 5.85963ZM10.9818 11.8365H10.8678C8.97518 11.7098 8.62048 11.3576 8.58754 11.3297L8.5318 11.2689V8.75303C8.52587 8.43407 8.6405 8.12459 8.8528 7.88646C9.0651 7.64832 9.35944 7.49906 9.67699 7.46849C9.85049 7.45666 10.0245 7.48197 10.1875 7.54269C10.3504 7.60342 10.4986 7.69818 10.622 7.82066C10.8522 8.0524 10.9814 8.36565 10.9818 8.69223V11.8365ZM3.51522 15.8902L1.9013 12.8575L2.75007 12.4218L4.35891 15.3708L3.51522 15.8902ZM16.1099 12.7435L15.8565 12.9969C15.6454 13.1962 15.4359 13.3803 15.2282 13.5492L15.1217 13.6353C12.127 16.0601 9.37549 16.1893 9.34509 16.1893H9.28681C8.96758 16.2501 7.98961 16.2678 5.84869 15.1302C5.67739 15.0378 5.48593 14.989 5.2913 14.9883C5.21045 14.9892 5.12986 14.9977 5.05059 15.0137L4.2145 13.4555C4.19346 13.4231 4.17483 13.3892 4.15875 13.3541L3.42147 11.9859C3.64189 11.8254 3.87394 11.6814 4.11569 11.5552C4.35911 11.4259 4.61346 11.3182 4.87578 11.2334C5.31389 11.0735 5.78099 11.0084 6.24616 11.0424C6.71133 11.0765 7.16396 11.209 7.57409 11.4311C7.64483 11.4715 7.71182 11.5181 7.77425 11.5704C7.86566 11.6421 7.95045 11.7218 8.0276 11.8086C8.16845 11.9613 8.34155 12.0807 8.53434 12.1583C9.02586 12.3761 9.78341 12.5154 10.8146 12.5865L10.9793 12.6016C11.1433 12.6069 11.3032 12.6549 11.4429 12.7409C11.4143 12.8294 11.3595 12.9072 11.2859 12.9639C11.2554 12.9945 11.2233 13.0231 11.1896 13.0501C11.1239 13.1042 11.0535 13.1526 10.9793 13.1945C10.207 13.6187 9.30915 13.7552 8.44566 13.5796C8.25477 13.5425 8.06679 13.4917 7.8832 13.4276C7.84902 13.4155 7.81301 13.4095 7.77678 13.4098C7.70587 13.4053 7.63511 13.4209 7.57276 13.455C7.51041 13.4891 7.45902 13.5402 7.4246 13.6023C7.40318 13.6401 7.3886 13.6812 7.38154 13.7241C7.37104 13.7906 7.37814 13.859 7.40214 13.9221C7.42613 13.9852 7.46619 14.041 7.51835 14.0838C7.57798 14.1221 7.64172 14.1535 7.70837 14.1775C7.95282 14.2699 8.20839 14.3295 8.46846 14.3548C11.2048 14.5931 12.4868 13.7671 12.4868 13.7671L12.5552 13.7241L13.7739 12.9639L14.2198 12.6852L14.6327 12.4522L15.2839 12.0873L15.3194 12.067C15.3423 12.0495 15.3669 12.0342 15.3929 12.0214C15.5263 11.9533 15.6806 11.9384 15.8245 11.9798C15.9685 12.0212 16.0913 12.1158 16.1681 12.2444C16.2108 12.3234 16.2281 12.4138 16.2176 12.5031C16.2073 12.5924 16.1696 12.6763 16.1099 12.7435Z" fill="#4461D7" />
<path d="M16.8497 11.8795C16.7092 11.6323 16.494 11.4357 16.2352 11.3179C15.9764 11.2 15.6869 11.1669 15.4081 11.2233V6.47783L15.5905 6.62732C15.6604 6.68226 15.7473 6.71095 15.8363 6.70839H15.8667H15.8869C15.967 6.71176 16.046 6.68975 16.1129 6.64549C16.1796 6.60124 16.2306 6.53701 16.2588 6.46198C16.2869 6.38696 16.2906 6.30497 16.2693 6.22774C16.248 6.1505 16.2028 6.08197 16.1403 6.03192L15.2864 5.33771L10.0216 1.08122C9.94295 1.02828 9.85032 1 9.75554 1C9.66076 1 9.56813 1.02828 9.48951 1.08122L3.39613 6.03698C3.31842 6.10087 3.26901 6.19279 3.25857 6.29285C3.24815 6.39291 3.27754 6.49304 3.3404 6.57158C3.38011 6.62071 3.43158 6.65901 3.49005 6.68293C3.54851 6.70685 3.61208 6.7156 3.67484 6.70839C3.76666 6.71229 3.85674 6.68257 3.92819 6.62479L4.11315 6.47531V10.7039C3.59437 10.9332 3.11138 11.2361 2.67912 11.6034L1.20709 12.3634C1.11652 12.4107 1.04823 12.4917 1.01707 12.5889C1.00215 12.6374 0.996936 12.6882 1.00172 12.7387C1.0065 12.7892 1.02119 12.8382 1.04493 12.8828L3.03637 16.6073C3.06003 16.6535 3.0933 16.6941 3.13393 16.7265C3.17457 16.7588 3.22163 16.782 3.27199 16.7948C3.30399 16.8048 3.33729 16.8098 3.3708 16.81C3.44168 16.8098 3.51109 16.7897 3.57096 16.7517L5.0582 15.8294H5.07086H5.0886C5.15014 15.7964 5.2189 15.7791 5.28876 15.7791C5.35861 15.7791 5.42737 15.7964 5.48892 15.8294C7.29032 16.7872 8.39752 17 9.036 17C9.15982 17.0002 9.2835 16.991 9.4059 16.9721C9.75554 16.9291 13.0188 16.6757 16.3809 13.5492L16.6546 13.2756C16.8362 13.0967 16.9538 12.863 16.989 12.6107C17.0244 12.3583 16.9754 12.1013 16.8497 11.8795ZM4.8707 5.85963L9.75554 1.89451L14.6404 5.85963V11.5831L13.8549 12.029C13.2976 12.3407 12.7959 12.6497 12.3348 12.969C12.2587 13.0197 12.1878 13.0729 12.1143 13.1236C12.1393 13.0743 12.1589 13.0225 12.1727 12.969C12.2169 12.8262 12.2169 12.6735 12.1727 12.5307C12.1394 12.4218 12.0839 12.3211 12.0098 12.2347C11.9357 12.1484 11.8445 12.0783 11.7419 12.029V8.68716C11.7414 8.16029 11.5329 7.65494 11.1617 7.281C10.9639 7.08225 10.726 6.92792 10.4639 6.82832C10.2018 6.72871 9.92141 6.6861 9.64152 6.70333C9.12949 6.74566 8.65264 6.98087 8.30741 7.36138C7.96216 7.74189 7.77432 8.23931 7.78184 8.75303V10.6811C6.88284 10.2319 5.84668 10.1414 4.88338 10.4278L4.8707 5.85963ZM10.9818 11.8365H10.8678C8.97518 11.7098 8.62048 11.3576 8.58754 11.3297L8.5318 11.2689V8.75303C8.52587 8.43407 8.6405 8.12459 8.8528 7.88646C9.0651 7.64832 9.35944 7.49906 9.67699 7.46849C9.85049 7.45666 10.0245 7.48197 10.1875 7.54269C10.3504 7.60342 10.4986 7.69818 10.622 7.82066C10.8522 8.0524 10.9814 8.36565 10.9818 8.69223V11.8365ZM3.51522 15.8902L1.9013 12.8575L2.75007 12.4218L4.35891 15.3708L3.51522 15.8902ZM16.1099 12.7435L15.8565 12.9969C15.6454 13.1962 15.4359 13.3803 15.2282 13.5492L15.1217 13.6353C12.127 16.0601 9.37549 16.1893 9.34509 16.1893H9.28681C8.96758 16.2501 7.98961 16.2678 5.84869 15.1302C5.67739 15.0378 5.48593 14.989 5.2913 14.9883C5.21045 14.9892 5.12986 14.9977 5.05059 15.0137L4.2145 13.4555C4.19346 13.4231 4.17483 13.3892 4.15875 13.3541L3.42147 11.9859C3.64189 11.8254 3.87394 11.6814 4.11569 11.5552C4.35911 11.4259 4.61346 11.3182 4.87578 11.2334C5.31389 11.0735 5.78099 11.0084 6.24616 11.0424C6.71133 11.0765 7.16396 11.209 7.57409 11.4311C7.64483 11.4715 7.71182 11.5181 7.77425 11.5704C7.86566 11.6421 7.95045 11.7218 8.0276 11.8086C8.16845 11.9613 8.34155 12.0807 8.53434 12.1583C9.02585 12.3761 9.78341 12.5154 10.8146 12.5865L10.9793 12.6016C11.1433 12.6069 11.3032 12.6549 11.4429 12.7409C11.4143 12.8294 11.3595 12.9072 11.2859 12.9639C11.2554 12.9945 11.2233 13.0231 11.1896 13.0501C11.1239 13.1042 11.0535 13.1526 10.9793 13.1945C10.207 13.6187 9.30915 13.7552 8.44566 13.5796C8.25477 13.5425 8.06679 13.4917 7.8832 13.4276C7.84902 13.4155 7.81301 13.4095 7.77678 13.4098C7.70587 13.4053 7.63511 13.4209 7.57276 13.455C7.51041 13.4891 7.45902 13.5402 7.4246 13.6023C7.40318 13.6401 7.3886 13.6812 7.38154 13.7241C7.37104 13.7906 7.37814 13.859 7.40214 13.9221C7.42613 13.9852 7.46619 14.041 7.51835 14.0838C7.57798 14.1221 7.64172 14.1535 7.70837 14.1775C7.95282 14.2699 8.20839 14.3295 8.46846 14.3548C11.2048 14.5931 12.4868 13.7671 12.4868 13.7671L12.5552 13.7241L13.7739 12.9639L14.2198 12.6852L14.6327 12.4522L15.2839 12.0873L15.3194 12.067C15.3423 12.0495 15.3669 12.0342 15.3929 12.0214C15.5263 11.9533 15.6806 11.9384 15.8245 11.9798C15.9685 12.0212 16.0913 12.1158 16.1681 12.2444C16.2108 12.3234 16.2281 12.4138 16.2176 12.5031C16.2073 12.5924 16.1696 12.6763 16.1099 12.7435Z" fill="#4461D7" />
</symbol>

<symbol id="softwaredeveloper" viewBox="0 0 16 16">
<path d="M4.73029 10.936C4.84565 11.0513 5.0187 11.109 5.16289 11.109C5.33594 11.109 5.48014 11.0513 5.5955 10.936C5.85505 10.6764 5.85505 10.3015 5.5955 10.0419L3.77856 8.22499L5.5955 6.40806C5.85505 6.14849 5.85505 5.77357 5.5955 5.514C5.33594 5.25445 4.96101 5.25445 4.70145 5.514L2.48074 7.79239C2.22118 8.05196 2.22118 8.42688 2.48074 8.68645L4.73029 10.936Z" fill="#4461D7"/>
<path d="M10.1802 10.9363C10.2956 11.0516 10.4686 11.1093 10.6128 11.1093C10.7859 11.1093 10.9301 11.0516 11.0454 10.9363L13.3238 8.65788C13.5834 8.39832 13.5834 8.02339 13.3238 7.76384L11.0454 5.48545C10.7859 5.22588 10.411 5.22588 10.1514 5.48545C9.89184 5.74501 9.89184 6.11993 10.1514 6.37949L11.9683 8.19644L10.1514 10.0134C9.92067 10.3018 9.92067 10.7055 10.1802 10.9363Z" fill="#4461D7"/>
<path d="M7.00785 12.1765C7.06554 12.1765 7.09438 12.2054 7.15206 12.2054C7.44047 12.2054 7.70002 12.0035 7.75771 11.7151L9.2574 5.34136C9.34392 4.99528 9.14204 4.67804 8.79596 4.59152C8.44987 4.50499 8.13263 4.70688 8.04612 5.05297L6.54641 11.4267C6.45989 11.7439 6.66177 12.09 7.00785 12.1765Z" fill="#4461D7"/>
<path fill-rule="evenodd" clip-rule="evenodd" d="M0 1.14286C0 0.511675 0.511675 0 1.14286 0H14.8571C15.4884 0 16 0.511675 16 1.14286V14.8571C16 15.4884 15.4884 16 14.8571 16H1.14286C0.511675 16 0 15.4884 0 14.8571V1.14286ZM1.14286 1.14286V14.8571H14.8571V1.14286H1.14286Z" fill="#4461D7"/>
</symbol>


</defs>
</svg>