<svg width="60" height="60" viewBox="0 0 60 60" fill="none" xmlns="http://www.w3.org/2000/svg">
<path d="M15 16H5V18H15V16Z" fill="white"/>
<path d="M24 16H17V18H24V16Z" fill="white"/>
<path d="M39 47H46C46.2652 47 46.5196 46.8946 46.7071 46.7071C46.8946 46.5196 47 46.2652 47 46V22C47 21.7348 46.8946 21.4804 46.7071 21.2929C46.5196 21.1054 46.2652 21 46 21H22C21.7348 21 21.4804 21.1054 21.2929 21.2929C21.1054 21.4804 21 21.7348 21 22V29H6C5.73478 29 5.48043 29.1054 5.29289 29.2929C5.10536 29.4804 5 29.7348 5 30V54C5 54.2652 5.10536 54.5196 5.29289 54.7071C5.48043 54.8946 5.73478 55 6 55H38C38.2652 55 38.5196 54.8946 38.7071 54.7071C38.8946 54.5196 39 54.2652 39 54V47ZM31 45V39H37V45H31ZM7 39H13V45H7V39ZM15 39H21V45H15V39ZM29 31V37H23V31H29ZM45 37H39V31H45V37ZM37 37H31V31H37V37ZM23 39H29V45H23V39ZM45 45H39V39H45V45ZM45 29H39V23H45V29ZM37 29H31V23H37V29ZM23 23H29V29H23V23ZM21 37H15V31H21V37ZM7 31H13V37H7V31ZM7 47H13V53H7V47ZM15 47H21V53H15V47ZM23 47H29V53H23V47ZM37 53H31V47H37V53Z" fill="white"/>
<path d="M59 3H47V1C47 0.734784 46.8946 0.48043 46.7071 0.292893C46.5196 0.105357 46.2652 0 46 0C45.7348 0 45.4804 0.105357 45.2929 0.292893C45.1054 0.48043 45 0.734784 45 1V3H42V1C42 0.734784 41.8946 0.48043 41.7071 0.292893C41.5196 0.105357 41.2652 0 41 0C40.7348 0 40.4804 0.105357 40.2929 0.292893C40.1054 0.48043 40 0.734784 40 1V3H37V1C37 0.734784 36.8946 0.48043 36.7071 0.292893C36.5196 0.105357 36.2652 0 36 0C35.7348 0 35.4804 0.105357 35.2929 0.292893C35.1054 0.48043 35 0.734784 35 1V3H17V1C17 0.734784 16.8946 0.48043 16.7071 0.292893C16.5196 0.105357 16.2652 0 16 0C15.7348 0 15.4804 0.105357 15.2929 0.292893C15.1054 0.48043 15 0.734784 15 1V3H12V1C12 0.734784 11.8946 0.48043 11.7071 0.292893C11.5196 0.105357 11.2652 0 11 0C10.7348 0 10.4804 0.105357 10.2929 0.292893C10.1054 0.48043 10 0.734784 10 1V3H7V1C7 0.734784 6.89464 0.48043 6.70711 0.292893C6.51957 0.105357 6.26522 0 6 0C5.73478 0 5.48043 0.105357 5.29289 0.292893C5.10536 0.48043 5 0.734784 5 1V3H1C0.734784 3 0.48043 3.10536 0.292893 3.29289C0.105357 3.48043 0 3.73478 0 4V59C0 59.2652 0.105357 59.5196 0.292893 59.7071C0.48043 59.8946 0.734784 60 1 60H59C59.2652 60 59.5196 59.8946 59.7071 59.7071C59.8946 59.5196 60 59.2652 60 59V4C60 3.73478 59.8946 3.48043 59.7071 3.29289C59.5196 3.10536 59.2652 3 59 3ZM58 5V11H56V5H58ZM52 5H54V11H52V5ZM2 5H5V7C5 7.26522 5.10536 7.51957 5.29289 7.70711C5.48043 7.89464 5.73478 8 6 8C6.26522 8 6.51957 7.89464 6.70711 7.70711C6.89464 7.51957 7 7.26522 7 7V5H10V7C10 7.26522 10.1054 7.51957 10.2929 7.70711C10.4804 7.89464 10.7348 8 11 8C11.2652 8 11.5196 7.89464 11.7071 7.70711C11.8946 7.51957 12 7.26522 12 7V5H15V7C15 7.26522 15.1054 7.51957 15.2929 7.70711C15.4804 7.89464 15.7348 8 16 8C16.2652 8 16.5196 7.89464 16.7071 7.70711C16.8946 7.51957 17 7.26522 17 7V5H35V7C35 7.26522 35.1054 7.51957 35.2929 7.70711C35.4804 7.89464 35.7348 8 36 8C36.2652 8 36.5196 7.89464 36.7071 7.70711C36.8946 7.51957 37 7.26522 37 7V5H40V7C40 7.26522 40.1054 7.51957 40.2929 7.70711C40.4804 7.89464 40.7348 8 41 8C41.2652 8 41.5196 7.89464 41.7071 7.70711C41.8946 7.51957 42 7.26522 42 7V5H45V7C45 7.26522 45.1054 7.51957 45.2929 7.70711C45.4804 7.89464 45.7348 8 46 8C46.2652 8 46.5196 7.89464 46.7071 7.70711C46.8946 7.51957 47 7.26522 47 7V5H50V11H2V5ZM2 13H50V49H42C41.7348 49 41.4804 49.1054 41.2929 49.2929C41.1054 49.4804 41 49.7348 41 50V58H2V13ZM48.586 51L43 56.586V51H48.586ZM51.707 50.707C51.7906 50.622 51.8583 50.5228 51.907 50.414C51.921 50.383 51.929 50.352 51.94 50.32C51.9688 50.2371 51.986 50.1506 51.991 50.063C51.991 50.041 52.004 50.022 52.004 50V13H54.004V58H44.414L51.707 50.707ZM56 58V13H58V58H56Z" fill="white"/>
<path d="M27 25H25V27H27V25Z" fill="white"/>
<path d="M19 33H17V35H19V33Z" fill="white"/>
<path d="M35 41H33V43H35V41Z" fill="white"/>
<path d="M19 49H17V51H19V49Z" fill="white"/>
</svg>
