<svg width="58" height="60" viewBox="0 0 58 60" fill="none" xmlns="http://www.w3.org/2000/svg">
<path d="M39.4628 37.1644C39.2674 37.5938 39.1531 38.0641 39.1531 38.5576C39.1531 39.9982 40.0902 41.2607 41.3751 41.7746V44.6639C41.3751 45.3548 41.9344 45.9137 42.6259 45.9137C43.3174 45.9137 43.8768 45.3548 43.8768 44.6639V41.7755C45.163 41.262 46.1014 39.9991 46.1014 38.5576C46.1014 36.6766 44.5107 35.0885 42.6273 35.0885C42.1334 35.0885 41.6627 35.2027 41.2325 35.3976L37.8413 32.0092C37.3526 31.521 36.5612 31.521 36.0725 32.0092C35.5839 32.4975 35.5839 33.2882 36.0725 33.7765L39.4628 37.1644ZM43.5997 38.5576C43.5997 39.0728 43.1451 39.5253 42.6272 39.5253C42.1093 39.5253 41.6547 39.0724 41.6547 38.5576C41.6547 38.0414 42.1093 37.5885 42.6272 37.5885C43.1455 37.5885 43.5997 38.0414 43.5997 38.5576Z" fill="white"/>
<path d="M15.2607 11.8714C15.2607 19.694 20.477 26.0574 26.8877 26.0574C33.2984 26.0574 38.5146 19.6934 38.5146 11.8714C38.5146 4.66053 33.9506 0 26.8877 0C19.8246 0 15.2607 4.66042 15.2607 11.8714ZM36.0127 11.8714C36.0127 18.316 31.9191 23.5588 26.8873 23.5588C21.8556 23.5588 17.7619 18.3164 17.7619 11.8714C17.7619 6.00312 21.1737 2.50006 26.8873 2.50006C32.6009 2.50006 36.0127 6.00312 36.0127 11.8714Z" fill="white"/>
<path d="M4.04231 60H49.8017C51.7819 60 53.392 58.4351 53.392 56.5127V49.0066C56.0276 46.3027 57.6589 42.6191 57.6589 38.5581C57.6589 30.2853 50.9156 23.5542 42.6265 23.5542C35.9102 23.5542 30.211 27.9739 28.29 34.0519C20.3923 33.8614 12.3775 35.4578 4.44417 38.8331C2.01927 39.8252 0.452149 42.1089 0.452149 44.6504V56.5118C0.451712 58.4346 2.06205 59.9996 4.04242 59.9996L4.04231 60ZM41.3758 26.1176V27.4311C41.3758 28.122 41.9351 28.6809 42.6266 28.6809C43.3181 28.6809 43.8774 28.122 43.8774 27.4311V26.1176C49.7896 26.7053 54.5037 31.4088 55.0933 37.3084H53.7753C53.0838 37.3084 52.5245 37.8672 52.5245 38.5581C52.5245 39.249 53.0838 39.8079 53.7753 39.8079H55.0933C54.5039 45.7062 49.7898 50.4093 43.8774 50.9975V49.684C43.8774 48.9931 43.3181 48.4342 42.6266 48.4342C41.9351 48.4342 41.3758 48.9931 41.3758 49.684V50.9975C35.4636 50.4098 30.7495 45.7067 30.1599 39.8079H31.4779C32.1695 39.8079 32.7288 39.249 32.7288 38.5581C32.7288 37.8672 32.1694 37.3084 31.4779 37.3084H30.1603C30.7498 31.4091 35.4638 26.7055 41.3751 26.1176H41.3758ZM2.95445 44.6513C2.95445 43.129 3.9121 41.7537 5.40861 41.1395C12.8639 37.9682 20.3829 36.4468 27.7466 36.5454C27.6576 37.2054 27.5952 37.8736 27.5952 38.558C27.5952 46.8299 34.3385 53.5597 42.6276 53.5597C45.6789 53.5597 48.517 52.6421 50.8904 51.0762V56.5121C50.8904 57.0566 50.4017 57.4995 49.8018 57.4995H4.04247C3.44257 57.4995 2.95393 57.0566 2.95393 56.5121L2.95445 44.6513Z" fill="white"/>
</svg>
