<svg width="57" height="55" viewBox="0 0 57 55" fill="none" xmlns="http://www.w3.org/2000/svg">
<path d="M53.4375 0H2.8125C2.06685 0.000868412 1.35198 0.297463 0.824721 0.824721C0.297463 1.35198 0.000868412 2.06685 0 2.8125V51.5625C0.000868412 52.3082 0.297463 53.023 0.824721 53.5503C1.35198 54.0775 2.06685 54.3741 2.8125 54.375H53.4375C54.1832 54.3741 54.898 54.0775 55.4253 53.5503C55.9525 53.023 56.2491 52.3082 56.25 51.5625V2.8125C56.2491 2.06685 55.9525 1.35198 55.4253 0.824721C54.898 0.297463 54.1832 0.000868412 53.4375 0V0ZM2.8125 1.875H53.4375C53.6861 1.87528 53.9244 1.97414 54.1001 2.1499C54.2759 2.32565 54.3747 2.56395 54.375 2.8125V7.5H1.875V2.8125C1.87528 2.56395 1.97414 2.32565 2.1499 2.1499C2.32565 1.97414 2.56395 1.87528 2.8125 1.875V1.875ZM53.4375 52.5H2.8125C2.56395 52.4997 2.32565 52.4009 2.1499 52.2251C1.97414 52.0494 1.87528 51.8111 1.875 51.5625V9.375H54.375V51.5625C54.3747 51.8111 54.2759 52.0494 54.1001 52.2251C53.9244 52.4009 53.6861 52.4997 53.4375 52.5Z" fill="white"/>
<path d="M12.1875 5.625C12.7053 5.625 13.125 5.20527 13.125 4.6875C13.125 4.16973 12.7053 3.75 12.1875 3.75C11.6697 3.75 11.25 4.16973 11.25 4.6875C11.25 5.20527 11.6697 5.625 12.1875 5.625Z" fill="white"/>
<path d="M8.4375 5.625C8.95527 5.625 9.375 5.20527 9.375 4.6875C9.375 4.16973 8.95527 3.75 8.4375 3.75C7.91973 3.75 7.5 4.16973 7.5 4.6875C7.5 5.20527 7.91973 5.625 8.4375 5.625Z" fill="white"/>
<path d="M4.6875 5.625C5.20527 5.625 5.625 5.20527 5.625 4.6875C5.625 4.16973 5.20527 3.75 4.6875 3.75C4.16973 3.75 3.75 4.16973 3.75 4.6875C3.75 5.20527 4.16973 5.625 4.6875 5.625Z" fill="white"/>
<path d="M49.6875 13.125H6.5625C6.31386 13.125 6.0754 13.2238 5.89959 13.3996C5.72377 13.5754 5.625 13.8139 5.625 14.0625V29.0625C5.625 29.3111 5.72377 29.5496 5.89959 29.7254C6.0754 29.9012 6.31386 30 6.5625 30H49.6875C49.9361 30 50.1746 29.9012 50.3504 29.7254C50.5262 29.5496 50.625 29.3111 50.625 29.0625V14.0625C50.625 13.8139 50.5262 13.5754 50.3504 13.3996C50.1746 13.2238 49.9361 13.125 49.6875 13.125ZM48.75 28.125H45.9375V21.5625C45.9375 21.3139 45.8387 21.0754 45.6629 20.8996C45.4871 20.7238 45.2486 20.625 45 20.625C44.7514 20.625 44.5129 20.7238 44.3371 20.8996C44.1613 21.0754 44.0625 21.3139 44.0625 21.5625V28.125H42.1875V25.3125C42.1875 25.0639 42.0887 24.8254 41.9129 24.6496C41.7371 24.4738 41.4986 24.375 41.25 24.375C41.0014 24.375 40.7629 24.4738 40.5871 24.6496C40.4113 24.8254 40.3125 25.0639 40.3125 25.3125V28.125H38.4375V23.4375C38.4375 23.1889 38.3387 22.9504 38.1629 22.7746C37.9871 22.5988 37.7486 22.5 37.5 22.5C37.2514 22.5 37.0129 22.5988 36.8371 22.7746C36.6613 22.9504 36.5625 23.1889 36.5625 23.4375V28.125H34.6875V25.3125C34.6875 25.0639 34.5887 24.8254 34.4129 24.6496C34.2371 24.4738 33.9986 24.375 33.75 24.375C33.5014 24.375 33.2629 24.4738 33.0871 24.6496C32.9113 24.8254 32.8125 25.0639 32.8125 25.3125V28.125H30.9375V21.5625C30.9375 21.3139 30.8387 21.0754 30.6629 20.8996C30.4871 20.7238 30.2486 20.625 30 20.625C29.7514 20.625 29.5129 20.7238 29.3371 20.8996C29.1613 21.0754 29.0625 21.3139 29.0625 21.5625V28.125H27.1875V19.6875C27.1875 19.4389 27.0887 19.2004 26.9129 19.0246C26.7371 18.8488 26.4986 18.75 26.25 18.75C26.0014 18.75 25.7629 18.8488 25.5871 19.0246C25.4113 19.2004 25.3125 19.4389 25.3125 19.6875V28.125H23.4375V21.5625C23.4375 21.3139 23.3387 21.0754 23.1629 20.8996C22.9871 20.7238 22.7486 20.625 22.5 20.625C22.2514 20.625 22.0129 20.7238 21.8371 20.8996C21.6613 21.0754 21.5625 21.3139 21.5625 21.5625V28.125H19.6875V23.4375C19.6875 23.1889 19.5887 22.9504 19.4129 22.7746C19.2371 22.5988 18.9986 22.5 18.75 22.5C18.5014 22.5 18.2629 22.5988 18.0871 22.7746C17.9113 22.9504 17.8125 23.1889 17.8125 23.4375V28.125H15.9375V21.5625C15.9375 21.3139 15.8387 21.0754 15.6629 20.8996C15.4871 20.7238 15.2486 20.625 15 20.625C14.7514 20.625 14.5129 20.7238 14.3371 20.8996C14.1613 21.0754 14.0625 21.3139 14.0625 21.5625V28.125H12.1875V25.3125C12.1875 25.0639 12.0887 24.8254 11.9129 24.6496C11.7371 24.4738 11.4986 24.375 11.25 24.375C11.0014 24.375 10.7629 24.4738 10.5871 24.6496C10.4113 24.8254 10.3125 25.0639 10.3125 25.3125V28.125H7.5V15H48.75V28.125Z" fill="white"/>
<path d="M13.125 33.75C11.6416 33.75 10.1916 34.1899 8.95823 35.014C7.72486 35.8381 6.76356 37.0094 6.19591 38.3799C5.62825 39.7503 5.47972 41.2583 5.76911 42.7132C6.0585 44.168 6.77281 45.5044 7.8217 46.5533C8.8706 47.6022 10.207 48.3165 11.6618 48.6059C13.1167 48.8953 14.6247 48.7468 15.9951 48.1791C17.3656 47.6114 18.5369 46.6501 19.361 45.4168C20.1851 44.1834 20.625 42.7334 20.625 41.25C20.6228 39.2616 19.8319 37.3552 18.4258 35.9492C17.0198 34.5431 15.1134 33.7522 13.125 33.75ZM18.6704 40.3125H16.7563C16.5875 39.6644 16.2489 39.0731 15.7754 38.5996C15.3019 38.1261 14.7106 37.7875 14.0625 37.6187V35.7046C15.2131 35.9011 16.2743 36.45 17.0997 37.2753C17.925 38.1007 18.4739 39.1619 18.6704 40.3125V40.3125ZM13.125 39.375C13.4958 39.375 13.8584 39.485 14.1667 39.691C14.475 39.897 14.7154 40.1899 14.8573 40.5325C14.9992 40.8751 15.0363 41.2521 14.964 41.6158C14.8916 41.9795 14.7131 42.3136 14.4508 42.5758C14.1886 42.8381 13.8545 43.0166 13.4908 43.089C13.1271 43.1613 12.7501 43.1242 12.4075 42.9823C12.0649 42.8404 11.772 42.6 11.566 42.2917C11.36 41.9834 11.25 41.6208 11.25 41.25C11.2506 40.7529 11.4483 40.2763 11.7998 39.9248C12.1513 39.5733 12.6279 39.3756 13.125 39.375V39.375ZM13.125 46.875C11.7155 46.8737 10.3579 46.3432 9.32081 45.3887C8.28375 44.4341 7.64286 43.125 7.52498 41.7204C7.4071 40.3159 7.82082 38.9182 8.68427 37.8042C9.54771 36.6901 10.7979 35.9408 12.1875 35.7046V37.6187C11.5474 37.7841 10.9624 38.1157 10.4918 38.5801C10.0212 39.0444 9.68165 39.6249 9.50767 40.2627C9.3337 40.9005 9.33143 41.573 9.50111 42.2119C9.67078 42.8509 10.0064 43.4337 10.4738 43.9012C10.9413 44.3686 11.5241 44.7042 12.1631 44.8739C12.802 45.0436 13.4745 45.0413 14.1123 44.8673C14.7501 44.6934 15.3306 44.3539 15.795 43.8832C16.2593 43.4126 16.5909 42.8276 16.7563 42.1875H18.6704C18.4474 43.4973 17.7685 44.6862 16.7537 45.5439C15.739 46.4017 14.4537 46.8732 13.125 46.875V46.875Z" fill="white"/>
<path d="M40.3125 44.0625H44.0625C44.3111 44.0625 44.5496 43.9637 44.7254 43.7879C44.9012 43.6121 45 43.3736 45 43.125C45 42.8764 44.9012 42.6379 44.7254 42.4621C44.5496 42.2863 44.3111 42.1875 44.0625 42.1875H40.3125C40.0639 42.1875 39.8254 42.2863 39.6496 42.4621C39.4738 42.6379 39.375 42.8764 39.375 43.125C39.375 43.3736 39.4738 43.6121 39.6496 43.7879C39.8254 43.9637 40.0639 44.0625 40.3125 44.0625Z" fill="white"/>
<path d="M49.6875 45.9375H40.3125C40.0639 45.9375 39.8254 46.0363 39.6496 46.2121C39.4738 46.3879 39.375 46.6264 39.375 46.875C39.375 47.1236 39.4738 47.3621 39.6496 47.5379C39.8254 47.7137 40.0639 47.8125 40.3125 47.8125H49.6875C49.9361 47.8125 50.1746 47.7137 50.3504 47.5379C50.5262 47.3621 50.625 47.1236 50.625 46.875C50.625 46.6264 50.5262 46.3879 50.3504 46.2121C50.1746 46.0363 49.9361 45.9375 49.6875 45.9375Z" fill="white"/>
<path d="M40.3125 36.5625H44.0625C44.3111 36.5625 44.5496 36.4637 44.7254 36.2879C44.9012 36.1121 45 35.8736 45 35.625C45 35.3764 44.9012 35.1379 44.7254 34.9621C44.5496 34.7863 44.3111 34.6875 44.0625 34.6875H40.3125C40.0639 34.6875 39.8254 34.7863 39.6496 34.9621C39.4738 35.1379 39.375 35.3764 39.375 35.625C39.375 35.8736 39.4738 36.1121 39.6496 36.2879C39.8254 36.4637 40.0639 36.5625 40.3125 36.5625Z" fill="white"/>
<path d="M49.6875 38.4375H40.3125C40.0639 38.4375 39.8254 38.5363 39.6496 38.7121C39.4738 38.8879 39.375 39.1264 39.375 39.375C39.375 39.6236 39.4738 39.8621 39.6496 40.0379C39.8254 40.2137 40.0639 40.3125 40.3125 40.3125H49.6875C49.9361 40.3125 50.1746 40.2137 50.3504 40.0379C50.5262 39.8621 50.625 39.6236 50.625 39.375C50.625 39.1264 50.5262 38.8879 50.3504 38.7121C50.1746 38.5363 49.9361 38.4375 49.6875 38.4375Z" fill="white"/>
<path d="M25.3125 44.0625H29.0625C29.3111 44.0625 29.5496 43.9637 29.7254 43.7879C29.9012 43.6121 30 43.3736 30 43.125C30 42.8764 29.9012 42.6379 29.7254 42.4621C29.5496 42.2863 29.3111 42.1875 29.0625 42.1875H25.3125C25.0639 42.1875 24.8254 42.2863 24.6496 42.4621C24.4738 42.6379 24.375 42.8764 24.375 43.125C24.375 43.3736 24.4738 43.6121 24.6496 43.7879C24.8254 43.9637 25.0639 44.0625 25.3125 44.0625Z" fill="white"/>
<path d="M34.6875 45.9375H25.3125C25.0639 45.9375 24.8254 46.0363 24.6496 46.2121C24.4738 46.3879 24.375 46.6264 24.375 46.875C24.375 47.1236 24.4738 47.3621 24.6496 47.5379C24.8254 47.7137 25.0639 47.8125 25.3125 47.8125H34.6875C34.9361 47.8125 35.1746 47.7137 35.3504 47.5379C35.5262 47.3621 35.625 47.1236 35.625 46.875C35.625 46.6264 35.5262 46.3879 35.3504 46.2121C35.1746 46.0363 34.9361 45.9375 34.6875 45.9375Z" fill="white"/>
<path d="M25.3125 36.5625H29.0625C29.3111 36.5625 29.5496 36.4637 29.7254 36.2879C29.9012 36.1121 30 35.8736 30 35.625C30 35.3764 29.9012 35.1379 29.7254 34.9621C29.5496 34.7863 29.3111 34.6875 29.0625 34.6875H25.3125C25.0639 34.6875 24.8254 34.7863 24.6496 34.9621C24.4738 35.1379 24.375 35.3764 24.375 35.625C24.375 35.8736 24.4738 36.1121 24.6496 36.2879C24.8254 36.4637 25.0639 36.5625 25.3125 36.5625Z" fill="white"/>
<path d="M34.6875 38.4375H25.3125C25.0639 38.4375 24.8254 38.5363 24.6496 38.7121C24.4738 38.8879 24.375 39.1264 24.375 39.375C24.375 39.6236 24.4738 39.8621 24.6496 40.0379C24.8254 40.2137 25.0639 40.3125 25.3125 40.3125H34.6875C34.9361 40.3125 35.1746 40.2137 35.3504 40.0379C35.5262 39.8621 35.625 39.6236 35.625 39.375C35.625 39.1264 35.5262 38.8879 35.3504 38.7121C35.1746 38.5363 34.9361 38.4375 34.6875 38.4375Z" fill="white"/>
</svg>
