<svg width="60" height="60" viewBox="0 0 60 60" fill="none" xmlns="http://www.w3.org/2000/svg">
<path d="M48 35V21C48.0068 17.8222 46.846 14.7526 44.7383 12.3744C42.6305 9.99621 39.7226 8.47508 36.567 8.10002L39.9 1.44702C39.9764 1.29414 40.0123 1.12424 40.0044 0.953518C39.9965 0.782802 39.9449 0.616969 39.8546 0.471848C39.7644 0.326727 39.6384 0.207161 39.4888 0.12456C39.3392 0.0419585 39.1709 -0.00092045 39 1.49836e-05H21C20.8295 -6.44748e-05 20.6619 0.0434392 20.5129 0.126394C20.364 0.209349 20.2387 0.329 20.1491 0.473984C20.0594 0.618968 20.0083 0.78447 20.0006 0.954771C19.9928 1.12507 20.0288 1.29452 20.105 1.44702L23.434 8.10002C20.2825 8.48505 17.3804 10.0091 15.2745 12.3851C13.1685 14.761 12.0039 17.825 12 21V39H14V21C14.0034 18.0837 15.1635 15.2878 17.2256 13.2256C19.2878 11.1635 22.0837 10.0035 25 10H35C36.4451 9.99791 37.8765 10.281 39.212 10.833C40.5475 11.3851 41.761 12.1953 42.7829 13.2171C43.8047 14.239 44.6149 15.4525 45.167 16.788C45.719 18.1235 46.0021 19.5549 46 21V35H48ZM34.382 8.00002H25.618L22.618 2.00002H37.382L34.382 8.00002Z" fill="white"/>
<path d="M21.5 14.9389C22.0475 14.6208 22.636 14.3792 23.249 14.2209L22.749 12.2849C21.9605 12.4895 21.2032 12.7999 20.498 13.2079L21.5 14.9389Z" fill="white"/>
<path d="M16 24.9999H18V20.9999C17.9975 20.063 18.1846 19.1353 18.55 18.2726C18.9153 17.4099 19.4514 16.63 20.126 15.9799L18.733 14.5459C17.8656 15.3816 17.1763 16.3843 16.7067 17.4935C16.237 18.6026 15.9966 19.7954 16 20.9999V24.9999Z" fill="white"/>
<path d="M2.852 49.1481L19.829 58.4071C21.7398 59.4516 23.8824 59.9994 26.06 60.0001H59C59.2652 60.0001 59.5196 59.8947 59.7071 59.7072C59.8946 59.5197 60 59.2653 60 59.0001V41.0001C60 40.7349 59.8946 40.4805 59.7071 40.293C59.5196 40.1054 59.2652 40.0001 59 40.0001H51.347L51.233 39.9111C50.0584 38.9944 48.7602 38.248 47.377 37.6941C44.9856 36.7182 42.3956 36.3276 39.8228 36.5548C37.2499 36.782 34.7685 37.6203 32.585 39.0001H25C24.2148 38.9999 23.4407 39.1846 22.7402 39.5393C22.0397 39.8939 21.4325 40.4086 20.968 41.0415C20.5034 41.6745 20.1944 42.408 20.066 43.1826C19.9376 43.9571 19.9935 44.7511 20.229 45.5001L7.867 39.3061C6.96739 38.8543 5.95857 38.6655 4.95646 38.7614C3.95435 38.8573 2.99963 39.2339 2.202 39.8481C1.51964 40.3594 0.965493 41.0223 0.583336 41.7845C0.20118 42.5468 0.00147823 43.3874 4.59948e-06 44.2401V44.3501C-0.00127173 45.3327 0.263106 46.2973 0.765158 47.1419C1.26721 47.9865 1.98826 48.6797 2.852 49.1481V49.1481ZM52 42.0001H58V58.0001H52V42.0001ZM2 44.2401C2.00367 43.688 2.13665 43.1444 2.38828 42.6529C2.63991 42.1615 3.0032 41.7358 3.449 41.4101C3.94807 41.0335 4.54265 40.8044 5.16534 40.7485C5.78802 40.6927 6.41389 40.8124 6.972 41.0941L22.553 48.8941C22.6916 48.964 22.8448 49.0003 23 49.0001H38V47.0001H25C24.2044 47.0001 23.4413 46.684 22.8787 46.1214C22.3161 45.5588 22 44.7957 22 44.0001C22 43.2044 22.3161 42.4414 22.8787 41.8788C23.4413 41.3162 24.2044 41.0001 25 41.0001H32.88C33.0758 40.9998 33.2673 40.9424 33.431 40.8351C35.3611 39.5641 37.5718 38.7828 39.8719 38.5587C42.1719 38.3346 44.4919 38.6746 46.631 39.5491C47.8393 40.0332 48.9734 40.6849 50 41.4851V58.0001H26.06C24.2175 57.9994 22.4047 57.5359 20.788 56.6521L3.806 47.3911C3.25863 47.0943 2.80176 46.6549 2.48381 46.1195C2.16586 45.5842 1.99869 44.9728 2 44.3501V44.2401Z" fill="white"/>
<path d="M56 53H54V55H56V53Z" fill="white"/>
<path d="M31 35V33H32C33.0609 33 34.0783 32.5786 34.8284 31.8284C35.5786 31.0783 36 30.0609 36 29C36 27.9391 35.5786 26.9217 34.8284 26.1716C34.0783 25.4214 33.0609 25 32 25H28C27.4696 25 26.9609 24.7893 26.5858 24.4142C26.2107 24.0391 26 23.5304 26 23C26 22.4696 26.2107 21.9609 26.5858 21.5858C26.9609 21.2107 27.4696 21 28 21H35V19H31V17H29V19H28C26.9391 19 25.9217 19.4214 25.1716 20.1716C24.4214 20.9217 24 21.9391 24 23C24 24.0609 24.4214 25.0783 25.1716 25.8284C25.9217 26.5786 26.9391 27 28 27H32C32.5304 27 33.0391 27.2107 33.4142 27.5858C33.7893 27.9609 34 28.4696 34 29C34 29.5304 33.7893 30.0391 33.4142 30.4142C33.0391 30.7893 32.5304 31 32 31H25V33H29V35H31Z" fill="white"/>
</svg>
