<svg aria-hidden="true" style="position: absolute; width: 0; height: 0; overflow: hidden;" version="1.1" xmlns="http://www.w3.org/2000/svg" xmlns:xlink="http://www.w3.org/1999/xlink">
<defs>

<symbol id="DataLoss" viewBox="0 0 58 58">
<path d="M51.4919 1.64824H6.17986C3.67802 1.65116 1.65117 3.67801 1.64825 6.17985V40.6172C1.65117 43.1182 3.67802 45.1451 6.17986 45.1482H23.3274C22.9379 47.9315 20.8537 50.5857 18.8669 50.5857C17.3658 50.5857 16.1484 51.8031 16.1484 53.3045C16.1484 54.8059 17.3658 56.0232 18.8669 56.0232H38.8049C40.3057 56.0232 41.5231 54.8059 41.5231 53.3045C41.5231 51.8031 40.3057 50.5857 38.8049 50.5857C36.8178 50.5857 34.7336 47.9315 34.3444 45.1482H51.4919C53.9935 45.1451 56.0203 43.1182 56.0233 40.6172V6.17985C56.0203 3.67801 53.9935 1.65116 51.4919 1.64824ZM6.17986 3.46057H51.4919C52.9936 3.46057 54.2109 4.6779 54.2109 6.17985V36.0856H3.46058V6.17985C3.46058 4.6779 4.67791 3.46057 6.17986 3.46057ZM38.8049 54.2109H18.8669C18.3667 54.2109 17.9608 53.805 17.9608 53.3045C17.9608 52.804 18.3667 52.3986 18.8669 52.3986H38.8049C39.3048 52.3986 39.7108 52.804 39.7108 53.3045C39.7108 53.805 39.3048 54.2109 38.8049 54.2109ZM35.0618 50.5857H22.6097C24.0304 49.1 24.9262 47.1902 25.1612 45.1482H32.5103C32.7453 47.1902 33.6411 49.1 35.0618 50.5857ZM54.2109 40.6172C54.2109 42.1183 52.9936 43.3359 51.4919 43.3359H6.17986C4.67791 43.3359 3.46058 42.1183 3.46058 40.6172V37.8982H54.2109V40.6172Z" fill="#4461D7"/>
<path d="M29.7422 40.6172C29.7422 41.1174 29.3362 41.5231 28.8357 41.5231C28.3353 41.5231 27.9293 41.1174 27.9293 40.6172C27.9293 40.1164 28.3353 39.7107 28.8357 39.7107C29.3362 39.7107 29.7422 40.1164 29.7422 40.6172Z" fill="#4461D7"/>
<path d="M7.08572 34.2732H19.7736C20.7745 34.2732 21.5859 33.4618 21.5859 32.4606V29.7421H36.0855V32.4606C36.0855 33.4618 36.8972 34.2732 37.8981 34.2732H50.5857C51.5867 34.2732 52.3986 33.4618 52.3986 32.4606V25.2111C52.3986 24.2096 51.5867 23.3982 50.5857 23.3982H49.6793V12.5232C49.6793 11.522 48.8679 10.7106 47.867 10.7106H44.2418V7.08574C44.2418 6.08479 43.4304 5.27315 42.4295 5.27315H22.4918C21.4908 5.27315 20.6795 6.08479 20.6795 7.08574V7.99217H10.7106C9.70969 7.99217 8.89804 8.80354 8.89804 9.80449V17.9607C8.89804 18.9619 9.70969 19.7736 10.7106 19.7736H11.6173V22.4918H7.08572C6.08477 22.4918 5.27313 23.3034 5.27313 24.3044V32.4606C5.27313 33.4618 6.08477 34.2732 7.08572 34.2732ZM17.9607 27.9293V15.242H39.7107V27.9293H17.9607ZM50.5857 32.4606H37.8981V29.7421H39.7107C40.7117 29.7421 41.523 28.9302 41.523 27.9293V25.2111H50.5857V32.4606ZM47.867 12.5232V23.3982H41.523V19.7736H42.4295C43.4304 19.7736 44.2418 18.9619 44.2418 17.9607V12.5232H47.867ZM22.4918 7.08574H42.4295V17.9607H41.523V15.242C41.523 14.241 40.7117 13.4297 39.7107 13.4297H25.2111V9.80449C25.2111 8.80354 24.3992 7.99217 23.3982 7.99217H22.4918V7.08574ZM10.7106 9.80449H23.3982V13.4297H17.9607C16.9598 13.4297 16.1484 14.241 16.1484 15.242V17.9607H10.7106V9.80449ZM13.4296 19.7736H16.1484V22.4918H13.4296V19.7736ZM7.08572 24.3044H16.1484V27.9293C16.1484 28.9302 16.9598 29.7421 17.9607 29.7421H19.7736V32.4606H7.08572V24.3044Z" fill="#4461D7"/>
<path d="M14.9764 26.3825C14.6228 26.0288 14.0487 26.0288 13.6951 26.3825L12.9766 27.1015L12.2577 26.3825C11.9019 26.0395 11.3372 26.044 10.9872 26.3934C10.6376 26.7433 10.6328 27.3086 10.9761 27.6638L11.6948 28.3828L10.9761 29.1012C10.7411 29.329 10.6461 29.6657 10.7292 29.9827C10.812 30.2994 11.0597 30.5469 11.3762 30.63C11.6935 30.7128 12.0301 30.6183 12.2577 30.3825L12.9766 29.6641L13.6951 30.3825C14.0506 30.7261 14.6161 30.7211 14.9653 30.3717C15.3149 30.0223 15.32 29.4567 14.9764 29.1012L14.258 28.3828L14.9764 27.6638C15.3303 27.3099 15.3303 26.7367 14.9764 26.3825Z" fill="#4461D7"/>
<path d="M45.1483 30.6481C45.1483 31.149 44.7428 31.5545 44.2418 31.5545C43.7419 31.5545 43.3359 31.149 43.3359 30.6481C43.3359 30.1481 43.7419 29.7422 44.2418 29.7422C44.7428 29.7422 45.1483 30.1481 45.1483 30.6481Z" fill="#4461D7"/>
<path d="M29.7422 10.7107C29.7422 11.2114 29.3362 11.6173 28.8357 11.6173C28.3353 11.6173 27.9293 11.2114 27.9293 10.7107C27.9293 10.2104 28.3353 9.80449 28.8357 9.80449C29.3362 9.80449 29.7422 10.2104 29.7422 10.7107Z" fill="#4461D7"/>
<path d="M34.2732 10.7107C34.2732 11.2114 33.8672 11.6173 33.3673 11.6173C32.8663 11.6173 32.4606 11.2114 32.4606 10.7107C32.4606 10.2104 32.8663 9.80449 33.3673 9.80449C33.8672 9.80449 34.2732 10.2104 34.2732 10.7107Z" fill="#4461D7"/>
<path d="M38.8049 10.7107C38.8049 11.2114 38.3989 11.6173 37.8982 11.6173C37.398 11.6173 36.992 11.2114 36.992 10.7107C36.992 10.2104 37.398 9.80449 37.8982 9.80449C38.3989 9.80449 38.8049 10.2104 38.8049 10.7107Z" fill="#4461D7"/>
<path d="M44.2418 26.117C43.7419 26.117 43.3359 26.5227 43.3359 27.0234V27.9293C43.3359 28.4303 43.7419 28.8357 44.2418 28.8357C44.7428 28.8357 45.1483 28.4303 45.1483 27.9293V27.0234C45.1483 26.5227 44.7428 26.117 44.2418 26.117Z" fill="#4461D7"/>
<path d="M37.8982 25.2111C37.8982 25.711 37.4925 26.117 36.992 26.117C36.4915 26.117 36.0856 25.711 36.0856 25.2111C36.0856 24.7101 36.4915 24.3044 36.992 24.3044C37.4925 24.3044 37.8982 24.7101 37.8982 25.2111Z" fill="#4461D7"/>
<path d="M36.992 23.3982C37.4925 23.3982 37.8982 22.9928 37.8982 22.4918V17.9607C37.8982 17.4603 37.4925 17.0543 36.992 17.0543C36.4915 17.0543 36.0856 17.4603 36.0856 17.9607V22.4918C36.0856 22.9928 36.4915 23.3982 36.992 23.3982Z" fill="#4461D7"/>
<path d="M21.5859 25.2111C21.5859 25.711 21.18 26.117 20.6795 26.117C20.179 26.117 19.7736 25.711 19.7736 25.2111C19.7736 24.7101 20.179 24.3044 20.6795 24.3044C21.18 24.3044 21.5859 24.7101 21.5859 25.2111Z" fill="#4461D7"/>
<path d="M20.6795 17.0543C20.179 17.0543 19.7736 17.4603 19.7736 17.9607V22.4918C19.7736 22.9928 20.179 23.3982 20.6795 23.3982C21.18 23.3982 21.5859 22.9928 21.5859 22.4918V17.9607C21.5859 17.4603 21.18 17.0543 20.6795 17.0543Z" fill="#4461D7"/>
<path d="M29.6039 17.4805C29.4276 17.2296 29.1406 17.0803 28.8339 17.0803C28.5273 17.0803 28.2397 17.2296 28.0637 17.4805L23.5321 24.7306C23.3569 25.0107 23.3484 25.3638 23.509 25.6518C23.6697 25.9402 23.9742 26.1183 24.3042 26.117H33.3671C33.6964 26.117 33.9996 25.9381 34.1591 25.65C34.319 25.3617 34.3099 25.0096 34.1352 24.7306L29.6039 17.4805ZM25.9352 24.3044L28.8355 19.6709L31.7359 24.3044H25.9352Z" fill="#4461D7"/>
</symbol>


<symbol id="BusinessIntelligence" viewBox="0 0 58 58">
<path d="M53.4688 2.71875H4.53125C3.81045 2.71959 3.11941 3.0063 2.60973 3.51598C2.10005 4.02566 1.81334 4.7167 1.8125 5.4375V52.5625C1.81334 53.2833 2.10005 53.9743 2.60973 54.484C3.11941 54.9937 3.81045 55.2804 4.53125 55.2812H53.4688C54.1895 55.2804 54.8806 54.9937 55.3903 54.484C55.9 53.9743 56.1867 53.2833 56.1875 52.5625V5.4375C56.1867 4.7167 55.9 4.02566 55.3903 3.51598C54.8806 3.0063 54.1895 2.71959 53.4688 2.71875ZM4.53125 4.53125H53.4688C53.709 4.53152 53.9394 4.62709 54.1093 4.79698C54.2792 4.96688 54.3747 5.19723 54.375 5.4375V9.96875H3.625V5.4375C3.62527 5.19723 3.72084 4.96688 3.89073 4.79698C4.06063 4.62709 4.29098 4.53152 4.53125 4.53125ZM53.4688 53.4688H4.53125C4.29098 53.4685 4.06063 53.3729 3.89073 53.203C3.72084 53.0331 3.62527 52.8028 3.625 52.5625V11.7812H54.375V52.5625C54.3747 52.8028 54.2792 53.0331 54.1093 53.203C53.9394 53.3729 53.709 53.4685 53.4688 53.4688Z" fill="#4461D7"/>
<path d="M13.5938 8.15625C14.0943 8.15625 14.5 7.75051 14.5 7.25C14.5 6.74949 14.0943 6.34375 13.5938 6.34375C13.0932 6.34375 12.6875 6.74949 12.6875 7.25C12.6875 7.75051 13.0932 8.15625 13.5938 8.15625Z" fill="#4461D7"/>
<path d="M9.96875 8.15625C10.4693 8.15625 10.875 7.75051 10.875 7.25C10.875 6.74949 10.4693 6.34375 9.96875 6.34375C9.46824 6.34375 9.0625 6.74949 9.0625 7.25C9.0625 7.75051 9.46824 8.15625 9.96875 8.15625Z" fill="#4461D7"/>
<path d="M6.34375 8.15625C6.84426 8.15625 7.25 7.75051 7.25 7.25C7.25 6.74949 6.84426 6.34375 6.34375 6.34375C5.84324 6.34375 5.4375 6.74949 5.4375 7.25C5.4375 7.75051 5.84324 8.15625 6.34375 8.15625Z" fill="#4461D7"/>
<path d="M49.8438 15.4062H8.15625C7.9159 15.4062 7.68539 15.5017 7.51543 15.6717C7.34548 15.8416 7.25 16.0721 7.25 16.3125V30.8125C7.25 31.0529 7.34548 31.2834 7.51543 31.4533C7.68539 31.6233 7.9159 31.7188 8.15625 31.7188H49.8438C50.0841 31.7188 50.3146 31.6233 50.4846 31.4533C50.6545 31.2834 50.75 31.0529 50.75 30.8125V16.3125C50.75 16.0721 50.6545 15.8416 50.4846 15.6717C50.3146 15.5017 50.0841 15.4062 49.8438 15.4062ZM48.9375 29.9062H46.2188V23.5625C46.2188 23.3221 46.1233 23.0916 45.9533 22.9217C45.7834 22.7517 45.5529 22.6562 45.3125 22.6562C45.0721 22.6562 44.8416 22.7517 44.6717 22.9217C44.5017 23.0916 44.4062 23.3221 44.4062 23.5625V29.9062H42.5938V27.1875C42.5938 26.9471 42.4983 26.7166 42.3283 26.5467C42.1584 26.3767 41.9279 26.2812 41.6875 26.2812C41.4471 26.2812 41.2166 26.3767 41.0467 26.5467C40.8767 26.7166 40.7812 26.9471 40.7812 27.1875V29.9062H38.9688V25.375C38.9688 25.1346 38.8733 24.9041 38.7033 24.7342C38.5334 24.5642 38.3029 24.4688 38.0625 24.4688C37.8221 24.4688 37.5916 24.5642 37.4217 24.7342C37.2517 24.9041 37.1562 25.1346 37.1562 25.375V29.9062H35.3438V27.1875C35.3438 26.9471 35.2483 26.7166 35.0783 26.5467C34.9084 26.3767 34.6779 26.2812 34.4375 26.2812C34.1971 26.2812 33.9666 26.3767 33.7967 26.5467C33.6267 26.7166 33.5312 26.9471 33.5312 27.1875V29.9062H31.7188V23.5625C31.7188 23.3221 31.6233 23.0916 31.4533 22.9217C31.2834 22.7517 31.0529 22.6562 30.8125 22.6562C30.5721 22.6562 30.3416 22.7517 30.1717 22.9217C30.0017 23.0916 29.9062 23.3221 29.9062 23.5625V29.9062H28.0938V21.75C28.0938 21.5096 27.9983 21.2791 27.8283 21.1092C27.6584 20.9392 27.4279 20.8438 27.1875 20.8438C26.9471 20.8438 26.7166 20.9392 26.5467 21.1092C26.3767 21.2791 26.2812 21.5096 26.2812 21.75V29.9062H24.4688V23.5625C24.4688 23.3221 24.3733 23.0916 24.2033 22.9217C24.0334 22.7517 23.8029 22.6562 23.5625 22.6562C23.3221 22.6562 23.0916 22.7517 22.9217 22.9217C22.7517 23.0916 22.6562 23.3221 22.6562 23.5625V29.9062H20.8438V25.375C20.8438 25.1346 20.7483 24.9041 20.5783 24.7342C20.4084 24.5642 20.1779 24.4688 19.9375 24.4688C19.6971 24.4688 19.4666 24.5642 19.2967 24.7342C19.1267 24.9041 19.0312 25.1346 19.0312 25.375V29.9062H17.2188V23.5625C17.2188 23.3221 17.1233 23.0916 16.9533 22.9217C16.7834 22.7517 16.5529 22.6562 16.3125 22.6562C16.0721 22.6562 15.8416 22.7517 15.6717 22.9217C15.5017 23.0916 15.4062 23.3221 15.4062 23.5625V29.9062H13.5938V27.1875C13.5938 26.9471 13.4983 26.7166 13.3283 26.5467C13.1584 26.3767 12.9279 26.2812 12.6875 26.2812C12.4471 26.2812 12.2166 26.3767 12.0467 26.5467C11.8767 26.7166 11.7812 26.9471 11.7812 27.1875V29.9062H9.0625V17.2188H48.9375V29.9062Z" fill="#4461D7"/>
<path d="M14.5 35.3438C13.0661 35.3438 11.6643 35.769 10.4721 36.5656C9.27983 37.3622 8.35058 38.4945 7.80185 39.8193C7.25311 41.1441 7.10954 42.6018 7.38928 44.0082C7.66902 45.4145 8.35952 46.7063 9.37345 47.7203C10.3874 48.7342 11.6792 49.4247 13.0856 49.7044C14.4919 49.9842 15.9497 49.8406 17.2744 49.2919C18.5992 48.7431 19.7315 47.8139 20.5281 46.6216C21.3248 45.4294 21.75 44.0277 21.75 42.5938C21.7478 40.6716 20.9833 38.8288 19.6241 37.4696C18.2649 36.1104 16.4221 35.3459 14.5 35.3438ZM19.8606 41.6875H18.0102C17.8471 41.061 17.5198 40.4895 17.062 40.0317C16.6043 39.574 16.0327 39.2466 15.4062 39.0835V37.2332C16.5185 37.4232 17.5443 37.9537 18.3422 38.7516C19.14 39.5494 19.6706 40.5753 19.8606 41.6875ZM14.5 40.7813C14.8585 40.7813 15.2089 40.8876 15.5069 41.0867C15.805 41.2859 16.0373 41.5689 16.1745 41.9001C16.3117 42.2313 16.3476 42.5958 16.2776 42.9474C16.2077 43.2989 16.0351 43.6219 15.7816 43.8754C15.5281 44.1289 15.2052 44.3015 14.8536 44.3714C14.502 44.4414 14.1375 44.4055 13.8064 44.2683C13.4752 44.1311 13.1921 43.8988 12.9929 43.6007C12.7938 43.3027 12.6875 42.9522 12.6875 42.5938C12.688 42.1132 12.8792 41.6525 13.219 41.3127C13.5588 40.973 14.0194 40.7818 14.5 40.7813ZM14.5 48.0313C13.1375 48.03 11.8251 47.5172 10.8226 46.5945C9.8201 45.6717 9.20056 44.4062 9.08661 43.0485C8.97266 41.6908 9.3726 40.3397 10.2073 39.2628C11.0419 38.1859 12.2505 37.4615 13.5937 37.2332V39.0835C12.975 39.2434 12.4094 39.564 11.9545 40.0128C11.4996 40.4616 11.1714 41.0228 11.0032 41.6393C10.835 42.2559 10.8329 42.906 10.9969 43.5236C11.1609 44.1413 11.4853 44.7046 11.9372 45.1565C12.3891 45.6084 12.9524 45.9328 13.5701 46.0969C14.1878 46.2609 14.8378 46.2587 15.4544 46.0905C16.0709 45.9223 16.6321 45.5941 17.0809 45.1392C17.5298 44.6843 17.8504 44.1188 18.0102 43.5H19.8606C19.6449 44.7662 18.9887 45.9154 18.0077 46.7446C17.0268 47.5737 15.7844 48.0295 14.5 48.0313Z" fill="#4461D7"/>
<path d="M40.7812 45.3125H44.4062C44.6466 45.3125 44.8771 45.217 45.0471 45.0471C45.217 44.8771 45.3125 44.6466 45.3125 44.4062C45.3125 44.1659 45.217 43.9354 45.0471 43.7654C44.8771 43.5955 44.6466 43.5 44.4062 43.5H40.7812C40.5409 43.5 40.3104 43.5955 40.1404 43.7654C39.9705 43.9354 39.875 44.1659 39.875 44.4062C39.875 44.6466 39.9705 44.8771 40.1404 45.0471C40.3104 45.217 40.5409 45.3125 40.7812 45.3125Z" fill="#4461D7"/>
<path d="M49.8438 47.125H40.7812C40.5409 47.125 40.3104 47.2205 40.1404 47.3904C39.9705 47.5604 39.875 47.7909 39.875 48.0312C39.875 48.2716 39.9705 48.5021 40.1404 48.6721C40.3104 48.842 40.5409 48.9375 40.7812 48.9375H49.8438C50.0841 48.9375 50.3146 48.842 50.4846 48.6721C50.6545 48.5021 50.75 48.2716 50.75 48.0312C50.75 47.7909 50.6545 47.5604 50.4846 47.3904C50.3146 47.2205 50.0841 47.125 49.8438 47.125Z" fill="#4461D7"/>
<path d="M40.7812 38.0625H44.4062C44.6466 38.0625 44.8771 37.967 45.0471 37.7971C45.217 37.6271 45.3125 37.3966 45.3125 37.1562C45.3125 36.9159 45.217 36.6854 45.0471 36.5154C44.8771 36.3455 44.6466 36.25 44.4062 36.25H40.7812C40.5409 36.25 40.3104 36.3455 40.1404 36.5154C39.9705 36.6854 39.875 36.9159 39.875 37.1562C39.875 37.3966 39.9705 37.6271 40.1404 37.7971C40.3104 37.967 40.5409 38.0625 40.7812 38.0625Z" fill="#4461D7"/>
<path d="M49.8438 39.875H40.7812C40.5409 39.875 40.3104 39.9705 40.1404 40.1404C39.9705 40.3104 39.875 40.5409 39.875 40.7812C39.875 41.0216 39.9705 41.2521 40.1404 41.4221C40.3104 41.592 40.5409 41.6875 40.7812 41.6875H49.8438C50.0841 41.6875 50.3146 41.592 50.4846 41.4221C50.6545 41.2521 50.75 41.0216 50.75 40.7812C50.75 40.5409 50.6545 40.3104 50.4846 40.1404C50.3146 39.9705 50.0841 39.875 49.8438 39.875Z" fill="#4461D7"/>
<path d="M26.2812 45.3125H29.9062C30.1466 45.3125 30.3771 45.217 30.5471 45.0471C30.717 44.8771 30.8125 44.6466 30.8125 44.4062C30.8125 44.1659 30.717 43.9354 30.5471 43.7654C30.3771 43.5955 30.1466 43.5 29.9062 43.5H26.2812C26.0409 43.5 25.8104 43.5955 25.6404 43.7654C25.4705 43.9354 25.375 44.1659 25.375 44.4062C25.375 44.6466 25.4705 44.8771 25.6404 45.0471C25.8104 45.217 26.0409 45.3125 26.2812 45.3125Z" fill="#4461D7"/>
<path d="M35.3438 47.125H26.2812C26.0409 47.125 25.8104 47.2205 25.6404 47.3904C25.4705 47.5604 25.375 47.7909 25.375 48.0312C25.375 48.2716 25.4705 48.5021 25.6404 48.6721C25.8104 48.842 26.0409 48.9375 26.2812 48.9375H35.3438C35.5841 48.9375 35.8146 48.842 35.9846 48.6721C36.1545 48.5021 36.25 48.2716 36.25 48.0312C36.25 47.7909 36.1545 47.5604 35.9846 47.3904C35.8146 47.2205 35.5841 47.125 35.3438 47.125Z" fill="#4461D7"/>
<path d="M26.2812 38.0625H29.9062C30.1466 38.0625 30.3771 37.967 30.5471 37.7971C30.717 37.6271 30.8125 37.3966 30.8125 37.1562C30.8125 36.9159 30.717 36.6854 30.5471 36.5154C30.3771 36.3455 30.1466 36.25 29.9062 36.25H26.2812C26.0409 36.25 25.8104 36.3455 25.6404 36.5154C25.4705 36.6854 25.375 36.9159 25.375 37.1562C25.375 37.3966 25.4705 37.6271 25.6404 37.7971C25.8104 37.967 26.0409 38.0625 26.2812 38.0625Z" fill="#4461D7"/>
<path d="M35.3438 39.875H26.2812C26.0409 39.875 25.8104 39.9705 25.6404 40.1404C25.4705 40.3104 25.375 40.5409 25.375 40.7812C25.375 41.0216 25.4705 41.2521 25.6404 41.4221C25.8104 41.592 26.0409 41.6875 26.2812 41.6875H35.3438C35.5841 41.6875 35.8146 41.592 35.9846 41.4221C36.1545 41.2521 36.25 41.0216 36.25 40.7812C36.25 40.5409 36.1545 40.3104 35.9846 40.1404C35.8146 39.9705 35.5841 39.875 35.3438 39.875Z" fill="#4461D7"/>
</symbol>

<symbol id="EmployeeProductivity" viewBox="0 0 58 58">
<path d="M53.661 1.99998H4.719C3.99813 2.00085 3.30703 2.29747 2.7973 2.82478C2.28757 3.35209 2.00084 4.06702 2 4.81274V53.5672C2.00084 54.3129 2.28757 55.0279 2.7973 55.5552C3.30703 56.0825 3.99813 56.3791 4.719 56.38H53.661C54.3819 56.3791 55.073 56.0825 55.5827 55.5552C56.0924 55.0279 56.3792 54.3129 56.38 53.5672V4.81274C56.3792 4.06702 56.0924 3.35209 55.5827 2.82478C55.073 2.29747 54.3819 2.00085 53.661 1.99998ZM4.719 3.87516H53.661C53.9013 3.87543 54.1317 3.97431 54.3016 4.15008C54.4715 4.32585 54.5671 4.56416 54.5673 4.81274V9.50067H3.81267V4.81274C3.81294 4.56416 3.90851 4.32585 4.07842 4.15008C4.24834 3.97431 4.47871 3.87543 4.719 3.87516ZM53.661 54.5048H4.719C4.47871 54.5045 4.24834 54.4057 4.07842 54.2299C3.90851 54.0541 3.81294 53.8158 3.81267 53.5672V11.3758H54.5673V53.5672C54.5671 53.8158 54.4715 54.0541 54.3016 54.2299C54.1317 54.4057 53.9013 54.5045 53.661 54.5048Z" fill="#4461D7"/>
<path d="M6.53167 7.43805C7.03222 7.43805 7.438 7.03227 7.438 6.53171C7.438 6.03116 7.03222 5.62538 6.53167 5.62538C6.03111 5.62538 5.62534 6.03116 5.62534 6.53171C5.62534 7.03227 6.03111 7.43805 6.53167 7.43805Z" fill="#4461D7"/>
<path d="M10.157 7.43805C10.6576 7.43805 11.0633 7.03227 11.0633 6.53171C11.0633 6.03116 10.6576 5.62538 10.157 5.62538C9.65645 5.62538 9.25067 6.03116 9.25067 6.53171C9.25067 7.03227 9.65645 7.43805 10.157 7.43805Z" fill="#4461D7"/>
<path d="M13.7823 7.43805C14.2829 7.43805 14.6886 7.03227 14.6886 6.53171C14.6886 6.03116 14.2829 5.62538 13.7823 5.62538C13.2818 5.62538 12.876 6.03116 12.876 6.53171C12.876 7.03227 13.2818 7.43805 13.7823 7.43805Z" fill="#4461D7"/>
<path d="M41.8787 12.8759H5.62534V20.1266H41.8787V12.8759ZM40.066 18.3139H7.438V14.6886H40.066V18.3139Z" fill="#4461D7"/>
<path d="M43.6913 20.1266H52.7547V12.8759H43.6913V20.1266ZM45.504 14.6886H50.942V18.3139H45.504V14.6886Z" fill="#4461D7"/>
<path d="M29.19 21.9392C20.6705 21.9392 13.7823 28.8273 13.7823 37.3469C13.7823 45.8664 20.6705 52.7545 29.19 52.7545C37.7095 52.7545 44.5977 45.8664 44.5977 37.3469C44.5977 28.8273 37.7095 21.9392 29.19 21.9392ZM29.19 50.9419C21.6674 50.9419 15.595 44.8694 15.595 37.3469C15.595 29.8243 21.6674 23.7519 29.19 23.7519C36.7126 23.7519 42.785 29.8243 42.785 37.3469C42.785 44.8694 36.7126 50.9419 29.19 50.9419Z" fill="#4461D7"/>
<path d="M29.1901 47.3166C24.5678 47.3166 20.7612 44.2351 19.5829 40.0659H17.6796C18.9485 45.232 23.5708 49.1293 29.0994 49.1293C34.6281 49.1293 39.341 45.232 40.5192 40.0659H38.7972C37.619 44.2351 33.8124 47.3166 29.1901 47.3166Z" fill="#4461D7"/>
<path d="M19.2203 36.4408H17.4077V38.2534H19.2203V36.4408Z" fill="#4461D7"/>
<path d="M20.3124 32.6869L18.6377 31.9932L17.944 33.6679L19.6187 34.3616L20.3124 32.6869Z" fill="#4461D7"/>
<path d="M22.7668 29.6315L21.485 28.3498L20.2033 29.6315L21.485 30.9133L22.7668 29.6315Z" fill="#4461D7"/>
<path d="M26.2152 27.7647L25.5215 26.09L23.8468 26.7837L24.5405 28.4584L26.2152 27.7647Z" fill="#4461D7"/>
<path d="M30.0963 25.5646H28.2837V27.3773H30.0963V25.5646Z" fill="#4461D7"/>
<path d="M34.5533 26.7984L32.8786 26.1047L32.1849 27.7794L33.8596 28.4731L34.5533 26.7984Z" fill="#4461D7"/>
<path d="M38.1946 29.6612L36.9128 28.3794L35.6311 29.6612L36.9128 30.9429L38.1946 29.6612Z" fill="#4461D7"/>
<path d="M38.723 34.4052L40.3977 33.7115L39.704 32.0368L38.0292 32.7305L38.723 34.4052Z" fill="#4461D7"/>
<path d="M40.9723 36.4408H39.1597V38.2534H40.9723V36.4408Z" fill="#4461D7"/>
<path d="M37.347 37.3469L28.2836 35.5342L26.471 37.3469L28.2836 39.1595L37.347 37.3469Z" fill="#4461D7"/>
</symbol>

<symbol id="PrivilegedUser" viewBox="0 0 58 58">
<path d="M26.571 15.9682H29.19C29.9347 15.9682 30.6034 15.5544 30.936 14.8892L31.0277 14.705L32.5895 15.4863L32.4978 15.6705C31.8675 16.9311 30.5999 17.7142 29.19 17.7142H26.571V15.9682ZM31.809 50.8887H26.571V52.6348H31.809V50.8887ZM31.809 47.3967H26.571V49.1427H31.809V47.3967ZM31.809 43.9046H26.571V45.6507H31.809V43.9046ZM56.2534 42.1586V54.3808C56.2534 55.3437 55.4703 56.1268 54.5074 56.1268H45.7773C44.8143 56.1268 44.0312 55.3437 44.0312 54.3808V42.1586C44.0312 41.1957 44.8143 40.4126 45.7773 40.4126H48.0349L41.7989 34.1767C38.1567 35.8293 34.1784 36.773 30.063 36.8909V40.4126H33.5551C34.518 40.4126 35.3011 41.1957 35.3011 42.1586V54.3808C35.3011 55.3437 34.518 56.1268 33.5551 56.1268H24.8249C23.862 56.1268 23.0789 55.3437 23.0789 54.3808V42.1586C23.0789 41.1957 23.862 40.4126 24.8249 40.4126H28.317V36.8909C24.2016 36.773 20.2233 35.8293 16.5811 34.1767L10.3451 40.4126H12.6027C13.5657 40.4126 14.3488 41.1957 14.3488 42.1586V54.3808C14.3488 55.3437 13.5657 56.1268 12.6027 56.1268H3.87261C2.90968 56.1268 2.12659 55.3437 2.12659 54.3808V42.1586C2.12659 41.1957 2.90968 40.4126 3.87261 40.4126H7.87625L14.9232 33.3656C9.77593 30.6436 5.41261 26.4741 2.48714 21.208L2 20.3333L2.48714 19.4585C6.43491 12.3531 13.1685 7.05475 20.9915 4.87221C22.2853 3.13317 24.3491 2 26.6783 2H31.7017C34.0309 2 36.0947 3.13317 37.3885 4.87221C45.2115 7.05475 51.9451 12.3522 55.8929 19.4585L56.38 20.3333L55.8929 21.208C52.9674 26.4741 48.6041 30.6436 43.4568 33.3656L50.5037 40.4126H54.5074C55.4703 40.4126 56.2534 41.1957 56.2534 42.1586ZM12.6027 42.1586H3.87261V54.3808H12.6045L12.6027 42.1586ZM33.5551 42.1586H24.8249V54.3808H33.5568L33.5551 42.1586ZM39.6679 7.47379C43.524 10.6088 45.7773 15.2838 45.7773 20.3333C45.7773 25.5137 43.3869 30.1433 39.6557 33.1875C45.8034 30.7859 51.059 26.3152 54.3668 20.3603L54.3808 20.3333L54.366 20.3062C51.1157 14.4553 45.8602 9.90514 39.6679 7.47379ZM23.0789 12.4762C22.116 12.4762 21.3329 13.2593 21.3329 14.2222C21.3329 15.1851 22.116 15.9682 23.0789 15.9682V12.4762ZM19.5869 9.09149C19.5869 9.06617 19.5903 9.04173 19.5903 9.01728C16.2781 11.8188 14.3488 15.9158 14.3488 20.3333C14.3488 24.0008 15.6923 27.3549 17.9046 29.9478C18.3315 25.9328 21.1129 22.5385 25.0161 21.3617L25.2693 20.6039C24.2086 19.9884 23.4194 18.9539 23.1671 17.7142H23.0789C21.153 17.7142 19.5869 16.1481 19.5869 14.2222C19.5869 13.5107 19.8034 12.8489 20.17 12.2963L19.799 10.8113C19.6584 10.2508 19.5869 9.67204 19.5869 9.09149ZM35.3011 15.9682C36.264 15.9682 37.0471 15.1851 37.0471 14.2222C37.0471 13.2593 36.264 12.4762 35.3011 12.4762V15.9682ZM33.1098 20.6039L33.363 21.3617C37.2671 22.5385 40.0477 25.9319 40.4746 29.9478C42.6877 27.3549 44.0312 24.0008 44.0312 20.3333C44.0312 15.915 42.1019 11.8179 38.7897 9.01641C38.7897 9.04173 38.7931 9.06617 38.7931 9.09149C38.7931 9.67204 38.7216 10.2508 38.581 10.8122L38.21 12.2963C38.5766 12.8489 38.7931 13.5107 38.7931 14.2222C38.7931 16.1481 37.227 17.7142 35.3011 17.7142H35.2129C34.9606 18.953 34.1714 19.9876 33.1098 20.6039ZM26.9263 21.1539L26.7656 21.6367L29.19 22.8493L31.6144 21.6376L31.4537 21.1548C31.2817 21.1749 31.1132 21.2063 30.936 21.2063H27.444C27.2668 21.2063 27.0983 21.1749 26.9263 21.1539ZM33.143 25.1794L33.8894 23.4229C33.5297 23.2605 33.1535 23.1261 32.7667 23.0134L31.0032 23.8952L33.143 25.1794ZM24.4906 23.4229L25.237 25.1794L27.3776 23.8952L25.6141 23.0134C25.2265 23.1252 24.8503 23.2596 24.4906 23.4229ZM19.5869 31.0242V31.6283C21.1434 32.9536 22.9741 33.9628 24.9838 34.5582L27.3811 27.3654L26.8713 26.234L24.4129 27.7085L22.9724 24.3151C20.8929 25.8533 19.5869 28.3091 19.5869 31.0242ZM29.499 26.4444L30.001 25.3295L29.19 24.8433L28.379 25.3295L28.881 26.4444H29.499ZM30.9989 27.3654L33.3962 34.5582C35.4059 33.9628 37.2366 32.9536 38.7931 31.6283V31.0242C38.7931 28.3091 37.4871 25.8533 35.4076 24.316L33.9671 27.7094L31.5087 26.2349L30.9989 27.3654ZM33.5551 12.3932L29.0861 11.9462C27.6675 11.8039 26.4522 11.0549 25.6866 9.96887C25.1523 10.2823 24.8249 10.8497 24.8249 11.4757V16.8412C24.8249 18.2852 26 19.4603 27.444 19.4603H30.936C32.38 19.4603 33.5551 18.2852 33.5551 16.8412V12.3932ZM29.19 35.1745C30.0421 35.1745 30.8732 35.0863 31.6859 34.9475L29.4344 28.1904H28.9456L26.6932 34.9475C27.5068 35.0863 28.3379 35.1745 29.19 35.1745ZM21.3329 9.09149C21.3329 9.52887 21.387 9.96537 21.4926 10.387L21.6559 11.0401C22.0915 10.8445 22.5708 10.7301 23.0789 10.7301H23.1662C23.3836 9.72617 24.0244 8.86189 24.9611 8.37649C24.8721 8.01157 24.8249 7.63006 24.8249 7.23808H26.571C26.571 8.77895 27.7268 10.0562 29.2598 10.2089L34.4735 10.7301H35.3011C35.8092 10.7301 36.2885 10.8445 36.725 11.0409L36.8882 10.3888C36.993 9.96537 37.0471 9.52887 37.0471 9.09149C37.0471 6.14419 34.649 3.74603 31.7017 3.74603H26.6783C23.731 3.74603 21.3329 6.14419 21.3329 9.09149ZM18.7243 33.1875C14.9931 30.1433 12.6027 25.5137 12.6027 20.3333C12.6027 15.2829 14.8569 10.6079 18.7147 7.47292C12.5207 9.90339 7.26427 14.4544 4.01317 20.3062L3.9992 20.3333L4.01404 20.3603C7.32189 26.3152 12.5766 30.7859 18.7243 33.1875ZM54.5091 54.3808L54.5074 42.1586H45.7773V54.3808H54.5091ZM10.8567 50.8887H5.61864V52.6348H10.8567V50.8887ZM10.8567 47.3967H5.61864V49.1427H10.8567V47.3967ZM10.8567 43.9046H5.61864V45.6507H10.8567V43.9046ZM49.134 49.519L48.1405 48.5255L46.9061 49.7599L49.4046 52.2585L53.4877 46.1343L52.035 45.1661L49.134 49.519Z" fill="#4461D7"/>
</symbol>

<symbol id="RemoteEmployee" viewBox="0 0 58 58">
<path d="M53.4715 7.51142C53.4715 6.62711 52.7521 5.90775 51.8678 5.90775H6.51092C5.62661 5.90775 4.90724 6.627 4.90724 7.51142V32.2701C4.90724 33.1352 5.6265 33.8389 6.51092 33.8389H51.8679C52.7522 33.8389 53.4717 33.1352 53.4717 32.2701L53.4715 7.51142ZM6.51092 32.2456C6.50667 32.2456 6.50327 32.2451 6.50051 32.2444C6.50614 6.39122 6.48904 7.50101 6.51092 7.50101H51.8679C51.873 7.50101 51.8783 7.50632 51.8783 7.51142L51.8784 32.2445C51.8676 32.2472 52.9215 32.2451 6.51092 32.2456Z" fill="#4461D7"/>
<path d="M28.8979 37.9201C27.6196 37.9201 26.5797 38.9601 26.5797 40.2383C26.5797 41.5166 27.6197 42.5565 28.8979 42.5565C30.1762 42.5565 31.2161 41.5165 31.2161 40.2383C31.2162 38.9601 30.1762 37.9201 28.8979 37.9201ZM28.8979 40.9634C28.4983 40.9634 28.1729 40.6381 28.1729 40.2384C28.1729 39.8386 28.4983 39.5135 28.8979 39.5135C29.2976 39.5135 29.6228 39.8387 29.6228 40.2384C29.6228 40.638 29.2977 40.9634 28.8979 40.9634Z" fill="#4461D7"/>
<path d="M47.2718 13.2274H32.0151C31.5751 13.2274 31.2185 13.584 31.2185 14.024C31.2185 14.464 31.5751 14.8206 32.0151 14.8206H47.2718C47.7119 14.8206 48.0684 14.464 48.0684 14.024C48.0684 13.584 47.7118 13.2274 47.2718 13.2274Z" fill="#4461D7"/>
<path d="M47.2718 16.2268H32.0151C31.5751 16.2268 31.2185 16.5833 31.2185 17.0234C31.2185 17.4634 31.5751 17.8199 32.0151 17.8199H47.2718C47.7119 17.8199 48.0684 17.4634 48.0684 17.0234C48.0684 16.5833 47.7118 16.2268 47.2718 16.2268Z" fill="#4461D7"/>
<path d="M47.2722 19.2259H28.4925C28.0524 19.2259 27.6959 19.5824 27.6959 20.0225C27.6959 20.4625 28.0524 20.8191 28.4925 20.8191H47.2722C47.7122 20.8191 48.0688 20.4625 48.0688 20.0225C48.0688 19.5824 47.7121 19.2259 47.2722 19.2259Z" fill="#4461D7"/>
<path d="M47.2722 22.2779H28.4925C28.0524 22.2779 27.6959 22.6345 27.6959 23.0745C27.6959 23.5145 28.0524 23.8711 28.4925 23.8711H47.2722C47.7122 23.8711 48.0688 23.5145 48.0688 23.0745C48.0688 22.6345 47.7121 22.2779 47.2722 22.2779Z" fill="#4461D7"/>
<path d="M47.2722 25.2664H28.4925C28.0524 25.2664 27.6959 25.623 27.6959 26.063C27.6959 26.503 28.0524 26.8596 28.4925 26.8596H47.2722C47.7122 26.8596 48.0688 26.503 48.0688 26.063C48.0688 25.623 47.7121 25.2664 47.2722 25.2664Z" fill="#4461D7"/>
<path d="M16.8882 15.7889C15.3111 15.7889 14.0281 17.072 14.0281 18.6491C14.0281 20.2263 15.3111 21.5093 16.8882 21.5093C18.4652 21.5093 19.7483 20.2263 19.7483 18.6491C19.7483 17.0719 18.4652 15.7889 16.8882 15.7889ZM16.8882 19.916C16.1898 19.916 15.6213 19.3477 15.6213 18.6491C15.6213 17.9505 16.1897 17.3821 16.8882 17.3821C17.5868 17.3821 18.155 17.9505 18.155 18.6491C18.155 19.3477 17.5868 19.916 16.8882 19.916Z" fill="#4461D7"/>
<path d="M20.926 28.6665H12.8519C12.4118 28.6665 12.0553 29.0231 12.0553 29.4631C12.0553 29.9031 12.4118 30.2597 12.8519 30.2597H20.926C21.366 30.2597 21.7226 29.9031 21.7226 29.4631C21.7226 29.0231 21.3659 28.6665 20.926 28.6665Z" fill="#4461D7"/>
<path d="M24.3688 9.48682C22.3033 9.48682 20.5394 10.8016 19.8692 12.6381H16.6842C16.2442 12.6381 15.8877 12.9946 15.8877 13.4347C15.8877 13.8747 16.2442 14.2312 16.6842 14.2312H19.581C19.5671 16.1788 20.69 17.8745 22.3981 18.6403V25.8553H20.8728V23.8312C20.8728 22.7116 19.9619 21.8009 18.8425 21.8009H14.9356C13.816 21.8009 12.9053 22.7118 12.9053 23.8312V25.8553H11.3799V14.2314H12.9667C13.4067 14.2314 13.7632 13.8748 13.7632 13.4348C13.7632 12.9947 13.4067 12.6382 12.9667 12.6382H11.2542C10.445 12.6382 9.7865 13.2966 9.7865 14.1059V25.9829C9.78767 26.791 10.4461 27.4486 11.2542 27.4486C20.7762 27.4743 20.6276 27.4492 22.5235 27.4486C23.3327 27.4486 23.9912 26.7902 23.9912 25.9809V19.0466C26.8114 19.2683 29.1566 17.0276 29.1566 14.2749C29.1567 11.6347 27.0088 9.48682 24.3688 9.48682ZM14.4983 25.8552V23.8311C14.4983 23.59 14.6944 23.394 14.9354 23.394H18.8422C19.0833 23.394 19.2793 23.5901 19.2793 23.8311V25.8552H14.4983ZM23.0409 17.1792C21.7579 16.5904 20.9804 15.2103 21.2166 13.7578C21.4645 12.2391 22.7854 11.08 24.3688 11.08C26.1303 11.08 27.5634 12.5131 27.5634 14.2747C27.5634 16.5789 25.1782 18.149 23.0409 17.1792Z" fill="#4461D7"/>
<path d="M26.15 12.7368C25.8182 12.448 25.3151 12.4827 25.0261 12.8146L24.0195 13.9712L23.8564 13.7685C23.5803 13.4258 23.079 13.3716 22.7362 13.6474C22.3934 13.9233 22.3394 14.4248 22.6151 14.7676C23.2546 15.4677 23.3925 15.9972 23.9804 16.0087C24.2114 16.0134 24.4391 15.9159 24.5965 15.7352L26.2277 13.8609C26.5167 13.5287 26.4818 13.0256 26.15 12.7368Z" fill="#4461D7"/>
<path d="M55.5833 25.4675C56.0233 25.4675 56.3799 25.111 56.3799 24.6709V6.16391C56.3799 4.41929 54.9606 3 53.216 3H5.16391C3.41929 2.99989 2 4.41929 2 6.16391V35.95V42.2128C2 43.9574 3.41929 45.3768 5.16391 45.3768H8.7242C9.16423 45.3768 9.52078 45.0203 9.52078 44.5802C9.52078 44.1402 9.16423 43.7837 8.7242 43.7837H5.16391C4.29787 43.7837 3.59327 43.0791 3.59327 42.2129V36.7468H54.7866V42.2129C54.7866 43.0789 54.082 43.7837 53.216 43.7837C51.1252 43.7837 14.5011 43.7837 12.4418 43.7837C12.0018 43.7837 11.6452 44.1402 11.6452 44.5802C11.6452 45.0203 12.0018 45.3768 12.4418 45.3768H22.7914L22.3904 51.378H21.5585C20.3175 51.378 19.308 52.3877 19.308 53.6285C19.308 54.8694 20.3176 55.879 21.5585 55.879H36.8214C38.0624 55.879 39.0719 54.8694 39.0719 53.6285C39.0719 52.3877 38.0623 51.378 36.8214 51.378H35.9896L35.5886 45.3768H53.2161C54.9607 45.3768 56.38 43.9574 56.38 42.2128V35.95V28.3885C56.38 27.9485 56.0235 27.5919 55.5834 27.5919C55.1434 27.5919 54.7868 27.9485 54.7868 28.3885V35.1533H3.59327V6.16391C3.59327 5.29787 4.29787 4.59327 5.16391 4.59327H53.216C54.082 4.59327 54.7866 5.29787 54.7866 6.16391V24.6709C54.7866 25.1108 55.1432 25.4675 55.5833 25.4675ZM24.3882 45.3767H33.9916L34.3926 51.3779H23.987L24.3882 45.3767ZM36.8214 52.9712C37.1838 52.9712 37.4786 53.2659 37.4786 53.6284C37.4786 53.9909 37.1839 54.2857 36.8214 54.2857H21.5585C21.1961 54.2857 20.9013 53.9909 20.9013 53.6284C20.9013 53.2659 21.196 52.9712 21.5585 52.9712H23.1356C25.2135 52.9712 35.1776 52.9712 36.8214 52.9712Z" fill="#4461D7"/>
</symbol>

<symbol id="StudentsTime" viewBox="0 0 46 55">
<path d="M14.2511 10.526L14.6247 11.0049L14.7975 11.2128L14.2511 10.526Z" fill="#4461D7"/>
<path d="M40.6736 37.7634L28.0671 35.2417V33.6595C30.7449 32.1053 32.6701 29.4091 33.1823 26.2383C35.2523 25.8893 36.8381 24.0956 36.8381 21.9274V12.3872C36.8381 9.99452 35.3067 7.90089 33.0657 7.15886L33.0244 7.07729C30.8422 2.71198 26.455 0 21.5739 0C14.5142 0 8.77097 5.74323 8.77097 12.803V21.9274C8.77097 24.0956 10.3568 25.8893 12.4267 26.2392C12.9389 29.4091 14.865 32.1052 17.5419 33.6603V35.2426L4.93542 37.7643C2.07521 38.3353 0 40.8674 0 43.7838V54.38H45.609V43.7838C45.609 40.8674 43.5338 38.3353 40.6736 37.7634ZM28.831 37.1836L27.518 42.4348L24.1807 40.2105L27.4777 36.9135L28.831 37.1836ZM20.9091 50.2875L25.0025 51.6522L25.2192 52.6258H20.3899L20.9091 50.2875ZM21.2924 48.5657L21.7538 46.4861H23.8544L24.5587 49.6551L21.2924 48.5657ZM23.8737 44.7319H21.7353L21.174 42.4874L22.8045 41.4007L24.435 42.4883L23.8737 44.7319ZM33.3297 24.3973V19.4584C34.348 19.8215 35.0839 20.7863 35.0839 21.9283C35.0839 23.0703 34.348 24.0342 33.3297 24.3973ZM10.5252 21.9274C10.5252 20.7846 11.2619 19.8198 12.282 19.4566L12.2794 24.3973C11.261 24.0342 10.5252 23.0694 10.5252 21.9274ZM12.2794 12.767V12.9495C12.2794 13.0187 12.2811 13.088 12.2855 13.1565L12.2829 17.6305C11.6294 17.763 11.0383 18.0533 10.5252 18.4418V12.803C10.5252 6.71067 15.4808 1.75419 21.5739 1.75419C25.7866 1.75419 29.5722 4.09429 31.4562 7.8623L31.8491 8.6473L32.2403 8.74553C33.9147 9.16391 35.0839 10.6611 35.0839 12.3872V18.4418C34.5716 18.0542 33.9814 17.7638 33.3297 17.6314V16.6648C33.3297 15.3448 32.8938 14.0362 32.1017 12.981C30.9484 11.4435 29.1117 10.5252 27.19 10.5252C25.9077 10.5252 24.6227 10.8286 23.4746 11.4023L16.8727 14.7037C16.6017 14.8387 16.2991 14.9106 15.9956 14.9106C14.9133 14.9106 14.0335 14.0309 14.0335 12.9495V12.767C14.0335 12.168 14.3019 11.6101 14.7905 11.2181L14.6238 11.0049L13.6731 9.86558C12.7872 10.5743 12.2794 11.6321 12.2794 12.767ZM14.0335 24.5587V16.1035C15.058 16.7429 16.4999 16.8508 17.6568 16.2728L24.2587 12.9714C25.1648 12.5188 26.1787 12.2794 27.19 12.2794C28.5627 12.2794 29.8748 12.9354 30.6984 14.0335C31.2641 14.787 31.5755 15.722 31.5755 16.6648V24.5587C31.5755 29.395 27.6408 33.3297 22.8045 33.3297C17.9682 33.3297 14.0335 29.395 14.0335 24.5587ZM22.8045 35.0839C24.036 35.0839 25.2139 34.8602 26.3129 34.4699V35.5978L22.8045 39.1062L19.2961 35.5978V34.4699C20.3951 34.8602 21.5731 35.0839 22.8045 35.0839ZM18.1305 36.9135L21.4275 40.2105L18.0901 42.4348L16.7771 37.1836L18.1305 36.9135ZM1.75419 43.7838C1.75419 41.7007 3.23649 39.8912 5.28012 39.4834L15.0571 37.5283L16.9937 45.2757L19.625 43.5215L20.1495 45.6213L18.5927 52.6258H10.5252V43.8548H8.77097V52.6258H1.75419V43.7838ZM43.8548 52.6258H36.8381V43.8548H35.0839V52.6258H27.0163L25.4595 45.6204L25.984 43.5207L28.6153 45.2749L30.5519 37.5275L40.3289 39.4825C42.3725 39.8912 43.8548 41.7007 43.8548 43.7838V52.6258Z" fill="#4461D7"/>
</symbol>

<symbol id="UserActivity" viewBox="0 0 55 55">
<path d="M54.38 18.1267V0.906333C54.38 0.405131 53.9749 0 53.4737 0H0.906333C0.405131 0 0 0.405131 0 0.906333V53.4737C0 53.9749 0.405131 54.38 0.906333 54.38H35.347H37.1597H44.4103H46.223H53.4737C53.9749 54.38 54.38 53.9749 54.38 53.4737V38.066H52.5673V52.5673H46.223V50.7547H49.8483C50.3495 50.7547 50.7547 50.3495 50.7547 49.8483V42.5977H48.942V48.942H46.223V46.223C46.223 45.7218 45.8179 45.3167 45.3167 45.3167H44.4103V41.4928C50.229 39.8723 54.38 34.3555 54.38 28.0963C54.38 20.6 48.2813 14.5013 40.785 14.5013C33.2887 14.5013 27.19 20.6 27.19 28.0963C27.19 28.4009 27.2081 28.7018 27.2272 29.0027H18.5019L12.4231 22.9239C12.2536 22.7535 12.0234 22.6583 11.7823 22.6583H5.438V12.6887H48.942V14.5013H50.7547V11.7823C50.7547 11.2811 50.3495 10.876 49.8483 10.876H4.53167C4.03046 10.876 3.62533 11.2811 3.62533 11.7823V49.8483C3.62533 50.3495 4.03046 50.7547 4.53167 50.7547H35.347V52.5673H1.81267V9.06333H52.5673V18.1267H54.38ZM38.066 47.1293H43.504H44.4103V48.942H37.1597V47.1293H38.066ZM40.785 16.314C47.2816 16.314 52.5673 21.5997 52.5673 28.0963C52.5673 33.6712 48.5876 38.7458 43.31 39.8995C42.894 39.9901 42.5977 40.359 42.5977 40.785V45.3167H38.9723V40.785C38.9723 40.359 38.676 39.9901 38.26 39.8995C32.9824 38.7458 29.0027 33.6712 29.0027 28.0963C29.0027 21.5997 34.2884 16.314 40.785 16.314ZM29.909 36.4119V48.942H25.3773V30.8153H27.4655C27.8688 32.8664 28.7126 34.7742 29.909 36.4119ZM12.6887 25.7526L17.2203 30.2842V48.942H12.6887V25.7526ZM19.033 30.8153H23.5647V48.942H19.033V30.8153ZM5.438 24.471H10.876V48.942H5.438V24.471ZM31.7217 48.942V38.4376C33.2534 39.8488 35.0987 40.9191 37.1597 41.4928V45.3167H36.2533C35.7521 45.3167 35.347 45.7218 35.347 46.223V48.942H31.7217ZM37.1597 50.7547H44.4103V52.5673H37.1597V50.7547ZM1.81267 7.25067V1.81267H52.5673V7.25067H1.81267Z" fill="#4461D7"/>
<path d="M7.2507 3.62537H3.62537V5.43803H7.2507V3.62537Z" fill="#4461D7"/>
<path d="M12.6886 3.62537H9.06329V5.43803H12.6886V3.62537Z" fill="#4461D7"/>
<path d="M50.7547 3.62537H47.1293V5.43803H50.7547V3.62537Z" fill="#4461D7"/>
<path d="M40.785 38.0661C46.2819 38.0661 50.7546 33.5933 50.7546 28.0964C50.7546 22.5995 46.2819 18.1268 40.785 18.1268C35.2881 18.1268 30.8153 22.5995 30.8153 28.0964C30.8153 33.5933 35.2881 38.0661 40.785 38.0661ZM40.785 36.2534C39.0938 36.2534 37.5222 35.7359 36.218 34.8513L41.1602 29.9091H48.7317C47.9042 33.5362 44.6595 36.2534 40.785 36.2534ZM48.942 28.0964H41.6913V19.9929C45.7635 20.4452 48.942 23.9046 48.942 28.0964ZM39.8786 19.9929V28.6275L34.8412 33.6649C33.4727 32.2058 32.628 30.2499 32.628 28.0964C32.628 23.9046 35.8065 20.4452 39.8786 19.9929Z" fill="#4461D7"/>
<path d="M9.06334 14.5013H7.25067V16.314H9.06334V14.5013Z" fill="#4461D7"/>
<path d="M12.6887 14.5013H10.876V16.314H12.6887V14.5013Z" fill="#4461D7"/>
<path d="M18.1267 18.1268H7.25067V19.9394H18.1267V18.1268Z" fill="#4461D7"/>
</symbol>

<symbol id="EmployeeTime" viewBox="0 0 55 55">
<path d="M51.661 0H2.719C1.99813 0.000868492 1.30703 0.297491 0.797304 0.824797C0.287574 1.3521 0.000839542 2.06704 0 2.81276V51.5672C0.000839542 52.313 0.287574 53.0279 0.797304 53.5552C1.30703 54.0825 1.99813 54.3791 2.719 54.38H51.661C52.3819 54.3791 53.073 54.0825 53.5827 53.5552C54.0924 53.0279 54.3792 52.313 54.38 51.5672V2.81276C54.3792 2.06704 54.0924 1.3521 53.5827 0.824797C53.073 0.297491 52.3819 0.000868492 51.661 0ZM2.719 1.87517H51.661C51.9013 1.87545 52.1317 1.97432 52.3016 2.15009C52.4715 2.32586 52.5671 2.56418 52.5673 2.81276V7.50069H1.81267V2.81276C1.81294 2.56418 1.90851 2.32586 2.07842 2.15009C2.24834 1.97432 2.47871 1.87545 2.719 1.87517ZM51.661 52.5048H2.719C2.47871 52.5046 2.24834 52.4057 2.07842 52.2299C1.90851 52.0541 1.81294 51.8158 1.81267 51.5672V9.37586H52.5673V51.5672C52.5671 51.8158 52.4715 52.0541 52.3016 52.2299C52.1317 52.4057 51.9013 52.5046 51.661 52.5048Z" fill="#4461D7"/>
<path d="M3.90633 5.81267C4.40689 5.81267 4.81267 5.40689 4.81267 4.90633C4.81267 4.40578 4.40689 4 3.90633 4C3.40578 4 3 4.40578 3 4.90633C3 5.40689 3.40578 5.81267 3.90633 5.81267Z" fill="#4461D7"/>
<path d="M7.53167 5.81267C8.03222 5.81267 8.438 5.40689 8.438 4.90633C8.438 4.40578 8.03222 4 7.53167 4C7.03111 4 6.62534 4.40578 6.62534 4.90633C6.62534 5.40689 7.03111 5.81267 7.53167 5.81267Z" fill="#4461D7"/>
<path d="M11.157 5.81267C11.6575 5.81267 12.0633 5.40689 12.0633 4.90633C12.0633 4.40578 11.6575 4 11.157 4C10.6564 4 10.2506 4.40578 10.2506 4.90633C10.2506 5.40689 10.6564 5.81267 11.157 5.81267Z" fill="#4461D7"/>
<path d="M50.8689 12.7893H3.51115V47.8687H50.8796V12.7893H50.8689ZM49.1133 46.1131H5.26673V14.5342H49.124V46.1131H49.1133Z" fill="#4461D7"/>
<path d="M25.4344 17.1782H7.88937V43.4904H25.4344V17.1782ZM23.6788 41.7349H9.64495V18.9338H23.6788V41.7349Z" fill="#4461D7"/>
<path d="M46.4906 17.1782H28.9456V24.1898H46.4906V17.1782ZM44.735 22.4342H30.7011V18.9231H44.735V22.4342Z" fill="#4461D7"/>
<path d="M46.4906 27.7012H28.9456V43.4906H46.4906V27.7012ZM44.735 41.7351H30.7011V29.4567H44.735V41.7351Z" fill="#4461D7"/>
</symbol>
</defs>
</svg>