<svg width="60" height="60" viewBox="0 0 60 60" fill="none" xmlns="http://www.w3.org/2000/svg">
<path d="M59.1203 9.10064H50.9318V0.920771C50.9318 0.406852 50.5031 0 50.01 0H0.90031C0.407283 0 0 0.406852 0 0.920771V54.5182C0 57.5375 2.4437 60 5.44473 60H54.5545C57.5555 60 59.9992 57.5375 59.9992 54.5182V10.0214C60.0206 9.52891 59.6133 9.10064 59.1203 9.10064ZM5.44473 58.1585C3.45119 58.1585 1.82205 56.5311 1.82205 54.5182V1.84154H49.1097V10.0214V54.5182C49.1097 54.8608 49.1312 55.2034 49.1955 55.4818C49.2169 55.5032 49.2169 55.546 49.2169 55.5675C49.2812 55.8672 49.367 56.167 49.4741 56.424C49.4956 56.4668 49.4956 56.5096 49.517 56.531C49.6242 56.8094 49.7528 57.0664 49.9029 57.3233C49.9243 57.3448 49.9457 57.409 49.9672 57.4304C50.1172 57.666 50.2887 57.9229 50.4602 58.0942C50.4816 58.1156 50.4816 58.1585 50.4816 58.1585H5.44473V58.1585ZM58.22 54.5182C58.22 56.5525 56.5909 58.1585 54.5759 58.1585C52.5824 58.1585 50.9532 56.5311 50.9532 54.5182V10.9208H58.22V54.5182ZM43.665 6.38116H28.1883C27.6952 6.38116 27.2879 6.78801 27.2879 7.30193V17.8158C27.2879 18.3298 27.6952 18.7366 28.1883 18.7366H43.665C44.158 18.7366 44.5653 18.3298 44.5653 17.8158V7.28051C44.5653 6.76659 44.158 6.38116 43.665 6.38116ZM42.7433 16.8951H29.11V8.17987H42.7433V16.8951ZM44.5653 23.2548C44.5653 23.7687 44.158 24.1756 43.665 24.1756H28.1883C27.6952 24.1756 27.2879 23.7687 27.2879 23.2548C27.2879 22.7409 27.6952 22.3555 28.1883 22.3555H43.665C44.158 22.3769 44.5653 22.7409 44.5653 23.2548ZM6.36647 28.7366C6.36647 28.2227 6.77376 27.7944 7.26678 27.7944H22.5077C23.0008 27.7944 23.408 28.2227 23.408 28.7366C23.408 29.2291 23.0008 29.636 22.5077 29.636H7.26678C6.77376 29.6146 6.36647 29.2077 6.36647 28.7366ZM44.5653 45.0749C44.5653 45.5675 44.158 45.9957 43.665 45.9957H28.1883C27.6952 45.9957 27.2879 45.5675 27.2879 45.0749C27.2879 44.561 27.6952 44.1542 28.1883 44.1542H43.665C44.158 44.1542 44.5653 44.561 44.5653 45.0749ZM44.5653 39.636C44.5653 40.1285 44.158 40.5353 43.665 40.5353H28.1883C27.6952 40.5353 27.2879 40.1285 27.2879 39.636C27.2879 39.1221 27.6952 38.7152 28.1883 38.7152H43.665C44.158 38.7152 44.5653 39.1221 44.5653 39.636ZM23.6438 34.1542C23.6438 34.6681 23.2151 35.0749 22.7221 35.0749H7.26678C6.77376 35.0749 6.36647 34.6681 6.36647 34.1542C6.36647 33.6617 6.77376 33.2548 7.26678 33.2548H22.7221C23.2366 33.2548 23.6438 33.6617 23.6438 34.1542ZM23.6438 50.5353C23.6438 51.0278 23.2151 51.4561 22.7221 51.4561H7.26678C6.77376 51.4561 6.36647 51.0278 6.36647 50.5353C6.36647 50.0214 6.77376 49.6146 7.26678 49.6146H22.7221C23.2366 49.6146 23.6438 50.0214 23.6438 50.5353ZM38.8205 50.5353C38.8205 51.0278 38.4132 51.4561 37.8987 51.4561H28.1883C27.6952 51.4561 27.2879 51.0278 27.2879 50.5353C27.2879 50.0214 27.6952 49.6146 28.1883 49.6146H37.8987C38.3918 49.6146 38.8205 50.0214 38.8205 50.5353ZM22.7435 38.7152H7.26678C6.77376 38.7152 6.36647 39.1221 6.36647 39.636V45.0749C6.36647 45.5675 6.77376 45.9957 7.26678 45.9957H22.7221C23.2151 45.9957 23.6438 45.5675 23.6438 45.0749V39.636C23.6438 39.1221 23.2366 38.7152 22.7435 38.7152ZM21.8218 44.1542H8.18853V40.5139H21.8432V44.1542H21.8218ZM43.665 27.7944H28.1883C27.6952 27.7944 27.2879 28.2227 27.2879 28.7366V34.1542C27.2879 34.6681 27.6952 35.0749 28.1883 35.0749H43.665C44.158 35.0749 44.5653 34.6681 44.5653 34.1542V28.7366C44.5653 28.2227 44.158 27.7944 43.665 27.7944ZM42.7433 33.2548H29.11V29.6146H42.7433V33.2548ZM15.2195 6.38116C10.3321 6.38116 6.36647 10.3426 6.36647 15.2463C6.36647 20.1285 10.3321 24.0899 15.2195 24.0899C20.1283 24.0899 24.094 20.1285 24.094 15.2463C24.1154 10.3426 20.1283 6.38116 15.2195 6.38116ZM15.2195 22.2912C11.3396 22.2912 8.16709 19.1435 8.16709 15.2463C8.16709 11.3704 11.3182 8.17987 15.2195 8.17987C19.0994 8.17987 22.2719 11.3704 22.2719 15.2463C22.2934 19.1221 19.1209 22.2912 15.2195 22.2912ZM19.8068 15.2463C19.8068 15.7388 19.3995 16.1456 18.9065 16.1456H16.1413V18.9293C16.1413 19.4218 15.734 19.8287 15.2195 19.8287C14.7265 19.8287 14.3192 19.4218 14.3192 18.9293V16.1456H11.5754C11.0824 16.1456 10.6751 15.7388 10.6751 15.2463C10.6751 14.7323 11.0824 14.3255 11.5754 14.3255H14.3406V11.5846C14.3406 11.0921 14.7479 10.6638 15.241 10.6638C15.7554 10.6638 16.1627 11.0921 16.1627 11.5846V14.3255H18.9065C19.3995 14.3255 19.8068 14.7323 19.8068 15.2463Z" fill="white"/>
</svg>
