<svg width="60" height="60" viewBox="0 0 60 60" fill="none" xmlns="http://www.w3.org/2000/svg">
<path d="M30 0C13.4545 0 0 13.4545 0 30C0 46.5455 13.4545 60 30 60C46.5455 60 60 46.5455 60 30C60 13.4545 46.5455 0 30 0ZM30 58.1818C14.4636 58.1818 1.81818 45.5364 1.81818 30C1.81818 14.4636 14.4636 1.81818 30 1.81818C45.5364 1.81818 58.1818 14.4636 58.1818 30C58.1818 45.5364 45.5364 58.1818 30 58.1818Z" fill="white"/>
<path d="M32.8992 31.3091C33.0719 30.9091 33.181 30.4637 33.181 30C33.181 28.5637 32.2174 27.3546 30.9083 26.9637V13.2091C30.9083 12.7091 30.4992 12.3 29.9992 12.3C29.4992 12.3 29.0901 12.7091 29.0901 13.2091V26.9728C27.781 27.3637 26.8174 28.5637 26.8174 30.0091C26.8174 31.7637 28.2447 33.191 29.9992 33.191C30.6265 33.191 31.1992 33 31.6901 32.691L37.0537 38.5C37.2356 38.691 37.4719 38.791 37.7174 38.791C37.9356 38.791 38.1628 38.7091 38.3356 38.5455C38.7083 38.2091 38.7265 37.6273 38.3901 37.2637L32.8992 31.3091Z" fill="white"/>
<path d="M29.9999 7.16369C30.4999 7.16369 30.909 6.7546 30.909 6.2546V4.0546C30.909 3.5546 30.4999 3.14551 29.9999 3.14551C29.4999 3.14551 29.0908 3.5546 29.0908 4.0546V6.2546C29.0908 6.7546 29.4999 7.16369 29.9999 7.16369Z" fill="white"/>
<path d="M12.5633 13.8454C12.7451 14.0273 12.9724 14.1091 13.2088 14.1091C13.4451 14.1091 13.6724 14.0182 13.8542 13.8454C14.2088 13.4909 14.2088 12.9182 13.8542 12.5636L12.2997 11.0091C11.9451 10.6545 11.3724 10.6545 11.0179 11.0091C10.6633 11.3636 10.6633 11.9363 11.0179 12.2909L12.5633 13.8454Z" fill="white"/>
<path d="M6.2546 29.0908H4.0546C3.5546 29.0908 3.14551 29.4999 3.14551 29.9999C3.14551 30.4999 3.5546 30.909 4.0546 30.909H6.2546C6.7546 30.909 7.16369 30.4999 7.16369 29.9999C7.16369 29.4999 6.7546 29.0908 6.2546 29.0908Z" fill="white"/>
<path d="M12.5636 46.1546L11.0091 47.7091C10.6545 48.0637 10.6545 48.6364 11.0091 48.9909C11.1909 49.1728 11.4182 49.2546 11.6545 49.2546C11.8909 49.2546 12.1182 49.1637 12.3 48.9909L13.8545 47.4364C14.2091 47.0819 14.2091 46.5091 13.8545 46.1546C13.4909 45.8 12.9182 45.8 12.5636 46.1546Z" fill="white"/>
<path d="M29.9999 52.8364C29.4999 52.8364 29.0908 53.2455 29.0908 53.7455V55.9455C29.0908 56.4455 29.4999 56.8546 29.9999 56.8546C30.4999 56.8546 30.909 56.4455 30.909 55.9455V53.7455C30.909 53.2455 30.4999 52.8364 29.9999 52.8364Z" fill="white"/>
<path d="M47.4364 46.1546C47.0819 45.8 46.5091 45.8 46.1546 46.1546C45.8 46.5091 45.8 47.0819 46.1546 47.4364L47.7091 48.9909C47.891 49.1728 48.1182 49.2546 48.3546 49.2546C48.5909 49.2546 48.8182 49.1637 49 48.9909C49.3546 48.6364 49.3546 48.0637 49 47.7091L47.4364 46.1546Z" fill="white"/>
<path d="M55.945 29.0908H53.745C53.245 29.0908 52.8359 29.4999 52.8359 29.9999C52.8359 30.4999 53.245 30.909 53.745 30.909H55.945C56.445 30.909 56.8541 30.4999 56.8541 29.9999C56.8541 29.4999 56.445 29.0908 55.945 29.0908Z" fill="white"/>
<path d="M47.7003 11.0091L46.1458 12.5636C45.7912 12.9182 45.7912 13.4909 46.1458 13.8454C46.3276 14.0182 46.5549 14.1091 46.7912 14.1091C47.0276 14.1091 47.2549 14.0182 47.4367 13.8454L48.9912 12.2909C49.3458 11.9363 49.3458 11.3636 48.9912 11.0091C48.6367 10.6545 48.064 10.6545 47.7003 11.0091Z" fill="white"/>
</svg>
