<svg width="77" height="14" viewBox="0 0 77 14" fill="none" xmlns="http://www.w3.org/2000/svg">
<path d="M8.74713 13L7.70713 9.976H3.40313L2.37913 13H0.203125L4.39513 1.528H6.73113L10.9231 13H8.74713ZM6.18713 5.272C6.14446 5.12267 6.08046 4.92 5.99513 4.664C5.90979 4.408 5.82446 4.14667 5.73913 3.88C5.66446 3.60267 5.60579 3.37333 5.56313 3.192C5.50979 3.40533 5.44046 3.65067 5.35513 3.928C5.28046 4.20533 5.20579 4.46667 5.13113 4.712C5.06713 4.95733 5.01379 5.144 4.97113 5.272L3.96313 8.216H7.17913L6.18713 5.272ZM15.7375 13.16C14.9162 13.16 14.2015 13.0053 13.5935 12.696C12.9962 12.376 12.5322 11.8907 12.2015 11.24C11.8815 10.5787 11.7215 9.736 11.7215 8.712C11.7215 7.64533 11.8975 6.78133 12.2495 6.12C12.6122 5.448 13.1082 4.95733 13.7375 4.648C14.3668 4.328 15.0868 4.168 15.8975 4.168C16.4415 4.168 16.9268 4.22133 17.3535 4.328C17.7802 4.43467 18.1428 4.56267 18.4415 4.712L17.8495 6.296C17.5188 6.168 17.1882 6.06133 16.8575 5.976C16.5268 5.88 16.2068 5.832 15.8975 5.832C15.4175 5.832 15.0175 5.93867 14.6975 6.152C14.3882 6.36533 14.1588 6.68533 14.0095 7.112C13.8602 7.528 13.7855 8.056 13.7855 8.696C13.7855 9.31467 13.8602 9.832 14.0095 10.248C14.1695 10.664 14.4042 10.9787 14.7135 11.192C15.0228 11.3947 15.4068 11.496 15.8655 11.496C16.3562 11.496 16.7882 11.4373 17.1615 11.32C17.5348 11.2027 17.8868 11.0427 18.2175 10.84V12.584C17.8868 12.7867 17.5295 12.9307 17.1455 13.016C16.7722 13.112 16.3028 13.16 15.7375 13.16ZM23.6091 11.544C23.8651 11.544 24.1105 11.5227 24.3451 11.48C24.5798 11.4267 24.7985 11.368 25.0011 11.304V12.808C24.7878 12.904 24.5105 12.984 24.1691 13.048C23.8278 13.1227 23.4705 13.16 23.0971 13.16C22.6065 13.16 22.1585 13.08 21.7531 12.92C21.3585 12.7493 21.0385 12.4613 20.7931 12.056C20.5585 11.6507 20.4411 11.0853 20.4411 10.36V5.848H19.2731V4.968L20.5531 4.264L21.1931 2.424H22.4571V4.328H24.9211V5.848H22.4571V10.344C22.4571 10.7493 22.5638 11.0533 22.7771 11.256C22.9905 11.448 23.2678 11.544 23.6091 11.544ZM28.7651 4.328V13H26.7491V4.328H28.7651ZM27.7571 0.983999C28.0558 0.983999 28.3171 1.064 28.5411 1.224C28.7651 1.37333 28.8771 1.64533 28.8771 2.04C28.8771 2.424 28.7651 2.70133 28.5411 2.872C28.3171 3.032 28.0558 3.112 27.7571 3.112C27.4478 3.112 27.1811 3.032 26.9571 2.872C26.7438 2.70133 26.6371 2.424 26.6371 2.04C26.6371 1.64533 26.7438 1.37333 26.9571 1.224C27.1811 1.064 27.4478 0.983999 27.7571 0.983999ZM33.3429 13L30.0469 4.328H32.1749L33.9029 9.336C33.9775 9.53867 34.0469 9.76267 34.1109 10.008C34.1749 10.2427 34.2282 10.4773 34.2709 10.712C34.3242 10.936 34.3562 11.1333 34.3669 11.304H34.4309C34.4522 11.1227 34.4895 10.92 34.5429 10.696C34.5962 10.4613 34.6549 10.2267 34.7189 9.992C34.7935 9.75733 34.8629 9.53867 34.9269 9.336L36.6549 4.328H38.7829L35.4869 13H33.3429ZM48.5215 13H46.4735V3.304H43.1935V1.576H51.8015V3.304H48.5215V13ZM57.1056 4.168C57.2336 4.168 57.383 4.17333 57.5536 4.184C57.7243 4.19467 57.8683 4.216 57.9856 4.248L57.8096 6.12C57.7136 6.09867 57.5856 6.08267 57.4256 6.072C57.2763 6.05067 57.143 6.04 57.0256 6.04C56.7056 6.04 56.3963 6.09333 56.0976 6.2C55.8096 6.296 55.5483 6.44533 55.3136 6.648C55.0896 6.84 54.9083 7.09067 54.7696 7.4C54.6416 7.70933 54.5776 8.07733 54.5776 8.504V13H52.5616V4.328H54.1136L54.4016 5.832H54.4976C54.6683 5.52267 54.8816 5.24533 55.1376 5C55.3936 4.744 55.687 4.54133 56.0176 4.392C56.359 4.24267 56.7216 4.168 57.1056 4.168ZM62.7364 4.168C63.8564 4.168 64.7044 4.41333 65.2804 4.904C65.867 5.384 66.1604 6.14133 66.1604 7.176V13H64.7364L64.3364 11.8H64.2724C64.027 12.1093 63.771 12.3707 63.5044 12.584C63.2484 12.7867 62.9497 12.9307 62.6084 13.016C62.2777 13.112 61.8724 13.16 61.3924 13.16C60.8804 13.16 60.4164 13.064 60.0004 12.872C59.595 12.68 59.275 12.3867 59.0404 11.992C58.8057 11.5867 58.6884 11.08 58.6884 10.472C58.6884 9.576 59.0137 8.904 59.6644 8.456C60.3257 7.99733 61.323 7.74667 62.6564 7.704L64.1604 7.656V7.224C64.1604 6.66933 64.027 6.27467 63.7604 6.04C63.4937 5.80533 63.1204 5.688 62.6404 5.688C62.203 5.688 61.7817 5.752 61.3764 5.88C60.971 6.008 60.5764 6.15733 60.1924 6.328L59.5524 4.92C59.979 4.696 60.4644 4.51467 61.0084 4.376C61.563 4.23733 62.139 4.168 62.7364 4.168ZM63.1044 8.936C62.219 8.968 61.6057 9.12267 61.2644 9.4C60.923 9.66667 60.7524 10.0293 60.7524 10.488C60.7524 10.8933 60.875 11.1867 61.1204 11.368C61.3657 11.5493 61.6804 11.64 62.0644 11.64C62.651 11.64 63.147 11.4747 63.5524 11.144C63.9577 10.8027 64.1604 10.3013 64.1604 9.64V8.904L63.1044 8.936ZM70.6866 6.616C70.6866 6.89333 70.676 7.18667 70.6546 7.496C70.6333 7.79467 70.612 8.088 70.5906 8.376H70.6386C70.724 8.248 70.8253 8.10933 70.9426 7.96C71.06 7.8 71.1773 7.64533 71.2946 7.496C71.4226 7.336 71.5453 7.192 71.6626 7.064L74.2226 4.328H76.5106L73.0386 8.072L76.7346 13H74.3826L71.6946 9.288L70.6866 10.12V13H68.6866V0.839999H70.6866V6.616Z" fill="#00234B"/>
</svg>
