<svg width="45" height="45" viewBox="0 0 45 45" fill="none" xmlns="http://www.w3.org/2000/svg">
<g clip-path="url(#clip0_128_14451)">
<path d="M0.345703 22.2699C0.345703 18.5496 3.90605 15.5337 8.29795 15.5337H36.3172C40.7091 15.5337 44.2694 18.5496 44.2694 22.2699V32.0004C44.2694 35.7208 40.7091 38.7366 36.3172 38.7366H8.29795C3.90604 38.7366 0.345703 35.7208 0.345703 32.0004V22.2699Z" fill="#EBFBFB"/>
<path d="M27.4087 11.1243C27.3622 8.88372 25.8232 6.97537 23.6097 6.40617C23.442 6.36195 23.328 6.29141 23.2326 6.1311C22.7967 5.41853 21.8124 5.42332 21.3742 6.13835C21.286 6.28188 21.1882 6.35832 21.0289 6.40026C18.7516 7.00528 17.2532 8.86331 17.2018 11.1567C17.1969 11.3755 17.143 11.5465 17.0035 11.7259C16.4819 12.3942 16.5602 13.2025 17.1809 13.7823C17.3669 13.957 17.5727 14.0992 17.7919 14.22C17.875 15.0568 18.0148 16.188 18.2718 16.781C18.6292 17.6083 19.1032 18.3617 19.774 18.9858C21.3105 20.4133 23.3085 20.411 24.8403 18.981C25.3398 18.5147 25.7378 17.9755 26.0536 17.3788C26.4588 16.6112 26.7159 15.2421 26.8165 14.2223C27.0308 14.0991 27.2351 13.9545 27.4262 13.7823C28.0567 13.2144 28.1338 12.3906 27.6087 11.7293C27.4578 11.5379 27.4137 11.3538 27.4088 11.1243L27.4087 11.1243ZM21.9081 11.3084C21.9142 11.0692 22.0305 10.8982 22.2924 10.8923C22.5741 10.8864 22.7002 11.0608 22.7025 11.318C22.7086 11.8296 22.7099 12.3426 22.7051 12.8569C22.7014 13.0995 22.5727 13.2705 22.3194 13.2753C22.0451 13.2825 21.913 13.1068 21.9067 12.8473C21.9007 12.5915 21.9056 12.3343 21.9056 12.0785C21.9056 11.8214 21.8995 11.5642 21.9081 11.3084L21.9081 11.3084ZM18.6709 12.1443C18.6586 11.6086 18.6599 11.0717 18.6709 10.536C18.6758 10.3077 18.819 10.1571 19.0529 10.151C19.3051 10.1439 19.4509 10.2981 19.4606 10.5433C19.4729 10.8218 19.4643 11.1028 19.4643 11.3826H19.4632C19.4632 11.6384 19.4717 11.8956 19.4594 12.1514C19.4497 12.3797 19.3211 12.5267 19.08 12.5339C18.8179 12.5412 18.6771 12.3856 18.6709 12.1443L18.6709 12.1443ZM24.2099 18.0544C23.7692 18.51 23.2537 18.8556 22.6 18.9427C21.6953 19.0634 20.9986 18.6606 20.4048 18.0567C19.6787 17.3178 19.2368 15.7587 19.0055 14.6922C20.0695 14.9934 21.1493 15.0712 22.1239 15.0857C23.0776 15.0821 23.8673 15.0437 24.6459 14.9027C24.9666 14.8453 25.2861 14.782 25.5973 14.7006C25.3777 15.7588 24.9272 17.3143 24.2099 18.0545L24.2099 18.0544ZM26.2459 12.1921C26.2385 12.4049 26.0831 12.533 25.864 12.5341C25.6276 12.5353 25.4734 12.4073 25.4624 12.1731C25.4478 11.8826 25.4587 11.5896 25.4587 11.2979H25.4599C25.4599 11.0421 25.455 10.7849 25.4611 10.528C25.4685 10.2912 25.6166 10.1572 25.8479 10.1525C26.0769 10.1466 26.2434 10.2829 26.2483 10.5124C26.2617 11.073 26.2629 11.6327 26.2459 12.1921L26.2459 12.1921ZM14.1585 26.8476V31.4816C14.1585 31.5087 14.1595 31.535 14.1612 31.5611H13.4216C12.2646 31.5611 11.3267 30.6451 11.3267 29.5151V23.6514C11.3267 22.094 12.1397 20.723 13.3732 19.92L14.9207 25.302C14.4558 25.6648 14.1585 26.2227 14.1585 26.8476L14.1585 26.8476ZM28.7029 19.1714C29.1409 19.1714 29.5641 19.2311 29.965 19.3432L28.376 24.8687L16.2396 24.8689L14.6505 19.3434C15.0514 19.2313 15.4746 19.1716 15.9126 19.1716H17.5091C17.8054 19.5839 18.1333 19.9575 18.4981 20.2967C19.6019 21.3223 20.9186 21.864 22.3059 21.864H22.3068C23.6978 21.864 25.0165 21.3196 26.1202 20.2894C26.4804 19.953 26.8093 19.5795 27.1028 19.1716L28.7029 19.1714ZM31.1935 31.5611H30.454C30.4559 31.5348 30.4567 31.5087 30.4567 31.4816V26.8476C30.4567 26.2227 30.1594 25.6646 29.6945 25.302L31.2419 19.9199C32.4754 20.723 33.2885 22.094 33.2885 23.6514V29.5151C33.2885 30.6451 32.3506 31.5611 31.1935 31.5611L31.1935 31.5611ZM29.2483 31.5611H15.3669C15.3632 31.5348 15.3623 31.5087 15.3623 31.4824V26.8466C15.3623 26.4034 15.7298 26.0445 16.1846 26.0445H28.4314C28.8852 26.0445 29.2528 26.4034 29.2528 26.8466V31.4824C29.253 31.5087 29.252 31.5348 29.2483 31.5611H29.2483Z" fill="#17CFCF"/>
</g>
<defs>
<clipPath id="clip0_128_14451">
<rect width="43.9237" height="43.9237" fill="white" transform="translate(0.345703 0.206055)"/>
</clipPath>
</defs>
</svg>
