<svg width="60" height="60" viewBox="0 0 60 60" fill="none" xmlns="http://www.w3.org/2000/svg">
<path d="M16.4839 22.532C12.3659 22.532 9.01594 25.882 9.01594 30C9.01594 34.1173 12.3659 37.468 16.4839 37.468C20.6011 37.468 23.9511 34.118 23.9511 30C23.9511 25.882 20.6011 22.532 16.4839 22.532ZM16.4839 35.408C13.5019 35.408 11.0759 32.982 11.0759 30C11.0759 27.018 13.5019 24.592 16.4839 24.592C19.4652 24.592 21.8911 27.018 21.8911 30C21.8911 32.982 19.4658 35.408 16.4839 35.408ZM45.6555 16.4807H57.8654C59.0427 16.4807 60 15.5227 60 14.3453V2.13533C60 0.958 59.0427 0 57.8654 0H45.6555C44.4775 0 43.5202 0.958 43.5202 2.13533V7.21067H36.9549C36.3863 7.21067 35.925 7.672 35.925 8.24067V28.9707H30.347C30.3157 28.542 30.269 28.114 30.1984 27.6907L31.9077 26.7033C32.3977 26.4207 32.7477 25.964 32.8943 25.4167C33.041 24.87 32.9663 24.2987 32.6837 23.81L29.945 19.0667C29.3617 18.0547 28.0624 17.708 27.0517 18.2913L25.3397 19.28C24.1451 18.294 22.7844 17.5073 21.3411 16.9673V14.994C21.3411 13.826 20.3905 12.876 19.2232 12.876H13.7459C12.5779 12.876 11.6286 13.826 11.6286 14.994V16.9673C10.1853 17.5073 8.82395 18.2947 7.62996 19.28L5.91865 18.2913C5.42932 18.0087 4.85933 17.9333 4.31133 18.0807C3.76467 18.2273 3.30734 18.5773 3.02468 19.0667L0.286714 23.81C-0.297279 24.8213 0.05005 26.1187 1.06137 26.7033L2.77135 27.6907C2.64269 28.452 2.57802 29.226 2.57802 30C2.57802 30.774 2.64269 31.5473 2.77002 32.3093L1.05937 33.2967C0.570044 33.5793 0.219381 34.036 0.0733831 34.5833C-0.0732819 35.13 0.0013839 35.7013 0.284047 36.19L3.02268 40.934C3.60667 41.9453 4.90533 42.292 5.91598 41.7087L7.62796 40.72C8.82195 41.706 10.1833 42.4927 11.6266 43.0327V45.006C11.6266 46.174 12.5766 47.124 13.7439 47.124H19.2212C20.3891 47.124 21.3391 46.174 21.3391 45.006V43.0327C22.7824 42.4927 24.1438 41.7053 25.3377 40.72L27.0497 41.7087C27.5397 41.9913 28.109 42.0653 28.657 41.9193C29.2037 41.7727 29.661 41.4227 29.943 40.9333L32.6817 36.1893C33.265 35.178 32.917 33.88 31.9057 33.2967L30.195 32.3093C30.2664 31.886 30.313 31.4587 30.3444 31.03H35.9223V51.7593C35.9223 52.328 36.3836 52.7893 36.9523 52.7893H43.5175V57.8647C43.5175 59.042 44.4755 60 45.6528 60H57.8627C59.0427 60 60 59.042 60 57.8647V45.6547C60 44.4773 59.042 43.5193 57.8654 43.5193H45.6555C44.4775 43.5193 43.5202 44.4773 43.5202 45.6547V50.7293H37.9849V31.03H43.5202V36.1053C43.5202 37.2827 44.4782 38.2407 45.6555 38.2407H57.8654C59.0427 38.2407 60 37.2827 60 36.1053V23.8947C60 22.7173 59.042 21.7593 57.8654 21.7593H45.6555C44.4775 21.7593 43.5202 22.7173 43.5202 23.8947V28.97H37.9849V9.27H43.5202V14.3453C43.5202 15.5227 44.4775 16.4807 45.6555 16.4807ZM30.8777 35.0813C30.9043 35.0967 30.9143 35.1347 30.899 35.1607L28.1604 39.904C28.147 39.9273 28.1044 39.9387 28.081 39.9253L25.7311 38.5687C25.3411 38.3433 24.8491 38.398 24.5171 38.704C23.2284 39.894 21.6678 40.7967 20.0045 41.3147C19.5738 41.4487 19.2805 41.8467 19.2805 42.298V45.0067C19.2805 45.0373 19.2525 45.0647 19.2225 45.0647H13.7452C13.7146 45.0647 13.6879 45.0367 13.6879 45.0067V42.298C13.6879 41.8467 13.3946 41.448 12.9639 41.3147C11.2999 40.7973 9.73927 39.8947 8.45062 38.7047C8.25528 38.5247 8.00462 38.4313 7.75196 38.4313C7.57529 38.4313 7.3973 38.4767 7.23663 38.5693L4.88666 39.926C4.85999 39.9413 4.82199 39.9307 4.80733 39.9053L2.06869 35.1613C2.05536 35.1373 2.06669 35.096 2.09003 35.082L4.43733 33.7267C4.82733 33.5013 5.02599 33.0487 4.92733 32.6087C4.73533 31.7553 4.63866 30.878 4.63866 30.0007C4.63866 29.1227 4.73533 28.2453 4.92733 27.392C5.02666 26.952 4.82799 26.4993 4.43733 26.274L2.09069 24.9193C2.06403 24.904 2.05403 24.8667 2.06936 24.84L4.80733 20.0967C4.82133 20.0733 4.86199 20.062 4.88666 20.0753L7.23663 21.432C7.62663 21.658 8.11929 21.6033 8.45062 21.2967C9.73993 20.106 11.3006 19.2033 12.9639 18.6867C13.3946 18.5527 13.6879 18.154 13.6879 17.7033V14.9933C13.6879 14.9627 13.7152 14.9353 13.7452 14.9353H19.2225C19.2532 14.9353 19.2805 14.9633 19.2805 14.9933V17.7027C19.2805 18.154 19.5738 18.552 20.0045 18.686C21.6678 19.2033 23.2284 20.1053 24.5171 21.296C24.8491 21.6027 25.3417 21.6553 25.7311 21.4313L28.081 20.0747C28.107 20.0607 28.1457 20.0693 28.1604 20.096L30.899 24.8393C30.9123 24.8627 30.9017 24.9047 30.8777 24.9187L28.5304 26.274C28.1404 26.4993 27.9417 26.952 28.0404 27.392C28.2317 28.2433 28.3284 29.12 28.329 29.996C28.329 29.9973 28.3284 29.9987 28.3284 30C28.3284 30.0013 28.329 30.0027 28.329 30.004C28.329 30.88 28.2317 31.756 28.0404 32.608C27.9411 33.048 28.1397 33.5007 28.5304 33.726L30.8777 35.0813ZM45.5802 45.6547C45.5802 45.6153 45.6162 45.5793 45.6555 45.5793H57.8654C57.9047 45.5793 57.94 45.6153 57.94 45.6547V57.8647C57.94 57.904 57.9047 57.94 57.8654 57.94H45.6555C45.6162 57.94 45.5802 57.904 45.5802 57.8647V45.6547ZM45.5802 23.8947C45.5802 23.8553 45.6162 23.8193 45.6555 23.8193H57.8654C57.9047 23.8193 57.94 23.8553 57.94 23.8947V36.1047C57.94 36.144 57.9047 36.18 57.8654 36.18H45.6555C45.6162 36.18 45.5802 36.144 45.5802 36.1047V23.8947ZM45.5802 2.13533C45.5802 2.096 45.6162 2.06 45.6555 2.06H57.8654C57.9047 2.06 57.94 2.096 57.94 2.13533V14.3453C57.94 14.3847 57.9047 14.4207 57.8654 14.4207H45.6555C45.6162 14.4207 45.5802 14.3847 45.5802 14.3453V2.13533ZM47.4661 8.598C47.0635 8.19533 47.0635 7.54333 47.4661 7.14133C47.8688 6.73867 48.5201 6.73933 48.9228 7.14133L50.8194 9.03733L54.5974 5.25933C55.0001 4.85667 55.6514 4.85667 56.054 5.25933C56.4567 5.66133 56.4567 6.314 56.054 6.716L51.5481 11.2227C51.3468 11.424 51.0834 11.5247 50.8201 11.5247C50.5568 11.5247 50.2928 11.424 50.0921 11.2233L47.4661 8.598ZM47.4661 52.1173C47.0635 51.7147 47.0635 51.0627 47.4661 50.6607C47.8688 50.258 48.5201 50.2587 48.9228 50.6607L50.8194 52.5567L54.5974 48.7787C55.0001 48.376 55.6514 48.376 56.054 48.7787C56.4567 49.1807 56.4567 49.8333 56.054 50.2353L51.5481 54.742C51.3468 54.9433 51.0834 55.044 50.8201 55.044C50.5568 55.044 50.2928 54.9433 50.0921 54.7427L47.4661 52.1173ZM47.4661 30.3573C47.0635 29.9547 47.0635 29.3027 47.4661 28.9007C47.8688 28.498 48.5201 28.4987 48.9228 28.9007L50.8194 30.7967L54.5974 27.0187C55.0001 26.616 55.6514 26.616 56.054 27.0187C56.4567 27.4207 56.4567 28.0733 56.054 28.4753L51.5481 32.982C51.3468 33.1833 51.0834 33.284 50.8201 33.284C50.5568 33.284 50.2928 33.1833 50.0921 32.9827L47.4661 30.3573Z" fill="white"/>
</svg>
