<svg width="50" height="50" viewBox="0 0 50 50" fill="none" xmlns="http://www.w3.org/2000/svg">
<circle cx="24.8555" cy="24.6582" r="24.6582" fill="#6752E8"/>
<path d="M22.8838 28.4375L16.1758 46.1295L18.6273 28.4375H22.8838Z" fill="white"/>
<path d="M37.8445 16.2903C36.7489 15.485 35.1332 15.082 32.9974 15.082C31.9064 15.082 30.9173 15.1613 30.0299 15.3195L26.1692 25.5015C26.5431 25.7646 26.9499 25.9801 27.3898 26.1477C28.2677 26.4829 29.1455 26.7769 30.024 27.0302C30.9018 27.2839 31.6486 27.6005 32.2642 27.9807C32.8794 28.3608 33.1873 28.8496 33.1873 29.4471C33.1873 30.5697 32.2865 31.1307 30.4854 31.1307C28.6838 31.1307 27.7835 30.5062 27.7835 29.257C27.7835 29.1123 27.8012 28.9494 27.8376 28.7682L27.8918 28.4424H25.0539L22.4902 35.2039H29.7927C32.653 35.2039 34.771 34.6472 36.1469 33.5339C37.5226 32.4204 38.2107 30.7144 38.2107 28.4152C38.2107 27.2746 37.9027 26.3472 37.2876 25.6318C36.672 24.9169 35.9204 24.4056 35.0338 24.0976C34.1465 23.7901 33.2639 23.532 32.3861 23.3238C31.5077 23.1157 30.761 22.8307 30.1459 22.4683C29.5302 22.1065 29.2226 21.6177 29.2226 21.0021C29.2226 19.7711 30.1908 19.1553 32.1282 19.1553C33.6667 19.1553 34.4363 19.744 34.4363 20.9205C34.4363 21.5543 34.237 22.0792 33.8391 22.4955H38.6455L38.8627 22.1697C39.0074 21.9706 39.1479 21.6311 39.2836 21.1514C39.4193 20.6719 39.4873 20.1695 39.4873 19.6443C39.4874 18.2141 38.9396 17.0961 37.8445 16.2903Z" fill="white"/>
<path d="M30.791 13.3575L34.6486 3.18359L33.2388 13.3575H30.791Z" fill="white"/>
<path d="M18.7375 21.5318L16.8402 9.77734H10.2207L14.6557 26.284H19.8422L21.4989 21.5318H18.7375Z" fill="white"/>
<path d="M21.6358 6.73438L19.0137 26.2858H23.7116L31.1247 6.73438H21.6358Z" fill="white"/>
</svg>
