<svg width="20" height="20" viewBox="0 0 20 20" fill="none" xmlns="http://www.w3.org/2000/svg">
<path d="M13.3333 0.833313C12.3875 0.833313 11.4741 1.23296 10.8691 1.88963C10.3225 2.48713 9.99023 3.54769 9.99023 4.40102C10.9669 4.40102 12.0104 3.90073 12.5895 3.2324C13.1295 2.60657 13.3333 1.84081 13.3333 0.833313ZM6.89616 4.59471C5.15116 4.59554 2.5 6.23359 2.5 10.0928C2.5 13.6036 5.63882 17.5 7.41048 17.5H7.4349C8.4924 17.5 8.86171 16.8141 10.3109 16.8066C11.76 16.8141 12.1302 17.5 13.1868 17.5H13.2113C14.4963 17.5 16.4958 15.4468 17.5 12.9801C16.4108 12.4368 15.6543 11.3133 15.6543 9.99998C15.6543 8.71748 16.3768 7.6164 17.4251 7.0589C16.5193 5.35557 14.9131 4.59471 13.7256 4.59471C12.4431 4.59471 11.3709 5.46222 10.3109 5.46222C9.25087 5.46222 8.17866 4.59471 6.89616 4.59471ZM6.89616 6.26137C7.25616 6.26137 7.69819 6.43127 8.16569 6.61294C8.78902 6.8546 9.49421 7.12889 10.3109 7.12889C11.1275 7.12889 11.8343 6.8546 12.4577 6.61294C12.9243 6.4321 13.3656 6.26137 13.7256 6.26137C14.0739 6.26137 14.6162 6.4252 15.1237 6.83103C14.4012 7.70937 13.9893 8.82248 13.9893 9.99998C13.9893 11.3308 14.5063 12.5672 15.3988 13.4831C14.5729 14.8872 13.5513 15.7383 13.1755 15.8333C13.0488 15.8316 12.9574 15.7982 12.6449 15.664C12.164 15.4574 11.4361 15.1458 10.3011 15.14C9.18361 15.1458 8.45772 15.4574 7.97689 15.664C7.67855 15.7924 7.58137 15.8275 7.44303 15.8317C6.61803 15.6309 4.16667 12.8644 4.16667 10.0928C4.16667 7.19859 6.00616 6.26221 6.89616 6.26137Z" fill="#624DE3"/>
</svg>
