<svg width="20" height="20" viewBox="0 0 20 20" fill="none" xmlns="http://www.w3.org/2000/svg">
<path d="M3 0.75H17C18.2426 0.75 19.25 1.75736 19.25 3V17C19.25 18.2426 18.2426 19.25 17 19.25H3C1.75736 19.25 0.75 18.2426 0.75 17V3C0.75 1.75736 1.75736 0.75 3 0.75Z" stroke="#624DE3" stroke-width="1.5"/>
<mask id="path-2-inside-1_1_9" fill="white">
<path d="M6.24387 9.2685C6.24387 9.45369 6.26389 9.60385 6.29893 9.71397C6.33897 9.82409 6.38903 9.94422 6.4591 10.0744C6.48413 10.1144 6.49414 10.1544 6.49414 10.1895C6.49414 10.2395 6.46411 10.2896 6.39904 10.3396L6.0837 10.5499C6.03865 10.5799 5.9936 10.5949 5.95356 10.5949C5.90351 10.5949 5.85345 10.5699 5.8034 10.5248C5.73332 10.4498 5.67326 10.3697 5.62321 10.2896C5.57315 10.2045 5.5231 10.1094 5.46804 9.99427C5.07762 10.4548 4.5871 10.685 3.99647 10.685C3.57602 10.685 3.24066 10.5649 2.9954 10.3246C2.75013 10.0844 2.625 9.76403 2.625 9.3636C2.625 8.93814 2.77516 8.59277 3.08049 8.33249C3.38581 8.07222 3.79125 7.94208 4.3068 7.94208C4.47698 7.94208 4.65217 7.95709 4.83737 7.98212C5.02256 8.00715 5.21277 8.04719 5.41298 8.09224V7.72685C5.41298 7.34644 5.3329 7.08116 5.17773 6.92599C5.01756 6.77082 4.74727 6.69574 4.36186 6.69574C4.18667 6.69574 4.00648 6.71577 3.82128 6.76081C3.63608 6.80586 3.45589 6.86092 3.2807 6.931C3.20062 6.96603 3.14055 6.98605 3.10551 6.99607C3.07048 7.00608 3.04545 7.01108 3.02543 7.01108C2.95535 7.01108 2.92032 6.96103 2.92032 6.85592V6.61065C2.92032 6.53057 2.93033 6.4705 2.95535 6.43547C2.98038 6.40043 3.02543 6.36539 3.0955 6.33035C3.27069 6.24026 3.48092 6.16518 3.72618 6.10511C3.97144 6.04004 4.23172 6.01001 4.50701 6.01001C5.10265 6.01001 5.53812 6.14516 5.81842 6.41544C6.09371 6.68573 6.23386 7.09617 6.23386 7.64676V9.2685H6.24387ZM4.2117 10.0293C4.37687 10.0293 4.54706 9.99928 4.72725 9.93921C4.90744 9.87915 5.06761 9.76903 5.20276 9.61887C5.28284 9.52377 5.34291 9.41866 5.37294 9.29853C5.40297 9.1784 5.42299 9.03324 5.42299 8.86306V8.65284C5.27784 8.6178 5.12267 8.58777 4.9625 8.56775C4.80233 8.54772 4.64716 8.53771 4.492 8.53771C4.15664 8.53771 3.91138 8.60278 3.7462 8.73793C3.58102 8.87307 3.50094 9.06328 3.50094 9.31354C3.50094 9.5488 3.561 9.72398 3.68613 9.84411C3.80626 9.96925 3.98145 10.0293 4.2117 10.0293ZM8.23099 10.5699C8.1409 10.5699 8.08083 10.5549 8.04079 10.5198C8.00075 10.4898 7.96571 10.4197 7.93568 10.3246L6.75942 6.45549C6.72939 6.35538 6.71437 6.29031 6.71437 6.25527C6.71437 6.17519 6.75442 6.13014 6.8345 6.13014H7.32503C7.42013 6.13014 7.4852 6.14516 7.52023 6.18019C7.56028 6.21022 7.59031 6.2803 7.62034 6.3754L8.46124 9.68895L9.24208 6.3754C9.2671 6.27529 9.29713 6.21022 9.33718 6.18019C9.37722 6.15016 9.4473 6.13014 9.53739 6.13014H9.93782C10.0329 6.13014 10.098 6.14516 10.138 6.18019C10.1781 6.21022 10.2131 6.2803 10.2331 6.3754L11.024 9.72899L11.8899 6.3754C11.9199 6.27529 11.955 6.21022 11.99 6.18019C12.0301 6.15016 12.0951 6.13014 12.1852 6.13014H12.6507C12.7308 6.13014 12.7759 6.17018 12.7759 6.25527C12.7759 6.2803 12.7708 6.30533 12.7658 6.33536C12.7608 6.36539 12.7508 6.40543 12.7308 6.46049L11.5245 10.3296C11.4945 10.4297 11.4594 10.4948 11.4194 10.5248C11.3794 10.5549 11.3143 10.5749 11.2292 10.5749H10.7987C10.7036 10.5749 10.6386 10.5599 10.5985 10.5248C10.5585 10.4898 10.5234 10.4247 10.5034 10.3246L9.72759 7.09617L8.95677 10.3196C8.93174 10.4197 8.90171 10.4848 8.86167 10.5198C8.82163 10.5549 8.75155 10.5699 8.66146 10.5699H8.23099ZM14.6629 10.705C14.4026 10.705 14.1423 10.675 13.892 10.6149C13.6418 10.5549 13.4466 10.4898 13.3164 10.4147C13.2363 10.3697 13.1813 10.3196 13.1613 10.2746C13.1412 10.2295 13.1312 10.1795 13.1312 10.1344V9.87915C13.1312 9.77404 13.1713 9.72398 13.2464 9.72398C13.2764 9.72398 13.3064 9.72899 13.3365 9.739C13.3665 9.74901 13.4115 9.76903 13.4616 9.78905C13.6318 9.86413 13.817 9.9242 14.0122 9.96424C14.2124 10.0043 14.4076 10.0243 14.6078 10.0243C14.9232 10.0243 15.1684 9.96924 15.3386 9.85913C15.5088 9.74901 15.5989 9.58884 15.5989 9.38362C15.5989 9.24347 15.5538 9.12835 15.4637 9.03324C15.3736 8.93814 15.2035 8.85305 14.9582 8.77297L14.2324 8.54772C13.867 8.4326 13.5967 8.26242 13.4316 8.03718C13.2664 7.81694 13.1813 7.57168 13.1813 7.3114C13.1813 7.10118 13.2263 6.91598 13.3164 6.75581C13.4065 6.59564 13.5267 6.45549 13.6768 6.34537C13.827 6.23025 13.9972 6.14516 14.1974 6.08509C14.3976 6.02503 14.6078 6 14.828 6C14.9382 6 15.0533 6.00501 15.1634 6.02002C15.2785 6.03504 15.3836 6.05506 15.4888 6.07508C15.5889 6.10011 15.684 6.12513 15.7741 6.15517C15.8642 6.1852 15.9342 6.21523 15.9843 6.24526C16.0544 6.28531 16.1044 6.32535 16.1344 6.3704C16.1645 6.41044 16.1795 6.4655 16.1795 6.53557V6.77082C16.1795 6.87594 16.1395 6.931 16.0644 6.931C16.0243 6.931 15.9593 6.91097 15.8742 6.87093C15.5889 6.74079 15.2685 6.67572 14.9131 6.67572C14.6278 6.67572 14.4026 6.72077 14.2474 6.81587C14.0923 6.91097 14.0122 7.05613 14.0122 7.26135C14.0122 7.4015 14.0622 7.52163 14.1623 7.61673C14.2624 7.71183 14.4476 7.80693 14.7129 7.89202L15.4237 8.11726C15.7841 8.23239 16.0443 8.39256 16.1995 8.59778C16.3547 8.803 16.4298 9.03825 16.4298 9.29853C16.4298 9.51376 16.3847 9.70897 16.2996 9.87915C16.2095 10.0493 16.0894 10.1995 15.9342 10.3196C15.7791 10.4448 15.5939 10.5348 15.3786 10.5999C15.1534 10.67 14.9181 10.705 14.6629 10.705Z"/>
</mask>
<path d="M6.24387 9.2685C6.24387 9.45369 6.26389 9.60385 6.29893 9.71397C6.33897 9.82409 6.38903 9.94422 6.4591 10.0744C6.48413 10.1144 6.49414 10.1544 6.49414 10.1895C6.49414 10.2395 6.46411 10.2896 6.39904 10.3396L6.0837 10.5499C6.03865 10.5799 5.9936 10.5949 5.95356 10.5949C5.90351 10.5949 5.85345 10.5699 5.8034 10.5248C5.73332 10.4498 5.67326 10.3697 5.62321 10.2896C5.57315 10.2045 5.5231 10.1094 5.46804 9.99427C5.07762 10.4548 4.5871 10.685 3.99647 10.685C3.57602 10.685 3.24066 10.5649 2.9954 10.3246C2.75013 10.0844 2.625 9.76403 2.625 9.3636C2.625 8.93814 2.77516 8.59277 3.08049 8.33249C3.38581 8.07222 3.79125 7.94208 4.3068 7.94208C4.47698 7.94208 4.65217 7.95709 4.83737 7.98212C5.02256 8.00715 5.21277 8.04719 5.41298 8.09224V7.72685C5.41298 7.34644 5.3329 7.08116 5.17773 6.92599C5.01756 6.77082 4.74727 6.69574 4.36186 6.69574C4.18667 6.69574 4.00648 6.71577 3.82128 6.76081C3.63608 6.80586 3.45589 6.86092 3.2807 6.931C3.20062 6.96603 3.14055 6.98605 3.10551 6.99607C3.07048 7.00608 3.04545 7.01108 3.02543 7.01108C2.95535 7.01108 2.92032 6.96103 2.92032 6.85592V6.61065C2.92032 6.53057 2.93033 6.4705 2.95535 6.43547C2.98038 6.40043 3.02543 6.36539 3.0955 6.33035C3.27069 6.24026 3.48092 6.16518 3.72618 6.10511C3.97144 6.04004 4.23172 6.01001 4.50701 6.01001C5.10265 6.01001 5.53812 6.14516 5.81842 6.41544C6.09371 6.68573 6.23386 7.09617 6.23386 7.64676V9.2685H6.24387ZM4.2117 10.0293C4.37687 10.0293 4.54706 9.99928 4.72725 9.93921C4.90744 9.87915 5.06761 9.76903 5.20276 9.61887C5.28284 9.52377 5.34291 9.41866 5.37294 9.29853C5.40297 9.1784 5.42299 9.03324 5.42299 8.86306V8.65284C5.27784 8.6178 5.12267 8.58777 4.9625 8.56775C4.80233 8.54772 4.64716 8.53771 4.492 8.53771C4.15664 8.53771 3.91138 8.60278 3.7462 8.73793C3.58102 8.87307 3.50094 9.06328 3.50094 9.31354C3.50094 9.5488 3.561 9.72398 3.68613 9.84411C3.80626 9.96925 3.98145 10.0293 4.2117 10.0293ZM8.23099 10.5699C8.1409 10.5699 8.08083 10.5549 8.04079 10.5198C8.00075 10.4898 7.96571 10.4197 7.93568 10.3246L6.75942 6.45549C6.72939 6.35538 6.71437 6.29031 6.71437 6.25527C6.71437 6.17519 6.75442 6.13014 6.8345 6.13014H7.32503C7.42013 6.13014 7.4852 6.14516 7.52023 6.18019C7.56028 6.21022 7.59031 6.2803 7.62034 6.3754L8.46124 9.68895L9.24208 6.3754C9.2671 6.27529 9.29713 6.21022 9.33718 6.18019C9.37722 6.15016 9.4473 6.13014 9.53739 6.13014H9.93782C10.0329 6.13014 10.098 6.14516 10.138 6.18019C10.1781 6.21022 10.2131 6.2803 10.2331 6.3754L11.024 9.72899L11.8899 6.3754C11.9199 6.27529 11.955 6.21022 11.99 6.18019C12.0301 6.15016 12.0951 6.13014 12.1852 6.13014H12.6507C12.7308 6.13014 12.7759 6.17018 12.7759 6.25527C12.7759 6.2803 12.7708 6.30533 12.7658 6.33536C12.7608 6.36539 12.7508 6.40543 12.7308 6.46049L11.5245 10.3296C11.4945 10.4297 11.4594 10.4948 11.4194 10.5248C11.3794 10.5549 11.3143 10.5749 11.2292 10.5749H10.7987C10.7036 10.5749 10.6386 10.5599 10.5985 10.5248C10.5585 10.4898 10.5234 10.4247 10.5034 10.3246L9.72759 7.09617L8.95677 10.3196C8.93174 10.4197 8.90171 10.4848 8.86167 10.5198C8.82163 10.5549 8.75155 10.5699 8.66146 10.5699H8.23099ZM14.6629 10.705C14.4026 10.705 14.1423 10.675 13.892 10.6149C13.6418 10.5549 13.4466 10.4898 13.3164 10.4147C13.2363 10.3697 13.1813 10.3196 13.1613 10.2746C13.1412 10.2295 13.1312 10.1795 13.1312 10.1344V9.87915C13.1312 9.77404 13.1713 9.72398 13.2464 9.72398C13.2764 9.72398 13.3064 9.72899 13.3365 9.739C13.3665 9.74901 13.4115 9.76903 13.4616 9.78905C13.6318 9.86413 13.817 9.9242 14.0122 9.96424C14.2124 10.0043 14.4076 10.0243 14.6078 10.0243C14.9232 10.0243 15.1684 9.96924 15.3386 9.85913C15.5088 9.74901 15.5989 9.58884 15.5989 9.38362C15.5989 9.24347 15.5538 9.12835 15.4637 9.03324C15.3736 8.93814 15.2035 8.85305 14.9582 8.77297L14.2324 8.54772C13.867 8.4326 13.5967 8.26242 13.4316 8.03718C13.2664 7.81694 13.1813 7.57168 13.1813 7.3114C13.1813 7.10118 13.2263 6.91598 13.3164 6.75581C13.4065 6.59564 13.5267 6.45549 13.6768 6.34537C13.827 6.23025 13.9972 6.14516 14.1974 6.08509C14.3976 6.02503 14.6078 6 14.828 6C14.9382 6 15.0533 6.00501 15.1634 6.02002C15.2785 6.03504 15.3836 6.05506 15.4888 6.07508C15.5889 6.10011 15.684 6.12513 15.7741 6.15517C15.8642 6.1852 15.9342 6.21523 15.9843 6.24526C16.0544 6.28531 16.1044 6.32535 16.1344 6.3704C16.1645 6.41044 16.1795 6.4655 16.1795 6.53557V6.77082C16.1795 6.87594 16.1395 6.931 16.0644 6.931C16.0243 6.931 15.9593 6.91097 15.8742 6.87093C15.5889 6.74079 15.2685 6.67572 14.9131 6.67572C14.6278 6.67572 14.4026 6.72077 14.2474 6.81587C14.0923 6.91097 14.0122 7.05613 14.0122 7.26135C14.0122 7.4015 14.0622 7.52163 14.1623 7.61673C14.2624 7.71183 14.4476 7.80693 14.7129 7.89202L15.4237 8.11726C15.7841 8.23239 16.0443 8.39256 16.1995 8.59778C16.3547 8.803 16.4298 9.03825 16.4298 9.29853C16.4298 9.51376 16.3847 9.70897 16.2996 9.87915C16.2095 10.0493 16.0894 10.1995 15.9342 10.3196C15.7791 10.4448 15.5939 10.5348 15.3786 10.5999C15.1534 10.67 14.9181 10.705 14.6629 10.705Z" stroke="#624DE3" stroke-width="2" mask="url(#path-2-inside-1_1_9)"/>
<path fill-rule="evenodd" clip-rule="evenodd" d="M15.6062 13.1374C13.9594 14.3537 11.5668 14.9994 9.50963 14.9994C6.62655 14.9994 4.02877 13.9332 2.06667 12.1613C1.91151 12.0212 2.05166 11.831 2.23685 11.9411C4.35912 13.1724 6.97692 13.9182 9.68482 13.9182C11.5118 13.9182 13.5189 13.5378 15.3659 12.757C15.6412 12.6318 15.8764 12.9372 15.6062 13.1374Z" fill="#624DE3"/>
<path fill-rule="evenodd" clip-rule="evenodd" d="M16.2894 12.3565C16.0792 12.0862 14.8979 12.2264 14.3624 12.2915C14.2022 12.3115 14.1772 12.1713 14.3223 12.0662C15.2633 11.4055 16.81 11.5957 16.9902 11.816C17.1704 12.0412 16.9401 13.5879 16.0592 14.3286C15.924 14.4438 15.7939 14.3837 15.854 14.2335C16.0542 13.738 16.4997 12.6218 16.2894 12.3565Z" fill="#624DE3"/>
</svg>
