<svg width="20" height="20" viewBox="0 0 20 20" fill="none" xmlns="http://www.w3.org/2000/svg">
<path d="M6.25 0.833313C6.14333 0.833313 6.03665 0.874133 5.9554 0.955383C5.7929 1.11788 5.7929 1.38208 5.9554 1.54458L7.04753 2.6367C5.80759 3.54658 5 5.01061 5 6.66665V14.1666C5 14.6266 5.37333 15 5.83333 15H6.66667V17.9166C6.66667 18.6066 7.22667 19.1666 7.91667 19.1666C8.60667 19.1666 9.16667 18.6066 9.16667 17.9166V15H10.8333V17.9166C10.8333 18.6066 11.3933 19.1666 12.0833 19.1666C12.7733 19.1666 13.3333 18.6066 13.3333 17.9166V15H14.1667C14.6267 15 15 14.6266 15 14.1666V6.66665C15 5.01061 14.1924 3.54658 12.9525 2.6367L14.0446 1.54458C14.2071 1.38124 14.2071 1.11872 14.0446 0.955383C13.8821 0.792883 13.6179 0.792883 13.4554 0.955383L12.2201 2.19073C11.5505 1.85795 10.7985 1.66665 10 1.66665C9.20151 1.66665 8.44949 1.85795 7.77995 2.19073L6.5446 0.955383C6.46335 0.874133 6.35667 0.833313 6.25 0.833313ZM10 3.33331C11.8383 3.33331 13.3333 4.82831 13.3333 6.66665H6.66667C6.66667 4.82831 8.16167 3.33331 10 3.33331ZM8.33333 4.99998V5.83331H9.16667V4.99998H8.33333ZM10.8333 4.99998V5.83331H11.6667V4.99998H10.8333ZM3.33333 7.49998C2.87333 7.49998 2.5 7.87331 2.5 8.33331V13.3333C2.5 13.7933 2.87333 14.1666 3.33333 14.1666C3.79333 14.1666 4.16667 13.7933 4.16667 13.3333V8.33331C4.16667 7.87331 3.79333 7.49998 3.33333 7.49998ZM16.6667 7.49998C16.2067 7.49998 15.8333 7.87331 15.8333 8.33331V13.3333C15.8333 13.7933 16.2067 14.1666 16.6667 14.1666C17.1267 14.1666 17.5 13.7933 17.5 13.3333V8.33331C17.5 7.87331 17.1267 7.49998 16.6667 7.49998ZM6.66667 8.33331H13.3333V13.3333H9.16667H6.66667V8.33331Z" fill="#624DE3"/>
</svg>
