<svg width="20" height="20" viewBox="0 0 20 20" fill="none" xmlns="http://www.w3.org/2000/svg">
<path d="M3 0.75H17C18.2426 0.75 19.25 1.75736 19.25 3V17C19.25 18.2426 18.2426 19.25 17 19.25H3C1.75736 19.25 0.75 18.2426 0.75 17V3C0.75 1.75736 1.75736 0.75 3 0.75Z" stroke="#624DE3" stroke-width="1.5"/>
<path d="M11.9922 4.46094H15.3516C15.4335 4.46094 15.5 4.5274 15.5 4.60938V10.1562C15.5 10.2382 15.4335 10.3047 15.3516 10.3047H11.9922C11.9102 10.3047 11.8438 10.2382 11.8438 10.1562V4.60938C11.8438 4.5274 11.9102 4.46094 11.9922 4.46094Z" stroke="#624DE3" stroke-width="1.5"/>
<path d="M4.6875 4.46094H8.04688C8.12885 4.46094 8.19531 4.5274 8.19531 4.60938V14.375C8.19531 14.457 8.12885 14.5234 8.04688 14.5234H4.6875C4.60552 14.5234 4.53906 14.457 4.53906 14.375V4.60938C4.53906 4.5274 4.60552 4.46094 4.6875 4.46094Z" stroke="#624DE3" stroke-width="1.5"/>
</svg>
