<svg width="20" height="20" viewBox="0 0 20 20" fill="none" xmlns="http://www.w3.org/2000/svg">
<g clip-path="url(#clip0_1_5443)">
<path d="M18.3333 15V2.5H1.66667V15H0V16.6667H20V15H18.3333ZM11.6667 15H8.33333V14.1667H11.6667V15ZM16.6667 12.5H3.33333V4.16667H16.6667V12.5Z" fill="#624DE3"/>
<path d="M10.0606 5.01191C9.56926 5.07598 8.98967 5.2948 8.56233 5.58118C8.20884 5.81365 7.72339 6.28839 7.75419 6.36927C7.82174 6.54467 8.90217 8.35016 8.91967 8.31655C8.93297 8.29309 8.95292 8.21887 8.96272 8.145C9.05022 7.6601 9.46146 7.19831 9.97665 7.00611C10.1754 6.92873 10.2157 6.92873 11.8999 6.91158L13.6208 6.89512L13.4825 6.66896C12.9978 5.87772 12.2499 5.33191 11.3136 5.08929C11.0578 5.02171 10.3301 4.9776 10.0606 5.01191Z" fill="#624DE3"/>
<path d="M7.421 6.8244C7.26245 7.10414 7.07696 7.66991 7.03356 8.00005C6.82776 9.49605 7.58235 10.9409 8.91617 11.6114C9.22906 11.7696 9.67706 11.9212 9.87235 11.938L9.99695 11.9482L10.5828 10.9546C10.9031 10.4088 11.1621 9.95714 11.1554 9.95049C11.1484 9.94383 11.0746 9.96414 10.9871 9.99425C10.4379 10.1798 9.80165 10.0244 9.38761 9.60353C9.23921 9.45509 9.03692 9.12844 8.39363 8.01336C7.94949 7.24208 7.5757 6.60874 7.56205 6.60874C7.55225 6.60874 7.4882 6.70642 7.421 6.8244Z" fill="#624DE3"/>
<path d="M11.6034 7.38002C12.0311 7.81485 12.1827 8.43138 11.994 8.987C11.9639 9.07802 11.5698 9.78208 11.1187 10.5572C10.6672 11.3285 10.2965 11.9685 10.2965 11.9786C10.2965 12.0189 10.7613 11.9986 11.0578 11.9482C12.5698 11.6891 13.7083 10.5471 13.9505 9.05072C14.0415 8.50525 14.0079 8.02666 13.843 7.4742L13.7555 7.18116H11.4081L11.6034 7.38002Z" fill="#624DE3"/>
<path d="M10.0137 7.29564C9.66025 7.44409 9.41771 7.69371 9.28646 8.04732C9.22591 8.20591 9.21576 8.29694 9.22591 8.54587C9.23641 8.80844 9.24971 8.88302 9.34736 9.07487C9.47546 9.33745 9.68405 9.54016 9.9602 9.6711C10.1219 9.74848 10.1891 9.75863 10.4992 9.75863C10.8124 9.75863 10.8761 9.74848 11.0448 9.6676C11.294 9.55347 11.5565 9.29054 11.6713 9.04091C11.7518 8.87286 11.762 8.80879 11.762 8.49545C11.762 8.18526 11.7518 8.11804 11.6745 7.95629C11.5432 7.68041 11.3413 7.47105 11.0784 7.34361C10.8796 7.24558 10.8187 7.23227 10.5324 7.22177C10.2566 7.21512 10.1859 7.22527 10.0144 7.29599L10.0137 7.29564Z" fill="#624DE3"/>
</g>
<defs>
<clipPath id="clip0_1_5443">
<rect width="20" height="20" fill="white"/>
</clipPath>
</defs>
</svg>
