<svg width="20" height="20" viewBox="0 0 20 20" fill="none" xmlns="http://www.w3.org/2000/svg">
<path d="M4.15447 13.4143C4.09406 13.1508 3.97322 12.8588 3.97081 12.5647C3.95872 11.5906 4.42997 10.7411 5.01721 9.93243C5.02929 9.91609 5.06071 9.90997 5.08246 9.89772C5.05346 10.0243 4.98579 10.1244 4.92296 10.2245C4.49038 10.9269 4.10131 11.6437 4.08197 12.4565C4.06989 12.8996 4.1738 13.3224 4.61846 13.6757C4.61363 13.5817 4.60155 13.5164 4.60397 13.449C4.61605 13.1345 4.60155 12.8159 4.64988 12.5055C4.77555 11.7234 5.10904 11.0025 5.5537 10.3061C5.84128 9.85279 6.19169 9.52605 6.77893 9.38923C6.86593 9.3688 6.94326 9.31571 7.06409 9.26057C6.89493 9.17072 6.76926 9.10945 6.64843 9.03798C6.3681 8.87665 6.29561 8.64589 6.44302 8.38654C6.51793 8.25584 6.58077 8.1129 6.69193 8.01079C7.10276 7.62687 7.31542 7.18781 7.26709 6.66707C7.26467 6.65482 7.26951 6.64052 7.27192 6.62827C7.30092 6.49145 7.26226 6.38525 7.14626 6.27294C6.69193 5.83388 6.7306 5.3744 7.24776 4.99865C7.37584 4.90675 7.37101 4.83936 7.31301 4.71684C7.09309 4.25123 7.04234 3.76929 7.24776 3.29143C7.41934 2.89321 7.91233 2.77069 8.27724 3.03616C8.52132 3.21383 8.70015 3.4405 8.74607 3.72232C8.76782 3.8571 8.77507 3.99392 8.78957 4.1287C9.09889 4.1287 9.39856 4.1287 9.71514 4.1287C9.71514 4.06131 9.7248 3.99596 9.71272 3.93266C9.66922 3.64676 9.79488 3.40375 9.9713 3.17299C10.329 2.70125 11.153 2.60323 11.5614 3.00145C11.9457 3.37516 12.1632 3.81626 12.0568 4.32679C12.0182 4.51058 11.9409 4.68825 11.878 4.87816C12.1173 5.00273 12.2888 5.18448 12.2598 5.43771C12.2333 5.65621 12.1438 5.8686 12.0907 6.0871C12.0689 6.17492 12.0327 6.28111 12.0689 6.36075C12.1728 6.6058 12.3082 6.84269 12.4338 7.08162C12.5764 7.35118 12.7311 7.61666 12.8664 7.88622C13.2192 8.58463 13.5648 9.28712 13.9104 9.98961C14.0457 10.2673 14.198 10.5451 14.2946 10.8351C14.5871 11.7254 14.6475 12.6342 14.5556 13.5511C14.5436 13.6593 14.5653 13.7104 14.6958 13.7553C14.9568 13.8431 15.0921 14.0228 15.0921 14.2658C15.0921 14.3639 15.0656 14.466 15.0825 14.5599C15.0994 14.6538 15.1356 14.7662 15.2105 14.8254C15.5054 15.05 15.9742 15.0541 16.3174 14.8785C16.7258 14.6681 16.9723 14.3455 17.2453 13.9799C16.5131 13.4857 15.7398 13.4081 14.8867 13.7512C14.981 13.6695 15.0752 13.5633 15.1864 13.549C15.515 13.5143 15.602 13.3203 15.677 13.1018C15.7205 12.9711 15.7736 12.8384 15.8171 12.7056C16.124 11.7132 15.9162 10.8126 15.1163 10.0345C14.9085 9.83033 14.6451 9.67104 14.4058 9.49133C14.9641 9.72822 15.4184 10.0713 15.735 10.5226C16.414 11.4906 16.1603 12.4749 15.7712 13.4592C16.6871 13.5123 17.0013 13.6062 17.3613 13.933C17.4894 13.9207 17.6151 13.9166 17.7335 13.8942C17.7891 13.884 17.8616 13.8452 17.8785 13.8064C17.9534 13.6266 18.0259 13.4449 18.067 13.2611C18.1903 12.7077 18.038 12.1726 17.8543 11.6499C17.4677 10.543 16.8224 9.54239 16.0322 8.60505C15.5368 8.01692 15.0245 7.43287 14.6064 6.80389C14.0095 5.90535 13.6953 4.92717 13.7171 3.8816C13.7267 3.50585 13.7002 3.11989 13.618 2.74822C13.473 2.09474 13.2144 1.46577 12.6441 0.987908C11.5663 0.0873295 10.2685 -0.196526 8.80165 0.132256C8.07424 0.293584 7.41692 0.575398 7.00368 1.14719C6.67018 1.61076 6.53968 2.12946 6.54452 2.65633C6.55418 3.62838 6.55418 4.60656 6.6726 5.57045C6.77893 6.42201 6.60252 7.15309 5.91378 7.79432C5.63828 8.04959 5.39904 8.33753 5.15737 8.62139C4.14722 9.79765 3.49473 11.125 2.89783 12.4769C2.74799 12.82 2.68516 13.1692 2.82533 13.5388C3.28207 13.2693 3.74123 13.1876 4.15447 13.4143ZM12.9244 5.92578C13.1492 6.02176 13.3642 6.13407 13.5672 6.26068C13.6446 6.3097 13.6712 6.41384 13.6953 6.45264C13.6953 6.6977 13.4996 6.81002 13.299 6.71608C12.9945 6.57313 12.835 6.33829 12.7698 6.05647C12.748 5.95641 12.8181 5.88085 12.9244 5.92578ZM11.2449 2.55218C11.6049 2.51338 11.9843 2.77681 12.0931 3.14644C11.878 2.88096 11.646 2.63386 11.2449 2.55218ZM11.3947 0.961361C11.6339 0.965445 11.7185 1.12065 11.7886 1.27381C11.8587 1.42901 11.6871 1.45351 11.5904 1.51886C11.5663 1.53316 11.5373 1.54337 11.5083 1.55154C11.1869 1.66794 11.1023 1.62097 11.1047 1.32486C11.1095 1.04713 11.1772 0.959318 11.3947 0.961361ZM8.8089 3.13827C8.57207 2.9749 8.33282 2.81153 8.11533 2.66245C8.36907 2.64203 8.69532 2.85033 8.8089 3.13827ZM7.748 18.6727C7.82533 18.9893 7.63925 19.2323 7.30817 19.4222C7.19942 19.4835 7.09793 19.5611 7.00851 19.6407C6.61218 19.992 6.12644 20.0614 5.59237 19.9532C5.31445 19.896 5.03654 19.8245 4.77071 19.7326C3.76298 19.3916 2.71899 19.169 1.65809 18.9872C1.29318 18.926 0.930689 18.8422 0.582695 18.736C0.0848691 18.587 -0.0722118 18.344 0.0292866 17.911C0.179118 17.2861 0.186367 16.6612 0.065536 16.0302C-0.0287125 15.5381 0.116285 15.3625 0.689026 15.2338C0.906523 15.1848 1.12402 15.1297 1.34635 15.097C1.75234 15.0357 2.05684 14.854 2.29608 14.5762C2.50633 14.3332 2.70933 14.078 2.95582 13.8635C3.39565 13.4817 3.78714 13.4674 4.19797 13.8594C4.65471 14.2965 5.07037 14.7662 5.45462 15.2501C6.10227 16.0609 6.64843 16.9267 7.39759 17.6844C7.66825 17.9539 7.7915 18.2786 7.748 18.6727ZM19.7176 17.4168C19.5025 17.5639 19.2608 17.6884 19.0167 17.8048C17.9824 18.3052 16.9771 18.8402 16.112 19.5406C15.689 19.8837 15.1815 19.996 14.6161 19.9899C14.4541 19.9797 14.2898 19.9817 14.1279 19.9634C13.5334 19.898 13.183 19.6101 13.0549 19.1159C12.951 18.7075 12.9848 18.3011 13.0863 17.9049C13.3691 16.8164 13.3836 15.7137 13.3981 14.6109C13.4077 14.1106 13.5479 13.9595 14.2076 13.9799C14.6668 13.9922 14.7272 14.0473 14.6765 14.4231C14.6185 14.8887 15.0269 15.2399 15.6528 15.2889C16.3464 15.3461 16.7886 15.0132 17.1946 14.615C17.2792 14.5313 17.3396 14.4292 17.4145 14.3373C17.5958 14.1147 17.9558 14.127 18.0815 14.3781C18.1564 14.5293 18.1951 14.7131 18.1733 14.8744C18.1178 15.2481 18.299 15.534 18.5962 15.7709C18.9297 16.0343 19.2802 16.2855 19.6523 16.5101C20.0776 16.7654 20.1284 17.135 19.7176 17.4168ZM8.79682 7.10613C9.39131 7.19394 9.93263 7.08162 10.4329 6.7896C10.7011 6.63439 10.979 6.47715 11.2787 6.37913C11.733 6.23005 11.9674 5.98091 12.0013 5.57249C12.0303 5.23758 11.9578 5.11301 11.5784 4.98435C11.3923 4.92105 11.1989 4.86591 10.9694 4.79648C11.2835 4.70662 11.4672 4.55959 11.4938 4.30637C11.5179 4.0654 11.4334 3.84893 11.2424 3.67127C11.066 3.50994 10.8292 3.52015 10.6093 3.58345C10.3628 3.65493 10.2951 3.84893 10.2758 4.04293C10.2589 4.21447 10.2734 4.38601 10.2734 4.55959C9.65955 4.23285 9.01915 4.26348 8.36666 4.47586C8.34007 4.27982 8.34007 4.07969 8.27966 3.89386C8.20957 3.66922 7.95825 3.53444 7.74075 3.56507C7.5305 3.59366 7.39276 3.77133 7.38309 4.01843C7.36859 4.35334 7.55225 4.6086 7.835 4.83732C7.69 4.94351 7.55225 5.03745 7.41934 5.13751C6.97951 5.46221 6.94326 5.81142 7.35651 6.17287C7.68758 6.45877 8.04766 6.72221 8.41016 6.98156C8.51407 7.05099 8.66632 7.08775 8.79682 7.10613ZM10.9814 3.70598C11.0564 3.74887 11.1434 3.78154 11.1965 3.83872C11.2304 3.87548 11.211 3.94695 11.2183 4.00413C11.1941 4.00822 11.1699 4.0123 11.1458 4.01639C11.0733 3.93266 10.9984 3.84689 10.9259 3.76316C10.9452 3.74478 10.9621 3.72436 10.9814 3.70598ZM9.43964 4.5453C9.55805 4.55959 9.6813 4.56163 9.79247 4.59635C9.83597 4.6086 9.84805 4.69233 9.87463 4.74542C9.85288 4.75972 9.82872 4.77606 9.80697 4.79035C9.67405 4.73521 9.54355 4.68212 9.41306 4.62698C9.42031 4.59839 9.42997 4.57184 9.43964 4.5453ZM8.53099 4.6086C8.5914 4.58205 8.67357 4.58818 8.74365 4.58001C8.75332 4.59839 8.76057 4.61677 8.77023 4.63515C8.71465 4.67395 8.6639 4.725 8.60107 4.74542C8.54549 4.7638 8.47299 4.74747 8.40774 4.74338C8.44641 4.69846 8.4754 4.63515 8.53099 4.6086ZM7.83016 3.77746C7.84225 3.76316 7.85433 3.74887 7.86641 3.73661C7.92683 3.75703 8.02349 3.7652 8.04041 3.79992C8.08391 3.88365 8.08874 3.98167 8.11049 4.07356C8.08149 4.07356 8.05491 4.07356 8.02833 4.07152C7.96308 3.9735 7.89783 3.87548 7.83016 3.77746ZM7.17284 5.79916C7.19701 5.78078 7.21876 5.76241 7.24292 5.74607C7.31542 5.78895 7.39275 5.82571 7.458 5.87676C8.17574 6.43018 8.98048 6.44652 9.81663 6.12182C10.3217 5.92373 10.8002 5.67459 11.2956 5.45609C11.3995 5.40912 11.5204 5.39686 11.6339 5.36623C11.646 5.38665 11.6533 5.40707 11.6654 5.42954C11.6267 5.4663 11.5977 5.51531 11.5494 5.53981C10.8558 5.90127 10.1864 6.30561 9.37439 6.46081C8.62524 6.60376 7.93891 6.49553 7.37101 6.0238C7.29126 5.96049 7.23809 5.87268 7.17284 5.79916ZM12.8761 16.7327C12.7577 17.5292 12.6441 18.2807 12.5281 19.0628C11.1095 18.7606 9.6378 19.0301 8.18541 19.0281C8.15399 18.687 8.12016 18.3399 8.08874 17.9907C9.86497 18.1745 11.4914 17.8355 12.8761 16.7327ZM6.69435 15.2828C6.92635 15.4462 7.15834 15.6136 7.37584 15.7893C7.58125 15.9547 7.63683 16.1732 7.603 16.4039C7.574 16.602 7.35651 16.7776 7.12693 16.7695C7.05926 16.7674 6.97709 16.6919 6.93118 16.6347C6.42369 15.9608 5.91861 15.2828 5.4087 14.6089C5.29029 14.4537 5.15737 14.3087 5.02929 14.1617C5.03412 14.1535 5.04137 14.1453 5.04621 14.1372C5.5972 14.5191 6.14819 14.8989 6.69435 15.2828Z" fill="#624DE3"/>
</svg>
