<svg width="20" height="20" viewBox="0 0 20 20" fill="none" xmlns="http://www.w3.org/2000/svg">
<path d="M18.362 15.9236C18.0827 15.6443 17.6313 15.6443 17.352 15.9236C17.0727 16.2029 17.0727 16.6543 17.352 16.9336L17.5613 17.1429H14.7278C16.7906 15.7729 18.2277 13.5351 18.5148 10.9537L18.7806 11.2194C18.9198 11.3586 19.1027 11.4286 19.2855 11.4286C19.4684 11.4286 19.6513 11.3586 19.7905 11.2194C20.0698 10.9401 20.0698 10.4887 19.7905 10.2094L18.4948 8.91367C17.9977 5.01156 14.8742 1.92159 10.9543 1.48517L11.22 1.21945C11.4993 0.94017 11.4993 0.488746 11.22 0.209462C10.9407 -0.0698208 10.4893 -0.0698208 10.21 0.209462L8.9143 1.50517C5.01152 2.0023 1.92157 5.12656 1.48515 9.04653L1.21944 8.78082C0.940162 8.50153 0.488741 8.50153 0.209461 8.78082C-0.0698202 9.0601 -0.0698202 9.51152 0.209461 9.79081L1.50515 11.0865C1.82657 13.6115 3.24441 15.7965 5.27223 17.1429H0.714451C0.319459 17.1429 0.000178582 17.4629 0.000178582 17.8572C0.000178582 18.2514 0.319459 18.5714 0.714451 18.5714H17.5613L17.352 18.7807C17.0727 19.06 17.0727 19.5114 17.352 19.7907C17.4913 19.93 17.6741 20 17.857 20C18.0399 20 18.2227 19.93 18.362 19.7907L19.7905 18.3622C20.0698 18.0829 20.0698 17.6314 19.7905 17.3522L18.362 15.9236ZM2.92655 10.9408L4.07653 9.79081C4.35581 9.51152 4.35581 9.0601 4.07653 8.78082C3.79725 8.50153 3.34583 8.50153 3.06655 8.78082L2.95155 8.89581C3.43726 5.78727 5.92864 3.34158 9.0593 2.92658L10.2093 4.07657C10.3486 4.21586 10.5314 4.28585 10.7143 4.28585C10.8971 4.28585 11.08 4.21586 11.2193 4.07657C11.4985 3.79729 11.4985 3.34586 11.2193 3.06658L11.1043 2.95158C14.2121 3.43729 16.6585 5.9287 17.0734 9.05938L15.9235 10.2094C15.6442 10.4887 15.6442 10.9401 15.9235 11.2194C16.2027 11.4986 16.6542 11.4986 16.9334 11.2194L17.0484 11.1044C16.5149 14.5193 13.5621 17.1429 10 17.1429C6.38149 17.1429 3.3894 14.4351 2.92655 10.9408Z" fill="#624DE3"/>
</svg>
