<svg width="16" height="16" viewBox="0 0 16 16" fill="none" xmlns="http://www.w3.org/2000/svg">
<path d="M3.83333 12.1667H5.5V8H3.83333V12.1667ZM10.5 12.1667H12.1667V3.83333H10.5V12.1667ZM7.16667 12.1667H8.83333V9.66667H7.16667V12.1667ZM7.16667 8H8.83333V6.33333H7.16667V8ZM2.16667 15.5C1.70833 15.5 1.31583 15.3369 0.989167 15.0108C0.663058 14.6842 0.5 14.2917 0.5 13.8333V2.16667C0.5 1.70833 0.663058 1.31583 0.989167 0.989167C1.31583 0.663058 1.70833 0.5 2.16667 0.5H13.8333C14.2917 0.5 14.6842 0.663058 15.0108 0.989167C15.3369 1.31583 15.5 1.70833 15.5 2.16667V13.8333C15.5 14.2917 15.3369 14.6842 15.0108 15.0108C14.6842 15.3369 14.2917 15.5 13.8333 15.5H2.16667ZM2.16667 13.8333H13.8333V2.16667H2.16667V13.8333Z" fill="#624DE3"/>
</svg>
