<svg width="20" height="20" viewBox="0 0 20 20" fill="none" xmlns="http://www.w3.org/2000/svg">
<path d="M18.1724 10.6163L17.4891 10.0913C17.4891 10.0163 17.4891 9.98301 17.4891 9.90801L18.1557 9.38301C18.2891 9.28301 18.3224 9.09968 18.2391 8.95801L17.5307 7.72468C17.4724 7.61634 17.3557 7.55801 17.2391 7.55801C17.1974 7.55801 17.1557 7.56634 17.1141 7.58301L16.3224 7.89967C16.2557 7.85801 16.2307 7.84134 16.1641 7.80801L16.0391 6.96634C16.0141 6.79134 15.8724 6.66634 15.7057 6.66634H14.2807C14.1141 6.66634 13.9724 6.79134 13.9474 6.94968L13.8307 7.79134C13.8057 7.80801 13.7724 7.81634 13.7474 7.83301C13.7224 7.84967 13.6974 7.86634 13.6724 7.88301L12.8807 7.56634C12.8391 7.54967 12.7974 7.54134 12.7557 7.54134C12.6391 7.54134 12.5307 7.59967 12.4641 7.70801L11.7557 8.94134C11.6724 9.08301 11.7057 9.26634 11.8391 9.36634L12.5057 9.89134C12.5057 9.96634 12.5057 9.99967 12.5057 10.083L11.8391 10.608C11.7057 10.708 11.6724 10.8913 11.7557 11.033L12.4641 12.2663C12.5224 12.3747 12.6391 12.433 12.7557 12.433C12.7974 12.433 12.8391 12.4247 12.8807 12.408L13.6724 12.0997C13.7391 12.1413 13.7724 12.158 13.8391 12.1913L13.9641 13.033C13.9891 13.1997 14.1307 13.3163 14.2974 13.3163H15.7224C15.8891 13.3163 16.0307 13.1913 16.0557 13.033L16.1807 12.1913C16.2057 12.1747 16.2391 12.1663 16.2641 12.1497C16.2891 12.133 16.3141 12.1163 16.3391 12.0997L17.1307 12.4163C17.1724 12.433 17.2141 12.4413 17.2557 12.4413C17.3724 12.4413 17.4807 12.383 17.5474 12.2747L18.2557 11.0413C18.3391 10.8997 18.3057 10.7163 18.1724 10.6163ZM14.9974 11.2497C14.3057 11.2497 13.7474 10.6913 13.7474 9.99967C13.7474 9.30801 14.3057 8.74967 14.9974 8.74967C15.6891 8.74967 16.2474 9.30801 16.2474 9.99967C16.2474 10.6913 15.6891 11.2497 14.9974 11.2497ZM14.1641 14.9997H5.83073V4.99967H14.1641V5.83301H15.8307V2.49967C15.8307 1.58301 15.0807 0.833008 14.1641 0.833008H5.83073C4.91406 0.833008 4.16406 1.58301 4.16406 2.49967V17.4997C4.16406 18.4163 4.91406 19.1663 5.83073 19.1663H14.1641C15.0807 19.1663 15.8307 18.4163 15.8307 17.4997V14.1663H14.1641V14.9997ZM5.83073 2.49967H14.1641V3.33301H5.83073V2.49967ZM14.1641 17.4997H5.83073V16.6663H14.1641V17.4997Z" fill="#624DE3"/>
</svg>
