<svg width="20" height="20" viewBox="0 0 20 20" fill="none" xmlns="http://www.w3.org/2000/svg">
<g clip-path="url(#clip0_7136_26456)">
<path d="M18.3307 4.31699L8.8224 13.8337L5.28906 10.3003L6.46406 9.12533L8.8224 11.4837L17.1557 3.15033L18.3307 4.31699ZM9.9974 16.667C6.3224 16.667 3.33073 13.6753 3.33073 10.0003C3.33073 6.32533 6.3224 3.33366 9.9974 3.33366C11.3057 3.33366 12.5307 3.71699 13.5641 4.37533L14.7724 3.16699C13.4141 2.22533 11.7724 1.66699 9.9974 1.66699C5.3974 1.66699 1.66406 5.40033 1.66406 10.0003C1.66406 14.6003 5.3974 18.3337 9.9974 18.3337C11.4391 18.3337 12.7974 17.967 13.9807 17.317L12.7307 16.067C11.8974 16.4503 10.9724 16.667 9.9974 16.667ZM15.8307 12.5003H13.3307V14.167H15.8307V16.667H17.4974V14.167H19.9974V12.5003H17.4974V10.0003H15.8307V12.5003Z" fill="#624DE3"/>
</g>
<defs>
<clipPath id="clip0_7136_26456">
<rect width="20" height="20" fill="white"/>
</clipPath>
</defs>
</svg>
