<svg width="20" height="20" viewBox="0 0 20 20" fill="none" xmlns="http://www.w3.org/2000/svg">
<g clip-path="url(#clip0_7132_9970)">
<path d="M10.0026 6.66634C8.16094 6.66634 6.66927 8.15801 6.66927 9.99967C6.66927 11.8413 8.16094 13.333 10.0026 13.333C11.8443 13.333 13.3359 11.8413 13.3359 9.99967C13.3359 8.15801 11.8443 6.66634 10.0026 6.66634ZM17.4526 9.16634C17.0693 5.69134 14.3109 2.93301 10.8359 2.54967V0.833008H9.16927V2.54967C5.69427 2.93301 2.93594 5.69134 2.5526 9.16634H0.835938V10.833H2.5526C2.93594 14.308 5.69427 17.0663 9.16927 17.4497V19.1663H10.8359V17.4497C14.3109 17.0663 17.0693 14.308 17.4526 10.833H19.1693V9.16634H17.4526ZM10.0026 15.833C6.7776 15.833 4.16927 13.2247 4.16927 9.99967C4.16927 6.77467 6.7776 4.16634 10.0026 4.16634C13.2276 4.16634 15.8359 6.77467 15.8359 9.99967C15.8359 13.2247 13.2276 15.833 10.0026 15.833Z" fill="#624DE3"/>
</g>
<defs>
<clipPath id="clip0_7132_9970">
<rect width="20" height="20" fill="white"/>
</clipPath>
</defs>
</svg>
