<svg width="20" height="20" viewBox="0 0 20 20" fill="none" xmlns="http://www.w3.org/2000/svg">
<path d="M7.76085 8.82714L9.91133 6.22819L9.91144 6.22805C10.0223 6.09436 10.182 6.00942 10.3556 5.99307L10.3556 5.99307C10.5292 5.97678 10.7015 6.02949 10.8359 6.13985L10.836 6.13995L13.2827 8.15246L13.9976 7.39093C13.765 6.40584 13.2617 5.50158 12.5235 4.76724C10.3654 2.62039 6.85373 2.62039 4.69563 4.76724C3.87966 5.57896 3.34696 6.60305 3.15385 7.72989C3.09287 8.08651 2.75266 8.32468 2.39673 8.2644C2.03949 8.20404 1.79846 7.86661 1.85939 7.51006L1.8594 7.50998C2.09855 6.11475 2.75836 4.84601 3.7677 3.84193C6.43752 1.18602 10.7812 1.18603 13.4515 3.84192L13.4515 3.84193C14.1603 4.54704 14.6946 5.37966 15.033 6.28808L15.9798 5.27954H15.206C14.844 5.27954 14.5495 4.98761 14.5495 4.62562C14.5495 4.26362 14.844 3.9717 15.206 3.9717H17.4927C17.4983 3.9717 17.503 3.97195 17.5063 3.97218L17.5111 3.97256C17.5234 3.97268 17.5357 3.9733 17.548 3.97441L17.5501 3.9746L17.5501 3.97462L17.5719 3.97699C17.5722 3.97702 17.5726 3.97706 17.573 3.97709C17.5867 3.97843 17.5998 3.98041 17.6127 3.98298L17.6142 3.98328L17.6142 3.98329L17.6262 3.9858L17.6383 3.98832L17.6456 3.98985L17.6455 3.99003L17.6575 3.99318L17.6696 3.99633C17.6821 3.99959 17.6935 4.00324 17.7024 4.0062C17.713 4.0097 17.7234 4.01353 17.7326 4.01708L17.7392 4.01963L17.7391 4.01979L17.7485 4.02382L17.7588 4.02828C17.7707 4.03329 17.7828 4.03938 17.7883 4.04217C17.7892 4.04262 17.7899 4.04299 17.7904 4.04325L17.7935 4.0448L17.7935 4.04483L17.7943 4.04527C17.8011 4.04881 17.8108 4.05393 17.8209 4.05985C17.8304 4.06539 17.839 4.07076 17.8474 4.0762C17.8537 4.08023 17.8649 4.0874 17.8763 4.09583M7.76085 8.82714L17.8771 4.09638C17.8768 4.09619 17.8766 4.09601 17.8763 4.09583M7.76085 8.82714L5.69341 7.06792L5.6933 7.06782C5.42461 6.83965 5.02229 6.86308 4.78339 7.12301C4.78337 7.12304 4.78335 7.12306 4.78332 7.12308L2.18232 9.94442L2.18225 9.94449C2.02736 10.1127 1.97127 10.3499 2.03551 10.5694L2.03551 10.5695C2.35548 11.6627 2.95461 12.6682 3.76812 13.4774C5.1036 14.806 6.85691 15.4696 8.61022 15.4696C10.1576 15.4696 11.7056 14.952 12.966 13.9171L17.0289 17.9589C17.1571 18.0865 17.3253 18.15 17.4931 18.15C17.6611 18.15 17.8287 18.0863 17.9571 17.9592L17.9573 17.9589C18.2142 17.7034 18.2142 17.2892 17.9573 17.0336L17.9468 17.0232L17.9455 17.0224L13.8946 12.9925C14.9065 11.7751 15.4573 10.2589 15.4573 8.65948C15.4573 8.37222 15.4397 8.08773 15.4045 7.8067L16.8353 6.28243V7.00075C16.8353 7.36274 17.1299 7.65467 17.4919 7.65467C17.8538 7.65467 18.1484 7.36274 18.1484 7.00075V4.62562V4.6256V4.62558V4.62557V4.62555V4.62553V4.62552V4.6255V4.62548V4.62546V4.62545V4.62543V4.62541V4.6254V4.62538V4.62536V4.62534V4.62533V4.62531V4.62529V4.62528V4.62526V4.62524V4.62523V4.62521V4.62519V4.62517V4.62516V4.62514V4.62512V4.62511V4.62509V4.62507V4.62506V4.62504V4.62502V4.625V4.62499V4.62497V4.62495V4.62494V4.62492V4.6249V4.62489V4.62487V4.62485V4.62484V4.62482V4.6248V4.62479V4.62477V4.62475V4.62474V4.62472V4.6247V4.62469V4.62467V4.62465V4.62464V4.62462V4.6246V4.62459V4.62457V4.62455V4.62454V4.62452V4.6245V4.62449V4.62447V4.62445V4.62444V4.62442V4.6244V4.62439V4.62437V4.62435V4.62434V4.62432V4.6243V4.62429V4.62427V4.62425V4.62424V4.62422V4.6242V4.62419V4.62417V4.62415V4.62414V4.62412V4.62411V4.62409V4.62407V4.62406V4.62404V4.62402V4.62401V4.62399V4.62397V4.62396V4.62394V4.62392V4.62391V4.62389V4.62388V4.62386V4.62384V4.62383V4.62381V4.62379V4.62378V4.62376V4.62375V4.62373V4.62371V4.6237V4.62368V4.62366V4.62365V4.62363V4.62362V4.6236V4.62358V4.62357V4.62355V4.62353V4.62352V4.6235V4.62349V4.62347V4.62345V4.62344V4.62342V4.62341V4.62339V4.62337V4.62336V4.62334V4.62333V4.62331V4.62329V4.62328V4.62326V4.62325V4.62323V4.62321V4.6232V4.62318V4.62316V4.62315V4.62313V4.62312V4.6231V4.62308V4.62307V4.62305V4.62304V4.62302V4.62301V4.62299V4.62297V4.62296V4.62294V4.62293V4.62291V4.62289V4.62288V4.62286V4.62285V4.62283V4.62281V4.6228V4.62278V4.62277V4.62275V4.62274V4.62272V4.6227V4.62269V4.62267V4.62266V4.62264V4.62262V4.62261V4.62259V4.62258V4.62256V4.62255V4.62253V4.62251V4.6225V4.62248V4.62247V4.62245V4.62244V4.62242V4.6224V4.62239V4.62237V4.62236V4.62234V4.62233V4.62231V4.62229V4.62228V4.62226V4.62225V4.62223V4.62222V4.6222V4.62218V4.62217V4.62215V4.62214V4.62212V4.62211V4.62209V4.62208V4.62206V4.62204V4.62203V4.62201V4.622V4.62198V4.62197V4.62195V4.62194V4.62192V4.6219V4.62189V4.62187V4.62186V4.62184V4.62183V4.62181V4.6218V4.62178V4.62177V4.62175V4.62173V4.62172V4.6217V4.62169V4.62167V4.62166V4.62164V4.62163V4.62161V4.6216V4.62158V4.62156V4.62155V4.62153V4.62152V4.6215V4.62149V4.62147V4.62146V4.62144V4.62143V4.62141V4.6214V4.62138V4.62136V4.62135V4.62133V4.62132V4.6213V4.62129V4.62127V4.62126V4.62124V4.62123V4.62121V4.6212V4.62118V4.62117V4.62115V4.62113V4.62112V4.6211V4.62109V4.62107V4.62106V4.62104V4.62103V4.62101V4.621V4.62098V4.62097V4.62095V4.62094V4.62092V4.62091V4.62089V4.62088V4.62086V4.62085V4.62083V4.62081V4.6208V4.62078V4.62077V4.62075V4.62074V4.62072V4.62071V4.62069V4.62068V4.62066V4.62065V4.62063V4.62062V4.6206V4.62059V4.62057V4.62056V4.62054V4.62053V4.62051V4.6205V4.62048V4.62047V4.62045V4.62044V4.62042V4.62041V4.62039V4.62038V4.62036V4.62035V4.62033V4.62032V4.6203V4.62029V4.62027V4.62026V4.62024V4.62023V4.62021V4.6202V4.62018V4.62017V4.62015V4.62014V4.62012V4.62011V4.62009V4.62007V4.62006V4.62004V4.62003V4.62001V4.62V4.61998V4.61997V4.61996V4.61994V4.61993V4.61991V4.61989V4.61988V4.61987V4.61985V4.61984V4.61982V4.61981V4.61979V4.61978V4.61976V4.61975V4.61973V4.61972V4.6197V4.61969V4.61967V4.61966V4.61964V4.61963V4.61961V4.6196V4.61958V4.61957V4.61955V4.61954V4.61952V4.61951V4.61949V4.61948V4.61946V4.61945V4.61943V4.61942V4.6194V4.61939V4.61937V4.61936V4.61934V4.61933V4.61931V4.6193V4.61928V4.61927V4.61925V4.61924V4.61922V4.61921V4.61919V4.61918V4.61916V4.61915V4.61913V4.61912V4.6191V4.61909V4.61907V4.61906V4.61905V4.61903V4.61902V4.619V4.61899V4.61897V4.61896V4.61894V4.61893V4.61891V4.6189V4.61888V4.61887V4.61885V4.61884V4.61882V4.61881V4.61879V4.61878V4.61876V4.61875V4.61873V4.61872V4.6187V4.61869V4.61867V4.61866V4.61864V4.61863V4.61862V4.6186V4.61859V4.61857V4.61856V4.61854V4.61853V4.61851V4.6185V4.61848V4.61847V4.61845V4.61844V4.61842V4.61841V4.61839V4.61838V4.61836V4.61835V4.61833V4.61832V4.6183V4.61829V4.61828V4.61826V4.61825V4.61823V4.61822V4.6182V4.61819V4.61817V4.61816V4.61814V4.61813V4.61811V4.6181V4.61808V4.61807V4.61805V4.61804V4.61802V4.61801V4.61799V4.61798V4.61796V4.61795V4.61794V4.61792V4.61791V4.61789V4.61788V4.61786V4.61785V4.61783V4.61782V4.6178V4.61779V4.61777V4.61776V4.61774V4.61773V4.61771V4.6177V4.61768V4.61767V4.61765V4.61764C18.1484 4.60871 18.148 4.60072 18.1477 4.59523L18.147 4.58308L18.1469 4.58156L18.1468 4.58005C18.1465 4.57354 18.1459 4.56233 18.1446 4.551L7.76085 8.82714ZM17.8763 4.09583C17.882 4.09996 17.89 4.10583 17.8985 4.11249M17.8763 4.09583L17.8985 4.11249M17.8985 4.11249C17.9079 4.11971 17.9163 4.12696 17.9223 4.13216C17.9258 4.1349 17.9307 4.13881 17.9359 4.14335C17.943 4.14936 17.948 4.1546 17.95 4.15667C17.9503 4.157 17.9509 4.15758 17.9513 4.15807C17.9593 4.16603 17.9668 4.17399 17.9723 4.1799L17.9726 4.18018L17.9732 4.1809C17.9783 4.18633 17.9855 4.19409 17.9926 4.20226L17.9959 4.20612L17.9958 4.20617L18.0052 4.21805L18.0099 4.22418C18.0101 4.22445 18.0103 4.22471 18.0105 4.22497L18.0106 4.22507L17.8937 4.31907C17.8992 4.32579 17.9043 4.33251 17.9093 4.33965L17.8985 4.11249ZM10.5064 7.56477L8.34882 10.172L8.2368 10.0793L8.34882 10.172C8.23673 10.3074 8.07498 10.3922 7.89969 10.4076L10.5064 7.56477ZM10.5064 7.56477L12.9224 9.55219L12.9225 9.55223C13.1898 9.77199 13.5828 9.747 13.8201 9.49459L13.8202 9.49449L14.1208 9.17426C14.0027 10.45 13.4462 11.6339 12.5235 12.5517C10.3654 14.6986 6.85373 14.6986 4.69563 12.5517C4.12432 11.9834 3.68369 11.2954 3.40871 10.5463L5.32131 8.47156L7.41547 10.2536L7.41562 10.2537C7.54935 10.3672 7.72364 10.4233 7.89946 10.4076C7.89939 10.4076 7.89931 10.4076 7.89923 10.4076L10.5064 7.56477ZM18.0494 4.28008C18.046 4.27432 18.0394 4.26335 18.0309 4.25174L18.1417 4.52966L18.14 4.51969L18.1398 4.51854L18.1394 4.51622C18.1384 4.50953 18.1366 4.4979 18.1342 4.48664L18.1338 4.48499C18.1314 4.47391 18.1284 4.4634 18.1265 4.45642C18.1242 4.44744 18.1216 4.43764 18.1184 4.42693L18.1185 4.42691L18.117 4.42259C18.1131 4.41092 18.1087 4.39988 18.106 4.39295L18.1029 4.38437C18.1013 4.37996 18.0986 4.37272 18.095 4.36464C18.0915 4.35646 18.088 4.34947 18.0856 4.34466L18.0801 4.33401C18.08 4.33379 18.0798 4.3334 18.0795 4.33286C18.0777 4.32904 18.0721 4.31774 18.066 4.30724C18.0618 4.29963 18.0579 4.29331 18.0552 4.28913L18.05 4.28107L18.0494 4.28008Z" fill="#624DE3" stroke="#624DE3" stroke-width="0.3"/>
</svg>
