<svg width="21" height="21" viewBox="0 0 21 21" fill="none" xmlns="http://www.w3.org/2000/svg">
<g clip-path="url(#clip0_712_18701)">
<mask id="path-1-outside-1_712_18701" maskUnits="userSpaceOnUse" x="1.42188" y="0.202148" width="18" height="20" fill="black">
<rect fill="white" x="1.42188" y="0.202148" width="18" height="20"/>
<path d="M19.1777 11.7189C19.1979 11.9508 19.1665 12.1842 19.0856 12.4028C19.0048 12.6214 18.8765 12.82 18.7097 12.9845L14.2803 17.3553C13.9639 17.6649 13.5888 17.9098 13.1764 18.0761C12.764 18.2424 12.3224 18.3268 11.8768 18.3245H6.40746L5.02278 19.687C4.93237 19.7762 4.80976 19.8263 4.6819 19.8263C4.55405 19.8263 4.43144 19.7762 4.34103 19.687C4.25062 19.5978 4.19984 19.4768 4.19984 19.3507C4.19984 19.2245 4.25062 19.1035 4.34103 19.0143L5.86244 17.513C5.90724 17.4689 5.9604 17.434 6.01889 17.4102C6.07738 17.3864 6.14005 17.3742 6.20332 17.3743H11.8768C12.1988 17.3756 12.5178 17.3138 12.8154 17.1925C13.1129 17.0711 13.383 16.8926 13.6101 16.6674L18.0395 12.2966C18.1562 12.1739 18.2199 12.0112 18.2172 11.8429C18.2144 11.6747 18.1455 11.5141 18.0249 11.3951C17.9043 11.2761 17.7416 11.208 17.571 11.2054C17.4005 11.2027 17.2356 11.2655 17.1113 11.3806L13.6159 14.8659L13.6043 14.8754C13.3034 15.1696 12.8974 15.3354 12.4738 15.3371H9.094C8.96631 15.3371 8.84385 15.2871 8.75356 15.198C8.66327 15.1089 8.61254 14.9881 8.61254 14.8621C8.61254 14.7361 8.66327 14.6152 8.75356 14.5261C8.84385 14.437 8.96631 14.387 9.094 14.387H12.4758C12.6238 14.3863 12.7672 14.3361 12.8826 14.2447C12.998 14.1532 13.0787 14.0259 13.1113 13.8834C13.1323 13.7895 13.1318 13.6922 13.1096 13.5986C13.0875 13.505 13.0443 13.4175 12.9833 13.3425C12.9223 13.2676 12.845 13.2071 12.7572 13.1655C12.6694 13.1239 12.5732 13.1024 12.4758 13.1023H6.64241C6.37519 13.1016 6.11047 13.1531 5.86354 13.2539C5.61662 13.3547 5.39238 13.5027 5.20381 13.6896L4.35259 14.5276C4.30935 14.5773 4.25618 14.6176 4.19641 14.646C4.13663 14.6745 4.07155 14.6904 4.00524 14.6928C3.93893 14.6953 3.87283 14.6841 3.81108 14.6602C3.74933 14.6362 3.69327 14.5999 3.64642 14.5535C3.59956 14.5072 3.56293 14.4517 3.53881 14.3907C3.51469 14.3297 3.50361 14.2645 3.50627 14.1991C3.50892 14.1336 3.52526 14.0695 3.55424 14.0106C3.58322 13.9517 3.62423 13.8993 3.67469 13.8568L4.52591 13.0187C4.80344 12.7433 5.13356 12.5249 5.49718 12.3761C5.8608 12.2274 6.25071 12.1513 6.64433 12.1522H12.4758C12.7951 12.1512 13.1074 12.2444 13.3726 12.4198C13.6379 12.5952 13.8439 12.8448 13.9644 13.1366L16.418 10.7155C16.6367 10.4997 16.9136 10.3502 17.2158 10.2847C17.518 10.2192 17.8328 10.2405 18.1231 10.346C18.4134 10.4516 18.667 10.637 18.8539 10.8803C19.0408 11.1236 19.1532 11.4146 19.1777 11.7189ZM15.326 5.4478C15.2674 5.30018 15.1787 5.166 15.0654 5.05356C14.9521 4.94112 14.8166 4.85281 14.6674 4.79408L13.4291 4.3114L13.1903 3.01917C13.1615 2.86295 13.1004 2.71425 13.0108 2.58237C12.9211 2.45049 12.8049 2.33825 12.6694 2.25266C12.5339 2.16706 12.3819 2.10996 12.223 2.0849C12.0641 2.05984 11.9017 2.06736 11.7459 2.10701L10.4536 2.42817L9.49072 1.52171C9.37447 1.41223 9.23663 1.32754 9.08578 1.2729C8.93493 1.21827 8.77429 1.19485 8.61387 1.20412C8.45345 1.21339 8.29668 1.25515 8.15333 1.32678C8.00997 1.39842 7.88308 1.49841 7.78058 1.62052L6.93321 2.6334L5.61401 2.45857C5.45458 2.43738 5.29243 2.44884 5.13769 2.49222C4.98294 2.53561 4.83892 2.60999 4.7146 2.71073C4.59027 2.81148 4.48832 2.93642 4.41511 3.07776C4.34189 3.21911 4.29897 3.37382 4.28903 3.53226L4.20622 4.84349L3.03146 5.4668C2.89141 5.54229 2.76848 5.64523 2.67021 5.7693C2.57195 5.89337 2.50042 6.03595 2.46002 6.18829C2.41962 6.34062 2.4112 6.4995 2.43529 6.65516C2.45937 6.81082 2.51545 6.95999 2.60007 7.09349L3.31456 8.20328L2.73681 9.38719C2.6671 9.5303 2.62804 9.68605 2.62206 9.84472C2.61607 10.0034 2.6433 10.1616 2.70203 10.3094C2.76076 10.4572 2.84974 10.5915 2.96341 10.7039C3.07708 10.8163 3.21301 10.9043 3.3627 10.9626L4.84945 11.5422C4.90825 11.5651 4.97106 11.5764 5.03429 11.5754C5.09752 11.5745 5.15993 11.5612 5.21796 11.5364C5.27599 11.5116 5.3285 11.4758 5.3725 11.4309C5.4165 11.3861 5.45112 11.3332 5.47439 11.2752C5.49765 11.2172 5.50911 11.1552 5.50811 11.0928C5.5071 11.0304 5.49365 10.9688 5.46852 10.9115C5.4434 10.8543 5.40709 10.8025 5.36167 10.7591C5.31625 10.7156 5.26261 10.6815 5.20381 10.6585L3.71706 10.0789C3.69049 10.0686 3.66635 10.053 3.64614 10.0331C3.62594 10.0132 3.61011 9.98942 3.59963 9.96322C3.58915 9.93701 3.58425 9.90896 3.58524 9.8808C3.58622 9.85265 3.59307 9.825 3.60536 9.79957L4.29674 8.37812C4.33214 8.3055 4.34824 8.22518 4.34352 8.14473C4.3388 8.06429 4.31343 7.98634 4.26977 7.91823L3.41278 6.588C3.39746 6.5642 3.38727 6.53753 3.38286 6.50967C3.37845 6.48181 3.3799 6.45335 3.38713 6.42607C3.39436 6.39879 3.40721 6.37327 3.42487 6.35111C3.44254 6.32894 3.46464 6.31061 3.48981 6.29725L4.8976 5.54852C4.96847 5.511 5.0287 5.45656 5.07277 5.39017C5.11684 5.32378 5.14335 5.24755 5.14988 5.16845L5.25003 3.59497C5.25156 3.56677 5.25903 3.5392 5.27196 3.514C5.2849 3.48881 5.303 3.46655 5.32513 3.44865C5.34697 3.43029 5.37252 3.41673 5.40008 3.40887C5.42764 3.401 5.45658 3.39902 5.48498 3.40304L7.06994 3.61397C7.15093 3.6252 7.23348 3.61572 7.30969 3.58644C7.3859 3.55716 7.45322 3.50906 7.50518 3.44675L8.52395 2.23053C8.5422 2.20879 8.56479 2.191 8.59032 2.17827C8.61584 2.16554 8.64376 2.15814 8.67232 2.15653C8.70087 2.15493 8.72946 2.15915 8.75629 2.16894C8.78311 2.17873 8.80761 2.19387 8.82824 2.21343L9.98374 3.30232C10.0429 3.35815 10.1155 3.39811 10.1947 3.4184C10.274 3.43869 10.3571 3.43863 10.4363 3.41824L11.977 3.02487C12.0046 3.01789 12.0334 3.01659 12.0615 3.02104C12.0897 3.02549 12.1166 3.03561 12.1406 3.05075C12.1646 3.0659 12.1852 3.08576 12.2011 3.10909C12.2171 3.13243 12.2279 3.15874 12.2331 3.1864L12.5335 4.73517C12.5481 4.8147 12.583 4.88924 12.6349 4.95176C12.6868 5.01427 12.754 5.06269 12.8301 5.09244L14.3169 5.67204C14.3429 5.68324 14.3662 5.69956 14.3856 5.72C14.405 5.74045 14.4199 5.76458 14.4294 5.79092C14.439 5.81726 14.443 5.84525 14.4412 5.87317C14.4394 5.9011 14.4318 5.92836 14.4189 5.95329L13.7276 7.37474C13.6922 7.44736 13.6761 7.52767 13.6808 7.60812C13.6855 7.68857 13.7109 7.76651 13.7545 7.83462L14.6115 9.16485C14.6268 9.18866 14.637 9.21532 14.6414 9.24318C14.6459 9.27104 14.6444 9.2995 14.6372 9.32678C14.6299 9.35406 14.6171 9.37958 14.5994 9.40175C14.5818 9.42391 14.5597 9.44224 14.5345 9.45561L13.1267 10.2043C13.0691 10.2328 13.0178 10.2724 12.9759 10.3207C12.9341 10.3691 12.9025 10.4253 12.883 10.4859C12.8636 10.5465 12.8567 10.6104 12.8627 10.6737C12.8687 10.7371 12.8876 10.7986 12.9182 10.8546C12.9487 10.9106 12.9904 10.9599 13.0406 10.9997C13.0909 11.0396 13.1488 11.069 13.2108 11.0863C13.2728 11.1037 13.3377 11.1086 13.4017 11.1007C13.4656 11.0928 13.5273 11.0723 13.5831 11.0405L14.9909 10.2918C15.132 10.2163 15.2559 10.1131 15.3549 9.9884C15.4539 9.86373 15.5259 9.72031 15.5663 9.56706C15.6068 9.4138 15.6149 9.25397 15.5901 9.0975C15.5653 8.94102 15.5082 8.79125 15.4223 8.65746L14.7078 7.54767L15.2856 6.36376C15.3553 6.22078 15.3945 6.06521 15.4008 5.90667C15.4071 5.74814 15.3803 5.59002 15.3222 5.4421L15.326 5.4478ZM9.00926 10.1986C8.8367 10.1989 8.66793 10.1487 8.5243 10.0543C8.38066 9.95995 8.26862 9.82566 8.20234 9.66844C8.17781 9.61092 8.14203 9.55873 8.09706 9.51485C8.05209 9.47097 7.9988 9.43626 7.94023 9.4127C7.88166 9.38914 7.81897 9.3772 7.75572 9.37755C7.69248 9.3779 7.62992 9.39054 7.57163 9.41475C7.51333 9.43896 7.46044 9.47425 7.41597 9.51863C7.3715 9.56301 7.33632 9.61559 7.31245 9.67339C7.28858 9.73118 7.27647 9.79304 7.27683 9.85545C7.27718 9.91786 7.28999 9.97959 7.31453 10.0371C7.45415 10.3669 7.68962 10.6484 7.99123 10.8463C8.29284 11.0441 8.64709 11.1494 9.00926 11.1488C10.0569 11.1488 10.8465 10.4172 10.8465 9.4385C10.8465 8.95582 10.6231 8.09497 9.13444 7.75291H9.11904C8.13686 7.53247 8.13686 7.12389 8.13686 6.99277C8.13686 6.47778 8.58943 6.23264 9.01119 6.23264C9.18353 6.2322 9.35215 6.28214 9.49576 6.37616C9.63937 6.47018 9.75154 6.60407 9.81812 6.76093C9.84119 6.82032 9.87612 6.87452 9.92082 6.92034C9.96553 6.96616 10.0191 7.00266 10.0784 7.02766C10.1376 7.05267 10.2014 7.06568 10.2658 7.06592C10.3303 7.06616 10.3941 7.05363 10.4536 7.02907C10.513 7.00451 10.5669 6.96842 10.612 6.92293C10.657 6.87745 10.6924 6.82351 10.7159 6.7643C10.7394 6.70508 10.7507 6.64181 10.749 6.57823C10.7472 6.51465 10.7326 6.45206 10.7059 6.39417C10.5979 6.14016 10.4324 5.91391 10.2221 5.73275C10.0118 5.55158 9.76229 5.42031 9.49265 5.34898V5.01452C9.49265 4.88852 9.44192 4.76768 9.35163 4.67859C9.26134 4.58949 9.13888 4.53944 9.01119 4.53944C8.8835 4.53944 8.76104 4.58949 8.67075 4.67859C8.58046 4.76768 8.52973 4.88852 8.52973 5.01452V5.35468C8.14785 5.43415 7.80535 5.64096 7.55983 5.94033C7.31432 6.2397 7.18077 6.61336 7.18164 6.99847C7.18164 7.48116 7.40504 8.34201 8.89371 8.68407H8.90912C9.8913 8.90641 9.8913 9.31308 9.8913 9.4442C9.87974 9.9668 9.42717 10.2005 9.00541 10.2005L9.00926 10.1986Z"/>
</mask>
<path d="M19.1777 11.7189C19.1979 11.9508 19.1665 12.1842 19.0856 12.4028C19.0048 12.6214 18.8765 12.82 18.7097 12.9845L14.2803 17.3553C13.9639 17.6649 13.5888 17.9098 13.1764 18.0761C12.764 18.2424 12.3224 18.3268 11.8768 18.3245H6.40746L5.02278 19.687C4.93237 19.7762 4.80976 19.8263 4.6819 19.8263C4.55405 19.8263 4.43144 19.7762 4.34103 19.687C4.25062 19.5978 4.19984 19.4768 4.19984 19.3507C4.19984 19.2245 4.25062 19.1035 4.34103 19.0143L5.86244 17.513C5.90724 17.4689 5.9604 17.434 6.01889 17.4102C6.07738 17.3864 6.14005 17.3742 6.20332 17.3743H11.8768C12.1988 17.3756 12.5178 17.3138 12.8154 17.1925C13.1129 17.0711 13.383 16.8926 13.6101 16.6674L18.0395 12.2966C18.1562 12.1739 18.2199 12.0112 18.2172 11.8429C18.2144 11.6747 18.1455 11.5141 18.0249 11.3951C17.9043 11.2761 17.7416 11.208 17.571 11.2054C17.4005 11.2027 17.2356 11.2655 17.1113 11.3806L13.6159 14.8659L13.6043 14.8754C13.3034 15.1696 12.8974 15.3354 12.4738 15.3371H9.094C8.96631 15.3371 8.84385 15.2871 8.75356 15.198C8.66327 15.1089 8.61254 14.9881 8.61254 14.8621C8.61254 14.7361 8.66327 14.6152 8.75356 14.5261C8.84385 14.437 8.96631 14.387 9.094 14.387H12.4758C12.6238 14.3863 12.7672 14.3361 12.8826 14.2447C12.998 14.1532 13.0787 14.0259 13.1113 13.8834C13.1323 13.7895 13.1318 13.6922 13.1096 13.5986C13.0875 13.505 13.0443 13.4175 12.9833 13.3425C12.9223 13.2676 12.845 13.2071 12.7572 13.1655C12.6694 13.1239 12.5732 13.1024 12.4758 13.1023H6.64241C6.37519 13.1016 6.11047 13.1531 5.86354 13.2539C5.61662 13.3547 5.39238 13.5027 5.20381 13.6896L4.35259 14.5276C4.30935 14.5773 4.25618 14.6176 4.19641 14.646C4.13663 14.6745 4.07155 14.6904 4.00524 14.6928C3.93893 14.6953 3.87283 14.6841 3.81108 14.6602C3.74933 14.6362 3.69327 14.5999 3.64642 14.5535C3.59956 14.5072 3.56293 14.4517 3.53881 14.3907C3.51469 14.3297 3.50361 14.2645 3.50627 14.1991C3.50892 14.1336 3.52526 14.0695 3.55424 14.0106C3.58322 13.9517 3.62423 13.8993 3.67469 13.8568L4.52591 13.0187C4.80344 12.7433 5.13356 12.5249 5.49718 12.3761C5.8608 12.2274 6.25071 12.1513 6.64433 12.1522H12.4758C12.7951 12.1512 13.1074 12.2444 13.3726 12.4198C13.6379 12.5952 13.8439 12.8448 13.9644 13.1366L16.418 10.7155C16.6367 10.4997 16.9136 10.3502 17.2158 10.2847C17.518 10.2192 17.8328 10.2405 18.1231 10.346C18.4134 10.4516 18.667 10.637 18.8539 10.8803C19.0408 11.1236 19.1532 11.4146 19.1777 11.7189ZM15.326 5.4478C15.2674 5.30018 15.1787 5.166 15.0654 5.05356C14.9521 4.94112 14.8166 4.85281 14.6674 4.79408L13.4291 4.3114L13.1903 3.01917C13.1615 2.86295 13.1004 2.71425 13.0108 2.58237C12.9211 2.45049 12.8049 2.33825 12.6694 2.25266C12.5339 2.16706 12.3819 2.10996 12.223 2.0849C12.0641 2.05984 11.9017 2.06736 11.7459 2.10701L10.4536 2.42817L9.49072 1.52171C9.37447 1.41223 9.23663 1.32754 9.08578 1.2729C8.93493 1.21827 8.77429 1.19485 8.61387 1.20412C8.45345 1.21339 8.29668 1.25515 8.15333 1.32678C8.00997 1.39842 7.88308 1.49841 7.78058 1.62052L6.93321 2.6334L5.61401 2.45857C5.45458 2.43738 5.29243 2.44884 5.13769 2.49222C4.98294 2.53561 4.83892 2.60999 4.7146 2.71073C4.59027 2.81148 4.48832 2.93642 4.41511 3.07776C4.34189 3.21911 4.29897 3.37382 4.28903 3.53226L4.20622 4.84349L3.03146 5.4668C2.89141 5.54229 2.76848 5.64523 2.67021 5.7693C2.57195 5.89337 2.50042 6.03595 2.46002 6.18829C2.41962 6.34062 2.4112 6.4995 2.43529 6.65516C2.45937 6.81082 2.51545 6.95999 2.60007 7.09349L3.31456 8.20328L2.73681 9.38719C2.6671 9.5303 2.62804 9.68605 2.62206 9.84472C2.61607 10.0034 2.6433 10.1616 2.70203 10.3094C2.76076 10.4572 2.84974 10.5915 2.96341 10.7039C3.07708 10.8163 3.21301 10.9043 3.3627 10.9626L4.84945 11.5422C4.90825 11.5651 4.97106 11.5764 5.03429 11.5754C5.09752 11.5745 5.15993 11.5612 5.21796 11.5364C5.27599 11.5116 5.3285 11.4758 5.3725 11.4309C5.4165 11.3861 5.45112 11.3332 5.47439 11.2752C5.49765 11.2172 5.50911 11.1552 5.50811 11.0928C5.5071 11.0304 5.49365 10.9688 5.46852 10.9115C5.4434 10.8543 5.40709 10.8025 5.36167 10.7591C5.31625 10.7156 5.26261 10.6815 5.20381 10.6585L3.71706 10.0789C3.69049 10.0686 3.66635 10.053 3.64614 10.0331C3.62594 10.0132 3.61011 9.98942 3.59963 9.96322C3.58915 9.93701 3.58425 9.90896 3.58524 9.8808C3.58622 9.85265 3.59307 9.825 3.60536 9.79957L4.29674 8.37812C4.33214 8.3055 4.34824 8.22518 4.34352 8.14473C4.3388 8.06429 4.31343 7.98634 4.26977 7.91823L3.41278 6.588C3.39746 6.5642 3.38727 6.53753 3.38286 6.50967C3.37845 6.48181 3.3799 6.45335 3.38713 6.42607C3.39436 6.39879 3.40721 6.37327 3.42487 6.35111C3.44254 6.32894 3.46464 6.31061 3.48981 6.29725L4.8976 5.54852C4.96847 5.511 5.0287 5.45656 5.07277 5.39017C5.11684 5.32378 5.14335 5.24755 5.14988 5.16845L5.25003 3.59497C5.25156 3.56677 5.25903 3.5392 5.27196 3.514C5.2849 3.48881 5.303 3.46655 5.32513 3.44865C5.34697 3.43029 5.37252 3.41673 5.40008 3.40887C5.42764 3.401 5.45658 3.39902 5.48498 3.40304L7.06994 3.61397C7.15093 3.6252 7.23348 3.61572 7.30969 3.58644C7.3859 3.55716 7.45322 3.50906 7.50518 3.44675L8.52395 2.23053C8.5422 2.20879 8.56479 2.191 8.59032 2.17827C8.61584 2.16554 8.64376 2.15814 8.67232 2.15653C8.70087 2.15493 8.72946 2.15915 8.75629 2.16894C8.78311 2.17873 8.80761 2.19387 8.82824 2.21343L9.98374 3.30232C10.0429 3.35815 10.1155 3.39811 10.1947 3.4184C10.274 3.43869 10.3571 3.43863 10.4363 3.41824L11.977 3.02487C12.0046 3.01789 12.0334 3.01659 12.0615 3.02104C12.0897 3.02549 12.1166 3.03561 12.1406 3.05075C12.1646 3.0659 12.1852 3.08576 12.2011 3.10909C12.2171 3.13243 12.2279 3.15874 12.2331 3.1864L12.5335 4.73517C12.5481 4.8147 12.583 4.88924 12.6349 4.95176C12.6868 5.01427 12.754 5.06269 12.8301 5.09244L14.3169 5.67204C14.3429 5.68324 14.3662 5.69956 14.3856 5.72C14.405 5.74045 14.4199 5.76458 14.4294 5.79092C14.439 5.81726 14.443 5.84525 14.4412 5.87317C14.4394 5.9011 14.4318 5.92836 14.4189 5.95329L13.7276 7.37474C13.6922 7.44736 13.6761 7.52767 13.6808 7.60812C13.6855 7.68857 13.7109 7.76651 13.7545 7.83462L14.6115 9.16485C14.6268 9.18866 14.637 9.21532 14.6414 9.24318C14.6459 9.27104 14.6444 9.2995 14.6372 9.32678C14.6299 9.35406 14.6171 9.37958 14.5994 9.40175C14.5818 9.42391 14.5597 9.44224 14.5345 9.45561L13.1267 10.2043C13.0691 10.2328 13.0178 10.2724 12.9759 10.3207C12.9341 10.3691 12.9025 10.4253 12.883 10.4859C12.8636 10.5465 12.8567 10.6104 12.8627 10.6737C12.8687 10.7371 12.8876 10.7986 12.9182 10.8546C12.9487 10.9106 12.9904 10.9599 13.0406 10.9997C13.0909 11.0396 13.1488 11.069 13.2108 11.0863C13.2728 11.1037 13.3377 11.1086 13.4017 11.1007C13.4656 11.0928 13.5273 11.0723 13.5831 11.0405L14.9909 10.2918C15.132 10.2163 15.2559 10.1131 15.3549 9.9884C15.4539 9.86373 15.5259 9.72031 15.5663 9.56706C15.6068 9.4138 15.6149 9.25397 15.5901 9.0975C15.5653 8.94102 15.5082 8.79125 15.4223 8.65746L14.7078 7.54767L15.2856 6.36376C15.3553 6.22078 15.3945 6.06521 15.4008 5.90667C15.4071 5.74814 15.3803 5.59002 15.3222 5.4421L15.326 5.4478ZM9.00926 10.1986C8.8367 10.1989 8.66793 10.1487 8.5243 10.0543C8.38066 9.95995 8.26862 9.82566 8.20234 9.66844C8.17781 9.61092 8.14203 9.55873 8.09706 9.51485C8.05209 9.47097 7.9988 9.43626 7.94023 9.4127C7.88166 9.38914 7.81897 9.3772 7.75572 9.37755C7.69248 9.3779 7.62992 9.39054 7.57163 9.41475C7.51333 9.43896 7.46044 9.47425 7.41597 9.51863C7.3715 9.56301 7.33632 9.61559 7.31245 9.67339C7.28858 9.73118 7.27647 9.79304 7.27683 9.85545C7.27718 9.91786 7.28999 9.97959 7.31453 10.0371C7.45415 10.3669 7.68962 10.6484 7.99123 10.8463C8.29284 11.0441 8.64709 11.1494 9.00926 11.1488C10.0569 11.1488 10.8465 10.4172 10.8465 9.4385C10.8465 8.95582 10.6231 8.09497 9.13444 7.75291H9.11904C8.13686 7.53247 8.13686 7.12389 8.13686 6.99277C8.13686 6.47778 8.58943 6.23264 9.01119 6.23264C9.18353 6.2322 9.35215 6.28214 9.49576 6.37616C9.63937 6.47018 9.75154 6.60407 9.81812 6.76093C9.84119 6.82032 9.87612 6.87452 9.92082 6.92034C9.96553 6.96616 10.0191 7.00266 10.0784 7.02766C10.1376 7.05267 10.2014 7.06568 10.2658 7.06592C10.3303 7.06616 10.3941 7.05363 10.4536 7.02907C10.513 7.00451 10.5669 6.96842 10.612 6.92293C10.657 6.87745 10.6924 6.82351 10.7159 6.7643C10.7394 6.70508 10.7507 6.64181 10.749 6.57823C10.7472 6.51465 10.7326 6.45206 10.7059 6.39417C10.5979 6.14016 10.4324 5.91391 10.2221 5.73275C10.0118 5.55158 9.76229 5.42031 9.49265 5.34898V5.01452C9.49265 4.88852 9.44192 4.76768 9.35163 4.67859C9.26134 4.58949 9.13888 4.53944 9.01119 4.53944C8.8835 4.53944 8.76104 4.58949 8.67075 4.67859C8.58046 4.76768 8.52973 4.88852 8.52973 5.01452V5.35468C8.14785 5.43415 7.80535 5.64096 7.55983 5.94033C7.31432 6.2397 7.18077 6.61336 7.18164 6.99847C7.18164 7.48116 7.40504 8.34201 8.89371 8.68407H8.90912C9.8913 8.90641 9.8913 9.31308 9.8913 9.4442C9.87974 9.9668 9.42717 10.2005 9.00541 10.2005L9.00926 10.1986Z" fill="#624DE3"/>
<path d="M19.1777 11.7189C19.1979 11.9508 19.1665 12.1842 19.0856 12.4028C19.0048 12.6214 18.8765 12.82 18.7097 12.9845L14.2803 17.3553C13.9639 17.6649 13.5888 17.9098 13.1764 18.0761C12.764 18.2424 12.3224 18.3268 11.8768 18.3245H6.40746L5.02278 19.687C4.93237 19.7762 4.80976 19.8263 4.6819 19.8263C4.55405 19.8263 4.43144 19.7762 4.34103 19.687C4.25062 19.5978 4.19984 19.4768 4.19984 19.3507C4.19984 19.2245 4.25062 19.1035 4.34103 19.0143L5.86244 17.513C5.90724 17.4689 5.9604 17.434 6.01889 17.4102C6.07738 17.3864 6.14005 17.3742 6.20332 17.3743H11.8768C12.1988 17.3756 12.5178 17.3138 12.8154 17.1925C13.1129 17.0711 13.383 16.8926 13.6101 16.6674L18.0395 12.2966C18.1562 12.1739 18.2199 12.0112 18.2172 11.8429C18.2144 11.6747 18.1455 11.5141 18.0249 11.3951C17.9043 11.2761 17.7416 11.208 17.571 11.2054C17.4005 11.2027 17.2356 11.2655 17.1113 11.3806L13.6159 14.8659L13.6043 14.8754C13.3034 15.1696 12.8974 15.3354 12.4738 15.3371H9.094C8.96631 15.3371 8.84385 15.2871 8.75356 15.198C8.66327 15.1089 8.61254 14.9881 8.61254 14.8621C8.61254 14.7361 8.66327 14.6152 8.75356 14.5261C8.84385 14.437 8.96631 14.387 9.094 14.387H12.4758C12.6238 14.3863 12.7672 14.3361 12.8826 14.2447C12.998 14.1532 13.0787 14.0259 13.1113 13.8834C13.1323 13.7895 13.1318 13.6922 13.1096 13.5986C13.0875 13.505 13.0443 13.4175 12.9833 13.3425C12.9223 13.2676 12.845 13.2071 12.7572 13.1655C12.6694 13.1239 12.5732 13.1024 12.4758 13.1023H6.64241C6.37519 13.1016 6.11047 13.1531 5.86354 13.2539C5.61662 13.3547 5.39238 13.5027 5.20381 13.6896L4.35259 14.5276C4.30935 14.5773 4.25618 14.6176 4.19641 14.646C4.13663 14.6745 4.07155 14.6904 4.00524 14.6928C3.93893 14.6953 3.87283 14.6841 3.81108 14.6602C3.74933 14.6362 3.69327 14.5999 3.64642 14.5535C3.59956 14.5072 3.56293 14.4517 3.53881 14.3907C3.51469 14.3297 3.50361 14.2645 3.50627 14.1991C3.50892 14.1336 3.52526 14.0695 3.55424 14.0106C3.58322 13.9517 3.62423 13.8993 3.67469 13.8568L4.52591 13.0187C4.80344 12.7433 5.13356 12.5249 5.49718 12.3761C5.8608 12.2274 6.25071 12.1513 6.64433 12.1522H12.4758C12.7951 12.1512 13.1074 12.2444 13.3726 12.4198C13.6379 12.5952 13.8439 12.8448 13.9644 13.1366L16.418 10.7155C16.6367 10.4997 16.9136 10.3502 17.2158 10.2847C17.518 10.2192 17.8328 10.2405 18.1231 10.346C18.4134 10.4516 18.667 10.637 18.8539 10.8803C19.0408 11.1236 19.1532 11.4146 19.1777 11.7189ZM15.326 5.4478C15.2674 5.30018 15.1787 5.166 15.0654 5.05356C14.9521 4.94112 14.8166 4.85281 14.6674 4.79408L13.4291 4.3114L13.1903 3.01917C13.1615 2.86295 13.1004 2.71425 13.0108 2.58237C12.9211 2.45049 12.8049 2.33825 12.6694 2.25266C12.5339 2.16706 12.3819 2.10996 12.223 2.0849C12.0641 2.05984 11.9017 2.06736 11.7459 2.10701L10.4536 2.42817L9.49072 1.52171C9.37447 1.41223 9.23663 1.32754 9.08578 1.2729C8.93493 1.21827 8.77429 1.19485 8.61387 1.20412C8.45345 1.21339 8.29668 1.25515 8.15333 1.32678C8.00997 1.39842 7.88308 1.49841 7.78058 1.62052L6.93321 2.6334L5.61401 2.45857C5.45458 2.43738 5.29243 2.44884 5.13769 2.49222C4.98294 2.53561 4.83892 2.60999 4.7146 2.71073C4.59027 2.81148 4.48832 2.93642 4.41511 3.07776C4.34189 3.21911 4.29897 3.37382 4.28903 3.53226L4.20622 4.84349L3.03146 5.4668C2.89141 5.54229 2.76848 5.64523 2.67021 5.7693C2.57195 5.89337 2.50042 6.03595 2.46002 6.18829C2.41962 6.34062 2.4112 6.4995 2.43529 6.65516C2.45937 6.81082 2.51545 6.95999 2.60007 7.09349L3.31456 8.20328L2.73681 9.38719C2.6671 9.5303 2.62804 9.68605 2.62206 9.84472C2.61607 10.0034 2.6433 10.1616 2.70203 10.3094C2.76076 10.4572 2.84974 10.5915 2.96341 10.7039C3.07708 10.8163 3.21301 10.9043 3.3627 10.9626L4.84945 11.5422C4.90825 11.5651 4.97106 11.5764 5.03429 11.5754C5.09752 11.5745 5.15993 11.5612 5.21796 11.5364C5.27599 11.5116 5.3285 11.4758 5.3725 11.4309C5.4165 11.3861 5.45112 11.3332 5.47439 11.2752C5.49765 11.2172 5.50911 11.1552 5.50811 11.0928C5.5071 11.0304 5.49365 10.9688 5.46852 10.9115C5.4434 10.8543 5.40709 10.8025 5.36167 10.7591C5.31625 10.7156 5.26261 10.6815 5.20381 10.6585L3.71706 10.0789C3.69049 10.0686 3.66635 10.053 3.64614 10.0331C3.62594 10.0132 3.61011 9.98942 3.59963 9.96322C3.58915 9.93701 3.58425 9.90896 3.58524 9.8808C3.58622 9.85265 3.59307 9.825 3.60536 9.79957L4.29674 8.37812C4.33214 8.3055 4.34824 8.22518 4.34352 8.14473C4.3388 8.06429 4.31343 7.98634 4.26977 7.91823L3.41278 6.588C3.39746 6.5642 3.38727 6.53753 3.38286 6.50967C3.37845 6.48181 3.3799 6.45335 3.38713 6.42607C3.39436 6.39879 3.40721 6.37327 3.42487 6.35111C3.44254 6.32894 3.46464 6.31061 3.48981 6.29725L4.8976 5.54852C4.96847 5.511 5.0287 5.45656 5.07277 5.39017C5.11684 5.32378 5.14335 5.24755 5.14988 5.16845L5.25003 3.59497C5.25156 3.56677 5.25903 3.5392 5.27196 3.514C5.2849 3.48881 5.303 3.46655 5.32513 3.44865C5.34697 3.43029 5.37252 3.41673 5.40008 3.40887C5.42764 3.401 5.45658 3.39902 5.48498 3.40304L7.06994 3.61397C7.15093 3.6252 7.23348 3.61572 7.30969 3.58644C7.3859 3.55716 7.45322 3.50906 7.50518 3.44675L8.52395 2.23053C8.5422 2.20879 8.56479 2.191 8.59032 2.17827C8.61584 2.16554 8.64376 2.15814 8.67232 2.15653C8.70087 2.15493 8.72946 2.15915 8.75629 2.16894C8.78311 2.17873 8.80761 2.19387 8.82824 2.21343L9.98374 3.30232C10.0429 3.35815 10.1155 3.39811 10.1947 3.4184C10.274 3.43869 10.3571 3.43863 10.4363 3.41824L11.977 3.02487C12.0046 3.01789 12.0334 3.01659 12.0615 3.02104C12.0897 3.02549 12.1166 3.03561 12.1406 3.05075C12.1646 3.0659 12.1852 3.08576 12.2011 3.10909C12.2171 3.13243 12.2279 3.15874 12.2331 3.1864L12.5335 4.73517C12.5481 4.8147 12.583 4.88924 12.6349 4.95176C12.6868 5.01427 12.754 5.06269 12.8301 5.09244L14.3169 5.67204C14.3429 5.68324 14.3662 5.69956 14.3856 5.72C14.405 5.74045 14.4199 5.76458 14.4294 5.79092C14.439 5.81726 14.443 5.84525 14.4412 5.87317C14.4394 5.9011 14.4318 5.92836 14.4189 5.95329L13.7276 7.37474C13.6922 7.44736 13.6761 7.52767 13.6808 7.60812C13.6855 7.68857 13.7109 7.76651 13.7545 7.83462L14.6115 9.16485C14.6268 9.18866 14.637 9.21532 14.6414 9.24318C14.6459 9.27104 14.6444 9.2995 14.6372 9.32678C14.6299 9.35406 14.6171 9.37958 14.5994 9.40175C14.5818 9.42391 14.5597 9.44224 14.5345 9.45561L13.1267 10.2043C13.0691 10.2328 13.0178 10.2724 12.9759 10.3207C12.9341 10.3691 12.9025 10.4253 12.883 10.4859C12.8636 10.5465 12.8567 10.6104 12.8627 10.6737C12.8687 10.7371 12.8876 10.7986 12.9182 10.8546C12.9487 10.9106 12.9904 10.9599 13.0406 10.9997C13.0909 11.0396 13.1488 11.069 13.2108 11.0863C13.2728 11.1037 13.3377 11.1086 13.4017 11.1007C13.4656 11.0928 13.5273 11.0723 13.5831 11.0405L14.9909 10.2918C15.132 10.2163 15.2559 10.1131 15.3549 9.9884C15.4539 9.86373 15.5259 9.72031 15.5663 9.56706C15.6068 9.4138 15.6149 9.25397 15.5901 9.0975C15.5653 8.94102 15.5082 8.79125 15.4223 8.65746L14.7078 7.54767L15.2856 6.36376C15.3553 6.22078 15.3945 6.06521 15.4008 5.90667C15.4071 5.74814 15.3803 5.59002 15.3222 5.4421L15.326 5.4478ZM9.00926 10.1986C8.8367 10.1989 8.66793 10.1487 8.5243 10.0543C8.38066 9.95995 8.26862 9.82566 8.20234 9.66844C8.17781 9.61092 8.14203 9.55873 8.09706 9.51485C8.05209 9.47097 7.9988 9.43626 7.94023 9.4127C7.88166 9.38914 7.81897 9.3772 7.75572 9.37755C7.69248 9.3779 7.62992 9.39054 7.57163 9.41475C7.51333 9.43896 7.46044 9.47425 7.41597 9.51863C7.3715 9.56301 7.33632 9.61559 7.31245 9.67339C7.28858 9.73118 7.27647 9.79304 7.27683 9.85545C7.27718 9.91786 7.28999 9.97959 7.31453 10.0371C7.45415 10.3669 7.68962 10.6484 7.99123 10.8463C8.29284 11.0441 8.64709 11.1494 9.00926 11.1488C10.0569 11.1488 10.8465 10.4172 10.8465 9.4385C10.8465 8.95582 10.6231 8.09497 9.13444 7.75291H9.11904C8.13686 7.53247 8.13686 7.12389 8.13686 6.99277C8.13686 6.47778 8.58943 6.23264 9.01119 6.23264C9.18353 6.2322 9.35215 6.28214 9.49576 6.37616C9.63937 6.47018 9.75154 6.60407 9.81812 6.76093C9.84119 6.82032 9.87612 6.87452 9.92082 6.92034C9.96553 6.96616 10.0191 7.00266 10.0784 7.02766C10.1376 7.05267 10.2014 7.06568 10.2658 7.06592C10.3303 7.06616 10.3941 7.05363 10.4536 7.02907C10.513 7.00451 10.5669 6.96842 10.612 6.92293C10.657 6.87745 10.6924 6.82351 10.7159 6.7643C10.7394 6.70508 10.7507 6.64181 10.749 6.57823C10.7472 6.51465 10.7326 6.45206 10.7059 6.39417C10.5979 6.14016 10.4324 5.91391 10.2221 5.73275C10.0118 5.55158 9.76229 5.42031 9.49265 5.34898V5.01452C9.49265 4.88852 9.44192 4.76768 9.35163 4.67859C9.26134 4.58949 9.13888 4.53944 9.01119 4.53944C8.8835 4.53944 8.76104 4.58949 8.67075 4.67859C8.58046 4.76768 8.52973 4.88852 8.52973 5.01452V5.35468C8.14785 5.43415 7.80535 5.64096 7.55983 5.94033C7.31432 6.2397 7.18077 6.61336 7.18164 6.99847C7.18164 7.48116 7.40504 8.34201 8.89371 8.68407H8.90912C9.8913 8.90641 9.8913 9.31308 9.8913 9.4442C9.87974 9.9668 9.42717 10.2005 9.00541 10.2005L9.00926 10.1986Z" stroke="#624DE3" stroke-width="0.4" mask="url(#path-1-outside-1_712_18701)"/>
</g>
<defs>
<clipPath id="clip0_712_18701">
<rect width="20" height="20" fill="white" transform="translate(0.802734 0.514648)"/>
</clipPath>
</defs>
</svg>
