<svg width="20" height="21" viewBox="0 0 20 21" fill="none" xmlns="http://www.w3.org/2000/svg">
<path d="M9.9987 7.45801C8.5283 7.45801 7.33203 8.65394 7.33203 10.1247C7.33203 11.5954 8.5283 12.7913 9.9987 12.7913C11.4691 12.7913 12.6654 11.5954 12.6654 10.1247C12.6654 9.41374 12.3877 8.74381 11.8834 8.23994C11.3792 7.73534 10.71 7.45801 9.9987 7.45801ZM9.9987 11.458C9.26336 11.458 8.66536 10.8597 8.66536 10.1247C8.66536 9.38967 9.26336 8.79134 9.9987 8.79134C10.3538 8.79134 10.6885 8.93001 10.9408 9.18261C11.193 9.43521 11.332 9.76987 11.332 10.1247C11.332 10.8597 10.734 11.458 9.9987 11.458Z" fill="#624DE3"/>
<path d="M16.103 15.2846C17.284 13.8902 18 12.0902 18 10.124C18 8.15782 17.284 6.35789 16.103 4.96349L16.8356 4.23082C16.9658 4.10062 16.9658 3.88962 16.8356 3.75942L16.3643 3.28816C16.2341 3.15796 16.0231 3.15796 15.8928 3.28816L15.1602 4.02082C13.7659 2.83996 11.966 2.12402 10 2.12402C8.034 2.12402 6.23413 2.83996 4.83973 4.02082L4.10713 3.28816C3.97693 3.15796 3.76587 3.15796 3.63567 3.28816L3.16433 3.75942C3.03413 3.88962 3.03413 4.10062 3.16433 4.23082L3.89693 4.96349C2.716 6.35789 2 8.15782 2 10.124C2 12.0902 2.716 13.8902 3.897 15.2846L3.1644 16.0172C3.0342 16.1474 3.0342 16.3584 3.1644 16.4886L3.63573 16.96C3.76593 17.0902 3.97693 17.0902 4.1072 16.96L4.8398 16.2273C6.23413 17.4081 8.034 18.124 10 18.124C11.966 18.124 13.7659 17.4081 15.1603 16.2272L15.8929 16.9599C16.0231 17.0901 16.2341 17.0901 16.3643 16.9599L16.8357 16.4886C16.9659 16.3584 16.9659 16.1474 16.8357 16.0172L16.103 15.2846ZM10 16.7907C8.4016 16.7907 6.93367 16.2242 5.78393 15.2829L6.93553 14.1312C7.06573 14.001 7.06573 13.79 6.93553 13.6598L6.4642 13.1885C6.334 13.0583 6.123 13.0583 5.99273 13.1885L4.84113 14.3402C3.8998 13.1905 3.33333 11.7224 3.33333 10.124C3.33333 8.52562 3.89973 7.05756 4.8412 5.90782L5.9928 7.05956C6.123 7.18976 6.33407 7.18976 6.46427 7.05956L6.9356 6.58822C7.0658 6.45802 7.0658 6.24702 6.9356 6.11682L5.78393 4.96516C6.93367 4.02382 8.4016 3.45736 10 3.45736C11.5984 3.45736 13.0663 4.02382 14.2161 4.96516L13.0645 6.11682C12.9343 6.24702 12.9343 6.45802 13.0645 6.58822L13.5358 7.05956C13.666 7.18976 13.877 7.18976 14.0073 7.05956L15.1589 5.90782C16.1003 7.05756 16.6667 8.52562 16.6667 10.124C16.6667 11.7224 16.1002 13.1905 15.1588 14.3402L14.0072 13.1885C13.877 13.0583 13.6659 13.0583 13.5357 13.1885L13.0644 13.6598C12.9342 13.79 12.9342 14.001 13.0644 14.1312L14.216 15.2829C13.0663 16.2242 11.5984 16.7907 10 16.7907Z" fill="#624DE3"/>
</svg>
