<svg width="20" height="20" viewBox="0 0 20 20" fill="none" xmlns="http://www.w3.org/2000/svg">
<mask id="path-1-outside-1_1_8126" maskUnits="userSpaceOnUse" x="-0.00183105" y="8.34344" width="19" height="10" fill="black">
<rect fill="white" x="-0.00183105" y="8.34344" width="19" height="10"/>
<path d="M16.9539 12.5753C17.2585 12.3527 17.4848 12.0396 17.6007 11.6806C17.7165 11.3216 17.7158 10.9352 17.5988 10.5767C17.4817 10.2181 17.2543 9.90572 16.949 9.68422C16.6437 9.46272 16.2761 9.34344 15.8989 9.34344C15.5218 9.34344 15.1542 9.46272 14.8489 9.68422C14.5436 9.90572 14.3162 10.2181 14.1991 10.5767C14.0821 10.9352 14.0814 11.3216 14.1972 11.6806C14.3131 12.0396 14.5394 12.3527 14.844 12.5753C14.4456 12.7718 14.1102 13.0757 13.8753 13.4527C13.6405 13.8297 13.5156 14.2649 13.5148 14.709V15.3051H11.7267C11.4106 15.3051 11.1074 15.4307 10.8838 15.6542C10.6603 15.8778 10.5347 16.181 10.5347 16.4971C10.5355 16.7072 10.5932 16.9132 10.7016 17.0932H8.57969C8.68803 16.9132 8.74569 16.7072 8.74657 16.4971C8.74657 16.181 8.62098 15.8778 8.39743 15.6542C8.17387 15.4307 7.87067 15.3051 7.55451 15.3051H5.76642V14.709C5.76563 14.2649 5.64078 13.8297 5.40593 13.4527C5.17109 13.0757 4.83559 12.7718 4.43727 12.5753C4.74181 12.3527 4.96818 12.0396 5.084 11.6806C5.19982 11.3216 5.19916 10.9352 5.08211 10.5767C4.96506 10.2181 4.73762 9.90572 4.43232 9.68422C4.12701 9.46272 3.75948 9.34344 3.38229 9.34344C3.0051 9.34344 2.63757 9.46272 2.33227 9.68422C2.02697 9.90572 1.79952 10.2181 1.68247 10.5767C1.56542 10.9352 1.56476 11.3216 1.68058 11.6806C1.7964 12.0396 2.02277 12.3527 2.32732 12.5753C1.92899 12.7718 1.5935 13.0757 1.35865 13.4527C1.12381 13.8297 0.998955 14.2649 0.998169 14.709V17.3912C0.998169 17.4702 1.02957 17.546 1.08546 17.6019C1.14134 17.6578 1.21715 17.6892 1.29618 17.6892H17.9851C18.0641 17.6892 18.1399 17.6578 18.1958 17.6019C18.2517 17.546 18.2831 17.4702 18.2831 17.3912V14.709C18.2823 14.2649 18.1574 13.8297 17.9226 13.4527C17.6877 13.0757 17.3522 12.7718 16.9539 12.5753ZM14.7069 11.1329C14.7069 10.8971 14.7768 10.6666 14.9078 10.4706C15.0388 10.2745 15.2249 10.1218 15.4428 10.0315C15.6606 9.94131 15.9003 9.9177 16.1315 9.9637C16.3627 10.0097 16.5752 10.1232 16.7419 10.2899C16.9086 10.4567 17.0221 10.6691 17.0681 10.9003C17.1141 11.1315 17.0905 11.3712 17.0003 11.589C16.91 11.8069 16.7573 11.993 16.5612 12.124C16.3652 12.255 16.1347 12.3249 15.8989 12.3249C15.5828 12.3249 15.2796 12.1993 15.056 11.9758C14.8325 11.7522 14.7069 11.449 14.7069 11.1329ZM2.19023 11.1329C2.19023 10.8971 2.26014 10.6666 2.39113 10.4706C2.52212 10.2745 2.70829 10.1218 2.92611 10.0315C3.14393 9.94131 3.38362 9.9177 3.61485 9.9637C3.84609 10.0097 4.0585 10.1232 4.22521 10.2899C4.39192 10.4567 4.50546 10.6691 4.55145 10.9003C4.59745 11.1315 4.57384 11.3712 4.48362 11.589C4.39339 11.8069 4.2406 11.993 4.04457 12.124C3.84853 12.255 3.61806 12.3249 3.38229 12.3249C3.06614 12.3249 2.76293 12.1993 2.53938 11.9758C2.31582 11.7522 2.19023 11.449 2.19023 11.1329ZM5.4684 17.0932C5.07321 17.0932 4.6942 16.9362 4.41476 16.6567C4.13531 16.3773 3.97832 15.9983 3.97832 15.6031C3.97832 15.5241 3.94693 15.4482 3.89104 15.3924C3.83515 15.3365 3.75935 15.3051 3.68031 15.3051C3.60127 15.3051 3.52547 15.3365 3.46958 15.3924C3.41369 15.4482 3.38229 15.5241 3.38229 15.6031C3.38264 15.8808 3.43844 16.1557 3.54642 16.4115C3.6544 16.6674 3.81238 16.8992 4.01111 17.0932H1.5942V14.709C1.5942 14.2348 1.78259 13.78 2.11792 13.4447C2.45325 13.1093 2.90806 12.9209 3.38229 12.9209C3.85653 12.9209 4.31133 13.1093 4.64667 13.4447C4.982 13.78 5.17039 14.2348 5.17039 14.709V15.6031C5.17039 15.6821 5.20179 15.7579 5.25767 15.8138C5.31356 15.8697 5.38936 15.9011 5.4684 15.9011H7.55451C7.71259 15.9011 7.86419 15.9639 7.97597 16.0757C8.08775 16.1875 8.15054 16.3391 8.15054 16.4971C8.15054 16.6552 8.08775 16.8068 7.97597 16.9186C7.86419 17.0304 7.71259 17.0932 7.55451 17.0932H5.4684ZM15.6009 15.3051C15.5219 15.3051 15.4461 15.3365 15.3902 15.3924C15.3343 15.4482 15.3029 15.5241 15.3029 15.6031C15.3029 15.9983 15.1459 16.3773 14.8665 16.6567C14.587 16.9362 14.208 17.0932 13.8128 17.0932H11.7267C11.5687 17.0932 11.417 17.0304 11.3053 16.9186C11.1935 16.8068 11.1307 16.6552 11.1307 16.4971C11.1307 16.3391 11.1935 16.1875 11.3053 16.0757C11.417 15.9639 11.5687 15.9011 11.7267 15.9011H13.8128C13.8919 15.9011 13.9677 15.8697 14.0236 15.8138C14.0795 15.7579 14.1109 15.6821 14.1109 15.6031V14.709C14.1109 14.2348 14.2992 13.78 14.6346 13.4447C14.9699 13.1093 15.4247 12.9209 15.8989 12.9209C16.3732 12.9209 16.828 13.1093 17.1633 13.4447C17.4987 13.78 17.687 14.2348 17.687 14.709V17.0932H15.2701C15.4689 16.8992 15.6268 16.6674 15.7348 16.4115C15.8428 16.1557 15.8986 15.8808 15.8989 15.6031C15.8989 15.5241 15.8676 15.4482 15.8117 15.3924C15.7558 15.3365 15.68 15.3051 15.6009 15.3051Z"/>
</mask>
<path d="M16.9539 12.5753C17.2585 12.3527 17.4848 12.0396 17.6007 11.6806C17.7165 11.3216 17.7158 10.9352 17.5988 10.5767C17.4817 10.2181 17.2543 9.90572 16.949 9.68422C16.6437 9.46272 16.2761 9.34344 15.8989 9.34344C15.5218 9.34344 15.1542 9.46272 14.8489 9.68422C14.5436 9.90572 14.3162 10.2181 14.1991 10.5767C14.0821 10.9352 14.0814 11.3216 14.1972 11.6806C14.3131 12.0396 14.5394 12.3527 14.844 12.5753C14.4456 12.7718 14.1102 13.0757 13.8753 13.4527C13.6405 13.8297 13.5156 14.2649 13.5148 14.709V15.3051H11.7267C11.4106 15.3051 11.1074 15.4307 10.8838 15.6542C10.6603 15.8778 10.5347 16.181 10.5347 16.4971C10.5355 16.7072 10.5932 16.9132 10.7016 17.0932H8.57969C8.68803 16.9132 8.74569 16.7072 8.74657 16.4971C8.74657 16.181 8.62098 15.8778 8.39743 15.6542C8.17387 15.4307 7.87067 15.3051 7.55451 15.3051H5.76642V14.709C5.76563 14.2649 5.64078 13.8297 5.40593 13.4527C5.17109 13.0757 4.83559 12.7718 4.43727 12.5753C4.74181 12.3527 4.96818 12.0396 5.084 11.6806C5.19982 11.3216 5.19916 10.9352 5.08211 10.5767C4.96506 10.2181 4.73762 9.90572 4.43232 9.68422C4.12701 9.46272 3.75948 9.34344 3.38229 9.34344C3.0051 9.34344 2.63757 9.46272 2.33227 9.68422C2.02697 9.90572 1.79952 10.2181 1.68247 10.5767C1.56542 10.9352 1.56476 11.3216 1.68058 11.6806C1.7964 12.0396 2.02277 12.3527 2.32732 12.5753C1.92899 12.7718 1.5935 13.0757 1.35865 13.4527C1.12381 13.8297 0.998955 14.2649 0.998169 14.709V17.3912C0.998169 17.4702 1.02957 17.546 1.08546 17.6019C1.14134 17.6578 1.21715 17.6892 1.29618 17.6892H17.9851C18.0641 17.6892 18.1399 17.6578 18.1958 17.6019C18.2517 17.546 18.2831 17.4702 18.2831 17.3912V14.709C18.2823 14.2649 18.1574 13.8297 17.9226 13.4527C17.6877 13.0757 17.3522 12.7718 16.9539 12.5753ZM14.7069 11.1329C14.7069 10.8971 14.7768 10.6666 14.9078 10.4706C15.0388 10.2745 15.2249 10.1218 15.4428 10.0315C15.6606 9.94131 15.9003 9.9177 16.1315 9.9637C16.3627 10.0097 16.5752 10.1232 16.7419 10.2899C16.9086 10.4567 17.0221 10.6691 17.0681 10.9003C17.1141 11.1315 17.0905 11.3712 17.0003 11.589C16.91 11.8069 16.7573 11.993 16.5612 12.124C16.3652 12.255 16.1347 12.3249 15.8989 12.3249C15.5828 12.3249 15.2796 12.1993 15.056 11.9758C14.8325 11.7522 14.7069 11.449 14.7069 11.1329ZM2.19023 11.1329C2.19023 10.8971 2.26014 10.6666 2.39113 10.4706C2.52212 10.2745 2.70829 10.1218 2.92611 10.0315C3.14393 9.94131 3.38362 9.9177 3.61485 9.9637C3.84609 10.0097 4.0585 10.1232 4.22521 10.2899C4.39192 10.4567 4.50546 10.6691 4.55145 10.9003C4.59745 11.1315 4.57384 11.3712 4.48362 11.589C4.39339 11.8069 4.2406 11.993 4.04457 12.124C3.84853 12.255 3.61806 12.3249 3.38229 12.3249C3.06614 12.3249 2.76293 12.1993 2.53938 11.9758C2.31582 11.7522 2.19023 11.449 2.19023 11.1329ZM5.4684 17.0932C5.07321 17.0932 4.6942 16.9362 4.41476 16.6567C4.13531 16.3773 3.97832 15.9983 3.97832 15.6031C3.97832 15.5241 3.94693 15.4482 3.89104 15.3924C3.83515 15.3365 3.75935 15.3051 3.68031 15.3051C3.60127 15.3051 3.52547 15.3365 3.46958 15.3924C3.41369 15.4482 3.38229 15.5241 3.38229 15.6031C3.38264 15.8808 3.43844 16.1557 3.54642 16.4115C3.6544 16.6674 3.81238 16.8992 4.01111 17.0932H1.5942V14.709C1.5942 14.2348 1.78259 13.78 2.11792 13.4447C2.45325 13.1093 2.90806 12.9209 3.38229 12.9209C3.85653 12.9209 4.31133 13.1093 4.64667 13.4447C4.982 13.78 5.17039 14.2348 5.17039 14.709V15.6031C5.17039 15.6821 5.20179 15.7579 5.25767 15.8138C5.31356 15.8697 5.38936 15.9011 5.4684 15.9011H7.55451C7.71259 15.9011 7.86419 15.9639 7.97597 16.0757C8.08775 16.1875 8.15054 16.3391 8.15054 16.4971C8.15054 16.6552 8.08775 16.8068 7.97597 16.9186C7.86419 17.0304 7.71259 17.0932 7.55451 17.0932H5.4684ZM15.6009 15.3051C15.5219 15.3051 15.4461 15.3365 15.3902 15.3924C15.3343 15.4482 15.3029 15.5241 15.3029 15.6031C15.3029 15.9983 15.1459 16.3773 14.8665 16.6567C14.587 16.9362 14.208 17.0932 13.8128 17.0932H11.7267C11.5687 17.0932 11.417 17.0304 11.3053 16.9186C11.1935 16.8068 11.1307 16.6552 11.1307 16.4971C11.1307 16.3391 11.1935 16.1875 11.3053 16.0757C11.417 15.9639 11.5687 15.9011 11.7267 15.9011H13.8128C13.8919 15.9011 13.9677 15.8697 14.0236 15.8138C14.0795 15.7579 14.1109 15.6821 14.1109 15.6031V14.709C14.1109 14.2348 14.2992 13.78 14.6346 13.4447C14.9699 13.1093 15.4247 12.9209 15.8989 12.9209C16.3732 12.9209 16.828 13.1093 17.1633 13.4447C17.4987 13.78 17.687 14.2348 17.687 14.709V17.0932H15.2701C15.4689 16.8992 15.6268 16.6674 15.7348 16.4115C15.8428 16.1557 15.8986 15.8808 15.8989 15.6031C15.8989 15.5241 15.8676 15.4482 15.8117 15.3924C15.7558 15.3365 15.68 15.3051 15.6009 15.3051Z" fill="#624DE3"/>
<path d="M16.9539 12.5753C17.2585 12.3527 17.4848 12.0396 17.6007 11.6806C17.7165 11.3216 17.7158 10.9352 17.5988 10.5767C17.4817 10.2181 17.2543 9.90572 16.949 9.68422C16.6437 9.46272 16.2761 9.34344 15.8989 9.34344C15.5218 9.34344 15.1542 9.46272 14.8489 9.68422C14.5436 9.90572 14.3162 10.2181 14.1991 10.5767C14.0821 10.9352 14.0814 11.3216 14.1972 11.6806C14.3131 12.0396 14.5394 12.3527 14.844 12.5753C14.4456 12.7718 14.1102 13.0757 13.8753 13.4527C13.6405 13.8297 13.5156 14.2649 13.5148 14.709V15.3051H11.7267C11.4106 15.3051 11.1074 15.4307 10.8838 15.6542C10.6603 15.8778 10.5347 16.181 10.5347 16.4971C10.5355 16.7072 10.5932 16.9132 10.7016 17.0932H8.57969C8.68803 16.9132 8.74569 16.7072 8.74657 16.4971C8.74657 16.181 8.62098 15.8778 8.39743 15.6542C8.17387 15.4307 7.87067 15.3051 7.55451 15.3051H5.76642V14.709C5.76563 14.2649 5.64078 13.8297 5.40593 13.4527C5.17109 13.0757 4.83559 12.7718 4.43727 12.5753C4.74181 12.3527 4.96818 12.0396 5.084 11.6806C5.19982 11.3216 5.19916 10.9352 5.08211 10.5767C4.96506 10.2181 4.73762 9.90572 4.43232 9.68422C4.12701 9.46272 3.75948 9.34344 3.38229 9.34344C3.0051 9.34344 2.63757 9.46272 2.33227 9.68422C2.02697 9.90572 1.79952 10.2181 1.68247 10.5767C1.56542 10.9352 1.56476 11.3216 1.68058 11.6806C1.7964 12.0396 2.02277 12.3527 2.32732 12.5753C1.92899 12.7718 1.5935 13.0757 1.35865 13.4527C1.12381 13.8297 0.998955 14.2649 0.998169 14.709V17.3912C0.998169 17.4702 1.02957 17.546 1.08546 17.6019C1.14134 17.6578 1.21715 17.6892 1.29618 17.6892H17.9851C18.0641 17.6892 18.1399 17.6578 18.1958 17.6019C18.2517 17.546 18.2831 17.4702 18.2831 17.3912V14.709C18.2823 14.2649 18.1574 13.8297 17.9226 13.4527C17.6877 13.0757 17.3522 12.7718 16.9539 12.5753ZM14.7069 11.1329C14.7069 10.8971 14.7768 10.6666 14.9078 10.4706C15.0388 10.2745 15.2249 10.1218 15.4428 10.0315C15.6606 9.94131 15.9003 9.9177 16.1315 9.9637C16.3627 10.0097 16.5752 10.1232 16.7419 10.2899C16.9086 10.4567 17.0221 10.6691 17.0681 10.9003C17.1141 11.1315 17.0905 11.3712 17.0003 11.589C16.91 11.8069 16.7573 11.993 16.5612 12.124C16.3652 12.255 16.1347 12.3249 15.8989 12.3249C15.5828 12.3249 15.2796 12.1993 15.056 11.9758C14.8325 11.7522 14.7069 11.449 14.7069 11.1329ZM2.19023 11.1329C2.19023 10.8971 2.26014 10.6666 2.39113 10.4706C2.52212 10.2745 2.70829 10.1218 2.92611 10.0315C3.14393 9.94131 3.38362 9.9177 3.61485 9.9637C3.84609 10.0097 4.0585 10.1232 4.22521 10.2899C4.39192 10.4567 4.50546 10.6691 4.55145 10.9003C4.59745 11.1315 4.57384 11.3712 4.48362 11.589C4.39339 11.8069 4.2406 11.993 4.04457 12.124C3.84853 12.255 3.61806 12.3249 3.38229 12.3249C3.06614 12.3249 2.76293 12.1993 2.53938 11.9758C2.31582 11.7522 2.19023 11.449 2.19023 11.1329ZM5.4684 17.0932C5.07321 17.0932 4.6942 16.9362 4.41476 16.6567C4.13531 16.3773 3.97832 15.9983 3.97832 15.6031C3.97832 15.5241 3.94693 15.4482 3.89104 15.3924C3.83515 15.3365 3.75935 15.3051 3.68031 15.3051C3.60127 15.3051 3.52547 15.3365 3.46958 15.3924C3.41369 15.4482 3.38229 15.5241 3.38229 15.6031C3.38264 15.8808 3.43844 16.1557 3.54642 16.4115C3.6544 16.6674 3.81238 16.8992 4.01111 17.0932H1.5942V14.709C1.5942 14.2348 1.78259 13.78 2.11792 13.4447C2.45325 13.1093 2.90806 12.9209 3.38229 12.9209C3.85653 12.9209 4.31133 13.1093 4.64667 13.4447C4.982 13.78 5.17039 14.2348 5.17039 14.709V15.6031C5.17039 15.6821 5.20179 15.7579 5.25767 15.8138C5.31356 15.8697 5.38936 15.9011 5.4684 15.9011H7.55451C7.71259 15.9011 7.86419 15.9639 7.97597 16.0757C8.08775 16.1875 8.15054 16.3391 8.15054 16.4971C8.15054 16.6552 8.08775 16.8068 7.97597 16.9186C7.86419 17.0304 7.71259 17.0932 7.55451 17.0932H5.4684ZM15.6009 15.3051C15.5219 15.3051 15.4461 15.3365 15.3902 15.3924C15.3343 15.4482 15.3029 15.5241 15.3029 15.6031C15.3029 15.9983 15.1459 16.3773 14.8665 16.6567C14.587 16.9362 14.208 17.0932 13.8128 17.0932H11.7267C11.5687 17.0932 11.417 17.0304 11.3053 16.9186C11.1935 16.8068 11.1307 16.6552 11.1307 16.4971C11.1307 16.3391 11.1935 16.1875 11.3053 16.0757C11.417 15.9639 11.5687 15.9011 11.7267 15.9011H13.8128C13.8919 15.9011 13.9677 15.8697 14.0236 15.8138C14.0795 15.7579 14.1109 15.6821 14.1109 15.6031V14.709C14.1109 14.2348 14.2992 13.78 14.6346 13.4447C14.9699 13.1093 15.4247 12.9209 15.8989 12.9209C16.3732 12.9209 16.828 13.1093 17.1633 13.4447C17.4987 13.78 17.687 14.2348 17.687 14.709V17.0932H15.2701C15.4689 16.8992 15.6268 16.6674 15.7348 16.4115C15.8428 16.1557 15.8986 15.8808 15.8989 15.6031C15.8989 15.5241 15.8676 15.4482 15.8117 15.3924C15.7558 15.3365 15.68 15.3051 15.6009 15.3051Z" stroke="#624DE3" stroke-width="0.6" mask="url(#path-1-outside-1_1_8126)"/>
<path d="M9.63247 8.89841C10.4284 8.89841 11.2064 8.66239 11.8682 8.22021C12.53 7.77802 13.0458 7.14953 13.3504 6.4142C13.6549 5.67887 13.7346 4.86974 13.5794 4.08912C13.4241 3.3085 13.0408 2.59146 12.478 2.02866C11.9152 1.46587 11.1982 1.0826 10.4176 0.927326C9.63694 0.772051 8.8278 0.851744 8.09248 1.15633C7.35715 1.46091 6.72866 1.9767 6.28647 2.63848C5.84429 3.30025 5.60827 4.07829 5.60827 4.8742C5.60827 5.94149 6.03225 6.96506 6.78693 7.71975C7.54162 8.47443 8.56519 8.89841 9.63247 8.89841ZM9.63247 1.74603C10.2512 1.74603 10.856 1.9295 11.3704 2.27323C11.8848 2.61695 12.2858 3.10551 12.5225 3.67711C12.7593 4.2487 12.8212 4.87768 12.7005 5.48448C12.5798 6.09129 12.2819 6.64867 11.8444 7.08616C11.4069 7.52364 10.8496 7.82157 10.2427 7.94227C9.63594 8.06297 9.00697 8.00102 8.43537 7.76426C7.86378 7.52749 7.37522 7.12655 7.03149 6.61212C6.68777 6.0977 6.5043 5.4929 6.5043 4.8742C6.5043 4.04456 6.83388 3.2489 7.42052 2.66225C8.00717 2.07561 8.80283 1.74603 9.63247 1.74603Z" fill="#624DE3" stroke="#624DE3" stroke-width="0.3"/>
<path d="M9.03881 6.06615L9.03903 6.21615C9.14783 6.21599 9.25286 6.17625 9.3345 6.10434C9.33458 6.10427 9.33465 6.10421 9.33472 6.10415L11.7163 4.02023C11.7623 3.98267 11.8003 3.93635 11.8282 3.88395C11.8566 3.83057 11.8739 3.77198 11.8791 3.71172L11.7296 3.69891L11.8791 3.71172C11.8842 3.65146 11.8771 3.59078 11.8582 3.53334C11.8393 3.47589 11.809 3.42287 11.769 3.37747L11.769 3.37747C11.7291 3.33207 11.6803 3.29523 11.6258 3.26916C11.5712 3.2431 11.5119 3.22836 11.4515 3.22582C11.3911 3.22329 11.3307 3.23301 11.2742 3.25441C11.2188 3.27536 11.1681 3.30707 11.1251 3.34769L9.06054 5.15455L8.16441 4.25841C8.08016 4.17417 7.9659 4.12684 7.84675 4.12684C7.72761 4.12684 7.61334 4.17417 7.52909 4.25841C7.44485 4.34266 7.39752 4.45693 7.39752 4.57607C7.39752 4.69522 7.44485 4.80948 7.52909 4.89373L8.72116 6.08579L8.72159 6.08622C8.76345 6.12774 8.8131 6.1606 8.86768 6.18289C8.92227 6.20519 8.98072 6.21649 9.03968 6.21615L9.03881 6.06615ZM9.03881 6.06615C8.99959 6.06638 8.96071 6.05886 8.9244 6.04403L9.2355 5.99165C9.18117 6.03956 9.11125 6.06605 9.03881 6.06615Z" fill="#624DE3" stroke="#624DE3" stroke-width="0.3"/>
</svg>
