<svg width="20" height="20" viewBox="0 0 20 20" fill="none" xmlns="http://www.w3.org/2000/svg">
<path d="M2.9136 16.6663C2.58027 16.6663 2.2886 16.5413 2.0386 16.2913C1.7886 16.0413 1.6636 15.7496 1.6636 15.4163V4.58295C1.6636 4.24961 1.7886 3.95795 2.0386 3.70795C2.2886 3.45795 2.58027 3.33295 2.9136 3.33295H17.0803C17.4136 3.33295 17.7053 3.45795 17.9553 3.70795C18.2053 3.95795 18.3303 4.24961 18.3303 4.58295V15.4163C18.3303 15.7496 18.2053 16.0413 17.9553 16.2913C17.7053 16.5413 17.4136 16.6663 17.0803 16.6663H2.9136ZM2.9136 15.4163H17.0803V6.33295H2.9136V15.4163ZM6.24694 13.9163L5.37194 13.0413L7.51777 10.8746L5.3511 8.70795L6.24694 7.83295L9.2886 10.8746L6.24694 13.9163ZM10.2053 13.9996V12.7496H14.7886V13.9996H10.2053Z" fill="#624DE3"/>
</svg>
