<svg width="22" height="21" viewBox="0 0 22 21" fill="none" xmlns="http://www.w3.org/2000/svg">
<circle cx="10.8594" cy="10.5" r="10.5" fill="#E4E6EB"/>
<path d="M6.43512 12.7839C6.70644 13.0246 6.9734 13.2615 7.23235 13.5074C7.29492 13.5723 7.35951 13.6419 7.42588 13.7133C7.58417 13.8836 7.75256 14.0648 7.92783 14.2206C8.18109 14.4457 8.47295 14.6415 8.82259 14.7074L8.86468 14.7153L8.90556 14.7026C10.6198 14.1694 11.9514 12.9288 13.1376 11.5325C13.6346 10.9475 14.1097 10.3305 14.5773 9.72329C14.6681 9.60543 14.7586 9.48795 14.8489 9.37114C15.406 8.65046 15.9569 7.95446 16.5338 7.34202L16.5341 7.34227L16.5412 7.33367C16.7767 7.04882 16.6882 6.69238 16.5005 6.48841C16.4047 6.38437 16.2716 6.3049 16.1192 6.29139C15.9611 6.27738 15.8036 6.33646 15.6738 6.47111L15.6736 6.47096L15.668 6.47743C15.1369 7.08608 14.6239 7.73741 14.1111 8.39321C14.0709 8.44469 14.0307 8.49619 13.9904 8.5477C13.5169 9.1536 13.0422 9.76102 12.5487 10.3454C11.4886 11.6006 10.3514 12.7369 8.98243 13.4993C8.89994 13.4858 8.81419 13.4294 8.71099 13.3284C8.66601 13.2843 8.62368 13.238 8.57894 13.1891C8.56565 13.1746 8.55214 13.1598 8.53829 13.1448C8.48393 13.0858 8.42341 13.0223 8.35924 12.9708C8.00826 12.6076 7.64631 12.2789 7.29292 11.9581C7.25248 11.9214 7.21214 11.8848 7.17195 11.8482C6.77704 11.489 6.39481 11.1349 6.04082 10.7399C5.92531 10.6018 5.77466 10.5376 5.61982 10.5446C5.47027 10.5514 5.33451 10.6235 5.2341 10.7229C5.03343 10.9215 4.93427 11.2744 5.16018 11.5867L5.1673 11.5966L5.17574 11.6053C5.5137 11.9557 5.86484 12.276 6.21265 12.5861C6.28708 12.6525 6.36126 12.7183 6.43512 12.7839Z" fill="#646464" stroke="#646464" stroke-width="0.344081"/>
</svg>
