<svg width="14" height="14" viewBox="0 0 14 14" fill="none" xmlns="http://www.w3.org/2000/svg">
<circle cx="6.85938" cy="7" r="6.5" fill="#624DE3"/>
<path d="M4.12214 8.41377C4.2901 8.5628 4.45537 8.70944 4.61567 8.86169C4.65441 8.90189 4.6944 8.94492 4.73549 8.98914C4.83347 9.09458 4.93771 9.20676 5.0462 9.30318C5.20298 9.44251 5.38362 9.56371 5.60003 9.6045L5.62604 9.60941L5.65131 9.60154C6.71246 9.27147 7.53679 8.50351 8.27106 7.63916C8.57873 7.27699 8.87286 6.89505 9.16232 6.51917C9.21851 6.44621 9.27452 6.37347 9.33042 6.30116C9.67529 5.85502 10.0164 5.42416 10.3735 5.04502L10.3737 5.04517L10.3781 5.03986C10.5238 4.8636 10.4691 4.64304 10.3529 4.51681C10.2936 4.45243 10.2112 4.40325 10.1169 4.3949C10.0191 4.38623 9.92168 4.42278 9.84133 4.5061L9.84123 4.50601L9.83774 4.51001C9.50896 4.88679 9.19141 5.28999 8.87399 5.69596C8.84908 5.72782 8.82417 5.75969 8.79926 5.79157C8.50615 6.16666 8.21229 6.54269 7.90674 6.90448C7.25048 7.68149 6.5465 8.38499 5.69897 8.85692C5.64784 8.84861 5.59471 8.81367 5.5308 8.75108C5.50295 8.72381 5.47674 8.69515 5.44905 8.66486C5.44082 8.65585 5.43246 8.64671 5.42389 8.63741C5.39023 8.60093 5.35277 8.56159 5.31305 8.52971C5.09578 8.30487 4.87172 8.10144 4.65295 7.90282C4.62791 7.88009 4.60294 7.85743 4.57806 7.8348C4.33359 7.61244 4.09697 7.39324 3.87783 7.14869C3.80635 7.06321 3.71314 7.02349 3.61734 7.02785C3.5248 7.03205 3.4408 7.07666 3.37866 7.13816C3.25448 7.26106 3.19312 7.47944 3.33292 7.6727L3.33732 7.67879L3.34254 7.68419C3.55175 7.90111 3.76911 8.09938 3.98442 8.29137C4.0305 8.33245 4.07642 8.3732 4.12214 8.41377Z" fill="white" stroke="white" stroke-width="0.212686"/>
</svg>
