<svg width="32" height="32" viewBox="0 0 32 32" fill="none" xmlns="http://www.w3.org/2000/svg">
<rect width="32" height="32" rx="5" fill="#E3DCFF"/>
<path d="M10.1665 22.6667V16H7.6665L15.9998 8.5L19.3332 11.5V9.33333H21.8332V13.75L24.3332 16H21.8332V22.6667H16.8332V17.6667H15.1665V22.6667H10.1665ZM11.8332 21H13.4998V16H18.4998V21H20.1665V14.5L15.9998 10.75L11.8332 14.5V21ZM14.3332 14.3542H17.6665C17.6665 13.9097 17.4998 13.545 17.1665 13.26C16.8332 12.9756 16.4443 12.8333 15.9998 12.8333C15.5554 12.8333 15.1665 12.9756 14.8332 13.26C14.4998 13.545 14.3332 13.9097 14.3332 14.3542Z" fill="#624DE3"/>
</svg>
