<svg width="42" height="42" viewBox="0 0 42 42" fill="none" xmlns="http://www.w3.org/2000/svg">
<rect width="42" height="42" rx="6.5625" fill="#E3DCFF"/>
<mask id="path-2-outside-1_7528_141072" maskUnits="userSpaceOnUse" x="9.03223" y="8.67969" width="24" height="24" fill="black">
<rect fill="white" x="9.03223" y="8.67969" width="24" height="24"/>
<path d="M31.4067 20.7913H27.0001C26.6903 20.7913 26.4398 21.0417 26.4398 21.3515C26.4398 24.3513 23.9992 26.791 21.0004 26.791C18.0005 26.791 15.5609 24.3504 15.5609 21.3515C15.5609 21.0417 15.3104 20.7913 15.0006 20.7913H10.5941C10.2843 20.7913 10.0338 21.0417 10.0338 21.3515V22.6782C10.0338 23.181 10.3916 23.6151 10.8841 23.7121L12.0215 23.9362L12.8237 25.8721L12.1778 26.8353C11.8981 27.2525 11.9528 27.8127 12.3077 28.1677L14.1843 30.0443C14.5393 30.3993 15.0996 30.4539 15.5167 30.1742L16.4799 29.5283L18.4158 30.3305L18.6399 31.468C18.7369 31.9604 19.1719 32.3182 19.6738 32.3182H22.3273C22.8291 32.3182 23.2641 31.9604 23.3611 31.468L23.5852 30.3305L25.5211 29.5283L26.4844 30.1742C26.9015 30.4539 27.4618 30.3992 27.8167 30.0443L29.6924 28.1677C30.0474 27.8127 30.102 27.2524 29.8223 26.8353L29.1764 25.8721L29.9786 23.9362L31.1161 23.7121C31.6085 23.6151 31.9663 23.1801 31.9663 22.6782V21.3515C31.9663 21.0417 31.7158 20.7913 31.4061 20.7913H31.4067ZM30.8464 22.6236L29.4679 22.8957C29.2843 22.9315 29.1308 23.0577 29.0583 23.2309L28.0264 25.7214C27.9548 25.8947 27.9746 26.0924 28.0791 26.2478L28.8616 27.4144L27.0622 29.2138L25.8946 28.4313C25.7392 28.3268 25.5415 28.307 25.3682 28.3786L22.8777 29.4105C22.7045 29.4821 22.5783 29.6356 22.5425 29.8201L22.2704 31.1986H19.7262L19.4541 29.8201C19.4183 29.6365 19.2921 29.483 19.1189 29.4105L16.6283 28.3786C16.4551 28.307 16.2574 28.3268 16.102 28.4313L14.9344 29.2138L13.135 27.4144L13.9175 26.2478C14.022 26.0924 14.0418 25.8947 13.9702 25.7214L12.9383 23.2309C12.8667 23.0577 12.7132 22.9315 12.5287 22.8957L11.1502 22.6236V21.9118H14.4598C14.7451 25.2676 17.5681 27.9117 20.9962 27.9117C24.4244 27.9117 27.2476 25.2676 27.5327 21.9118H30.8423V22.6236H30.8464ZM10.4647 19.7291C10.766 19.7997 11.0673 19.6133 11.1388 19.312C11.4439 18.0173 12.5879 17.1134 13.9193 17.1134C15.2517 17.1134 16.3949 18.0173 16.6998 19.312C16.761 19.57 16.9908 19.7432 17.245 19.7432C17.2874 19.7432 17.3307 19.7385 17.374 19.7282C17.6753 19.6566 17.8617 19.3553 17.7911 19.054C17.5887 18.1962 17.0972 17.4194 16.406 16.8648C16.148 16.6586 15.8665 16.4863 15.568 16.3507C15.9041 15.9656 16.1075 15.4637 16.1075 14.9138C16.1075 13.7076 15.1264 12.7256 13.9193 12.7256C12.7131 12.7256 11.731 13.7067 11.731 14.9138C11.731 15.4637 11.9354 15.9656 12.2706 16.3507C11.9721 16.4863 11.6896 16.6586 11.4325 16.8648C10.7414 17.4184 10.2499 18.1962 10.0475 19.054C9.9759 19.3553 10.1633 19.6566 10.4646 19.7282L10.4647 19.7291ZM13.9193 13.848C14.5078 13.848 14.9871 14.3264 14.9871 14.9158C14.9871 15.5043 14.5088 15.9836 13.9193 15.9836C13.3309 15.9836 12.8516 15.5052 12.8516 14.9158C12.8516 14.3273 13.3299 13.848 13.9193 13.848ZM24.6262 19.7291C24.6695 19.7395 24.7128 19.7442 24.7552 19.7442C25.0094 19.7442 25.2392 19.57 25.3004 19.3129C25.6054 18.0192 26.7495 17.1143 28.0809 17.1143C29.4132 17.1143 30.5564 18.0182 30.8613 19.3129C30.9329 19.6142 31.2342 19.8006 31.5355 19.73C31.8368 19.6585 32.0233 19.3572 31.9527 19.0559C31.7502 18.1981 31.2587 17.4213 30.5676 16.8667C30.3096 16.6605 30.028 16.4881 29.7295 16.3526C30.0657 15.9674 30.2691 15.4656 30.2691 14.9157C30.2691 13.7095 29.2879 12.7274 28.0808 12.7274C26.8747 12.7274 25.8926 13.7086 25.8926 14.9157C25.8926 15.4656 26.0969 15.9675 26.4321 16.3526C26.1336 16.4881 25.8511 16.6604 25.5941 16.8667C24.903 17.4203 24.4115 18.1981 24.209 19.0559C24.1374 19.3572 24.3248 19.6585 24.6261 19.73L24.6262 19.7291ZM28.0809 13.848C28.6694 13.848 29.1487 14.3264 29.1487 14.9158C29.1487 15.5043 28.6703 15.9836 28.0809 15.9836C27.4924 15.9836 27.0131 15.5052 27.0131 14.9158C27.0131 14.3273 27.4915 13.848 28.0809 13.848ZM17.5454 16.6832C17.8467 16.7548 18.148 16.5674 18.2196 16.2661C18.5247 14.9714 19.6687 14.0675 21.0001 14.0675C22.3324 14.0675 23.4757 14.9714 23.7806 16.2661C23.8418 16.5241 24.0715 16.6974 24.3258 16.6974C24.3681 16.6974 24.4114 16.6926 24.4548 16.6823C24.7561 16.6107 24.9425 16.3094 24.8719 16.0081C24.6694 15.1503 24.1779 14.3735 23.4868 13.8189C23.2288 13.6127 22.9473 13.4404 22.6488 13.3048C22.9849 12.9197 23.1883 12.4178 23.1883 11.8679C23.1883 10.6618 22.2072 9.67969 21.0001 9.67969C19.7939 9.67969 18.8118 10.6608 18.8118 11.8679C18.8118 12.4178 19.0161 12.9197 19.3513 13.3048C19.0529 13.4404 18.7704 13.6127 18.5133 13.8189C17.8222 14.3726 17.3307 15.1503 17.1282 16.0081C17.0567 16.3094 17.2441 16.6107 17.5454 16.6823L17.5454 16.6832ZM21.0001 10.8021C21.5886 10.8021 22.0679 11.2805 22.0679 11.8699C22.0679 12.4584 21.5896 12.9377 21.0001 12.9377C20.4116 12.9377 19.9324 12.4594 19.9324 11.8699C19.9324 11.2814 20.4107 10.8021 21.0001 10.8021Z"/>
</mask>
<path d="M31.4067 20.7913H27.0001C26.6903 20.7913 26.4398 21.0417 26.4398 21.3515C26.4398 24.3513 23.9992 26.791 21.0004 26.791C18.0005 26.791 15.5609 24.3504 15.5609 21.3515C15.5609 21.0417 15.3104 20.7913 15.0006 20.7913H10.5941C10.2843 20.7913 10.0338 21.0417 10.0338 21.3515V22.6782C10.0338 23.181 10.3916 23.6151 10.8841 23.7121L12.0215 23.9362L12.8237 25.8721L12.1778 26.8353C11.8981 27.2525 11.9528 27.8127 12.3077 28.1677L14.1843 30.0443C14.5393 30.3993 15.0996 30.4539 15.5167 30.1742L16.4799 29.5283L18.4158 30.3305L18.6399 31.468C18.7369 31.9604 19.1719 32.3182 19.6738 32.3182H22.3273C22.8291 32.3182 23.2641 31.9604 23.3611 31.468L23.5852 30.3305L25.5211 29.5283L26.4844 30.1742C26.9015 30.4539 27.4618 30.3992 27.8167 30.0443L29.6924 28.1677C30.0474 27.8127 30.102 27.2524 29.8223 26.8353L29.1764 25.8721L29.9786 23.9362L31.1161 23.7121C31.6085 23.6151 31.9663 23.1801 31.9663 22.6782V21.3515C31.9663 21.0417 31.7158 20.7913 31.4061 20.7913H31.4067ZM30.8464 22.6236L29.4679 22.8957C29.2843 22.9315 29.1308 23.0577 29.0583 23.2309L28.0264 25.7214C27.9548 25.8947 27.9746 26.0924 28.0791 26.2478L28.8616 27.4144L27.0622 29.2138L25.8946 28.4313C25.7392 28.3268 25.5415 28.307 25.3682 28.3786L22.8777 29.4105C22.7045 29.4821 22.5783 29.6356 22.5425 29.8201L22.2704 31.1986H19.7262L19.4541 29.8201C19.4183 29.6365 19.2921 29.483 19.1189 29.4105L16.6283 28.3786C16.4551 28.307 16.2574 28.3268 16.102 28.4313L14.9344 29.2138L13.135 27.4144L13.9175 26.2478C14.022 26.0924 14.0418 25.8947 13.9702 25.7214L12.9383 23.2309C12.8667 23.0577 12.7132 22.9315 12.5287 22.8957L11.1502 22.6236V21.9118H14.4598C14.7451 25.2676 17.5681 27.9117 20.9962 27.9117C24.4244 27.9117 27.2476 25.2676 27.5327 21.9118H30.8423V22.6236H30.8464ZM10.4647 19.7291C10.766 19.7997 11.0673 19.6133 11.1388 19.312C11.4439 18.0173 12.5879 17.1134 13.9193 17.1134C15.2517 17.1134 16.3949 18.0173 16.6998 19.312C16.761 19.57 16.9908 19.7432 17.245 19.7432C17.2874 19.7432 17.3307 19.7385 17.374 19.7282C17.6753 19.6566 17.8617 19.3553 17.7911 19.054C17.5887 18.1962 17.0972 17.4194 16.406 16.8648C16.148 16.6586 15.8665 16.4863 15.568 16.3507C15.9041 15.9656 16.1075 15.4637 16.1075 14.9138C16.1075 13.7076 15.1264 12.7256 13.9193 12.7256C12.7131 12.7256 11.731 13.7067 11.731 14.9138C11.731 15.4637 11.9354 15.9656 12.2706 16.3507C11.9721 16.4863 11.6896 16.6586 11.4325 16.8648C10.7414 17.4184 10.2499 18.1962 10.0475 19.054C9.9759 19.3553 10.1633 19.6566 10.4646 19.7282L10.4647 19.7291ZM13.9193 13.848C14.5078 13.848 14.9871 14.3264 14.9871 14.9158C14.9871 15.5043 14.5088 15.9836 13.9193 15.9836C13.3309 15.9836 12.8516 15.5052 12.8516 14.9158C12.8516 14.3273 13.3299 13.848 13.9193 13.848ZM24.6262 19.7291C24.6695 19.7395 24.7128 19.7442 24.7552 19.7442C25.0094 19.7442 25.2392 19.57 25.3004 19.3129C25.6054 18.0192 26.7495 17.1143 28.0809 17.1143C29.4132 17.1143 30.5564 18.0182 30.8613 19.3129C30.9329 19.6142 31.2342 19.8006 31.5355 19.73C31.8368 19.6585 32.0233 19.3572 31.9527 19.0559C31.7502 18.1981 31.2587 17.4213 30.5676 16.8667C30.3096 16.6605 30.028 16.4881 29.7295 16.3526C30.0657 15.9674 30.2691 15.4656 30.2691 14.9157C30.2691 13.7095 29.2879 12.7274 28.0808 12.7274C26.8747 12.7274 25.8926 13.7086 25.8926 14.9157C25.8926 15.4656 26.0969 15.9675 26.4321 16.3526C26.1336 16.4881 25.8511 16.6604 25.5941 16.8667C24.903 17.4203 24.4115 18.1981 24.209 19.0559C24.1374 19.3572 24.3248 19.6585 24.6261 19.73L24.6262 19.7291ZM28.0809 13.848C28.6694 13.848 29.1487 14.3264 29.1487 14.9158C29.1487 15.5043 28.6703 15.9836 28.0809 15.9836C27.4924 15.9836 27.0131 15.5052 27.0131 14.9158C27.0131 14.3273 27.4915 13.848 28.0809 13.848ZM17.5454 16.6832C17.8467 16.7548 18.148 16.5674 18.2196 16.2661C18.5247 14.9714 19.6687 14.0675 21.0001 14.0675C22.3324 14.0675 23.4757 14.9714 23.7806 16.2661C23.8418 16.5241 24.0715 16.6974 24.3258 16.6974C24.3681 16.6974 24.4114 16.6926 24.4548 16.6823C24.7561 16.6107 24.9425 16.3094 24.8719 16.0081C24.6694 15.1503 24.1779 14.3735 23.4868 13.8189C23.2288 13.6127 22.9473 13.4404 22.6488 13.3048C22.9849 12.9197 23.1883 12.4178 23.1883 11.8679C23.1883 10.6618 22.2072 9.67969 21.0001 9.67969C19.7939 9.67969 18.8118 10.6608 18.8118 11.8679C18.8118 12.4178 19.0161 12.9197 19.3513 13.3048C19.0529 13.4404 18.7704 13.6127 18.5133 13.8189C17.8222 14.3726 17.3307 15.1503 17.1282 16.0081C17.0567 16.3094 17.2441 16.6107 17.5454 16.6823L17.5454 16.6832ZM21.0001 10.8021C21.5886 10.8021 22.0679 11.2805 22.0679 11.8699C22.0679 12.4584 21.5896 12.9377 21.0001 12.9377C20.4116 12.9377 19.9324 12.4594 19.9324 11.8699C19.9324 11.2814 20.4107 10.8021 21.0001 10.8021Z" fill="#6754E2"/>
<path d="M31.4067 20.7913H27.0001C26.6903 20.7913 26.4398 21.0417 26.4398 21.3515C26.4398 24.3513 23.9992 26.791 21.0004 26.791C18.0005 26.791 15.5609 24.3504 15.5609 21.3515C15.5609 21.0417 15.3104 20.7913 15.0006 20.7913H10.5941C10.2843 20.7913 10.0338 21.0417 10.0338 21.3515V22.6782C10.0338 23.181 10.3916 23.6151 10.8841 23.7121L12.0215 23.9362L12.8237 25.8721L12.1778 26.8353C11.8981 27.2525 11.9528 27.8127 12.3077 28.1677L14.1843 30.0443C14.5393 30.3993 15.0996 30.4539 15.5167 30.1742L16.4799 29.5283L18.4158 30.3305L18.6399 31.468C18.7369 31.9604 19.1719 32.3182 19.6738 32.3182H22.3273C22.8291 32.3182 23.2641 31.9604 23.3611 31.468L23.5852 30.3305L25.5211 29.5283L26.4844 30.1742C26.9015 30.4539 27.4618 30.3992 27.8167 30.0443L29.6924 28.1677C30.0474 27.8127 30.102 27.2524 29.8223 26.8353L29.1764 25.8721L29.9786 23.9362L31.1161 23.7121C31.6085 23.6151 31.9663 23.1801 31.9663 22.6782V21.3515C31.9663 21.0417 31.7158 20.7913 31.4061 20.7913H31.4067ZM30.8464 22.6236L29.4679 22.8957C29.2843 22.9315 29.1308 23.0577 29.0583 23.2309L28.0264 25.7214C27.9548 25.8947 27.9746 26.0924 28.0791 26.2478L28.8616 27.4144L27.0622 29.2138L25.8946 28.4313C25.7392 28.3268 25.5415 28.307 25.3682 28.3786L22.8777 29.4105C22.7045 29.4821 22.5783 29.6356 22.5425 29.8201L22.2704 31.1986H19.7262L19.4541 29.8201C19.4183 29.6365 19.2921 29.483 19.1189 29.4105L16.6283 28.3786C16.4551 28.307 16.2574 28.3268 16.102 28.4313L14.9344 29.2138L13.135 27.4144L13.9175 26.2478C14.022 26.0924 14.0418 25.8947 13.9702 25.7214L12.9383 23.2309C12.8667 23.0577 12.7132 22.9315 12.5287 22.8957L11.1502 22.6236V21.9118H14.4598C14.7451 25.2676 17.5681 27.9117 20.9962 27.9117C24.4244 27.9117 27.2476 25.2676 27.5327 21.9118H30.8423V22.6236H30.8464ZM10.4647 19.7291C10.766 19.7997 11.0673 19.6133 11.1388 19.312C11.4439 18.0173 12.5879 17.1134 13.9193 17.1134C15.2517 17.1134 16.3949 18.0173 16.6998 19.312C16.761 19.57 16.9908 19.7432 17.245 19.7432C17.2874 19.7432 17.3307 19.7385 17.374 19.7282C17.6753 19.6566 17.8617 19.3553 17.7911 19.054C17.5887 18.1962 17.0972 17.4194 16.406 16.8648C16.148 16.6586 15.8665 16.4863 15.568 16.3507C15.9041 15.9656 16.1075 15.4637 16.1075 14.9138C16.1075 13.7076 15.1264 12.7256 13.9193 12.7256C12.7131 12.7256 11.731 13.7067 11.731 14.9138C11.731 15.4637 11.9354 15.9656 12.2706 16.3507C11.9721 16.4863 11.6896 16.6586 11.4325 16.8648C10.7414 17.4184 10.2499 18.1962 10.0475 19.054C9.9759 19.3553 10.1633 19.6566 10.4646 19.7282L10.4647 19.7291ZM13.9193 13.848C14.5078 13.848 14.9871 14.3264 14.9871 14.9158C14.9871 15.5043 14.5088 15.9836 13.9193 15.9836C13.3309 15.9836 12.8516 15.5052 12.8516 14.9158C12.8516 14.3273 13.3299 13.848 13.9193 13.848ZM24.6262 19.7291C24.6695 19.7395 24.7128 19.7442 24.7552 19.7442C25.0094 19.7442 25.2392 19.57 25.3004 19.3129C25.6054 18.0192 26.7495 17.1143 28.0809 17.1143C29.4132 17.1143 30.5564 18.0182 30.8613 19.3129C30.9329 19.6142 31.2342 19.8006 31.5355 19.73C31.8368 19.6585 32.0233 19.3572 31.9527 19.0559C31.7502 18.1981 31.2587 17.4213 30.5676 16.8667C30.3096 16.6605 30.028 16.4881 29.7295 16.3526C30.0657 15.9674 30.2691 15.4656 30.2691 14.9157C30.2691 13.7095 29.2879 12.7274 28.0808 12.7274C26.8747 12.7274 25.8926 13.7086 25.8926 14.9157C25.8926 15.4656 26.0969 15.9675 26.4321 16.3526C26.1336 16.4881 25.8511 16.6604 25.5941 16.8667C24.903 17.4203 24.4115 18.1981 24.209 19.0559C24.1374 19.3572 24.3248 19.6585 24.6261 19.73L24.6262 19.7291ZM28.0809 13.848C28.6694 13.848 29.1487 14.3264 29.1487 14.9158C29.1487 15.5043 28.6703 15.9836 28.0809 15.9836C27.4924 15.9836 27.0131 15.5052 27.0131 14.9158C27.0131 14.3273 27.4915 13.848 28.0809 13.848ZM17.5454 16.6832C17.8467 16.7548 18.148 16.5674 18.2196 16.2661C18.5247 14.9714 19.6687 14.0675 21.0001 14.0675C22.3324 14.0675 23.4757 14.9714 23.7806 16.2661C23.8418 16.5241 24.0715 16.6974 24.3258 16.6974C24.3681 16.6974 24.4114 16.6926 24.4548 16.6823C24.7561 16.6107 24.9425 16.3094 24.8719 16.0081C24.6694 15.1503 24.1779 14.3735 23.4868 13.8189C23.2288 13.6127 22.9473 13.4404 22.6488 13.3048C22.9849 12.9197 23.1883 12.4178 23.1883 11.8679C23.1883 10.6618 22.2072 9.67969 21.0001 9.67969C19.7939 9.67969 18.8118 10.6608 18.8118 11.8679C18.8118 12.4178 19.0161 12.9197 19.3513 13.3048C19.0529 13.4404 18.7704 13.6127 18.5133 13.8189C17.8222 14.3726 17.3307 15.1503 17.1282 16.0081C17.0567 16.3094 17.2441 16.6107 17.5454 16.6823L17.5454 16.6832ZM21.0001 10.8021C21.5886 10.8021 22.0679 11.2805 22.0679 11.8699C22.0679 12.4584 21.5896 12.9377 21.0001 12.9377C20.4116 12.9377 19.9324 12.4594 19.9324 11.8699C19.9324 11.2814 20.4107 10.8021 21.0001 10.8021Z" stroke="#6754E2" stroke-width="0.4" mask="url(#path-2-outside-1_7528_141072)"/>
</svg>
