<svg width="20" height="21" viewBox="0 0 20 21" fill="none" xmlns="http://www.w3.org/2000/svg">
<path d="M3.18468 3.80273C2.44449 3.80273 1.83362 4.41362 1.83362 5.15379V15.8365C1.83362 16.5767 2.4445 17.1876 3.18468 17.1876H16.8154C17.5555 17.1876 18.1664 16.5767 18.1664 15.8365V5.15379C18.1664 4.41362 17.5555 3.80273 16.8154 3.80273H3.18468ZM3.18468 4.76349H16.8154C17.0399 4.76349 17.2057 4.92927 17.2057 5.15379V6.74316H2.79437V5.15379C2.79437 4.92926 2.96014 4.76349 3.18468 4.76349ZM4.01032 5.23073C3.88292 5.23073 3.76073 5.28134 3.67065 5.37143C3.58056 5.46151 3.52995 5.5837 3.52995 5.7111C3.52995 5.77419 3.54237 5.83665 3.56651 5.89493C3.59065 5.95322 3.62604 6.00617 3.67065 6.05078C3.71525 6.09539 3.76821 6.13077 3.82649 6.15491C3.88477 6.17905 3.94724 6.19148 4.01032 6.19148H4.7534C4.81649 6.19148 4.87895 6.17905 4.93724 6.15491C4.99552 6.13077 5.04847 6.09539 5.09308 6.05078C5.13769 6.00617 5.17307 5.95322 5.19721 5.89493C5.22136 5.83665 5.23378 5.77419 5.23378 5.7111C5.23378 5.64802 5.22135 5.58555 5.19721 5.52727C5.17307 5.46899 5.13769 5.41603 5.09308 5.37142C5.04847 5.32682 4.99552 5.29143 4.93724 5.26729C4.87895 5.24315 4.81649 5.23073 4.7534 5.23073H4.01032ZM6.17202 5.23073C6.04461 5.23073 5.92243 5.28134 5.83234 5.37143C5.74225 5.46151 5.69164 5.5837 5.69164 5.7111C5.69164 5.77419 5.70407 5.83665 5.72821 5.89493C5.75235 5.95322 5.78773 6.00617 5.83234 6.05078C5.87695 6.09539 5.9299 6.13077 5.98818 6.15491C6.04647 6.17905 6.10893 6.19148 6.17202 6.19148H6.9151C6.97818 6.19148 7.04065 6.17905 7.09893 6.15491C7.15721 6.13077 7.21017 6.09539 7.25477 6.05078C7.29938 6.00617 7.33477 5.95322 7.35891 5.89493C7.38305 5.83665 7.39547 5.77419 7.39547 5.7111C7.39547 5.64802 7.38305 5.58555 7.35891 5.52727C7.33477 5.46899 7.29938 5.41603 7.25477 5.37142C7.21017 5.32682 7.15721 5.29143 7.09893 5.26729C7.04065 5.24315 6.97818 5.23073 6.9151 5.23073H6.17202ZM2.79437 7.70391H17.2057V15.8365C17.2057 16.0611 17.0399 16.2268 16.8154 16.2268H3.18468C2.96012 16.2268 2.79437 16.0611 2.79437 15.8365V7.70391ZM9.15185 8.54457C9.02445 8.54459 8.90227 8.5952 8.81219 8.68529C8.7221 8.77537 8.67148 8.89755 8.67147 9.02495V9.75396C8.41366 9.83448 8.16372 9.93791 7.92464 10.0636L7.40861 9.54848C7.31852 9.45843 7.19635 9.40784 7.06897 9.40784C6.94159 9.40784 6.81942 9.45843 6.72933 9.54848L5.53026 10.7475C5.44021 10.8376 5.38962 10.9598 5.38962 11.0872C5.38962 11.2146 5.44021 11.3367 5.53026 11.4268L6.04536 11.9429C5.91983 12.1819 5.81709 12.4319 5.73668 12.6897H5.00673C4.87933 12.6897 4.75715 12.7403 4.66707 12.8304C4.57698 12.9205 4.52637 13.0427 4.52635 13.1701V14.8664C4.52637 14.9938 4.57698 15.116 4.66707 15.2061C4.75715 15.2962 4.87933 15.3468 5.00673 15.3468H5.73668C5.75609 15.409 5.77646 15.4712 5.79859 15.5326C5.8418 15.6523 5.93081 15.7501 6.04604 15.8042C6.16128 15.8584 6.29332 15.8646 6.41313 15.8215C6.47255 15.8001 6.52717 15.7672 6.57387 15.7247C6.62056 15.6822 6.65841 15.6309 6.68525 15.5737C6.71209 15.5165 6.72739 15.4546 6.73029 15.3916C6.73318 15.3285 6.72361 15.2654 6.70211 15.206C6.64998 15.0615 6.60726 14.9142 6.57451 14.7641C6.55117 14.6571 6.49192 14.5612 6.4066 14.4924C6.32127 14.4236 6.215 14.3861 6.1054 14.386H5.48711V13.6504H6.1054C6.215 13.6504 6.32127 13.6129 6.4066 13.5441C6.49193 13.4753 6.55118 13.3794 6.57452 13.2723C6.66356 12.8643 6.82535 12.4753 7.05114 12.1239C7.11042 12.0316 7.13633 11.9218 7.12455 11.8128C7.11277 11.7037 7.06402 11.6019 6.9864 11.5244L6.54918 11.0872L7.06897 10.5674L7.50618 11.0046C7.5837 11.0822 7.68546 11.131 7.79453 11.1428C7.90359 11.1546 8.01341 11.1286 8.10572 11.0694C8.45706 10.8434 8.84601 10.682 9.25411 10.5927C9.36135 10.5694 9.45735 10.51 9.52614 10.4245C9.59493 10.3389 9.63237 10.2324 9.63222 10.1227V9.50533H10.3687V10.1227C10.3688 10.2323 10.4063 10.3386 10.4751 10.4239C10.5439 10.5092 10.6398 10.5685 10.7468 10.5918C11.1553 10.6807 11.5445 10.8416 11.8962 11.0675C11.9884 11.1269 12.0981 11.1529 12.2072 11.1413C12.3163 11.1297 12.4181 11.0812 12.4957 11.0037L12.9311 10.5674L13.4518 11.0872L13.0155 11.5235C12.9379 11.601 12.8891 11.7027 12.8773 11.8118C12.8656 11.9209 12.8915 12.0307 12.9508 12.123C13.1767 12.4747 13.3384 12.8639 13.4274 13.2723C13.4507 13.3794 13.51 13.4753 13.5953 13.5441C13.6806 13.6129 13.7869 13.6504 13.8965 13.6504H14.5129V14.386H13.8956C13.7858 14.3859 13.6793 14.4233 13.5938 14.4921C13.5083 14.5609 13.4489 14.6569 13.4255 14.7641C13.3927 14.9142 13.351 15.0615 13.2988 15.206C13.2773 15.2654 13.2677 15.3284 13.2705 15.3914C13.2734 15.4544 13.2886 15.5163 13.3153 15.5735C13.3421 15.6306 13.3798 15.6819 13.4264 15.7245C13.473 15.7671 13.5275 15.8 13.5869 15.8215C13.6463 15.843 13.7093 15.8526 13.7724 15.8497C13.8355 15.8468 13.8974 15.8315 13.9545 15.8047C14.0117 15.7778 14.063 15.74 14.1055 15.6933C14.1481 15.6466 14.181 15.592 14.2024 15.5326C14.2245 15.4712 14.2449 15.409 14.2643 15.3468H14.9933C15.1207 15.3468 15.2429 15.2962 15.3329 15.2061C15.423 15.116 15.4737 14.9938 15.4737 14.8664V13.1701C15.4737 13.0427 15.423 12.9205 15.3329 12.8304C15.2429 12.7403 15.1207 12.6897 14.9933 12.6897H14.2662C14.1857 12.4315 14.0813 12.1813 13.9556 11.9419L14.4707 11.4268C14.5607 11.3367 14.6113 11.2146 14.6113 11.0872C14.6113 10.9598 14.5607 10.8376 14.4707 10.7475L13.2716 9.54848C13.227 9.50375 13.174 9.46826 13.1156 9.44405C13.0573 9.41983 12.9947 9.40737 12.9315 9.40737C12.8683 9.40737 12.8058 9.41983 12.7474 9.44405C12.6891 9.46826 12.636 9.50375 12.5914 9.54848L12.0773 10.0626C11.8378 9.93696 11.5877 9.83344 11.3295 9.75302V9.02495C11.3295 8.89755 11.2789 8.77537 11.1888 8.68529C11.0987 8.5952 10.9765 8.54459 10.8491 8.54457H9.15185ZM9.95029 12.0733C8.90413 12.1001 8.05412 12.966 8.05412 14.0182C8.05412 15.0872 8.93108 15.9641 10 15.9641C11.0689 15.9641 11.9459 15.0872 11.9459 14.0182C11.9459 12.9493 11.0689 12.0733 10 12.0733C9.98331 12.0733 9.96686 12.0729 9.95029 12.0733ZM10 13.034C10.5497 13.034 10.9852 13.4685 10.9852 14.0182C10.9852 14.5679 10.5497 15.0034 10 15.0034C9.45031 15.0034 9.01487 14.5679 9.01487 14.0182C9.01487 13.4685 9.45031 13.034 10 13.034Z" fill="#6754E2"/>
</svg>
