<svg width="100" height="17" viewBox="0 0 100 17" fill="none" xmlns="http://www.w3.org/2000/svg">
<g clip-path="url(#clip0_325_4743)">
<path fill-rule="evenodd" clip-rule="evenodd" d="M8.16379 0.481059C8.47382 -0.160353 8.98088 -0.160353 9.2909 0.481059L11.0518 4.12537C11.3618 4.76678 12.1821 5.37569 12.8753 5.47842L16.8127 6.06261C17.5057 6.16534 17.6626 6.65819 17.161 7.15753L14.3115 9.99399C13.8102 10.4933 13.497 11.4784 13.6154 12.1832L14.2876 16.1883C14.406 16.8935 13.9957 17.1981 13.376 16.8649L9.8543 14.9741C9.23425 14.6415 8.22045 14.6415 7.60039 14.9741L4.07869 16.8649C3.45895 17.1981 3.04866 16.8935 3.16707 16.1883L3.83932 12.1832C3.95773 11.4784 3.64452 10.4933 3.14319 9.99399L0.293743 7.15753C-0.207903 6.65819 -0.0509791 6.16534 0.641967 6.06261L4.57938 5.47842C5.27264 5.37569 6.09291 4.76678 6.40294 4.12537L8.16379 0.481059Z" fill="#FFC414"/>
<path fill-rule="evenodd" clip-rule="evenodd" d="M28.7995 0.481059C29.1096 -0.160353 29.6166 -0.160353 29.9266 0.481059L31.6875 4.12537C31.9975 4.76678 32.8178 5.37569 33.5111 5.47842L37.4485 6.06261C38.1414 6.16534 38.2983 6.65819 37.7967 7.15753L34.9472 9.99399C34.4459 10.4933 34.1327 11.4784 34.2511 12.1832L34.9234 16.1883C35.0418 16.8935 34.6315 17.1981 34.0117 16.8649L30.49 14.9741C29.87 14.6415 28.8562 14.6415 28.2361 14.9741L24.7144 16.8649C24.0947 17.1981 23.6844 16.8935 23.8028 16.1883L24.4751 12.1832C24.5935 11.4784 24.2803 10.4933 23.7789 9.99399L20.9295 7.15753C20.4278 6.65819 20.5848 6.16534 21.2777 6.06261L25.2151 5.47842C25.9084 5.37569 26.7287 4.76678 27.0387 4.12537L28.7995 0.481059Z" fill="#FFC414"/>
<path fill-rule="evenodd" clip-rule="evenodd" d="M49.4363 0.481059C49.7463 -0.160353 50.2533 -0.160353 50.5634 0.481059L52.3242 4.12537C52.6342 4.76678 53.4545 5.37569 54.1478 5.47842L58.0852 6.06261C58.7781 6.16534 58.9351 6.65819 58.4334 7.15753L55.584 9.99399C55.0826 10.4933 54.7694 11.4784 54.8878 12.1832L55.5601 16.1883C55.6785 16.8935 55.2682 17.1981 54.6485 16.8649L51.1268 14.9741C50.5067 14.6415 49.4929 14.6415 48.8729 14.9741L45.3511 16.8649C44.7314 17.1981 44.3211 16.8935 44.4395 16.1883L45.1118 12.1832C45.2302 11.4784 44.917 10.4933 44.4157 9.99399L41.5662 7.15753C41.0646 6.65819 41.2215 6.16534 41.9144 6.06261L45.8518 5.47842C46.5451 5.37569 47.3654 4.76678 47.6754 4.12537L49.4363 0.481059Z" fill="#FFC414"/>
<path fill-rule="evenodd" clip-rule="evenodd" d="M70.073 0.481059C70.383 -0.160353 70.8901 -0.160353 71.2001 0.481059L72.9609 4.12537C73.271 4.76678 74.0912 5.37569 74.7845 5.47842L78.7219 6.06261C79.4149 6.16534 79.5718 6.65819 79.0701 7.15753L76.2207 9.99399C75.7194 10.4933 75.4061 11.4784 75.5246 12.1832L76.1968 16.1883C76.3152 16.8935 75.9049 17.1981 75.2852 16.8649L71.7635 14.9741C71.1434 14.6415 70.1296 14.6415 69.5096 14.9741L65.9879 16.8649C65.3681 17.1981 64.9578 16.8935 65.0762 16.1883L65.7485 12.1832C65.8669 11.4784 65.5537 10.4933 65.0524 9.99399L62.2029 7.15753C61.7013 6.65819 61.8582 6.16534 62.5511 6.06261L66.4886 5.47842C67.1818 5.37569 68.0021 4.76678 68.3121 4.12537L70.073 0.481059Z" fill="#FFC414"/>
<path fill-rule="evenodd" clip-rule="evenodd" d="M90.7087 0.481059C91.0187 -0.160353 91.5258 -0.160353 91.8358 0.481059L93.5967 4.12537C93.9067 4.76678 94.727 5.37569 95.4202 5.47842L99.3577 6.06261C100.051 6.16534 100.208 6.65819 99.7059 7.15753L96.8564 9.99399C96.3551 10.4933 96.0419 11.4784 96.1603 12.1832L96.8326 16.1883C96.951 16.8935 96.5407 17.1981 95.9209 16.8649L92.3992 14.9741C91.7792 14.6415 90.7654 14.6415 90.1453 14.9741L86.6236 16.8649C86.0039 17.1981 85.5936 16.8935 85.712 16.1883L86.3842 12.1832C86.5027 11.4784 86.1894 10.4933 85.6881 9.99399L82.8387 7.15753C82.337 6.65819 82.4939 6.16534 83.1869 6.06261L87.1243 5.47842C87.8176 5.37569 88.6378 4.76678 88.9479 4.12537L90.7087 0.481059Z" fill="#DFE5EE"/>
<mask id="mask0_325_4743" style="mask-type:luminance" maskUnits="userSpaceOnUse" x="82" y="0" width="18" height="17">
<path d="M90.7087 0.481059C91.0187 -0.160353 91.5258 -0.160353 91.8358 0.481059L93.5967 4.12537C93.9067 4.76678 94.727 5.37569 95.4202 5.47842L99.3576 6.06261C100.051 6.16534 100.208 6.65819 99.7059 7.15753L96.8564 9.99399C96.3551 10.4933 96.0419 11.4784 96.1603 12.1832L96.8326 16.1883C96.951 16.8935 96.5407 17.1981 95.9209 16.8649L92.3992 14.9741C91.7792 14.6415 90.7654 14.6415 90.1453 14.9741L86.6236 16.8649C86.0039 17.1981 85.5936 16.8935 85.712 16.1883L86.3842 12.1832C86.5027 11.4784 86.1894 10.4933 85.6881 9.99399L82.8387 7.15753C82.337 6.65819 82.4939 6.16534 83.1869 6.06261L87.1243 5.47842C87.8176 5.37569 88.6378 4.76678 88.9479 4.12537L90.7087 0.481059Z" fill="white"/>
</mask>
<g mask="url(#mask0_325_4743)">
<path d="M91.4198 -12.3125H77.8496V27.0879H91.4198V-12.3125Z" fill="#FFC414"/>
</g>
</g>
<defs>
<clipPath id="clip0_325_4743">
<rect width="100" height="17" fill="white"/>
</clipPath>
</defs>
</svg>
