<svg width="46" height="46" viewBox="0 0 46 46" fill="none" xmlns="http://www.w3.org/2000/svg">
<rect x="0.921875" y="0.452148" width="45" height="44.9551" rx="10" fill="#F9F9F9"/>
<path d="M13.9315 12.8169C13.5869 12.853 13.297 13.1763 13.2988 13.5224V21.5186C13.2989 21.888 13.6353 22.2241 14.0051 22.2242H22.0092C22.379 22.2241 22.7154 21.888 22.7155 21.5186V13.5224C22.7154 13.153 22.379 12.8169 22.0092 12.8169C19.3188 12.8169 16.6165 12.8169 13.9315 12.8169ZM24.8342 12.8169C24.4644 12.8169 24.128 13.153 24.128 13.5224V21.5186C24.128 21.888 24.4644 22.2241 24.8342 22.2242H32.8384C33.2081 22.2241 33.5446 21.888 33.5446 21.5186V13.5224C33.5446 13.153 33.2081 12.8169 32.8384 12.8169H24.8342ZM14.7113 14.228H21.303V20.8131H14.7113V14.228ZM25.5405 14.228H32.1321V20.8131H25.5405V14.228ZM14.0051 23.6352C13.6353 23.6353 13.2989 23.9714 13.2988 24.3408V32.337C13.2989 32.7064 13.6353 33.0425 14.0051 33.0425H22.0092C22.379 33.0425 22.7154 32.7064 22.7155 32.337V24.3408C22.7154 23.9714 22.379 23.6353 22.0092 23.6352H14.0051ZM24.7607 23.6352C24.416 23.6713 24.1261 23.9946 24.128 24.3408V32.337C24.128 32.7064 24.4644 33.0425 24.8342 33.0425H32.8384C33.2081 33.0425 33.5446 32.7064 33.5446 32.337V24.3408C33.5446 23.9714 33.2081 23.6353 32.8384 23.6352C30.148 23.6352 27.4456 23.6352 24.7607 23.6352ZM14.7113 25.0463H21.303V31.6314H14.7113V25.0463ZM25.5405 25.0463H32.1321V31.6314H25.5405V25.0463Z" fill="#6754E2"/>
</svg>
