<svg width="46" height="46" viewBox="0 0 46 46" fill="none" xmlns="http://www.w3.org/2000/svg">
<rect x="0.5" y="0.566895" width="45" height="45.038" rx="7.56665" fill="#F9F9F9"/>
<g clip-path="url(#clip0_1498_67342)">
<path d="M32.6989 12.9976H13.9715C12.827 12.9976 11.8906 13.9339 11.8906 15.0784V27.5634C11.8906 28.7078 12.827 29.6442 13.9715 29.6442H21.2544V31.725H19.1735V33.8059H27.4969V31.725H25.416V29.6442H32.6989C33.8434 29.6442 34.7798 28.7078 34.7798 27.5634V15.0784C34.7798 13.9339 33.8434 12.9976 32.6989 12.9976ZM32.6989 27.5634H13.9715V15.0784H32.6989V27.5634Z" fill="#624DE3"/>
<g clip-path="url(#clip1_1498_67342)">
<path d="M30.1494 18.8242C30.1494 19.5681 29.5408 20.1768 28.7969 20.1768C28.6752 20.1768 28.5602 20.1632 28.452 20.1294L26.0445 22.5302C26.0783 22.6384 26.0918 22.7601 26.0918 22.8818C26.0918 23.6257 25.4832 24.2344 24.7393 24.2344C23.9954 24.2344 23.3867 23.6257 23.3867 22.8818C23.3867 22.7601 23.4002 22.6384 23.4341 22.5302L21.7096 20.8057C21.6014 20.8395 21.4796 20.853 21.3579 20.853C21.2362 20.853 21.1145 20.8395 21.0063 20.8057L17.9292 23.8895C17.963 23.9977 17.9766 24.1126 17.9766 24.2344C17.9766 24.9783 17.3679 25.5869 16.624 25.5869C15.8801 25.5869 15.2715 24.9783 15.2715 24.2344C15.2715 23.4905 15.8801 22.8818 16.624 22.8818C16.7458 22.8818 16.8607 22.8954 16.9689 22.9292L20.0527 19.8521C20.0189 19.7439 20.0054 19.6222 20.0054 19.5005C20.0054 18.7566 20.614 18.1479 21.3579 18.1479C22.1018 18.1479 22.7105 18.7566 22.7105 19.5005C22.7105 19.6222 22.6969 19.7439 22.6631 19.8521L24.3876 21.5766C24.4958 21.5428 24.6175 21.5293 24.7393 21.5293C24.861 21.5293 24.9827 21.5428 25.0909 21.5766L27.4917 19.1691C27.4579 19.0609 27.4443 18.9459 27.4443 18.8242C27.4443 18.0803 28.053 17.4717 28.7969 17.4717C29.5408 17.4717 30.1494 18.0803 30.1494 18.8242Z" fill="#624DE3"/>
</g>
</g>
<defs>
<clipPath id="clip0_1498_67342">
<rect width="24.97" height="24.97" fill="white" transform="translate(10.8496 10.917)"/>
</clipPath>
<clipPath id="clip1_1498_67342">
<rect width="16.2305" height="16.2305" fill="white" transform="translate(14.5957 13.4141)"/>
</clipPath>
</defs>
</svg>
