<svg width="334" height="280" viewBox="0 0 334 280" fill="none" xmlns="http://www.w3.org/2000/svg">
<path d="M241.203 7.52734C237.857 12.8865 227.174 6.18436 223.853 11.5033C220.532 16.8223 231.19 23.5647 227.869 28.8836C224.549 34.2026 213.84 27.5406 210.519 32.8596C207.198 38.1786 217.857 44.9209 214.532 50.2466C211.207 55.5723 200.502 48.9036 197.181 54.2226" stroke="#D6CFFF" stroke-opacity="0.5" stroke-width="5.61" stroke-miterlimit="10" stroke-linecap="round"/>
<g opacity="0.4">
<g filter="url(#filter0_d_1_67)">
<rect x="85.8867" y="120.973" width="162.132" height="62.0985" rx="20" fill="white"/>
<rect x="86.7867" y="121.873" width="160.332" height="60.2985" rx="19.1" stroke="#27C26C" stroke-opacity="0.14" stroke-width="1.8"/>
</g>
<path opacity="0.75" d="M136.742 137.261L136.742 146.738H135.428L130.611 139.788H130.523L130.523 146.738H129.093L129.093 137.261H130.416L135.238 144.221H135.326L135.326 137.261H136.742ZM141.711 146.882C141.045 146.882 140.463 146.729 139.967 146.424C139.47 146.118 139.084 145.691 138.81 145.142C138.535 144.593 138.398 143.951 138.398 143.217C138.398 142.479 138.535 141.835 138.81 141.282C139.084 140.73 139.47 140.301 139.967 139.996C140.463 139.69 141.045 139.538 141.711 139.538C142.378 139.538 142.959 139.69 143.456 139.996C143.953 140.301 144.338 140.73 144.613 141.282C144.888 141.835 145.025 142.479 145.025 143.217C145.025 143.951 144.888 144.593 144.613 145.142C144.338 145.691 143.953 146.118 143.456 146.424C142.959 146.729 142.378 146.882 141.711 146.882ZM141.716 145.72C142.148 145.72 142.506 145.606 142.79 145.378C143.074 145.15 143.283 144.846 143.419 144.466C143.558 144.087 143.627 143.669 143.627 143.212C143.627 142.759 143.558 142.342 143.419 141.963C143.283 141.58 143.074 141.273 142.79 141.042C142.506 140.81 142.148 140.695 141.716 140.695C141.281 140.695 140.92 140.81 140.633 141.042C140.349 141.273 140.138 141.58 139.999 141.963C139.863 142.342 139.796 142.759 139.796 143.212C139.796 143.669 139.863 144.087 139.999 144.466C140.138 144.846 140.349 145.15 140.633 145.378C140.92 145.606 141.281 145.72 141.716 145.72ZM146.569 146.738L146.569 139.63H147.907L147.907 140.759H147.981C148.11 140.377 148.339 140.076 148.666 139.857C148.996 139.635 149.369 139.524 149.786 139.524C149.872 139.524 149.974 139.527 150.091 139.533C150.211 139.539 150.305 139.547 150.373 139.556L150.373 140.88C150.318 140.864 150.219 140.847 150.077 140.829C149.935 140.807 149.793 140.797 149.651 140.797C149.324 140.797 149.033 140.866 148.777 141.005C148.524 141.14 148.323 141.33 148.175 141.574C148.027 141.815 147.953 142.089 147.953 142.398L147.953 146.738H146.569ZM151.571 146.738L151.571 139.63H152.899L152.899 140.787H152.987C153.135 140.395 153.377 140.09 153.713 139.871C154.05 139.649 154.452 139.538 154.921 139.538C155.396 139.538 155.794 139.649 156.115 139.871C156.439 140.093 156.678 140.399 156.833 140.787H156.907C157.076 140.408 157.346 140.105 157.716 139.88C158.087 139.652 158.528 139.538 159.04 139.538C159.685 139.538 160.211 139.74 160.618 140.144C161.028 140.548 161.233 141.157 161.233 141.972L161.233 146.738H159.85L159.85 142.102C159.85 141.62 159.719 141.272 159.456 141.056C159.194 140.84 158.881 140.732 158.517 140.732C158.067 140.732 157.716 140.871 157.467 141.148C157.217 141.423 157.092 141.776 157.092 142.208L157.092 146.738H155.713L155.713 142.014C155.713 141.628 155.592 141.318 155.352 141.083C155.111 140.849 154.798 140.732 154.412 140.732C154.15 140.732 153.908 140.801 153.686 140.94C153.467 141.076 153.289 141.265 153.153 141.509C153.021 141.753 152.954 142.035 152.954 142.356L152.954 146.738H151.571ZM165.157 146.896C164.706 146.896 164.299 146.813 163.935 146.646C163.571 146.476 163.282 146.231 163.07 145.91C162.86 145.589 162.755 145.196 162.755 144.73C162.755 144.329 162.832 143.999 162.986 143.74C163.14 143.481 163.349 143.275 163.611 143.124C163.873 142.973 164.166 142.859 164.49 142.782C164.814 142.705 165.144 142.646 165.481 142.606C165.906 142.557 166.252 142.516 166.517 142.486C166.782 142.452 166.975 142.398 167.096 142.324C167.216 142.25 167.276 142.129 167.276 141.963L167.276 141.93C167.276 141.526 167.162 141.213 166.934 140.991C166.708 140.769 166.372 140.658 165.925 140.658C165.459 140.658 165.092 140.761 164.823 140.968C164.558 141.171 164.375 141.398 164.273 141.648L162.972 141.352C163.127 140.92 163.352 140.571 163.648 140.306C163.947 140.038 164.291 139.843 164.68 139.723C165.069 139.599 165.477 139.538 165.906 139.538C166.19 139.538 166.491 139.572 166.809 139.64C167.13 139.704 167.429 139.825 167.706 140.001C167.987 140.176 168.217 140.428 168.396 140.755C168.575 141.079 168.664 141.5 168.664 142.018L168.664 146.738H167.313L167.313 145.767H167.258C167.168 145.946 167.034 146.121 166.855 146.294C166.676 146.467 166.446 146.61 166.165 146.725C165.885 146.839 165.548 146.896 165.157 146.896ZM165.457 145.785C165.84 145.785 166.167 145.71 166.438 145.558C166.713 145.407 166.921 145.21 167.063 144.966C167.208 144.719 167.281 144.455 167.281 144.175L167.281 143.258C167.231 143.308 167.136 143.354 166.994 143.397C166.855 143.437 166.696 143.473 166.517 143.504C166.338 143.531 166.164 143.558 165.994 143.582C165.825 143.604 165.683 143.622 165.568 143.638C165.3 143.672 165.055 143.729 164.833 143.809C164.614 143.889 164.438 144.005 164.305 144.156C164.176 144.304 164.111 144.502 164.111 144.749C164.111 145.091 164.237 145.35 164.49 145.526C164.743 145.699 165.066 145.785 165.457 145.785ZM171.891 137.261L171.891 146.738H170.507L170.507 137.261H171.891ZM182.482 139.751C182.432 139.313 182.229 138.973 181.871 138.733C181.513 138.489 181.062 138.367 180.519 138.367C180.131 138.367 179.794 138.429 179.511 138.552C179.227 138.672 179.006 138.839 178.849 139.052C178.695 139.262 178.617 139.501 178.617 139.769C178.617 139.994 178.67 140.189 178.775 140.352C178.883 140.516 179.023 140.653 179.196 140.764C179.372 140.872 179.56 140.963 179.761 141.037C179.961 141.108 180.154 141.167 180.339 141.213L181.265 141.454C181.567 141.528 181.877 141.628 182.195 141.754C182.512 141.881 182.807 142.048 183.079 142.254C183.35 142.461 183.569 142.717 183.736 143.022C183.905 143.328 183.99 143.693 183.99 144.119C183.99 144.656 183.851 145.133 183.574 145.549C183.299 145.966 182.9 146.294 182.375 146.535C181.854 146.776 181.223 146.896 180.482 146.896C179.773 146.896 179.159 146.783 178.641 146.558C178.122 146.333 177.717 146.013 177.424 145.6C177.13 145.184 176.968 144.69 176.938 144.119H178.372C178.4 144.462 178.511 144.747 178.705 144.975C178.903 145.201 179.154 145.369 179.46 145.48C179.768 145.588 180.106 145.642 180.473 145.642C180.877 145.642 181.237 145.578 181.551 145.452C181.869 145.322 182.119 145.143 182.301 144.915C182.483 144.684 182.574 144.414 182.574 144.105C182.574 143.825 182.494 143.595 182.334 143.416C182.176 143.237 181.962 143.089 181.69 142.972C181.422 142.854 181.118 142.751 180.779 142.661L179.659 142.356C178.9 142.149 178.298 141.845 177.854 141.444C177.413 141.043 177.192 140.513 177.192 139.852C177.192 139.306 177.34 138.83 177.636 138.422C177.933 138.015 178.334 137.699 178.84 137.474C179.346 137.245 179.916 137.131 180.552 137.131C181.194 137.131 181.76 137.244 182.25 137.469C182.744 137.694 183.133 138.004 183.416 138.399C183.7 138.791 183.848 139.242 183.861 139.751H182.482ZM186.972 142.518L186.972 146.738H185.588L185.588 137.261H186.953L186.953 140.787H187.041C187.208 140.405 187.462 140.101 187.805 139.876C188.147 139.65 188.594 139.538 189.147 139.538C189.634 139.538 190.06 139.638 190.424 139.839C190.791 140.039 191.075 140.338 191.275 140.736C191.479 141.131 191.581 141.625 191.581 142.217L191.581 146.738H190.197L190.197 142.384C190.197 141.862 190.063 141.458 189.795 141.171C189.526 140.881 189.153 140.736 188.675 140.736C188.348 140.736 188.055 140.806 187.795 140.945C187.539 141.083 187.337 141.287 187.189 141.555C187.044 141.821 186.972 142.142 186.972 142.518ZM193.427 146.738L193.427 139.63H194.811L194.811 146.738H193.427ZM194.126 138.534C193.886 138.534 193.679 138.453 193.506 138.293C193.336 138.129 193.252 137.935 193.252 137.71C193.252 137.482 193.336 137.287 193.506 137.127C193.679 136.963 193.886 136.881 194.126 136.881C194.367 136.881 194.572 136.963 194.742 137.127C194.914 137.287 195.001 137.482 195.001 137.71C195.001 137.935 194.914 138.129 194.742 138.293C194.572 138.453 194.367 138.534 194.126 138.534ZM200.055 139.63L200.055 140.741H196.039L196.039 139.63H200.055ZM197.14 146.738L197.14 138.807C197.14 138.362 197.237 137.994 197.431 137.701C197.626 137.404 197.883 137.184 198.204 137.039C198.525 136.891 198.874 136.817 199.25 136.817C199.528 136.817 199.765 136.84 199.963 136.886C200.16 136.929 200.307 136.969 200.402 137.006L200.079 138.126C200.014 138.108 199.93 138.086 199.829 138.062C199.727 138.034 199.603 138.02 199.458 138.02C199.122 138.02 198.882 138.103 198.737 138.27C198.595 138.436 198.524 138.677 198.524 138.992L198.524 146.738H197.14ZM204.801 139.63L204.801 140.741H200.918L200.918 139.63H204.801ZM201.96 137.927H203.343L203.343 144.651C203.343 144.92 203.384 145.122 203.464 145.258C203.544 145.39 203.647 145.481 203.774 145.531C203.903 145.577 204.044 145.6 204.195 145.6C204.306 145.6 204.403 145.592 204.486 145.577C204.57 145.562 204.635 145.549 204.681 145.54L204.931 146.683C204.851 146.714 204.736 146.745 204.588 146.776C204.44 146.809 204.255 146.828 204.033 146.831C203.669 146.837 203.33 146.772 203.015 146.637C202.7 146.501 202.446 146.291 202.251 146.007C202.057 145.723 201.96 145.367 201.96 144.938L201.96 137.927Z" fill="#00234B"/>
<path d="M104.58 156.073C105.118 156.073 105.635 156.163 106.131 156.344C106.631 156.524 107.077 156.811 107.468 157.206C107.862 157.6 108.174 158.124 108.401 158.777C108.633 159.427 108.75 160.224 108.753 161.17C108.753 162.058 108.653 162.85 108.452 163.547C108.255 164.241 107.971 164.831 107.6 165.317C107.23 165.804 106.782 166.175 106.259 166.43C105.735 166.681 105.15 166.807 104.504 166.807C103.807 166.807 103.191 166.673 102.657 166.404C102.123 166.132 101.693 165.763 101.366 165.297C101.043 164.828 100.848 164.301 100.78 163.716H102.958C103.043 164.096 103.222 164.392 103.494 164.603C103.766 164.811 104.102 164.914 104.504 164.914C105.184 164.914 105.701 164.619 106.055 164.027C106.408 163.432 106.587 162.617 106.59 161.583H106.519C106.362 161.889 106.152 162.153 105.886 162.374C105.621 162.592 105.317 162.76 104.973 162.879C104.633 162.998 104.271 163.057 103.886 163.057C103.271 163.057 102.722 162.913 102.239 162.624C101.756 162.335 101.375 161.937 101.096 161.43C100.817 160.923 100.678 160.345 100.678 159.695C100.674 158.995 100.836 158.371 101.162 157.823C101.489 157.276 101.944 156.847 102.529 156.538C103.118 156.225 103.801 156.07 104.58 156.073ZM104.596 157.808C104.252 157.808 103.946 157.89 103.677 158.053C103.412 158.216 103.201 158.435 103.045 158.711C102.892 158.986 102.817 159.294 102.82 159.634C102.82 159.978 102.895 160.287 103.045 160.563C103.198 160.835 103.405 161.053 103.667 161.216C103.932 161.376 104.235 161.456 104.575 161.456C104.83 161.456 105.067 161.408 105.284 161.313C105.502 161.217 105.691 161.087 105.851 160.92C106.014 160.75 106.141 160.554 106.233 160.333C106.325 160.112 106.371 159.877 106.371 159.629C106.368 159.299 106.289 158.997 106.136 158.721C105.983 158.446 105.772 158.225 105.504 158.058C105.235 157.891 104.932 157.808 104.596 157.808ZM111.575 165.45C111.238 165.45 110.949 165.331 110.707 165.093C110.469 164.855 110.35 164.566 110.35 164.226C110.35 163.892 110.469 163.607 110.707 163.369C110.949 163.131 111.238 163.012 111.575 163.012C111.901 163.012 112.187 163.131 112.432 163.369C112.677 163.607 112.799 163.892 112.799 164.226C112.799 164.45 112.741 164.656 112.625 164.843C112.513 165.027 112.365 165.175 112.182 165.287C111.998 165.396 111.796 165.45 111.575 165.45ZM111.575 160.323C111.238 160.323 110.949 160.204 110.707 159.966C110.469 159.728 110.35 159.439 110.35 159.099C110.35 158.765 110.469 158.481 110.707 158.247C110.949 158.009 111.238 157.89 111.575 157.89C111.901 157.89 112.187 158.009 112.432 158.247C112.677 158.481 112.799 158.765 112.799 159.099C112.799 159.326 112.741 159.534 112.625 159.721C112.513 159.905 112.365 160.051 112.182 160.16C111.998 160.269 111.796 160.323 111.575 160.323ZM118.659 166.894C117.782 166.89 117.027 166.674 116.394 166.246C115.765 165.817 115.28 165.197 114.94 164.384C114.604 163.571 114.437 162.593 114.44 161.45C114.44 160.311 114.609 159.34 114.945 158.537C115.286 157.735 115.77 157.124 116.399 156.706C117.032 156.284 117.785 156.073 118.659 156.073C119.533 156.073 120.285 156.284 120.914 156.706C121.547 157.128 122.033 157.74 122.373 158.543C122.713 159.342 122.882 160.311 122.878 161.45C122.878 162.597 122.708 163.576 122.368 164.389C122.032 165.202 121.549 165.823 120.919 166.251C120.29 166.68 119.537 166.894 118.659 166.894ZM118.659 165.062C119.258 165.062 119.736 164.761 120.093 164.159C120.45 163.557 120.627 162.654 120.624 161.45C120.624 160.658 120.542 159.998 120.379 159.471C120.219 158.944 119.991 158.548 119.695 158.282C119.403 158.017 119.057 157.884 118.659 157.884C118.064 157.884 117.588 158.182 117.231 158.777C116.874 159.372 116.694 160.263 116.69 161.45C116.69 162.253 116.77 162.923 116.93 163.46C117.093 163.994 117.323 164.396 117.619 164.664C117.915 164.93 118.261 165.062 118.659 165.062ZM128.55 166.894C127.673 166.89 126.918 166.674 126.285 166.246C125.656 165.817 125.171 165.197 124.831 164.384C124.494 163.571 124.328 162.593 124.331 161.45C124.331 160.311 124.499 159.34 124.836 158.537C125.176 157.735 125.661 157.124 126.29 156.706C126.923 156.284 127.676 156.073 128.55 156.073C129.424 156.073 130.176 156.284 130.805 156.706C131.438 157.128 131.924 157.74 132.264 158.543C132.604 159.342 132.773 160.311 132.769 161.45C132.769 162.597 132.599 163.576 132.259 164.389C131.922 165.202 131.439 165.823 130.81 166.251C130.181 166.68 129.428 166.894 128.55 166.894ZM128.55 165.062C129.149 165.062 129.627 164.761 129.984 164.159C130.341 163.557 130.518 162.654 130.514 161.45C130.514 160.658 130.433 159.998 130.269 159.471C130.11 158.944 129.882 158.548 129.586 158.282C129.293 158.017 128.948 157.884 128.55 157.884C127.955 157.884 127.479 158.182 127.122 158.777C126.765 159.372 126.584 160.263 126.581 161.45C126.581 162.253 126.661 162.923 126.821 163.46C126.984 163.994 127.214 164.396 127.509 164.664C127.805 164.93 128.152 165.062 128.55 165.062ZM139.531 166.664H137.164L140.771 156.216H143.618L147.219 166.664H144.852L142.235 158.604H142.154L139.531 166.664ZM139.383 162.557H144.975V164.282H139.383V162.557ZM148.477 156.216H151.201L154.079 163.236H154.201L157.078 156.216H159.803V166.664H157.66V159.864H157.573L154.869 166.613H153.41L150.706 159.838H150.62V166.664H148.477V156.216ZM169.789 160.578V162.302H165.024V160.578H169.789ZM178.761 166.807C178.04 166.807 177.397 166.674 176.833 166.409C176.272 166.144 175.826 165.778 175.496 165.312C175.166 164.846 174.995 164.312 174.981 163.71H177.124C177.148 164.115 177.318 164.443 177.634 164.695C177.95 164.947 178.326 165.073 178.761 165.073C179.108 165.073 179.414 164.996 179.68 164.843C179.948 164.687 180.157 164.471 180.307 164.195C180.46 163.916 180.537 163.597 180.537 163.236C180.537 162.869 180.458 162.546 180.302 162.267C180.149 161.988 179.936 161.77 179.664 161.614C179.392 161.457 179.081 161.377 178.731 161.374C178.425 161.374 178.127 161.437 177.838 161.563C177.552 161.689 177.329 161.86 177.17 162.078L175.206 161.726L175.7 156.216H182.088V158.022H177.522L177.251 160.639H177.312C177.496 160.381 177.773 160.167 178.144 159.996C178.515 159.826 178.93 159.741 179.389 159.741C180.018 159.741 180.579 159.889 181.072 160.185C181.566 160.481 181.955 160.888 182.241 161.405C182.526 161.918 182.667 162.51 182.664 163.18C182.667 163.884 182.504 164.51 182.174 165.057C181.848 165.601 181.39 166.03 180.802 166.343C180.217 166.652 179.537 166.807 178.761 166.807ZM185.495 165.45C185.159 165.45 184.87 165.331 184.628 165.093C184.39 164.855 184.271 164.566 184.271 164.226C184.271 163.892 184.39 163.607 184.628 163.369C184.87 163.131 185.159 163.012 185.495 163.012C185.822 163.012 186.108 163.131 186.353 163.369C186.597 163.607 186.72 163.892 186.72 164.226C186.72 164.45 186.662 164.656 186.546 164.843C186.434 165.027 186.286 165.175 186.103 165.287C185.919 165.396 185.717 165.45 185.495 165.45ZM185.495 160.323C185.159 160.323 184.87 160.204 184.628 159.966C184.39 159.728 184.271 159.439 184.271 159.099C184.271 158.765 184.39 158.481 184.628 158.247C184.87 158.009 185.159 157.89 185.495 157.89C185.822 157.89 186.108 158.009 186.353 158.247C186.597 158.481 186.72 158.765 186.72 159.099C186.72 159.326 186.662 159.534 186.546 159.721C186.434 159.905 186.286 160.051 186.103 160.16C185.919 160.269 185.717 160.323 185.495 160.323ZM192.58 166.894C191.703 166.89 190.948 166.674 190.315 166.246C189.686 165.817 189.201 165.197 188.861 164.384C188.525 163.571 188.358 162.593 188.361 161.45C188.361 160.311 188.53 159.34 188.866 158.537C189.206 157.735 189.691 157.124 190.32 156.706C190.953 156.284 191.706 156.073 192.58 156.073C193.454 156.073 194.206 156.284 194.835 156.706C195.468 157.128 195.954 157.74 196.294 158.543C196.634 159.342 196.803 160.311 196.799 161.45C196.799 162.597 196.629 163.576 196.289 164.389C195.952 165.202 195.469 165.823 194.84 166.251C194.211 166.68 193.458 166.894 192.58 166.894ZM192.58 165.062C193.179 165.062 193.657 164.761 194.014 164.159C194.371 163.557 194.548 162.654 194.544 161.45C194.544 160.658 194.463 159.998 194.3 159.471C194.14 158.944 193.912 158.548 193.616 158.282C193.323 158.017 192.978 157.884 192.58 157.884C191.985 157.884 191.509 158.182 191.152 158.777C190.795 159.372 190.614 160.263 190.611 161.45C190.611 162.253 190.691 162.923 190.851 163.46C191.014 163.994 191.244 164.396 191.54 164.664C191.835 164.93 192.182 165.062 192.58 165.062ZM202.471 166.894C201.594 166.89 200.838 166.674 200.206 166.246C199.577 165.817 199.092 165.197 198.752 164.384C198.415 163.571 198.249 162.593 198.252 161.45C198.252 160.311 198.42 159.34 198.757 158.537C199.097 157.735 199.582 157.124 200.211 156.706C200.844 156.284 201.597 156.073 202.471 156.073C203.345 156.073 204.097 156.284 204.726 156.706C205.359 157.128 205.845 157.74 206.185 158.543C206.525 159.342 206.693 160.311 206.69 161.45C206.69 162.597 206.52 163.576 206.18 164.389C205.843 165.202 205.36 165.823 204.731 166.251C204.102 166.68 203.348 166.894 202.471 166.894ZM202.471 165.062C203.07 165.062 203.547 164.761 203.905 164.159C204.262 163.557 204.439 162.654 204.435 161.45C204.435 160.658 204.353 159.998 204.19 159.471C204.03 158.944 203.803 158.548 203.507 158.282C203.214 158.017 202.869 157.884 202.471 157.884C201.876 157.884 201.4 158.182 201.043 158.777C200.685 159.372 200.505 160.263 200.502 161.45C200.502 162.253 200.582 162.923 200.742 163.46C200.905 163.994 201.134 164.396 201.43 164.664C201.726 164.93 202.073 165.062 202.471 165.062ZM211.651 166.664V156.216H215.773C216.566 156.216 217.241 156.368 217.799 156.67C218.357 156.97 218.782 157.386 219.074 157.92C219.37 158.451 219.518 159.063 219.518 159.757C219.518 160.451 219.368 161.063 219.069 161.593C218.77 162.124 218.336 162.537 217.768 162.833C217.204 163.129 216.52 163.277 215.717 163.277H213.09V161.507H215.36C215.785 161.507 216.136 161.433 216.411 161.287C216.69 161.138 216.897 160.932 217.034 160.67C217.173 160.405 217.243 160.1 217.243 159.757C217.243 159.41 217.173 159.107 217.034 158.849C216.897 158.587 216.69 158.384 216.411 158.242C216.132 158.095 215.779 158.022 215.35 158.022H213.86V166.664H211.651ZM220.953 156.216H223.677L226.554 163.236H226.677L229.554 156.216H232.278V166.664H230.136V159.864H230.049L227.345 166.613H225.886L223.182 159.838H223.095V166.664H220.953V156.216Z" fill="#525F7F"/>
</g>
<defs>
<filter id="filter0_d_1_67" x="0.639977" y="47.0924" width="332.625" height="232.592" filterUnits="userSpaceOnUse" color-interpolation-filters="sRGB">
<feFlood flood-opacity="0" result="BackgroundImageFix"/>
<feColorMatrix in="SourceAlpha" type="matrix" values="0 0 0 0 0 0 0 0 0 0 0 0 0 0 0 0 0 0 127 0" result="hardAlpha"/>
<feOffset dy="11.3662"/>
<feGaussianBlur stdDeviation="42.6234"/>
<feComposite in2="hardAlpha" operator="out"/>
<feColorMatrix type="matrix" values="0 0 0 0 0.403922 0 0 0 0 0.329412 0 0 0 0 0.886275 0 0 0 0.1 0"/>
<feBlend mode="normal" in2="BackgroundImageFix" result="effect1_dropShadow_1_67"/>
<feBlend mode="normal" in="SourceGraphic" in2="effect1_dropShadow_1_67" result="shape"/>
</filter>
</defs>
</svg>
