<svg width="39" height="39" viewBox="0 0 39 39" fill="none" xmlns="http://www.w3.org/2000/svg">
<g clip-path="url(#clip0_1611_36077)">
<path d="M30.5061 0.210449H7.85813C3.61638 0.210449 0.182129 3.6447 0.182129 7.88645V30.5392C0.182129 34.7762 3.61638 38.2104 7.85813 38.2104H30.5109C34.7479 38.2104 38.1869 34.7762 38.1869 30.5345V7.88645C38.1821 3.6447 34.7479 0.210449 30.5061 0.210449Z" fill="url(#paint0_linear_1611_36077)"/>
<path d="M19.0206 8.94087L19.7901 7.61087C20.2651 6.77962 21.3243 6.49937 22.1556 6.97437C22.9868 7.44937 23.2671 8.50862 22.7921 9.33987L15.3773 22.1744H20.7401C22.4786 22.1744 23.4523 24.2169 22.6971 25.6324H6.9746C6.01511 25.6324 5.24561 24.8629 5.24561 23.9034C5.24561 22.9439 6.01511 22.1744 6.9746 22.1744H11.3826L17.0256 12.3941L15.2634 9.33512C14.7884 8.50387 15.0686 7.45412 15.8998 6.96962C16.7311 6.49462 17.7808 6.77487 18.2653 7.60612L19.0206 8.94087ZM12.3516 27.4136L10.6891 30.2969C10.2141 31.1281 9.15485 31.4084 8.3236 30.9334C7.49235 30.4584 7.2121 29.3991 7.6871 28.5679L8.9221 26.4304C10.3186 25.9981 11.4539 26.3306 12.3516 27.4136ZM26.6681 22.1839H31.1663C32.1258 22.1839 32.8953 22.9534 32.8953 23.9129C32.8953 24.8724 32.1258 25.6419 31.1663 25.6419H28.6678L30.3541 28.5679C30.8291 29.3991 30.5488 30.4489 29.7176 30.9334C28.8863 31.4084 27.8366 31.1281 27.3521 30.2969C24.5116 25.3711 22.3788 21.6851 20.9633 19.2294C19.5146 16.7309 20.5501 14.2229 21.5713 13.3726C22.7066 15.3201 24.4023 18.2604 26.6681 22.1839Z" fill="white"/>
</g>
<defs>
<linearGradient id="paint0_linear_1611_36077" x1="19.1845" y1="0.210449" x2="19.1845" y2="38.2104" gradientUnits="userSpaceOnUse">
<stop stop-color="#18BFFB"/>
<stop offset="1" stop-color="#2072F3"/>
</linearGradient>
<clipPath id="clip0_1611_36077">
<rect width="38" height="38" fill="white" transform="translate(0.182129 0.210449)"/>
</clipPath>
</defs>
</svg>
