<svg width="73" height="94" viewBox="0 0 73 94" fill="none" xmlns="http://www.w3.org/2000/svg">
<g clip-path="url(#clip0_682_20668)">
<path d="M4.96533 28.6395V69.9565L6.03453 70.4911L36.2013 85.8416L37.1177 86.2998L38.0342 85.8416L67.1317 70.4911L68.2009 69.9565V6.64453H4.96533V28.6395ZM6.95099 68.8109V8.63019H66.2152V68.8109L37.1177 84.1614L6.95099 68.8109Z" fill="white" fill-opacity="0.4"/>
<path d="M13.9769 37.7957C14.4809 37.7957 14.9239 37.8975 15.3057 38.1011C15.6876 38.3048 15.9829 38.5976 16.1916 38.9794C16.4004 39.3562 16.5048 39.789 16.5048 40.2777C16.5048 40.7614 16.3978 41.1866 16.184 41.5531C15.965 41.9146 15.6596 42.1972 15.2675 42.4009C14.8755 42.6045 14.4223 42.7063 13.9081 42.7063H12.2814C12.2458 42.7063 12.228 42.7267 12.228 42.7674V45.6848C12.228 45.7255 12.2127 45.7587 12.1821 45.7841C12.1567 45.8095 12.1236 45.8223 12.0829 45.8223H10.7464C10.7056 45.8223 10.6725 45.8095 10.6471 45.7841C10.6216 45.7587 10.6089 45.7255 10.6089 45.6848V37.9331C10.6089 37.8924 10.6216 37.8593 10.6471 37.8338C10.6725 37.8084 10.7056 37.7957 10.7464 37.7957H13.9769ZM13.7325 41.4157C14.0889 41.4157 14.3715 41.3139 14.5802 41.1102C14.794 40.9065 14.901 40.6418 14.901 40.3159C14.901 39.9748 14.794 39.7024 14.5802 39.4987C14.3715 39.29 14.0889 39.1856 13.7325 39.1856H12.2814C12.2458 39.1856 12.228 39.206 12.228 39.2467V41.3546C12.228 41.3953 12.2458 41.4157 12.2814 41.4157H13.7325ZM22.2861 42.271C22.3268 42.5612 22.3395 42.8845 22.3243 43.2409C22.3192 43.3377 22.2708 43.3861 22.1792 43.3861H18.6432C18.5973 43.3861 18.5795 43.4038 18.5897 43.4395C18.6151 43.5923 18.6584 43.745 18.7195 43.8977C18.9181 44.3254 19.3229 44.5393 19.9338 44.5393C20.4226 44.5341 20.807 44.3356 21.0871 43.9436C21.1227 43.8977 21.1583 43.8748 21.194 43.8748C21.2144 43.8748 21.2398 43.8901 21.2703 43.9207L22.0952 44.7302C22.1359 44.7709 22.1563 44.8066 22.1563 44.8371C22.1563 44.8524 22.141 44.8829 22.1104 44.9288C21.8559 45.2444 21.5325 45.4863 21.1405 45.6543C20.7383 45.8274 20.3004 45.9139 19.8269 45.9139C19.1752 45.9139 18.6203 45.7663 18.162 45.471C17.7089 45.1706 17.383 44.7531 17.1845 44.2185C17.0216 43.8366 16.9401 43.3377 16.9401 42.7216C16.9401 42.2991 16.9987 41.9274 17.1157 41.6066C17.2939 41.0669 17.602 40.6367 18.0398 40.3159C18.4777 39.9952 18.997 39.8348 19.5978 39.8348C20.3615 39.8348 20.975 40.0563 21.4384 40.4992C21.9017 40.9422 22.1843 41.5327 22.2861 42.271ZM19.6131 41.2324C19.1294 41.2324 18.8112 41.4564 18.6584 41.9044C18.6279 42.0062 18.6025 42.1284 18.5821 42.271C18.5821 42.3067 18.6025 42.3245 18.6432 42.3245H20.6212C20.667 42.3245 20.6823 42.3067 20.667 42.271C20.6263 42.0521 20.6059 41.9451 20.6059 41.9503C20.5397 41.7212 20.4201 41.543 20.247 41.4157C20.0789 41.2935 19.8676 41.2324 19.6131 41.2324ZM26.2574 39.8577C26.5323 39.8577 26.7513 39.9111 26.9142 40.0181C26.9702 40.0486 26.9906 40.1046 26.9753 40.1861L26.7385 41.492C26.7334 41.5837 26.68 41.6117 26.5782 41.576C26.4611 41.5353 26.3287 41.5149 26.181 41.5149C26.1199 41.5149 26.0334 41.5226 25.9214 41.5379C25.6515 41.5633 25.4198 41.6652 25.2264 41.8433C25.038 42.0215 24.9438 42.2609 24.9438 42.5612V45.6848C24.9438 45.7255 24.9285 45.7587 24.898 45.7841C24.8726 45.8095 24.842 45.8223 24.8063 45.8223H23.4622C23.4265 45.8223 23.3935 45.8095 23.3629 45.7841C23.3375 45.7587 23.3247 45.7255 23.3247 45.6848V40.0715C23.3247 40.0359 23.3375 40.0028 23.3629 39.9722C23.3935 39.9468 23.4265 39.9341 23.4622 39.9341H24.8063C24.842 39.9341 24.8726 39.9468 24.898 39.9722C24.9285 40.0028 24.9438 40.0359 24.9438 40.0715V40.5068C24.9438 40.5272 24.9514 40.5425 24.9667 40.5527C24.9769 40.5628 24.9871 40.5578 24.9973 40.5374C25.3129 40.0843 25.733 39.8577 26.2574 39.8577ZM31.1375 39.9264C31.1782 39.9264 31.2114 39.9392 31.2368 39.9646C31.2623 39.99 31.275 40.0232 31.275 40.0639V41.1484C31.275 41.1891 31.2623 41.2222 31.2368 41.2477C31.2114 41.2731 31.1782 41.2858 31.1375 41.2858H30.0302C29.9894 41.2858 29.9691 41.3036 29.9691 41.3393V45.6848C29.9691 45.7255 29.9563 45.7587 29.9309 45.7841C29.9054 45.8095 29.8723 45.8223 29.8316 45.8223H28.4951C28.4544 45.8223 28.4212 45.8095 28.3958 45.7841C28.3704 45.7587 28.3576 45.7255 28.3576 45.6848V41.3393C28.3576 41.3036 28.3372 41.2858 28.2965 41.2858H27.6244C27.5837 41.2858 27.5506 41.2731 27.5252 41.2477C27.4997 41.2222 27.487 41.1891 27.487 41.1484V40.0639C27.487 40.0232 27.4997 39.99 27.5252 39.9646C27.5506 39.9392 27.5837 39.9264 27.6244 39.9264H28.2965C28.3372 39.9264 28.3576 39.906 28.3576 39.8653V39.6133C28.3576 39.1398 28.4289 38.7707 28.5715 38.5059C28.7191 38.2463 28.9533 38.0604 29.2741 37.9484C29.5999 37.8364 30.0505 37.788 30.6258 37.8033H31.0612C31.0968 37.8033 31.1274 37.8161 31.1528 37.8415C31.1834 37.872 31.1986 37.9051 31.1986 37.9408V38.8649C31.1986 38.9056 31.1834 38.9387 31.1528 38.9641C31.1274 38.9947 31.0968 39.01 31.0612 39.01H30.6793C30.4145 39.0151 30.2287 39.0685 30.1218 39.1703C30.02 39.2773 29.9691 39.4682 29.9691 39.7431V39.8653C29.9691 39.906 29.9894 39.9264 30.0302 39.9264H31.1375ZM34.4597 45.9139C33.8182 45.9139 33.2683 45.7459 32.8101 45.4099C32.3518 45.0739 32.0387 44.6156 31.8707 44.0352C31.7638 43.6788 31.7103 43.2893 31.7103 42.8667C31.7103 42.4187 31.7638 42.0139 31.8707 41.6524C32.0489 41.0873 32.3671 40.6443 32.8253 40.3236C33.2836 40.0028 33.8335 39.8424 34.475 39.8424C35.0961 39.8424 35.6307 40.0003 36.0788 40.3159C36.5166 40.6367 36.8272 41.0796 37.0105 41.6448C37.1378 42.0266 37.2014 42.4263 37.2014 42.8438C37.2014 43.2562 37.148 43.6432 37.0411 44.0047C36.873 44.6004 36.5599 45.0662 36.1017 45.4023C35.6486 45.7434 35.1012 45.9139 34.4597 45.9139ZM34.4597 44.5316C34.7092 44.5316 34.923 44.4553 35.1012 44.3025C35.2794 44.1498 35.4067 43.9384 35.4831 43.6686C35.5391 43.4242 35.5671 43.1569 35.5671 42.8667C35.5671 42.546 35.5391 42.2761 35.4831 42.0572C35.3965 41.7975 35.2667 41.5938 35.0936 41.4462C34.9154 41.3036 34.699 41.2324 34.4444 41.2324C34.1899 41.2324 33.976 41.3036 33.8029 41.4462C33.6298 41.5938 33.5051 41.7975 33.4287 42.0572C33.3676 42.2354 33.337 42.5053 33.337 42.8667C33.337 43.2129 33.3651 43.4802 33.421 43.6686C33.4974 43.9384 33.6247 44.1498 33.8029 44.3025C33.9811 44.4553 34.2 44.5316 34.4597 44.5316ZM41.1727 39.8577C41.4477 39.8577 41.6666 39.9111 41.8295 40.0181C41.8906 40.0486 41.911 40.1046 41.8906 40.1861L41.6539 41.492C41.6488 41.5837 41.5953 41.6117 41.4935 41.576C41.3764 41.5353 41.244 41.5149 41.0964 41.5149C41.0353 41.5149 40.9513 41.5226 40.8444 41.5379C40.5694 41.5633 40.3352 41.6652 40.1417 41.8433C39.9533 42.0215 39.8592 42.2609 39.8592 42.5612V45.6848C39.8592 45.7255 39.8439 45.7587 39.8133 45.7841C39.7879 45.8095 39.7548 45.8223 39.7141 45.8223H38.3776C38.3419 45.8223 38.3088 45.8095 38.2783 45.7841C38.2528 45.7587 38.2401 45.7255 38.2401 45.6848V40.0715C38.2401 40.0359 38.2528 40.0028 38.2783 39.9722C38.3088 39.9468 38.3419 39.9341 38.3776 39.9341H39.7141C39.7548 39.9341 39.7879 39.9468 39.8133 39.9722C39.8439 40.0028 39.8592 40.0359 39.8592 40.0715V40.5068C39.8592 40.5272 39.8643 40.5425 39.8744 40.5527C39.8948 40.5628 39.9075 40.5578 39.9126 40.5374C40.2283 40.0843 40.6483 39.8577 41.1727 39.8577ZM49.1536 39.8424C49.7493 39.8424 50.2151 40.0206 50.5512 40.377C50.8872 40.7385 51.0552 41.2451 51.0552 41.8968V45.6848C51.0552 45.7255 51.0425 45.7587 51.017 45.7841C50.9916 45.8095 50.9611 45.8223 50.9254 45.8223H49.5812C49.5456 45.8223 49.5125 45.8095 49.482 45.7841C49.4565 45.7587 49.4438 45.7255 49.4438 45.6848V42.2481C49.4438 41.9375 49.3649 41.6906 49.207 41.5073C49.0441 41.324 48.8277 41.2324 48.5579 41.2324C48.2931 41.2324 48.0767 41.324 47.9087 41.5073C47.7407 41.6906 47.6567 41.935 47.6567 42.2405V45.6848C47.6567 45.7255 47.6439 45.7587 47.6185 45.7841C47.588 45.8095 47.5549 45.8223 47.5192 45.8223H46.1904C46.1496 45.8223 46.1165 45.8095 46.0911 45.7841C46.0656 45.7587 46.0529 45.7255 46.0529 45.6848V42.2481C46.0529 41.9426 45.9689 41.6957 45.8009 41.5073C45.6328 41.324 45.4139 41.2324 45.1441 41.2324C44.9048 41.2324 44.7011 41.3036 44.5331 41.4462C44.3702 41.5938 44.2734 41.7975 44.2429 42.0572V45.6848C44.2429 45.7255 44.2301 45.7587 44.2047 45.7841C44.1741 45.8095 44.1411 45.8223 44.1054 45.8223H42.7689C42.7282 45.8223 42.6951 45.8095 42.6696 45.7841C42.6442 45.7587 42.6314 45.7255 42.6314 45.6848V40.0715C42.6314 40.0359 42.6442 40.0028 42.6696 39.9722C42.6951 39.9468 42.7282 39.9341 42.7689 39.9341H44.1054C44.1411 39.9341 44.1741 39.9468 44.2047 39.9722C44.2301 40.0028 44.2429 40.0359 44.2429 40.0715V40.5221C44.2429 40.5425 44.2505 40.5578 44.2658 40.5679C44.2811 40.5731 44.2963 40.5628 44.3116 40.5374C44.6273 40.074 45.1135 39.8424 45.7703 39.8424C46.1522 39.8424 46.4857 39.9239 46.7708 40.0868C47.0559 40.2447 47.2748 40.4738 47.4276 40.7741C47.448 40.82 47.4759 40.82 47.5116 40.7741C47.6745 40.4585 47.9011 40.2243 48.1913 40.0715C48.4764 39.9188 48.7971 39.8424 49.1536 39.8424ZM57.3711 42.271C57.417 42.5612 57.4322 42.8845 57.417 43.2409C57.4068 43.3377 57.3559 43.3861 57.2642 43.3861H53.7282C53.6824 43.3861 53.6671 43.4038 53.6824 43.4395C53.7028 43.5923 53.7435 43.745 53.8046 43.8977C54.0032 44.3254 54.4079 44.5393 55.0189 44.5393C55.5077 44.5341 55.8946 44.3356 56.1797 43.9436C56.2103 43.8977 56.2434 43.8748 56.279 43.8748C56.3045 43.8748 56.3325 43.8901 56.363 43.9207L57.1878 44.7302C57.2235 44.7709 57.2413 44.8066 57.2413 44.8371C57.2413 44.8524 57.226 44.8829 57.1955 44.9288C56.946 45.2444 56.6227 45.4863 56.2256 45.6543C55.8284 45.8274 55.3931 45.9139 54.9196 45.9139C54.2628 45.9139 53.7078 45.7663 53.2547 45.471C52.7965 45.1706 52.4681 44.7531 52.2695 44.2185C52.1117 43.8366 52.0328 43.3377 52.0328 42.7216C52.0328 42.2991 52.0887 41.9274 52.2008 41.6066C52.379 41.0669 52.687 40.6367 53.1249 40.3159C53.5627 39.9952 54.0846 39.8348 54.6905 39.8348C55.4542 39.8348 56.0677 40.0563 56.531 40.4992C56.9944 40.9422 57.2744 41.5327 57.3711 42.271ZM54.6981 41.2324C54.2195 41.2324 53.9039 41.4564 53.7511 41.9044C53.7206 42.0062 53.6926 42.1284 53.6671 42.271C53.6671 42.3067 53.6875 42.3245 53.7282 42.3245H55.7062C55.7521 42.3245 55.7673 42.3067 55.7521 42.271C55.7164 42.0521 55.6986 41.9451 55.6986 41.9503C55.6273 41.7212 55.5077 41.543 55.3397 41.4157C55.1665 41.2935 54.9527 41.2324 54.6981 41.2324ZM61.3425 39.8577C61.6174 39.8577 61.8363 39.9111 61.9992 40.0181C62.0603 40.0486 62.0833 40.1046 62.068 40.1861L61.8312 41.492C61.8211 41.5837 61.765 41.6117 61.6632 41.576C61.5512 41.5353 61.4188 41.5149 61.2661 41.5149C61.205 41.5149 61.121 41.5226 61.0141 41.5379C60.7391 41.5633 60.5049 41.6652 60.3114 41.8433C60.123 42.0215 60.0289 42.2609 60.0289 42.5612V45.6848C60.0289 45.7255 60.0161 45.7587 59.9907 45.7841C59.9601 45.8095 59.9271 45.8223 59.8914 45.8223H58.5473C58.5116 45.8223 58.481 45.8095 58.4556 45.7841C58.4251 45.7587 58.4098 45.7255 58.4098 45.6848V40.0715C58.4098 40.0359 58.4251 40.0028 58.4556 39.9722C58.481 39.9468 58.5116 39.9341 58.5473 39.9341H59.8914C59.9271 39.9341 59.9601 39.9468 59.9907 39.9722C60.0161 40.0028 60.0289 40.0359 60.0289 40.0715V40.5068C60.0289 40.5272 60.0365 40.5425 60.0518 40.5527C60.067 40.5628 60.0798 40.5578 60.09 40.5374C60.4006 40.0843 60.818 39.8577 61.3425 39.8577ZM29.8316 26.485C29.8316 26.4494 29.8443 26.4163 29.8698 26.3858C29.8952 26.3603 29.9258 26.3476 29.9614 26.3476H31.3056C31.3412 26.3476 31.3743 26.3603 31.4048 26.3858C31.4303 26.4163 31.443 26.4494 31.443 26.485V34.2291C31.443 34.2698 31.4303 34.303 31.4048 34.3284C31.3743 34.3538 31.3412 34.3666 31.3056 34.3666H29.9614C29.9258 34.3666 29.8952 34.3538 29.8698 34.3284C29.8443 34.303 29.8316 34.2698 29.8316 34.2291V31.0673C29.8316 31.0317 29.8112 31.0139 29.7705 31.0139H27.235C27.1993 31.0139 27.1815 31.0317 27.1815 31.0673V34.2291C27.1815 34.2698 27.1687 34.303 27.1433 34.3284C27.1128 34.3538 27.0797 34.3666 27.044 34.3666H25.6999C25.6642 34.3666 25.6337 34.3538 25.6082 34.3284C25.5777 34.303 25.5624 34.2698 25.5624 34.2291V26.485C25.5624 26.4494 25.5777 26.4163 25.6082 26.3858C25.6337 26.3603 25.6642 26.3476 25.6999 26.3476H27.044C27.0797 26.3476 27.1128 26.3603 27.1433 26.3858C27.1687 26.4163 27.1815 26.4494 27.1815 26.485V29.5628C27.1815 29.6035 27.1993 29.6239 27.235 29.6239H29.7705C29.8112 29.6239 29.8316 29.6035 29.8316 29.5628V26.485ZM33.528 27.8139C33.2683 27.8139 33.0519 27.7274 32.8788 27.5542C32.7057 27.3862 32.6191 27.1724 32.6191 26.9127C32.6191 26.6429 32.7032 26.4239 32.8712 26.2559C33.0392 26.0879 33.2581 26.0039 33.528 26.0039C33.7978 26.0039 34.0167 26.0879 34.1848 26.2559C34.3528 26.4239 34.4368 26.6429 34.4368 26.9127C34.4368 27.1724 34.3503 27.3862 34.1771 27.5542C34.004 27.7274 33.7876 27.8139 33.528 27.8139ZM32.8406 34.3666C32.805 34.3666 32.7719 34.3538 32.7413 34.3284C32.7159 34.303 32.7032 34.2698 32.7032 34.2291V28.6082C32.7032 28.5675 32.7159 28.5343 32.7413 28.5089C32.7719 28.4835 32.805 28.4707 32.8406 28.4707H34.1848C34.2204 28.4707 34.251 28.4835 34.2764 28.5089C34.307 28.5343 34.3222 28.5675 34.3222 28.6082V34.2291C34.3222 34.2698 34.307 34.303 34.2764 34.3284C34.251 34.3538 34.2204 34.3666 34.1848 34.3666H32.8406ZM39.1718 28.6158C39.1718 28.5801 39.1871 28.5471 39.2176 28.5165C39.2431 28.4911 39.2736 28.4783 39.3093 28.4783H40.6534C40.6891 28.4783 40.7222 28.4911 40.7527 28.5165C40.7781 28.5471 40.7909 28.5801 40.7909 28.6158V33.8396C40.7909 34.8376 40.5032 35.5503 39.9279 35.978C39.3526 36.4108 38.6092 36.6272 37.6978 36.6272C37.428 36.6272 37.1302 36.6068 36.8043 36.5661C36.7279 36.5559 36.6897 36.5075 36.6897 36.421L36.7356 35.2372C36.7356 35.1354 36.789 35.0921 36.8959 35.1074C37.1709 35.1532 37.4229 35.1761 37.652 35.1761C38.1408 35.1761 38.5175 35.0717 38.7823 34.863C39.042 34.644 39.1718 34.3004 39.1718 33.832C39.1718 33.8066 39.1642 33.7913 39.1489 33.7862C39.1336 33.781 39.1184 33.7887 39.1031 33.8091C38.8129 34.1197 38.3903 34.2749 37.8353 34.2749C37.3364 34.2749 36.8807 34.1553 36.4683 33.916C36.0507 33.6767 35.7529 33.2897 35.5747 32.7551C35.4627 32.4038 35.4067 31.9481 35.4067 31.3881C35.4067 30.7924 35.4754 30.3087 35.6129 29.937C35.7708 29.4686 36.0406 29.0944 36.4224 28.8144C36.8043 28.5293 37.2498 28.3867 37.7589 28.3867C38.3445 28.3867 38.7925 28.5623 39.1031 28.9137C39.1184 28.9289 39.1336 28.934 39.1489 28.9289C39.1642 28.9238 39.1718 28.9111 39.1718 28.8907V28.6158ZM39.0802 32.3122C39.1413 32.0882 39.1718 31.7751 39.1718 31.3728C39.1718 31.1386 39.1642 30.9579 39.1489 30.8306C39.1336 30.6982 39.1082 30.5734 39.0725 30.4564C39.0013 30.2527 38.8867 30.0873 38.7289 29.9599C38.571 29.8378 38.3724 29.7767 38.1332 29.7767C37.904 29.7767 37.7106 29.8378 37.5527 29.9599C37.3898 30.0873 37.2702 30.2527 37.1938 30.4564C37.0869 30.6855 37.0334 30.9961 37.0334 31.3881C37.0334 31.8158 37.0792 32.1213 37.1709 32.3046C37.2371 32.5133 37.3567 32.6788 37.5298 32.801C37.703 32.9283 37.9066 32.9919 38.1408 32.9919C38.3852 32.9919 38.5889 32.9283 38.7518 32.801C38.9096 32.6788 39.0191 32.5159 39.0802 32.3122ZM45.0219 28.3867C45.6328 28.3867 46.1241 28.5751 46.4958 28.9518C46.8675 29.3235 47.0534 29.8301 47.0534 30.4716V34.2291C47.0534 34.2698 47.0406 34.303 47.0152 34.3284C46.9897 34.3538 46.9592 34.3666 46.9235 34.3666H45.5794C45.5437 34.3666 45.5106 34.3538 45.4801 34.3284C45.4547 34.303 45.4419 34.2698 45.4419 34.2291V30.8C45.4419 30.4997 45.3554 30.2527 45.1823 30.0592C45.0142 29.8708 44.7876 29.7767 44.5025 29.7767C44.2225 29.7767 43.996 29.8708 43.8228 30.0592C43.6497 30.2527 43.5632 30.4997 43.5632 30.8V34.2291C43.5632 34.2698 43.5504 34.303 43.525 34.3284C43.4996 34.3538 43.4664 34.3666 43.4257 34.3666H42.0892C42.0485 34.3666 42.0154 34.3538 41.9899 34.3284C41.9645 34.303 41.9517 34.2698 41.9517 34.2291V26.485C41.9517 26.4494 41.9645 26.4163 41.9899 26.3858C42.0154 26.3603 42.0485 26.3476 42.0892 26.3476H43.4257C43.4664 26.3476 43.4996 26.3603 43.525 26.3858C43.5504 26.4163 43.5632 26.4494 43.5632 26.485V29.0206C43.5632 29.041 43.5708 29.0562 43.5861 29.0664C43.6014 29.0715 43.6115 29.0664 43.6166 29.0511C43.9323 28.6082 44.4007 28.3867 45.0219 28.3867Z" fill="white" fill-opacity="0.4"/>
<path fill-rule="evenodd" clip-rule="evenodd" d="M37.4995 9.69939C37.194 9.62302 36.8885 9.62302 36.583 9.62302H36.2012C33.7573 9.69939 31.9244 11.7614 32.0008 14.2053C32.0771 16.6492 34.1392 18.4821 36.583 18.4057C37.5759 18.4057 38.4923 18.1003 39.256 17.5657L38.2632 15.8855C37.805 16.2673 37.194 16.4965 36.583 16.4965H36.2776C34.9029 16.4201 33.8337 15.1981 33.91 13.8234C33.9864 12.4488 35.2084 11.3796 36.583 11.4559L37.4995 9.69939ZM40.8598 15.2745L39.7143 13.3652H37.5759L36.4303 15.2745H38.6451L39.7143 17.1074L40.8598 15.2745ZM38.1105 11.8378C37.9577 12.0669 37.8814 12.3724 37.8814 12.6779L39.9434 12.7542V12.2196H38.5687C38.6362 12.017 38.7635 11.9339 38.9506 11.8117C38.975 11.7957 39.0004 11.7791 39.0269 11.7614L39.256 11.6087C39.7143 11.4559 39.9434 11.1504 39.9434 10.7686C39.9434 10.5395 39.7906 10.3104 39.6379 10.1576C39.4852 10.0049 39.1797 9.9285 38.9506 9.9285C38.7214 9.9285 38.4923 9.9285 38.2632 10.0812C38.1105 10.234 37.9577 10.3867 37.8814 10.5395L38.2632 10.9213C38.416 10.6158 38.6451 10.4631 38.9506 10.4631C39.1033 10.4631 39.3324 10.6158 39.3324 10.7686C39.3324 10.9213 39.256 10.9977 38.9506 11.1504L38.7978 11.2268C38.5687 11.3796 38.2632 11.6087 38.1105 11.8378ZM43.8383 18.1003L36.583 22.2243L29.2514 18.0239V6.64453H43.8383V18.1003ZM3.5142 49.2598H69.6519L72.0194 54.6058L69.6519 59.9518H3.5142L1.07031 54.6058L3.5142 49.2598ZM22.6911 52.9712C22.7064 52.956 22.7141 52.9356 22.7141 52.9101V52.3297C22.7141 52.3043 22.7064 52.2839 22.6911 52.2686C22.6708 52.2483 22.6478 52.2381 22.6224 52.2381H19.1857C19.1603 52.2381 19.1399 52.2483 19.1246 52.2686C19.1042 52.2839 19.0941 52.3043 19.0941 52.3297V57.4924C19.0941 57.5179 19.1042 57.5382 19.1246 57.5535C19.1399 57.5739 19.1603 57.5841 19.1857 57.5841H22.6224C22.6478 57.5841 22.6708 57.5739 22.6911 57.5535C22.7064 57.5382 22.7141 57.5179 22.7141 57.4924V56.912C22.7141 56.8866 22.7064 56.8662 22.6911 56.8509C22.6708 56.8306 22.6478 56.8204 22.6224 56.8204H20.0181C19.9927 56.8204 19.98 56.8077 19.98 56.7822V55.3082C19.98 55.2828 19.9927 55.27 20.0181 55.27H21.7671C21.7925 55.27 21.8154 55.2624 21.8358 55.2471C21.8511 55.2268 21.8587 55.2039 21.8587 55.1784V54.5979C21.8587 54.5725 21.8511 54.5496 21.8358 54.5292C21.8154 54.5139 21.7925 54.5063 21.7671 54.5063H20.0181C19.9927 54.5063 19.98 54.4936 19.98 54.4681V53.04C19.98 53.0145 19.9927 53.0018 20.0181 53.0018H22.6224C22.6478 53.0018 22.6708 52.9916 22.6911 52.9712ZM26.3952 53.987C26.1457 53.7426 25.8147 53.6204 25.4023 53.6204C24.9798 53.6204 24.6641 53.7579 24.4553 54.0328C24.4502 54.0481 24.4426 54.0532 24.4324 54.0481C24.4223 54.043 24.4171 54.0328 24.4171 54.0175V53.7731C24.4171 53.7477 24.4095 53.7248 24.3942 53.7044C24.3738 53.6891 24.3509 53.6815 24.3255 53.6815H23.6229C23.5975 53.6815 23.5771 53.6891 23.5618 53.7044C23.5414 53.7248 23.5312 53.7477 23.5312 53.7731V57.4924C23.5312 57.5179 23.5414 57.5382 23.5618 57.5535C23.5771 57.5739 23.5975 57.5841 23.6229 57.5841H24.3255C24.3509 57.5841 24.3738 57.5739 24.3942 57.5535C24.4095 57.5382 24.4171 57.5179 24.4171 57.4924V55.1631C24.4171 54.9289 24.4834 54.7405 24.6157 54.5979C24.7532 54.4554 24.9314 54.3841 25.1503 54.3841C25.3693 54.3841 25.5449 54.4554 25.6773 54.5979C25.8096 54.7456 25.8758 54.9366 25.8758 55.1707V57.4924C25.8758 57.5179 25.8835 57.5382 25.8988 57.5535C25.9191 57.5739 25.9421 57.5841 25.9675 57.5841H26.6701C26.6955 57.5841 26.7159 57.5739 26.7312 57.5535C26.7516 57.5382 26.7617 57.5179 26.7617 57.4924V54.9874C26.7617 54.5649 26.6396 54.2314 26.3952 53.987ZM29.725 54.3688C29.7454 54.3536 29.7555 54.3332 29.7555 54.3077V53.7731C29.7555 53.7477 29.7454 53.7248 29.725 53.7044C29.7097 53.6891 29.6893 53.6815 29.6639 53.6815H28.8849C28.8594 53.6815 28.8467 53.6688 28.8467 53.6433V52.7498C28.8467 52.7243 28.8365 52.7014 28.8161 52.681C28.8009 52.6657 28.7805 52.6581 28.755 52.6581H28.0906C28.0652 52.6581 28.0423 52.6657 28.0219 52.681C28.0066 52.7014 27.999 52.7243 27.999 52.7498V53.6433C27.999 53.6688 27.9862 53.6815 27.9608 53.6815H27.5255C27.5 53.6815 27.4771 53.6891 27.4567 53.7044C27.4415 53.7248 27.4338 53.7477 27.4338 53.7731V54.3077C27.4338 54.3332 27.4415 54.3536 27.4567 54.3688C27.4771 54.3892 27.5 54.3994 27.5255 54.3994H27.9608C27.9862 54.3994 27.999 54.4121 27.999 54.4376V56.6142C28.0041 56.996 28.1059 57.2557 28.3045 57.3931C28.503 57.5306 28.8034 57.5993 29.2056 57.5993L29.6028 57.5917C29.6639 57.5815 29.6944 57.5485 29.6944 57.4924V56.9196C29.6944 56.8942 29.6843 56.8713 29.6639 56.8509C29.6486 56.8356 29.6282 56.828 29.6028 56.828H29.3737C29.1904 56.828 29.0554 56.7848 28.9689 56.6982C28.8874 56.6116 28.8467 56.4716 28.8467 56.2781V54.4376C28.8467 54.4121 28.8594 54.3994 28.8849 54.3994H29.6639C29.6893 54.3994 29.7097 54.3892 29.725 54.3688ZM33.7879 55.6213C33.7879 55.4635 33.7778 55.321 33.7574 55.1936C33.6301 54.1448 33.0649 53.6204 32.0619 53.6204C31.6648 53.6204 31.3262 53.7223 31.0462 53.9259C30.7611 54.1347 30.5676 54.4173 30.4658 54.7736C30.4047 54.9569 30.3741 55.1962 30.3741 55.4915C30.3741 55.9803 30.4327 56.3621 30.5498 56.6371C30.6771 56.9578 30.8782 57.2073 31.1531 57.3855C31.4332 57.5638 31.7717 57.6528 32.1688 57.6528C32.4896 57.6528 32.7823 57.5917 33.0471 57.4695C33.3068 57.3473 33.5155 57.1743 33.6734 56.9502C33.7039 56.9044 33.6963 56.8637 33.6505 56.828L33.177 56.4385C33.1617 56.4232 33.1439 56.4156 33.1235 56.4156C33.0929 56.4156 33.0675 56.4309 33.0471 56.4614C32.8434 56.7466 32.5685 56.8891 32.2223 56.8891C31.7488 56.884 31.451 56.6982 31.3288 56.3316C31.2982 56.2705 31.2753 56.1559 31.26 55.9879C31.26 55.9625 31.2728 55.9497 31.2982 55.9497H33.6886C33.7497 55.9497 33.7803 55.9192 33.7803 55.8581L33.7879 55.6213ZM31.5884 54.5292C31.7157 54.4325 31.8735 54.3841 32.0619 54.3841C32.2656 54.3841 32.4361 54.435 32.5736 54.5368C32.706 54.6387 32.7951 54.7812 32.8409 54.9645C32.8613 55.0307 32.8766 55.1275 32.8867 55.2547C32.8867 55.2803 32.874 55.2929 32.8486 55.2929H31.2982C31.2677 55.2929 31.2575 55.2803 31.2677 55.2547C31.2778 55.1173 31.2982 55.0053 31.3288 54.9187C31.3797 54.7507 31.4662 54.6209 31.5884 54.5292ZM36.8428 53.735C36.7206 53.6688 36.578 53.6357 36.4151 53.6357C36.0332 53.6357 35.7354 53.8012 35.5216 54.1321C35.5114 54.1474 35.5012 54.1525 35.491 54.1474C35.4859 54.1474 35.4834 54.1372 35.4834 54.1168V53.7731C35.4834 53.7477 35.4757 53.7248 35.4605 53.7044C35.4401 53.6891 35.4172 53.6815 35.3917 53.6815H34.6891C34.6637 53.6815 34.6433 53.6891 34.628 53.7044C34.6076 53.7248 34.5975 53.7477 34.5975 53.7731V57.4924C34.5975 57.5179 34.6076 57.5382 34.628 57.5535C34.6433 57.5739 34.6637 57.5841 34.6891 57.5841H35.3917C35.4172 57.5841 35.4401 57.5739 35.4605 57.5535C35.4757 57.5382 35.4834 57.5179 35.4834 57.4924V55.3311C35.4834 55.1071 35.5546 54.9238 35.6972 54.7812C35.8398 54.6438 36.018 54.57 36.2318 54.5598C36.2675 54.5547 36.3183 54.5521 36.3846 54.5521C36.4864 54.5521 36.5755 54.5649 36.6519 54.5903C36.7181 54.6158 36.7537 54.5979 36.7588 54.5368L36.8886 53.8495C36.8988 53.7935 36.8835 53.7553 36.8428 53.735ZM40.9134 55.6442C40.9134 55.2675 40.8676 54.9493 40.7759 54.6896C40.6639 54.3536 40.4832 54.0914 40.2337 53.903C39.9842 53.7146 39.6787 53.6204 39.3172 53.6204C38.9557 53.6204 38.6629 53.7528 38.4389 54.0175C38.4288 54.0328 38.4186 54.0379 38.4084 54.0328C38.3982 54.0278 38.3931 54.0175 38.3931 54.0023V53.7731C38.3931 53.7477 38.3855 53.7248 38.3702 53.7044C38.3498 53.6891 38.3269 53.6815 38.3015 53.6815H37.5989C37.5734 53.6815 37.553 53.6891 37.5378 53.7044C37.5174 53.7248 37.5072 53.7477 37.5072 53.7731V58.9358C37.5072 58.9613 37.5174 58.9817 37.5378 58.9969C37.553 59.0173 37.5734 59.0275 37.5989 59.0275H38.3015C38.3269 59.0275 38.3498 59.0173 38.3702 58.9969C38.3855 58.9817 38.3931 58.9613 38.3931 58.9358V57.2786C38.3931 57.2633 38.3982 57.2532 38.4084 57.248C38.4186 57.243 38.4288 57.2455 38.4389 57.2557C38.6579 57.5153 38.9481 57.6452 39.3096 57.6452C39.6863 57.6452 39.9994 57.551 40.249 57.3626C40.4933 57.1743 40.6715 56.912 40.7836 56.576C40.8701 56.3163 40.9134 56.0058 40.9134 55.6442ZM40.0122 55.629C40.0122 56.0159 39.9358 56.3265 39.7831 56.5607C39.6456 56.7745 39.4419 56.8814 39.1721 56.8814C38.9226 56.8814 38.7317 56.7695 38.5993 56.5454C38.472 56.3367 38.4084 56.0312 38.4084 55.629C38.4084 55.2369 38.467 54.9416 38.5841 54.7431C38.7164 54.4987 38.915 54.3765 39.1797 54.3765C39.47 54.3765 39.6863 54.5013 39.8289 54.7507C39.9511 54.9645 40.0122 55.2573 40.0122 55.629ZM44.0141 53.735C43.8919 53.6688 43.7493 53.6357 43.5864 53.6357C43.2045 53.6357 42.9067 53.8012 42.6928 54.1321C42.6827 54.1474 42.6724 54.1525 42.6623 54.1474C42.6572 54.1474 42.6547 54.1372 42.6547 54.1168V53.7731C42.6547 53.7477 42.647 53.7248 42.6317 53.7044C42.6113 53.6891 42.5884 53.6815 42.563 53.6815H41.8604C41.835 53.6815 41.8146 53.6891 41.7993 53.7044C41.7789 53.7248 41.7687 53.7477 41.7687 53.7731V57.4924C41.7687 57.5179 41.7789 57.5382 41.7993 57.5535C41.8146 57.5739 41.835 57.5841 41.8604 57.5841H42.563C42.5884 57.5841 42.6113 57.5739 42.6317 57.5535C42.647 57.5382 42.6547 57.5179 42.6547 57.4924V55.3311C42.6547 55.1071 42.7259 54.9238 42.8685 54.7812C43.0111 54.6438 43.1893 54.57 43.4031 54.5598C43.4388 54.5547 43.4896 54.5521 43.5558 54.5521C43.6576 54.5521 43.7468 54.5649 43.8231 54.5903C43.8894 54.6158 43.9249 54.5979 43.9301 54.5368L44.0599 53.8495C44.07 53.7935 44.0548 53.7553 44.0141 53.735ZM44.7549 52.9941C44.8567 53.096 44.9865 53.1469 45.1444 53.1469C45.3022 53.1469 45.4321 53.096 45.5339 52.9941C45.6357 52.8923 45.6866 52.7625 45.6866 52.6046C45.6866 52.4469 45.6357 52.317 45.5339 52.2152C45.4321 52.1134 45.3022 52.0624 45.1444 52.0624C44.9865 52.0624 44.8567 52.1134 44.7549 52.2152C44.6531 52.317 44.6021 52.4469 44.6021 52.6046C44.6021 52.7625 44.6531 52.8923 44.7549 52.9941ZM44.7167 57.5535C44.732 57.5739 44.7523 57.5841 44.7778 57.5841H45.4804C45.5058 57.5841 45.5287 57.5739 45.5491 57.5535C45.5644 57.5382 45.572 57.5179 45.572 57.4924V53.7655C45.572 53.7401 45.5644 53.7197 45.5491 53.7044C45.5287 53.6841 45.5058 53.6739 45.4804 53.6739H44.7778C44.7523 53.6739 44.732 53.6841 44.7167 53.7044C44.6963 53.7197 44.6861 53.7401 44.6861 53.7655V57.4924C44.6861 57.5179 44.6963 57.5382 44.7167 57.5535ZM47.1911 57.4848C47.4355 57.5815 47.7181 57.6299 48.0388 57.6299C48.5123 57.6299 48.8917 57.5256 49.1768 57.3168C49.4619 57.1132 49.6045 56.8306 49.6045 56.469C49.6045 56.2298 49.5408 56.0337 49.4135 55.881C49.2862 55.7334 49.131 55.6163 48.9477 55.5297C48.7644 55.4483 48.5378 55.3668 48.268 55.2853L48.0999 55.2395C47.8199 55.1631 47.6188 55.0918 47.4966 55.0256C47.3795 54.9645 47.3209 54.8729 47.3209 54.7507C47.3209 54.6183 47.3846 54.5139 47.5119 54.4376C47.6341 54.3663 47.7945 54.3306 47.993 54.3306C48.217 54.3306 48.3953 54.3765 48.5276 54.4681C48.6549 54.5547 48.7185 54.6642 48.7185 54.7965C48.7185 54.822 48.7262 54.8449 48.7415 54.8652C48.7618 54.8805 48.7848 54.8882 48.8102 54.8882H49.4593C49.4848 54.8882 49.5077 54.8805 49.5281 54.8652C49.5434 54.8449 49.551 54.822 49.551 54.7965C49.551 54.5725 49.4874 54.3714 49.3601 54.1932C49.2328 54.0201 49.0521 53.8827 48.8178 53.7808C48.5836 53.6841 48.3113 53.6357 48.0007 53.6357C47.5424 53.6357 47.1733 53.7426 46.8933 53.9564C46.6132 54.1652 46.4732 54.4478 46.4732 54.8042C46.4732 55.0384 46.5343 55.2293 46.6565 55.3769C46.7787 55.5297 46.9289 55.6493 47.1071 55.7359C47.2853 55.8225 47.5042 55.9039 47.7639 55.9803L48.0541 56.0719C48.2883 56.1381 48.4564 56.1992 48.5582 56.2552C48.6651 56.3163 48.7185 56.4054 48.7185 56.5225C48.7185 56.6498 48.6549 56.7567 48.5276 56.8433C48.4003 56.9248 48.2349 56.9655 48.0312 56.9655C47.8174 56.9655 47.6392 56.9196 47.4966 56.828C47.3591 56.7313 47.2904 56.6193 47.2904 56.492V56.4767C47.2904 56.4512 47.2828 56.4283 47.2675 56.4079C47.2471 56.3927 47.2242 56.385 47.1988 56.385H46.5267C46.5013 56.385 46.4783 56.3927 46.458 56.4079C46.4427 56.4283 46.435 56.4512 46.435 56.4767V56.5454C46.435 56.7491 46.5013 56.9324 46.6336 57.0953C46.766 57.2633 46.9518 57.3931 47.1911 57.4848ZM53.6751 55.6213C53.6751 55.4635 53.6649 55.321 53.6445 55.1936C53.5172 54.1448 52.952 53.6204 51.9491 53.6204C51.5519 53.6204 51.2108 53.7223 50.9257 53.9259C50.6456 54.1347 50.4547 54.4173 50.3529 54.7736C50.2918 54.9569 50.2612 55.1962 50.2612 55.4915C50.2612 55.9803 50.3198 56.3621 50.4369 56.6371C50.5642 56.9578 50.7653 57.2073 51.0402 57.3855C51.3203 57.5638 51.6588 57.6528 52.056 57.6528C52.3767 57.6528 52.667 57.5917 52.9266 57.4695C53.1914 57.3473 53.4026 57.1743 53.5605 56.9502C53.591 56.9044 53.5834 56.8637 53.5376 56.828L53.0641 56.4385C53.0488 56.4232 53.031 56.4156 53.0106 56.4156C52.9801 56.4156 52.9546 56.4309 52.9342 56.4614C52.7306 56.7466 52.4556 56.8891 52.1094 56.8891C51.6359 56.884 51.3381 56.6982 51.2159 56.3316C51.1853 56.2705 51.1624 56.1559 51.1472 55.9879C51.1472 55.9625 51.1599 55.9497 51.1853 55.9497H53.5758C53.6369 55.9497 53.6674 55.9192 53.6674 55.8581L53.6751 55.6213ZM51.4756 54.5292C51.6029 54.4325 51.7606 54.3841 51.9491 54.3841C52.1527 54.3841 52.3208 54.435 52.4531 54.5368C52.5906 54.6387 52.6822 54.7812 52.728 54.9645C52.7484 55.0307 52.7637 55.1275 52.7739 55.2547C52.7739 55.2803 52.7611 55.2929 52.7357 55.2929H51.1853C51.1548 55.2929 51.1446 55.2803 51.1548 55.2547C51.165 55.1173 51.1853 55.0053 51.2159 54.9187C51.2668 54.7507 51.3534 54.6209 51.4756 54.5292Z" fill="white" fill-opacity="0.4"/>
<path d="M24.562 68.3528C24.5061 68.3528 24.4704 68.3274 24.4551 68.2765L23.1033 63.1061L23.0957 63.0756C23.0957 63.0297 23.1237 63.0068 23.1797 63.0068H24.1267C24.1777 63.0068 24.2107 63.0323 24.226 63.0832L24.9515 66.1915C24.9566 66.2119 24.9643 66.2221 24.9744 66.2221C24.9846 66.2221 24.9922 66.2119 24.9974 66.1915L25.7 63.0908C25.7152 63.0349 25.7483 63.0068 25.7993 63.0068H26.7233C26.7793 63.0068 26.815 63.0323 26.8303 63.0832L27.594 66.1915C27.5991 66.2068 27.6067 66.217 27.6169 66.2221C27.6271 66.2221 27.6347 66.2119 27.6398 66.1915L28.3424 63.0908C28.3577 63.0349 28.3908 63.0068 28.4417 63.0068H29.3429C29.4141 63.0068 29.4422 63.0399 29.4269 63.1061L28.1744 68.2765C28.1591 68.3274 28.1235 68.3528 28.0675 68.3528H27.1587C27.1077 68.3528 27.0747 68.3274 27.0594 68.2765L26.2804 64.9696C26.2753 64.9492 26.2676 64.939 26.2575 64.939C26.2473 64.939 26.2397 64.9492 26.2346 64.9696L25.509 68.2688C25.4989 68.3248 25.4657 68.3528 25.4098 68.3528H24.562ZM30.1677 68.3528C30.1423 68.3528 30.1194 68.3427 30.099 68.3223C30.0837 68.307 30.0761 68.2866 30.0761 68.2612V63.0985C30.0761 63.0731 30.0837 63.0527 30.099 63.0374C30.1194 63.017 30.1423 63.0068 30.1677 63.0068H31.0612C31.0867 63.0068 31.1071 63.017 31.1223 63.0374C31.1427 63.0527 31.1529 63.0731 31.1529 63.0985V68.2612C31.1529 68.2866 31.1427 68.307 31.1223 68.3223C31.1071 68.3427 31.0867 68.3528 31.0612 68.3528H30.1677ZM35.1548 63.0985C35.1548 63.0731 35.1624 63.0527 35.1777 63.0374C35.1981 63.017 35.221 63.0068 35.2464 63.0068H36.1399C36.1654 63.0068 36.1858 63.017 36.201 63.0374C36.2214 63.0527 36.2316 63.0731 36.2316 63.0985V68.2612C36.2316 68.2866 36.2214 68.307 36.201 68.3223C36.1858 68.3427 36.1654 68.3528 36.1399 68.3528H35.2769C35.226 68.3528 35.1904 68.3324 35.17 68.2917L33.192 65.023C33.1819 65.0078 33.1716 65.0027 33.1615 65.0078C33.1513 65.0078 33.1462 65.0179 33.1462 65.0383L33.1615 68.2612C33.1615 68.2866 33.1513 68.307 33.1309 68.3223C33.1156 68.3427 33.0952 68.3528 33.0698 68.3528H32.1763C32.1508 68.3528 32.1279 68.3427 32.1075 68.3223C32.0923 68.307 32.0846 68.2866 32.0846 68.2612V63.0985C32.0846 63.0731 32.0923 63.0527 32.1075 63.0374C32.1279 63.017 32.1508 63.0068 32.1763 63.0068H33.0393C33.0902 63.0068 33.1258 63.0272 33.1462 63.0679L35.1166 66.3214C35.1267 66.3366 35.137 66.3417 35.1471 66.3366C35.1573 66.3366 35.1624 66.3265 35.1624 66.3061L35.1548 63.0985ZM40.8521 63.0068C40.8775 63.0068 40.8979 63.017 40.9132 63.0374C40.9336 63.0527 40.9437 63.0731 40.9437 63.0985V63.8469C40.9437 63.8724 40.9336 63.8927 40.9132 63.908C40.8979 63.9284 40.8775 63.9386 40.8521 63.9386H39.485C39.4596 63.9386 39.4468 63.9513 39.4468 63.9768V68.2612C39.4468 68.2866 39.4367 68.307 39.4163 68.3223C39.401 68.3427 39.3806 68.3528 39.3552 68.3528H38.4616C38.4362 68.3528 38.4133 68.3427 38.3929 68.3223C38.3776 68.307 38.37 68.2866 38.37 68.2612V63.9768C38.37 63.9513 38.3572 63.9386 38.3318 63.9386H37.0029C36.9775 63.9386 36.9546 63.9284 36.9342 63.908C36.9189 63.8927 36.9113 63.8724 36.9113 63.8469V63.0985C36.9113 63.0731 36.9189 63.0527 36.9342 63.0374C36.9546 63.017 36.9775 63.0068 37.0029 63.0068H40.8521ZM45.3427 63.8393C45.3427 63.8647 45.3351 63.8851 45.3198 63.9004C45.2994 63.9208 45.2765 63.9309 45.2511 63.9309H42.7461C42.7206 63.9309 42.7079 63.9437 42.7079 63.9691V65.1529C42.7079 65.1783 42.7206 65.1911 42.7461 65.1911H44.3881C44.4135 65.1911 44.4339 65.1987 44.4492 65.214C44.4696 65.2344 44.4797 65.2573 44.4797 65.2827V66.0235C44.4797 66.0489 44.4696 66.0719 44.4492 66.0922C44.4339 66.1075 44.4135 66.1152 44.3881 66.1152H42.7461C42.7206 66.1152 42.7079 66.1279 42.7079 66.1533V67.3906C42.7079 67.416 42.7206 67.4287 42.7461 67.4287H45.2511C45.2765 67.4287 45.2994 67.4364 45.3198 67.4517C45.3351 67.472 45.3427 67.495 45.3427 67.5204V68.2612C45.3427 68.2866 45.3351 68.307 45.3198 68.3223C45.2994 68.3427 45.2765 68.3528 45.2511 68.3528H41.7227C41.6973 68.3528 41.6744 68.3427 41.654 68.3223C41.6387 68.307 41.6311 68.2866 41.6311 68.2612V63.0985C41.6311 63.0731 41.6387 63.0527 41.654 63.0374C41.6744 63.017 41.6973 63.0068 41.7227 63.0068H45.2511C45.2765 63.0068 45.2994 63.017 45.3198 63.0374C45.3351 63.0527 45.3427 63.0731 45.3427 63.0985V63.8393ZM49.0238 68.3528C48.9729 68.3528 48.9373 68.3299 48.9169 68.2841L47.9622 66.1686C47.9521 66.1482 47.9368 66.1381 47.9164 66.1381H47.2062C47.1807 66.1381 47.168 66.1508 47.168 66.1763V68.2612C47.168 68.2866 47.1578 68.307 47.1374 68.3223C47.1222 68.3427 47.1018 68.3528 47.0763 68.3528H46.1828C46.1574 68.3528 46.1345 68.3427 46.1141 68.3223C46.0988 68.307 46.0911 68.2866 46.0911 68.2612V63.0985C46.0911 63.0731 46.0988 63.0527 46.1141 63.0374C46.1345 63.017 46.1574 63.0068 46.1828 63.0068H48.367C48.6929 63.0068 48.978 63.0731 49.2224 63.2054C49.4719 63.3378 49.6628 63.5262 49.7952 63.7706C49.9326 64.0149 50.0014 64.2975 50.0014 64.6183C50.0014 64.9645 49.9148 65.2598 49.7417 65.5042C49.5686 65.7537 49.3268 65.9293 49.0162 66.0311C48.9907 66.0413 48.9831 66.0592 48.9933 66.0846L50.0319 68.2459C50.0421 68.2663 50.0472 68.2816 50.0472 68.2917C50.0472 68.3324 50.0192 68.3528 49.9632 68.3528H49.0238ZM47.2062 63.9309C47.1807 63.9309 47.168 63.9437 47.168 63.9691V65.2751C47.168 65.3005 47.1807 65.3133 47.2062 65.3133H48.2066C48.4205 65.3133 48.5936 65.2496 48.726 65.1223C48.8634 64.995 48.9322 64.8296 48.9322 64.6259C48.9322 64.4222 48.8634 64.2542 48.726 64.1219C48.5936 63.9945 48.4205 63.9309 48.2066 63.9309H47.2062ZM29.8317 74.5618C29.8215 74.572 29.8189 74.5822 29.824 74.5924C29.8291 74.6025 29.8393 74.6077 29.8546 74.6077H31.9242C31.9497 74.6077 31.9726 74.6153 31.993 74.6306C32.0083 74.651 32.0159 74.6739 32.0159 74.6993V75.4401C32.0159 75.4655 32.0083 75.4859 31.993 75.5012C31.9726 75.5216 31.9497 75.5318 31.9242 75.5318H28.4875C28.4621 75.5318 28.4392 75.5216 28.4188 75.5012C28.4035 75.4859 28.3959 75.4655 28.3959 75.4401V74.7375C28.3959 74.6917 28.4112 74.6535 28.4417 74.6229C28.6912 74.3785 28.9458 74.1138 29.2054 73.8287C29.4651 73.5385 29.628 73.3577 29.6942 73.2864C29.8368 73.1184 29.9819 72.958 30.1295 72.8053C30.5929 72.2911 30.8245 71.9092 30.8245 71.6597C30.8245 71.4815 30.7609 71.3338 30.6336 71.2168C30.5063 71.1047 30.3408 71.0487 30.1372 71.0487C29.9335 71.0487 29.768 71.1047 29.6407 71.2168C29.5134 71.3338 29.4498 71.4866 29.4498 71.675V71.8659C29.4498 71.8914 29.4397 71.9143 29.4193 71.9347C29.404 71.9499 29.3836 71.9576 29.3582 71.9576H28.457C28.4315 71.9576 28.4112 71.9499 28.3959 71.9347C28.3755 71.9143 28.3653 71.8914 28.3653 71.8659V71.507C28.3806 71.232 28.4671 70.9877 28.625 70.7738C28.7829 70.5651 28.9916 70.4047 29.2512 70.2927C29.516 70.1806 29.8113 70.1247 30.1372 70.1247C30.4986 70.1247 30.8143 70.1909 31.0842 70.3232C31.3489 70.4607 31.5551 70.644 31.7028 70.8731C31.8454 71.1022 31.9166 71.3568 31.9166 71.6368C31.9166 71.8507 31.8631 72.0696 31.7562 72.2936C31.6493 72.5176 31.4889 72.7595 31.2751 73.0191C31.1172 73.2177 30.9467 73.4137 30.7634 73.6072C30.5801 73.8006 30.3077 74.0807 29.9462 74.4473L29.8317 74.5618ZM34.498 75.6158C33.9379 75.6158 33.495 75.4579 33.1691 75.1423C32.8432 74.8317 32.6803 74.4066 32.6803 73.8669V71.8507C32.6803 71.3212 32.8432 70.9011 33.1691 70.5905C33.495 70.2799 33.9379 70.1247 34.498 70.1247C35.058 70.1247 35.5035 70.2799 35.8345 70.5905C36.1603 70.9011 36.3232 71.3212 36.3232 71.8507V73.8669C36.3232 74.4066 36.1603 74.8317 35.8345 75.1423C35.5035 75.4579 35.058 75.6158 34.498 75.6158ZM34.498 74.6917C34.7271 74.6917 34.9104 74.6204 35.0478 74.4778C35.1802 74.3404 35.2464 74.1545 35.2464 73.9203V71.8201C35.2464 71.5859 35.1802 71.4001 35.0478 71.2626C34.9104 71.12 34.7271 71.0487 34.498 71.0487C34.274 71.0487 34.0957 71.12 33.9634 71.2626C33.8259 71.4001 33.7572 71.5859 33.7572 71.8201V73.9203C33.7572 74.1545 33.8259 74.3404 33.9634 74.4778C34.0957 74.6204 34.274 74.6917 34.498 74.6917ZM38.4616 74.5618C38.4515 74.572 38.4489 74.5822 38.454 74.5924C38.4591 74.6025 38.4693 74.6077 38.4846 74.6077H40.5542C40.5796 74.6077 40.6026 74.6153 40.623 74.6306C40.6382 74.651 40.6459 74.6739 40.6459 74.6993V75.4401C40.6459 75.4655 40.6382 75.4859 40.623 75.5012C40.6026 75.5216 40.5796 75.5318 40.5542 75.5318H37.1175C37.0921 75.5318 37.0717 75.5216 37.0564 75.5012C37.036 75.4859 37.0259 75.4655 37.0259 75.4401V74.7375C37.0259 74.6917 37.0411 74.6535 37.0717 74.6229C37.3212 74.3785 37.5757 74.1138 37.8354 73.8287C38.0951 73.5385 38.258 73.3577 38.3242 73.2864C38.4668 73.1184 38.6119 72.958 38.7595 72.8053C39.2228 72.2911 39.4545 71.9092 39.4545 71.6597C39.4545 71.4815 39.3909 71.3338 39.2635 71.2168C39.1362 71.1047 38.9708 71.0487 38.7671 71.0487C38.5634 71.0487 38.398 71.1047 38.2707 71.2168C38.1434 71.3338 38.0798 71.4866 38.0798 71.675V71.8659C38.0798 71.8914 38.0721 71.9143 38.0569 71.9347C38.0365 71.9499 38.0136 71.9576 37.9881 71.9576H37.087C37.0615 71.9576 37.0411 71.9499 37.0259 71.9347C37.0055 71.9143 36.9953 71.8914 36.9953 71.8659V71.507C37.0106 71.232 37.0971 70.9877 37.255 70.7738C37.4128 70.5651 37.6241 70.4047 37.8889 70.2927C38.1485 70.1806 38.4412 70.1247 38.7671 70.1247C39.1286 70.1247 39.4443 70.1909 39.7141 70.3232C39.9789 70.4607 40.1851 70.644 40.3327 70.8731C40.4753 71.1022 40.5466 71.3568 40.5466 71.6368C40.5466 71.8507 40.4931 72.0696 40.3862 72.2936C40.2793 72.5176 40.1189 72.7595 39.9051 73.0191C39.7472 73.2177 39.5767 73.4137 39.3934 73.6072C39.2101 73.8006 38.9377 74.0807 38.5762 74.4473L38.4616 74.5618ZM44.495 72.9809C44.5968 73.2152 44.6477 73.485 44.6477 73.7905C44.6477 74.0654 44.6019 74.32 44.5103 74.5542C44.3881 74.8801 44.1844 75.1346 43.8993 75.3179C43.6091 75.5012 43.2679 75.5929 42.8759 75.5929C42.4889 75.5929 42.1504 75.4961 41.8602 75.3026C41.5648 75.1092 41.3536 74.8469 41.2263 74.516C41.155 74.3174 41.1143 74.1036 41.1041 73.8745C41.1041 73.8134 41.1346 73.7828 41.1957 73.7828H42.0969C42.158 73.7828 42.1886 73.8134 42.1886 73.8745C42.209 74.0425 42.2369 74.1672 42.2726 74.2487C42.3184 74.3811 42.3948 74.4829 42.5017 74.5542C42.6035 74.6306 42.7257 74.6688 42.8683 74.6688C43.1534 74.6688 43.3494 74.544 43.4563 74.2945C43.5276 74.1418 43.5633 73.9636 43.5633 73.7599C43.5633 73.5207 43.5251 73.3246 43.4487 73.1719C43.3316 72.9326 43.1356 72.8129 42.8606 72.8129C42.8047 72.8129 42.7461 72.8282 42.685 72.8588C42.6239 72.8944 42.55 72.9428 42.4635 73.0039C42.4431 73.0191 42.4228 73.0268 42.4024 73.0268C42.3719 73.0268 42.3489 73.0115 42.3337 72.9809L41.8831 72.3471C41.8729 72.3318 41.8678 72.314 41.8678 72.2936C41.8678 72.2631 41.878 72.2376 41.8984 72.2172L43.1127 71.1557C43.1228 71.1455 43.1279 71.1353 43.1279 71.1251C43.1228 71.115 43.1127 71.1098 43.0974 71.1098H41.3027C41.2772 71.1098 41.2568 71.0997 41.2416 71.0793C41.2212 71.064 41.211 71.0436 41.211 71.0182V70.2774C41.211 70.252 41.2212 70.2316 41.2416 70.2163C41.2568 70.1959 41.2772 70.1858 41.3027 70.1858H44.4874C44.5128 70.1858 44.5357 70.1959 44.5561 70.2163C44.5714 70.2316 44.579 70.252 44.579 70.2774V71.1175C44.579 71.1582 44.5612 71.1964 44.5255 71.232L43.5251 72.1485C43.5149 72.1587 43.5123 72.1689 43.5174 72.1791C43.5174 72.1892 43.5276 72.1943 43.548 72.1943C43.9909 72.2809 44.3066 72.5431 44.495 72.9809Z" fill="white" fill-opacity="0.4"/>
<rect x="31.1162" y="9" width="11" height="10" fill="#8073CF"/>
<path d="M37.9906 13.5864C37.9739 13.3774 37.8955 13.2144 37.7555 13.0974C37.6176 12.9804 37.4076 12.9219 37.1255 12.9219C36.9458 12.9219 36.7984 12.9438 36.6835 12.9877C36.5706 13.0295 36.487 13.087 36.4327 13.1601C36.3784 13.2332 36.3502 13.3168 36.3481 13.4109C36.3439 13.4882 36.3575 13.5582 36.3888 13.6209C36.4223 13.6815 36.4745 13.7369 36.5456 13.787C36.6166 13.8351 36.7075 13.879 36.8183 13.9187C36.929 13.9584 37.0607 13.9939 37.2132 14.0253L37.7399 14.1381C38.0951 14.2133 38.3992 14.3126 38.652 14.4359C38.9049 14.5592 39.1118 14.7044 39.2727 14.8716C39.4336 15.0367 39.5517 15.2227 39.6269 15.4296C39.7042 15.6365 39.7439 15.8622 39.746 16.1067C39.7439 16.5288 39.6384 16.8862 39.4294 17.1787C39.2205 17.4713 38.9216 17.6938 38.5329 17.8464C38.1463 17.999 37.6813 18.0752 37.138 18.0752C36.58 18.0752 36.0931 17.9927 35.6773 17.8276C35.2635 17.6625 34.9417 17.4086 34.7118 17.0659C34.484 16.7211 34.3691 16.2801 34.367 15.7431H36.0221C36.0325 15.9395 36.0816 16.1046 36.1694 16.2383C36.2572 16.3721 36.3805 16.4734 36.5393 16.5424C36.7002 16.6114 36.8914 16.6458 37.1129 16.6458C37.2989 16.6458 37.4546 16.6228 37.58 16.5769C37.7054 16.5309 37.8005 16.4672 37.8652 16.3857C37.93 16.3042 37.9635 16.2112 37.9656 16.1067C37.9635 16.0085 37.9311 15.9228 37.8684 15.8496C37.8078 15.7744 37.7075 15.7075 37.5675 15.649C37.4274 15.5884 37.2383 15.532 37.0001 15.4797L36.3606 15.3418C35.7922 15.2185 35.3439 15.0127 35.0159 14.7243C34.6899 14.4338 34.5279 14.0378 34.53 13.5363C34.5279 13.1288 34.6366 12.7725 34.856 12.4674C35.0775 12.1602 35.3837 11.9209 35.7744 11.7495C36.1673 11.5782 36.6177 11.4925 37.1255 11.4925C37.6437 11.4925 38.092 11.5792 38.4702 11.7527C38.8485 11.9261 39.14 12.1706 39.3448 12.4862C39.5517 12.7996 39.6562 13.1664 39.6583 13.5864H37.9906Z" fill="#1802A9"/>
</g>
<defs>
<clipPath id="clip0_682_20668">
<rect width="71.7892" height="93.1732" fill="white" transform="translate(0.765625)"/>
</clipPath>
</defs>
</svg>
