<svg width="124" height="24" viewBox="0 0 124 24" fill="none" xmlns="http://www.w3.org/2000/svg">
<g clip-path="url(#clip0_2629_45379)">
<path d="M14.8561 13.4969L13.396 12.0819C13.2449 11.9378 13.0509 11.8468 12.8435 11.8228C12.636 11.7988 12.4264 11.8431 12.2463 11.9489C12.202 11.9933 12.1133 12.0376 12.0697 12.0819L11.9367 12.2149C11.8197 12.3668 11.7575 12.5538 11.7601 12.7455C11.7612 12.8611 11.7851 12.9754 11.8307 13.0817C11.8762 13.188 11.9424 13.2841 12.0254 13.3646L13.5283 14.7796C13.6582 14.9123 13.8249 15.003 14.0069 15.04C14.1889 15.077 14.3777 15.0585 14.5491 14.9871C14.7206 14.9157 14.8666 14.7945 14.9685 14.6393C15.0703 14.484 15.1233 14.3018 15.1206 14.1161C15.1284 13.9993 15.1085 13.8824 15.0625 13.7748C15.0166 13.6672 14.9458 13.572 14.8561 13.4969ZM14.8561 13.4969L13.396 12.0819C13.2449 11.9378 13.0509 11.8468 12.8435 11.8228C12.636 11.7988 12.4264 11.8431 12.2463 11.9489C12.202 11.9933 12.1133 12.0376 12.0697 12.0819L11.9367 12.2149C11.8197 12.3668 11.7575 12.5538 11.7601 12.7455C11.7612 12.8611 11.7851 12.9754 11.8307 13.0817C11.8762 13.188 11.9424 13.2841 12.0254 13.3646L13.5283 14.7796C13.6582 14.9123 13.8249 15.003 14.0069 15.04C14.1889 15.077 14.3777 15.0585 14.5491 14.9871C14.7206 14.9157 14.8666 14.7945 14.9685 14.6393C15.0703 14.484 15.1233 14.3018 15.1206 14.1161C15.1284 13.9993 15.1085 13.8824 15.0625 13.7748C15.0166 13.6672 14.9458 13.572 14.8561 13.4969ZM20.4287 17.4795L20.3844 17.5682C20.2544 17.7445 20.0666 17.8698 19.8539 17.9221H19.7652C19.683 17.9265 19.6009 17.9129 19.5245 17.8825C19.4481 17.852 19.3792 17.8052 19.3226 17.7455L17.5537 16.0623C17.8145 15.7668 18.0374 15.4399 18.2172 15.0892C18.5332 14.4733 18.6998 13.7916 18.7034 13.0994C18.696 12.4875 18.5673 11.8831 18.3248 11.3213C18.0823 10.7595 17.7309 10.2513 17.2907 9.82614L14.5487 7.21715C13.8082 6.51447 12.8635 6.0653 11.8511 5.93445C11.6172 5.89625 11.3801 5.88139 11.1432 5.89012C9.88077 5.88423 8.66333 6.35864 7.73772 7.21715L7.02986 7.925C6.68409 8.26619 6.38652 8.65299 6.14542 9.0747L6.10109 9.11904C5.74533 9.75346 5.56239 10.4702 5.57058 11.1975C5.56831 11.811 5.69282 12.4184 5.93631 12.9815C6.17979 13.5447 6.537 14.0514 6.98553 14.47L7.60471 15.0892L9.63885 17.0354C10.4253 17.7545 11.4116 18.2178 12.4673 18.3639C12.6882 18.3639 12.8655 18.4083 13.0864 18.4083C14.2066 18.4014 15.2937 18.0285 16.1823 17.3465L17.9956 19.0748C18.476 19.5235 19.1071 19.7761 19.7644 19.7827H20.0297C20.4111 19.7404 20.7788 19.6156 21.1072 19.4171C21.4356 19.2186 21.7169 18.951 21.9316 18.633L21.9759 18.5886C22.1968 18.279 22.4185 17.9251 22.5951 17.6155L20.9149 16.7754C20.7819 16.9467 20.6053 17.212 20.428 17.4773L20.4287 17.4795ZM16.4927 14.207C16.3418 14.524 16.1316 14.8091 15.8735 15.0471L15.1221 15.755C14.5626 16.2911 13.8185 16.5918 13.0436 16.5951C12.8362 16.604 12.6284 16.5891 12.4244 16.5507C11.8694 16.4652 11.3572 16.2014 10.9651 15.7993L8.22314 13.1903C7.94492 12.9388 7.72248 12.6318 7.57015 12.2891C7.41781 11.9464 7.33897 11.5756 7.3387 11.2005C7.33083 10.7676 7.43764 10.3404 7.64829 9.96214L7.69263 9.87348C7.84177 9.63151 8.01993 9.40869 8.22314 9.20996L8.93099 8.50211C9.48587 7.95886 10.2329 7.6569 11.0095 7.662C11.2479 7.66693 11.4851 7.69665 11.7173 7.75067C12.2362 7.86619 12.7115 8.12679 13.0879 8.50211L15.8299 11.1111C16.1081 11.3626 16.3306 11.6696 16.4829 12.0123C16.6353 12.355 16.7141 12.7258 16.7144 13.1009C16.7478 13.4826 16.6706 13.8658 16.4919 14.2047L16.4927 14.207ZM13.3968 12.0842C13.2457 11.94 13.0517 11.849 12.8442 11.825C12.6367 11.801 12.4271 11.8453 12.2471 11.9512C12.2027 11.9955 12.1141 12.0399 12.0705 12.0842L11.9375 12.2172C11.8205 12.3691 11.7582 12.556 11.7609 12.7477C11.7619 12.8633 11.7859 12.9776 11.8314 13.0839C11.877 13.1902 11.9431 13.2864 12.0262 13.3669L13.529 14.7819C13.7062 14.9521 13.943 15.046 14.1887 15.0436C14.4343 15.0411 14.6692 14.9424 14.8429 14.7687C15.0166 14.595 15.1153 14.3601 15.1178 14.1145C15.1202 13.8688 15.0263 13.632 14.8561 13.4548L13.3968 12.0842Z" fill="#F4A86F"/>
<path d="M22.814 17.1248C22.7663 17.2622 22.7073 17.3954 22.6374 17.523L20.9572 16.6829L21.0459 16.462C22.0755 14.5881 22.4047 12.409 21.9747 10.3145C21.7016 8.96489 21.1267 7.69455 20.293 6.59867L20.426 6.77526L21.9739 5.75781C23.1569 7.3869 23.8623 9.31359 24.0107 11.3214C24.1591 13.3293 23.7447 15.3395 22.814 17.1248Z" fill="#F2796E"/>
<path d="M21.9751 5.75875L20.4272 6.77244L20.2942 6.59585C19.3294 5.32949 18.0849 4.3033 16.658 3.59745C15.231 2.89159 13.6602 2.52518 12.0682 2.52683H11.7143L11.582 0.760956H12.0682C13.9227 0.74998 15.7552 1.16262 17.426 1.96741C19.0968 2.7722 20.5617 3.94789 21.7091 5.40483C21.7638 5.4551 21.8089 5.51494 21.8421 5.58141C21.8969 5.63192 21.942 5.69202 21.9751 5.75875Z" fill="#6186BD"/>
<path d="M11.7138 2.52985H11.4929C11.0503 2.57418 10.6084 2.61852 10.1658 2.70643C8.70477 2.95705 7.31701 3.52696 6.10151 4.37552C4.88601 5.22409 3.87271 6.3304 3.13389 7.61556L3.2669 7.39464L1.58594 6.59887C2.46404 5.11483 3.65472 3.83977 5.07524 2.86226C6.49577 1.88475 8.11209 1.22822 9.8119 0.938307C10.2545 0.849637 10.6963 0.805302 11.1389 0.761719H11.58L11.7138 2.52985Z" fill="#D57FB3"/>
<path d="M3.70777 17.4336L3.66343 17.3892L2.11548 18.4067C0.937099 16.7647 0.242138 14.8255 0.109329 12.8088C-0.0234799 10.7921 0.411172 8.77849 1.36404 6.99614C1.4194 6.93568 1.45091 6.85717 1.45271 6.77522C1.49934 6.72661 1.53024 6.66507 1.54138 6.59863L3.22159 7.3944L3.08859 7.61533C3.04425 7.65966 3.04425 7.74833 2.99992 7.79191C1.98753 9.63993 1.67361 11.7904 2.11548 13.8507C2.40715 15.1375 2.9481 16.3548 3.70777 17.4336Z" fill="#00A9DA"/>
<path d="M12.9933 22.5636C12.9819 22.8019 12.8789 23.0266 12.7059 23.1908C12.5328 23.355 12.3031 23.4461 12.0645 23.4451H12.0202C10.1513 23.4494 8.30626 23.0248 6.62717 22.2041C4.94808 21.3834 3.47967 20.1884 2.33495 18.711L2.29062 18.6667C2.29072 18.6609 2.28964 18.655 2.28745 18.6496C2.28526 18.6442 2.282 18.6393 2.27786 18.6351C2.27372 18.631 2.2688 18.6277 2.26337 18.6255C2.25795 18.6233 2.25213 18.6223 2.24628 18.6224C2.20195 18.578 2.15762 18.4894 2.11328 18.4458L3.66199 17.4336L3.70632 17.4779L3.75066 17.5223L3.79499 17.6109C4.75285 18.8987 6.00101 19.9422 7.43804 20.6568C8.87508 21.3714 10.4604 21.7369 12.0653 21.7235C12.1828 21.7108 12.3018 21.7231 12.4142 21.7596C12.5267 21.7961 12.6301 21.856 12.7178 21.9354C12.8054 22.0147 12.8753 22.1117 12.9228 22.22C12.9703 22.3283 12.9943 22.4454 12.9933 22.5636Z" fill="#D5E27E"/>
<path d="M34.6071 17.5573C34.2761 17.5802 33.944 17.5333 33.6324 17.4195C33.3208 17.3057 33.0366 17.1276 32.7983 16.8968C32.3561 16.3742 32.1319 15.7015 32.1724 15.0182V9.24488H31.0595C30.9568 9.24753 30.8571 9.21007 30.7815 9.14043C30.7441 9.09781 30.7155 9.04813 30.6976 8.99431C30.6797 8.9405 30.6727 8.88364 30.677 8.82709V8.06212L32.2423 7.85323L32.6593 4.96621C32.6939 4.86176 32.7292 4.75731 32.7983 4.72275C32.8739 4.65311 32.9736 4.61564 33.0764 4.6183H34.0157V7.84947H36.7637V9.21032H34.0157V14.8791C34.0047 15.0298 34.0236 15.1811 34.0713 15.3243C34.119 15.4676 34.1946 15.6 34.2937 15.714C34.3904 15.8072 34.505 15.8798 34.6305 15.9276C34.756 15.9754 34.8899 15.9973 35.0241 15.992C35.1768 15.9884 35.3283 15.9649 35.475 15.9221C35.5848 15.8892 35.6901 15.8425 35.7883 15.7831C35.8661 15.7311 35.9475 15.6847 36.0318 15.6441C36.1017 15.6095 36.1362 15.5742 36.2054 15.5742C36.2745 15.5742 36.3098 15.5742 36.3444 15.6088C36.3874 15.6484 36.4228 15.6955 36.4488 15.7478L37.0056 16.6495C36.6863 16.9293 36.3216 17.1527 35.9273 17.31C35.507 17.4757 35.0589 17.5596 34.6071 17.5573Z" fill="#1B1B1B"/>
<path d="M46.712 16.0266C46.4788 16.2945 46.2094 16.5287 45.9117 16.7225C45.6135 16.9119 45.2991 17.0748 44.9724 17.2094C44.6245 17.3138 44.2766 17.4183 43.9287 17.4874C43.584 17.5453 43.2343 17.5687 42.8849 17.5573C42.2531 17.5696 41.6255 17.4512 41.0417 17.2094C40.4905 16.992 39.9924 16.6588 39.5809 16.2325C39.1487 15.7721 38.8162 15.2275 38.604 14.6327C38.3539 13.9181 38.236 13.1638 38.2561 12.407C38.2525 11.7675 38.3585 11.1321 38.5695 10.5284C38.7725 9.96666 39.0783 9.44761 39.4712 8.9977C39.8719 8.56604 40.3581 8.22259 40.8989 7.98927C41.5028 7.72909 42.1546 7.59878 42.8121 7.60679C43.3687 7.60566 43.9215 7.69969 44.4464 7.88482C44.9241 8.07985 45.3608 8.36307 45.7336 8.71967C46.103 9.10894 46.3873 9.57085 46.5685 10.076C46.7881 10.6652 46.8944 11.2906 46.8818 11.9193C46.8982 12.1221 46.8622 12.3257 46.7774 12.5107C46.7373 12.563 46.6838 12.6036 46.6226 12.6281C46.5613 12.6525 46.4946 12.66 46.4295 12.6497H40.0994C40.1152 13.1566 40.197 13.6593 40.3428 14.145C40.4685 14.5393 40.6693 14.9054 40.9342 15.2233C41.1812 15.5002 41.4902 15.7147 41.8359 15.8493C42.2138 15.9918 42.6149 16.0627 43.0187 16.0582C43.3833 16.0703 43.7474 16.0234 44.097 15.9192C44.3592 15.8333 44.6149 15.7286 44.862 15.6058C45.0557 15.5165 45.2419 15.4117 45.4188 15.2925C45.528 15.2062 45.6621 15.1575 45.8013 15.1535C45.8688 15.1529 45.9356 15.1683 45.9961 15.1985C46.0565 15.2287 46.109 15.2727 46.1492 15.327L46.712 16.0266ZM45.1813 11.5052C45.1804 11.1617 45.1217 10.8208 45.0077 10.4968C44.9214 10.1987 44.7671 9.92479 44.5569 9.69653C44.3621 9.46303 44.1106 9.28346 43.8265 9.17504C43.5079 9.04142 43.163 8.98206 42.8181 9.00146C42.4822 8.98181 42.1458 9.03019 41.829 9.14369C41.5123 9.25719 41.2218 9.43347 40.9748 9.66197C40.4934 10.1767 40.1991 10.8384 40.1392 11.5406H45.1821L45.1813 11.5052Z" fill="#1B1B1B"/>
<path d="M55.9964 9.55869C55.9265 9.62858 55.8919 9.69771 55.8228 9.73228C55.7489 9.77597 55.6651 9.80003 55.5793 9.80216C55.4668 9.7996 55.3576 9.7632 55.266 9.69771C55.1363 9.60155 54.9964 9.51991 54.8489 9.45424C54.645 9.36135 54.436 9.28006 54.223 9.21078C53.9395 9.13541 53.6468 9.10025 53.3536 9.10633C52.9344 9.0926 52.5178 9.17592 52.1362 9.34979C51.7961 9.51068 51.4983 9.74899 51.2668 10.0456C51.0113 10.3725 50.8331 10.753 50.7453 11.1585C50.6321 11.6372 50.5738 12.1273 50.5718 12.6193C50.5698 13.1229 50.628 13.6249 50.7453 14.1146C50.8596 14.5172 51.0485 14.8947 51.3021 15.2275C51.5337 15.5241 51.8314 15.7624 52.1716 15.9234C52.5227 16.0774 52.901 16.1601 53.2844 16.1668C53.6159 16.1827 53.9474 16.1355 54.2613 16.0278C54.4877 15.9369 54.7083 15.8323 54.9218 15.7145C55.0729 15.6272 55.213 15.522 55.3389 15.4011C55.4323 15.3113 55.5571 15.2614 55.6868 15.2621C55.7543 15.2615 55.8211 15.277 55.8816 15.3071C55.942 15.3373 55.9945 15.3813 56.0347 15.4357L56.5562 16.1315C56.3391 16.3897 56.0942 16.623 55.8258 16.8273C55.5673 17.0315 55.2722 17.1845 54.9564 17.2782C54.637 17.3916 54.3107 17.4844 53.9795 17.5562C53.6348 17.6141 53.2851 17.6375 52.9358 17.6261C52.3495 17.6317 51.7687 17.5131 51.2315 17.2782C50.7118 17.0585 50.2482 16.7247 49.8752 16.3013C49.4675 15.8491 49.1602 15.3156 48.9735 14.7361C48.7426 14.0527 48.625 13.3361 48.6255 12.6148C48.6165 11.941 48.7225 11.2706 48.9389 10.6325C49.1145 10.055 49.4108 9.52149 49.8083 9.06725C50.1977 8.61432 50.6863 8.25717 51.236 8.02351C51.852 7.76343 52.5151 7.63322 53.1837 7.64103C53.8159 7.62531 54.4441 7.74389 55.027 7.98895C55.555 8.19421 56.0303 8.51517 56.4179 8.92824L55.9964 9.55869Z" fill="#1B1B1B"/>
<path d="M60.5542 8.96688C60.9586 8.57085 61.4148 8.2316 61.9105 7.95846C62.4404 7.69796 63.0245 7.56688 63.6148 7.57598C64.0928 7.57041 64.5666 7.66512 65.0057 7.85401C65.3942 8.01545 65.7396 8.26559 66.0141 8.5844C66.3032 8.91717 66.5168 9.30863 66.6401 9.73184C66.7848 10.2169 66.8552 10.7211 66.849 11.2272V17.383H64.9704V11.2625C65.0015 10.6885 64.8291 10.122 64.4835 9.66271C64.3014 9.45898 64.0751 9.29973 63.8218 9.1972C63.5686 9.09468 63.2952 9.05162 63.0227 9.07133C62.5584 9.06263 62.1008 9.18308 61.7009 9.41925C61.2738 9.65824 60.8866 9.96248 60.5535 10.321V17.419H58.7109V3.36719H60.5542V8.96688Z" fill="#1B1B1B"/>
<path d="M71.68 7.7493V18.0094C71.676 18.3868 71.6176 18.7616 71.5064 19.1223C71.4078 19.4531 71.242 19.7601 71.0195 20.024C70.78 20.2865 70.4822 20.4891 70.1501 20.6154C69.7375 20.7636 69.3011 20.8344 68.8629 20.8243C68.6651 20.8312 68.4671 20.8196 68.2715 20.7897C68.0937 20.7597 67.9191 20.7132 67.75 20.6507L67.8199 19.6423C67.8545 19.5378 67.8898 19.4687 67.9935 19.4334C68.0633 19.4334 68.2369 19.3988 68.4804 19.3988C68.6692 19.4203 68.8604 19.4003 69.0407 19.3402C69.221 19.2801 69.386 19.1814 69.5241 19.0509C69.7656 18.7329 69.8776 18.3353 69.8375 17.938V7.7493H71.68ZM72.0279 4.75784C72.0304 4.92596 71.9947 5.09245 71.9235 5.24477C71.843 5.39154 71.75 5.53107 71.6454 5.66181C71.5266 5.78169 71.3847 5.87627 71.2284 5.93984C71.0749 6.00909 70.9084 6.04489 70.74 6.04489C70.5715 6.04489 70.405 6.00909 70.2515 5.93984C70.1047 5.85937 69.9652 5.76635 69.8345 5.66181C69.7146 5.54299 69.62 5.40112 69.5564 5.24477C69.4872 5.09124 69.4514 4.92475 69.4514 4.75633C69.4514 4.58792 69.4872 4.42143 69.5564 4.2679C69.6369 4.12112 69.7299 3.98158 69.8345 3.85085C69.9533 3.73098 70.0952 3.6364 70.2515 3.57282C70.405 3.50358 70.5715 3.46777 70.74 3.46777C70.9084 3.46777 71.0749 3.50358 71.2284 3.57282C71.3752 3.6533 71.5147 3.74632 71.6454 3.85085C71.7653 3.96969 71.8599 4.11155 71.9235 4.2679C71.9952 4.42136 72.031 4.58845 72.0279 4.75784Z" fill="#1B1B1B"/>
<path d="M78.8808 7.57557C79.5355 7.56006 80.1865 7.67845 80.7939 7.92348C81.3513 8.14392 81.851 8.48884 82.2547 8.93191C82.6672 9.3872 82.9863 9.91899 83.194 10.4971C83.4102 11.1594 83.5161 11.8527 83.5073 12.5493C83.5189 13.2461 83.4129 13.9399 83.194 14.6015C83.0081 15.1897 82.6863 15.726 82.2547 16.1667C81.8351 16.5913 81.3396 16.9334 80.7939 17.1752C80.1856 17.4171 79.5353 17.5354 78.8808 17.5231C78.2148 17.5384 77.5525 17.4201 76.933 17.1752C76.3709 16.9636 75.8693 16.6173 75.4722 16.1667C75.0406 15.726 74.7188 15.1897 74.5329 14.6015C74.3167 13.9392 74.2108 13.2459 74.2196 12.5493C74.2081 11.8525 74.314 11.1588 74.5329 10.4971C74.7188 9.9089 75.0406 9.37268 75.4722 8.93191C75.8918 8.50733 76.3873 8.16527 76.933 7.92348C77.5562 7.69201 78.2159 7.57417 78.8808 7.57557ZM78.8808 16.0968C79.2739 16.1225 79.6672 16.0501 80.0253 15.8861C80.3835 15.7222 80.6954 15.4718 80.9329 15.1576C81.4207 14.3787 81.6517 13.4664 81.5934 12.5493C81.6517 11.6322 81.4207 10.7199 80.9329 9.94109C80.6952 9.62709 80.3833 9.37702 80.0251 9.21334C79.6669 9.04966 79.2737 8.97749 78.8808 9.0033C78.4872 8.97385 78.0926 9.04454 77.7338 9.20879C77.3749 9.37304 77.0635 9.62548 76.8286 9.94259C76.3282 10.7172 76.0847 11.6299 76.1327 12.5508C76.0847 13.4718 76.3282 14.3844 76.8286 15.1591C77.061 15.4788 77.372 15.7331 77.7316 15.8974C78.0911 16.0617 78.4869 16.1304 78.8808 16.0968Z" fill="#1B1B1B"/>
<path d="M92.7229 9.55869C92.653 9.62858 92.6185 9.69771 92.5493 9.73228C92.4755 9.77597 92.3917 9.80003 92.3059 9.80216C92.1933 9.7996 92.0841 9.7632 91.9925 9.69771C91.8628 9.60155 91.723 9.5199 91.5755 9.45424C91.3716 9.36134 91.1626 9.28006 90.9495 9.21078C90.6661 9.13541 90.3734 9.10025 90.0801 9.10633C89.661 9.0926 89.2444 9.17592 88.8628 9.34979C88.5227 9.5107 88.2249 9.749 87.9934 10.0456C87.7379 10.3725 87.5596 10.753 87.4719 11.1585C87.3586 11.6372 87.3004 12.1273 87.2983 12.6193C87.2963 13.1229 87.3546 13.6249 87.4719 14.1146C87.5861 14.5172 87.775 14.8947 88.0287 15.2275C88.2602 15.5241 88.558 15.7624 88.8981 15.9234C89.2493 16.0774 89.6276 16.1601 90.011 16.1668C90.3425 16.1827 90.674 16.1355 90.9879 16.0278C91.2142 15.9369 91.4348 15.8323 91.6484 15.7145C91.7995 15.6272 91.9395 15.522 92.0654 15.4011C92.1589 15.3113 92.2837 15.2614 92.4133 15.2621C92.4809 15.2615 92.5476 15.277 92.6081 15.3071C92.6686 15.3373 92.7211 15.3813 92.7612 15.4357L93.2827 16.1315C93.0657 16.3897 92.8207 16.623 92.5523 16.8273C92.2938 17.0315 91.9988 17.1845 91.6829 17.2782C91.3636 17.3916 91.0373 17.4844 90.7061 17.5562C90.3613 17.6141 90.0117 17.6375 89.6623 17.6261C89.0761 17.6317 88.4952 17.5131 87.9581 17.2782C87.4383 17.0585 86.9747 16.7247 86.6017 16.3013C86.194 15.8491 85.8867 15.3156 85.7 14.7361C85.4691 14.0527 85.3516 13.3361 85.3521 12.6148C85.3431 11.941 85.4491 11.2706 85.6654 10.6325C85.841 10.055 86.1374 9.52149 86.5349 9.06725C86.9243 8.61432 87.4128 8.25717 87.9626 8.02351C88.5786 7.76343 89.2417 7.63322 89.9103 7.64103C90.5424 7.62531 91.1707 7.74389 91.7536 7.98895C92.2815 8.19421 92.7568 8.51517 93.1445 8.92824L92.7229 9.55869Z" fill="#1B1B1B"/>
<path d="M97.2814 3.36719V11.5751H97.7322C97.8514 11.5722 97.9691 11.5485 98.0801 11.5052C98.1967 11.4563 98.2943 11.3709 98.3582 11.2618L101.245 8.06216C101.329 7.961 101.422 7.86792 101.523 7.78412C101.649 7.70889 101.794 7.67255 101.94 7.67967H103.645L100.236 11.4008C100.075 11.6212 99.8744 11.81 99.6446 11.9576C99.7645 12.0312 99.8706 12.1253 99.958 12.2356C100.059 12.3446 100.152 12.4609 100.236 12.5835L103.853 17.3138H102.184C102.053 17.3106 101.924 17.287 101.801 17.2439C101.673 17.1828 101.564 17.0864 101.488 16.9659L98.4972 13.0705C98.3927 12.9315 98.3236 12.827 98.2192 12.7924C98.0849 12.7465 97.944 12.7229 97.8021 12.7226H97.3152V17.3138H95.4727V3.36719H97.2814Z" fill="#1B1B1B"/>
<path d="M113.001 16.0266C112.768 16.2945 112.499 16.5287 112.201 16.7225C111.903 16.9119 111.588 17.0748 111.262 17.2094C110.914 17.3138 110.566 17.4183 110.218 17.4874C109.873 17.5453 109.523 17.5687 109.174 17.5573C108.542 17.5696 107.915 17.4512 107.331 17.2094C106.78 16.992 106.281 16.6588 105.87 16.2325C105.438 15.7721 105.105 15.2275 104.893 14.6327C104.643 13.9181 104.525 13.1638 104.545 12.407C104.542 11.7675 104.648 11.1321 104.859 10.5284C105.062 9.96666 105.367 9.44761 105.76 8.9977C106.161 8.56604 106.647 8.22259 107.188 7.98927C107.792 7.72909 108.444 7.59878 109.101 7.60679C109.658 7.60566 110.211 7.69969 110.735 7.88482C111.213 8.07985 111.65 8.36307 112.023 8.71967C112.392 9.10894 112.676 9.57085 112.858 10.076C113.077 10.6652 113.183 11.2906 113.171 11.9193C113.187 12.1221 113.151 12.3257 113.066 12.5107C113.026 12.563 112.973 12.6036 112.912 12.6281C112.85 12.6525 112.784 12.66 112.719 12.6497H106.388C106.404 13.1566 106.486 13.6593 106.632 14.145C106.758 14.5393 106.958 14.9055 107.223 15.2233C107.47 15.5002 107.779 15.7147 108.125 15.8493C108.503 15.9918 108.904 16.0627 109.308 16.0582C109.672 16.0703 110.036 16.0234 110.386 15.9192C110.648 15.8333 110.904 15.7286 111.151 15.6058C111.345 15.5165 111.531 15.4117 111.708 15.2925C111.817 15.2062 111.951 15.1575 112.09 15.1535C112.158 15.1529 112.225 15.1683 112.285 15.1985C112.346 15.2287 112.398 15.2727 112.438 15.327L113.001 16.0266ZM111.47 11.5052C111.469 11.1617 111.411 10.8208 111.297 10.4968C111.211 10.1987 111.056 9.92479 110.846 9.69653C110.651 9.46305 110.4 9.28349 110.116 9.17504C109.797 9.04142 109.452 8.98206 109.107 9.00146C108.771 8.98181 108.435 9.03019 108.118 9.14369C107.801 9.25719 107.511 9.43347 107.264 9.66197C106.783 10.1768 106.489 10.8384 106.429 11.5406H111.472L111.47 11.5052Z" fill="#1B1B1B"/>
<path d="M123.713 7.74941L118.357 20.2353C118.305 20.3595 118.221 20.4676 118.113 20.5486C117.988 20.6238 117.842 20.6602 117.696 20.6531H116.305L118.079 16.7922L114.113 7.74941H115.713C115.849 7.74175 115.983 7.77842 116.096 7.85386C116.175 7.91678 116.236 8.00126 116.269 8.09732L118.738 13.9059C118.773 14.0449 118.843 14.184 118.877 14.3568C118.929 14.5028 118.964 14.654 118.982 14.8076C119.016 14.6686 119.086 14.4943 119.121 14.3568C119.163 14.2011 119.222 14.05 119.294 13.9059L121.659 8.09732C121.696 7.98418 121.77 7.88646 121.868 7.81929C121.96 7.7538 122.069 7.7174 122.181 7.71484H123.712L123.713 7.74941Z" fill="#1B1B1B"/>
</g>
<defs>
<clipPath id="clip0_2629_45379">
<rect width="123.62" height="22.6873" fill="white" transform="translate(0.09375 0.760742)"/>
</clipPath>
</defs>
</svg>
