<svg width="114" height="26" viewBox="0 0 114 26" fill="none" xmlns="http://www.w3.org/2000/svg">
<path d="M13.6301 26C6.44542 26 0.620605 20.1804 0.620605 13.0006C0.620605 5.82082 6.44542 0 13.6301 0C20.8149 0 26.6397 5.82082 26.6397 13.0006C26.6385 20.1804 20.8149 26 13.6301 26Z" fill="#1E1C55"/>
<path d="M16.8636 10.8035H14.3663V19.5512H16.8636V10.8035Z" fill="white"/>
<path d="M7.46167 8.771V10.8033H10.914V11.0673V19.5523H13.41V11.0673V10.8033H14.3663V8.771H7.46167Z" fill="white"/>
<path d="M16.8636 8.771H14.3663V10.8046H16.8636V8.771Z" fill="white"/>
<path d="M16.8636 5.96021H14.3663V7.99377H16.8636V5.96021Z" fill="#FF1C3B"/>
<path d="M35.3151 19.0574H34.0225L33.7681 19.655H33.2728L34.4358 17.0728H34.9079L36.0746 19.655H35.5719L35.3151 19.0574ZM35.1574 18.681L34.6694 17.5518L34.1864 18.681H35.1574Z" fill="#212121"/>
<path d="M38.0215 17.4785H37.1654V17.0728H39.3581V17.4785H38.5021V19.655H38.0227V17.4785H38.0215Z" fill="#212121"/>
<path d="M41.3552 18.818H39.8082C39.8351 18.9634 39.906 19.0783 40.0209 19.1626C40.1359 19.2469 40.2778 19.2897 40.4477 19.2897C40.6642 19.2897 40.8427 19.2188 40.9834 19.0758L41.2304 19.3594C41.1424 19.4657 41.0299 19.5451 40.8941 19.5989C40.7584 19.6527 40.6067 19.6795 40.4367 19.6795C40.2203 19.6795 40.0295 19.6368 39.8644 19.55C39.6993 19.4645 39.5721 19.3447 39.4829 19.1907C39.3924 19.0367 39.3483 18.8632 39.3483 18.6689C39.3483 18.477 39.3924 18.3047 39.4792 18.1507C39.566 17.9967 39.6883 17.877 39.8424 17.7914C39.9977 17.7059 40.1726 17.6619 40.367 17.6619C40.559 17.6619 40.7302 17.7046 40.8819 17.789C41.0335 17.8733 41.1509 17.9931 41.2365 18.147C41.3209 18.301 41.3637 18.4782 41.3637 18.6799C41.3625 18.7129 41.36 18.7581 41.3552 18.818ZM39.9916 18.1629C39.8889 18.2497 39.8277 18.367 39.8057 18.5112H40.9247C40.9051 18.3682 40.8452 18.2534 40.7437 18.1641C40.6422 18.0762 40.5175 18.0309 40.367 18.0309C40.2178 18.0322 40.0931 18.0749 39.9916 18.1629Z" fill="#212121"/>
<path d="M42.1966 19.5512C42.0339 19.4657 41.9079 19.3459 41.8162 19.1919C41.7257 19.0379 41.6793 18.8644 41.6793 18.6701C41.6793 18.4758 41.7245 18.3022 41.8162 18.1495C41.9079 17.9967 42.0339 17.8782 42.1941 17.7914C42.3555 17.7059 42.539 17.6619 42.7457 17.6619C42.9401 17.6619 43.1101 17.701 43.2568 17.7804C43.4036 17.8586 43.5137 17.9723 43.587 18.1201L43.2324 18.3267C43.1761 18.235 43.1052 18.1678 43.0196 18.1214C42.934 18.0749 42.8423 18.0529 42.7408 18.0529C42.5683 18.0529 42.4253 18.1091 42.3127 18.2204C42.199 18.3328 42.1428 18.4819 42.1428 18.6689C42.1428 18.8558 42.199 19.0049 42.3103 19.1174C42.4228 19.2298 42.5659 19.2848 42.7408 19.2848C42.8423 19.2848 42.934 19.2616 43.0196 19.2164C43.1052 19.1711 43.1749 19.1027 43.2324 19.0111L43.587 19.2176C43.5112 19.3655 43.3999 19.4791 43.2532 19.5586C43.1064 19.638 42.9377 19.6783 42.7457 19.6783C42.5426 19.6808 42.3592 19.638 42.1966 19.5512Z" fill="#212121"/>
<path d="M45.7222 17.8807C45.8727 18.0262 45.9473 18.2412 45.9473 18.526V19.6552H45.4862V18.5859C45.4862 18.4136 45.4459 18.284 45.3639 18.1973C45.2832 18.1105 45.167 18.0665 45.0166 18.0665C44.8466 18.0665 44.7121 18.1178 44.6143 18.2193C44.5164 18.3207 44.4663 18.4686 44.4663 18.6604V19.6564H44.0052V16.9189H44.4663V17.9149C44.5421 17.8343 44.6363 17.772 44.7488 17.7292C44.8613 17.6864 44.986 17.6644 45.123 17.6644C45.3737 17.6632 45.573 17.7353 45.7222 17.8807Z" fill="#212121"/>
<path d="M48.288 17.8806C48.4384 18.0261 48.513 18.2411 48.513 18.5259V19.6551H48.052V18.5858C48.052 18.4135 48.0116 18.2839 47.9297 18.1972C47.8489 18.1104 47.7328 18.0664 47.5823 18.0664C47.4124 18.0664 47.2778 18.1177 47.18 18.2192C47.0822 18.3206 47.032 18.4685 47.032 18.6603V19.6563H46.571V17.6863H47.01V17.9405C47.0858 17.8501 47.1825 17.7804 47.2986 17.734C47.4148 17.6875 47.5444 17.6643 47.69 17.6643C47.9394 17.6631 48.1388 17.7352 48.288 17.8806Z" fill="#212121"/>
<path d="M49.5023 19.5512C49.3421 19.4657 49.2174 19.3459 49.1281 19.1919C49.0376 19.0379 48.9936 18.8644 48.9936 18.6701C48.9936 18.4758 49.0388 18.3022 49.1281 18.1495C49.2174 17.9967 49.3433 17.8782 49.5023 17.7914C49.6625 17.7059 49.8423 17.6619 50.0416 17.6619C50.2434 17.6619 50.4244 17.7046 50.5846 17.7914C50.7448 17.8782 50.8696 17.9967 50.9588 18.1495C51.0481 18.3022 51.0934 18.4758 51.0934 18.6701C51.0934 18.8644 51.0481 19.0379 50.9588 19.1919C50.8683 19.3459 50.7436 19.4657 50.5846 19.5512C50.4244 19.638 50.2434 19.6808 50.0416 19.6808C49.8423 19.6808 49.6625 19.638 49.5023 19.5512ZM50.4623 19.1162C50.5736 19.0025 50.6287 18.8546 50.6287 18.6701C50.6287 18.4856 50.5736 18.3365 50.4623 18.224C50.351 18.1104 50.2116 18.0542 50.0416 18.0542C49.8717 18.0542 49.7322 18.1104 49.6222 18.224C49.5121 18.3377 49.4583 18.4856 49.4583 18.6701C49.4583 18.8546 49.5133 19.0037 49.6222 19.1162C49.731 19.2286 49.8717 19.286 50.0416 19.286C50.2116 19.286 50.3523 19.2298 50.4623 19.1162Z" fill="#212121"/>
<path d="M51.574 16.9177H52.035V19.6552H51.574V16.9177Z" fill="#212121"/>
<path d="M53.0244 19.5512C52.8642 19.4657 52.7394 19.3459 52.6501 19.1919C52.5597 19.0379 52.5156 18.8644 52.5156 18.6701C52.5156 18.4758 52.5609 18.3022 52.6501 18.1495C52.7394 17.9967 52.8654 17.8782 53.0244 17.7914C53.1846 17.7059 53.3643 17.6619 53.5637 17.6619C53.7655 17.6619 53.9465 17.7046 54.1067 17.7914C54.2669 17.8782 54.3916 17.9967 54.4809 18.1495C54.5701 18.3022 54.6154 18.4758 54.6154 18.6701C54.6154 18.8644 54.5701 19.0379 54.4809 19.1919C54.3904 19.3459 54.2656 19.4657 54.1067 19.5512C53.9465 19.638 53.7655 19.6808 53.5637 19.6808C53.3643 19.6808 53.1846 19.638 53.0244 19.5512ZM53.9844 19.1162C54.0956 19.0025 54.1507 18.8546 54.1507 18.6701C54.1507 18.4856 54.0956 18.3365 53.9844 18.224C53.8731 18.1104 53.7337 18.0542 53.5637 18.0542C53.3937 18.0542 53.2543 18.1104 53.1442 18.224C53.0341 18.3377 52.9803 18.4856 52.9803 18.6701C52.9803 18.8546 53.0354 19.0037 53.1442 19.1162C53.2531 19.2286 53.3937 19.286 53.5637 19.286C53.7337 19.286 53.8743 19.2298 53.9844 19.1162Z" fill="#212121"/>
<path d="M57.0527 17.6851V19.3557C57.0527 20.0498 56.698 20.3957 55.99 20.3957C55.8004 20.3957 55.6206 20.3712 55.4506 20.3236C55.2807 20.2759 55.14 20.2063 55.03 20.1146L55.2366 19.7675C55.3235 19.8384 55.4323 19.8959 55.5632 19.9386C55.6952 19.9814 55.8285 20.0034 55.9643 20.0034C56.1807 20.0034 56.3397 19.9545 56.44 19.8555C56.5403 19.7565 56.5916 19.6074 56.5916 19.4058V19.3019C56.5134 19.3887 56.4168 19.4535 56.3043 19.4974C56.1917 19.5414 56.067 19.5634 55.9313 19.5634C55.7441 19.5634 55.5754 19.5231 55.4237 19.4437C55.2721 19.3642 55.1535 19.2518 55.0654 19.1064C54.9786 18.961 54.9346 18.7947 54.9346 18.6078C54.9346 18.4208 54.9786 18.2558 55.0654 18.1116C55.1523 17.9674 55.2721 17.8562 55.4237 17.778C55.5754 17.6998 55.7441 17.6594 55.9313 17.6594C56.0743 17.6594 56.204 17.6826 56.3201 17.7291C56.4376 17.7755 56.5354 17.8476 56.6137 17.9429V17.6814H57.0527V17.6851ZM56.4302 19.0184C56.5427 18.9133 56.5978 18.7776 56.5978 18.6102C56.5978 18.4452 56.5415 18.3108 56.4302 18.2081C56.3177 18.1055 56.1746 18.0529 55.9997 18.0529C55.8224 18.0529 55.6781 18.1043 55.5656 18.2081C55.4531 18.312 55.3981 18.4452 55.3981 18.6102C55.3981 18.7776 55.4543 18.9133 55.5656 19.0184C55.6769 19.1235 55.8224 19.1748 55.9997 19.1748C56.1746 19.1748 56.3189 19.1235 56.4302 19.0184Z" fill="#212121"/>
<path d="M59.5402 17.6851L58.6168 19.8139C58.53 20.0278 58.4261 20.1781 58.3026 20.2661C58.179 20.3529 58.0311 20.3969 57.8562 20.3969C57.7571 20.3969 57.6605 20.381 57.5651 20.3492C57.4685 20.3174 57.3902 20.2734 57.3291 20.216L57.5138 19.8763C57.5578 19.9178 57.6104 19.9508 57.6703 19.9753C57.7302 19.9997 57.7914 20.0119 57.8525 20.0119C57.9332 20.0119 58.0005 19.9911 58.0543 19.9496C58.1069 19.908 58.1558 19.8372 58.1998 19.7394L58.2328 19.6624L57.3731 17.6851H57.8537L58.4738 19.1418L59.0975 17.6851H59.5402Z" fill="#212121"/>
<path d="M62.6562 19.655L62.1278 18.8986C62.1058 18.901 62.0728 18.9022 62.0288 18.9022H61.4455V19.655H60.9661V17.0728H62.0288C62.2526 17.0728 62.4483 17.1094 62.6134 17.184C62.7797 17.2573 62.9069 17.3636 62.9961 17.5017C63.0842 17.6398 63.1294 17.8036 63.1294 17.993C63.1294 18.1873 63.0817 18.3547 62.9876 18.4953C62.8934 18.6358 62.7564 18.7397 62.5791 18.8093L63.1735 19.6575H62.6562V19.655ZM62.4825 17.6117C62.3737 17.5237 62.2159 17.4785 62.0068 17.4785H61.4455V18.5075H62.0068C62.2159 18.5075 62.3749 18.4623 62.4825 18.3731C62.5901 18.2838 62.6451 18.1555 62.6451 17.9918C62.6451 17.8268 62.5913 17.6997 62.4825 17.6117Z" fill="#212121"/>
<path d="M65.5032 18.818H63.9562C63.9831 18.9634 64.054 19.0783 64.1689 19.1626C64.2839 19.2469 64.4258 19.2897 64.5958 19.2897C64.8122 19.2897 64.9908 19.2188 65.1314 19.0758L65.3784 19.3594C65.2904 19.4657 65.1779 19.5451 65.0421 19.5989C64.9064 19.6527 64.7547 19.6795 64.5847 19.6795C64.3683 19.6795 64.1775 19.6368 64.0124 19.55C63.8473 19.4645 63.7201 19.3447 63.6309 19.1907C63.5404 19.0367 63.4963 18.8632 63.4963 18.6689C63.4963 18.477 63.5404 18.3047 63.6272 18.1507C63.714 17.9967 63.8363 17.877 63.9904 17.7914C64.1457 17.7059 64.3206 17.6619 64.515 17.6619C64.707 17.6619 64.8782 17.7046 65.0299 17.789C65.1815 17.8733 65.2989 17.9931 65.3845 18.147C65.4689 18.301 65.5117 18.4782 65.5117 18.6799C65.5105 18.7129 65.5081 18.7581 65.5032 18.818ZM64.1384 18.1629C64.0357 18.2497 63.9745 18.367 63.9525 18.5112H65.0715C65.0519 18.3682 64.992 18.2534 64.8905 18.1641C64.789 18.0762 64.6642 18.0309 64.5138 18.0309C64.3658 18.0322 64.2411 18.0749 64.1384 18.1629Z" fill="#212121"/>
<path d="M66.3446 19.5512C66.1819 19.4657 66.056 19.3459 65.9642 19.1919C65.8737 19.0379 65.8273 18.8644 65.8273 18.6701C65.8273 18.4758 65.8725 18.3022 65.9642 18.1495C66.056 17.9967 66.1819 17.8782 66.3421 17.7914C66.5035 17.7059 66.687 17.6619 66.8937 17.6619C67.0881 17.6619 67.2581 17.701 67.4048 17.7804C67.5516 17.8586 67.6617 17.9723 67.735 18.1201L67.3804 18.3267C67.3241 18.235 67.2532 18.1678 67.1676 18.1214C67.082 18.0749 66.9903 18.0529 66.8888 18.0529C66.7163 18.0529 66.5733 18.1091 66.4607 18.2204C66.347 18.3328 66.2908 18.4819 66.2908 18.6689C66.2908 18.8558 66.347 19.0049 66.4583 19.1174C66.5708 19.2298 66.7139 19.2848 66.8888 19.2848C66.9903 19.2848 67.082 19.2616 67.1676 19.2164C67.2532 19.1711 67.3229 19.1027 67.3804 19.0111L67.735 19.2176C67.6592 19.3655 67.5479 19.4791 67.4012 19.5586C67.2544 19.638 67.0857 19.6783 66.8937 19.6783C66.6907 19.6808 66.5072 19.638 66.3446 19.5512Z" fill="#212121"/>
<path d="M68.4896 19.5512C68.3294 19.4657 68.2046 19.3459 68.1154 19.1919C68.0249 19.0379 67.9808 18.8644 67.9808 18.6701C67.9808 18.4758 68.0261 18.3022 68.1154 18.1495C68.2046 17.9967 68.3306 17.8782 68.4896 17.7914C68.6498 17.7059 68.8295 17.6619 69.0289 17.6619C69.2307 17.6619 69.4117 17.7046 69.5719 17.7914C69.7321 17.8782 69.8568 17.9967 69.9461 18.1495C70.0354 18.3022 70.0806 18.4758 70.0806 18.6701C70.0806 18.8644 70.0354 19.0379 69.9461 19.1919C69.8556 19.3459 69.7308 19.4657 69.5719 19.5512C69.4117 19.638 69.2307 19.6808 69.0289 19.6808C68.8295 19.6808 68.6498 19.638 68.4896 19.5512ZM69.4496 19.1162C69.5609 19.0025 69.6159 18.8546 69.6159 18.6701C69.6159 18.4856 69.5609 18.3365 69.4496 18.224C69.3383 18.1104 69.1989 18.0542 69.0289 18.0542C68.8589 18.0542 68.7195 18.1104 68.6094 18.224C68.4994 18.3377 68.4455 18.4856 68.4455 18.6701C68.4455 18.8546 68.5006 19.0037 68.6094 19.1162C68.7183 19.2286 68.8589 19.286 69.0289 19.286C69.1989 19.286 69.3383 19.2298 69.4496 19.1162Z" fill="#212121"/>
<path d="M73.6393 17.8782C73.7849 18.0224 73.857 18.2375 73.857 18.5259V19.6552H73.396V18.5858C73.396 18.4135 73.3581 18.284 73.281 18.1972C73.2052 18.1104 73.0951 18.0664 72.952 18.0664C72.7967 18.0664 72.6732 18.1178 72.579 18.2192C72.4849 18.3206 72.4384 18.4673 72.4384 18.6567V19.6564H71.9774V18.587C71.9774 18.4147 71.9395 18.2852 71.8624 18.1984C71.7866 18.1117 71.6765 18.0677 71.5334 18.0677C71.3757 18.0677 71.2509 18.1178 71.1592 18.2192C71.0675 18.3206 71.021 18.4661 71.021 18.6579V19.6576H70.56V17.6876H70.999V17.9381C71.0724 17.8501 71.1653 17.7817 71.2754 17.7352C71.3867 17.6888 71.509 17.6656 71.6447 17.6656C71.7927 17.6656 71.9236 17.6937 72.0373 17.7487C72.1522 17.8037 72.2427 17.8856 72.3088 17.9943C72.3895 17.8905 72.4947 17.811 72.6231 17.7524C72.7515 17.6949 72.8921 17.6656 73.0474 17.6656C73.2969 17.6631 73.4938 17.7352 73.6393 17.8782Z" fill="#212121"/>
<path d="M77.5637 17.8782C77.7092 18.0224 77.7814 18.2375 77.7814 18.5259V19.6552H77.3204V18.5858C77.3204 18.4135 77.2824 18.284 77.2054 18.1972C77.1296 18.1104 77.0195 18.0664 76.8764 18.0664C76.7211 18.0664 76.5976 18.1178 76.5034 18.2192C76.4093 18.3206 76.3628 18.4673 76.3628 18.6567V19.6564H75.9018V18.587C75.9018 18.4147 75.8638 18.2852 75.7868 18.1984C75.711 18.1117 75.6009 18.0677 75.4578 18.0677C75.3001 18.0677 75.1753 18.1178 75.0836 18.2192C74.9919 18.3206 74.9454 18.4661 74.9454 18.6579V19.6576H74.4844V17.6876H74.9234V17.9381C74.9968 17.8501 75.0897 17.7817 75.1998 17.7352C75.3111 17.6888 75.4334 17.6656 75.5691 17.6656C75.7171 17.6656 75.8479 17.6937 75.9617 17.7487C76.0766 17.8037 76.1671 17.8856 76.2332 17.9943C76.3139 17.8905 76.4191 17.811 76.5475 17.7524C76.6759 17.6949 76.8165 17.6656 76.9718 17.6656C77.2213 17.6631 77.4182 17.7352 77.5637 17.8782Z" fill="#212121"/>
<path d="M80.2737 18.818H78.7267C78.7536 18.9634 78.8246 19.0783 78.9395 19.1626C79.0545 19.2469 79.1963 19.2897 79.3663 19.2897C79.5828 19.2897 79.7613 19.2188 79.902 19.0758L80.149 19.3594C80.0609 19.4657 79.9484 19.5451 79.8127 19.5989C79.6769 19.6527 79.5253 19.6795 79.3553 19.6795C79.1389 19.6795 78.9481 19.6368 78.783 19.55C78.6179 19.4645 78.4907 19.3447 78.4014 19.1907C78.3109 19.0367 78.2669 18.8632 78.2669 18.6689C78.2669 18.477 78.3109 18.3047 78.3978 18.1507C78.4846 17.9967 78.6069 17.877 78.761 17.7914C78.9163 17.7059 79.0912 17.6619 79.2856 17.6619C79.4776 17.6619 79.6488 17.7046 79.8005 17.789C79.9521 17.8733 80.0695 17.9931 80.1551 18.147C80.2395 18.301 80.2823 18.4782 80.2823 18.6799C80.2811 18.7129 80.2786 18.7581 80.2737 18.818ZM78.9089 18.1629C78.8062 18.2497 78.7451 18.367 78.7231 18.5112H79.842C79.8225 18.3682 79.7626 18.2534 79.6611 18.1641C79.5595 18.0762 79.4348 18.0309 79.2844 18.0309C79.1364 18.0322 79.0117 18.0749 78.9089 18.1629Z" fill="#212121"/>
<path d="M82.4774 17.8806C82.6278 18.0261 82.7025 18.2411 82.7025 18.5259V19.6551H82.2414V18.5858C82.2414 18.4135 82.201 18.2839 82.1191 18.1972C82.0384 18.1104 81.9222 18.0664 81.7718 18.0664C81.6018 18.0664 81.4673 18.1177 81.3695 18.2192C81.2716 18.3206 81.2215 18.4685 81.2215 18.6603V19.6563H80.7604V17.6863H81.1995V17.9405C81.2753 17.8501 81.3719 17.7804 81.4881 17.734C81.6043 17.6875 81.7339 17.6643 81.8794 17.6643C82.1277 17.6631 82.327 17.7352 82.4774 17.8806Z" fill="#212121"/>
<path d="M85.2755 16.9177V19.6552H84.8328V19.401C84.7557 19.4939 84.6628 19.5648 84.5503 19.6112C84.4378 19.6577 84.3143 19.6809 84.1797 19.6809C83.9902 19.6809 83.8202 19.6393 83.6686 19.555C83.5169 19.4719 83.3983 19.3521 83.3127 19.1994C83.2258 19.0454 83.183 18.8694 83.183 18.6702C83.183 18.471 83.2258 18.295 83.3127 18.1423C83.3983 17.9895 83.5169 17.8722 83.6686 17.7879C83.8202 17.7048 83.9902 17.662 84.1797 17.662C84.3106 17.662 84.4292 17.684 84.5381 17.728C84.6457 17.772 84.7386 17.8392 84.8144 17.9272V16.9165H85.2755V16.9177ZM84.5332 19.2104C84.6212 19.1603 84.6921 19.0882 84.7435 18.9941C84.7949 18.9012 84.8205 18.7924 84.8205 18.669C84.8205 18.5456 84.7949 18.438 84.7435 18.3439C84.6921 18.251 84.6212 18.1789 84.5332 18.1276C84.4451 18.0763 84.3448 18.0518 84.2335 18.0518C84.1223 18.0518 84.0232 18.0775 83.9339 18.1276C83.8447 18.1777 83.7749 18.2498 83.7236 18.3439C83.6722 18.438 83.6465 18.5456 83.6465 18.669C83.6465 18.7924 83.6722 18.9 83.7236 18.9941C83.7749 19.0882 83.8459 19.159 83.9339 19.2104C84.022 19.2605 84.1223 19.2861 84.2335 19.2861C84.3448 19.2861 84.4451 19.2605 84.5332 19.2104Z" fill="#212121"/>
<path d="M87.3374 17.8708C87.4915 18.0102 87.5685 18.2191 87.5685 18.5002V19.6551H87.1331V19.4156C87.0769 19.5011 86.9962 19.5671 86.891 19.6135C86.7858 19.6588 86.6599 19.682 86.5131 19.682C86.3651 19.682 86.2367 19.6563 86.1254 19.6062C86.0142 19.5561 85.9286 19.4852 85.8686 19.396C85.8087 19.3068 85.7781 19.2054 85.7781 19.0917C85.7781 18.9145 85.8442 18.7727 85.9763 18.6652C86.1083 18.5577 86.315 18.5051 86.5987 18.5051H87.1087V18.4758C87.1087 18.3377 87.0671 18.2326 86.9852 18.158C86.9032 18.0847 86.7797 18.0468 86.6183 18.0468C86.507 18.0468 86.3982 18.0639 86.2918 18.0982C86.1841 18.1324 86.0937 18.18 86.0203 18.2424L85.8393 17.9063C85.942 17.8281 86.0667 17.767 86.2123 17.7254C86.3578 17.6839 86.5119 17.6631 86.6733 17.6631C86.9619 17.6631 87.1833 17.7327 87.3374 17.8708ZM86.9167 19.2652C87.006 19.2127 87.0696 19.1369 87.1062 19.0379V18.8094H86.6305C86.3651 18.8094 86.2318 18.8962 86.2318 19.0709C86.2318 19.154 86.2649 19.2213 86.3321 19.2701C86.3982 19.319 86.4911 19.3435 86.6085 19.3435C86.7235 19.3447 86.8262 19.319 86.9167 19.2652Z" fill="#212121"/>
<path d="M89.3809 19.5475C89.3271 19.5915 89.261 19.6245 89.1828 19.6465C89.1057 19.6685 89.0238 19.6795 88.9369 19.6795C88.7205 19.6795 88.5529 19.6233 88.4343 19.5096C88.3157 19.3972 88.257 19.2322 88.257 19.0159V18.0676H87.9317V17.6985H88.257V17.2488H88.718V17.6985H89.2464V18.0676H88.718V19.0049C88.718 19.1015 88.7413 19.1736 88.7878 19.2249C88.8342 19.275 88.9027 19.3007 88.9908 19.3007C89.0935 19.3007 89.1803 19.2738 89.2488 19.22L89.3809 19.5475Z" fill="#212121"/>
<path d="M89.8199 17.2806C89.7637 17.228 89.7355 17.162 89.7355 17.0826C89.7355 17.0044 89.7637 16.9384 89.8199 16.8846C89.8762 16.8321 89.9471 16.8052 90.0303 16.8052C90.1134 16.8052 90.1844 16.8308 90.2406 16.8809C90.2969 16.9311 90.325 16.9946 90.325 17.0704C90.325 17.151 90.2969 17.2195 90.2418 17.2757C90.1868 17.3307 90.1159 17.3588 90.029 17.3588C89.9471 17.36 89.8762 17.3343 89.8199 17.2806ZM89.7979 17.6851H90.2589V19.6551H89.7979V17.6851Z" fill="#212121"/>
<path d="M91.2483 19.5512C91.0881 19.4657 90.9634 19.3459 90.8741 19.1919C90.7836 19.0379 90.7396 18.8644 90.7396 18.6701C90.7396 18.4758 90.7848 18.3022 90.8741 18.1495C90.9634 17.9967 91.0893 17.8782 91.2483 17.7914C91.4085 17.7059 91.5883 17.6619 91.7876 17.6619C91.9894 17.6619 92.1704 17.7046 92.3306 17.7914C92.4908 17.8782 92.6155 17.9967 92.7048 18.1495C92.7941 18.3022 92.8393 18.4758 92.8393 18.6701C92.8393 18.8644 92.7941 19.0379 92.7048 19.1919C92.6143 19.3459 92.4896 19.4657 92.3306 19.5512C92.1704 19.638 91.9894 19.6808 91.7876 19.6808C91.5883 19.6808 91.4085 19.638 91.2483 19.5512ZM92.2083 19.1162C92.3196 19.0025 92.3746 18.8546 92.3746 18.6701C92.3746 18.4856 92.3196 18.3365 92.2083 18.224C92.097 18.1104 91.9576 18.0542 91.7876 18.0542C91.6176 18.0542 91.4782 18.1104 91.3682 18.224C91.2581 18.3377 91.2043 18.4856 91.2043 18.6701C91.2043 18.8546 91.2593 19.0037 91.3682 19.1162C91.477 19.2286 91.6176 19.286 91.7876 19.286C91.9576 19.286 92.0982 19.2298 92.2083 19.1162Z" fill="#212121"/>
<path d="M95.0369 17.8806C95.1874 18.0261 95.262 18.2411 95.262 18.5259V19.6551H94.8009V18.5858C94.8009 18.4135 94.7606 18.2839 94.6786 18.1972C94.5979 18.1104 94.4817 18.0664 94.3313 18.0664C94.1613 18.0664 94.0268 18.1177 93.929 18.2192C93.8311 18.3206 93.781 18.4685 93.781 18.6603V19.6563H93.3199V17.6863H93.759V17.9405C93.8348 17.8501 93.9314 17.7804 94.0476 17.734C94.1638 17.6875 94.2934 17.6643 94.4389 17.6643C94.6872 17.6631 94.8865 17.7352 95.0369 17.8806Z" fill="#212121"/>
<path d="M98.6336 17.1827C98.7999 17.2561 98.9271 17.3624 99.0163 17.5005C99.1044 17.6386 99.1496 17.8023 99.1496 17.9918C99.1496 18.1787 99.1056 18.3413 99.0163 18.4806C98.9283 18.6199 98.7999 18.7262 98.6336 18.7996C98.4672 18.8729 98.2728 18.9108 98.049 18.9108H97.4657V19.6563H96.9863V17.0728H98.049C98.2728 17.0728 98.4685 17.1094 98.6336 17.1827ZM98.5027 18.3706C98.6103 18.2826 98.6653 18.1555 98.6653 17.9905C98.6653 17.8256 98.6115 17.6985 98.5027 17.6105C98.3939 17.5225 98.2361 17.4773 98.027 17.4773H97.4657V18.5026H98.027C98.2361 18.5038 98.3951 18.4598 98.5027 18.3706Z" fill="#212121"/>
<path d="M99.6584 16.9177H100.119V19.6552H99.6584V16.9177Z" fill="#212121"/>
<path d="M102.181 17.8708C102.335 18.0102 102.412 18.2191 102.412 18.5002V19.6551H101.977V19.4156C101.921 19.5011 101.84 19.5671 101.735 19.6135C101.63 19.6588 101.504 19.682 101.357 19.682C101.209 19.682 101.081 19.6563 100.969 19.6062C100.858 19.5561 100.772 19.4852 100.713 19.396C100.653 19.3068 100.622 19.2054 100.622 19.0917C100.622 18.9145 100.688 18.7727 100.82 18.6652C100.952 18.5577 101.159 18.5051 101.443 18.5051H101.953V18.4758C101.953 18.3377 101.911 18.2326 101.829 18.158C101.747 18.0847 101.624 18.0468 101.462 18.0468C101.351 18.0468 101.242 18.0639 101.136 18.0982C101.028 18.1324 100.938 18.18 100.864 18.2424L100.683 17.9063C100.786 17.8281 100.911 17.767 101.056 17.7254C101.202 17.6839 101.356 17.6631 101.517 17.6631C101.806 17.6631 102.028 17.7327 102.181 17.8708ZM101.761 19.2652C101.85 19.2127 101.913 19.1369 101.95 19.0379V18.8094H101.474C101.209 18.8094 101.076 18.8962 101.076 19.0709C101.076 19.154 101.109 19.2213 101.176 19.2701C101.242 19.319 101.335 19.3435 101.452 19.3435C101.569 19.3447 101.671 19.319 101.761 19.2652Z" fill="#212121"/>
<path d="M104.225 19.5475C104.171 19.5915 104.105 19.6245 104.027 19.6465C103.95 19.6685 103.868 19.6795 103.781 19.6795C103.564 19.6795 103.397 19.6233 103.278 19.5096C103.16 19.3972 103.101 19.2322 103.101 19.0159V18.0676H102.776V17.6985H103.102V17.2488H103.563V17.6985H104.092V18.0676H103.563V19.0049C103.563 19.1015 103.586 19.1736 103.633 19.2249C103.679 19.275 103.748 19.3007 103.836 19.3007C103.939 19.3007 104.025 19.2738 104.094 19.22L104.225 19.5475Z" fill="#212121"/>
<path d="M105.152 17.5811V17.6996H105.695V18.0687H105.166V19.655H104.705V18.0687H104.38V17.6996H104.705V17.5738C104.705 17.3624 104.767 17.1961 104.89 17.0739C105.014 16.9517 105.186 16.8918 105.411 16.8918C105.588 16.8918 105.727 16.9273 105.828 16.9994L105.698 17.3465C105.62 17.2927 105.535 17.2658 105.444 17.2658C105.248 17.2646 105.152 17.3697 105.152 17.5811Z" fill="#212121"/>
<path d="M106.359 19.5512C106.199 19.4657 106.074 19.3459 105.985 19.1919C105.894 19.0379 105.85 18.8644 105.85 18.6701C105.85 18.4758 105.895 18.3022 105.985 18.1495C106.074 17.9967 106.2 17.8782 106.359 17.7914C106.519 17.7059 106.699 17.6619 106.898 17.6619C107.1 17.6619 107.281 17.7046 107.441 17.7914C107.601 17.8782 107.726 17.9967 107.815 18.1495C107.905 18.3022 107.95 18.4758 107.95 18.6701C107.95 18.8644 107.905 19.0379 107.815 19.1919C107.725 19.3459 107.6 19.4657 107.441 19.5512C107.281 19.638 107.1 19.6808 106.898 19.6808C106.699 19.6808 106.519 19.638 106.359 19.5512ZM107.319 19.1162C107.43 19.0025 107.485 18.8546 107.485 18.6701C107.485 18.4856 107.43 18.3365 107.319 18.224C107.208 18.1104 107.068 18.0542 106.898 18.0542C106.728 18.0542 106.589 18.1104 106.479 18.224C106.369 18.3377 106.315 18.4856 106.315 18.6701C106.315 18.8546 106.37 19.0037 106.479 19.1162C106.588 19.2286 106.728 19.286 106.898 19.286C107.068 19.286 107.208 19.2298 107.319 19.1162Z" fill="#212121"/>
<path d="M109.57 17.6631V18.1018C109.531 18.0945 109.496 18.0908 109.463 18.0908C109.283 18.0908 109.142 18.1434 109.042 18.2472C108.942 18.3511 108.89 18.5027 108.89 18.6994V19.6551H108.429V17.6851H108.868V17.9723C109.003 17.7657 109.236 17.6631 109.57 17.6631Z" fill="#212121"/>
<path d="M113.078 17.8782C113.223 18.0224 113.295 18.2375 113.295 18.5259V19.6552H112.834V18.5858C112.834 18.4135 112.796 18.284 112.719 18.1972C112.643 18.1104 112.533 18.0664 112.39 18.0664C112.235 18.0664 112.112 18.1178 112.017 18.2192C111.923 18.3206 111.877 18.4673 111.877 18.6567V19.6564H111.416V18.587C111.416 18.4147 111.378 18.2852 111.301 18.1984C111.225 18.1117 111.115 18.0677 110.972 18.0677C110.814 18.0677 110.689 18.1178 110.598 18.2192C110.506 18.3206 110.459 18.4661 110.459 18.6579V19.6576H109.998V17.6876H110.437V17.9381C110.511 17.8501 110.604 17.7817 110.714 17.7352C110.825 17.6888 110.947 17.6656 111.083 17.6656C111.231 17.6656 111.362 17.6937 111.476 17.7487C111.591 17.8037 111.681 17.8856 111.747 17.9943C111.828 17.8905 111.933 17.811 112.061 17.7524C112.19 17.6949 112.33 17.6656 112.486 17.6656C112.736 17.6631 112.933 17.7352 113.078 17.8782Z" fill="#212121"/>
<path d="M36.2543 7.8252H33.3303V6.10327H41.2928V7.8252H38.3688V15.2347H36.2543V7.8252Z" fill="#1E1C55"/>
<path d="M49.6344 13.5385V15.2347H42.5598V6.10327H49.4656V7.79953H44.662V9.78177H48.9043V11.4255H44.662V13.5385H49.6344Z" fill="#1E1C55"/>
<path d="M53.2702 14.7837C52.5169 14.3792 51.925 13.8183 51.4945 13.1009C51.0641 12.3835 50.8488 11.5721 50.8488 10.6677C50.8488 9.76337 51.0641 8.9519 51.4945 8.23453C51.925 7.51717 52.5169 6.95623 53.2702 6.55171C54.0223 6.1472 54.8698 5.94556 55.809 5.94556C56.6003 5.94556 57.3169 6.08487 57.9565 6.36351C58.5961 6.64215 59.1329 7.04177 59.5683 7.56361L58.2109 8.81625C57.5933 8.10377 56.8277 7.74692 55.913 7.74692C55.3468 7.74692 54.8429 7.87035 54.399 8.11844C53.9551 8.36652 53.609 8.71237 53.3607 9.15599C53.1125 9.59961 52.9889 10.1043 52.9889 10.6689C52.9889 11.2348 53.1125 11.7383 53.3607 12.1819C53.609 12.6255 53.9551 12.9714 54.399 13.2194C54.8429 13.4675 55.348 13.591 55.913 13.591C56.8265 13.591 57.5921 13.2304 58.2109 12.5082L59.5683 13.7608C59.1329 14.2912 58.5936 14.6957 57.9492 14.9744C57.3047 15.253 56.5868 15.3923 55.7956 15.3923C54.8649 15.3911 54.0223 15.1882 53.2702 14.7837Z" fill="#1E1C55"/>
<path d="M69.5021 6.10327V15.2347H67.3877V11.4903H63.2371V15.2347H61.1226V6.10327H63.2371V9.70355H67.3877V6.10327H69.5021Z" fill="#1E1C55"/>
<path d="M71.8 6.10327H73.9145V15.2347H71.8V6.10327Z" fill="#FF1C3B"/>
<path d="M84.5271 15.2335L84.5137 9.75488L81.8244 14.2681H80.8718L78.196 9.8722V15.2335H76.2124V6.10327H77.9612L81.3817 11.7774L84.7497 6.10327H86.4862L86.5119 15.2347H84.5271V15.2335Z" fill="#FF1C3B"/>
<path d="M94.8718 6.50656C95.4674 6.77664 95.9272 7.15916 96.2488 7.65411C96.5705 8.15027 96.7319 8.73688 96.7319 9.41514C96.7319 10.0848 96.5705 10.6702 96.2488 11.1701C95.9272 11.6699 95.4674 12.0524 94.8718 12.3176C94.275 12.5828 93.5731 12.7148 92.7635 12.7148H90.923V15.2323H88.8085V6.10327H92.7635C93.5731 6.10327 94.2763 6.2377 94.8718 6.50656ZM94.0953 10.5835C94.4254 10.3097 94.5918 9.91986 94.5918 9.41636C94.5918 8.90308 94.4267 8.50957 94.0953 8.23582C93.7638 7.96207 93.282 7.8252 92.6461 7.8252H90.923V10.9953H92.6461C93.282 10.9941 93.7651 10.8572 94.0953 10.5835Z" fill="#FF1C3B"/>
<path d="M98.3633 6.10327H100.478V13.5128H105.06V15.2347H98.3633V6.10327Z" fill="#FF1C3B"/>
<path d="M109.825 11.9986V15.2335H107.71V11.973L104.172 6.10327H106.418L108.859 10.1606L111.299 6.10327H113.375L109.825 11.9986Z" fill="#FF1C3B"/>
</svg>
