<svg width="82" height="81" viewBox="0 0 82 81" fill="none" xmlns="http://www.w3.org/2000/svg">
<g clip-path="url(#clip0_682_20679)">
<path fill-rule="evenodd" clip-rule="evenodd" d="M37.7337 1.04182C22.1732 2.51936 8.80454 13.185 3.86345 28.0636C0.515965 38.1435 1.35105 49.3011 6.15713 58.7084C9.41013 65.076 14.8014 70.901 20.8691 74.6044C24.342 76.7241 28.9506 78.5664 33.0251 79.4635C35.9325 80.1038 37.9056 80.2994 41.4549 80.2994C46.3632 80.2994 49.5449 79.7859 54.1326 78.253C56.546 77.4466 60.4743 75.6009 62.4155 74.3611C65.7498 72.2319 69.3919 69.0387 71.8688 66.0726C76.5266 60.4955 79.6476 53.3935 80.7392 45.8875C81.1073 43.3554 81.1073 37.908 80.7392 35.376C79.6651 27.9914 76.7778 21.2848 72.2457 15.6479C69.6618 12.434 65.4691 8.73821 62.0766 6.68405C54.7805 2.26633 46.079 0.249493 37.7337 1.04182ZM45.0682 6.97289C54.3015 7.97849 62.8496 12.8188 68.3493 20.1556C72.8408 26.1476 75.1743 33.1483 75.1743 40.6317C75.1743 52.0733 69.6077 62.4882 60.0876 68.8584C52.6732 73.8197 43.5101 75.5729 34.4928 73.7555C29.7663 72.8028 24.7472 70.4885 20.8406 67.4603C12.522 61.0121 7.73555 51.2134 7.73555 40.6317C7.73555 35.2546 8.83659 30.4547 11.1534 25.7327C14.5446 18.8207 19.7138 13.6387 26.6155 10.2325C30.0335 8.54565 33.8771 7.40904 37.5817 6.98965C39.3155 6.79328 43.3372 6.78429 45.0682 6.97289ZM38.6465 7.43692C32.616 7.93445 26.4795 10.2924 21.5035 14.0241C19.9033 15.2244 16.7986 18.2622 15.4848 19.9135C9.49989 27.4359 7.03307 37.3398 8.81214 46.7023C10.1424 53.7034 13.3272 59.5769 18.5361 64.6363C21.7333 67.7418 25.174 69.9667 29.3098 71.6036C38.1129 75.0878 48.1344 74.5979 56.5396 70.2725C62.8827 67.0083 68.3181 61.4208 71.3691 55.028C76.4035 44.4789 75.5627 31.9856 69.1701 22.3508C67.7735 20.246 66.4732 18.6876 64.5211 16.7786C58.9103 11.2922 51.8785 8.09335 43.9611 7.42594C41.913 7.25334 40.8461 7.25548 38.6465 7.43692ZM42.9615 11.0914C43.554 11.4342 44.141 11.8608 44.2658 12.0395C44.5299 12.4174 44.5878 14.8804 44.3433 15.3383C44.1518 15.6973 41.8753 17.019 41.4487 17.019C41.0574 17.019 39.2359 16.0212 38.7589 15.5455C38.4505 15.238 38.4173 15.0591 38.4194 13.7124C38.4208 12.8918 38.4719 12.1412 38.5333 12.0446C38.7705 11.6713 40.9368 10.4898 41.4035 10.4792C41.7039 10.4725 42.2877 10.7019 42.9615 11.0914ZM40.5275 12.0442C39.537 12.6381 39.4804 12.7254 39.4804 13.657C39.4804 14.676 39.5988 14.8551 40.6574 15.4377L41.4549 15.8764L42.2523 15.4363C43.3576 14.8262 43.3646 14.8127 42.7716 14.4452C42.3233 14.1672 42.184 14.1449 41.8492 14.2978C41.2944 14.5515 40.6955 14.2674 40.6955 13.7504C40.6955 13.5125 40.8379 13.2763 41.0751 13.1203C41.3725 12.925 41.4549 12.742 41.4549 12.2789C41.4549 11.598 41.326 11.5654 40.5275 12.0442ZM43.3967 21.4177C43.446 23.4005 43.3231 23.7351 42.4377 24.0282C41.7025 24.2714 40.9303 24.1043 40.5502 23.6196C40.3167 23.3219 40.2397 22.9996 40.2397 22.3186C40.2397 21.5141 40.291 21.3621 40.6999 20.9519C41.1663 20.4841 41.6663 20.4233 42.4042 20.7445C42.6334 20.8441 42.67 20.7723 42.67 20.2237C42.67 19.6512 42.7042 19.5925 43.0118 19.6362C43.3403 19.6831 43.3552 19.7518 43.3967 21.4177ZM51.0239 20.7231L51.0998 21.7614L51.6233 21.2182C52.0276 20.7987 52.2679 20.6751 52.6794 20.6751H53.2121L52.6496 21.2528C52.3402 21.5706 52.0872 21.8872 52.0872 21.9565C52.0872 22.0258 52.3263 22.4775 52.6188 22.9603C52.9111 23.4431 53.1503 23.8804 53.1503 23.9323C53.1503 23.9842 52.9281 24.0266 52.6564 24.0266C52.2261 24.0266 52.116 23.9385 51.7999 23.3411C51.6004 22.9641 51.3444 22.6556 51.2307 22.6556C51.0869 22.6556 51.0239 22.8645 51.0239 23.3411C51.0239 24.0012 51.007 24.0266 50.5682 24.0266H50.1126V21.8077V19.5885L50.5303 19.6368C50.9315 19.6831 50.951 19.7255 51.0239 20.7231ZM54.3737 20.0658C54.5062 19.8766 54.5255 19.8896 54.4855 20.142C54.4589 20.3095 54.3367 20.4466 54.2136 20.4466C54.0906 20.4466 53.9683 20.3095 53.9417 20.142C53.9018 19.8896 53.9211 19.8766 54.0534 20.0658C54.1959 20.2689 54.2314 20.2689 54.3737 20.0658ZM30.8117 20.7457C31.1735 20.9332 31.4302 21.2569 31.4302 21.5255C31.4302 21.6614 30.5317 21.5808 30.443 21.4368C30.2961 21.1984 29.6665 21.2583 29.4398 21.5322C29.147 21.8861 29.1806 22.902 29.4956 23.2179C29.7192 23.4422 29.8285 23.4533 30.2624 23.296C30.8462 23.0844 31.4302 23.0555 31.4302 23.2384C31.4302 23.4659 30.7548 24.0021 30.3371 24.106C29.7207 24.2594 28.8795 23.9198 28.6177 23.4121C28.4937 23.1719 28.3924 22.6238 28.3924 22.1944C28.3924 21.5344 28.4613 21.3446 28.8364 20.9681C29.3441 20.4592 30.0959 20.3745 30.8117 20.7457ZM36.1405 20.7522C36.9586 21.1765 37.1208 22.7463 36.4368 23.6187C35.823 24.4011 34.3728 24.2635 33.9169 23.3796C33.5373 22.6431 33.6987 21.3321 34.2253 20.8779C34.7072 20.462 35.483 20.4111 36.1405 20.7522ZM46.0199 20.6797C46.389 20.8778 46.771 21.6076 46.771 22.1148C46.771 22.4967 46.7516 22.5033 45.6319 22.5033C44.4595 22.5033 44.3546 22.5694 44.6499 23.1226C44.8155 23.4328 45.47 23.5277 45.6319 23.265C45.7294 23.1066 46.6191 23.047 46.6191 23.1988C46.6191 23.5042 46.2384 23.8761 45.7654 24.0327C44.943 24.3049 44.1432 24.0254 43.8261 23.3551C43.3809 22.4141 43.618 21.0876 44.3028 20.6874C44.6499 20.4845 45.6482 20.4801 46.0199 20.6797ZM49.4086 20.8386C50.1749 21.4431 49.6559 21.895 48.8236 21.348C48.4282 21.0882 47.7767 21.1841 47.8748 21.4878C47.9064 21.5855 48.3245 21.7915 48.804 21.9457C49.7633 22.254 50.0721 22.6472 49.8986 23.3399C49.6205 24.4517 46.9229 24.3624 46.9229 23.2413C46.9229 22.8998 47.5549 22.8512 47.8206 23.1723C48.0785 23.4839 48.5431 23.5641 48.8376 23.3482C49.2025 23.0806 49.0108 22.8726 48.2137 22.6714C46.9746 22.3585 46.5864 21.6081 47.2958 20.8968C47.7846 20.4064 48.8246 20.3778 49.4086 20.8386ZM33.5567 21.0396C33.5567 21.3025 33.4495 21.4307 33.1717 21.5009C32.6928 21.6213 32.4935 22.1202 32.4935 23.1987C32.4935 23.9803 32.4722 24.0266 32.1138 24.0266C31.7401 24.0266 31.734 24.0072 31.734 22.7961C31.734 21.6393 31.7606 21.5391 32.178 21.1204C32.7616 20.5351 33.5567 20.4885 33.5567 21.0396ZM39.936 21.0993C39.936 21.4116 39.7157 21.7417 39.1006 22.3508C38.6411 22.8059 38.2652 23.2322 38.2652 23.2978C38.2652 23.3635 38.6753 23.4173 39.1766 23.4173C39.9866 23.4173 40.0879 23.4511 40.0879 23.722C40.0879 24.0064 39.9866 24.0266 38.5691 24.0266C37.1281 24.0266 37.0501 24.0101 37.0501 23.7072C37.0501 23.5285 37.4584 22.9417 37.9776 22.3742L38.9051 21.3607L38.0929 21.2845C37.4769 21.2268 37.2684 21.1439 37.2301 20.9417C37.1851 20.7038 37.3274 20.6751 38.5579 20.6751H39.936V21.0993ZM34.7556 21.5326C34.5029 21.8379 34.5126 22.8756 34.7709 23.1877C35.0382 23.5107 35.6424 23.4735 35.8297 23.1226C35.9161 22.9606 35.9869 22.6133 35.9869 22.3508C35.9869 22.0885 35.9161 21.7412 35.8297 21.5792C35.6379 21.2197 35.0359 21.1938 34.7556 21.5326ZM41.2871 21.5322C41.1743 21.6686 41.0821 22.0369 41.0821 22.3508C41.0821 23.0247 41.3591 23.4173 41.8346 23.4173C42.3102 23.4173 42.5872 23.0247 42.5872 22.3508C42.5872 21.677 42.3102 21.2845 41.8346 21.2845C41.6463 21.2845 41.4 21.396 41.2871 21.5322ZM44.675 21.4673C44.2998 21.8436 44.4752 22.0462 45.1762 22.0462C45.6358 22.0462 45.8596 21.9813 45.8596 21.8482C45.8596 21.5516 45.536 21.2845 45.1762 21.2845C45.0008 21.2845 44.7752 21.3668 44.675 21.4673ZM22.5448 31.0511C23.3812 31.2815 24.345 32.3093 24.5717 33.2126C24.7928 34.0934 24.797 35.9486 24.5794 36.7471C24.4882 37.0822 24.2451 37.58 24.0394 37.8535L23.6654 38.3506L24.1535 38.7676C24.4221 38.9969 24.715 39.2323 24.8044 39.2906C24.9085 39.3588 24.8372 39.5356 24.6052 39.7832C24.0065 40.4225 23.753 40.414 22.9769 39.7287C22.3248 39.1532 22.2097 39.1084 21.3793 39.1084C19.0874 39.1084 17.9121 37.7276 17.9121 35.0349C17.9121 33.4932 18.1487 32.6715 18.8038 31.939C19.6613 30.9802 21.0722 30.6454 22.5448 31.0511ZM27.8139 34.0185L27.8608 37.0026L28.2871 37.37C28.8649 37.8681 29.7426 37.8681 30.3205 37.37L30.7468 37.0026L30.7937 34.0185L30.8408 31.0343H31.743H32.6453L32.6417 33.7383C32.6367 37.4448 32.4606 38.0505 31.1937 38.7169C30.3407 39.1659 28.2669 39.1659 27.4138 38.7169C26.1469 38.0505 25.9709 37.4448 25.9659 33.7383L25.9623 31.0343H26.8646H27.7668L27.8139 34.0185ZM39.0584 34.7666C39.7084 36.7775 40.2788 38.5427 40.326 38.6894C40.4016 38.9235 40.2999 38.956 39.4952 38.956H38.5783L38.3682 38.2323L38.1584 37.5087L36.8534 37.4649L35.5487 37.421L35.389 37.9981C35.3012 38.3154 35.2288 38.6609 35.2284 38.7656C35.2278 38.8984 34.9266 38.956 34.2312 38.956C33.6834 38.956 33.2652 38.9045 33.302 38.8418C33.3388 38.779 33.9273 36.9934 34.6094 34.874L35.8499 31.0207L36.8633 31.0655L37.8767 31.1104L39.0584 34.7666ZM43.1257 34.3096V37.5849H44.7965H46.4673V38.2704V38.956H43.8852H41.303V34.9951V31.0343H42.2144H43.1257V34.3096ZM49.5051 34.9951V38.956H48.5937H47.6824V34.9951V31.0343H48.5937H49.5051V34.9951ZM57.5551 31.7198V32.4054H56.2641H54.973V35.6807V38.956H54.0617H53.1503V35.6807V32.4054H51.8593H50.5682V31.7198V31.0343H54.0617H57.5551V31.7198ZM60.7514 32.6763C61.1423 33.5374 61.5048 34.285 61.5573 34.3373C61.6095 34.3897 62.0061 33.6681 62.4384 32.7335L63.2245 31.0343H64.187C64.7164 31.0343 65.1496 31.0602 65.1496 31.0917C65.1496 31.1233 64.5345 32.3202 63.7826 33.7515L62.4155 36.3537V37.6549V38.956H61.5802H60.7449V37.6104C60.7449 37.5397 60.7451 37.4729 60.7453 37.4096C60.7464 37.1005 60.7472 36.8711 60.7185 36.6454C60.6355 35.9954 60.3068 35.3768 59.031 32.9758C58.9404 32.8052 58.845 32.6256 58.7445 32.4363L57.9924 31.02L59.0166 31.0652L60.0408 31.1104L60.7514 32.6763ZM20.6461 32.4402C20.0143 32.7694 19.7353 33.5415 19.7351 34.9619C19.7346 36.8597 20.2389 37.7373 21.3296 37.7373C22.4129 37.7373 22.9245 36.8577 22.9245 34.9951C22.9245 33.746 22.7101 32.9478 22.278 32.5885C21.9227 32.293 21.0766 32.2162 20.6461 32.4402ZM36.3878 34.4557C36.1673 35.2527 35.9869 35.9401 35.9869 35.9832C35.9869 36.0263 36.3628 36.0616 36.8223 36.0616C37.3911 36.0616 37.6566 36.0008 37.6545 35.8711C37.6508 35.6499 36.9298 33.148 36.8454 33.0633C36.8142 33.032 36.6083 33.6585 36.3878 34.4557ZM26.5605 43.2735C27.1409 43.6586 27.5615 44.3484 27.7293 45.1898L27.8229 45.659H26.8926C26.052 45.659 25.9623 45.6286 25.9623 45.3425C25.9623 45.1686 25.7625 44.8258 25.5183 44.5808C24.6565 43.7165 23.4736 44.1953 23.2207 45.511C22.9178 47.0852 23.125 48.7545 23.6938 49.325C24.289 49.9221 25.5391 49.5918 25.8396 48.7581C26.0195 48.2593 26.0415 48.2488 26.9161 48.2488H27.8091L27.7027 48.7439C27.4714 49.8214 26.9638 50.4291 26.0102 50.7702C25.228 51.05 23.7992 51.0433 23.1149 50.7565C21.7394 50.1801 21.4133 49.4361 21.4089 46.8635C21.4046 44.4442 21.65 43.851 22.9356 43.1702C23.6877 42.7719 23.8575 42.7407 24.8754 42.8146C25.7165 42.8755 26.1313 42.9887 26.5605 43.2735ZM41.5304 42.9353C42.3652 43.1678 43.3484 44.1819 43.5818 45.0514C43.6898 45.4535 43.7417 46.3601 43.7086 47.2598C43.6596 48.5873 43.5985 48.8782 43.2393 49.493C42.681 50.4485 41.6203 50.9923 40.3239 50.9876C37.9097 50.9787 36.7475 49.3834 36.9366 46.3372C37.0185 45.016 37.3422 44.1748 38.0082 43.5514C38.7715 42.837 40.2492 42.5785 41.5304 42.9353ZM53.0465 42.9853C53.3652 43.0992 53.7655 43.319 53.9361 43.4737C54.3563 43.8548 54.8211 44.7994 54.8211 45.2721C54.8211 45.6398 54.7793 45.659 53.9811 45.659C53.3125 45.659 53.1246 45.6046 53.0613 45.3924C52.8592 44.7144 52.5772 44.3636 52.1322 44.2355C51.4416 44.0369 50.9075 44.224 50.5573 44.7871C50.2882 45.2198 50.2572 45.4925 50.2962 47.0817C50.3393 48.8449 50.35 48.8935 50.7666 49.2525C51.3412 49.7478 52.128 49.7451 52.6256 49.2458C52.8306 49.0402 52.9985 48.7317 52.9985 48.5603C52.9985 48.2803 53.0928 48.2488 53.9297 48.2488H54.8609L54.7736 48.7882C54.533 50.2749 53.5876 50.9147 51.6315 50.9147C50.0087 50.9147 49.412 50.5986 48.8323 49.4319C48.4867 48.7366 48.442 48.4605 48.4427 47.0383C48.4436 45.1115 48.6101 44.4309 49.2503 43.734C50.0746 42.837 51.7231 42.5118 53.0465 42.9853ZM30.8227 44.5981V46.2793L32.3036 46.2358L33.7846 46.1922L33.8277 44.5545L33.8708 42.9169H34.7011H35.5313V46.8777V50.8385H34.7012H33.8711L33.8278 49.2771L33.7846 47.7155L32.3036 47.672L30.8227 47.6285V49.2335V50.8385H29.9114H29V46.8777V42.9169H29.9114H30.8227V44.5981ZM46.9229 46.8777V50.8385H46.0875H45.2521V46.8777V42.9169H46.0875H46.9229V46.8777ZM61.6562 43.6024V44.2879H59.75H57.8437L57.8893 45.1639L57.9348 46.0398L59.4918 46.0832L61.0486 46.1267V46.8068V47.487H59.4538H57.8589V48.4773V49.4675H59.7575H61.6562V50.153V50.8385H58.8462H56.0363V46.8777V42.9169H58.8462H61.6562V43.6024ZM39.679 44.2823C39.1264 44.5173 38.8368 45.1382 38.7569 46.2589C38.6007 48.4459 39.1295 49.6198 40.2703 49.6198C41.4157 49.6198 41.9105 48.8162 41.9105 46.9566C41.9105 45.6274 41.7052 44.8379 41.2642 44.4711C40.9478 44.2077 40.0934 44.106 39.679 44.2823ZM23.2282 58.2271C23.2282 58.3692 23.0849 58.4556 22.8485 58.4556C22.4796 58.4556 22.4688 58.4861 22.4688 59.522C22.4688 60.4868 22.4399 60.5883 22.165 60.5883C21.8901 60.5883 21.8612 60.4868 21.8612 59.522C21.8612 58.4861 21.8504 58.4556 21.4815 58.4556C21.2452 58.4556 21.1017 58.3692 21.1017 58.2271C21.1017 58.0457 21.3211 57.9986 22.165 57.9986C23.0089 57.9986 23.2282 58.0457 23.2282 58.2271ZM25.3547 58.3033C25.5684 58.5176 25.6585 58.811 25.6585 59.2934C25.6585 60.1034 25.2729 60.5883 24.6291 60.5883C23.8612 60.5883 23.532 60.2124 23.532 59.3349C23.532 58.8236 23.6184 58.46 23.7834 58.2772C24.1235 57.9003 24.9668 57.9142 25.3547 58.3033ZM27.7849 58.3033C27.952 58.4708 28.0887 58.7108 28.0887 58.8364C28.0887 59.2182 27.5098 59.6743 27.0254 59.6743C26.6203 59.6743 26.5698 59.725 26.5698 60.1313C26.5698 60.436 26.4939 60.5883 26.342 60.5883C26.1573 60.5883 26.1141 60.3429 26.1141 59.2934V57.9986H26.7977C27.2786 57.9986 27.5711 58.0889 27.7849 58.3033ZM31.0397 58.2379C31.321 58.5202 31.3348 58.6743 31.1159 59.0847C31.0139 59.2759 31.0063 59.4563 31.0954 59.5698C31.1737 59.6691 31.2722 59.9426 31.3143 60.1775C31.3804 60.5445 31.346 60.598 31.0689 60.5584C30.8573 60.528 30.7285 60.3815 30.6934 60.1313C30.585 59.3565 29.9114 59.2909 29.9114 60.0551C29.9114 60.4868 29.8535 60.5883 29.6076 60.5883C29.3276 60.5883 29.3038 60.4868 29.3038 59.2934V57.9986H30.0525C30.5305 57.9986 30.8873 58.0851 31.0397 58.2379ZM33.3164 59.1796C33.5321 59.8294 33.7085 60.412 33.7085 60.4746C33.7085 60.7157 33.2556 60.5732 33.101 60.2836C33.0116 60.1161 32.8065 59.979 32.6453 59.979C32.4842 59.979 32.2791 60.1161 32.1897 60.2836C32.0065 60.627 31.5822 60.6969 31.5822 60.3837C31.5822 60.2166 31.9195 59.1285 32.2625 58.189C32.3007 58.0843 32.4652 57.9986 32.628 57.9986C32.8624 57.9986 33.0059 58.2449 33.3164 59.1796ZM35.0282 58.7886L35.4552 59.5787L35.5011 58.7886C35.5399 58.123 35.5937 57.9986 35.8429 57.9986C36.113 57.9986 36.1388 58.1117 36.1388 59.2934C36.1388 60.4728 36.1125 60.5883 35.8444 60.5883C35.6461 60.5883 35.411 60.3309 35.1229 59.7983L34.6959 59.0082L34.65 59.7983C34.6112 60.4639 34.5575 60.5883 34.3082 60.5883C34.0382 60.5883 34.0123 60.4752 34.0123 59.2934C34.0123 58.1141 34.0386 57.9986 34.3067 57.9986C34.505 57.9986 34.7402 58.256 35.0282 58.7886ZM37.0501 58.4465C37.0501 59.1053 37.2838 59.1386 37.6571 58.5327C37.8483 58.2223 38.1083 57.9986 38.2777 57.9986C38.6484 57.9986 38.6435 58.0752 38.2358 58.6494L37.9027 59.1186L38.3117 59.8534L38.7207 60.5883H38.3757C38.1366 60.5883 37.9421 60.4233 37.7422 60.0512C37.4004 59.4147 37.1444 59.4356 37.0785 60.1049C37.0492 60.4015 36.9466 60.5883 36.8127 60.5883C36.64 60.5883 36.5945 60.3174 36.5945 59.2934C36.5945 58.244 36.6376 57.9986 36.8223 57.9986C36.9731 57.9986 37.0501 58.1498 37.0501 58.4465ZM40.6955 58.2271C40.6955 58.3921 40.5267 58.4556 40.0879 58.4556C39.5817 58.4556 39.4804 58.5063 39.4804 58.7603C39.4804 59.0069 39.5817 59.0649 40.012 59.0649C40.6819 59.0649 40.7127 59.334 40.0499 59.3981C39.6716 59.4347 39.5449 59.5257 39.5077 59.7885C39.4642 60.0959 39.5232 60.1313 40.0772 60.1313C40.5255 60.1313 40.6955 60.1941 40.6955 60.3598C40.6955 60.5354 40.5013 60.5883 39.8601 60.5883H39.0247V59.2934V57.9986H39.8601C40.5013 57.9986 40.6955 58.0516 40.6955 58.2271ZM42.67 58.3033C42.8797 58.5136 42.9738 58.811 42.9738 59.2643C42.9738 60.1898 42.7232 60.461 41.7842 60.5514L40.9992 60.627V59.3128V57.9986H41.6828C42.1638 57.9986 42.4563 58.0889 42.67 58.3033ZM46.0831 58.3414C46.3033 58.6552 46.3027 58.6885 46.0756 58.7364C45.9391 58.7653 45.7526 58.7138 45.6613 58.6222C45.423 58.3832 44.9483 58.4166 44.9483 58.6722C44.9483 58.7914 45.1881 58.9683 45.4811 59.0654C46.2669 59.3254 46.5168 60.0803 45.9467 60.4718C45.6063 60.7055 44.7951 60.587 44.4642 60.2552C44.0671 59.8568 44.3258 59.6856 44.8772 59.9816C45.2451 60.1792 45.7078 60.0995 45.7078 59.8385C45.7078 59.7561 45.4002 59.5521 45.0243 59.3853C44.4764 59.1421 44.3408 59.0063 44.3408 58.7002C44.3408 57.972 45.6365 57.7051 46.0831 58.3414ZM48.4418 58.3033C48.6555 58.5176 48.7456 58.811 48.7456 59.2934C48.7456 60.1034 48.3601 60.5883 47.7162 60.5883C46.9483 60.5883 46.6191 60.2124 46.6191 59.3349C46.6191 58.8236 46.7056 58.46 46.8706 58.2772C47.2106 57.9003 48.0539 57.9142 48.4418 58.3033ZM49.6569 59.0649V60.1313H50.1885C50.5597 60.1313 50.7202 60.2001 50.7202 60.3598C50.7202 60.5324 50.5345 60.5883 49.9607 60.5883H49.2012V59.2934C49.2012 58.244 49.2444 57.9986 49.4291 57.9986C49.6098 57.9986 49.6569 58.2185 49.6569 59.0649ZM51.6625 59.0269C51.7054 60.01 51.724 60.0551 52.0872 60.0551C52.4503 60.0551 52.4688 60.01 52.5118 59.0269C52.5512 58.1234 52.5928 57.9986 52.8535 57.9986C53.1183 57.9986 53.1503 58.1081 53.1503 59.0148C53.1503 60.2171 52.9119 60.5883 52.1395 60.5883C51.3206 60.5883 51.0239 60.163 51.0239 58.9888C51.0239 58.1078 51.0567 57.9986 51.3207 57.9986C51.5815 57.9986 51.6231 58.1234 51.6625 59.0269ZM55.5806 58.2271C55.5806 58.3692 55.4372 58.4556 55.2009 58.4556C54.8319 58.4556 54.8211 58.4861 54.8211 59.522C54.8211 60.3684 54.774 60.5883 54.5933 60.5883C54.4126 60.5883 54.3655 60.3684 54.3655 59.522V58.4556H53.9098C53.606 58.4556 53.4542 58.3794 53.4542 58.2271C53.4542 58.0457 53.6735 57.9986 54.5173 57.9986C55.3613 57.9986 55.5806 58.0457 55.5806 58.2271ZM56.4919 59.2934C56.4919 60.3429 56.4488 60.5883 56.2641 60.5883C56.0794 60.5883 56.0363 60.3429 56.0363 59.2934C56.0363 58.244 56.0794 57.9986 56.2641 57.9986C56.4488 57.9986 56.4919 58.244 56.4919 59.2934ZM58.7095 60.4718C58.4118 60.6712 57.6622 60.5949 57.3773 60.3362C57.0085 60.0016 56.9915 58.6755 57.3509 58.2772C57.6034 57.9972 58.3929 57.9031 58.7095 58.1151C59.3663 58.5549 59.3663 60.032 58.7095 60.4718ZM60.4102 58.4723C60.5524 58.7329 60.7863 59.0926 60.9297 59.2722C61.1843 59.5905 61.1905 59.5796 61.1954 58.7984C61.1993 58.1913 61.2553 57.9986 61.4283 57.9986C61.613 57.9986 61.6562 58.244 61.6562 59.2934C61.6562 60.4252 61.6226 60.5883 61.3903 60.5882C61.2288 60.588 60.9456 60.2741 60.6688 59.7884L60.2132 58.9888L60.1673 59.7885C60.1286 60.4639 60.0753 60.5883 59.8256 60.5883C59.5555 60.5883 59.5297 60.4752 59.5297 59.2934C59.5297 58.0902 59.5517 57.9986 59.8406 57.9986C60.0317 57.9986 60.251 58.1811 60.4102 58.4723ZM24.1758 58.6326C23.7288 59.0807 24.118 60.2165 24.6812 60.1077C24.9249 60.0606 24.9749 59.9212 24.9749 59.2913C24.9749 58.6464 24.9287 58.5251 24.6694 58.4879C24.5014 58.4636 24.2792 58.5288 24.1758 58.6326ZM26.5698 58.8364C26.5698 59.1841 26.6254 59.2311 26.9875 59.1893C27.2879 59.1547 27.4052 59.0555 27.4052 58.8364C27.4052 58.6174 27.2879 58.5182 26.9875 58.4836C26.6254 58.4418 26.5698 58.4888 26.5698 58.8364ZM29.9114 58.7406C29.9114 59.1122 30.1026 59.2511 30.4368 59.1224C30.7881 58.9873 30.659 58.5413 30.2516 58.483C29.9959 58.4464 29.9114 58.5106 29.9114 58.7406ZM41.6068 59.3041C41.6068 60.0946 41.6299 60.1491 41.9455 60.1039C42.6758 59.9989 42.6462 58.4556 41.9138 58.4556C41.6425 58.4556 41.6068 58.5542 41.6068 59.3041ZM47.2011 58.8322C46.9381 59.4108 47.1938 60.0551 47.686 60.0551C48.0362 60.0551 48.062 60.0025 48.062 59.2934C48.062 58.6206 48.0224 58.5261 47.7219 58.4833C47.4765 58.4483 47.3311 58.5457 47.2011 58.8322ZM57.6505 58.6884C57.4957 59.0928 57.5412 59.7517 57.7374 59.9485C58.2479 60.4605 58.7028 59.9392 58.5922 58.9691C58.5532 58.6264 58.4563 58.5217 58.1442 58.4854C57.8846 58.4553 57.7127 58.526 57.6505 58.6884ZM32.4935 58.9458C32.4935 59.0813 32.452 59.3008 32.4012 59.4333C32.3345 59.6076 32.4005 59.6743 32.6393 59.6743C32.9112 59.6743 32.9513 59.6137 32.8663 59.3315C32.728 58.8721 32.4935 58.6295 32.4935 58.9458ZM37.2196 64.0758C37.4844 64.2908 37.5749 64.5189 37.5749 64.971C37.5749 65.4755 37.4517 65.7224 36.8451 66.4346L36.1152 67.2913H36.8866C37.6079 67.2913 37.6577 67.316 37.6577 67.6722C37.6577 68.0516 37.6527 68.0531 36.2147 68.0531C34.8453 68.0531 34.7718 68.0366 34.7718 67.7296C34.7718 67.5455 35.1544 66.9961 35.6605 66.4534C36.6381 65.4053 36.8377 64.9672 36.4945 64.623C36.2299 64.3576 35.6831 64.5681 35.6831 64.9354C35.6831 65.0818 35.5264 65.1586 35.2275 65.1586C34.6455 65.1586 34.6075 64.7001 35.1446 64.1615C35.6195 63.6851 36.6845 63.6412 37.2196 64.0758ZM40.4608 63.8821C40.9015 64.0517 41.1512 64.7899 41.1512 65.9227C41.1512 67.5081 40.7869 68.0433 39.7082 68.0433C38.6295 68.0433 38.2652 67.5081 38.2652 65.9227C38.2652 64.8388 38.5151 64.0478 38.9076 63.8894C39.1878 63.7764 40.1741 63.7718 40.4608 63.8821ZM44.189 64.0921C44.3886 64.2925 44.4927 64.5999 44.4927 64.9897C44.4927 65.4779 44.372 65.7173 43.8092 66.3452C43.4332 66.7645 43.1257 67.1489 43.1257 67.1994C43.1257 67.25 43.4675 67.2913 43.8852 67.2913C44.594 67.2913 44.6446 67.3167 44.6446 67.6722C44.6446 68.0516 44.6395 68.0531 43.2016 68.0531C41.8472 68.0531 41.7587 68.0338 41.7587 67.7401C41.7587 67.5679 42.1688 66.9491 42.67 66.3651C43.6006 65.2808 43.7525 64.8813 43.3591 64.5539C43.1787 64.4037 43.0684 64.443 42.7721 64.7637C42.4093 65.1564 41.6068 65.3182 41.6068 64.9986C41.6068 64.7283 42.0448 63.9719 42.2492 63.8894C42.3553 63.8466 42.7668 63.8061 43.1636 63.7996C43.6937 63.7907 43.9656 63.8682 44.189 64.0921ZM47.6347 64.1187C48.2539 64.7023 48.0355 65.6931 47.0883 66.5962C46.8303 66.8422 46.6191 67.0993 46.6191 67.1674C46.6191 67.2356 46.9609 67.2913 47.3786 67.2913C48.0874 67.2913 48.1381 67.3167 48.1381 67.6722C48.1381 68.0516 48.133 68.0531 46.695 68.0531C45.2733 68.0531 45.2521 68.0477 45.2521 67.6876C45.2521 67.454 45.5845 66.9542 46.1723 66.3035C47.1923 65.1747 47.3177 64.6624 46.5943 64.5785C46.2951 64.5437 46.1637 64.6133 46.0903 64.845C46.0189 65.071 45.8621 65.1586 45.5291 65.1586C45.1027 65.1586 45.0749 65.1266 45.1662 64.7397C45.3161 64.1046 45.7898 63.7875 46.5882 63.7875C47.0925 63.7875 47.3795 63.8783 47.6347 64.1187ZM39.4152 64.6362C39.2446 64.8073 39.1766 65.1738 39.1766 65.9203C39.1766 66.6668 39.2446 67.0332 39.4152 67.2043C39.5466 67.336 39.6784 67.4437 39.7082 67.4437C39.738 67.4437 39.8698 67.336 40.0012 67.2043C40.1717 67.0332 40.2397 66.6668 40.2397 65.9203C40.2397 65.1738 40.1717 64.8073 40.0012 64.6362C39.8698 64.5045 39.738 64.3969 39.7082 64.3969C39.6784 64.3969 39.5466 64.5045 39.4152 64.6362ZM31.125 64.3976L31.466 65.4502H32.5695L31.6768 66.1008L32.0178 67.1534L31.125 66.5029L30.2322 67.1534L30.5733 66.1008L29.6804 65.4502H30.784L31.125 64.3976ZM52.1241 65.4502L51.7832 64.3976L51.4421 65.4502H50.3386L51.2314 66.1008L50.8904 67.1534L51.7832 66.5029L52.6759 67.1534L52.3349 66.1008L53.2277 65.4502H52.1241Z" fill="white" fill-opacity="0.4"/>
<rect x="39.1162" y="11" width="5" height="5" rx="2" fill="#1802A9"/>
<path d="M41.8773 12.9938C41.8697 12.8988 41.8341 12.8247 41.7704 12.7716C41.7078 12.7184 41.6123 12.6918 41.4841 12.6918C41.4024 12.6918 41.3354 12.7017 41.2832 12.7217C41.2319 12.7407 41.1939 12.7668 41.1692 12.8C41.1445 12.8333 41.1316 12.8713 41.1307 12.914C41.1288 12.9492 41.135 12.981 41.1492 13.0095C41.1644 13.037 41.1882 13.0622 41.2205 13.085C41.2528 13.1069 41.2941 13.1268 41.3444 13.1449C41.3948 13.1629 41.4546 13.1791 41.524 13.1933L41.7633 13.2446C41.9248 13.2788 42.063 13.3239 42.178 13.38C42.2929 13.436 42.3869 13.502 42.4601 13.578C42.5332 13.6531 42.5869 13.7376 42.6211 13.8316C42.6562 13.9257 42.6743 14.0283 42.6752 14.1394C42.6743 14.3313 42.6263 14.4937 42.5313 14.6267C42.4363 14.7597 42.3005 14.8608 42.1238 14.9302C41.9481 14.9995 41.7367 15.0342 41.4898 15.0342C41.2361 15.0342 41.0148 14.9967 40.8258 14.9216C40.6377 14.8466 40.4914 14.7312 40.3869 14.5754C40.2834 14.4187 40.2311 14.2182 40.2302 13.9741H40.9825C40.9873 14.0634 41.0096 14.1384 41.0495 14.1992C41.0894 14.26 41.1454 14.3061 41.2176 14.3374C41.2908 14.3688 41.3777 14.3845 41.4784 14.3845C41.5629 14.3845 41.6337 14.374 41.6907 14.3531C41.7477 14.3322 41.7909 14.3033 41.8203 14.2662C41.8498 14.2292 41.865 14.1869 41.8659 14.1394C41.865 14.0948 41.8502 14.0558 41.8217 14.0226C41.7942 13.9884 41.7486 13.958 41.685 13.9314C41.6213 13.9038 41.5354 13.8782 41.4271 13.8544L41.1364 13.7917C40.878 13.7357 40.6743 13.6421 40.5251 13.511C40.377 13.379 40.3033 13.199 40.3043 12.971C40.3033 12.7858 40.3527 12.6238 40.4525 12.4852C40.5532 12.3455 40.6923 12.2368 40.87 12.1589C41.0485 12.081 41.2532 12.042 41.4841 12.042C41.7196 12.042 41.9234 12.0815 42.0953 12.1603C42.2672 12.2391 42.3998 12.3503 42.4928 12.4937C42.5869 12.6362 42.6344 12.8029 42.6353 12.9938H41.8773Z" fill="#5849C1"/>
</g>
<defs>
<clipPath id="clip0_682_20679">
<rect width="80.19" height="79.4263" fill="white" transform="translate(0.927734 0.873047)"/>
</clipPath>
</defs>
</svg>
