<svg width="73" height="94" viewBox="0 0 73 94" fill="none" xmlns="http://www.w3.org/2000/svg">
<g clip-path="url(#clip0_682_20661)">
<path d="M5.07812 28.6395V69.9565L6.14733 70.4911L36.3141 85.8416L37.2305 86.2998L38.147 85.8416L67.2445 70.4911L68.3137 69.9565V6.64453H5.07812V28.6395ZM7.06378 68.8109V8.63019H66.328V68.8109L37.2305 84.1614L7.06378 68.8109Z" fill="white" fill-opacity="0.4"/>
<path d="M14.0882 37.7957C14.5922 37.7957 15.0352 37.8975 15.4171 38.1011C15.7989 38.3048 16.0942 38.5976 16.303 38.9794C16.5117 39.3562 16.6161 39.789 16.6161 40.2777C16.6161 40.7614 16.5092 41.1866 16.2953 41.5531C16.0764 41.9146 15.7709 42.1972 15.3789 42.4009C14.9869 42.6045 14.5337 42.7063 14.0195 42.7063H12.3927C12.3571 42.7063 12.3393 42.7267 12.3393 42.7674V45.6848C12.3393 45.7255 12.324 45.7587 12.2935 45.7841C12.268 45.8095 12.2349 45.8223 12.1942 45.8223H10.8577C10.817 45.8223 10.7838 45.8095 10.7584 45.7841C10.733 45.7587 10.7202 45.7255 10.7202 45.6848V37.9331C10.7202 37.8924 10.733 37.8593 10.7584 37.8338C10.7838 37.8084 10.817 37.7957 10.8577 37.7957H14.0882ZM13.8438 41.4157C14.2002 41.4157 14.4828 41.3139 14.6915 41.1102C14.9054 40.9065 15.0123 40.6418 15.0123 40.3159C15.0123 39.9748 14.9054 39.7024 14.6915 39.4987C14.4828 39.29 14.2002 39.1856 13.8438 39.1856H12.3927C12.3571 39.1856 12.3393 39.206 12.3393 39.2467V41.3546C12.3393 41.3953 12.3571 41.4157 12.3927 41.4157H13.8438ZM22.3974 42.271C22.4381 42.5612 22.4509 42.8845 22.4356 43.2409C22.4305 43.3377 22.3821 43.3861 22.2905 43.3861H18.7545C18.7087 43.3861 18.6909 43.4038 18.701 43.4395C18.7265 43.5923 18.7698 43.745 18.8309 43.8977C19.0294 44.3254 19.4342 44.5393 20.0452 44.5393C20.5339 44.5341 20.9183 44.3356 21.1984 43.9436C21.234 43.8977 21.2696 43.8748 21.3053 43.8748C21.3257 43.8748 21.3511 43.8901 21.3817 43.9207L22.2065 44.7302C22.2472 44.7709 22.2676 44.8066 22.2676 44.8371C22.2676 44.8524 22.2523 44.8829 22.2218 44.9288C21.9672 45.2444 21.6439 45.4863 21.2518 45.6543C20.8496 45.8274 20.4118 45.9139 19.9382 45.9139C19.2866 45.9139 18.7316 45.7663 18.2734 45.471C17.8202 45.1706 17.4944 44.7531 17.2958 44.2185C17.1329 43.8366 17.0514 43.3377 17.0514 42.7216C17.0514 42.2991 17.11 41.9274 17.2271 41.6066C17.4052 41.0669 17.7133 40.6367 18.1512 40.3159C18.589 39.9952 19.1083 39.8348 19.7091 39.8348C20.4729 39.8348 21.0863 40.0563 21.5497 40.4992C22.013 40.9422 22.2956 41.5327 22.3974 42.271ZM19.7244 41.2324C19.2408 41.2324 18.9225 41.4564 18.7698 41.9044C18.7392 42.0062 18.7138 42.1284 18.6934 42.271C18.6934 42.3067 18.7138 42.3245 18.7545 42.3245H20.7325C20.7783 42.3245 20.7936 42.3067 20.7783 42.271C20.7376 42.0521 20.7172 41.9451 20.7172 41.9503C20.651 41.7212 20.5314 41.543 20.3583 41.4157C20.1903 41.2935 19.979 41.2324 19.7244 41.2324ZM26.3687 39.8577C26.6437 39.8577 26.8626 39.9111 27.0255 40.0181C27.0816 40.0486 27.1019 40.1046 27.0866 40.1861L26.8499 41.492C26.8448 41.5837 26.7913 41.6117 26.6895 41.576C26.5724 41.5353 26.44 41.5149 26.2924 41.5149C26.2313 41.5149 26.1447 41.5226 26.0327 41.5379C25.7629 41.5633 25.5312 41.6652 25.3377 41.8433C25.1493 42.0215 25.0551 42.2609 25.0551 42.5612V45.6848C25.0551 45.7255 25.0399 45.7587 25.0093 45.7841C24.9839 45.8095 24.9533 45.8223 24.9177 45.8223H23.5735C23.5379 45.8223 23.5048 45.8095 23.4743 45.7841C23.4488 45.7587 23.4361 45.7255 23.4361 45.6848V40.0715C23.4361 40.0359 23.4488 40.0028 23.4743 39.9722C23.5048 39.9468 23.5379 39.9341 23.5735 39.9341H24.9177C24.9533 39.9341 24.9839 39.9468 25.0093 39.9722C25.0399 40.0028 25.0551 40.0359 25.0551 40.0715V40.5068C25.0551 40.5272 25.0628 40.5425 25.078 40.5527C25.0882 40.5628 25.0984 40.5578 25.1086 40.5374C25.4242 40.0843 25.8443 39.8577 26.3687 39.8577ZM31.2489 39.9264C31.2896 39.9264 31.3227 39.9392 31.3482 39.9646C31.3736 39.99 31.3863 40.0232 31.3863 40.0639V41.1484C31.3863 41.1891 31.3736 41.2222 31.3482 41.2477C31.3227 41.2731 31.2896 41.2858 31.2489 41.2858H30.1415C30.1008 41.2858 30.0804 41.3036 30.0804 41.3393V45.6848C30.0804 45.7255 30.0676 45.7587 30.0422 45.7841C30.0168 45.8095 29.9836 45.8223 29.9429 45.8223H28.6064C28.5657 45.8223 28.5326 45.8095 28.5071 45.7841C28.4817 45.7587 28.4689 45.7255 28.4689 45.6848V41.3393C28.4689 41.3036 28.4486 41.2858 28.4078 41.2858H27.7358C27.6951 41.2858 27.6619 41.2731 27.6365 41.2477C27.6111 41.2222 27.5983 41.1891 27.5983 41.1484V40.0639C27.5983 40.0232 27.6111 39.99 27.6365 39.9646C27.6619 39.9392 27.6951 39.9264 27.7358 39.9264H28.4078C28.4486 39.9264 28.4689 39.906 28.4689 39.8653V39.6133C28.4689 39.1398 28.5402 38.7707 28.6828 38.5059C28.8304 38.2463 29.0646 38.0604 29.3854 37.9484C29.7113 37.8364 30.1619 37.788 30.7372 37.8033H31.1725C31.2082 37.8033 31.2387 37.8161 31.2641 37.8415C31.2947 37.872 31.31 37.9051 31.31 37.9408V38.8649C31.31 38.9056 31.2947 38.9387 31.2641 38.9641C31.2387 38.9947 31.2082 39.01 31.1725 39.01H30.7906C30.5259 39.0151 30.34 39.0685 30.2331 39.1703C30.1313 39.2773 30.0804 39.4682 30.0804 39.7431V39.8653C30.0804 39.906 30.1008 39.9264 30.1415 39.9264H31.2489ZM34.571 45.9139C33.9295 45.9139 33.3796 45.7459 32.9214 45.4099C32.4632 45.0739 32.15 44.6156 31.982 44.0352C31.8751 43.6788 31.8217 43.2893 31.8217 42.8667C31.8217 42.4187 31.8751 42.0139 31.982 41.6524C32.1602 41.0873 32.4784 40.6443 32.9367 40.3236C33.3949 40.0028 33.9448 39.8424 34.5863 39.8424C35.2074 39.8424 35.7421 40.0003 36.1901 40.3159C36.628 40.6367 36.9385 41.0796 37.1218 41.6448C37.2491 42.0266 37.3128 42.4263 37.3128 42.8438C37.3128 43.2562 37.2593 43.6432 37.1524 44.0047C36.9844 44.6004 36.6712 45.0662 36.213 45.4023C35.7599 45.7434 35.2125 45.9139 34.571 45.9139ZM34.571 44.5316C34.8205 44.5316 35.0344 44.4553 35.2125 44.3025C35.3907 44.1498 35.518 43.9384 35.5944 43.6686C35.6504 43.4242 35.6784 43.1569 35.6784 42.8667C35.6784 42.546 35.6504 42.2761 35.5944 42.0572C35.5079 41.7975 35.378 41.5938 35.2049 41.4462C35.0267 41.3036 34.8103 41.2324 34.5557 41.2324C34.3012 41.2324 34.0874 41.3036 33.9142 41.4462C33.7411 41.5938 33.6164 41.7975 33.54 42.0572C33.4789 42.2354 33.4484 42.5053 33.4484 42.8667C33.4484 43.2129 33.4764 43.4802 33.5324 43.6686C33.6087 43.9384 33.7361 44.1498 33.9142 44.3025C34.0924 44.4553 34.3114 44.5316 34.571 44.5316ZM41.2841 39.8577C41.559 39.8577 41.778 39.9111 41.9409 40.0181C42.002 40.0486 42.0224 40.1046 42.002 40.1861L41.7652 41.492C41.7601 41.5837 41.7067 41.6117 41.6048 41.576C41.4878 41.5353 41.3553 41.5149 41.2077 41.5149C41.1466 41.5149 41.0626 41.5226 40.9557 41.5379C40.6807 41.5633 40.4466 41.6652 40.2531 41.8433C40.0647 42.0215 39.9705 42.2609 39.9705 42.5612V45.6848C39.9705 45.7255 39.9552 45.7587 39.9247 45.7841C39.8992 45.8095 39.8661 45.8223 39.8254 45.8223H38.4889C38.4533 45.8223 38.4201 45.8095 38.3896 45.7841C38.3642 45.7587 38.3514 45.7255 38.3514 45.6848V40.0715C38.3514 40.0359 38.3642 40.0028 38.3896 39.9722C38.4201 39.9468 38.4533 39.9341 38.4889 39.9341H39.8254C39.8661 39.9341 39.8992 39.9468 39.9247 39.9722C39.9552 40.0028 39.9705 40.0359 39.9705 40.0715V40.5068C39.9705 40.5272 39.9756 40.5425 39.9858 40.5527C40.0062 40.5628 40.0188 40.5578 40.0239 40.5374C40.3396 40.0843 40.7596 39.8577 41.2841 39.8577ZM49.2649 39.8424C49.8606 39.8424 50.3265 40.0206 50.6625 40.377C50.9985 40.7385 51.1665 41.2451 51.1665 41.8968V45.6848C51.1665 45.7255 51.1539 45.7587 51.1284 45.7841C51.1029 45.8095 51.0724 45.8223 51.0367 45.8223H49.6926C49.6569 45.8223 49.6238 45.8095 49.5933 45.7841C49.5679 45.7587 49.5551 45.7255 49.5551 45.6848V42.2481C49.5551 41.9375 49.4762 41.6906 49.3184 41.5073C49.1555 41.324 48.939 41.2324 48.6692 41.2324C48.4044 41.2324 48.1881 41.324 48.02 41.5073C47.852 41.6906 47.768 41.935 47.768 42.2405V45.6848C47.768 45.7255 47.7553 45.7587 47.7298 45.7841C47.6993 45.8095 47.6662 45.8223 47.6305 45.8223H46.3017C46.261 45.8223 46.2278 45.8095 46.2024 45.7841C46.177 45.7587 46.1642 45.7255 46.1642 45.6848V42.2481C46.1642 41.9426 46.0802 41.6957 45.9122 41.5073C45.7442 41.324 45.5252 41.2324 45.2554 41.2324C45.0161 41.2324 44.8124 41.3036 44.6444 41.4462C44.4815 41.5938 44.3848 41.7975 44.3542 42.0572V45.6848C44.3542 45.7255 44.3415 45.7587 44.316 45.7841C44.2855 45.8095 44.2524 45.8223 44.2167 45.8223H42.8802C42.8395 45.8223 42.8064 45.8095 42.781 45.7841C42.7555 45.7587 42.7428 45.7255 42.7428 45.6848V40.0715C42.7428 40.0359 42.7555 40.0028 42.781 39.9722C42.8064 39.9468 42.8395 39.9341 42.8802 39.9341H44.2167C44.2524 39.9341 44.2855 39.9468 44.316 39.9722C44.3415 40.0028 44.3542 40.0359 44.3542 40.0715V40.5221C44.3542 40.5425 44.3618 40.5578 44.3771 40.5679C44.3924 40.5731 44.4077 40.5628 44.4229 40.5374C44.7386 40.074 45.2248 39.8424 45.8816 39.8424C46.2635 39.8424 46.597 39.9239 46.8821 40.0868C47.1672 40.2447 47.3862 40.4738 47.5389 40.7741C47.5593 40.82 47.5872 40.82 47.6229 40.7741C47.7858 40.4585 48.0124 40.2243 48.3026 40.0715C48.5877 39.9188 48.9085 39.8424 49.2649 39.8424ZM57.4825 42.271C57.5283 42.5612 57.5436 42.8845 57.5283 43.2409C57.5181 43.3377 57.4672 43.3861 57.3755 43.3861H53.8395C53.7937 43.3861 53.7785 43.4038 53.7937 43.4395C53.8141 43.5923 53.8548 43.745 53.9159 43.8977C54.1145 44.3254 54.5193 44.5393 55.1302 44.5393C55.619 44.5341 56.006 44.3356 56.2911 43.9436C56.3216 43.8977 56.3548 43.8748 56.3904 43.8748C56.4159 43.8748 56.4438 43.8901 56.4744 43.9207L57.2992 44.7302C57.3348 44.7709 57.3526 44.8066 57.3526 44.8371C57.3526 44.8524 57.3374 44.8829 57.3068 44.9288C57.0573 45.2444 56.734 45.4863 56.3369 45.6543C55.9398 45.8274 55.5044 45.9139 55.0309 45.9139C54.3741 45.9139 53.8192 45.7663 53.366 45.471C52.9078 45.1706 52.5794 44.7531 52.3809 44.2185C52.2231 43.8366 52.1441 43.3377 52.1441 42.7216C52.1441 42.2991 52.2001 41.9274 52.3121 41.6066C52.4903 41.0669 52.7984 40.6367 53.2362 40.3159C53.674 39.9952 54.196 39.8348 54.8018 39.8348C55.5655 39.8348 56.179 40.0563 56.6424 40.4992C57.1057 40.9422 57.3858 41.5327 57.4825 42.271ZM54.8095 41.2324C54.3309 41.2324 54.0152 41.4564 53.8625 41.9044C53.8319 42.0062 53.8039 42.1284 53.7784 42.271C53.7784 42.3067 53.7988 42.3245 53.8395 42.3245H55.8176C55.8634 42.3245 55.8787 42.3067 55.8634 42.271C55.8278 42.0521 55.8099 41.9451 55.8099 41.9503C55.7387 41.7212 55.619 41.543 55.451 41.4157C55.2778 41.2935 55.0641 41.2324 54.8095 41.2324ZM61.4538 39.8577C61.7287 39.8577 61.9477 39.9111 62.1106 40.0181C62.1717 40.0486 62.1946 40.1046 62.1793 40.1861L61.9426 41.492C61.9324 41.5837 61.8763 41.6117 61.7745 41.576C61.6625 41.5353 61.5302 41.5149 61.3774 41.5149C61.3163 41.5149 61.2323 41.5226 61.1254 41.5379C60.8504 41.5633 60.6163 41.6652 60.4228 41.8433C60.2344 42.0215 60.1402 42.2609 60.1402 42.5612V45.6848C60.1402 45.7255 60.1275 45.7587 60.102 45.7841C60.0715 45.8095 60.0384 45.8223 60.0027 45.8223H58.6586C58.623 45.8223 58.5924 45.8095 58.5669 45.7841C58.5364 45.7587 58.5211 45.7255 58.5211 45.6848V40.0715C58.5211 40.0359 58.5364 40.0028 58.5669 39.9722C58.5924 39.9468 58.623 39.9341 58.6586 39.9341H60.0027C60.0384 39.9341 60.0715 39.9468 60.102 39.9722C60.1275 40.0028 60.1402 40.0359 60.1402 40.0715V40.5068C60.1402 40.5272 60.1478 40.5425 60.1631 40.5527C60.1784 40.5628 60.1911 40.5578 60.2013 40.5374C60.5119 40.0843 60.9293 39.8577 61.4538 39.8577ZM29.9429 26.485C29.9429 26.4494 29.9557 26.4163 29.9811 26.3858C30.0065 26.3603 30.0371 26.3476 30.0727 26.3476H31.4169C31.4525 26.3476 31.4856 26.3603 31.5162 26.3858C31.5416 26.4163 31.5543 26.4494 31.5543 26.485V34.2291C31.5543 34.2698 31.5416 34.303 31.5162 34.3284C31.4856 34.3538 31.4525 34.3666 31.4169 34.3666H30.0727C30.0371 34.3666 30.0065 34.3538 29.9811 34.3284C29.9557 34.303 29.9429 34.2698 29.9429 34.2291V31.0673C29.9429 31.0317 29.9225 31.0139 29.8818 31.0139H27.3463C27.3106 31.0139 27.2928 31.0317 27.2928 31.0673V34.2291C27.2928 34.2698 27.2801 34.303 27.2546 34.3284C27.2241 34.3538 27.191 34.3666 27.1554 34.3666H25.8112C25.7756 34.3666 25.745 34.3538 25.7196 34.3284C25.689 34.303 25.6737 34.2698 25.6737 34.2291V26.485C25.6737 26.4494 25.689 26.4163 25.7196 26.3858C25.745 26.3603 25.7756 26.3476 25.8112 26.3476H27.1554C27.191 26.3476 27.2241 26.3603 27.2546 26.3858C27.2801 26.4163 27.2928 26.4494 27.2928 26.485V29.5628C27.2928 29.6035 27.3106 29.6239 27.3463 29.6239H29.8818C29.9225 29.6239 29.9429 29.6035 29.9429 29.5628V26.485ZM33.6393 27.8139C33.3796 27.8139 33.1633 27.7274 32.9901 27.5542C32.817 27.3862 32.7305 27.1724 32.7305 26.9127C32.7305 26.6429 32.8145 26.4239 32.9825 26.2559C33.1505 26.0879 33.3695 26.0039 33.6393 26.0039C33.9091 26.0039 34.1281 26.0879 34.2961 26.2559C34.4641 26.4239 34.5481 26.6429 34.5481 26.9127C34.5481 27.1724 34.4616 27.3862 34.2885 27.5542C34.1153 27.7274 33.899 27.8139 33.6393 27.8139ZM32.952 34.3666C32.9163 34.3666 32.8832 34.3538 32.8527 34.3284C32.8272 34.303 32.8145 34.2698 32.8145 34.2291V28.6082C32.8145 28.5675 32.8272 28.5343 32.8527 28.5089C32.8832 28.4835 32.9163 28.4707 32.952 28.4707H34.2961C34.3318 28.4707 34.3623 28.4835 34.3877 28.5089C34.4183 28.5343 34.4336 28.5675 34.4336 28.6082V34.2291C34.4336 34.2698 34.4183 34.303 34.3877 34.3284C34.3623 34.3538 34.3318 34.3666 34.2961 34.3666H32.952ZM39.2831 28.6158C39.2831 28.5801 39.2984 28.5471 39.329 28.5165C39.3544 28.4911 39.385 28.4783 39.4206 28.4783H40.7647C40.8004 28.4783 40.8335 28.4911 40.864 28.5165C40.8895 28.5471 40.9022 28.5801 40.9022 28.6158V33.8396C40.9022 34.8376 40.6145 35.5503 40.0392 35.978C39.4639 36.4108 38.7205 36.6272 37.8092 36.6272C37.5394 36.6272 37.2415 36.6068 36.9156 36.5661C36.8393 36.5559 36.8011 36.5075 36.8011 36.421L36.8469 35.2372C36.8469 35.1354 36.9004 35.0921 37.0073 35.1074C37.2822 35.1532 37.5342 35.1761 37.7634 35.1761C38.2521 35.1761 38.6289 35.0717 38.8936 34.863C39.1533 34.644 39.2831 34.3004 39.2831 33.832C39.2831 33.8066 39.2755 33.7913 39.2602 33.7862C39.245 33.781 39.2297 33.7887 39.2144 33.8091C38.9242 34.1197 38.5016 34.2749 37.9466 34.2749C37.4477 34.2749 36.992 34.1553 36.5796 33.916C36.1621 33.6767 35.8643 33.2897 35.686 32.7551C35.574 32.4038 35.518 31.9481 35.518 31.3881C35.518 30.7924 35.5868 30.3087 35.7242 29.937C35.8821 29.4686 36.1519 29.0944 36.5338 28.8144C36.9156 28.5293 37.3611 28.3867 37.8703 28.3867C38.4558 28.3867 38.9039 28.5623 39.2144 28.9137C39.2297 28.9289 39.245 28.934 39.2602 28.9289C39.2755 28.9238 39.2831 28.9111 39.2831 28.8907V28.6158ZM39.1915 32.3122C39.2526 32.0882 39.2831 31.7751 39.2831 31.3728C39.2831 31.1386 39.2755 30.9579 39.2602 30.8306C39.245 30.6982 39.2195 30.5734 39.1839 30.4564C39.1126 30.2527 38.998 30.0873 38.8402 29.9599C38.6823 29.8378 38.4838 29.7767 38.2445 29.7767C38.0154 29.7767 37.8219 29.8378 37.6641 29.9599C37.5012 30.0873 37.3815 30.2527 37.3051 30.4564C37.1982 30.6855 37.1447 30.9961 37.1447 31.3881C37.1447 31.8158 37.1906 32.1213 37.2822 32.3046C37.3484 32.5133 37.468 32.6788 37.6412 32.801C37.8143 32.9283 38.0179 32.9919 38.2521 32.9919C38.4965 32.9919 38.7002 32.9283 38.8631 32.801C39.021 32.6788 39.1304 32.5159 39.1915 32.3122ZM45.1332 28.3867C45.7442 28.3867 46.2355 28.5751 46.6072 28.9518C46.9789 29.3235 47.1647 29.8301 47.1647 30.4716V34.2291C47.1647 34.2698 47.1519 34.303 47.1265 34.3284C47.1011 34.3538 47.0705 34.3666 47.0348 34.3666H45.6907C45.6551 34.3666 45.622 34.3538 45.5914 34.3284C45.566 34.303 45.5532 34.2698 45.5532 34.2291V30.8C45.5532 30.4997 45.4667 30.2527 45.2936 30.0592C45.1256 29.8708 44.899 29.7767 44.6139 29.7767C44.3339 29.7767 44.1073 29.8708 43.9342 30.0592C43.7611 30.2527 43.6745 30.4997 43.6745 30.8V34.2291C43.6745 34.2698 43.6618 34.303 43.6363 34.3284C43.6109 34.3538 43.5777 34.3666 43.537 34.3666H42.2005C42.1598 34.3666 42.1267 34.3538 42.1013 34.3284C42.0758 34.303 42.0631 34.2698 42.0631 34.2291V26.485C42.0631 26.4494 42.0758 26.4163 42.1013 26.3858C42.1267 26.3603 42.1598 26.3476 42.2005 26.3476H43.537C43.5777 26.3476 43.6109 26.3603 43.6363 26.3858C43.6618 26.4163 43.6745 26.4494 43.6745 26.485V29.0206C43.6745 29.041 43.6821 29.0562 43.6974 29.0664C43.7127 29.0715 43.7228 29.0664 43.728 29.0511C44.0436 28.6082 44.5121 28.3867 45.1332 28.3867Z" fill="white" fill-opacity="0.4"/>
<path fill-rule="evenodd" clip-rule="evenodd" d="M37.6123 9.69939C37.3068 9.62302 37.0013 9.62302 36.6958 9.62302H36.314C33.8701 9.69939 32.0372 11.7614 32.1135 14.2053C32.1899 16.6492 34.2519 18.4821 36.6958 18.4057C37.6886 18.4057 38.6051 18.1003 39.3688 17.5657L38.376 15.8855C37.9178 16.2673 37.3068 16.4965 36.6958 16.4965H36.3903C35.0156 16.4201 33.9464 15.1981 34.0228 13.8234C34.0992 12.4488 35.3211 11.3796 36.6958 11.4559L37.6123 9.69939ZM40.9726 15.2745L39.827 13.3652H37.6886L36.5431 15.2745H38.7578L39.827 17.1074L40.9726 15.2745ZM38.2232 11.8378C38.0705 12.0669 37.9941 12.3724 37.9941 12.6779L40.0562 12.7542V12.2196H38.6815C38.7491 12.017 38.8763 11.9339 39.0633 11.8117C39.0878 11.7957 39.1133 11.7791 39.1397 11.7614L39.3688 11.6087C39.827 11.4559 40.0562 11.1504 40.0562 10.7686C40.0562 10.5395 39.9034 10.3104 39.7507 10.1576C39.5979 10.0049 39.2924 9.9285 39.0633 9.9285C38.8342 9.9285 38.6051 9.9285 38.376 10.0812C38.2232 10.234 38.0705 10.3867 37.9941 10.5395L38.376 10.9213C38.5287 10.6158 38.7578 10.4631 39.0633 10.4631C39.2161 10.4631 39.4452 10.6158 39.4452 10.7686C39.4452 10.9213 39.3688 10.9977 39.0633 11.1504L38.9106 11.2268C38.6815 11.3796 38.376 11.6087 38.2232 11.8378ZM43.9511 18.1003L36.6958 22.2243L29.3642 18.0239V6.64453H43.9511V18.1003ZM3.62699 49.2598H69.7647L72.1322 54.6058L69.7647 59.9518H3.62699L1.18311 54.6058L3.62699 49.2598ZM21.6277 52.2381C21.5819 52.2381 21.5463 52.2585 21.5208 52.2992L20.276 54.1855C20.2709 54.1958 20.2633 54.2008 20.253 54.2008C20.2429 54.2008 20.2327 54.1958 20.2225 54.1855L18.9776 52.2992C18.9522 52.2585 18.9165 52.2381 18.8707 52.2381H18.1681C18.1427 52.2381 18.1223 52.2483 18.107 52.2686C18.0867 52.2839 18.0765 52.3043 18.0765 52.3297V57.4924C18.0765 57.5179 18.0867 57.5382 18.107 57.5535C18.1223 57.5739 18.1427 57.5841 18.1681 57.5841H18.8707C18.8962 57.5841 18.9165 57.5739 18.9318 57.5535C18.9522 57.5382 18.9624 57.5179 18.9624 57.4924V53.8571C18.9624 53.8419 18.97 53.8317 18.9853 53.8266C18.9955 53.8216 19.0031 53.8266 19.0082 53.8419L19.9705 55.3006C19.996 55.3413 20.0316 55.3617 20.0774 55.3617H20.4287C20.4745 55.3617 20.5102 55.3413 20.5356 55.3006L21.4903 53.8342C21.4954 53.819 21.5055 53.8139 21.5208 53.819C21.531 53.8241 21.5361 53.8342 21.5361 53.8495V57.4924C21.5361 57.5179 21.5437 57.5382 21.559 57.5535C21.5794 57.5739 21.6023 57.5841 21.6277 57.5841H22.3303C22.3559 57.5841 22.3762 57.5739 22.3914 57.5535C22.4118 57.5382 22.422 57.5179 22.422 57.4924V52.3297C22.422 52.3043 22.4118 52.2839 22.3914 52.2686C22.3762 52.2483 22.3559 52.2381 22.3303 52.2381H21.6277ZM23.5676 52.9941C23.6694 53.096 23.7993 53.1469 23.9571 53.1469C24.1149 53.1469 24.2447 53.096 24.3465 52.9941C24.4484 52.8923 24.4993 52.7625 24.4993 52.6046C24.4993 52.4469 24.4484 52.317 24.3465 52.2152C24.2447 52.1134 24.1149 52.0624 23.9571 52.0624C23.7993 52.0624 23.6694 52.1134 23.5676 52.2152C23.4658 52.317 23.4148 52.4469 23.4148 52.6046C23.4148 52.7625 23.4658 52.8923 23.5676 52.9941ZM23.5294 57.5535C23.5447 57.5739 23.565 57.5841 23.5905 57.5841H24.2931C24.3186 57.5841 24.3415 57.5739 24.3618 57.5535C24.3771 57.5382 24.3847 57.5179 24.3847 57.4924V53.7655C24.3847 53.7401 24.3771 53.7197 24.3618 53.7044C24.3415 53.6841 24.3186 53.6739 24.2931 53.6739H23.5905C23.565 53.6739 23.5447 53.6841 23.5294 53.7044C23.5091 53.7197 23.4988 53.7401 23.4988 53.7655V57.4924C23.4988 57.5179 23.5091 57.5382 23.5294 57.5535ZM27.852 52.2686C27.8317 52.2839 27.8215 52.3043 27.8215 52.3297V53.987C27.8215 54.0023 27.8163 54.0125 27.8062 54.0175C27.796 54.0175 27.7859 54.0125 27.7756 54.0023C27.5516 53.7477 27.2639 53.6204 26.9126 53.6204C26.5359 53.6204 26.2228 53.7146 25.9733 53.903C25.7238 54.0914 25.5431 54.3536 25.431 54.6896C25.3445 54.9493 25.3012 55.2599 25.3012 55.6213C25.3012 55.9726 25.347 56.2909 25.4387 56.576C25.5507 56.912 25.7315 57.1743 25.9809 57.3626C26.2304 57.551 26.5359 57.6452 26.8974 57.6452C27.2589 57.6452 27.5516 57.5128 27.7756 57.248C27.7859 57.2328 27.796 57.2277 27.8062 57.2328C27.8163 57.2379 27.8215 57.248 27.8215 57.2633V57.4924C27.8215 57.5179 27.8317 57.5382 27.852 57.5535C27.8673 57.5739 27.8877 57.5841 27.9131 57.5841H28.6157C28.6412 57.5841 28.6641 57.5739 28.6845 57.5535C28.6997 57.5382 28.7074 57.5179 28.7074 57.4924V52.3297C28.7074 52.3043 28.6997 52.2839 28.6845 52.2686C28.6641 52.2483 28.6412 52.2381 28.6157 52.2381H27.9131C27.8877 52.2381 27.8673 52.2483 27.852 52.2686ZM27.8138 55.629C27.8138 56.0108 27.7553 56.3061 27.6382 56.5149C27.4957 56.7593 27.2945 56.8814 27.0348 56.8814C26.7446 56.8814 26.5283 56.7593 26.3857 56.5149C26.2635 56.2858 26.2024 55.993 26.2024 55.6366C26.2024 55.2395 26.2787 54.9289 26.4315 54.7049C26.5792 54.491 26.7828 54.3841 27.0425 54.3841C27.292 54.3841 27.4854 54.4961 27.6229 54.7201C27.7502 54.9289 27.8138 55.2318 27.8138 55.629ZM29.4711 55.6442C29.4863 55.6595 29.5067 55.6671 29.5322 55.6671H31.9379C31.9634 55.6671 31.9837 55.6595 31.999 55.6442C32.0194 55.6239 32.0295 55.601 32.0295 55.5755V54.9951C32.0295 54.9697 32.0194 54.9467 31.999 54.9263C31.9837 54.9111 31.9634 54.9034 31.9379 54.9034H29.5322C29.5067 54.9034 29.4863 54.9111 29.4711 54.9263C29.4507 54.9467 29.4405 54.9697 29.4405 54.9951V55.5755C29.4405 55.601 29.4507 55.6239 29.4711 55.6442ZM36.3903 52.2381C36.3445 52.2381 36.3089 52.2585 36.2834 52.2992L35.0386 54.1855C35.0335 54.1958 35.0259 54.2008 35.0156 54.2008C35.0055 54.2008 34.9953 54.1958 34.9851 54.1855L33.7402 52.2992C33.7148 52.2585 33.6791 52.2381 33.6333 52.2381H32.9307C32.9053 52.2381 32.8849 52.2483 32.8696 52.2686C32.8492 52.2839 32.8391 52.3043 32.8391 52.3297V57.4924C32.8391 57.5179 32.8492 57.5382 32.8696 57.5535C32.8849 57.5739 32.9053 57.5841 32.9307 57.5841H33.6333C33.6588 57.5841 33.6817 57.5739 33.7021 57.5535C33.7173 57.5382 33.725 57.5179 33.725 57.4924V53.8571C33.725 53.8419 33.7326 53.8317 33.7479 53.8266C33.7581 53.8216 33.7657 53.8266 33.7708 53.8419L34.7331 55.3006C34.7586 55.3413 34.7942 55.3617 34.84 55.3617H35.1913C35.2371 55.3617 35.2728 55.3413 35.2982 55.3006L36.2529 53.8342C36.258 53.819 36.2681 53.8139 36.2834 53.819C36.2936 53.8241 36.2987 53.8342 36.2987 53.8495V57.4924C36.2987 57.5179 36.3088 57.5382 36.3292 57.5535C36.3445 57.5739 36.3649 57.5841 36.3903 57.5841H37.0929C37.1185 57.5841 37.1413 57.5739 37.1617 57.5535C37.177 57.5382 37.1846 57.5179 37.1846 57.4924V52.3297C37.1846 52.3043 37.177 52.2839 37.1617 52.2686C37.1413 52.2483 37.1185 52.2381 37.0929 52.2381H36.3903ZM40.5526 53.7884C40.3082 53.6764 40.0256 53.6204 39.7049 53.6204C39.2619 53.6204 38.8953 53.7197 38.6051 53.9182C38.3099 54.1168 38.1418 54.3714 38.1011 54.682C38.096 54.7023 38.1036 54.7201 38.124 54.7354C38.1392 54.7456 38.1596 54.7533 38.1851 54.7583L38.9259 54.85C38.9819 54.8602 39.0175 54.8347 39.0328 54.7736C39.0633 54.6514 39.1397 54.5572 39.2619 54.491C39.379 54.4198 39.5343 54.3841 39.7278 54.3841C39.962 54.3841 40.1376 54.4376 40.2547 54.5445C40.3719 54.6565 40.4304 54.8118 40.4304 55.0104V55.1936C40.4304 55.2192 40.4177 55.2318 40.3922 55.2318H39.575C39.071 55.2318 38.6815 55.3413 38.4065 55.5602C38.1266 55.7843 37.9865 56.0948 37.9865 56.492C37.9865 56.8738 38.1113 57.1615 38.3607 57.355C38.6051 57.5485 38.9182 57.6452 39.3001 57.6452C39.7736 57.6452 40.1351 57.5077 40.3846 57.2328C40.3948 57.2226 40.4049 57.2175 40.4151 57.2175C40.4253 57.2226 40.4304 57.2328 40.4304 57.248V57.4924C40.4304 57.5179 40.4406 57.5382 40.4609 57.5535C40.4762 57.5739 40.4966 57.5841 40.522 57.5841H41.2246C41.2502 57.5841 41.273 57.5739 41.2934 57.5535C41.3087 57.5382 41.3163 57.5179 41.3163 57.4924V54.9187C41.3163 54.6693 41.2501 54.4452 41.1177 54.2466C40.9854 54.0532 40.797 53.9004 40.5526 53.7884ZM40.1631 56.744C39.9849 56.8764 39.7711 56.9425 39.5216 56.9425C39.3332 56.9425 39.1805 56.8967 39.0633 56.8051C38.9411 56.7185 38.88 56.5938 38.88 56.4309C38.88 56.2425 38.959 56.0974 39.1168 55.9955C39.2695 55.8937 39.4809 55.8428 39.7507 55.8428H40.3922C40.4177 55.8428 40.4304 55.8556 40.4304 55.881V56.2399C40.4304 56.4436 40.3413 56.6116 40.1631 56.744ZM44.4475 53.735C44.3253 53.6688 44.1828 53.6357 44.0198 53.6357C43.638 53.6357 43.3401 53.8012 43.1263 54.1321C43.1161 54.1474 43.1085 54.1525 43.1034 54.1474C43.0932 54.1474 43.0881 54.1372 43.0881 54.1168V53.7731C43.0881 53.7477 43.0805 53.7248 43.0652 53.7044C43.0449 53.6891 43.022 53.6815 42.9965 53.6815H42.2938C42.2684 53.6815 42.248 53.6891 42.2327 53.7044C42.2124 53.7248 42.2022 53.7477 42.2022 53.7731V57.4924C42.2022 57.5179 42.2124 57.5382 42.2327 57.5535C42.248 57.5739 42.2684 57.5841 42.2938 57.5841H42.9965C43.022 57.5841 43.0449 57.5739 43.0652 57.5535C43.0805 57.5382 43.0881 57.5179 43.0881 57.4924V55.3311C43.0881 55.1071 43.1594 54.9238 43.3019 54.7812C43.4445 54.6438 43.6227 54.57 43.8365 54.5598C43.8722 54.5547 43.9232 54.5521 43.9893 54.5521C44.0912 54.5521 44.1802 54.5649 44.2566 54.5903C44.3228 54.6158 44.3584 54.5979 44.3635 54.5368L44.4933 53.8495C44.5036 53.7935 44.4883 53.7553 44.4475 53.735ZM45.1043 57.5535C45.1196 57.5739 45.14 57.5841 45.1654 57.5841H45.868C45.8935 57.5841 45.9139 57.5739 45.9291 57.5535C45.9495 57.5382 45.9597 57.5179 45.9597 57.4924V56.3239C45.9597 56.3087 45.9648 56.2909 45.9749 56.2705L46.5859 55.5679C46.591 55.5577 46.5987 55.5526 46.6088 55.5526C46.6241 55.5577 46.6343 55.5653 46.6394 55.5755L47.4718 57.5153C47.4922 57.5612 47.5279 57.5841 47.5788 57.5841H48.3196C48.3756 57.5841 48.4036 57.5638 48.4036 57.523C48.4036 57.5128 48.3985 57.4975 48.3883 57.4771L47.2427 55.0104C47.2326 54.99 47.2351 54.9722 47.2504 54.9569L48.2203 53.796C48.2355 53.7706 48.2432 53.7502 48.2432 53.735C48.2432 53.6994 48.2177 53.6815 48.1668 53.6815H47.3573C47.3166 53.6815 47.2784 53.6994 47.2427 53.735L46.0055 55.102C45.9953 55.1173 45.9852 55.1224 45.9749 55.1173C45.9648 55.1122 45.9597 55.102 45.9597 55.0867V52.3297C45.9597 52.3043 45.9495 52.2839 45.9291 52.2686C45.9139 52.2483 45.8935 52.2381 45.868 52.2381H45.1654C45.14 52.2381 45.1196 52.2483 45.1043 52.2686C45.084 52.2839 45.0738 52.3043 45.0738 52.3297V57.4924C45.0738 57.5179 45.084 57.5382 45.1043 57.5535ZM52.1076 55.6213C52.1076 55.4635 52.0974 55.321 52.077 55.1936C51.9498 54.1448 51.3846 53.6204 50.3816 53.6204C49.9845 53.6204 49.6459 53.7223 49.3658 53.9259C49.0807 54.1347 48.8873 54.4173 48.7854 54.7736C48.7243 54.9569 48.6938 55.1962 48.6938 55.4915C48.6938 55.9803 48.7523 56.3621 48.8694 56.6371C48.9967 56.9578 49.1978 57.2073 49.4728 57.3855C49.7528 57.5638 50.0914 57.6528 50.4885 57.6528C50.8093 57.6528 51.0995 57.5917 51.3591 57.4695C51.6239 57.3473 51.8352 57.1743 51.993 56.9502C52.0236 56.9044 52.0159 56.8637 51.9701 56.828L51.4966 56.4385C51.4813 56.4232 51.4635 56.4156 51.4431 56.4156C51.4126 56.4156 51.3872 56.4309 51.3668 56.4614C51.1632 56.7466 50.8882 56.8891 50.542 56.8891C50.0685 56.884 49.7706 56.6982 49.6484 56.3316C49.6179 56.2705 49.595 56.1559 49.5797 55.9879C49.5797 55.9625 49.5924 55.9497 49.6179 55.9497H52.0083C52.0694 55.9497 52.0999 55.9192 52.0999 55.8581L52.1076 55.6213ZM49.9081 54.5292C50.0354 54.4325 50.1932 54.3841 50.3816 54.3841C50.5853 54.3841 50.7558 54.435 50.8933 54.5368C51.0257 54.6387 51.1147 54.7812 51.1606 54.9645C51.181 55.0307 51.1962 55.1275 51.2064 55.2547C51.2064 55.2803 51.1937 55.2929 51.1682 55.2929H49.6179C49.5873 55.2929 49.5772 55.2803 49.5873 55.2547C49.5976 55.1173 49.6179 55.0053 49.6484 54.9187C49.6994 54.7507 49.7859 54.6209 49.9081 54.5292ZM54.8875 54.3688C54.9028 54.3536 54.9104 54.3332 54.9104 54.3077V53.7731C54.9104 53.7477 54.9028 53.7248 54.8875 53.7044C54.8672 53.6891 54.8443 53.6815 54.8188 53.6815H54.0398C54.0143 53.6815 54.0016 53.6688 54.0016 53.6433V52.7498C54.0016 52.7243 53.9914 52.7014 53.971 52.681C53.9558 52.6657 53.9355 52.6581 53.9099 52.6581H53.2455C53.2201 52.6581 53.1997 52.6657 53.1844 52.681C53.164 52.7014 53.1539 52.7243 53.1539 52.7498V53.6433C53.1539 53.6688 53.1412 53.6815 53.1157 53.6815H52.6804C52.6549 53.6815 52.6345 53.6891 52.6193 53.7044C52.5989 53.7248 52.5887 53.7477 52.5887 53.7731V54.3077C52.5887 54.3332 52.5989 54.3536 52.6193 54.3688C52.6345 54.3892 52.6549 54.3994 52.6804 54.3994H53.1157C53.1412 54.3994 53.1539 54.4121 53.1539 54.4376V56.6142C53.159 56.996 53.2608 57.2557 53.4594 57.3931C53.6579 57.5306 53.9583 57.5993 54.3605 57.5993L54.7577 57.5917C54.8188 57.5815 54.8493 57.5485 54.8493 57.4924V56.9196C54.8493 56.8942 54.8392 56.8713 54.8188 56.8509C54.8035 56.8356 54.7832 56.828 54.7577 56.828H54.5286C54.3453 56.828 54.2129 56.7848 54.1314 56.6982C54.0449 56.6116 54.0016 56.4716 54.0016 56.2781V54.4376C54.0016 54.4121 54.0143 54.3994 54.0398 54.3994H54.8188C54.8443 54.3994 54.8672 54.3892 54.8875 54.3688Z" fill="white" fill-opacity="0.4"/>
<path d="M24.6748 68.3528C24.6188 68.3528 24.5832 68.3274 24.5679 68.2765L23.2161 63.1061L23.2085 63.0756C23.2085 63.0297 23.2365 63.0068 23.2925 63.0068H24.2395C24.2905 63.0068 24.3235 63.0323 24.3388 63.0832L25.0643 66.1915C25.0694 66.2119 25.0771 66.2221 25.0872 66.2221C25.0974 66.2221 25.105 66.2119 25.1101 66.1915L25.8128 63.0908C25.828 63.0349 25.8611 63.0068 25.912 63.0068H26.8361C26.8921 63.0068 26.9278 63.0323 26.9431 63.0832L27.7068 66.1915C27.7119 66.2068 27.7195 66.217 27.7297 66.2221C27.7398 66.2221 27.7475 66.2119 27.7526 66.1915L28.4552 63.0908C28.4705 63.0349 28.5036 63.0068 28.5545 63.0068H29.4557C29.5269 63.0068 29.555 63.0399 29.5397 63.1061L28.2872 68.2765C28.2719 68.3274 28.2363 68.3528 28.1803 68.3528H27.2715C27.2205 68.3528 27.1874 68.3274 27.1722 68.2765L26.3932 64.9696C26.3881 64.9492 26.3804 64.939 26.3703 64.939C26.3601 64.939 26.3525 64.9492 26.3474 64.9696L25.6218 68.2688C25.6117 68.3248 25.5785 68.3528 25.5226 68.3528H24.6748ZM30.2805 68.3528C30.2551 68.3528 30.2322 68.3427 30.2118 68.3223C30.1965 68.307 30.1888 68.2866 30.1888 68.2612V63.0985C30.1888 63.0731 30.1965 63.0527 30.2118 63.0374C30.2322 63.017 30.2551 63.0068 30.2805 63.0068H31.174C31.1995 63.0068 31.2199 63.017 31.2351 63.0374C31.2555 63.0527 31.2657 63.0731 31.2657 63.0985V68.2612C31.2657 68.2866 31.2555 68.307 31.2351 68.3223C31.2199 68.3427 31.1995 68.3528 31.174 68.3528H30.2805ZM35.2675 63.0985C35.2675 63.0731 35.2752 63.0527 35.2905 63.0374C35.3109 63.017 35.3338 63.0068 35.3592 63.0068H36.2527C36.2782 63.0068 36.2986 63.017 36.3138 63.0374C36.3342 63.0527 36.3444 63.0731 36.3444 63.0985V68.2612C36.3444 68.2866 36.3342 68.307 36.3138 68.3223C36.2986 68.3427 36.2782 68.3528 36.2527 68.3528H35.3897C35.3388 68.3528 35.3032 68.3324 35.2828 68.2917L33.3048 65.023C33.2946 65.0078 33.2844 65.0027 33.2743 65.0078C33.2641 65.0078 33.259 65.0179 33.259 65.0383L33.2743 68.2612C33.2743 68.2866 33.2641 68.307 33.2437 68.3223C33.2284 68.3427 33.208 68.3528 33.1826 68.3528H32.2891C32.2636 68.3528 32.2407 68.3427 32.2203 68.3223C32.2051 68.307 32.1974 68.2866 32.1974 68.2612V63.0985C32.1974 63.0731 32.2051 63.0527 32.2203 63.0374C32.2407 63.017 32.2636 63.0068 32.2891 63.0068H33.1521C33.203 63.0068 33.2386 63.0272 33.259 63.0679L35.2294 66.3214C35.2395 66.3366 35.2498 66.3417 35.2599 66.3366C35.2701 66.3366 35.2752 66.3265 35.2752 66.3061L35.2675 63.0985ZM40.9649 63.0068C40.9903 63.0068 41.0107 63.017 41.026 63.0374C41.0463 63.0527 41.0565 63.0731 41.0565 63.0985V63.8469C41.0565 63.8724 41.0463 63.8927 41.026 63.908C41.0107 63.9284 40.9903 63.9386 40.9649 63.9386H39.5978C39.5724 63.9386 39.5596 63.9513 39.5596 63.9768V68.2612C39.5596 68.2866 39.5495 68.307 39.5291 68.3223C39.5138 68.3427 39.4934 68.3528 39.468 68.3528H38.5744C38.549 68.3528 38.5261 68.3427 38.5057 68.3223C38.4904 68.307 38.4828 68.2866 38.4828 68.2612V63.9768C38.4828 63.9513 38.47 63.9386 38.4446 63.9386H37.1157C37.0903 63.9386 37.0674 63.9284 37.047 63.908C37.0317 63.8927 37.0241 63.8724 37.0241 63.8469V63.0985C37.0241 63.0731 37.0317 63.0527 37.047 63.0374C37.0674 63.017 37.0903 63.0068 37.1157 63.0068H40.9649ZM45.4555 63.8393C45.4555 63.8647 45.4479 63.8851 45.4326 63.9004C45.4122 63.9208 45.3893 63.9309 45.3639 63.9309H42.8589C42.8334 63.9309 42.8207 63.9437 42.8207 63.9691V65.1529C42.8207 65.1783 42.8334 65.1911 42.8589 65.1911H44.5009C44.5263 65.1911 44.5467 65.1987 44.562 65.214C44.5823 65.2344 44.5925 65.2573 44.5925 65.2827V66.0235C44.5925 66.0489 44.5823 66.0719 44.562 66.0922C44.5467 66.1075 44.5263 66.1152 44.5009 66.1152H42.8589C42.8334 66.1152 42.8207 66.1279 42.8207 66.1533V67.3906C42.8207 67.416 42.8334 67.4287 42.8589 67.4287H45.3639C45.3893 67.4287 45.4122 67.4364 45.4326 67.4517C45.4479 67.472 45.4555 67.495 45.4555 67.5204V68.2612C45.4555 68.2866 45.4479 68.307 45.4326 68.3223C45.4122 68.3427 45.3893 68.3528 45.3639 68.3528H41.8355C41.8101 68.3528 41.7872 68.3427 41.7668 68.3223C41.7515 68.307 41.7438 68.2866 41.7438 68.2612V63.0985C41.7438 63.0731 41.7515 63.0527 41.7668 63.0374C41.7872 63.017 41.8101 63.0068 41.8355 63.0068H45.3639C45.3893 63.0068 45.4122 63.017 45.4326 63.0374C45.4479 63.0527 45.4555 63.0731 45.4555 63.0985V63.8393ZM49.1366 68.3528C49.0857 68.3528 49.0501 68.3299 49.0297 68.2841L48.075 66.1686C48.0649 66.1482 48.0496 66.1381 48.0292 66.1381H47.319C47.2935 66.1381 47.2808 66.1508 47.2808 66.1763V68.2612C47.2808 68.2866 47.2706 68.307 47.2502 68.3223C47.235 68.3427 47.2146 68.3528 47.1891 68.3528H46.2956C46.2702 68.3528 46.2472 68.3427 46.2269 68.3223C46.2116 68.307 46.2039 68.2866 46.2039 68.2612V63.0985C46.2039 63.0731 46.2116 63.0527 46.2269 63.0374C46.2472 63.017 46.2702 63.0068 46.2956 63.0068H48.4798C48.8057 63.0068 49.0908 63.0731 49.3352 63.2054C49.5847 63.3378 49.7756 63.5262 49.908 63.7706C50.0454 64.0149 50.1142 64.2975 50.1142 64.6183C50.1142 64.9645 50.0276 65.2598 49.8545 65.5042C49.6814 65.7537 49.4396 65.9293 49.129 66.0311C49.1035 66.0413 49.0959 66.0592 49.1061 66.0846L50.1447 68.2459C50.1549 68.2663 50.16 68.2816 50.16 68.2917C50.16 68.3324 50.132 68.3528 50.076 68.3528H49.1366ZM47.319 63.9309C47.2935 63.9309 47.2808 63.9437 47.2808 63.9691V65.2751C47.2808 65.3005 47.2935 65.3133 47.319 65.3133H48.3194C48.5333 65.3133 48.7064 65.2496 48.8388 65.1223C48.9762 64.995 49.045 64.8296 49.045 64.6259C49.045 64.4222 48.9762 64.2542 48.8388 64.1219C48.7064 63.9945 48.5333 63.9309 48.3194 63.9309H47.319ZM29.9445 74.5618C29.9343 74.572 29.9317 74.5822 29.9368 74.5924C29.9419 74.6025 29.9521 74.6077 29.9674 74.6077H32.037C32.0625 74.6077 32.0854 74.6153 32.1058 74.6306C32.121 74.651 32.1287 74.6739 32.1287 74.6993V75.4401C32.1287 75.4655 32.121 75.4859 32.1058 75.5012C32.0854 75.5216 32.0625 75.5318 32.037 75.5318H28.6003C28.5749 75.5318 28.552 75.5216 28.5316 75.5012C28.5163 75.4859 28.5087 75.4655 28.5087 75.4401V74.7375C28.5087 74.6917 28.524 74.6535 28.5545 74.6229C28.804 74.3785 29.0586 74.1138 29.3182 73.8287C29.5779 73.5385 29.7408 73.3577 29.807 73.2864C29.9496 73.1184 30.0947 72.958 30.2423 72.8053C30.7057 72.2911 30.9373 71.9092 30.9373 71.6597C30.9373 71.4815 30.8737 71.3338 30.7464 71.2168C30.619 71.1047 30.4536 71.0487 30.2499 71.0487C30.0463 71.0487 29.8808 71.1047 29.7535 71.2168C29.6262 71.3338 29.5626 71.4866 29.5626 71.675V71.8659C29.5626 71.8914 29.5524 71.9143 29.5321 71.9347C29.5168 71.9499 29.4964 71.9576 29.471 71.9576H28.5698C28.5443 71.9576 28.524 71.9499 28.5087 71.9347C28.4883 71.9143 28.4781 71.8914 28.4781 71.8659V71.507C28.4934 71.232 28.5799 70.9877 28.7378 70.7738C28.8956 70.5651 29.1044 70.4047 29.364 70.2927C29.6288 70.1806 29.9241 70.1247 30.2499 70.1247C30.6114 70.1247 30.9271 70.1909 31.197 70.3232C31.4617 70.4607 31.6679 70.644 31.8156 70.8731C31.9581 71.1022 32.0294 71.3568 32.0294 71.6368C32.0294 71.8507 31.9759 72.0696 31.869 72.2936C31.7621 72.5176 31.6017 72.7595 31.3879 73.0191C31.23 73.2177 31.0595 73.4137 30.8762 73.6072C30.6929 73.8006 30.4205 74.0807 30.059 74.4473L29.9445 74.5618ZM34.6108 75.6158C34.0507 75.6158 33.6078 75.4579 33.2819 75.1423C32.956 74.8317 32.7931 74.4066 32.7931 73.8669V71.8507C32.7931 71.3212 32.956 70.9011 33.2819 70.5905C33.6078 70.2799 34.0507 70.1247 34.6108 70.1247C35.1708 70.1247 35.6163 70.2799 35.9473 70.5905C36.2731 70.9011 36.436 71.3212 36.436 71.8507V73.8669C36.436 74.4066 36.2731 74.8317 35.9473 75.1423C35.6163 75.4579 35.1708 75.6158 34.6108 75.6158ZM34.6108 74.6917C34.8399 74.6917 35.0232 74.6204 35.1606 74.4778C35.293 74.3404 35.3592 74.1545 35.3592 73.9203V71.8201C35.3592 71.5859 35.293 71.4001 35.1606 71.2626C35.0232 71.12 34.8399 71.0487 34.6108 71.0487C34.3868 71.0487 34.2085 71.12 34.0762 71.2626C33.9387 71.4001 33.87 71.5859 33.87 71.8201V73.9203C33.87 74.1545 33.9387 74.3404 34.0762 74.4778C34.2085 74.6204 34.3868 74.6917 34.6108 74.6917ZM38.5744 74.5618C38.5643 74.572 38.5617 74.5822 38.5668 74.5924C38.5719 74.6025 38.5821 74.6077 38.5973 74.6077H40.667C40.6924 74.6077 40.7154 74.6153 40.7357 74.6306C40.751 74.651 40.7587 74.6739 40.7587 74.6993V75.4401C40.7587 75.4655 40.751 75.4859 40.7357 75.5012C40.7154 75.5216 40.6924 75.5318 40.667 75.5318H37.2303C37.2049 75.5318 37.1845 75.5216 37.1692 75.5012C37.1488 75.4859 37.1387 75.4655 37.1387 75.4401V74.7375C37.1387 74.6917 37.1539 74.6535 37.1845 74.6229C37.434 74.3785 37.6885 74.1138 37.9482 73.8287C38.2079 73.5385 38.3708 73.3577 38.437 73.2864C38.5796 73.1184 38.7247 72.958 38.8723 72.8053C39.3356 72.2911 39.5673 71.9092 39.5673 71.6597C39.5673 71.4815 39.5036 71.3338 39.3763 71.2168C39.249 71.1047 39.0836 71.0487 38.8799 71.0487C38.6762 71.0487 38.5108 71.1047 38.3835 71.2168C38.2562 71.3338 38.1926 71.4866 38.1926 71.675V71.8659C38.1926 71.8914 38.1849 71.9143 38.1697 71.9347C38.1493 71.9499 38.1264 71.9576 38.1009 71.9576H37.1997C37.1743 71.9576 37.1539 71.9499 37.1387 71.9347C37.1183 71.9143 37.1081 71.8914 37.1081 71.8659V71.507C37.1234 71.232 37.2099 70.9877 37.3678 70.7738C37.5256 70.5651 37.7369 70.4047 38.0016 70.2927C38.2613 70.1806 38.554 70.1247 38.8799 70.1247C39.2414 70.1247 39.5571 70.1909 39.8269 70.3232C40.0917 70.4607 40.2979 70.644 40.4455 70.8731C40.5881 71.1022 40.6594 71.3568 40.6594 71.6368C40.6594 71.8507 40.6059 72.0696 40.499 72.2936C40.3921 72.5176 40.2317 72.7595 40.0179 73.0191C39.86 73.2177 39.6895 73.4137 39.5062 73.6072C39.3229 73.8006 39.0505 74.0807 38.689 74.4473L38.5744 74.5618ZM44.6078 72.9809C44.7096 73.2152 44.7605 73.485 44.7605 73.7905C44.7605 74.0654 44.7147 74.32 44.6231 74.5542C44.5009 74.8801 44.2972 75.1346 44.0121 75.3179C43.7219 75.5012 43.3807 75.5929 42.9887 75.5929C42.6017 75.5929 42.2632 75.4961 41.973 75.3026C41.6776 75.1092 41.4664 74.8469 41.3391 74.516C41.2678 74.3174 41.227 74.1036 41.2169 73.8745C41.2169 73.8134 41.2474 73.7828 41.3085 73.7828H42.2097C42.2708 73.7828 42.3014 73.8134 42.3014 73.8745C42.3218 74.0425 42.3497 74.1672 42.3854 74.2487C42.4312 74.3811 42.5076 74.4829 42.6145 74.5542C42.7163 74.6306 42.8385 74.6688 42.9811 74.6688C43.2662 74.6688 43.4622 74.544 43.5691 74.2945C43.6404 74.1418 43.676 73.9636 43.676 73.7599C43.676 73.5207 43.6379 73.3246 43.5615 73.1719C43.4444 72.9326 43.2484 72.8129 42.9734 72.8129C42.9174 72.8129 42.8589 72.8282 42.7978 72.8588C42.7367 72.8944 42.6628 72.9428 42.5763 73.0039C42.5559 73.0191 42.5356 73.0268 42.5152 73.0268C42.4847 73.0268 42.4617 73.0115 42.4465 72.9809L41.9959 72.3471C41.9857 72.3318 41.9806 72.314 41.9806 72.2936C41.9806 72.2631 41.9908 72.2376 42.0112 72.2172L43.2255 71.1557C43.2356 71.1455 43.2407 71.1353 43.2407 71.1251C43.2356 71.115 43.2255 71.1098 43.2102 71.1098H41.4155C41.39 71.1098 41.3696 71.0997 41.3544 71.0793C41.334 71.064 41.3238 71.0436 41.3238 71.0182V70.2774C41.3238 70.252 41.334 70.2316 41.3544 70.2163C41.3696 70.1959 41.39 70.1858 41.4155 70.1858H44.6001C44.6256 70.1858 44.6485 70.1959 44.6689 70.2163C44.6842 70.2316 44.6918 70.252 44.6918 70.2774V71.1175C44.6918 71.1582 44.674 71.1964 44.6383 71.232L43.6379 72.1485C43.6277 72.1587 43.6251 72.1689 43.6302 72.1791C43.6302 72.1892 43.6404 72.1943 43.6608 72.1943C44.1037 72.2809 44.4194 72.5431 44.6078 72.9809Z" fill="white" fill-opacity="0.4"/>
<rect x="31.1152" y="9" width="11" height="10" fill="#8073CF"/>
<path d="M37.9897 13.5864C37.9729 13.3774 37.8946 13.2144 37.7546 13.0974C37.6166 12.9804 37.4066 12.9219 37.1245 12.9219C36.9448 12.9219 36.7974 12.9438 36.6825 12.9877C36.5697 13.0295 36.4861 13.087 36.4317 13.1601C36.3774 13.2332 36.3492 13.3168 36.3471 13.4109C36.3429 13.4882 36.3565 13.5582 36.3879 13.6209C36.4213 13.6815 36.4735 13.7369 36.5446 13.787C36.6156 13.8351 36.7065 13.879 36.8173 13.9187C36.9281 13.9584 37.0597 13.9939 37.2123 14.0253L37.7389 14.1381C38.0941 14.2133 38.3982 14.3126 38.6511 14.4359C38.9039 14.5592 39.1108 14.7044 39.2717 14.8716C39.4326 15.0367 39.5507 15.2227 39.6259 15.4296C39.7033 15.6365 39.743 15.8622 39.7451 16.1067C39.743 16.5288 39.6374 16.8862 39.4285 17.1787C39.2195 17.4713 38.9206 17.6938 38.5319 17.8464C38.1453 17.999 37.6804 18.0752 37.137 18.0752C36.5791 18.0752 36.0922 17.9927 35.6763 17.8276C35.2625 17.6625 34.9407 17.4086 34.7108 17.0659C34.483 16.7211 34.3681 16.2801 34.366 15.7431H36.0211C36.0315 15.9395 36.0807 16.1046 36.1684 16.2383C36.2562 16.3721 36.3795 16.4734 36.5383 16.5424C36.6992 16.6114 36.8904 16.6458 37.112 16.6458C37.2979 16.6458 37.4536 16.6228 37.579 16.5769C37.7044 16.5309 37.7995 16.4672 37.8643 16.3857C37.9291 16.3042 37.9625 16.2112 37.9646 16.1067C37.9625 16.0085 37.9301 15.9228 37.8674 15.8496C37.8068 15.7744 37.7065 15.7075 37.5665 15.649C37.4265 15.5884 37.2373 15.532 36.9991 15.4797L36.3596 15.3418C35.7912 15.2185 35.343 15.0127 35.0149 14.7243C34.6889 14.4338 34.5269 14.0378 34.529 13.5363C34.5269 13.1288 34.6356 12.7725 34.855 12.4674C35.0765 12.1602 35.3827 11.9209 35.7735 11.7495C36.1663 11.5782 36.6167 11.4925 37.1245 11.4925C37.6428 11.4925 38.091 11.5792 38.4693 11.7527C38.8475 11.9261 39.139 12.1706 39.3438 12.4862C39.5507 12.7996 39.6552 13.1664 39.6573 13.5864H37.9897Z" fill="#1802A9"/>
</g>
<defs>
<clipPath id="clip0_682_20661">
<rect width="71.7892" height="93.1732" fill="white" transform="translate(0.876953)"/>
</clipPath>
</defs>
</svg>
