<svg width="46" height="40" viewBox="0 0 46 40" fill="none" xmlns="http://www.w3.org/2000/svg">
<path d="M25.8254 21.0428C25.8254 14.7196 23.5036 11.8393 22.2744 10.7468C22.0354 10.5482 21.6598 10.7137 21.694 11.0448C21.933 14.6203 17.2894 15.5141 17.2894 21.1091V21.1422C17.2894 24.5521 19.9526 27.333 23.2305 27.333C26.5083 27.333 29.1716 24.5521 29.1716 21.1422V21.1091C29.1716 19.52 28.557 17.9971 27.9424 16.8715C27.8058 16.6397 27.4644 16.739 27.4985 16.9377C28.6253 21.7712 25.8254 24.7507 25.8254 21.0428ZM18.7576 34.3846C18.621 34.3846 18.4503 34.3184 18.3478 34.2191L3.15365 19.4869C2.94878 19.2882 2.94878 18.9241 3.15365 18.6923L19.2015 3.13242C19.3039 3.06621 19.4405 3 19.577 3H24.1865C24.4597 3 24.6304 3.16553 24.6987 3.33106C24.767 3.49659 24.767 3.72833 24.5621 3.92697L9.50448 18.5599C9.19718 18.8578 9.19718 19.3213 9.50448 19.6193L21.4208 31.2064C21.6257 31.4051 21.6257 31.7692 21.4208 32.001L19.1332 34.2522C19.0307 34.3184 18.8942 34.3846 18.7576 34.3846ZM21.7964 36.9669C21.5233 36.9669 21.3525 36.8014 21.2843 36.6358C21.216 36.4703 21.216 36.2386 21.4208 36.0399L36.5126 21.407C36.6492 21.2746 36.7516 21.076 36.7516 20.8773C36.7516 20.6787 36.6833 20.48 36.5126 20.3476L24.5621 8.76047C24.3572 8.56183 24.3572 8.19766 24.5621 7.96592L26.8839 5.7147C26.9863 5.61538 27.1229 5.54917 27.2936 5.54917C27.4644 5.54917 27.5668 5.64849 27.6692 5.74781L42.8293 20.48C42.9317 20.5794 43 20.7118 43 20.8773C43 21.0428 42.9317 21.1753 42.8293 21.2746L26.7815 36.8345C26.679 36.9338 26.5425 37 26.3717 37H21.7964V36.9669Z" fill="#FF6600"/>
</svg>
