<svg width="78" height="18" viewBox="0 0 78 18" fill="none" xmlns="http://www.w3.org/2000/svg">
<mask id="mask0_2309_23145" style="mask-type:luminance" maskUnits="userSpaceOnUse" x="-140" y="-38" width="276" height="208">
<path d="M-139.566 169.767H135.845V-37.4822H-139.566V169.767Z" fill="white"/>
</mask>
<g mask="url(#mask0_2309_23145)">
<path d="M77.4533 5.95271L77.2297 8.64486H76.134C74.3845 8.64486 73.4752 10.052 73.4752 11.4005V17.4808H70.3744V5.95271H73.3114L73.3782 7.39159C73.9944 6.40489 75.0727 5.95271 76.4025 5.95271H77.4533ZM55.9559 17.4807H52.8523V11.3864C52.8523 10.1101 52.7424 8.5038 50.9533 8.5038C49.2302 8.5038 48.5438 9.75148 48.5438 11.2043V17.4807H45.4412V5.95261H48.3178L48.3835 7.42638C49 6.43968 50.1483 5.67139 51.8421 5.67139C54.969 5.67139 55.9559 7.91135 55.9559 10.2424V17.4807ZM44.088 14.7878L43.871 17.4109C43.1268 17.6111 42.4661 17.683 41.6667 17.683C38.7425 17.683 37.8944 16.3376 37.8944 13.6336V2.70177H40.9976V5.95285H44.0855L43.871 8.64465H40.9976V13.3995C40.9976 14.4846 41.2942 15.0708 42.4035 15.0708C42.8858 15.0708 43.4224 15.0125 44.088 14.7878ZM36.8754 5.95271L36.6351 8.64486H35.7918C34.0458 8.64486 33.1775 10.0502 33.1775 11.4005V17.4808H30.0739V5.95271H33.0123L33.0735 7.39159C33.6932 6.40489 34.7716 5.95271 36.1031 5.95271H36.8754ZM16.0696 16.2036C13.9647 17.3333 11.8622 17.9851 9.08518 17.9041C3.93688 17.7464 0.222656 14.539 0.222656 9.12117C0.222656 3.72711 3.9727 0.280647 9.08762 0.199701C11.6804 0.159927 14.0005 0.820055 15.814 2.42571L13.6295 4.64299C12.5073 3.68316 10.8562 3.12212 8.88315 3.21179C5.66411 3.36217 3.72441 5.70924 3.68163 8.93625C3.63956 12.4326 5.77643 14.8422 9.11683 14.9301C10.6886 14.9695 11.8146 14.7577 12.789 14.3188V10.745H9.31713L9.55151 7.81384H16.0696V16.2036ZM68.9885 12.8123H60.4804C60.7227 14.2854 61.8769 15.1716 63.3141 15.2117C64.7113 15.2497 65.493 14.8262 66.515 13.7878L68.5399 15.337C67.101 17.1153 65.3741 17.7626 63.4069 17.7626C59.9469 17.7626 57.3548 15.3352 57.3548 11.7164C57.3548 8.1014 59.934 5.67128 63.2776 5.67128C66.9626 5.67128 68.9885 7.91125 68.9885 11.8874V12.8123ZM65.8797 10.4021C65.7844 8.94575 64.6971 8.02499 63.1993 8.08361C61.6919 8.14083 60.6883 9.12578 60.4804 10.4021H65.8797ZM28.1203 9.93183V17.4807H25.3842L25.3164 16.344C24.477 17.3872 23.1142 17.7626 21.711 17.7626C19.5982 17.7626 17.6018 16.7173 17.5601 14.2827C17.4971 10.4559 21.8526 10.1841 24.5879 10.1841H25.1345V10.0327C25.1345 8.76718 24.3 8.08368 22.7285 8.08368C21.6005 8.08368 20.487 8.5376 19.6635 9.31217L17.873 7.48705C19.4987 6.1647 21.1901 5.67136 22.9921 5.67136C26.5513 5.67136 28.1203 7.32167 28.1203 9.93183ZM25.1345 12.4534H24.703C23.2338 12.4565 20.6532 12.5291 20.663 14.0705C20.6769 16.2421 25.1345 15.552 25.1345 12.9331V12.4534ZM75.0326 16.1397C75.0326 15.406 75.5845 14.853 76.2921 14.853C76.9911 14.853 77.544 15.406 77.544 16.1397C77.544 16.8864 76.9911 17.4377 76.2921 17.4377C75.5845 17.4377 75.0326 16.8864 75.0326 16.1397ZM76.2921 17.6955C77.1347 17.6955 77.8535 17.0389 77.8535 16.1397C77.8535 15.2497 77.1347 14.5944 76.2921 14.5944C75.4419 14.5944 74.7224 15.2497 74.7224 16.1397C74.7224 17.0389 75.4419 17.6955 76.2921 17.6955ZM75.9649 16.2639H76.2761L76.7452 17.0389H77.0485L76.5418 16.2514C76.8037 16.2193 77.0036 16.0783 77.0036 15.7584C77.0036 15.406 76.7953 15.2497 76.3738 15.2497H75.6957V17.0389H75.9649V16.2639ZM75.9649 16.0333V15.4803H76.3325C76.521 15.4803 76.7213 15.5211 76.7213 15.7427C76.7213 16.0173 76.5168 16.0333 76.2887 16.0333H75.9649Z" fill="#182954"/>
</g>
</svg>
