<svg width="27" height="28" viewBox="0 0 27 28" fill="none" xmlns="http://www.w3.org/2000/svg">
<g clip-path="url(#clip0_2309_23136)">
<path d="M19.026 19.9494C20.0471 21.7368 21.0568 23.5039 22.0657 25.269C17.5979 28.7194 10.6469 29.1363 5.5011 25.163C-0.420531 20.5869 -1.3938 12.7788 1.77655 7.15822C5.42291 0.693323 12.2465 -0.736428 16.6399 0.311954C16.521 0.572326 13.8897 6.07882 13.8897 6.07882C13.8897 6.07882 13.6817 6.09261 13.564 6.0949C12.2654 6.15042 11.2982 6.45521 10.2616 6.99587C9.1242 7.59453 8.14951 8.46509 7.42269 9.53145C6.69587 10.5978 6.23904 11.8275 6.09213 13.1131C5.93885 14.4168 6.11757 15.7385 6.61141 16.9532C7.02896 17.9801 7.61961 18.8922 8.41144 19.6622C9.62613 20.8446 11.0716 21.5767 12.7471 21.8191C14.3338 22.0488 15.8598 21.8214 17.2897 21.0966C17.8261 20.8251 18.2823 20.5253 18.8157 20.114C18.8836 20.0696 18.944 20.0133 19.026 19.9494Z" fill="#FF492C"/>
<path d="M19.0367 4.27385C18.7774 4.01654 18.5371 3.77914 18.298 3.54021C18.1552 3.39777 18.0178 3.24959 17.8717 3.11059C17.8193 3.06043 17.7578 2.99189 17.7578 2.99189C17.7578 2.99189 17.8075 2.88545 17.8288 2.8418C18.1086 2.27549 18.547 1.86157 19.067 1.53228C19.6421 1.16538 20.3121 0.978697 20.9923 0.995833C21.8627 1.01306 22.672 1.2317 23.3549 1.8206C23.859 2.25519 24.1175 2.80657 24.163 3.46478C24.239 4.57519 23.7835 5.42561 22.8789 6.01911C22.3475 6.36831 21.7743 6.63826 21.1996 6.95798C20.8826 7.1345 20.6116 7.28957 20.3018 7.60891C20.0293 7.9294 20.016 8.23151 20.016 8.23151L24.1334 8.22615V10.0759H17.7779C17.7779 10.0759 17.7779 9.94958 17.7779 9.89713C17.7536 8.98812 17.8588 8.13272 18.2714 7.30719C18.651 6.54981 19.2409 5.99537 19.9496 5.56843C20.4954 5.23952 21.0701 4.95962 21.6171 4.63224C21.9546 4.43045 22.193 4.13447 22.1911 3.70524C22.1911 3.33689 21.9254 3.00951 21.5458 2.90727C20.6507 2.66375 19.7397 3.05239 19.2659 3.87869C19.1968 3.99931 19.1262 4.11915 19.0367 4.27385Z" fill="#FF492C"/>
<path d="M27.0004 17.9832L23.5306 11.9387H16.6641L13.1719 18.0456H20.0888L23.5021 24.0614L27.0004 17.9832Z" fill="#FF492C"/>
</g>
<defs>
<clipPath id="clip0_2309_23136">
<rect width="27" height="28" fill="white"/>
</clipPath>
</defs>
</svg>
