<svg width="177" height="148" viewBox="0 0 177 148" fill="none" xmlns="http://www.w3.org/2000/svg">
<g opacity="0.5">
<path d="M86.9654 103.69C96.7195 123.269 120.621 131.112 140.35 121.208C160.079 111.304 168.166 87.4026 158.412 67.8234C148.658 48.2442 124.757 40.401 105.027 50.3053C85.2978 60.2095 77.2112 84.1106 86.9654 103.69Z" stroke="#49CED9" stroke-width="3" stroke-miterlimit="10"/>
<path d="M59.8619 72.0358C69.8818 91.4813 93.8894 99.0011 113.484 88.8317C133.079 78.6623 140.842 54.6547 130.822 35.2092C120.802 15.7637 96.7942 8.24392 77.1992 18.4133C57.6042 28.5827 49.8421 52.5903 59.8619 72.0358Z" fill="#49CED9"/>
<path d="M-10.0963 118.966C-12.8045 129.512 -6.51725 140.191 3.94679 142.816C14.4108 145.442 25.0891 139.02 27.7973 128.474C30.5056 117.927 24.2182 107.249 13.7542 104.623C3.29015 101.997 -7.38806 108.419 -10.0963 118.966Z" fill="#FAD141"/>
</g>
</svg>
