<svg width="108" height="34" viewBox="0 0 108 34" fill="none" xmlns="http://www.w3.org/2000/svg">
<path d="M11.8456 34V22.2324C9.90322 22.7917 7.85242 23.1589 6.46947 23.1589C2.90234 23.1589 0 20.6803 0 17.6339C0 15.9816 0.657799 14.6131 1.90253 13.6752C4.02505 12.0749 7.31316 12.0185 9.68498 12.4997C10.3353 12.6318 11.0775 12.8027 11.8456 13.0169V2H105L93.8223 17.9998L105 34H11.8456ZM11.8456 14.3049C10.8457 14.0084 9.9404 13.8069 9.40638 13.6981C7.42906 13.2966 4.49129 13.2995 2.72609 14.6299C1.78794 15.3368 1.31253 16.3472 1.31253 17.6334C1.31253 20.0037 3.62618 21.9319 6.46992 21.9319C7.66129 21.9319 9.75188 21.5905 11.846 20.9494L11.8456 14.3049ZM19.761 15.6517C18.9908 15.6517 18.3023 15.9767 17.8414 16.487C18.0609 16.8828 18.1908 17.3104 18.2013 17.7741C18.2092 18.1126 17.9214 18.3931 17.5593 18.4005C17.5545 18.4005 17.5501 18.4005 17.5448 18.4005C17.4499 18.4005 17.3607 18.3805 17.2794 18.3465C17.4591 19.4787 18.5 20.3483 19.761 20.3483C21.1483 20.3483 22.2727 19.2967 22.2727 17.9998C22.2732 16.7029 21.1483 15.6517 19.761 15.6517Z" fill="white"/>
<path d="M6.98777 20.9066C8.80484 20.9066 11.8706 20.1742 14.1187 19.2031C14.4261 19.0702 14.5671 18.7135 14.4346 18.4064C14.3021 18.099 13.9458 17.9568 13.638 18.0905C11.2254 19.1324 8.41096 19.6947 6.98736 19.6947C4.36074 19.6947 2.22373 17.7896 2.22373 15.4478C2.22373 15.1129 1.95226 14.8418 1.61777 14.8418C1.28328 14.8418 1.01181 15.1129 1.01181 15.4478C1.01221 18.4578 3.69297 20.9066 6.98777 20.9066Z" fill="#05164D"/>
<path d="M108 0L96.6009 16L108 32H13V0H108ZM21.0722 18.3481C22.487 18.3481 23.6342 17.2969 23.6342 16C23.6342 14.7031 22.487 13.6515 21.0722 13.6515C19.6574 13.6515 18.5107 14.7031 18.5107 16C18.5102 17.2969 19.6574 18.3481 21.0722 18.3481Z" fill="#12A051"/>
<path d="M17.2216 16.2041C17.2265 16.2041 17.2305 16.2041 17.235 16.2037C17.5695 16.1964 17.8349 15.9193 17.828 15.5848C17.7621 12.5231 12.8713 11.0058 9.96145 10.374C7.77071 9.89851 4.73365 9.95426 2.77318 11.5354C1.62347 12.4621 1.0159 13.8142 1.0159 15.4467C1.0159 15.7816 1.28736 16.0526 1.62185 16.0526C1.95634 16.0526 2.22781 15.7816 2.22781 15.4467C2.22781 14.1758 2.66693 13.1771 3.53345 12.4791C5.16388 11.1646 7.87736 11.1617 9.70412 11.5584C11.3123 11.9079 16.5648 13.2329 16.6157 15.6111C16.6234 15.9415 16.8932 16.2041 17.2216 16.2041Z" fill="#05164D"/>
<path d="M28.584 21V19.5098H30.7305C31.2363 19.5098 31.6419 19.3776 31.9473 19.1133C32.2526 18.849 32.4053 18.4821 32.4053 18.0127C32.4053 17.5524 32.2412 17.1969 31.9131 16.9463C31.585 16.6911 31.1429 16.5635 30.5869 16.5635H28.4746V15.21H30.1494C30.4639 15.21 30.735 15.1484 30.9629 15.0254C31.1908 14.8978 31.3662 14.7269 31.4893 14.5127C31.6123 14.2939 31.6738 14.0456 31.6738 13.7676C31.6738 13.3164 31.5257 12.9792 31.2295 12.7559C30.9333 12.528 30.5368 12.4141 30.04 12.4141H28.4746V10.9238H30.0059C30.6895 10.9238 31.2796 11.0332 31.7764 11.252C32.2731 11.4707 32.6536 11.7738 32.918 12.1611C33.1868 12.5439 33.3213 12.9814 33.3213 13.4736C33.3213 13.8519 33.2438 14.2096 33.0889 14.5469C32.9385 14.8796 32.738 15.1712 32.4873 15.4219C32.2367 15.668 31.9587 15.8457 31.6533 15.9551L31.6807 15.5449C32.1455 15.6361 32.5579 15.7933 32.918 16.0166C33.278 16.2399 33.5605 16.527 33.7656 16.8779C33.9707 17.2288 34.0732 17.6504 34.0732 18.1426C34.0732 18.7077 33.932 19.2067 33.6494 19.6396C33.3714 20.068 32.9818 20.403 32.4805 20.6445C31.9837 20.8815 31.4027 21 30.7373 21H28.584ZM27.0596 21V10.9238H28.7207V21H27.0596ZM38.8105 21.1094C38.0723 21.1094 37.4274 20.9521 36.876 20.6377C36.3245 20.3187 35.8939 19.8766 35.584 19.3115C35.2741 18.7464 35.1191 18.0947 35.1191 17.3564C35.1191 16.5908 35.2741 15.9277 35.584 15.3672C35.8939 14.8066 36.3109 14.3737 36.835 14.0684C37.359 13.7585 37.9401 13.6035 38.5781 13.6035C39.1888 13.6035 39.7402 13.7448 40.2324 14.0273C40.7292 14.3099 41.1234 14.7041 41.415 15.21C41.7067 15.7113 41.8525 16.2992 41.8525 16.9736C41.8525 17.1468 41.8434 17.3086 41.8252 17.459C41.807 17.6094 41.7842 17.7598 41.7568 17.9102H36.3291V16.7686H40.3418C40.3418 16.4222 40.2689 16.1146 40.123 15.8457C39.9772 15.5723 39.7721 15.3581 39.5078 15.2031C39.2435 15.0436 38.9336 14.9639 38.5781 14.9639C38.1771 14.9639 37.8262 15.0641 37.5254 15.2646C37.2292 15.4606 36.9967 15.7363 36.8281 16.0918C36.6641 16.4427 36.582 16.8529 36.582 17.3223C36.582 17.8008 36.6709 18.2223 36.8486 18.5869C37.0309 18.9515 37.2861 19.2363 37.6143 19.4414C37.9469 19.6465 38.3411 19.749 38.7969 19.749C39.0566 19.749 39.3027 19.7171 39.5352 19.6533C39.7676 19.5895 39.9795 19.5075 40.1709 19.4072C40.3623 19.3024 40.5264 19.193 40.6631 19.0791L41.2168 20.4053C40.9297 20.6104 40.5765 20.779 40.1572 20.9111C39.7425 21.0433 39.2936 21.1094 38.8105 21.1094ZM45.4346 21.1094C44.9971 21.1094 44.5915 21.0296 44.2178 20.8701C43.8441 20.7106 43.5228 20.4987 43.2539 20.2344C42.9896 19.9655 42.7982 19.6738 42.6797 19.3594L44.0469 18.7715C44.1471 19.0267 44.3226 19.2546 44.5732 19.4551C44.8285 19.6556 45.1156 19.7559 45.4346 19.7559C45.6305 19.7559 45.8105 19.7194 45.9746 19.6465C46.1387 19.569 46.2708 19.4665 46.3711 19.3389C46.4714 19.2113 46.5215 19.07 46.5215 18.915C46.5215 18.7419 46.4622 18.5938 46.3438 18.4707C46.2298 18.3431 46.084 18.236 45.9062 18.1494C45.7331 18.0628 45.5508 17.9899 45.3594 17.9307C45.1725 17.8714 45.0085 17.819 44.8672 17.7734C44.5573 17.6777 44.2497 17.5456 43.9443 17.377C43.6436 17.2083 43.3929 16.9873 43.1924 16.7139C42.9919 16.4359 42.8916 16.0872 42.8916 15.668C42.8916 15.2441 43.001 14.8773 43.2197 14.5674C43.4385 14.2529 43.7301 14.0137 44.0947 13.8496C44.4593 13.681 44.8626 13.5967 45.3047 13.5967C45.9154 13.5967 46.4417 13.7448 46.8838 14.041C47.3258 14.3327 47.638 14.6836 47.8203 15.0938L46.4805 15.6543C46.3893 15.4857 46.2526 15.3216 46.0703 15.1621C45.888 15.0026 45.6465 14.9229 45.3457 14.9229C45.0859 14.9229 44.8626 14.9912 44.6758 15.1279C44.4935 15.2601 44.4023 15.4469 44.4023 15.6885C44.4023 15.8936 44.4684 16.0599 44.6006 16.1875C44.7373 16.3105 44.9173 16.4154 45.1406 16.502C45.3639 16.584 45.6055 16.6683 45.8652 16.7549C46.0566 16.8141 46.2731 16.8939 46.5146 16.9941C46.7607 17.0898 46.9977 17.2174 47.2256 17.377C47.458 17.5365 47.6471 17.7393 47.793 17.9854C47.9434 18.2269 48.0186 18.5231 48.0186 18.874C48.0186 19.3115 47.9001 19.6989 47.6631 20.0361C47.4261 20.3734 47.1117 20.6377 46.7197 20.8291C46.3278 21.016 45.8994 21.1094 45.4346 21.1094ZM52.2295 21.1094C51.4548 21.1094 50.8691 20.8906 50.4727 20.4531C50.0807 20.0156 49.8848 19.4551 49.8848 18.7715V11.4639H51.498V18.6553C51.498 19.0062 51.5801 19.2637 51.7441 19.4277C51.9082 19.5918 52.1133 19.6738 52.3594 19.6738C52.4688 19.6738 52.5713 19.6602 52.667 19.6328C52.7627 19.6009 52.8493 19.5645 52.9268 19.5234L53.4805 20.8428C53.3118 20.9248 53.1227 20.9886 52.9131 21.0342C52.7035 21.0843 52.4756 21.1094 52.2295 21.1094ZM48.6816 15.0527V13.7061H53.248V15.0527H48.6816ZM61.5195 21L57.3633 10.9238H59.2021L61.0273 15.6885L62.1895 18.6689H62.2441L63.3926 15.6885L65.2246 10.9238H67.0635L62.9209 21H61.5195ZM69.4492 21.1094C68.9753 21.1094 68.5537 21.016 68.1846 20.8291C67.8154 20.6377 67.526 20.3779 67.3164 20.0498C67.1068 19.7171 67.002 19.3343 67.002 18.9014C67.002 18.4456 67.125 18.0514 67.3711 17.7188C67.6172 17.3815 67.9818 17.1217 68.4648 16.9395C68.9479 16.7526 69.5381 16.6592 70.2354 16.6592H71.8145V17.7871H70.2764C69.7295 17.7871 69.3057 17.876 69.0049 18.0537C68.7041 18.2314 68.5537 18.4958 68.5537 18.8467C68.5537 19.0563 68.6061 19.234 68.7109 19.3799C68.8158 19.5257 68.9593 19.6374 69.1416 19.7148C69.3285 19.7923 69.5358 19.8311 69.7637 19.8311C70.0007 19.8311 70.2604 19.7786 70.543 19.6738C70.8255 19.569 71.0693 19.4072 71.2744 19.1885C71.4795 18.9697 71.582 18.6917 71.582 18.3545V17.6025L71.4932 17.2129V16.3174C71.4932 16.1761 71.4749 16.028 71.4385 15.873C71.4066 15.7181 71.3405 15.5745 71.2402 15.4424C71.1445 15.3057 71.0055 15.1963 70.8232 15.1143C70.641 15.0277 70.404 14.9844 70.1123 14.9844C69.8799 14.9844 69.6361 15.0117 69.3809 15.0664C69.1257 15.1165 68.8796 15.1872 68.6426 15.2783C68.4102 15.3695 68.2074 15.472 68.0342 15.5859L67.4805 14.2803C67.6901 14.1618 67.943 14.0501 68.2393 13.9453C68.54 13.8405 68.8682 13.7562 69.2236 13.6924C69.5791 13.6286 69.9414 13.5967 70.3105 13.5967C70.9121 13.5967 71.3929 13.681 71.7529 13.8496C72.1175 14.0182 72.391 14.2393 72.5732 14.5127C72.7555 14.7816 72.8763 15.0732 72.9355 15.3877C72.9993 15.6976 73.0312 15.9984 73.0312 16.29V18.6758C73.0312 18.9629 73.0609 19.1839 73.1201 19.3389C73.1839 19.4938 73.3001 19.6009 73.4688 19.6602L73.6191 19.7148L73.0312 21.1094L72.8193 21.0273C72.473 20.8906 72.2087 20.7197 72.0264 20.5146C71.8441 20.3096 71.7461 20.1045 71.7324 19.8994L72.04 20.0703H71.4932L71.8623 19.8789C71.6982 20.2116 71.3975 20.501 70.96 20.7471C70.5225 20.9886 70.0189 21.1094 69.4492 21.1094ZM76.5449 21.1094C76.1621 21.1094 75.8454 21.0273 75.5947 20.8633C75.3486 20.6992 75.1641 20.4714 75.041 20.1797C74.918 19.888 74.8564 19.5508 74.8564 19.168V10.4727H76.4697V19.0381C76.4697 19.1429 76.4811 19.2454 76.5039 19.3457C76.5267 19.446 76.5723 19.5303 76.6406 19.5986C76.7135 19.6624 76.8275 19.6943 76.9824 19.6943C77.0462 19.6943 77.1032 19.6898 77.1533 19.6807C77.208 19.667 77.2559 19.6533 77.2969 19.6396V20.9863C77.2012 21.0273 77.085 21.057 76.9482 21.0752C76.8161 21.098 76.6816 21.1094 76.5449 21.1094ZM81.2002 21.1094C80.6761 21.1094 80.209 20.9977 79.7988 20.7744C79.3887 20.5511 79.0651 20.2275 78.8281 19.8037C78.5957 19.3753 78.4795 18.8558 78.4795 18.2451V13.7061H80.0928V18.0811C80.0928 18.6143 80.2363 19.0153 80.5234 19.2842C80.8105 19.5531 81.1569 19.6875 81.5625 19.6875C81.877 19.6875 82.1504 19.6191 82.3828 19.4824C82.6198 19.3411 82.8044 19.1497 82.9365 18.9082C83.0732 18.6667 83.1416 18.391 83.1416 18.0811V13.7061H84.7549V18.7168C84.7549 19.0085 84.7936 19.2249 84.8711 19.3662C84.9486 19.5075 85.1058 19.6237 85.3428 19.7148L84.748 21.1094C84.3242 20.959 83.9984 20.7676 83.7705 20.5352C83.5426 20.2982 83.4287 20.0339 83.4287 19.7422L83.9414 20.0977H83.0254L83.8115 19.5918C83.5791 20.0111 83.2441 20.3688 82.8066 20.665C82.3691 20.9613 81.8337 21.1094 81.2002 21.1094ZM89.793 21.1094C89.0547 21.1094 88.4098 20.9521 87.8584 20.6377C87.307 20.3187 86.8763 19.8766 86.5664 19.3115C86.2565 18.7464 86.1016 18.0947 86.1016 17.3564C86.1016 16.5908 86.2565 15.9277 86.5664 15.3672C86.8763 14.8066 87.2933 14.3737 87.8174 14.0684C88.3415 13.7585 88.9225 13.6035 89.5605 13.6035C90.1712 13.6035 90.7227 13.7448 91.2148 14.0273C91.7116 14.3099 92.1058 14.7041 92.3975 15.21C92.6891 15.7113 92.835 16.2992 92.835 16.9736C92.835 17.1468 92.8258 17.3086 92.8076 17.459C92.7894 17.6094 92.7666 17.7598 92.7393 17.9102H87.3115V16.7686H91.3242C91.3242 16.4222 91.2513 16.1146 91.1055 15.8457C90.9596 15.5723 90.7546 15.3581 90.4902 15.2031C90.2259 15.0436 89.916 14.9639 89.5605 14.9639C89.1595 14.9639 88.8086 15.0641 88.5078 15.2646C88.2116 15.4606 87.9792 15.7363 87.8105 16.0918C87.6465 16.4427 87.5645 16.8529 87.5645 17.3223C87.5645 17.8008 87.6533 18.2223 87.8311 18.5869C88.0133 18.9515 88.2686 19.2363 88.5967 19.4414C88.9294 19.6465 89.3236 19.749 89.7793 19.749C90.0391 19.749 90.2852 19.7171 90.5176 19.6533C90.75 19.5895 90.9619 19.5075 91.1533 19.4072C91.3447 19.3024 91.5088 19.193 91.6455 19.0791L92.1992 20.4053C91.9121 20.6104 91.5589 20.779 91.1396 20.9111C90.7249 21.0433 90.276 21.1094 89.793 21.1094Z" fill="white"/>
</svg>
