<svg width="120" height="19" viewBox="0 0 120 19" fill="none" xmlns="http://www.w3.org/2000/svg">
<path d="M7.83288 7.04777C7.83288 7.04777 6.84881 6.94834 6.84881 7.83892V11.7946H13.3474V12.9818C13.3474 12.9818 13.3668 13.5749 12.7566 13.5749H6.84881V18.7178H13.9382C13.9382 18.7178 18.2306 18.0449 18.2703 13.5749V7.04777H7.83288ZM18.0728 0.717773H5.27312C0.644775 1.8252 0.546875 5.68234 0.546875 5.68234V18.7178H5.47061V6.84977C5.47061 5.84092 6.45468 5.66349 6.45468 5.66349H18.0736L18.0728 0.717773Z" fill="#5C9FFF"/>
<path d="M34.9728 16.7624C34.6353 16.9912 34.3854 17.1592 34.209 17.2664C33.5778 17.6632 32.976 17.9692 32.4181 18.2135C31.6105 18.5495 30.8906 18.7175 30.2449 18.7175C28.0278 18.7175 26.1922 18.0301 24.7085 16.6398C23.2248 15.2495 22.4922 13.5087 22.4922 11.4009C22.4922 9.36952 23.153 7.61238 24.489 6.11495C25.825 4.61838 27.4404 3.88466 29.3495 3.88466C30.1428 3.88466 30.9935 4.02181 31.8746 4.31323C33.0199 4.67923 33.9449 5.22952 34.6791 5.94695L33.4014 7.38266C32.8587 6.84866 32.154 6.45095 31.3311 6.20666C30.715 6.02323 30.0398 5.93238 29.2904 5.93238C27.9544 5.93238 26.8234 6.48095 25.928 7.56609C25.0325 8.66581 24.5776 9.96438 24.5776 11.4918C24.5776 13.0047 25.0908 14.2415 26.1187 15.2349C27.1467 16.2275 28.4532 16.7315 30.039 16.7315C30.6998 16.7315 31.3758 16.5172 32.0654 16.1058C32.6384 15.6627 32.9321 15.4484 32.9465 15.4329V12.3018H28.6591L29.2752 10.3467H34.9728V16.7624ZM47.9236 12.9429C47.9236 14.4549 47.3953 15.7689 46.3378 16.8687C45.2803 17.9684 43.9738 18.5341 42.4175 18.5341C40.9785 18.5341 39.716 17.9838 38.6289 16.8995C37.5419 15.8152 37.0136 14.5012 37.0136 12.9584C37.0136 11.4309 37.5284 10.1169 38.5555 8.98638C39.5826 7.85581 40.846 7.30638 42.3289 7.30638C43.9738 7.30638 45.3098 7.84123 46.3521 8.92552C47.3953 9.97981 47.9236 11.3238 47.9236 12.9429ZM45.9116 12.9738C45.9116 11.9504 45.574 11.0795 44.8988 10.3767C44.2236 9.65838 43.3864 9.30695 42.388 9.30695C41.4486 9.30695 40.6553 9.67381 39.9945 10.4075C39.3336 11.1404 39.0104 11.9804 39.0104 12.9275C39.0104 13.9209 39.348 14.7609 40.0088 15.4638C40.6697 16.1667 41.4925 16.5327 42.4901 16.5327C43.4159 16.5327 44.2084 16.1812 44.8844 15.4784C45.574 14.7755 45.9116 13.9355 45.9116 12.9738ZM60.6979 12.9429C60.6979 14.4549 60.1696 15.7689 59.1121 16.8687C58.0546 17.9684 56.7482 18.5341 55.1919 18.5341C53.7529 18.5341 52.4903 17.9838 51.4033 16.8995C50.3171 15.8152 49.7879 14.5012 49.7879 12.9584C49.7879 11.4309 50.3027 10.1169 51.3299 8.98638C52.3578 7.85581 53.6204 7.30638 55.1033 7.30638C56.7482 7.30638 58.0842 7.84123 59.1265 8.92552C60.1696 9.97981 60.6979 11.3238 60.6979 12.9429ZM58.6859 12.9738C58.6859 11.9504 58.3483 11.0795 57.6731 10.3767C56.998 9.65838 56.1608 9.30695 55.1623 9.30695C54.223 9.30695 53.4297 9.67381 52.7688 10.4075C52.108 11.1404 51.7848 11.9804 51.7848 12.9275C51.7848 13.9209 52.1223 14.7609 52.784 15.4638C53.444 16.1667 54.2669 16.5327 55.2653 16.5327C56.1903 16.5327 56.9828 16.1812 57.6588 15.4784C58.3483 14.7755 58.6859 13.9355 58.6859 12.9738ZM72.5186 18.2281L70.6686 18.5187V16.7007L70.272 17.1584C69.9225 17.4908 69.5267 17.769 69.0972 17.9838C68.4667 18.2791 67.7802 18.4304 67.086 18.4269C65.647 18.4269 64.4131 17.8921 63.4147 16.8069C62.4163 15.7218 61.9175 14.4395 61.9175 12.9429C61.9175 11.4001 62.4163 10.0715 63.4003 8.97095C64.3844 7.87038 65.5879 7.32095 67.0269 7.32095C67.8498 7.32095 68.5688 7.45809 69.1706 7.73323C69.5968 7.93209 69.9639 8.19181 70.272 8.51323C70.3749 8.65038 70.4779 8.80295 70.5808 8.94009V4.17438L72.5473 3.88381L72.5186 18.2281ZM70.7859 13.0801C70.7859 12.0112 70.4332 11.1095 69.7141 10.3767C68.995 9.62752 68.1865 9.26152 67.2624 9.26152C66.2344 9.26152 65.4124 9.61295 64.7811 10.3158C64.1928 10.9869 63.8848 11.8124 63.8848 12.7749C63.8848 13.8592 64.1928 14.7601 64.8098 15.4629C65.4259 16.1658 66.2049 16.5172 67.1594 16.5172C68.0987 16.5172 68.9216 16.1967 69.6559 15.5401C70.4045 14.8672 70.7859 14.0427 70.7859 13.0801ZM82.8995 6.16123H77.3934V9.96438H81.6656V11.9195H77.3934V18.2135L75.2497 18.5341V4.18981H82.4733L82.8995 6.16123ZM87.3193 5.04523L85.9977 6.74066L84.7351 5.04523L86.0711 3.36523L87.3193 5.04523ZM86.9227 18.2281L84.9554 18.5032V7.88666L86.9227 7.58152V18.2281ZM95.8063 7.47438L94.8813 9.64295C94.7598 9.62413 94.6371 9.61411 94.5142 9.61295C94.3235 9.61295 94.1327 9.62838 93.9411 9.65838C93.7496 9.68838 93.5445 9.76552 93.3251 9.87266C92.914 10.0561 92.5613 10.4529 92.2532 11.0487C91.9123 11.7248 91.7358 12.4739 91.7384 13.2335V18.2135L89.7719 18.5341V7.88666L91.5924 7.55066V9.76552C91.827 9.38323 92.0768 9.00181 92.3114 8.60495C92.649 8.20723 93.0457 7.91752 93.4863 7.74866C93.7209 7.65781 94.1471 7.58066 94.7927 7.51981C95.4097 7.47438 95.7624 7.44352 95.8063 7.47438ZM110.459 18.2281L108.492 18.5187V11.2321C108.492 10.5592 108.345 10.0707 108.052 9.76552C107.758 9.45952 107.317 9.30695 106.744 9.30695C106.055 9.30695 105.526 9.59752 105.174 10.1778C104.938 10.5747 104.806 11.0024 104.806 11.4301V18.2127L102.839 18.5795V11.2775C102.839 10.6364 102.692 10.1469 102.413 9.81181C102.119 9.47495 101.738 9.30695 101.238 9.30695H101.047C100.357 9.30695 99.8574 9.59752 99.5493 10.1932C99.3147 10.6364 99.1974 11.2012 99.1974 11.8887V18.2127L97.1567 18.5795V7.88666L98.9915 7.56609V8.92552C99.1974 8.60409 99.4025 8.34438 99.5941 8.16181C100.122 7.65781 100.739 7.41266 101.429 7.41266C102.207 7.41266 102.779 7.53523 103.176 7.79495C103.513 8.00923 103.837 8.43609 104.16 9.04723C104.835 7.96295 105.79 7.41266 107.053 7.41266C108.257 7.41266 109.153 7.79495 109.739 8.57409C110.225 9.21523 110.459 10.1624 110.459 11.4001V18.2281ZM119.448 15.0052C119.448 15.9824 119.11 16.7924 118.435 17.4189C117.76 18.0601 116.907 18.3661 115.879 18.3661C115.101 18.3661 114.411 18.1827 113.78 17.8158C113.148 17.4498 112.679 17.0367 112.37 16.5481L113.751 15.2958C113.853 15.4484 113.942 15.5701 114.029 15.6618C114.544 16.1967 115.16 16.4718 115.879 16.4718C116.379 16.4718 116.776 16.3347 117.054 16.0749C117.348 15.8152 117.48 15.4484 117.48 14.9744C117.48 14.4404 117.143 14.0735 116.468 13.8747C115.131 13.4624 114.411 13.2335 114.309 13.1872C113.692 12.8667 113.251 12.5307 112.972 12.1484C112.664 11.7052 112.503 11.1249 112.503 10.3767C112.503 9.45952 112.84 8.69666 113.501 8.08552C114.162 7.47438 114.954 7.18381 115.864 7.18381C116.555 7.18381 117.201 7.33638 117.788 7.65781C118.376 7.97838 118.801 8.31438 119.051 8.71209L117.876 10.0098C117.7 9.83043 117.508 9.66696 117.304 9.52123C116.834 9.18523 116.379 9.01723 115.954 9.01723C115.542 9.01723 115.204 9.10895 114.94 9.29152C114.631 9.52123 114.47 9.85723 114.47 10.3004C114.47 10.7281 114.617 11.0487 114.926 11.2475C115.19 11.4155 115.748 11.5989 116.629 11.7969C117.509 12.0112 118.185 12.3781 118.67 12.8975C119.213 13.4469 119.448 14.1344 119.448 15.0052Z" fill="white"/>
</svg>
