<svg width="270" height="271" viewBox="0 0 270 271" fill="none" xmlns="http://www.w3.org/2000/svg">
<g filter="url(#filter0_d_1_33)">
<ellipse cx="135.01" cy="135.511" rx="47.5209" ry="47.3866" fill="#EDEDFF"/>
</g>
<g filter="url(#filter1_d_1_33)">
<ellipse cx="135.269" cy="135.16" rx="38.2691" ry="38.1609" fill="white"/>
<path d="M173.017 135.16C173.017 155.946 156.118 172.799 135.269 172.799C114.421 172.799 97.5222 155.946 97.5222 135.16C97.5222 114.374 114.421 97.5209 135.269 97.5209C156.118 97.5209 173.017 114.374 173.017 135.16Z" stroke="#E5E5FF" stroke-width="1.04368"/>
</g>
<path opacity="0.3" d="M239.093 137.286C239.093 194.59 192.505 241.059 135.018 241.059C77.5308 241.059 30.9427 194.59 30.9427 137.286C30.9427 79.9821 77.5308 33.5137 135.018 33.5137C192.505 33.5137 239.093 79.9821 239.093 137.286Z" stroke="#F9F9FC" stroke-width="5.87298"/>
<path opacity="0.6" d="M218.498 137.283C218.498 183.251 181.126 220.53 135.008 220.53C88.8891 220.53 51.5169 183.251 51.5169 137.283C51.5169 91.3156 88.8891 54.0371 135.008 54.0371C181.126 54.0371 218.498 91.3156 218.498 137.283Z" stroke="#F9F9FC" stroke-width="5.87298"/>
<path opacity="0.2" d="M103.958 233.951C85.7477 228.237 69.4761 217.613 56.9419 203.254C44.4079 188.894 36.0999 171.36 32.9351 152.59C29.7703 133.819 31.8718 114.544 39.0067 96.8929C46.1415 79.2422 58.0323 63.9032 73.3654 52.572C88.6986 41.2407 106.877 34.3585 125.892 32.6878C144.906 31.017 164.015 34.6229 181.105 43.1071C198.196 51.5913 212.601 64.6226 222.728 80.7595C232.855 96.8962 238.311 115.51 238.492 134.541" stroke="#E6E3FF" stroke-width="8.2414" stroke-linecap="round"/>
<path opacity="0.6" d="M155.488 217.269C138.32 221.542 120.24 220.334 103.797 213.815C87.3536 207.295 73.3775 195.793 63.8394 180.931C54.3013 166.069 49.6824 148.596 50.6339 130.977C51.5854 113.358 58.0592 96.481 69.1422 82.7267C80.2253 68.9723 95.3585 59.034 112.408 54.3133C129.458 49.5926 147.563 50.3276 164.172 56.4151C180.781 62.5025 195.054 73.6352 204.98 88.2433C214.905 102.851 219.982 120.197 219.494 137.835" stroke="#6754E2" stroke-opacity="0.36" stroke-width="8.2414" stroke-linecap="round"/>
<path d="M198.36 118.844C201.761 131.689 201.153 145.261 196.618 157.751C192.084 170.241 183.837 181.057 172.977 188.755C162.117 196.453 149.16 200.667 135.834 200.832C122.507 200.998 109.447 197.108 98.3948 189.681C87.3431 182.254 78.8268 171.645 73.9802 159.269C69.1336 146.894 68.1869 133.34 71.265 120.417C74.343 107.493 81.3 95.811 91.2091 86.9301C101.118 78.0491 113.509 72.3909 126.729 70.7122" stroke="#6754E2" stroke-width="8.2414" stroke-linecap="round"/>
<path fill-rule="evenodd" clip-rule="evenodd" d="M129.651 115.131C134.964 115.131 139.281 119.446 139.281 124.761C139.281 130.077 134.966 134.392 129.651 134.392C124.337 134.392 120.02 130.077 120.02 124.761C120.02 119.448 124.335 115.131 129.651 115.131ZM114 145.744C114.026 140.655 117.054 136.277 121.406 134.293C123.617 136.208 126.5 137.367 129.651 137.367C131.827 137.367 133.876 136.815 135.663 135.842C132.868 138.355 131.111 141.998 131.111 146.049C131.111 148.019 131.527 149.891 132.277 151.588H119.773C118.242 151.588 116.773 150.98 115.691 149.897C114.617 148.822 114.009 147.37 114 145.852V145.848C114.002 145.837 114.002 145.809 114.002 145.787C114.002 145.729 114 145.69 114 145.746L114 145.744Z" fill="#816EFD"/>
<path fill-rule="evenodd" clip-rule="evenodd" d="M129.651 115C134.965 115 139.282 119.315 139.282 124.63C139.282 129.944 134.967 134.261 129.651 134.261C124.338 134.261 120.021 129.946 120.021 124.63C120.021 119.315 124.336 115 129.651 115ZM129.651 117.976C125.978 117.976 122.997 120.957 122.997 124.63C122.997 128.304 125.978 131.285 129.651 131.285C133.325 131.285 136.306 128.304 136.306 124.63C136.306 120.957 133.325 117.976 129.651 117.976Z" fill="#816EFD"/>
<path fill-rule="evenodd" clip-rule="evenodd" d="M139.797 136.422C141.3 135.624 143.013 135.17 144.83 135.17C150.761 135.17 155.576 139.985 155.576 145.914C155.576 151.845 150.761 156.66 144.83 156.66C140.585 156.66 136.912 154.194 135.166 150.618C134.474 149.197 134.083 147.601 134.083 145.916C134.083 141.804 136.399 138.228 139.795 136.422L139.797 136.422ZM145.326 141.912C145.652 141.345 145.572 140.606 145.086 140.121C144.506 139.541 143.563 139.541 142.983 140.121L140.757 142.347C140.331 142.773 140.204 143.413 140.435 143.969C140.665 144.525 141.207 144.888 141.809 144.888H148.512C149.334 144.888 150 144.222 150 143.4C150 142.578 149.334 141.912 148.512 141.912H145.326ZM144.993 149.357C144.668 149.924 144.748 150.663 145.233 151.148C145.814 151.728 146.756 151.728 147.337 151.148L149.563 148.922C149.989 148.496 150.115 147.856 149.885 147.3C149.654 146.744 149.113 146.381 148.51 146.381H141.808C140.985 146.381 140.32 147.047 140.32 147.869C140.32 148.691 140.985 149.357 141.808 149.357H144.993Z" fill="#6653E2"/>
<defs>
<filter id="filter0_d_1_33" x="59.3094" y="74.5563" width="151.4" height="151.132" filterUnits="userSpaceOnUse" color-interpolation-filters="sRGB">
<feFlood flood-opacity="0" result="BackgroundImageFix"/>
<feColorMatrix in="SourceAlpha" type="matrix" values="0 0 0 0 0 0 0 0 0 0 0 0 0 0 0 0 0 0 127 0" result="hardAlpha"/>
<feOffset dy="14.6115"/>
<feGaussianBlur stdDeviation="14.0896"/>
<feColorMatrix type="matrix" values="0 0 0 0 0.1125 0 0 0 0 0.1125 0 0 0 0 0.1125 0 0 0 0.05 0"/>
<feBlend mode="normal" in2="BackgroundImageFix" result="effect1_dropShadow_1_33"/>
<feBlend mode="normal" in="SourceGraphic" in2="effect1_dropShadow_1_33" result="shape"/>
</filter>
<filter id="filter1_d_1_33" x="68.8211" y="83.4313" width="132.897" height="132.68" filterUnits="userSpaceOnUse" color-interpolation-filters="sRGB">
<feFlood flood-opacity="0" result="BackgroundImageFix"/>
<feColorMatrix in="SourceAlpha" type="matrix" values="0 0 0 0 0 0 0 0 0 0 0 0 0 0 0 0 0 0 127 0" result="hardAlpha"/>
<feOffset dy="14.6115"/>
<feGaussianBlur stdDeviation="14.0896"/>
<feColorMatrix type="matrix" values="0 0 0 0 0.1125 0 0 0 0 0.1125 0 0 0 0 0.1125 0 0 0 0.05 0"/>
<feBlend mode="normal" in2="BackgroundImageFix" result="effect1_dropShadow_1_33"/>
<feBlend mode="normal" in="SourceGraphic" in2="effect1_dropShadow_1_33" result="shape"/>
</filter>
</defs>
</svg>
