<svg width="76" height="17" viewBox="0 0 76 17" fill="none" xmlns="http://www.w3.org/2000/svg">
<path d="M5.75844 13H0.958438V11.832L2.33444 11.32V3.272L0.958438 2.744V1.576H5.75844V2.744L4.38244 3.272V11.32L5.75844 11.832V13ZM12.2563 4.168C13.227 4.168 13.9843 4.41867 14.5283 4.92C15.083 5.42133 15.3603 6.232 15.3603 7.352V13H13.3443V7.752C13.3443 7.10133 13.2163 6.616 12.9603 6.296C12.7043 5.96533 12.299 5.8 11.7443 5.8C10.9336 5.8 10.379 6.056 10.0803 6.568C9.78165 7.06933 9.63231 7.8 9.63231 8.76V13H7.61631V4.328H9.16831L9.45631 5.464H9.56831C9.76031 5.16533 9.99498 4.92 10.2723 4.728C10.5496 4.536 10.859 4.39733 11.2003 4.312C11.5416 4.216 11.8936 4.168 12.2563 4.168ZM23.7859 10.488C23.7859 11.064 23.6473 11.5547 23.3699 11.96C23.0926 12.3547 22.6819 12.6533 22.1379 12.856C21.6046 13.0587 20.9486 13.16 20.1699 13.16C19.5619 13.16 19.0393 13.1173 18.6019 13.032C18.1646 12.9467 17.7486 12.8133 17.3539 12.632V10.92C17.7806 11.1227 18.2553 11.2933 18.7779 11.432C19.3006 11.5707 19.7859 11.64 20.2339 11.64C20.7886 11.64 21.1886 11.5547 21.4339 11.384C21.6793 11.2133 21.8019 10.984 21.8019 10.696C21.8019 10.5253 21.7539 10.3707 21.6579 10.232C21.5619 10.0933 21.3753 9.94933 21.0979 9.8C20.8206 9.64 20.3993 9.44267 19.8339 9.208C19.2793 8.984 18.8153 8.76 18.4419 8.536C18.0793 8.312 17.8019 8.04533 17.6099 7.736C17.4286 7.416 17.3379 7.016 17.3379 6.536C17.3379 5.75733 17.6473 5.17067 18.2659 4.776C18.8846 4.37067 19.7006 4.168 20.7139 4.168C21.2473 4.168 21.7486 4.22133 22.2179 4.328C22.6979 4.424 23.1779 4.584 23.6579 4.808L23.0179 6.296C22.7513 6.17867 22.4846 6.07733 22.2179 5.992C21.9619 5.896 21.7006 5.82133 21.4339 5.768C21.1779 5.71467 20.9166 5.688 20.6499 5.688C20.2126 5.688 19.8819 5.75733 19.6579 5.896C19.4339 6.024 19.3219 6.20533 19.3219 6.44C19.3219 6.62133 19.3753 6.78133 19.4819 6.92C19.5993 7.048 19.7966 7.18133 20.0739 7.32C20.3619 7.448 20.7673 7.61867 21.2899 7.832C21.8126 8.03467 22.2553 8.248 22.6179 8.472C22.9913 8.68533 23.2793 8.952 23.4819 9.272C23.6846 9.592 23.7859 9.99733 23.7859 10.488ZM27.7417 4.328V13H25.7257V4.328H27.7417ZM26.7337 0.983999C27.0324 0.983999 27.2937 1.064 27.5177 1.224C27.7417 1.37333 27.8537 1.64533 27.8537 2.04C27.8537 2.424 27.7417 2.70133 27.5177 2.872C27.2937 3.032 27.0324 3.112 26.7337 3.112C26.4244 3.112 26.1577 3.032 25.9337 2.872C25.7204 2.70133 25.6137 2.424 25.6137 2.04C25.6137 1.64533 25.7204 1.37333 25.9337 1.224C26.1577 1.064 26.4244 0.983999 26.7337 0.983999ZM33.2314 4.168C33.7754 4.168 34.2661 4.27467 34.7034 4.488C35.1408 4.70133 35.5088 5.02133 35.8074 5.448H35.8874L36.0794 4.328H37.7594V13.064C37.7594 13.8853 37.6048 14.5733 37.2954 15.128C36.9861 15.6933 36.5221 16.12 35.9034 16.408C35.2848 16.696 34.5114 16.84 33.5834 16.84C32.9648 16.84 32.3941 16.7973 31.8714 16.712C31.3488 16.6373 30.8528 16.504 30.3834 16.312V14.648C30.7141 14.7867 31.0554 14.904 31.4074 15C31.7701 15.1067 32.1434 15.1867 32.5274 15.24C32.9114 15.2933 33.3061 15.32 33.7114 15.32C34.3728 15.32 34.8741 15.1333 35.2154 14.76C35.5674 14.3867 35.7434 13.8533 35.7434 13.16V12.936C35.7434 12.776 35.7488 12.5893 35.7594 12.376C35.7808 12.1627 35.7968 11.992 35.8074 11.864H35.7434C35.4448 12.312 35.0821 12.6427 34.6554 12.856C34.2288 13.0587 33.7381 13.16 33.1834 13.16C32.1274 13.16 31.3008 12.7653 30.7034 11.976C30.1061 11.1867 29.8074 10.088 29.8074 8.68C29.8074 7.73067 29.9408 6.92 30.2074 6.248C30.4848 5.576 30.8794 5.064 31.3914 4.712C31.9034 4.34933 32.5168 4.168 33.2314 4.168ZM33.7594 5.816C33.3541 5.816 33.0074 5.928 32.7194 6.152C32.4421 6.36533 32.2288 6.68533 32.0794 7.112C31.9408 7.53867 31.8714 8.072 31.8714 8.712C31.8714 9.65067 32.0314 10.36 32.3514 10.84C32.6714 11.32 33.1514 11.56 33.7914 11.56C34.1541 11.56 34.4634 11.5173 34.7194 11.432C34.9754 11.336 35.1834 11.1867 35.3434 10.984C35.5141 10.7707 35.6421 10.504 35.7274 10.184C35.8128 9.85333 35.8554 9.45867 35.8554 9V8.696C35.8554 8.00267 35.7808 7.448 35.6314 7.032C35.4821 6.60533 35.2528 6.296 34.9434 6.104C34.6448 5.912 34.2501 5.816 33.7594 5.816ZM42.3511 3.736C42.3511 4.07733 42.3351 4.41333 42.3031 4.744C42.2817 5.064 42.2604 5.304 42.2391 5.464H42.3671C42.5484 5.16533 42.7724 4.92533 43.0391 4.744C43.3057 4.552 43.5991 4.408 43.9191 4.312C44.2497 4.216 44.5911 4.168 44.9431 4.168C45.5937 4.168 46.1537 4.28 46.6231 4.504C47.0924 4.728 47.4497 5.07467 47.6951 5.544C47.9511 6.00267 48.0791 6.60533 48.0791 7.352V13H46.0631V7.752C46.0631 7.09067 45.9351 6.6 45.6791 6.28C45.4231 5.96 45.0177 5.8 44.4631 5.8C43.9297 5.8 43.5084 5.91733 43.1991 6.152C42.8897 6.376 42.6711 6.712 42.5431 7.16C42.4151 7.59733 42.3511 8.136 42.3511 8.776V13H40.3351V0.839999H42.3511V3.736ZM53.9607 11.544C54.2167 11.544 54.462 11.5227 54.6967 11.48C54.9314 11.4267 55.15 11.368 55.3527 11.304V12.808C55.1394 12.904 54.862 12.984 54.5207 13.048C54.1794 13.1227 53.822 13.16 53.4487 13.16C52.958 13.16 52.51 13.08 52.1047 12.92C51.71 12.7493 51.39 12.4613 51.1447 12.056C50.91 11.6507 50.7927 11.0853 50.7927 10.36V5.848H49.6247V4.968L50.9047 4.264L51.5447 2.424H52.8087V4.328H55.2727V5.848H52.8087V10.344C52.8087 10.7493 52.9154 11.0533 53.1287 11.256C53.342 11.448 53.6194 11.544 53.9607 11.544ZM61.5967 5.848H59.5007V13H57.4847V5.848H56.0927V4.888L57.4847 4.312V3.72C57.4847 2.97333 57.602 2.38667 57.8367 1.96C58.0714 1.53333 58.4127 1.22933 58.8607 1.048C59.3087 0.855999 59.8367 0.759999 60.4447 0.759999C60.8714 0.759999 61.2554 0.797333 61.5967 0.872C61.938 0.936 62.2207 1.01067 62.4447 1.096L61.9327 2.6C61.7514 2.54667 61.5487 2.49867 61.3247 2.456C61.1114 2.40267 60.8767 2.376 60.6207 2.376C60.2367 2.376 59.954 2.49867 59.7727 2.744C59.5914 2.98933 59.5007 3.33067 59.5007 3.768V4.328H61.5967V5.848ZM70.7342 4.328V13H69.1502L68.8782 11.88H68.7822C68.6009 12.1787 68.3662 12.424 68.0782 12.616C67.7902 12.7973 67.4755 12.9307 67.1342 13.016C66.7929 13.112 66.4409 13.16 66.0782 13.16C65.4382 13.16 64.8835 13.048 64.4142 12.824C63.9449 12.6 63.5875 12.2587 63.3422 11.8C63.0969 11.3307 62.9742 10.728 62.9742 9.992V4.328H64.9902V9.592C64.9902 10.232 65.1182 10.7173 65.3742 11.048C65.6302 11.368 66.0355 11.528 66.5902 11.528C67.1342 11.528 67.5609 11.416 67.8702 11.192C68.1795 10.9573 68.3982 10.6213 68.5262 10.184C68.6542 9.74667 68.7182 9.208 68.7182 8.568V4.328H70.7342ZM75.3198 13H73.3038V0.839999H75.3198V13Z" fill="#00234B"/>
</svg>
