<svg width="49" height="14" viewBox="0 0 49 14" fill="none" xmlns="http://www.w3.org/2000/svg">
<path d="M5.69338 13H3.64538V3.304H0.365375V1.576H8.97338V3.304H5.69338V13ZM14.2775 4.168C14.4055 4.168 14.5548 4.17333 14.7255 4.184C14.8962 4.19467 15.0402 4.216 15.1575 4.248L14.9815 6.12C14.8855 6.09867 14.7575 6.08267 14.5975 6.072C14.4482 6.05067 14.3148 6.04 14.1975 6.04C13.8775 6.04 13.5682 6.09333 13.2695 6.2C12.9815 6.296 12.7202 6.44533 12.4855 6.648C12.2615 6.84 12.0802 7.09067 11.9415 7.4C11.8135 7.70933 11.7495 8.07733 11.7495 8.504V13H9.7335V4.328H11.2855L11.5735 5.832H11.6695C11.8402 5.52267 12.0535 5.24533 12.3095 5C12.5655 4.744 12.8588 4.54133 13.1895 4.392C13.5308 4.24267 13.8935 4.168 14.2775 4.168ZM24.4608 4.328V13H22.8768L22.6048 11.88H22.5088C22.3274 12.1787 22.0928 12.424 21.8048 12.616C21.5168 12.7973 21.2021 12.9307 20.8608 13.016C20.5194 13.112 20.1674 13.16 19.8048 13.16C19.1648 13.16 18.6101 13.048 18.1408 12.824C17.6714 12.6 17.3141 12.2587 17.0688 11.8C16.8234 11.3307 16.7008 10.728 16.7008 9.992V4.328H18.7168V9.592C18.7168 10.232 18.8448 10.7173 19.1008 11.048C19.3568 11.368 19.7621 11.528 20.3168 11.528C20.8608 11.528 21.2874 11.416 21.5968 11.192C21.9061 10.9573 22.1248 10.6213 22.2528 10.184C22.3808 9.74667 22.4448 9.208 22.4448 8.568V4.328H24.4608ZM30.5184 4.168C31.297 4.168 31.9637 4.328 32.5184 4.648C33.0837 4.95733 33.521 5.40533 33.8304 5.992C34.1397 6.568 34.2944 7.272 34.2944 8.104V9.128H28.5664C28.5877 9.91733 28.8064 10.5307 29.2224 10.968C29.6384 11.3947 30.2144 11.608 30.9504 11.608C31.5157 11.608 32.017 11.5547 32.4544 11.448C32.9024 11.3307 33.361 11.1653 33.8304 10.952V12.568C33.4037 12.7707 32.961 12.92 32.5024 13.016C32.0437 13.112 31.4944 13.16 30.8544 13.16C30.0117 13.16 29.2597 13 28.5984 12.68C27.9477 12.3493 27.4357 11.8533 27.0624 11.192C26.6997 10.5307 26.5184 9.70933 26.5184 8.728C26.5184 7.736 26.6837 6.904 27.0144 6.232C27.3557 5.54933 27.825 5.03733 28.4224 4.696C29.0197 4.344 29.7184 4.168 30.5184 4.168ZM30.5184 5.656C29.985 5.656 29.5477 5.832 29.2064 6.184C28.8757 6.52533 28.6784 7.03733 28.6144 7.72H32.3424C32.3424 7.31467 32.273 6.95733 32.1344 6.648C32.0064 6.33867 31.809 6.09867 31.5424 5.928C31.2757 5.74667 30.9344 5.656 30.5184 5.656ZM38.3433 4.328V13H36.3273V4.328H38.3433ZM37.3353 0.983999C37.6339 0.983999 37.8953 1.064 38.1193 1.224C38.3433 1.37333 38.4553 1.64533 38.4553 2.04C38.4553 2.424 38.3433 2.70133 38.1193 2.872C37.8953 3.032 37.6339 3.112 37.3353 3.112C37.0259 3.112 36.7593 3.032 36.5353 2.872C36.3219 2.70133 36.2153 2.424 36.2153 2.04C36.2153 1.64533 36.3219 1.37333 36.5353 1.224C36.7593 1.064 37.0259 0.983999 37.3353 0.983999ZM45.561 4.168C46.5317 4.168 47.289 4.41867 47.833 4.92C48.3877 5.42133 48.665 6.232 48.665 7.352V13H46.649V7.752C46.649 7.10133 46.521 6.616 46.265 6.296C46.009 5.96533 45.6037 5.8 45.049 5.8C44.2383 5.8 43.6837 6.056 43.385 6.568C43.0863 7.06933 42.937 7.8 42.937 8.76V13H40.921V4.328H42.473L42.761 5.464H42.873C43.065 5.16533 43.2997 4.92 43.577 4.728C43.8543 4.536 44.1637 4.39733 44.505 4.312C44.8463 4.216 45.1983 4.168 45.561 4.168Z" fill="#00234B"/>
</svg>
