<svg width="96" height="14" viewBox="0 0 96 14" fill="none" xmlns="http://www.w3.org/2000/svg">
<path d="M5.79494 13H3.74694V3.304H0.466938V1.576H9.07494V3.304H5.79494V13ZM12.6479 4.328V13H10.6319V4.328H12.6479ZM11.6399 0.983999C11.9386 0.983999 12.1999 1.064 12.4239 1.224C12.6479 1.37333 12.7599 1.64533 12.7599 2.04C12.7599 2.424 12.6479 2.70133 12.4239 2.872C12.1999 3.032 11.9386 3.112 11.6399 3.112C11.3306 3.112 11.0639 3.032 10.8399 2.872C10.6266 2.70133 10.5199 2.424 10.5199 2.04C10.5199 1.64533 10.6266 1.37333 10.8399 1.224C11.0639 1.064 11.3306 0.983999 11.6399 0.983999ZM25.1617 4.168C26.143 4.168 26.879 4.41867 27.3697 4.92C27.871 5.42133 28.1217 6.232 28.1217 7.352V13H26.1057V7.736C26.1057 7.096 25.9884 6.616 25.7537 6.296C25.519 5.96533 25.1457 5.8 24.6337 5.8C23.9297 5.8 23.4284 6.02933 23.1297 6.488C22.831 6.94667 22.6817 7.61333 22.6817 8.488V13H20.6657V7.736C20.6657 7.30933 20.6124 6.952 20.5057 6.664C20.399 6.376 20.2337 6.16267 20.0097 6.024C19.7964 5.87467 19.519 5.8 19.1777 5.8C18.6977 5.8 18.3137 5.91733 18.0257 6.152C17.7377 6.376 17.535 6.70667 17.4177 7.144C17.3004 7.58133 17.2417 8.12 17.2417 8.76V13H15.2257V4.328H16.7777L17.0657 5.464H17.1777C17.359 5.16533 17.5777 4.92 17.8337 4.728C18.1004 4.536 18.3937 4.39733 18.7137 4.312C19.0444 4.216 19.375 4.168 19.7057 4.168C20.3564 4.168 20.9057 4.28 21.3537 4.504C21.8017 4.71733 22.1377 5.05333 22.3617 5.512H22.5217C22.7884 5.04267 23.1617 4.70133 23.6417 4.488C24.1324 4.27467 24.639 4.168 25.1617 4.168ZM34.1356 4.168C34.9142 4.168 35.5809 4.328 36.1356 4.648C36.7009 4.95733 37.1382 5.40533 37.4476 5.992C37.7569 6.568 37.9116 7.272 37.9116 8.104V9.128H32.1836C32.2049 9.91733 32.4236 10.5307 32.8396 10.968C33.2556 11.3947 33.8316 11.608 34.5676 11.608C35.1329 11.608 35.6342 11.5547 36.0716 11.448C36.5196 11.3307 36.9782 11.1653 37.4476 10.952V12.568C37.0209 12.7707 36.5782 12.92 36.1196 13.016C35.6609 13.112 35.1116 13.16 34.4716 13.16C33.6289 13.16 32.8769 13 32.2156 12.68C31.5649 12.3493 31.0529 11.8533 30.6796 11.192C30.3169 10.5307 30.1356 9.70933 30.1356 8.728C30.1356 7.736 30.3009 6.904 30.6316 6.232C30.9729 5.54933 31.4422 5.03733 32.0396 4.696C32.6369 4.344 33.3356 4.168 34.1356 4.168ZM34.1356 5.656C33.6022 5.656 33.1649 5.832 32.8236 6.184C32.4929 6.52533 32.2956 7.03733 32.2316 7.72H35.9596C35.9596 7.31467 35.8902 6.95733 35.7516 6.648C35.6236 6.33867 35.4262 6.09867 35.1596 5.928C34.8929 5.74667 34.5516 5.656 34.1356 5.656ZM53.6367 7.176C53.6367 8.456 53.3914 9.528 52.9007 10.392C52.4207 11.256 51.722 11.9067 50.8047 12.344C49.898 12.7813 48.7994 13 47.5087 13H44.2927V1.576H47.8447C49.0287 1.576 50.0527 1.78933 50.9167 2.216C51.7807 2.64267 52.4474 3.272 52.9167 4.104C53.3967 4.92533 53.6367 5.94933 53.6367 7.176ZM51.4927 7.24C51.4927 6.33333 51.354 5.58667 51.0767 5C50.7994 4.41333 50.3887 3.98133 49.8447 3.704C49.3007 3.416 48.634 3.272 47.8447 3.272H46.3407V11.288H47.5727C48.8954 11.288 49.8767 10.952 50.5167 10.28C51.1674 9.59733 51.4927 8.584 51.4927 7.24ZM63.6259 8.648C63.6259 9.37333 63.5299 10.0133 63.3379 10.568C63.1459 11.1227 62.8686 11.5973 62.5059 11.992C62.1539 12.376 61.7166 12.6693 61.1939 12.872C60.6819 13.064 60.1113 13.16 59.4819 13.16C58.8846 13.16 58.3353 13.064 57.8339 12.872C57.3326 12.6693 56.8953 12.376 56.5219 11.992C56.1593 11.5973 55.8766 11.1227 55.6739 10.568C55.4713 10.0133 55.3699 9.37333 55.3699 8.648C55.3699 7.688 55.5353 6.87733 55.8659 6.216C56.1966 5.544 56.6713 5.03733 57.2899 4.696C57.9193 4.344 58.6606 4.168 59.5139 4.168C60.3246 4.168 61.0339 4.344 61.6419 4.696C62.2606 5.03733 62.7459 5.544 63.0979 6.216C63.4499 6.87733 63.6259 7.688 63.6259 8.648ZM57.4339 8.648C57.4339 9.256 57.5033 9.77867 57.6419 10.216C57.7913 10.6427 58.0153 10.968 58.3139 11.192C58.6233 11.416 59.0179 11.528 59.4979 11.528C59.9886 11.528 60.3833 11.416 60.6819 11.192C60.9913 10.968 61.2153 10.6427 61.3539 10.216C61.4926 9.77867 61.5619 9.256 61.5619 8.648C61.5619 8.02933 61.4873 7.512 61.3379 7.096C61.1993 6.66933 60.9753 6.34933 60.6659 6.136C60.3673 5.912 59.9779 5.8 59.4979 5.8C58.7726 5.8 58.2446 6.04533 57.9139 6.536C57.5939 7.02667 57.4339 7.73067 57.4339 8.648ZM69.2141 13.16C68.3927 13.16 67.6781 13.0053 67.0701 12.696C66.4727 12.376 66.0087 11.8907 65.6781 11.24C65.3581 10.5787 65.1981 9.736 65.1981 8.712C65.1981 7.64533 65.3741 6.78133 65.7261 6.12C66.0887 5.448 66.5847 4.95733 67.2141 4.648C67.8434 4.328 68.5634 4.168 69.3741 4.168C69.9181 4.168 70.4034 4.22133 70.8301 4.328C71.2567 4.43467 71.6194 4.56267 71.9181 4.712L71.3261 6.296C70.9954 6.168 70.6647 6.06133 70.3341 5.976C70.0034 5.88 69.6834 5.832 69.3741 5.832C68.8941 5.832 68.4941 5.93867 68.1741 6.152C67.8647 6.36533 67.6354 6.68533 67.4861 7.112C67.3367 7.528 67.2621 8.056 67.2621 8.696C67.2621 9.31467 67.3367 9.832 67.4861 10.248C67.6461 10.664 67.8807 10.9787 68.1901 11.192C68.4994 11.3947 68.8834 11.496 69.3421 11.496C69.8327 11.496 70.2647 11.4373 70.6381 11.32C71.0114 11.2027 71.3634 11.0427 71.6941 10.84V12.584C71.3634 12.7867 71.0061 12.9307 70.6221 13.016C70.2487 13.112 69.7794 13.16 69.2141 13.16ZM77.0857 11.544C77.3417 11.544 77.587 11.5227 77.8217 11.48C78.0564 11.4267 78.275 11.368 78.4777 11.304V12.808C78.2644 12.904 77.987 12.984 77.6457 13.048C77.3044 13.1227 76.947 13.16 76.5737 13.16C76.083 13.16 75.635 13.08 75.2297 12.92C74.835 12.7493 74.515 12.4613 74.2697 12.056C74.035 11.6507 73.9177 11.0853 73.9177 10.36V5.848H72.7497V4.968L74.0297 4.264L74.6697 2.424H75.9337V4.328H78.3977V5.848H75.9337V10.344C75.9337 10.7493 76.0404 11.0533 76.2537 11.256C76.467 11.448 76.7444 11.544 77.0857 11.544ZM87.9697 8.648C87.9697 9.37333 87.8737 10.0133 87.6817 10.568C87.4897 11.1227 87.2124 11.5973 86.8497 11.992C86.4977 12.376 86.0604 12.6693 85.5377 12.872C85.0257 13.064 84.455 13.16 83.8257 13.16C83.2284 13.16 82.679 13.064 82.1777 12.872C81.6764 12.6693 81.239 12.376 80.8657 11.992C80.503 11.5973 80.2204 11.1227 80.0177 10.568C79.815 10.0133 79.7137 9.37333 79.7137 8.648C79.7137 7.688 79.879 6.87733 80.2097 6.216C80.5404 5.544 81.015 5.03733 81.6337 4.696C82.263 4.344 83.0044 4.168 83.8577 4.168C84.6684 4.168 85.3777 4.344 85.9857 4.696C86.6044 5.03733 87.0897 5.544 87.4417 6.216C87.7937 6.87733 87.9697 7.688 87.9697 8.648ZM81.7777 8.648C81.7777 9.256 81.847 9.77867 81.9857 10.216C82.135 10.6427 82.359 10.968 82.6577 11.192C82.967 11.416 83.3617 11.528 83.8417 11.528C84.3324 11.528 84.727 11.416 85.0257 11.192C85.335 10.968 85.559 10.6427 85.6977 10.216C85.8364 9.77867 85.9057 9.256 85.9057 8.648C85.9057 8.02933 85.831 7.512 85.6817 7.096C85.543 6.66933 85.319 6.34933 85.0097 6.136C84.711 5.912 84.3217 5.8 83.8417 5.8C83.1164 5.8 82.5884 6.04533 82.2577 6.536C81.9377 7.02667 81.7777 7.73067 81.7777 8.648ZM94.5978 4.168C94.7258 4.168 94.8751 4.17333 95.0458 4.184C95.2165 4.19467 95.3605 4.216 95.4778 4.248L95.3018 6.12C95.2058 6.09867 95.0778 6.08267 94.9178 6.072C94.7685 6.05067 94.6351 6.04 94.5178 6.04C94.1978 6.04 93.8885 6.09333 93.5898 6.2C93.3018 6.296 93.0405 6.44533 92.8058 6.648C92.5818 6.84 92.4005 7.09067 92.2618 7.4C92.1338 7.70933 92.0698 8.07733 92.0698 8.504V13H90.0538V4.328H91.6058L91.8938 5.832H91.9898C92.1605 5.52267 92.3738 5.24533 92.6298 5C92.8858 4.744 93.1791 4.54133 93.5098 4.392C93.8511 4.24267 94.2138 4.168 94.5978 4.168Z" fill="#00234B"/>
</svg>
