<svg width="73" height="14" viewBox="0 0 73 14" fill="none" xmlns="http://www.w3.org/2000/svg">
<path d="M5.72463 13H3.67663V3.304H0.396625V1.576H9.00463V3.304H5.72463V13ZM12.9246 4.168C13.7033 4.168 14.37 4.328 14.9246 4.648C15.49 4.95733 15.9273 5.40533 16.2366 5.992C16.546 6.568 16.7006 7.272 16.7006 8.104V9.128H10.9726C10.994 9.91733 11.2126 10.5307 11.6286 10.968C12.0446 11.3947 12.6206 11.608 13.3566 11.608C13.922 11.608 14.4233 11.5547 14.8606 11.448C15.3086 11.3307 15.7673 11.1653 16.2366 10.952V12.568C15.81 12.7707 15.3673 12.92 14.9086 13.016C14.45 13.112 13.9006 13.16 13.2606 13.16C12.418 13.16 11.666 13 11.0046 12.68C10.354 12.3493 9.84196 11.8533 9.46863 11.192C9.10596 10.5307 8.92463 9.70933 8.92463 8.728C8.92463 7.736 9.08996 6.904 9.42063 6.232C9.76196 5.54933 10.2313 5.03733 10.8286 4.696C11.426 4.344 12.1246 4.168 12.9246 4.168ZM12.9246 5.656C12.3913 5.656 11.954 5.832 11.6126 6.184C11.282 6.52533 11.0846 7.03733 11.0206 7.72H14.7486C14.7486 7.31467 14.6793 6.95733 14.5406 6.648C14.4126 6.33867 14.2153 6.09867 13.9486 5.928C13.682 5.74667 13.3406 5.656 12.9246 5.656ZM23.2775 4.168C23.4055 4.168 23.5548 4.17333 23.7255 4.184C23.8962 4.19467 24.0402 4.216 24.1575 4.248L23.9815 6.12C23.8855 6.09867 23.7575 6.08267 23.5975 6.072C23.4482 6.05067 23.3148 6.04 23.1975 6.04C22.8775 6.04 22.5682 6.09333 22.2695 6.2C21.9815 6.296 21.7202 6.44533 21.4855 6.648C21.2615 6.84 21.0802 7.09067 20.9415 7.4C20.8135 7.70933 20.7495 8.07733 20.7495 8.504V13H18.7335V4.328H20.2855L20.5735 5.832H20.6695C20.8402 5.52267 21.0535 5.24533 21.3095 5C21.5655 4.744 21.8588 4.54133 22.1895 4.392C22.5308 4.24267 22.8935 4.168 23.2775 4.168ZM28.9083 4.168C30.0283 4.168 30.8763 4.41333 31.4523 4.904C32.0389 5.384 32.3323 6.14133 32.3323 7.176V13H30.9083L30.5083 11.8H30.4443C30.1989 12.1093 29.9429 12.3707 29.6763 12.584C29.4203 12.7867 29.1216 12.9307 28.7803 13.016C28.4496 13.112 28.0443 13.16 27.5643 13.16C27.0523 13.16 26.5883 13.064 26.1723 12.872C25.7669 12.68 25.4469 12.3867 25.2122 11.992C24.9776 11.5867 24.8603 11.08 24.8603 10.472C24.8603 9.576 25.1856 8.904 25.8363 8.456C26.4976 7.99733 27.4949 7.74667 28.8283 7.704L30.3323 7.656V7.224C30.3323 6.66933 30.1989 6.27467 29.9323 6.04C29.6656 5.80533 29.2923 5.688 28.8123 5.688C28.3749 5.688 27.9536 5.752 27.5483 5.88C27.1429 6.008 26.7483 6.15733 26.3643 6.328L25.7243 4.92C26.1509 4.696 26.6363 4.51467 27.1803 4.376C27.7349 4.23733 28.3109 4.168 28.9083 4.168ZM29.2763 8.936C28.3909 8.968 27.7776 9.12267 27.4363 9.4C27.0949 9.66667 26.9243 10.0293 26.9243 10.488C26.9243 10.8933 27.0469 11.1867 27.2923 11.368C27.5376 11.5493 27.8523 11.64 28.2363 11.64C28.8229 11.64 29.3189 11.4747 29.7243 11.144C30.1296 10.8027 30.3323 10.3013 30.3323 9.64V8.904L29.2763 8.936ZM44.7945 4.168C45.7758 4.168 46.5118 4.41867 47.0025 4.92C47.5038 5.42133 47.7545 6.232 47.7545 7.352V13H45.7385V7.736C45.7385 7.096 45.6212 6.616 45.3865 6.296C45.1518 5.96533 44.7785 5.8 44.2665 5.8C43.5625 5.8 43.0612 6.02933 42.7625 6.488C42.4638 6.94667 42.3145 7.61333 42.3145 8.488V13H40.2985V7.736C40.2985 7.30933 40.2452 6.952 40.1385 6.664C40.0318 6.376 39.8665 6.16267 39.6425 6.024C39.4292 5.87467 39.1518 5.8 38.8105 5.8C38.3305 5.8 37.9465 5.91733 37.6585 6.152C37.3705 6.376 37.1678 6.70667 37.0505 7.144C36.9332 7.58133 36.8745 8.12 36.8745 8.76V13H34.8585V4.328H36.4105L36.6985 5.464H36.8105C36.9918 5.16533 37.2105 4.92 37.4665 4.728C37.7332 4.536 38.0265 4.39733 38.3465 4.312C38.6772 4.216 39.0078 4.168 39.3385 4.168C39.9892 4.168 40.5385 4.28 40.9865 4.504C41.4345 4.71733 41.7705 5.05333 41.9945 5.512H42.1545C42.4212 5.04267 42.7945 4.70133 43.2745 4.488C43.7652 4.27467 44.2718 4.168 44.7945 4.168ZM52.2964 4.328V13H50.2804V4.328H52.2964ZM51.2884 0.983999C51.587 0.983999 51.8484 1.064 52.0724 1.224C52.2964 1.37333 52.4084 1.64533 52.4084 2.04C52.4084 2.424 52.2964 2.70133 52.0724 2.872C51.8484 3.032 51.587 3.112 51.2884 3.112C50.979 3.112 50.7124 3.032 50.4884 2.872C50.275 2.70133 50.1684 2.424 50.1684 2.04C50.1684 1.64533 50.275 1.37333 50.4884 1.224C50.7124 1.064 50.979 0.983999 51.2884 0.983999ZM59.5141 4.168C60.4848 4.168 61.2421 4.41867 61.7861 4.92C62.3408 5.42133 62.6181 6.232 62.6181 7.352V13H60.6021V7.752C60.6021 7.10133 60.4741 6.616 60.2181 6.296C59.9621 5.96533 59.5568 5.8 59.0021 5.8C58.1915 5.8 57.6368 6.056 57.3381 6.568C57.0395 7.06933 56.8901 7.8 56.8901 8.76V13H54.8741V4.328H56.4261L56.7141 5.464H56.8261C57.0181 5.16533 57.2528 4.92 57.5301 4.728C57.8075 4.536 58.1168 4.39733 58.4581 4.312C58.7995 4.216 59.1515 4.168 59.5141 4.168ZM68.0038 13.16C67.0011 13.16 66.1851 12.7867 65.5558 12.04C64.9371 11.2827 64.6278 10.1627 64.6278 8.68C64.6278 7.19733 64.9424 6.07733 65.5718 5.32C66.2011 4.552 67.0278 4.168 68.0518 4.168C68.4784 4.168 68.8518 4.22667 69.1718 4.344C69.5024 4.45067 69.7851 4.6 70.0198 4.792C70.2544 4.984 70.4518 5.19733 70.6118 5.432H70.7078C70.6758 5.28267 70.6438 5.05333 70.6118 4.744C70.5798 4.43467 70.5638 4.14667 70.5638 3.88V0.839999H72.5798V13H71.0118L70.6438 11.864H70.5638C70.4038 12.0987 70.2064 12.3173 69.9718 12.52C69.7371 12.712 69.4598 12.8667 69.1398 12.984C68.8198 13.1013 68.4411 13.16 68.0038 13.16ZM68.6118 11.528C69.3584 11.528 69.8864 11.3147 70.1958 10.888C70.5051 10.4613 70.6598 9.816 70.6598 8.952V8.696C70.6598 7.75733 70.5104 7.04267 70.2118 6.552C69.9238 6.06133 69.3798 5.816 68.5798 5.816C67.9718 5.816 67.5024 6.072 67.1718 6.584C66.8411 7.08533 66.6758 7.79467 66.6758 8.712C66.6758 9.62933 66.8411 10.328 67.1718 10.808C67.5024 11.288 67.9824 11.528 68.6118 11.528Z" fill="#00234B"/>
</svg>
