<svg width="200" height="27" viewBox="0 0 200 27" fill="none" xmlns="http://www.w3.org/2000/svg">
<path d="M115.482 24.2087C114.252 24.2087 113.203 24.0751 112.337 23.8078C111.471 23.5629 110.639 23.2623 109.842 22.906V19.0982C110.366 19.4322 110.913 19.7551 111.483 20.0669C112.075 20.3563 112.702 20.5902 113.363 20.7683C114.046 20.9464 114.776 21.0355 115.551 21.0355C116.462 21.0355 117.135 20.8685 117.568 20.5345C118.023 20.1782 118.251 19.7551 118.251 19.2652C118.251 18.7976 118.08 18.4413 117.738 18.1964C117.397 17.9292 116.952 17.7065 116.405 17.5284C115.858 17.3502 115.277 17.1721 114.662 16.9939C114.092 16.8603 113.511 16.6822 112.918 16.4595C112.349 16.2368 111.825 15.9362 111.346 15.5577C110.867 15.1791 110.48 14.7004 110.184 14.1214C109.91 13.5202 109.773 12.7965 109.773 11.9503C109.773 10.9483 109.979 10.1021 110.389 9.41179C110.799 8.72149 111.335 8.1648 111.995 7.74172C112.656 7.31863 113.386 7.01802 114.183 6.83988C114.981 6.63947 115.756 6.53926 116.508 6.53926C117.807 6.5838 118.855 6.73967 119.653 7.00688C120.45 7.25183 121.202 7.57471 121.909 7.97553L121.943 11.4159C121.145 10.9928 120.371 10.6142 119.619 10.2802C118.867 9.92395 118.012 9.74581 117.055 9.74581C116.166 9.74581 115.471 9.90168 114.969 10.2134C114.491 10.5029 114.252 10.9149 114.252 11.4493C114.252 11.9169 114.4 12.2955 114.696 12.5849C114.992 12.8744 115.38 13.0971 115.858 13.253C116.337 13.4088 116.861 13.5647 117.431 13.7206C118.001 13.8765 118.593 14.0546 119.208 14.255C119.824 14.4332 120.393 14.7004 120.918 15.0566C121.442 15.4129 121.863 15.8917 122.182 16.4929C122.524 17.0719 122.695 17.8512 122.695 18.831C122.672 20.1225 122.319 21.1691 121.635 21.9708C120.952 22.7501 120.052 23.318 118.935 23.6742C117.841 24.0305 116.69 24.2087 115.482 24.2087Z" fill="white"/>
<path d="M132.015 24.2421C130.237 24.2421 128.881 23.819 127.947 22.9728C127.013 22.1044 126.545 20.8574 126.545 19.2318V10.2134H123.879V6.87328H126.545V2.23047H131.024V6.87328H135.023V10.2134H131.024V18.5638C131.024 19.2541 131.16 19.7663 131.434 20.1003C131.707 20.4343 132.186 20.6013 132.87 20.6013C133.234 20.6013 133.61 20.5456 133.998 20.4343C134.408 20.3007 134.75 20.1448 135.023 19.9667V23.6408C134.567 23.8635 134.066 24.0194 133.519 24.1085C132.995 24.1975 132.494 24.2421 132.015 24.2421Z" fill="white"/>
<path d="M144.268 24.2087C143.311 24.2087 142.399 24.1196 141.533 23.9414C140.667 23.7633 139.892 23.4738 139.209 23.073C138.525 22.6499 137.978 22.0821 137.568 21.3695C137.18 20.6347 136.987 19.7217 136.987 18.6306C136.987 17.495 137.226 16.5374 137.705 15.7581C138.183 14.9564 138.878 14.3552 139.79 13.9544C140.724 13.5313 141.864 13.3198 143.208 13.3198C144.029 13.3198 144.792 13.3977 145.499 13.5536C146.205 13.6872 146.843 13.8765 147.413 14.1214C147.983 14.3663 148.45 14.6336 148.815 14.923L149.122 17.2945C148.644 16.9828 148.028 16.7379 147.276 16.5597C146.547 16.3593 145.749 16.2591 144.883 16.2591C143.676 16.2591 142.775 16.4484 142.183 16.8269C141.59 17.2055 141.294 17.7956 141.294 18.5972C141.294 19.1539 141.454 19.6215 141.773 20.0001C142.092 20.3564 142.502 20.6347 143.003 20.8351C143.505 21.0132 144.029 21.1023 144.576 21.1023C145.829 21.1023 146.729 21.0244 147.276 20.8685C147.846 20.6904 148.131 20.3229 148.131 19.7663V13.1194C148.131 12.0282 147.778 11.2377 147.071 10.7479C146.365 10.2357 145.373 9.97962 144.097 9.97962C143.117 9.97962 142.114 10.1466 141.089 10.4806C140.063 10.7924 139.232 11.2043 138.593 11.7165V7.87532C139.209 7.49677 140.132 7.16276 141.362 6.87328C142.593 6.5838 143.915 6.43906 145.328 6.43906C145.92 6.43906 146.547 6.49473 147.208 6.60606C147.869 6.7174 148.496 6.89555 149.088 7.14049C149.703 7.38543 150.262 7.73058 150.763 8.17594C151.264 8.59902 151.663 9.14458 151.96 9.81261C152.256 10.4584 152.404 11.2489 152.404 12.1841V20.1671C152.404 21.2137 152.062 22.0376 151.378 22.6388C150.695 23.2177 149.749 23.6186 148.541 23.8412C147.333 24.0862 145.909 24.2087 144.268 24.2087Z" fill="white"/>
<path d="M162.605 24.2421C160.827 24.2421 159.471 23.819 158.537 22.9728C157.602 22.1044 157.135 20.8574 157.135 19.2318V10.2134H154.469V6.87328H157.135V2.23047H161.613V6.87328H165.613V10.2134H161.613V18.5638C161.613 19.2541 161.75 19.7663 162.024 20.1003C162.297 20.4343 162.776 20.6013 163.459 20.6013C163.824 20.6013 164.2 20.5456 164.588 20.4343C164.998 20.3007 165.34 20.1448 165.613 19.9667V23.6408C165.157 23.8635 164.656 24.0194 164.109 24.1085C163.585 24.1975 163.083 24.2421 162.605 24.2421Z" fill="white"/>
<path d="M176.294 24.2087C174.698 24.2087 173.308 23.9637 172.123 23.4738C170.961 22.9617 170.049 22.2046 169.388 21.2025C168.75 20.2005 168.431 18.9201 168.431 17.3614V6.87328H172.773V16.9271C172.773 18.1741 173.057 19.0982 173.627 19.6995C174.197 20.3007 175.086 20.6013 176.294 20.6013C177.547 20.6013 178.447 20.3007 178.994 19.6995C179.564 19.0982 179.849 18.1741 179.849 16.9271V6.87328H183.951V17.3614C183.951 19.6772 183.267 21.4029 181.9 22.5386C180.555 23.652 178.687 24.2087 176.294 24.2087Z" fill="white"/>
<path d="M192.591 24.2087C191.36 24.2087 190.312 24.0751 189.446 23.8078C188.58 23.5629 187.748 23.2623 186.951 22.906V19.0982C187.475 19.4322 188.022 19.7551 188.591 20.0669C189.184 20.3563 189.811 20.5902 190.472 20.7683C191.155 20.9464 191.885 21.0355 192.659 21.0355C193.571 21.0355 194.243 20.8685 194.676 20.5345C195.132 20.1782 195.36 19.7551 195.36 19.2652C195.36 18.7976 195.189 18.4413 194.847 18.1964C194.505 17.9292 194.061 17.7065 193.514 17.5284C192.967 17.3502 192.386 17.1721 191.771 16.9939C191.201 16.8603 190.62 16.6822 190.027 16.4595C189.457 16.2368 188.933 15.9362 188.455 15.5577C187.976 15.1791 187.589 14.7004 187.292 14.1214C187.019 13.5202 186.882 12.7965 186.882 11.9503C186.882 10.9483 187.087 10.1021 187.498 9.41179C187.908 8.72149 188.443 8.1648 189.104 7.74172C189.765 7.31863 190.494 7.01802 191.292 6.83988C192.09 6.63947 192.865 6.53926 193.617 6.53926C194.916 6.5838 195.964 6.73967 196.762 7.00688C197.559 7.25183 198.311 7.57471 199.018 7.97553L199.052 11.4159C198.254 10.9928 197.479 10.6142 196.727 10.2802C195.975 9.92395 195.121 9.74581 194.164 9.74581C193.275 9.74581 192.58 9.90168 192.078 10.2134C191.6 10.5029 191.36 10.9149 191.36 11.4493C191.36 11.9169 191.509 12.2955 191.805 12.5849C192.101 12.8744 192.489 13.0971 192.967 13.253C193.446 13.4088 193.97 13.5647 194.54 13.7206C195.109 13.8765 195.702 14.0546 196.317 14.255C196.933 14.4332 197.502 14.7004 198.026 15.0566C198.551 15.4129 198.972 15.8917 199.291 16.4929C199.633 17.0719 199.804 17.8512 199.804 18.831C199.781 20.1225 199.428 21.1691 198.744 21.9708C198.061 22.7501 197.16 23.318 196.044 23.6742C194.95 24.0305 193.799 24.2087 192.591 24.2087Z" fill="white"/>
<path d="M39.1297 23.708L33.3867 6.87363H38.0358L42.138 20.8689L40.8048 21.0025L44.736 6.87363H48.0861L51.9489 20.6016H50.8892L54.923 6.87363H59.4353L53.6923 23.708H49.7269L45.9666 11.6834L46.7187 11.8839L43.1293 23.708H39.1297Z" fill="white"/>
<path d="M68.1211 24.209C65.2952 24.209 63.1758 23.4408 61.7628 21.9043C60.3499 20.3678 59.6434 18.1522 59.6434 15.2574C59.6434 12.1622 60.3613 9.91317 61.797 8.5103C63.2555 7.10744 65.3522 6.40601 68.087 6.40601C70.0013 6.40601 71.5966 6.74002 72.8728 7.40805C74.149 8.05381 75.0948 9.03359 75.7101 10.3474C76.3482 11.6612 76.6673 13.2979 76.6673 15.2574C76.6673 18.1522 75.9266 20.3678 74.4453 21.9043C72.9867 23.4408 70.8787 24.209 68.1211 24.209ZM68.1211 20.7353C69.1239 20.7353 69.9329 20.5126 70.5482 20.0672C71.1864 19.6219 71.6535 18.9984 71.9498 18.1967C72.2461 17.3728 72.3942 16.3931 72.3942 15.2574C72.3942 13.9881 72.2347 12.9527 71.9156 12.1511C71.6194 11.3494 71.1522 10.7593 70.5141 10.3808C69.8987 10.0022 69.1011 9.81296 68.1211 9.81296C67.1184 9.81296 66.3094 10.0134 65.694 10.4142C65.0787 10.815 64.6229 11.4162 64.3267 12.2179C64.0532 13.0195 63.9164 14.0327 63.9164 15.2574C63.9164 17.0388 64.2469 18.3971 64.9078 19.3324C65.5687 20.2676 66.6398 20.7353 68.1211 20.7353Z" fill="white"/>
<path d="M79.3331 23.708V8.5103C79.6522 8.30989 80.2105 8.04268 81.0082 7.70867C81.8286 7.37465 82.7744 7.08517 83.8455 6.84023C84.9166 6.57302 85.9991 6.43941 87.093 6.43941C87.9135 6.43941 88.563 6.50621 89.0415 6.63982C89.5429 6.75116 89.9303 6.8959 90.2038 7.07404V10.2806C89.748 10.2138 89.2239 10.1581 88.6313 10.1136C88.0616 10.069 87.4691 10.0579 86.8537 10.0802C86.2612 10.0802 85.6801 10.1024 85.1103 10.147C84.5634 10.1915 84.0848 10.2472 83.6746 10.314V23.708H79.3331Z" fill="white"/>
<path d="M95.6421 14.1886L102.308 6.87363H107.607L97.8641 16.4265L95.6421 14.1886ZM96.5651 23.708H92.2578V0.527344H96.5993L96.5651 23.708ZM98.7529 12.5519L108.256 23.708H102.752L95.6763 15.391L98.7529 12.5519Z" fill="white"/>
<path fill-rule="evenodd" clip-rule="evenodd" d="M3.52557 12.9031C3.24954 15.1542 3.78447 17.4289 5.03845 19.3365C6.29242 21.2441 8.18713 22.6653 10.397 23.356C12.6069 24.0467 14.994 23.9638 17.1481 23.1215C19.3022 22.2791 21.0888 20.73 22.201 18.7402C23.3132 16.7505 23.6814 14.4443 23.2425 12.218C22.8035 9.99176 21.5848 7.98437 19.7957 6.5408C18.4009 5.41537 16.7274 4.6874 14.958 4.4212L14.958 6.2164C14.958 7.03634 14.2778 7.70103 13.4387 7.70103C12.5996 7.70103 11.9194 7.03634 11.9194 6.2164L11.9194 3.03506C11.9194 2.10521 12.6959 1.32239 13.6844 1.34061C16.6235 1.39478 19.4601 2.4193 21.7305 4.25122C24.0641 6.13414 25.6537 8.75247 26.2262 11.6563C26.7988 14.5601 26.3184 17.5682 24.8678 20.1635C23.4171 22.7589 21.0867 24.7795 18.277 25.8782C15.4673 26.9769 12.3537 27.0851 9.47128 26.1841C6.58882 25.2832 4.11745 23.4294 2.48184 20.9413C0.846228 18.4531 0.148491 15.486 0.508522 12.5498C0.868553 9.61358 2.26387 6.89155 4.45472 4.85143C5.06217 4.28578 6.02386 4.30842 6.60273 4.902C7.1816 5.49557 7.15843 6.43531 6.55099 7.00096C4.87133 8.56505 3.80159 10.6519 3.52557 12.9031Z" fill="white"/>
<path fill-rule="evenodd" clip-rule="evenodd" d="M8.02312 8.55984C8.61645 7.98005 9.57842 7.98005 10.1718 8.55984L14.9467 13.2258C15.5401 13.8056 15.5401 14.7456 14.9467 15.3254C14.3534 15.9052 13.3914 15.9052 12.7981 15.3254L8.02312 10.6594C7.42979 10.0796 7.42979 9.13962 8.02312 8.55984Z" fill="white"/>
</svg>
