<svg width="46" height="45" viewBox="0 0 46 45" fill="none" xmlns="http://www.w3.org/2000/svg">
<g clip-path="url(#clip0_128_14426)">
<path d="M0.759277 22.1329C0.759277 18.341 4.38809 15.2671 8.86445 15.2671H37.4225C41.8988 15.2671 45.5277 18.341 45.5277 22.1329V32.0505C45.5277 35.8424 41.8988 38.9162 37.4225 38.9162H8.86445C4.38808 38.9162 0.759277 35.8424 0.759277 32.0505V22.1329Z" fill="#FFF6DC"/>
<path d="M26.2525 15.3179V9.55725L16.9259 15.3179V6.26514H10.708V32.5995H35.5793V9.55711L26.2525 15.3179ZM18.4801 26.0155H15.3712V22.724H18.4801V26.0155ZM24.6977 26.0155H21.5891V22.724H24.698L24.6977 26.0155ZM30.9154 26.0155H27.8067V22.724H30.9156L30.9154 26.0155Z" fill="#FFD076"/>
</g>
<defs>
<clipPath id="clip0_128_14426">
<rect width="44.7684" height="44.7684" fill="white" transform="translate(0.759277 0.206055)"/>
</clipPath>
</defs>
</svg>
