<svg width="270" height="271" viewBox="0 0 270 271" fill="none" xmlns="http://www.w3.org/2000/svg">
<g filter="url(#filter0_d_1_101)">
<ellipse cx="135.005" cy="135.531" rx="47.5209" ry="47.3866" fill="#EDEDFF"/>
</g>
<path opacity="0.3" d="M239.094 137.304C239.094 194.608 192.506 241.076 135.019 241.076C77.5324 241.076 30.9443 194.608 30.9443 137.304C30.9443 79.9996 77.5324 33.5312 135.019 33.5312C192.506 33.5312 239.094 79.9996 239.094 137.304Z" stroke="#F9F9FC" stroke-width="5.87298"/>
<path opacity="0.6" d="M218.496 137.304C218.496 183.272 181.124 220.55 135.005 220.55C88.8868 220.55 51.5146 183.272 51.5146 137.304C51.5146 91.3361 88.8868 54.0576 135.005 54.0576C181.124 54.0576 218.496 91.3361 218.496 137.304Z" stroke="#F9F9FC" stroke-width="5.87298"/>
<path opacity="0.2" d="M103.958 233.969C85.7473 228.256 69.4757 217.631 56.9416 203.272C44.4075 188.913 36.0995 171.379 32.9347 152.608C29.7699 133.838 31.8714 114.562 39.0063 96.9115C46.1412 79.2608 58.032 63.9217 73.3651 52.5905C88.6982 41.2593 106.877 34.3771 125.891 32.7064C144.906 31.0356 164.015 34.6415 181.105 43.1257C198.195 51.6098 212.6 64.6412 222.728 80.778C232.855 96.9148 238.31 115.528 238.492 134.56" stroke="#E6E3FF" stroke-width="8.2414" stroke-linecap="round"/>
<path opacity="0.6" d="M155.487 217.288C138.32 221.562 120.239 220.354 103.796 213.834C87.3532 207.315 73.3772 195.813 63.839 180.951C54.3009 166.088 49.6821 148.615 50.6336 130.996C51.5851 113.377 58.0589 96.5005 69.1419 82.7462C80.2249 68.9919 95.3581 59.0536 112.408 54.3328C129.457 49.6121 147.563 50.3472 164.172 56.4346C180.78 62.5221 195.054 73.6548 204.979 88.2628C214.905 102.871 219.981 120.217 219.493 137.855" stroke="#2FD27A" stroke-width="8.2414" stroke-linecap="round"/>
<path d="M198.361 118.864C201.762 131.709 201.154 145.282 196.62 157.772C192.085 170.262 183.839 181.078 172.979 188.775C162.119 196.473 149.162 200.687 135.835 200.853C122.509 201.019 109.448 197.129 98.3964 189.702C87.3447 182.275 78.8283 171.665 73.9817 159.29C69.1352 146.914 68.1885 133.361 71.2665 120.437C74.3446 107.513 81.3015 95.8315 91.2106 86.9506C101.12 78.0696 113.511 72.4114 126.731 70.7327" stroke="#FDCB68" stroke-width="8.2414" stroke-linecap="round"/>
<defs>
<filter id="filter0_d_1_101" x="59.3051" y="74.5767" width="151.4" height="151.132" filterUnits="userSpaceOnUse" color-interpolation-filters="sRGB">
<feFlood flood-opacity="0" result="BackgroundImageFix"/>
<feColorMatrix in="SourceAlpha" type="matrix" values="0 0 0 0 0 0 0 0 0 0 0 0 0 0 0 0 0 0 127 0" result="hardAlpha"/>
<feOffset dy="14.6115"/>
<feGaussianBlur stdDeviation="14.0896"/>
<feColorMatrix type="matrix" values="0 0 0 0 0.1125 0 0 0 0 0.1125 0 0 0 0 0.1125 0 0 0 0.05 0"/>
<feBlend mode="normal" in2="BackgroundImageFix" result="effect1_dropShadow_1_101"/>
<feBlend mode="normal" in="SourceGraphic" in2="effect1_dropShadow_1_101" result="shape"/>
</filter>
</defs>
</svg>
