<svg width="234" height="235" viewBox="0 0 234 235" fill="none" xmlns="http://www.w3.org/2000/svg">
<g clip-path="url(#clip0_988_108685)">
<g filter="url(#filter0_d_988_108685)">
<ellipse cx="117" cy="116.484" rx="51.7661" ry="51.5684" fill="#EDEDFF"/>
</g>
<path opacity="0.3" d="M230.399 118.412C230.399 180.769 179.651 231.341 117.024 231.341C54.3977 231.341 3.64962 180.769 3.64962 118.412C3.64962 56.0539 54.3977 5.48214 117.024 5.48214C179.651 5.48214 230.399 56.0539 230.399 118.412Z" stroke="#F9F9FC" stroke-width="6.39298"/>
<path opacity="0.6" d="M207.959 118.413C207.959 168.434 167.25 209.005 117.007 209.005C66.7647 209.005 26.0559 168.434 26.0559 118.413C26.0559 68.3919 66.7647 27.821 117.007 27.821C167.25 27.821 207.959 68.3919 207.959 118.413Z" stroke="#F9F9FC" stroke-width="6.39298"/>
<path opacity="0.2" d="M83.1864 223.61C63.348 217.391 45.6219 205.829 31.9676 190.202C18.3134 174.575 9.26329 155.493 5.81583 135.067C2.3684 114.64 4.65759 93.6641 12.4295 74.4567C20.2014 55.2492 33.154 38.5569 49.8567 26.2258C66.5595 13.8947 86.3623 6.40489 107.076 4.58663C127.791 2.76837 148.608 6.69268 167.226 15.9261C185.844 25.1595 201.536 39.3416 212.569 56.9028C223.601 74.4639 229.543 94.7197 229.741 115.43" stroke="#E6E3FF" stroke-width="8.97111" stroke-linecap="round"/>
<path opacity="0.6" d="M139.312 205.458C120.611 210.109 100.915 208.794 83.0027 201.699C65.0904 194.604 49.8656 182.087 39.4752 165.913C29.0848 149.738 24.0533 130.723 25.0898 111.549C26.1263 92.375 33.1785 74.009 45.2516 59.0408C57.3247 44.0726 73.8098 33.2572 92.3826 28.1198C110.955 22.9825 130.679 23.7824 148.772 30.4071C166.864 37.0319 182.413 49.1473 193.226 65.0448C204.038 80.9423 209.568 99.8195 209.036 119.014" stroke="#2FD27A" stroke-width="8.97111" stroke-linecap="round"/>
<path d="M186.014 98.3495C189.719 112.327 189.057 127.096 184.117 140.688C179.178 154.279 170.195 166.049 158.365 174.426C146.535 182.803 132.42 187.389 117.901 187.57C103.383 187.75 89.1543 183.516 77.1142 175.433C65.0743 167.351 55.797 155.804 50.5175 142.337C45.2381 128.87 44.207 114.121 47.5597 100.058C50.9125 85.9942 58.4904 73.2823 69.2845 63.6179C80.0788 53.9533 93.5769 47.7954 107.979 45.9684" stroke="#FDCB68" stroke-width="8.97111" stroke-linecap="round"/>
</g>
<defs>
<filter id="filter0_d_988_108685" x="34.5601" y="50.1464" width="164.88" height="164.485" filterUnits="userSpaceOnUse" color-interpolation-filters="sRGB">
<feFlood flood-opacity="0" result="BackgroundImageFix"/>
<feColorMatrix in="SourceAlpha" type="matrix" values="0 0 0 0 0 0 0 0 0 0 0 0 0 0 0 0 0 0 127 0" result="hardAlpha"/>
<feOffset dy="15.9052"/>
<feGaussianBlur stdDeviation="15.3372"/>
<feColorMatrix type="matrix" values="0 0 0 0 0.1125 0 0 0 0 0.1125 0 0 0 0 0.1125 0 0 0 0.05 0"/>
<feBlend mode="normal" in2="BackgroundImageFix" result="effect1_dropShadow_988_108685"/>
<feBlend mode="normal" in="SourceGraphic" in2="effect1_dropShadow_988_108685" result="shape"/>
</filter>
<clipPath id="clip0_988_108685">
<rect width="234" height="235" fill="white"/>
</clipPath>
</defs>
</svg>
