<svg width="26" height="26" viewBox="0 0 26 26" fill="none" xmlns="http://www.w3.org/2000/svg">
<path d="M6.05556 19.9444H8.83333V13H6.05556V19.9444ZM17.1667 19.9444H19.9444V6.05556H17.1667V19.9444ZM11.6111 19.9444H14.3889V15.7778H11.6111V19.9444ZM11.6111 13H14.3889V10.2222H11.6111V13ZM3.27778 25.5C2.51389 25.5 1.85972 25.2282 1.31528 24.6847C0.771764 24.1403 0.5 23.4861 0.5 22.7222V3.27778C0.5 2.51389 0.771764 1.85972 1.31528 1.31528C1.85972 0.771764 2.51389 0.5 3.27778 0.5H22.7222C23.4861 0.5 24.1403 0.771764 24.6847 1.31528C25.2282 1.85972 25.5 2.51389 25.5 3.27778V22.7222C25.5 23.4861 25.2282 24.1403 24.6847 24.6847C24.1403 25.2282 23.4861 25.5 22.7222 25.5H3.27778ZM3.27778 22.7222H22.7222V3.27778H3.27778V22.7222Z" fill="white"/>
</svg>
