<svg width="17" height="11" viewBox="0 0 17 11" fill="none" xmlns="http://www.w3.org/2000/svg">
<path d="M16.7698 4.98627L11.5695 0.211125C11.421 0.0748182 11.2232 0 11.0122 0C10.801 0 10.6033 0.0749257 10.4548 0.211125L9.98269 0.64477C9.83436 0.780861 9.75264 0.96264 9.75264 1.15646C9.75264 1.35017 9.83436 1.53807 9.98269 1.67417L13.0165 4.46598H0.777945C0.343373 4.46598 0 4.77837 0 5.17751V5.79057C0 6.1897 0.343373 6.53359 0.777945 6.53359H13.0509L9.98281 9.34099C9.83448 9.4773 9.75276 9.65413 9.75276 9.84795C9.75276 10.0416 9.83448 10.221 9.98281 10.3572L10.455 10.7894C10.6034 10.9257 10.8011 11 11.0123 11C11.2233 11 11.4212 10.9248 11.5696 10.7884L16.77 6.01341C16.9187 5.87667 17.0006 5.69414 17 5.50011C17.0005 5.30543 16.9188 5.12279 16.7698 4.98627Z" fill="white"/>
</svg>
