<svg width="26" height="25" viewBox="0 0 26 25" fill="none" xmlns="http://www.w3.org/2000/svg">
<path d="M6.23817 19.4444H9.01595V12.5H6.23817V19.4444ZM17.3493 19.4444H20.1271V5.55556H17.3493V19.4444ZM11.7937 19.4444H14.5715V15.2778H11.7937V19.4444ZM11.7937 12.5H14.5715V9.72222H11.7937V12.5ZM3.46039 25C2.69651 25 2.04234 24.7282 1.49789 24.1847C0.954381 23.6403 0.682617 22.9861 0.682617 22.2222V2.77778C0.682617 2.01389 0.954381 1.35972 1.49789 0.815278C2.04234 0.271764 2.69651 0 3.46039 0H22.9048C23.6687 0 24.3229 0.271764 24.8673 0.815278C25.4108 1.35972 25.6826 2.01389 25.6826 2.77778V22.2222C25.6826 22.9861 25.4108 23.6403 24.8673 24.1847C24.3229 24.7282 23.6687 25 22.9048 25H3.46039ZM3.46039 22.2222H22.9048V2.77778H3.46039V22.2222Z" fill="white"/>
</svg>
