<svg width="26" height="25" viewBox="0 0 26 25" fill="none" xmlns="http://www.w3.org/2000/svg">
<g clip-path="url(#clip0_3894_110361)">
<path d="M20.9317 3.00071H19.7443V0.625977H17.3696V3.00071H7.87066V0.625977H5.49593V3.00071H4.30857C2.99059 3.00071 1.94571 4.06933 1.94571 5.37543L1.93384 21.9985C1.93384 23.3046 2.99059 24.3733 4.30857 24.3733H20.9317C22.2378 24.3733 23.3064 23.3046 23.3064 21.9985V5.37543C23.3064 4.06933 22.2378 3.00071 20.9317 3.00071ZM20.9317 21.9985H4.30857V10.1249H20.9317V21.9985ZM20.9317 7.75016H4.30857V5.37543H20.9317V7.75016ZM12.6201 13.687H18.5569V19.6238H12.6201V13.687Z" fill="white"/>
</g>
<defs>
<clipPath id="clip0_3894_110361">
<rect width="25" height="25" fill="white" transform="translate(0.120117)"/>
</clipPath>
</defs>
</svg>
