<svg width="130" height="29" viewBox="0 0 130 29" fill="none" xmlns="http://www.w3.org/2000/svg">
<path d="M0 10.4288L11.9145 10.4311L19.1594 10.4323V3.34534L0 10.4288Z" fill="#FF9D28"/>
<path d="M19.1602 3.34646V28.3672L28.2089 0L19.1602 3.34646Z" fill="#68C5ED"/>
<path d="M19.1589 10.4325L11.9141 10.4313L19.1589 28.3662V10.4325Z" fill="white"/>
<path d="M0 10.4291L13.7724 15.0332L11.9146 10.4314L0 10.4291Z" fill="#E54747"/>
<path d="M43.8894 21.7784C43.7844 21.8821 43.6092 22.0115 43.3642 22.1669C43.1192 22.3225 42.8002 22.478 42.4068 22.6336C42.0128 22.7888 41.5317 22.9225 40.963 23.0352C40.3943 23.1472 39.7427 23.2035 39.0082 23.2035C37.5909 23.2035 36.3661 22.9788 35.334 22.53C34.3015 22.081 33.4487 21.4543 32.7753 20.6512C32.1017 19.8479 31.6076 18.898 31.2926 17.8008C30.9777 16.7039 30.8203 15.4991 30.8203 14.186C30.8203 12.8734 30.9909 11.6596 31.332 10.5454C31.6732 9.43106 32.1849 8.46838 32.8672 7.65607C33.5495 6.84434 34.4024 6.20938 35.4259 5.75145C36.4494 5.29405 37.652 5.06482 39.0344 5.06482C39.7165 5.06482 40.3334 5.12544 40.8843 5.24617C41.4357 5.36716 41.9168 5.50979 42.3281 5.67376C42.7388 5.83815 43.0799 6.01054 43.3516 6.192C43.6223 6.37335 43.828 6.52489 43.9681 6.6454C44.1254 6.78398 44.2608 6.9479 44.3752 7.13773C44.4885 7.32803 44.5457 7.53535 44.5457 7.75973C44.5457 8.10547 44.414 8.45079 44.1517 8.79621C43.8894 9.14195 43.6008 9.46151 43.2855 9.755C43.0757 9.54768 42.8396 9.33641 42.5773 9.12019C42.3149 8.90429 42.0217 8.71451 41.698 8.55007C41.3743 8.38616 41.0065 8.248 40.5957 8.13549C40.1844 8.0233 39.7254 7.96699 39.2181 7.96699C38.3259 7.96699 37.578 8.14439 36.9744 8.49824C36.3708 8.85251 35.8852 9.31445 35.5179 9.88457C35.1505 10.4547 34.888 11.1069 34.7305 11.841C34.5731 12.5754 34.4944 13.3224 34.4944 14.0824C34.4944 14.8946 34.5731 15.6719 34.7305 16.4144C34.888 17.1573 35.159 17.8139 35.5441 18.3838C35.9287 18.9538 36.4319 19.4117 37.0531 19.7571C37.6738 20.1029 38.448 20.2754 39.3754 20.2754C39.8649 20.2754 40.3156 20.2151 40.7269 20.0941C41.1377 19.9733 41.5012 19.8264 41.816 19.6533C42.1308 19.481 42.4068 19.2997 42.6428 19.1095C42.8789 18.9194 43.0757 18.7555 43.2331 18.617C43.3385 18.7381 43.4602 18.8852 43.6008 19.0576C43.7414 19.2319 43.8731 19.4136 43.9943 19.6018C44.1165 19.7921 44.2215 19.9819 44.3091 20.1717C44.3967 20.3621 44.4402 20.5346 44.4402 20.6898C44.4402 20.9147 44.3967 21.1046 44.3091 21.26C44.2215 21.4156 44.0814 21.5885 43.8894 21.7784ZM57.4133 19.791C57.4133 21.1641 57.6158 22.1634 58.0208 22.789C57.7039 22.9104 57.4091 22.9975 57.1363 23.0496C56.8629 23.1018 56.577 23.1277 56.278 23.1277C55.6447 23.1277 55.1647 23.0061 54.8394 22.7628C54.5136 22.5197 54.3069 22.1722 54.2188 21.7201C53.8316 22.1202 53.3212 22.459 52.6874 22.7371C52.0542 23.0146 51.2793 23.154 50.3643 23.154C49.889 23.154 49.4137 23.0889 48.9389 22.9594C48.4636 22.8289 48.0318 22.6171 47.6452 22.3229C47.2575 22.0281 46.9411 21.634 46.6946 21.1402C46.448 20.6464 46.3247 20.0445 46.3247 19.3344C46.3247 18.4509 46.5403 17.7317 46.9716 17.1776C47.4028 16.6229 47.9442 16.1856 48.5953 15.865C49.2464 15.5448 49.9504 15.3243 50.7074 15.2028C51.464 15.0813 52.1596 15.0036 52.7934 14.9686C53.0048 14.9514 53.211 14.9424 53.4135 14.9424H53.9811V14.468C53.9811 13.7999 53.8007 13.3254 53.4402 13.0444C53.0793 12.7633 52.4938 12.6224 51.6843 12.6224C50.9273 12.6224 50.2542 12.7441 49.6645 12.9873C49.0748 13.2309 48.4982 13.5087 47.9353 13.8215C47.6887 13.5262 47.4904 13.2004 47.3414 12.8439C47.1919 12.488 47.1169 12.2228 47.1169 12.0489C47.1169 11.8057 47.2533 11.5711 47.5261 11.345C47.7989 11.1194 48.173 10.9149 48.6483 10.7324C49.1236 10.5499 49.6687 10.4025 50.2851 10.2892C50.901 10.1764 51.5526 10.1198 52.2388 10.1198C53.1895 10.1198 53.9948 10.2156 54.6548 10.4065C55.3147 10.598 55.8514 10.8933 56.2649 11.2929C56.6783 11.6929 56.9731 12.1923 57.1494 12.7918C57.3251 13.3914 57.4133 14.0912 57.4133 14.8903V19.791ZM54.0341 16.7672H53.6643C53.541 16.7672 53.4177 16.7762 53.2949 16.7933C52.8548 16.8283 52.4188 16.8804 51.9881 16.9496C51.5563 17.0193 51.1738 17.1409 50.8397 17.3146C50.5049 17.4885 50.2321 17.7146 50.0212 17.9923C49.8098 18.2705 49.7044 18.627 49.7044 19.0613C49.7044 19.5479 49.845 19.9605 50.1267 20.2994C50.4079 20.6384 50.8832 20.8078 51.5521 20.8078C51.8863 20.8078 52.2032 20.7647 52.5027 20.6773C52.8018 20.5908 53.0657 20.4777 53.2949 20.3387C53.5231 20.1996 53.7041 20.0476 53.8363 19.8823C53.968 19.7174 54.0341 19.5654 54.0341 19.4263V16.7672ZM63.9869 11.6316C64.2676 11.3017 64.7061 10.9669 65.3027 10.628C65.8992 10.2891 66.6536 10.1196 67.5664 10.1196C68.2159 10.1196 68.8339 10.2283 69.422 10.4455C70.0096 10.663 70.5316 11.015 70.9875 11.5013C71.444 11.988 71.8081 12.6311 72.0803 13.4303C72.3521 14.23 72.4885 15.2121 72.4885 16.376C72.4885 17.7316 72.3301 18.8485 72.0142 19.7259C71.6984 20.6038 71.2908 21.299 70.7908 21.8115C70.2908 22.3242 69.7337 22.6849 69.1199 22.8933C68.5055 23.1018 67.8912 23.2062 67.2774 23.2062C66.7685 23.2062 66.3251 23.1496 65.9485 23.0368C65.5707 22.9236 65.2507 22.798 64.9874 22.6587C64.7245 22.5198 64.5225 22.3811 64.3825 22.2416C64.2419 22.1027 64.1542 22.0069 64.1191 21.9547V28.363H60.5285V10.4846C60.6167 10.4675 60.7231 10.45 60.848 10.4325C60.9545 10.4154 61.0783 10.4023 61.2205 10.3933C61.3622 10.3848 61.5306 10.3804 61.7257 10.3804C62.3107 10.3804 62.8075 10.4761 63.2151 10.6671C63.6228 10.8586 63.8804 11.1799 63.9869 11.6316ZM68.739 16.4542C68.739 15.9329 68.6954 15.4466 68.6078 14.9945C68.5207 14.5428 68.3759 14.1517 68.175 13.8214C67.9735 13.4914 67.7018 13.2349 67.3608 13.0523C67.0192 12.8699 66.6037 12.7787 66.1143 12.7787C65.3792 12.7787 64.8672 12.918 64.5787 13.1957C64.2896 13.474 64.1453 13.7783 64.1453 14.1082V19.6348C64.2854 19.7741 64.5341 19.9389 64.8929 20.1301C65.2523 20.3214 65.6673 20.4166 66.14 20.4166C67.0329 20.4166 67.6892 20.0694 68.1094 19.3741C68.5291 18.6791 68.739 17.7056 68.739 16.4542ZM75.2596 20.9382C75.1363 20.5908 75.0571 20.2256 75.0219 19.8432C74.9863 19.4611 74.9689 19.0789 74.9689 18.696V6.60031C75.0922 6.58325 75.2239 6.56576 75.365 6.54822C75.4878 6.53115 75.62 6.5182 75.7611 6.50914C75.9017 6.5006 76.0423 6.49618 76.1835 6.49618C76.4647 6.49618 76.7464 6.52225 77.0281 6.57429C77.3093 6.62654 77.5648 6.73078 77.7941 6.88706C78.0228 7.0435 78.2075 7.25661 78.3481 7.52576C78.4892 7.79539 78.5595 8.1474 78.5595 8.58152V10.4323H82.2561V13.0654H78.5595V18.6245C78.5595 19.8368 79.0611 20.4428 80.0647 20.4428C80.3107 20.4428 80.5437 20.4038 80.764 20.3254C80.9838 20.2473 81.1821 20.1605 81.3584 20.0649C81.5342 19.9693 81.6884 19.8694 81.8201 19.7651C81.9523 19.6608 82.0446 19.5826 82.0971 19.5305C82.3615 19.9131 82.5635 20.2443 82.7046 20.5237C82.8452 20.8035 82.9155 21.066 82.9155 21.3114C82.9155 21.5397 82.8237 21.7635 82.6385 21.9826C82.4533 22.2018 82.1936 22.4039 81.8594 22.5879C81.5252 22.772 81.1208 22.921 80.6454 23.0351C80.1701 23.1492 79.6507 23.2063 79.0878 23.2063C77.9961 23.2063 77.1467 22.9976 76.5397 22.5807C75.9327 22.1634 75.5056 21.6159 75.2596 20.9382ZM91.3495 20.5992C91.7912 20.5992 92.1794 20.5516 92.5152 20.4558C92.851 20.3606 93.151 20.2432 93.416 20.1041C93.6809 19.9652 93.9107 19.8131 94.1048 19.648C94.2989 19.4829 94.4757 19.3309 94.6352 19.1916C94.8466 19.4521 95.0675 19.787 95.2973 20.1951C95.5266 20.6038 95.6414 20.9382 95.6414 21.1988C95.6414 21.5813 95.4211 21.9289 94.9815 22.2416C94.6121 22.5198 94.088 22.7588 93.4107 22.9584C92.7329 23.1581 91.9365 23.2582 91.0216 23.2582C90.1937 23.2582 89.38 23.154 88.5794 22.9454C87.7783 22.737 87.0653 22.3719 86.441 21.8504C85.8157 21.3293 85.3099 20.6299 84.9227 19.7521C84.5356 18.8745 84.342 17.7668 84.342 16.4283C84.342 15.3333 84.5135 14.3909 84.8566 13.5999C85.1997 12.8092 85.6572 12.1531 86.2296 11.6318C86.8014 11.1104 87.4483 10.7283 88.1702 10.4846C88.8916 10.2416 89.6308 10.1197 90.3878 10.1197C91.3736 10.1197 92.2093 10.2721 92.8961 10.5759C93.5823 10.8802 94.141 11.2887 94.5723 11.8012C95.0035 12.3139 95.3157 12.9004 95.5098 13.5608C95.7028 14.2214 95.7999 14.9163 95.7999 15.6463V16.0112C95.7999 16.1505 95.7957 16.2979 95.7868 16.4543C95.7779 16.6108 95.7689 16.7632 95.7606 16.9105C95.7511 17.0585 95.738 17.1756 95.7212 17.2625H87.9325C88.0028 18.2184 88.3035 19.0134 88.8328 19.648C89.3627 20.2824 90.2016 20.5992 91.3495 20.5992ZM92.5524 15.3073C92.5524 14.4731 92.3887 13.7953 92.0614 13.274C91.7335 12.7527 91.1449 12.4918 90.2955 12.4918C89.5694 12.4918 88.9897 12.7396 88.5563 13.2349C88.1225 13.7303 87.9058 14.421 87.9058 15.3071H92.5524V15.3073ZM102.048 11.6975C102.154 11.5425 102.295 11.3701 102.471 11.1802C102.646 10.9905 102.862 10.8181 103.117 10.6631C103.372 10.5079 103.654 10.3783 103.963 10.2749C104.27 10.1714 104.6 10.1197 104.953 10.1197C105.164 10.1197 105.388 10.1372 105.626 10.1714C105.863 10.2061 106.083 10.2708 106.286 10.3653C106.488 10.4603 106.651 10.5893 106.774 10.7531C106.897 10.9169 106.959 11.1193 106.959 11.3605C106.959 11.7397 106.862 12.1751 106.669 12.6668C106.475 13.1588 106.281 13.5784 106.088 13.9258C105.788 13.6825 105.489 13.4957 105.19 13.3653C104.891 13.235 104.539 13.1698 104.134 13.1698C103.589 13.1698 103.131 13.3267 102.761 13.6402C102.391 13.9539 102.207 14.3287 102.207 14.7644V23.2034H98.6161V10.4846C98.7042 10.4675 98.8097 10.45 98.933 10.4325C99.0384 10.4154 99.1617 10.4023 99.3028 10.3933C99.4435 10.3848 99.6103 10.3804 99.8044 10.3804C100.367 10.3804 100.856 10.4882 101.27 10.7034C101.683 10.9184 101.943 11.2499 102.048 11.6975ZM112.257 11.6975C112.362 11.5425 112.503 11.3701 112.679 11.1802C112.855 10.9905 113.071 10.8181 113.326 10.6631C113.581 10.5079 113.863 10.3783 114.171 10.2749C114.479 10.1714 114.809 10.1197 115.161 10.1197C115.372 10.1197 115.596 10.1372 115.834 10.1714C116.072 10.2061 116.291 10.2708 116.494 10.3653C116.696 10.4603 116.859 10.5893 116.983 10.7531C117.106 10.9169 117.168 11.1193 117.168 11.3605C117.168 11.7397 117.07 12.1751 116.877 12.6668C116.683 13.1588 116.49 13.5784 116.296 13.9258C115.997 13.6825 115.698 13.4957 115.398 13.3653C115.099 13.235 114.747 13.1698 114.342 13.1698C113.797 13.1698 113.339 13.3267 112.969 13.6402C112.6 13.9539 112.415 14.3287 112.415 14.7644V23.2034H108.825V10.4846C108.912 10.4675 109.018 10.45 109.142 10.4325C109.247 10.4154 109.37 10.4023 109.511 10.3933C109.652 10.3848 109.819 10.3804 110.013 10.3804C110.576 10.3804 111.065 10.4882 111.478 10.7034C111.891 10.9184 112.151 11.2499 112.257 11.6975ZM129.391 19.791C129.391 21.1641 129.593 22.1634 129.998 22.789C129.682 22.9104 129.387 22.9975 129.114 23.0496C128.841 23.1018 128.555 23.1277 128.256 23.1277C127.622 23.1277 127.143 23.0061 126.818 22.7628C126.491 22.5197 126.285 22.1722 126.197 21.7201C125.81 22.1202 125.299 22.459 124.666 22.7371C124.032 23.0146 123.257 23.154 122.342 23.154C121.867 23.154 121.392 23.0889 120.917 22.9594C120.441 22.8289 120.01 22.6171 119.623 22.3229C119.236 22.0281 118.919 21.634 118.673 21.1402C118.426 20.6464 118.303 20.0445 118.303 19.3344C118.303 18.4509 118.518 17.7317 118.95 17.1776C119.381 16.6229 119.922 16.1856 120.573 15.865C121.224 15.5448 121.929 15.3243 122.686 15.2028C123.442 15.0813 124.138 15.0036 124.771 14.9686C124.982 14.9514 125.189 14.9424 125.392 14.9424H125.959V14.468C125.959 13.7999 125.779 13.3254 125.418 13.0444C125.057 12.7633 124.472 12.6224 123.662 12.6224C122.905 12.6224 122.232 12.7441 121.643 12.9873C121.053 13.2309 120.476 13.5087 119.913 13.8215C119.667 13.5262 119.469 13.2004 119.319 12.8439C119.17 12.488 119.095 12.2228 119.095 12.0489C119.095 11.8057 119.231 11.5711 119.504 11.345C119.777 11.1194 120.151 10.9149 120.626 10.7324C121.102 10.5499 121.647 10.4025 122.263 10.2892C122.879 10.1764 123.53 10.1198 124.217 10.1198C125.167 10.1198 125.972 10.2156 126.632 10.4065C127.292 10.598 127.829 10.8933 128.243 11.2929C128.656 11.6929 128.951 12.1923 129.128 12.7918C129.303 13.3914 129.391 14.0912 129.391 14.8903V19.791ZM126.012 16.7672H125.642C125.519 16.7672 125.396 16.7762 125.273 16.7933C124.833 16.8283 124.397 16.8804 123.966 16.9496C123.534 17.0193 123.151 17.1409 122.817 17.3146C122.483 17.4885 122.21 17.7146 121.999 17.9923C121.788 18.2705 121.682 18.627 121.682 19.0613C121.682 19.5479 121.823 19.9605 122.105 20.2994C122.386 20.6384 122.861 20.8078 123.53 20.8078C123.864 20.8078 124.181 20.7647 124.481 20.6773C124.78 20.5908 125.044 20.4777 125.273 20.3387C125.501 20.1996 125.682 20.0476 125.814 19.8823C125.946 19.7174 126.012 19.5654 126.012 19.4263V16.7672H126.012Z" fill="white"/>
</svg>
