<svg width="60" height="60" viewBox="0 0 60 60" fill="none" xmlns="http://www.w3.org/2000/svg">
<path d="M56.1484 41.6355L53.7604 41.9155L53.2224 37.3285C53.1665 36.8486 53.0082 36.3861 52.7584 35.9725C55.161 35.848 57.0407 33.8555 57.0253 31.4497C57.0098 29.0438 55.1047 27.0757 52.7006 26.982C50.2965 26.8883 48.244 28.7022 48.0414 31.0995L45.0234 28.0865C43.6762 26.7456 41.4985 26.7456 40.1514 28.0865L37.5364 30.6865C36.8845 31.3332 36.5179 32.2134 36.5179 33.1315C36.5179 34.0497 36.8845 34.9299 37.5364 35.5765C38.8909 36.9116 41.0672 36.9089 42.4184 35.5705L42.5814 35.4075L43.7674 36.5945L28.0004 52.3735C27.0198 53.3609 26.7268 54.8399 27.2569 56.1266C27.787 57.4132 29.0368 58.2565 30.4284 58.2665H30.4394C31.3583 58.2669 32.2393 57.9001 32.8864 57.2475L38.2464 51.8875L39.4324 53.0745L38.4074 54.0995C37.0945 55.4548 37.1117 57.6127 38.4461 58.9468C39.7805 60.2809 41.9384 60.2977 43.2934 58.9845L46.7654 55.5135C48.1125 54.163 48.1125 51.977 46.7654 50.6265L43.1304 47.0065L46.9494 43.1875L47.2964 46.1355C47.3997 47.0446 47.8606 47.8752 48.5773 48.4439C49.294 49.0125 50.2076 49.2726 51.1164 49.1665L56.9584 48.4915C58.6927 48.2859 59.9993 46.816 60.0004 45.0695C60.0026 44.9319 59.9963 44.7943 59.9814 44.6575C59.7524 42.7674 58.0398 41.4171 56.1484 41.6355ZM50.7324 29.7355C51.7087 28.7594 53.2915 28.7596 54.2677 29.7358C55.2439 30.7121 55.2439 32.2949 54.2677 33.2712C53.2915 34.2475 51.7087 34.2477 50.7324 33.2715C50.2607 32.8033 49.9954 32.1662 49.9954 31.5015C49.9954 30.8369 50.2607 30.1998 50.7324 29.7315V29.7355ZM56.7264 46.5095L50.8834 47.1845C50.5026 47.2301 50.1194 47.1222 49.8184 46.8845C49.5174 46.6477 49.3248 46.2994 49.2844 45.9185L48.8414 42.1615C48.7701 41.5474 48.3537 41.0281 47.7696 40.8253C47.1856 40.6224 46.537 40.7717 46.1004 41.2095L41.0084 46.2995C40.8206 46.4871 40.7151 46.7416 40.7151 47.007C40.7151 47.2724 40.8206 47.527 41.0084 47.7145L45.3504 52.0445C45.9155 52.6141 45.9155 53.5329 45.3504 54.1025L41.8774 57.5735C41.3017 58.1227 40.3961 58.1227 39.8204 57.5735C39.2629 57.0012 39.2629 56.0889 39.8204 55.5165L41.1204 54.2165C41.4258 53.9146 41.5978 53.503 41.5978 53.0735C41.5978 52.6441 41.4258 52.2324 41.1204 51.9305L39.3924 50.1995C39.0915 49.8926 38.6797 49.7197 38.2499 49.7197C37.82 49.7197 37.4083 49.8926 37.1074 50.1995L31.4764 55.8295C31.2031 56.1084 30.8288 56.2649 30.4384 56.2635C29.8547 56.2558 29.332 55.9005 29.1101 55.3606C28.8882 54.8207 29.0099 54.2005 29.4194 53.7845L45.4644 37.7295C46.0883 37.1003 46.0883 36.0857 45.4644 35.4565L43.7224 33.7135C43.0941 33.0874 42.0777 33.0874 41.4494 33.7135L41.0084 34.1545C40.4378 34.7163 39.522 34.7163 38.9514 34.1545C38.6763 33.8832 38.5214 33.5129 38.5214 33.1265C38.5214 32.7402 38.6763 32.3699 38.9514 32.0985L41.5654 29.4985C42.1304 28.9337 43.0463 28.9337 43.6114 29.4985L50.8244 36.6985C51.0567 36.9281 51.2026 37.2308 51.2374 37.5555L51.8604 42.8665C51.8924 43.1993 52.0563 43.5054 52.3156 43.7165C52.575 43.9275 52.908 44.0258 53.2404 43.9895L56.3814 43.6215C56.7656 43.5762 57.152 43.6854 57.4557 43.9251C57.7593 44.1648 57.9553 44.5153 58.0004 44.8995C58.0034 44.9565 58.0034 45.0136 58.0004 45.0705C57.9991 45.802 57.4525 46.4176 56.7264 46.5055V46.5095Z" fill="white"/>
<path d="M1.94642 23.3457C1.39413 23.3485 0.94418 22.903 0.941419 22.3507C0.938658 21.7984 1.38413 21.3485 1.93642 21.3457H1.94642C2.4987 21.3457 2.94642 21.7934 2.94642 22.3457C2.94642 22.898 2.4987 23.3457 1.94642 23.3457Z" fill="white"/>
<path d="M4.96077 49.8456C4.37383 50.3537 4.13396 51.1555 4.34544 51.9025C4.55693 52.6495 5.18157 53.2066 5.94777 53.3316L14.4088 54.7126L15.6448 54.8526C15.7204 54.8614 15.7966 54.8657 15.8728 54.8656C16.4408 54.8645 16.9816 54.6218 17.3602 54.1983C17.7387 53.7747 17.9193 53.2102 17.8568 52.6455C17.8493 52.5741 17.8338 52.5036 17.8108 52.4356C17.7828 51.9725 17.7058 51.2745 17.5848 50.1895L16.7848 42.9585C16.6995 42.1952 16.1845 41.5481 15.4598 41.2936C14.7351 41.0391 13.9286 41.2221 13.3848 41.7645L11.7938 43.3545C8.16204 38.7536 6.48538 32.909 7.12577 27.0825C8.22461 16.9237 16.0309 8.78095 26.1343 7.25461C36.2377 5.72828 46.1011 11.2017 50.1518 20.5825C50.6984 21.8682 51.9532 22.7094 53.3502 22.7267C54.7471 22.7441 56.0224 21.9343 56.6008 20.6625C56.9945 19.7937 57.0069 18.7998 56.6348 17.9215C51.6187 6.17893 39.6206 -1.00683 26.9008 0.113541C24.2348 0.374643 21.6134 0.976898 19.1008 1.90554C16.6005 2.8606 14.2413 4.15036 12.0878 5.73954C9.91931 7.31203 7.98473 9.18398 6.34177 11.2995C4.67034 13.3922 3.3016 15.7096 2.27577 18.1835C2.16286 18.4294 2.15809 18.7112 2.2626 18.9608C2.36712 19.2103 2.57137 19.4046 2.82577 19.4965C3.33387 19.6826 3.89968 19.4472 4.12577 18.9555C5.08133 16.6489 6.35757 14.4886 7.91677 12.5385C9.44892 10.5651 11.254 8.8196 13.2778 7.35454C15.2861 5.87179 17.4865 4.66879 19.8188 3.77854C22.159 2.91551 24.5996 2.35432 27.0818 2.10854C38.9393 1.06432 50.1239 7.76244 54.8008 18.7085C54.9555 19.0707 54.9489 19.4815 54.7828 19.8385C54.5305 20.3884 53.9767 20.7369 53.3718 20.7262C52.7668 20.7156 52.2256 20.348 51.9928 19.7895C48.1712 10.9328 39.5072 5.14379 29.8622 5.00269C20.2172 4.86159 11.3875 10.3947 7.30854 19.1358C3.22956 27.877 4.66096 38.1983 10.9648 45.4995C11.1466 45.7094 11.4075 45.8341 11.6849 45.844C11.9624 45.8539 12.2315 45.7479 12.4278 45.5515L14.8008 43.1785L15.8738 52.8635L14.6868 52.7305L6.27077 51.3565L8.83577 49.1356C9.03789 48.9605 9.16149 48.7118 9.17897 48.445C9.19644 48.1782 9.10633 47.9155 8.92877 47.7155C3.7265 41.9026 1.26728 34.1375 2.17477 26.3895C2.23579 25.8406 1.84024 25.3461 1.29127 25.285C0.742296 25.224 0.247795 25.6196 0.186767 26.1685C-0.746105 34.1294 1.63584 42.1236 6.77377 48.2756L4.96077 49.8456Z" fill="white"/>
<path d="M31.977 11.0225C30.9759 10.0197 29.469 9.71941 28.16 10.2619C26.851 10.8044 25.9983 12.0825 26 13.4995V25.2605C25.7307 25.4828 25.4833 25.7302 25.261 25.9995H17.5C15.567 25.9995 14 27.5665 14 29.4995C14 31.4325 15.567 32.9995 17.5 32.9995H25.261C26.5878 34.6235 28.7226 35.3517 30.7653 34.8771C32.8079 34.4024 34.4029 32.8074 34.8776 30.7647C35.3523 28.7221 34.624 26.5872 33 25.2605V13.4995C33.0037 12.5703 32.6353 11.6783 31.977 11.0225ZM28 13.4995C28 12.6711 28.6716 11.9995 29.5 11.9995C30.3284 11.9995 31 12.6711 31 13.4995V24.2125C30.0202 23.9285 28.9798 23.9285 28 24.2125V13.4995ZM17.5 30.9995C16.6716 30.9995 16 30.3279 16 29.4995C16 28.6711 16.6716 27.9995 17.5 27.9995H24.213C23.929 28.9793 23.929 30.0196 24.213 30.9995H17.5ZM29.5 32.9995C27.567 32.9995 26 31.4325 26 29.4995C26 27.5665 27.567 25.9995 29.5 25.9995C31.433 25.9995 33 27.5665 33 29.4995C33 31.4325 31.433 32.9995 29.5 32.9995Z" fill="white"/>
<path d="M37 39C37 38.4477 36.5523 38 36 38H24C23.4477 38 23 38.4477 23 39C23 39.5523 23.4477 40 24 40H36C36.5523 40 37 39.5523 37 39Z" fill="white"/>
<path d="M32 44C32 43.4477 31.5523 43 31 43H20C19.4477 43 19 43.4477 19 44C19 44.5523 19.4477 45 20 45H31C31.5523 45 32 44.5523 32 44Z" fill="white"/>
<path d="M26 48H21C20.4477 48 20 48.4477 20 49C20 49.5523 20.4477 50 21 50H26C26.5523 50 27 49.5523 27 49C27 48.4477 26.5523 48 26 48Z" fill="white"/>
</svg>
