<svg width="16" height="16" viewBox="0 0 16 16" fill="none" xmlns="http://www.w3.org/2000/svg">
<path d="M3.36625 7.24342L14.6272 7.06416C14.8806 7.06048 15.0958 7.14459 15.2728 7.3165C15.4493 7.48798 15.5394 7.70044 15.5431 7.95385C15.5468 8.20727 15.4627 8.42246 15.2908 8.59943C15.1193 8.77596 14.9068 8.86607 14.6534 8.86975L3.39199 9.01734L8.27678 13.7624C8.45889 13.9393 8.55192 14.1491 8.55586 14.392C8.55897 14.6349 8.47207 14.8474 8.29517 15.0295C8.11827 15.2116 7.9084 15.3046 7.66554 15.3085C7.42268 15.3116 7.21019 15.2247 7.02809 15.0478L0.60073 8.80437C0.418622 8.62747 0.325808 8.41781 0.32229 8.17537C0.31876 7.93209 0.405443 7.7194 0.582342 7.53729L6.82582 1.10993C7.00271 0.927826 7.2126 0.835221 7.45546 0.832119C7.69831 0.828173 7.91079 0.914648 8.0929 1.09155C8.27501 1.26845 8.36761 1.47833 8.37071 1.72119C8.37466 1.96404 8.28819 2.17652 8.11129 2.35863L3.36625 7.24342Z" fill="white"/>
</svg>
