<svg width="16" height="16" viewBox="0 0 16 16" fill="none" xmlns="http://www.w3.org/2000/svg">
<path d="M3.49139 8.90875L14.7532 9.02817C15.0066 9.03051 15.2213 8.94525 15.3974 8.77241C15.573 8.59999 15.662 8.38706 15.6643 8.13362C15.6666 7.88019 15.5814 7.66545 15.4085 7.4894C15.2361 7.31378 15.0232 7.2248 14.7698 7.22247L3.50771 7.13472L8.36722 2.36379C8.54838 2.18593 8.6403 1.97556 8.64295 1.73269C8.64476 1.48981 8.55674 1.27779 8.37887 1.09663C8.20101 0.915462 7.99064 0.823551 7.74778 0.820894C7.5049 0.819083 7.29288 0.907109 7.11171 1.08497L0.717619 7.36251C0.536453 7.54037 0.444755 7.75053 0.442525 7.99298C0.440287 8.23628 0.5281 8.44851 0.705964 8.62967L6.9835 15.0238C7.16136 15.2049 7.37173 15.2964 7.61461 15.2982C7.85748 15.3009 8.0695 15.2133 8.25066 15.0354C8.43183 14.8576 8.52332 14.6472 8.52513 14.4043C8.52778 14.1614 8.44018 13.9494 8.26232 13.7683L3.49139 8.90875Z" fill="#624DE3"/>
</svg>
