<svg width="65" height="19" viewBox="0 0 65 19" fill="none" xmlns="http://www.w3.org/2000/svg">
<g clip-path="url(#clip0_1485_24207)">
<path d="M16.8939 4H23.4031V5.30134H20.8436V12.6168H19.4362V5.30134H16.8882V4H16.8939ZM23.125 6.37768H24.3281V7.58172H24.3508C24.3905 7.41145 24.4643 7.24727 24.5721 7.08916C24.6799 6.93105 24.8105 6.77903 24.9637 6.65133C25.1169 6.51754 25.2871 6.41417 25.4744 6.32903C25.6617 6.24998 25.8546 6.20741 26.0476 6.20741C26.1951 6.20741 26.303 6.21349 26.3597 6.21957C26.4165 6.22565 26.4732 6.23782 26.5356 6.2439V7.56956C26.4448 7.55132 26.354 7.53916 26.2576 7.52699C26.1611 7.51483 26.0703 7.50875 25.9795 7.50875C25.7638 7.50875 25.5595 7.5574 25.3666 7.64861C25.1736 7.73983 25.0091 7.87969 24.8672 8.05604C24.7253 8.23847 24.6118 8.45739 24.5267 8.72495C24.4416 8.99252 24.4019 9.29657 24.4019 9.64319V12.6107H23.1193V6.37768H23.125ZM32.4319 12.6168H31.1721V11.7472H31.1494C30.9905 12.0634 30.7578 12.3128 30.4457 12.5013C30.1336 12.6898 29.8158 12.7871 29.4923 12.7871C28.7262 12.7871 28.17 12.5864 27.8295 12.179C27.489 11.7715 27.3188 11.1574 27.3188 10.3364V6.37768H28.6013V10.2026C28.6013 10.7499 28.6978 11.1391 28.8964 11.3641C29.0894 11.5891 29.3675 11.7047 29.7193 11.7047C29.9917 11.7047 30.213 11.6621 30.3946 11.5709C30.5762 11.4797 30.7238 11.3641 30.8316 11.2121C30.9451 11.0661 31.0245 10.8837 31.0756 10.677C31.1267 10.4702 31.1494 10.2452 31.1494 10.002V6.38376H32.4319V12.6168ZM34.6168 10.6162C34.6565 11.0175 34.7984 11.2972 35.0424 11.4614C35.2921 11.6195 35.5872 11.7047 35.9334 11.7047C36.0526 11.7047 36.1888 11.6925 36.342 11.6743C36.4952 11.656 36.6428 11.6134 36.7733 11.5587C36.9095 11.504 37.0173 11.4188 37.1081 11.3094C37.1933 11.1999 37.233 11.0601 37.2273 10.8837C37.2216 10.7074 37.1592 10.5614 37.0457 10.452C36.9322 10.3364 36.7903 10.2513 36.6144 10.1783C36.4385 10.1114 36.2399 10.0506 36.0129 10.002C35.7859 9.95332 35.5589 9.89859 35.3262 9.84386C35.0878 9.78913 34.8552 9.71616 34.6338 9.63711C34.4125 9.55806 34.2139 9.4486 34.038 9.30873C33.862 9.17495 33.7202 8.9986 33.618 8.78577C33.5102 8.57293 33.4591 8.31145 33.4591 7.99523C33.4591 7.65469 33.5386 7.37497 33.6918 7.14389C33.845 6.91281 34.0436 6.73038 34.2763 6.59052C34.5147 6.45065 34.7757 6.35336 35.0651 6.29255C35.3546 6.23782 35.6326 6.20741 35.8937 6.20741C36.1945 6.20741 36.4839 6.2439 36.7563 6.31079C37.0287 6.37768 37.2784 6.48714 37.4997 6.64525C37.721 6.79727 37.9026 6.99794 38.0502 7.24118C38.1977 7.48443 38.2885 7.7824 38.3282 8.12901H36.9889C36.9265 7.80064 36.7903 7.57564 36.569 7.46618C36.3477 7.35064 36.0923 7.29591 35.8086 7.29591C35.7178 7.29591 35.6099 7.302 35.4851 7.32024C35.3602 7.33848 35.2467 7.36889 35.1332 7.41145C35.0254 7.45402 34.9346 7.52091 34.8552 7.60605C34.7814 7.69118 34.7417 7.80064 34.7417 7.9405C34.7417 8.11077 34.7984 8.24455 34.9062 8.34793C35.0141 8.45131 35.1559 8.53644 35.3319 8.60941C35.5078 8.67631 35.7064 8.73712 35.9334 8.78577C36.1604 8.83441 36.3931 8.88914 36.6314 8.94387C36.8641 8.9986 37.0911 9.07157 37.3181 9.15063C37.5451 9.22968 37.7437 9.33914 37.9196 9.479C38.0956 9.61886 38.2374 9.78913 38.3453 9.99589C38.4531 10.2026 38.5098 10.4641 38.5098 10.7682C38.5098 11.1391 38.4304 11.4493 38.2715 11.7107C38.1126 11.9661 37.9083 12.179 37.6586 12.3371C37.4089 12.4952 37.1251 12.6168 36.8187 12.6898C36.5123 12.7628 36.2058 12.7992 35.905 12.7992C35.5362 12.7992 35.1957 12.7567 34.8835 12.6655C34.5714 12.5742 34.299 12.4405 34.072 12.2641C33.845 12.0817 33.6634 11.8567 33.5329 11.5891C33.4024 11.3216 33.3343 10.9993 33.3229 10.6283H34.6168V10.6162ZM38.8503 6.37768H39.8208V4.50473H41.1033V6.37768H42.261V7.40537H41.1033V10.7378C41.1033 10.8837 41.109 11.0053 41.1203 11.1148C41.1317 11.2182 41.1601 11.3094 41.1998 11.3824C41.2395 11.4553 41.3019 11.5101 41.3871 11.5465C41.4722 11.583 41.58 11.6013 41.7276 11.6013C41.8184 11.6013 41.9092 11.6013 42 11.5952C42.0908 11.5891 42.1816 11.577 42.2724 11.5526V12.6168C42.1305 12.6351 41.9886 12.6472 41.8581 12.6655C41.7219 12.6837 41.5857 12.6898 41.4438 12.6898C41.1033 12.6898 40.8309 12.6533 40.6266 12.5864C40.4223 12.5195 40.2577 12.4161 40.1442 12.2824C40.0251 12.1486 39.9513 11.9844 39.9059 11.7837C39.8662 11.583 39.8378 11.352 39.8321 11.0966V7.41754H38.8617V6.37768H38.8503ZM43.169 6.37768H44.3834V7.22294H44.4061C44.5877 6.85808 44.8374 6.60268 45.1609 6.44457C45.4844 6.28646 45.8306 6.20741 46.2108 6.20741C46.6705 6.20741 47.0677 6.29255 47.4082 6.4689C47.7487 6.63916 48.0325 6.87632 48.2595 7.18037C48.4865 7.48443 48.651 7.83713 48.7645 8.23847C48.878 8.63982 48.9348 9.07157 48.9348 9.52765C48.9348 9.94724 48.8837 10.3547 48.7816 10.7439C48.6794 11.1391 48.5262 11.4857 48.3219 11.7898C48.1176 12.0938 47.8565 12.331 47.5387 12.5134C47.2209 12.6959 46.8521 12.7871 46.4208 12.7871C46.2335 12.7871 46.0462 12.7688 45.8589 12.7323C45.6717 12.6959 45.4901 12.6351 45.3198 12.556C45.1496 12.4769 44.985 12.3736 44.8431 12.2459C44.6956 12.1182 44.5764 11.9722 44.4742 11.808H44.4515V14.9215H43.169V6.37768V6.37768ZM47.6522 9.50333C47.6522 9.2236 47.6182 8.94995 47.5501 8.68239C47.482 8.41482 47.3798 8.18374 47.2436 7.97699C47.1074 7.77023 46.9372 7.60605 46.7386 7.48443C46.5343 7.36281 46.3016 7.29591 46.0405 7.29591C45.5014 7.29591 45.0928 7.49659 44.8204 7.89794C44.548 8.29928 44.4118 8.83441 44.4118 9.50333C44.4118 9.81954 44.4459 10.1114 44.5196 10.379C44.5934 10.6466 44.6956 10.8776 44.8431 11.0722C44.985 11.2668 45.1552 11.4188 45.3539 11.5283C45.5525 11.6438 45.7852 11.6986 46.0462 11.6986C46.3413 11.6986 46.5853 11.6317 46.7896 11.504C46.9939 11.3763 47.1585 11.206 47.289 11.0053C47.4196 10.7986 47.516 10.5675 47.5728 10.306C47.6239 10.0445 47.6522 9.77697 47.6522 9.50333V9.50333ZM49.9165 4H51.1991V5.30134H49.9165V4ZM49.9165 6.37768H51.1991V12.6168H49.9165V6.37768ZM52.3454 4H53.628V12.6168H52.3454V4ZM57.5607 12.7871C57.0954 12.7871 56.6811 12.7019 56.3179 12.5378C55.9547 12.3736 55.6483 12.1425 55.3929 11.8567C55.1432 11.5648 54.9503 11.2182 54.8197 10.8168C54.6892 10.4155 54.6211 9.97156 54.6211 9.49116C54.6211 9.01684 54.6892 8.57901 54.8197 8.17766C54.9503 7.77632 55.1432 7.4297 55.3929 7.13781C55.6426 6.84592 55.9547 6.62092 56.3179 6.45673C56.6811 6.29255 57.0954 6.20741 57.5607 6.20741C58.0261 6.20741 58.4404 6.29255 58.8036 6.45673C59.1668 6.62092 59.4732 6.852 59.7286 7.13781C59.9783 7.4297 60.1712 7.77632 60.3018 8.17766C60.4323 8.57901 60.5004 9.01684 60.5004 9.49116C60.5004 9.97156 60.4323 10.4155 60.3018 10.8168C60.1712 11.2182 59.9783 11.5648 59.7286 11.8567C59.4789 12.1486 59.1668 12.3736 58.8036 12.5378C58.4404 12.7019 58.0261 12.7871 57.5607 12.7871V12.7871ZM57.5607 11.6986C57.8445 11.6986 58.0942 11.6317 58.3042 11.504C58.5141 11.3763 58.6844 11.206 58.8206 10.9993C58.9568 10.7925 59.0533 10.5553 59.1214 10.2939C59.1838 10.0324 59.2178 9.76481 59.2178 9.49116C59.2178 9.2236 59.1838 8.96211 59.1214 8.69455C59.0589 8.42698 58.9568 8.19591 58.8206 7.98915C58.6844 7.7824 58.5141 7.61821 58.3042 7.49051C58.0942 7.36281 57.8445 7.29591 57.5607 7.29591C57.277 7.29591 57.0273 7.36281 56.8173 7.49051C56.6073 7.61821 56.4371 7.78848 56.3009 7.98915C56.1647 8.19591 56.0682 8.42698 56.0001 8.69455C55.9377 8.96211 55.9036 9.2236 55.9036 9.49116C55.9036 9.76481 55.9377 10.0324 56.0001 10.2939C56.0625 10.5553 56.1647 10.7925 56.3009 10.9993C56.4371 11.206 56.6073 11.3763 56.8173 11.504C57.0273 11.6378 57.277 11.6986 57.5607 11.6986V11.6986ZM60.8749 6.37768H61.8454V4.50473H63.1279V6.37768H64.2856V7.40537H63.1279V10.7378C63.1279 10.8837 63.1336 11.0053 63.1449 11.1148C63.1563 11.2182 63.1846 11.3094 63.2244 11.3824C63.2641 11.4553 63.3265 11.5101 63.4116 11.5465C63.4968 11.583 63.6046 11.6013 63.7521 11.6013C63.8429 11.6013 63.9337 11.6013 64.0245 11.5952C64.1153 11.5891 64.2061 11.577 64.2969 11.5526V12.6168C64.1551 12.6351 64.0132 12.6472 63.8827 12.6655C63.7465 12.6837 63.6103 12.6898 63.4684 12.6898C63.1279 12.6898 62.8555 12.6533 62.6512 12.5864C62.4469 12.5195 62.2823 12.4161 62.1688 12.2824C62.0496 12.1486 61.9759 11.9844 61.9305 11.7837C61.8908 11.583 61.8624 11.352 61.8567 11.0966V7.41754H60.8863V6.37768H60.8749Z" fill="white"/>
<path d="M15.3962 7.99589H9.51694L7.70094 2L5.87928 7.99589L0 7.98981L4.76131 11.6992L2.93964 17.689L7.70094 13.9857L12.4566 17.689L10.6406 11.6992L15.3962 7.99589Z" fill="#00B67A"/>
<path d="M11.0504 12.4156L10.6418 10.8926L7.70215 13.4605L11.0504 12.4156Z" fill="#005128"/>
</g>
<defs>
<clipPath id="clip0_1485_24207">
<rect width="64.2861" height="19" fill="white"/>
</clipPath>
</defs>
</svg>
