<svg width="92" height="32" viewBox="0 0 92 32" fill="none" xmlns="http://www.w3.org/2000/svg">
<path d="M7.99658 13.6106L14.8812 13.6119L19.0674 13.6126V9.51758L7.99658 13.6106Z" fill="#BDD2DB"/>
<path d="M19.0688 9.51865V23.9764L24.2975 7.58496L19.0688 9.51865Z" fill="#D9EBF3"/>
<path d="M19.0686 13.613L14.8823 13.6123L19.0686 23.9756V13.613Z" fill="#D9EBF3"/>
<path d="M7.99658 13.6113L15.9547 16.2717L14.8812 13.6127L7.99658 13.6113Z" fill="#C3D8E1"/>
<path d="M33.3588 20.1683C33.2982 20.2283 33.1969 20.303 33.0554 20.3929C32.9138 20.4828 32.7295 20.5726 32.5021 20.6625C32.2745 20.7522 31.9965 20.8294 31.6679 20.8946C31.3392 20.9593 30.9627 20.9918 30.5383 20.9918C29.7194 20.9918 29.0117 20.862 28.4153 20.6026C27.8187 20.3432 27.3259 19.9811 26.9368 19.517C26.5475 19.0529 26.262 18.504 26.0801 17.87C25.8981 17.2361 25.8071 16.54 25.8071 15.7812C25.8071 15.0228 25.9057 14.3214 26.1028 13.6776C26.2999 13.0337 26.5956 12.4774 26.9899 12.008C27.3841 11.539 27.877 11.1721 28.4684 10.9075C29.0598 10.6432 29.7547 10.5107 30.5535 10.5107C30.9476 10.5107 31.3041 10.5458 31.6224 10.6155C31.941 10.6854 32.219 10.7679 32.4566 10.8626C32.694 10.9576 32.8911 11.0572 33.0481 11.1621C33.2045 11.2668 33.3233 11.3544 33.4043 11.424C33.4952 11.5041 33.5734 11.5988 33.6395 11.7085C33.705 11.8185 33.738 11.9383 33.738 12.0679C33.738 12.2677 33.662 12.4673 33.5104 12.6668C33.3588 12.8666 33.1921 13.0513 33.0099 13.2209C32.8886 13.1011 32.7522 12.979 32.6006 12.8541C32.4491 12.7293 32.2796 12.6196 32.0926 12.5246C31.9055 12.4299 31.693 12.3501 31.4557 12.2851C31.218 12.2202 30.9527 12.1877 30.6596 12.1877C30.1441 12.1877 29.7119 12.2902 29.3631 12.4947C29.0144 12.6994 28.7338 12.9663 28.5215 13.2957C28.3092 13.6252 28.1576 14.002 28.0666 14.4262C27.9756 14.8506 27.9301 15.2822 27.9301 15.7214C27.9301 16.1907 27.9756 16.6398 28.0666 17.0689C28.1575 17.4981 28.3141 17.8775 28.5367 18.2068C28.7589 18.5362 29.0496 18.8008 29.4086 19.0004C29.7673 19.2002 30.2146 19.2999 30.7505 19.2999C31.0334 19.2999 31.2938 19.265 31.5314 19.1951C31.7688 19.1253 31.9789 19.0404 32.1608 18.9404C32.3427 18.8409 32.5021 18.7361 32.6385 18.6262C32.775 18.5164 32.8886 18.4216 32.9796 18.3416C33.0405 18.4116 33.1108 18.4965 33.1921 18.5962C33.2733 18.6969 33.3494 18.8019 33.4194 18.9106C33.4901 19.0206 33.5507 19.1303 33.6013 19.2399C33.652 19.35 33.6771 19.4496 33.6771 19.5393C33.6771 19.6693 33.652 19.779 33.6013 19.8688C33.5507 19.9587 33.4698 20.0586 33.3588 20.1683ZM41.1733 19.02C41.1733 19.8134 41.2903 20.3908 41.5244 20.7523C41.3413 20.8224 41.1709 20.8728 41.0133 20.9029C40.8553 20.9331 40.6901 20.948 40.5173 20.948C40.1514 20.948 39.874 20.8777 39.6861 20.7372C39.4978 20.5967 39.3784 20.3959 39.3275 20.1346C39.1037 20.3659 38.8088 20.5616 38.4426 20.7223C38.0767 20.8826 37.6289 20.9632 37.1002 20.9632C36.8256 20.9632 36.5509 20.9256 36.2766 20.8508C36.0019 20.7753 35.7525 20.653 35.529 20.483C35.305 20.3127 35.1222 20.0849 34.9797 19.7996C34.8373 19.5142 34.766 19.1665 34.766 18.7561C34.766 18.2456 34.8906 17.83 35.1398 17.5099C35.389 17.1894 35.7018 16.9367 36.078 16.7514C36.4542 16.5664 36.8611 16.439 37.2985 16.3687C37.7356 16.2986 38.1376 16.2537 38.5038 16.2334C38.626 16.2235 38.7451 16.2183 38.8621 16.2183H39.1901V15.9442C39.1901 15.5582 39.0859 15.2839 38.8776 15.1216C38.669 14.9591 38.3307 14.8777 37.863 14.8777C37.4255 14.8777 37.0366 14.9481 36.6958 15.0886C36.3551 15.2293 36.022 15.3898 35.6967 15.5706C35.5542 15.3999 35.4396 15.2117 35.3535 15.0058C35.2671 14.8001 35.2238 14.6469 35.2238 14.5463C35.2238 14.4058 35.3026 14.2702 35.4602 14.1396C35.6179 14.0093 35.834 13.8911 36.1087 13.7856C36.3833 13.6802 36.6983 13.595 37.0545 13.5296C37.4104 13.4643 37.7869 13.4317 38.1834 13.4317C38.7327 13.4317 39.198 13.487 39.5794 13.5974C39.9607 13.708 40.2709 13.8786 40.5097 14.1095C40.7486 14.3406 40.919 14.6292 41.0208 14.9756C41.1224 15.3221 41.1733 15.7265 41.1733 16.1882V19.02ZM39.2208 17.2727H39.007C38.9358 17.2727 38.8646 17.2779 38.7936 17.2878C38.5393 17.308 38.2874 17.3381 38.0385 17.3781C37.789 17.4184 37.568 17.4887 37.3749 17.589C37.1815 17.6895 37.0239 17.8202 36.902 17.9806C36.7798 18.1414 36.7189 18.3474 36.7189 18.5983C36.7189 18.8795 36.8001 19.1179 36.9629 19.3137C37.1254 19.5096 37.4001 19.6075 37.7866 19.6075C37.9797 19.6075 38.1628 19.5826 38.3359 19.5321C38.5087 19.4821 38.6611 19.4168 38.7936 19.3364C38.9255 19.2561 39.0301 19.1683 39.1065 19.0727C39.1826 18.9774 39.2208 18.8896 39.2208 18.8092V17.2727ZM44.9717 14.3052C45.1339 14.1146 45.3874 13.9212 45.732 13.7253C46.0767 13.5295 46.5126 13.4316 47.0401 13.4316C47.4154 13.4316 47.7725 13.4944 48.1123 13.6198C48.4519 13.7455 48.7535 13.9489 49.0169 14.2299C49.2807 14.5112 49.4911 14.8828 49.6484 15.3446C49.8054 15.8066 49.8842 16.3741 49.8842 17.0467C49.8842 17.83 49.7927 18.4754 49.6102 18.9824C49.4277 19.4896 49.1922 19.8913 48.9033 20.1875C48.6144 20.4837 48.2924 20.6921 47.9377 20.8126C47.5828 20.9331 47.2278 20.9934 46.8731 20.9934C46.579 20.9934 46.3229 20.9607 46.1052 20.8955C45.8869 20.8301 45.702 20.7575 45.5499 20.677C45.398 20.5968 45.2813 20.5166 45.2003 20.436C45.1191 20.3558 45.0684 20.3004 45.0481 20.2702V23.9731H42.9734V13.6424C43.0243 13.6326 43.0859 13.6225 43.158 13.6124C43.2196 13.6025 43.2911 13.5949 43.3733 13.5897C43.4551 13.5848 43.5524 13.5822 43.6652 13.5822C44.0032 13.5822 44.2903 13.6375 44.5258 13.7479C44.7614 13.8585 44.9102 14.0442 44.9717 14.3052ZM47.7176 17.0919C47.7176 16.7906 47.6925 16.5096 47.6419 16.2484C47.5915 15.9874 47.5079 15.7614 47.3918 15.5706C47.2754 15.3799 47.1183 15.2316 46.9213 15.1262C46.7239 15.0207 46.4838 14.9681 46.201 14.9681C45.7763 14.9681 45.4804 15.0485 45.3137 15.209C45.1467 15.3698 45.0633 15.5456 45.0633 15.7363V18.9297C45.1442 19.0102 45.2879 19.1054 45.4953 19.2159C45.7029 19.3265 45.9427 19.3815 46.2159 19.3815C46.7318 19.3815 47.1111 19.1809 47.3539 18.779C47.5964 18.3774 47.7176 17.8149 47.7176 17.0919ZM51.4855 19.6829C51.4142 19.4821 51.3684 19.2711 51.3481 19.0501C51.3275 18.8293 51.3175 18.6085 51.3175 18.3872V11.398C51.3888 11.3881 51.4648 11.378 51.5464 11.3679C51.6173 11.358 51.6937 11.3505 51.7753 11.3453C51.8565 11.3404 51.9377 11.3378 52.0193 11.3378C52.1818 11.3378 52.3446 11.3529 52.5074 11.383C52.6698 11.4132 52.8175 11.4734 52.95 11.5637C53.0821 11.6541 53.1888 11.7772 53.2701 11.9327C53.3516 12.0885 53.3923 12.2919 53.3923 12.5428V13.6122H55.5282V15.1337H53.3923V18.3459C53.3923 19.0464 53.6821 19.3966 54.262 19.3966C54.4042 19.3966 54.5387 19.3741 54.6661 19.3288C54.7931 19.2836 54.9077 19.2335 55.0095 19.1782C55.1111 19.123 55.2002 19.0653 55.2763 19.005C55.3527 18.9447 55.406 18.8996 55.4364 18.8695C55.5892 19.0905 55.7059 19.2819 55.7874 19.4433C55.8687 19.605 55.9093 19.7567 55.9093 19.8985C55.9093 20.0304 55.8562 20.1597 55.7492 20.2864C55.6422 20.413 55.4921 20.5297 55.299 20.6361C55.1059 20.7425 54.8722 20.8286 54.5976 20.8945C54.3229 20.9604 54.0228 20.9934 53.6975 20.9934C53.0667 20.9934 52.5759 20.8728 52.2251 20.6319C51.8744 20.3908 51.6276 20.0744 51.4855 19.6829ZM60.7827 19.487C61.0379 19.487 61.2622 19.4595 61.4562 19.4041C61.6503 19.3491 61.8237 19.2813 61.9767 19.2009C62.1298 19.1206 62.2626 19.0328 62.3748 18.9373C62.4869 18.842 62.5891 18.7541 62.6813 18.6736C62.8034 18.8241 62.9311 19.0177 63.0638 19.2534C63.1963 19.4896 63.2627 19.6829 63.2627 19.8334C63.2627 20.0544 63.1354 20.2553 62.8813 20.436C62.6679 20.5968 62.3651 20.7349 61.9737 20.8502C61.5821 20.9656 61.1219 21.0234 60.5932 21.0234C60.1148 21.0234 59.6446 20.9632 59.182 20.8427C58.7191 20.7222 58.3072 20.5113 57.9464 20.21C57.5851 19.9088 57.2928 19.5047 57.0691 18.9975C56.8454 18.4904 56.7335 17.8503 56.7335 17.0769C56.7335 16.4442 56.8327 15.8996 57.0309 15.4426C57.2292 14.9857 57.4935 14.6066 57.8242 14.3053C58.1547 14.004 58.5285 13.7833 58.9456 13.6425C59.3624 13.502 59.7896 13.4316 60.227 13.4316C60.7966 13.4316 61.2795 13.5197 61.6763 13.6952C62.0728 13.871 62.3957 14.1071 62.6449 14.4032C62.8941 14.6994 63.0744 15.0384 63.1866 15.42C63.2982 15.8017 63.3543 16.2032 63.3543 16.625V16.8359C63.3543 16.9164 63.3518 17.0016 63.3467 17.0919C63.3415 17.1824 63.3364 17.2704 63.3315 17.3555C63.3261 17.441 63.3185 17.5087 63.3088 17.5589H58.8083C58.8489 18.1113 59.0226 18.5707 59.3285 18.9373C59.6346 19.3039 60.1194 19.487 60.7827 19.487ZM61.4778 16.4291C61.4778 15.9471 61.3832 15.5555 61.194 15.2542C61.0046 14.953 60.6644 14.8023 60.1736 14.8023C59.7541 14.8023 59.4191 14.9455 59.1687 15.2316C58.918 15.5179 58.7928 15.917 58.7928 16.4291H61.4778V16.4291ZM66.9647 14.3433C67.0257 14.2537 67.1072 14.1541 67.2088 14.0444C67.3103 13.9348 67.4352 13.8352 67.5825 13.7456C67.7299 13.6559 67.8927 13.581 68.0709 13.5213C68.2486 13.4615 68.4392 13.4316 68.6429 13.4316C68.7651 13.4316 68.8946 13.4417 69.0319 13.4615C69.1692 13.4815 69.2962 13.5189 69.4132 13.5735C69.5303 13.6284 69.6242 13.703 69.6955 13.7976C69.7667 13.8922 69.8022 14.0092 69.8022 14.1486C69.8022 14.3677 69.7464 14.6193 69.6345 14.9034C69.5224 15.1877 69.4108 15.4301 69.299 15.6309C69.1259 15.4903 68.9531 15.3824 68.7803 15.307C68.6072 15.2317 68.4038 15.194 68.17 15.194C67.8548 15.194 67.5904 15.2847 67.3767 15.4659C67.163 15.6471 67.0563 15.8637 67.0563 16.1154V20.9917H64.9815V13.6424C65.0325 13.6326 65.0934 13.6225 65.1646 13.6124C65.2256 13.6025 65.2968 13.5949 65.3784 13.5897C65.4596 13.5848 65.556 13.5822 65.6682 13.5822C65.9934 13.5822 66.2757 13.6445 66.5149 13.7689C66.7537 13.8931 66.9038 14.0847 66.9647 14.3433ZM72.8637 14.3433C72.9246 14.2537 73.0058 14.1541 73.1077 14.0444C73.2092 13.9348 73.3338 13.8352 73.4815 13.7456C73.6288 13.6559 73.7916 13.581 73.9695 13.5213C74.1475 13.4615 74.3382 13.4316 74.5416 13.4316C74.6637 13.4316 74.7932 13.4417 74.9305 13.4615C75.0678 13.4815 75.1948 13.5189 75.3119 13.5735C75.4289 13.6284 75.5229 13.703 75.5944 13.7976C75.6653 13.8922 75.7011 14.0092 75.7011 14.1486C75.7011 14.3677 75.645 14.6193 75.5332 14.9034C75.421 15.1877 75.3094 15.4301 75.1976 15.6309C75.0248 15.4903 74.8517 15.3824 74.6789 15.307C74.5058 15.2317 74.3024 15.194 74.0687 15.194C73.7534 15.194 73.489 15.2847 73.2753 15.4659C73.0619 15.6471 72.9552 15.8637 72.9552 16.1154V20.9917H70.8805V13.6424C70.9311 13.6326 70.992 13.6225 71.0636 13.6124C71.1245 13.6025 71.1957 13.5949 71.277 13.5897C71.3582 13.5848 71.4549 13.5822 71.5668 13.5822C71.8924 13.5822 72.1746 13.6445 72.4135 13.7689C72.6524 13.8931 72.8024 14.0847 72.8637 14.3433ZM82.7644 19.02C82.7644 19.8134 82.8811 20.3908 83.1152 20.7523C82.9321 20.8224 82.7617 20.8728 82.6044 20.9029C82.4464 20.9331 82.2812 20.948 82.1084 20.948C81.7422 20.948 81.4651 20.8777 81.2772 20.7372C81.0886 20.5967 80.9692 20.3959 80.9186 20.1346C80.6948 20.3659 80.3999 20.5616 80.0337 20.7223C79.6675 20.8826 79.22 20.9632 78.6913 20.9632C78.4167 20.9632 78.142 20.9256 77.8674 20.8508C77.5927 20.7753 77.3436 20.653 77.1198 20.483C76.8961 20.3127 76.713 20.0849 76.5708 19.7996C76.428 19.5142 76.3571 19.1665 76.3571 18.7561C76.3571 18.2456 76.4814 17.83 76.7309 17.5099C76.9801 17.1894 77.2929 16.9367 77.6691 16.7514C78.0453 16.5664 78.4522 16.439 78.8896 16.3687C79.3267 16.2986 79.7287 16.2537 80.0946 16.2334C80.2168 16.2235 80.3362 16.2183 80.4532 16.2183H80.7812V15.9442C80.7812 15.5582 80.6769 15.2839 80.4684 15.1216C80.2598 14.9591 79.9218 14.8777 79.4541 14.8777C79.0166 14.8777 78.6277 14.9481 78.2869 15.0886C77.9462 15.2293 77.613 15.3898 77.2878 15.5706C77.1453 15.3999 77.0307 15.2117 76.9443 15.0058C76.8579 14.8001 76.8149 14.6469 76.8149 14.5463C76.8149 14.4058 76.8934 14.2702 77.0513 14.1396C77.209 14.0093 77.4251 13.8911 77.6997 13.7856C77.9744 13.6802 78.2894 13.595 78.6456 13.5296C79.0015 13.4643 79.3777 13.4317 79.7745 13.4317C80.3235 13.4317 80.7888 13.487 81.1702 13.5974C81.5515 13.708 81.8616 13.8786 82.1008 14.1095C82.3397 14.3406 82.5101 14.6292 82.6119 14.9756C82.7135 15.3221 82.7644 15.7265 82.7644 16.1882V19.02ZM80.8116 17.2727H80.5981C80.5269 17.2727 80.4557 17.2779 80.3847 17.2878C80.1304 17.308 79.8785 17.3381 79.6293 17.3781C79.3801 17.4184 79.1588 17.4887 78.9657 17.589C78.7726 17.6895 78.6149 17.8202 78.4928 17.9806C78.3709 18.1414 78.3097 18.3474 78.3097 18.5983C78.3097 18.8795 78.3912 19.1179 78.554 19.3137C78.7165 19.5096 78.9911 19.6075 79.3777 19.6075C79.5708 19.6075 79.7539 19.5826 79.927 19.5321C80.0998 19.4821 80.2522 19.4168 80.3847 19.3364C80.5166 19.2561 80.6212 19.1683 80.6973 19.0727C80.7737 18.9774 80.8119 18.8896 80.8119 18.8092V17.2727H80.8116Z" fill="white"/>
</svg>
