<svg width="38" height="36" viewBox="0 0 38 36" fill="none" xmlns="http://www.w3.org/2000/svg">
<g clip-path="url(#clip0_682_19319)">
<path d="M0.945801 14.8833C0.945801 11.9188 3.90354 9.51562 7.55208 9.51562H30.8289C34.4774 9.51562 37.4352 11.9188 37.4352 14.8833V22.6369C37.4352 25.6014 34.4774 28.0045 30.8289 28.0045H7.55208C3.90353 28.0045 0.945801 25.6014 0.945801 22.6369V14.8833Z" fill="#FFECEC"/>
<path d="M19.1906 7.17188C16.2038 7.17188 13.7847 9.58506 13.7847 12.5645C13.7847 15.5439 16.2038 17.9571 19.1906 17.9571C22.1773 17.9571 24.5963 15.5439 24.5963 12.5645C24.5963 9.58506 22.1773 7.17188 19.1906 7.17188Z" fill="#FF9696"/>
<path d="M15.2843 19.7881C11.9227 20.5431 8.37866 22.1829 8.37866 24.6983V28.7428H30.0021V24.6983C30.0021 22.1829 26.4581 20.543 23.0965 19.7881L19.1904 28.2687L15.2843 19.7881Z" fill="#FF9696"/>
<path d="M20.2597 23.765L19.7844 19.7354H18.5963L18.1211 23.765L19.1904 25.8984L20.2597 23.765Z" fill="#FF9696"/>
<path d="M18.24 19.6167L18.7152 19.9723H19.6657L20.1409 19.6167L20.0221 18.9056L19.1905 18.7871L18.3588 18.9056L18.24 19.6167Z" fill="#FF9696"/>
</g>
<defs>
<clipPath id="clip0_682_19319">
<rect width="36.4894" height="35" fill="white" transform="translate(0.945801 0.171875)"/>
</clipPath>
</defs>
</svg>
