<svg width="92" height="30" viewBox="0 0 92 30" fill="none" xmlns="http://www.w3.org/2000/svg">
<path d="M8.62598 12.8332L15.5071 12.8345L19.6913 12.8352V8.80078L8.62598 12.8332Z" fill="#BDB3F9"/>
<path d="M19.6929 8.80154V23.0452L24.9189 6.89648L19.6929 8.80154Z" fill="#BDB3F9"/>
<path d="M19.6925 12.8347L15.5083 12.834L19.6925 23.0439V12.8347Z" fill="#BDB3F9"/>
<path d="M8.62598 12.833L16.5801 15.454L15.5071 12.8343L8.62598 12.833Z" fill="#BDB3F9"/>
<path d="M33.9756 19.2929C33.915 19.352 33.8138 19.4257 33.6723 19.5141C33.5308 19.6027 33.3466 19.6912 33.1194 19.7798C32.8918 19.8682 32.614 19.9443 32.2855 20.0084C31.9571 20.0722 31.5808 20.1042 31.1566 20.1042C30.338 20.1042 29.6307 19.9763 29.0346 19.7208C28.4383 19.4652 27.9457 19.1085 27.5568 18.6513C27.1678 18.194 26.8824 17.6532 26.7005 17.0286C26.5186 16.4041 26.4277 15.7183 26.4277 14.9708C26.4277 14.2236 26.5262 13.5325 26.7233 12.8983C26.9203 12.2639 27.2158 11.7159 27.6099 11.2535C28.0039 10.7914 28.4966 10.4299 29.0877 10.1692C29.6788 9.90881 30.3733 9.77832 31.1717 9.77832C31.5656 9.77832 31.9219 9.81283 32.2401 9.88156C32.5585 9.95043 32.8364 10.0316 33.0739 10.125C33.3112 10.2186 33.5081 10.3167 33.6651 10.42C33.8214 10.5232 33.9402 10.6095 34.0211 10.6781C34.112 10.757 34.1902 10.8503 34.2562 10.9584C34.3217 11.0667 34.3547 11.1847 34.3547 11.3125C34.3547 11.5093 34.2786 11.7059 34.1271 11.9025C33.9756 12.0993 33.809 12.2812 33.6269 12.4483C33.5057 12.3303 33.3693 12.21 33.2179 12.0869C33.0664 11.964 32.897 11.856 32.71 11.7624C32.5231 11.6691 32.3107 11.5904 32.0734 11.5264C31.8359 11.4625 31.5708 11.4305 31.2778 11.4305C30.7625 11.4305 30.3306 11.5314 29.982 11.7329C29.6334 11.9346 29.3529 12.1975 29.1408 12.5221C28.9286 12.8466 28.777 13.2179 28.686 13.6358C28.5951 14.0539 28.5497 14.4792 28.5497 14.9118C28.5497 15.3742 28.5951 15.8167 28.686 16.2394C28.777 16.6623 28.9335 17.0361 29.1559 17.3605C29.378 17.685 29.6686 17.9457 30.0274 18.1423C30.3859 18.3392 30.833 18.4373 31.3687 18.4373C31.6514 18.4373 31.9116 18.403 32.1492 18.3341C32.3864 18.2654 32.5964 18.1817 32.7782 18.0832C32.96 17.9851 33.1194 17.8819 33.2557 17.7736C33.3921 17.6654 33.5057 17.5721 33.5966 17.4932C33.6575 17.5622 33.7278 17.6459 33.809 17.7441C33.8902 17.8433 33.9662 17.9467 34.0362 18.0539C34.1068 18.1622 34.1674 18.2703 34.218 18.3783C34.2686 18.4867 34.2938 18.5849 34.2938 18.6732C34.2938 18.8013 34.2686 18.9094 34.218 18.9979C34.1674 19.0864 34.0865 19.1848 33.9756 19.2929ZM41.7862 18.1616C41.7862 18.9432 41.9032 19.5121 42.1371 19.8683C41.9541 19.9374 41.7838 19.9869 41.6263 20.0166C41.4684 20.0463 41.3033 20.0611 41.1306 20.0611C40.7648 20.0611 40.4876 19.9918 40.2998 19.8534C40.1116 19.715 39.9922 19.5171 39.9413 19.2597C39.7177 19.4875 39.4229 19.6804 39.0569 19.8387C38.6911 19.9967 38.2436 20.0761 37.7152 20.0761C37.4407 20.0761 37.1662 20.039 36.892 19.9653C36.6175 19.891 36.3681 19.7704 36.1448 19.6029C35.9209 19.4351 35.7382 19.2108 35.5958 18.9296C35.4533 18.6485 35.3821 18.3059 35.3821 17.9016C35.3821 17.3987 35.5067 16.9893 35.7557 16.6738C36.0048 16.3581 36.3175 16.1091 36.6935 15.9266C37.0695 15.7443 37.4761 15.6188 37.9134 15.5496C38.3503 15.4805 38.7521 15.4362 39.1181 15.4163C39.2402 15.4065 39.3593 15.4014 39.4762 15.4014H39.8041V15.1313C39.8041 14.751 39.6998 14.4808 39.4917 14.3209C39.2832 14.1608 38.9451 14.0806 38.4775 14.0806C38.0403 14.0806 37.6516 14.15 37.311 14.2884C36.9704 14.4271 36.6375 14.5852 36.3123 14.7633C36.1699 14.5951 36.0554 14.4097 35.9693 14.2068C35.883 14.0041 35.8397 13.8532 35.8397 13.7542C35.8397 13.6158 35.9184 13.4822 36.076 13.3535C36.2336 13.2251 36.4496 13.1086 36.7241 13.0047C36.9986 12.9009 37.3134 12.8169 37.6695 12.7525C38.0252 12.6882 38.4015 12.656 38.7978 12.656C39.3468 12.656 39.8119 12.7105 40.1931 12.8192C40.5743 12.9282 40.8842 13.0963 41.123 13.3238C41.3617 13.5515 41.532 13.8358 41.6338 14.1771C41.7353 14.5184 41.7862 14.9168 41.7862 15.3717V18.1616ZM39.8347 16.4402H39.621C39.5498 16.4402 39.4786 16.4453 39.4077 16.4551C39.1535 16.475 38.9017 16.5046 38.653 16.544C38.4036 16.5837 38.1827 16.653 37.9897 16.7518C37.7964 16.8508 37.6388 16.9795 37.517 17.1376C37.3949 17.296 37.334 17.4989 37.334 17.7462C37.334 18.0232 37.4152 18.258 37.5779 18.451C37.7404 18.644 38.0149 18.7404 38.4012 18.7404C38.5942 18.7404 38.7772 18.7159 38.9502 18.6661C39.1229 18.6169 39.2753 18.5525 39.4077 18.4734C39.5395 18.3942 39.6441 18.3077 39.7204 18.2135C39.7965 18.1197 39.8347 18.0332 39.8347 17.9539V16.4402ZM45.5828 13.5167C45.7449 13.3288 45.9982 13.1382 46.3427 12.9453C46.6872 12.7524 47.1229 12.6559 47.6501 12.6559C48.0252 12.6559 48.3821 12.7178 48.7218 12.8414C49.0611 12.9652 49.3626 13.1656 49.6259 13.4424C49.8895 13.7195 50.0998 14.0856 50.2571 14.5406C50.414 14.9958 50.4928 15.5549 50.4928 16.2175C50.4928 16.9892 50.4013 17.625 50.2189 18.1245C50.0365 18.6243 49.8011 19.02 49.5123 19.3118C49.2236 19.6037 48.9018 19.809 48.5473 19.9276C48.1925 20.0463 47.8377 20.1058 47.4832 20.1058C47.1892 20.1058 46.9332 20.0736 46.7157 20.0093C46.4975 19.9449 46.3127 19.8734 46.1606 19.7941C46.0088 19.715 45.8921 19.636 45.8112 19.5567C45.73 19.4776 45.6794 19.423 45.6591 19.3933V23.0414H43.5854V12.8636C43.6363 12.8539 43.6978 12.844 43.7699 12.834C43.8315 12.8243 43.903 12.8168 43.9851 12.8117C44.0669 12.8069 44.1641 12.8043 44.2769 12.8043C44.6147 12.8043 44.9016 12.8588 45.1371 12.9676C45.3725 13.0766 45.5213 13.2595 45.5828 13.5167ZM48.3273 16.262C48.3273 15.9652 48.3021 15.6884 48.2515 15.431C48.2013 15.1739 48.1176 14.9513 48.0016 14.7632C47.8852 14.5754 47.7283 14.4293 47.5313 14.3254C47.3341 14.2215 47.0941 14.1697 46.8114 14.1697C46.3869 14.1697 46.0912 14.2489 45.9245 14.407C45.7576 14.5654 45.6743 14.7387 45.6743 14.9265V18.0726C45.7552 18.1519 45.8988 18.2457 46.106 18.3546C46.3136 18.4635 46.5533 18.5177 46.8263 18.5177C47.342 18.5177 47.721 18.3201 47.9637 17.9242C48.2061 17.5286 48.3273 16.9744 48.3273 16.262ZM52.0932 18.8147C52.022 18.6169 51.9763 18.409 51.956 18.1913C51.9354 17.9738 51.9254 17.7562 51.9254 17.5382V10.6524C51.9966 10.6427 52.0726 10.6328 52.1541 10.6228C52.225 10.6131 52.3014 10.6057 52.3829 10.6005C52.4641 10.5957 52.5453 10.5932 52.6268 10.5932C52.7892 10.5932 52.9519 10.608 53.1146 10.6376C53.277 10.6674 53.4246 10.7267 53.557 10.8157C53.6891 10.9047 53.7957 11.0261 53.877 11.1793C53.9585 11.3328 53.9991 11.5332 53.9991 11.7803V12.8339H56.134V14.3329H53.9991V17.4975C53.9991 18.1876 54.2887 18.5326 54.8684 18.5326C55.0105 18.5326 55.145 18.5105 55.2722 18.4658C55.3992 18.4213 55.5137 18.3719 55.6155 18.3175C55.717 18.2631 55.8061 18.2062 55.8822 18.1468C55.9585 18.0874 56.0119 18.043 56.0422 18.0133C56.1949 18.2311 56.3115 18.4196 56.393 18.5787C56.4742 18.7379 56.5148 18.8874 56.5148 19.0271C56.5148 19.157 56.4618 19.2845 56.3548 19.4092C56.2479 19.534 56.0979 19.649 55.9049 19.7538C55.7119 19.8586 55.4783 19.9434 55.2038 20.0084C54.9293 20.0733 54.6293 20.1058 54.3042 20.1058C53.6736 20.1058 53.1831 19.987 52.8325 19.7497C52.482 19.5121 52.2353 19.2004 52.0932 18.8147ZM61.3858 18.6217C61.6409 18.6217 61.8651 18.5946 62.059 18.54C62.2529 18.4858 62.4263 18.419 62.5793 18.3398C62.7323 18.2608 62.865 18.1742 62.9771 18.0801C63.0892 17.9862 63.1913 17.8997 63.2834 17.8203C63.4055 17.9687 63.5331 18.1593 63.6658 18.3916C63.7982 18.6243 63.8646 18.8147 63.8646 18.963C63.8646 19.1807 63.7373 19.3786 63.4834 19.5567C63.2701 19.715 62.9674 19.8511 62.5762 19.9647C62.1848 20.0784 61.7248 20.1354 61.1964 20.1354C60.7183 20.1354 60.2483 20.0761 59.786 19.9573C59.3233 19.8386 58.9115 19.6308 58.5509 19.334C58.1898 19.0373 57.8977 18.6391 57.6741 18.1394C57.4505 17.6398 57.3387 17.0093 57.3387 16.2473C57.3387 15.6239 57.4377 15.0874 57.6359 14.6371C57.8341 14.187 58.0983 13.8135 58.4288 13.5167C58.7591 13.2199 59.1327 13.0024 59.5496 12.8637C59.9662 12.7253 60.3932 12.6559 60.8304 12.6559C61.3997 12.6559 61.8824 12.7427 62.279 12.9157C62.6753 13.0889 62.998 13.3214 63.2471 13.6132C63.4961 13.905 63.6764 14.2389 63.7885 14.6149C63.9 14.991 63.9561 15.3865 63.9561 15.8021V16.0098C63.9561 16.0891 63.9537 16.173 63.9485 16.2621C63.9433 16.3512 63.9382 16.4379 63.9334 16.5218C63.9279 16.606 63.9203 16.6727 63.9106 16.7222H59.4124C59.453 17.2664 59.6266 17.7189 59.9323 18.0801C60.2383 18.4413 60.7228 18.6217 61.3858 18.6217ZM62.0805 15.6091C62.0805 15.1342 61.986 14.7484 61.7969 14.4516C61.6076 14.1548 61.2676 14.0063 60.7771 14.0063C60.3577 14.0063 60.0229 14.1474 59.7726 14.4293C59.522 14.7113 59.3969 15.1046 59.3969 15.609H62.0805V15.6091ZM67.5647 13.5542C67.6257 13.4659 67.7072 13.3678 67.8087 13.2597C67.9102 13.1517 68.035 13.0535 68.1823 12.9653C68.3295 12.8769 68.4922 12.8031 68.6704 12.7443C68.8479 12.6854 69.0385 12.6559 69.2421 12.6559C69.3642 12.6559 69.4936 12.6659 69.6309 12.6854C69.7681 12.7051 69.8951 12.742 70.012 12.7958C70.129 12.8498 70.2229 12.9233 70.2941 13.0165C70.3653 13.1098 70.4008 13.225 70.4008 13.3623C70.4008 13.5782 70.345 13.826 70.2332 14.1059C70.1211 14.386 70.0096 14.6249 69.8978 14.8226C69.7248 14.6842 69.5521 14.5778 69.3794 14.5036C69.2064 14.4294 69.0031 14.3923 68.7695 14.3923C68.4543 14.3923 68.1901 14.4816 67.9765 14.6601C67.7629 14.8387 67.6563 15.052 67.6563 15.3V20.1042H65.5826V12.8636C65.6335 12.8539 65.6944 12.844 65.7656 12.834C65.8265 12.8243 65.8977 12.8168 65.9792 12.8117C66.0604 12.8069 66.1567 12.8043 66.2688 12.8043C66.594 12.8043 66.876 12.8657 67.1151 12.9882C67.3539 13.1106 67.5038 13.2994 67.5647 13.5542ZM73.4607 13.5542C73.5216 13.4659 73.6028 13.3678 73.7046 13.2597C73.8061 13.1517 73.9307 13.0535 74.0782 12.9653C74.2255 12.8769 74.3882 12.8031 74.5661 12.7443C74.7439 12.6854 74.9345 12.6559 75.1378 12.6559C75.2599 12.6559 75.3893 12.6659 75.5265 12.6854C75.6638 12.7051 75.7908 12.742 75.9077 12.7958C76.0247 12.8498 76.1186 12.9233 76.1901 13.0165C76.261 13.1098 76.2968 13.225 76.2968 13.3623C76.2968 13.5782 76.2407 13.826 76.1289 14.1059C76.0168 14.386 75.9053 14.6249 75.7935 14.8226C75.6208 14.6842 75.4478 14.5778 75.2751 14.5036C75.102 14.4294 74.8987 14.3923 74.6651 14.3923C74.35 14.3923 74.0858 14.4816 73.8722 14.6601C73.6589 14.8387 73.5522 15.052 73.5522 15.3V20.1042H71.4785V12.8636C71.5291 12.8539 71.59 12.844 71.6615 12.834C71.7224 12.8243 71.7936 12.8168 71.8748 12.8117C71.9561 12.8069 72.0527 12.8043 72.1645 12.8043C72.4899 12.8043 72.772 12.8657 73.0108 12.9882C73.2495 13.1106 73.3995 13.2994 73.4607 13.5542ZM83.3565 18.1616C83.3565 18.9432 83.4732 19.5121 83.7071 19.8683C83.5241 19.9374 83.3538 19.9869 83.1966 20.0166C83.0387 20.0463 82.8736 20.0611 82.7009 20.0611C82.3348 20.0611 82.0579 19.9918 81.87 19.8534C81.6816 19.715 81.5622 19.5171 81.5116 19.2597C81.288 19.4875 80.9932 19.6804 80.6272 19.8387C80.2611 19.9967 79.8139 20.0761 79.2855 20.0761C79.011 20.0761 78.7365 20.039 78.462 19.9653C78.1874 19.891 77.9384 19.7704 77.7148 19.6029C77.4912 19.4351 77.3082 19.2108 77.166 18.9296C77.0233 18.6485 76.9524 18.3059 76.9524 17.9016C76.9524 17.3987 77.0767 16.9893 77.326 16.6738C77.5751 16.3581 77.8878 16.1091 78.2638 15.9266C78.6398 15.7443 79.0464 15.6188 79.4837 15.5496C79.9206 15.4805 80.3223 15.4362 80.6881 15.4163C80.8102 15.4065 80.9296 15.4014 81.0465 15.4014H81.3743V15.1313C81.3743 14.751 81.2701 14.4808 81.0617 14.3209C80.8532 14.1608 80.5154 14.0806 80.0478 14.0806C79.6106 14.0806 79.2219 14.15 78.8813 14.2884C78.5407 14.4271 78.2077 14.5852 77.8826 14.7633C77.7402 14.5951 77.6257 14.4097 77.5393 14.2068C77.453 14.0041 77.41 13.8532 77.41 13.7542C77.41 13.6158 77.4884 13.4822 77.6463 13.3535C77.8039 13.2251 78.0199 13.1086 78.2944 13.0047C78.5689 12.9009 78.8837 12.8169 79.2397 12.7525C79.5955 12.6882 79.9715 12.656 80.3681 12.656C80.9168 12.656 81.3819 12.7105 81.7631 12.8192C82.1443 12.9282 82.4542 13.0963 82.6933 13.3238C82.932 13.5515 83.1023 13.8358 83.2041 14.1771C83.3056 14.5184 83.3565 14.9168 83.3565 15.3717V18.1616ZM81.4046 16.4402H81.1913C81.1201 16.4402 81.0489 16.4453 80.978 16.4551C80.7238 16.475 80.472 16.5046 80.223 16.544C79.9739 16.5837 79.7527 16.653 79.5597 16.7518C79.3667 16.8508 79.2091 16.9795 79.087 17.1376C78.9652 17.296 78.904 17.4989 78.904 17.7462C78.904 18.0232 78.9855 18.258 79.1482 18.451C79.3106 18.644 79.5852 18.7404 79.9715 18.7404C80.1645 18.7404 80.3475 18.7159 80.5205 18.6661C80.6932 18.6169 80.8456 18.5525 80.978 18.4734C81.1098 18.3942 81.2144 18.3077 81.2904 18.2135C81.3668 18.1197 81.405 18.0332 81.405 17.9539V16.4402H81.4046Z" fill="#BDB3F9"/>
</svg>
