<svg width="84" height="30" viewBox="0 0 84 30" fill="none" xmlns="http://www.w3.org/2000/svg">
<path d="M29.5347 13.4987C29.5347 12.9478 29.644 12.4363 29.826 11.9247C30.0081 11.4526 30.2631 11.0197 30.6272 10.6656C30.9913 10.3114 31.4283 10.036 31.9017 9.87861C32.4481 9.68185 33.0306 9.60317 33.6133 9.60317C34.2688 9.5638 34.9242 9.68185 35.5433 9.91795C35.9804 10.1147 36.3808 10.3508 36.7452 10.7049C36.9999 10.9804 37.2186 11.2952 37.364 11.6493C37.4733 11.9247 37.5463 12.2002 37.5827 12.4756C37.5827 12.5937 37.5463 12.6724 37.4733 12.7511C37.4006 12.8298 37.2913 12.8691 37.2186 12.8691H36.1261C36.0531 12.8691 35.9441 12.8298 35.8711 12.7904C35.8347 12.7511 35.7617 12.6724 35.7617 12.633C35.7617 12.5937 35.689 12.515 35.616 12.3969C35.507 12.2395 35.3977 12.1215 35.252 12.0035C35.0699 11.846 34.8515 11.6886 34.6329 11.61C34.3051 11.4919 33.9774 11.4526 33.6133 11.4526C33.0306 11.3739 32.4481 11.5706 32.0111 12.0035C31.6104 12.3969 31.3556 12.9872 31.3556 13.5774C31.3556 13.9315 31.319 14.325 31.319 14.7579C31.319 15.1907 31.319 15.5842 31.3556 15.9383C31.319 16.6073 31.574 17.2369 32.0111 17.6697C32.4845 18.0632 33.0306 18.2599 33.6133 18.2206C33.9047 18.2206 34.2324 18.1812 34.5238 18.1025C34.7786 18.0238 35.0336 17.9058 35.252 17.709C35.4706 17.5516 35.616 17.3155 35.7254 17.0401C35.8347 16.7253 35.9074 16.3318 35.9074 15.9777V15.899H34.0868C33.9774 15.899 33.9047 15.8596 33.8317 15.781C33.759 15.7022 33.7227 15.6236 33.7227 15.5055V14.4431C33.7227 14.325 33.759 14.2463 33.8317 14.1676C33.9047 14.0889 33.9774 14.0496 34.0868 14.0496H37.364C37.4733 14.0496 37.5463 14.0889 37.619 14.1676C37.692 14.2463 37.7284 14.325 37.7284 14.4431V16.0564C37.7284 16.6073 37.6554 17.1582 37.4733 17.6697C37.2913 18.1419 37.0363 18.5747 36.7086 18.9289C36.3445 19.283 35.9074 19.5978 35.434 19.7552C34.2688 20.1487 33.0306 20.1487 31.8654 19.7552C31.392 19.5978 30.9913 19.3223 30.6272 18.9289C30.2995 18.5747 30.0444 18.1419 29.8624 17.6697C29.6804 17.1582 29.571 16.6073 29.5347 16.0564C29.5347 15.8596 29.5347 15.6629 29.5347 15.4662C29.5347 15.2301 29.5347 15.0333 29.5347 14.7972C29.5347 14.5611 29.5347 14.325 29.5347 14.1283C29.5347 13.9315 29.5347 13.6954 29.5347 13.4987Z" fill="#BDB3F9"/>
<path d="M38.3096 16.1341C38.3096 15.6226 38.3826 15.1111 38.5282 14.5995C38.6736 14.1273 38.8923 13.7338 39.1837 13.3404C39.4748 12.9862 39.8391 12.7108 40.2396 12.514C40.6766 12.3173 41.15 12.1992 41.5871 12.1992C42.0605 12.1992 42.5339 12.2779 42.9344 12.514C43.3351 12.7108 43.6991 12.9469 43.9905 13.301C44.2819 13.6551 44.5003 14.0486 44.646 14.4815C44.7917 14.9537 44.901 15.4259 44.901 15.898V16.567C44.901 16.8031 44.7553 16.9605 44.5366 16.9605H40.0575C40.0575 17.1572 40.0939 17.3539 40.1669 17.5507C40.2396 17.7081 40.3853 17.8655 40.4946 17.9835C40.6403 18.1016 40.8223 18.1803 41.0044 18.259C41.1864 18.2983 41.3684 18.3377 41.5871 18.3377C41.8055 18.3377 42.0605 18.2983 42.2789 18.259C42.4246 18.2196 42.5703 18.1409 42.716 18.0229C42.7887 17.9442 42.8617 17.9048 42.971 17.8655C43.0437 17.8261 43.153 17.8261 43.2257 17.8261H44.3182C44.4276 17.8261 44.5003 17.8655 44.5733 17.9442C44.646 18.0229 44.6823 18.1016 44.6823 18.2196C44.646 18.4164 44.5733 18.5738 44.4639 18.7312C44.3182 18.9673 44.0999 19.2034 43.8812 19.3607C43.5898 19.5968 43.2621 19.7542 42.9344 19.9116C42.4976 20.069 42.0605 20.1477 41.6235 20.1084C41.15 20.1084 40.6766 20.0297 40.2762 19.8329C39.8755 19.6755 39.5114 19.4001 39.2564 19.046C38.965 18.6918 38.7466 18.259 38.6009 17.8261C38.3826 17.2359 38.3096 16.685 38.3096 16.1341ZM41.5871 13.9699C41.3684 13.9699 41.15 14.0093 40.9317 14.088C40.7496 14.1667 40.6039 14.2847 40.4582 14.4028C40.3489 14.5208 40.2396 14.6782 40.1669 14.8356C40.0939 14.993 40.0575 15.1504 40.0575 15.3078H43.08C43.08 15.1504 43.0437 14.993 43.0073 14.8356C42.971 14.6782 42.8617 14.5208 42.7523 14.4028C42.643 14.2454 42.4609 14.1667 42.3153 14.088C42.0969 13.9699 41.8419 13.9306 41.5871 13.9699Z" fill="#BDB3F9"/>
<path d="M47.6694 17.1579C47.6694 17.4333 47.7421 17.6694 47.8878 17.8662C48.1065 18.0629 48.4342 18.181 48.7256 18.1416H49.5267C49.7451 18.1416 49.8908 18.299 49.8908 18.5351V19.4795C49.8908 19.5975 49.8545 19.6762 49.7815 19.7549C49.7088 19.8336 49.6358 19.873 49.5267 19.873H48.5436C47.8515 19.9123 47.1597 19.6762 46.6133 19.204C46.1399 18.6532 45.8851 17.9449 45.9215 17.1972V14.0887H45.4117C45.3024 14.0887 45.2297 14.0493 45.1567 13.9706C45.084 13.8919 45.0474 13.8132 45.0474 13.6952V12.7508C45.0474 12.5147 45.193 12.3573 45.4117 12.3573H45.9215V10.3505C45.9215 10.2325 45.9578 10.1538 46.0308 10.0751C46.1035 9.99637 46.1765 9.95703 46.2856 9.95703H47.3054C47.5238 9.95703 47.6694 10.1144 47.6694 10.3505V12.3573H49.4174C49.5267 12.3573 49.5994 12.3967 49.6724 12.4754C49.7451 12.554 49.7815 12.6328 49.7815 12.7508V13.6952C49.7815 13.8132 49.7451 13.8919 49.6724 13.9706C49.5994 14.0493 49.5267 14.0887 49.4174 14.0887H47.6694V17.1579Z" fill="#BDB3F9"/>
<path d="M55.4998 10.1533C55.6091 10.1533 55.7185 10.1927 55.8278 10.2714C55.9005 10.3894 55.9732 10.5075 56.0098 10.6255L59.2144 19.4397C59.2144 19.479 59.2144 19.5184 59.2144 19.5184C59.2144 19.7545 59.0687 19.9119 58.8503 19.9119H57.9035C57.7578 19.9119 57.6485 19.8725 57.5391 19.7938C57.4664 19.7151 57.4301 19.6364 57.3934 19.5577L56.8473 17.9838H52.7323L52.1862 19.5577C52.1496 19.6364 52.1132 19.7151 52.0405 19.7938C51.9312 19.8725 51.8218 19.9119 51.6761 19.9119H50.7293C50.6203 19.9119 50.5473 19.8725 50.4746 19.7938C50.4016 19.7151 50.3652 19.6364 50.3652 19.5184C50.3652 19.479 50.3652 19.4397 50.3652 19.4397L53.5698 10.6255C53.6064 10.5075 53.6791 10.3501 53.7518 10.2714C53.8248 10.1927 53.9341 10.1533 54.0798 10.1533H55.4998ZM56.2282 16.2131L54.7716 12.1995L53.3514 16.2131H56.2282Z" fill="#BDB3F9"/>
<path d="M63.5827 20.0297C63.328 20.0297 63.1093 19.9903 62.8546 19.951C62.6725 19.9116 62.4538 19.8329 62.2718 19.7542C62.1261 19.6755 61.9804 19.5968 61.8347 19.4788C61.7257 19.4001 61.6527 19.282 61.5434 19.2034V21.8004C61.5434 22.0365 61.398 22.1939 61.1793 22.1939H60.1598C60.0504 22.1939 59.9777 22.1545 59.9047 22.0758C59.832 21.9971 59.7954 21.9184 59.7954 21.8004V12.7501C59.7954 12.6321 59.832 12.5534 59.9047 12.4747C59.9777 12.396 60.0504 12.3566 60.1598 12.3566H61.1793C61.2886 12.3566 61.3613 12.396 61.4343 12.4747C61.507 12.5534 61.5434 12.6321 61.5434 12.7501V13.0649C61.6164 12.9469 61.7257 12.8682 61.8347 12.7895C61.9804 12.6714 62.0898 12.5927 62.2718 12.514C62.4538 12.4353 62.6359 12.3566 62.8546 12.2779C63.1093 12.2386 63.328 12.1992 63.5827 12.1992C64.0198 12.1992 64.4205 12.2779 64.7846 12.4747C65.1486 12.6714 65.44 12.9075 65.695 13.2223C65.9498 13.5371 66.1684 13.8912 66.3138 14.2847C66.4595 14.6782 66.5325 15.1111 66.5689 15.5833C66.5689 15.7406 66.5689 15.898 66.5689 16.0948C66.5689 16.2915 66.5689 16.4489 66.5689 16.6063C66.5689 17.0392 66.4595 17.472 66.3138 17.9048C66.1684 18.2983 65.9861 18.6918 65.695 19.0066C65.44 19.3214 65.1123 19.5968 64.7846 19.7542C64.4205 19.951 63.9834 20.0297 63.5827 20.0297ZM64.8209 16.5276C64.8573 16.2522 64.8573 15.9767 64.8209 15.7013C64.8209 15.1898 64.6389 14.7176 64.2748 14.3634C63.9834 14.088 63.5827 13.9699 63.1823 13.9699C62.7816 13.9699 62.3811 14.088 62.0534 14.4028C61.7257 14.7176 61.5434 15.1504 61.5434 15.6226C61.507 15.8193 61.507 15.9767 61.507 16.1735C61.507 16.3702 61.507 16.5276 61.5434 16.7244C61.58 17.6687 62.3082 18.377 63.1823 18.3377C63.5827 18.3377 63.9834 18.1803 64.2748 17.9442C64.6389 17.5507 64.8209 17.0392 64.8209 16.5276Z" fill="#BDB3F9"/>
<path d="M71.0849 20.0297C70.8301 20.0297 70.5751 19.9903 70.3204 19.951C70.1381 19.9116 69.9197 19.8329 69.7376 19.7542C69.5919 19.6755 69.4463 19.5968 69.3006 19.4788C69.1912 19.4001 69.1185 19.282 69.0092 19.2034V21.8004C69.0092 21.9184 68.9728 21.9971 68.9001 22.0758C68.8272 22.1545 68.7544 22.1939 68.6451 22.1939H67.6256C67.4069 22.1939 67.2612 22.0365 67.2612 21.8004V12.7501C67.2612 12.514 67.4069 12.3566 67.6256 12.3566H68.6451C68.7544 12.3566 68.8272 12.396 68.9001 12.4747C68.9728 12.5534 69.0092 12.6321 69.0092 12.7501V13.0649C69.0822 12.9469 69.1912 12.8682 69.3006 12.7895C69.4463 12.6714 69.5556 12.5927 69.7376 12.514C69.9197 12.4353 70.1017 12.3566 70.3204 12.2779C70.5751 12.1992 70.8301 12.1992 71.0849 12.1992C71.5219 12.1992 71.9227 12.2779 72.2867 12.4747C72.6508 12.6714 72.9422 12.9075 73.1972 13.2223C73.4519 13.5371 73.6706 13.8912 73.8163 14.2847C73.9617 14.6782 74.0347 15.1111 74.071 15.5833C74.071 15.7406 74.071 15.898 74.071 16.0948C74.071 16.2915 74.071 16.4489 74.071 16.6063C74.071 17.0392 73.9617 17.472 73.8163 17.9048C73.6706 18.2983 73.4883 18.6918 73.1972 19.0066C72.9422 19.3214 72.6145 19.5968 72.2867 19.7542C71.9227 19.951 71.4856 20.0297 71.0849 20.0297ZM72.3231 16.5276C72.3594 16.2522 72.3594 15.9767 72.3231 15.7013C72.3231 15.1898 72.141 14.7176 71.777 14.3634C71.4492 14.088 71.0485 13.9699 70.6481 13.9699C70.2474 13.9699 69.847 14.1273 69.5556 14.4028C69.2279 14.7176 69.0458 15.1504 69.0458 15.6226C69.0092 15.8193 69.0092 15.9767 69.0092 16.1735C69.0092 16.3702 69.0092 16.5276 69.0458 16.7244C69.0822 17.1572 69.2642 17.59 69.5556 17.9048C69.847 18.1803 70.2474 18.3377 70.6481 18.3377C71.0485 18.3377 71.4492 18.1803 71.777 17.9048C72.1047 17.5507 72.3231 17.0392 72.3231 16.5276Z" fill="#BDB3F9"/>
<path d="M26.3672 14.7978L21.8881 9.95791C21.7424 9.80049 21.5239 9.80049 21.3783 9.95791L20.5043 10.9023L24.1094 14.7978C24.2551 14.9552 24.2551 15.1913 24.1459 15.3487C24.1459 15.3487 24.1459 15.3487 24.1094 15.388L20.395 19.3623L21.269 20.3067C21.4147 20.4641 21.6332 20.4641 21.7788 20.346C21.7788 20.346 21.7788 20.346 21.8152 20.3067L26.4036 15.3487C26.5129 15.2307 26.5129 14.9552 26.3672 14.7978Z" fill="#BDB3F9"/>
<path d="M18.7553 10.3106L18.4275 9.9565C18.2819 9.79911 18.0634 9.79911 17.9177 9.91716C17.9177 9.91716 17.9177 9.91716 17.8813 9.9565L17.0073 10.9009L17.59 11.5305L18.7189 12.7503L19.8478 11.5305L18.7553 10.3106Z" fill="white"/>
<path d="M18.6461 17.4727L17.5172 18.6925L16.9346 19.3221L17.8086 20.2664C17.9542 20.4238 18.1727 20.4238 18.3184 20.2664L18.6461 19.9123L19.775 18.6925L18.6461 17.4727Z" fill="white"/>
<path d="M20.613 14.7952C20.7586 14.9526 20.7586 15.2281 20.613 15.3855L18.6465 17.471L19.7754 18.6908L22.8707 15.3461C23.0164 15.1887 23.0164 14.9133 22.8707 14.7559L19.8846 11.5293L18.7557 12.7491L20.613 14.7952Z" fill="white"/>
<path d="M13.2929 14.9159L16.4246 11.5318L15.2593 10.2727L14.968 9.95791C14.8223 9.80049 14.5674 9.80049 14.4218 9.95791L9.83337 14.9159C9.68771 15.0733 9.68771 15.3094 9.83337 15.4668L14.3125 20.3067C14.4582 20.4641 14.6767 20.4641 14.8223 20.3067L15.1501 19.9525L16.279 18.7327L13.2929 15.5061C13.1108 15.388 13.038 15.1913 13.1836 14.9946C13.22 14.9159 13.2565 14.9159 13.2929 14.9159Z" fill="white"/>
<path d="M16.789 14.9133L18.1728 13.418L17.0075 12.1982L16.4248 11.5293L13.3295 14.874C13.1838 15.0314 13.1838 15.2675 13.3295 15.4248L16.3156 18.6515L16.8982 18.0219L18.0271 16.802L16.789 15.4642C16.6433 15.3461 16.6433 15.0707 16.789 14.9133Z" fill="white"/>
<path d="M16.7899 15.4664L18.0645 16.8436L19.4483 15.3483C19.5939 15.1909 19.5939 14.9155 19.4483 14.7581L18.1737 13.3809L16.7899 14.9155C16.6442 15.0729 16.6442 15.309 16.7899 15.4664Z" fill="white"/>
<path d="M18.7553 10.3106L18.4275 9.9565C18.2819 9.79911 18.0634 9.79911 17.9177 9.91716C17.9177 9.91716 17.9177 9.91716 17.8813 9.9565L17.0073 10.9009L17.59 11.5305L18.7189 12.7503L19.8478 11.5305L18.7553 10.3106Z" fill="#BDB3F9"/>
<path d="M18.6461 17.4727L17.5172 18.6925L16.9346 19.3221L17.8086 20.2664C17.9542 20.4238 18.1727 20.4238 18.3184 20.2664L18.6461 19.9123L19.775 18.6925L18.6461 17.4727Z" fill="#BDB3F9"/>
<path d="M20.613 14.7952C20.7586 14.9526 20.7586 15.2281 20.613 15.3855L18.6465 17.471L19.7754 18.6908L22.8707 15.3461C23.0164 15.1887 23.0164 14.9133 22.8707 14.7559L19.8846 11.5293L18.7557 12.7491L20.613 14.7952Z" fill="#BDB3F9"/>
<path d="M13.2929 14.9159L16.4246 11.5318L15.2593 10.2727L14.968 9.95791C14.8223 9.80049 14.5674 9.80049 14.4218 9.95791L9.83337 14.9159C9.68771 15.0733 9.68771 15.3094 9.83337 15.4668L14.3125 20.3067C14.4582 20.4641 14.6767 20.4641 14.8223 20.3067L15.1501 19.9525L16.279 18.7327L13.2929 15.5061C13.1108 15.388 13.038 15.1913 13.1836 14.9946C13.22 14.9159 13.2565 14.9159 13.2929 14.9159Z" fill="#BDB3F9"/>
<path d="M16.789 14.9133L18.1728 13.418L17.0075 12.1982L16.4248 11.5293L13.3295 14.874C13.1838 15.0314 13.1838 15.2675 13.3295 15.4248L16.3156 18.6515L16.8982 18.0219L18.0271 16.802L16.789 15.4642C16.6433 15.3461 16.6433 15.0707 16.789 14.9133Z" fill="#BDB3F9"/>
<path d="M16.7899 15.4664L18.0645 16.8436L19.4483 15.3483C19.5939 15.1909 19.5939 14.9155 19.4483 14.7581L18.1737 13.3809L16.7899 14.9155C16.6442 15.0729 16.6442 15.309 16.7899 15.4664Z" fill="#BDB3F9"/>
</svg>
