<svg width="54" height="9" viewBox="0 0 54 9" fill="none" xmlns="http://www.w3.org/2000/svg">
<path d="M4.58851 0.833972L5.55638 2.8418C5.62721 2.98817 5.76414 3.08819 5.92132 3.1086L7.85243 3.35329H7.85235C7.97391 3.36993 8.08449 3.43463 8.16084 3.53371C8.23719 3.6328 8.27339 3.75861 8.26182 3.88466C8.25025 4.01071 8.19183 4.12722 8.09878 4.20975L6.59186 5.53486C6.52649 5.5917 6.47732 5.6657 6.4493 5.74908C6.42137 5.83238 6.41575 5.922 6.43311 6.00837L6.88209 8.24004C6.90722 8.36456 6.88441 8.49421 6.81854 8.60166C6.75268 8.70912 6.64889 8.78584 6.52913 8.81563C6.40947 8.84542 6.2832 8.82596 6.17717 8.76126L4.37166 7.66863C4.2996 7.6257 4.21795 7.60309 4.13473 7.60309C4.05152 7.60309 3.96987 7.6257 3.89781 7.66863L2.09471 8.76979H2.09463C1.98861 8.83448 1.86241 8.85403 1.74266 8.82424C1.623 8.79445 1.51922 8.71772 1.45334 8.61027C1.38739 8.50282 1.36467 8.3731 1.38971 8.24856L1.83637 6.00814C1.85372 5.92177 1.8481 5.83216 1.82017 5.74886C1.79216 5.66548 1.74299 5.59148 1.67762 5.53464L0.173003 4.22539C0.0798698 4.1426 0.0215244 4.02568 0.0102865 3.89927C-0.000952413 3.77287 0.0358215 3.64689 0.112843 3.54789C0.189862 3.44897 0.301095 3.38479 0.422985 3.36892L2.52707 3.11322C2.69466 3.09273 2.83903 2.98187 2.90622 2.82201L3.7355 0.864283V0.864369C3.78368 0.751452 3.87128 0.661495 3.98095 0.612513C4.09053 0.563523 4.21408 0.559086 4.32672 0.600138C4.43935 0.641105 4.53282 0.724576 4.58852 0.833727L4.58851 0.833972Z" fill="#BDB3F9"/>
<path d="M16.3971 0.833972L17.365 2.8418C17.4358 2.98817 17.5727 3.08819 17.7299 3.1086L19.661 3.35329H19.6609C19.7825 3.36993 19.8931 3.43463 19.9694 3.53371C20.0458 3.6328 20.082 3.75861 20.0704 3.88466C20.0588 4.01071 20.0004 4.12722 19.9074 4.20975L18.4005 5.53486C18.3351 5.5917 18.2859 5.6657 18.2579 5.74908C18.23 5.83238 18.2243 5.922 18.2417 6.00837L18.6907 8.24004C18.7158 8.36456 18.693 8.49421 18.6271 8.60166C18.5613 8.70912 18.4575 8.78584 18.3377 8.81563C18.2181 8.84542 18.0918 8.82596 17.9858 8.76126L16.1803 7.66863C16.1082 7.6257 16.0265 7.60309 15.9433 7.60309C15.8601 7.60309 15.7785 7.6257 15.7064 7.66863L13.9033 8.76979H13.9032C13.7972 8.83448 13.671 8.85403 13.5513 8.82424C13.4316 8.79445 13.3278 8.71772 13.2619 8.61027C13.196 8.50282 13.1733 8.3731 13.1983 8.24856L13.645 6.00814C13.6623 5.92177 13.6567 5.83216 13.6288 5.74886C13.6007 5.66548 13.5516 5.59148 13.4862 5.53464L11.9816 4.22539C11.8885 4.1426 11.8301 4.02568 11.8189 3.89927C11.8076 3.77287 11.8444 3.64689 11.9214 3.54789C11.9985 3.44897 12.1097 3.38479 12.2316 3.36892L14.3357 3.11322C14.5033 3.09273 14.6476 2.98187 14.7148 2.82201L15.5441 0.864283V0.864369C15.5923 0.751452 15.6799 0.661495 15.7895 0.612513C15.8991 0.563523 16.0227 0.559086 16.1353 0.600138C16.2479 0.641105 16.3414 0.724576 16.3971 0.833727L16.3971 0.833972Z" fill="#BDB3F9"/>
<path d="M28.2052 0.833972L29.1731 2.8418C29.2439 2.98817 29.3808 3.08819 29.538 3.1086L31.4691 3.35329H31.469C31.5906 3.36993 31.7012 3.43463 31.7775 3.53371C31.8539 3.6328 31.8901 3.75861 31.8785 3.88466C31.867 4.01071 31.8085 4.12722 31.7155 4.20975L30.2086 5.53486C30.1432 5.5917 30.094 5.6657 30.066 5.74908C30.0381 5.83238 30.0325 5.922 30.0498 6.00837L30.4988 8.24004C30.5239 8.36456 30.5011 8.49421 30.4352 8.60166C30.3694 8.70912 30.2656 8.78584 30.1458 8.81563C30.0262 8.84542 29.8999 8.82596 29.7939 8.76126L27.9884 7.66863C27.9163 7.6257 27.8346 7.60309 27.7514 7.60309C27.6682 7.60309 27.5866 7.6257 27.5145 7.66863L25.7114 8.76979H25.7113C25.6053 8.83448 25.4791 8.85403 25.3594 8.82424C25.2397 8.79445 25.1359 8.71772 25.07 8.61027C25.0041 8.50282 24.9814 8.3731 25.0064 8.24856L25.4531 6.00814C25.4704 5.92177 25.4648 5.83216 25.4369 5.74886C25.4089 5.66548 25.3597 5.59148 25.2943 5.53464L23.7897 4.22539C23.6966 4.1426 23.6382 4.02568 23.627 3.89927C23.6157 3.77287 23.6525 3.64689 23.7295 3.54789C23.8066 3.44897 23.9178 3.38479 24.0397 3.36892L26.1438 3.11322C26.3114 3.09273 26.4557 2.98187 26.5229 2.82201L27.3522 0.864283V0.864369C27.4004 0.751452 27.488 0.661495 27.5976 0.612513C27.7072 0.563523 27.8308 0.559086 27.9434 0.600138C28.0561 0.641105 28.1495 0.724576 28.2052 0.833727L28.2052 0.833972Z" fill="#BDB3F9"/>
<path d="M40.0148 0.833972L40.9827 2.8418C41.0535 2.98817 41.1904 3.08819 41.3476 3.1086L43.2787 3.35329H43.2786C43.4002 3.36993 43.5108 3.43463 43.5871 3.53371C43.6635 3.6328 43.6997 3.75861 43.6881 3.88466C43.6765 4.01071 43.6181 4.12722 43.525 4.20975L42.0181 5.53486C41.9528 5.5917 41.9036 5.6657 41.8756 5.74908C41.8476 5.83238 41.842 5.922 41.8594 6.00837L42.3084 8.24004C42.3335 8.36456 42.3107 8.49421 42.2448 8.60166C42.179 8.70912 42.0752 8.78584 41.9554 8.81563C41.8357 8.84542 41.7095 8.82596 41.6034 8.76126L39.7979 7.66863C39.7259 7.6257 39.6442 7.60309 39.561 7.60309C39.4778 7.60309 39.3961 7.6257 39.3241 7.66863L37.521 8.76979H37.5209C37.4149 8.83448 37.2887 8.85403 37.1689 8.82424C37.0493 8.79445 36.9455 8.71772 36.8796 8.61027C36.8137 8.50282 36.7909 8.3731 36.816 8.24856L37.2626 6.00814C37.28 5.92177 37.2744 5.83216 37.2464 5.74886C37.2184 5.66548 37.1693 5.59148 37.1039 5.53464L35.5993 4.22539C35.5061 4.1426 35.4478 4.02568 35.4366 3.89927C35.4253 3.77287 35.4621 3.64689 35.5391 3.54789C35.6161 3.44897 35.7274 3.38479 35.8493 3.36892L37.9533 3.11322C38.1209 3.09273 38.2653 2.98187 38.3325 2.82201L39.1618 0.864283V0.864369C39.2099 0.751452 39.2975 0.661495 39.4072 0.612513C39.5168 0.563523 39.6404 0.559086 39.753 0.600138C39.8656 0.641105 39.9591 0.724576 40.0148 0.833727L40.0148 0.833972Z" fill="#BDB3F9"/>
<path d="M50.316 0.821747L51.2386 2.73579C51.3061 2.87532 51.4367 2.97067 51.5865 2.99012L53.4274 3.22338H53.4273C53.5432 3.23925 53.6486 3.30092 53.7214 3.39538C53.7942 3.48984 53.8287 3.60977 53.8177 3.72993C53.8067 3.8501 53.751 3.96117 53.6623 4.03984L52.2257 5.30305C52.1634 5.35723 52.1165 5.42777 52.0898 5.50726C52.0632 5.58667 52.0579 5.6721 52.0744 5.75444L52.5024 7.88186C52.5264 8.00057 52.5046 8.12416 52.4418 8.2266C52.379 8.32903 52.2801 8.40217 52.1659 8.43057C52.0519 8.45897 51.9315 8.44042 51.8304 8.37874L50.1092 7.33715C50.0405 7.29623 49.9627 7.27466 49.8834 7.27466C49.8041 7.27466 49.7262 7.29623 49.6575 7.33715L47.9387 8.38687H47.9386C47.8375 8.44854 47.7172 8.46717 47.6031 8.43878C47.489 8.41038 47.39 8.33724 47.3272 8.2348C47.2644 8.13237 47.2427 8.00871 47.2666 7.88998L47.6924 5.75423C47.7089 5.67189 47.7036 5.58646 47.6769 5.50705C47.6502 5.42756 47.6034 5.35702 47.541 5.30283L46.1067 4.05475C46.0179 3.97583 45.9623 3.86436 45.9516 3.74386C45.9409 3.62336 45.9759 3.50327 46.0494 3.4089C46.1228 3.3146 46.2288 3.25342 46.345 3.23828L48.3508 2.99452C48.5106 2.975 48.6482 2.86931 48.7123 2.71692L49.5028 0.850643V0.850724C49.5487 0.743082 49.6322 0.657327 49.7368 0.610633C49.8412 0.563932 49.959 0.559701 50.0664 0.598836C50.1738 0.63789 50.2629 0.717461 50.316 0.821514L50.316 0.821747Z" fill="#867CCA"/>
<mask id="mask0_1162_50398" style="mask-type:alpha" maskUnits="userSpaceOnUse" x="45" y="0" width="9" height="9">
<path d="M50.3165 0.821747L51.2391 2.73579C51.3066 2.87532 51.4372 2.97067 51.587 2.99012L53.4279 3.22338H53.4278C53.5437 3.23925 53.6491 3.30092 53.7219 3.39538C53.7947 3.48984 53.8292 3.60977 53.8182 3.72993C53.8072 3.8501 53.7515 3.96117 53.6628 4.03984L52.2262 5.30305C52.1639 5.35723 52.117 5.42777 52.0903 5.50726C52.0637 5.58667 52.0583 5.6721 52.0749 5.75444L52.5029 7.88186C52.5269 8.00057 52.5051 8.12416 52.4423 8.2266C52.3795 8.32903 52.2806 8.40217 52.1664 8.43057C52.0524 8.45897 51.932 8.44042 51.8309 8.37874L50.1097 7.33715C50.041 7.29623 49.9632 7.27466 49.8839 7.27466C49.8045 7.27466 49.7267 7.29623 49.658 7.33715L47.9391 8.38687H47.9391C47.838 8.44854 47.7177 8.46717 47.6035 8.43878C47.4895 8.41038 47.3905 8.33724 47.3277 8.2348C47.2649 8.13237 47.2432 8.00871 47.2671 7.88998L47.6929 5.75423C47.7094 5.67189 47.7041 5.58646 47.6774 5.50705C47.6507 5.42756 47.6038 5.35702 47.5415 5.30283L46.1072 4.05475C46.0184 3.97583 45.9628 3.86436 45.9521 3.74386C45.9414 3.62336 45.9764 3.50327 46.0499 3.4089C46.1233 3.3146 46.2293 3.25342 46.3455 3.23828L48.3513 2.99452C48.5111 2.975 48.6487 2.86931 48.7127 2.71692L49.5033 0.850643V0.850724C49.5492 0.743082 49.6327 0.657327 49.7373 0.610633C49.8417 0.563932 49.9595 0.559701 50.0669 0.598836C50.1743 0.63789 50.2634 0.717461 50.3165 0.821514L50.3165 0.821747Z" fill="#FFCC00"/>
</mask>
<g mask="url(#mask0_1162_50398)">
<rect x="51.2407" y="-0.303711" width="6.77695" height="11.8192" fill="#E5E5E5"/>
</g>
</svg>
