<svg width="56" height="9" viewBox="0 0 56 9" fill="none" xmlns="http://www.w3.org/2000/svg">
<path d="M4.80384 0.833972L5.77171 2.8418C5.84254 2.98817 5.97947 3.08819 6.13665 3.1086L8.06776 3.35329H8.06768C8.18924 3.36993 8.29982 3.43463 8.37617 3.53371C8.45252 3.6328 8.48873 3.75861 8.47716 3.88466C8.46559 4.01071 8.40716 4.12722 8.31411 4.20975L6.80719 5.53486C6.74182 5.5917 6.69265 5.6657 6.66464 5.74908C6.6367 5.83238 6.63108 5.922 6.64844 6.00837L7.09743 8.24004C7.12255 8.36456 7.09974 8.49421 7.03388 8.60166C6.96801 8.70912 6.86422 8.78584 6.74447 8.81563C6.62481 8.84542 6.49853 8.82596 6.3925 8.76126L4.58699 7.66863C4.51493 7.6257 4.43328 7.60309 4.35007 7.60309C4.26685 7.60309 4.1852 7.6257 4.11314 7.66863L2.31005 8.76979H2.30996C2.20394 8.83448 2.07774 8.85403 1.958 8.82424C1.83834 8.79445 1.73455 8.71772 1.66867 8.61027C1.60272 8.50282 1.58 8.3731 1.60504 8.24856L2.0517 6.00814C2.06905 5.92177 2.06343 5.83216 2.0355 5.74886C2.00749 5.66548 1.95832 5.59148 1.89295 5.53464L0.388335 4.22539C0.295202 4.1426 0.236856 4.02568 0.225619 3.89927C0.21438 3.77287 0.251154 3.64689 0.328175 3.54789C0.405194 3.44897 0.516427 3.38479 0.638317 3.36892L2.7424 3.11322C2.90999 3.09273 3.05436 2.98187 3.12155 2.82201L3.95083 0.864283V0.864369C3.99901 0.751452 4.08661 0.661495 4.19628 0.612513C4.30586 0.563523 4.42941 0.559086 4.54205 0.600138C4.65468 0.641105 4.74815 0.724576 4.80385 0.833727L4.80384 0.833972Z" fill="#BDB3F9"/>
<path d="M16.6124 0.833972L17.5803 2.8418C17.6511 2.98817 17.7881 3.08819 17.9452 3.1086L19.8764 3.35329H19.8763C19.9978 3.36993 20.1084 3.43463 20.1848 3.53371C20.2611 3.6328 20.2973 3.75861 20.2857 3.88466C20.2742 4.01071 20.2158 4.12722 20.1227 4.20975L18.6158 5.53486C18.5504 5.5917 18.5012 5.6657 18.4732 5.74908C18.4453 5.83238 18.4397 5.922 18.457 6.00837L18.906 8.24004C18.9311 8.36456 18.9083 8.49421 18.8425 8.60166C18.7766 8.70912 18.6728 8.78584 18.5531 8.81563C18.4334 8.84542 18.3071 8.82596 18.2011 8.76126L16.3956 7.66863C16.3235 7.6257 16.2419 7.60309 16.1587 7.60309C16.0754 7.60309 15.9938 7.6257 15.9217 7.66863L14.1186 8.76979H14.1186C14.0125 8.83448 13.8863 8.85403 13.7666 8.82424C13.6469 8.79445 13.5431 8.71772 13.4773 8.61027C13.4113 8.50282 13.3886 8.3731 13.4136 8.24856L13.8603 6.00814C13.8776 5.92177 13.872 5.83216 13.8441 5.74886C13.8161 5.66548 13.7669 5.59148 13.7015 5.53464L12.1969 4.22539C12.1038 4.1426 12.0455 4.02568 12.0342 3.89927C12.023 3.77287 12.0597 3.64689 12.1368 3.54789C12.2138 3.44897 12.325 3.38479 12.4469 3.36892L14.551 3.11322C14.7186 3.09273 14.863 2.98187 14.9301 2.82201L15.7594 0.864283V0.864369C15.8076 0.751452 15.8952 0.661495 16.0049 0.612513C16.1145 0.563523 16.238 0.559086 16.3506 0.600138C16.4633 0.641105 16.5567 0.724576 16.6124 0.833727L16.6124 0.833972Z" fill="#BDB3F9"/>
<path d="M28.421 0.833972L29.3889 2.8418C29.4597 2.98817 29.5967 3.08819 29.7538 3.1086L31.6849 3.35329H31.6849C31.8064 3.36993 31.917 3.43463 31.9934 3.53371C32.0697 3.6328 32.1059 3.75861 32.0943 3.88466C32.0828 4.01071 32.0243 4.12722 31.9313 4.20975L30.4244 5.53486C30.359 5.5917 30.3098 5.6657 30.2818 5.74908C30.2539 5.83238 30.2483 5.922 30.2656 6.00837L30.7146 8.24004C30.7397 8.36456 30.7169 8.49421 30.6511 8.60166C30.5852 8.70912 30.4814 8.78584 30.3617 8.81563C30.242 8.84542 30.1157 8.82596 30.0097 8.76126L28.2042 7.66863C28.1321 7.6257 28.0505 7.60309 27.9673 7.60309C27.884 7.60309 27.8024 7.6257 27.7303 7.66863L25.9272 8.76979H25.9272C25.8211 8.83448 25.6949 8.85403 25.5752 8.82424C25.4555 8.79445 25.3517 8.71772 25.2859 8.61027C25.2199 8.50282 25.1972 8.3731 25.2222 8.24856L25.6689 6.00814C25.6862 5.92177 25.6806 5.83216 25.6527 5.74886C25.6247 5.66548 25.5755 5.59148 25.5101 5.53464L24.0055 4.22539C23.9124 4.1426 23.854 4.02568 23.8428 3.89927C23.8316 3.77287 23.8683 3.64689 23.9454 3.54789C24.0224 3.44897 24.1336 3.38479 24.2555 3.36892L26.3596 3.11322C26.5272 3.09273 26.6715 2.98187 26.7387 2.82201L27.568 0.864283V0.864369C27.6162 0.751452 27.7038 0.661495 27.8135 0.612513C27.923 0.563523 28.0466 0.559086 28.1592 0.600138C28.2719 0.641105 28.3653 0.724576 28.421 0.833727L28.421 0.833972Z" fill="#BDB3F9"/>
<path d="M40.2306 0.833972L41.1985 2.8418C41.2693 2.98817 41.4062 3.08819 41.5634 3.1086L43.4945 3.35329H43.4944C43.616 3.36993 43.7266 3.43463 43.8029 3.53371C43.8793 3.6328 43.9155 3.75861 43.9039 3.88466C43.8923 4.01071 43.8339 4.12722 43.7409 4.20975L42.2339 5.53486C42.1686 5.5917 42.1194 5.6657 42.0914 5.74908C42.0635 5.83238 42.0578 5.922 42.0752 6.00837L42.5242 8.24004C42.5493 8.36456 42.5265 8.49421 42.4606 8.60166C42.3948 8.70912 42.291 8.78584 42.1712 8.81563C42.0516 8.84542 41.9253 8.82596 41.8193 8.76126L40.0137 7.66863C39.9417 7.6257 39.86 7.60309 39.7768 7.60309C39.6936 7.60309 39.612 7.6257 39.5399 7.66863L37.7368 8.76979H37.7367C37.6307 8.83448 37.5045 8.85403 37.3848 8.82424C37.2651 8.79445 37.1613 8.71772 37.0954 8.61027C37.0295 8.50282 37.0068 8.3731 37.0318 8.24856L37.4785 6.00814C37.4958 5.92177 37.4902 5.83216 37.4623 5.74886C37.4342 5.66548 37.3851 5.59148 37.3197 5.53464L35.8151 4.22539C35.722 4.1426 35.6636 4.02568 35.6524 3.89927C35.6411 3.77287 35.6779 3.64689 35.7549 3.54789C35.832 3.44897 35.9432 3.38479 36.0651 3.36892L38.1692 3.11322C38.3367 3.09273 38.4811 2.98187 38.5483 2.82201L39.3776 0.864283V0.864369C39.4258 0.751452 39.5134 0.661495 39.623 0.612513C39.7326 0.563523 39.8562 0.559086 39.9688 0.600138C40.0814 0.641105 40.1749 0.724576 40.2306 0.833727L40.2306 0.833972Z" fill="#BDB3F9"/>
<path d="M52.0372 0.831042L53.0051 2.83887C53.0759 2.98524 53.2129 3.08526 53.37 3.10567L55.3012 3.35036H55.3011C55.4226 3.367 55.5332 3.4317 55.6096 3.53078C55.6859 3.62987 55.7221 3.75568 55.7106 3.88173C55.699 4.00778 55.6406 4.1243 55.5475 4.20682L54.0406 5.53193C53.9752 5.58877 53.926 5.66277 53.898 5.74615C53.8701 5.82945 53.8645 5.91907 53.8818 6.00544L54.3308 8.23711C54.3559 8.36163 54.3331 8.49128 54.2673 8.59873C54.2014 8.70619 54.0976 8.78292 53.9779 8.8127C53.8582 8.84249 53.7319 8.82303 53.6259 8.75834L51.8204 7.6657C51.7483 7.62277 51.6667 7.60016 51.5835 7.60016C51.5003 7.60016 51.4186 7.62277 51.3465 7.6657L49.5434 8.76686H49.5434C49.4373 8.83155 49.3111 8.8511 49.1914 8.82131C49.0717 8.79152 48.9679 8.71479 48.9021 8.60734C48.8361 8.49989 48.8134 8.37017 48.8384 8.24563L49.2851 6.00521C49.3025 5.91884 49.2968 5.82923 49.2689 5.74593C49.2409 5.66255 49.1917 5.58855 49.1263 5.53171L47.6217 4.22246C47.5286 4.13967 47.4703 4.02275 47.459 3.89634C47.4478 3.76994 47.4846 3.64396 47.5616 3.54496C47.6386 3.44604 47.7498 3.38186 47.8717 3.36599L49.9758 3.11029C50.1434 3.0898 50.2878 2.97894 50.3549 2.81908L51.1842 0.861354V0.861439C51.2324 0.748523 51.32 0.658565 51.4297 0.609584C51.5393 0.560594 51.6628 0.556156 51.7754 0.597208C51.8881 0.638175 51.9815 0.721646 52.0372 0.830798L52.0372 0.831042Z" fill="#BDB3F9"/>
<mask id="mask0_1162_50346" style="mask-type:alpha" maskUnits="userSpaceOnUse" x="47" y="0" width="9" height="9">
<path d="M52.0368 0.831042L53.0046 2.83887C53.0754 2.98524 53.2124 3.08526 53.3696 3.10567L55.3007 3.35036H55.3006C55.4222 3.367 55.5327 3.4317 55.6091 3.53078C55.6854 3.62987 55.7216 3.75568 55.7101 3.88173C55.6985 4.00778 55.6401 4.1243 55.547 4.20682L54.0401 5.53193C53.9747 5.58877 53.9256 5.66277 53.8975 5.74615C53.8696 5.82945 53.864 5.91907 53.8813 6.00544L54.3303 8.23711C54.3555 8.36163 54.3327 8.49128 54.2668 8.59873C54.2009 8.70619 54.0971 8.78292 53.9774 8.8127C53.8577 8.84249 53.7314 8.82303 53.6254 8.75834L51.8199 7.6657C51.7478 7.62277 51.6662 7.60016 51.583 7.60016C51.4998 7.60016 51.4181 7.62277 51.3461 7.6657L49.543 8.76686H49.5429C49.4368 8.83155 49.3106 8.8511 49.1909 8.82131C49.0712 8.79152 48.9675 8.71479 48.9016 8.60734C48.8356 8.49989 48.8129 8.37017 48.8379 8.24563L49.2846 6.00521C49.302 5.91884 49.2963 5.82923 49.2684 5.74593C49.2404 5.66255 49.1912 5.58855 49.1259 5.53171L47.6212 4.22246C47.5281 4.13967 47.4698 4.02275 47.4585 3.89634C47.4473 3.76994 47.4841 3.64396 47.5611 3.54496C47.6381 3.44604 47.7493 3.38186 47.8712 3.36599L49.9753 3.11029C50.1429 3.0898 50.2873 2.97894 50.3545 2.81908L51.1837 0.861354V0.861439C51.2319 0.748523 51.3195 0.658565 51.4292 0.609584C51.5388 0.560594 51.6623 0.556156 51.775 0.597208C51.8876 0.638175 51.9811 0.721646 52.0368 0.830798L52.0368 0.831042Z" fill="#BDB3F9"/>
</mask>
<g mask="url(#mask0_1162_50346)">
<rect x="51.5845" y="-0.350586" width="7.10902" height="12.3984" fill="#BDB3F9"/>
</g>
</svg>
