<svg width="31" height="31" viewBox="0 0 31 31" fill="none" xmlns="http://www.w3.org/2000/svg">
<g clip-path="url(#clip0_5595_104842)">
<path d="M9.66936 14.333H12.0016V16.6652H9.66936V14.333ZM25.995 8.50237V24.8281C25.995 26.1108 24.9455 27.1603 23.6628 27.1603H7.33712C6.04273 27.1603 5.00488 26.1108 5.00488 24.8281L5.01654 8.50237C5.01654 7.21964 6.04273 6.17013 7.33712 6.17013H8.50324V3.83789H10.8355V6.17013H20.1644V3.83789H22.4967V6.17013H23.6628C24.9455 6.17013 25.995 7.21964 25.995 8.50237ZM7.33712 10.8346H23.6628V8.50237H7.33712V10.8346ZM23.6628 24.8281V13.1669H7.33712V24.8281H23.6628ZM18.9983 16.6652H21.3306V14.333H18.9983V16.6652ZM14.3338 16.6652H16.6661V14.333H14.3338V16.6652Z" fill="#FF549C"/>
</g>
<defs>
<clipPath id="clip0_5595_104842">
<rect width="30" height="30" fill="white" transform="translate(0.5 0.5)"/>
</clipPath>
</defs>
</svg>
