<svg width="58" height="9" viewBox="0 0 58 9" fill="none" xmlns="http://www.w3.org/2000/svg">
<path d="M5.60126 0.689286L6.5872 2.73339C6.65935 2.8824 6.79884 2.98423 6.95895 3.00501L8.92611 3.25412H8.92603C9.04986 3.27106 9.1625 3.33692 9.24028 3.4378C9.31806 3.53868 9.35494 3.66676 9.34315 3.79508C9.33136 3.92342 9.27185 4.04204 9.17706 4.12605L7.64201 5.4751C7.57542 5.53297 7.52533 5.6083 7.49679 5.69319C7.46834 5.778 7.46262 5.86923 7.48029 5.95716L7.93766 8.22915C7.96325 8.35592 7.94002 8.48791 7.87293 8.59731C7.80583 8.7067 7.7001 8.78482 7.57811 8.81514C7.45622 8.84547 7.32759 8.82566 7.21958 8.75979L5.38036 7.64742C5.30695 7.60372 5.22378 7.58069 5.13901 7.58069C5.05425 7.58069 4.97107 7.60372 4.89767 7.64742L3.06091 8.76847H3.06083C2.95282 8.83433 2.82426 8.85423 2.70229 8.82391C2.58039 8.79358 2.47467 8.71547 2.40756 8.60607C2.34038 8.49668 2.31723 8.36461 2.34274 8.23782L2.79774 5.95694C2.81542 5.869 2.80969 5.77777 2.78124 5.69297C2.7527 5.60808 2.70262 5.53274 2.63603 5.47487L1.10332 4.14197C1.00845 4.05769 0.949017 3.93865 0.93757 3.80996C0.926121 3.68128 0.963581 3.55302 1.04204 3.45224C1.1205 3.35153 1.23381 3.28619 1.35797 3.27003L3.50133 3.00971C3.67206 2.98885 3.81912 2.87598 3.88756 2.71324L4.73233 0.720145V0.720232C4.7814 0.605275 4.87064 0.513693 4.98236 0.463827C5.09398 0.413951 5.21984 0.409434 5.33458 0.451227C5.44932 0.492935 5.54453 0.577913 5.60127 0.689037L5.60126 0.689286Z" fill="#BDB3F9"/>
<path d="M17.6306 0.689286L18.6165 2.73339C18.6886 2.8824 18.8281 2.98423 18.9882 3.00501L20.9554 3.25412H20.9553C21.0792 3.27106 21.1918 3.33692 21.2696 3.4378C21.3474 3.53868 21.3842 3.66676 21.3724 3.79508C21.3607 3.92342 21.3011 4.04204 21.2064 4.12605L19.6713 5.4751C19.6047 5.53297 19.5546 5.6083 19.5261 5.69319C19.4976 5.778 19.4919 5.86923 19.5096 5.95716L19.967 8.22915C19.9926 8.35592 19.9693 8.48791 19.9022 8.59731C19.8351 8.7067 19.7294 8.78482 19.6074 8.81514C19.4855 8.84547 19.3569 8.82566 19.2489 8.75979L17.4097 7.64742C17.3363 7.60372 17.2531 7.58069 17.1683 7.58069C17.0835 7.58069 17.0004 7.60372 16.927 7.64742L15.0902 8.76847H15.0901C14.9821 8.83433 14.8536 8.85423 14.7316 8.82391C14.6097 8.79358 14.504 8.71547 14.4369 8.60607C14.3697 8.49668 14.3465 8.36461 14.372 8.23782L14.827 5.95694C14.8447 5.869 14.839 5.77777 14.8105 5.69297C14.782 5.60808 14.7319 5.53274 14.6653 5.47487L13.1326 4.14197C13.0377 4.05769 12.9783 3.93865 12.9669 3.80996C12.9554 3.68128 12.9929 3.55302 13.0713 3.45224C13.1498 3.35153 13.2631 3.28619 13.3873 3.27003L15.5306 3.00971C15.7014 2.98885 15.8484 2.87598 15.9169 2.71324L16.7616 0.720145V0.720232C16.8107 0.605275 16.8999 0.513693 17.0117 0.463827C17.1233 0.413951 17.2491 0.409434 17.3639 0.451227C17.4786 0.492935 17.5738 0.577913 17.6306 0.689037L17.6306 0.689286Z" fill="#BDB3F9"/>
<path d="M29.6594 0.689286L30.6453 2.73339C30.7175 2.8824 30.8569 2.98423 31.0171 3.00501L32.9842 3.25412H32.9841C33.108 3.27106 33.2206 3.33692 33.2984 3.4378C33.3762 3.53868 33.413 3.66676 33.4013 3.79508C33.3895 3.92342 33.33 4.04204 33.2352 4.12605L31.7001 5.4751C31.6335 5.53297 31.5834 5.6083 31.5549 5.69319C31.5264 5.778 31.5207 5.86923 31.5384 5.95716L31.9958 8.22915C32.0214 8.35592 31.9981 8.48791 31.931 8.59731C31.8639 8.7067 31.7582 8.78482 31.6362 8.81514C31.5143 8.84547 31.3857 8.82566 31.2777 8.75979L29.4385 7.64742C29.3651 7.60372 29.2819 7.58069 29.1971 7.58069C29.1124 7.58069 29.0292 7.60372 28.9558 7.64742L27.119 8.76847H27.1189C27.0109 8.83433 26.8824 8.85423 26.7604 8.82391C26.6385 8.79358 26.5328 8.71547 26.4657 8.60607C26.3985 8.49668 26.3753 8.36461 26.4008 8.23782L26.8558 5.95694C26.8735 5.869 26.8678 5.77777 26.8393 5.69297C26.8108 5.60808 26.7607 5.53274 26.6941 5.47487L25.1614 4.14197C25.0666 4.05769 25.0071 3.93865 24.9957 3.80996C24.9842 3.68128 25.0217 3.55302 25.1001 3.45224C25.1786 3.35153 25.2919 3.28619 25.4161 3.27003L27.5594 3.00971C27.7302 2.98885 27.8772 2.87598 27.9457 2.71324L28.7904 0.720145V0.720232C28.8395 0.605275 28.9287 0.513693 29.0405 0.463827C29.1521 0.413951 29.2779 0.409434 29.3927 0.451227C29.5074 0.492935 29.6026 0.577913 29.6594 0.689037L29.6594 0.689286Z" fill="#BDB3F9"/>
<path d="M41.6877 0.689286L42.6736 2.73339C42.7458 2.8824 42.8853 2.98423 43.0454 3.00501L45.0125 3.25412H45.0125C45.1363 3.27106 45.2489 3.33692 45.3267 3.4378C45.4045 3.53868 45.4414 3.66676 45.4296 3.79508C45.4178 3.92342 45.3583 4.04204 45.2635 4.12605L43.7284 5.4751C43.6618 5.53297 43.6118 5.6083 43.5832 5.69319C43.5548 5.778 43.549 5.86923 43.5667 5.95716L44.0241 8.22915C44.0497 8.35592 44.0264 8.48791 43.9594 8.59731C43.8923 8.7067 43.7865 8.78482 43.6645 8.81514C43.5426 8.84547 43.414 8.82566 43.306 8.75979L41.4668 7.64742C41.3934 7.60372 41.3102 7.58069 41.2254 7.58069C41.1407 7.58069 41.0575 7.60372 40.9841 7.64742L39.1473 8.76847H39.1473C39.0392 8.83433 38.9107 8.85423 38.7887 8.82391C38.6668 8.79358 38.5611 8.71547 38.494 8.60607C38.4268 8.49668 38.4037 8.36461 38.4292 8.23782L38.8842 5.95694C38.9018 5.869 38.8961 5.77777 38.8677 5.69297C38.8391 5.60808 38.789 5.53274 38.7225 5.47487L37.1898 4.14197C37.0949 4.05769 37.0354 3.93865 37.024 3.80996C37.0125 3.68128 37.05 3.55302 37.1285 3.45224C37.2069 3.35153 37.3202 3.28619 37.4444 3.27003L39.5878 3.00971C39.7585 2.98885 39.9055 2.87598 39.974 2.71324L40.8188 0.720145V0.720232C40.8678 0.605275 40.9571 0.513693 41.0688 0.463827C41.1804 0.413951 41.3063 0.409434 41.421 0.451227C41.5357 0.492935 41.631 0.577913 41.6877 0.689037L41.6877 0.689286Z" fill="#BDB3F9"/>
<path d="M53.7165 0.688309L54.7024 2.73241C54.7746 2.88143 54.9141 2.98326 55.0742 3.00403L57.0413 3.25314H57.0413C57.1651 3.27008 57.2777 3.33595 57.3555 3.43683C57.4333 3.5377 57.4702 3.66578 57.4584 3.79411C57.4466 3.92244 57.3871 4.04106 57.2923 4.12507L55.7572 5.47412C55.6907 5.53199 55.6406 5.60732 55.612 5.69222C55.5836 5.77702 55.5779 5.86826 55.5955 5.95618L56.0529 8.22817C56.0785 8.35495 56.0553 8.48694 55.9882 8.59633C55.9211 8.70573 55.8153 8.78384 55.6933 8.81417C55.5715 8.84449 55.4428 8.82468 55.3348 8.75882L53.4956 7.64645C53.4222 7.60274 53.339 7.57971 53.2542 7.57971C53.1695 7.57971 53.0863 7.60274 53.0129 7.64645L51.1761 8.76749H51.1761C51.0681 8.83335 50.9395 8.85325 50.8175 8.82293C50.6956 8.7926 50.5899 8.71449 50.5228 8.60509C50.4556 8.4957 50.4325 8.36364 50.458 8.23685L50.913 5.95596C50.9307 5.86803 50.9249 5.77679 50.8965 5.69199C50.8679 5.6071 50.8178 5.53177 50.7513 5.4739L49.2186 4.141C49.1237 4.05671 49.0643 3.93768 49.0528 3.80899C49.0414 3.6803 49.0788 3.55205 49.1573 3.45126C49.2357 3.35055 49.349 3.28521 49.4732 3.26905L51.6166 3.00873C51.7873 2.98788 51.9344 2.87501 52.0028 2.71226L52.8476 0.719168V0.719255C52.8966 0.604299 52.9859 0.512716 53.0976 0.46285C53.2092 0.412975 53.3351 0.408457 53.4498 0.450251C53.5646 0.491958 53.6598 0.576937 53.7165 0.68806L53.7165 0.688309Z" fill="#897ECC"/>
<mask id="mask0_1179_25753" style="mask-type:alpha" maskUnits="userSpaceOnUse" x="49" y="0" width="9" height="9">
<path d="M53.716 0.688309L54.7019 2.73241C54.7741 2.88143 54.9136 2.98326 55.0737 3.00403L57.0409 3.25314H57.0408C57.1646 3.27008 57.2772 3.33595 57.355 3.43683C57.4328 3.5377 57.4697 3.66578 57.4579 3.79411C57.4461 3.92244 57.3866 4.04106 57.2918 4.12507L55.7568 5.47412C55.6902 5.53199 55.6401 5.60732 55.6115 5.69222C55.5831 5.77702 55.5774 5.86826 55.595 5.95618L56.0524 8.22817C56.078 8.35495 56.0548 8.48694 55.9877 8.59633C55.9206 8.70573 55.8148 8.78384 55.6929 8.81417C55.571 8.84449 55.4423 8.82468 55.3343 8.75882L53.4951 7.64645C53.4217 7.60274 53.3385 7.57971 53.2538 7.57971C53.169 7.57971 53.0858 7.60274 53.0124 7.64645L51.1757 8.76749H51.1756C51.0676 8.83335 50.939 8.85325 50.817 8.82293C50.6951 8.7926 50.5894 8.71449 50.5223 8.60509C50.4551 8.4957 50.432 8.36364 50.4575 8.23685L50.9125 5.95596C50.9302 5.86803 50.9244 5.77679 50.896 5.69199C50.8674 5.6071 50.8174 5.53177 50.7508 5.4739L49.2181 4.141C49.1232 4.05671 49.0638 3.93768 49.0523 3.80899C49.0409 3.6803 49.0783 3.55205 49.1568 3.45126C49.2352 3.35055 49.3486 3.28521 49.4727 3.26905L51.6161 3.00873C51.7868 2.98788 51.9339 2.87501 52.0023 2.71226L52.8471 0.719168V0.719255C52.8961 0.604299 52.9854 0.512716 53.0971 0.46285C53.2087 0.412975 53.3346 0.408457 53.4493 0.450251C53.5641 0.491958 53.6593 0.576937 53.716 0.68806L53.716 0.688309Z" fill="#BDB3F9"/>
</mask>
<g mask="url(#mask0_1179_25753)">
<rect x="53.2539" y="-0.513672" width="7.24174" height="12.6224" fill="white"/>
</g>
</svg>
