<svg width="29" height="30" viewBox="0 0 29 30" fill="none" xmlns="http://www.w3.org/2000/svg">
<path fill-rule="evenodd" clip-rule="evenodd" d="M16.3737 2.64048C16.3158 2.27615 16.048 1.98057 15.6921 1.88768C14.5339 1.58366 13.3179 1.58366 12.1597 1.88768C11.8039 1.98057 11.536 2.27615 11.4781 2.64048L11.2875 3.84808C11.2284 3.88065 11.1705 3.91443 11.1126 3.94941L9.97133 3.51029C9.62751 3.37758 9.23784 3.46203 8.97847 3.72382C8.1364 4.57433 7.52837 5.62872 7.21229 6.78325C7.11578 7.13793 7.23763 7.51675 7.52355 7.74959L8.4754 8.51927C8.47419 8.58562 8.47419 8.65317 8.4754 8.72073L7.52355 9.4892C7.23763 9.72203 7.11578 10.1009 7.21229 10.4555C7.52837 11.6101 8.1364 12.6644 8.97847 13.515C9.23784 13.7768 9.62751 13.8612 9.97133 13.7285L11.1138 13.2894C11.1705 13.3244 11.2296 13.3581 11.2875 13.3907L11.4781 14.5983C11.536 14.9626 11.8039 15.2582 12.1597 15.3511C13.3179 15.6551 14.5339 15.6551 15.6921 15.3511C16.048 15.2582 16.3158 14.9626 16.3737 14.5983L16.5643 13.3907C16.6234 13.3581 16.6813 13.3244 16.7392 13.2894L17.8805 13.7285C18.2243 13.8612 18.614 13.7768 18.8734 13.515C19.7154 12.6644 20.3235 11.6101 20.6395 10.4555C20.736 10.1009 20.6142 9.72203 20.3283 9.4892L19.3764 8.71951C19.3776 8.65316 19.3776 8.58561 19.3764 8.51805L20.3283 7.74959C20.6142 7.51675 20.736 7.13793 20.6395 6.78325C20.3235 5.62872 19.7154 4.57433 18.8734 3.72382C18.614 3.46203 18.2243 3.37758 17.8805 3.51029L16.738 3.94941C16.6813 3.91443 16.6222 3.88065 16.5643 3.84808L16.3737 2.64048ZM14.6401 3.56579L14.8066 4.61294C14.856 4.9266 15.0623 5.19322 15.3543 5.31869C15.6076 5.42847 15.8477 5.56719 16.0697 5.73247C16.3254 5.92188 16.6596 5.96773 16.9564 5.85312L17.9456 5.4731C18.24 5.8507 18.4813 6.26691 18.6598 6.71087L17.8358 7.378C17.5885 7.57826 17.4619 7.89072 17.4981 8.20559C17.5294 8.48065 17.5294 8.75813 17.4981 9.03319C17.4619 9.34806 17.5885 9.66052 17.8358 9.86079L18.6598 10.5279C18.4813 10.9719 18.24 11.3881 17.9456 11.7645L16.9564 11.3857C16.6596 11.2711 16.3254 11.3169 16.0697 11.5063C15.8477 11.6716 15.6076 11.8103 15.3543 11.9201C15.0623 12.0456 14.856 12.3122 14.8066 12.6258L14.6401 13.673C14.166 13.7406 13.6858 13.7406 13.2117 13.673L13.0452 12.6258C12.9958 12.3122 12.7895 12.0456 12.4975 11.9201C12.2442 11.8103 12.0041 11.6716 11.7821 11.5063C11.5264 11.3169 11.1922 11.2711 10.8954 11.3857L9.90618 11.7657C9.61182 11.3881 9.37054 10.9719 9.19199 10.5279L10.016 9.86079C10.2633 9.66052 10.39 9.34806 10.3538 9.03319C10.3224 8.75813 10.3224 8.48065 10.3538 8.20559C10.39 7.89072 10.2633 7.57826 10.016 7.378L9.19199 6.71087C9.37054 6.26691 9.61182 5.85071 9.90618 5.47431L10.8954 5.85312C11.1922 5.96773 11.5264 5.92188 11.7821 5.73247C12.0041 5.56719 12.2442 5.42847 12.4975 5.31869C12.7895 5.19322 12.9958 4.9266 13.0452 4.61294L13.2117 3.56579C13.6858 3.49823 14.166 3.49823 14.6401 3.56579ZM13.9259 6.06303C12.5144 6.06303 11.3695 7.2079 11.3695 8.61939C11.3695 10.0309 12.5144 11.1758 13.9259 11.1758C15.3374 11.1758 16.4823 10.0309 16.4823 8.61939C16.4823 7.2079 15.3374 6.06303 13.9259 6.06303ZM13.9259 7.91848C14.3132 7.91848 14.6268 8.23214 14.6268 8.61939C14.6268 9.00665 14.3132 9.3203 13.9259 9.3203C13.5387 9.3203 13.225 9.00665 13.225 8.61939C13.225 8.23214 13.5387 7.91848 13.9259 7.91848Z" fill="#6754E2"/>
<path fill-rule="evenodd" clip-rule="evenodd" d="M5.60574 14.2388C4.98862 15.4814 4.64062 16.8818 4.64062 18.3638V24.8598C4.64062 25.5985 4.93387 26.3065 5.45634 26.8281C5.97787 27.3505 6.68594 27.6438 7.42462 27.6438C10.6383 27.6438 17.203 27.6438 20.4166 27.6438C21.1553 27.6438 21.8634 27.3505 22.3849 26.8281C22.9074 26.3065 23.2006 25.5985 23.2006 24.8598C23.2006 23.2525 23.2006 20.8081 23.2006 18.3638C23.2006 16.8818 22.8526 15.4814 22.2355 14.2388C22.0072 13.7804 21.4504 13.5929 20.9911 13.8203C20.5326 14.0486 20.3452 14.6063 20.5735 15.0647C21.0672 16.0586 21.3446 17.1787 21.3446 18.3638V24.8598C21.3446 25.1057 21.2472 25.3423 21.0727 25.5159C20.8992 25.6903 20.6625 25.7878 20.4166 25.7878H7.42462C7.1787 25.7878 6.94207 25.6903 6.76853 25.5159C6.59407 25.3423 6.49662 25.1057 6.49662 24.8598V18.3638C6.49662 17.1787 6.7741 16.0586 7.26779 15.0647C7.49608 14.6063 7.30862 14.0486 6.85019 13.8203C6.39083 13.5929 5.83403 13.7804 5.60574 14.2388Z" fill="#6754E2"/>
<path fill-rule="evenodd" clip-rule="evenodd" d="M11.1445 18.3647V21.1491C11.1445 21.3951 11.242 21.6318 11.4165 21.8053L13.2728 23.6616C13.6348 24.0246 14.2232 24.0246 14.5852 23.6616L16.4415 21.8053C16.616 21.6318 16.7135 21.3951 16.7135 21.1491V18.3647C16.7135 17.8523 16.2976 17.4365 15.7853 17.4365C15.273 17.4365 14.8571 17.8523 14.8571 18.3647V20.7649L13.929 21.693L13.0008 20.7649V18.3647C13.0008 17.8523 12.585 17.4365 12.0727 17.4365C11.5603 17.4365 11.1445 17.8523 11.1445 18.3647Z" fill="#6754E2"/>
</svg>
