<svg width="14" height="15" viewBox="0 0 14 15" fill="none" xmlns="http://www.w3.org/2000/svg">
<g clip-path="url(#clip0_2435_9078)">
<path d="M8.19147 1.4446L8.19145 1.44462L13.0663 6.65494L13.0665 6.65513L12.9204 6.79177C12.998 6.87449 13.0213 6.99906 12.9795 7.10731L8.19147 1.4446ZM8.19147 1.4446L8.18907 1.44212C8.00064 1.24757 7.6952 1.25385 7.51406 1.45427L7.51403 1.45429C7.34388 1.64262 7.34386 1.93633 7.51405 2.12465L7.51403 2.12467L7.51639 2.1272L11.6144 6.50724H0.270843H0.270806C-0.00152008 6.50729 -0.2 6.73916 -0.2 6.99675C-0.2 7.25433 -0.00152062 7.48623 0.270843 7.48623H11.6144L7.51799 11.8646C7.33821 12.0516 7.33411 12.3533 7.50795 12.5457L7.50796 12.5457C7.68913 12.7462 7.99452 12.7524 8.18294 12.5579L8.183 12.5579L8.19198 12.5483L8.19201 12.5483L13.067 7.33777L13.0674 7.3374C13.1101 7.29152 13.1434 7.23779 13.166 7.17945L8.19147 1.4446Z" fill="white" stroke="white" stroke-width="0.4"/>
</g>
<defs>
<clipPath id="clip0_2435_9078">
<rect width="14" height="14" fill="white" transform="translate(0 0.5)"/>
</clipPath>
</defs>
</svg>
