<svg width="31" height="31" viewBox="0 0 31 31" fill="none" xmlns="http://www.w3.org/2000/svg">
<g filter="url(#filter0_f_2309_23009)">
<path d="M15.8339 25.9999C10.2754 25.9999 5.76941 21.4938 5.76941 15.9354L15.8339 5.87085C21.3924 5.87085 25.8984 10.3769 25.8984 15.9354C25.8984 21.4938 21.3924 25.9999 15.8339 25.9999Z" fill="black" fill-opacity="0.1"/>
</g>
<path d="M15.8324 25.2258C9.41878 25.2258 4.21951 20.0265 4.21951 13.6129L15.8324 2C22.246 2 27.4453 7.19927 27.4453 13.6129C27.4453 20.0265 22.246 25.2258 15.8324 25.2258Z" fill="#1CB05E"/>
<path d="M4.21913 13.6129C10.6328 13.6129 15.832 8.41363 15.832 2L4.21913 13.6129Z" fill="black" fill-opacity="0.15"/>
<defs>
<filter id="filter0_f_2309_23009" x="0.769531" y="0.87085" width="30.1289" height="30.129" filterUnits="userSpaceOnUse" color-interpolation-filters="sRGB">
<feFlood flood-opacity="0" result="BackgroundImageFix"/>
<feBlend mode="normal" in="SourceGraphic" in2="BackgroundImageFix" result="shape"/>
<feGaussianBlur stdDeviation="2.5" result="effect1_foregroundBlur_2309_23009"/>
</filter>
</defs>
</svg>
