<svg width="32" height="32" viewBox="0 0 32 32" fill="none" xmlns="http://www.w3.org/2000/svg">
<g filter="url(#filter0_f_2309_22979)">
<path d="M24.2324 23.7113C27.8892 19.9192 27.7794 13.8807 23.9874 10.224L10.5 10.469C6.84329 14.2611 6.953 20.2996 10.7451 23.9563C14.5372 27.6131 20.5757 27.5034 24.2324 23.7113Z" fill="black" fill-opacity="0.1"/>
</g>
<path d="M23.7036 23.2021C27.9229 18.8266 27.7963 11.8591 23.4208 7.63977L7.85852 7.92251C3.63919 12.298 3.76578 19.2655 8.14127 23.4848C12.5168 27.7041 19.4842 27.5775 23.7036 23.2021Z" fill="#FFC414"/>
<path d="M23.4217 7.63971C19.2023 12.0152 12.2349 12.1418 7.85938 7.92245L23.4217 7.63971Z" fill="black" fill-opacity="0.15"/>
<defs>
<filter id="filter0_f_2309_22979" x="2.82812" y="5.22397" width="29.0781" height="26.4048" filterUnits="userSpaceOnUse" color-interpolation-filters="sRGB">
<feFlood flood-opacity="0" result="BackgroundImageFix"/>
<feBlend mode="normal" in="SourceGraphic" in2="BackgroundImageFix" result="shape"/>
<feGaussianBlur stdDeviation="2.5" result="effect1_foregroundBlur_2309_22979"/>
</filter>
</defs>
</svg>
