<svg width="194" height="36" viewBox="0 0 194 36" fill="none" xmlns="http://www.w3.org/2000/svg">
<path d="M112.362 23.0022C111.173 23.0022 110.16 22.8733 109.323 22.6155C108.486 22.3791 107.683 22.0891 106.912 21.7453V18.0715C107.418 18.3937 107.947 18.7053 108.497 19.0061C109.07 19.2854 109.676 19.5109 110.314 19.6828C110.975 19.8547 111.68 19.9406 112.428 19.9406C113.309 19.9406 113.959 19.7795 114.377 19.4572C114.818 19.1135 115.038 18.7053 115.038 18.2326C115.038 17.7814 114.873 17.4377 114.543 17.2013C114.212 16.9435 113.783 16.7287 113.254 16.5568C112.726 16.3849 112.164 16.2131 111.57 16.0412C111.019 15.9123 110.457 15.7404 109.885 15.5255C109.334 15.3107 108.828 15.0207 108.365 14.6554C107.903 14.2902 107.528 13.8283 107.242 13.2697C106.978 12.6896 106.846 11.9913 106.846 11.1749C106.846 10.2081 107.044 9.39169 107.44 8.72566C107.837 8.05964 108.354 7.52252 108.993 7.11432C109.632 6.70611 110.336 6.41607 111.107 6.24419C111.878 6.05083 112.627 5.95415 113.353 5.95415C114.609 5.99712 115.622 6.14751 116.392 6.40533C117.163 6.64166 117.89 6.95318 118.573 7.33991L118.606 10.6593C117.835 10.2511 117.086 9.88583 116.359 9.56356C115.633 9.21981 114.807 9.04793 113.882 9.04793C113.023 9.04793 112.351 9.19832 111.867 9.49911C111.404 9.77841 111.173 10.1759 111.173 10.6915C111.173 11.1427 111.316 11.5079 111.603 11.7872C111.889 12.0665 112.263 12.2814 112.726 12.4318C113.188 12.5822 113.695 12.7325 114.245 12.8829C114.796 13.0333 115.368 13.2052 115.963 13.3986C116.558 13.5704 117.108 13.8283 117.615 14.172C118.121 14.5158 118.529 14.9777 118.837 15.5578C119.167 16.1164 119.332 16.8683 119.332 17.8137C119.31 19.0598 118.969 20.0695 118.308 20.843C117.648 21.5949 116.778 22.1428 115.699 22.4866C114.642 22.8303 113.53 23.0022 112.362 23.0022Z" fill="#05164D"/>
<path d="M128.339 23.0344C126.621 23.0344 125.31 22.6262 124.408 21.8098C123.505 20.9719 123.053 19.7688 123.053 18.2004V9.49911H120.477V6.27642H123.053V1.79688H127.381V6.27642H131.246V9.49911H127.381V17.5558C127.381 18.2219 127.513 18.716 127.777 19.0383C128.041 19.3605 128.504 19.5217 129.164 19.5217C129.517 19.5217 129.88 19.468 130.255 19.3605C130.651 19.2316 130.981 19.0812 131.246 18.9094V22.4543C130.805 22.6692 130.321 22.8196 129.792 22.9055C129.286 22.9914 128.801 23.0344 128.339 23.0344Z" fill="#05164D"/>
<path d="M140.179 23.0022C139.254 23.0022 138.373 22.9163 137.536 22.7444C136.7 22.5725 135.951 22.2932 135.29 21.9065C134.629 21.4983 134.101 20.9504 133.705 20.2629C133.33 19.5539 133.143 18.673 133.143 17.6203C133.143 16.5246 133.374 15.6007 133.837 14.8488C134.299 14.0753 134.971 13.4952 135.852 13.1085C136.755 12.7003 137.856 12.4962 139.155 12.4962C139.948 12.4962 140.686 12.5714 141.368 12.7218C142.051 12.8507 142.668 13.0333 143.218 13.2697C143.769 13.506 144.22 13.7638 144.573 14.0431L144.87 16.3312C144.407 16.0304 143.813 15.7941 143.086 15.6222C142.381 15.4289 141.611 15.3322 140.774 15.3322C139.607 15.3322 138.737 15.5148 138.164 15.88C137.592 16.2453 137.305 16.8146 137.305 17.5881C137.305 18.1252 137.459 18.5764 137.768 18.9416C138.076 19.2854 138.472 19.5539 138.957 19.7473C139.441 19.9191 139.948 20.0051 140.476 20.0051C141.688 20.0051 142.558 19.9299 143.086 19.7795C143.637 19.6076 143.912 19.2531 143.912 18.716V12.3029C143.912 11.2501 143.571 10.4874 142.888 10.0147C142.205 9.52059 141.247 9.27352 140.014 9.27352C139.067 9.27352 138.098 9.43466 137.107 9.75692C136.116 10.0577 135.312 10.4552 134.696 10.9493V7.24322C135.29 6.87799 136.182 6.55572 137.371 6.27642C138.561 5.99712 139.838 5.85747 141.203 5.85747C141.776 5.85747 142.381 5.91118 143.02 6.0186C143.659 6.12602 144.264 6.2979 144.837 6.53423C145.432 6.77056 145.971 7.10357 146.456 7.53327C146.94 7.94147 147.325 8.46785 147.612 9.11239C147.898 9.73544 148.041 10.4981 148.041 11.4005V19.1027C148.041 20.1125 147.711 20.9074 147.05 21.4875C146.39 22.0461 145.476 22.4328 144.308 22.6477C143.141 22.884 141.765 23.0022 140.179 23.0022Z" fill="#05164D"/>
<path d="M157.899 23.0344C156.181 23.0344 154.871 22.6262 153.968 21.8098C153.065 20.9719 152.613 19.7688 152.613 18.2004V9.49911H150.037V6.27642H152.613V1.79688H156.941V6.27642H160.806V9.49911H156.941V17.5558C156.941 18.2219 157.073 18.716 157.337 19.0383C157.601 19.3605 158.064 19.5217 158.725 19.5217C159.077 19.5217 159.44 19.468 159.815 19.3605C160.211 19.2316 160.541 19.0812 160.806 18.9094V22.4543C160.365 22.6692 159.881 22.8196 159.352 22.9055C158.846 22.9914 158.361 23.0344 157.899 23.0344Z" fill="#05164D"/>
<path d="M171.127 23.0022C169.585 23.0022 168.242 22.7659 167.097 22.2932C165.973 21.7991 165.093 21.0686 164.454 20.1018C163.837 19.135 163.529 17.8996 163.529 16.3957V6.27642H167.724V15.9767C167.724 17.1799 168 18.0715 168.55 18.6516C169.101 19.2316 169.96 19.5217 171.127 19.5217C172.338 19.5217 173.208 19.2316 173.736 18.6516C174.287 18.0715 174.562 17.1799 174.562 15.9767V6.27642H178.526V16.3957C178.526 18.6301 177.866 20.2951 176.544 21.3908C175.245 22.4651 173.439 23.0022 171.127 23.0022Z" fill="#05164D"/>
<path d="M186.876 23.0022C185.686 23.0022 184.673 22.8733 183.836 22.6155C183 22.3791 182.196 22.0891 181.425 21.7453V18.0715C181.932 18.3937 182.46 18.7053 183.011 19.0061C183.583 19.2854 184.189 19.5109 184.827 19.6828C185.488 19.8547 186.193 19.9406 186.942 19.9406C187.823 19.9406 188.472 19.7795 188.891 19.4572C189.331 19.1135 189.551 18.7053 189.551 18.2326C189.551 17.7814 189.386 17.4377 189.056 17.2013C188.725 16.9435 188.296 16.7287 187.767 16.5568C187.239 16.3849 186.677 16.2131 186.083 16.0412C185.532 15.9123 184.971 15.7404 184.398 15.5255C183.847 15.3107 183.341 15.0207 182.878 14.6554C182.416 14.2902 182.042 13.8283 181.755 13.2697C181.491 12.6896 181.359 11.9913 181.359 11.1749C181.359 10.2081 181.557 9.39169 181.954 8.72566C182.35 8.05964 182.867 7.52252 183.506 7.11432C184.145 6.70611 184.85 6.41607 185.62 6.24419C186.391 6.05083 187.14 5.95415 187.867 5.95415C189.122 5.99712 190.135 6.14751 190.906 6.40533C191.676 6.64166 192.403 6.95318 193.086 7.33991L193.119 10.6593C192.348 10.2511 191.599 9.88583 190.873 9.56356C190.146 9.21981 189.32 9.04793 188.395 9.04793C187.536 9.04793 186.865 9.19832 186.38 9.49911C185.918 9.77841 185.686 10.1759 185.686 10.6915C185.686 11.1427 185.83 11.5079 186.116 11.7872C186.402 12.0665 186.776 12.2814 187.239 12.4318C187.701 12.5822 188.208 12.7325 188.759 12.8829C189.309 13.0333 189.882 13.2052 190.476 13.3986C191.071 13.5704 191.621 13.8283 192.128 14.172C192.634 14.5158 193.042 14.9777 193.35 15.5578C193.681 16.1164 193.846 16.8683 193.846 17.8137C193.824 19.0598 193.482 20.0695 192.822 20.843C192.161 21.5949 191.291 22.1428 190.212 22.4866C189.155 22.8303 188.043 23.0022 186.876 23.0022Z" fill="#05164D"/>
<path d="M38.579 22.5217L33.0293 6.27936H37.5219L41.486 19.7824L40.1976 19.9113L43.9965 6.27936H47.2339L50.9667 19.5246H49.9426L53.8406 6.27936H58.2011L52.6514 22.5217H48.8195L45.1858 10.92L45.9125 11.1134L42.4439 22.5217H38.579Z" fill="#624DE3"/>
<path d="M66.5945 23.0051C63.8637 23.0051 61.8156 22.2639 60.4502 20.7815C59.0848 19.299 58.4021 17.1613 58.4021 14.3683C58.4021 11.382 59.0958 9.21201 60.4833 7.85848C61.8927 6.50495 63.9188 5.82819 66.5615 5.82819C68.4114 5.82819 69.953 6.15045 71.1862 6.79499C72.4195 7.41805 73.3334 8.36337 73.928 9.63096C74.5447 10.8986 74.853 12.4777 74.853 14.3683C74.853 17.1613 74.1372 19.299 72.7058 20.7815C71.2963 22.2639 69.2593 23.0051 66.5945 23.0051ZM66.5945 19.6535C67.5635 19.6535 68.3453 19.4387 68.9399 19.009C69.5566 18.5793 70.008 17.9777 70.2943 17.2043C70.5806 16.4094 70.7238 15.464 70.7238 14.3683C70.7238 13.1437 70.5696 12.1447 70.2613 11.3712C69.975 10.5978 69.5235 10.0284 68.9069 9.66319C68.3123 9.29795 67.5415 9.11533 66.5945 9.11533C65.6255 9.11533 64.8437 9.30869 64.2491 9.69541C63.6545 10.0821 63.2141 10.6622 62.9278 11.4357C62.6635 12.2091 62.5314 13.1867 62.5314 14.3683C62.5314 16.0871 62.8507 17.3976 63.4893 18.3C64.128 19.2024 65.1631 19.6535 66.5945 19.6535Z" fill="#624DE3"/>
<path d="M77.4291 22.5217V7.85848C77.7374 7.66512 78.277 7.4073 79.0478 7.08503C79.8406 6.76277 80.7545 6.48347 81.7896 6.24714C82.8246 5.98932 83.8707 5.86041 84.9278 5.86041C85.7206 5.86041 86.3482 5.92487 86.8107 6.05377C87.2952 6.1612 87.6696 6.30085 87.9339 6.47272V9.56651C87.4934 9.50205 86.9869 9.44834 86.4143 9.40537C85.8637 9.3624 85.2912 9.35166 84.6965 9.37315C84.124 9.37315 83.5624 9.39463 83.0118 9.4376C82.4833 9.48057 82.0208 9.53428 81.6244 9.59873V22.5217H77.4291Z" fill="#624DE3"/>
<path d="M93.1891 13.3371L99.6307 6.27936H104.751L95.3363 15.4963L93.1891 13.3371ZM94.081 22.5217H89.9187V0.15625H94.114L94.081 22.5217ZM96.1952 11.7579L105.379 22.5217H100.06L93.2221 14.4972L96.1952 11.7579Z" fill="#624DE3"/>
<path d="M106.867 34.0752V28.0605H110.937V28.8992H107.901V30.6395H110.546V31.4872H107.892V33.2366H110.937V34.0752H106.867Z" fill="#3F3F3F"/>
<path d="M112.762 34.0752V30.3329H112.017V29.5484H112.771V29.3681C112.771 29.0495 112.805 28.7849 112.874 28.5745C112.948 28.3641 113.044 28.1958 113.162 28.0696C113.28 27.9433 113.411 27.8501 113.553 27.79C113.696 27.7239 113.839 27.6818 113.982 27.6638C114.131 27.6457 114.271 27.6367 114.401 27.6367C114.494 27.6367 114.587 27.6427 114.68 27.6548C114.773 27.6668 114.854 27.6818 114.922 27.6998V28.5385C114.867 28.5084 114.808 28.4844 114.746 28.4663C114.69 28.4423 114.615 28.4303 114.522 28.4303C114.429 28.4303 114.336 28.4393 114.243 28.4573C114.149 28.4693 114.066 28.5054 113.991 28.5655C113.917 28.6196 113.858 28.7038 113.814 28.818C113.771 28.9322 113.749 29.0885 113.749 29.2869V29.5484H114.922V30.3329H113.74V34.0752H112.762Z" fill="#3F3F3F"/>
<path d="M116.42 34.0752V30.3329H115.675V29.5484H116.429V29.3681C116.429 29.0495 116.464 28.7849 116.532 28.5745C116.606 28.3641 116.703 28.1958 116.821 28.0696C116.939 27.9433 117.069 27.8501 117.212 27.79C117.355 27.7239 117.497 27.6818 117.64 27.6638C117.789 27.6457 117.929 27.6367 118.059 27.6367C118.152 27.6367 118.246 27.6427 118.339 27.6548C118.432 27.6668 118.513 27.6818 118.581 27.6998V28.5385C118.525 28.5084 118.466 28.4844 118.404 28.4663C118.348 28.4423 118.273 28.4303 118.18 28.4303C118.087 28.4303 117.994 28.4393 117.901 28.4573C117.808 28.4693 117.724 28.5054 117.649 28.5655C117.575 28.6196 117.516 28.7038 117.473 28.818C117.429 28.9322 117.407 29.0885 117.407 29.2869V29.5484H118.581V30.3329H117.398V34.0752H116.42Z" fill="#3F3F3F"/>
<path d="M121.435 34.2104C120.678 34.2104 120.113 34.003 119.74 33.5882C119.374 33.1734 119.191 32.5813 119.191 31.8118C119.191 30.9942 119.38 30.3961 119.759 30.0173C120.144 29.6326 120.696 29.4402 121.416 29.4402C121.932 29.4402 122.357 29.5334 122.692 29.7197C123.028 29.9001 123.276 30.1676 123.437 30.5223C123.599 30.877 123.679 31.3068 123.679 31.8118C123.679 32.5753 123.484 33.1674 123.093 33.5882C122.708 34.003 122.155 34.2104 121.435 34.2104ZM121.426 33.4079C121.742 33.4079 121.994 33.3418 122.18 33.2095C122.366 33.0712 122.5 32.8819 122.581 32.6414C122.667 32.4009 122.711 32.1244 122.711 31.8118C122.711 31.4631 122.667 31.1716 122.581 30.9371C122.494 30.7027 122.357 30.5283 122.171 30.4141C121.984 30.2939 121.736 30.2337 121.426 30.2337C121.115 30.2337 120.867 30.2969 120.681 30.4231C120.494 30.5494 120.361 30.7297 120.28 30.9642C120.199 31.1986 120.159 31.4812 120.159 31.8118C120.159 32.3108 120.255 32.7015 120.448 32.9841C120.64 33.2666 120.966 33.4079 121.426 33.4079Z" fill="#3F3F3F"/>
<path d="M124.91 34.0752V29.9632C124.991 29.9151 125.14 29.849 125.357 29.7648C125.574 29.6807 125.832 29.6085 126.13 29.5484C126.428 29.4823 126.729 29.4492 127.033 29.4492C127.189 29.4492 127.316 29.4612 127.415 29.4853C127.515 29.5093 127.598 29.5364 127.667 29.5665V30.3239C127.524 30.3059 127.375 30.2939 127.22 30.2878C127.064 30.2758 126.909 30.2758 126.754 30.2878C126.599 30.2939 126.447 30.3059 126.298 30.3239C126.149 30.342 126.012 30.36 125.888 30.378V34.0752H124.91Z" fill="#3F3F3F"/>
<path d="M130.39 34.1924C129.968 34.1924 129.632 34.0842 129.384 33.8678C129.142 33.6514 129.021 33.3327 129.021 32.9119V30.3329H128.267V29.5484H129.021V28.286H130.027V29.5484H131.163V30.3329H130.027V32.7226C130.027 32.933 130.064 33.0923 130.139 33.2005C130.219 33.3027 130.365 33.3538 130.576 33.3538C130.682 33.3538 130.787 33.3418 130.893 33.3177C130.998 33.2877 131.088 33.2516 131.163 33.2095V34.0481C131.051 34.0962 130.924 34.1323 130.781 34.1563C130.645 34.1804 130.514 34.1924 130.39 34.1924Z" fill="#3F3F3F"/>
<path d="M133.359 34.0752H132.39V27.8351H133.359V34.0752Z" fill="#3F3F3F"/>
<path d="M136.842 34.2104C136.382 34.2104 135.982 34.1203 135.64 33.9399C135.305 33.7596 135.044 33.492 134.858 33.1374C134.678 32.7827 134.588 32.3498 134.588 31.8388C134.588 31.0513 134.777 30.4562 135.156 30.0534C135.541 29.6446 136.075 29.4402 136.758 29.4402C137.261 29.4402 137.667 29.5484 137.978 29.7648C138.288 29.9813 138.512 30.2848 138.648 30.6756C138.791 31.0603 138.859 31.5112 138.853 32.0282H135.175L135.147 31.3249H138.108L137.875 31.5503C137.857 31.0874 137.757 30.7507 137.577 30.5403C137.397 30.3239 137.115 30.2157 136.73 30.2157C136.481 30.2157 136.27 30.2668 136.097 30.369C135.923 30.4652 135.789 30.6335 135.696 30.874C135.609 31.1084 135.566 31.4331 135.566 31.8479C135.566 32.3528 135.687 32.7376 135.929 33.0021C136.171 33.2606 136.528 33.3898 137 33.3898C137.211 33.3898 137.407 33.3718 137.587 33.3357C137.773 33.2997 137.944 33.2546 138.099 33.2005C138.254 33.1404 138.388 33.0833 138.499 33.0292V33.9038C138.282 33.994 138.037 34.0662 137.764 34.1203C137.49 34.1804 137.183 34.2104 136.842 34.2104Z" fill="#3F3F3F"/>
<path d="M141.421 34.2104C141.086 34.2104 140.8 34.1744 140.564 34.1022C140.335 34.0361 140.108 33.9519 139.885 33.8497V32.957C140.046 33.0532 140.204 33.1404 140.359 33.2185C140.515 33.2907 140.676 33.3478 140.844 33.3898C141.018 33.4319 141.21 33.453 141.421 33.453C141.688 33.453 141.896 33.3989 142.045 33.2907C142.2 33.1824 142.278 33.0472 142.278 32.8849C142.278 32.7466 142.228 32.6384 142.129 32.5602C142.036 32.4821 141.915 32.416 141.766 32.3619C141.617 32.3078 141.462 32.2537 141.3 32.1995C141.132 32.1575 140.965 32.1094 140.797 32.0553C140.63 31.9952 140.474 31.917 140.332 31.8208C140.195 31.7186 140.083 31.5894 139.996 31.4331C139.916 31.2768 139.875 31.0844 139.875 30.8559C139.875 30.6035 139.928 30.39 140.034 30.2157C140.139 30.0354 140.276 29.8911 140.443 29.7829C140.617 29.6686 140.807 29.5875 141.011 29.5394C141.222 29.4853 141.427 29.4582 141.626 29.4582C141.955 29.4643 142.222 29.5033 142.427 29.5755C142.638 29.6476 142.843 29.7348 143.042 29.837L143.051 30.6485C142.827 30.5343 142.616 30.4351 142.418 30.351C142.219 30.2668 141.989 30.2247 141.729 30.2247C141.486 30.2247 141.285 30.2698 141.123 30.36C140.962 30.4442 140.881 30.5704 140.881 30.7387C140.881 30.883 140.924 30.9972 141.011 31.0814C141.105 31.1655 141.222 31.2317 141.365 31.2798C141.514 31.3279 141.673 31.376 141.84 31.424C141.995 31.4721 142.157 31.5232 142.325 31.5773C142.492 31.6254 142.647 31.6976 142.79 31.7938C142.933 31.8899 143.048 32.0162 143.135 32.1725C143.228 32.3288 143.275 32.5332 143.275 32.7857C143.268 33.1223 143.175 33.3959 142.995 33.6063C142.821 33.8167 142.592 33.97 142.306 34.0662C142.02 34.1623 141.725 34.2104 141.421 34.2104Z" fill="#3F3F3F"/>
<path d="M145.862 34.2104C145.526 34.2104 145.241 34.1744 145.005 34.1022C144.775 34.0361 144.549 33.9519 144.325 33.8497V32.957C144.486 33.0532 144.645 33.1404 144.8 33.2185C144.955 33.2907 145.117 33.3478 145.284 33.3898C145.458 33.4319 145.651 33.453 145.862 33.453C146.129 33.453 146.337 33.3989 146.486 33.2907C146.641 33.1824 146.718 33.0472 146.718 32.8849C146.718 32.7466 146.669 32.6384 146.569 32.5602C146.476 32.4821 146.355 32.416 146.206 32.3619C146.057 32.3078 145.902 32.2537 145.741 32.1995C145.573 32.1575 145.405 32.1094 145.238 32.0553C145.07 31.9952 144.915 31.917 144.772 31.8208C144.635 31.7186 144.524 31.5894 144.437 31.4331C144.356 31.2768 144.316 31.0844 144.316 30.8559C144.316 30.6035 144.368 30.39 144.474 30.2157C144.58 30.0354 144.716 29.8911 144.884 29.7829C145.058 29.6686 145.247 29.5875 145.452 29.5394C145.663 29.4853 145.868 29.4582 146.067 29.4582C146.396 29.4643 146.663 29.5033 146.867 29.5755C147.079 29.6476 147.283 29.7348 147.482 29.837L147.491 30.6485C147.268 30.5343 147.057 30.4351 146.858 30.351C146.659 30.2668 146.43 30.2247 146.169 30.2247C145.927 30.2247 145.725 30.2698 145.564 30.36C145.402 30.4442 145.322 30.5704 145.322 30.7387C145.322 30.883 145.365 30.9972 145.452 31.0814C145.545 31.1655 145.663 31.2317 145.806 31.2798C145.955 31.3279 146.113 31.376 146.281 31.424C146.436 31.4721 146.597 31.5232 146.765 31.5773C146.933 31.6254 147.088 31.6976 147.231 31.7938C147.374 31.8899 147.488 32.0162 147.575 32.1725C147.668 32.3288 147.715 32.5332 147.715 32.7857C147.709 33.1223 147.616 33.3959 147.436 33.6063C147.262 33.8167 147.032 33.97 146.746 34.0662C146.461 34.1623 146.166 34.2104 145.862 34.2104Z" fill="#3F3F3F"/>
<path d="M151.738 34.0752V28.0605H155.808V28.8992H152.772V30.6395H155.417V31.4872H152.762V33.2366H155.808V34.0752H151.738Z" fill="#3F3F3F"/>
<path d="M157.633 34.0752V30.3329H156.888V29.5484H157.642V29.3681C157.642 29.0495 157.676 28.7849 157.744 28.5745C157.819 28.3641 157.915 28.1958 158.033 28.0696C158.151 27.9433 158.282 27.8501 158.424 27.79C158.567 27.7239 158.71 27.6818 158.853 27.6638C159.002 27.6457 159.141 27.6367 159.272 27.6367C159.365 27.6367 159.458 27.6427 159.551 27.6548C159.644 27.6668 159.725 27.6818 159.793 27.6998V28.5385C159.737 28.5084 159.678 28.4844 159.616 28.4663C159.561 28.4423 159.486 28.4303 159.393 28.4303C159.3 28.4303 159.207 28.4393 159.113 28.4573C159.02 28.4693 158.937 28.5054 158.862 28.5655C158.788 28.6196 158.729 28.7038 158.685 28.818C158.642 28.9322 158.62 29.0885 158.62 29.2869V29.5484H159.793V30.3329H158.611V34.0752H157.633Z" fill="#3F3F3F"/>
<path d="M161.291 34.0752V30.3329H160.546V29.5484H161.3V29.3681C161.3 29.0495 161.334 28.7849 161.403 28.5745C161.477 28.3641 161.574 28.1958 161.691 28.0696C161.809 27.9433 161.94 27.8501 162.083 27.79C162.225 27.7239 162.368 27.6818 162.511 27.6638C162.66 27.6457 162.8 27.6367 162.93 27.6367C163.023 27.6367 163.116 27.6427 163.21 27.6548C163.303 27.6668 163.383 27.6818 163.452 27.6998V28.5385C163.396 28.5084 163.337 28.4844 163.275 28.4663C163.219 28.4423 163.144 28.4303 163.051 28.4303C162.958 28.4303 162.865 28.4393 162.772 28.4573C162.679 28.4693 162.595 28.5054 162.52 28.5655C162.446 28.6196 162.387 28.7038 162.343 28.818C162.3 28.9322 162.278 29.0885 162.278 29.2869V29.5484H163.452V30.3329H162.269V34.0752H161.291ZM164.355 34.0752V29.5755H165.333L165.342 34.0752H164.355ZM164.327 28.827V27.9704H165.37V28.827H164.327Z" fill="#3F3F3F"/>
<path d="M168.899 34.1653C168.614 34.1653 168.334 34.1263 168.061 34.0481C167.788 33.97 167.539 33.8437 167.316 33.6694C167.099 33.489 166.925 33.2516 166.794 32.957C166.664 32.6564 166.599 32.2837 166.599 31.8388C166.599 31.382 166.661 31.0002 166.785 30.6936C166.909 30.387 167.08 30.1436 167.297 29.9632C167.515 29.7769 167.76 29.6446 168.033 29.5665C168.312 29.4883 168.598 29.4492 168.89 29.4492C169.138 29.4492 169.387 29.4733 169.635 29.5214C169.883 29.5634 170.113 29.6296 170.324 29.7197V30.5674C170.113 30.4772 169.902 30.4081 169.691 30.36C169.48 30.3059 169.259 30.2788 169.03 30.2788C168.545 30.2788 168.179 30.3961 167.931 30.6305C167.689 30.865 167.567 31.2437 167.567 31.7667C167.567 32.3078 167.682 32.7045 167.912 32.957C168.148 33.2035 168.53 33.3267 169.058 33.3267C169.287 33.3267 169.511 33.2997 169.728 33.2456C169.945 33.1855 170.147 33.1133 170.333 33.0292V33.8768C170.116 33.973 169.89 34.0451 169.654 34.0932C169.418 34.1413 169.166 34.1653 168.899 34.1653Z" fill="#3F3F3F"/>
<path d="M171.582 34.0752V29.5755H172.56L172.569 34.0752H171.582ZM171.554 28.827V27.9704H172.597V28.827H171.554Z" fill="#3F3F3F"/>
<path d="M176.078 34.2104C175.619 34.2104 175.218 34.1203 174.877 33.9399C174.542 33.7596 174.281 33.492 174.095 33.1374C173.915 32.7827 173.825 32.3498 173.825 31.8388C173.825 31.0513 174.014 30.4562 174.393 30.0534C174.778 29.6446 175.312 29.4402 175.995 29.4402C176.497 29.4402 176.904 29.5484 177.215 29.7648C177.525 29.9813 177.749 30.2848 177.885 30.6756C178.028 31.0603 178.096 31.5112 178.09 32.0282H174.411L174.383 31.3249H177.345L177.112 31.5503C177.093 31.0874 176.994 30.7507 176.814 30.5403C176.634 30.3239 176.352 30.2157 175.967 30.2157C175.718 30.2157 175.507 30.2668 175.333 30.369C175.159 30.4652 175.026 30.6335 174.933 30.874C174.846 31.1084 174.802 31.4331 174.802 31.8479C174.802 32.3528 174.924 32.7376 175.166 33.0021C175.408 33.2606 175.765 33.3898 176.237 33.3898C176.448 33.3898 176.643 33.3718 176.823 33.3357C177.01 33.2997 177.18 33.2546 177.336 33.2005C177.491 33.1404 177.624 33.0833 177.736 33.0292V33.9038C177.519 33.994 177.274 34.0662 177 34.1203C176.727 34.1804 176.42 34.2104 176.078 34.2104Z" fill="#3F3F3F"/>
<path d="M179.308 29.9181C179.444 29.852 179.596 29.7919 179.764 29.7378C179.938 29.6777 180.121 29.6266 180.313 29.5845C180.506 29.5424 180.701 29.5093 180.9 29.4853C181.099 29.4612 181.291 29.4492 181.478 29.4492C181.918 29.4492 182.278 29.5093 182.558 29.6296C182.837 29.7438 183.045 29.9241 183.182 30.1706C183.318 30.4111 183.387 30.7147 183.387 31.0814V34.0752H182.409V31.2076C182.409 31.0934 182.393 30.9822 182.362 30.874C182.337 30.7598 182.285 30.6576 182.204 30.5674C182.129 30.4712 182.018 30.3961 181.869 30.342C181.726 30.2878 181.536 30.2608 181.301 30.2608C181.133 30.2608 180.959 30.2758 180.779 30.3059C180.605 30.3359 180.441 30.378 180.285 30.4321V34.0752H179.308V29.9181Z" fill="#3F3F3F"/>
<path d="M186.916 34.1653C186.63 34.1653 186.351 34.1263 186.078 34.0481C185.804 33.97 185.556 33.8437 185.333 33.6694C185.115 33.489 184.941 33.2516 184.811 32.957C184.681 32.6564 184.615 32.2837 184.615 31.8388C184.615 31.382 184.678 31.0002 184.802 30.6936C184.926 30.387 185.097 30.1436 185.314 29.9632C185.531 29.7769 185.777 29.6446 186.05 29.5665C186.329 29.4883 186.615 29.4492 186.907 29.4492C187.155 29.4492 187.403 29.4733 187.652 29.5214C187.9 29.5634 188.13 29.6296 188.341 29.7197V30.5674C188.13 30.4772 187.919 30.4081 187.707 30.36C187.496 30.3059 187.276 30.2788 187.046 30.2788C186.562 30.2788 186.196 30.3961 185.947 30.6305C185.705 30.865 185.584 31.2437 185.584 31.7667C185.584 32.3078 185.699 32.7045 185.929 32.957C186.165 33.2035 186.546 33.3267 187.074 33.3267C187.304 33.3267 187.527 33.2997 187.745 33.2456C187.962 33.1855 188.164 33.1133 188.35 33.0292V33.8768C188.133 33.973 187.906 34.0451 187.67 34.0932C187.434 34.1413 187.183 34.1653 186.916 34.1653Z" fill="#3F3F3F"/>
<path d="M190.297 35.8246C190.179 35.8246 190.068 35.8125 189.962 35.7885C189.857 35.7705 189.763 35.7464 189.683 35.7163V34.9048C189.757 34.9288 189.832 34.9499 189.906 34.9679C189.981 34.9859 190.061 34.995 190.148 34.995C190.335 34.995 190.49 34.9469 190.614 34.8507C190.738 34.7545 190.844 34.6162 190.931 34.4359C191.018 34.2555 191.089 34.0391 191.145 33.7866L191.163 34.2555L189.17 29.5484H190.279L191.629 33.1193H191.489L192.821 29.5484H193.836L191.909 34.3547C191.753 34.7395 191.586 35.037 191.406 35.2474C191.226 35.4639 191.039 35.6142 190.847 35.6983C190.661 35.7825 190.477 35.8246 190.297 35.8246Z" fill="#3F3F3F"/>
<path fill-rule="evenodd" clip-rule="evenodd" d="M3.17191 13.2832C2.90023 15.5005 3.42674 17.7412 4.66096 19.6201C5.89518 21.4991 7.76006 22.899 9.93514 23.5794C12.1102 24.2597 14.4597 24.1781 16.5799 23.3483C18.7001 22.5186 20.4586 20.9927 21.5532 19.0328C22.6479 17.0729 23.0103 14.8013 22.5783 12.6084C22.1463 10.4155 20.9468 8.43824 19.1858 7.01631C17.813 5.90776 16.1658 5.19071 14.4243 4.9285L14.4243 6.69678C14.4243 7.50442 13.7548 8.15914 12.9289 8.15914C12.1031 8.15914 11.4336 7.50442 11.4336 6.69678L11.4336 3.56315C11.4336 2.64724 12.1979 1.87616 13.1708 1.89411C16.0635 1.94746 18.8555 2.95662 21.0901 4.76107C23.387 6.61576 24.9516 9.19482 25.5151 12.0551C26.0786 14.9154 25.6058 17.8783 24.178 20.4347C22.7502 22.9912 20.4565 24.9815 17.6911 26.0637C14.9256 27.146 11.8611 27.2525 9.02399 26.3651C6.18692 25.4776 3.75448 23.6516 2.14462 21.2008C0.534765 18.75 -0.151983 15.8274 0.202378 12.9352C0.556739 10.043 1.93008 7.3618 4.08643 5.35228C4.68431 4.79511 5.63086 4.81741 6.20061 5.40209C6.77036 5.98676 6.74756 6.91241 6.14968 7.46958C4.49648 9.01021 3.44359 11.0658 3.17191 13.2832Z" fill="#05164D"/>
<path fill-rule="evenodd" clip-rule="evenodd" d="M7.59619 9.00644C8.18018 8.43535 9.127 8.43535 9.71099 9.00644L14.4108 13.6024C14.9948 14.1735 14.9948 15.0994 14.4108 15.6705C13.8268 16.2416 12.88 16.2416 12.296 15.6705L7.59619 11.0745C7.01221 10.5034 7.01221 9.57753 7.59619 9.00644Z" fill="#624DE3"/>
</svg>
