<svg width="200" height="40" viewBox="0 0 200 40" fill="none" xmlns="http://www.w3.org/2000/svg">
<path d="M115.36 26.0022C114.171 26.0022 113.158 25.8733 112.321 25.6155C111.484 25.3791 110.68 25.0891 109.91 24.7453V21.0715C110.416 21.3937 110.945 21.7053 111.495 22.0061C112.068 22.2854 112.673 22.5109 113.312 22.6828C113.973 22.8547 114.677 22.9406 115.426 22.9406C116.307 22.9406 116.957 22.7795 117.375 22.4572C117.816 22.1135 118.036 21.7053 118.036 21.2326C118.036 20.7814 117.871 20.4377 117.54 20.2013C117.21 19.9435 116.781 19.7287 116.252 19.5568C115.724 19.3849 115.162 19.2131 114.567 19.0412C114.017 18.9123 113.455 18.7404 112.883 18.5255C112.332 18.3107 111.826 18.0207 111.363 17.6554C110.901 17.2902 110.526 16.8283 110.24 16.2697C109.976 15.6896 109.844 14.9913 109.844 14.1749C109.844 13.2081 110.042 12.3917 110.438 11.7257C110.835 11.0596 111.352 10.5225 111.991 10.1143C112.629 9.70611 113.334 9.41607 114.105 9.24419C114.876 9.05083 115.624 8.95415 116.351 8.95415C117.606 8.99712 118.619 9.14751 119.39 9.40533C120.161 9.64166 120.888 9.95318 121.571 10.3399L121.604 13.6593C120.833 13.2511 120.084 12.8858 119.357 12.5636C118.631 12.2198 117.805 12.0479 116.88 12.0479C116.021 12.0479 115.349 12.1983 114.865 12.4991C114.402 12.7784 114.171 13.1759 114.171 13.6915C114.171 14.1427 114.314 14.5079 114.6 14.7872C114.887 15.0665 115.261 15.2814 115.724 15.4318C116.186 15.5822 116.693 15.7325 117.243 15.8829C117.794 16.0333 118.366 16.2052 118.961 16.3986C119.555 16.5704 120.106 16.8283 120.613 17.172C121.119 17.5158 121.526 17.9777 121.835 18.5578C122.165 19.1164 122.33 19.8683 122.33 20.8137C122.308 22.0598 121.967 23.0695 121.306 23.843C120.646 24.5949 119.776 25.1428 118.697 25.4866C117.639 25.8303 116.527 26.0022 115.36 26.0022Z" fill="black"/>
<path d="M131.336 26.0344C129.619 26.0344 128.308 25.6262 127.405 24.8098C126.502 23.9719 126.051 22.7688 126.051 21.2004V12.4991H123.474V9.27642H126.051V4.79688H130.378V9.27642H134.243V12.4991H130.378V20.5558C130.378 21.2219 130.511 21.716 130.775 22.0383C131.039 22.3605 131.502 22.5217 132.162 22.5217C132.515 22.5217 132.878 22.468 133.252 22.3605C133.649 22.2316 133.979 22.0812 134.243 21.9094V25.4543C133.803 25.6692 133.318 25.8196 132.79 25.9055C132.283 25.9914 131.799 26.0344 131.336 26.0344Z" fill="black"/>
<path d="M143.177 26.0022C142.252 26.0022 141.371 25.9163 140.534 25.7444C139.697 25.5725 138.949 25.2932 138.288 24.9065C137.627 24.4983 137.099 23.9504 136.702 23.2629C136.328 22.5539 136.141 21.673 136.141 20.6203C136.141 19.5246 136.372 18.6007 136.834 17.8488C137.297 17.0753 137.969 16.4952 138.85 16.1085C139.752 15.7003 140.854 15.4962 142.153 15.4962C142.946 15.4962 143.683 15.5714 144.366 15.7218C145.049 15.8507 145.666 16.0333 146.216 16.2697C146.767 16.506 147.218 16.7638 147.57 17.0431L147.868 19.3312C147.405 19.0304 146.811 18.7941 146.084 18.6222C145.379 18.4289 144.608 18.3322 143.772 18.3322C142.604 18.3322 141.734 18.5148 141.162 18.88C140.589 19.2453 140.303 19.8146 140.303 20.5881C140.303 21.1252 140.457 21.5764 140.766 21.9416C141.074 22.2854 141.47 22.5539 141.955 22.7473C142.439 22.9191 142.946 23.0051 143.474 23.0051C144.686 23.0051 145.555 22.9299 146.084 22.7795C146.635 22.6076 146.91 22.2531 146.91 21.716V15.3029C146.91 14.2501 146.568 13.4874 145.886 13.0147C145.203 12.5206 144.245 12.2735 143.012 12.2735C142.065 12.2735 141.096 12.4347 140.105 12.7569C139.114 13.0577 138.31 13.4552 137.693 13.9493V10.2432C138.288 9.87799 139.18 9.55572 140.369 9.27642C141.558 8.99712 142.836 8.85747 144.201 8.85747C144.774 8.85747 145.379 8.91118 146.018 9.0186C146.657 9.12602 147.262 9.2979 147.835 9.53423C148.429 9.77056 148.969 10.1036 149.453 10.5333C149.938 10.9415 150.323 11.4678 150.61 12.1124C150.896 12.7354 151.039 13.4981 151.039 14.4005V22.1027C151.039 23.1125 150.709 23.9074 150.048 24.4875C149.387 25.0461 148.473 25.4328 147.306 25.6477C146.139 25.884 144.763 26.0022 143.177 26.0022Z" fill="black"/>
<path d="M160.897 26.0344C159.179 26.0344 157.868 25.6262 156.965 24.8098C156.063 23.9719 155.611 22.7688 155.611 21.2004V12.4991H153.034V9.27642H155.611V4.79688H159.939V9.27642H163.803V12.4991H159.939V20.5558C159.939 21.2219 160.071 21.716 160.335 22.0383C160.599 22.3605 161.062 22.5217 161.722 22.5217C162.075 22.5217 162.438 22.468 162.812 22.3605C163.209 22.2316 163.539 22.0812 163.803 21.9094V25.4543C163.363 25.6692 162.879 25.8196 162.35 25.9055C161.843 25.9914 161.359 26.0344 160.897 26.0344Z" fill="black"/>
<path d="M174.125 26.0022C172.583 26.0022 171.24 25.7659 170.094 25.2932C168.971 24.7991 168.09 24.0686 167.452 23.1018C166.835 22.135 166.527 20.8996 166.527 19.3957V9.27642H170.722V18.9767C170.722 20.1799 170.997 21.0715 171.548 21.6516C172.098 22.2316 172.957 22.5217 174.125 22.5217C175.336 22.5217 176.206 22.2316 176.734 21.6516C177.285 21.0715 177.56 20.1799 177.56 18.9767V9.27642H181.524V19.3957C181.524 21.6301 180.863 23.2951 179.542 24.3908C178.243 25.4651 176.437 26.0022 174.125 26.0022Z" fill="black"/>
<path d="M189.873 26.0022C188.684 26.0022 187.671 25.8733 186.834 25.6155C185.997 25.3791 185.194 25.0891 184.423 24.7453V21.0715C184.929 21.3937 185.458 21.7053 186.008 22.0061C186.581 22.2854 187.187 22.5109 187.825 22.6828C188.486 22.8547 189.191 22.9406 189.939 22.9406C190.82 22.9406 191.47 22.7795 191.888 22.4572C192.329 22.1135 192.549 21.7053 192.549 21.2326C192.549 20.7814 192.384 20.4377 192.054 20.2013C191.723 19.9435 191.294 19.7287 190.765 19.5568C190.237 19.3849 189.675 19.2131 189.081 19.0412C188.53 18.9123 187.968 18.7404 187.396 18.5255C186.845 18.3107 186.339 18.0207 185.876 17.6554C185.414 17.2902 185.039 16.8283 184.753 16.2697C184.489 15.6896 184.357 14.9913 184.357 14.1749C184.357 13.2081 184.555 12.3917 184.951 11.7257C185.348 11.0596 185.865 10.5225 186.504 10.1143C187.143 9.70611 187.847 9.41607 188.618 9.24419C189.389 9.05083 190.138 8.95415 190.864 8.95415C192.12 8.99712 193.133 9.14751 193.904 9.40533C194.674 9.64166 195.401 9.95318 196.084 10.3399L196.117 13.6593C195.346 13.2511 194.597 12.8858 193.87 12.5636C193.144 12.2198 192.318 12.0479 191.393 12.0479C190.534 12.0479 189.862 12.1983 189.378 12.4991C188.915 12.7784 188.684 13.1759 188.684 13.6915C188.684 14.1427 188.827 14.5079 189.114 14.7872C189.4 15.0665 189.774 15.2814 190.237 15.4318C190.699 15.5822 191.206 15.7325 191.756 15.8829C192.307 16.0333 192.879 16.2052 193.474 16.3986C194.069 16.5704 194.619 16.8283 195.126 17.172C195.632 17.5158 196.04 17.9777 196.348 18.5578C196.678 19.1164 196.844 19.8683 196.844 20.8137C196.822 22.0598 196.48 23.0695 195.819 23.843C195.159 24.5949 194.289 25.1428 193.21 25.4866C192.153 25.8303 191.041 26.0022 189.873 26.0022Z" fill="black"/>
<path d="M41.5775 25.5217L36.0278 9.27936H40.5204L44.4845 22.7824L43.1962 22.9113L46.9951 9.27936H50.2324L53.9652 22.5246H52.9412L56.8392 9.27936H61.1996L55.6499 25.5217H51.818L48.1843 13.92L48.911 14.1134L45.4425 25.5217H41.5775Z" fill="#5D2BFF"/>
<path d="M69.5931 26.0051C66.8623 26.0051 64.8142 25.2639 63.4488 23.7815C62.0834 22.299 61.4007 20.1613 61.4007 17.3683C61.4007 14.382 62.0944 12.212 63.4818 10.8585C64.8912 9.50495 66.9173 8.82819 69.56 8.82819C71.4099 8.82819 72.9515 9.15045 74.1848 9.79499C75.418 10.418 76.332 11.3634 76.9266 12.631C77.5432 13.8986 77.8515 15.4777 77.8515 17.3683C77.8515 20.1613 77.1358 22.299 75.7043 23.7815C74.2949 25.2639 72.2578 26.0051 69.5931 26.0051ZM69.5931 22.6535C70.562 22.6535 71.3438 22.4387 71.9385 22.009C72.5551 21.5793 73.0065 20.9777 73.2928 20.2043C73.5791 19.4094 73.7223 18.464 73.7223 17.3683C73.7223 16.1437 73.5681 15.1447 73.2598 14.3712C72.9735 13.5978 72.5221 13.0284 71.9054 12.6632C71.3108 12.2979 70.54 12.1153 69.5931 12.1153C68.6241 12.1153 67.8423 12.3087 67.2477 12.6954C66.653 13.0821 66.2126 13.6622 65.9263 14.4357C65.662 15.2091 65.5299 16.1867 65.5299 17.3683C65.5299 19.0871 65.8492 20.3976 66.4879 21.3C67.1265 22.2024 68.1616 22.6535 69.5931 22.6535Z" fill="#5D2BFF"/>
<path d="M80.4276 25.5217V10.8585C80.736 10.6651 81.2755 10.4073 82.0463 10.085C82.8391 9.76277 83.753 9.48347 84.7881 9.24714C85.8232 8.98932 86.8692 8.86041 87.9263 8.86041C88.7191 8.86041 89.3468 8.92487 89.8092 9.05377C90.2937 9.1612 90.6681 9.30085 90.9324 9.47272V12.5665C90.4919 12.5021 89.9854 12.4483 89.4128 12.4054C88.8623 12.3624 88.2897 12.3517 87.6951 12.3731C87.1225 12.3731 86.5609 12.3946 86.0104 12.4376C85.4818 12.4806 85.0193 12.5343 84.6229 12.5987V25.5217H80.4276Z" fill="#5D2BFF"/>
<path d="M96.1876 16.3371L102.629 9.27936H107.749L98.3348 18.4963L96.1876 16.3371ZM97.0795 25.5217H92.9173V3.15625H97.1126L97.0795 25.5217ZM99.1937 14.7579L108.377 25.5217H103.059L96.2207 17.4972L99.1937 14.7579Z" fill="#5D2BFF"/>
<path d="M109.866 37.0752V31.0605H113.936V31.8992H110.9V33.6395H113.545V34.4872H110.891V36.2366H113.936V37.0752H109.866Z" fill="#3F3F3F"/>
<path d="M115.761 37.0752V33.3329H115.016V32.5484H115.77V32.3681C115.77 32.0495 115.805 31.7849 115.873 31.5745C115.947 31.3641 116.044 31.1958 116.162 31.0696C116.28 30.9433 116.41 30.8501 116.553 30.79C116.696 30.7239 116.838 30.6818 116.981 30.6638C117.13 30.6457 117.27 30.6367 117.4 30.6367C117.493 30.6367 117.586 30.6427 117.68 30.6548C117.773 30.6668 117.853 30.6818 117.922 30.6998V31.5385C117.866 31.5084 117.807 31.4844 117.745 31.4663C117.689 31.4423 117.614 31.4303 117.521 31.4303C117.428 31.4303 117.335 31.4393 117.242 31.4573C117.149 31.4693 117.065 31.5054 116.99 31.5655C116.916 31.6196 116.857 31.7038 116.813 31.818C116.77 31.9322 116.748 32.0885 116.748 32.2869V32.5484H117.922V33.3329H116.739V37.0752H115.761Z" fill="#3F3F3F"/>
<path d="M119.419 37.0752V33.3329H118.674V32.5484H119.429V32.3681C119.429 32.0495 119.463 31.7849 119.531 31.5745C119.606 31.3641 119.702 31.1958 119.82 31.0696C119.938 30.9433 120.068 30.8501 120.211 30.79C120.354 30.7239 120.497 30.6818 120.639 30.6638C120.788 30.6457 120.928 30.6367 121.059 30.6367C121.152 30.6367 121.245 30.6427 121.338 30.6548C121.431 30.6668 121.512 30.6818 121.58 30.6998V31.5385C121.524 31.5084 121.465 31.4844 121.403 31.4663C121.347 31.4423 121.273 31.4303 121.18 31.4303C121.086 31.4303 120.993 31.4393 120.9 31.4573C120.807 31.4693 120.723 31.5054 120.649 31.5655C120.574 31.6196 120.515 31.7038 120.472 31.818C120.428 31.9322 120.407 32.0885 120.407 32.2869V32.5484H121.58V33.3329H120.397V37.0752H119.419Z" fill="#3F3F3F"/>
<path d="M124.434 37.2104C123.677 37.2104 123.112 37.003 122.739 36.5882C122.373 36.1734 122.19 35.5813 122.19 34.8118C122.19 33.9942 122.379 33.3961 122.758 33.0173C123.143 32.6326 123.695 32.4402 124.416 32.4402C124.931 32.4402 125.356 32.5334 125.692 32.7197C126.027 32.9001 126.275 33.1676 126.437 33.5223C126.598 33.877 126.679 34.3068 126.679 34.8118C126.679 35.5753 126.483 36.1674 126.092 36.5882C125.707 37.003 125.154 37.2104 124.434 37.2104ZM124.425 36.4079C124.742 36.4079 124.993 36.3418 125.179 36.2095C125.366 36.0712 125.499 35.8819 125.58 35.6414C125.667 35.4009 125.71 35.1244 125.71 34.8118C125.71 34.4631 125.667 34.1716 125.58 33.9371C125.493 33.7027 125.356 33.5283 125.17 33.4141C124.984 33.2939 124.735 33.2337 124.425 33.2337C124.115 33.2337 123.866 33.2969 123.68 33.4231C123.494 33.5494 123.36 33.7297 123.279 33.9642C123.199 34.1986 123.158 34.4812 123.158 34.8118C123.158 35.3108 123.255 35.7015 123.447 35.9841C123.64 36.2666 123.966 36.4079 124.425 36.4079Z" fill="#3F3F3F"/>
<path d="M127.909 37.0752V32.9632C127.99 32.9151 128.139 32.849 128.356 32.7648C128.574 32.6807 128.831 32.6085 129.129 32.5484C129.427 32.4823 129.728 32.4492 130.033 32.4492C130.188 32.4492 130.315 32.4612 130.414 32.4853C130.514 32.5093 130.598 32.5364 130.666 32.5665V33.3239C130.523 33.3059 130.374 33.2939 130.219 33.2878C130.064 33.2758 129.908 33.2758 129.753 33.2878C129.598 33.2939 129.446 33.3059 129.297 33.3239C129.148 33.342 129.011 33.36 128.887 33.378V37.0752H127.909Z" fill="#3F3F3F"/>
<path d="M133.389 37.1924C132.967 37.1924 132.632 37.0842 132.383 36.8678C132.141 36.6514 132.02 36.3327 132.02 35.9119V33.3329H131.266V32.5484H132.02V31.286H133.026V32.5484H134.162V33.3329H133.026V35.7226C133.026 35.933 133.063 36.0923 133.138 36.2005C133.218 36.3027 133.364 36.3538 133.575 36.3538C133.681 36.3538 133.787 36.3418 133.892 36.3177C133.998 36.2877 134.088 36.2516 134.162 36.2095V37.0481C134.05 37.0962 133.923 37.1323 133.78 37.1563C133.644 37.1804 133.513 37.1924 133.389 37.1924Z" fill="#3F3F3F"/>
<path d="M136.358 37.0752H135.39V30.8351H136.358V37.0752Z" fill="#3F3F3F"/>
<path d="M139.841 37.2104C139.381 37.2104 138.981 37.1203 138.639 36.9399C138.304 36.7596 138.043 36.492 137.857 36.1374C137.677 35.7827 137.587 35.3498 137.587 34.8388C137.587 34.0513 137.776 33.4562 138.155 33.0534C138.54 32.6446 139.074 32.4402 139.757 32.4402C140.26 32.4402 140.667 32.5484 140.977 32.7648C141.287 32.9813 141.511 33.2848 141.648 33.6756C141.79 34.0603 141.859 34.5112 141.852 35.0282H138.174L138.146 34.3249H141.107L140.875 34.5503C140.856 34.0874 140.757 33.7507 140.577 33.5403C140.397 33.3239 140.114 33.2157 139.729 33.2157C139.481 33.2157 139.27 33.2668 139.096 33.369C138.922 33.4652 138.788 33.6335 138.695 33.874C138.608 34.1084 138.565 34.4331 138.565 34.8479C138.565 35.3528 138.686 35.7376 138.928 36.0021C139.17 36.2606 139.527 36.3898 139.999 36.3898C140.21 36.3898 140.406 36.3718 140.586 36.3357C140.772 36.2997 140.943 36.2546 141.098 36.2005C141.253 36.1404 141.387 36.0833 141.499 36.0292V36.9038C141.281 36.994 141.036 37.0662 140.763 37.1203C140.49 37.1804 140.182 37.2104 139.841 37.2104Z" fill="#3F3F3F"/>
<path d="M144.42 37.2104C144.085 37.2104 143.8 37.1744 143.564 37.1022C143.334 37.0361 143.107 36.9519 142.884 36.8497V35.957C143.045 36.0532 143.204 36.1404 143.359 36.2185C143.514 36.2907 143.675 36.3478 143.843 36.3898C144.017 36.4319 144.209 36.453 144.42 36.453C144.687 36.453 144.895 36.3989 145.044 36.2907C145.2 36.1824 145.277 36.0472 145.277 35.8849C145.277 35.7466 145.228 35.6384 145.128 35.5602C145.035 35.4821 144.914 35.416 144.765 35.3619C144.616 35.3078 144.461 35.2537 144.299 35.1995C144.132 35.1575 143.964 35.1094 143.796 35.0553C143.629 34.9952 143.474 34.917 143.331 34.8208C143.194 34.7186 143.082 34.5894 142.996 34.4331C142.915 34.2768 142.874 34.0844 142.874 33.8559C142.874 33.6035 142.927 33.39 143.033 33.2157C143.138 33.0354 143.275 32.8911 143.443 32.7829C143.616 32.6686 143.806 32.5875 144.011 32.5394C144.222 32.4853 144.427 32.4582 144.625 32.4582C144.954 32.4643 145.221 32.5033 145.426 32.5755C145.637 32.6476 145.842 32.7348 146.041 32.837L146.05 33.6485C145.827 33.5343 145.616 33.4351 145.417 33.351C145.218 33.2668 144.989 33.2247 144.728 33.2247C144.486 33.2247 144.284 33.2698 144.122 33.36C143.961 33.4442 143.88 33.5704 143.88 33.7387C143.88 33.883 143.924 33.9972 144.011 34.0814C144.104 34.1655 144.222 34.2317 144.365 34.2798C144.514 34.3279 144.672 34.376 144.84 34.424C144.995 34.4721 145.156 34.5232 145.324 34.5773C145.491 34.6254 145.647 34.6976 145.789 34.7938C145.932 34.8899 146.047 35.0162 146.134 35.1725C146.227 35.3288 146.274 35.5332 146.274 35.7857C146.268 36.1223 146.174 36.3959 145.994 36.6063C145.821 36.8167 145.591 36.97 145.305 37.0662C145.02 37.1623 144.725 37.2104 144.42 37.2104Z" fill="#3F3F3F"/>
<path d="M148.861 37.2104C148.526 37.2104 148.24 37.1744 148.004 37.1022C147.774 37.0361 147.548 36.9519 147.324 36.8497V35.957C147.486 36.0532 147.644 36.1404 147.799 36.2185C147.954 36.2907 148.116 36.3478 148.284 36.3898C148.457 36.4319 148.65 36.453 148.861 36.453C149.128 36.453 149.336 36.3989 149.485 36.2907C149.64 36.1824 149.718 36.0472 149.718 35.8849C149.718 35.7466 149.668 35.6384 149.569 35.5602C149.476 35.4821 149.355 35.416 149.206 35.3619C149.057 35.3078 148.901 35.2537 148.74 35.1995C148.572 35.1575 148.405 35.1094 148.237 35.0553C148.069 34.9952 147.914 34.917 147.771 34.8208C147.635 34.7186 147.523 34.5894 147.436 34.4331C147.355 34.2768 147.315 34.0844 147.315 33.8559C147.315 33.6035 147.368 33.39 147.473 33.2157C147.579 33.0354 147.715 32.8911 147.883 32.7829C148.057 32.6686 148.246 32.5875 148.451 32.5394C148.662 32.4853 148.867 32.4582 149.066 32.4582C149.395 32.4643 149.662 32.5033 149.867 32.5755C150.078 32.6476 150.283 32.7348 150.481 32.837L150.491 33.6485C150.267 33.5343 150.056 33.4351 149.857 33.351C149.659 33.2668 149.429 33.2247 149.168 33.2247C148.926 33.2247 148.724 33.2698 148.563 33.36C148.401 33.4442 148.321 33.5704 148.321 33.7387C148.321 33.883 148.364 33.9972 148.451 34.0814C148.544 34.1655 148.662 34.2317 148.805 34.2798C148.954 34.3279 149.112 34.376 149.28 34.424C149.435 34.4721 149.597 34.5232 149.764 34.5773C149.932 34.6254 150.087 34.6976 150.23 34.7938C150.373 34.8899 150.488 35.0162 150.575 35.1725C150.668 35.3288 150.714 35.5332 150.714 35.7857C150.708 36.1223 150.615 36.3959 150.435 36.6063C150.261 36.8167 150.031 36.97 149.746 37.0662C149.46 37.1623 149.165 37.2104 148.861 37.2104Z" fill="#3F3F3F"/>
<path d="M154.737 37.0752V31.0605H158.807V31.8992H155.771V33.6395H158.416V34.4872H155.762V36.2366H158.807V37.0752H154.737Z" fill="#3F3F3F"/>
<path d="M160.632 37.0752V33.3329H159.887V32.5484H160.641V32.3681C160.641 32.0495 160.675 31.7849 160.744 31.5745C160.818 31.3641 160.914 31.1958 161.032 31.0696C161.15 30.9433 161.281 30.8501 161.424 30.79C161.566 30.7239 161.709 30.6818 161.852 30.6638C162.001 30.6457 162.141 30.6367 162.271 30.6367C162.364 30.6367 162.457 30.6427 162.55 30.6548C162.644 30.6668 162.724 30.6818 162.793 30.6998V31.5385C162.737 31.5084 162.678 31.4844 162.616 31.4663C162.56 31.4423 162.485 31.4303 162.392 31.4303C162.299 31.4303 162.206 31.4393 162.113 31.4573C162.02 31.4693 161.936 31.5054 161.861 31.5655C161.787 31.6196 161.728 31.7038 161.684 31.818C161.641 31.9322 161.619 32.0885 161.619 32.2869V32.5484H162.793V33.3329H161.61V37.0752H160.632Z" fill="#3F3F3F"/>
<path d="M164.29 37.0752V33.3329H163.545V32.5484H164.3V32.3681C164.3 32.0495 164.334 31.7849 164.402 31.5745C164.477 31.3641 164.573 31.1958 164.691 31.0696C164.809 30.9433 164.939 30.8501 165.082 30.79C165.225 30.7239 165.368 30.6818 165.51 30.6638C165.659 30.6457 165.799 30.6367 165.929 30.6367C166.023 30.6367 166.116 30.6427 166.209 30.6548C166.302 30.6668 166.383 30.6818 166.451 30.6998V31.5385C166.395 31.5084 166.336 31.4844 166.274 31.4663C166.218 31.4423 166.144 31.4303 166.05 31.4303C165.957 31.4303 165.864 31.4393 165.771 31.4573C165.678 31.4693 165.594 31.5054 165.52 31.5655C165.445 31.6196 165.386 31.7038 165.343 31.818C165.299 31.9322 165.277 32.0885 165.277 32.2869V32.5484H166.451V33.3329H165.268V37.0752H164.29ZM167.354 37.0752V32.5755H168.332L168.342 37.0752H167.354ZM167.326 31.827V30.9704H168.369V31.827H167.326Z" fill="#3F3F3F"/>
<path d="M171.898 37.1653C171.613 37.1653 171.333 37.1263 171.06 37.0481C170.787 36.97 170.539 36.8437 170.315 36.6694C170.098 36.489 169.924 36.2516 169.794 35.957C169.663 35.6564 169.598 35.2837 169.598 34.8388C169.598 34.382 169.66 34.0002 169.784 33.6936C169.909 33.387 170.079 33.1436 170.297 32.9632C170.514 32.7769 170.759 32.6446 171.032 32.5665C171.312 32.4883 171.597 32.4492 171.889 32.4492C172.138 32.4492 172.386 32.4733 172.634 32.5214C172.883 32.5634 173.112 32.6296 173.323 32.7197V33.5674C173.112 33.4772 172.901 33.4081 172.69 33.36C172.479 33.3059 172.259 33.2788 172.029 33.2788C171.545 33.2788 171.178 33.3961 170.93 33.6305C170.688 33.865 170.567 34.2437 170.567 34.7667C170.567 35.3078 170.682 35.7045 170.911 35.957C171.147 36.2035 171.529 36.3267 172.057 36.3267C172.287 36.3267 172.51 36.2997 172.727 36.2456C172.945 36.1855 173.146 36.1133 173.333 36.0292V36.8768C173.115 36.973 172.889 37.0451 172.653 37.0932C172.417 37.1413 172.165 37.1653 171.898 37.1653Z" fill="#3F3F3F"/>
<path d="M174.582 37.0752V32.5755H175.559L175.569 37.0752H174.582ZM174.554 31.827V30.9704H175.597V31.827H174.554Z" fill="#3F3F3F"/>
<path d="M179.078 37.2104C178.618 37.2104 178.218 37.1203 177.876 36.9399C177.541 36.7596 177.28 36.492 177.094 36.1374C176.914 35.7827 176.824 35.3498 176.824 34.8388C176.824 34.0513 177.013 33.4562 177.392 33.0534C177.777 32.6446 178.311 32.4402 178.994 32.4402C179.497 32.4402 179.903 32.5484 180.214 32.7648C180.524 32.9813 180.748 33.2848 180.884 33.6756C181.027 34.0603 181.095 34.5112 181.089 35.0282H177.411L177.383 34.3249H180.344L180.111 34.5503C180.093 34.0874 179.993 33.7507 179.813 33.5403C179.633 33.3239 179.351 33.2157 178.966 33.2157C178.718 33.2157 178.506 33.2668 178.333 33.369C178.159 33.4652 178.025 33.6335 177.932 33.874C177.845 34.1084 177.802 34.4331 177.802 34.8479C177.802 35.3528 177.923 35.7376 178.165 36.0021C178.407 36.2606 178.764 36.3898 179.236 36.3898C179.447 36.3898 179.643 36.3718 179.823 36.3357C180.009 36.2997 180.18 36.2546 180.335 36.2005C180.49 36.1404 180.624 36.0833 180.735 36.0292V36.9038C180.518 36.994 180.273 37.0662 180 37.1203C179.726 37.1804 179.419 37.2104 179.078 37.2104Z" fill="#3F3F3F"/>
<path d="M182.307 32.9181C182.443 32.852 182.596 32.7919 182.763 32.7378C182.937 32.6777 183.12 32.6266 183.313 32.5845C183.505 32.5424 183.701 32.5093 183.899 32.4853C184.098 32.4612 184.291 32.4492 184.477 32.4492C184.918 32.4492 185.278 32.5093 185.557 32.6296C185.836 32.7438 186.044 32.9241 186.181 33.1706C186.318 33.4111 186.386 33.7147 186.386 34.0814V37.0752H185.408V34.2076C185.408 34.0934 185.393 33.9822 185.362 33.874C185.337 33.7598 185.284 33.6576 185.203 33.5674C185.129 33.4712 185.017 33.3961 184.868 33.342C184.725 33.2878 184.536 33.2608 184.3 33.2608C184.132 33.2608 183.958 33.2758 183.778 33.3059C183.604 33.3359 183.44 33.378 183.285 33.4321V37.0752H182.307V32.9181Z" fill="#3F3F3F"/>
<path d="M189.915 37.1653C189.629 37.1653 189.35 37.1263 189.077 37.0481C188.804 36.97 188.555 36.8437 188.332 36.6694C188.115 36.489 187.941 36.2516 187.81 35.957C187.68 35.6564 187.615 35.2837 187.615 34.8388C187.615 34.382 187.677 34.0002 187.801 33.6936C187.925 33.387 188.096 33.1436 188.313 32.9632C188.531 32.7769 188.776 32.6446 189.049 32.5665C189.328 32.4883 189.614 32.4492 189.906 32.4492C190.154 32.4492 190.402 32.4733 190.651 32.5214C190.899 32.5634 191.129 32.6296 191.34 32.7197V33.5674C191.129 33.4772 190.918 33.4081 190.707 33.36C190.496 33.3059 190.275 33.2788 190.045 33.2788C189.561 33.2788 189.195 33.3961 188.947 33.6305C188.704 33.865 188.583 34.2437 188.583 34.7667C188.583 35.3078 188.698 35.7045 188.928 35.957C189.164 36.2035 189.546 36.3267 190.073 36.3267C190.303 36.3267 190.527 36.2997 190.744 36.2456C190.961 36.1855 191.163 36.1133 191.349 36.0292V36.8768C191.132 36.973 190.905 37.0451 190.669 37.0932C190.434 37.1413 190.182 37.1653 189.915 37.1653Z" fill="#3F3F3F"/>
<path d="M193.297 38.8246C193.179 38.8246 193.067 38.8125 192.961 38.7885C192.856 38.7705 192.763 38.7464 192.682 38.7163V37.9048C192.756 37.9288 192.831 37.9499 192.905 37.9679C192.98 37.9859 193.061 37.995 193.148 37.995C193.334 37.995 193.489 37.9469 193.613 37.8507C193.737 37.7545 193.843 37.6162 193.93 37.4359C194.017 37.2555 194.088 37.0391 194.144 36.7866L194.163 37.2555L192.17 32.5484H193.278L194.628 36.1193H194.489L195.82 32.5484H196.836L194.908 37.3547C194.753 37.7395 194.585 38.037 194.405 38.2474C194.225 38.4639 194.039 38.6142 193.846 38.6983C193.66 38.7825 193.477 38.8246 193.297 38.8246Z" fill="#3F3F3F"/>
<path fill-rule="evenodd" clip-rule="evenodd" d="M6.17118 16.2832C5.8995 18.5005 6.42601 20.7412 7.66023 22.6201C8.89445 24.4991 10.7593 25.899 12.9344 26.5794C15.1095 27.2597 17.459 27.1781 19.5792 26.3483C21.6994 25.5186 23.4579 23.9927 24.5525 22.0328C25.6471 20.0729 26.0096 17.8013 25.5776 15.6084C25.1456 13.4155 23.946 11.4382 22.1851 10.0163C20.8123 8.90776 19.1651 8.19071 17.4236 7.9285L17.4236 9.69678C17.4236 10.5044 16.7541 11.1591 15.9282 11.1591C15.1023 11.1591 14.4328 10.5044 14.4328 9.69678L14.4328 6.56315C14.4328 5.64724 15.1971 4.87616 16.17 4.89411C19.0628 4.94746 21.8548 5.95662 24.0894 7.76107C26.3862 9.61576 27.9508 12.1948 28.5143 15.0551C29.0778 17.9154 28.6051 20.8783 27.1773 23.4347C25.7495 25.9912 23.4558 27.9815 20.6903 29.0637C17.9249 30.146 14.8603 30.2525 12.0233 29.3651C9.18619 28.4776 6.75374 26.6516 5.14389 24.2008C3.53403 21.75 2.84728 18.8274 3.20165 15.9352C3.55601 13.043 4.92935 10.3618 7.0857 8.35228C7.68358 7.79511 8.63013 7.81741 9.19988 8.40209C9.76963 8.98676 9.74683 9.91241 9.14895 10.4696C7.49575 12.0102 6.44285 14.0658 6.17118 16.2832Z" fill="black"/>
<path fill-rule="evenodd" clip-rule="evenodd" d="M10.5962 12.0064C11.1802 11.4354 12.127 11.4354 12.711 12.0064L17.4108 16.6024C17.9948 17.1735 17.9948 18.0994 17.4108 18.6705C16.8268 19.2416 15.88 19.2416 15.296 18.6705L10.5962 14.0745C10.0122 13.5034 10.0122 12.5775 10.5962 12.0064Z" fill="#5D2BFF"/>
</svg>
