<svg width="122" height="26" viewBox="0 0 122 26" fill="none" xmlns="http://www.w3.org/2000/svg">
<g clip-path="url(#clip0_4606_28608)">
<path d="M65.2375 7.14826C66.1453 7.14826 66.8812 6.40328 66.8812 5.48429C66.8812 4.5653 66.1453 3.82031 65.2375 3.82031C64.3297 3.82031 63.5938 4.5653 63.5938 5.48429C63.5938 6.40328 64.3297 7.14826 65.2375 7.14826Z" fill="#0D0536"/>
<path d="M39.2845 5.49219H36.6016V19.0342H39.2845V5.49219Z" fill="#0D0536"/>
<path d="M47.5348 8.13205C46.9068 8.12604 46.2853 8.2614 45.7154 8.52839C45.1793 8.77855 44.7097 9.15409 44.3451 9.62412V8.2865H41.6621V19.0368H44.3451V13.0977C44.3451 12.2448 44.5591 11.5892 44.9871 11.1307C45.2149 10.8971 45.4887 10.7149 45.7908 10.5959C46.093 10.4769 46.4165 10.4238 46.7403 10.44C47.0602 10.4238 47.3798 10.477 47.6778 10.5961C47.9756 10.7152 48.245 10.8976 48.4675 11.1307C48.8878 11.5892 49.0979 12.2448 49.0979 13.0977V19.0368H51.7608V12.7306C51.7608 11.2832 51.3703 10.1544 50.5891 9.3443C50.1902 8.93984 49.713 8.62328 49.1873 8.41463C48.6616 8.20598 48.099 8.10979 47.5348 8.13205Z" fill="#0D0536"/>
<path d="M62.125 15.9684C62.1269 16.5639 61.9436 17.1451 61.6011 17.6295C61.2449 18.1322 60.7575 18.5248 60.1934 18.7631L60.1444 18.7863C59.4424 19.0764 58.6889 19.2172 57.9307 19.2002C57.2534 19.2102 56.5797 19.0976 55.9415 18.868C55.8231 18.8264 55.7068 18.7787 55.5931 18.7251C54.9479 18.4437 54.3841 18.0004 53.9551 17.4371C53.8491 17.2944 53.7529 17.1444 53.6673 16.9883L56.0452 15.881C56.1391 16.1982 56.3333 16.4756 56.5979 16.6706C56.9791 16.9537 57.4439 17.0975 57.9163 17.0787C58.3382 17.1003 58.7561 16.9871 59.111 16.7552C59.1517 16.7272 59.1902 16.696 59.2262 16.6619C59.3238 16.5756 59.4018 16.4689 59.455 16.3492C59.5081 16.2295 59.5352 16.0996 59.5342 15.9684C59.5344 15.7988 59.4844 15.6331 59.3904 15.4928C59.2965 15.3526 59.163 15.244 59.0074 15.1816C58.8203 15.0896 58.628 15.0088 58.4316 14.9397L58.1985 14.8609C58.0257 14.8056 57.8357 14.7503 57.6227 14.689L57.3348 14.6074C56.6725 14.4558 56.022 14.2551 55.3888 14.0072C54.885 13.8012 54.4377 13.4753 54.0847 13.0571C53.7016 12.5685 53.5081 11.955 53.5406 11.3319C53.5355 10.7475 53.7128 10.1764 54.0473 9.70003C54.4161 9.18174 54.9206 8.778 55.504 8.53433C55.6755 8.4578 55.8514 8.39166 56.0307 8.33625C56.5857 8.17586 57.1607 8.09827 57.7378 8.10599C58.3581 8.09849 58.9751 8.19698 59.5629 8.39743C60.0023 8.54595 60.4104 8.77622 60.7662 9.07644C61.1754 9.41695 61.4982 9.85156 61.7076 10.344L59.4047 11.4311C59.3337 11.1197 59.1601 10.8422 58.9123 10.6442C58.5497 10.3777 58.1077 10.245 57.6601 10.2683C57.4214 10.2645 57.1832 10.2929 56.9519 10.3528C56.804 10.394 56.6633 10.4578 56.5345 10.5422C56.4099 10.6225 56.3081 10.7344 56.2394 10.8668C56.1708 10.9992 56.1375 11.1475 56.143 11.297C56.142 11.473 56.1926 11.6452 56.2884 11.7921C56.3843 11.9389 56.521 12.0536 56.6813 12.1217C57.0704 12.3095 57.4763 12.4598 57.8933 12.5704L58.3482 12.6958C58.9946 12.8505 59.6295 13.0511 60.2481 13.2961C60.7491 13.5051 61.192 13.8353 61.5378 14.2577C61.928 14.7393 62.1362 15.3457 62.125 15.9684Z" fill="#0D0536"/>
<path d="M66.5795 8.28516H63.8965V19.0354H66.5795V8.28516Z" fill="#0D0536"/>
<path d="M89.6149 8.66462C88.9584 8.30168 88.2192 8.1179 87.4703 8.1313C86.8105 8.12134 86.1564 8.25658 85.5536 8.52764C85.0086 8.76895 84.5335 9.14587 84.1715 9.62337V3.82422H81.4883V19.036H84.1715V13.0971C84.1715 12.2432 84.3874 11.5875 84.8136 11.13C85.0415 10.8961 85.316 10.7136 85.6186 10.5946C85.9212 10.4755 86.2455 10.4226 86.5697 10.4394C86.8892 10.4225 87.2094 10.4754 87.5072 10.5946C87.805 10.7137 88.0747 10.8963 88.297 11.13C88.7168 11.5875 88.9303 12.2432 88.9303 13.0971V19.036H91.6135V12.7299C91.6368 11.8677 91.4562 11.0124 91.0862 10.2353C90.7627 9.57413 90.2506 9.02683 89.6149 8.66462Z" fill="#0D0536"/>
<path d="M96.7459 5.07422L94.0426 6.18159V8.28561H92.7793V10.5179H94.0426V15.6992C94.0426 17.9217 95.1735 19.0339 97.4338 19.0359H99.1209V16.7571H97.8776C97.5702 16.7843 97.2636 16.6984 97.014 16.5152C96.9193 16.4094 96.847 16.2848 96.8021 16.1494C96.7579 16.0139 96.7419 15.8705 96.7547 15.7284V10.5179H99.1297V8.28561H96.7547L96.7459 5.07422Z" fill="#0D0536"/>
<path d="M103.902 7.8382C103.902 7.22914 104.028 6.8095 104.284 6.57637C104.541 6.34324 104.993 6.23541 105.646 6.24707V3.95655C104.15 3.9177 103.031 4.20911 102.29 4.8308C101.549 5.45248 101.178 6.42386 101.178 7.74495V8.28699H99.9727V10.5192H101.178V19.0343H103.902V10.5163H105.761V8.28407H103.902V7.8382Z" fill="#0D0536"/>
<path d="M114.371 14.2038C114.371 15.0576 114.158 15.7133 113.738 16.1737C113.512 16.4072 113.24 16.5891 112.939 16.7078C112.638 16.8263 112.316 16.8787 111.993 16.8615C111.674 16.8783 111.354 16.8256 111.056 16.707C110.758 16.5883 110.489 16.4065 110.266 16.1737C109.838 15.7133 109.625 15.0566 109.625 14.2038V8.28516H106.941V14.5914C106.918 15.4492 107.106 16.2995 107.488 17.0654C107.823 17.7285 108.347 18.2753 108.99 18.6362C109.669 19.0015 110.428 19.185 111.196 19.1695C111.821 19.1757 112.44 19.0402 113.007 18.7732C113.54 18.5257 114.005 18.1495 114.36 17.6774V19.0354H117.06V8.28516H114.36L114.371 14.2038Z" fill="#0D0536"/>
<path d="M122.002 4.67969H119.318V19.0377H122.002V4.67969Z" fill="#0D0536"/>
<path d="M79.1974 13.6574C79.1967 12.4654 78.8036 11.3078 78.0804 10.3672L79.016 9.24241L77.1275 7.63672L76.169 8.80236C75.446 8.4495 74.6538 8.26628 73.8513 8.2662C73.0487 8.26611 72.2565 8.44933 71.5335 8.80204C70.8105 9.15483 70.1755 9.66808 69.6756 10.3036C69.1756 10.9392 68.8238 11.6806 68.6461 12.4729C68.4684 13.2652 68.4696 14.0878 68.6494 14.8796C68.8292 15.6713 69.1831 16.4119 69.6847 17.0461C70.1864 17.6802 70.8228 18.1917 71.5467 18.5425C72.2707 18.8931 73.0633 19.0742 73.8659 19.0718C75.4233 19.0718 76.7447 20.0889 76.7447 21.2895C76.7447 22.4901 75.4262 23.5072 73.8659 23.5072C72.3057 23.5072 70.9872 22.4931 70.9872 21.2895H68.5229C68.5229 23.8889 70.9181 26.0017 73.8631 26.0017C76.808 26.0017 79.2032 23.8889 79.2032 21.2895C79.1899 20.5939 79.0168 19.9109 78.6975 19.2948C78.3782 18.6788 77.9215 18.1464 77.3636 17.74C77.9405 17.2324 78.4029 16.605 78.7192 15.9007C79.0356 15.1963 79.1987 14.4312 79.1974 13.6574ZM70.9814 13.6574C70.9814 13.081 71.1503 12.5176 71.4666 12.0383C71.7829 11.5591 72.2325 11.1856 72.7585 10.965C73.2845 10.7445 73.8633 10.6867 74.4218 10.7992C74.9802 10.9116 75.4932 11.1892 75.8958 11.5967C76.2984 12.0043 76.5725 12.5235 76.6836 13.0888C76.7947 13.6541 76.7377 14.24 76.5198 14.7725C76.3019 15.305 75.9329 15.7601 75.4595 16.0803C74.9861 16.4005 74.4295 16.5715 73.8602 16.5715C73.0967 16.5715 72.3645 16.2644 71.8246 15.718C71.2847 15.1715 70.9814 14.4302 70.9814 13.6574Z" fill="#0D0536"/>
<path d="M12.8379 1.74945C12.8379 0.783257 13.6116 0 14.5661 0C15.5206 0 16.2943 0.783257 16.2943 1.74945C16.2943 2.71565 15.5206 3.49891 14.5661 3.49891C13.6116 3.49891 12.8379 2.71565 12.8379 1.74945Z" fill="#00D2DA"/>
<path d="M12.8379 7.24554C12.8379 6.27935 13.6116 5.49609 14.5661 5.49609C15.5206 5.49609 16.2943 6.27935 16.2943 7.24554V24.2402C16.2943 25.2064 15.5206 25.9897 14.5661 25.9897C13.6116 25.9897 12.8379 25.2064 12.8379 24.2402V7.24554Z" fill="#746FFF"/>
<path d="M19.2578 13.2456C19.2578 12.2793 20.0315 11.4961 20.986 11.4961C21.9404 11.4961 22.7142 12.2793 22.7142 13.2456V18.7438C22.7142 19.7101 21.9404 20.4933 20.986 20.4933C20.0315 20.4933 19.2578 19.7101 19.2578 18.7438V13.2456Z" fill="#746FFF"/>
<path d="M6.41797 7.24555C6.41797 6.27935 7.19171 5.49609 8.14614 5.49609C9.10063 5.49609 9.87437 6.27935 9.87437 7.24554V12.7438C9.87437 13.7101 9.10063 14.4933 8.14614 14.4933C7.19171 14.4933 6.41797 13.7101 6.41797 12.7438V7.24555Z" fill="#746FFF"/>
<path d="M0 12.7456C0 11.7793 0.773744 10.9961 1.7282 10.9961C2.68267 10.9961 3.45641 11.7793 3.45641 12.7456C3.45641 13.7117 2.68267 14.495 1.7282 14.495C0.773744 14.495 0 13.7117 0 12.7456Z" fill="#746FFF"/>
<path d="M25.6758 13.2456C25.6758 12.2793 26.4495 11.4961 27.404 11.4961C28.3585 11.4961 29.1322 12.2793 29.1322 13.2456C29.1322 14.2118 28.3585 14.995 27.404 14.995C26.4495 14.995 25.6758 14.2118 25.6758 13.2456Z" fill="#746FFF"/>
</g>
<defs>
<clipPath id="clip0_4606_28608">
<rect width="122" height="26" fill="white"/>
</clipPath>
</defs>
</svg>
