<svg width="133" height="21" viewBox="0 0 133 21" fill="none" xmlns="http://www.w3.org/2000/svg">
<path d="M8.12241 7.14491C8.12241 7.14491 7.0259 7.03268 7.0259 8.0379V12.5029H14.267V13.8428C14.267 13.8428 14.2886 14.5123 13.6087 14.5123H7.0259V20.3173H14.9253C14.9253 20.3173 19.7082 19.5578 19.7524 14.5123V7.14491H8.12241ZM19.5323 0H5.27017C0.112993 1.25 0.00390625 5.6037 0.00390625 5.6037V20.3173H5.49022V6.92142C5.49022 5.78268 6.58673 5.58241 6.58673 5.58241H19.5333V0H19.5323ZM38.3611 16.1068C37.9849 16.3651 37.7066 16.5547 37.51 16.6756C36.8066 17.1236 36.1361 17.469 35.5145 17.7447C34.6145 18.124 33.8124 18.3136 33.093 18.3136C30.6225 18.3136 28.5771 17.5377 26.9239 15.9684C25.2707 14.3991 24.4544 12.4342 24.4544 10.0551C24.4544 7.76217 25.1907 5.77881 26.6794 4.08861C28.1681 2.39937 29.968 1.5712 32.0952 1.5712C32.9792 1.5712 33.9271 1.726 34.9089 2.05495C36.185 2.46807 37.2157 3.08919 38.0338 3.89898L36.6101 5.51953C36.0054 4.91678 35.2202 4.46787 34.3033 4.19213C33.6168 3.98509 32.8644 3.88253 32.0294 3.88253C30.5407 3.88253 29.2806 4.50173 28.2828 5.72657C27.285 6.96786 26.7781 8.4336 26.7781 10.1577C26.7781 11.8653 27.3499 13.2614 28.4953 14.3827C29.6407 15.503 31.0965 16.0719 32.8635 16.0719C33.5998 16.0719 34.3531 15.8301 35.1214 15.3657C35.7599 14.8655 36.0872 14.6236 36.1032 14.6062V11.0719H31.3259L32.0124 8.8651H38.3611V16.1068ZM52.7916 11.7956C52.7916 13.5023 52.2029 14.9854 51.0246 16.2267C49.8463 17.468 48.3905 18.1066 46.6564 18.1066C45.053 18.1066 43.6462 17.4854 42.4349 16.2616C41.2237 15.0377 40.635 13.5545 40.635 11.813C40.635 10.089 41.2086 8.60582 42.3531 7.3297C43.4976 6.05358 44.9054 5.43342 46.5577 5.43342C48.3905 5.43342 49.8792 6.03713 51.0406 7.26101C52.2029 8.45102 52.7916 9.96804 52.7916 11.7956ZM50.5497 11.8305C50.5497 10.6753 50.1735 9.69231 49.4212 8.89897C48.6689 8.08821 47.736 7.69154 46.6235 7.69154C45.5768 7.69154 44.6928 8.10563 43.9565 8.9338C43.2202 9.761 42.86 10.7091 42.86 11.7782C42.86 12.8995 43.2362 13.8477 43.9725 14.641C44.7088 15.4344 45.6257 15.8475 46.7373 15.8475C47.7689 15.8475 48.6519 15.4508 49.4052 14.6575C50.1735 13.8641 50.5506 12.916 50.5506 11.8305H50.5497ZM67.0256 11.7956C67.0256 13.5023 66.4369 14.9854 65.2585 16.2267C64.0802 17.468 62.6245 18.1066 60.8904 18.1066C59.287 18.1066 57.8801 17.4854 56.6689 16.2616C55.4586 15.0377 54.869 13.5545 54.869 11.813C54.869 10.089 55.4426 8.60582 56.5871 7.3297C57.7325 6.05358 59.1393 5.43342 60.7916 5.43342C62.6245 5.43342 64.1131 6.03713 65.2745 7.26101C66.4369 8.45102 67.0256 9.96804 67.0256 11.7956ZM64.7836 11.8305C64.7836 10.6753 64.4075 9.69231 63.6551 8.89897C62.9028 8.08821 61.9699 7.69154 60.8574 7.69154C59.8108 7.69154 58.9268 8.10563 58.1905 8.9338C57.4541 9.761 57.0939 10.7091 57.0939 11.7782C57.0939 12.8995 57.4701 13.8477 58.2074 14.641C58.9428 15.4344 59.8597 15.8475 60.9722 15.8475C62.0029 15.8475 62.8859 15.4508 63.6392 14.6575C64.4075 13.8641 64.7846 12.916 64.7846 11.8305H64.7836ZM80.1969 17.7612L78.1355 18.0891V16.0371L77.6935 16.5537C77.3042 16.929 76.863 17.2429 76.3845 17.4854C75.682 17.8188 74.917 17.9895 74.1435 17.9856C72.5401 17.9856 71.1652 17.3819 70.0527 16.1571C68.9402 14.9322 68.3844 13.4849 68.3844 11.7956C68.3844 10.0541 68.9402 8.55454 70.0367 7.31228C71.1332 6.07003 72.4743 5.44987 74.0776 5.44987C74.9945 5.44987 75.7958 5.60466 76.4663 5.91523C76.9412 6.13969 77.3503 6.43284 77.6935 6.79564C77.8082 6.95044 77.923 7.12266 78.0377 7.27745V1.89821L80.2288 1.57024L80.1969 17.7612ZM78.2662 11.9504C78.2662 10.744 77.8731 9.72617 77.0719 8.89897C76.2707 8.05338 75.3698 7.64026 74.34 7.64026C73.1946 7.64026 72.2787 8.03693 71.5752 8.83027C70.9198 9.58782 70.5765 10.5195 70.5765 11.606C70.5765 12.8299 70.9198 13.8467 71.6072 14.64C72.2937 15.4334 73.1617 15.8301 74.2253 15.8301C75.272 15.8301 76.1889 15.4682 77.007 14.7271C77.8411 13.9676 78.2671 13.0369 78.2671 11.9504H78.2662ZM91.7638 4.14085H85.6286V8.4336H90.3889V10.6404H85.6286V17.7447L83.24 18.1066V1.91563H91.2889L91.7638 4.14085ZM96.6887 2.88118L95.216 4.79488L93.8092 2.88118L95.2979 0.984904L96.6887 2.88118ZM96.2467 17.7612L94.0546 18.0717V6.08841L96.2467 5.74398V17.7621V17.7612ZM106.145 5.62305L105.115 8.0708C104.979 8.04955 104.843 8.03824 104.706 8.03693C104.493 8.03693 104.281 8.05435 104.067 8.08821C103.854 8.12207 103.625 8.20915 103.381 8.33008C102.923 8.53712 102.53 8.98507 102.186 9.65748C101.806 10.4206 101.61 11.2662 101.613 12.1236V17.7447L99.4215 18.1066V6.08841L101.45 5.70915V8.20915C101.711 7.77765 101.99 7.34711 102.251 6.89917C102.627 6.45025 103.069 6.12324 103.56 5.93264C103.822 5.83009 104.297 5.74302 105.016 5.67432C105.703 5.62305 106.097 5.58822 106.145 5.62305ZM122.473 17.7612L120.281 18.0891V9.86452C120.281 9.10504 120.117 8.55357 119.79 8.20915C119.462 7.86375 118.972 7.69154 118.333 7.69154C117.565 7.69154 116.975 8.01952 116.583 8.67451C116.321 9.12246 116.174 9.60523 116.174 10.088V17.7438L113.982 18.1578V9.9158C113.982 9.19211 113.818 8.63968 113.507 8.26139C113.18 7.88117 112.755 7.69154 112.198 7.69154H111.985C111.216 7.69154 110.659 8.01952 110.316 8.69192C110.055 9.19212 109.924 9.82969 109.924 10.6056V17.7438L107.65 18.1578V6.08841L109.695 5.72657V7.26101C109.924 6.8982 110.152 6.60505 110.366 6.39897C110.955 5.83009 111.642 5.55339 112.41 5.55339C113.277 5.55339 113.915 5.69174 114.357 5.98489C114.733 6.22676 115.093 6.70857 115.454 7.39839C116.206 6.17452 117.269 5.55339 118.677 5.55339C120.018 5.55339 121.017 5.98489 121.671 6.86434C122.211 7.58802 122.473 8.65709 122.473 10.0541V17.7612ZM132.488 14.1234C132.488 15.2263 132.112 16.1406 131.36 16.8479C130.607 17.5715 129.657 17.9169 128.512 17.9169C127.645 17.9169 126.876 17.7099 126.172 17.2958C125.469 16.8827 124.946 16.4164 124.602 15.8649L126.14 14.4514C126.254 14.6236 126.353 14.761 126.451 14.8645C127.024 15.4682 127.711 15.7788 128.512 15.7788C129.069 15.7788 129.511 15.624 129.821 15.3308C130.148 15.0377 130.296 14.6236 130.296 14.0886C130.296 13.4858 129.92 13.0717 129.167 12.8473C127.678 12.3819 126.876 12.1236 126.762 12.0714C126.074 11.7095 125.584 11.3303 125.272 10.8988C124.929 10.3986 124.749 9.74358 124.749 8.89897C124.749 7.86375 125.126 7.00269 125.862 6.31287C126.598 5.62305 127.481 5.29507 128.495 5.29507C129.265 5.29507 129.985 5.46728 130.639 5.83009C131.294 6.19193 131.768 6.57119 132.046 7.0201L130.737 8.48488C130.54 8.28241 130.327 8.09789 130.099 7.93341C129.576 7.55416 129.069 7.36453 128.595 7.36453C128.136 7.36453 127.76 7.46805 127.465 7.67412C127.121 7.93341 126.942 8.31267 126.942 8.81286C126.942 9.29564 127.105 9.65748 127.449 9.88194C127.744 10.0716 128.365 10.2786 129.347 10.5021C130.328 10.744 131.081 11.1581 131.621 11.7444C132.227 12.3645 132.488 13.1404 132.488 14.1234Z" fill="white"/>
</svg>
