<svg width="122" height="33" viewBox="0 0 122 33" fill="none" xmlns="http://www.w3.org/2000/svg">
<g clip-path="url(#clip0_4881_13249)">
<path d="M32.0381 11.3701H44.3813V13.8378H39.5279V27.7099H36.8592V13.8378H32.0273V11.3701H32.0381ZM43.854 15.8788H46.1354V18.162H46.1784C46.2537 17.8391 46.3936 17.5278 46.5981 17.228C46.8026 16.9282 47.0501 16.6399 47.3406 16.3977C47.6312 16.1441 47.954 15.948 48.3091 15.7866C48.6643 15.6367 49.0301 15.556 49.396 15.556C49.6758 15.556 49.8803 15.5675 49.9879 15.579C50.0955 15.5906 50.2031 15.6136 50.3215 15.6251V18.139C50.1493 18.1044 49.9771 18.0813 49.7942 18.0582C49.6113 18.0352 49.4391 18.0236 49.2669 18.0236C48.858 18.0236 48.4706 18.1159 48.1047 18.2889C47.7388 18.4618 47.4267 18.727 47.1577 19.0615C46.8887 19.4074 46.6734 19.8225 46.512 20.3299C46.3506 20.8373 46.2753 21.4138 46.2753 22.0711V27.6984H43.8432V15.8788H43.854ZM61.5025 27.7099H59.1135V26.0609H59.0704C58.7691 26.6605 58.3279 27.1333 57.736 27.4908C57.1441 27.8483 56.5415 28.0328 55.9281 28.0328C54.4753 28.0328 53.4207 27.6522 52.7751 26.8796C52.1294 26.107 51.8066 24.9424 51.8066 23.3857V15.8788H54.2386V23.132C54.2386 24.1698 54.4215 24.9078 54.7982 25.3344C55.1641 25.7611 55.6914 25.9802 56.3586 25.9802C56.8751 25.9802 57.2948 25.8995 57.6392 25.7265C57.9835 25.5535 58.2633 25.3344 58.4678 25.0462C58.683 24.7694 58.8337 24.4235 58.9305 24.0314C59.0274 23.6394 59.0704 23.2127 59.0704 22.7515V15.8904H61.5025V27.7099ZM65.6455 23.9161C65.7209 24.6772 65.9899 25.2076 66.4526 25.5189C66.9261 25.8188 67.4857 25.9802 68.1422 25.9802C68.3681 25.9802 68.6264 25.9571 68.917 25.9225C69.2075 25.8879 69.4873 25.8072 69.7348 25.7034C69.9931 25.5997 70.1976 25.4382 70.3697 25.2307C70.5312 25.0231 70.6065 24.7579 70.5957 24.4235C70.585 24.0891 70.4666 23.8123 70.2514 23.6048C70.0361 23.3857 69.7671 23.2242 69.4335 23.0859C69.0999 22.959 68.7233 22.8437 68.2928 22.7515C67.8624 22.6592 67.4319 22.5554 66.9907 22.4516C66.5387 22.3479 66.0975 22.2095 65.6778 22.0596C65.2581 21.9097 64.8815 21.7021 64.5479 21.4369C64.2143 21.1832 63.9453 20.8488 63.7516 20.4452C63.5471 20.0416 63.4502 19.5458 63.4502 18.9461C63.4502 18.3004 63.6009 17.77 63.8915 17.3318C64.182 16.8936 64.5587 16.5476 64.9999 16.2824C65.4518 16.0172 65.9469 15.8327 66.4957 15.7174C67.0445 15.6136 67.5718 15.556 68.0668 15.556C68.6372 15.556 69.186 15.6251 69.7025 15.752C70.2191 15.8788 70.6926 16.0864 71.1123 16.3862C71.532 16.6745 71.8763 17.055 72.1561 17.5163C72.4359 17.9775 72.6081 18.5425 72.6834 19.1998H70.1438C70.0254 18.5771 69.7671 18.1505 69.3474 17.9429C68.9277 17.7238 68.4435 17.62 67.9054 17.62C67.7332 17.62 67.5288 17.6316 67.292 17.6662C67.0553 17.7008 66.84 17.7584 66.6248 17.8391C66.4204 17.9199 66.2482 18.0467 66.0975 18.2081C65.9576 18.3696 65.8823 18.5771 65.8823 18.8424C65.8823 19.1652 65.9899 19.4189 66.1944 19.615C66.3988 19.811 66.6679 19.9724 67.0015 20.1108C67.3351 20.2376 67.7117 20.353 68.1422 20.4452C68.5726 20.5375 69.0138 20.6412 69.4658 20.745C69.907 20.8488 70.3375 20.9872 70.7679 21.1371C71.1984 21.287 71.575 21.4945 71.9086 21.7598C72.2422 22.025 72.5112 22.3479 72.7157 22.7399C72.9202 23.132 73.0278 23.6278 73.0278 24.2044C73.0278 24.9078 72.8771 25.4959 72.5758 25.9917C72.2745 26.476 71.8871 26.8796 71.4136 27.1794C70.9401 27.4793 70.402 27.7099 69.8209 27.8483C69.2398 27.9866 68.6587 28.0558 68.0884 28.0558C67.3889 28.0558 66.7432 27.9751 66.1513 27.8021C65.5595 27.6292 65.0429 27.3755 64.6125 27.0411C64.182 26.6951 63.8377 26.2685 63.5901 25.7611C63.3426 25.2537 63.2135 24.6426 63.192 23.9392H65.6455V23.9161ZM73.6734 15.8788H75.5136V12.3272H77.9457V15.8788H80.141V17.8276H77.9457V24.1467C77.9457 24.4235 77.9564 24.6541 77.978 24.8617C77.9995 25.0577 78.0533 25.2307 78.1286 25.369C78.2039 25.5074 78.3223 25.6112 78.4837 25.6804C78.6452 25.7496 78.8496 25.7842 79.1294 25.7842C79.3016 25.7842 79.4738 25.7842 79.646 25.7726C79.8181 25.7611 79.9903 25.738 80.1625 25.6919V27.7099C79.8935 27.7445 79.6244 27.7675 79.3769 27.8021C79.1186 27.8367 78.8604 27.8483 78.5913 27.8483C77.9457 27.8483 77.4291 27.7791 77.0417 27.6522C76.6543 27.5254 76.3422 27.3294 76.127 27.0757C75.901 26.822 75.7611 26.5106 75.675 26.1301C75.5997 25.7496 75.5459 25.3114 75.5352 24.8271V17.8507H73.695V15.8788H73.6734ZM81.8628 15.8788H84.1657V17.4817H84.2087C84.5531 16.7898 85.0266 16.3055 85.64 16.0057C86.2534 15.7059 86.9098 15.556 87.6308 15.556C88.5025 15.556 89.2558 15.7174 89.9014 16.0518C90.5471 16.3747 91.0852 16.8244 91.5156 17.401C91.9461 17.9775 92.2582 18.6463 92.4734 19.4074C92.6886 20.1685 92.7962 20.9872 92.7962 21.852C92.7962 22.6477 92.6994 23.4203 92.5057 24.1583C92.312 24.9078 92.0214 25.5651 91.634 26.1416C91.2466 26.7182 90.7516 27.1679 90.1489 27.5139C89.5463 27.8598 88.8468 28.0328 88.029 28.0328C87.6739 28.0328 87.3187 27.9982 86.9636 27.929C86.6085 27.8598 86.2641 27.7445 85.9413 27.5946C85.6185 27.4447 85.3064 27.2486 85.0373 27.0065C84.7576 26.7643 84.5316 26.4876 84.3379 26.1762H84.2948V32.0802H81.8628V15.8788ZM90.3642 21.8059C90.3642 21.2755 90.2996 20.7565 90.1705 20.2492C90.0413 19.7418 89.8476 19.3036 89.5894 18.9115C89.3311 18.5195 89.0083 18.2081 88.6316 17.9775C88.2442 17.7469 87.803 17.62 87.308 17.62C86.2856 17.62 85.5108 18.0006 84.9943 18.7616C84.4778 19.5227 84.2195 20.5375 84.2195 21.8059C84.2195 22.4055 84.2841 22.959 84.424 23.4664C84.5639 23.9738 84.7576 24.4119 85.0373 24.7809C85.3064 25.1499 85.6292 25.4382 86.0059 25.6458C86.3825 25.8649 86.8237 25.9687 87.3187 25.9687C87.8783 25.9687 88.3411 25.8418 88.7285 25.5997C89.1159 25.3575 89.4279 25.0346 89.6754 24.6541C89.923 24.262 90.1059 23.8239 90.2135 23.328C90.3104 22.8322 90.3642 22.3248 90.3642 21.8059ZM94.6579 11.3701H97.09V13.8378H94.6579V11.3701ZM94.6579 15.8788H97.09V27.7099H94.6579V15.8788ZM99.2637 11.3701H101.696V27.7099H99.2637V11.3701ZM109.153 28.0328C108.271 28.0328 107.485 27.8713 106.797 27.56C106.108 27.2486 105.527 26.8104 105.043 26.2685C104.569 25.715 104.203 25.0577 103.956 24.2966C103.708 23.5356 103.579 22.6938 103.579 21.7828C103.579 20.8834 103.708 20.0531 103.956 19.2921C104.203 18.531 104.569 17.8737 105.043 17.3202C105.516 16.7667 106.108 16.3401 106.797 16.0287C107.485 15.7174 108.271 15.556 109.153 15.556C110.036 15.556 110.821 15.7174 111.51 16.0287C112.199 16.3401 112.78 16.7783 113.264 17.3202C113.738 17.8737 114.104 18.531 114.351 19.2921C114.599 20.0531 114.728 20.8834 114.728 21.7828C114.728 22.6938 114.599 23.5356 114.351 24.2966C114.104 25.0577 113.738 25.715 113.264 26.2685C112.791 26.822 112.199 27.2486 111.51 27.56C110.821 27.8713 110.036 28.0328 109.153 28.0328ZM109.153 25.9687C109.691 25.9687 110.165 25.8418 110.563 25.5997C110.961 25.3575 111.284 25.0346 111.542 24.6426C111.801 24.2505 111.984 23.8008 112.113 23.305C112.231 22.8091 112.296 22.3017 112.296 21.7828C112.296 21.2755 112.231 20.7796 112.113 20.2722C111.994 19.7649 111.801 19.3267 111.542 18.9346C111.284 18.5425 110.961 18.2312 110.563 17.989C110.165 17.7469 109.691 17.62 109.153 17.62C108.615 17.62 108.142 17.7469 107.744 17.989C107.345 18.2312 107.023 18.5541 106.764 18.9346C106.506 19.3267 106.323 19.7649 106.194 20.2722C106.076 20.7796 106.011 21.2755 106.011 21.7828C106.011 22.3017 106.076 22.8091 106.194 23.305C106.312 23.8008 106.506 24.2505 106.764 24.6426C107.023 25.0346 107.345 25.3575 107.744 25.5997C108.142 25.8534 108.615 25.9687 109.153 25.9687ZM115.438 15.8788H117.278V12.3272H119.71V15.8788H121.905V17.8276H119.71V24.1467C119.71 24.4235 119.721 24.6541 119.742 24.8617C119.764 25.0577 119.818 25.2307 119.893 25.369C119.968 25.5074 120.087 25.6112 120.248 25.6804C120.41 25.7496 120.614 25.7842 120.894 25.7842C121.066 25.7842 121.238 25.7842 121.41 25.7726C121.583 25.7611 121.755 25.738 121.927 25.6919V27.7099C121.658 27.7445 121.389 27.7675 121.141 27.8021C120.883 27.8367 120.625 27.8483 120.356 27.8483C119.71 27.8483 119.194 27.7791 118.806 27.6522C118.419 27.5254 118.107 27.3294 117.892 27.0757C117.666 26.822 117.526 26.5106 117.44 26.1301C117.364 25.7496 117.31 25.3114 117.3 24.8271V17.8507H115.459V15.8788H115.438Z" fill="white"/>
<path d="M29.1953 11.3698H18.0466L14.603 0L11.1487 11.3698L0 11.3583L9.0287 18.3923L5.57434 29.7506L14.603 22.7281L23.621 29.7506L20.1774 18.3923L29.1953 11.3698Z" fill="#00B67A"/>
<path d="M20.9546 20.964L20.1798 18.3926L14.6055 22.7283L20.9546 20.964Z" fill="#005128"/>
</g>
<defs>
<clipPath id="clip0_4881_13249">
<rect width="121.904" height="32.0799" fill="white"/>
</clipPath>
</defs>
</svg>
