<svg width="137" height="22" viewBox="0 0 137 22" fill="none" xmlns="http://www.w3.org/2000/svg">
<g clip-path="url(#clip0_4881_13203)">
<path d="M13.9335 11.3322C13.9335 7.36063 12.5172 5.55161 11.7674 4.86543C11.6216 4.74067 11.3925 4.84463 11.4133 5.05257C11.5591 7.29825 8.72656 7.85967 8.72656 11.3737V11.3945C8.72656 13.5363 10.3511 15.2829 12.3506 15.2829C14.35 15.2829 15.9746 13.5363 15.9746 11.3945V11.3737C15.9746 10.3757 15.5997 9.41917 15.2248 8.7122C15.1415 8.56664 14.9332 8.62902 14.954 8.75378C15.6413 11.7896 13.9335 13.661 13.9335 11.3322Z" fill="#FF6600"/>
<path d="M9.62365 19.7121C9.54034 19.7121 9.4362 19.6705 9.37372 19.6081L0.105443 10.3551C-0.0195226 10.2303 -0.0195226 10.0016 0.105443 9.85605L9.89441 0.0831734C9.95689 0.0415867 10.0402 0 10.1235 0H12.9352C13.1019 0 13.206 0.103967 13.2477 0.207934C13.2893 0.3119 13.2893 0.457454 13.1643 0.582214L3.97937 9.77288C3.79193 9.96002 3.79193 10.2511 3.97937 10.4383L11.2482 17.7159C11.3732 17.8407 11.3732 18.0694 11.2482 18.215L9.85275 19.6289C9.79027 19.6705 9.70696 19.7121 9.62365 19.7121Z" fill="#FF6600"/>
<path d="M11.478 21.3345C11.3113 21.3345 11.2072 21.2305 11.1655 21.1265C11.1239 21.0226 11.1239 20.877 11.2488 20.7522L20.4546 11.5616C20.538 11.4784 20.6004 11.3536 20.6004 11.2289C20.6004 11.1041 20.5588 10.9794 20.4546 10.8962L13.165 3.61852C13.04 3.49376 13.04 3.26503 13.165 3.11948L14.5813 1.70553C14.6437 1.64315 14.7271 1.60156 14.8312 1.60156C14.9353 1.60156 14.9978 1.66394 15.0603 1.72632L24.3077 10.9794C24.3702 11.0417 24.4119 11.1249 24.4119 11.2289C24.4119 11.3329 24.3702 11.416 24.3077 11.4784L14.5188 21.2513C14.4563 21.3137 14.373 21.3553 14.2688 21.3553H11.478V21.3345Z" fill="#FF6600"/>
<path d="M34.8225 6.65378C34.7809 6.73695 34.7184 6.77854 34.6143 6.77854C34.5518 6.77854 34.4685 6.73695 34.3643 6.63298C34.2602 6.52902 34.1144 6.42505 33.9478 6.32108C33.7603 6.19632 33.552 6.09236 33.2813 6.00918C33.0105 5.90522 32.6773 5.86363 32.2816 5.86363C31.8858 5.86363 31.5526 5.92601 31.2402 6.02998C30.9486 6.13394 30.6987 6.30029 30.4904 6.48743C30.2821 6.67457 30.1363 6.9033 30.0322 7.15282C29.928 7.40234 29.8656 7.67265 29.8656 7.94297C29.8656 8.31725 29.9489 8.60835 30.0947 8.85787C30.2405 9.0866 30.4487 9.29453 30.7195 9.46088C30.9694 9.62723 31.261 9.77278 31.5943 9.87675C31.9275 10.0015 32.2607 10.1055 32.594 10.2094C32.9272 10.3134 33.2605 10.4382 33.5937 10.5837C33.9269 10.7085 34.1977 10.8956 34.4685 11.0828C34.7392 11.2699 34.9267 11.5402 35.0933 11.8313C35.2391 12.1224 35.3224 12.4967 35.3224 12.9334C35.3224 13.3908 35.2391 13.8067 35.0933 14.2018C34.9475 14.5968 34.7184 14.9503 34.4268 15.2414C34.1352 15.5325 33.7603 15.7613 33.3438 15.9484C32.9064 16.1148 32.4274 16.1979 31.8858 16.1979C31.1777 16.1979 30.5529 16.0732 30.053 15.8236C29.5323 15.5741 29.0949 15.2206 28.6992 14.784L28.9075 14.4513C28.97 14.3681 29.0325 14.3473 29.1158 14.3473C29.1574 14.3473 29.2199 14.3681 29.2824 14.4305C29.3449 14.4929 29.449 14.576 29.5323 14.6592C29.6365 14.7424 29.7614 14.8464 29.9072 14.9503C30.053 15.0543 30.2196 15.1583 30.4071 15.2414C30.5945 15.3246 30.8028 15.4078 31.0527 15.4702C31.3027 15.5325 31.5734 15.5533 31.8858 15.5533C32.3232 15.5533 32.6981 15.491 33.0314 15.3662C33.3646 15.2414 33.6562 15.0543 33.8853 14.8464C34.1144 14.6384 34.3018 14.3473 34.4268 14.0562C34.5518 13.7443 34.6143 13.4116 34.6143 13.0789C34.6143 12.7046 34.5309 12.3927 34.3852 12.1432C34.2394 11.8937 34.0311 11.6858 33.7603 11.5194C33.5104 11.3531 33.2188 11.2075 32.8856 11.1036C32.5523 10.9996 32.2191 10.8748 31.8858 10.7709C31.5526 10.6669 31.2194 10.5421 30.8861 10.4174C30.5529 10.2926 30.2821 10.1263 30.0114 9.91833C29.7614 9.7104 29.5532 9.46088 29.3865 9.14898C29.2407 8.83708 29.1574 8.4628 29.1574 7.98455C29.1574 7.63107 29.2199 7.27758 29.3657 6.94488C29.5115 6.61219 29.6989 6.32108 29.9697 6.05077C30.2405 5.80125 30.5529 5.59332 30.9486 5.42697C31.3443 5.28142 31.7817 5.19824 32.2816 5.19824C32.8439 5.19824 33.3438 5.28142 33.802 5.46856C34.2394 5.6557 34.6559 5.92601 35.0308 6.2795L34.8225 6.65378Z" fill="white"/>
<path d="M31.8454 16.3852C31.1165 16.3852 30.4708 16.2605 29.9501 15.9902C29.4294 15.7406 28.9504 15.3664 28.5547 14.9297L28.4922 14.8673L28.7629 14.4515C28.8879 14.3059 28.9921 14.2851 29.0754 14.2851C29.1587 14.2851 29.242 14.3267 29.3253 14.4099C29.3878 14.4722 29.4919 14.5554 29.5961 14.6386C29.7002 14.7218 29.8252 14.8257 29.9501 14.9297C30.0959 15.0337 30.2417 15.1168 30.4292 15.2C30.6166 15.2832 30.8249 15.3664 31.054 15.4079C31.2831 15.4703 31.5538 15.4911 31.8663 15.4911C32.2828 15.4911 32.6577 15.4287 32.9701 15.304C33.2825 15.1792 33.5533 15.0129 33.7824 14.8049C33.9907 14.597 34.1781 14.3475 34.2823 14.0564C34.4072 13.7653 34.4489 13.4534 34.4489 13.1207C34.4489 12.7672 34.3864 12.4761 34.2406 12.2474C34.0948 12.0186 33.9074 11.8315 33.6574 11.6651C33.4075 11.4988 33.1367 11.374 32.8243 11.2701C32.5119 11.1661 32.1787 11.0413 31.8246 10.9374C31.4705 10.8334 31.1373 10.7086 30.8249 10.5839C30.4916 10.4383 30.1792 10.272 29.9293 10.0641C29.6585 9.85612 29.4503 9.56501 29.2836 9.25311C29.117 8.92042 29.0337 8.52535 29.0337 8.0471C29.0337 7.67282 29.0962 7.29854 29.242 6.94505C29.3878 6.59156 29.596 6.27966 29.8668 6.00935C30.1376 5.73903 30.4916 5.5311 30.8874 5.36475C31.2831 5.19841 31.7621 5.11523 32.262 5.11523C32.8452 5.11523 33.3658 5.19841 33.824 5.38555C34.2823 5.57269 34.6988 5.8638 35.0945 6.23808L35.157 6.30046L34.9279 6.73712C34.8029 6.96584 34.5738 7.02822 34.2823 6.75791C34.1781 6.67474 34.0532 6.57077 33.8657 6.4668C33.6991 6.36284 33.47 6.25887 33.22 6.1549C32.9701 6.07173 32.6577 6.00935 32.262 6.00935C31.8871 6.00935 31.5538 6.07173 31.2623 6.1757C30.9915 6.27966 30.7416 6.42522 30.5541 6.61236C30.3667 6.7995 30.2209 7.00743 30.1167 7.23616C30.0126 7.46488 29.9709 7.7352 29.9709 7.98472C29.9709 8.31741 30.0334 8.60852 30.1792 8.81645C30.325 9.04518 30.5125 9.23232 30.7624 9.39867C31.0123 9.56501 31.2831 9.68977 31.5955 9.81453C31.9079 9.9185 32.2412 10.0433 32.5952 10.1472C32.9285 10.2512 33.2825 10.376 33.5949 10.5215C33.9282 10.6671 34.2406 10.8334 34.4905 11.0413C34.7613 11.2493 34.9696 11.5196 35.1362 11.8315C35.3028 12.1434 35.3861 12.5385 35.3861 12.9959C35.3861 13.4534 35.3028 13.9108 35.1362 14.3267C34.9696 14.7426 34.7405 15.096 34.4281 15.4079C34.1156 15.7198 33.7407 15.9486 33.3034 16.1357C32.9285 16.2813 32.4078 16.3852 31.8454 16.3852ZM28.8254 14.8257C29.1795 15.2208 29.596 15.5327 30.0751 15.7614C30.5749 16.011 31.1789 16.1357 31.8663 16.1357C32.3869 16.1357 32.866 16.0525 33.2825 15.8862C33.6991 15.7198 34.0323 15.4911 34.3239 15.2208C34.5947 14.9505 34.8238 14.597 34.9696 14.2227C35.1154 13.8484 35.1987 13.4326 35.1987 12.9959C35.1987 12.58 35.1154 12.2266 34.9904 11.9355C34.8446 11.6651 34.6572 11.4156 34.4072 11.2285C34.1573 11.0413 33.8865 10.875 33.5741 10.7294C33.2617 10.6047 32.9285 10.4799 32.5952 10.3552C32.262 10.2512 31.9287 10.1264 31.5955 10.0225C31.2623 9.89771 30.9707 9.75215 30.6999 9.58581C30.4292 9.41946 30.2209 9.19073 30.0543 8.94121C29.8876 8.69169 29.8043 8.359 29.8043 7.96392C29.8043 7.67282 29.8668 7.38171 29.9709 7.1114C30.0751 6.84108 30.2417 6.59156 30.45 6.40442C30.6583 6.19649 30.929 6.03014 31.2414 5.92618C31.5538 5.80142 31.9287 5.75983 32.3245 5.75983C32.7202 5.75983 33.0743 5.80142 33.3658 5.90538C33.6366 6.00935 33.8865 6.11332 34.0532 6.23808C34.2406 6.36284 34.3864 6.4668 34.4905 6.57077C34.6155 6.67474 34.6572 6.67474 34.6572 6.67474C34.678 6.67474 34.7196 6.67474 34.7405 6.61236L34.8863 6.34204C34.553 6.03014 34.1781 5.78062 33.7824 5.61427C33.345 5.44793 32.866 5.36475 32.3245 5.36475C31.8454 5.36475 31.408 5.44793 31.0332 5.59348C30.6583 5.73903 30.3458 5.94697 30.0959 6.1757C29.846 6.42522 29.6585 6.69553 29.5127 7.02822C29.3878 7.34012 29.3253 7.67282 29.3253 8.0263C29.3253 8.46296 29.4086 8.83725 29.5544 9.12835C29.7002 9.41946 29.8876 9.66898 30.1376 9.85612C30.3875 10.0433 30.6583 10.2096 30.9707 10.3344C31.2831 10.4591 31.6163 10.5839 31.9496 10.6879C32.2828 10.7918 32.616 10.8958 32.9493 11.0205C33.2825 11.1453 33.5741 11.2701 33.8449 11.4572C34.1156 11.6236 34.3447 11.8523 34.4905 12.1226C34.6572 12.3929 34.7405 12.7256 34.7405 13.1415C34.7405 13.5158 34.678 13.8484 34.553 14.1811C34.428 14.5138 34.2406 14.7841 33.9907 15.0129C33.7407 15.2416 33.4492 15.4287 33.0951 15.5743C32.741 15.6991 32.3453 15.7822 31.9079 15.7822C31.5955 15.7822 31.3039 15.7406 31.0332 15.6783C30.7832 15.6159 30.5541 15.5327 30.3667 15.4495C30.1792 15.3664 29.9918 15.2624 29.846 15.1376C29.7002 15.0337 29.5752 14.9297 29.4711 14.8465C29.3669 14.7634 29.2836 14.6802 29.2212 14.6178C29.1587 14.5554 29.117 14.5554 29.117 14.5554C29.0962 14.5554 29.0545 14.5554 29.0129 14.6178L28.8254 14.8257Z" fill="white"/>
<path d="M47.2159 10.7293C47.2159 11.561 47.0909 12.3096 46.841 12.9958C46.5911 13.6819 46.237 14.2641 45.7788 14.7424C45.3206 15.2206 44.7791 15.5949 44.1543 15.8652C43.5294 16.1355 42.8213 16.2603 42.0507 16.2603C41.3009 16.2603 40.5927 16.1355 39.9679 15.8652C39.3431 15.5949 38.8016 15.2414 38.3434 14.7424C37.8851 14.2641 37.5311 13.6819 37.2811 12.9958C37.0312 12.3096 36.9062 11.561 36.9062 10.7293C36.9062 9.89754 37.0312 9.14898 37.2811 8.4628C37.5311 7.77662 37.8851 7.1944 38.3434 6.71616C38.8016 6.23791 39.3431 5.86363 39.9679 5.59332C40.5927 5.323 41.3009 5.19824 42.0507 5.19824C42.8213 5.19824 43.5294 5.323 44.1543 5.59332C44.7791 5.86363 45.3206 6.21712 45.7788 6.71616C46.237 7.1944 46.5911 7.77662 46.841 8.4628C47.0909 9.14898 47.2159 9.89754 47.2159 10.7293ZM46.4036 10.7293C46.4036 9.98071 46.2995 9.29453 46.0912 8.69153C45.8829 8.08852 45.5914 7.58948 45.2165 7.17361C44.8416 6.75774 44.3834 6.44584 43.8418 6.21712C43.3003 5.98839 42.7171 5.88442 42.0715 5.88442C41.4258 5.88442 40.8427 5.98839 40.3011 6.21712C39.7596 6.44584 39.3014 6.75774 38.9265 7.17361C38.5516 7.58948 38.2392 8.08852 38.0309 8.69153C37.8227 9.29453 37.7185 9.95992 37.7185 10.7293C37.7185 11.4778 37.8227 12.164 38.0309 12.767C38.2392 13.37 38.5308 13.8691 38.9265 14.2849C39.3014 14.7008 39.7596 15.0127 40.3011 15.2414C40.8427 15.4702 41.4258 15.5741 42.0715 15.5741C42.7171 15.5741 43.3211 15.4702 43.8418 15.2414C44.3834 15.0335 44.8416 14.7008 45.2165 14.2849C45.5914 13.8691 45.8829 13.37 46.0912 12.767C46.2995 12.164 46.4036 11.4986 46.4036 10.7293Z" fill="white"/>
<path d="M42.0702 16.364C41.2995 16.364 40.5706 16.2185 39.9457 15.969C39.3001 15.6986 38.7377 15.3244 38.2795 14.8253C37.8213 14.3263 37.4464 13.7441 37.1965 13.0371C36.9466 12.3509 36.8008 11.5608 36.8008 10.729C36.8008 9.8973 36.9257 9.10715 37.1965 8.42097C37.4464 7.73479 37.8213 7.13178 38.2795 6.63274C38.7377 6.1337 39.3001 5.75942 39.9457 5.48911C40.5914 5.2188 41.2995 5.07324 42.0702 5.07324C42.8616 5.07324 43.5697 5.2188 44.2154 5.46832C44.8611 5.73863 45.4234 6.11291 45.8816 6.61195C46.3398 7.11099 46.7147 7.714 46.9646 8.40018C47.2146 9.08636 47.3395 9.85571 47.3395 10.7082C47.3395 11.5608 47.2146 12.3301 46.9646 13.0163C46.7147 13.7025 46.3398 14.3055 45.8816 14.8045C45.4234 15.3036 44.8611 15.6779 44.2154 15.9482C43.5697 16.2393 42.8408 16.364 42.0702 16.364ZM42.0702 5.34356C41.3412 5.34356 40.6539 5.46832 40.0291 5.73863C39.4251 5.98815 38.8835 6.36243 38.4462 6.81988C38.0088 7.27734 37.6547 7.85955 37.4256 8.52494C37.1757 9.19033 37.0507 9.93889 37.0507 10.7498C37.0507 11.5608 37.1757 12.3093 37.4256 12.9747C37.6755 13.6401 38.0088 14.2015 38.4462 14.6798C38.8835 15.1372 39.4251 15.5115 40.0291 15.761C40.6331 16.0105 41.3204 16.1353 42.0702 16.1353C42.82 16.1353 43.5073 16.0105 44.1113 15.761C44.7153 15.5115 45.2568 15.1372 45.6942 14.6798C46.1315 14.2223 46.4856 13.6401 46.7147 12.9955C46.9646 12.3301 47.0896 11.5816 47.0896 10.7706C47.0896 9.95968 46.9646 9.21112 46.7147 8.54573C46.4648 7.88035 46.1315 7.31893 45.6942 6.84068C45.2568 6.38322 44.7153 6.00894 44.1113 5.75942C43.5073 5.46832 42.82 5.34356 42.0702 5.34356Z" fill="white"/>
<path d="M53.4012 15.5741C53.9219 15.5741 54.3801 15.4909 54.7967 15.3038C55.2132 15.1166 55.5464 14.8671 55.838 14.5552C56.1296 14.2433 56.3379 13.8482 56.4837 13.4324C56.6295 12.9957 56.7128 12.5383 56.7128 12.0184V5.34375H57.4834V12.0184C57.4834 12.6214 57.3793 13.1621 57.1918 13.6819C57.0044 14.2017 56.7336 14.6384 56.3796 15.0335C56.0255 15.4077 55.5881 15.7196 55.0882 15.9276C54.5884 16.1355 54.0052 16.2603 53.3804 16.2603C52.7555 16.2603 52.1724 16.1563 51.6725 15.9276C51.1727 15.6988 50.7353 15.4077 50.3812 15.0335C50.0271 14.6592 49.7564 14.2017 49.5689 13.6819C49.3815 13.1621 49.2773 12.6006 49.2773 12.0184V5.34375H50.0688V11.9976C50.0688 12.4967 50.1521 12.9749 50.2979 13.4116C50.4437 13.8482 50.6728 14.2225 50.9436 14.5344C51.2351 14.8463 51.5684 15.0958 51.9849 15.283C52.4015 15.4909 52.8805 15.5741 53.4012 15.5741Z" fill="white"/>
<path d="M53.4025 16.3848C52.7568 16.3848 52.1737 16.2808 51.653 16.0521C51.1323 15.8234 50.6741 15.5115 50.32 15.1164C49.9659 14.7213 49.6743 14.2431 49.4869 13.7232C49.2995 13.2034 49.1953 12.6212 49.1953 12.0182V5.21875H50.2367V12.0182C50.2367 12.4964 50.32 12.9539 50.445 13.3905C50.5908 13.8064 50.799 14.1807 51.0698 14.4718C51.3406 14.7837 51.6738 15.0124 52.0695 15.1996C52.4652 15.3659 52.9026 15.4699 53.4025 15.4699C53.9023 15.4699 54.3606 15.3867 54.7354 15.2204C55.1312 15.054 55.4644 14.8045 55.7352 14.4926C56.0059 14.1807 56.2142 13.8272 56.36 13.4113C56.5058 12.9955 56.5683 12.538 56.5683 12.039V5.21875H57.6097V12.0182C57.6097 12.6212 57.5055 13.2034 57.3181 13.7232C57.1306 14.2431 56.839 14.7213 56.485 15.1164C56.1309 15.5115 55.6727 15.8234 55.152 16.0521C54.6313 16.2808 54.0481 16.3848 53.4025 16.3848ZM49.4244 5.46827V12.0182C49.4244 12.6004 49.5077 13.141 49.6952 13.6401C49.8826 14.1391 50.1326 14.5758 50.4866 14.95C50.8199 15.3243 51.2364 15.6154 51.7363 15.8234C52.2153 16.0313 52.7777 16.1353 53.4025 16.1353C54.0065 16.1353 54.5688 16.0313 55.0687 15.8234C55.5477 15.6154 55.9851 15.3243 56.3183 14.95C56.6516 14.5758 56.9223 14.1391 57.1098 13.6401C57.2972 13.141 57.3806 12.6004 57.3806 12.0182V5.46827H56.8599V12.0182C56.8599 12.538 56.7766 13.0163 56.6308 13.4737C56.485 13.9312 56.2559 14.3262 55.9435 14.6589C55.6519 14.9916 55.277 15.2619 54.8604 15.4491C54.4439 15.6362 53.944 15.7402 53.4233 15.7402C52.8818 15.7402 52.4028 15.6362 51.9862 15.4491C51.5697 15.2619 51.1948 14.9916 50.9032 14.6589C50.6116 14.3262 50.3825 13.9312 50.2367 13.4737C50.0909 13.0371 50.0076 12.538 50.0076 12.0182V5.46827H49.4244Z" fill="white"/>
<path d="M61.9604 10.6668C62.1687 10.6668 62.1478 10.6668 62.1478 10.6668H62.606C63.0851 10.6668 63.5225 10.6045 63.8974 10.5005C64.2722 10.3757 64.6055 10.2302 64.8554 10.0015C65.1262 9.79353 65.3136 9.52321 65.4594 9.23211C65.6052 8.941 65.6677 8.58751 65.6677 8.21323C65.6677 7.44388 65.4178 6.88246 64.9179 6.50818C64.418 6.1339 63.6891 5.94676 62.7102 5.94676H60.7316V10.6668V11.2491V16.1355H59.9609V5.34375H62.7102C63.9598 5.34375 64.8971 5.59327 65.5011 6.07152C66.1259 6.54976 66.4175 7.25674 66.4175 8.19244C66.4175 8.60831 66.355 8.98259 66.2092 9.31528C66.0634 9.64797 65.8551 9.95988 65.5844 10.2094C65.3136 10.4589 65.0012 10.6876 64.6263 10.8332C64.2514 10.9995 63.814 11.1035 63.3558 11.1659C63.4808 11.2491 63.5849 11.353 63.6891 11.4778L67.4172 16.1355H66.7299C66.6466 16.1355 66.5841 16.1147 66.5216 16.0939C66.4591 16.0731 66.3967 16.0107 66.355 15.9484L62.8976 11.5818C62.8143 11.4778 62.7102 11.3946 62.6269 11.353C62.5227 11.3114 61.9187 11.2906 61.7105 11.2906C61.7105 10.7292 61.7938 10.6668 61.9604 10.6668Z" fill="white"/>
<path d="M67.6879 16.26H66.7507C66.6466 16.26 66.5633 16.2392 66.4799 16.1976C66.3966 16.1561 66.3342 16.0937 66.2717 16.0105L62.8143 11.6439C62.731 11.5399 62.6685 11.4776 62.5852 11.436C62.5019 11.4152 62.002 11.3736 61.7312 11.3736H61.6063V10.833C61.6063 10.6458 61.6479 10.5419 61.9812 10.5419C62.1686 10.5419 62.1895 10.5419 62.1895 10.5419H62.6477C63.1059 10.5419 63.5224 10.4795 63.8973 10.3755C64.2514 10.2715 64.5638 10.1052 64.8137 9.89726C65.0637 9.68932 65.2511 9.46059 65.3761 9.16949C65.501 8.87838 65.5635 8.56648 65.5635 8.21299C65.5635 7.48523 65.3344 6.96539 64.8554 6.6119C64.3764 6.25842 63.6682 6.07128 62.731 6.07128H60.8773V16.2392H59.8359V5.21875H62.731C64.0015 5.21875 64.9595 5.46827 65.6052 5.96731C66.2508 6.46635 66.5841 7.21491 66.5841 8.1922C66.5841 8.62886 66.5008 9.02393 66.355 9.37742C66.2092 9.73091 65.9801 10.0428 65.7093 10.3131C65.4386 10.5834 65.0845 10.7914 64.7096 10.9785C64.3972 11.1033 64.0639 11.2072 63.689 11.2696C63.7307 11.3112 63.7724 11.3528 63.814 11.4152L67.6879 16.26ZM61.8354 11.1241C62.0645 11.1241 62.5435 11.1449 62.6685 11.2072C62.7935 11.2696 62.8976 11.3528 63.0017 11.4776L66.4591 15.8442C66.5008 15.9065 66.5424 15.9481 66.5841 15.9689C66.6257 15.9897 66.6674 16.0105 66.7299 16.0105H67.1464L63.5849 11.5607C63.5016 11.436 63.3975 11.3528 63.2933 11.2904L62.9809 11.1033L63.3558 11.0617C63.814 11.0201 64.2306 10.9161 64.5846 10.7498C64.9387 10.5834 65.2511 10.3963 65.5219 10.1468C65.7718 9.89726 65.9801 9.62694 66.105 9.29425C66.23 8.96155 66.3133 8.60807 66.3133 8.21299C66.3133 7.31888 66.0217 6.65349 65.4386 6.19604C64.8554 5.73858 63.939 5.50986 62.731 5.50986H60.1067V16.0105H60.6274V5.82176H62.731C63.7099 5.82176 64.4805 6.0089 65.0012 6.40397C65.5427 6.79905 65.8135 7.40205 65.8135 8.21299C65.8135 8.60807 65.7301 8.96155 65.6052 9.27345C65.4594 9.58535 65.2511 9.85567 64.9595 10.0844C64.6888 10.3131 64.3555 10.4795 63.9598 10.6042C63.5641 10.729 63.1267 10.7914 62.6268 10.7914H62.1686C62.1478 10.7914 62.127 10.7914 61.9812 10.7914C61.9187 10.7914 61.8562 10.7914 61.8354 11.1241Z" fill="white"/>
<path d="M76.5641 14.3057C76.6057 14.3057 76.6682 14.3265 76.689 14.3681L77.0014 14.7008C76.7723 14.9295 76.5432 15.1583 76.2725 15.3454C76.0017 15.5325 75.7101 15.6989 75.3977 15.8236C75.0853 15.9484 74.7312 16.0524 74.3772 16.1355C74.0023 16.2187 73.5857 16.2395 73.1483 16.2395C72.3985 16.2395 71.7112 16.1148 71.0864 15.8444C70.4616 15.5741 69.9201 15.2206 69.4827 14.7216C69.0453 14.2434 68.6912 13.6611 68.4413 12.975C68.1914 12.2888 68.0664 11.5402 68.0664 10.7085C68.0664 9.89754 68.1914 9.14898 68.4621 8.4628C68.7121 7.77662 69.087 7.2152 69.5452 6.71616C70.0034 6.23791 70.5657 5.86363 71.2114 5.59332C71.857 5.323 72.586 5.19824 73.3566 5.19824C73.7523 5.19824 74.1064 5.21904 74.4396 5.28142C74.7729 5.3438 75.0645 5.42697 75.3561 5.53094C75.6476 5.6349 75.8976 5.78046 76.1475 5.9468C76.3974 6.11315 76.6474 6.30029 76.8765 6.50822L76.6474 6.84092C76.6057 6.9033 76.5432 6.92409 76.4599 6.92409C76.4183 6.92409 76.3558 6.9033 76.2933 6.84092C76.2308 6.77854 76.1267 6.71616 76.0225 6.63298C75.9184 6.54981 75.7726 6.46664 75.6268 6.38346C75.481 6.2795 75.2936 6.19632 75.0645 6.13394C74.8562 6.05077 74.6063 5.98839 74.3147 5.92601C74.0439 5.86363 73.7107 5.84284 73.3566 5.84284C72.6901 5.84284 72.0861 5.9468 71.5446 6.17553C71.0031 6.40426 70.5241 6.71616 70.1283 7.15282C69.7326 7.56869 69.4202 8.08852 69.1911 8.67073C68.962 9.25295 68.8579 9.93913 68.8579 10.6877C68.8579 11.457 68.962 12.1224 69.1911 12.7254C69.4202 13.3284 69.7118 13.8275 70.1075 14.2434C70.5032 14.6592 70.9614 14.9711 71.4821 15.1998C72.0028 15.4286 72.586 15.5325 73.19 15.5325C73.5857 15.5325 73.919 15.5117 74.2314 15.4494C74.5438 15.4078 74.8145 15.3246 75.0645 15.2206C75.3144 15.1167 75.5643 14.9919 75.7726 14.8464C76.0017 14.7008 76.21 14.5345 76.4183 14.3265C76.4391 14.3057 76.4599 14.2849 76.4808 14.2849C76.5016 14.3265 76.5432 14.3057 76.5641 14.3057Z" fill="white"/>
<path d="M73.1275 16.3855C72.3569 16.3855 71.6487 16.24 71.0239 15.9904C70.3782 15.7201 69.8367 15.3459 69.3785 14.8468C68.9203 14.3478 68.5662 13.7656 68.3163 13.0586C68.0664 12.3724 67.9414 11.5823 67.9414 10.7505C67.9414 9.91879 68.0664 9.14943 68.3371 8.46325C68.6079 7.77707 68.9828 7.17406 69.441 6.67502C69.92 6.17598 70.5032 5.78091 71.1489 5.51059C71.8153 5.24028 72.5443 5.09473 73.3566 5.09473C73.7523 5.09473 74.1272 5.11552 74.4604 5.1779C74.7937 5.24028 75.1061 5.32345 75.3977 5.42742C75.6893 5.53139 75.96 5.67694 76.21 5.84329C76.4599 6.00963 76.7098 6.19677 76.9597 6.4255L77.0431 6.50867L76.7515 6.94534C76.7098 7.00772 76.6265 7.09089 76.4599 7.09089C76.3766 7.09089 76.3141 7.0493 76.21 6.98692C76.1475 6.92454 76.0433 6.86216 75.9392 6.79978C75.8351 6.71661 75.7101 6.63344 75.5435 6.55026C75.3977 6.46709 75.2102 6.38391 75.002 6.30074C74.7937 6.21757 74.5438 6.15519 74.273 6.1136C74.0022 6.07201 73.6898 6.03043 73.3358 6.03043C72.6901 6.03043 72.1069 6.13439 71.5654 6.36312C71.0447 6.59185 70.5657 6.90375 70.1908 7.29882C69.8159 7.6939 69.5035 8.19294 69.2952 8.77515C69.0869 9.35737 68.962 10.0228 68.962 10.7297C68.962 11.4783 69.0661 12.1437 69.2744 12.7259C69.4826 13.3081 69.7742 13.8071 70.1491 14.2022C70.524 14.5973 70.9614 14.9092 71.4821 15.1171C71.982 15.3251 72.5443 15.429 73.1483 15.429C73.5232 15.429 73.8773 15.4082 74.1689 15.3459C74.4604 15.3043 74.7312 15.2211 74.9811 15.1171C75.2311 15.0132 75.4602 14.8884 75.6684 14.7636C75.8767 14.6181 76.085 14.4517 76.2933 14.2646C76.3349 14.223 76.3557 14.223 76.3974 14.2022C76.5015 14.1398 76.6682 14.1606 76.7515 14.2646L77.1472 14.6805L77.0639 14.7636C76.8348 15.0132 76.5849 15.2211 76.3141 15.429C76.0433 15.6162 75.7518 15.8033 75.4185 15.9281C75.1061 16.0736 74.752 16.1776 74.3563 16.24C74.0022 16.3439 73.5857 16.3855 73.1275 16.3855ZM73.3566 5.34425C72.586 5.34425 71.8778 5.46901 71.253 5.73932C70.6282 5.98884 70.0658 6.36312 69.6284 6.84137C69.1702 7.31962 68.8162 7.88104 68.5662 8.54642C68.3163 9.21181 68.1913 9.93958 68.1913 10.7505C68.1913 11.5615 68.3163 12.31 68.5662 12.9754C68.8162 13.6408 69.1494 14.2022 69.5868 14.6805C70.0242 15.1379 70.5449 15.5122 71.1489 15.7617C71.7529 16.0112 72.4193 16.136 73.1483 16.136C73.5857 16.136 73.9814 16.0944 74.3563 16.032C74.7104 15.9697 75.0644 15.8657 75.356 15.7201C75.6684 15.5954 75.9392 15.429 76.1891 15.2419C76.4182 15.0755 76.6265 14.8884 76.814 14.7013L76.5849 14.4517C76.564 14.4309 76.5432 14.4309 76.5224 14.4517C76.5015 14.4517 76.4807 14.4725 76.4599 14.4933C76.2516 14.6805 76.0225 14.8676 75.7934 15.0132C75.5643 15.1587 75.3144 15.3043 75.0644 15.4082C74.7937 15.5122 74.5021 15.5954 74.2105 15.637C73.8981 15.6785 73.544 15.7201 73.1483 15.7201C72.5235 15.7201 71.9195 15.5954 71.378 15.3874C70.8364 15.1587 70.3574 14.826 69.9617 14.4102C69.566 13.9943 69.2535 13.4537 69.0244 12.8506C68.7953 12.2476 68.6912 11.5407 68.6912 10.7713C68.6912 10.0228 68.7953 9.33657 69.0244 8.71277C69.2535 8.10976 69.566 7.56914 69.9825 7.15327C70.3991 6.71661 70.8781 6.38391 71.4404 6.15519C72.0028 5.92646 72.6276 5.8017 73.2941 5.8017C73.6482 5.8017 73.9814 5.82249 74.273 5.88487C74.5646 5.94725 74.8145 6.00963 75.0436 6.09281C75.2727 6.17598 75.4602 6.25915 75.6268 6.36312C75.7934 6.46709 75.9184 6.55026 76.0225 6.63344C76.1266 6.71661 76.2308 6.77899 76.2933 6.84137C76.3557 6.90375 76.3974 6.90375 76.3974 6.90375C76.4599 6.90375 76.4807 6.88296 76.4807 6.86216L76.6473 6.61264C76.4391 6.4255 76.2308 6.27995 76.0225 6.13439C75.7726 5.96805 75.5226 5.84329 75.2519 5.73932C74.9811 5.63535 74.6687 5.55218 74.3563 5.4898C74.0855 5.38583 73.7315 5.34425 73.3566 5.34425Z" fill="white"/>
<path d="M85.4539 5.34375V5.98834H79.768V10.3549H84.4959V10.9787H79.768V15.4701H85.4539V16.1147H78.9766V5.34375H85.4539Z" fill="white"/>
<path d="M85.5789 16.26H78.8516V5.21875H85.5789V6.11286H79.8929V10.2092H84.6208V11.1033H79.8929V15.3451H85.5789V16.26ZM79.1015 16.0105H85.3289V15.6154H79.643V10.8538H84.3709V10.4795H79.643V5.86334H85.3289V5.46827H79.1015V16.0105Z" fill="white"/>
<path d="M95.14 5.21875V6.86143H90.2455V10.126H94.3694V11.7687H90.2455V16.26H88.1836V5.23954H95.14V5.21875Z" fill="white"/>
<path d="M107.115 10.7297C107.115 11.5407 106.99 12.2892 106.72 12.9754C106.449 13.6616 106.074 14.2646 105.574 14.7636C105.095 15.2627 104.491 15.6578 103.804 15.9489C103.117 16.24 102.346 16.3647 101.513 16.3647C100.68 16.3647 99.9091 16.2192 99.2217 15.9489C98.5344 15.6578 97.9513 15.2835 97.4514 14.7636C96.9515 14.2646 96.5766 13.6616 96.3059 12.9754C96.0351 12.2892 95.9102 11.5407 95.9102 10.7297C95.9102 9.91878 96.0351 9.17022 96.3059 8.48404C96.5766 7.79786 96.9515 7.19486 97.4514 6.69581C97.9513 6.19677 98.5344 5.8017 99.2217 5.51059C99.9091 5.21949 100.68 5.09473 101.513 5.09473C102.346 5.09473 103.117 5.24028 103.804 5.53139C104.491 5.82249 105.074 6.21757 105.574 6.71661C106.053 7.21565 106.449 7.81866 106.72 8.50484C106.97 9.17022 107.115 9.91878 107.115 10.7297ZM105.012 10.7297C105.012 10.1267 104.929 9.58609 104.762 9.10784C104.595 8.6296 104.366 8.21373 104.075 7.88104C103.783 7.54834 103.408 7.29882 102.971 7.11168C102.533 6.92454 102.054 6.84137 101.513 6.84137C100.971 6.84137 100.492 6.92454 100.055 7.11168C99.6175 7.29882 99.2634 7.54834 98.951 7.88104C98.6386 8.21373 98.4095 8.6296 98.2428 9.10784C98.0762 9.58609 97.9929 10.1267 97.9929 10.7297C97.9929 11.3327 98.0762 11.8734 98.2428 12.3516C98.4095 12.8299 98.6386 13.2457 98.951 13.5784C99.2634 13.9111 99.6175 14.1606 100.055 14.3478C100.492 14.5349 100.971 14.6181 101.513 14.6181C102.054 14.6181 102.533 14.5349 102.971 14.3478C103.408 14.1606 103.762 13.9111 104.075 13.5784C104.366 13.2457 104.595 12.8299 104.762 12.3516C104.929 11.8734 105.012 11.3327 105.012 10.7297Z" fill="white"/>
<path d="M111.405 10.4802H111.884C112.28 10.4802 112.613 10.4386 112.905 10.3346C113.197 10.2306 113.426 10.1059 113.613 9.93953C113.801 9.77319 113.946 9.56525 114.03 9.33653C114.113 9.1078 114.176 8.83748 114.176 8.56717C114.176 8.00575 113.988 7.56909 113.613 7.27798C113.238 6.98688 112.676 6.82053 111.926 6.82053H110.593V10.4802V11.9565V16.2607H108.531V5.24023H111.905C112.655 5.24023 113.301 5.32341 113.842 5.46896C114.384 5.61451 114.821 5.84324 115.154 6.11356C115.488 6.38387 115.758 6.73736 115.904 7.11164C116.071 7.50671 116.154 7.92258 116.154 8.40082C116.154 8.7751 116.092 9.12859 115.988 9.46129C115.883 9.79398 115.717 10.0851 115.508 10.3554C115.3 10.6257 115.05 10.8544 114.738 11.0624C114.425 11.2703 114.092 11.4367 113.697 11.5406C113.946 11.6862 114.176 11.8941 114.363 12.1644L117.133 16.2399H115.279C115.092 16.2399 114.946 16.1983 114.821 16.136C114.696 16.0736 114.592 15.9696 114.509 15.8241L112.197 12.2892C112.134 12.206 112.009 12.0189 111.884 11.9981C111.635 11.9981 111.385 11.9981 111.156 11.9981C111.156 11.9981 111.156 10.7505 111.156 10.6673C111.176 10.4802 111.405 10.4802 111.405 10.4802Z" fill="white"/>
<path d="M123.174 14.7424C123.632 14.7424 124.049 14.7009 124.382 14.6177C124.715 14.5345 125.049 14.4097 125.361 14.2642V11.769H123.986C123.862 11.769 123.757 11.7274 123.674 11.665C123.591 11.5818 123.549 11.4987 123.549 11.3947V10.2303H127.215V15.1791C126.944 15.387 126.652 15.5534 126.34 15.6989C126.028 15.8445 125.715 15.9692 125.361 16.0732C125.007 16.1772 124.653 16.2396 124.257 16.2811C123.862 16.3227 123.445 16.3435 122.987 16.3435C122.174 16.3435 121.446 16.198 120.758 15.9277C120.071 15.6573 119.488 15.2623 119.009 14.7632C118.509 14.2642 118.134 13.6612 117.842 12.975C117.572 12.2888 117.426 11.5195 117.426 10.7085C117.426 9.87679 117.551 9.12823 117.822 8.42126C118.092 7.73508 118.467 7.13207 118.967 6.63303C119.467 6.13399 120.071 5.73892 120.779 5.4686C121.487 5.19829 122.279 5.05273 123.153 5.05273C124.049 5.05273 124.84 5.17749 125.486 5.44781C126.153 5.71812 126.694 6.07161 127.152 6.48748L126.548 7.42318C126.423 7.61032 126.278 7.71428 126.09 7.71428C125.965 7.71428 125.84 7.6727 125.715 7.58952C125.549 7.48556 125.382 7.40238 125.215 7.29842C125.049 7.19445 124.861 7.11128 124.653 7.0489C124.445 6.98652 124.216 6.92414 123.966 6.88255C123.716 6.84096 123.403 6.82017 123.07 6.82017C122.529 6.82017 122.029 6.90334 121.591 7.09048C121.154 7.27762 120.779 7.52714 120.467 7.88063C120.154 8.21333 119.925 8.62919 119.758 9.10744C119.592 9.58569 119.509 10.1263 119.509 10.7085C119.509 11.3531 119.592 11.9145 119.779 12.4136C119.967 12.9126 120.217 13.3285 120.529 13.6612C120.842 13.9939 121.237 14.2642 121.675 14.4513C122.112 14.6385 122.654 14.7424 123.174 14.7424Z" fill="white"/>
<path d="M134.483 11.8102H131.13V14.5966H136.003V16.2392H129.047V5.21875H136.003V6.86143H131.109V10.2507H134.962V11.4568C134.962 11.4568 134.941 11.8102 134.483 11.8102Z" fill="white"/>
</g>
<defs>
<clipPath id="clip0_4881_13203">
<rect width="136.004" height="21.334" fill="white"/>
</clipPath>
</defs>
</svg>
