<svg width="133" height="21" viewBox="0 0 133 21" fill="none" xmlns="http://www.w3.org/2000/svg">
<path d="M8.52476 7.6078C8.52476 7.6078 7.42825 7.49557 7.42825 8.50079V12.9658H14.6694V14.3057C14.6694 14.3057 14.691 14.9752 14.0111 14.9752H7.42825V20.7802H15.3276C15.3276 20.7802 20.1105 20.0207 20.1547 14.9752V7.6078H8.52476ZM19.9347 0.462891H5.67251C0.515337 1.71289 0.40625 6.06659 0.40625 6.06659V20.7802H5.89257V7.38431C5.89257 6.24557 6.98908 6.0453 6.98908 6.0453H19.9356V0.462891H19.9347ZM38.7634 16.5697C38.3873 16.828 38.1089 17.0176 37.9124 17.1385C37.209 17.5865 36.5385 17.9319 35.9168 18.2076C35.0169 18.5869 34.2147 18.7765 33.4953 18.7765C31.0249 18.7765 28.9795 18.0006 27.3263 16.4313C25.673 14.862 24.8568 12.8971 24.8568 10.518C24.8568 8.22506 25.5931 6.2417 27.0817 4.5515C28.5704 2.86226 30.3703 2.03409 32.4975 2.03409C33.3815 2.03409 34.3294 2.18889 35.3112 2.51784C36.5874 2.93096 37.618 3.55208 38.4362 4.36187L37.0124 5.98242C36.4077 5.37967 35.6225 4.93076 34.7056 4.65502C34.0191 4.44798 33.2668 4.34542 32.4317 4.34542C30.943 4.34542 29.6829 4.96462 28.6851 6.18946C27.6874 7.43075 27.1805 8.89649 27.1805 10.6206C27.1805 12.3282 27.7523 13.7243 28.8977 14.8456C30.0431 15.9659 31.4988 16.5348 33.2658 16.5348C34.0022 16.5348 34.7554 16.2929 35.5238 15.8286C36.1623 15.3284 36.4896 15.0865 36.5055 15.0691V11.5348H31.7283L32.4148 9.32799H38.7634V16.5697ZM53.1939 12.2585C53.1939 13.9652 52.6053 15.4483 51.4269 16.6896C50.2486 17.9309 48.7929 18.5695 47.0588 18.5695C45.4554 18.5695 44.0485 17.9483 42.8373 16.7245C41.626 15.5006 41.0373 14.0174 41.0373 12.2759C41.0373 10.5519 41.611 9.06871 42.7555 7.79259C43.8999 6.51647 45.3077 5.89631 46.96 5.89631C48.7929 5.89631 50.2815 6.50002 51.4429 7.7239C52.6053 8.91391 53.1939 10.4309 53.1939 12.2585ZM50.952 12.2933C50.952 11.1382 50.5759 10.1552 49.8235 9.36186C49.0712 8.5511 48.1383 8.15443 47.0258 8.15443C45.9792 8.15443 45.0952 8.56852 44.3588 9.39669C43.6225 10.2239 43.2623 11.172 43.2623 12.2411C43.2623 13.3624 43.6385 14.3106 44.3748 15.1039C45.1112 15.8972 46.0281 16.3104 47.1396 16.3104C48.1712 16.3104 49.0543 15.9137 49.8076 15.1204C50.5759 14.327 50.953 13.3789 50.953 12.2933H50.952ZM67.4279 12.2585C67.4279 13.9652 66.8392 15.4483 65.6609 16.6896C64.4826 17.9309 63.0268 18.5695 61.2927 18.5695C59.6893 18.5695 58.2825 17.9483 57.0712 16.7245C55.8609 15.5006 55.2713 14.0174 55.2713 12.2759C55.2713 10.5519 55.8449 9.06871 56.9894 7.79259C58.1348 6.51647 59.5417 5.89631 61.194 5.89631C63.0268 5.89631 64.5155 6.50002 65.6769 7.7239C66.8392 8.91391 67.4279 10.4309 67.4279 12.2585ZM65.186 12.2933C65.186 11.1382 64.8098 10.1552 64.0575 9.36186C63.3052 8.5511 62.3723 8.15443 61.2598 8.15443C60.2131 8.15443 59.3291 8.56852 58.5928 9.39669C57.8565 10.2239 57.4963 11.172 57.4963 12.2411C57.4963 13.3624 57.8725 14.3106 58.6097 15.1039C59.3451 15.8972 60.262 16.3104 61.3745 16.3104C62.4052 16.3104 63.2882 15.9137 64.0415 15.1204C64.8098 14.327 65.1869 13.3789 65.1869 12.2933H65.186ZM80.5992 18.2241L78.5378 18.552V16.5L78.0958 17.0166C77.7065 17.3919 77.2654 17.7058 76.7868 17.9483C76.0844 18.2817 75.3194 18.4524 74.5458 18.4485C72.9424 18.4485 71.5676 17.8448 70.4551 16.62C69.3426 15.3951 68.7868 13.9478 68.7868 12.2585C68.7868 10.517 69.3426 9.01743 70.4391 7.77517C71.5356 6.53292 72.8766 5.91276 74.48 5.91276C75.3969 5.91276 76.1981 6.06756 76.8686 6.37812C77.3435 6.60258 77.7526 6.89573 78.0958 7.25854C78.2106 7.41333 78.3253 7.58555 78.44 7.74034V2.3611L80.6312 2.03313L80.5992 18.2241ZM78.6685 12.4133C78.6685 11.2069 78.2755 10.1891 77.4742 9.36186C76.673 8.51627 75.7721 8.10315 74.7424 8.10315C73.5969 8.10315 72.681 8.49982 71.9776 9.29316C71.3221 10.0507 70.9789 10.9824 70.9789 12.0689C70.9789 13.2928 71.3221 14.3096 72.0095 15.1029C72.696 15.8963 73.564 16.2929 74.6276 16.2929C75.6743 16.2929 76.5912 15.9311 77.4093 15.19C78.2435 14.4305 78.6695 13.4998 78.6695 12.4133H78.6685ZM92.1662 4.60374H86.031V8.89649H90.7913V11.1033H86.031V18.2076L83.6423 18.5695V2.37852H91.6913L92.1662 4.60374ZM97.0911 3.34407L95.6184 5.25777L94.2115 3.34407L95.7002 1.44779L97.0911 3.34407ZM96.6491 18.2241L94.457 18.5346V6.5513L96.6491 6.20687V18.225V18.2241ZM106.548 6.08594L105.517 8.53369C105.382 8.51245 105.245 8.50113 105.108 8.49982C104.895 8.49982 104.683 8.51724 104.469 8.5511C104.256 8.58496 104.027 8.67204 103.783 8.79297C103.325 9.00002 102.932 9.44796 102.589 10.1204C102.209 10.8835 102.012 11.7291 102.015 12.5865V18.2076L99.8239 18.5695V6.5513L101.852 6.17204V8.67204C102.114 8.24054 102.392 7.81 102.654 7.36206C103.03 6.91314 103.472 6.58613 103.963 6.39553C104.224 6.29298 104.699 6.20591 105.418 6.13721C106.106 6.08594 106.499 6.05111 106.548 6.08594ZM122.875 18.2241L120.683 18.552V10.3274C120.683 9.56793 120.519 9.01646 120.192 8.67204C119.865 8.32664 119.374 8.15443 118.735 8.15443C117.967 8.15443 117.377 8.48241 116.985 9.1374C116.723 9.58535 116.576 10.0681 116.576 10.5509V18.2066L114.384 18.6207V10.3787C114.384 9.65501 114.221 9.10257 113.909 8.72428C113.582 8.34406 113.157 8.15443 112.6 8.15443H112.388C111.618 8.15443 111.062 8.48241 110.718 9.15481C110.457 9.65501 110.326 10.2926 110.326 11.0685V18.2066L108.052 18.6207V6.5513L110.097 6.18946V7.7239C110.326 7.36109 110.555 7.06794 110.768 6.86186C111.357 6.29298 112.044 6.01628 112.813 6.01628C113.68 6.01628 114.317 6.15463 114.759 6.44778C115.136 6.68965 115.496 7.17146 115.856 7.86128C116.608 6.63741 117.672 6.01628 119.08 6.01628C120.421 6.01628 121.419 6.44778 122.073 7.32723C122.614 8.05091 122.875 9.11998 122.875 10.517V18.2241ZM132.89 14.5863C132.89 15.6892 132.514 16.6035 131.762 17.3107C131.01 18.0344 130.06 18.3798 128.914 18.3798C128.047 18.3798 127.278 18.1728 126.575 17.7587C125.871 17.3456 125.348 16.8792 125.004 16.3278L126.543 14.9143C126.656 15.0865 126.755 15.2239 126.853 15.3274C127.427 15.9311 128.113 16.2417 128.914 16.2417C129.471 16.2417 129.913 16.0869 130.223 15.7937C130.551 15.5006 130.698 15.0865 130.698 14.5515C130.698 13.9487 130.322 13.5346 129.57 13.3102C128.08 12.8448 127.278 12.5865 127.164 12.5343C126.477 12.1724 125.986 11.7932 125.675 11.3617C125.331 10.8615 125.152 10.2065 125.152 9.36186C125.152 8.32664 125.528 7.46558 126.264 6.77576C127.001 6.08594 127.884 5.75796 128.897 5.75796C129.668 5.75796 130.387 5.93017 131.042 6.29298C131.696 6.65482 132.17 7.03408 132.448 7.48299L131.139 8.94777C130.943 8.7453 130.729 8.56078 130.502 8.3963C129.978 8.01705 129.471 7.82742 128.997 7.82742C128.538 7.82742 128.162 7.93094 127.868 8.13702C127.523 8.3963 127.344 8.77556 127.344 9.27575C127.344 9.75853 127.507 10.1204 127.852 10.3448C128.146 10.5345 128.768 10.7415 129.749 10.965C130.73 11.2069 131.484 11.6209 132.023 12.2072C132.629 12.8274 132.89 13.6033 132.89 14.5863Z" fill="white"/>
</svg>
