<svg width="44" height="44" viewBox="0 0 44 44" fill="none" xmlns="http://www.w3.org/2000/svg">
<g clip-path="url(#clip0_2629_49949)">
<path d="M0 18.4945C0 14.7677 3.56653 11.7466 7.96606 11.7466H36.034C40.4335 11.7466 44 14.7677 44 18.4945V28.2419C44 31.9687 40.4335 34.9898 36.034 34.9898H7.96606C3.56652 34.9898 0 31.9687 0 28.2419V18.4945Z" fill="#FFF0C9"/>
<path d="M20.6667 8H7.33334C6.44928 8 5.60143 8.36875 4.97631 9.02513C4.35119 9.6815 4 10.5717 4 11.5V34.25C4 34.7141 4.17559 35.1593 4.48816 35.4874C4.80072 35.8156 5.22464 36 5.66667 36H22.3334C22.7754 36 23.1993 35.8156 23.5119 35.4874C23.8244 35.1593 24 34.7141 24 34.25V11.5C24 10.5717 23.6488 9.6815 23.0237 9.02513C22.3986 8.36875 21.5508 8 20.6667 8ZM12.3333 34.25H9.00001V29C9.00001 28.5359 9.1756 28.0908 9.48816 27.7626C9.80073 27.4344 10.2246 27.25 10.6667 27.25C11.1087 27.25 11.5326 27.4344 11.8452 27.7626C12.1578 28.0908 12.3333 28.5359 12.3333 29V34.25ZM10.6667 23.75C10.337 23.75 10.0148 23.6474 9.74073 23.4551C9.46664 23.2628 9.25302 22.9895 9.12688 22.6697C9.00073 22.3499 8.96772 21.9981 9.03203 21.6586C9.09634 21.3191 9.25508 21.0073 9.48816 20.7626C9.72125 20.5178 10.0182 20.3511 10.3415 20.2836C10.6648 20.2161 10.9999 20.2508 11.3045 20.3832C11.609 20.5157 11.8693 20.74 12.0525 21.0278C12.2356 21.3155 12.3333 21.6539 12.3333 22C12.3333 22.4641 12.1578 22.9092 11.8452 23.2374C11.5326 23.5656 11.1087 23.75 10.6667 23.75ZM10.6667 16.75C10.337 16.75 10.0148 16.6474 9.74073 16.4551C9.46664 16.2628 9.25302 15.9895 9.12688 15.6697C9.00073 15.3499 8.96772 14.9981 9.03203 14.6586C9.09634 14.3191 9.25508 14.0073 9.48816 13.7626C9.72125 13.5178 10.0182 13.3511 10.3415 13.2836C10.6648 13.2161 10.9999 13.2508 11.3045 13.3832C11.609 13.5157 11.8693 13.74 12.0525 14.0278C12.2356 14.3155 12.3333 14.6539 12.3333 15C12.3333 15.4641 12.1578 15.9092 11.8452 16.2374C11.5326 16.5656 11.1087 16.75 10.6667 16.75ZM17.3334 30.75C17.0037 30.75 16.6815 30.6474 16.4074 30.4551C16.1333 30.2628 15.9197 29.9895 15.7936 29.6697C15.6674 29.3499 15.6344 28.9981 15.6987 28.6586C15.763 28.3191 15.9218 28.0073 16.1548 27.7626C16.3879 27.5178 16.6849 27.3512 17.0082 27.2836C17.3315 27.2161 17.6666 27.2508 17.9712 27.3832C18.2757 27.5157 18.536 27.74 18.7191 28.0278C18.9023 28.3155 19 28.6539 19 29C19 29.4641 18.8244 29.9093 18.5119 30.2374C18.1993 30.5656 17.7754 30.75 17.3334 30.75ZM17.3334 23.75C17.0037 23.75 16.6815 23.6474 16.4074 23.4551C16.1333 23.2628 15.9197 22.9895 15.7936 22.6697C15.6674 22.3499 15.6344 21.9981 15.6987 21.6586C15.763 21.3191 15.9218 21.0073 16.1548 20.7626C16.3879 20.5178 16.6849 20.3511 17.0082 20.2836C17.3315 20.2161 17.6666 20.2508 17.9712 20.3832C18.2757 20.5157 18.536 20.74 18.7191 21.0278C18.9023 21.3155 19 21.6539 19 22C19 22.4641 18.8244 22.9092 18.5119 23.2374C18.1993 23.5656 17.7754 23.75 17.3334 23.75ZM17.3334 16.75C17.0037 16.75 16.6815 16.6474 16.4074 16.4551C16.1333 16.2628 15.9197 15.9895 15.7936 15.6697C15.6674 15.3499 15.6344 14.9981 15.6987 14.6586C15.763 14.3191 15.9218 14.0073 16.1548 13.7626C16.3879 13.5178 16.6849 13.3511 17.0082 13.2836C17.3315 13.2161 17.6666 13.2508 17.9712 13.3832C18.2757 13.5157 18.536 13.74 18.7191 14.0278C18.9023 14.3155 19 14.6539 19 15C19 15.4641 18.8244 15.9092 18.5119 16.2374C18.1993 16.5656 17.7754 16.75 17.3334 16.75ZM38.7559 22.6187L33.7559 27.8687C33.679 27.9522 33.5871 28.0189 33.4854 28.0647C33.3838 28.1106 33.2744 28.1347 33.1637 28.1358C33.0531 28.1368 32.9434 28.1146 32.841 28.0706C32.7385 28.0266 32.6455 27.9617 32.5673 27.8795C32.489 27.7973 32.4271 27.6997 32.3852 27.5921C32.3433 27.4846 32.3222 27.3694 32.3232 27.2532C32.3242 27.137 32.3472 27.0222 32.3908 26.9154C32.4345 26.8087 32.498 26.7121 32.5776 26.6314L36.1551 22.875H26.5C26.279 22.875 26.0671 22.7828 25.9108 22.6187C25.7545 22.4546 25.6667 22.2321 25.6667 22C25.6667 21.7679 25.7545 21.5454 25.9108 21.3813C26.0671 21.2172 26.279 21.125 26.5 21.125H36.1551L32.5775 17.3687C32.4257 17.2036 32.3417 16.9826 32.3436 16.7532C32.3455 16.5238 32.4332 16.3043 32.5877 16.1421C32.7422 15.9798 32.9512 15.8878 33.1697 15.8858C33.3882 15.8838 33.5987 15.972 33.7558 16.1314L38.7559 21.3814C38.8333 21.4626 38.8946 21.5591 38.9365 21.6652C38.9784 21.7714 39 21.8851 39 22C39 22.1149 38.9785 22.2287 38.9366 22.3348C38.8947 22.441 38.8333 22.5374 38.7559 22.6187Z" fill="#F4B718"/>
</g>
<defs>
<clipPath id="clip0_2629_49949">
<rect width="44" height="44" fill="white"/>
</clipPath>
</defs>
</svg>
