<svg width="37" height="35" viewBox="0 0 37 35" fill="none" xmlns="http://www.w3.org/2000/svg">
<g clip-path="url(#clip0_682_18986)">
<path d="M0.148926 14.9165C0.148926 12.0367 3.067 9.70215 6.66661 9.70215H29.6313C33.2309 9.70215 36.1489 12.0367 36.1489 14.9165V22.4485C36.1489 25.3283 33.2309 27.6628 29.6313 27.6628H6.66661C3.06699 27.6628 0.148926 25.3283 0.148926 22.4485V14.9165Z" fill="#FFECEC"/>
<path d="M10.6694 3.625H25.2707C25.6741 3.625 26.0613 3.78511 26.3468 4.07005C26.6326 4.35498 26.7935 4.74164 26.7944 5.14513V25.1012C26.7944 25.5054 26.6338 25.8929 26.3481 26.1787C26.0624 26.4644 25.6748 26.625 25.2707 26.625H10.6694C10.2659 26.624 9.8793 26.4631 9.59434 26.1774C9.30941 25.8918 9.1493 25.5047 9.1493 25.1012V5.14513C9.15026 4.74228 9.31069 4.35611 9.59562 4.07132C9.88039 3.78639 10.2666 3.62594 10.6694 3.625V3.625ZM10.0477 25.1011C10.0477 25.2664 10.1132 25.4249 10.2297 25.5422C10.3461 25.6593 10.5042 25.7255 10.6694 25.7265H25.2706C25.4335 25.7218 25.5878 25.6538 25.7012 25.5372C25.8147 25.4204 25.878 25.264 25.878 25.1011V5.14504C25.878 4.98268 25.8145 4.82658 25.7011 4.71043C25.5875 4.59427 25.4331 4.52705 25.2706 4.52336H10.6694C10.5045 4.52336 10.3465 4.58882 10.2298 4.70545C10.1132 4.82209 10.0477 4.98012 10.0477 5.14504L10.0477 25.1011Z" fill="#FF9696"/>
<path d="M11.5285 5.57277H24.4121C24.6601 5.57277 24.8613 5.7738 24.8613 6.02201V10.507C24.8613 10.6262 24.814 10.7404 24.7298 10.8246C24.6455 10.9089 24.5312 10.9562 24.4121 10.9562H11.5285C11.2817 10.9543 11.0828 10.7537 11.0828 10.507V6.02199C11.0828 5.77524 11.2817 5.57468 11.5285 5.57275L11.5285 5.57277ZM11.9777 10.0578H23.9627V6.46402H11.9777V10.0578Z" fill="#FF9696"/>
<path d="M24.0561 11.7432H22.7588C22.3718 11.7432 22.058 12.1301 22.058 12.4439V13.7412C22.058 14.1282 22.3719 14.442 22.7588 14.442H24.0561C24.443 14.442 24.7568 14.055 24.7568 13.7412V12.4439C24.7568 12.057 24.443 11.7432 24.0561 11.7432Z" fill="#FF9696"/>
<path d="M22.7624 21.8735H24.0562C24.2468 21.8735 24.4296 21.9493 24.5644 22.084C24.6992 22.219 24.7749 22.4017 24.7749 22.5923V23.8825C24.7749 24.0731 24.6992 24.2558 24.5644 24.3907C24.4296 24.5255 24.2468 24.6012 24.0562 24.6012H22.7624C22.5718 24.6012 22.3891 24.5255 22.2542 24.3907C22.1194 24.2558 22.0437 24.0731 22.0437 23.8825V22.578C22.0475 22.3898 22.1248 22.2106 22.2593 22.0791C22.3936 21.9473 22.5742 21.8735 22.7624 21.8735V21.8735Z" fill="#FF9696"/>
<path d="M19.1359 15.125H20.4297C20.6172 15.125 20.7972 15.1982 20.9315 15.3291C21.066 15.46 21.1436 15.6382 21.1484 15.8258V17.1195C21.1484 17.3101 21.0727 17.493 20.9378 17.6278C20.803 17.7626 20.6203 17.8383 20.4297 17.8383H19.136C18.9484 17.8336 18.7702 17.7558 18.6392 17.6215C18.5083 17.4873 18.435 17.3071 18.4352 17.1195V15.8258C18.4397 15.6413 18.5149 15.4658 18.6453 15.3353C18.7758 15.2049 18.9514 15.1295 19.1359 15.125L19.1359 15.125Z" fill="#FF9696"/>
<path d="M19.136 18.4995H20.4297C20.6203 18.4995 20.803 18.5753 20.9378 18.71C21.0727 18.8448 21.1484 19.0275 21.1484 19.2183V20.5085V20.5083C21.1484 20.6989 21.0727 20.8818 20.9378 21.0166C20.803 21.1513 20.6203 21.2271 20.4297 21.2271H19.136C18.9484 21.2224 18.7702 21.1446 18.6392 21.0103C18.5083 20.876 18.435 20.6959 18.4352 20.5083V19.2003C18.4397 19.0158 18.5149 18.8401 18.6453 18.7097C18.7758 18.5793 18.9514 18.504 19.1359 18.4995L19.136 18.4995Z" fill="#FF9696"/>
<path d="M20.4335 11.7432H19.1362C18.7493 11.7432 18.4355 12.1301 18.4355 12.4439V13.7412C18.4355 14.1282 18.7493 14.442 19.1362 14.442H20.4335C20.8205 14.442 21.1343 14.055 21.1343 13.7412V12.4439C21.1343 12.057 20.8205 11.7432 20.4335 11.7432Z" fill="#FF9696"/>
<path d="M22.7624 15.125H24.0561C24.2437 15.125 24.4239 15.1982 24.5582 15.3291C24.6925 15.46 24.7703 15.6382 24.7749 15.8258V17.1195C24.7749 17.3101 24.6992 17.493 24.5644 17.6278C24.4296 17.7626 24.2468 17.8383 24.0562 17.8383H22.7624C22.5718 17.8383 22.3891 17.7626 22.2542 17.6278C22.1194 17.493 22.0437 17.3101 22.0437 17.1195V15.8258C22.0483 15.6382 22.1261 15.46 22.2604 15.3291C22.3947 15.1982 22.5749 15.125 22.7624 15.125H22.7624Z" fill="#FF9696"/>
<path d="M22.7624 18.4995H24.0562C24.2468 18.4995 24.4296 18.5753 24.5644 18.71C24.6992 18.8448 24.7749 19.0275 24.7749 19.2183V20.5085V20.5083C24.7749 20.6989 24.6992 20.8818 24.5644 21.0166C24.4296 21.1514 24.2468 21.2271 24.0562 21.2271H22.7624C22.5718 21.2271 22.3891 21.1514 22.2542 21.0166C22.1194 20.8818 22.0437 20.6989 22.0437 20.5083V19.2003C22.0483 19.0128 22.1261 18.8345 22.2604 18.7036C22.3947 18.5727 22.5749 18.4994 22.7624 18.4995L22.7624 18.4995Z" fill="#FF9696"/>
<path d="M15.5105 21.8736H16.8042C16.9948 21.8736 17.1777 21.9493 17.3125 22.0841C17.4472 22.219 17.5229 22.4017 17.5229 22.5923V23.8825C17.5229 24.0731 17.4472 24.2558 17.3125 24.3908C17.1777 24.5255 16.9948 24.6013 16.8042 24.6013H15.5105C15.3229 24.5966 15.1447 24.5188 15.0137 24.3845C14.8828 24.2502 14.8097 24.0701 14.8097 23.8825V22.578C14.8134 22.3929 14.8883 22.2164 15.0187 22.0851C15.1493 21.9539 15.3255 21.8782 15.5105 21.8735V21.8736Z" fill="#FF9696"/>
<path d="M13.1816 11.7432H11.8843C11.4973 11.7432 11.1835 12.1301 11.1835 12.4439V13.7412C11.1835 14.1282 11.4973 14.442 11.8843 14.442H13.1816C13.5685 14.442 13.8823 14.055 13.8823 13.7412V12.4439C13.8823 12.057 13.5685 11.7432 13.1816 11.7432Z" fill="#FF9696"/>
<path d="M11.8878 15.125H13.1816C13.3659 15.1295 13.5416 15.2049 13.672 15.3353C13.8024 15.4658 13.8777 15.6413 13.8823 15.8258V17.1195C13.8823 17.3071 13.8092 17.4872 13.6781 17.6215C13.5472 17.7558 13.3689 17.8336 13.1815 17.8383H11.8878C11.6972 17.8383 11.5143 17.7626 11.3795 17.6278C11.2448 17.493 11.169 17.3101 11.169 17.1195V15.8258C11.1737 15.6382 11.2515 15.46 11.3858 15.3291C11.5201 15.1981 11.7002 15.125 11.8878 15.125L11.8878 15.125Z" fill="#FF9696"/>
<path d="M11.8878 18.4995H13.1815C13.3689 18.5042 13.5472 18.582 13.6781 18.7163C13.8092 18.8505 13.8823 19.0307 13.8823 19.2183V23.8901C13.8823 24.0777 13.8092 24.2577 13.6781 24.392C13.5472 24.5264 13.3689 24.6041 13.1815 24.6089H11.8878C11.6972 24.6089 11.5143 24.5331 11.3795 24.3982C11.2448 24.2635 11.169 24.0807 11.169 23.8901V19.2183C11.169 19.0275 11.2448 18.8448 11.3795 18.71C11.5143 18.5753 11.6972 18.4995 11.8878 18.4995V18.4995Z" fill="#FF9696"/>
<path d="M16.8075 11.7432H15.5103C15.1233 11.7432 14.8095 12.1301 14.8095 12.4439V13.7412C14.8095 14.1282 15.1233 14.442 15.5103 14.442H16.8075C17.1945 14.442 17.5083 14.055 17.5083 13.7412V12.4439C17.5083 12.057 17.1945 11.7432 16.8075 11.7432Z" fill="#FF9696"/>
<path d="M19.136 21.8736H20.4297C20.6203 21.8736 20.803 21.9493 20.9378 22.0841C21.0727 22.219 21.1484 22.4017 21.1484 22.5923V23.8825C21.1484 24.0731 21.0727 24.2558 20.9378 24.3908C20.803 24.5255 20.6203 24.6013 20.4297 24.6013H19.136C18.9484 24.5966 18.7702 24.5188 18.6392 24.3845C18.5083 24.2502 18.435 24.0701 18.4352 23.8825V22.578C18.4387 22.3929 18.5136 22.2164 18.6442 22.0851C18.7746 21.9539 18.9508 21.8782 19.136 21.8735V21.8736Z" fill="#FF9696"/>
<path d="M15.5105 18.4995H16.8042C16.9948 18.4995 17.1777 18.5753 17.3125 18.71C17.4472 18.8448 17.5229 19.0275 17.5229 19.2183V20.5085V20.5083C17.5229 20.6989 17.4472 20.8818 17.3125 21.0166C17.1777 21.1513 16.9948 21.2271 16.8042 21.2271H15.5105C15.3229 21.2224 15.1447 21.1446 15.0137 21.0103C14.8828 20.876 14.8097 20.6959 14.8097 20.5083V19.2003C14.8142 19.0158 14.8896 18.8401 15.02 18.7097C15.1504 18.5792 15.3259 18.504 15.5104 18.4995L15.5105 18.4995Z" fill="#FF9696"/>
<path d="M15.5104 15.125H16.8042C16.9917 15.125 17.1719 15.1982 17.3062 15.3291C17.4405 15.46 17.5183 15.6382 17.5229 15.8258V17.1195C17.5229 17.3101 17.4472 17.493 17.3125 17.6278C17.1777 17.7626 16.9948 17.8383 16.8042 17.8383H15.5105C15.3229 17.8336 15.1447 17.7558 15.0137 17.6215C14.8828 17.4873 14.8097 17.3071 14.8097 17.1195V15.8258C14.8142 15.6413 14.8896 15.4658 15.02 15.3353C15.1504 15.2049 15.3259 15.1295 15.5104 15.125L15.5104 15.125Z" fill="#FF9696"/>
</g>
<defs>
<clipPath id="clip0_682_18986">
<rect width="36" height="34" fill="white" transform="translate(0.148926 0.625)"/>
</clipPath>
</defs>
</svg>
