<svg width="31" height="31" viewBox="0 0 31 31" fill="none" xmlns="http://www.w3.org/2000/svg">
<g clip-path="url(#clip0_4601_23999)">
<path d="M30.5 15.8984C30.5 7.61417 23.7843 0.898438 15.5 0.898438C7.21573 0.898438 0.5 7.61417 0.5 15.8984C0.5 24.1827 7.21573 30.8984 15.5 30.8984C23.7843 30.8984 30.5 24.1827 30.5 15.8984Z" fill="#836FFF"/>
<path d="M25.5 15.8984C25.5 10.3756 21.0228 5.89844 15.5 5.89844C9.97715 5.89844 5.5 10.3756 5.5 15.8984C5.5 21.4213 9.97715 25.8984 15.5 25.8984C21.0228 25.8984 25.5 21.4213 25.5 15.8984Z" fill="#6754E2"/>
<path d="M10.5 15.8994L13.833 19.2324L20.5 12.5664" stroke="white" stroke-width="2"/>
</g>
<defs>
<clipPath id="clip0_4601_23999">
<rect width="30" height="30" fill="white" transform="translate(0.5 0.898438)"/>
</clipPath>
</defs>
</svg>
