<svg width="31" height="31" viewBox="0 0 31 31" fill="none" xmlns="http://www.w3.org/2000/svg">
<g clip-path="url(#clip0_4601_24024)">
<path d="M30.5 15.8984C30.5 7.61417 23.7843 0.898438 15.5 0.898438C7.21573 0.898438 0.5 7.61417 0.5 15.8984C0.5 24.1827 7.21573 30.8984 15.5 30.8984C23.7843 30.8984 30.5 24.1827 30.5 15.8984Z" fill="#836FFF"/>
<path d="M25.5 15.8984C25.5 10.3756 21.0228 5.89844 15.5 5.89844C9.97715 5.89844 5.5 10.3756 5.5 15.8984C5.5 21.4213 9.97715 25.8984 15.5 25.8984C21.0228 25.8984 25.5 21.4213 25.5 15.8984Z" fill="#6754E2"/>
<path d="M9.92929 12.1818L13.7475 16L9.92929 19.8182L9.85858 19.8889L9.92929 19.9596L11.0404 21.0707L11.1111 21.1414L11.1818 21.0707L15 17.2526L18.8182 21.0707L18.8889 21.1414L18.9596 21.0707L20.0707 19.9596L20.1414 19.8889L20.0707 19.8182L16.2525 16L20.0707 12.1818L20.1414 12.1111L20.0707 12.0404L18.9596 10.9293L18.8889 10.8586L18.8182 10.9293L15 14.7475L11.1818 10.9293L11.1111 10.8586L11.0404 10.9293L9.92929 12.0404L9.85858 12.1111L9.92929 12.1818Z" fill="white" stroke="white" stroke-width="0.2"/>
</g>
<defs>
<clipPath id="clip0_4601_24024">
<rect width="30" height="30" fill="white" transform="translate(0.5 0.898438)"/>
</clipPath>
</defs>
</svg>
