<svg width="50" height="60" viewBox="0 0 50 60" fill="none" xmlns="http://www.w3.org/2000/svg">
<path d="M13.8774 43.3123H8.81007C8.57819 43.3125 8.35586 43.4054 8.19196 43.5705C8.02805 43.7357 7.93598 43.9597 7.93598 44.1932V53.1606C7.93532 53.2767 7.95743 53.3917 8.00106 53.4991C8.04468 53.6066 8.10895 53.7042 8.19018 53.7866C8.2714 53.8689 8.36798 53.9342 8.47436 53.9789C8.58074 54.0235 8.69483 54.0465 8.81007 54.0466H13.8774C13.9928 54.0467 14.107 54.0238 14.2135 53.9792C14.3201 53.9347 14.4168 53.8694 14.4982 53.787C14.5795 53.7047 14.6439 53.6069 14.6876 53.4994C14.7313 53.3919 14.7535 53.2768 14.7528 53.1606V44.1932C14.7528 44.0774 14.7301 43.9628 14.6861 43.8559C14.6421 43.749 14.5777 43.6519 14.4964 43.5701C14.4151 43.4883 14.3186 43.4234 14.2124 43.3792C14.1062 43.3349 13.9924 43.3122 13.8774 43.3123ZM13.004 52.2829H9.6848V45.0734H13.004V52.2829ZM22.9822 38.0448H17.9142C17.6828 38.0448 17.4608 38.1372 17.2968 38.3017C17.1329 38.4662 17.0403 38.6895 17.0395 38.9225V53.1606C17.0389 53.2768 17.061 53.3918 17.1047 53.4993C17.1483 53.6068 17.2126 53.7045 17.2939 53.7868C17.3752 53.8691 17.4719 53.9345 17.5783 53.979C17.6848 54.0236 17.7989 54.0466 17.9142 54.0466H22.9822C23.0975 54.0466 23.2117 54.0236 23.3181 53.979C23.4246 53.9345 23.5212 53.8691 23.6025 53.7868C23.6838 53.7045 23.7482 53.6068 23.7918 53.4993C23.8355 53.3918 23.8576 53.2768 23.857 53.1606V38.9225C23.8568 38.689 23.7646 38.4651 23.6005 38.3001C23.4365 38.135 23.2141 38.0423 22.9822 38.0423V38.0448ZM22.1094 52.2829H18.7883V39.8034H22.1094V52.2829ZM32.0858 32.9109H27.0171C26.9019 32.9109 26.7878 32.9339 26.6813 32.9784C26.5749 33.023 26.4783 33.0884 26.3971 33.1707C26.3158 33.2531 26.2515 33.3508 26.208 33.4582C26.1644 33.5657 26.1423 33.6808 26.143 33.7968V53.1606C26.1424 53.2767 26.1645 53.3917 26.2081 53.4991C26.2517 53.6066 26.316 53.7042 26.3972 53.7866C26.4785 53.8689 26.575 53.9342 26.6814 53.9789C26.7878 54.0235 26.9019 54.0465 27.0171 54.0466H32.0858C32.2011 54.0466 32.3152 54.0236 32.4217 53.979C32.5281 53.9345 32.6248 53.8691 32.7061 53.7868C32.7874 53.7045 32.8517 53.6068 32.8954 53.4993C32.939 53.3918 32.9612 53.2768 32.9605 53.1606V33.7968C32.9612 33.6807 32.939 33.5656 32.8954 33.4582C32.8517 33.3507 32.7874 33.253 32.7061 33.1707C32.6248 33.0884 32.5281 33.023 32.4217 32.9784C32.3152 32.9339 32.2011 32.9109 32.0858 32.9109ZM31.2117 52.2829H27.8906V34.6745H31.2104L31.2117 52.2829ZM41.1899 38.0448H36.1226C35.8909 38.0445 35.6686 38.1367 35.5043 38.3013C35.3401 38.4658 35.2474 38.6893 35.2466 38.9225V53.1606C35.2459 53.2769 35.2681 53.392 35.3118 53.4996C35.3556 53.6071 35.42 53.7049 35.5014 53.7872C35.5829 53.8696 35.6797 53.9349 35.7863 53.9794C35.8929 54.0239 36.0072 54.0467 36.1226 54.0466H41.1912C41.3063 54.0463 41.4203 54.0232 41.5265 53.9785C41.6327 53.9338 41.7292 53.8684 41.8103 53.7861C41.8914 53.7038 41.9555 53.6062 41.9991 53.4989C42.0426 53.3915 42.0647 53.2766 42.064 53.1606V38.9225C42.0639 38.6891 41.9717 38.4654 41.8078 38.3003C41.6439 38.1353 41.4217 38.0425 41.1899 38.0423V38.0448ZM40.3152 52.2829H36.9954V39.8034H40.3152V52.2829ZM49.6959 10.147L38.1378 0.211357C37.9802 0.0754563 37.7797 0.000525877 37.5723 0H5.14717C3.78241 0.00150777 2.47398 0.548175 1.509 1.52004C0.544028 2.49191 0.00133066 3.80959 0 5.18394V54.8161C0.00133066 56.1904 0.544028 57.5081 1.509 58.48C2.47398 59.4518 3.78241 59.9985 5.14717 60H44.8522C46.2171 59.9987 47.5257 59.4521 48.4908 58.4802C49.4559 57.5083 49.9987 56.1905 50 54.8161V10.8172C50 10.69 49.9729 10.5644 49.9204 10.4487C49.8679 10.3331 49.7913 10.2302 49.6959 10.147ZM38.4476 2.7894L46.7543 9.9363H38.4476V2.7894ZM44.8572 58.2376H5.14717C4.2464 58.2365 3.38285 57.8756 2.7459 57.2342C2.10896 56.5928 1.75061 55.7232 1.74945 54.8161V5.18394C1.75028 4.27662 2.10848 3.40668 2.74546 2.76499C3.38244 2.1233 4.24618 1.76227 5.14717 1.7611H36.6925V10.8172C36.6926 10.9328 36.7153 11.0474 36.7593 11.1542C36.8034 11.261 36.8679 11.3581 36.9492 11.4398C37.0304 11.5216 37.1269 11.5864 37.2331 11.6306C37.3392 11.6748 37.453 11.6975 37.5679 11.6974H48.2506V54.8161C48.2496 55.7234 47.8912 56.5934 47.2541 57.235C46.6171 57.8767 45.7533 58.2377 44.8522 58.2389L44.8572 58.2376ZM5.50724 6.84948C5.50724 6.61586 5.5994 6.39181 5.76344 6.22661C5.92748 6.06142 6.14997 5.96861 6.38196 5.96861H13.7034C13.8202 5.96546 13.9364 5.9859 14.0452 6.02874C14.1541 6.07157 14.2533 6.13593 14.337 6.218C14.4207 6.30008 14.4873 6.39822 14.5327 6.50662C14.5781 6.61503 14.6015 6.7315 14.6015 6.84916C14.6015 6.96682 14.5781 7.0833 14.5327 7.1917C14.4873 7.3001 14.4207 7.39824 14.337 7.48032C14.2533 7.5624 14.1541 7.62675 14.0452 7.66958C13.9364 7.71242 13.8202 7.73286 13.7034 7.72971H6.38196C6.15008 7.72971 5.92769 7.63699 5.76366 7.47193C5.59964 7.30688 5.50741 7.08299 5.50724 6.84948ZM6.38196 13.3041C6.14997 13.3041 5.92748 13.2113 5.76344 13.0461C5.5994 12.8809 5.50724 12.6568 5.50724 12.4232C5.50724 12.1896 5.5994 11.9656 5.76344 11.8004C5.92748 11.6352 6.14997 11.5424 6.38196 11.5424H29.9423C30.1743 11.5424 30.3968 11.6352 30.5608 11.8004C30.7249 11.9656 30.817 12.1896 30.817 12.4232C30.817 12.6568 30.7249 12.8809 30.5608 13.0461C30.3968 13.2113 30.1743 13.3041 29.9423 13.3041H6.38196ZM14.1112 33.1798C15.9679 33.1877 17.766 32.5257 19.1799 31.3138C20.5938 30.102 21.53 28.4203 21.8191 26.5734C21.8392 26.4475 21.8319 26.3188 21.7978 26.1961C21.7636 26.0733 21.7034 25.9595 21.6213 25.8625C21.5392 25.7655 21.4372 25.6876 21.3222 25.6342C21.2073 25.5808 21.0822 25.5532 20.9557 25.5533H15.1493V18.3393C15.1492 18.1101 15.0605 17.89 14.9018 17.7256C14.7432 17.5613 14.5272 17.4657 14.2997 17.4591H14.1112C12.0406 17.4591 10.0548 18.2874 8.59071 19.7618C7.12658 21.2362 6.30404 23.2359 6.30404 25.321C6.30404 27.4062 7.12658 29.4059 8.59071 30.8803C10.0548 32.3547 12.0406 33.183 14.1112 33.183V33.1798ZM13.4005 19.2581V26.436C13.4005 26.6696 13.4926 26.8935 13.6565 27.0587C13.8204 27.2239 14.0427 27.3167 14.2746 27.3169H19.8409C19.4869 28.3468 18.8654 29.2625 18.0411 29.9687C17.2168 30.6749 16.2197 31.1459 15.1535 31.3328C14.0872 31.5196 12.9907 31.4155 11.978 31.0312C10.9652 30.6469 10.0731 29.9965 9.39445 29.1475C8.71578 28.2986 8.27528 27.2821 8.11873 26.2036C7.96219 25.1252 8.09531 24.0243 8.50426 23.0152C8.91321 22.0061 9.58307 21.1258 10.4442 20.4656C11.3054 19.8055 12.3264 19.3896 13.4011 19.2613L13.4005 19.2581ZM15.8921 17.1699C15.8084 17.2523 15.742 17.3507 15.6968 17.4594C15.6515 17.5681 15.6284 17.6848 15.6288 17.8027V24.0295C15.6288 24.2629 15.7209 24.4868 15.8848 24.6519C16.0487 24.817 16.271 24.9097 16.5029 24.9097H21.6431C21.851 24.9098 22.0522 24.8352 22.2104 24.6994C22.3687 24.5636 22.4737 24.3754 22.5065 24.1687C22.6477 23.2872 22.5997 22.3855 22.3658 21.5242C22.132 20.6629 21.7177 19.862 21.1508 19.1754C20.5839 18.4888 19.8776 17.9325 19.0793 17.5438C18.2811 17.155 17.4094 16.943 16.523 16.9218C16.4062 16.9174 16.2899 16.9376 16.1814 16.9811C16.0728 17.0245 15.9745 17.0904 15.8927 17.1743L15.8921 17.1699ZM17.3782 18.7994C18.3541 19.0322 19.2246 19.5871 19.851 20.3759C20.4773 21.1647 20.8235 22.1419 20.8344 23.1518H17.3782V18.7994ZM45.1054 19.217C45.1053 19.3327 45.0825 19.4472 45.0383 19.5541C44.9941 19.6609 44.9295 19.7579 44.8481 19.8395C44.7667 19.9211 44.6701 19.9858 44.5638 20.0298C44.4576 20.0738 44.3437 20.0963 44.2288 20.096H32.9347C32.8179 20.0991 32.7017 20.0787 32.5929 20.0359C32.484 19.993 32.3848 19.9287 32.3011 19.8466C32.2174 19.7645 32.1508 19.6664 32.1054 19.558C32.06 19.4496 32.0366 19.3331 32.0366 19.2154C32.0366 19.0978 32.06 18.9813 32.1054 18.8729C32.1508 18.7645 32.2174 18.6664 32.3011 18.5843C32.3848 18.5022 32.484 18.4378 32.5929 18.395C32.7017 18.3522 32.8179 18.3317 32.9347 18.3349H44.2288C44.3441 18.3342 44.4584 18.3565 44.5651 18.4005C44.6718 18.4444 44.7689 18.5092 44.8506 18.5911C44.9324 18.6729 44.9972 18.7703 45.0415 18.8775C45.0858 18.9847 45.1086 19.0996 45.1086 19.2157L45.1054 19.217ZM45.1054 23.6808C45.1046 23.9142 45.0118 24.1376 44.8474 24.3021C44.6831 24.4665 44.4606 24.5586 44.2288 24.5579H32.9347C32.8179 24.561 32.7017 24.5406 32.5929 24.4978C32.484 24.4549 32.3848 24.3906 32.3011 24.3085C32.2174 24.2264 32.1508 24.1283 32.1054 24.0199C32.06 23.9115 32.0366 23.795 32.0366 23.6773C32.0366 23.5597 32.06 23.4432 32.1054 23.3348C32.1508 23.2264 32.2174 23.1283 32.3011 23.0462C32.3848 22.9641 32.484 22.8997 32.5929 22.8569C32.7017 22.8141 32.8179 22.7936 32.9347 22.7968H44.2288C44.3443 22.7961 44.4587 22.8185 44.5656 22.8626C44.6724 22.9066 44.7695 22.9716 44.8513 23.0537C44.9331 23.1357 44.9979 23.2333 45.0421 23.3407C45.0862 23.4481 45.1088 23.5633 45.1086 23.6796L45.1054 23.6808ZM45.1054 28.1446C45.1053 28.2603 45.0825 28.3749 45.0383 28.4818C44.9942 28.5886 44.9295 28.6857 44.8481 28.7673C44.7667 28.849 44.6701 28.9138 44.5639 28.9578C44.4576 29.0019 44.3438 29.0245 44.2288 29.0242H32.9347C32.7027 29.0242 32.4802 28.9314 32.3162 28.7662C32.1522 28.601 32.06 28.377 32.06 28.1434C32.06 27.9097 32.1522 27.6857 32.3162 27.5205C32.4802 27.3553 32.7027 27.2625 32.9347 27.2625H44.2288C44.3441 27.2618 44.4584 27.2841 44.5651 27.3281C44.6718 27.3721 44.7689 27.4368 44.8506 27.5187C44.9324 27.6006 44.9972 27.6979 45.0415 27.8051C45.0858 27.9123 45.1086 28.0273 45.1086 28.1434L45.1054 28.1446Z" fill="white"/>
</svg>
