<svg width="61" height="11" viewBox="0 0 61 11" fill="none" xmlns="http://www.w3.org/2000/svg">
<path fill-rule="evenodd" clip-rule="evenodd" d="M6.12825 9.40796L3.35585 10.8504C3.09821 10.9845 2.77953 10.8864 2.64399 10.6287C2.59001 10.5272 2.57141 10.4109 2.59106 10.2979C2.92382 8.38731 2.2779 6.42674 0.88281 5.07958C0.67446 4.87843 0.66998 4.54844 0.873289 4.34202C0.954157 4.25985 1.06017 4.20638 1.17489 4.18991C3.10005 3.91461 4.79308 2.70785 5.66114 0.967597C5.78996 0.709369 6.10921 0.603251 6.36684 0.730703C6.47085 0.781427 6.55501 0.8647 6.60628 0.967597C7.47434 2.70786 9.16737 3.91461 11.0925 4.18991C11.19 4.20371 11.2815 4.24426 11.3568 4.30695C11.4322 4.36964 11.4882 4.45197 11.5186 4.54458C11.549 4.63719 11.5526 4.73639 11.5289 4.8309C11.5052 4.92542 11.4552 5.01148 11.3846 5.0793C9.98952 6.42646 9.3436 8.38703 9.67636 10.2976C9.68814 10.3651 9.68634 10.4343 9.67107 10.5011C9.6558 10.5679 9.62736 10.6311 9.58738 10.687C9.5474 10.7429 9.49666 10.7905 9.43807 10.827C9.37948 10.8635 9.31419 10.8882 9.24594 10.8997C9.13169 10.9191 9.01407 10.9008 8.91157 10.8443L6.15027 9.40763C6.14334 9.40403 6.13507 9.40415 6.12825 9.40796ZM18.3702 9.40796L15.5973 10.8504C15.3396 10.9845 15.0209 10.8864 14.8854 10.6287C14.8314 10.5272 14.8128 10.4109 14.8325 10.2979C15.1652 8.38731 14.5193 6.42674 13.1242 5.07958C12.9159 4.87843 12.9114 4.54844 13.1147 4.34202C13.1956 4.25985 13.3016 4.20638 13.4163 4.18991C15.3415 3.91461 17.0345 2.70786 17.9026 0.967597C18.0314 0.709369 18.3506 0.603251 18.6083 0.730703C18.7123 0.781427 18.7964 0.8647 18.8477 0.967597C19.7158 2.70785 21.4088 3.91461 23.3339 4.18991C23.4314 4.20371 23.5229 4.24426 23.5983 4.30695C23.6736 4.36964 23.7296 4.45197 23.76 4.54458C23.7904 4.63719 23.794 4.73639 23.7703 4.8309C23.7466 4.92542 23.6966 5.01148 23.626 5.0793C22.2309 6.42646 21.585 8.38703 21.9178 10.2976C21.9295 10.3651 21.9278 10.4343 21.9125 10.5011C21.8972 10.5679 21.8688 10.6311 21.8288 10.687C21.7888 10.7429 21.7381 10.7905 21.6795 10.827C21.6209 10.8635 21.5556 10.8882 21.4874 10.8997C21.3731 10.9191 21.2555 10.9008 21.153 10.8443L18.3913 9.40741C18.3846 9.40396 18.3767 9.40417 18.3702 9.40796ZM30.6142 9.40796L27.8412 10.8504C27.5836 10.9845 27.2649 10.8864 27.1293 10.6287C27.0754 10.5272 27.0568 10.4109 27.0764 10.2979C27.4092 8.38731 26.7632 6.42674 25.3682 5.07958C25.2975 5.01177 25.2474 4.92569 25.2236 4.83113C25.1999 4.73657 25.2035 4.63733 25.2339 4.54466C25.2643 4.452 25.3204 4.36963 25.3958 4.30692C25.4711 4.24421 25.5628 4.20367 25.6602 4.18991C27.5854 3.91461 29.2784 2.70786 30.1465 0.967597C30.2753 0.709369 30.5946 0.603251 30.8522 0.730703C30.9561 0.781596 31.0402 0.864822 31.0916 0.967597C31.9597 2.70785 33.6527 3.91461 35.5779 4.18991C35.8663 4.23147 36.0651 4.49607 36.0237 4.7809C36.0071 4.8944 35.953 4.99929 35.87 5.0793C34.4749 6.42646 33.8289 8.38703 34.1617 10.2976C34.2107 10.5816 34.0181 10.8512 33.731 10.8997C33.6168 10.9191 33.4994 10.9008 33.3966 10.8443L30.6347 9.4073C30.6282 9.40392 30.6204 9.40417 30.6142 9.40796ZM42.8561 9.40796L40.0837 10.8504C40.0223 10.8823 39.9551 10.9018 39.886 10.908C39.8169 10.9141 39.7473 10.9066 39.6811 10.886C39.6149 10.8654 39.5535 10.8321 39.5004 10.7879C39.4473 10.7438 39.4035 10.6897 39.3716 10.6287C39.3178 10.5273 39.2988 10.4109 39.3156 10.2979C39.6483 8.38731 39.0024 6.42674 37.6073 5.07958C37.5366 5.01177 37.4866 4.92569 37.4628 4.83113C37.4391 4.73657 37.4426 4.63733 37.4731 4.54466C37.5035 4.452 37.5596 4.36963 37.6349 4.30692C37.7103 4.24421 37.8019 4.20367 37.8994 4.18991C39.8246 3.91461 41.5176 2.70785 42.3857 0.967597C42.5145 0.709369 42.8337 0.603251 43.0914 0.730703C43.1952 0.781596 43.2794 0.864822 43.3308 0.967597C44.1989 2.70785 45.8919 3.91461 47.8171 4.18991C47.8856 4.19968 47.9515 4.22273 48.011 4.25774C48.0705 4.29274 48.1224 4.33902 48.1639 4.39391C48.2053 4.44881 48.2353 4.51125 48.2523 4.57765C48.2693 4.64406 48.2729 4.71312 48.2629 4.7809C48.2461 4.89173 48.1923 4.99923 48.1088 5.0793C46.7138 6.42646 46.0678 8.38703 46.4006 10.2976C46.4175 10.3936 46.4068 10.4923 46.3698 10.5826C46.3328 10.6728 46.271 10.751 46.1913 10.8083C46.1117 10.8655 46.0174 10.8995 45.9192 10.9064C45.821 10.9133 45.7228 10.8929 45.6358 10.8473L42.8694 9.40831C42.8653 9.40617 42.8604 9.40603 42.8561 9.40796Z" fill="#FFB81D"/>
<path d="M52.4054 10.8504L55.1778 9.40796C55.1821 9.40603 55.187 9.40617 55.1911 9.40831L57.9575 10.8473C58.0446 10.8929 58.1427 10.9133 58.2409 10.9064C58.3391 10.8995 58.4334 10.8655 58.5131 10.8083C58.5927 10.751 58.6545 10.6728 58.6915 10.5826C58.7285 10.4923 58.7392 10.3936 58.7223 10.2976C58.3896 8.38703 59.0355 6.42646 60.4306 5.0793C60.514 4.99923 60.5678 4.89173 60.5846 4.7809C60.5946 4.71312 60.591 4.64405 60.574 4.57765C60.557 4.51125 60.527 4.44881 60.4856 4.39391C60.4442 4.33902 60.3922 4.29274 60.3327 4.25774C60.2732 4.22273 60.2073 4.19968 60.1388 4.18991C58.2136 3.91461 56.5206 2.70785 55.6525 0.967597C55.6011 0.864822 55.517 0.781596 55.4131 0.730703C55.1554 0.603251 54.8362 0.709369 54.7074 0.967597C53.8393 2.70785 52.1463 3.91461 50.2211 4.18991C50.1236 4.20367 50.032 4.24421 49.9566 4.30692C49.8813 4.36963 49.8252 4.452 49.7948 4.54466C49.7644 4.63733 49.7608 4.73657 49.7845 4.83113C49.8083 4.92569 49.8583 5.01177 49.929 5.07958C51.3241 6.42674 51.9701 8.38731 51.6373 10.2979C51.6205 10.4109 51.6395 10.5273 51.6933 10.6287C51.7252 10.6897 51.769 10.7438 51.8221 10.7879C51.8752 10.8321 51.9366 10.8654 52.0028 10.886C52.069 10.9066 52.1386 10.9141 52.2077 10.908C52.2768 10.9018 52.344 10.8823 52.4054 10.8504Z" fill="#FFB81D"/>
</svg>
