<svg width="29" height="29" viewBox="0 0 29 29" fill="none" xmlns="http://www.w3.org/2000/svg">
<path d="M4.61724 4.7959C3.54397 4.7959 2.6582 5.68168 2.6582 6.75493V22.2449C2.6582 23.3182 3.54398 24.2039 4.61724 24.2039H24.3817C25.455 24.2039 26.3408 23.3182 26.3408 22.2449V6.75493C26.3408 5.68169 25.455 4.7959 24.3817 4.7959H4.61724ZM4.61724 6.18899H24.3817C24.7073 6.18899 24.9477 6.42937 24.9477 6.75493V9.05952H4.0513V6.75493C4.0513 6.42936 4.29165 6.18899 4.61724 6.18899ZM5.81443 6.86649C5.62969 6.86649 5.45252 6.93987 5.32189 7.0705C5.19127 7.20113 5.11788 7.3783 5.11788 7.56303C5.11788 7.6545 5.1359 7.74508 5.1709 7.82959C5.20591 7.9141 5.25721 7.99088 5.32189 8.05556C5.38657 8.12024 5.46336 8.17155 5.54787 8.20656C5.63238 8.24156 5.72295 8.25958 5.81443 8.25958H6.89189C6.98336 8.25958 7.07394 8.24156 7.15845 8.20656C7.24296 8.17155 7.31974 8.12025 7.38442 8.05557C7.44911 7.99088 7.50041 7.9141 7.53542 7.82959C7.57042 7.74508 7.58844 7.6545 7.58844 7.56303C7.58844 7.47156 7.57042 7.38098 7.53542 7.29647C7.50041 7.21197 7.4491 7.13518 7.38442 7.0705C7.31974 7.00582 7.24296 6.95451 7.15845 6.91951C7.07394 6.8845 6.98336 6.86649 6.89189 6.86649H5.81443ZM8.94888 6.86649C8.76415 6.86649 8.58698 6.93987 8.45635 7.0705C8.32572 7.20113 8.25234 7.3783 8.25234 7.56303C8.25234 7.6545 8.27035 7.74508 8.30536 7.82959C8.34036 7.9141 8.39167 7.99088 8.45635 8.05556C8.52103 8.12024 8.59782 8.17155 8.68232 8.20656C8.76683 8.24156 8.85741 8.25958 8.94888 8.25958H10.0263C10.1178 8.25958 10.2084 8.24156 10.2929 8.20656C10.3774 8.17155 10.4542 8.12025 10.5189 8.05557C10.5836 7.99088 10.6349 7.9141 10.6699 7.82959C10.7049 7.74508 10.7229 7.6545 10.7229 7.56303C10.7229 7.47156 10.7049 7.38098 10.6699 7.29647C10.6349 7.21197 10.5836 7.13518 10.5189 7.0705C10.4542 7.00582 10.3774 6.95451 10.2929 6.91951C10.2084 6.8845 10.1178 6.86649 10.0263 6.86649H8.94888ZM4.0513 10.4526H24.9477V22.2449C24.9477 22.5705 24.7073 22.8109 24.3817 22.8109H4.61724C4.29163 22.8109 4.0513 22.5705 4.0513 22.2449V10.4526ZM13.2696 11.6716C13.0849 11.6716 12.9078 11.745 12.7771 11.8756C12.6465 12.0062 12.5731 12.1834 12.5731 12.3681V13.4252C12.1993 13.5419 11.8368 13.6919 11.4902 13.8741L10.7419 13.1272C10.6113 12.9967 10.4342 12.9233 10.2495 12.9233C10.0648 12.9233 9.88761 12.9967 9.75698 13.1272L8.01834 14.8659C7.88776 14.9965 7.81441 15.1737 7.81441 15.3584C7.81441 15.5431 7.88776 15.7202 8.01834 15.8508L8.76522 16.5991C8.58321 16.9457 8.43423 17.3082 8.31764 17.682H7.25921C7.07448 17.682 6.89733 17.7554 6.7667 17.886C6.63608 18.0167 6.56269 18.1938 6.56267 18.3785V20.8382C6.56269 21.0229 6.63608 21.2001 6.7667 21.3307C6.89733 21.4614 7.07448 21.5347 7.25921 21.5348H8.31764C8.34578 21.625 8.37532 21.7152 8.40741 21.8041C8.47007 21.9778 8.59913 22.1195 8.76622 22.1981C8.93331 22.2767 9.12477 22.2857 9.2985 22.2231C9.38466 22.1921 9.46386 22.1444 9.53156 22.0828C9.59927 22.0211 9.65415 21.9467 9.69307 21.8638C9.73199 21.7809 9.75418 21.6912 9.75837 21.5997C9.76257 21.5082 9.74868 21.4168 9.71751 21.3307C9.64193 21.1212 9.57999 20.9076 9.5325 20.6899C9.49865 20.5347 9.41274 20.3956 9.28902 20.2959C9.1653 20.1962 9.0112 20.1418 8.85229 20.1417H7.95576V19.0751H8.85229C9.0112 19.075 9.16531 19.0206 9.28903 18.9208C9.41276 18.8211 9.49867 18.6821 9.53251 18.5268C9.66161 17.9351 9.89622 17.3711 10.2236 16.8616C10.3096 16.7278 10.3471 16.5686 10.3301 16.4104C10.313 16.2523 10.2423 16.1047 10.1297 15.9923L9.49577 15.3584L10.2495 14.6047L10.8834 15.2386C10.9958 15.3512 11.1434 15.4219 11.3015 15.439C11.4597 15.456 11.6189 15.4185 11.7527 15.3325C12.2622 15.0048 12.8262 14.7708 13.4179 14.6414C13.5734 14.6075 13.7126 14.5214 13.8124 14.3974C13.9121 14.2734 13.9664 14.119 13.9662 13.9598V13.0647H15.0341V13.9598C15.0342 14.1187 15.0886 14.2728 15.1884 14.3966C15.2881 14.5203 15.4271 14.6062 15.5824 14.64C16.1746 14.769 16.739 15.0022 17.2489 15.3298C17.3826 15.4159 17.5418 15.4537 17.6999 15.4369C17.858 15.42 18.0057 15.3496 18.1182 15.2373L18.7495 14.6047L19.5045 15.3584L18.8719 15.991C18.7594 16.1034 18.6887 16.2509 18.6716 16.4091C18.6545 16.5672 18.6921 16.7264 18.778 16.8603C19.1056 17.3703 19.3402 17.9346 19.4691 18.5268C19.503 18.6821 19.5889 18.8211 19.7126 18.9208C19.8364 19.0206 19.9905 19.075 20.1494 19.0751H21.0432V20.1417H20.148C19.9889 20.1415 19.8344 20.1957 19.7104 20.2955C19.5864 20.3952 19.5003 20.5344 19.4664 20.6899C19.4189 20.9075 19.3584 21.1212 19.2828 21.3307C19.2516 21.4167 19.2376 21.508 19.2417 21.5995C19.2458 21.6909 19.2679 21.7806 19.3067 21.8635C19.3455 21.9463 19.4002 22.0208 19.4678 22.0825C19.5353 22.1442 19.6144 22.192 19.7004 22.2231C19.7865 22.2543 19.878 22.2682 19.9694 22.264C20.0609 22.2598 20.1507 22.2376 20.2335 22.1987C20.3164 22.1598 20.3908 22.1049 20.4525 22.0372C20.5142 21.9695 20.5619 21.8903 20.5929 21.8041C20.625 21.7152 20.6545 21.625 20.6827 21.5348H21.7397C21.9244 21.5347 22.1016 21.4614 22.2322 21.3307C22.3629 21.2001 22.4363 21.0229 22.4363 20.8382V18.3785C22.4363 18.1938 22.3629 18.0167 22.2322 17.886C22.1016 17.7554 21.9244 17.682 21.7397 17.682H20.6854C20.5688 17.3076 20.4173 16.9449 20.2351 16.5977L20.982 15.8508C21.1125 15.7202 21.1859 15.5431 21.1859 15.3584C21.1859 15.1737 21.1125 14.9965 20.982 14.8659L19.2433 13.1272C19.1786 13.0624 19.1018 13.0109 19.0171 12.9758C18.9325 12.9407 18.8418 12.9226 18.7502 12.9226C18.6586 12.9226 18.5678 12.9407 18.4832 12.9758C18.3986 13.0109 18.3217 13.0624 18.257 13.1272L17.5115 13.8728C17.1643 13.6905 16.8016 13.5404 16.4272 13.4238V12.3681C16.4272 12.1834 16.3538 12.0062 16.2232 11.8756C16.0926 11.745 15.9154 11.6716 15.7307 11.6716H13.2696ZM14.4274 16.7882C12.9104 16.827 11.6779 18.0826 11.6779 19.6084C11.6779 21.1583 12.9495 22.4299 14.4995 22.4299C16.0494 22.4299 17.321 21.1583 17.321 19.6084C17.321 18.0584 16.0494 16.7882 14.4995 16.7882C14.4753 16.7882 14.4514 16.7876 14.4274 16.7882ZM14.4995 18.1813C15.2966 18.1813 15.9279 18.8113 15.9279 19.6084C15.9279 20.4055 15.2966 21.0368 14.4995 21.0368C13.7024 21.0368 13.071 20.4055 13.071 19.6084C13.071 18.8113 13.7024 18.1813 14.4995 18.1813Z" fill="#FAF8FE"/>
</svg>
