<svg width="28" height="28" viewBox="0 0 28 28" fill="none" xmlns="http://www.w3.org/2000/svg">
<g clip-path="url(#clip0_3243_26200)">
<path d="M22.75 4.0835L21 2.3335L19.25 4.0835L17.5 2.3335L15.75 4.0835L14 2.3335L12.25 4.0835L10.5 2.3335L8.75 4.0835L7 2.3335V18.6668H3.5V22.1668C3.5 24.1035 5.06333 25.6668 7 25.6668H21C22.9367 25.6668 24.5 24.1035 24.5 22.1668V2.3335L22.75 4.0835ZM17.5 23.3335H7C6.35833 23.3335 5.83333 22.8085 5.83333 22.1668V21.0002H17.5V23.3335ZM22.1667 22.1668C22.1667 22.8085 21.6417 23.3335 21 23.3335C20.3583 23.3335 19.8333 22.8085 19.8333 22.1668V18.6668H9.33333V5.8335H22.1667V22.1668Z" fill="white"/>
<path d="M17.5 8.16699H10.5V10.5003H17.5V8.16699Z" fill="white"/>
<path d="M20.9993 8.16699H18.666V10.5003H20.9993V8.16699Z" fill="white"/>
<path d="M17.5 11.667H10.5V14.0003H17.5V11.667Z" fill="white"/>
<path d="M20.9993 11.667H18.666V14.0003H20.9993V11.667Z" fill="white"/>
</g>
<defs>
<clipPath id="clip0_3243_26200">
<rect width="28" height="28" fill="white"/>
</clipPath>
</defs>
</svg>
