<svg width="29" height="28" viewBox="0 0 29 28" fill="none" xmlns="http://www.w3.org/2000/svg">
<path d="M25.9993 28H17.624C15.9679 27.9988 14.6245 26.6446 14.6233 24.9738V20.0524C12.9575 20.3186 11.2502 20.0894 9.71265 19.392C8.17385 18.6946 6.86954 17.5597 5.95969 16.1278H2.34241C1.80873 16.1192 1.37885 15.6806 1.37885 15.1421C1.37885 14.6024 1.80873 14.1638 2.34241 14.1564H5.04627C4.88506 13.6426 4.77515 13.114 4.71653 12.5792H0.977008C0.438419 12.5792 0 12.1381 0 11.5935C0 11.0489 0.438419 10.6078 0.977008 10.6078H4.74935C4.81286 10.0742 4.92033 9.54687 5.06809 9.0306H2.34222C1.80854 9.02321 1.37866 8.58455 1.37866 8.04487C1.37866 7.50643 1.80854 7.06652 2.34222 7.05914H5.91573C6.97943 5.28483 8.67455 3.98613 10.6554 3.42788V1.97146H10.1779C9.64421 1.96283 9.21554 1.52417 9.21554 0.985729C9.21554 0.446054 9.64421 0.00738114 10.1779 0H16.1644C16.6993 0.00739281 17.1279 0.446054 17.1279 0.985729C17.1279 1.52417 16.6993 1.96285 16.1644 1.97146H15.6881V3.42788C19.3041 4.27191 22.565 8.7076 21.4623 13.4959H25.9993C27.6554 13.4971 28.9975 14.8513 29 16.5221V24.9735C28.9976 26.6443 27.6554 27.9987 25.9993 28ZM16.5772 18.7736V24.9737C16.5785 25.5566 17.0462 26.0285 17.6239 26.0285H26.0005H25.9993C26.577 26.0285 27.0447 25.5566 27.0459 24.9737V16.5223C27.0447 15.9395 26.577 15.4676 25.9993 15.4676H17.6239C17.0462 15.4676 16.5785 15.9395 16.5773 16.5223L16.5772 18.7736ZM7.46059 14.8244C8.16769 16.0516 9.24118 17.0225 10.526 17.5992C11.8119 18.1771 13.2457 18.3311 14.6231 18.0403V16.5223C14.6244 14.8514 15.9677 13.4973 17.6238 13.4961H19.4435C20.0577 11.4987 19.6865 9.32635 18.4457 7.65329C17.2049 5.97878 15.2449 5.00539 13.1723 5.03618C8.297 4.82671 4.97289 10.454 7.46059 14.8244ZM13.1713 3.01895C13.3594 3.01895 13.5475 3.02511 13.7343 3.03743V1.97407H12.6095V3.0362C12.7964 3.02388 12.9845 3.01895 13.1713 3.01895ZM21.8118 19.9154C20.7139 19.9167 17.8647 19.2156 18.7733 17.5965C19.0933 17.1579 19.7039 17.063 20.1387 17.3858C21.1328 18.1263 22.4896 18.1263 23.4824 17.3858C23.6912 17.2306 23.9526 17.1652 24.209 17.2047C24.4655 17.2441 24.6963 17.3846 24.849 17.5953C25.7588 19.2168 22.9109 19.9154 21.8118 19.9154ZM12.8258 13.7594C12.5657 13.7594 12.3178 13.656 12.1346 13.4699L10.4884 11.8089H10.4872C10.1195 11.422 10.1257 10.8084 10.5018 10.4289C10.8779 10.0494 11.4861 10.0432 11.8696 10.4154L12.8259 11.3802L14.4746 9.71675V9.71552C14.858 9.34463 15.4662 9.34955 15.8424 9.7303C16.2185 10.1098 16.2246 10.7234 15.8558 11.1103L13.5159 13.4712V13.4699C13.3327 13.656 13.0847 13.7594 12.8258 13.7594Z" fill="white"/>
</svg>
