<svg width="29" height="29" viewBox="0 0 29 29" fill="none" xmlns="http://www.w3.org/2000/svg">
<path d="M4.08547 25.1996H23.8247C25.3611 25.1996 26.611 23.9498 26.611 22.4136V21.7981C26.611 21.4387 26.3198 21.1479 25.9608 21.1479H1.94945C1.59041 21.1479 1.29922 21.4387 1.29922 21.7981V22.4136C1.29922 23.9498 2.54907 25.1996 4.08547 25.1996ZM25.3101 22.4483C25.2916 23.2513 24.6323 23.8991 23.8247 23.8991H4.08547C3.27787 23.8991 2.61861 23.2513 2.60009 22.4483H25.3101Z" fill="#FAF8FE" stroke="#FAF8FE" stroke-width="0.3"/>
<path d="M3.14867 22.4485H24.7839C25.1429 22.4485 25.4341 22.1576 25.4341 21.7983V5.50738C25.4341 4.78656 24.8479 4.2001 24.1268 4.2001H3.80572C3.08462 4.2001 2.49844 4.78656 2.49844 5.50738V21.7983C2.49844 22.1576 2.78962 22.4485 3.14867 22.4485ZM24.1336 5.50738V21.148H3.79891V5.50738C3.79891 5.50376 3.8021 5.50057 3.80572 5.50057H24.1268C24.1304 5.50057 24.1336 5.50376 24.1336 5.50738Z" fill="#FAF8FE" stroke="#FAF8FE" stroke-width="0.3"/>
<path d="M16.7076 15.1616L16.7076 15.1616C16.495 14.9469 16.4966 14.6004 16.7113 14.3878L19.2742 11.8499L19.2745 11.8497C19.4885 11.6385 19.8349 11.6385 20.0477 11.8536C20.0477 11.8536 20.0477 11.8537 20.0478 11.8537L19.9411 11.9592C20.0954 12.115 20.0942 12.3666 19.9384 12.5209L16.7076 15.1616ZM16.7076 15.1616C16.8145 15.2696 16.9558 15.3235 17.0962 15.3235C17.2351 15.3235 17.3744 15.2706 17.4809 15.1655L17.481 15.1654L20.0439 12.6275M16.7076 15.1616L20.0439 12.6275M20.0439 12.6275C20.0439 12.6274 20.0439 12.6274 20.0439 12.6274L20.0439 12.6275Z" fill="#FAF8FE" stroke="#FAF8FE" stroke-width="0.3"/>
<path d="M7.88834 15.1047L7.8882 15.1046C7.67615 14.8893 7.67885 14.5432 7.89379 14.3312L7.89384 14.3312L10.8444 11.4232C10.8445 11.4232 10.8445 11.4231 10.8446 11.4231L10.8446 11.4231L10.9499 11.5299C11.1059 11.3756 11.3573 11.3779 11.5114 11.5338L7.88834 15.1047ZM7.88834 15.1047C7.99532 15.213 8.13677 15.2676 8.27784 15.2676C8.41614 15.2676 8.55527 15.2152 8.66185 15.11L7.88834 15.1047Z" fill="#FAF8FE" stroke="#FAF8FE" stroke-width="0.3"/>
<path d="M16.0039 15.1611C16.2155 14.9459 16.2126 14.5994 15.9973 14.3878C15.9973 14.3878 15.9973 14.3878 15.9973 14.3878L12.9679 11.4095L12.9679 11.4095C12.7525 11.1978 12.4058 11.1999 12.1943 11.4161C11.9827 11.6314 11.9856 11.9778 12.2009 12.1894C12.2009 12.1894 12.2009 12.1894 12.2009 12.1894L15.2304 15.1677L15.2304 15.1677C15.3368 15.2723 15.4756 15.3247 15.6138 15.3247C15.755 15.3247 15.8968 15.2703 16.0039 15.1611ZM16.0039 15.1611C16.0039 15.1611 16.0039 15.1611 16.0039 15.1611L15.8968 15.0561L16.0037 15.1613C16.0038 15.1612 16.0038 15.1612 16.0039 15.1611Z" fill="#FAF8FE" stroke="#FAF8FE" stroke-width="0.3"/>
<path d="M18.8148 11.5363C18.8148 12.3894 19.5086 13.083 20.3615 13.083C21.2144 13.083 21.9082 12.3894 21.9082 11.5363C21.9082 10.6832 21.2144 9.98965 20.3615 9.98965C19.5086 9.98965 18.8148 10.6832 18.8148 11.5363ZM19.9087 11.5363C19.9087 11.2869 20.112 11.0835 20.3615 11.0835C20.6111 11.0835 20.8143 11.2869 20.8143 11.5363C20.8143 11.7857 20.6111 11.9891 20.3615 11.9891C20.112 11.9891 19.9087 11.7857 19.9087 11.5363Z" fill="#FAF8FE" stroke="#FAF8FE" stroke-width="0.3"/>
<path d="M14.8949 15.4958C14.8949 16.2977 15.5472 16.9503 16.3493 16.9503C17.1515 16.9503 17.8038 16.2977 17.8038 15.4958C17.8038 14.6939 17.1515 14.0414 16.3493 14.0414C15.5472 14.0414 14.8949 14.6939 14.8949 15.4958ZM15.9888 15.4958C15.9888 15.2972 16.1508 15.1353 16.3493 15.1353C16.5479 15.1353 16.7099 15.2972 16.7099 15.4958C16.7099 15.6944 16.5479 15.8564 16.3493 15.8564C16.1508 15.8564 15.9888 15.6944 15.9888 15.4958Z" fill="#FAF8FE" stroke="#FAF8FE" stroke-width="0.3"/>
<path d="M10.9027 12.2502L10.9028 12.2503C11.1694 12.5008 11.509 12.6379 11.8662 12.6379C11.8949 12.6379 11.9235 12.637 11.9522 12.6353L11.9523 12.6353C12.3788 12.6093 12.7826 12.4146 13.0608 12.0995L13.061 12.0994C13.3088 11.8178 13.4361 11.4653 13.4128 11.1059L13.4128 11.1058C13.3588 10.2818 12.7214 9.64687 11.919 9.64687C11.0946 9.64687 10.4242 10.3172 10.4242 11.1416C10.4242 11.56 10.5984 11.964 10.9027 12.2502ZM12.2404 11.3756L12.2401 11.3759C12.1559 11.4716 12.0281 11.5342 11.888 11.5434C11.8009 11.5452 11.7192 11.5163 11.6521 11.4533C11.5672 11.3732 11.5181 11.2597 11.5181 11.1416C11.5181 10.9206 11.698 10.7408 11.919 10.7408C12.1501 10.7408 12.3056 10.9387 12.3211 11.1773L12.3211 11.1773C12.3248 11.2341 12.3024 11.3055 12.2404 11.3756Z" fill="#FAF8FE" stroke="#FAF8FE" stroke-width="0.3"/>
<path d="M6.11562 15.4188C6.11562 16.223 6.76966 16.8771 7.57373 16.8771C8.37781 16.8771 9.03184 16.223 9.03184 15.4188C9.03184 14.6149 8.37778 13.9608 7.57373 13.9608C6.76969 13.9608 6.11562 14.6149 6.11562 15.4188ZM7.20952 15.4188C7.20952 15.2183 7.37298 15.0547 7.57373 15.0547C7.77449 15.0547 7.93795 15.2183 7.93795 15.4188C7.93795 15.6197 7.77442 15.7832 7.57373 15.7832C7.37305 15.7832 7.20952 15.6197 7.20952 15.4188Z" fill="#FAF8FE" stroke="#FAF8FE" stroke-width="0.3"/>
</svg>
