<svg width="29" height="29" viewBox="0 0 29 29" fill="none" xmlns="http://www.w3.org/2000/svg">
<path fill-rule="evenodd" clip-rule="evenodd" d="M16.3737 2.13999C16.3158 1.77566 16.048 1.48008 15.6921 1.38719C14.5339 1.08318 13.3179 1.08318 12.1597 1.38719C11.8039 1.48008 11.536 1.77566 11.4781 2.13999L11.2875 3.34759C11.2284 3.38016 11.1705 3.41394 11.1126 3.44893L9.97133 3.0098C9.62751 2.87709 9.23784 2.96155 8.97847 3.22333C8.1364 4.07385 7.52837 5.12823 7.21229 6.28276C7.11578 6.63744 7.23763 7.01626 7.52355 7.2491L8.4754 8.01878C8.47419 8.08513 8.47419 8.15268 8.4754 8.22024L7.52355 8.98871C7.23763 9.22155 7.11578 9.60037 7.21229 9.95505C7.52837 11.1096 8.1364 12.164 8.97847 13.0145C9.23784 13.2763 9.62751 13.3607 9.97133 13.228L11.1138 12.7889C11.1705 12.8239 11.2296 12.8576 11.2875 12.8902L11.4781 14.0978C11.536 14.4621 11.8039 14.7577 12.1597 14.8506C13.3179 15.1546 14.5339 15.1546 15.6921 14.8506C16.048 14.7577 16.3158 14.4621 16.3737 14.0978L16.5643 12.8902C16.6234 12.8576 16.6813 12.8239 16.7392 12.7889L17.8805 13.228C18.2243 13.3607 18.614 13.2763 18.8734 13.0145C19.7154 12.164 20.3235 11.1096 20.6395 9.95505C20.736 9.60037 20.6142 9.22155 20.3283 8.98871L19.3764 8.21903C19.3776 8.15267 19.3776 8.08512 19.3764 8.01757L20.3283 7.2491C20.6142 7.01626 20.736 6.63744 20.6395 6.28276C20.3235 5.12823 19.7154 4.07385 18.8734 3.22333C18.614 2.96155 18.2243 2.87709 17.8805 3.0098L16.738 3.44893C16.6813 3.41394 16.6222 3.38016 16.5643 3.34759L16.3737 2.13999ZM14.6401 3.0653L14.8066 4.11245C14.856 4.42611 15.0623 4.69274 15.3543 4.8182C15.6076 4.92798 15.8477 5.0667 16.0697 5.23198C16.3254 5.42139 16.6596 5.46724 16.9564 5.35263L17.9456 4.97261C18.24 5.35021 18.4813 5.76642 18.6598 6.21038L17.8358 6.87751C17.5885 7.07777 17.4619 7.39024 17.4981 7.70511C17.5294 7.98017 17.5294 8.25764 17.4981 8.5327C17.4619 8.84757 17.5885 9.16004 17.8358 9.3603L18.6598 10.0274C18.4813 10.4714 18.24 10.8876 17.9456 11.264L16.9564 10.8852C16.6596 10.7706 16.3254 10.8164 16.0697 11.0058C15.8477 11.1711 15.6076 11.3098 15.3543 11.4196C15.0623 11.5451 14.856 11.8117 14.8066 12.1254L14.6401 13.1725C14.166 13.2401 13.6858 13.2401 13.2117 13.1725L13.0452 12.1254C12.9958 11.8117 12.7895 11.5451 12.4975 11.4196C12.2442 11.3098 12.0041 11.1711 11.7821 11.0058C11.5264 10.8164 11.1922 10.7706 10.8954 10.8852L9.90618 11.2652C9.61182 10.8876 9.37054 10.4714 9.19199 10.0274L10.016 9.3603C10.2633 9.16004 10.39 8.84757 10.3538 8.5327C10.3224 8.25764 10.3224 7.98017 10.3538 7.70511C10.39 7.39024 10.2633 7.07777 10.016 6.87751L9.19199 6.21038C9.37054 5.76642 9.61182 5.35022 9.90618 4.97383L10.8954 5.35263C11.1922 5.46724 11.5264 5.42139 11.7821 5.23198C12.0041 5.0667 12.2442 4.92798 12.4975 4.8182C12.7895 4.69274 12.9958 4.42611 13.0452 4.11245L13.2117 3.0653C13.6858 2.99774 14.166 2.99774 14.6401 3.0653ZM13.9259 5.56254C12.5144 5.56254 11.3695 6.70742 11.3695 8.1189C11.3695 9.53039 12.5144 10.6753 13.9259 10.6753C15.3374 10.6753 16.4823 9.53039 16.4823 8.1189C16.4823 6.70742 15.3374 5.56254 13.9259 5.56254ZM13.9259 7.41799C14.3132 7.41799 14.6268 7.73165 14.6268 8.1189C14.6268 8.50616 14.3132 8.81981 13.9259 8.81981C13.5387 8.81981 13.225 8.50616 13.225 8.1189C13.225 7.73165 13.5387 7.41799 13.9259 7.41799Z" fill="white"/>
<path fill-rule="evenodd" clip-rule="evenodd" d="M5.60574 13.7378C4.98862 14.9804 4.64062 16.3808 4.64062 17.8628V24.3588C4.64062 25.0975 4.93387 25.8056 5.45634 26.3271C5.97787 26.8496 6.68594 27.1428 7.42462 27.1428C10.6383 27.1428 17.203 27.1428 20.4166 27.1428C21.1553 27.1428 21.8634 26.8496 22.3849 26.3271C22.9074 25.8056 23.2006 25.0975 23.2006 24.3588C23.2006 22.7515 23.2006 20.3072 23.2006 17.8628C23.2006 16.3808 22.8526 14.9804 22.2355 13.7378C22.0072 13.2794 21.4504 13.092 20.9911 13.3193C20.5326 13.5476 20.3452 14.1053 20.5735 14.5638C21.0672 15.5576 21.3446 16.6777 21.3446 17.8628V24.3588C21.3446 24.6047 21.2472 24.8414 21.0727 25.0149C20.8992 25.1894 20.6625 25.2868 20.4166 25.2868H7.42462C7.1787 25.2868 6.94207 25.1894 6.76853 25.0149C6.59407 24.8414 6.49662 24.6047 6.49662 24.3588V17.8628C6.49662 16.6777 6.7741 15.5576 7.26779 14.5638C7.49608 14.1053 7.30862 13.5476 6.85019 13.3193C6.39083 13.092 5.83403 13.2794 5.60574 13.7378Z" fill="white"/>
<path fill-rule="evenodd" clip-rule="evenodd" d="M11.1445 17.8647V20.6491C11.1445 20.8951 11.242 21.1318 11.4165 21.3053L13.2728 23.1616C13.6348 23.5246 14.2232 23.5246 14.5852 23.1616L16.4415 21.3053C16.616 21.1318 16.7135 20.8951 16.7135 20.6491V17.8647C16.7135 17.3523 16.2976 16.9365 15.7853 16.9365C15.273 16.9365 14.8571 17.3523 14.8571 17.8647V20.2649L13.929 21.193L13.0008 20.2649V17.8647C13.0008 17.3523 12.585 16.9365 12.0727 16.9365C11.5603 16.9365 11.1445 17.3523 11.1445 17.8647Z" fill="white"/>
</svg>
