<svg width="79" height="26" viewBox="0 0 79 26" fill="none" xmlns="http://www.w3.org/2000/svg">
<g clip-path="url(#clip0_63_7799)">
<path d="M6.33749 23.1208C4.84466 23.0609 3.44882 22.7986 2.13033 22.2549C2.0922 22.2345 2.07258 22.2147 2.0339 22.2147C1.43241 21.9932 1.08372 21.5704 0.948058 20.9057C0.754099 19.9182 0.463161 18.9517 0.23052 17.9649C0.153154 17.6625 0.114471 17.3601 0.0757886 17.0379C0.0561748 16.9175 0.0561748 16.7966 0.0948575 16.6959C0.114471 16.6151 0.191837 16.4942 0.269202 16.4744C0.366182 16.454 0.501844 16.4947 0.56014 16.575C0.676733 16.7559 0.773713 16.9576 0.831464 17.1594C1.06411 17.9247 1.39373 18.6493 1.89769 19.2739C3.06144 20.7039 4.51504 21.6506 6.31842 21.8926C7.69466 22.0734 9.01314 21.8722 10.1954 21.0668C11.1456 20.4224 11.8435 19.5559 12.1148 18.3679C12.5218 16.4744 11.5918 14.742 10.1954 14.0575C9.01314 13.4731 7.77202 13.0102 6.53145 12.567C5.32956 12.1437 4.16635 11.6203 3.10013 10.9155C2.18863 10.3107 1.45202 9.56573 1.00635 8.53872C0.638051 7.6926 0.521458 6.78655 0.579754 5.85959C0.754099 3.42294 2.07258 1.8522 4.16635 0.985725C5.9888 0.220421 7.869 0.179725 9.74975 0.804856C10.1763 0.945595 10.5637 1.14681 10.9712 1.32825C11.3009 1.48933 11.5913 1.44864 11.8626 1.18694C11.9018 1.14681 11.9405 1.12646 11.9792 1.08633C12.1345 0.94503 12.3279 0.985725 12.4249 1.16659C12.4831 1.32825 12.5414 1.48877 12.5414 1.65042C12.5611 2.63729 12.7741 3.60381 12.9294 4.5709C12.9871 4.9332 13.0258 5.29607 13.0841 5.65838C13.101 5.7542 13.0876 5.85312 13.046 5.94042C12.9871 6.04103 12.8901 6.14164 12.8128 6.16199C12.7354 6.18233 12.5997 6.12186 12.5414 6.04103C12.4437 5.90133 12.3715 5.74424 12.3284 5.57755C11.9596 4.36912 11.2616 3.44273 10.2733 2.71755C9.34276 2.05286 8.31522 1.58994 7.17108 1.44864C6.22144 1.32825 5.25165 1.32825 4.35977 1.77081C3.33277 2.29477 2.55693 3.06007 2.34391 4.28886C2.14995 5.41646 2.36297 6.46381 3.06144 7.37042C3.52673 7.97464 4.08844 8.43812 4.78637 8.69981C6.08578 9.18307 7.38465 9.66633 8.66391 10.1699C9.8658 10.6334 11.0099 11.2173 11.9601 12.1036C12.8901 12.9695 13.5303 14.0168 13.7046 15.3264C14.0343 17.884 13.2394 20.0194 11.2039 21.5704C10.1377 22.3956 8.91562 22.8393 7.61729 23.0004C7.1324 23.0806 6.7058 23.101 6.33749 23.1208ZM42.5331 9.2639C42.4361 9.58607 42.3588 9.90825 42.2618 10.2304C42.1648 10.5328 42.0678 10.855 41.9322 11.1574C41.6025 11.943 40.4976 11.9023 40.1288 11.2981C39.9544 10.9957 39.7997 10.6736 39.7027 10.3316C39.1595 8.47768 38.6365 6.60512 38.1129 4.75177C38.0933 4.69186 38.0933 4.65116 38.0742 4.59068H39.4505C39.5671 4.59068 39.5671 4.69186 39.5867 4.75177L40.2841 7.2896C40.575 8.35786 40.885 9.42499 41.1759 10.4921C41.1956 10.5328 41.1956 10.5927 41.2146 10.6131C41.2729 10.6736 41.3508 10.7742 41.4086 10.7742C41.4669 10.7742 41.5829 10.6736 41.6025 10.5933L42.2422 8.23633C42.2618 8.17586 42.2422 8.09503 42.2231 8.01477C41.9126 6.92729 41.6216 5.85959 41.3116 4.77212C41.2925 4.71164 41.2729 4.63081 41.2533 4.55055H42.6688C42.7075 4.55055 42.7658 4.63138 42.7848 4.69186C43.0567 5.63803 43.3084 6.58533 43.5803 7.53151C43.8516 8.51838 44.1229 9.50525 44.3942 10.4723C44.4139 10.5125 44.4139 10.5729 44.4329 10.6136C44.4716 10.6736 44.5495 10.7544 44.6073 10.7544C44.665 10.7544 44.7626 10.6939 44.8012 10.6131C44.8595 10.4921 44.8791 10.3712 44.9178 10.2508C45.4409 8.39742 45.9454 6.56499 46.4488 4.71164C46.488 4.57033 46.5267 4.51042 46.682 4.53077C46.8176 4.55055 46.9337 4.53077 47.089 4.53077C46.9533 4.99425 46.8367 5.43681 46.701 5.90029C46.2941 7.35007 45.8871 8.82077 45.4605 10.2706C45.3849 10.5752 45.2675 10.8671 45.1118 11.137C44.6852 11.882 43.6963 11.9023 43.2703 11.137C43.0567 10.734 42.921 10.2909 42.7658 9.84777C42.6884 9.6262 42.6295 9.40464 42.5718 9.18307C42.5527 9.2639 42.5331 9.2639 42.5331 9.2639ZM63.2382 11.5191H61.5906C61.552 11.5191 61.474 11.4796 61.455 11.4389C60.951 10.331 60.4465 9.2232 59.9425 8.09559V8.07525C60.1365 8.0549 60.3108 8.03512 60.5048 7.97464C61.0867 7.83333 61.3967 7.53151 61.455 6.90694C61.474 6.60512 61.455 6.26259 61.3771 5.9602C61.2414 5.41646 60.8344 5.1949 60.3305 5.13499C60.0204 5.09429 59.7295 5.11464 59.419 5.09429C59.3029 5.09429 59.2446 5.13442 59.2642 5.25538V11.4592H57.8297V4.54999C57.8874 4.54999 57.9261 4.52964 57.9844 4.52964H60.5822C61.0474 4.52964 61.5127 4.59012 61.9393 4.77155C63.0056 5.21468 63.1608 6.26203 62.9091 7.04768C62.7342 7.59142 62.3076 7.89325 61.7846 8.0142C61.7067 8.03455 61.6489 8.0549 61.552 8.07468C62.0946 9.26333 62.6569 10.3706 63.2382 11.5191ZM32.0446 17.4211C31.8507 17.5421 31.6763 17.6223 31.502 17.7229C31.405 17.5619 31.3276 17.4008 31.2307 17.2595C30.7262 16.5349 29.9705 16.2528 29.156 16.5349C28.6329 16.7157 28.3224 17.0989 28.1093 17.602C27.9154 18.0457 27.8375 18.5086 27.8184 18.9924C27.7601 19.7572 27.7988 20.523 28.0897 21.2476C28.2259 21.6105 28.4194 21.9327 28.6907 22.1944C29.059 22.5572 29.5052 22.698 30.0092 22.5974C30.4161 22.5166 30.7065 22.2752 30.8231 21.8722C30.9201 21.5099 30.9593 21.1272 30.9975 20.7644C31.0171 20.4219 30.9975 20.0997 30.9975 19.7572V19.5565H32.2386V25.8005H30.9784V22.6183C30.901 22.6579 30.8814 22.6788 30.8422 22.6986C29.9122 23.4237 28.9429 23.4034 27.9928 22.8195C26.9652 22.1949 26.4416 21.2284 26.306 20.02C26.209 19.1337 26.3256 18.2876 26.7909 17.5223C27.2948 16.6564 28.0124 16.0719 29.0012 15.9312C30.0282 15.7701 30.9784 15.9713 31.6959 16.8372C31.8316 17.039 31.9286 17.2193 32.0446 17.4211ZM42.5135 17.4409C42.3392 17.5415 42.1648 17.6427 41.9905 17.7235C41.8935 17.5619 41.8161 17.4008 41.7186 17.26C41.2533 16.5546 40.5554 16.2935 39.7605 16.4947C39.2756 16.6151 38.9269 16.9373 38.6943 17.3804C38.4616 17.8038 38.3646 18.2667 38.326 18.7302C38.2486 19.4955 38.2682 20.2608 38.4812 20.9859C38.5973 21.3889 38.7918 21.7716 39.0822 22.0938C39.4309 22.4764 39.8575 22.6579 40.362 22.5968C40.8273 22.5572 41.1569 22.2746 41.2925 21.8117C41.3699 21.5297 41.4282 21.2075 41.4473 20.9255C41.4669 20.5428 41.4473 20.1398 41.4473 19.7572V19.5565H42.6884V25.8005H41.4473V22.6183C41.4051 22.63 41.3657 22.6504 41.3312 22.6782C40.3233 23.5645 38.9078 23.283 38.0742 22.5572C37.1045 21.7117 36.6975 20.6242 36.7558 19.3349C36.8141 17.9858 37.3567 16.9384 38.5008 16.2737C39.3922 15.7498 40.3424 15.7498 41.2729 16.1324C41.8543 16.4145 42.2427 16.8367 42.5135 17.4409ZM20.1412 11.7412C18.2605 11.7412 16.826 10.3514 16.6516 8.39742C16.5933 7.75307 16.6516 7.12851 16.8456 6.52429C17.3109 5.15477 18.3765 4.38946 19.8312 4.40981C21.3818 4.42959 22.7003 5.45716 23.1269 6.98777C23.3786 7.87403 23.3399 8.73994 23.0686 9.60642C22.6224 10.9556 21.5371 11.7412 20.1412 11.7412ZM18.1254 8.05546C18.1445 8.33694 18.1635 8.63933 18.1831 8.92138C18.2605 9.58607 18.4545 10.2101 18.8805 10.7137C19.4624 11.3987 20.4126 11.4191 20.9748 10.7137C21.1879 10.4322 21.3818 10.1095 21.4979 9.76751C21.8084 8.8609 21.8084 7.89438 21.6722 6.94707C21.5758 6.3632 21.3818 5.79968 20.9939 5.35655C20.4316 4.69186 19.5011 4.67151 18.9394 5.3362C18.7454 5.55777 18.6097 5.81946 18.4741 6.08116C18.2022 6.72551 18.1445 7.39077 18.1254 8.05546ZM27.7988 4.59068H29.3303V5.15477C29.3303 5.1949 29.2333 5.25538 29.1756 5.25538C28.7877 5.25538 28.3801 5.27573 27.9933 5.25538C27.8375 5.25538 27.7988 5.29607 27.7988 5.45716V11.5191H26.3447V2.41573C26.3447 2.09355 26.3839 1.75103 26.4416 1.42886C26.5582 0.784508 26.9461 0.381508 27.5662 0.280899C28.0897 0.200073 28.6133 0.220421 29.1173 0.200073C29.2143 0.200073 29.2529 0.240204 29.2529 0.341378C29.2726 0.783943 29.2726 0.783943 28.865 0.804291C28.7294 0.804291 28.5746 0.824638 28.439 0.844421C27.9731 0.94503 27.7988 1.12703 27.7988 1.63007C27.7797 2.27442 27.7988 2.93912 27.7797 3.58403C27.7988 3.92599 27.7988 4.24872 27.7988 4.59068ZM16.632 16.0917H17.9892C18.0279 16.0917 18.0862 16.172 18.0862 16.233C18.1052 16.4139 18.0862 16.5948 18.0862 16.7564V20.5428C18.0862 20.8452 18.1445 21.1674 18.2218 21.4494C18.3962 21.9932 18.8228 22.2549 19.366 22.3153C19.5207 22.3387 19.6784 22.3318 19.8307 22.295C20.4709 22.1944 20.7809 21.8117 20.8779 21.0668C20.9165 20.7644 20.9361 20.4422 20.9361 20.1398V16.3133C20.9361 16.1319 20.9939 16.0714 21.1688 16.0714C21.5758 16.0917 21.5758 16.0714 21.5758 16.4942C21.5758 17.8846 21.5948 19.2739 21.5758 20.6638C21.5758 21.0261 21.5175 21.4291 21.4014 21.7716C21.1301 22.5968 20.5286 23.0405 19.7146 23.1615C19.2221 23.2391 18.7192 23.2046 18.2409 23.0603C17.3882 22.7986 16.8843 22.1944 16.729 21.3081C16.6754 21.0366 16.6495 20.76 16.6516 20.4829V16.3331C16.632 16.2726 16.632 16.2127 16.632 16.0917ZM54.9601 11.5191H53.4869L53.0216 9.8879C52.9633 9.72681 52.9633 9.48546 52.8472 9.40464C52.7307 9.32438 52.5176 9.36451 52.3427 9.36451H50.5601C50.4048 9.36451 50.3465 9.42499 50.3274 9.56573C50.1721 10.1705 49.9978 10.7742 49.8425 11.3784C49.8038 11.4993 49.7652 11.5395 49.6295 11.5395C49.4933 11.5197 49.3386 11.5395 49.1642 11.5395C49.2612 11.1975 49.3386 10.8951 49.4159 10.5729C49.8812 8.86033 50.3274 7.1692 50.7927 5.45716C50.8308 5.3362 50.8505 5.23559 50.9087 5.13499C51.2771 4.30864 52.2855 4.14755 52.8669 4.81281C53.0608 5.03381 53.1965 5.31586 53.2738 5.59846C53.8348 7.51474 54.3841 9.43463 54.9219 11.358C54.9219 11.3987 54.9416 11.4389 54.9606 11.5197M52.7116 8.78064C52.6925 8.72016 52.6925 8.65968 52.6734 8.61955L52.4403 7.77399C52.2709 7.11253 52.09 6.45432 51.8976 5.79968C51.8589 5.63859 51.8006 5.43738 51.5871 5.45773C51.3936 5.45773 51.3936 5.65894 51.3353 5.79968C51.3157 5.84038 51.3157 5.90086 51.2967 5.94099C51.1414 6.48472 51.0057 7.02846 50.8505 7.5722C50.7344 7.9752 50.6374 8.3782 50.5208 8.80099C51.258 8.78064 51.9755 8.78064 52.7116 8.78064ZM70.3727 4.59068V5.15477H68.1629C67.562 5.15477 67.4454 5.27573 67.4454 5.87994V7.47103C67.5423 7.47103 67.6197 7.49138 67.678 7.49138H69.6361C69.8105 7.49138 69.8687 7.55186 69.8491 7.71294C69.8491 8.15607 69.8491 8.15607 69.4231 8.15607H67.4257V10.3514C67.4257 10.7538 67.5227 10.8748 67.9106 10.9155C68.085 10.9352 68.2789 10.9352 68.4533 10.9352H70.4506V11.4993H67.0574C66.9605 11.4993 66.8444 11.4993 66.7474 11.479C66.2239 11.3987 66.0299 11.1975 66.0108 10.6334C65.9912 10.4119 65.9912 10.2101 65.9912 9.98907C65.9912 8.47825 65.9912 6.96742 66.0108 5.47694C66.0108 5.39668 66.0299 5.31586 66.0299 5.23559C66.1078 4.81225 66.2625 4.65116 66.6891 4.59125C66.8444 4.5709 66.9997 4.55055 67.1544 4.55055H70.1984C70.2567 4.59068 70.3144 4.59068 70.3727 4.59068ZM51.6448 18.9919V19.6362H49.2601C49.2601 19.717 49.241 19.7775 49.241 19.838V21.771C49.241 21.8519 49.241 21.9327 49.2601 22.0129C49.2993 22.2549 49.3767 22.3555 49.6289 22.3956C49.7646 22.4159 49.9193 22.4363 50.0746 22.4363H52.2654V22.9998H48.8727C48.7365 22.9998 48.5818 22.98 48.4461 22.9602C48.1165 22.8992 47.9231 22.7183 47.8643 22.3555C47.8403 22.209 47.8276 22.0609 47.8261 21.9123V17.1589C47.8261 17.0176 47.8452 16.857 47.8643 16.7157C47.9422 16.2929 48.1748 16.1115 48.6978 16.0917C49.6867 16.0714 50.6952 16.0714 51.6835 16.0714H52.091C52.1292 16.0714 52.2071 16.1115 52.2071 16.1522C52.2267 16.2935 52.2267 16.4139 52.2071 16.5546C52.2071 16.5953 52.1101 16.6355 52.0523 16.6355H50.7142C50.4037 16.6355 50.0942 16.6355 49.7837 16.6558C49.4154 16.6756 49.2988 16.7966 49.2797 17.1589C49.2601 17.7229 49.2797 18.2667 49.2797 18.8308C49.2797 18.9721 49.3571 18.9721 49.4541 18.9721H51.4705C51.4901 18.9919 51.5674 18.9919 51.6448 18.9919ZM57.0348 22.3555C57.3061 22.3962 57.5774 22.4561 57.8297 22.4968C58.2754 22.5572 58.721 22.5572 59.1476 22.4363C59.9235 22.2147 60.1752 21.3889 59.6325 20.7847C59.419 20.5428 59.1286 20.3614 58.8567 20.1799C58.3914 19.8578 57.8874 19.5961 57.4418 19.2338C56.9765 18.8709 56.8212 18.3475 56.8986 17.7631C56.9956 16.8367 57.6161 16.2935 58.3914 16.0917C59.0507 15.9109 59.7099 15.9504 60.3691 16.0312C60.4465 16.0312 60.5048 16.0516 60.5822 16.0516C60.6405 16.0714 60.6988 16.0714 60.7761 16.0912V16.6355C60.4539 16.5931 60.1307 16.5596 59.8069 16.5349C59.4386 16.4947 59.0893 16.5145 58.7603 16.6558C58.1784 16.8972 58.0231 17.5217 58.4497 18.005C58.6437 18.2266 58.915 18.408 59.1476 18.5691C59.6325 18.8912 60.1169 19.2134 60.6018 19.5158C61.765 20.2608 61.571 22.1949 60.2722 22.7788C59.7295 23.0202 59.1863 23.101 58.605 23.0806C58.1201 23.0609 57.6548 22.98 57.1704 22.9195C57.0735 22.8992 57.0348 22.8591 57.0348 22.7585V22.3555ZM34.255 11.5191H32.8003V5.39725C32.8003 5.21581 32.7622 5.17568 32.5878 5.17568C32.1999 5.19546 31.812 5.17568 31.405 5.17568V4.6116H35.6699V5.17568H34.4097C34.3128 5.17568 34.255 5.21581 34.2741 5.31699V11.2783C34.255 11.3388 34.255 11.4196 34.255 11.5202M68.5503 23.0004H67.1157V16.6558H65.8555C65.7395 16.6558 65.7003 16.6151 65.7003 16.4947C65.7199 15.9911 65.6425 16.0917 66.0882 16.0917H69.7522C69.8301 16.0917 69.9074 16.0917 70.0044 16.1121C70.0044 16.2732 70.024 16.4139 70.0044 16.5552C70.0044 16.5948 69.9074 16.6558 69.8688 16.6558H68.8995C68.5503 16.6558 68.5889 16.6151 68.5889 16.978V22.7381C68.5503 22.8387 68.5503 22.9196 68.5503 23.0004ZM75.3552 1.10668C77.1389 1.10668 78.5931 2.61694 78.5931 4.46973C78.5931 6.32251 77.1389 7.8339 75.3552 7.8339C73.5714 7.8339 72.1178 6.32307 72.1178 4.47029C72.1178 2.59716 73.5714 1.08633 75.3552 1.10668ZM72.6218 4.44994C72.621 4.82275 72.6912 5.19205 72.8283 5.53668C72.9653 5.88131 73.1666 6.19451 73.4205 6.45834C73.6744 6.72217 73.976 6.93144 74.308 7.07418C74.6399 7.21691 74.9958 7.29031 75.3552 7.29016C75.7145 7.29031 76.0704 7.21691 76.4024 7.07418C76.7343 6.93144 77.0359 6.72217 77.2898 6.45834C77.5437 6.19451 77.745 5.88131 77.882 5.53668C78.0191 5.19205 78.0893 4.82275 78.0886 4.44994C78.0893 4.07713 78.0191 3.70784 77.882 3.3632C77.745 3.01857 77.5437 2.70537 77.2898 2.44155C77.0359 2.17772 76.7343 1.96845 76.4024 1.82571C76.0704 1.68297 75.7145 1.60958 75.3552 1.60973C74.9958 1.60958 74.6399 1.68297 74.308 1.82571C73.976 1.96845 73.6744 2.17772 73.4205 2.44155C73.1666 2.70537 72.9653 3.01857 72.8283 3.3632C72.6912 3.70784 72.621 4.07713 72.6218 4.44994Z" fill="#001965"/>
<path d="M75.9757 4.83262C76.2083 5.23562 76.46 5.61827 76.6926 6.0207H76.2274C76.2083 6.0207 76.2083 6.0207 76.1887 6.00092C75.956 5.63805 75.743 5.27575 75.5104 4.8931C75.4908 4.87275 75.4908 4.87275 75.4717 4.87275H74.8511V6.0207H74.3472V2.91992H75.6656C75.8013 2.91992 75.956 2.9397 76.0917 2.9804C76.2083 3.02053 76.3243 3.06066 76.4213 3.14149C76.557 3.2421 76.6736 3.38284 76.7123 3.56427C76.7319 3.66488 76.7509 3.74514 76.7509 3.84631C76.7706 3.96727 76.7319 4.08823 76.7123 4.20862C76.6926 4.28944 76.6736 4.3697 76.6153 4.45053C76.4992 4.61162 76.3636 4.73257 76.1696 4.7727C76.1057 4.79535 76.041 4.81496 75.9757 4.83262ZM74.8511 4.43018H75.5687C75.6264 4.43018 75.6656 4.43018 75.7234 4.4104C75.8013 4.39005 75.8591 4.37027 75.937 4.34992C75.9947 4.32957 76.0339 4.30979 76.0726 4.28944C76.15 4.22897 76.2083 4.16849 76.2274 4.06788C76.2666 3.94692 76.2666 3.84631 76.247 3.72536C76.2274 3.6451 76.2083 3.56427 76.1309 3.52414L75.956 3.40318C75.9136 3.38117 75.8676 3.36756 75.8204 3.36305C75.7817 3.36305 75.7621 3.36305 75.7234 3.3427C75.6847 3.3427 75.6264 3.32236 75.5877 3.32236H74.8511V4.43018Z" fill="#001965"/>
</g>
<defs>
<clipPath id="clip0_63_7799">
<rect width="79" height="26" fill="white"/>
</clipPath>
</defs>
</svg>
