<svg width="78" height="14" viewBox="0 0 78 14" fill="none" xmlns="http://www.w3.org/2000/svg">
<mask id="path-1-inside-1_2629_45344" fill="white">
<path fill-rule="evenodd" clip-rule="evenodd" d="M7.00794 11.9256L3.4231 13.7907C3.08996 13.9641 2.67789 13.8373 2.50263 13.5041C2.43284 13.3728 2.40879 13.2225 2.43419 13.0763C2.86447 10.6058 2.02926 8.07072 0.225355 6.32879C-0.0440509 6.06869 -0.0498446 5.642 0.213043 5.37509C0.317609 5.26884 0.454694 5.1997 0.60303 5.1784C3.09235 4.82243 5.2815 3.26204 6.40395 1.01181C6.57051 0.677909 6.98331 0.540695 7.31645 0.705496C7.45093 0.771084 7.55976 0.87876 7.62605 1.01181C8.74849 3.26204 10.9376 4.82243 13.427 5.1784C13.5529 5.19625 13.6714 5.24868 13.7687 5.32974C13.8661 5.4108 13.9386 5.51725 13.9779 5.637C14.0173 5.75676 14.0219 5.88502 13.9912 6.00724C13.9606 6.12945 13.896 6.24073 13.8046 6.32843C12.0007 8.07036 11.1655 10.6055 11.5958 13.0759C11.611 13.1632 11.6087 13.2526 11.589 13.339C11.5692 13.4254 11.5324 13.5071 11.4807 13.5794C11.429 13.6517 11.3634 13.7132 11.2877 13.7604C11.2119 13.8076 11.1275 13.8396 11.0392 13.8545C10.8915 13.8795 10.7394 13.8559 10.6069 13.7828L7.03641 11.9251C7.02745 11.9205 7.01675 11.9206 7.00794 11.9256ZM22.8373 11.9256L19.2518 13.7907C18.9186 13.9641 18.5066 13.8373 18.3313 13.5041C18.2615 13.3728 18.2375 13.2225 18.2629 13.0763C18.6932 10.6058 17.8579 8.07072 16.054 6.32879C15.7846 6.06869 15.7788 5.642 16.0417 5.37509C16.1463 5.26884 16.2834 5.1997 16.4317 5.1784C18.921 4.82243 21.1102 3.26204 22.2326 1.01181C22.3992 0.677909 22.812 0.540695 23.1451 0.705496C23.2796 0.771084 23.3884 0.87876 23.4547 1.01181C24.5772 3.26204 26.7663 4.82243 29.2556 5.1784C29.3816 5.19625 29.5 5.24868 29.5974 5.32974C29.6948 5.4108 29.7673 5.51725 29.8066 5.637C29.8459 5.75676 29.8505 5.88502 29.8199 6.00724C29.7893 6.12945 29.7246 6.24073 29.6333 6.32843C27.8294 8.07036 26.9942 10.6055 27.4245 13.0759C27.4397 13.1632 27.4374 13.2526 27.4176 13.339C27.3979 13.4254 27.3611 13.5071 27.3094 13.5794C27.2577 13.6517 27.1921 13.7132 27.1164 13.7604C27.0406 13.8076 26.9562 13.8396 26.8679 13.8545C26.7202 13.8795 26.5681 13.8559 26.4356 13.7828L22.8645 11.9249C22.856 11.9204 22.8457 11.9207 22.8373 11.9256ZM38.6693 11.9256L35.0837 13.7907C34.7506 13.9641 34.3385 13.8373 34.1632 13.5041C34.0935 13.3728 34.0694 13.2225 34.0948 13.0763C34.5251 10.6058 33.6899 8.07072 31.886 6.32879C31.7945 6.2411 31.7298 6.1298 31.6991 6.00753C31.6684 5.88526 31.673 5.75693 31.7123 5.63711C31.7517 5.51729 31.8242 5.41079 31.9217 5.3297C32.0191 5.24862 32.1376 5.1962 32.2636 5.1784C34.753 4.82243 36.9421 3.26204 38.0646 1.01181C38.2311 0.677909 38.6439 0.540695 38.9771 0.705496C39.1114 0.771303 39.2202 0.878917 39.2867 1.01181C40.4091 3.26204 42.5983 4.82243 45.0876 5.1784C45.4606 5.23214 45.7176 5.57429 45.6641 5.94258C45.6425 6.08934 45.5727 6.22497 45.4653 6.32843C43.6614 8.07036 42.8261 10.6055 43.2564 13.0759C43.3198 13.4432 43.0707 13.7918 42.6995 13.8545C42.5518 13.8795 42.4 13.8559 42.2672 13.7828L38.6958 11.9247C38.6874 11.9203 38.6774 11.9207 38.6693 11.9256ZM54.4987 11.9256L50.9138 13.7907C50.8344 13.8319 50.7475 13.8572 50.6582 13.8651C50.5688 13.8731 50.4788 13.8634 50.3932 13.8368C50.3076 13.8101 50.2282 13.767 50.1595 13.7099C50.0909 13.6528 50.0343 13.5829 49.993 13.5041C49.9235 13.3729 49.8989 13.2225 49.9206 13.0763C50.3509 10.6058 49.5157 8.07072 47.7118 6.32879C47.6203 6.2411 47.5556 6.1298 47.5249 6.00753C47.4942 5.88526 47.4988 5.75693 47.5381 5.63711C47.5775 5.51729 47.65 5.41079 47.7474 5.3297C47.8449 5.24862 47.9634 5.1962 48.0894 5.1784C50.5788 4.82243 52.7679 3.26204 53.8904 1.01181C54.0569 0.677909 54.4697 0.540695 54.8029 0.705496C54.9372 0.771303 55.0459 0.878917 55.1125 1.01181C56.2349 3.26204 58.4241 4.82243 60.9134 5.1784C61.002 5.19104 61.0872 5.22084 61.1641 5.26611C61.2411 5.31137 61.3083 5.3712 61.3618 5.44219C61.4154 5.51317 61.4542 5.5939 61.4762 5.67977C61.4982 5.76563 61.5028 5.85494 61.4898 5.94258C61.4681 6.08588 61.3986 6.22489 61.2907 6.32843C59.4868 8.07036 58.6516 10.6055 59.0818 13.0759C59.1037 13.2 59.0899 13.3277 59.042 13.4444C58.9942 13.5611 58.9142 13.6622 58.8113 13.7362C58.7083 13.8103 58.5864 13.8542 58.4594 13.8632C58.3324 13.8721 58.2055 13.8456 58.0929 13.7867L54.5158 11.926C54.5105 11.9232 54.5042 11.9231 54.4987 11.9256Z"/>
<path d="M66.8464 13.7907L70.4312 11.9256C70.4367 11.9231 70.443 11.9232 70.4484 11.926L74.0255 13.7867C74.138 13.8456 74.2649 13.8721 74.3919 13.8632C74.5189 13.8542 74.6408 13.8103 74.7438 13.7362C74.8468 13.6622 74.9267 13.5611 74.9745 13.4444C75.0224 13.3277 75.0362 13.2 75.0144 13.0759C74.5841 10.6055 75.4193 8.07036 77.2232 6.32843C77.3311 6.22489 77.4006 6.08588 77.4224 5.94258C77.4353 5.85494 77.4307 5.76563 77.4087 5.67977C77.3867 5.5939 77.3479 5.51317 77.2943 5.44219C77.2408 5.3712 77.1736 5.31137 77.0967 5.26611C77.0197 5.22084 76.9345 5.19104 76.8459 5.1784C74.3566 4.82243 72.1674 3.26204 71.045 1.01181C70.9785 0.878917 70.8697 0.771303 70.7354 0.705496C70.4022 0.540695 69.9894 0.677909 69.8229 1.01181C68.7004 3.26204 66.5113 4.82243 64.0219 5.1784C63.8959 5.1962 63.7774 5.24862 63.68 5.3297C63.5825 5.41079 63.51 5.51729 63.4707 5.63711C63.4313 5.75693 63.4267 5.88526 63.4574 6.00753C63.4881 6.1298 63.5528 6.2411 63.6443 6.32879C65.4482 8.07072 66.2834 10.6058 65.8531 13.0763C65.8314 13.2225 65.856 13.3729 65.9255 13.5041C65.9668 13.5829 66.0234 13.6528 66.0921 13.7099C66.1607 13.767 66.2402 13.8101 66.3257 13.8368C66.4113 13.8634 66.5013 13.8731 66.5907 13.8651C66.68 13.8572 66.7669 13.8319 66.8464 13.7907Z"/>
</mask>
<path fill-rule="evenodd" clip-rule="evenodd" d="M7.00794 11.9256L3.4231 13.7907C3.08996 13.9641 2.67789 13.8373 2.50263 13.5041C2.43284 13.3728 2.40879 13.2225 2.43419 13.0763C2.86447 10.6058 2.02926 8.07072 0.225355 6.32879C-0.0440509 6.06869 -0.0498446 5.642 0.213043 5.37509C0.317609 5.26884 0.454694 5.1997 0.60303 5.1784C3.09235 4.82243 5.2815 3.26204 6.40395 1.01181C6.57051 0.677909 6.98331 0.540695 7.31645 0.705496C7.45093 0.771084 7.55976 0.87876 7.62605 1.01181C8.74849 3.26204 10.9376 4.82243 13.427 5.1784C13.5529 5.19625 13.6714 5.24868 13.7687 5.32974C13.8661 5.4108 13.9386 5.51725 13.9779 5.637C14.0173 5.75676 14.0219 5.88502 13.9912 6.00724C13.9606 6.12945 13.896 6.24073 13.8046 6.32843C12.0007 8.07036 11.1655 10.6055 11.5958 13.0759C11.611 13.1632 11.6087 13.2526 11.589 13.339C11.5692 13.4254 11.5324 13.5071 11.4807 13.5794C11.429 13.6517 11.3634 13.7132 11.2877 13.7604C11.2119 13.8076 11.1275 13.8396 11.0392 13.8545C10.8915 13.8795 10.7394 13.8559 10.6069 13.7828L7.03641 11.9251C7.02745 11.9205 7.01675 11.9206 7.00794 11.9256ZM22.8373 11.9256L19.2518 13.7907C18.9186 13.9641 18.5066 13.8373 18.3313 13.5041C18.2615 13.3728 18.2375 13.2225 18.2629 13.0763C18.6932 10.6058 17.8579 8.07072 16.054 6.32879C15.7846 6.06869 15.7788 5.642 16.0417 5.37509C16.1463 5.26884 16.2834 5.1997 16.4317 5.1784C18.921 4.82243 21.1102 3.26204 22.2326 1.01181C22.3992 0.677909 22.812 0.540695 23.1451 0.705496C23.2796 0.771084 23.3884 0.87876 23.4547 1.01181C24.5772 3.26204 26.7663 4.82243 29.2556 5.1784C29.3816 5.19625 29.5 5.24868 29.5974 5.32974C29.6948 5.4108 29.7673 5.51725 29.8066 5.637C29.8459 5.75676 29.8505 5.88502 29.8199 6.00724C29.7893 6.12945 29.7246 6.24073 29.6333 6.32843C27.8294 8.07036 26.9942 10.6055 27.4245 13.0759C27.4397 13.1632 27.4374 13.2526 27.4176 13.339C27.3979 13.4254 27.3611 13.5071 27.3094 13.5794C27.2577 13.6517 27.1921 13.7132 27.1164 13.7604C27.0406 13.8076 26.9562 13.8396 26.8679 13.8545C26.7202 13.8795 26.5681 13.8559 26.4356 13.7828L22.8645 11.9249C22.856 11.9204 22.8457 11.9207 22.8373 11.9256ZM38.6693 11.9256L35.0837 13.7907C34.7506 13.9641 34.3385 13.8373 34.1632 13.5041C34.0935 13.3728 34.0694 13.2225 34.0948 13.0763C34.5251 10.6058 33.6899 8.07072 31.886 6.32879C31.7945 6.2411 31.7298 6.1298 31.6991 6.00753C31.6684 5.88526 31.673 5.75693 31.7123 5.63711C31.7517 5.51729 31.8242 5.41079 31.9217 5.3297C32.0191 5.24862 32.1376 5.1962 32.2636 5.1784C34.753 4.82243 36.9421 3.26204 38.0646 1.01181C38.2311 0.677909 38.6439 0.540695 38.9771 0.705496C39.1114 0.771303 39.2202 0.878917 39.2867 1.01181C40.4091 3.26204 42.5983 4.82243 45.0876 5.1784C45.4606 5.23214 45.7176 5.57429 45.6641 5.94258C45.6425 6.08934 45.5727 6.22497 45.4653 6.32843C43.6614 8.07036 42.8261 10.6055 43.2564 13.0759C43.3198 13.4432 43.0707 13.7918 42.6995 13.8545C42.5518 13.8795 42.4 13.8559 42.2672 13.7828L38.6958 11.9247C38.6874 11.9203 38.6774 11.9207 38.6693 11.9256ZM54.4987 11.9256L50.9138 13.7907C50.8344 13.8319 50.7475 13.8572 50.6582 13.8651C50.5688 13.8731 50.4788 13.8634 50.3932 13.8368C50.3076 13.8101 50.2282 13.767 50.1595 13.7099C50.0909 13.6528 50.0343 13.5829 49.993 13.5041C49.9235 13.3729 49.8989 13.2225 49.9206 13.0763C50.3509 10.6058 49.5157 8.07072 47.7118 6.32879C47.6203 6.2411 47.5556 6.1298 47.5249 6.00753C47.4942 5.88526 47.4988 5.75693 47.5381 5.63711C47.5775 5.51729 47.65 5.41079 47.7474 5.3297C47.8449 5.24862 47.9634 5.1962 48.0894 5.1784C50.5788 4.82243 52.7679 3.26204 53.8904 1.01181C54.0569 0.677909 54.4697 0.540695 54.8029 0.705496C54.9372 0.771303 55.0459 0.878917 55.1125 1.01181C56.2349 3.26204 58.4241 4.82243 60.9134 5.1784C61.002 5.19104 61.0872 5.22084 61.1641 5.26611C61.2411 5.31137 61.3083 5.3712 61.3618 5.44219C61.4154 5.51317 61.4542 5.5939 61.4762 5.67977C61.4982 5.76563 61.5028 5.85494 61.4898 5.94258C61.4681 6.08588 61.3986 6.22489 61.2907 6.32843C59.4868 8.07036 58.6516 10.6055 59.0818 13.0759C59.1037 13.2 59.0899 13.3277 59.042 13.4444C58.9942 13.5611 58.9142 13.6622 58.8113 13.7362C58.7083 13.8103 58.5864 13.8542 58.4594 13.8632C58.3324 13.8721 58.2055 13.8456 58.0929 13.7867L54.5158 11.926C54.5105 11.9232 54.5042 11.9231 54.4987 11.9256Z" fill="#FFB81D"/>
<path d="M66.8464 13.7907L70.4312 11.9256C70.4367 11.9231 70.443 11.9232 70.4484 11.926L74.0255 13.7867C74.138 13.8456 74.2649 13.8721 74.3919 13.8632C74.5189 13.8542 74.6408 13.8103 74.7438 13.7362C74.8468 13.6622 74.9267 13.5611 74.9745 13.4444C75.0224 13.3277 75.0362 13.2 75.0144 13.0759C74.5841 10.6055 75.4193 8.07036 77.2232 6.32843C77.3311 6.22489 77.4006 6.08588 77.4224 5.94258C77.4353 5.85494 77.4307 5.76563 77.4087 5.67977C77.3867 5.5939 77.3479 5.51317 77.2943 5.44219C77.2408 5.3712 77.1736 5.31137 77.0967 5.26611C77.0197 5.22084 76.9345 5.19104 76.8459 5.1784C74.3566 4.82243 72.1674 3.26204 71.045 1.01181C70.9785 0.878917 70.8697 0.771303 70.7354 0.705496C70.4022 0.540695 69.9894 0.677909 69.8229 1.01181C68.7004 3.26204 66.5113 4.82243 64.0219 5.1784C63.8959 5.1962 63.7774 5.24862 63.68 5.3297C63.5825 5.41079 63.51 5.51729 63.4707 5.63711C63.4313 5.75693 63.4267 5.88526 63.4574 6.00753C63.4881 6.1298 63.5528 6.2411 63.6443 6.32879C65.4482 8.07072 66.2834 10.6058 65.8531 13.0763C65.8314 13.2225 65.856 13.3729 65.9255 13.5041C65.9668 13.5829 66.0234 13.6528 66.0921 13.7099C66.1607 13.767 66.2402 13.8101 66.3257 13.8368C66.4113 13.8634 66.5013 13.8731 66.5907 13.8651C66.68 13.8572 66.7669 13.8319 66.8464 13.7907Z" fill="#FFB81D"/>
<path fill-rule="evenodd" clip-rule="evenodd" d="M7.00794 11.9256L3.4231 13.7907C3.08996 13.9641 2.67789 13.8373 2.50263 13.5041C2.43284 13.3728 2.40879 13.2225 2.43419 13.0763C2.86447 10.6058 2.02926 8.07072 0.225355 6.32879C-0.0440509 6.06869 -0.0498446 5.642 0.213043 5.37509C0.317609 5.26884 0.454694 5.1997 0.60303 5.1784C3.09235 4.82243 5.2815 3.26204 6.40395 1.01181C6.57051 0.677909 6.98331 0.540695 7.31645 0.705496C7.45093 0.771084 7.55976 0.87876 7.62605 1.01181C8.74849 3.26204 10.9376 4.82243 13.427 5.1784C13.5529 5.19625 13.6714 5.24868 13.7687 5.32974C13.8661 5.4108 13.9386 5.51725 13.9779 5.637C14.0173 5.75676 14.0219 5.88502 13.9912 6.00724C13.9606 6.12945 13.896 6.24073 13.8046 6.32843C12.0007 8.07036 11.1655 10.6055 11.5958 13.0759C11.611 13.1632 11.6087 13.2526 11.589 13.339C11.5692 13.4254 11.5324 13.5071 11.4807 13.5794C11.429 13.6517 11.3634 13.7132 11.2877 13.7604C11.2119 13.8076 11.1275 13.8396 11.0392 13.8545C10.8915 13.8795 10.7394 13.8559 10.6069 13.7828L7.03641 11.9251C7.02745 11.9205 7.01675 11.9206 7.00794 11.9256ZM22.8373 11.9256L19.2518 13.7907C18.9186 13.9641 18.5066 13.8373 18.3313 13.5041C18.2615 13.3728 18.2375 13.2225 18.2629 13.0763C18.6932 10.6058 17.8579 8.07072 16.054 6.32879C15.7846 6.06869 15.7788 5.642 16.0417 5.37509C16.1463 5.26884 16.2834 5.1997 16.4317 5.1784C18.921 4.82243 21.1102 3.26204 22.2326 1.01181C22.3992 0.677909 22.812 0.540695 23.1451 0.705496C23.2796 0.771084 23.3884 0.87876 23.4547 1.01181C24.5772 3.26204 26.7663 4.82243 29.2556 5.1784C29.3816 5.19625 29.5 5.24868 29.5974 5.32974C29.6948 5.4108 29.7673 5.51725 29.8066 5.637C29.8459 5.75676 29.8505 5.88502 29.8199 6.00724C29.7893 6.12945 29.7246 6.24073 29.6333 6.32843C27.8294 8.07036 26.9942 10.6055 27.4245 13.0759C27.4397 13.1632 27.4374 13.2526 27.4176 13.339C27.3979 13.4254 27.3611 13.5071 27.3094 13.5794C27.2577 13.6517 27.1921 13.7132 27.1164 13.7604C27.0406 13.8076 26.9562 13.8396 26.8679 13.8545C26.7202 13.8795 26.5681 13.8559 26.4356 13.7828L22.8645 11.9249C22.856 11.9204 22.8457 11.9207 22.8373 11.9256ZM38.6693 11.9256L35.0837 13.7907C34.7506 13.9641 34.3385 13.8373 34.1632 13.5041C34.0935 13.3728 34.0694 13.2225 34.0948 13.0763C34.5251 10.6058 33.6899 8.07072 31.886 6.32879C31.7945 6.2411 31.7298 6.1298 31.6991 6.00753C31.6684 5.88526 31.673 5.75693 31.7123 5.63711C31.7517 5.51729 31.8242 5.41079 31.9217 5.3297C32.0191 5.24862 32.1376 5.1962 32.2636 5.1784C34.753 4.82243 36.9421 3.26204 38.0646 1.01181C38.2311 0.677909 38.6439 0.540695 38.9771 0.705496C39.1114 0.771303 39.2202 0.878917 39.2867 1.01181C40.4091 3.26204 42.5983 4.82243 45.0876 5.1784C45.4606 5.23214 45.7176 5.57429 45.6641 5.94258C45.6425 6.08934 45.5727 6.22497 45.4653 6.32843C43.6614 8.07036 42.8261 10.6055 43.2564 13.0759C43.3198 13.4432 43.0707 13.7918 42.6995 13.8545C42.5518 13.8795 42.4 13.8559 42.2672 13.7828L38.6958 11.9247C38.6874 11.9203 38.6774 11.9207 38.6693 11.9256ZM54.4987 11.9256L50.9138 13.7907C50.8344 13.8319 50.7475 13.8572 50.6582 13.8651C50.5688 13.8731 50.4788 13.8634 50.3932 13.8368C50.3076 13.8101 50.2282 13.767 50.1595 13.7099C50.0909 13.6528 50.0343 13.5829 49.993 13.5041C49.9235 13.3729 49.8989 13.2225 49.9206 13.0763C50.3509 10.6058 49.5157 8.07072 47.7118 6.32879C47.6203 6.2411 47.5556 6.1298 47.5249 6.00753C47.4942 5.88526 47.4988 5.75693 47.5381 5.63711C47.5775 5.51729 47.65 5.41079 47.7474 5.3297C47.8449 5.24862 47.9634 5.1962 48.0894 5.1784C50.5788 4.82243 52.7679 3.26204 53.8904 1.01181C54.0569 0.677909 54.4697 0.540695 54.8029 0.705496C54.9372 0.771303 55.0459 0.878917 55.1125 1.01181C56.2349 3.26204 58.4241 4.82243 60.9134 5.1784C61.002 5.19104 61.0872 5.22084 61.1641 5.26611C61.2411 5.31137 61.3083 5.3712 61.3618 5.44219C61.4154 5.51317 61.4542 5.5939 61.4762 5.67977C61.4982 5.76563 61.5028 5.85494 61.4898 5.94258C61.4681 6.08588 61.3986 6.22489 61.2907 6.32843C59.4868 8.07036 58.6516 10.6055 59.0818 13.0759C59.1037 13.2 59.0899 13.3277 59.042 13.4444C58.9942 13.5611 58.9142 13.6622 58.8113 13.7362C58.7083 13.8103 58.5864 13.8542 58.4594 13.8632C58.3324 13.8721 58.2055 13.8456 58.0929 13.7867L54.5158 11.926C54.5105 11.9232 54.5042 11.9231 54.4987 11.9256Z" stroke="#EDE4FF" stroke-width="1.32325" mask="url(#path-1-inside-1_2629_45344)"/>
<path d="M66.8464 13.7907L70.4312 11.9256C70.4367 11.9231 70.443 11.9232 70.4484 11.926L74.0255 13.7867C74.138 13.8456 74.2649 13.8721 74.3919 13.8632C74.5189 13.8542 74.6408 13.8103 74.7438 13.7362C74.8468 13.6622 74.9267 13.5611 74.9745 13.4444C75.0224 13.3277 75.0362 13.2 75.0144 13.0759C74.5841 10.6055 75.4193 8.07036 77.2232 6.32843C77.3311 6.22489 77.4006 6.08588 77.4224 5.94258C77.4353 5.85494 77.4307 5.76563 77.4087 5.67977C77.3867 5.5939 77.3479 5.51317 77.2943 5.44219C77.2408 5.3712 77.1736 5.31137 77.0967 5.26611C77.0197 5.22084 76.9345 5.19104 76.8459 5.1784C74.3566 4.82243 72.1674 3.26204 71.045 1.01181C70.9785 0.878917 70.8697 0.771303 70.7354 0.705496C70.4022 0.540695 69.9894 0.677909 69.8229 1.01181C68.7004 3.26204 66.5113 4.82243 64.0219 5.1784C63.8959 5.1962 63.7774 5.24862 63.68 5.3297C63.5825 5.41079 63.51 5.51729 63.4707 5.63711C63.4313 5.75693 63.4267 5.88526 63.4574 6.00753C63.4881 6.1298 63.5528 6.2411 63.6443 6.32879C65.4482 8.07072 66.2834 10.6058 65.8531 13.0763C65.8314 13.2225 65.856 13.3729 65.9255 13.5041C65.9668 13.5829 66.0234 13.6528 66.0921 13.7099C66.1607 13.767 66.2402 13.8101 66.3257 13.8368C66.4113 13.8634 66.5013 13.8731 66.5907 13.8651C66.68 13.8572 66.7669 13.8319 66.8464 13.7907Z" stroke="#EDE4FF" stroke-width="1.32325" mask="url(#path-1-inside-1_2629_45344)"/>
</svg>
