<svg width="127" height="34" viewBox="0 0 127 34" fill="none" xmlns="http://www.w3.org/2000/svg">
<g clip-path="url(#clip0_2851_21000)">
<path d="M33.1693 11.9014H45.9486V14.4844H40.9238V29.0047H38.1607V14.4844H33.1582V11.9014H33.1693ZM45.4027 16.6208H47.7647V19.0107H47.8092C47.8872 18.6727 48.0321 18.3468 48.2437 18.033C48.4554 17.7192 48.7117 17.4175 49.0125 17.164C49.3133 16.8984 49.6476 16.6932 50.0152 16.5243C50.3829 16.3674 50.7617 16.2829 51.1405 16.2829C51.4302 16.2829 51.6419 16.2949 51.7533 16.307C51.8647 16.3191 51.9761 16.3432 52.0987 16.3553V18.9866C51.9204 18.9504 51.7422 18.9262 51.5528 18.9021C51.3634 18.8779 51.1851 18.8659 51.0068 18.8659C50.5835 18.8659 50.1824 18.9624 49.8036 19.1435C49.4247 19.3245 49.1016 19.6021 48.8231 19.9522C48.5446 20.3143 48.3217 20.7488 48.1546 21.2799C47.9875 21.811 47.9095 22.4145 47.9095 23.1025V28.9927H45.3915V16.6208H45.4027ZM63.6747 29.0047H61.2013V27.2787H61.1567C60.8447 27.9063 60.3879 28.4012 59.7752 28.7754C59.1624 29.1496 58.5385 29.3427 57.9034 29.3427C56.3993 29.3427 55.3074 28.9444 54.6389 28.1357C53.9705 27.327 53.6362 26.1079 53.6362 24.4784V16.6208H56.1542V24.2129C56.1542 25.2992 56.3436 26.0717 56.7335 26.5183C57.1124 26.9649 57.6583 27.1942 58.3491 27.1942C58.8838 27.1942 59.3184 27.1097 59.6749 26.9287C60.0314 26.7476 60.3211 26.5183 60.5328 26.2165C60.7556 25.9269 60.9116 25.5648 61.0119 25.1544C61.1121 24.744 61.1567 24.2974 61.1567 23.8146V16.6329H63.6747V29.0047ZM67.9641 25.0337C68.0421 25.8303 68.3207 26.3855 68.7998 26.7114C69.29 27.0252 69.8693 27.1942 70.549 27.1942C70.7829 27.1942 71.0503 27.1701 71.3512 27.1339C71.652 27.0977 71.9416 27.0132 72.1979 26.9045C72.4653 26.7959 72.677 26.6269 72.8552 26.4097C73.0224 26.1924 73.1004 25.9148 73.0892 25.5648C73.0781 25.2147 72.9555 24.925 72.7327 24.7078C72.5099 24.4784 72.2313 24.3095 71.8859 24.1646C71.5406 24.0319 71.1506 23.9112 70.7049 23.8146C70.2593 23.718 69.8136 23.6094 69.3568 23.5008C68.8889 23.3921 68.4321 23.2473 67.9976 23.0904C67.563 22.9335 67.1731 22.7162 66.8277 22.4386C66.4823 22.1731 66.2038 21.823 66.0032 21.4006C65.7916 20.9781 65.6913 20.4591 65.6913 19.8315C65.6913 19.1555 65.8473 18.6003 66.1481 18.1417C66.4489 17.683 66.8389 17.3209 67.2957 17.0433C67.7636 16.7657 68.2761 16.5725 68.8443 16.4518C69.4125 16.3432 69.9585 16.2829 70.471 16.2829C71.0615 16.2829 71.6297 16.3553 72.1645 16.4881C72.6993 16.6208 73.1895 16.8381 73.624 17.1519C74.0585 17.4537 74.4151 17.852 74.7047 18.3348C74.9944 18.8176 75.1727 19.409 75.2507 20.097H72.6213C72.4987 19.4452 72.2313 18.9986 71.7968 18.7814C71.3623 18.552 70.8609 18.4434 70.3038 18.4434C70.1256 18.4434 69.9139 18.4555 69.6688 18.4917C69.4237 18.5279 69.2008 18.5882 68.978 18.6727C68.7663 18.7572 68.5881 18.89 68.4321 19.059C68.2872 19.228 68.2093 19.4452 68.2093 19.7228C68.2093 20.0608 68.3207 20.3263 68.5324 20.5315C68.744 20.7367 69.0226 20.9057 69.368 21.0505C69.7133 21.1833 70.1033 21.304 70.549 21.4006C70.9946 21.4971 71.4514 21.6058 71.9194 21.7144C72.3762 21.823 72.8218 21.9679 73.2675 22.1248C73.7131 22.2817 74.1031 22.499 74.4485 22.7766C74.7939 23.0542 75.0724 23.3921 75.2841 23.8025C75.4958 24.2129 75.6072 24.7319 75.6072 25.3354C75.6072 26.0717 75.4512 26.6873 75.1392 27.2063C74.8273 27.7132 74.4262 28.1357 73.936 28.4495C73.4457 28.7633 72.8887 29.0047 72.287 29.1496C71.6854 29.2944 71.0838 29.3668 70.4933 29.3668C69.7691 29.3668 69.1006 29.2823 68.4878 29.1013C67.875 28.9202 67.3402 28.6547 66.8946 28.3047C66.4489 27.9426 66.0924 27.496 65.8361 26.9649C65.5799 26.4338 65.4462 25.7941 65.4239 25.0578H67.9641V25.0337ZM76.2757 16.6208H78.1809V12.9032H80.6988V16.6208H82.9717V18.6607H80.6988V25.2751C80.6988 25.5648 80.71 25.8062 80.7323 26.0234C80.7545 26.2286 80.8102 26.4097 80.8882 26.5545C80.9662 26.6993 81.0888 26.808 81.2559 26.8804C81.423 26.9528 81.6347 26.989 81.9244 26.989C82.1027 26.989 82.2809 26.989 82.4592 26.977C82.6374 26.9649 82.8157 26.9407 82.994 26.8925V29.0047C82.7154 29.0409 82.4369 29.0651 82.1806 29.1013C81.9133 29.1375 81.6459 29.1496 81.3673 29.1496C80.6988 29.1496 80.164 29.0771 79.763 28.9444C79.3619 28.8116 79.0388 28.6064 78.8159 28.3409C78.582 28.0753 78.4371 27.7494 78.348 27.3511C78.27 26.9528 78.2143 26.4942 78.2032 25.9872V18.6848H76.298V16.6208H76.2757ZM84.7543 16.6208H87.1386V18.2986H87.1832C87.5397 17.5744 88.0299 17.0674 88.665 16.7536C89.3 16.4398 89.9797 16.2829 90.7262 16.2829C91.6286 16.2829 92.4085 16.4518 93.077 16.8019C93.7455 17.1398 94.3026 17.6106 94.7482 18.2141C95.1939 18.8176 95.517 19.5176 95.7398 20.3143C95.9626 21.1109 96.0741 21.9679 96.0741 22.8731C96.0741 23.706 95.9738 24.5147 95.7732 25.2871C95.5727 26.0717 95.2719 26.7597 94.8708 27.3632C94.4697 27.9667 93.9572 28.4374 93.3333 28.7995C92.7093 29.1616 91.9851 29.3427 91.1384 29.3427C90.7707 29.3427 90.403 29.3065 90.0354 29.2341C89.6677 29.1616 89.3112 29.0409 88.9769 28.884C88.6427 28.7271 88.3196 28.5219 88.0411 28.2685C87.7514 28.015 87.5174 27.7253 87.3169 27.3994H87.2723V33.5793H84.7543V16.6208ZM93.5561 22.8248C93.5561 22.2696 93.4892 21.7265 93.3555 21.1954C93.2219 20.6643 93.0213 20.2056 92.7539 19.7953C92.4865 19.3849 92.1523 19.059 91.7623 18.8176C91.3612 18.5762 90.9044 18.4434 90.3919 18.4434C89.3335 18.4434 88.5313 18.8417 87.9965 19.6383C87.4617 20.435 87.1943 21.4971 87.1943 22.8248C87.1943 23.4525 87.2612 24.0319 87.406 24.5629C87.5508 25.094 87.7514 25.5527 88.0411 25.9389C88.3196 26.3252 88.6538 26.6269 89.0438 26.8442C89.4337 27.0735 89.8906 27.1821 90.4031 27.1821C90.9824 27.1821 91.4615 27.0494 91.8626 26.7959C92.2637 26.5424 92.5868 26.2045 92.843 25.8062C93.0993 25.3958 93.2887 24.9371 93.4001 24.4181C93.5004 23.8991 93.5561 23.368 93.5561 22.8248ZM98.0015 11.9014H100.52V14.4844H98.0015V11.9014ZM98.0015 16.6208H100.52V29.0047H98.0015V16.6208ZM102.77 11.9014H105.288V29.0047H102.77V11.9014ZM113.009 29.3427C112.095 29.3427 111.282 29.1737 110.569 28.8478C109.856 28.5219 109.254 28.0633 108.753 27.496C108.263 26.9166 107.884 26.2286 107.628 25.432C107.372 24.6354 107.238 23.7542 107.238 22.8007C107.238 21.8592 107.372 20.9902 107.628 20.1936C107.884 19.3969 108.263 18.709 108.753 18.1296C109.243 17.5502 109.856 17.1036 110.569 16.7777C111.282 16.4518 112.095 16.2829 113.009 16.2829C113.923 16.2829 114.736 16.4518 115.449 16.7777C116.162 17.1036 116.764 17.5623 117.265 18.1296C117.755 18.709 118.134 19.3969 118.39 20.1936C118.647 20.9902 118.78 21.8592 118.78 22.8007C118.78 23.7542 118.647 24.6354 118.39 25.432C118.134 26.2286 117.755 26.9166 117.265 27.496C116.775 28.0753 116.162 28.5219 115.449 28.8478C114.736 29.1737 113.923 29.3427 113.009 29.3427ZM113.009 27.1821C113.566 27.1821 114.056 27.0494 114.469 26.7959C114.881 26.5424 115.215 26.2045 115.482 25.7941C115.75 25.3837 115.939 24.913 116.073 24.394C116.196 23.8749 116.262 23.3439 116.262 22.8007C116.262 22.2696 116.196 21.7506 116.073 21.2195C115.95 20.6884 115.75 20.2298 115.482 19.8194C115.215 19.409 114.881 19.0831 114.469 18.8297C114.056 18.5762 113.566 18.4434 113.009 18.4434C112.452 18.4434 111.962 18.5762 111.55 18.8297C111.137 19.0831 110.803 19.4211 110.536 19.8194C110.268 20.2298 110.079 20.6884 109.945 21.2195C109.823 21.7506 109.756 22.2696 109.756 22.8007C109.756 23.3439 109.823 23.8749 109.945 24.394C110.068 24.913 110.268 25.3837 110.536 25.7941C110.803 26.2045 111.137 26.5424 111.55 26.7959C111.962 27.0614 112.452 27.1821 113.009 27.1821ZM119.516 16.6208H121.421V12.9032H123.939V16.6208H126.212V18.6607H123.939V25.2751C123.939 25.5648 123.95 25.8062 123.972 26.0234C123.995 26.2286 124.05 26.4097 124.128 26.5545C124.206 26.6993 124.329 26.808 124.496 26.8804C124.663 26.9528 124.875 26.989 125.164 26.989C125.343 26.989 125.521 26.989 125.699 26.977C125.877 26.9649 126.056 26.9407 126.234 26.8925V29.0047C125.955 29.0409 125.677 29.0651 125.421 29.1013C125.153 29.1375 124.886 29.1496 124.607 29.1496C123.939 29.1496 123.404 29.0771 123.003 28.9444C122.602 28.8116 122.279 28.6064 122.056 28.3409C121.822 28.0753 121.677 27.7494 121.588 27.3511C121.51 26.9528 121.454 26.4942 121.443 25.9872V18.6848H119.538V16.6208H119.516Z" fill="#191919"/>
<path d="M30.2248 11.9009H18.6823L15.117 -0.000183105L11.5406 11.9009L-0.00195312 11.8888L9.34574 19.2516L5.76933 31.1406L15.117 23.7899L24.4536 31.1406L20.8883 19.2516L30.2248 11.9009Z" fill="#00B67A"/>
<path d="M21.6926 21.9425L20.8904 19.2509L15.1191 23.7893L21.6926 21.9425Z" fill="#005128"/>
</g>
<defs>
<clipPath id="clip0_2851_21000">
<rect width="126.211" height="33.5789" fill="white"/>
</clipPath>
</defs>
</svg>
