<svg width="112" height="18" viewBox="0 0 112 18" fill="none" xmlns="http://www.w3.org/2000/svg">
<path d="M9.17704 1.0229L11.1163 5.04208C11.2582 5.33508 11.5326 5.5353 11.8475 5.57615L15.7167 6.06596H15.7166C15.9601 6.09927 16.1817 6.22877 16.3347 6.42712C16.4876 6.62548 16.5602 6.87731 16.537 7.12962C16.5138 7.38196 16.3968 7.61519 16.2103 7.78038L13.191 10.4329C13.06 10.5467 12.9615 10.6948 12.9054 10.8618C12.8494 11.0285 12.8382 11.2079 12.8729 11.3808L13.7725 15.848C13.8229 16.0973 13.7772 16.3568 13.6452 16.5719C13.5132 16.787 13.3053 16.9406 13.0653 17.0002C12.8256 17.0599 12.5726 17.0209 12.3601 16.8914L8.74255 14.7042C8.59817 14.6183 8.43457 14.573 8.26784 14.573C8.10111 14.573 7.93751 14.6183 7.79314 14.7042L4.1804 16.9085H4.18023C3.9678 17.038 3.71494 17.0771 3.47502 17.0175C3.23527 16.9578 3.02732 16.8043 2.89532 16.5892C2.76319 16.3741 2.71766 16.1144 2.76783 15.8651L3.66277 11.3803C3.69754 11.2074 3.68628 11.028 3.63031 10.8613C3.57418 10.6944 3.47566 10.5463 3.34469 10.4325L0.330003 7.81169C0.143398 7.64597 0.0264953 7.41191 0.00397873 7.15888C-0.01854 6.90585 0.0551413 6.65368 0.209464 6.45551C0.363782 6.2575 0.586651 6.12902 0.830874 6.09724L5.04667 5.58539C5.38247 5.54439 5.67173 5.32246 5.80635 5.00247L7.46792 1.08357V1.08374C7.56445 0.857712 7.73997 0.677639 7.95971 0.57959C8.17927 0.481523 8.42683 0.472641 8.6525 0.554817C8.87818 0.636823 9.06546 0.803911 9.17705 1.02241L9.17704 1.0229Z" fill="#FFAB00"/>
<path d="M32.8372 1.0229L34.7765 5.04208C34.9184 5.33508 35.1927 5.5353 35.5076 5.57615L39.3769 6.06596H39.3767C39.6203 6.09927 39.8418 6.22877 39.9948 6.42712C40.1478 6.62548 40.2203 6.87731 40.1972 7.12962C40.174 7.38196 40.0569 7.61519 39.8705 7.78038L36.8512 10.4329C36.7202 10.5467 36.6217 10.6948 36.5655 10.8618C36.5096 11.0285 36.4983 11.2079 36.5331 11.3808L37.4327 15.848C37.483 16.0973 37.4373 16.3568 37.3054 16.5719C37.1734 16.787 36.9654 16.9406 36.7255 17.0002C36.4857 17.0599 36.2327 17.0209 36.0203 16.8914L32.4027 14.7042C32.2583 14.6183 32.0947 14.573 31.928 14.573C31.7613 14.573 31.5977 14.6183 31.4533 14.7042L27.8406 16.9085H27.8404C27.628 17.038 27.3751 17.0771 27.1352 17.0175C26.8954 16.9578 26.6875 16.8043 26.5555 16.5892C26.4233 16.3741 26.3778 16.1144 26.428 15.8651L27.3229 11.3803C27.3577 11.2074 27.3464 11.028 27.2905 10.8613C27.2343 10.6944 27.1358 10.5463 27.0048 10.4325L23.9902 7.81169C23.8036 7.64597 23.6867 7.41191 23.6641 7.15888C23.6416 6.90585 23.7153 6.65368 23.8696 6.45551C24.0239 6.2575 24.2468 6.12902 24.491 6.09724L28.7068 5.58539C29.0426 5.54439 29.3319 5.32246 29.4665 5.00247L31.1281 1.08357V1.08374C31.2246 0.857712 31.4001 0.677639 31.6199 0.57959C31.8394 0.481523 32.087 0.472641 32.3127 0.554817C32.5383 0.636823 32.7256 0.803911 32.8372 1.02241L32.8372 1.0229Z" fill="#FFAB00"/>
<path d="M56.4964 1.0229L58.4356 5.04208C58.5775 5.33508 58.8519 5.5353 59.1668 5.57615L63.0361 6.06596H63.0359C63.2795 6.09927 63.501 6.22877 63.654 6.42712C63.807 6.62548 63.8795 6.87731 63.8563 7.12962C63.8332 7.38196 63.7161 7.61519 63.5296 7.78038L60.5103 10.4329C60.3794 10.5467 60.2808 10.6948 60.2247 10.8618C60.1688 11.0285 60.1575 11.2079 60.1923 11.3808L61.0919 15.848C61.1422 16.0973 61.0965 16.3568 60.9645 16.5719C60.8326 16.787 60.6246 16.9406 60.3847 17.0002C60.1449 17.0599 59.8919 17.0209 59.6795 16.8914L56.0619 14.7042C55.9175 14.6183 55.7539 14.573 55.5872 14.573C55.4204 14.573 55.2568 14.6183 55.1125 14.7042L51.4997 16.9085H51.4996C51.2871 17.038 51.0343 17.0771 50.7944 17.0175C50.5546 16.9578 50.3467 16.8043 50.2147 16.5892C50.0825 16.3741 50.037 16.1144 50.0872 15.8651L50.9821 11.3803C51.0169 11.2074 51.0056 11.028 50.9496 10.8613C50.8935 10.6944 50.795 10.5463 50.664 10.4325L47.6493 7.81169C47.4627 7.64597 47.3458 7.41191 47.3233 7.15888C47.3008 6.90585 47.3745 6.65368 47.5288 6.45551C47.6831 6.2575 47.906 6.12902 48.1502 6.09724L52.366 5.58539C52.7018 5.54439 52.9911 5.32246 53.1257 5.00247L54.7873 1.08357V1.08374C54.8838 0.857712 55.0593 0.677639 55.279 0.57959C55.4986 0.481523 55.7462 0.472641 55.9718 0.554817C56.1975 0.636823 56.3848 0.803911 56.4964 1.02241L56.4964 1.0229Z" fill="#FFAB00"/>
<path d="M80.1565 1.0229L82.0958 5.04208C82.2377 5.33508 82.5121 5.5353 82.827 5.57615L86.6962 6.06596H86.6961C86.9396 6.09927 87.1612 6.22877 87.3142 6.42712C87.4671 6.62548 87.5397 6.87731 87.5165 7.12962C87.4933 7.38196 87.3762 7.61519 87.1898 7.78038L84.1705 10.4329C84.0395 10.5467 83.941 10.6948 83.8849 10.8618C83.8289 11.0285 83.8177 11.2079 83.8524 11.3808L84.752 15.848C84.8024 16.0973 84.7567 16.3568 84.6247 16.5719C84.4927 16.787 84.2848 16.9406 84.0448 17.0002C83.8051 17.0599 83.5521 17.0209 83.3396 16.8914L79.722 14.7042C79.5777 14.6183 79.4141 14.573 79.2473 14.573C79.0806 14.573 78.917 14.6183 78.7726 14.7042L75.1599 16.9085H75.1597C74.9473 17.038 74.6944 17.0771 74.4545 17.0175C74.2148 16.9578 74.0068 16.8043 73.8748 16.5892C73.7427 16.3741 73.6971 16.1144 73.7473 15.8651L74.6423 11.3803C74.677 11.2074 74.6658 11.028 74.6098 10.8613C74.5537 10.6944 74.4552 10.5463 74.3242 10.4325L71.3095 7.81169C71.1229 7.64597 71.006 7.41191 70.9835 7.15888C70.961 6.90585 71.0346 6.65368 71.189 6.45551C71.3433 6.2575 71.5661 6.12902 71.8104 6.09724L76.0262 5.58539C76.362 5.54439 76.6512 5.32246 76.7858 5.00247L78.4474 1.08357V1.08374C78.5439 0.857712 78.7195 0.677639 78.9392 0.57959C79.1588 0.481523 79.4063 0.472641 79.632 0.554817C79.8577 0.636823 80.0449 0.803911 80.1565 1.02241L80.1565 1.0229Z" fill="#FFAB00"/>
<path d="M103.817 1.0229L105.756 5.04208C105.898 5.33508 106.172 5.5353 106.487 5.57615L110.356 6.06596H110.356C110.6 6.09927 110.821 6.22877 110.974 6.42712C111.127 6.62548 111.2 6.87731 111.177 7.12962C111.153 7.38196 111.036 7.61519 110.85 7.78038L107.831 10.4329C107.7 10.5467 107.601 10.6948 107.545 10.8618C107.489 11.0285 107.478 11.2079 107.513 11.3808L108.412 15.848C108.463 16.0973 108.417 16.3568 108.285 16.5719C108.153 16.787 107.945 16.9406 107.705 17.0002C107.465 17.0599 107.212 17.0209 107 16.8914L103.382 14.7042C103.238 14.6183 103.074 14.573 102.907 14.573C102.741 14.573 102.577 14.6183 102.433 14.7042L98.82 16.9085H98.8199C98.6074 17.038 98.3546 17.0771 98.1147 17.0175C97.8749 16.9578 97.667 16.8043 97.535 16.5892C97.4028 16.3741 97.3573 16.1144 97.4075 15.8651L98.3024 11.3803C98.3372 11.2074 98.3259 11.028 98.27 10.8613C98.2138 10.6944 98.1153 10.5463 97.9843 10.4325L94.9697 7.81169C94.783 7.64597 94.6661 7.41191 94.6436 7.15888C94.6211 6.90585 94.6948 6.65368 94.8491 6.45551C95.0034 6.2575 95.2263 6.12902 95.4705 6.09724L99.6863 5.58539C100.022 5.54439 100.311 5.32246 100.446 5.00247L102.108 1.08357V1.08374C102.204 0.857712 102.38 0.677639 102.599 0.57959C102.819 0.481523 103.066 0.472641 103.292 0.554817C103.518 0.636823 103.705 0.803911 103.817 1.02241L103.817 1.0229Z" fill="#FFAB00"/>
<mask id="mask0_1_67350" style="mask-type:alpha" maskUnits="userSpaceOnUse" x="94" y="0" width="18" height="18">
<path d="M103.817 1.0229L105.756 5.04208C105.898 5.33508 106.172 5.5353 106.487 5.57615L110.356 6.06596H110.356C110.6 6.09927 110.821 6.22877 110.974 6.42712C111.127 6.62548 111.2 6.87731 111.177 7.12962C111.153 7.38196 111.036 7.61519 110.85 7.78038L107.831 10.4329C107.7 10.5467 107.601 10.6948 107.545 10.8618C107.489 11.0285 107.478 11.2079 107.513 11.3808L108.412 15.848C108.463 16.0973 108.417 16.3568 108.285 16.5719C108.153 16.787 107.945 16.9406 107.705 17.0002C107.465 17.0599 107.212 17.0209 107 16.8914L103.382 14.7042C103.238 14.6183 103.074 14.573 102.907 14.573C102.741 14.573 102.577 14.6183 102.433 14.7042L98.82 16.9085H98.8199C98.6074 17.038 98.3546 17.0771 98.1147 17.0175C97.8749 16.9578 97.667 16.8043 97.535 16.5892C97.4028 16.3741 97.3573 16.1144 97.4075 15.8651L98.3024 11.3803C98.3372 11.2074 98.3259 11.028 98.27 10.8613C98.2138 10.6944 98.1153 10.5463 97.9843 10.4325L94.9697 7.81169C94.783 7.64597 94.6661 7.41191 94.6436 7.15888C94.6211 6.90585 94.6948 6.65368 94.8491 6.45551C95.0034 6.2575 95.2263 6.12902 95.4705 6.09724L99.6863 5.58539C100.022 5.54439 100.311 5.32246 100.446 5.00247L102.108 1.08357V1.08374C102.204 0.857712 102.38 0.677639 102.599 0.57959C102.819 0.481523 103.066 0.472641 103.292 0.554817C103.518 0.636823 103.705 0.803911 103.817 1.02241L103.817 1.0229Z" fill="#FFCC00"/>
</mask>
<g mask="url(#mask0_1_67350)">
<rect x="106.47" y="-1.56543" width="14.2438" height="24.8119" fill="#E5E5E5"/>
</g>
</svg>
