<svg width="103" height="16" viewBox="0 0 103 16" fill="none" xmlns="http://www.w3.org/2000/svg">
<path d="M9.0611 0.879778L10.8289 4.54268C10.9583 4.80971 11.2084 4.99218 11.4955 5.02941L15.0227 5.4758H15.0225C15.2446 5.50616 15.4465 5.62418 15.586 5.80495C15.7254 5.98572 15.7916 6.21523 15.7704 6.44518C15.7493 6.67515 15.6426 6.8877 15.4726 7.03825L12.7202 9.45566C12.6008 9.55936 12.511 9.69435 12.4599 9.84647C12.4088 9.99844 12.3986 10.1619 12.4303 10.3195L13.2504 14.3908C13.2962 14.6179 13.2546 14.8544 13.1343 15.0505C13.014 15.2465 12.8244 15.3865 12.6057 15.4408C12.3871 15.4952 12.1565 15.4597 11.9628 15.3416L8.66502 13.3483C8.5334 13.27 8.38427 13.2288 8.23228 13.2288C8.08029 13.2288 7.93115 13.27 7.79954 13.3483L4.50616 15.3572H4.50601C4.31236 15.4752 4.08185 15.5109 3.86314 15.4565C3.64458 15.4022 3.45502 15.2622 3.33469 15.0662C3.21424 14.8701 3.17273 14.6335 3.21846 14.4063L4.03429 10.3191C4.06599 10.1615 4.05573 9.99803 4.00471 9.84607C3.95354 9.69395 3.86373 9.55896 3.74433 9.45526L0.996143 7.06678C0.826034 6.91575 0.719466 6.70244 0.69894 6.47184C0.678411 6.24124 0.745579 6.01142 0.88626 5.83082C1.02694 5.65036 1.2301 5.53327 1.45274 5.50431L5.29586 5.03783C5.60197 5.00046 5.86566 4.79821 5.98838 4.50658L7.50307 0.935075V0.935231C7.59107 0.729236 7.75107 0.565126 7.95139 0.475768C8.15154 0.386395 8.37721 0.3783 8.58293 0.453192C8.78867 0.527929 8.95938 0.680205 9.06112 0.879332L9.0611 0.879778Z" fill="#FFAB00"/>
<path d="M30.6314 0.879778L32.3992 4.54268C32.5286 4.80971 32.7787 4.99218 33.0658 5.02941L36.593 5.4758H36.5928C36.8149 5.50616 37.0169 5.62418 37.1563 5.80495C37.2958 5.98572 37.3619 6.21523 37.3408 6.44518C37.3196 6.67515 37.2129 6.8877 37.0429 7.03825L34.2905 9.45566C34.1712 9.55936 34.0813 9.69435 34.0302 9.84647C33.9792 9.99844 33.9689 10.1619 34.0006 10.3195L34.8207 14.3908C34.8666 14.6179 34.8249 14.8544 34.7046 15.0505C34.5843 15.2465 34.3947 15.3865 34.176 15.4408C33.9574 15.4952 33.7268 15.4597 33.5331 15.3416L30.2353 13.3483C30.1037 13.27 29.9546 13.2288 29.8026 13.2288C29.6506 13.2288 29.5015 13.27 29.3699 13.3483L26.0765 15.3572H26.0763C25.8827 15.4752 25.6522 15.5109 25.4335 15.4565C25.2149 15.4022 25.0253 15.2622 24.905 15.0662C24.7845 14.8701 24.743 14.6335 24.7888 14.4063L25.6046 10.3191C25.6363 10.1615 25.626 9.99803 25.575 9.84607C25.5239 9.69395 25.434 9.55896 25.3146 9.45526L22.5665 7.06678C22.3963 6.91575 22.2898 6.70244 22.2693 6.47184C22.2487 6.24124 22.3159 6.01142 22.4566 5.83082C22.5972 5.65036 22.8004 5.53327 23.023 5.50431L26.8662 5.03783C27.1723 5.00046 27.436 4.79821 27.5587 4.50658L29.0734 0.935075V0.935231C29.1614 0.729236 29.3214 0.565126 29.5217 0.475768C29.7218 0.386395 29.9475 0.3783 30.1532 0.453192C30.359 0.527929 30.5297 0.680205 30.6314 0.879332L30.6314 0.879778Z" fill="#FFAB00"/>
<path d="M52.1978 0.879778L53.9657 4.54268C54.095 4.80971 54.3451 4.99218 54.6322 5.02941L58.1594 5.4758H58.1593C58.3813 5.50616 58.5833 5.62418 58.7227 5.80495C58.8622 5.98572 58.9283 6.21523 58.9072 6.44518C58.886 6.67515 58.7793 6.8877 58.6094 7.03825L55.857 9.45566C55.7376 9.55936 55.6477 9.69435 55.5966 9.84647C55.5456 9.99844 55.5353 10.1619 55.567 10.3195L56.3871 14.3908C56.433 14.6179 56.3913 14.8544 56.271 15.0505C56.1507 15.2465 55.9611 15.3865 55.7424 15.4408C55.5238 15.4952 55.2932 15.4597 55.0995 15.3416L51.8017 13.3483C51.6701 13.27 51.521 13.2288 51.369 13.2288C51.217 13.2288 51.0679 13.27 50.9363 13.3483L47.6429 15.3572H47.6427C47.4491 15.4752 47.2186 15.5109 46.9999 15.4565C46.7813 15.4022 46.5917 15.2622 46.4714 15.0662C46.351 14.8701 46.3094 14.6335 46.3552 14.4063L47.171 10.3191C47.2027 10.1615 47.1924 9.99803 47.1414 9.84607C47.0903 9.69395 47.0004 9.55896 46.8811 9.45526L44.1329 7.06678C43.9628 6.91575 43.8562 6.70244 43.8357 6.47184C43.8151 6.24124 43.8823 6.01142 44.023 5.83082C44.1637 5.65036 44.3668 5.53327 44.5895 5.50431L48.4326 5.03783C48.7387 5.00046 49.0024 4.79821 49.1251 4.50658L50.6398 0.935075V0.935231C50.7278 0.729236 50.8878 0.565126 51.0881 0.475768C51.2883 0.386395 51.5139 0.3783 51.7197 0.453192C51.9254 0.527929 52.0961 0.680205 52.1978 0.879332L52.1978 0.879778Z" fill="#FFAB00"/>
<path d="M73.7642 0.879778L75.5321 4.54268C75.6614 4.80971 75.9115 4.99218 76.1986 5.02941L79.7258 5.4758H79.7257C79.9477 5.50616 80.1497 5.62418 80.2891 5.80495C80.4286 5.98572 80.4947 6.21523 80.4736 6.44518C80.4524 6.67515 80.3457 6.8877 80.1758 7.03825L77.4234 9.45566C77.304 9.55936 77.2142 9.69435 77.163 9.84647C77.112 9.99844 77.1017 10.1619 77.1334 10.3195L77.9535 14.3908C77.9994 14.6179 77.9577 14.8544 77.8374 15.0505C77.7171 15.2465 77.5275 15.3865 77.3088 15.4408C77.0902 15.4952 76.8596 15.4597 76.6659 15.3416L73.3681 13.3483C73.2365 13.27 73.0874 13.2288 72.9354 13.2288C72.7834 13.2288 72.6343 13.27 72.5027 13.3483L69.2093 15.3572H69.2091C69.0155 15.4752 68.785 15.5109 68.5663 15.4565C68.3477 15.4022 68.1581 15.2622 68.0378 15.0662C67.9174 14.8701 67.8759 14.6335 67.9216 14.4063L68.7374 10.3191C68.7691 10.1615 68.7589 9.99803 68.7078 9.84607C68.6567 9.69395 68.5669 9.55896 68.4475 9.45526L65.6993 7.06678C65.5292 6.91575 65.4226 6.70244 65.4021 6.47184C65.3815 6.24124 65.4487 6.01142 65.5894 5.83082C65.7301 5.65036 65.9332 5.53327 66.1559 5.50431L69.999 5.03783C70.3051 5.00046 70.5688 4.79821 70.6915 4.50658L72.2062 0.935075V0.935231C72.2942 0.729236 72.4542 0.565126 72.6545 0.475768C72.8547 0.386395 73.0803 0.3783 73.2861 0.453192C73.4918 0.527929 73.6625 0.680205 73.7642 0.879332L73.7642 0.879778Z" fill="#FFAB00"/>
<path d="M95.3345 0.879778L97.1024 4.54268C97.2317 4.80971 97.4818 4.99218 97.7689 5.02941L101.296 5.4758H101.296C101.518 5.50616 101.72 5.62418 101.859 5.80495C101.999 5.98572 102.065 6.21523 102.044 6.44518C102.023 6.67515 101.916 6.8877 101.746 7.03825L98.9937 9.45566C98.8743 9.55936 98.7845 9.69435 98.7333 9.84647C98.6823 9.99844 98.672 10.1619 98.7037 10.3195L99.5238 14.3908C99.5697 14.6179 99.528 14.8544 99.4077 15.0505C99.2874 15.2465 99.0978 15.3865 98.8791 15.4408C98.6605 15.4952 98.4299 15.4597 98.2362 15.3416L94.9385 13.3483C94.8068 13.27 94.6577 13.2288 94.5057 13.2288C94.3537 13.2288 94.2046 13.27 94.073 13.3483L90.7796 15.3572H90.7795C90.5858 15.4752 90.3553 15.5109 90.1366 15.4565C89.918 15.4022 89.7285 15.2622 89.6081 15.0662C89.4877 14.8701 89.4462 14.6335 89.4919 14.4063L90.3077 10.3191C90.3394 10.1615 90.3292 9.99803 90.2781 9.84607C90.227 9.69395 90.1372 9.55896 90.0178 9.45526L87.2696 7.06678C87.0995 6.91575 86.9929 6.70244 86.9724 6.47184C86.9518 6.24124 87.019 6.01142 87.1597 5.83082C87.3004 5.65036 87.5035 5.53327 87.7262 5.50431L91.5693 5.03783C91.8754 5.00046 92.1391 4.79821 92.2618 4.50658L93.7765 0.935075V0.935231C93.8645 0.729236 94.0245 0.565126 94.2248 0.475768C94.425 0.386395 94.6506 0.3783 94.8564 0.453192C95.0621 0.527929 95.2328 0.680205 95.3346 0.879332L95.3345 0.879778Z" fill="#FFAB00"/>
<mask id="mask0_4881_13253" style="mask-type:alpha" maskUnits="userSpaceOnUse" x="86" y="0" width="17" height="16">
<path d="M95.3345 0.879778L97.1024 4.54268C97.2317 4.80971 97.4818 4.99218 97.7689 5.02941L101.296 5.4758H101.296C101.518 5.50616 101.72 5.62418 101.859 5.80495C101.999 5.98572 102.065 6.21523 102.044 6.44518C102.023 6.67515 101.916 6.8877 101.746 7.03825L98.9937 9.45566C98.8743 9.55936 98.7845 9.69435 98.7333 9.84647C98.6823 9.99844 98.672 10.1619 98.7037 10.3195L99.5238 14.3908C99.5697 14.6179 99.528 14.8544 99.4077 15.0505C99.2874 15.2465 99.0978 15.3865 98.8791 15.4408C98.6605 15.4952 98.4299 15.4597 98.2362 15.3416L94.9385 13.3483C94.8068 13.27 94.6577 13.2288 94.5057 13.2288C94.3537 13.2288 94.2046 13.27 94.073 13.3483L90.7796 15.3572H90.7795C90.5858 15.4752 90.3553 15.5109 90.1366 15.4565C89.918 15.4022 89.7285 15.2622 89.6081 15.0662C89.4877 14.8701 89.4462 14.6335 89.4919 14.4063L90.3077 10.3191C90.3394 10.1615 90.3292 9.99803 90.2781 9.84607C90.227 9.69395 90.1372 9.55896 90.0178 9.45526L87.2696 7.06678C87.0995 6.91575 86.9929 6.70244 86.9724 6.47184C86.9518 6.24124 87.019 6.01142 87.1597 5.83082C87.3004 5.65036 87.5035 5.53327 87.7262 5.50431L91.5693 5.03783C91.8754 5.00046 92.1391 4.79821 92.2618 4.50658L93.7765 0.935075V0.935231C93.8645 0.729236 94.0245 0.565126 94.2248 0.475768C94.425 0.386395 94.6506 0.3783 94.8564 0.453192C95.0621 0.527929 95.2328 0.680205 95.3346 0.879332L95.3345 0.879778Z" fill="#FFCC00"/>
</mask>
<g mask="url(#mask0_4881_13253)">
<rect x="94.5078" y="-1.27344" width="12.9847" height="22.6185" fill="#E5E5E5"/>
</g>
</svg>
