<svg width="127" height="34" viewBox="0 0 127 34" fill="none" xmlns="http://www.w3.org/2000/svg">
<g clip-path="url(#clip0_2386_73267)">
<path d="M33.2065 12.1119H45.9857V14.6949H40.9609V29.2152H38.1978V14.6949H33.1953V12.1119H33.2065ZM45.4398 16.8313H47.8018V19.2212H47.8463C47.9243 18.8833 48.0692 18.5574 48.2809 18.2435C48.4925 17.9297 48.7488 17.628 49.0496 17.3745C49.3504 17.109 49.6847 16.9038 50.0523 16.7348C50.42 16.5779 50.7988 16.4934 51.1776 16.4934C51.4673 16.4934 51.679 16.5055 51.7904 16.5175C51.9018 16.5296 52.0132 16.5537 52.1358 16.5658V19.1971C51.9575 19.1609 51.7793 19.1367 51.5899 19.1126C51.4005 19.0885 51.2222 19.0764 51.0439 19.0764C50.6206 19.0764 50.2195 19.1729 49.8407 19.354C49.4619 19.535 49.1388 19.8127 48.8602 20.1627C48.5817 20.5248 48.3588 20.9593 48.1917 21.4904C48.0246 22.0215 47.9466 22.625 47.9466 23.313V29.2032H45.4286V16.8313H45.4398ZM63.7118 29.2152H61.2384V27.4892H61.1938C60.8819 28.1169 60.4251 28.6117 59.8123 28.9859C59.1995 29.3601 58.5756 29.5532 57.9405 29.5532C56.4364 29.5532 55.3445 29.1549 54.6761 28.3462C54.0076 27.5375 53.6733 26.3184 53.6733 24.689V16.8313H56.1913V24.4234C56.1913 25.5097 56.3807 26.2822 56.7707 26.7288C57.1495 27.1754 57.6954 27.4047 58.3862 27.4047C58.921 27.4047 59.3555 27.3202 59.712 27.1392C60.0685 26.9581 60.3582 26.7288 60.5699 26.4271C60.7927 26.1374 60.9487 25.7753 61.049 25.3649C61.1492 24.9545 61.1938 24.5079 61.1938 24.0251V16.8434H63.7118V29.2152ZM68.0013 25.2442C68.0792 26.0408 68.3578 26.596 68.8369 26.9219C69.3271 27.2358 69.9064 27.4047 70.5861 27.4047C70.82 27.4047 71.0874 27.3806 71.3883 27.3444C71.6891 27.3082 71.9788 27.2237 72.235 27.1151C72.5024 27.0064 72.7141 26.8374 72.8924 26.6202C73.0595 26.4029 73.1375 26.1253 73.1263 25.7753C73.1152 25.4252 72.9926 25.1356 72.7698 24.9183C72.547 24.689 72.2684 24.52 71.923 24.3751C71.5777 24.2424 71.1877 24.1217 70.742 24.0251C70.2964 23.9286 69.8507 23.8199 69.3939 23.7113C68.926 23.6027 68.4692 23.4578 68.0347 23.3009C67.6002 23.144 67.2102 22.9267 66.8648 22.6491C66.5194 22.3836 66.2409 22.0336 66.0404 21.6111C65.8287 21.1886 65.7284 20.6696 65.7284 20.042C65.7284 19.3661 65.8844 18.8108 66.1852 18.3522C66.486 17.8935 66.876 17.5314 67.3328 17.2538C67.8007 16.9762 68.3132 16.7831 68.8814 16.6624C69.4496 16.5537 69.9956 16.4934 70.5081 16.4934C71.0986 16.4934 71.6668 16.5658 72.2016 16.6986C72.7364 16.8314 73.2266 17.0486 73.6611 17.3624C74.0956 17.6642 74.4522 18.0625 74.7418 18.5453C75.0315 19.0281 75.2098 19.6195 75.2878 20.3075H72.6584C72.5358 19.6557 72.2684 19.2092 71.8339 18.9919C71.3994 18.7626 70.898 18.6539 70.341 18.6539C70.1627 18.6539 69.951 18.666 69.7059 18.7022C69.4608 18.7384 69.2379 18.7988 69.0151 18.8833C68.8034 18.9678 68.6252 19.1005 68.4692 19.2695C68.3244 19.4385 68.2464 19.6557 68.2464 19.9334C68.2464 20.2713 68.3578 20.5369 68.5695 20.7421C68.7812 20.9472 69.0597 21.1162 69.4051 21.2611C69.7505 21.3938 70.1404 21.5145 70.5861 21.6111C71.0317 21.7077 71.4885 21.8163 71.9565 21.9249C72.4133 22.0336 72.8589 22.1784 73.3046 22.3353C73.7502 22.4922 74.1402 22.7095 74.4856 22.9871C74.831 23.2647 75.1095 23.6027 75.3212 24.013C75.5329 24.4234 75.6443 24.9424 75.6443 25.5459C75.6443 26.2822 75.4883 26.8978 75.1764 27.4168C74.8644 27.9237 74.4633 28.3462 73.9731 28.66C73.4828 28.9738 72.9258 29.2152 72.3241 29.3601C71.7225 29.5049 71.1209 29.5774 70.5304 29.5774C69.8062 29.5774 69.1377 29.4929 68.5249 29.3118C67.9121 29.1308 67.3773 28.8652 66.9317 28.5152C66.486 28.1531 66.1295 27.7065 65.8732 27.1754C65.617 26.6443 65.4833 26.0046 65.461 25.2683H68.0013V25.2442ZM76.3128 16.8313H78.218V13.1138H80.7359V16.8313H83.0088V18.8712H80.7359V25.4856C80.7359 25.7753 80.7471 26.0167 80.7694 26.2339C80.7916 26.4391 80.8474 26.6202 80.9254 26.765C81.0033 26.9099 81.1259 27.0185 81.293 27.0909C81.4601 27.1633 81.6718 27.1995 81.9615 27.1995C82.1398 27.1995 82.318 27.1995 82.4963 27.1875C82.6746 27.1754 82.8528 27.1513 83.0311 27.103V29.2152C82.7526 29.2515 82.474 29.2756 82.2178 29.3118C81.9504 29.348 81.683 29.3601 81.4044 29.3601C80.7359 29.3601 80.2012 29.2877 79.8001 29.1549C79.399 29.0221 79.0759 28.8169 78.853 28.5514C78.6191 28.2859 78.4742 27.96 78.3851 27.5616C78.3071 27.1633 78.2514 26.7047 78.2403 26.1977V18.8953H76.3351V16.8313H76.3128ZM84.7914 16.8313H87.1757V18.5091H87.2203C87.5768 17.7849 88.067 17.2779 88.7021 16.9641C89.3372 16.6503 90.0168 16.4934 90.7633 16.4934C91.6657 16.4934 92.4456 16.6624 93.1141 17.0124C93.7826 17.3504 94.3397 17.8211 94.7853 18.4246C95.231 19.0281 95.5541 19.7282 95.7769 20.5248C95.9997 21.3214 96.1112 22.1784 96.1112 23.0836C96.1112 23.9165 96.0109 24.7252 95.8103 25.4977C95.6098 26.2822 95.309 26.9702 94.9079 27.5737C94.5068 28.1772 93.9943 28.648 93.3704 29.0101C92.7464 29.3722 92.0223 29.5532 91.1755 29.5532C90.8078 29.5532 90.4402 29.517 90.0725 29.4446C89.7048 29.3722 89.3483 29.2515 89.0141 29.0945C88.6798 28.9376 88.3567 28.7324 88.0782 28.479C87.7885 28.2255 87.5545 27.9358 87.354 27.6099H87.3094V33.7898H84.7914V16.8313ZM93.5932 23.0354C93.5932 22.4801 93.5264 21.937 93.3927 21.4059C93.259 20.8748 93.0584 20.4162 92.791 20.0058C92.5236 19.5954 92.1894 19.2695 91.7994 19.0281C91.3983 18.7867 90.9415 18.6539 90.429 18.6539C89.3706 18.6539 88.5684 19.0522 88.0336 19.8489C87.4988 20.6455 87.2314 21.7077 87.2314 23.0354C87.2314 23.663 87.2983 24.2424 87.4431 24.7735C87.5879 25.3045 87.7885 25.7632 88.0782 26.1494C88.3567 26.5357 88.691 26.8374 89.0809 27.0547C89.4709 27.284 89.9277 27.3927 90.4402 27.3927C91.0195 27.3927 91.4986 27.2599 91.8997 27.0064C92.3008 26.753 92.6239 26.415 92.8801 26.0167C93.1364 25.6063 93.3258 25.1476 93.4372 24.6286C93.5375 24.1096 93.5932 23.5785 93.5932 23.0354ZM98.0386 12.1119H100.557V14.6949H98.0386V12.1119ZM98.0386 16.8313H100.557V29.2152H98.0386V16.8313ZM102.807 12.1119H105.325V29.2152H102.807V12.1119ZM113.046 29.5532C112.133 29.5532 111.319 29.3842 110.606 29.0583C109.893 28.7324 109.292 28.2738 108.79 27.7065C108.3 27.1271 107.921 26.4391 107.665 25.6425C107.409 24.8459 107.275 23.9648 107.275 23.0112C107.275 22.0698 107.409 21.2007 107.665 20.4041C107.921 19.6075 108.3 18.9195 108.79 18.3401C109.28 17.7607 109.893 17.3142 110.606 16.9883C111.319 16.6624 112.133 16.4934 113.046 16.4934C113.96 16.4934 114.773 16.6624 115.486 16.9883C116.199 17.3142 116.801 17.7728 117.302 18.3401C117.792 18.9195 118.171 19.6075 118.428 20.4041C118.684 21.2007 118.817 22.0698 118.817 23.0112C118.817 23.9648 118.684 24.8459 118.428 25.6425C118.171 26.4391 117.792 27.1271 117.302 27.7065C116.812 28.2859 116.199 28.7324 115.486 29.0583C114.773 29.3842 113.96 29.5532 113.046 29.5532ZM113.046 27.3927C113.603 27.3927 114.093 27.2599 114.506 27.0064C114.918 26.753 115.252 26.415 115.52 26.0046C115.787 25.5942 115.976 25.1235 116.11 24.6045C116.233 24.0855 116.3 23.5544 116.3 23.0112C116.3 22.4801 116.233 21.9611 116.11 21.43C115.988 20.899 115.787 20.4403 115.52 20.0299C115.252 19.6195 114.918 19.2936 114.506 19.0402C114.093 18.7867 113.603 18.6539 113.046 18.6539C112.489 18.6539 111.999 18.7867 111.587 19.0402C111.174 19.2936 110.84 19.6316 110.573 20.0299C110.305 20.4403 110.116 20.899 109.982 21.43C109.86 21.9611 109.793 22.4801 109.793 23.0112C109.793 23.5544 109.86 24.0855 109.982 24.6045C110.105 25.1235 110.305 25.5942 110.573 26.0046C110.84 26.415 111.174 26.753 111.587 27.0064C111.999 27.272 112.489 27.3927 113.046 27.3927ZM119.553 16.8313H121.458V13.1138H123.976V16.8313H126.249V18.8712H123.976V25.4856C123.976 25.7753 123.987 26.0167 124.009 26.2339C124.032 26.4391 124.087 26.6202 124.165 26.765C124.243 26.9099 124.366 27.0185 124.533 27.0909C124.7 27.1633 124.912 27.1995 125.202 27.1995C125.38 27.1995 125.558 27.1995 125.736 27.1875C125.915 27.1754 126.093 27.1513 126.271 27.103V29.2152C125.993 29.2515 125.714 29.2756 125.458 29.3118C125.19 29.348 124.923 29.3601 124.644 29.3601C123.976 29.3601 123.441 29.2877 123.04 29.1549C122.639 29.0221 122.316 28.8169 122.093 28.5514C121.859 28.2859 121.714 27.96 121.625 27.5616C121.547 27.1633 121.491 26.7047 121.48 26.1977V18.8953H119.575V16.8313H119.553Z" fill="#747474"/>
<path d="M30.2619 12.1114H18.7194L15.1541 0.210312L11.5777 12.1114L0.0351562 12.0993L9.38285 19.4621L5.80644 31.3511L15.1541 24.0004L24.4907 31.3511L20.9254 19.4621L30.2619 12.1114Z" fill="#4A4A4A"/>
<path d="M21.7297 22.1531L20.9275 19.4615L15.1562 23.9998L21.7297 22.1531Z" fill="#747474"/>
</g>
<defs>
<clipPath id="clip0_2386_73267">
<rect width="126.211" height="33.5789" fill="white" transform="translate(0.0371094 0.210526)"/>
</clipPath>
</defs>
</svg>
