<svg width="103" height="16" viewBox="0 0 103 16" fill="none" xmlns="http://www.w3.org/2000/svg">
<path d="M8.36579 0.880755L10.1336 4.54366C10.263 4.81069 10.5131 4.99316 10.8002 5.03039L14.3274 5.47677H14.3272C14.5493 5.50714 14.7512 5.62516 14.8907 5.80593C15.0301 5.9867 15.0963 6.2162 15.0751 6.44615C15.054 6.67612 14.9473 6.88868 14.7773 7.03923L12.0249 9.45664C11.9055 9.56033 11.8157 9.69533 11.7645 9.84745C11.7135 9.99941 11.7033 10.1629 11.735 10.3205L12.555 14.3917C12.6009 14.6189 12.5593 14.8554 12.439 15.0514C12.3187 15.2475 12.1291 15.3875 11.9104 15.4418C11.6918 15.4961 11.4612 15.4606 11.2675 15.3426L7.96971 13.3493C7.83809 13.271 7.68896 13.2297 7.53697 13.2297C7.38498 13.2297 7.23584 13.271 7.10423 13.3493L3.81085 15.3582H3.8107C3.61704 15.4762 3.38654 15.5118 3.16783 15.4575C2.94927 15.4032 2.7597 15.2632 2.63938 15.0672C2.51892 14.8711 2.47742 14.6345 2.52315 14.4073L3.33898 10.3201C3.37068 10.1625 3.36041 9.999 3.30939 9.84705C3.25823 9.69493 3.16842 9.55993 3.04902 9.45623L0.300831 7.06776C0.130721 6.91673 0.0241531 6.70342 0.00362701 6.47282C-0.016901 6.24222 0.0502668 6.0124 0.190947 5.83179C0.331624 5.65134 0.534791 5.53425 0.757425 5.50529L4.60055 5.03881C4.90666 5.00144 5.17035 4.79918 5.29307 4.50756L6.80776 0.936052V0.936207C6.89576 0.730213 7.05576 0.566102 7.25607 0.476745C7.45622 0.387372 7.6819 0.379276 7.88762 0.454168C8.09336 0.528905 8.26407 0.681181 8.36581 0.880308L8.36579 0.880755Z" fill="#FFAB00"/>
<path d="M29.9361 0.880755L31.7039 4.54366C31.8333 4.81069 32.0834 4.99316 32.3705 5.03039L35.8977 5.47677H35.8975C36.1196 5.50714 36.3215 5.62516 36.461 5.80593C36.6004 5.9867 36.6666 6.2162 36.6454 6.44615C36.6243 6.67612 36.5176 6.88868 36.3476 7.03923L33.5952 9.45664C33.4758 9.56033 33.386 9.69533 33.3349 9.84745C33.2838 9.99941 33.2736 10.1629 33.3053 10.3205L34.1254 14.3917C34.1712 14.6189 34.1296 14.8554 34.0093 15.0514C33.889 15.2475 33.6994 15.3875 33.4807 15.4418C33.2621 15.4961 33.0315 15.4606 32.8378 15.3426L29.54 13.3493C29.4084 13.271 29.2593 13.2297 29.1073 13.2297C28.9553 13.2297 28.8062 13.271 28.6745 13.3493L25.3812 15.3582H25.381C25.1874 15.4762 24.9569 15.5118 24.7381 15.4575C24.5196 15.4032 24.33 15.2632 24.2097 15.0672C24.0892 14.8711 24.0477 14.6345 24.0935 14.4073L24.9093 10.3201C24.941 10.1625 24.9307 9.999 24.8797 9.84705C24.8285 9.69493 24.7387 9.55993 24.6193 9.45623L21.8711 7.06776C21.701 6.91673 21.5945 6.70342 21.5739 6.47282C21.5534 6.24222 21.6206 6.0124 21.7613 5.83179C21.9019 5.65134 22.1051 5.53425 22.3277 5.50529L26.1709 5.03881C26.477 5.00144 26.7407 4.79918 26.8634 4.50756L28.3781 0.936052V0.936207C28.4661 0.730213 28.6261 0.566102 28.8264 0.476745C29.0265 0.387372 29.2522 0.379276 29.4579 0.454168C29.6637 0.528905 29.8344 0.681181 29.9361 0.880308L29.9361 0.880755Z" fill="#FFAB00"/>
<path d="M51.5025 0.880755L53.2703 4.54366C53.3997 4.81069 53.6498 4.99316 53.9369 5.03039L57.4641 5.47677H57.4639C57.686 5.50714 57.8879 5.62516 58.0274 5.80593C58.1669 5.9867 58.233 6.2162 58.2119 6.44615C58.1907 6.67612 58.084 6.88868 57.914 7.03923L55.1616 9.45664C55.0423 9.56033 54.9524 9.69533 54.9013 9.84745C54.8503 9.99941 54.84 10.1629 54.8717 10.3205L55.6918 14.3917C55.7376 14.6189 55.696 14.8554 55.5757 15.0514C55.4554 15.2475 55.2658 15.3875 55.0471 15.4418C54.8285 15.4961 54.5979 15.4606 54.4042 15.3426L51.1064 13.3493C50.9748 13.271 50.8257 13.2297 50.6737 13.2297C50.5217 13.2297 50.3726 13.271 50.2409 13.3493L46.9476 15.3582H46.9474C46.7538 15.4762 46.5233 15.5118 46.3045 15.4575C46.086 15.4032 45.8964 15.2632 45.7761 15.0672C45.6556 14.8711 45.6141 14.6345 45.6599 14.4073L46.4757 10.3201C46.5074 10.1625 46.4971 9.999 46.4461 9.84705C46.3949 9.69493 46.3051 9.55993 46.1857 9.45623L43.4375 7.06776C43.2674 6.91673 43.1609 6.70342 43.1403 6.47282C43.1198 6.24222 43.187 6.0124 43.3277 5.83179C43.4683 5.65134 43.6715 5.53425 43.8941 5.50529L47.7373 5.03881C48.0434 5.00144 48.3071 4.79918 48.4298 4.50756L49.9445 0.936052V0.936207C50.0325 0.730213 50.1925 0.566102 50.3928 0.476745C50.5929 0.387372 50.8186 0.379276 51.0243 0.454168C51.2301 0.528905 51.4008 0.681181 51.5025 0.880308L51.5025 0.880755Z" fill="#FFAB00"/>
<path d="M73.0689 0.880755L74.8367 4.54366C74.9661 4.81069 75.2162 4.99316 75.5033 5.03039L79.0305 5.47677H79.0303C79.2524 5.50714 79.4544 5.62516 79.5938 5.80593C79.7333 5.9867 79.7994 6.2162 79.7783 6.44615C79.7571 6.67612 79.6504 6.88868 79.4804 7.03923L76.728 9.45664C76.6087 9.56033 76.5188 9.69533 76.4677 9.84745C76.4167 9.99941 76.4064 10.1629 76.4381 10.3205L77.2582 14.3917C77.3041 14.6189 77.2624 14.8554 77.1421 15.0514C77.0218 15.2475 76.8322 15.3875 76.6135 15.4418C76.3949 15.4961 76.1643 15.4606 75.9706 15.3426L72.6728 13.3493C72.5412 13.271 72.3921 13.2297 72.2401 13.2297C72.0881 13.2297 71.939 13.271 71.8074 13.3493L68.514 15.3582H68.5138C68.3202 15.4762 68.0897 15.5118 67.871 15.4575C67.6524 15.4032 67.4628 15.2632 67.3425 15.0672C67.222 14.8711 67.1805 14.6345 67.2263 14.4073L68.0421 10.3201C68.0738 10.1625 68.0635 9.999 68.0125 9.84705C67.9614 9.69493 67.8715 9.55993 67.7521 9.45623L65.004 7.06776C64.8338 6.91673 64.7273 6.70342 64.7068 6.47282C64.6862 6.24222 64.7534 6.0124 64.8941 5.83179C65.0347 5.65134 65.2379 5.53425 65.4605 5.50529L69.3037 5.03881C69.6098 5.00144 69.8735 4.79918 69.9962 4.50756L71.5109 0.936052V0.936207C71.5989 0.730213 71.7589 0.566102 71.9592 0.476745C72.1593 0.387372 72.385 0.379276 72.5907 0.454168C72.7965 0.528905 72.9672 0.681181 73.0689 0.880308L73.0689 0.880755Z" fill="#FFAB00"/>
<path d="M94.6392 0.880755L96.4071 4.54366C96.5364 4.81069 96.7865 4.99316 97.0736 5.03039L100.601 5.47677H100.601C100.823 5.50714 101.025 5.62516 101.164 5.80593C101.304 5.9867 101.37 6.2162 101.349 6.44615C101.327 6.67612 101.221 6.88868 101.051 7.03923L98.2984 9.45664C98.179 9.56033 98.0892 9.69533 98.038 9.84745C97.987 9.99941 97.9767 10.1629 98.0084 10.3205L98.8285 14.3917C98.8744 14.6189 98.8327 14.8554 98.7124 15.0514C98.5921 15.2475 98.4025 15.3875 98.1838 15.4418C97.9652 15.4961 97.7346 15.4606 97.5409 15.3426L94.2431 13.3493C94.1115 13.271 93.9624 13.2297 93.8104 13.2297C93.6584 13.2297 93.5093 13.271 93.3777 13.3493L90.0843 15.3582H90.0841C89.8905 15.4762 89.66 15.5118 89.4413 15.4575C89.2227 15.4032 89.0331 15.2632 88.9128 15.0672C88.7924 14.8711 88.7509 14.6345 88.7966 14.4073L89.6124 10.3201C89.6441 10.1625 89.6339 9.999 89.5828 9.84705C89.5317 9.69493 89.4419 9.55993 89.3225 9.45623L86.5743 7.06776C86.4042 6.91673 86.2976 6.70342 86.2771 6.47282C86.2565 6.24222 86.3237 6.0124 86.4644 5.83179C86.6051 5.65134 86.8082 5.53425 87.0309 5.50529L90.874 5.03881C91.1801 5.00144 91.4438 4.79918 91.5665 4.50756L93.0812 0.936052V0.936207C93.1692 0.730213 93.3292 0.566102 93.5295 0.476745C93.7297 0.387372 93.9553 0.379276 94.1611 0.454168C94.3668 0.528905 94.5375 0.681181 94.6392 0.880308L94.6392 0.880755Z" fill="#FFAB00"/>
<mask id="mask0_4881_13283" style="mask-type:alpha" maskUnits="userSpaceOnUse" x="86" y="0" width="16" height="16">
<path d="M94.6392 0.880755L96.4071 4.54366C96.5364 4.81069 96.7865 4.99316 97.0736 5.03039L100.601 5.47677H100.601C100.823 5.50714 101.025 5.62516 101.164 5.80593C101.304 5.9867 101.37 6.2162 101.349 6.44615C101.327 6.67612 101.221 6.88868 101.051 7.03923L98.2984 9.45664C98.179 9.56033 98.0892 9.69533 98.038 9.84745C97.987 9.99941 97.9767 10.1629 98.0084 10.3205L98.8285 14.3917C98.8744 14.6189 98.8327 14.8554 98.7124 15.0514C98.5921 15.2475 98.4025 15.3875 98.1838 15.4418C97.9652 15.4961 97.7346 15.4606 97.5409 15.3426L94.2431 13.3493C94.1115 13.271 93.9624 13.2297 93.8104 13.2297C93.6584 13.2297 93.5093 13.271 93.3777 13.3493L90.0843 15.3582H90.0841C89.8905 15.4762 89.66 15.5118 89.4413 15.4575C89.2227 15.4032 89.0331 15.2632 88.9128 15.0672C88.7924 14.8711 88.7509 14.6345 88.7966 14.4073L89.6124 10.3201C89.6441 10.1625 89.6339 9.999 89.5828 9.84705C89.5317 9.69493 89.4419 9.55993 89.3225 9.45623L86.5743 7.06776C86.4042 6.91673 86.2976 6.70342 86.2771 6.47282C86.2565 6.24222 86.3237 6.0124 86.4644 5.83179C86.6051 5.65134 86.8082 5.53425 87.0309 5.50529L90.874 5.03881C91.1801 5.00144 91.4438 4.79918 91.5665 4.50756L93.0812 0.936052V0.936207C93.1692 0.730213 93.3292 0.566102 93.5295 0.476745C93.7297 0.387372 93.9553 0.379276 94.1611 0.454168C94.3668 0.528905 94.5375 0.681181 94.6392 0.880308L94.6392 0.880755Z" fill="#FFCC00"/>
</mask>
<g mask="url(#mask0_4881_13283)">
<rect x="97.9102" y="4.08691" width="4.51964" height="5.03067" transform="rotate(-11.2991 97.9102 4.08691)" fill="#E5E5E5"/>
</g>
<path d="M95.0549 0.500263L96.9072 4.33831C97.0428 4.61811 97.3048 4.8093 97.6057 4.84831L101.301 5.31604H101.301C101.534 5.34786 101.746 5.47152 101.892 5.66093C102.038 5.85034 102.107 6.09083 102.085 6.33177C102.063 6.57274 101.951 6.79545 101.773 6.9532L98.889 9.4862C98.7639 9.59486 98.6698 9.73631 98.6161 9.8957C98.5627 10.0549 98.5519 10.2262 98.5851 10.3913L99.4444 14.6573C99.4925 14.8953 99.4489 15.1431 99.3228 15.3485C99.1968 15.5539 98.9981 15.7006 98.7689 15.7575C98.5399 15.8145 98.2982 15.7773 98.0953 15.6536L94.6398 13.565C94.5019 13.4829 94.3457 13.4397 94.1864 13.4397C94.0272 13.4397 93.8709 13.4829 93.733 13.565L90.2821 15.6699H90.282C90.0791 15.7936 89.8375 15.8309 89.6084 15.774C89.3794 15.7171 89.1807 15.5704 89.0546 15.365C88.9284 15.1596 88.8849 14.9116 88.9329 14.6736L89.7877 10.3909C89.8209 10.2258 89.8102 10.0545 89.7567 9.89528C89.7031 9.73588 89.609 9.59444 89.4839 9.48578L86.6043 6.9831C86.426 6.82485 86.3144 6.60134 86.2929 6.35971C86.2714 6.11809 86.3417 5.87727 86.4891 5.68804C86.6365 5.49895 86.8494 5.37626 87.0827 5.34592L91.1096 4.85713C91.4303 4.81798 91.7066 4.60605 91.8352 4.30048L93.4223 0.558204V0.558367C93.5145 0.342523 93.6822 0.170566 93.8921 0.0769354C94.1018 -0.0167113 94.3383 -0.0251938 94.5538 0.0532792C94.7694 0.13159 94.9483 0.291147 95.0549 0.499795L95.0549 0.500263Z" fill="#FFAB00"/>
<mask id="mask1_4881_13283" style="mask-type:alpha" maskUnits="userSpaceOnUse" x="86" y="0" width="17" height="16">
<path d="M95.0549 0.500263L96.9072 4.33831C97.0428 4.61811 97.3048 4.8093 97.6057 4.84831L101.301 5.31604H101.301C101.534 5.34786 101.746 5.47152 101.892 5.66093C102.038 5.85034 102.107 6.09083 102.085 6.33177C102.063 6.57274 101.951 6.79545 101.773 6.9532L98.889 9.4862C98.7639 9.59486 98.6698 9.73631 98.6161 9.8957C98.5627 10.0549 98.5519 10.2262 98.5851 10.3913L99.4444 14.6573C99.4925 14.8953 99.4489 15.1431 99.3228 15.3485C99.1968 15.5539 98.9981 15.7006 98.7689 15.7575C98.5399 15.8145 98.2982 15.7773 98.0953 15.6536L94.6398 13.565C94.5019 13.4829 94.3457 13.4397 94.1864 13.4397C94.0272 13.4397 93.8709 13.4829 93.733 13.565L90.2821 15.6699H90.282C90.0791 15.7936 89.8375 15.8309 89.6084 15.774C89.3794 15.7171 89.1807 15.5704 89.0546 15.365C88.9284 15.1596 88.8849 14.9116 88.9329 14.6736L89.7877 10.3909C89.8209 10.2258 89.8102 10.0545 89.7567 9.89528C89.7031 9.73588 89.609 9.59444 89.4839 9.48578L86.6043 6.9831C86.426 6.82485 86.3144 6.60134 86.2929 6.35971C86.2714 6.11809 86.3417 5.87727 86.4891 5.68804C86.6365 5.49895 86.8494 5.37626 87.0827 5.34592L91.1096 4.85713C91.4303 4.81798 91.7066 4.60605 91.8352 4.30048L93.4223 0.558204V0.558367C93.5145 0.342523 93.6822 0.170566 93.8921 0.0769354C94.1018 -0.0167113 94.3383 -0.0251938 94.5538 0.0532792C94.7694 0.13159 94.9483 0.291147 95.0549 0.499795L95.0549 0.500263Z" fill="#FFCC00"/>
</mask>
<g mask="url(#mask1_4881_13283)">
<rect x="98.5469" y="-1.9707" width="13.6056" height="23.6936" fill="#E5E5E5"/>
</g>
</svg>
