<svg width="22" height="22" viewBox="0 0 22 22" fill="none" xmlns="http://www.w3.org/2000/svg">
<circle cx="11" cy="11" r="9.625" fill="#FEDCDF"/>
<path d="M12.2964 11L15.2141 13.9178C15.5716 14.2752 15.5737 14.8527 15.2132 15.2132C14.8552 15.5712 14.2749 15.5713 13.9178 15.2141L11 12.2964L8.08221 15.2141C7.72477 15.5716 7.1473 15.5737 6.78682 15.2132C6.42884 14.8552 6.4287 14.2749 6.78585 13.9178L9.70364 11L6.78585 8.08221C6.42841 7.72477 6.42635 7.1473 6.78682 6.78682C7.1448 6.42884 7.72506 6.4287 8.08221 6.78585L11 9.70364L13.9178 6.78585C14.2752 6.42841 14.8527 6.42635 15.2132 6.78682C15.5712 7.1448 15.5713 7.72506 15.2141 8.08221L12.2964 11ZM11 22C4.92487 22 0 17.0751 0 11C0 4.92487 4.92487 0 11 0C17.0751 0 22 4.92487 22 11C22 17.0751 17.0751 22 11 22ZM11 20.1667C16.0626 20.1667 20.1667 16.0626 20.1667 11C20.1667 5.93739 16.0626 1.83333 11 1.83333C5.93739 1.83333 1.83333 5.93739 1.83333 11C1.83333 16.0626 5.93739 20.1667 11 20.1667Z" fill="#F22F42"/>
</svg>
