<svg width="37" height="35" viewBox="0 0 37 35" fill="none" xmlns="http://www.w3.org/2000/svg">
<g clip-path="url(#clip0_682_19732)">
<path d="M0.945801 17.6701C0.945801 14.7909 3.86387 12.4568 7.46348 12.4568H30.4281C34.0277 12.4568 36.9458 14.7909 36.9458 17.6701V25.2008C36.9458 28.0801 34.0277 30.4141 30.4281 30.4141H7.46348C3.86386 30.4141 0.945801 28.0801 0.945801 25.2008V17.6701Z" fill="#EBFBFB"/>
<path d="M22.851 5.38455C21.5786 5.3804 20.338 5.7824 19.3098 6.53204C18.2817 7.28168 17.5197 8.33984 17.1348 9.55248C17.3927 9.6717 17.6348 9.82255 17.8555 10.0016C18.1621 8.8917 18.8294 7.9154 19.7523 7.22653C20.6751 6.53767 21.8009 6.17539 22.9524 6.1968C24.1039 6.21821 25.2155 6.62208 26.112 7.34477C27.0086 8.06746 27.6391 9.06789 27.9043 10.1884C28.1695 11.3089 28.0542 12.4858 27.5767 13.5335C27.0991 14.5813 26.2864 15.4404 25.2667 15.9755C24.2469 16.5106 23.0781 16.6912 21.9443 16.4888C20.8106 16.2865 19.7764 15.7127 19.0048 14.858C18.9309 15.1488 18.8189 15.4285 18.6715 15.6899C19.377 16.3747 20.2399 16.8757 21.1844 17.1488C22.1289 17.422 23.126 17.4589 24.0882 17.2565C25.0503 17.054 25.948 16.6182 26.7022 15.9876C27.4564 15.3569 28.0441 14.5506 28.4136 13.6396C28.783 12.7286 28.923 11.7408 28.8211 10.763C28.7192 9.78529 28.3786 8.84754 27.8292 8.03226C27.2799 7.21698 26.5386 6.54913 25.6705 6.08745C24.8025 5.62577 23.8343 5.3844 22.851 5.38455Z" fill="#17CFCF"/>
<path d="M13.8262 24.9974L14.5913 20.9476C14.5203 20.9211 14.459 20.8735 14.4157 20.8113C14.3723 20.749 14.349 20.6751 14.3487 20.5993V19.2072L13.6993 18.7939H11.1836C10.6147 18.7946 10.0692 19.0209 9.66692 19.4231C9.26461 19.8254 9.03829 20.3707 9.0376 20.9396V26.6542H15.1456L13.9182 25.3193C13.8789 25.2765 13.8501 25.2251 13.8341 25.1692C13.8181 25.1134 13.8154 25.0545 13.8262 24.9974Z" fill="#17CFCF"/>
<path d="M16.2998 19.5029H15.0952V20.2262H16.2998V19.5029Z" fill="#17CFCF"/>
<path d="M18.3692 14.0126V12.6482C18.3692 11.9399 18.0877 11.2606 17.5868 10.7598C17.0859 10.2589 16.4064 9.97754 15.698 9.97754C14.9896 9.97754 14.3102 10.2589 13.8092 10.7598C13.3083 11.2606 13.0269 11.9399 13.0269 12.6482V14.0126C13.0269 14.7209 13.3083 15.4002 13.8092 15.9011C14.3102 16.4019 14.9896 16.6833 15.698 16.6833C16.4064 16.6833 17.0859 16.4019 17.5868 15.9011C18.0877 15.4002 18.3692 14.7209 18.3692 14.0126Z" fill="#17CFCF"/>
<path d="M17.2144 18.2156V17.0698C16.7439 17.3062 16.2246 17.4294 15.698 17.4294C15.1715 17.4294 14.6522 17.3062 14.1816 17.0698V18.2158L15.0313 18.757H16.36L17.2144 18.2156Z" fill="#17CFCF"/>
<path d="M19.1308 13.8049C19.6948 14.6742 20.545 15.319 21.5344 15.6275C22.5237 15.9361 23.5898 15.8891 24.5481 15.4945C25.5064 15.1 26.2965 14.3829 26.7817 13.4673C27.2668 12.5517 27.4164 11.4953 27.2046 10.481C26.9928 9.4667 26.4329 8.5584 25.6219 7.91337C24.8108 7.26834 23.7997 6.92718 22.7636 6.94898C21.7275 6.97078 20.7316 7.35416 19.9484 8.03273C19.1652 8.7113 18.644 9.64234 18.4751 10.6646C18.8912 11.2423 19.1151 11.9361 19.1152 12.6479V13.815L19.1308 13.8049ZM22.2112 8.97892C22.2112 8.87995 22.2506 8.78504 22.3206 8.71506C22.3905 8.64508 22.4855 8.60577 22.5845 8.60577C22.6834 8.60577 22.7784 8.64508 22.8484 8.71506C22.9184 8.78504 22.9577 8.87995 22.9577 8.97892V11.4135H24.7243C24.8233 11.4135 24.9182 11.4529 24.9882 11.5228C25.0582 11.5928 25.0976 11.6877 25.0976 11.7867C25.0976 11.8857 25.0582 11.9806 24.9882 12.0506C24.9182 12.1205 24.8233 12.1599 24.7243 12.1599H22.5845C22.4855 12.1599 22.3905 12.1205 22.3206 12.0506C22.2506 11.9806 22.2112 11.8857 22.2112 11.7867V8.97892Z" fill="#17CFCF"/>
<path d="M20.2119 18.7939H17.6955L17.0463 19.2044V20.5985C17.046 20.6743 17.0227 20.7483 16.9793 20.8105C16.936 20.8728 16.8747 20.9203 16.8037 20.9468L17.5688 24.9967C17.5796 25.0538 17.5769 25.1126 17.561 25.1685C17.545 25.2243 17.5163 25.2757 17.477 25.3185L16.25 26.6542H22.3582V20.9398C22.3575 20.3708 22.1312 19.8254 21.7288 19.4231C21.3265 19.0209 20.781 18.7946 20.2119 18.7939Z" fill="#17CFCF"/>
<path d="M16.0494 20.9724H15.3466L14.5947 24.9526L15.698 26.1529L16.801 24.9526L16.0494 20.9724Z" fill="#17CFCF"/>
</g>
<defs>
<clipPath id="clip0_682_19732">
<rect width="36" height="33.9936" fill="white" transform="translate(0.945801 0.902344)"/>
</clipPath>
</defs>
</svg>
