<svg width="37" height="35" viewBox="0 0 37 35" fill="none" xmlns="http://www.w3.org/2000/svg">
<g clip-path="url(#clip0_682_19748)">
<path d="M0.945801 17.5747C0.945801 14.6954 3.86387 12.3613 7.46348 12.3613H30.4281C34.0277 12.3613 36.9458 14.6954 36.9458 17.5747V25.1053C36.9458 27.9846 34.0277 30.3186 30.4281 30.3186H7.46348C3.86386 30.3186 0.945801 27.9846 0.945801 25.1053V17.5747Z" fill="#FFECEC"/>
<path fill-rule="evenodd" clip-rule="evenodd" d="M18.437 8.53054H20.8518C20.9827 8.53054 21.0894 8.64989 21.0894 8.7962V15.1623C21.0894 15.3086 20.9827 15.4279 20.8518 15.4279H18.437V8.53054ZM22.0815 10.1627C21.9066 10.1627 21.7646 10.0042 21.7646 9.80844C21.7646 9.61289 21.9064 9.45414 22.0815 9.45414H26.2668C26.4417 9.45414 26.5836 9.61265 26.5836 9.80844V10.8523C26.6877 10.7252 26.8619 10.6995 26.993 10.7989C27.1372 10.9081 27.1748 11.1274 27.0771 11.2887L26.5316 12.1877C26.4104 12.3973 26.1334 12.4048 26.0057 12.1938L25.4565 11.2887C25.3588 11.1274 25.3966 10.9081 25.5406 10.7989C25.6719 10.6995 25.8461 10.7255 25.9499 10.8523V10.1627H22.0815ZM28.6093 20.703L24.1621 17.4956L19.715 20.703C22.2058 20.703 27.1618 20.703 28.6093 20.703ZM27.5099 21.4116V26.7112H25.1923V23.8991H23.1318V26.711H20.8143V21.4116H27.5099ZM27.0557 13.0114C27.1733 12.8677 27.3727 12.8578 27.5013 12.9894C27.6298 13.1209 27.6386 13.3439 27.521 13.4876C27.1962 13.8851 26.7508 14.1217 26.2668 14.1217C25.7828 14.1217 25.3374 13.8851 25.0126 13.4876C24.895 13.3439 24.904 13.1209 25.0323 12.9894C25.1609 12.8578 25.3603 12.8679 25.4779 13.0114C25.6824 13.2616 25.9617 13.4131 26.2668 13.4131C26.5719 13.4131 26.8512 13.2616 27.0557 13.0114ZM28.3765 14.6279C28.4942 14.4842 28.6936 14.4743 28.8221 14.6059C28.9507 14.7374 28.9595 14.9604 28.8419 15.1041C28.175 15.9203 27.261 16.4078 26.2668 16.4078C25.2726 16.4078 24.3588 15.9203 23.6917 15.1041C23.5741 14.9604 23.5831 14.7374 23.7114 14.6059C23.84 14.4743 24.0394 14.4844 24.157 14.6279C24.7037 15.2969 25.4517 15.699 26.2668 15.699C27.0819 15.699 27.8301 15.2969 28.3765 14.6279ZM24.3523 14.2956C24.848 14.9025 25.5278 15.2645 26.2668 15.2645C27.0058 15.2645 27.6856 14.9025 28.1813 14.2956C28.299 14.1519 28.2899 13.9289 28.1616 13.7974C28.0331 13.6658 27.8336 13.6759 27.716 13.8194C27.3404 14.279 26.8267 14.5557 26.2668 14.5557C25.7067 14.5557 25.1929 14.2788 24.8176 13.8194C24.6999 13.6757 24.5005 13.6658 24.372 13.7974C24.2436 13.9289 24.2348 14.1519 24.3523 14.2956ZM19.9648 23.5329C20.1397 23.5329 20.2816 23.6914 20.2816 23.8872C20.2816 24.0827 20.1399 24.2415 19.9648 24.2415H15.0682C14.8933 24.2415 14.7513 24.083 14.7513 23.8872V22.8433C14.6473 22.9704 14.4731 22.9962 14.342 22.8968C14.1977 22.7875 14.1602 22.5682 14.2579 22.4069L14.8033 21.5079C14.9245 21.2983 15.2016 21.2908 15.3293 21.5018L15.8784 22.4069C15.9762 22.5682 15.9384 22.7875 15.7944 22.8968C15.6631 22.9962 15.4888 22.9701 15.385 22.8433V23.5329H19.9648ZM14.2793 20.6842C14.1617 20.828 13.9622 20.8378 13.8337 20.7063C13.7052 20.5747 13.6964 20.3517 13.814 20.208C14.1388 19.8106 14.5842 19.574 15.0682 19.574C15.5522 19.574 15.9976 19.8106 16.3224 20.208C16.44 20.3517 16.431 20.5747 16.3027 20.7063C16.1741 20.8378 15.9747 20.8277 15.8571 20.6842C15.6526 20.434 15.3733 20.2826 15.0682 20.2826C14.7633 20.2826 14.4838 20.434 14.2793 20.6842ZM12.9586 19.0675C12.841 19.2112 12.6416 19.2211 12.513 19.0895C12.3845 18.958 12.3757 18.735 12.4933 18.5913C13.1602 17.7751 14.0742 17.2876 15.0684 17.2876C16.0626 17.2876 16.9764 17.7751 17.6435 18.5913C17.7611 18.735 17.7521 18.958 17.6237 19.0895C17.4952 19.2211 17.2958 19.211 17.1781 19.0675C16.6315 18.3985 15.8835 17.9964 15.0684 17.9964C14.2531 17.9964 13.5051 18.3988 12.9586 19.0675ZM16.9827 19.3998C16.487 18.7929 15.8072 18.4309 15.0682 18.4309C14.3292 18.4309 13.6494 18.7929 13.1537 19.3998C13.036 19.5435 13.045 19.7665 13.1734 19.898C13.3019 20.0296 13.5013 20.0195 13.619 19.876C13.9945 19.4164 14.5083 19.1397 15.0682 19.1397C15.6283 19.1397 16.142 19.4166 16.5174 19.876C16.635 20.0197 16.8345 20.0296 16.963 19.898C17.0915 19.7665 17.1003 19.5435 16.9827 19.3998ZM12.491 5.4563H17.5657C17.6965 5.4563 17.8032 5.57565 17.8032 5.72196V15.4279H16.2978V12.5856C16.2978 12.4393 16.1911 12.3199 16.0603 12.3199H14.0759C13.9451 12.3199 13.8383 12.4393 13.8383 12.5856V15.4282H12.2532V5.72196C12.2534 5.57565 12.3602 5.4563 12.491 5.4563ZM13.2327 10.7313V11.4399H13.9406V10.7313H13.2327ZM16.116 10.7313V11.4399H16.824V10.7313H16.116ZM14.6744 10.7313V11.4399H15.3823V10.7313H14.6744ZM13.2327 9.29306V10.0016H13.9406V9.29306H13.2327ZM16.116 9.29306V10.0016H16.824V9.29306H16.116ZM14.6744 9.29306V10.0016H15.3823V9.29306H14.6744ZM13.2327 7.85501V8.5636H13.9406V7.85501H13.2327ZM16.116 7.85501V8.5636H16.824V7.85501H16.116ZM14.6744 7.85501V8.5636H15.3823V7.85501H14.6744ZM13.2327 6.41672V7.12531H13.9406V6.41672H13.2327ZM16.116 6.41672V7.12531H16.824V6.41672H16.116ZM14.6744 6.41672V7.12531H15.3823V6.41672H14.6744ZM9.20487 8.53054H11.6197V15.4282H9.20487C9.07402 15.4282 8.96729 15.3088 8.96729 15.1625V8.7962C8.96729 8.64989 9.07402 8.53054 9.20487 8.53054ZM10.6103 9.97164H9.97676V10.7632H10.6105V9.97164H10.6103ZM10.6103 13.1955H9.97676V13.9871H10.6105V13.1955H10.6103ZM10.6103 11.5834H9.97676V12.375H10.6105V11.5834H10.6103ZM20.0799 9.97164H19.4462V10.7632H20.0799V9.97164ZM20.0799 13.1955H19.4462V13.9871H20.0799V13.1955ZM20.0799 11.5834H19.4462V12.375H20.0799V11.5834Z" fill="#FF9696"/>
</g>
<defs>
<clipPath id="clip0_682_19748">
<rect width="36" height="33.9936" fill="white" transform="translate(0.945801 0.890625)"/>
</clipPath>
</defs>
</svg>
