<svg width="37" height="35" viewBox="0 0 37 35" fill="none" xmlns="http://www.w3.org/2000/svg">
<g clip-path="url(#clip0_682_19700)">
<path d="M0.945801 17.4387C0.945801 14.5594 3.86387 12.2253 7.46348 12.2253H30.4281C34.0277 12.2253 36.9458 14.5594 36.9458 17.4387V24.9694C36.9458 27.8486 34.0277 30.1826 30.4281 30.1826H7.46348C3.86386 30.1826 0.945801 27.8486 0.945801 24.9694V17.4387Z" fill="#FFF6DC"/>
<path d="M18.6135 16.959C17.9353 16.959 17.3828 17.5103 17.3828 18.1888C17.3828 18.8666 17.9345 19.4187 18.6135 19.4187C19.2916 19.4187 19.8441 18.8674 19.8441 18.1888C19.8433 17.5103 19.2916 16.959 18.6135 16.959Z" fill="#FDCB68"/>
<path d="M25.1754 18.5981C24.9488 18.5981 24.7655 18.4149 24.7655 18.1885C24.7655 17.9621 24.9488 17.7789 25.1754 17.7789H28.037C27.8273 12.9076 23.8992 8.9828 19.0238 8.77319V11.0172C19.0238 11.2436 18.8405 11.4268 18.6139 11.4268C18.3873 11.4268 18.2039 11.2436 18.2039 11.0172V8.77319C13.3286 8.9828 9.40052 12.9076 9.19074 17.7789H12.0516C12.2781 17.7789 12.4615 17.9621 12.4615 18.1885C12.4615 18.4149 12.2781 18.5981 12.0516 18.5981H9.18994C9.39972 23.4694 13.3278 27.3942 18.2031 27.6038V24.7446C18.2031 24.5182 18.3865 24.335 18.6131 24.335C18.8397 24.335 19.023 24.5182 19.023 24.7446V27.6038C23.8983 27.3942 27.8265 23.4694 28.0362 18.5981H25.1754ZM18.6139 20.2373C18.1967 20.2373 17.8084 20.1117 17.4841 19.8973L13.9828 23.3958C13.9027 23.4758 13.7978 23.5158 13.6929 23.5158C13.5881 23.5158 13.4832 23.4758 13.4031 23.3958C13.243 23.2358 13.243 22.9766 13.4031 22.8166L16.9044 19.3181C16.6891 18.9941 16.5642 18.6061 16.5642 18.1893C16.5642 17.0597 17.4841 16.1405 18.6147 16.1405C19.7452 16.1405 20.6652 17.0597 20.6652 18.1893C20.6644 19.3181 19.7444 20.2373 18.6139 20.2373Z" fill="#FDCB68"/>
<path d="M19.0234 8.34087V6.50931H21.8946C22.1212 6.50931 22.3046 6.32607 22.3046 6.09962C22.3046 5.87318 22.1212 5.68994 21.8946 5.68994H15.3323C15.1057 5.68994 14.9224 5.87318 14.9224 6.09962C14.9224 6.32607 15.1057 6.50931 15.3323 6.50931H18.2035V8.34007C18.3388 8.33527 18.9714 8.32647 19.0234 8.34087Z" fill="#FDCB68"/>
<path d="M25.8798 11.3041L27.0608 10.1239L28.0008 11.0633C28.0809 11.1433 28.1858 11.1833 28.2907 11.1833C28.3955 11.1833 28.5004 11.1433 28.5805 11.0633C28.7406 10.9032 28.7406 10.644 28.5805 10.4839L26.12 8.02505C25.9599 7.86502 25.7005 7.86502 25.5403 8.02505C25.3802 8.18509 25.3802 8.44434 25.5403 8.60437L26.4803 9.54376L25.2905 10.7328C25.4947 10.9152 25.6909 11.1057 25.8798 11.3041Z" fill="#FDCB68"/>
</g>
<defs>
<clipPath id="clip0_682_19700">
<rect width="36" height="33.9936" fill="white" transform="translate(0.945801 0.939453)"/>
</clipPath>
</defs>
</svg>
