<svg width="16" height="18" viewBox="0 0 16 18" fill="none" xmlns="http://www.w3.org/2000/svg">
<path d="M14.1166 4.72708L14.4658 4.37446L14.6277 4.53785C14.7611 4.67262 14.9367 4.74092 15.1122 4.74092C15.2878 4.74092 15.4633 4.67354 15.5968 4.53785C15.8647 4.26738 15.8647 3.82892 15.5968 3.55846L14.304 2.25323C14.0361 1.98277 13.6018 1.98277 13.3339 2.25323C13.0661 2.52369 13.0661 2.96215 13.3339 3.23262L13.4958 3.396L13.1465 3.74862C11.9186 2.70369 10.3771 2.02708 8.68571 1.88123V1.38462H8.91429C9.2928 1.38462 9.6 1.07446 9.6 0.692308C9.6 0.310154 9.2928 0 8.91429 0H7.08571C6.7072 0 6.4 0.310154 6.4 0.692308C6.4 1.07446 6.7072 1.38462 7.08571 1.38462H7.31429V1.88123C3.22286 2.23385 0 5.70277 0 9.92308C0 14.3769 3.58857 18 8 18C12.4114 18 16 14.3769 16 9.92308C16 7.94492 15.2905 6.13292 14.1166 4.72708ZM8.00091 16.6154C4.3456 16.6154 1.37234 13.6135 1.37234 9.92308C1.37234 6.23262 4.3456 3.23077 8.00091 3.23077C11.6562 3.23077 14.6295 6.23262 14.6295 9.92308C14.6295 13.6135 11.6562 16.6154 8.00091 16.6154ZM11.6581 10.6154H8.00091C7.6224 10.6154 7.3152 10.3052 7.3152 9.92308V6.23077C7.3152 5.84862 7.6224 5.53846 8.00091 5.53846C8.37943 5.53846 8.68663 5.84862 8.68663 6.23077V9.23077H11.6581C12.0366 9.23077 12.3438 9.54092 12.3438 9.92308C12.3438 10.3052 12.0366 10.6154 11.6581 10.6154Z" fill="#363636"/>
</svg>
