<svg width="20" height="20" viewBox="0 0 20 20" fill="none" xmlns="http://www.w3.org/2000/svg">
<path d="M2.8181 17.4254H16.4314C17.5167 17.4254 18.3995 16.5426 18.3995 15.4574V15.0329C18.3995 14.7594 18.1778 14.538 17.9045 14.538H1.34499C1.07168 14.538 0.85 14.7594 0.85 15.0329V15.4574C0.85 16.5426 1.73281 17.4254 2.8181 17.4254ZM17.407 15.5279C17.3707 16.0343 16.947 16.4354 16.4314 16.4354H2.8181C2.30255 16.4354 1.87876 16.0343 1.8425 15.5279H17.407Z" fill="#624DE3" stroke="#624DE3" stroke-width="0.3"/>
<path d="M2.17311 15.5282H17.0939C17.3672 15.5282 17.5889 15.3068 17.5889 15.0332V3.79813C17.5889 3.27531 17.1638 2.85 16.6408 2.85H2.62625C2.10322 2.85 1.67812 3.27531 1.67812 3.79813V15.0332C1.67812 15.3068 1.8998 15.5282 2.17311 15.5282ZM16.5989 3.83998V14.5382H2.6681V3.83998H16.5989Z" fill="#624DE3" stroke="#624DE3" stroke-width="0.3"/>
<path d="M11.4903 10.4892L11.4903 10.4892C11.3256 10.3229 11.3268 10.0545 11.4932 9.88973C11.4932 9.88973 11.4932 9.88972 11.4932 9.88972L13.2607 8.13945L13.2609 8.13923C13.4267 7.97573 13.6951 7.97562 13.86 8.14243M11.4903 10.4892L13.7534 8.2479M11.4903 10.4892C11.5731 10.5729 11.6827 10.6147 11.7913 10.6147C11.899 10.6147 12.0069 10.5737 12.0894 10.4923L12.0895 10.4922L13.857 8.74187M11.4903 10.4892L13.857 8.74187M13.86 8.14243L13.7534 8.2479M13.86 8.14243C13.86 8.14241 13.86 8.14239 13.86 8.14237L13.7534 8.2479M13.86 8.14243C14.0246 8.30873 14.0234 8.57715 13.857 8.74186L13.7515 8.63528M13.7534 8.2479C13.8598 8.35537 13.859 8.52888 13.7515 8.63528M13.7515 8.63528L13.857 8.74187M13.7515 8.63528L13.857 8.74187" fill="#624DE3" stroke="#624DE3" stroke-width="0.3"/>
<path d="M5.5143 10.3446C5.56791 10.3988 5.63862 10.4261 5.70933 10.4261C5.7787 10.4261 5.84821 10.3999 5.90155 10.3472M5.5143 10.3446L7.44682 7.84502C7.61375 7.68015 7.88196 7.68315 8.04602 7.84907L8.04622 7.84927C8.21051 8.01604 8.20841 8.28419 8.04189 8.44844L8.04184 8.44848L6.00694 10.454L6.00684 10.4541L5.90155 10.3472M5.5143 10.3446C5.40817 10.2368 5.40951 10.0636 5.51711 9.95746L5.5143 10.3446ZM5.90155 10.3472L7.93655 8.34164L5.90155 10.3472ZM5.40744 10.4498L5.40758 10.45L7.44665 7.8452L5.41182 9.85062L5.41178 9.85066C5.24526 10.0149 5.24316 10.2831 5.40744 10.4498Z" fill="#624DE3" stroke="#624DE3" stroke-width="0.3"/>
<path d="M10.9644 10.3835L11.0713 10.4887C11.2354 10.3219 11.2332 10.0534 11.0664 9.88938C11.0663 9.88937 11.0663 9.88936 11.0663 9.88935L8.97708 7.83539L8.97705 7.83537C8.81029 7.67149 8.54173 7.67297 8.37772 7.84053C8.21379 8.00733 8.21606 8.27572 8.38286 8.43964C8.38287 8.43965 8.38287 8.43966 8.38288 8.43967L10.4721 10.4936L10.4722 10.4937C10.5546 10.5747 10.6622 10.6153 10.7692 10.6153C10.8785 10.6153 10.9886 10.5731 11.0715 10.4885L10.9644 10.3835ZM10.9644 10.3835C11.0704 10.2757 11.0689 10.1022 10.9612 9.99634L10.5773 10.3867C10.6306 10.4391 10.7 10.4653 10.7692 10.4653C10.8401 10.4653 10.9109 10.438 10.9644 10.3835Z" fill="#624DE3" stroke="#624DE3" stroke-width="0.3"/>
<path d="M12.9301 7.95627C12.9301 8.57034 13.4294 9.06951 14.0433 9.06951C14.6572 9.06951 15.1565 8.57034 15.1565 7.95627C15.1565 7.34221 14.6572 6.84304 14.0433 6.84304C13.4294 6.84304 12.9301 7.34221 12.9301 7.95627ZM13.7776 7.95627C13.7776 7.80997 13.8969 7.69056 14.0433 7.69056C14.1897 7.69056 14.309 7.80997 14.309 7.95627C14.309 8.10257 14.1897 8.22199 14.0433 8.22199C13.8969 8.22199 13.7776 8.10257 13.7776 7.95627Z" fill="#624DE3" stroke="#624DE3" stroke-width="0.3"/>
<path d="M10.227 10.687C10.227 11.2657 10.6976 11.7366 11.2766 11.7366C11.8555 11.7366 12.3262 11.2657 12.3262 10.687C12.3262 10.1082 11.8555 9.63735 11.2766 9.63735C10.6976 9.63735 10.227 10.1082 10.227 10.687ZM11.0745 10.687C11.0745 10.5757 11.1653 10.4849 11.2766 10.4849C11.3878 10.4849 11.4786 10.5757 11.4786 10.687C11.4786 10.7982 11.3878 10.889 11.2766 10.889C11.1653 10.889 11.0745 10.7982 11.0745 10.687Z" fill="#624DE3" stroke="#624DE3" stroke-width="0.3"/>
<path d="M7.48762 8.48244L7.48769 8.48251C7.67995 8.66311 7.92541 8.76245 8.18402 8.76245C8.20471 8.76245 8.22535 8.76182 8.24609 8.76057L8.24622 8.76057C8.55241 8.74189 8.84254 8.60219 9.04275 8.37541L9.0429 8.37524C9.22139 8.17244 9.314 7.91738 9.29707 7.65635L9.29706 7.65625C9.25837 7.06544 8.80028 6.60656 8.22038 6.60656C7.62611 6.60656 7.14297 7.0897 7.14297 7.68397C7.14297 7.98533 7.26836 8.27621 7.48762 8.48244ZM8.40716 7.81452L8.40694 7.81477C8.35762 7.87079 8.28162 7.90871 8.19701 7.91451C8.14894 7.9153 8.10488 7.89943 8.06812 7.86493L7.96547 7.9743L8.06836 7.86516C8.01913 7.81874 7.99048 7.75268 7.99048 7.68397C7.99048 7.55725 8.09372 7.45408 8.22038 7.45408C8.34675 7.45408 8.44155 7.56202 8.45125 7.71159L8.45125 7.71162C8.45284 7.73604 8.44342 7.77352 8.40716 7.81452ZM9.14738 7.66606C9.16155 7.88448 9.08443 8.10102 8.9303 8.27613L8.23709 8.61084C8.21931 8.61191 8.20166 8.61245 8.18402 8.61245C7.9648 8.61245 7.75574 8.5285 7.59039 8.37318C7.40138 8.19539 7.29297 7.94409 7.29297 7.68397C7.29297 7.17254 7.70895 6.75656 8.22038 6.75656C8.71496 6.75656 9.11343 7.14768 9.14738 7.66606Z" fill="#624DE3" stroke="#624DE3" stroke-width="0.3"/>
<path d="M4.17227 10.6337C4.17227 11.2141 4.64416 11.686 5.22441 11.686C5.80466 11.686 6.27655 11.2141 6.27655 10.6337C6.27655 10.0536 5.80463 9.58169 5.22441 9.58169C4.64419 9.58169 4.17227 10.0536 4.17227 10.6337ZM5.01978 10.6337C5.01978 10.5212 5.11166 10.4292 5.22441 10.4292C5.33716 10.4292 5.42904 10.5212 5.42904 10.6337C5.42904 10.7466 5.33709 10.8385 5.22441 10.8385C5.11173 10.8385 5.01978 10.7466 5.01978 10.6337Z" fill="#624DE3" stroke="#624DE3" stroke-width="0.3"/>
</svg>
