<svg width="270" height="38" viewBox="0 0 270 38" fill="none" xmlns="http://www.w3.org/2000/svg">
<path d="M0.290039 6.2041C0.290039 5.8291 0.492188 5.60059 0.896484 5.51855L1.27441 5.44824C1.31543 5.43652 1.35059 5.43066 1.37988 5.43066C1.41504 5.43066 1.44727 5.43066 1.47656 5.43066C1.83398 5.43066 2.04492 5.63574 2.10938 6.0459C2.13281 6.24512 2.16211 6.49707 2.19727 6.80176C2.23242 7.10645 2.27637 7.44043 2.3291 7.80371C2.3877 8.16699 2.45215 8.54785 2.52246 8.94629C2.59863 9.34473 2.68359 9.7373 2.77734 10.124C2.87109 10.5049 2.97656 10.8682 3.09375 11.2139C3.21094 11.5596 3.34277 11.8643 3.48926 12.1279C3.63574 12.3916 3.79395 12.6025 3.96387 12.7607C4.13965 12.9131 4.33008 12.9893 4.53516 12.9893C4.68164 12.9893 4.82812 12.9453 4.97461 12.8574C5.12695 12.7695 5.27637 12.6553 5.42285 12.5146C5.56934 12.3682 5.70996 12.2041 5.84473 12.0225C5.97949 11.8408 6.10254 11.6562 6.21387 11.4688C6.3252 11.2812 6.4248 11.1025 6.5127 10.9326C6.60645 10.7568 6.67969 10.6045 6.73242 10.4756C6.76758 10.3643 6.78516 10.2617 6.78516 10.168C6.78516 10.1211 6.78223 10.0742 6.77637 10.0273C6.77051 9.98047 6.76172 9.93066 6.75 9.87793C6.63867 9.51465 6.55371 9.15137 6.49512 8.78809C6.43652 8.4248 6.40723 8.03223 6.40723 7.61035C6.40723 7.36426 6.42773 7.12109 6.46875 6.88086C6.50977 6.64062 6.58008 6.4209 6.67969 6.22168C6.73242 6.11621 6.81152 6.02539 6.91699 5.94922C7.02246 5.87305 7.13672 5.81152 7.25977 5.76465C7.38867 5.71777 7.52051 5.68555 7.65527 5.66797C7.7959 5.64453 7.9248 5.63281 8.04199 5.63281C8.1709 5.63281 8.28809 5.65918 8.39355 5.71191C8.49902 5.75879 8.59277 5.84082 8.6748 5.95801C8.83887 6.18066 8.95312 6.43555 9.01758 6.72266C9.08789 7.00977 9.12305 7.2998 9.12305 7.59277C9.12305 7.90918 9.09375 8.23438 9.03516 8.56836C8.97656 8.89648 8.90625 9.22461 8.82422 9.55273C8.7832 9.63477 8.7627 9.72559 8.7627 9.8252C8.7627 9.87207 8.76855 9.92188 8.78027 9.97461C8.79785 10.0273 8.81836 10.0859 8.8418 10.1504C8.94727 10.4258 9.07031 10.707 9.21094 10.9941C9.35742 11.2754 9.52441 11.5303 9.71191 11.7588C9.89941 11.9873 10.1104 12.1748 10.3447 12.3213C10.5791 12.4678 10.8457 12.541 11.1445 12.541C11.4082 12.541 11.6455 12.4297 11.8564 12.207C12.0674 11.9844 12.2432 11.7031 12.3838 11.3633C12.5303 11.0234 12.6416 10.6543 12.7178 10.2559C12.7939 9.85156 12.832 9.46777 12.832 9.10449C12.832 8.71777 12.8174 8.33691 12.7881 7.96191C12.7588 7.58691 12.7207 7.24121 12.6738 6.9248C12.6621 6.89551 12.6562 6.86621 12.6562 6.83691C12.6562 6.80762 12.6562 6.77832 12.6562 6.74902C12.6562 6.41504 12.835 6.18652 13.1924 6.06348L13.5879 5.93164C13.6992 5.89648 13.8018 5.87891 13.8955 5.87891C14.2061 5.87891 14.3936 6.07227 14.458 6.45898C14.5225 6.82227 14.5723 7.18555 14.6074 7.54883C14.6484 7.91211 14.6689 8.27539 14.6689 8.63867C14.6689 9.41211 14.5781 10.1387 14.3965 10.8184C14.2148 11.498 13.96 12.0928 13.6318 12.6025C13.3096 13.1064 12.9258 13.5049 12.4805 13.7979C12.0352 14.0908 11.5459 14.2373 11.0127 14.2373C10.4912 14.2373 9.9668 14.082 9.43945 13.7715C8.91211 13.4551 8.43457 12.9541 8.00684 12.2686C7.9248 12.1162 7.83105 12.04 7.72559 12.04C7.62598 12.04 7.53516 12.1162 7.45312 12.2686C7.24805 12.6318 7.02246 12.9688 6.77637 13.2793C6.53027 13.584 6.26953 13.8477 5.99414 14.0703C5.71875 14.293 5.43164 14.4658 5.13281 14.5889C4.83398 14.7119 4.53223 14.7734 4.22754 14.7734C3.73535 14.7734 3.30176 14.6387 2.92676 14.3691C2.55762 14.1055 2.23535 13.751 1.95996 13.3057C1.69043 12.8604 1.46191 12.3506 1.27441 11.7764C1.08691 11.1963 0.928711 10.5957 0.799805 9.97461C0.676758 9.34766 0.574219 8.7207 0.492188 8.09375C0.416016 7.4668 0.348633 6.88086 0.290039 6.33594V6.2041ZM17.0539 5.53613C17.0539 4.90332 17.4641 4.58691 18.2844 4.58691C18.425 4.58691 18.5481 4.625 18.6536 4.70117C18.759 4.77734 18.8205 4.88281 18.8381 5.01758C18.8909 5.375 18.9377 5.72949 18.9788 6.08105C19.0198 6.43262 19.0579 6.82812 19.093 7.26758C19.134 7.70117 19.1721 8.20508 19.2073 8.7793C19.2483 9.34766 19.2922 10.0273 19.3391 10.8184C19.3391 10.9004 19.3508 10.959 19.3743 10.9941C19.4036 11.0293 19.4358 11.0469 19.4709 11.0469C19.5237 11.0469 19.5764 10.9941 19.6291 10.8887C19.8284 10.4492 20.051 10.0566 20.2971 9.71094C20.5432 9.35938 20.8069 9.06348 21.0881 8.82324C21.3694 8.57715 21.6653 8.39258 21.9758 8.26953C22.2922 8.14062 22.6145 8.07617 22.9426 8.07617C23.3762 8.07617 23.7688 8.19922 24.1204 8.44531C24.4719 8.69141 24.7707 9.04004 25.0168 9.49121C25.2629 9.94238 25.4534 10.4902 25.5881 11.1348C25.7229 11.7734 25.7903 12.4883 25.7903 13.2793C25.7903 13.4961 25.7727 13.6748 25.7375 13.8154C25.7082 13.9502 25.6555 14.0586 25.5793 14.1406C25.5032 14.2227 25.3977 14.2783 25.2629 14.3076C25.1282 14.3428 24.9612 14.3604 24.762 14.3604C24.4866 14.3604 24.2873 14.3076 24.1643 14.2021C24.0471 14.0967 23.9885 13.9326 23.9885 13.71C23.9885 13.1592 23.9504 12.6406 23.8743 12.1543C23.8039 11.6621 23.7043 11.2314 23.5754 10.8623C23.4465 10.4932 23.2942 10.2002 23.1184 9.9834C22.9485 9.7666 22.7639 9.6582 22.5647 9.6582C22.1135 9.6582 21.6623 10.0244 21.2112 10.7568C20.7659 11.4893 20.3 12.5938 19.8137 14.0703C19.7668 14.2051 19.7141 14.3164 19.6555 14.4043C19.5969 14.4922 19.5266 14.5625 19.4446 14.6152C19.3684 14.668 19.2746 14.7031 19.1633 14.7207C19.052 14.7441 18.9202 14.7559 18.7678 14.7559C18.4573 14.7559 18.2346 14.6973 18.0998 14.5801C17.9709 14.4629 17.9006 14.2695 17.8889 14C17.8538 12.9805 17.7893 12.0078 17.6955 11.082C17.6077 10.1504 17.5139 9.30957 17.4143 8.55957C17.3205 7.80371 17.2356 7.16504 17.1594 6.64355C17.0891 6.11621 17.0539 5.74707 17.0539 5.53613ZM33.7475 6.31836C34.0698 6.31836 34.3804 6.36816 34.6792 6.46777C34.978 6.56738 35.2417 6.70508 35.4702 6.88086C35.6987 7.05664 35.8804 7.26758 36.0151 7.51367C36.1557 7.75977 36.2261 8.03223 36.2261 8.33105C36.2261 8.4541 36.1968 8.57422 36.1382 8.69141C36.0854 8.80273 36.0122 8.90234 35.9184 8.99023C35.8247 9.07227 35.7163 9.13965 35.5932 9.19238C35.4761 9.23926 35.353 9.2627 35.2241 9.2627C35.2124 9.2627 35.2007 9.26562 35.1889 9.27148C35.1831 9.27148 35.1743 9.27148 35.1626 9.27148C35.1509 9.27734 35.1391 9.28027 35.1274 9.28027L35.1626 9.9834C35.186 10.8213 35.3032 11.4336 35.5141 11.8203C35.7309 12.207 36.0122 12.4004 36.3579 12.4004C36.4809 12.4004 36.5893 12.3887 36.6831 12.3652C36.7827 12.3418 36.8735 12.3154 36.9555 12.2861C37.0434 12.251 37.1255 12.2217 37.2016 12.1982C37.2778 12.1748 37.354 12.1631 37.4302 12.1631C37.5649 12.1631 37.6821 12.2217 37.7817 12.3389C37.8872 12.4561 37.9399 12.5967 37.9399 12.7607C37.9399 12.9248 37.8755 13.0889 37.7466 13.2529C37.6235 13.417 37.4595 13.5664 37.2544 13.7012C37.0493 13.8301 36.8179 13.9355 36.56 14.0176C36.3022 14.0996 36.0415 14.1406 35.7778 14.1406C35.3208 14.1406 34.9194 13.9531 34.5737 13.5781C34.228 13.1973 33.9819 12.6406 33.8354 11.9082C33.8003 11.791 33.7534 11.7324 33.6948 11.7324C33.6245 11.7324 33.563 11.7676 33.5102 11.8379C32.9302 12.5703 32.312 13.1211 31.6557 13.4902C30.9995 13.8535 30.352 14.0352 29.7134 14.0352C29.4145 14.0352 29.145 13.9912 28.9048 13.9033C28.6645 13.8154 28.4595 13.6924 28.2895 13.5342C28.1255 13.3701 27.9966 13.1738 27.9028 12.9453C27.8149 12.7109 27.771 12.4502 27.771 12.1631C27.771 11.7588 27.8589 11.334 28.0346 10.8887C28.2163 10.4434 28.4595 10.0039 28.7641 9.57031C29.0688 9.13672 29.4204 8.72363 29.8188 8.33105C30.2231 7.93848 30.645 7.59277 31.0845 7.29395C31.5298 6.99512 31.9809 6.75781 32.438 6.58203C32.895 6.40625 33.3315 6.31836 33.7475 6.31836ZM33.4575 9.35938C33.563 9.16016 33.6596 9.0166 33.7475 8.92871C33.8354 8.83496 33.9614 8.77344 34.1255 8.74414C34.2544 8.72656 34.3188 8.68555 34.3188 8.62109C34.3188 8.57422 34.3013 8.52441 34.2661 8.47168C34.1548 8.31934 34.0376 8.1875 33.9145 8.07617C33.7915 7.95898 33.6274 7.90039 33.4223 7.90039C33.1997 7.90039 32.9507 7.96484 32.6753 8.09375C32.3999 8.22266 32.1186 8.39551 31.8315 8.6123C31.5503 8.82324 31.272 9.06641 30.9966 9.3418C30.727 9.61133 30.4868 9.88965 30.2759 10.1768C30.0649 10.4639 29.895 10.748 29.7661 11.0293C29.6372 11.3105 29.5727 11.5625 29.5727 11.7852C29.5727 11.9844 29.6255 12.1396 29.7309 12.251C29.8423 12.3623 29.9917 12.418 30.1792 12.418C30.6596 12.418 31.1841 12.1631 31.7524 11.6533C32.3208 11.1436 32.8891 10.3789 33.4575 9.35938ZM40.3073 3.84863C40.3073 3.53809 40.3952 3.32129 40.571 3.19824C40.7468 3.06934 41.0368 3.00488 41.4411 3.00488C41.5876 3.00488 41.7107 3.01953 41.8103 3.04883C41.9157 3.07227 42.0036 3.11914 42.0739 3.18945C42.1501 3.25977 42.2087 3.35352 42.2497 3.4707C42.2966 3.58203 42.3347 3.72559 42.364 3.90137C42.4343 4.44629 42.5105 5.00879 42.5925 5.58887C42.6804 6.16895 42.7712 6.75195 42.865 7.33789C42.9001 7.60156 43.0378 7.7334 43.278 7.7334C43.3425 7.7334 43.448 7.72754 43.5945 7.71582C43.7468 7.69824 43.9255 7.68066 44.1306 7.66309C44.3357 7.63965 44.5554 7.61621 44.7898 7.59277C45.03 7.56934 45.2673 7.54883 45.5017 7.53125C45.7419 7.50781 45.9675 7.49023 46.1784 7.47852C46.3952 7.46094 46.5857 7.45215 46.7497 7.45215C46.8786 7.45215 46.9812 7.47852 47.0573 7.53125C47.1335 7.57812 47.1921 7.64258 47.2331 7.72461C47.28 7.80078 47.3093 7.88867 47.321 7.98828C47.3386 8.08203 47.3474 8.17871 47.3474 8.27832C47.3474 8.36621 47.3298 8.45703 47.2946 8.55078C47.2654 8.64453 47.2214 8.72949 47.1628 8.80566C47.1101 8.87598 47.0427 8.93457 46.9607 8.98145C46.8786 9.02832 46.7849 9.05176 46.6794 9.05176C46.1696 9.05176 45.654 9.06934 45.1325 9.10449C44.6169 9.13379 44.1013 9.1748 43.5857 9.22754C43.322 9.2627 43.1902 9.39453 43.1902 9.62305C43.1902 9.64062 43.1931 9.66406 43.1989 9.69336C43.2048 9.7168 43.2077 9.7373 43.2077 9.75488C43.278 10.2646 43.3425 10.7422 43.4011 11.1875C43.4655 11.6328 43.5183 12.0312 43.5593 12.3828C43.6062 12.7285 43.6413 13.0186 43.6648 13.2529C43.6941 13.4814 43.7087 13.6338 43.7087 13.71C43.7087 13.9209 43.6882 14.0967 43.6472 14.2373C43.6062 14.3838 43.5388 14.501 43.445 14.5889C43.3513 14.6826 43.2253 14.7471 43.0671 14.7822C42.9148 14.8232 42.7214 14.8438 42.487 14.8438C42.2644 14.8438 42.1003 14.791 41.9948 14.6855C41.8894 14.5801 41.8308 14.4189 41.8191 14.2021C41.7839 13.5107 41.7282 12.8164 41.6521 12.1191C41.5759 11.416 41.488 10.7158 41.3884 10.0186C41.3357 9.7666 41.2038 9.64062 40.9929 9.64062C40.9753 9.64062 40.9548 9.64355 40.9314 9.64941C40.9079 9.65527 40.8874 9.6582 40.8698 9.6582C40.5066 9.74023 40.1638 9.82227 39.8415 9.9043C39.5193 9.98633 39.2175 10.0742 38.9362 10.168C38.778 10.2207 38.6374 10.2588 38.5144 10.2822C38.3913 10.2998 38.28 10.3086 38.1804 10.3086C38.0456 10.3086 37.946 10.25 37.8816 10.1328C37.8171 10.0098 37.7849 9.85742 37.7849 9.67578C37.7849 9.61133 37.7907 9.53809 37.8025 9.45605C37.8142 9.36816 37.8376 9.2832 37.8728 9.20117C37.9021 9.11328 37.9489 9.03418 38.0134 8.96387C38.072 8.8877 38.154 8.82617 38.2595 8.7793C38.5056 8.67969 38.8337 8.57715 39.2439 8.47168C39.654 8.36035 40.1169 8.25781 40.6325 8.16406C40.7497 8.13477 40.8405 8.08789 40.905 8.02344C40.9753 7.95312 41.0105 7.85059 41.0105 7.71582C41.0105 7.68652 41.0105 7.65723 41.0105 7.62793C41.0105 7.59277 41.0046 7.55762 40.9929 7.52246C40.8991 6.9834 40.8083 6.49414 40.7204 6.05469C40.6384 5.60938 40.5652 5.22852 40.5007 4.91211C40.4421 4.5957 40.3952 4.34668 40.3601 4.16504C40.3249 3.9834 40.3073 3.87793 40.3073 3.84863ZM59.509 7.5752C59.5324 7.58691 59.5676 7.59277 59.6145 7.59277C59.7434 7.59277 59.8078 7.50781 59.8078 7.33789V4.60449C59.8078 4.25879 59.884 4.0127 60.0363 3.86621C60.1945 3.71973 60.4553 3.64648 60.8186 3.64648C61.1877 3.64648 61.4484 3.72266 61.6008 3.875C61.7531 4.02734 61.8293 4.28809 61.8293 4.65723C61.8293 4.79785 61.8205 5.00586 61.8029 5.28125C61.7854 5.55078 61.7648 5.8584 61.7414 6.2041C61.7238 6.5498 61.7062 6.92188 61.6887 7.32031C61.6711 7.71289 61.6623 8.10254 61.6623 8.48926C61.6623 9.08691 61.7033 9.60254 61.7854 10.0361C61.8674 10.4697 61.9846 10.8301 62.1369 11.1172C62.2893 11.3984 62.4709 11.6094 62.6818 11.75C62.8928 11.8848 63.1301 11.9521 63.3937 11.9521C63.5402 11.9521 63.6721 11.9346 63.7893 11.8994C63.9123 11.8584 64.0559 11.8379 64.2199 11.8379C64.3371 11.8379 64.4338 11.8994 64.51 12.0225C64.592 12.1396 64.633 12.2832 64.633 12.4531C64.633 12.6055 64.5861 12.749 64.4924 12.8838C64.4045 13.0186 64.2814 13.1357 64.1232 13.2354C63.9709 13.335 63.7922 13.4141 63.5871 13.4727C63.382 13.5254 63.1682 13.5518 62.9455 13.5518C62.465 13.5518 62.0256 13.4053 61.6271 13.1123C61.2287 12.8135 60.9299 12.3594 60.7307 11.75C60.7131 11.6562 60.6838 11.6094 60.6428 11.6094C60.5959 11.6094 60.5578 11.6562 60.5285 11.75C60.3703 12.1777 60.1623 12.5645 59.9045 12.9102C59.6525 13.25 59.3566 13.543 59.0168 13.7891C58.6828 14.0293 58.3137 14.2139 57.9094 14.3428C57.5109 14.4717 57.0891 14.5361 56.6437 14.5361C56.175 14.5361 55.7443 14.457 55.3518 14.2988C54.965 14.1465 54.6311 13.9326 54.3498 13.6572C54.0686 13.376 53.8488 13.0479 53.6906 12.6729C53.5324 12.292 53.4533 11.8818 53.4533 11.4424C53.4533 10.8799 53.5705 10.3496 53.8049 9.85156C54.0393 9.35352 54.3557 8.91992 54.7541 8.55078C55.1584 8.17578 55.6271 7.87988 56.1604 7.66309C56.6936 7.44629 57.2619 7.33789 57.8654 7.33789C58.1115 7.33789 58.3723 7.3584 58.6477 7.39941C58.923 7.43457 59.2102 7.49316 59.509 7.5752ZM56.9865 12.9541C57.3205 12.9541 57.6164 12.8809 57.8742 12.7344C58.1379 12.5879 58.3693 12.4033 58.5686 12.1807C58.7736 11.9521 58.9465 11.7031 59.0871 11.4336C59.2277 11.1582 59.342 10.8916 59.4299 10.6338C59.5178 10.376 59.5822 10.1445 59.6232 9.93945C59.6643 9.73438 59.6848 9.58789 59.6848 9.5C59.6848 9.43555 59.6672 9.37988 59.632 9.33301C59.5969 9.28027 59.5441 9.23926 59.4738 9.20996C59.3156 9.16895 59.1516 9.13379 58.9816 9.10449C58.8117 9.06934 58.6447 9.04004 58.4807 9.0166C58.3166 8.99316 58.1584 8.97559 58.0061 8.96387C57.8596 8.95215 57.7248 8.94629 57.6018 8.94629C57.2502 8.94629 56.9309 8.99902 56.6437 9.10449C56.3566 9.20996 56.1105 9.35938 55.9055 9.55273C55.7062 9.74609 55.551 9.97754 55.4396 10.2471C55.3283 10.5107 55.2727 10.8008 55.2727 11.1172C55.2727 11.3984 55.3137 11.6533 55.3957 11.8818C55.4836 12.1045 55.6008 12.2949 55.7473 12.4531C55.8996 12.6113 56.0812 12.7344 56.2922 12.8223C56.5031 12.9102 56.7346 12.9541 56.9865 12.9541ZM65.5502 11.082C65.5502 10.9824 65.562 10.8711 65.5854 10.748C65.6088 10.625 65.6205 10.4902 65.6205 10.3438C65.6205 10.2441 65.5766 10.168 65.4887 10.1152C65.4067 10.0625 65.3129 10.0039 65.2075 9.93945C65.102 9.875 65.0053 9.79297 64.9174 9.69336C64.8354 9.59375 64.7944 9.4502 64.7944 9.2627C64.7944 9.12793 64.8295 8.99316 64.8998 8.8584C64.976 8.72363 65.0844 8.60059 65.225 8.48926C65.5707 8.23145 65.9282 8 66.2973 7.79492C66.6723 7.58984 67.0444 7.41699 67.4135 7.27637C67.7885 7.13574 68.1577 7.02734 68.5209 6.95117C68.8842 6.875 69.2328 6.83691 69.5668 6.83691C70.1293 6.83691 70.6567 6.94238 71.1489 7.15332C71.6469 7.3584 72.0776 7.64258 72.4409 8.00586C72.81 8.36328 73.1 8.78516 73.311 9.27148C73.5278 9.75195 73.6362 10.2676 73.6362 10.8184C73.6362 11.3574 73.5219 11.8701 73.2934 12.3564C73.0707 12.8369 72.769 13.2588 72.3881 13.6221C72.0073 13.9854 71.559 14.2725 71.0434 14.4834C70.5336 14.7002 69.9946 14.8086 69.4262 14.8086C68.8696 14.8086 68.3539 14.7148 67.8793 14.5273C67.4047 14.3398 66.9946 14.082 66.6489 13.7539C66.3032 13.4199 66.0336 13.0273 65.8403 12.5762C65.6469 12.1191 65.5502 11.6211 65.5502 11.082ZM69.6196 13.2266C69.8657 13.2266 70.1205 13.1768 70.3842 13.0771C70.6479 12.9775 70.8881 12.834 71.1049 12.6465C71.3276 12.4531 71.5092 12.2188 71.6498 11.9434C71.7963 11.668 71.8696 11.3574 71.8696 11.0117C71.8696 10.6602 71.8051 10.332 71.6762 10.0273C71.5473 9.72266 71.3686 9.45898 71.1401 9.23633C70.9174 9.00781 70.6508 8.8291 70.3403 8.7002C70.0356 8.57129 69.7045 8.50684 69.3471 8.50684C68.6967 8.50684 68.1987 8.67676 67.853 9.0166C67.5073 9.35059 67.3344 9.86621 67.3344 10.5635C67.3344 10.9443 67.3901 11.2988 67.5014 11.627C67.6186 11.9492 67.7797 12.2305 67.9848 12.4707C68.1899 12.7051 68.4301 12.8896 68.7055 13.0244C68.9868 13.1592 69.2914 13.2266 69.6196 13.2266ZM85.2441 14.2373C84.8925 14.2373 84.5409 14.1523 84.1894 13.9824C83.8378 13.8066 83.5009 13.5693 83.1786 13.2705C82.8564 12.9717 82.5575 12.6201 82.2822 12.2158C82.0068 11.8057 81.7665 11.3662 81.5614 10.8975C81.3564 10.4229 81.1952 9.92773 81.078 9.41211C80.9609 8.89648 80.9023 8.38086 80.9023 7.86523C80.9023 7.4668 80.9843 7.18262 81.1484 7.0127C81.3124 6.83691 81.579 6.74902 81.9482 6.74902C82.4111 6.74902 82.6689 6.93945 82.7216 7.32031C82.8271 8.12891 82.9736 8.8584 83.1611 9.50879C83.3486 10.1592 83.5683 10.7129 83.8202 11.1699C84.078 11.627 84.3622 11.9785 84.6728 12.2246C84.9892 12.4707 85.3232 12.5938 85.6747 12.5938C85.9267 12.5938 86.164 12.5322 86.3866 12.4092C86.6093 12.2803 86.8027 12.1016 86.9667 11.873C87.0253 11.7852 87.0634 11.7002 87.081 11.6182C87.1044 11.5361 87.122 11.4424 87.1337 11.3369C87.163 10.9209 87.1952 10.5137 87.2304 10.1152C87.2714 9.71094 87.3095 9.30664 87.3447 8.90234C87.3564 8.72656 87.3798 8.58301 87.415 8.47168C87.4501 8.36035 87.5029 8.27246 87.5732 8.20801C87.6435 8.14355 87.7343 8.09961 87.8456 8.07617C87.9628 8.05273 88.1093 8.04102 88.2851 8.04102C88.4843 8.04102 88.6542 8.07031 88.7948 8.12891C88.9355 8.18164 89.0497 8.27246 89.1376 8.40137C89.2255 8.52441 89.287 8.68848 89.3222 8.89355C89.3632 9.09277 89.3837 9.3418 89.3837 9.64062C89.3837 9.89844 89.3632 10.124 89.3222 10.3174C89.287 10.5049 89.2431 10.6836 89.1904 10.8535C89.1435 11.0176 89.0966 11.1816 89.0497 11.3457C89.0087 11.5039 88.9823 11.6797 88.9706 11.873C88.9413 12.3594 88.915 12.7812 88.8915 13.1387C88.8681 13.4902 88.8476 13.792 88.83 14.0439C88.8183 14.2959 88.8066 14.5127 88.7948 14.6943C88.789 14.876 88.7831 15.0371 88.7773 15.1777C88.7714 15.3242 88.7685 15.4619 88.7685 15.5908C88.7685 15.7197 88.7685 15.8604 88.7685 16.0127C88.7685 16.2881 88.7802 16.5869 88.8036 16.9092C88.8271 17.2373 88.8505 17.5508 88.8739 17.8496C88.9032 18.1484 88.9296 18.4121 88.953 18.6406C88.9765 18.8691 88.9882 19.0273 88.9882 19.1152C88.9882 19.2266 88.953 19.332 88.8827 19.4316C88.8124 19.5312 88.7187 19.6191 88.6015 19.6953C88.4843 19.7715 88.3466 19.8301 88.1884 19.8711C88.0302 19.918 87.8632 19.9414 87.6874 19.9414C87.5351 19.9414 87.412 19.8887 87.3183 19.7832C87.2304 19.6836 87.1806 19.5488 87.1689 19.3789C87.1513 19.1562 87.1366 18.8838 87.1249 18.5615C87.1132 18.2451 87.1015 17.9053 87.0898 17.542C87.078 17.1846 87.0693 16.8184 87.0634 16.4434C87.0634 16.0742 87.0605 15.7285 87.0546 15.4062C87.0488 15.0898 87.0458 14.8115 87.0458 14.5713C87.0458 14.3311 87.0458 14.1582 87.0458 14.0527C87.0458 13.9473 87.0341 13.874 87.0107 13.833C86.9872 13.7861 86.9433 13.7627 86.8788 13.7627C86.8437 13.7627 86.7968 13.7744 86.7382 13.7979C86.6796 13.8154 86.6122 13.8477 86.5361 13.8945C86.331 14.0176 86.123 14.1055 85.912 14.1582C85.7011 14.2109 85.4784 14.2373 85.2441 14.2373ZM91.8127 11.082C91.8127 10.9824 91.8244 10.8711 91.8478 10.748C91.8712 10.625 91.883 10.4902 91.883 10.3438C91.883 10.2441 91.839 10.168 91.7511 10.1152C91.6691 10.0625 91.5753 10.0039 91.4699 9.93945C91.3644 9.875 91.2677 9.79297 91.1798 9.69336C91.0978 9.59375 91.0568 9.4502 91.0568 9.2627C91.0568 9.12793 91.0919 8.99316 91.1623 8.8584C91.2384 8.72363 91.3468 8.60059 91.4875 8.48926C91.8332 8.23145 92.1906 8 92.5597 7.79492C92.9347 7.58984 93.3068 7.41699 93.6759 7.27637C94.0509 7.13574 94.4201 7.02734 94.7834 6.95117C95.1466 6.875 95.4953 6.83691 95.8293 6.83691C96.3918 6.83691 96.9191 6.94238 97.4113 7.15332C97.9093 7.3584 98.34 7.64258 98.7033 8.00586C99.0724 8.36328 99.3625 8.78516 99.5734 9.27148C99.7902 9.75195 99.8986 10.2676 99.8986 10.8184C99.8986 11.3574 99.7843 11.8701 99.5558 12.3564C99.3332 12.8369 99.0314 13.2588 98.6505 13.6221C98.2697 13.9854 97.8214 14.2725 97.3058 14.4834C96.7961 14.7002 96.257 14.8086 95.6886 14.8086C95.132 14.8086 94.6164 14.7148 94.1418 14.5273C93.6671 14.3398 93.257 14.082 92.9113 13.7539C92.5656 13.4199 92.2961 13.0273 92.1027 12.5762C91.9093 12.1191 91.8127 11.6211 91.8127 11.082ZM95.882 13.2266C96.1281 13.2266 96.383 13.1768 96.6466 13.0771C96.9103 12.9775 97.1505 12.834 97.3673 12.6465C97.59 12.4531 97.7716 12.2188 97.9123 11.9434C98.0587 11.668 98.132 11.3574 98.132 11.0117C98.132 10.6602 98.0675 10.332 97.9386 10.0273C97.8097 9.72266 97.631 9.45898 97.4025 9.23633C97.1798 9.00781 96.9132 8.8291 96.6027 8.7002C96.298 8.57129 95.9669 8.50684 95.6095 8.50684C94.9591 8.50684 94.4611 8.67676 94.1154 9.0166C93.7697 9.35059 93.5968 9.86621 93.5968 10.5635C93.5968 10.9443 93.6525 11.2988 93.7638 11.627C93.881 11.9492 94.0421 12.2305 94.2472 12.4707C94.4523 12.7051 94.6925 12.8896 94.9679 13.0244C95.2492 13.1592 95.5539 13.2266 95.882 13.2266ZM104.156 10.8887C104.156 11.6738 104.276 12.2803 104.516 12.708C104.756 13.1357 105.105 13.3496 105.562 13.3496C105.849 13.3496 106.113 13.2646 106.353 13.0947C106.599 12.9248 106.81 12.6875 106.986 12.3828C107.162 12.0781 107.296 11.7178 107.39 11.3018C107.49 10.8799 107.539 10.4229 107.539 9.93066C107.539 9.63184 107.528 9.37402 107.504 9.15723C107.481 8.93457 107.454 8.73828 107.425 8.56836C107.402 8.39258 107.378 8.2373 107.355 8.10254C107.331 7.96777 107.32 7.83887 107.32 7.71582C107.32 7.52832 107.399 7.39355 107.557 7.31152C107.715 7.22363 107.967 7.17969 108.313 7.17969C108.752 7.17969 109.092 7.2793 109.332 7.47852C109.579 7.67773 109.702 7.96777 109.702 8.34863C109.702 9.38574 109.599 10.3174 109.394 11.1436C109.195 11.9697 108.905 12.6729 108.524 13.2529C108.149 13.8271 107.692 14.2695 107.153 14.5801C106.614 14.8906 106.01 15.0459 105.342 15.0459C104.868 15.0459 104.428 14.9463 104.024 14.7471C103.625 14.5537 103.28 14.2812 102.987 13.9297C102.7 13.5723 102.474 13.1504 102.31 12.6641C102.146 12.1719 102.064 11.6328 102.064 11.0469C102.064 10.8242 102.07 10.5869 102.081 10.335C102.093 10.083 102.111 9.81348 102.134 9.52637C102.158 9.2334 102.187 8.91699 102.222 8.57715C102.263 8.2373 102.307 7.86816 102.354 7.46973C102.371 7.2998 102.451 7.16504 102.591 7.06543C102.738 6.95996 102.922 6.90723 103.145 6.90723C103.344 6.90723 103.532 6.92773 103.707 6.96875C103.883 7.00977 104.033 7.06543 104.156 7.13574C104.285 7.20605 104.384 7.28809 104.454 7.38184C104.531 7.47559 104.569 7.5752 104.569 7.68066C104.569 7.78613 104.545 7.95312 104.498 8.18164C104.457 8.4043 104.411 8.66211 104.358 8.95508C104.311 9.24219 104.264 9.55566 104.217 9.89551C104.176 10.2295 104.156 10.5605 104.156 10.8887ZM123.146 10.2383C123.146 9.3125 123.258 8.60059 123.48 8.10254C123.703 7.60449 124.022 7.35547 124.438 7.35547C125.1 7.35547 125.432 7.92676 125.432 9.06934C125.432 9.47363 125.408 9.85449 125.361 10.2119C125.32 10.5693 125.259 10.915 125.177 11.249C125.165 11.2959 125.156 11.3398 125.15 11.3809C125.144 11.4219 125.141 11.46 125.141 11.4951C125.141 11.6182 125.165 11.7266 125.212 11.8203C125.505 12.5645 126.047 12.9365 126.838 12.9365C127.119 12.9365 127.383 12.875 127.629 12.752C127.875 12.6289 128.089 12.4619 128.27 12.251C128.452 12.0342 128.593 11.7822 128.692 11.4951C128.798 11.208 128.85 10.8975 128.85 10.5635C128.85 10.1885 128.807 9.87793 128.719 9.63184C128.631 9.37988 128.534 9.16602 128.429 8.99023C128.323 8.80859 128.226 8.64453 128.139 8.49805C128.051 8.3457 128.007 8.17578 128.007 7.98828C128.007 7.90039 128.045 7.80957 128.121 7.71582C128.203 7.61621 128.303 7.52539 128.42 7.44336C128.543 7.36133 128.675 7.29395 128.815 7.24121C128.962 7.18848 129.099 7.16211 129.228 7.16211C129.398 7.16211 129.565 7.25586 129.729 7.44336C129.899 7.63086 130.049 7.87695 130.178 8.18164C130.312 8.48047 130.418 8.82324 130.494 9.20996C130.576 9.59668 130.617 9.98633 130.617 10.3789C130.617 10.9473 130.512 11.4834 130.301 11.9873C130.09 12.4912 129.803 12.9336 129.439 13.3145C129.076 13.6953 128.651 13.9971 128.165 14.2197C127.684 14.4424 127.175 14.5537 126.636 14.5537C126.179 14.5537 125.771 14.4717 125.414 14.3076C125.062 14.1494 124.737 13.8682 124.438 13.4639C124.391 13.3877 124.345 13.335 124.298 13.3057C124.251 13.2764 124.204 13.2617 124.157 13.2617C124.099 13.2617 124.046 13.2764 123.999 13.3057C123.952 13.335 123.902 13.3877 123.849 13.4639C123.451 13.9854 123.023 14.3574 122.566 14.5801C122.115 14.8027 121.617 14.9141 121.072 14.9141C120.469 14.9141 119.924 14.7471 119.437 14.4131C118.957 14.085 118.547 13.6162 118.207 13.0068C117.867 12.3975 117.606 11.6592 117.425 10.792C117.243 9.91895 117.152 8.94336 117.152 7.86523C117.152 7.42578 117.17 7.0625 117.205 6.77539C117.24 6.48242 117.305 6.25391 117.398 6.08984C117.492 5.91992 117.615 5.80273 117.767 5.73828C117.92 5.66797 118.116 5.63281 118.356 5.63281C118.608 5.63281 118.79 5.68262 118.901 5.78223C119.018 5.87598 119.077 6.04004 119.077 6.27441C119.077 6.45605 119.059 6.66113 119.024 6.88965C118.989 7.1123 118.972 7.30566 118.972 7.46973C118.972 8.31934 119.03 9.10156 119.147 9.81641C119.27 10.5312 119.437 11.1465 119.648 11.6621C119.865 12.1777 120.12 12.5791 120.413 12.8662C120.712 13.1533 121.04 13.2969 121.397 13.2969C122.194 13.2969 122.783 12.8896 123.164 12.0752C123.199 12.0107 123.223 11.9521 123.234 11.8994C123.246 11.8408 123.252 11.7793 123.252 11.7148C123.252 11.6797 123.252 11.6445 123.252 11.6094C123.252 11.5684 123.246 11.5244 123.234 11.4775C123.205 11.2549 123.182 11.0439 123.164 10.8447C123.152 10.6396 123.146 10.4375 123.146 10.2383ZM138.293 6.31836C138.615 6.31836 138.926 6.36816 139.225 6.46777C139.524 6.56738 139.787 6.70508 140.016 6.88086C140.244 7.05664 140.426 7.26758 140.561 7.51367C140.701 7.75977 140.772 8.03223 140.772 8.33105C140.772 8.4541 140.742 8.57422 140.684 8.69141C140.631 8.80273 140.558 8.90234 140.464 8.99023C140.37 9.07227 140.262 9.13965 140.139 9.19238C140.022 9.23926 139.899 9.2627 139.77 9.2627C139.758 9.2627 139.746 9.26562 139.734 9.27148C139.729 9.27148 139.72 9.27148 139.708 9.27148C139.696 9.27734 139.685 9.28027 139.673 9.28027L139.708 9.9834C139.732 10.8213 139.849 11.4336 140.06 11.8203C140.276 12.207 140.558 12.4004 140.903 12.4004C141.026 12.4004 141.135 12.3887 141.229 12.3652C141.328 12.3418 141.419 12.3154 141.501 12.2861C141.589 12.251 141.671 12.2217 141.747 12.1982C141.823 12.1748 141.9 12.1631 141.976 12.1631C142.11 12.1631 142.228 12.2217 142.327 12.3389C142.433 12.4561 142.485 12.5967 142.485 12.7607C142.485 12.9248 142.421 13.0889 142.292 13.2529C142.169 13.417 142.005 13.5664 141.8 13.7012C141.595 13.8301 141.363 13.9355 141.106 14.0176C140.848 14.0996 140.587 14.1406 140.323 14.1406C139.866 14.1406 139.465 13.9531 139.119 13.5781C138.774 13.1973 138.527 12.6406 138.381 11.9082C138.346 11.791 138.299 11.7324 138.24 11.7324C138.17 11.7324 138.109 11.7676 138.056 11.8379C137.476 12.5703 136.858 13.1211 136.201 13.4902C135.545 13.8535 134.898 14.0352 134.259 14.0352C133.96 14.0352 133.691 13.9912 133.45 13.9033C133.21 13.8154 133.005 13.6924 132.835 13.5342C132.671 13.3701 132.542 13.1738 132.448 12.9453C132.36 12.7109 132.317 12.4502 132.317 12.1631C132.317 11.7588 132.404 11.334 132.58 10.8887C132.762 10.4434 133.005 10.0039 133.31 9.57031C133.614 9.13672 133.966 8.72363 134.364 8.33105C134.769 7.93848 135.191 7.59277 135.63 7.29395C136.075 6.99512 136.526 6.75781 136.984 6.58203C137.441 6.40625 137.877 6.31836 138.293 6.31836ZM138.003 9.35938C138.109 9.16016 138.205 9.0166 138.293 8.92871C138.381 8.83496 138.507 8.77344 138.671 8.74414C138.8 8.72656 138.864 8.68555 138.864 8.62109C138.864 8.57422 138.847 8.52441 138.812 8.47168C138.7 8.31934 138.583 8.1875 138.46 8.07617C138.337 7.95898 138.173 7.90039 137.968 7.90039C137.745 7.90039 137.496 7.96484 137.221 8.09375C136.945 8.22266 136.664 8.39551 136.377 8.6123C136.096 8.82324 135.818 9.06641 135.542 9.3418C135.273 9.61133 135.032 9.88965 134.821 10.1768C134.61 10.4639 134.441 10.748 134.312 11.0293C134.183 11.3105 134.118 11.5625 134.118 11.7852C134.118 11.9844 134.171 12.1396 134.276 12.251C134.388 12.3623 134.537 12.418 134.725 12.418C135.205 12.418 135.73 12.1631 136.298 11.6533C136.866 11.1436 137.435 10.3789 138.003 9.35938ZM144.185 6.90723C144.185 6.81934 144.223 6.73438 144.299 6.65234C144.375 6.56445 144.475 6.48828 144.598 6.42383C144.721 6.35352 144.859 6.29785 145.011 6.25684C145.169 6.20996 145.327 6.18652 145.486 6.18652C145.574 6.18652 145.647 6.20996 145.705 6.25684C145.77 6.30371 145.826 6.39453 145.872 6.5293C145.919 6.6582 145.96 6.84277 145.995 7.08301C146.036 7.31738 146.075 7.625 146.11 8.00586C146.133 8.12305 146.154 8.21387 146.171 8.27832C146.195 8.33691 146.224 8.36621 146.259 8.36621C146.312 8.36621 146.365 8.27539 146.417 8.09375C146.845 6.85742 147.463 6.23926 148.272 6.23926C148.647 6.23926 148.987 6.35645 149.291 6.59082C149.602 6.8252 149.889 7.20898 150.153 7.74219C150.422 8.26953 150.677 8.9668 150.917 9.83398C151.158 10.6953 151.398 11.7588 151.638 13.0244C151.65 13.0889 151.659 13.1475 151.664 13.2002C151.67 13.2529 151.673 13.3027 151.673 13.3496C151.673 13.4844 151.641 13.6016 151.577 13.7012C151.518 13.7949 151.439 13.874 151.339 13.9385C151.24 13.9971 151.128 14.041 151.005 14.0703C150.882 14.1055 150.759 14.123 150.636 14.123C150.39 14.123 150.211 14.0967 150.1 14.0439C149.994 13.9912 149.927 13.8916 149.898 13.7451C149.728 12.8545 149.561 12.0635 149.397 11.3721C149.239 10.6807 149.08 10.1006 148.922 9.63184C148.77 9.15723 148.618 8.79688 148.465 8.55078C148.313 8.30469 148.161 8.18164 148.008 8.18164C147.856 8.18164 147.712 8.27832 147.577 8.47168C147.449 8.65918 147.323 8.95508 147.2 9.35938C147.077 9.76367 146.956 10.2764 146.839 10.8975C146.728 11.5186 146.619 12.2598 146.514 13.1211C146.485 13.3555 146.368 13.543 146.162 13.6836C145.957 13.8242 145.697 13.8945 145.38 13.8945C145.169 13.8945 145.008 13.8506 144.897 13.7627C144.786 13.6748 144.724 13.5547 144.712 13.4023C144.66 12.1836 144.601 11.1816 144.536 10.3965C144.478 9.60547 144.422 8.97266 144.369 8.49805C144.317 8.01758 144.273 7.66016 144.238 7.42578C144.202 7.19141 144.185 7.01855 144.185 6.90723ZM154.673 3.84863C154.673 3.53809 154.761 3.32129 154.937 3.19824C155.113 3.06934 155.403 3.00488 155.807 3.00488C155.954 3.00488 156.077 3.01953 156.176 3.04883C156.282 3.07227 156.37 3.11914 156.44 3.18945C156.516 3.25977 156.575 3.35352 156.616 3.4707C156.663 3.58203 156.701 3.72559 156.73 3.90137C156.8 4.44629 156.877 5.00879 156.959 5.58887C157.046 6.16895 157.137 6.75195 157.231 7.33789C157.266 7.60156 157.404 7.7334 157.644 7.7334C157.709 7.7334 157.814 7.72754 157.961 7.71582C158.113 7.69824 158.292 7.68066 158.497 7.66309C158.702 7.63965 158.921 7.61621 159.156 7.59277C159.396 7.56934 159.633 7.54883 159.868 7.53125C160.108 7.50781 160.334 7.49023 160.545 7.47852C160.761 7.46094 160.952 7.45215 161.116 7.45215C161.245 7.45215 161.347 7.47852 161.423 7.53125C161.5 7.57812 161.558 7.64258 161.599 7.72461C161.646 7.80078 161.675 7.88867 161.687 7.98828C161.705 8.08203 161.713 8.17871 161.713 8.27832C161.713 8.36621 161.696 8.45703 161.661 8.55078C161.631 8.64453 161.587 8.72949 161.529 8.80566C161.476 8.87598 161.409 8.93457 161.327 8.98145C161.245 9.02832 161.151 9.05176 161.046 9.05176C160.536 9.05176 160.02 9.06934 159.499 9.10449C158.983 9.13379 158.467 9.1748 157.952 9.22754C157.688 9.2627 157.556 9.39453 157.556 9.62305C157.556 9.64062 157.559 9.66406 157.565 9.69336C157.571 9.7168 157.574 9.7373 157.574 9.75488C157.644 10.2646 157.709 10.7422 157.767 11.1875C157.832 11.6328 157.884 12.0312 157.925 12.3828C157.972 12.7285 158.007 13.0186 158.031 13.2529C158.06 13.4814 158.075 13.6338 158.075 13.71C158.075 13.9209 158.054 14.0967 158.013 14.2373C157.972 14.3838 157.905 14.501 157.811 14.5889C157.717 14.6826 157.591 14.7471 157.433 14.7822C157.281 14.8232 157.087 14.8438 156.853 14.8438C156.63 14.8438 156.466 14.791 156.361 14.6855C156.255 14.5801 156.197 14.4189 156.185 14.2021C156.15 13.5107 156.094 12.8164 156.018 12.1191C155.942 11.416 155.854 10.7158 155.754 10.0186C155.702 9.7666 155.57 9.64062 155.359 9.64062C155.341 9.64062 155.321 9.64355 155.297 9.64941C155.274 9.65527 155.254 9.6582 155.236 9.6582C154.873 9.74023 154.53 9.82227 154.208 9.9043C153.885 9.98633 153.584 10.0742 153.302 10.168C153.144 10.2207 153.004 10.2588 152.88 10.2822C152.757 10.2998 152.646 10.3086 152.546 10.3086C152.412 10.3086 152.312 10.25 152.248 10.1328C152.183 10.0098 152.151 9.85742 152.151 9.67578C152.151 9.61133 152.157 9.53809 152.169 9.45605C152.18 9.36816 152.204 9.2832 152.239 9.20117C152.268 9.11328 152.315 9.03418 152.379 8.96387C152.438 8.8877 152.52 8.82617 152.626 8.7793C152.872 8.67969 153.2 8.57715 153.61 8.47168C154.02 8.36035 154.483 8.25781 154.999 8.16406C155.116 8.13477 155.207 8.08789 155.271 8.02344C155.341 7.95312 155.377 7.85059 155.377 7.71582C155.377 7.68652 155.377 7.65723 155.377 7.62793C155.377 7.59277 155.371 7.55762 155.359 7.52246C155.265 6.9834 155.174 6.49414 155.087 6.05469C155.004 5.60938 154.931 5.22852 154.867 4.91211C154.808 4.5957 154.761 4.34668 154.726 4.16504C154.691 3.9834 154.673 3.87793 154.673 3.84863ZM168.813 3.84863C168.813 3.53809 168.9 3.32129 169.076 3.19824C169.252 3.06934 169.542 3.00488 169.946 3.00488C170.093 3.00488 170.216 3.01953 170.316 3.04883C170.421 3.07227 170.509 3.11914 170.579 3.18945C170.655 3.25977 170.714 3.35352 170.755 3.4707C170.802 3.58203 170.84 3.72559 170.869 3.90137C170.94 4.44629 171.016 5.00879 171.098 5.58887C171.186 6.16895 171.276 6.75195 171.37 7.33789C171.405 7.60156 171.543 7.7334 171.783 7.7334C171.848 7.7334 171.953 7.72754 172.1 7.71582C172.252 7.69824 172.431 7.68066 172.636 7.66309C172.841 7.63965 173.061 7.61621 173.295 7.59277C173.535 7.56934 173.773 7.54883 174.007 7.53125C174.247 7.50781 174.473 7.49023 174.684 7.47852C174.9 7.46094 175.091 7.45215 175.255 7.45215C175.384 7.45215 175.486 7.47852 175.563 7.53125C175.639 7.57812 175.697 7.64258 175.738 7.72461C175.785 7.80078 175.815 7.88867 175.826 7.98828C175.844 8.08203 175.853 8.17871 175.853 8.27832C175.853 8.36621 175.835 8.45703 175.8 8.55078C175.771 8.64453 175.727 8.72949 175.668 8.80566C175.615 8.87598 175.548 8.93457 175.466 8.98145C175.384 9.02832 175.29 9.05176 175.185 9.05176C174.675 9.05176 174.159 9.06934 173.638 9.10449C173.122 9.13379 172.607 9.1748 172.091 9.22754C171.827 9.2627 171.695 9.39453 171.695 9.62305C171.695 9.64062 171.698 9.66406 171.704 9.69336C171.71 9.7168 171.713 9.7373 171.713 9.75488C171.783 10.2646 171.848 10.7422 171.906 11.1875C171.971 11.6328 172.024 12.0312 172.065 12.3828C172.111 12.7285 172.147 13.0186 172.17 13.2529C172.199 13.4814 172.214 13.6338 172.214 13.71C172.214 13.9209 172.193 14.0967 172.152 14.2373C172.111 14.3838 172.044 14.501 171.95 14.5889C171.857 14.6826 171.731 14.7471 171.572 14.7822C171.42 14.8232 171.227 14.8438 170.992 14.8438C170.77 14.8438 170.606 14.791 170.5 14.6855C170.395 14.5801 170.336 14.4189 170.324 14.2021C170.289 13.5107 170.233 12.8164 170.157 12.1191C170.081 11.416 169.993 10.7158 169.894 10.0186C169.841 9.7666 169.709 9.64062 169.498 9.64062C169.481 9.64062 169.46 9.64355 169.437 9.64941C169.413 9.65527 169.393 9.6582 169.375 9.6582C169.012 9.74023 168.669 9.82227 168.347 9.9043C168.024 9.98633 167.723 10.0742 167.441 10.168C167.283 10.2207 167.143 10.2588 167.02 10.2822C166.897 10.2998 166.785 10.3086 166.686 10.3086C166.551 10.3086 166.451 10.25 166.387 10.1328C166.322 10.0098 166.29 9.85742 166.29 9.67578C166.29 9.61133 166.296 9.53809 166.308 9.45605C166.319 9.36816 166.343 9.2832 166.378 9.20117C166.407 9.11328 166.454 9.03418 166.519 8.96387C166.577 8.8877 166.659 8.82617 166.765 8.7793C167.011 8.67969 167.339 8.57715 167.749 8.47168C168.159 8.36035 168.622 8.25781 169.138 8.16406C169.255 8.13477 169.346 8.08789 169.41 8.02344C169.481 7.95312 169.516 7.85059 169.516 7.71582C169.516 7.68652 169.516 7.65723 169.516 7.62793C169.516 7.59277 169.51 7.55762 169.498 7.52246C169.404 6.9834 169.314 6.49414 169.226 6.05469C169.144 5.60938 169.07 5.22852 169.006 4.91211C168.947 4.5957 168.9 4.34668 168.865 4.16504C168.83 3.9834 168.813 3.87793 168.813 3.84863ZM176.717 11.082C176.717 10.9824 176.729 10.8711 176.752 10.748C176.776 10.625 176.787 10.4902 176.787 10.3438C176.787 10.2441 176.743 10.168 176.656 10.1152C176.574 10.0625 176.48 10.0039 176.374 9.93945C176.269 9.875 176.172 9.79297 176.084 9.69336C176.002 9.59375 175.961 9.4502 175.961 9.2627C175.961 9.12793 175.996 8.99316 176.067 8.8584C176.143 8.72363 176.251 8.60059 176.392 8.48926C176.738 8.23145 177.095 8 177.464 7.79492C177.839 7.58984 178.211 7.41699 178.58 7.27637C178.955 7.13574 179.325 7.02734 179.688 6.95117C180.051 6.875 180.4 6.83691 180.734 6.83691C181.296 6.83691 181.824 6.94238 182.316 7.15332C182.814 7.3584 183.244 7.64258 183.608 8.00586C183.977 8.36328 184.267 8.78516 184.478 9.27148C184.695 9.75195 184.803 10.2676 184.803 10.8184C184.803 11.3574 184.689 11.8701 184.46 12.3564C184.238 12.8369 183.936 13.2588 183.555 13.6221C183.174 13.9854 182.726 14.2725 182.21 14.4834C181.701 14.7002 181.161 14.8086 180.593 14.8086C180.036 14.8086 179.521 14.7148 179.046 14.5273C178.572 14.3398 178.161 14.082 177.816 13.7539C177.47 13.4199 177.201 13.0273 177.007 12.5762C176.814 12.1191 176.717 11.6211 176.717 11.082ZM180.786 13.2266C181.033 13.2266 181.287 13.1768 181.551 13.0771C181.815 12.9775 182.055 12.834 182.272 12.6465C182.494 12.4531 182.676 12.2188 182.817 11.9434C182.963 11.668 183.036 11.3574 183.036 11.0117C183.036 10.6602 182.972 10.332 182.843 10.0273C182.714 9.72266 182.535 9.45898 182.307 9.23633C182.084 9.00781 181.818 8.8291 181.507 8.7002C181.202 8.57129 180.871 8.50684 180.514 8.50684C179.864 8.50684 179.366 8.67676 179.02 9.0166C178.674 9.35059 178.501 9.86621 178.501 10.5635C178.501 10.9443 178.557 11.2988 178.668 11.627C178.785 11.9492 178.947 12.2305 179.152 12.4707C179.357 12.7051 179.597 12.8896 179.872 13.0244C180.154 13.1592 180.458 13.2266 180.786 13.2266ZM193.528 14.3779C193.487 13.5986 193.42 12.8809 193.326 12.2246C193.238 11.5625 193.144 10.9854 193.045 10.4932C192.951 10.001 192.866 9.60254 192.79 9.29785C192.72 8.99316 192.684 8.80273 192.684 8.72656C192.684 8.61523 192.725 8.50684 192.807 8.40137C192.895 8.2959 193.004 8.20508 193.133 8.12891C193.262 8.04688 193.399 7.98242 193.546 7.93555C193.698 7.88867 193.836 7.86523 193.959 7.86523C194.058 7.86523 194.143 7.88281 194.214 7.91797C194.29 7.95312 194.343 8.01172 194.372 8.09375C194.401 8.19336 194.428 8.29883 194.451 8.41016C194.48 8.51562 194.51 8.64453 194.539 8.79688C194.574 9.01367 194.621 9.12207 194.679 9.12207C194.744 9.12207 194.817 9.02539 194.899 8.83203C195.016 8.5625 195.142 8.33984 195.277 8.16406C195.412 7.98828 195.555 7.85059 195.708 7.75098C195.866 7.64551 196.027 7.57227 196.191 7.53125C196.361 7.49023 196.537 7.46973 196.719 7.46973C197.269 7.46973 197.735 7.68652 198.116 8.12012C198.503 8.55371 198.804 9.18066 199.021 10.001C199.051 10.0947 199.077 10.1562 199.1 10.1855C199.124 10.209 199.15 10.2207 199.179 10.2207C199.209 10.2207 199.238 10.209 199.267 10.1855C199.303 10.1562 199.335 10.1006 199.364 10.0186C199.505 9.6377 199.669 9.31543 199.856 9.05176C200.044 8.78223 200.237 8.56543 200.436 8.40137C200.641 8.23145 200.849 8.1084 201.06 8.03223C201.271 7.95605 201.473 7.91797 201.667 7.91797C202.024 7.91797 202.346 8.0498 202.634 8.31348C202.927 8.57129 203.184 8.97266 203.407 9.51758C203.636 10.0566 203.832 10.7422 203.996 11.5742C204.166 12.4004 204.306 13.3818 204.418 14.5186C204.418 14.835 204.321 15.0547 204.128 15.1777C203.934 15.3066 203.671 15.3711 203.337 15.3711C203.12 15.3711 202.95 15.3242 202.827 15.2305C202.704 15.1367 202.634 15.0137 202.616 14.8613C202.54 14.0469 202.455 13.3232 202.361 12.6904C202.273 12.0518 202.177 11.5156 202.071 11.082C201.966 10.6426 201.848 10.3086 201.72 10.0801C201.596 9.85156 201.459 9.7373 201.306 9.7373C201.23 9.7373 201.134 9.79297 201.016 9.9043C200.905 10.0156 200.785 10.2207 200.656 10.5195C200.527 10.8125 200.392 11.2168 200.252 11.7324C200.111 12.2422 199.976 12.8955 199.847 13.6924C199.812 13.915 199.704 14.085 199.522 14.2021C199.346 14.3193 199.13 14.3779 198.872 14.3779C198.573 14.3779 198.365 14.3311 198.248 14.2373C198.137 14.1436 198.075 13.9854 198.063 13.7627C198.04 13.376 197.999 12.9922 197.94 12.6113C197.887 12.2246 197.82 11.8584 197.738 11.5127C197.656 11.1611 197.565 10.8389 197.466 10.5459C197.366 10.2471 197.261 9.98926 197.149 9.77246C197.038 9.5498 196.924 9.37695 196.806 9.25391C196.689 9.13086 196.575 9.06934 196.464 9.06934C196.317 9.06934 196.174 9.17188 196.033 9.37695C195.898 9.58203 195.775 9.87207 195.664 10.2471C195.558 10.6221 195.473 11.0732 195.409 11.6006C195.345 12.1279 195.312 12.7168 195.312 13.3672C195.312 13.4785 195.315 13.5898 195.321 13.7012C195.327 13.8066 195.33 13.918 195.33 14.0352C195.33 14.2109 195.301 14.3545 195.242 14.4658C195.189 14.5771 195.11 14.665 195.005 14.7295C194.905 14.7939 194.788 14.8379 194.653 14.8613C194.518 14.8848 194.372 14.8965 194.214 14.8965C194.067 14.8965 193.95 14.8848 193.862 14.8613C193.774 14.8438 193.707 14.8145 193.66 14.7734C193.613 14.7324 193.581 14.6768 193.563 14.6064C193.546 14.542 193.534 14.4658 193.528 14.3779ZM212.305 6.31836C212.627 6.31836 212.938 6.36816 213.236 6.46777C213.535 6.56738 213.799 6.70508 214.027 6.88086C214.256 7.05664 214.438 7.26758 214.572 7.51367C214.713 7.75977 214.783 8.03223 214.783 8.33105C214.783 8.4541 214.754 8.57422 214.695 8.69141C214.643 8.80273 214.569 8.90234 214.476 8.99023C214.382 9.07227 214.273 9.13965 214.15 9.19238C214.033 9.23926 213.91 9.2627 213.781 9.2627C213.77 9.2627 213.758 9.26562 213.746 9.27148C213.74 9.27148 213.731 9.27148 213.72 9.27148C213.708 9.27734 213.696 9.28027 213.685 9.28027L213.72 9.9834C213.743 10.8213 213.86 11.4336 214.071 11.8203C214.288 12.207 214.569 12.4004 214.915 12.4004C215.038 12.4004 215.147 12.3887 215.24 12.3652C215.34 12.3418 215.431 12.3154 215.513 12.2861C215.601 12.251 215.683 12.2217 215.759 12.1982C215.835 12.1748 215.911 12.1631 215.987 12.1631C216.122 12.1631 216.239 12.2217 216.339 12.3389C216.444 12.4561 216.497 12.5967 216.497 12.7607C216.497 12.9248 216.433 13.0889 216.304 13.2529C216.181 13.417 216.017 13.5664 215.812 13.7012C215.606 13.8301 215.375 13.9355 215.117 14.0176C214.859 14.0996 214.599 14.1406 214.335 14.1406C213.878 14.1406 213.477 13.9531 213.131 13.5781C212.785 13.1973 212.539 12.6406 212.393 11.9082C212.357 11.791 212.311 11.7324 212.252 11.7324C212.182 11.7324 212.12 11.7676 212.067 11.8379C211.487 12.5703 210.869 13.1211 210.213 13.4902C209.557 13.8535 208.909 14.0352 208.271 14.0352C207.972 14.0352 207.702 13.9912 207.462 13.9033C207.222 13.8154 207.017 13.6924 206.847 13.5342C206.683 13.3701 206.554 13.1738 206.46 12.9453C206.372 12.7109 206.328 12.4502 206.328 12.1631C206.328 11.7588 206.416 11.334 206.592 10.8887C206.773 10.4434 207.017 10.0039 207.321 9.57031C207.626 9.13672 207.978 8.72363 208.376 8.33105C208.78 7.93848 209.202 7.59277 209.642 7.29395C210.087 6.99512 210.538 6.75781 210.995 6.58203C211.452 6.40625 211.889 6.31836 212.305 6.31836ZM212.015 9.35938C212.12 9.16016 212.217 9.0166 212.305 8.92871C212.393 8.83496 212.519 8.77344 212.683 8.74414C212.812 8.72656 212.876 8.68555 212.876 8.62109C212.876 8.57422 212.858 8.52441 212.823 8.47168C212.712 8.31934 212.595 8.1875 212.472 8.07617C212.349 7.95898 212.185 7.90039 211.98 7.90039C211.757 7.90039 211.508 7.96484 211.232 8.09375C210.957 8.22266 210.676 8.39551 210.389 8.6123C210.107 8.82324 209.829 9.06641 209.554 9.3418C209.284 9.61133 209.044 9.88965 208.833 10.1768C208.622 10.4639 208.452 10.748 208.323 11.0293C208.194 11.3105 208.13 11.5625 208.13 11.7852C208.13 11.9844 208.183 12.1396 208.288 12.251C208.399 12.3623 208.549 12.418 208.736 12.418C209.217 12.418 209.741 12.1631 210.31 11.6533C210.878 11.1436 211.446 10.3789 212.015 9.35938ZM218.197 6.90723C218.197 6.81934 218.235 6.73438 218.311 6.65234C218.387 6.56445 218.487 6.48828 218.61 6.42383C218.733 6.35352 218.87 6.29785 219.023 6.25684C219.181 6.20996 219.339 6.18652 219.497 6.18652C219.585 6.18652 219.658 6.20996 219.717 6.25684C219.782 6.30371 219.837 6.39453 219.884 6.5293C219.931 6.6582 219.972 6.84277 220.007 7.08301C220.048 7.31738 220.086 7.625 220.121 8.00586C220.145 8.12305 220.165 8.21387 220.183 8.27832C220.206 8.33691 220.236 8.36621 220.271 8.36621C220.324 8.36621 220.376 8.27539 220.429 8.09375C220.857 6.85742 221.475 6.23926 222.283 6.23926C222.658 6.23926 222.998 6.35645 223.303 6.59082C223.614 6.8252 223.901 7.20898 224.164 7.74219C224.434 8.26953 224.689 8.9668 224.929 9.83398C225.169 10.6953 225.409 11.7588 225.65 13.0244C225.661 13.0889 225.67 13.1475 225.676 13.2002C225.682 13.2529 225.685 13.3027 225.685 13.3496C225.685 13.4844 225.653 13.6016 225.588 13.7012C225.53 13.7949 225.45 13.874 225.351 13.9385C225.251 13.9971 225.14 14.041 225.017 14.0703C224.894 14.1055 224.771 14.123 224.648 14.123C224.402 14.123 224.223 14.0967 224.112 14.0439C224.006 13.9912 223.939 13.8916 223.909 13.7451C223.74 12.8545 223.573 12.0635 223.408 11.3721C223.25 10.6807 223.092 10.1006 222.934 9.63184C222.782 9.15723 222.629 8.79688 222.477 8.55078C222.324 8.30469 222.172 8.18164 222.02 8.18164C221.867 8.18164 221.724 8.27832 221.589 8.47168C221.46 8.65918 221.334 8.95508 221.211 9.35938C221.088 9.76367 220.968 10.2764 220.851 10.8975C220.74 11.5186 220.631 12.2598 220.526 13.1211C220.496 13.3555 220.379 13.543 220.174 13.6836C219.969 13.8242 219.708 13.8945 219.392 13.8945C219.181 13.8945 219.02 13.8506 218.908 13.7627C218.797 13.6748 218.736 13.5547 218.724 13.4023C218.671 12.1836 218.613 11.1816 218.548 10.3965C218.49 9.60547 218.434 8.97266 218.381 8.49805C218.328 8.01758 218.284 7.66016 218.249 7.42578C218.214 7.19141 218.197 7.01855 218.197 6.90723ZM233.387 6.31836C233.709 6.31836 234.02 6.36816 234.319 6.46777C234.618 6.56738 234.881 6.70508 235.11 6.88086C235.338 7.05664 235.52 7.26758 235.655 7.51367C235.795 7.75977 235.866 8.03223 235.866 8.33105C235.866 8.4541 235.836 8.57422 235.778 8.69141C235.725 8.80273 235.652 8.90234 235.558 8.99023C235.464 9.07227 235.356 9.13965 235.233 9.19238C235.116 9.23926 234.993 9.2627 234.864 9.2627C234.852 9.2627 234.84 9.26562 234.829 9.27148C234.823 9.27148 234.814 9.27148 234.802 9.27148C234.791 9.27734 234.779 9.28027 234.767 9.28027L234.802 9.9834C234.826 10.8213 234.943 11.4336 235.154 11.8203C235.371 12.207 235.652 12.4004 235.998 12.4004C236.121 12.4004 236.229 12.3887 236.323 12.3652C236.422 12.3418 236.513 12.3154 236.595 12.2861C236.683 12.251 236.765 12.2217 236.841 12.1982C236.917 12.1748 236.994 12.1631 237.07 12.1631C237.205 12.1631 237.322 12.2217 237.421 12.3389C237.527 12.4561 237.58 12.5967 237.58 12.7607C237.58 12.9248 237.515 13.0889 237.386 13.2529C237.263 13.417 237.099 13.5664 236.894 13.7012C236.689 13.8301 236.458 13.9355 236.2 14.0176C235.942 14.0996 235.681 14.1406 235.417 14.1406C234.96 14.1406 234.559 13.9531 234.213 13.5781C233.868 13.1973 233.622 12.6406 233.475 11.9082C233.44 11.791 233.393 11.7324 233.334 11.7324C233.264 11.7324 233.203 11.7676 233.15 11.8379C232.57 12.5703 231.952 13.1211 231.295 13.4902C230.639 13.8535 229.992 14.0352 229.353 14.0352C229.054 14.0352 228.785 13.9912 228.544 13.9033C228.304 13.8154 228.099 13.6924 227.929 13.5342C227.765 13.3701 227.636 13.1738 227.542 12.9453C227.455 12.7109 227.411 12.4502 227.411 12.1631C227.411 11.7588 227.499 11.334 227.674 10.8887C227.856 10.4434 228.099 10.0039 228.404 9.57031C228.709 9.13672 229.06 8.72363 229.459 8.33105C229.863 7.93848 230.285 7.59277 230.724 7.29395C231.169 6.99512 231.621 6.75781 232.078 6.58203C232.535 6.40625 232.971 6.31836 233.387 6.31836ZM233.097 9.35938C233.203 9.16016 233.299 9.0166 233.387 8.92871C233.475 8.83496 233.601 8.77344 233.765 8.74414C233.894 8.72656 233.959 8.68555 233.959 8.62109C233.959 8.57422 233.941 8.52441 233.906 8.47168C233.794 8.31934 233.677 8.1875 233.554 8.07617C233.431 7.95898 233.267 7.90039 233.062 7.90039C232.839 7.90039 232.59 7.96484 232.315 8.09375C232.04 8.22266 231.758 8.39551 231.471 8.6123C231.19 8.82324 230.912 9.06641 230.636 9.3418C230.367 9.61133 230.126 9.88965 229.916 10.1768C229.705 10.4639 229.535 10.748 229.406 11.0293C229.277 11.3105 229.212 11.5625 229.212 11.7852C229.212 11.9844 229.265 12.1396 229.371 12.251C229.482 12.3623 229.631 12.418 229.819 12.418C230.299 12.418 230.824 12.1631 231.392 11.6533C231.96 11.1436 232.529 10.3789 233.097 9.35938ZM243.779 7.14453C244.06 7.14453 244.327 7.16797 244.579 7.21484C244.831 7.25586 245.059 7.30273 245.264 7.35547C245.469 7.40234 245.645 7.44922 245.792 7.49609C245.938 7.53711 246.044 7.55762 246.108 7.55762C246.161 7.55762 246.211 7.53125 246.258 7.47852C246.304 7.41992 246.363 7.3584 246.433 7.29395C246.504 7.22949 246.597 7.1709 246.715 7.11816C246.832 7.05957 246.987 7.03027 247.18 7.03027C247.403 7.03027 247.579 7.08887 247.708 7.20605C247.837 7.31738 247.901 7.45801 247.901 7.62793C247.901 9.77246 247.828 11.5947 247.681 13.0947C247.535 14.5889 247.298 15.8047 246.969 16.7422C246.641 17.6797 246.217 18.3594 245.695 18.7812C245.174 19.2031 244.541 19.4141 243.797 19.4141C243.457 19.4141 243.102 19.3379 242.733 19.1855C242.37 19.0332 242.036 18.8369 241.731 18.5967C241.427 18.3623 241.175 18.1016 240.975 17.8145C240.782 17.5273 240.685 17.252 240.685 16.9883C240.685 16.9004 240.732 16.7979 240.826 16.6807C240.92 16.5635 241.034 16.4492 241.169 16.3379C241.303 16.2266 241.444 16.1328 241.591 16.0566C241.737 15.9805 241.863 15.9424 241.969 15.9424C242.08 15.9424 242.174 15.9863 242.25 16.0742C242.326 16.168 242.396 16.2822 242.461 16.417C242.531 16.5518 242.601 16.6982 242.672 16.8564C242.742 17.0205 242.83 17.1699 242.935 17.3047C243.041 17.4395 243.17 17.5508 243.322 17.6387C243.474 17.7324 243.665 17.7793 243.893 17.7793C245.171 17.7793 245.921 15.8281 246.143 11.9258C246.143 11.75 246.094 11.6621 245.994 11.6621C245.912 11.6621 245.847 11.7031 245.801 11.7852C245.25 12.5293 244.605 13.0889 243.867 13.4639C243.135 13.833 242.32 14.0176 241.424 14.0176C241.008 14.0176 240.624 13.9561 240.272 13.833C239.921 13.7041 239.616 13.5283 239.358 13.3057C239.106 13.0771 238.91 12.8076 238.769 12.4971C238.629 12.1807 238.558 11.835 238.558 11.46C238.558 11.0908 238.623 10.7275 238.752 10.3701C238.886 10.0068 239.071 9.66699 239.305 9.35059C239.546 9.02832 239.83 8.73242 240.158 8.46289C240.486 8.19336 240.844 7.96191 241.23 7.76855C241.617 7.56934 242.024 7.41699 242.452 7.31152C242.886 7.2002 243.328 7.14453 243.779 7.14453ZM241.696 12.4004C242.499 12.4004 243.234 12.1484 243.902 11.6445C244.57 11.1348 245.141 10.3965 245.616 9.42969C245.628 9.39453 245.636 9.36816 245.642 9.35059C245.648 9.32715 245.651 9.30371 245.651 9.28027C245.651 9.22168 245.59 9.16016 245.467 9.0957C245.344 9.03125 245.182 8.97559 244.983 8.92871C244.784 8.88184 244.555 8.84375 244.298 8.81445C244.046 8.7793 243.791 8.76172 243.533 8.76172C243.117 8.76172 242.716 8.83203 242.329 8.97266C241.942 9.11328 241.599 9.30078 241.301 9.53516C241.002 9.76953 240.761 10.0361 240.58 10.335C240.398 10.6338 240.307 10.9443 240.307 11.2666C240.307 11.6123 240.433 11.8877 240.685 12.0928C240.943 12.2979 241.28 12.4004 241.696 12.4004ZM258.117 12.0752C258.287 11.9287 258.454 11.8555 258.618 11.8555C258.712 11.8555 258.797 11.8789 258.873 11.9258C258.949 11.9727 259.034 12.0459 259.128 12.1455C259.216 12.2803 259.277 12.3916 259.312 12.4795C259.354 12.5615 259.374 12.6436 259.374 12.7256C259.374 12.9014 259.286 13.0684 259.11 13.2266C258.829 13.4609 258.524 13.6719 258.196 13.8594C257.868 14.041 257.525 14.1963 257.168 14.3252C256.811 14.4541 256.441 14.5508 256.061 14.6152C255.68 14.6855 255.302 14.7207 254.927 14.7207C254.452 14.7207 254.007 14.6592 253.591 14.5361C253.175 14.4189 252.803 14.249 252.475 14.0264C252.152 13.8037 251.88 13.5371 251.657 13.2266C251.435 12.9102 251.276 12.5557 251.183 12.1631C251.13 11.999 251.08 11.8936 251.033 11.8467C250.992 11.7939 250.922 11.7676 250.822 11.7676C250.605 11.7676 250.438 11.7148 250.321 11.6094C250.204 11.5039 250.146 11.3516 250.146 11.1523C250.146 11.0703 250.151 11.0176 250.163 10.9941L250.181 10.8184C250.21 10.6074 250.266 10.4551 250.348 10.3613C250.436 10.2676 250.57 10.2207 250.752 10.2207H250.884C251.13 10.2207 251.303 10.1064 251.402 9.87793C251.584 9.47363 251.815 9.10449 252.097 8.77051C252.378 8.43652 252.694 8.15234 253.046 7.91797C253.397 7.67773 253.772 7.49316 254.171 7.36426C254.575 7.22949 254.985 7.16211 255.401 7.16211C255.835 7.16211 256.239 7.22656 256.614 7.35547C256.995 7.47852 257.326 7.65137 257.607 7.87402C257.889 8.09668 258.108 8.35742 258.267 8.65625C258.431 8.95508 258.513 9.27734 258.513 9.62305C258.513 9.86328 258.466 10.083 258.372 10.2822C258.278 10.4814 258.144 10.6572 257.968 10.8096C257.792 10.9561 257.578 11.0762 257.326 11.1699C257.08 11.2637 256.799 11.3252 256.482 11.3545L253.433 11.6621C253.315 11.6621 253.219 11.6914 253.143 11.75C253.072 11.8086 253.037 11.8877 253.037 11.9873C253.037 12.1396 253.093 12.2861 253.204 12.4268C253.321 12.5674 253.474 12.6934 253.661 12.8047C253.854 12.9102 254.074 12.9951 254.32 13.0596C254.572 13.124 254.83 13.1562 255.094 13.1562C255.346 13.1562 255.604 13.1328 255.867 13.0859C256.137 13.0332 256.4 12.96 256.658 12.8662C256.922 12.7725 257.177 12.6611 257.423 12.5322C257.669 12.3975 257.9 12.2451 258.117 12.0752ZM256.157 9.80762C256.245 9.79004 256.321 9.74902 256.386 9.68457C256.45 9.61426 256.482 9.5293 256.482 9.42969C256.482 9.3418 256.45 9.25977 256.386 9.18359C256.321 9.10742 256.233 9.04004 256.122 8.98145C256.011 8.91699 255.882 8.86719 255.735 8.83203C255.589 8.79688 255.434 8.7793 255.27 8.7793C255.029 8.7793 254.783 8.81445 254.531 8.88477C254.279 8.95508 254.051 9.04883 253.846 9.16602C253.641 9.27734 253.474 9.40332 253.345 9.54395C253.216 9.67871 253.151 9.81348 253.151 9.94824C253.151 10.083 253.233 10.1504 253.397 10.1504C253.497 10.1504 253.658 10.1387 253.881 10.1152C254.104 10.0918 254.35 10.0654 254.619 10.0361C254.889 10.001 255.161 9.96289 255.437 9.92188C255.712 9.88086 255.952 9.84277 256.157 9.80762ZM265.002 13.8418C264.832 13.8418 264.671 13.8154 264.519 13.7627C264.372 13.71 264.243 13.6396 264.132 13.5518C264.021 13.458 263.933 13.3496 263.868 13.2266C263.81 13.1035 263.781 12.9717 263.781 12.8311C263.781 12.585 263.877 12.3857 264.071 12.2334C264.27 12.0811 264.533 12.0049 264.862 12.0049C265.014 12.0049 265.16 12.0342 265.301 12.0928C265.442 12.1455 265.565 12.2188 265.67 12.3125C265.781 12.4062 265.869 12.5146 265.934 12.6377C265.998 12.7607 266.031 12.8896 266.031 13.0244C266.031 13.2822 265.937 13.4844 265.749 13.6309C265.568 13.7715 265.319 13.8418 265.002 13.8418ZM261.961 7.4873C261.844 7.82129 261.645 7.98828 261.364 7.98828C261.252 7.98828 261.138 7.96484 261.021 7.91797L260.573 7.7334C260.262 7.59277 260.107 7.39648 260.107 7.14453C260.107 7.03906 260.136 6.91895 260.195 6.78418C261.378 4.25293 263.174 2.9873 265.582 2.9873C266.104 2.9873 266.581 3.06934 267.015 3.2334C267.454 3.3916 267.832 3.61426 268.149 3.90137C268.465 4.18848 268.711 4.53125 268.887 4.92969C269.069 5.32812 269.159 5.76465 269.159 6.23926C269.159 6.66699 269.08 7.07715 268.922 7.46973C268.764 7.85645 268.535 8.2168 268.237 8.55078C267.944 8.88477 267.58 9.18652 267.147 9.45605C266.719 9.72559 266.233 9.95117 265.688 10.1328C265.582 10.168 265.474 10.1855 265.363 10.1855C265.122 10.1855 264.906 10.0889 264.712 9.89551L264.607 9.79004C264.448 9.64355 264.369 9.49414 264.369 9.3418C264.369 9.23047 264.41 9.12793 264.492 9.03418C264.574 8.94043 264.698 8.86133 264.862 8.79688C265.336 8.61523 265.732 8.43066 266.048 8.24316C266.37 8.05566 266.628 7.86523 266.822 7.67188C267.021 7.47852 267.161 7.27637 267.243 7.06543C267.331 6.85449 267.375 6.62891 267.375 6.38867C267.375 6.13672 267.32 5.90234 267.208 5.68555C267.103 5.46875 266.956 5.28125 266.769 5.12305C266.587 4.95898 266.37 4.83301 266.118 4.74512C265.872 4.65137 265.609 4.60449 265.327 4.60449C264.577 4.60449 263.927 4.83887 263.376 5.30762C262.825 5.77637 262.354 6.50293 261.961 7.4873Z" fill="#089446"/>
<path d="M267.792 37.5424L267.021 31.8206L262.451 35.3488L267.792 37.5424ZM232.201 21.4901L232.119 21.9833C236.432 22.698 242.794 24.1244 248.98 26.2124C255.183 28.3059 261.14 31.0422 264.701 34.3468L265.041 33.9803L265.382 33.6138C261.657 30.1575 255.528 27.3671 249.3 25.2649C243.055 23.1572 236.64 21.7189 232.282 20.9968L232.201 21.4901Z" fill="#089446"/>
</svg>
