<svg width="60" height="60" viewBox="0 0 60 60" fill="none" xmlns="http://www.w3.org/2000/svg">
<path d="M37.666 29.0324H22.3334C21.799 29.0324 21.3658 29.4656 21.3658 30C21.3658 34.761 25.2394 38.634 30.0003 38.634C34.7613 38.634 38.6342 34.761 38.6342 30C38.6335 29.4656 38.2003 29.0324 37.666 29.0324ZM29.9997 36.6988C26.6343 36.6988 23.8412 34.2051 23.3708 30.9676H36.6286C36.1581 34.2044 33.365 36.6988 29.9997 36.6988ZM59.0318 29.0324H43.7044C43.17 29.0324 42.7368 29.4656 42.7368 30C42.7368 37.023 37.0233 42.7366 30.0003 42.7366C22.9773 42.7366 17.2638 37.023 17.2638 30C17.2638 29.4656 16.8306 29.0324 16.2963 29.0324H0.967584C0.433227 29.0324 0 29.4656 0 30V33.9291C0 34.3297 0.246626 34.6886 0.619828 34.8321L4.95993 36.5024C5.56083 38.8212 6.47949 41.0376 7.69696 43.1053L5.80811 47.358C5.64565 47.724 5.72525 48.152 6.00842 48.4352L11.5653 53.9915C11.8485 54.2747 12.2765 54.3543 12.6425 54.1918L16.8965 52.3023C18.9641 53.5198 21.1798 54.4384 23.4974 55.0387L25.1683 59.3802C25.3118 59.754 25.6713 60 26.0713 60H33.9294C34.33 60 34.6888 59.7534 34.8324 59.3802L36.5026 55.04C38.8215 54.4391 41.0378 53.5204 43.1054 52.303L47.3581 54.1918C47.7241 54.3543 48.1521 54.2747 48.4353 53.9915L53.9916 48.4345C54.2747 48.1514 54.3543 47.7234 54.1919 47.3573L52.3024 43.1033C53.5199 41.0357 54.4385 38.8193 55.0388 36.5024L59.3802 34.8314C59.754 34.6879 60 34.3284 60 33.9284V30C60 29.4656 59.5668 29.0324 59.0318 29.0324ZM58.0642 33.2649L53.8735 34.8778C53.576 34.9926 53.3535 35.2464 53.2798 35.557C52.6939 38.02 51.7211 40.3662 50.3894 42.5291C50.2224 42.8012 50.1995 43.1379 50.3287 43.4295L52.153 47.5368L47.5362 52.1535L43.4304 50.3299C43.1387 50.2001 42.8014 50.2229 42.53 50.3906C40.3678 51.7223 38.0215 52.6951 35.5559 53.2816C35.2454 53.3554 34.9916 53.5779 34.8767 53.8754L33.2639 58.0655H26.7348L25.122 53.8747C25.0071 53.5772 24.7533 53.3547 24.4428 53.281C21.9791 52.6944 19.6335 51.7223 17.4707 50.3906C17.1986 50.2229 16.8619 50.2007 16.5703 50.3299L12.4631 52.1542L7.84637 47.5374L9.66997 43.4315C9.7998 43.1398 9.77697 42.8032 9.60929 42.5311C8.27764 40.3689 7.30484 38.0226 6.71828 35.557C6.64456 35.2464 6.42207 34.9926 6.12455 34.8778L1.93452 33.2649V30.9682H15.3587C15.8585 38.6092 22.2342 44.6725 29.9997 44.6725C37.7651 44.6725 44.1409 38.6092 44.6407 30.9682H58.0648L58.0642 33.2649ZM29.0321 0.967595C29.0321 0.433232 29.4653 0 29.9997 0C36.2926 0 42.3166 1.92736 47.4207 5.57394C51.783 8.69073 55.1856 12.8423 57.3589 17.6738L57.6962 15.7236C57.7875 15.197 58.288 14.8434 58.8145 14.9348C59.341 15.0261 59.694 15.5265 59.6033 16.0531L58.6644 21.4828C58.6096 21.8006 58.4002 22.0694 58.1059 22.2012C57.98 22.2579 57.845 22.2853 57.7105 22.2853C57.5318 22.2853 57.3543 22.2358 57.1984 22.1385L52.9692 19.4993C52.5157 19.2162 52.3774 18.6192 52.6606 18.1657C52.9437 17.7123 53.5407 17.5739 53.9942 17.8571L55.8263 19.0002C51.447 8.73053 41.2623 1.93519 29.9997 1.93519C29.4653 1.93519 29.0321 1.50196 29.0321 0.967595ZM1.36558 21.0281C3.91927 12.8697 9.93486 6.14158 17.6814 2.6418L15.7228 2.30318C15.1962 2.21183 14.8432 1.7114 14.9339 1.18486C15.0253 0.65833 15.5257 0.304698 16.0522 0.396042L21.4819 1.33493C21.7997 1.38973 22.0685 1.59917 22.2003 1.89343C22.3321 2.18769 22.3086 2.52762 22.1376 2.801L19.4985 7.03023C19.3151 7.32449 18.9994 7.48564 18.6764 7.48564C18.5015 7.48564 18.3241 7.43802 18.1649 7.33884C17.7114 7.05568 17.5731 6.45868 17.8563 6.00522L18.9994 4.17377C11.5001 7.37734 5.6587 13.791 3.21267 21.6061C3.08283 22.0198 2.70114 22.2847 2.28945 22.2847C2.19354 22.2847 2.09632 22.2703 1.99976 22.2403C1.4902 22.0811 1.20638 21.5383 1.36558 21.0281ZM22.6309 21.8847C21.5909 20.5922 20.2325 19.6031 18.7071 19.0054C19.8182 18.0418 20.5228 16.622 20.5228 15.0391C20.5228 12.1442 18.1675 9.78882 15.2726 9.78882C12.3776 9.78882 10.0223 12.1442 10.0223 15.0391C10.0223 16.6181 10.7237 18.0352 11.8302 18.9989C8.63583 20.2445 6.27396 23.1799 5.88836 26.7788C5.859 27.0515 5.94709 27.3243 6.13108 27.5285C6.31441 27.7327 6.57605 27.8495 6.85073 27.8495H53.1486C53.4233 27.8495 53.6849 27.7327 53.8683 27.5285C54.0516 27.3243 54.1397 27.0515 54.111 26.7788C53.7241 23.1616 51.049 20.3456 48.0739 19.0824C49.2359 18.1187 49.9777 16.6644 49.9777 15.0398C49.9777 12.1448 47.6224 9.78947 44.7274 9.78947C41.8325 9.78947 39.4772 12.1448 39.4772 15.0398C39.4772 16.5835 40.1472 17.9732 41.2114 18.935C39.6853 19.4967 38.4058 20.4689 37.3521 21.8639C36.3271 20.5935 34.9831 19.5992 33.4433 18.9989C34.5499 18.0359 35.2512 16.6181 35.2512 15.0391C35.2512 12.1442 32.8959 9.78882 30.001 9.78882C27.1061 9.78882 24.7507 12.1442 24.7507 15.0391C24.7507 16.6181 25.4521 18.0352 26.5586 18.9989C25.0091 19.6024 23.6579 20.604 22.6309 21.8847ZM15.2726 11.724C17.1007 11.724 18.5877 13.211 18.5877 15.0391C18.5877 16.8673 17.1007 18.3543 15.2726 18.3543C13.4444 18.3543 11.9575 16.8673 11.9575 15.0391C11.9575 13.211 13.4444 11.724 15.2726 11.724ZM15.2726 20.2895C17.7871 20.2895 20.1353 21.5605 21.5198 23.6379C21.1727 24.3484 20.9097 25.1105 20.7486 25.9137H8.00557C8.84201 22.6422 11.797 20.2895 15.2726 20.2895ZM44.7274 11.724C46.5556 11.724 48.0425 13.211 48.0425 15.0391C48.0425 16.8673 46.5556 18.3543 44.7274 18.3543C42.8993 18.3543 41.4123 16.8673 41.4123 15.0391C41.4123 13.211 42.8993 11.724 44.7274 11.724ZM44.7268 20.2895C47.6054 20.2895 51.0432 22.6311 51.9775 25.913H39.2508C39.089 25.1079 38.8254 24.3438 38.477 23.6314C39.9424 21.3256 41.8906 20.2895 44.7268 20.2895ZM29.9997 11.724C31.8278 11.724 33.3148 13.211 33.3148 15.0391C33.3148 16.8673 31.8278 18.3543 29.9997 18.3543C28.1715 18.3543 26.6846 16.8673 26.6846 15.0391C26.6846 13.211 28.1715 11.724 29.9997 11.724ZM29.9997 20.2895C33.4753 20.2895 36.4296 22.6416 37.266 25.913H22.7327C23.5698 22.6422 26.5241 20.2895 29.9997 20.2895Z" fill="white"/>
</svg>
