<svg width="60" height="10" viewBox="0 0 60 10" fill="none" xmlns="http://www.w3.org/2000/svg">
<path d="M5.20191 0.758531L6.23807 2.90542C6.31389 3.06193 6.46048 3.16888 6.62875 3.1907L8.69609 3.45233H8.696C8.82614 3.47013 8.94452 3.53931 9.02626 3.64526C9.108 3.75121 9.14675 3.88573 9.13437 4.0205C9.12198 4.15529 9.05943 4.27987 8.95982 4.36811L7.34659 5.785C7.27661 5.84578 7.22397 5.9249 7.19398 6.01406C7.16408 6.10313 7.15806 6.19895 7.17664 6.2913L7.6573 8.67754C7.6842 8.81068 7.65978 8.94931 7.58927 9.06421C7.51876 9.1791 7.40764 9.26115 7.27944 9.293C7.15134 9.32485 7.01616 9.30404 6.90265 9.23486L4.96976 8.06656C4.89262 8.02065 4.80521 7.99647 4.71613 7.99647C4.62704 7.99647 4.53963 8.02065 4.46249 8.06656L2.53219 9.24398H2.5321C2.41859 9.31315 2.28349 9.33405 2.1553 9.3022C2.0272 9.27035 1.91609 9.18831 1.84557 9.07341C1.77497 8.95852 1.75064 8.81981 1.77744 8.68665L2.25561 6.29106C2.27419 6.19871 2.26818 6.10289 2.23827 6.01382C2.20828 5.92466 2.15565 5.84554 2.08566 5.78476L0.474906 4.38484C0.375202 4.29632 0.312741 4.17129 0.30071 4.03613C0.288678 3.90097 0.328046 3.76627 0.410501 3.66042C0.492954 3.55465 0.612034 3.48602 0.742523 3.46905L2.99504 3.19564C3.17446 3.17373 3.32901 3.05519 3.40094 2.88426L4.28872 0.790941V0.791033C4.3403 0.670296 4.43408 0.574108 4.55149 0.521734C4.6688 0.469351 4.80107 0.464606 4.92165 0.508502C5.04223 0.552306 5.14229 0.641558 5.20192 0.758269L5.20191 0.758531Z" fill="#F4B718"/>
<path d="M17.8441 0.758531L18.8803 2.90542C18.9561 3.06193 19.1027 3.16888 19.271 3.1907L21.3383 3.45233H21.3382C21.4684 3.47013 21.5867 3.53931 21.6685 3.64526C21.7502 3.75121 21.789 3.88573 21.7766 4.0205C21.7642 4.15529 21.7016 4.27987 21.602 4.36811L19.9888 5.785C19.9188 5.84578 19.8662 5.9249 19.8362 6.01406C19.8063 6.10313 19.8003 6.19895 19.8189 6.2913L20.2995 8.67754C20.3264 8.81068 20.302 8.94931 20.2315 9.06421C20.161 9.1791 20.0499 9.26115 19.9217 9.293C19.7936 9.32485 19.6584 9.30404 19.5449 9.23486L17.612 8.06656C17.5348 8.02065 17.4474 7.99647 17.3583 7.99647C17.2693 7.99647 17.1818 8.02065 17.1047 8.06656L15.1744 9.24398H15.1743C15.0608 9.31315 14.9257 9.33405 14.7975 9.3022C14.6694 9.27035 14.5583 9.18831 14.4878 9.07341C14.4172 8.95852 14.3928 8.81981 14.4197 8.68665L14.8978 6.29106C14.9164 6.19871 14.9104 6.10289 14.8805 6.01382C14.8505 5.92466 14.7979 5.84554 14.7279 5.78476L13.1171 4.38484C13.0174 4.29632 12.955 4.17129 12.9429 4.03613C12.9309 3.90097 12.9703 3.76627 13.0527 3.66042C13.1352 3.55465 13.2542 3.48602 13.3847 3.46905L15.6373 3.19564C15.8167 3.17373 15.9712 3.05519 16.0432 2.88426L16.9309 0.790941V0.791033C16.9825 0.670296 17.0763 0.574108 17.1937 0.521734C17.311 0.469351 17.4433 0.464606 17.5639 0.508502C17.6844 0.552306 17.7845 0.641558 17.8441 0.758269L17.8441 0.758531Z" fill="#F4B718"/>
<path d="M30.4848 0.758531L31.5209 2.90542C31.5967 3.06193 31.7433 3.16888 31.9116 3.1907L33.9789 3.45233H33.9788C34.109 3.47013 34.2274 3.53931 34.3091 3.64526C34.3908 3.75121 34.4296 3.88573 34.4172 4.0205C34.4048 4.15529 34.3423 4.27987 34.2427 4.36811L32.6294 5.785C32.5594 5.84578 32.5068 5.9249 32.4768 6.01406C32.4469 6.10313 32.4409 6.19895 32.4595 6.2913L32.9401 8.67754C32.967 8.81068 32.9426 8.94931 32.8721 9.06421C32.8016 9.1791 32.6905 9.26115 32.5623 9.293C32.4342 9.32485 32.299 9.30404 32.1855 9.23486L30.2526 8.06656C30.1755 8.02065 30.088 7.99647 29.999 7.99647C29.9099 7.99647 29.8225 8.02065 29.7453 8.06656L27.815 9.24398H27.8149C27.7014 9.31315 27.5663 9.33405 27.4381 9.3022C27.31 9.27035 27.1989 9.18831 27.1284 9.07341C27.0578 8.95852 27.0335 8.81981 27.0603 8.68665L27.5385 6.29106C27.557 6.19871 27.551 6.10289 27.5211 6.01382C27.4911 5.92466 27.4385 5.84554 27.3685 5.78476L25.7577 4.38484C25.658 4.29632 25.5956 4.17129 25.5835 4.03613C25.5715 3.90097 25.6109 3.76627 25.6933 3.66042C25.7758 3.55465 25.8949 3.48602 26.0254 3.46905L28.2779 3.19564C28.4573 3.17373 28.6118 3.05519 28.6838 2.88426L29.5716 0.790941V0.791033C29.6231 0.670296 29.7169 0.574108 29.8343 0.521734C29.9516 0.469351 30.0839 0.464606 30.2045 0.508502C30.3251 0.552306 30.4251 0.641558 30.4848 0.758269L30.4848 0.758531Z" fill="#F4B718"/>
<path d="M43.127 0.758531L44.1631 2.90542C44.2389 3.06193 44.3855 3.16888 44.5538 3.1907L46.6211 3.45233H46.6211C46.7512 3.47013 46.8696 3.53931 46.9513 3.64526C47.033 3.75121 47.0718 3.88573 47.0594 4.0205C47.047 4.15529 46.9845 4.27987 46.8849 4.36811L45.2716 5.785C45.2017 5.84578 45.149 5.9249 45.119 6.01406C45.0891 6.10313 45.0831 6.19895 45.1017 6.2913L45.5824 8.67754C45.6092 8.81068 45.5848 8.94931 45.5143 9.06421C45.4438 9.1791 45.3327 9.26115 45.2045 9.293C45.0764 9.32485 44.9412 9.30404 44.8277 9.23486L42.8948 8.06656C42.8177 8.02065 42.7303 7.99647 42.6412 7.99647C42.5521 7.99647 42.4647 8.02065 42.3875 8.06656L40.4572 9.24398H40.4571C40.3436 9.31315 40.2085 9.33405 40.0804 9.3022C39.9522 9.27035 39.8411 9.18831 39.7706 9.07341C39.7 8.95852 39.6757 8.81981 39.7025 8.68665L40.1807 6.29106C40.1992 6.19871 40.1932 6.10289 40.1633 6.01382C40.1333 5.92466 40.0807 5.84554 40.0107 5.78476L38.4 4.38484C38.3003 4.29632 38.2378 4.17129 38.2258 4.03613C38.2137 3.90097 38.2531 3.76627 38.3356 3.66042C38.418 3.55465 38.5371 3.48602 38.6676 3.46905L40.9201 3.19564C41.0995 3.17373 41.2541 3.05519 41.326 2.88426L42.2138 0.790941V0.791033C42.2653 0.670296 42.3591 0.574108 42.4765 0.521734C42.5938 0.469351 42.7261 0.464606 42.8467 0.508502C42.9673 0.552306 43.0673 0.641558 43.127 0.758269L43.127 0.758531Z" fill="#F4B718"/>
<path d="M55.7662 0.757432L56.8024 2.90432C56.8782 3.06083 57.0248 3.16778 57.1931 3.1896L59.2604 3.45124H59.2603C59.3905 3.46903 59.5089 3.53821 59.5906 3.64416C59.6723 3.75011 59.7111 3.88463 59.6987 4.0194C59.6863 4.15419 59.6238 4.27877 59.5241 4.36701L57.9109 5.7839C57.8409 5.84468 57.7883 5.9238 57.7583 6.01296C57.7284 6.10203 57.7224 6.19785 57.741 6.2902L58.2216 8.67644C58.2485 8.80959 58.2241 8.94821 58.1536 9.06311C58.0831 9.17801 57.972 9.26005 57.8438 9.2919C57.7157 9.32375 57.5805 9.30294 57.467 9.23377L55.5341 8.06546C55.4569 8.01956 55.3695 7.99537 55.2805 7.99537C55.1914 7.99537 55.104 8.01956 55.0268 8.06546L53.0965 9.24288H53.0964C52.9829 9.31205 52.8478 9.33295 52.7196 9.3011C52.5915 9.26925 52.4804 9.18721 52.4099 9.07231C52.3393 8.95742 52.315 8.81871 52.3418 8.68555L52.8199 6.28997C52.8385 6.19761 52.8325 6.10179 52.8026 6.01272C52.7726 5.92356 52.72 5.84444 52.65 5.78366L51.0392 4.38374C50.9395 4.29522 50.8771 4.17019 50.865 4.03503C50.853 3.89988 50.8924 3.76517 50.9748 3.65932C51.0573 3.55355 51.1764 3.48492 51.3069 3.46795L53.5594 3.19454C53.7388 3.17263 53.8933 3.05409 53.9653 2.88316L54.8531 0.789843V0.789934C54.9046 0.669197 54.9984 0.573009 55.1158 0.520635C55.2331 0.468252 55.3654 0.463507 55.486 0.507403C55.6066 0.551207 55.7066 0.640459 55.7663 0.757171L55.7662 0.757432Z" fill="#F4B718"/>
<mask id="mask0_63_7406" style="mask-type:alpha" maskUnits="userSpaceOnUse" x="50" y="0" width="10" height="10">
<path d="M55.7667 0.757127L56.8029 2.90402C56.8787 3.06053 57.0253 3.16747 57.1936 3.18929L59.2609 3.45093H59.2608C59.391 3.46873 59.5093 3.5379 59.5911 3.64385C59.6728 3.7498 59.7116 3.88432 59.6992 4.0191C59.6868 4.15389 59.6243 4.27847 59.5246 4.36671L57.9114 5.78359C57.8414 5.84437 57.7888 5.92349 57.7588 6.01265C57.7289 6.10172 57.7229 6.19755 57.7415 6.2899L58.2221 8.67613C58.249 8.80928 58.2246 8.94791 58.1541 9.06281C58.0836 9.1777 57.9725 9.25974 57.8443 9.29159C57.7162 9.32344 57.581 9.30264 57.4675 9.23346L55.5346 8.06515C55.4574 8.01925 55.37 7.99507 55.2809 7.99507C55.1919 7.99507 55.1044 8.01925 55.0273 8.06515L53.097 9.24257H53.0969C52.9834 9.31175 52.8483 9.33265 52.7201 9.3008C52.592 9.26895 52.4809 9.1869 52.4104 9.07201C52.3398 8.95711 52.3155 8.81841 52.3423 8.68524L52.8204 6.28966C52.839 6.19731 52.833 6.10148 52.8031 6.01242C52.7731 5.92326 52.7205 5.84414 52.6505 5.78336L51.0397 4.38343C50.94 4.29491 50.8776 4.16989 50.8655 4.03473C50.8535 3.89957 50.8929 3.76487 50.9753 3.65901C51.0578 3.55324 51.1769 3.48462 51.3073 3.46764L53.5599 3.19423C53.7393 3.17233 53.8938 3.05378 53.9658 2.88286L54.8535 0.789538V0.789629C54.9051 0.668892 54.9989 0.572704 55.1163 0.52033C55.2336 0.467947 55.3659 0.463202 55.4865 0.507098C55.6071 0.550902 55.7071 0.640154 55.7667 0.756865L55.7667 0.757127Z" fill="#FFCC00"/>
</mask>
<g mask="url(#mask0_63_7406)">
<rect x="55.2811" y="-0.505127" width="7.61054" height="13.2571" fill="#F4B718"/>
</g>
</svg>
