<svg width="60" height="10" viewBox="0 0 60 10" fill="none" xmlns="http://www.w3.org/2000/svg">
<path d="M5.20155 0.698045L6.2377 2.84493C6.31352 3.00144 6.46011 3.10839 6.62838 3.13021L8.69573 3.39185H8.69564C8.82578 3.40964 8.94416 3.47882 9.02589 3.58477C9.10763 3.69072 9.14639 3.82524 9.134 3.96002C9.12162 4.09481 9.05907 4.21939 8.95945 4.30763L7.34622 5.72451C7.27625 5.78529 7.22361 5.86441 7.19361 5.95357C7.16371 6.04264 7.1577 6.13846 7.17627 6.23081L7.65694 8.61705C7.68383 8.7502 7.65941 8.88883 7.5889 9.00372C7.51839 9.11862 7.40728 9.20066 7.27908 9.23251C7.15097 9.26436 7.01579 9.24355 6.90228 9.17438L4.9694 8.00607C4.89225 7.96017 4.80484 7.93598 4.71576 7.93598C4.62668 7.93598 4.53926 7.96017 4.46212 8.00607L2.53182 9.18349H2.53173C2.41823 9.25266 2.28312 9.27356 2.15494 9.24171C2.02683 9.20986 1.91573 9.12782 1.8452 9.01293C1.7746 8.89803 1.75027 8.75933 1.77708 8.62616L2.25525 6.23058C2.27383 6.13822 2.26781 6.0424 2.23791 5.95334C2.20792 5.86418 2.15528 5.78505 2.0853 5.72427L0.47454 4.32435C0.374836 4.23583 0.312374 4.11081 0.300344 3.97564C0.288312 3.84049 0.32768 3.70579 0.410135 3.59993C0.492588 3.49416 0.611667 3.42553 0.742157 3.40856L2.99467 3.13515C3.17409 3.11325 3.32864 2.9947 3.40057 2.82377L4.28836 0.730456V0.730547C4.33993 0.60981 4.43371 0.513622 4.55112 0.461248C4.66843 0.408865 4.8007 0.40412 4.92128 0.448016C5.04187 0.49182 5.14193 0.581072 5.20155 0.697783L5.20155 0.698045Z" fill="#F4B718"/>
<path d="M17.8438 0.698045L18.8799 2.84493C18.9557 3.00144 19.1023 3.10839 19.2706 3.13021L21.3379 3.39185H21.3378C21.468 3.40964 21.5864 3.47882 21.6681 3.58477C21.7498 3.69072 21.7886 3.82524 21.7762 3.96002C21.7638 4.09481 21.7013 4.21939 21.6017 4.30763L19.9884 5.72451C19.9185 5.78529 19.8658 5.86441 19.8358 5.95357C19.8059 6.04264 19.7999 6.13846 19.8185 6.23081L20.2991 8.61705C20.326 8.7502 20.3016 8.88883 20.2311 9.00372C20.1606 9.11862 20.0495 9.20066 19.9213 9.23251C19.7932 9.26436 19.658 9.24355 19.5445 9.17438L17.6116 8.00607C17.5345 7.96017 17.4471 7.93598 17.358 7.93598C17.2689 7.93598 17.1815 7.96017 17.1043 8.00607L15.174 9.18349H15.1739C15.0604 9.25266 14.9253 9.27356 14.7971 9.24171C14.669 9.20986 14.5579 9.12782 14.4874 9.01293C14.4168 8.89803 14.3925 8.75933 14.4193 8.62616L14.8975 6.23058C14.916 6.13822 14.91 6.0424 14.8801 5.95334C14.8501 5.86418 14.7975 5.78505 14.7275 5.72427L13.1168 4.32435C13.017 4.23583 12.9546 4.11081 12.9426 3.97564C12.9305 3.84049 12.9699 3.70579 13.0523 3.59993C13.1348 3.49416 13.2539 3.42553 13.3844 3.40856L15.6369 3.13515C15.8163 3.11325 15.9709 2.9947 16.0428 2.82377L16.9306 0.730456V0.730547C16.9821 0.60981 17.0759 0.513622 17.1933 0.461248C17.3106 0.408865 17.4429 0.40412 17.5635 0.448016C17.6841 0.49182 17.7841 0.581072 17.8438 0.697783L17.8438 0.698045Z" fill="#F4B718"/>
<path d="M30.4844 0.698045L31.5205 2.84493C31.5964 3.00144 31.7429 3.10839 31.9112 3.13021L33.9786 3.39185H33.9785C34.1086 3.40964 34.227 3.47882 34.3087 3.58477C34.3905 3.69072 34.4292 3.82524 34.4168 3.96002C34.4045 4.09481 34.3419 4.21939 34.2423 4.30763L32.6291 5.72451C32.5591 5.78529 32.5064 5.86441 32.4765 5.95357C32.4465 6.04264 32.4405 6.13846 32.4591 6.23081L32.9398 8.61705C32.9667 8.7502 32.9423 8.88883 32.8717 9.00372C32.8012 9.11862 32.6901 9.20066 32.5619 9.23251C32.4338 9.26436 32.2986 9.24355 32.1851 9.17438L30.2522 8.00607C30.1751 7.96017 30.0877 7.93598 29.9986 7.93598C29.9095 7.93598 29.8221 7.96017 29.745 8.00607L27.8147 9.18349H27.8146C27.7011 9.25266 27.566 9.27356 27.4378 9.24171C27.3097 9.20986 27.1986 9.12782 27.128 9.01293C27.0574 8.89803 27.0331 8.75933 27.0599 8.62616L27.5381 6.23058C27.5567 6.13822 27.5506 6.0424 27.5207 5.95334C27.4908 5.86418 27.4381 5.78505 27.3681 5.72427L25.7574 4.32435C25.6577 4.23583 25.5952 4.11081 25.5832 3.97564C25.5711 3.84049 25.6105 3.70579 25.693 3.59993C25.7754 3.49416 25.8945 3.42553 26.025 3.40856L28.2775 3.13515C28.4569 3.11325 28.6115 2.9947 28.6834 2.82377L29.5712 0.730456V0.730547C29.6228 0.60981 29.7166 0.513622 29.834 0.461248C29.9513 0.408865 30.0835 0.40412 30.2041 0.448016C30.3247 0.49182 30.4248 0.581072 30.4844 0.697783L30.4844 0.698045Z" fill="#F4B718"/>
<path d="M43.1266 0.698045L44.1627 2.84493C44.2386 3.00144 44.3852 3.10839 44.5534 3.13021L46.6208 3.39185H46.6207C46.7508 3.40964 46.8692 3.47882 46.9509 3.58477C47.0327 3.69072 47.0714 3.82524 47.0591 3.96002C47.0467 4.09481 46.9841 4.21939 46.8845 4.30763L45.2713 5.72451C45.2013 5.78529 45.1487 5.86441 45.1187 5.95357C45.0888 6.04264 45.0827 6.13846 45.1013 6.23081L45.582 8.61705C45.6089 8.7502 45.5845 8.88883 45.514 9.00372C45.4434 9.11862 45.3323 9.20066 45.2041 9.23251C45.076 9.26436 44.9408 9.24355 44.8273 9.17438L42.8944 8.00607C42.8173 7.96017 42.7299 7.93598 42.6408 7.93598C42.5517 7.93598 42.4643 7.96017 42.3872 8.00607L40.4569 9.18349H40.4568C40.3433 9.25266 40.2082 9.27356 40.08 9.24171C39.9519 9.20986 39.8408 9.12782 39.7702 9.01293C39.6996 8.89803 39.6753 8.75933 39.7021 8.62616L40.1803 6.23058C40.1989 6.13822 40.1929 6.0424 40.163 5.95334C40.133 5.86418 40.0803 5.78505 40.0103 5.72427L38.3996 4.32435C38.2999 4.23583 38.2374 4.11081 38.2254 3.97564C38.2134 3.84049 38.2527 3.70579 38.3352 3.59993C38.4176 3.49416 38.5367 3.42553 38.6672 3.40856L40.9197 3.13515C41.0991 3.11325 41.2537 2.9947 41.3256 2.82377L42.2134 0.730456V0.730547C42.265 0.60981 42.3588 0.513622 42.4762 0.461248C42.5935 0.408865 42.7258 0.40412 42.8463 0.448016C42.9669 0.49182 43.067 0.581072 43.1266 0.697783L43.1266 0.698045Z" fill="#F4B718"/>
<path d="M55.7666 0.697618L56.8028 2.84451C56.8786 3.00102 57.0252 3.10796 57.1934 3.12979L59.2608 3.39142H59.2607C59.3908 3.40922 59.5092 3.47839 59.591 3.58434C59.6727 3.69029 59.7115 3.82481 59.6991 3.95959C59.6867 4.09438 59.6241 4.21896 59.5245 4.3072L57.9113 5.72408C57.8413 5.78486 57.7887 5.86399 57.7587 5.95315C57.7288 6.04221 57.7228 6.13804 57.7413 6.23039L58.222 8.61662C58.2489 8.74977 58.2245 8.8884 58.154 9.0033C58.0835 9.11819 57.9723 9.20023 57.8441 9.23208C57.716 9.26393 57.5809 9.24313 57.4673 9.17395L55.5345 8.00564C55.4573 7.95974 55.3699 7.93556 55.2808 7.93556C55.1917 7.93556 55.1043 7.95974 55.0272 8.00564L53.0969 9.18306H53.0968C52.9833 9.25224 52.8482 9.27314 52.72 9.24129C52.5919 9.20944 52.4808 9.12739 52.4103 9.0125C52.3397 8.8976 52.3153 8.7589 52.3421 8.62573L52.8203 6.23015C52.8389 6.1378 52.8329 6.04197 52.803 5.95291C52.773 5.86375 52.7203 5.78463 52.6504 5.72385L51.0396 4.32392C50.9399 4.2354 50.8774 4.11038 50.8654 3.97522C50.8534 3.84006 50.8927 3.70536 50.9752 3.5995C51.0577 3.49373 51.1767 3.42511 51.3072 3.40813L53.5597 3.13472C53.7392 3.11282 53.8937 2.99427 53.9656 2.82335L54.8534 0.730028V0.73012C54.905 0.609383 54.9988 0.513195 55.1162 0.460821C55.2335 0.408438 55.3658 0.403693 55.4863 0.447588C55.6069 0.491393 55.707 0.580644 55.7666 0.697356L55.7666 0.697618Z" fill="#F4B718"/>
<mask id="mask0_63_7422" style="mask-type:alpha" maskUnits="userSpaceOnUse" x="50" y="0" width="10" height="10">
<path d="M55.7669 0.697251L56.803 2.84414C56.8788 3.00065 57.0254 3.1076 57.1937 3.12942L59.261 3.39106H59.2609C59.3911 3.40885 59.5095 3.47803 59.5912 3.58398C59.6729 3.68993 59.7117 3.82445 59.6993 3.95922C59.6869 4.09401 59.6244 4.21859 59.5248 4.30683L57.9115 5.72372C57.8416 5.7845 57.7889 5.86362 57.7589 5.95278C57.729 6.04185 57.723 6.13767 57.7416 6.23002L58.2222 8.61626C58.2491 8.7494 58.2247 8.88803 58.1542 9.00293C58.0837 9.11783 57.9726 9.19987 57.8444 9.23172C57.7163 9.26357 57.5811 9.24276 57.4676 9.17358L55.5347 8.00528C55.4576 7.95937 55.3702 7.93519 55.2811 7.93519C55.192 7.93519 55.1046 7.95937 55.0274 8.00528L53.0971 9.1827H53.097C52.9835 9.25187 52.8484 9.27277 52.7202 9.24092C52.5921 9.20907 52.481 9.12703 52.4105 9.01213C52.3399 8.89724 52.3156 8.75853 52.3424 8.62537L52.8206 6.22978C52.8391 6.13743 52.8331 6.04161 52.8032 5.95254C52.7732 5.86338 52.7206 5.78426 52.6506 5.72348L51.0398 4.32356C50.9401 4.23504 50.8777 4.11001 50.8657 3.97485C50.8536 3.83969 50.893 3.70499 50.9754 3.59914C51.0579 3.49337 51.177 3.42474 51.3075 3.40777L53.56 3.13436C53.7394 3.11245 53.894 2.99391 53.9659 2.82298L54.8537 0.729662V0.729753C54.9052 0.609016 54.999 0.512829 55.1164 0.460455C55.2337 0.408072 55.366 0.403327 55.4866 0.447222C55.6072 0.491027 55.7072 0.580278 55.7669 0.69699L55.7669 0.697251Z" fill="#FFCC00"/>
</mask>
<g mask="url(#mask0_63_7422)">
<rect x="53.8242" y="-0.5" width="9" height="13" fill="white"/>
</g>
</svg>
