<svg width="60" height="10" viewBox="0 0 60 10" fill="none" xmlns="http://www.w3.org/2000/svg">
<path d="M5.05958 1.10411L6.09573 3.251C6.17155 3.40751 6.31814 3.51446 6.48641 3.53628L8.55376 3.79792H8.55367C8.68381 3.81571 8.80219 3.88489 8.88392 3.99084C8.96566 4.09679 9.00442 4.23131 8.99203 4.36608C8.97965 4.50087 8.9171 4.62545 8.81748 4.71369L7.20426 6.13058C7.13428 6.19136 7.08164 6.27048 7.05165 6.35964C7.02174 6.44871 7.01573 6.54453 7.03431 6.63688L7.51497 9.02312C7.54186 9.15627 7.51745 9.29489 7.44694 9.40979C7.37643 9.52469 7.26531 9.60673 7.13711 9.63858C7.00901 9.67043 6.87382 9.64962 6.76031 9.58045L4.82743 8.41214C4.75028 8.36624 4.66288 8.34205 4.57379 8.34205C4.48471 8.34205 4.39729 8.36624 4.32015 8.41214L2.38985 9.58956H2.38976C2.27626 9.65873 2.14116 9.67963 2.01297 9.64778C1.88487 9.61593 1.77376 9.53389 1.70323 9.41899C1.63263 9.3041 1.6083 9.16539 1.63511 9.03223L2.11328 6.63665C2.13186 6.54429 2.12584 6.44847 2.09594 6.3594C2.06595 6.27024 2.01331 6.19112 1.94333 6.13034L0.332572 4.73042C0.232868 4.6419 0.170407 4.51687 0.158376 4.38171C0.146344 4.24656 0.185712 4.11185 0.268167 4.006C0.35062 3.90023 0.4697 3.8316 0.600189 3.81463L2.85271 3.54122C3.03212 3.51931 3.18668 3.40077 3.25861 3.22984L4.14639 1.13652V1.13661C4.19797 1.01588 4.29175 0.919689 4.40915 0.867315C4.52647 0.814932 4.65874 0.810187 4.77932 0.854083C4.8999 0.897887 4.99996 0.987139 5.05959 1.10385L5.05958 1.10411Z" fill="#F4B718"/>
<path d="M17.7018 1.10411L18.7379 3.251C18.8138 3.40751 18.9604 3.51446 19.1286 3.53628L21.196 3.79792H21.1959C21.326 3.81571 21.4444 3.88489 21.5261 3.99084C21.6079 4.09679 21.6466 4.23131 21.6342 4.36608C21.6219 4.50087 21.5593 4.62545 21.4597 4.71369L19.8465 6.13058C19.7765 6.19136 19.7238 6.27048 19.6939 6.35964C19.664 6.44871 19.6579 6.54453 19.6765 6.63688L20.1572 9.02312C20.1841 9.15627 20.1597 9.29489 20.0891 9.40979C20.0186 9.52469 19.9075 9.60673 19.7793 9.63858C19.6512 9.67043 19.516 9.64962 19.4025 9.58045L17.4696 8.41214C17.3925 8.36624 17.3051 8.34205 17.216 8.34205C17.1269 8.34205 17.0395 8.36624 16.9624 8.41214L15.0321 9.58956H15.032C14.9185 9.65873 14.7834 9.67963 14.6552 9.64778C14.5271 9.61593 14.416 9.53389 14.3454 9.41899C14.2748 9.3041 14.2505 9.16539 14.2773 9.03223L14.7555 6.63665C14.7741 6.54429 14.7681 6.44847 14.7382 6.3594C14.7082 6.27024 14.6555 6.19112 14.5855 6.13034L12.9748 4.73042C12.8751 4.6419 12.8126 4.51687 12.8006 4.38171C12.7886 4.24656 12.8279 4.11185 12.9104 4.006C12.9928 3.90023 13.1119 3.8316 13.2424 3.81463L15.4949 3.54122C15.6743 3.51931 15.8289 3.40077 15.9008 3.22984L16.7886 1.13652V1.13661C16.8402 1.01588 16.934 0.919689 17.0514 0.867315C17.1687 0.814932 17.3009 0.810187 17.4215 0.854083C17.5421 0.897887 17.6422 0.987139 17.7018 1.10385L17.7018 1.10411Z" fill="#F4B718"/>
<path d="M30.3424 1.10411L31.3786 3.251C31.4544 3.40751 31.601 3.51446 31.7692 3.53628L33.8366 3.79792H33.8365C33.9666 3.81571 34.085 3.88489 34.1668 3.99084C34.2485 4.09679 34.2873 4.23131 34.2749 4.36608C34.2625 4.50087 34.1999 4.62545 34.1003 4.71369L32.4871 6.13058C32.4171 6.19136 32.3645 6.27048 32.3345 6.35964C32.3046 6.44871 32.2986 6.54453 32.3171 6.63688L32.7978 9.02312C32.8247 9.15627 32.8003 9.29489 32.7298 9.40979C32.6593 9.52469 32.5481 9.60673 32.4199 9.63858C32.2918 9.67043 32.1567 9.64962 32.0431 9.58045L30.1103 8.41214C30.0331 8.36624 29.9457 8.34205 29.8566 8.34205C29.7675 8.34205 29.6801 8.36624 29.603 8.41214L27.6727 9.58956H27.6726C27.5591 9.65873 27.424 9.67963 27.2958 9.64778C27.1677 9.61593 27.0566 9.53389 26.9861 9.41899C26.9155 9.3041 26.8911 9.16539 26.9179 9.03223L27.3961 6.63665C27.4147 6.54429 27.4087 6.44847 27.3788 6.3594C27.3488 6.27024 27.2961 6.19112 27.2262 6.13034L25.6154 4.73042C25.5157 4.6419 25.4532 4.51687 25.4412 4.38171C25.4292 4.24656 25.4685 4.11185 25.551 4.006C25.6335 3.90023 25.7525 3.8316 25.883 3.81463L28.1355 3.54122C28.315 3.51931 28.4695 3.40077 28.5414 3.22984L29.4292 1.13652V1.13661C29.4808 1.01588 29.5746 0.919689 29.692 0.867315C29.8093 0.814932 29.9416 0.810187 30.0622 0.854083C30.1827 0.897887 30.2828 0.987139 30.3424 1.10385L30.3424 1.10411Z" fill="#F4B718"/>
<path d="M42.9846 1.10411L44.0208 3.251C44.0966 3.40751 44.2432 3.51446 44.4115 3.53628L46.4788 3.79792H46.4787C46.6089 3.81571 46.7272 3.88489 46.809 3.99084C46.8907 4.09679 46.9295 4.23131 46.9171 4.36608C46.9047 4.50087 46.8421 4.62545 46.7425 4.71369L45.1293 6.13058C45.0593 6.19136 45.0067 6.27048 44.9767 6.35964C44.9468 6.44871 44.9408 6.54453 44.9594 6.63688L45.44 9.02312C45.4669 9.15627 45.4425 9.29489 45.372 9.40979C45.3015 9.52469 45.1904 9.60673 45.0622 9.63858C44.9341 9.67043 44.7989 9.64962 44.6854 9.58045L42.7525 8.41214C42.6753 8.36624 42.5879 8.34205 42.4988 8.34205C42.4098 8.34205 42.3223 8.36624 42.2452 8.41214L40.3149 9.58956H40.3148C40.2013 9.65873 40.0662 9.67963 39.938 9.64778C39.8099 9.61593 39.6988 9.53389 39.6283 9.41899C39.5577 9.3041 39.5334 9.16539 39.5602 9.03223L40.0383 6.63665C40.0569 6.54429 40.0509 6.44847 40.021 6.3594C39.991 6.27024 39.9384 6.19112 39.8684 6.13034L38.2576 4.73042C38.1579 4.6419 38.0955 4.51687 38.0834 4.38171C38.0714 4.24656 38.1108 4.11185 38.1932 4.006C38.2757 3.90023 38.3947 3.8316 38.5252 3.81463L40.7778 3.54122C40.9572 3.51931 41.1117 3.40077 41.1837 3.22984L42.0714 1.13652V1.13661C42.123 1.01588 42.2168 0.919689 42.3342 0.867315C42.4515 0.814932 42.5838 0.810187 42.7044 0.854083C42.8249 0.897887 42.925 0.987139 42.9846 1.10385L42.9846 1.10411Z" fill="#F4B718"/>
<path d="M55.6232 1.10289L56.6593 3.24978C56.7352 3.40629 56.8817 3.51324 57.05 3.53506L59.1174 3.79669H59.1173C59.2474 3.81449 59.3658 3.88367 59.4475 3.98962C59.5293 4.09557 59.568 4.23009 59.5556 4.36486C59.5432 4.49965 59.4807 4.62423 59.3811 4.71247L57.7679 6.12936C57.6979 6.19014 57.6452 6.26926 57.6152 6.35842C57.5853 6.44749 57.5793 6.54331 57.5979 6.63566L58.0786 9.0219C58.1055 9.15504 58.081 9.29367 58.0105 9.40857C57.94 9.52347 57.8289 9.60551 57.7007 9.63736C57.5726 9.66921 57.4374 9.6484 57.3239 9.57922L55.391 8.41092C55.3139 8.36501 55.2265 8.34083 55.1374 8.34083C55.0483 8.34083 54.9609 8.36501 54.8838 8.41092L52.9535 9.58834H52.9534C52.8399 9.65751 52.7048 9.67841 52.5766 9.64656C52.4485 9.61471 52.3374 9.53267 52.2668 9.41777C52.1962 9.30288 52.1719 9.16417 52.1987 9.03101L52.6769 6.63542C52.6955 6.54307 52.6894 6.44725 52.6595 6.35818C52.6295 6.26902 52.5769 6.1899 52.5069 6.12912L50.8962 4.7292C50.7965 4.64068 50.734 4.51565 50.722 4.38049C50.7099 4.24533 50.7493 4.11063 50.8318 4.00478C50.9142 3.89901 51.0333 3.83038 51.1638 3.81341L53.4163 3.54C53.5957 3.51809 53.7503 3.39955 53.8222 3.22862L54.71 1.1353V1.13539C54.7616 1.01466 54.8553 0.918468 54.9728 0.866094C55.0901 0.813711 55.2223 0.808966 55.3429 0.852862C55.4635 0.896666 55.5636 0.985918 55.6232 1.10263L55.6232 1.10289Z" fill="#F4B718"/>
<mask id="mask0_63_7454" style="mask-type:alpha" maskUnits="userSpaceOnUse" x="50" y="0" width="10" height="10">
<path d="M55.6229 1.10252L56.6591 3.24941C56.7349 3.40592 56.8815 3.51287 57.0498 3.53469L59.1171 3.79633H59.117C59.2472 3.81412 59.3655 3.8833 59.4473 3.98925C59.529 4.0952 59.5678 4.22972 59.5554 4.3645C59.543 4.49929 59.4805 4.62387 59.3808 4.71211L57.7676 6.12899C57.6976 6.18977 57.645 6.26889 57.615 6.35805C57.5851 6.44712 57.5791 6.54294 57.5977 6.63529L58.0783 9.02153C58.1052 9.15468 58.0808 9.29331 58.0103 9.4082C57.9398 9.5231 57.8287 9.60514 57.7005 9.63699C57.5724 9.66884 57.4372 9.64803 57.3237 9.57886L55.3908 8.41055C55.3136 8.36465 55.2262 8.34046 55.1371 8.34046C55.0481 8.34046 54.9606 8.36465 54.8835 8.41055L52.9532 9.58797H52.9531C52.8396 9.65714 52.7045 9.67804 52.5763 9.64619C52.4482 9.61434 52.3371 9.5323 52.2666 9.41741C52.196 9.30251 52.1717 9.16381 52.1985 9.03064L52.6766 6.63506C52.6952 6.5427 52.6892 6.44688 52.6593 6.35782C52.6293 6.26866 52.5767 6.18953 52.5067 6.12875L50.8959 4.72883C50.7962 4.64031 50.7338 4.51529 50.7217 4.38012C50.7097 4.24497 50.7491 4.11027 50.8315 4.00441C50.914 3.89864 51.0331 3.83001 51.1635 3.81304L53.4161 3.53963C53.5955 3.51773 53.75 3.39918 53.822 3.22825L54.7097 1.13494V1.13503C54.7613 1.01429 54.8551 0.918102 54.9725 0.865728C55.0898 0.813345 55.2221 0.8086 55.3427 0.852496C55.4633 0.8963 55.5633 0.985552 55.6229 1.10226L55.6229 1.10252Z" fill="#FFCC00"/>
</mask>
<g mask="url(#mask0_63_7454)">
<rect x="56.6105" width="6" height="13" fill="white"/>
</g>
</svg>
