<svg width="60" height="10" viewBox="0 0 60 10" fill="none" xmlns="http://www.w3.org/2000/svg">
<path d="M5.05897 0.502916L6.09512 2.6498C6.17094 2.80631 6.31753 2.91326 6.4858 2.93508L8.55315 3.19672H8.55306C8.6832 3.21451 8.80158 3.28369 8.88331 3.38964C8.96505 3.49559 9.00381 3.63011 8.99142 3.76489C8.97904 3.89968 8.91649 4.02426 8.81687 4.1125L7.20365 5.52938C7.13367 5.59016 7.08103 5.66928 7.05104 5.75844C7.02113 5.84751 7.01512 5.94334 7.0337 6.03569L7.51436 8.42192C7.54125 8.55507 7.51684 8.6937 7.44633 8.80859C7.37582 8.92349 7.2647 9.00553 7.1365 9.03738C7.0084 9.06923 6.87321 9.04842 6.7597 8.97925L4.82682 7.81094C4.74967 7.76504 4.66227 7.74085 4.57318 7.74085C4.4841 7.74085 4.39668 7.76504 4.31954 7.81094L2.38924 8.98836H2.38915C2.27565 9.05753 2.14055 9.07843 2.01236 9.04658C1.88425 9.01473 1.77315 8.93269 1.70262 8.8178C1.63202 8.7029 1.60769 8.5642 1.6345 8.43103L2.11267 6.03545C2.13125 5.9431 2.12523 5.84727 2.09533 5.75821C2.06534 5.66905 2.0127 5.58992 1.94272 5.52915L0.331962 4.12922C0.232258 4.0407 0.169796 3.91568 0.157765 3.78052C0.145734 3.64536 0.185102 3.51066 0.267557 3.4048C0.35001 3.29903 0.469089 3.23041 0.599579 3.21343L2.8521 2.94002C3.03151 2.91812 3.18607 2.79957 3.258 2.62865L4.14578 0.535326V0.535417C4.19736 0.414681 4.29114 0.318493 4.40854 0.266119C4.52586 0.213736 4.65813 0.208991 4.77871 0.252886C4.89929 0.296691 4.99935 0.385942 5.05898 0.502654L5.05897 0.502916Z" fill="#F4B718"/>
<path d="M17.7012 0.502916L18.7373 2.6498C18.8132 2.80631 18.9597 2.91326 19.128 2.93508L21.1954 3.19672H21.1953C21.3254 3.21451 21.4438 3.28369 21.5255 3.38964C21.6073 3.49559 21.646 3.63011 21.6336 3.76489C21.6213 3.89968 21.5587 4.02426 21.4591 4.1125L19.8459 5.52938C19.7759 5.59016 19.7232 5.66928 19.6932 5.75844C19.6633 5.84751 19.6573 5.94334 19.6759 6.03569L20.1566 8.42192C20.1835 8.55507 20.159 8.6937 20.0885 8.80859C20.018 8.92349 19.9069 9.00553 19.7787 9.03738C19.6506 9.06923 19.5154 9.04842 19.4019 8.97925L17.469 7.81094C17.3919 7.76504 17.3045 7.74085 17.2154 7.74085C17.1263 7.74085 17.0389 7.76504 16.9618 7.81094L15.0315 8.98836H15.0314C14.9179 9.05753 14.7828 9.07843 14.6546 9.04658C14.5265 9.01473 14.4154 8.93269 14.3448 8.8178C14.2742 8.7029 14.2499 8.5642 14.2767 8.43103L14.7549 6.03545C14.7735 5.9431 14.7674 5.84727 14.7375 5.75821C14.7076 5.66905 14.6549 5.58992 14.5849 5.52915L12.9742 4.12922C12.8745 4.0407 12.812 3.91568 12.8 3.78052C12.7879 3.64536 12.8273 3.51066 12.9098 3.4048C12.9922 3.29903 13.1113 3.23041 13.2418 3.21343L15.4943 2.94002C15.6737 2.91812 15.8283 2.79957 15.9002 2.62865L16.788 0.535326V0.535417C16.8396 0.414681 16.9333 0.318493 17.0508 0.266119C17.1681 0.213736 17.3003 0.208991 17.4209 0.252886C17.5415 0.296691 17.6416 0.385942 17.7012 0.502654L17.7012 0.502916Z" fill="#F4B718"/>
<path d="M30.3418 0.502916L31.378 2.6498C31.4538 2.80631 31.6004 2.91326 31.7686 2.93508L33.836 3.19672H33.8359C33.966 3.21451 34.0844 3.28369 34.1662 3.38964C34.2479 3.49559 34.2866 3.63011 34.2743 3.76489C34.2619 3.89968 34.1993 4.02426 34.0997 4.1125L32.4865 5.52938C32.4165 5.59016 32.3639 5.66928 32.3339 5.75844C32.304 5.84751 32.298 5.94334 32.3165 6.03569L32.7972 8.42192C32.8241 8.55507 32.7997 8.6937 32.7292 8.80859C32.6587 8.92349 32.5475 9.00553 32.4193 9.03738C32.2912 9.06923 32.1561 9.04842 32.0425 8.97925L30.1097 7.81094C30.0325 7.76504 29.9451 7.74085 29.856 7.74085C29.7669 7.74085 29.6795 7.76504 29.6024 7.81094L27.6721 8.98836H27.672C27.5585 9.05753 27.4234 9.07843 27.2952 9.04658C27.1671 9.01473 27.056 8.93269 26.9855 8.8178C26.9149 8.7029 26.8905 8.5642 26.9173 8.43103L27.3955 6.03545C27.4141 5.9431 27.4081 5.84727 27.3782 5.75821C27.3482 5.66905 27.2955 5.58992 27.2256 5.52915L25.6148 4.12922C25.5151 4.0407 25.4526 3.91568 25.4406 3.78052C25.4286 3.64536 25.4679 3.51066 25.5504 3.4048C25.6328 3.29903 25.7519 3.23041 25.8824 3.21343L28.1349 2.94002C28.3143 2.91812 28.4689 2.79957 28.5408 2.62865L29.4286 0.535326V0.535417C29.4802 0.414681 29.574 0.318493 29.6914 0.266119C29.8087 0.213736 29.941 0.208991 30.0615 0.252886C30.1821 0.296691 30.2822 0.385942 30.3418 0.502654L30.3418 0.502916Z" fill="#F4B718"/>
<path d="M42.984 0.502916L44.0202 2.6498C44.096 2.80631 44.2426 2.91326 44.4109 2.93508L46.4782 3.19672H46.4781C46.6082 3.21451 46.7266 3.28369 46.8084 3.38964C46.8901 3.49559 46.9289 3.63011 46.9165 3.76489C46.9041 3.89968 46.8415 4.02426 46.7419 4.1125L45.1287 5.52938C45.0587 5.59016 45.0061 5.66928 44.9761 5.75844C44.9462 5.84751 44.9402 5.94334 44.9587 6.03569L45.4394 8.42192C45.4663 8.55507 45.4419 8.6937 45.3714 8.80859C45.3009 8.92349 45.1897 9.00553 45.0615 9.03738C44.9334 9.06923 44.7983 9.04842 44.6848 8.97925L42.7519 7.81094C42.6747 7.76504 42.5873 7.74085 42.4982 7.74085C42.4091 7.74085 42.3217 7.76504 42.2446 7.81094L40.3143 8.98836H40.3142C40.2007 9.05753 40.0656 9.07843 39.9374 9.04658C39.8093 9.01473 39.6982 8.93269 39.6277 8.8178C39.5571 8.7029 39.5327 8.5642 39.5595 8.43103L40.0377 6.03545C40.0563 5.9431 40.0503 5.84727 40.0204 5.75821C39.9904 5.66905 39.9377 5.58992 39.8678 5.52915L38.257 4.12922C38.1573 4.0407 38.0948 3.91568 38.0828 3.78052C38.0708 3.64536 38.1102 3.51066 38.1926 3.4048C38.2751 3.29903 38.3941 3.23041 38.5246 3.21343L40.7771 2.94002C40.9566 2.91812 41.1111 2.79957 41.183 2.62865L42.0708 0.535326V0.535417C42.1224 0.414681 42.2162 0.318493 42.3336 0.266119C42.4509 0.213736 42.5832 0.208991 42.7038 0.252886C42.8243 0.296691 42.9244 0.385942 42.984 0.502654L42.984 0.502916Z" fill="#F4B718"/>
<path d="M55.6242 0.501878L56.6603 2.64877C56.7361 2.80528 56.8827 2.91223 57.051 2.93405L59.1183 3.19568H59.1182C59.2484 3.21348 59.3668 3.28265 59.4485 3.3886C59.5302 3.49455 59.569 3.62907 59.5566 3.76385C59.5442 3.89864 59.4817 4.02322 59.3821 4.11146L57.7688 5.52834C57.6989 5.58912 57.6462 5.66825 57.6162 5.75741C57.5863 5.84647 57.5803 5.9423 57.5989 6.03465L58.0795 8.42088C58.1064 8.55403 58.082 8.69266 58.0115 8.80756C57.941 8.92245 57.8299 9.00449 57.7017 9.03634C57.5736 9.06819 57.4384 9.04739 57.3249 8.97821L55.392 7.8099C55.3149 7.764 55.2275 7.73982 55.1384 7.73982C55.0493 7.73982 54.9619 7.764 54.8847 7.8099L52.9544 8.98732H52.9543C52.8408 9.0565 52.7057 9.0774 52.5775 9.04555C52.4494 9.0137 52.3383 8.93165 52.2678 8.81676C52.1972 8.70186 52.1729 8.56316 52.1997 8.42999L52.6779 6.03441C52.6964 5.94206 52.6904 5.84623 52.6605 5.75717C52.6305 5.66801 52.5779 5.58889 52.5079 5.52811L50.8971 4.12818C50.7974 4.03966 50.735 3.91464 50.723 3.77948C50.7109 3.64432 50.7503 3.50962 50.8327 3.40376C50.9152 3.29799 51.0343 3.22937 51.1648 3.21239L53.4173 2.93898C53.5967 2.91708 53.7513 2.79853 53.8232 2.62761L54.711 0.534289V0.53438C54.7625 0.413643 54.8563 0.317455 54.9737 0.265081C55.091 0.212698 55.2233 0.207953 55.3439 0.251849C55.4645 0.295653 55.5645 0.384905 55.6242 0.501616L55.6242 0.501878Z" fill="#F4B718"/>
<mask id="mask0_63_7439" style="mask-type:alpha" maskUnits="userSpaceOnUse" x="50" y="0" width="10" height="10">
<path d="M55.6245 0.501878L56.6607 2.64877C56.7365 2.80528 56.8831 2.91223 57.0514 2.93405L59.1187 3.19568H59.1186C59.2487 3.21348 59.3671 3.28265 59.4489 3.3886C59.5306 3.49455 59.5694 3.62907 59.557 3.76385C59.5446 3.89864 59.482 4.02322 59.3824 4.11146L57.7692 5.52834C57.6992 5.58912 57.6466 5.66825 57.6166 5.75741C57.5867 5.84647 57.5807 5.9423 57.5992 6.03465L58.0799 8.42088C58.1068 8.55403 58.0824 8.69266 58.0119 8.80756C57.9414 8.92245 57.8303 9.00449 57.7021 9.03634C57.5739 9.06819 57.4388 9.04739 57.3253 8.97821L55.3924 7.8099C55.3152 7.764 55.2278 7.73982 55.1387 7.73982C55.0496 7.73982 54.9622 7.764 54.8851 7.8099L52.9548 8.98732H52.9547C52.8412 9.0565 52.7061 9.0774 52.5779 9.04555C52.4498 9.0137 52.3387 8.93165 52.2682 8.81676C52.1976 8.70186 52.1732 8.56316 52.2001 8.42999L52.6782 6.03441C52.6968 5.94206 52.6908 5.84623 52.6609 5.75717C52.6309 5.66801 52.5783 5.58889 52.5083 5.52811L50.8975 4.12818C50.7978 4.03966 50.7353 3.91464 50.7233 3.77948C50.7113 3.64432 50.7507 3.50962 50.8331 3.40376C50.9156 3.29799 51.0346 3.22937 51.1651 3.21239L53.4176 2.93898C53.5971 2.91708 53.7516 2.79853 53.8235 2.62761L54.7113 0.534289V0.53438C54.7629 0.413643 54.8567 0.317455 54.9741 0.265081C55.0914 0.212698 55.2237 0.207953 55.3443 0.251849C55.4648 0.295653 55.5649 0.384905 55.6245 0.501616L55.6245 0.501878Z" fill="#FFCC00"/>
</mask>
<g mask="url(#mask0_63_7439)">
<rect x="55.1389" y="-0.760376" width="7.61054" height="13.2571" fill="white"/>
</g>
</svg>
