<svg width="22" height="11" viewBox="0 0 22 11" fill="none" xmlns="http://www.w3.org/2000/svg">
<path d="M21.2184 5.74253V1.29239C21.2184 0.968014 21.0897 0.656925 20.8605 0.427559C20.6312 0.198192 20.3204 0.0693359 19.9962 0.0693359H15.5539C15.2285 0.0693359 14.9163 0.19871 14.6862 0.428998C14.4561 0.659286 14.3268 0.971623 14.3268 1.2973C14.3268 1.62297 14.4561 1.93531 14.6862 2.1656C14.9163 2.39589 15.2285 2.52526 15.5539 2.52526H17.0265L12.6873 6.88207L8.8488 3.04101C8.61961 2.81185 8.30887 2.68312 7.98488 2.68312C7.66089 2.68312 7.35016 2.81185 7.12097 3.04101L1.34356 8.81734C1.22482 8.92966 1.12979 9.06467 1.06409 9.21438C0.998389 9.36409 0.963355 9.52546 0.961058 9.68895C0.958761 9.85244 0.989247 10.0147 1.05071 10.1662C1.11218 10.3177 1.20338 10.4554 1.31892 10.571C1.43446 10.6866 1.572 10.7778 1.72339 10.8394C1.87479 10.9009 2.03698 10.9314 2.20036 10.9291C2.36374 10.9268 2.52501 10.8917 2.67461 10.826C2.82422 10.7602 2.95914 10.6651 3.07138 10.5463L7.97998 5.63446L11.8185 9.47553C12.0477 9.70469 12.3584 9.83341 12.6824 9.83341C13.0064 9.83341 13.3171 9.70469 13.5463 9.47553L18.7789 4.24441V5.71796C18.7789 6.04364 18.9082 6.35598 19.1383 6.58627C19.3684 6.81655 19.6806 6.94593 20.006 6.94593C20.3315 6.94593 20.6436 6.81655 20.8737 6.58627C21.1039 6.35598 21.2332 6.04364 21.2332 5.71796L21.2184 5.74253Z" fill="#6754E2"/>
</svg>
