<svg width="324" height="43" viewBox="0 0 324 43" fill="none" xmlns="http://www.w3.org/2000/svg">
<path d="M317.343 42.2162C321.018 42.2162 323.998 39.3028 323.998 35.7089C323.998 32.1151 321.018 29.2017 317.343 29.2017C313.667 29.2017 310.688 32.1151 310.688 35.7089C310.688 39.3028 313.667 42.2162 317.343 42.2162Z" fill="#F6F6FF"/>
<path d="M298.708 42.2163C302.383 42.2163 305.363 39.3029 305.363 35.709C305.363 32.1151 302.383 29.2017 298.708 29.2017C295.032 29.2017 292.053 32.1151 292.053 35.709C292.053 39.3029 295.032 42.2163 298.708 42.2163Z" fill="#F6F6FF"/>
<path d="M280.075 42.2163C283.751 42.2163 286.73 39.3029 286.73 35.709C286.73 32.1151 283.751 29.2017 280.075 29.2017C276.4 29.2017 273.42 32.1151 273.42 35.709C273.42 39.3029 276.4 42.2163 280.075 42.2163Z" fill="#F6F6FF"/>
<path d="M41.6262 13.5383L29.8026 42.1818H23.821C23.5041 42.1818 23.2526 42.08 23.0663 41.8761C22.8799 41.6725 22.7402 41.3299 22.647 40.8484L20.1873 25.3459C20.0754 24.6049 19.9915 23.8548 19.9356 23.0955C19.8053 23.4845 19.6655 23.8733 19.5163 24.2623C19.3673 24.6328 19.2183 25.0124 19.0692 25.4014L12.836 40.8484C12.4633 41.7373 11.9136 42.1818 11.1868 42.1818H5.42878L0.621094 13.5383H6.51889C7.02201 13.5383 7.43197 13.6681 7.74876 13.9273C8.08418 14.1865 8.29847 14.52 8.39165 14.9275L9.67742 29.0964C9.78923 30.8559 9.87309 32.5506 9.929 34.1805C10.2458 33.3472 10.5626 32.5136 10.8793 31.6802C11.1961 30.8466 11.5409 29.9855 11.9136 29.0964L17.5318 14.872C17.6809 14.483 17.9418 14.1588 18.3145 13.8996C18.7058 13.6401 19.1344 13.5105 19.6003 13.5105H22.8985C23.4389 13.5105 23.8676 13.6401 24.1842 13.8996C24.5197 14.1588 24.706 14.483 24.7433 14.872L26.8118 29.0964C26.9422 29.967 27.0539 30.8189 27.1473 31.6524C27.259 32.4858 27.3615 33.3194 27.4546 34.1528C27.697 33.3194 27.9485 32.4951 28.2093 31.6802C28.4703 30.8466 28.759 29.9855 29.0759 29.0964L33.9394 14.9275C34.0886 14.52 34.3494 14.1865 34.7222 13.9273C35.0947 13.6681 35.514 13.5383 35.9799 13.5383H41.6262ZM53.5973 36.8477C54.6781 36.8477 55.647 36.5328 56.5043 35.903C57.3614 35.2733 58.0883 34.4307 58.6846 33.3749C59.2809 32.3007 59.7373 31.0598 60.0541 29.652C60.3896 28.2445 60.5573 26.7534 60.5573 25.179C60.5573 22.9566 60.2125 21.3545 59.523 20.3728C58.8336 19.3726 57.7621 18.8726 56.3087 18.8726C55.2465 18.8726 54.2774 19.1874 53.4017 19.8171C52.5444 20.4283 51.8178 21.2619 51.2215 22.3176C50.6252 23.3732 50.1593 24.6143 49.8238 26.0404C49.5071 27.4479 49.3487 28.939 49.3487 30.5134C49.3487 32.6989 49.6934 34.3009 50.3828 35.3196C51.0722 36.3383 52.1437 36.8477 53.5973 36.8477ZM52.9265 42.5986C51.3239 42.5986 49.8331 42.3392 48.4542 41.8206C47.0753 41.2835 45.8827 40.5056 44.8764 39.4869C43.8701 38.4684 43.0782 37.2088 42.5006 35.7086C41.9415 34.2083 41.6619 32.4951 41.6619 30.5689C41.6619 28.0684 42.0719 25.7532 42.8917 23.6234C43.7118 21.4748 44.8205 19.6227 46.218 18.0668C47.6157 16.511 49.2461 15.2978 51.1097 14.4274C52.9731 13.5383 54.9389 13.0939 57.0074 13.0939C58.6099 13.0939 60.0914 13.3624 61.4516 13.8996C62.8307 14.4182 64.0233 15.196 65.0296 16.2333C66.0357 17.252 66.8278 18.5114 67.4055 20.0117C67.9831 21.5118 68.2719 23.2251 68.2719 25.1513C68.2719 27.6333 67.8618 29.9392 67.042 32.069C66.2222 34.1991 65.1041 36.0419 63.6878 37.5978C62.2903 39.1536 60.6597 40.376 58.7963 41.2649C56.9516 42.1541 54.9948 42.5986 52.9265 42.5986ZM80.7602 19.9282C81.4869 18.5947 82.2508 17.4556 83.0522 16.511C83.8721 15.5665 84.72 14.835 85.5958 14.3163C86.4717 13.7792 87.366 13.4735 88.2792 13.3994C89.1922 13.3069 90.1146 13.4643 91.0464 13.8718L89.6487 21.0673C88.5493 20.6044 87.5152 20.4098 86.5462 20.4839C85.5958 20.5579 84.7107 20.9284 83.8907 21.5952C83.0895 22.2619 82.3628 23.2343 81.7106 24.5123C81.0582 25.7904 80.4899 27.4016 80.0056 29.3465L78.4402 42.1818H70.8653L74.3593 13.5105H78.3284C79.1296 13.5105 79.7539 13.7051 80.2012 14.094C80.6484 14.483 80.872 15.1034 80.872 15.9553L80.7602 19.9282ZM103.563 0.758545L100.656 24.2623H101.327C101.774 24.2623 102.137 24.1975 102.417 24.0679C102.697 23.9196 102.995 23.6604 103.311 23.2899L110.188 14.8442C110.523 14.4182 110.886 14.094 111.278 13.8718C111.669 13.6494 112.144 13.5383 112.703 13.5383H119.607L110.747 23.9844C110.374 24.4104 109.992 24.7995 109.601 25.1513C109.228 25.4847 108.827 25.7812 108.399 26.0404C108.771 26.3366 109.079 26.6793 109.321 27.0684C109.582 27.4572 109.824 27.8925 110.048 28.3741L116.561 42.1818H109.88C109.321 42.1818 108.855 42.0893 108.482 41.9041C108.11 41.7003 107.821 41.3485 107.616 40.8484L102.752 30.3188C102.547 29.8744 102.333 29.5872 102.11 29.4576C101.886 29.328 101.504 29.2632 100.964 29.2632H100.041L98.4479 42.1818H90.8451L95.988 0.758545H103.563Z" fill="#F6F6FF"/>
<path d="M138.99 19.2059C138.766 19.5208 138.542 19.7523 138.319 19.9004C138.114 20.0302 137.853 20.095 137.536 20.095C137.182 20.095 136.828 20.0022 136.474 19.8171C136.138 19.6319 135.757 19.4375 135.328 19.2336C134.899 19.0115 134.405 18.8076 133.846 18.6224C133.306 18.4373 132.663 18.3447 131.918 18.3447C130.52 18.3447 129.477 18.641 128.787 19.2336C128.116 19.8263 127.781 20.5671 127.781 21.4562C127.781 22.1785 128.051 22.762 128.591 23.2065C129.132 23.6326 129.812 24.0214 130.632 24.3734C131.452 24.7068 132.337 25.0494 133.288 25.4013C134.238 25.7531 135.123 26.207 135.943 26.7626C136.763 27.3183 137.443 28.0313 137.983 28.9019C138.524 29.7723 138.794 30.8836 138.794 32.2358C138.794 33.6434 138.515 34.9768 137.955 36.2365C137.396 37.4959 136.586 38.5979 135.524 39.5424C134.48 40.4871 133.213 41.2371 131.722 41.7928C130.231 42.3484 128.564 42.6264 126.719 42.6264C125.806 42.6264 124.911 42.5338 124.036 42.3484C123.178 42.1818 122.358 41.9411 121.576 41.6261C120.812 41.2927 120.113 40.9131 119.479 40.4871C118.864 40.061 118.343 39.5981 117.914 39.098L119.815 36.2365C120.038 35.903 120.309 35.6438 120.625 35.4584C120.942 35.2733 121.324 35.1807 121.771 35.1807C122.181 35.1807 122.554 35.301 122.89 35.5417C123.225 35.7641 123.598 36.0141 124.007 36.292C124.417 36.5512 124.902 36.8014 125.461 37.0421C126.039 37.2642 126.784 37.3755 127.697 37.3755C128.387 37.3755 128.992 37.2922 129.514 37.1254C130.054 36.9402 130.502 36.6993 130.856 36.4031C131.228 36.0881 131.498 35.7271 131.666 35.3196C131.853 34.912 131.946 34.4862 131.946 34.0416C131.946 33.2266 131.676 32.5968 131.135 32.1525C130.595 31.7079 129.915 31.3189 129.095 30.9856C128.293 30.6522 127.418 30.328 126.467 30.0132C125.517 29.6982 124.632 29.2724 123.812 28.7353C123.011 28.1981 122.34 27.5036 121.799 26.6515C121.259 25.7996 120.989 24.6605 120.989 23.2343C120.989 21.9378 121.231 20.6877 121.716 19.4838C122.219 18.2612 122.945 17.1779 123.896 16.2332C124.846 15.2885 126.02 14.5292 127.418 13.955C128.834 13.3809 130.464 13.0939 132.309 13.0939C134.191 13.0939 135.859 13.4179 137.312 14.0661C138.785 14.6959 140.005 15.5017 140.974 16.4832L138.99 19.2059ZM144.788 36.1809C144.788 36.0511 144.788 35.903 144.788 35.7363C144.788 35.551 144.798 35.2918 144.816 34.9583C144.853 34.6065 144.9 34.1527 144.956 33.5971C145.031 33.0229 145.124 32.2821 145.235 31.3745L146.773 19.0392H144.257C143.885 19.0392 143.577 18.9096 143.335 18.6502C143.111 18.391 143.037 18.002 143.111 17.4834L143.475 14.4829L147.835 13.6494L150.211 6.23159C150.472 5.39811 151.04 4.98138 151.916 4.98138H156.053L154.963 13.7051H161.699L161.056 19.0392H154.32L152.838 30.9579C152.745 31.7172 152.671 32.3191 152.615 32.7637C152.559 33.208 152.512 33.5508 152.475 33.7915C152.456 34.0324 152.447 34.199 152.447 34.2916C152.447 34.3656 152.447 34.4214 152.447 34.4584C152.447 35.1066 152.596 35.6253 152.894 36.0141C153.192 36.3846 153.64 36.5697 154.236 36.5697C154.571 36.5697 154.86 36.5327 155.102 36.4586C155.345 36.3661 155.55 36.2735 155.717 36.1809C155.904 36.0696 156.071 35.977 156.22 35.903C156.369 35.8104 156.528 35.7641 156.696 35.7641C156.938 35.7641 157.115 35.8197 157.227 35.9308C157.339 36.0233 157.45 36.1902 157.562 36.4309L159.239 40.098C158.158 40.9316 156.975 41.5613 155.689 41.9874C154.404 42.4132 153.109 42.6264 151.804 42.6264C149.68 42.6264 147.993 42.0614 146.745 40.9316C145.515 39.7833 144.863 38.1997 144.788 36.1809ZM181.202 18.4836C181.035 18.4651 180.867 18.4558 180.699 18.4558C180.531 18.4558 180.364 18.4558 180.196 18.4558C178.705 18.4558 177.336 18.7891 176.087 19.456C174.839 20.1228 173.758 21.0302 172.845 22.1785C171.95 23.3269 171.242 24.6605 170.72 26.1792C170.217 27.698 169.966 29.3002 169.966 30.9856C169.966 32.9118 170.264 34.3101 170.86 35.1807C171.456 36.0326 172.239 36.4586 173.208 36.4586C173.897 36.4586 174.578 36.2087 175.249 35.7086C175.938 35.2085 176.581 34.5232 177.177 33.6526C177.774 32.7822 178.323 31.7635 178.826 30.5966C179.33 29.4113 179.767 28.1518 180.14 26.8182L181.202 18.4836ZM179.302 36.7921C178.072 38.5887 176.693 40.0055 175.165 41.0427C173.655 42.08 171.988 42.5986 170.161 42.5986C169.099 42.5986 168.084 42.3947 167.114 41.9874C166.164 41.5613 165.326 40.9316 164.599 40.098C163.872 39.2462 163.295 38.1811 162.866 36.9032C162.456 35.6067 162.251 34.0972 162.251 32.3747C162.251 30.6522 162.465 28.9852 162.894 27.3738C163.323 25.7439 163.937 24.216 164.739 22.7897C165.54 21.3637 166.509 20.058 167.646 18.8726C168.801 17.6685 170.078 16.6407 171.475 15.7886C172.891 14.9367 174.419 14.2793 176.059 13.8162C177.718 13.3346 179.46 13.0939 181.286 13.0939C182.628 13.0939 183.97 13.1957 185.311 13.3994C186.653 13.5845 187.976 13.918 189.28 14.3996L185.814 42.1818H181.705C181.221 42.1818 180.811 42.117 180.476 41.9874C180.159 41.8576 179.898 41.6817 179.693 41.4595C179.507 41.2371 179.376 40.9779 179.302 40.6815C179.227 40.3852 179.19 40.061 179.19 39.7092L179.302 36.7921ZM194.249 36.1809C194.249 36.0511 194.249 35.903 194.249 35.7363C194.249 35.551 194.259 35.2918 194.278 34.9583C194.315 34.6065 194.361 34.1527 194.417 33.5971C194.492 33.0229 194.585 32.2821 194.697 31.3745L196.234 19.0392H193.719C193.346 19.0392 193.038 18.9096 192.796 18.6502C192.573 18.391 192.498 18.002 192.573 17.4834L192.936 14.4829L197.297 13.6494L199.671 6.23159C199.933 5.39811 200.502 4.98138 201.377 4.98138H205.513L204.423 13.7051H211.161L210.517 19.0392H203.781L202.299 30.9579C202.206 31.7172 202.132 32.3191 202.075 32.7637C202.02 33.208 201.974 33.5508 201.936 33.7915C201.918 34.0324 201.909 34.199 201.909 34.2916C201.909 34.3656 201.909 34.4214 201.909 34.4584C201.909 35.1066 202.057 35.6253 202.356 36.0141C202.654 36.3846 203.102 36.5697 203.698 36.5697C204.033 36.5697 204.322 36.5327 204.564 36.4586C204.806 36.3661 205.012 36.2735 205.178 36.1809C205.365 36.0696 205.533 35.977 205.682 35.903C205.83 35.8104 205.989 35.7641 206.157 35.7641C206.399 35.7641 206.575 35.8197 206.688 35.9308C206.799 36.0233 206.912 36.1902 207.023 36.4309L208.7 40.098C207.62 40.9316 206.437 41.5613 205.151 41.9874C203.864 42.4132 202.57 42.6264 201.264 42.6264C199.14 42.6264 197.456 42.0614 196.206 40.9316C194.976 39.7833 194.324 38.1997 194.249 36.1809ZM240.433 13.5383L236.939 42.1818H233.025C231.198 42.1818 230.287 41.3206 230.287 39.5981L230.37 37.0143C228.953 38.9034 227.407 40.3112 225.729 41.2371C224.072 42.1448 222.348 42.5986 220.558 42.5986C219.348 42.5986 218.258 42.3577 217.289 41.8761C216.32 41.3947 215.519 40.6907 214.885 39.7648C214.251 38.8386 213.803 37.7088 213.543 36.3753C213.282 35.0233 213.264 33.4767 213.488 31.7357L215.64 13.5383H223.355L221.173 31.7357C220.969 33.4582 221.052 34.6806 221.424 35.4029C221.817 36.1067 222.514 36.4586 223.521 36.4586C224.193 36.4586 224.882 36.2735 225.59 35.903C226.317 35.514 227.007 34.9676 227.659 34.2638C228.329 33.56 228.945 32.7174 229.504 31.7357C230.08 30.7355 230.556 29.6242 230.929 28.4018L232.746 13.5383H240.433ZM262.424 19.2059C262.2 19.5208 261.978 19.7523 261.754 19.9004C261.548 20.0302 261.288 20.095 260.971 20.095C260.617 20.095 260.262 20.0022 259.909 19.8171C259.574 19.6319 259.192 19.4375 258.764 19.2336C258.334 19.0115 257.84 18.8076 257.281 18.6224C256.74 18.4373 256.098 18.3447 255.353 18.3447C253.954 18.3447 252.912 18.641 252.222 19.2336C251.55 19.8263 251.215 20.5671 251.215 21.4562C251.215 22.1785 251.487 22.762 252.026 23.2065C252.567 23.6326 253.247 24.0214 254.067 24.3734C254.887 24.7068 255.771 25.0494 256.723 25.4013C257.672 25.7531 258.558 26.207 259.378 26.7626C260.198 27.3183 260.878 28.0313 261.417 28.9019C261.958 29.7723 262.23 30.8836 262.23 32.2358C262.23 33.6434 261.948 34.9768 261.389 36.2365C260.831 37.4959 260.02 38.5979 258.958 39.5424C257.916 40.4871 256.647 41.2371 255.157 41.7928C253.667 42.3484 251.998 42.6264 250.153 42.6264C249.24 42.6264 248.346 42.5338 247.47 42.3484C246.614 42.1818 245.793 41.9411 245.011 41.6261C244.246 41.2927 243.548 40.9131 242.914 40.4871C242.3 40.061 241.777 39.5981 241.348 39.098L243.249 36.2365C243.473 35.903 243.744 35.6438 244.059 35.4584C244.377 35.2733 244.759 35.1807 245.207 35.1807C245.617 35.1807 245.99 35.301 246.325 35.5417C246.659 35.7641 247.032 36.0141 247.442 36.292C247.852 36.5512 248.336 36.8014 248.897 37.0421C249.473 37.2642 250.219 37.3755 251.132 37.3755C251.822 37.3755 252.426 37.2922 252.949 37.1254C253.488 36.9402 253.936 36.6993 254.291 36.4031C254.664 36.0881 254.933 35.7271 255.102 35.3196C255.288 34.912 255.381 34.4862 255.381 34.0416C255.381 33.2266 255.109 32.5968 254.57 32.1525C254.029 31.7079 253.35 31.3189 252.529 30.9856C251.729 30.6522 250.853 30.328 249.902 30.0132C248.952 29.6982 248.066 29.2724 247.246 28.7353C246.445 28.1981 245.774 27.5036 245.235 26.6515C244.694 25.7996 244.424 24.6605 244.424 23.2343C244.424 21.9378 244.666 20.6877 245.149 19.4838C245.653 18.2612 246.38 17.1779 247.331 16.2332C248.28 15.2885 249.456 14.5292 250.853 13.955C252.268 13.3809 253.899 13.0939 255.744 13.0939C257.626 13.0939 259.295 13.4179 260.747 14.0661C262.22 14.6959 263.441 15.5017 264.41 16.4832L262.424 19.2059Z" fill="#F6F6FF"/>
</svg>
