<svg width="42" height="42" viewBox="0 0 42 42" fill="none" xmlns="http://www.w3.org/2000/svg">
<path d="M17.7121 27.2577L17.7099 27.2618C17.1778 28.2251 16.9115 28.9844 16.8378 29.543C16.7814 29.9698 16.8422 30.2195 16.9258 30.3683C16.9428 30.3766 16.9616 30.3864 16.9816 30.3977L17.7421 30.6831L17.7543 30.6876L17.7662 30.6925C29.2855 35.4184 31.7996 36.4425 33.8044 37.2593C35.2129 37.8331 36.37 38.3044 40.2219 39.8851C40.2085 39.851 40.1946 39.8158 40.1801 39.7792C39.9086 39.094 39.4687 38.0319 38.7777 36.3638C37.9836 34.447 36.8581 31.7299 35.2757 27.8647L32.6155 21.3708L32.5519 21.2155V21.1994C32.5442 21.1794 32.5356 21.1573 32.526 21.1328C32.4733 20.9983 32.3971 20.8069 32.3047 20.5763C32.1201 20.1158 31.873 19.5052 31.624 18.8941C31.375 18.2828 31.1247 17.6726 30.9337 17.2126C30.838 16.9822 30.7582 16.7918 30.7011 16.6585C30.6947 16.6435 30.6886 16.6294 30.6829 16.6162C30.5281 16.5093 30.2676 16.4374 29.8057 16.5027C29.2387 16.5829 28.5042 16.8577 27.6419 17.3303C25.9271 18.2701 23.9163 19.8751 22.089 21.7034L22.089 21.7034L22.0807 21.7115C20.1606 23.5806 18.6213 25.59 17.7121 27.2577Z" stroke="#333333" stroke-width="1.70413"/>
<path d="M30.2852 17.1538C29.4331 20.2781 25.684 27.2082 17.5042 29.9348" stroke="#333333" stroke-width="1.70413"/>
<path d="M36.248 32.4911L28.5795 35.0473" stroke="#333333" stroke-width="1.70413"/>
<path d="M34.5449 27.4426L22.616 32.491" stroke="#333333" stroke-width="1.70413"/>
<path d="M25.9669 2.17304L26.184 5.71502C26.2103 5.78379 26.1043 5.90305 26.0383 5.9283L22.866 7.14017C22.6677 7.21591 22.7067 7.51622 22.8914 7.60326L26.2045 8.54409C26.2968 8.58761 26.3892 8.63113 26.3756 8.79391L26.5927 12.3359C26.6054 12.5674 26.8825 12.698 27.0282 12.4847L28.8702 9.57461C28.91 9.48059 29.0422 9.4301 29.1345 9.47362L32.4476 10.4144C32.6984 10.4762 32.8178 10.1942 32.6729 10.0131L30.4732 7.22858C30.4469 7.15981 30.3944 7.02228 30.4342 6.92826L32.2761 4.01815C32.4218 3.80487 32.1846 3.5803 31.9863 3.65604L28.814 4.86791C28.7479 4.89316 28.5895 4.87489 28.5632 4.80612L26.3634 2.02156C26.2185 1.8405 25.9542 1.94149 25.9669 2.17304Z" fill="#333333"/>
<path d="M11.3644 24.7408L8.69508 27.079C8.65675 27.1418 8.49762 27.131 8.43722 27.0942L5.53813 25.3257C5.35693 25.2152 5.1432 25.4298 5.18733 25.6291L6.46947 28.8256C6.49153 28.9253 6.51359 29.025 6.37653 29.1138L3.70717 31.4521C3.53177 31.6037 3.59795 31.9028 3.85582 31.8876L7.2847 31.5648C7.38343 31.5388 7.50423 31.6125 7.52629 31.7122L8.80844 34.9087C8.91296 35.1449 9.20916 35.0669 9.26376 34.8415L10.1212 31.398C10.1595 31.3352 10.2362 31.2095 10.3349 31.1835L13.7638 30.8607C14.0217 30.8455 14.0542 30.5205 13.873 30.41L10.9739 28.6415C10.9135 28.6047 10.8311 28.4682 10.8694 28.4053L11.7268 24.9618C11.7814 24.7365 11.5398 24.5891 11.3644 24.7408Z" fill="#333333"/>
<path d="M18.9913 18.6569C19.2789 18.3889 19.2789 17.9868 18.9913 17.7187C18.0566 16.8475 16.8342 17.0485 15.8994 17.2496C11.8728 18.0538 15.6118 14.5689 13.5985 12.6925C12.6638 11.8213 11.4414 12.0223 10.5066 12.2234C6.47999 13.0276 10.219 9.60973 8.20569 7.66626C6.5519 6.12488 4.32287 7.93432 3.38811 7.13013C3.1005 6.86206 2.66907 6.86206 2.38145 7.13013C2.09384 7.39819 2.09384 7.80029 2.38145 8.06835C3.31621 8.93957 4.53858 8.73852 5.47333 8.53747C9.49997 7.73327 5.76095 11.1511 7.77427 13.0946C9.78758 14.971 13.5266 11.4862 12.6637 15.2391C12.448 16.1103 12.2323 17.1826 13.1671 18.1208C14.8209 19.6622 17.0499 17.8527 17.9847 18.6569C18.2723 18.925 18.7037 18.925 18.9913 18.6569Z" fill="#333333"/>
<path d="M18.5115 12.0414C18.9288 12.0414 19.207 11.6512 19.207 11.2609C19.207 8.76325 15.7988 9.07546 17.8855 7.59248C18.4419 7.20222 19.207 6.65586 19.207 5.48508C19.207 3.61184 17.1899 3.37768 17.1899 2.59717C17.1899 2.12886 16.8421 1.81665 16.4943 1.81665C16.077 1.81665 15.7988 2.20691 15.7988 2.59717C15.7988 3.76794 16.5639 4.31431 17.1203 4.70456C19.207 6.18755 15.7988 5.95339 15.7988 8.37299C15.7988 9.54377 16.5639 10.0901 17.1203 10.4804C17.6072 10.8707 17.8159 11.0268 17.8159 11.2609C17.8159 11.6512 18.0941 12.0414 18.5115 12.0414Z" fill="#333333"/>
<path d="M1.24324 22.2663C3.11648 22.2663 3.35064 20.2492 4.13115 20.2492C4.91167 20.2492 5.14583 22.2663 7.01907 22.2663C8.18984 22.2663 8.73621 21.5012 9.12647 20.9447C9.51672 20.4578 9.67283 20.2492 9.90698 20.2492C10.3753 20.2492 10.6875 19.9014 10.6875 19.5536C10.6875 19.2058 10.2972 18.858 9.90698 18.858C7.48738 18.858 7.72153 22.2663 6.23855 20.1796C5.84829 19.6232 5.30193 18.858 4.13115 18.858C2.25791 18.858 2.02376 20.8752 1.24324 20.8752C0.77493 20.8752 0.462723 21.2229 0.462723 21.5707C0.462723 21.9185 0.852982 22.2663 1.24324 22.2663Z" fill="#333333"/>
</svg>
