<svg width="42" height="42" viewBox="0 0 42 42" fill="none" xmlns="http://www.w3.org/2000/svg">
<path d="M19.7938 21.7034L19.7938 21.7034L19.8021 21.7115C21.7222 23.5806 23.2615 25.59 24.1707 27.2577L24.173 27.2618C24.7051 28.2251 24.9713 28.9844 25.045 29.543C25.1014 29.9698 25.0406 30.2195 24.957 30.3683C24.94 30.3766 24.9213 30.3864 24.9012 30.3977L24.1407 30.6831L24.1285 30.6876L24.1166 30.6925C12.5973 35.4184 10.0832 36.4425 8.07843 37.2593C6.66994 37.8331 5.51281 38.3044 1.6609 39.8851C1.67429 39.851 1.68822 39.8158 1.70269 39.7792C1.9742 39.094 2.41415 38.0319 3.10515 36.3638C3.8992 34.447 5.02475 31.7299 6.60714 27.8647L9.26727 21.3708L9.33086 21.2155V21.1994C9.33859 21.1794 9.34725 21.1573 9.35683 21.1328C9.40954 20.9983 9.48567 20.8069 9.5781 20.5763C9.76272 20.1158 10.0098 19.5052 10.2588 18.8941C10.5079 18.2828 10.7581 17.6726 10.9491 17.2126C11.0448 16.9822 11.1246 16.7918 11.1817 16.6585C11.1881 16.6435 11.1942 16.6294 11.1999 16.6162C11.3547 16.5093 11.6152 16.4374 12.0771 16.5027C12.6441 16.5829 13.3786 16.8577 14.2409 17.3303C15.9557 18.2701 17.9665 19.8751 19.7938 21.7034Z" stroke="#333333" stroke-width="1.70413"/>
<path d="M11.5977 17.1538C12.4497 20.2781 16.1988 27.2082 24.3786 29.9348" stroke="#333333" stroke-width="1.70413"/>
<path d="M5.63477 32.4911L13.3034 35.0473" stroke="#333333" stroke-width="1.70413"/>
<path d="M7.33789 27.4426L19.2668 32.491" stroke="#333333" stroke-width="1.70413"/>
<path d="M15.9159 2.17304L15.6988 5.71502C15.6726 5.78379 15.7785 5.90305 15.8446 5.9283L19.0169 7.14017C19.2151 7.21591 19.1761 7.51622 18.9914 7.60326L15.6784 8.54409C15.586 8.58761 15.4936 8.63113 15.5072 8.79391L15.2901 12.3359C15.2774 12.5674 15.0003 12.698 14.8546 12.4847L13.0127 9.57461C12.9728 9.48059 12.8407 9.4301 12.7483 9.47362L9.43525 10.4144C9.18444 10.4762 9.06498 10.1942 9.20988 10.0131L11.4096 7.22858C11.4359 7.15981 11.4885 7.02228 11.4486 6.92826L9.60671 4.01815C9.46099 3.80487 9.69824 3.5803 9.89651 3.65604L13.0688 4.86791C13.1349 4.89316 13.2933 4.87489 13.3196 4.80612L15.5194 2.02156C15.6643 1.8405 15.9286 1.94149 15.9159 2.17304Z" fill="#333333"/>
<path d="M30.5184 24.7408L33.1877 27.079C33.2261 27.1418 33.3852 27.131 33.4456 27.0942L36.3447 25.3257C36.5259 25.2152 36.7396 25.4298 36.6955 25.6291L35.4133 28.8256C35.3913 28.9253 35.3692 29.025 35.5063 29.1138L38.1756 31.4521C38.351 31.6037 38.2849 31.9028 38.027 31.8876L34.5981 31.5648C34.4994 31.5388 34.3786 31.6125 34.3565 31.7122L33.0744 34.9087C32.9699 35.1449 32.6737 35.0669 32.619 34.8415L31.7616 31.398C31.7233 31.3352 31.6466 31.2095 31.5479 31.1835L28.119 30.8607C27.8611 30.8455 27.8286 30.5205 28.0098 30.41L30.9089 28.6415C30.9693 28.6047 31.0517 28.4682 31.0134 28.4053L30.156 24.9618C30.1014 24.7365 30.343 24.5891 30.5184 24.7408Z" fill="#333333"/>
<path d="M22.8915 18.6569C22.6039 18.3889 22.6039 17.9868 22.8915 17.7187C23.8262 16.8475 25.0486 17.0485 25.9834 17.2496C30.01 18.0538 26.271 14.5689 28.2843 12.6925C29.2191 11.8213 30.4414 12.0223 31.3762 12.2234C35.4028 13.0276 31.6638 9.60973 33.6771 7.66626C35.3309 6.12488 37.5599 7.93432 38.4947 7.13013C38.7823 6.86206 39.2137 6.86206 39.5014 7.13013C39.789 7.39819 39.789 7.80029 39.5014 8.06835C38.5666 8.93957 37.3442 8.73852 36.4095 8.53747C32.3828 7.73327 36.1219 11.1511 34.1085 13.0946C32.0952 14.971 28.3562 11.4862 29.2191 15.2391C29.4348 16.1103 29.6505 17.1826 28.7157 18.1208C27.0619 19.6622 24.8329 17.8527 23.8982 18.6569C23.6105 18.925 23.1791 18.925 22.8915 18.6569Z" fill="#333333"/>
<path d="M23.3713 12.0414C22.954 12.0414 22.6758 11.6512 22.6758 11.2609C22.6758 8.76325 26.084 9.07546 23.9974 7.59248C23.4409 7.20222 22.6758 6.65586 22.6758 5.48508C22.6758 3.61184 24.6929 3.37768 24.6929 2.59717C24.6929 2.12886 25.0407 1.81665 25.3885 1.81665C25.8058 1.81665 26.084 2.20691 26.084 2.59717C26.084 3.76794 25.3189 4.31431 24.7625 4.70456C22.6758 6.18755 26.084 5.95339 26.084 8.37299C26.084 9.54377 25.3189 10.0901 24.7625 10.4804C24.2756 10.8707 24.0669 11.0268 24.0669 11.2609C24.0669 11.6512 23.7887 12.0414 23.3713 12.0414Z" fill="#333333"/>
<path d="M40.6396 22.2663C38.7663 22.2663 38.5322 20.2492 37.7517 20.2492C36.9711 20.2492 36.737 22.2663 34.8637 22.2663C33.693 22.2663 33.1466 21.5012 32.7563 20.9447C32.3661 20.4578 32.21 20.2492 31.9758 20.2492C31.5075 20.2492 31.1953 19.9014 31.1953 19.5536C31.1953 19.2058 31.5856 18.858 31.9758 18.858C34.3954 18.858 34.1613 22.2663 35.6443 20.1796C36.0345 19.6232 36.5809 18.858 37.7517 18.858C39.6249 18.858 39.8591 20.8752 40.6396 20.8752C41.1079 20.8752 41.4201 21.2229 41.4201 21.5707C41.4201 21.9185 41.0298 22.2663 40.6396 22.2663Z" fill="#333333"/>
</svg>
